<?xml version="1.0" encoding="UTF-8" standalone="no"?>
<!DOCTYPE svg PUBLIC "-//W3C//DTD SVG 1.1//EN"
 "http://www.w3.org/Graphics/SVG/1.1/DTD/svg11.dtd">
<!-- Generated by graphviz version 2.40.1 (20161225.0304)
 -->
<!-- Title: DocLineBreak Pages: 1 -->
<!--zoomable 409 -->
<svg id="main" version="1.1" xmlns="http://www.w3.org/2000/svg" xmlns:xlink="http://www.w3.org/1999/xlink" xml:space="preserve" onload="init(evt)">
<style type="text/css"><![CDATA[
.edge:hover path { stroke: red; }
.edge:hover polygon { stroke: red; fill: red; }
]]></style>
<script type="text/javascript"><![CDATA[
var edges = document.getElementsByTagName('g');
if (edges && edges.length) {
  for (var i=0;i<edges.length;i++) {
    if (edges[i].id.substr(0,4)=='edge') {
      edges[i].setAttribute('class','edge');
    }
  }
}
]]></script>
        <defs>
                <circle id="rim" cx="0" cy="0" r="7"/>
                <circle id="rim2" cx="0" cy="0" r="3.5"/>
                <g id="zoomPlus">
                        <use xlink:href="#rim" fill="#404040">
                                <set attributeName="fill" to="#808080" begin="zoomplus.mouseover" end="zoomplus.mouseout"/>
                        </use>
                        <path d="M-4,0h8M0,-4v8" fill="none" stroke="white" stroke-width="1.5" pointer-events="none"/>
                </g>
                <g id="zoomMin">
                        <use xlink:href="#rim" fill="#404040">
                                <set attributeName="fill" to="#808080" begin="zoomminus.mouseover" end="zoomminus.mouseout"/>
                        </use>
                        <path d="M-4,0h8" fill="none" stroke="white" stroke-width="1.5" pointer-events="none"/>
                </g>
                <g id="dirArrow">
                        <path fill="none" stroke="white" stroke-width="1.5" d="M0,-3.0v7 M-2.5,-0.5L0,-3.0L2.5,-0.5"/>
                </g>
               <g id="resetDef">
                       <use xlink:href="#rim2" fill="#404040">
                               <set attributeName="fill" to="#808080" begin="reset.mouseover" end="reset.mouseout"/>
                       </use>
               </g>
        </defs>

<script type="text/javascript">
var viewWidth = 1203;
var viewHeight = 409;
var sectionId = 'dynsection-1';
</script>
<script xlink:href="../../svgpan.js"/>
<svg id="graph" class="graph">
<g id="viewport">
<title>DocLineBreak</title>
<!-- Node1 -->
<g id="node1" class="node">
<title>Node1</title>
<g id="a_node1"><a xlink:title="Node representing a line break.">
<polygon fill="#999999" stroke="#666666" points="1195,-21.5 1117,-21.5 1117,-2.5 1195,-2.5 1195,-21.5"/>
<text text-anchor="middle" x="1156" y="-9.5" font-family="Helvetica,sans-Serif" font-size="10.00" fill="#000000">DocLineBreak</text>
</a>
</g>
</g>
<!-- Node2 -->
<g id="node2" class="node">
<title>Node2</title>
<g id="a_node2"><a xlink:href="../../d9/d0e/class_doc_node.html" target="_top" xlink:title="Abstract node interface with type information.">
<polygon fill="#ffffff" stroke="#666666" points="1080,-113.5 1022,-113.5 1022,-94.5 1080,-94.5 1080,-113.5"/>
<text text-anchor="middle" x="1051" y="-101.5" font-family="Helvetica,sans-Serif" font-size="10.00" fill="#000000">DocNode</text>
</a>
</g>
</g>
<!-- Node2&#45;&gt;Node1 -->
<g id="edge1" class="edge">
<title>Node2&#45;&gt;Node1</title>
<path fill="none" stroke="#63b8ff" d="M1069.8892,-87.4495C1091.7344,-68.3089 1126.976,-37.4306 1144.844,-21.7748"/>
<polygon fill="#63b8ff" stroke="#63b8ff" points="1067.4516,-84.9318 1062.2368,-94.1544 1072.0647,-90.1967 1067.4516,-84.9318"/>
</g>
<!-- Node3 -->
<g id="node3" class="node">
<title>Node3</title>
<g id="a_node3"><a xlink:href="../../da/d02/class_doc_parser.html" target="_top" xlink:title=" ">
<polygon fill="#ffffff" stroke="#666666" points="942,-231.5 879,-231.5 879,-212.5 942,-212.5 942,-231.5"/>
<text text-anchor="middle" x="910.5" y="-219.5" font-family="Helvetica,sans-Serif" font-size="10.00" fill="#000000">DocParser</text>
</a>
</g>
</g>
<!-- Node3&#45;&gt;Node2 -->
<g id="edge2" class="edge">
<title>Node3&#45;&gt;Node2</title>
<path fill="none" stroke="#9a32cd" stroke-dasharray="5,2" d="M929.9676,-205.65C959.6272,-180.7401 1015.2252,-134.0457 1039.3434,-113.7899"/>
<polygon fill="#9a32cd" stroke="#9a32cd" points="927.4044,-203.2321 921.9977,-212.3436 931.9063,-208.5924 927.4044,-203.2321"/>
<text text-anchor="middle" x="982" y="-181" font-family="Helvetica,sans-Serif" font-size="10.00" fill="#000000"> m_parser</text>
</g>
<!-- Node4 -->
<g id="node4" class="node">
<title>Node4</title>
<g id="a_node4"><a xlink:href="../../de/dad/class_i_doc_parser.html" target="_top" xlink:title="opaque parser interface">
<polygon fill="#ffffff" stroke="#666666" points="773,-268.5 707,-268.5 707,-249.5 773,-249.5 773,-268.5"/>
<text text-anchor="middle" x="740" y="-256.5" font-family="Helvetica,sans-Serif" font-size="10.00" fill="#000000">IDocParser</text>
</a>
</g>
</g>
<!-- Node4&#45;&gt;Node3 -->
<g id="edge3" class="edge">
<title>Node4&#45;&gt;Node3</title>
<path fill="none" stroke="#63b8ff" d="M782.9799,-252.4149C806.215,-248.5469 835.3279,-243.202 861,-237 867.5464,-235.4185 874.5057,-233.4762 881.074,-231.5202"/>
<polygon fill="#63b8ff" stroke="#63b8ff" points="782.3855,-248.9656 773.0812,-254.0331 783.5149,-255.8739 782.3855,-248.9656"/>
</g>
<!-- Node5 -->
<g id="node5" class="node">
<title>Node5</title>
<g id="a_node5"><a xlink:href="../../d8/d7d/struct_doc_parser_context.html" target="_top" xlink:title="Parser&#39;s context to store all global variables.">
<polygon fill="#ffffff" stroke="#666666" points="789,-231.5 691,-231.5 691,-212.5 789,-212.5 789,-231.5"/>
<text text-anchor="middle" x="740" y="-219.5" font-family="Helvetica,sans-Serif" font-size="10.00" fill="#000000">DocParserContext</text>
</a>
</g>
</g>
<!-- Node5&#45;&gt;Node3 -->
<g id="edge4" class="edge">
<title>Node5&#45;&gt;Node3</title>
<path fill="none" stroke="#9a32cd" stroke-dasharray="5,2" d="M799.342,-222C826.0465,-222 856.4988,-222 878.7691,-222"/>
<polygon fill="#9a32cd" stroke="#9a32cd" points="799.3157,-218.5001 789.3157,-222 799.3156,-225.5001 799.3157,-218.5001"/>
<text text-anchor="middle" x="834" y="-225" font-family="Helvetica,sans-Serif" font-size="10.00" fill="#000000"> context</text>
</g>
<!-- Node6 -->
<g id="node6" class="node">
<title>Node6</title>
<g id="a_node6"><a xlink:href="../../d5/dcc/class_definition.html" target="_top" xlink:title="The common base class of all entity definitions found in the sources.">
<polygon fill="#ffffff" stroke="#666666" points="265.5,-294.5 207.5,-294.5 207.5,-275.5 265.5,-275.5 265.5,-294.5"/>
<text text-anchor="middle" x="236.5" y="-282.5" font-family="Helvetica,sans-Serif" font-size="10.00" fill="#000000">Definition</text>
</a>
</g>
</g>
<!-- Node6&#45;&gt;Node5 -->
<g id="edge5" class="edge">
<title>Node6&#45;&gt;Node5</title>
<path fill="none" stroke="#9a32cd" stroke-dasharray="5,2" d="M275.7497,-289.792C339.8861,-296.7793 471.0318,-307.5377 581,-294 622.8315,-288.8503 639.1355,-296.0916 673,-271 685.4935,-261.7431 679.1087,-251.0188 691,-241 695.5355,-237.1787 700.9267,-234.073 706.4468,-231.5659"/>
<polygon fill="#9a32cd" stroke="#9a32cd" points="276.0037,-286.2987 265.6765,-288.665 275.2253,-293.2553 276.0037,-286.2987"/>
<text text-anchor="middle" x="527.5" y="-303" font-family="Helvetica,sans-Serif" font-size="10.00" fill="#000000"> scope</text>
</g>
<!-- Node12 -->
<g id="node12" class="node">
<title>Node12</title>
<g id="a_node12"><a xlink:href="../../da/d09/class_member_def.html" target="_top" xlink:title="A model of a class/file/namespace member symbol.">
<polygon fill="#ffffff" stroke="#666666" points="561.5,-284.5 493.5,-284.5 493.5,-265.5 561.5,-265.5 561.5,-284.5"/>
<text text-anchor="middle" x="527.5" y="-272.5" font-family="Helvetica,sans-Serif" font-size="10.00" fill="#000000">MemberDef</text>
</a>
</g>
</g>
<!-- Node6&#45;&gt;Node12 -->
<g id="edge12" class="edge">
<title>Node6&#45;&gt;Node12</title>
<path fill="none" stroke="#63b8ff" d="M275.8707,-283.6471C333.294,-281.6737 439.0756,-278.0386 493.3748,-276.1727"/>
<polygon fill="#63b8ff" stroke="#63b8ff" points="275.6084,-280.1539 265.7346,-283.9954 275.8489,-287.1498 275.6084,-280.1539"/>
</g>
<!-- Node7 -->
<g id="node7" class="node">
<title>Node7</title>
<g id="a_node7"><a xlink:href="../../d9/d45/class_q_c_string.html" target="_top" xlink:title="This is an alternative implementation of QCString.">
<polygon fill="#ffffff" stroke="#666666" points="265,-129.5 208,-129.5 208,-110.5 265,-110.5 265,-129.5"/>
<text text-anchor="middle" x="236.5" y="-117.5" font-family="Helvetica,sans-Serif" font-size="10.00" fill="#000000">QCString</text>
</a>
</g>
</g>
<!-- Node7&#45;&gt;Node5 -->
<g id="edge6" class="edge">
<title>Node7&#45;&gt;Node5</title>
<path fill="none" stroke="#9a32cd" stroke-dasharray="5,2" d="M265.5041,-133.6776C283.4081,-141.5129 307.0725,-150.7952 329,-156 438.4653,-181.9832 470.2431,-160.2342 581,-180 626.5332,-188.1259 678.1103,-202.7864 709.8481,-212.4572"/>
<polygon fill="#9a32cd" stroke="#9a32cd" points="266.7548,-130.4028 256.1977,-129.5086 263.893,-136.7911 266.7548,-130.4028"/>
<text text-anchor="middle" x="527.5" y="-249" font-family="Helvetica,sans-Serif" font-size="10.00" fill="#000000"> context</text>
<text text-anchor="middle" x="527.5" y="-238" font-family="Helvetica,sans-Serif" font-size="10.00" fill="#000000">exampleName</text>
<text text-anchor="middle" x="527.5" y="-227" font-family="Helvetica,sans-Serif" font-size="10.00" fill="#000000">fileName</text>
<text text-anchor="middle" x="527.5" y="-216" font-family="Helvetica,sans-Serif" font-size="10.00" fill="#000000">includeFileName</text>
<text text-anchor="middle" x="527.5" y="-205" font-family="Helvetica,sans-Serif" font-size="10.00" fill="#000000">includeFileText</text>
<text text-anchor="middle" x="527.5" y="-194" font-family="Helvetica,sans-Serif" font-size="10.00" fill="#000000">relPath</text>
<text text-anchor="middle" x="527.5" y="-183" font-family="Helvetica,sans-Serif" font-size="10.00" fill="#000000">searchUrl</text>
</g>
<!-- Node13 -->
<g id="node13" class="node">
<title>Node13</title>
<g id="a_node13"><a xlink:href="../../d6/df4/struct_token_info.html" target="_top" xlink:title="Data associated with a token used by the comment block parser.">
<polygon fill="#ffffff" stroke="#666666" points="557.5,-76.5 497.5,-76.5 497.5,-57.5 557.5,-57.5 557.5,-76.5"/>
<text text-anchor="middle" x="527.5" y="-64.5" font-family="Helvetica,sans-Serif" font-size="10.00" fill="#000000">TokenInfo</text>
</a>
</g>
</g>
<!-- Node7&#45;&gt;Node13 -->
<g id="edge14" class="edge">
<title>Node7&#45;&gt;Node13</title>
<path fill="none" stroke="#9a32cd" stroke-dasharray="5,2" d="M257.2476,-104.2402C275.1644,-91.6769 302.3071,-75.0605 329,-68 386.9707,-52.6663 457.8395,-57.7149 497.2921,-62.5224"/>
<polygon fill="#9a32cd" stroke="#9a32cd" points="254.8241,-101.6734 248.7705,-110.3685 258.9252,-107.3463 254.8241,-101.6734"/>
<text text-anchor="middle" x="392.5" y="-148" font-family="Helvetica,sans-Serif" font-size="10.00" fill="#000000"> attribsStr</text>
<text text-anchor="middle" x="392.5" y="-137" font-family="Helvetica,sans-Serif" font-size="10.00" fill="#000000">chars</text>
<text text-anchor="middle" x="392.5" y="-126" font-family="Helvetica,sans-Serif" font-size="10.00" fill="#000000">name</text>
<text text-anchor="middle" x="392.5" y="-115" font-family="Helvetica,sans-Serif" font-size="10.00" fill="#000000">sectionId</text>
<text text-anchor="middle" x="392.5" y="-104" font-family="Helvetica,sans-Serif" font-size="10.00" fill="#000000">simpleSectName</text>
<text text-anchor="middle" x="392.5" y="-93" font-family="Helvetica,sans-Serif" font-size="10.00" fill="#000000">simpleSectText</text>
<text text-anchor="middle" x="392.5" y="-82" font-family="Helvetica,sans-Serif" font-size="10.00" fill="#000000">text</text>
<text text-anchor="middle" x="392.5" y="-71" font-family="Helvetica,sans-Serif" font-size="10.00" fill="#000000">verb</text>
</g>
<!-- Node8 -->
<g id="node8" class="node">
<title>Node8</title>
<g id="a_node8"><a xlink:href="../../d9/d82/class_iterable_stack.html" target="_top" xlink:title=" ">
<polygon fill="#ffffff" stroke="#666666" points="581,-380 474,-380 474,-350 581,-350 581,-380"/>
<text text-anchor="start" x="482" y="-368" font-family="Helvetica,sans-Serif" font-size="10.00" fill="#000000">IterableStack&lt; const</text>
<text text-anchor="middle" x="527.5" y="-357" font-family="Helvetica,sans-Serif" font-size="10.00" fill="#000000"> DocNodeVariant * &gt;</text>
</a>
</g>
</g>
<!-- Node8&#45;&gt;Node5 -->
<g id="edge7" class="edge">
<title>Node8&#45;&gt;Node5</title>
<path fill="none" stroke="#9a32cd" stroke-dasharray="5,2" d="M591.0608,-367.0595C619.7462,-364.5645 651.8612,-356.4398 673,-335 702.8647,-304.7101 663.7586,-273.6694 691,-241 694.1554,-237.2159 698.1598,-234.1829 702.5147,-231.7524"/>
<polygon fill="#9a32cd" stroke="#9a32cd" points="590.8282,-363.5671 581.0811,-367.7198 591.2904,-370.5519 590.8282,-363.5671"/>
<text text-anchor="middle" x="636" y="-379" font-family="Helvetica,sans-Serif" font-size="10.00" fill="#000000"> initialStyleStack</text>
<text text-anchor="middle" x="636" y="-368" font-family="Helvetica,sans-Serif" font-size="10.00" fill="#000000">styleStack</text>
</g>
<!-- Node9 -->
<g id="node9" class="node">
<title>Node9</title>
<g id="a_node9"><a xlink:title=" ">
<polygon fill="#ffffff" stroke="#666666" points="311,-400.5 162,-400.5 162,-359.5 311,-359.5 311,-400.5"/>
<text text-anchor="start" x="170" y="-388.5" font-family="Helvetica,sans-Serif" font-size="10.00" fill="#000000">std::stack&lt; const DocNode</text>
<text text-anchor="start" x="170" y="-377.5" font-family="Helvetica,sans-Serif" font-size="10.00" fill="#000000">Variant * , std::deque</text>
<text text-anchor="middle" x="236.5" y="-366.5" font-family="Helvetica,sans-Serif" font-size="10.00" fill="#000000">&lt;const DocNodeVariant * &gt; &#160;&gt;</text>
</a>
</g>
</g>
<!-- Node9&#45;&gt;Node8 -->
<g id="edge8" class="edge">
<title>Node9&#45;&gt;Node8</title>
<path fill="none" stroke="#63b8ff" d="M321.0765,-375.6404C370.3617,-373.0999 431.0285,-369.9728 473.8016,-367.768"/>
<polygon fill="#63b8ff" stroke="#63b8ff" points="320.8684,-372.1464 311.0618,-376.1566 321.2288,-379.1371 320.8684,-372.1464"/>
</g>
<!-- Node10 -->
<g id="node10" class="node">
<title>Node10</title>
<g id="a_node10"><a xlink:href="../../d9/d82/class_iterable_stack.html" target="_top" xlink:title=" ">
<polygon fill="#ffffff" stroke="#666666" points="309.5,-341.5 163.5,-341.5 163.5,-322.5 309.5,-322.5 309.5,-341.5"/>
<text text-anchor="middle" x="236.5" y="-329.5" font-family="Helvetica,sans-Serif" font-size="10.00" fill="#000000">IterableStack&lt; T, Container &gt;</text>
</a>
</g>
</g>
<!-- Node10&#45;&gt;Node8 -->
<g id="edge9" class="edge">
<title>Node10&#45;&gt;Node8</title>
<path fill="none" stroke="#ffa500" stroke-dasharray="5,2" d="M319.7411,-339.3004C360.8168,-343.1681 411.0725,-348.2966 456,-354 461.7313,-354.7276 467.7114,-355.5488 473.6659,-356.4066"/>
<polygon fill="#ffa500" stroke="#ffa500" points="320.0583,-335.8148 309.7761,-338.3697 319.4073,-342.7845 320.0583,-335.8148"/>
<text text-anchor="middle" x="392.5" y="-357" font-family="Helvetica,sans-Serif" font-size="10.00" fill="#000000"> &lt; const DocNodeVariant * &gt;</text>
</g>
<!-- Node11 -->
<g id="node11" class="node">
<title>Node11</title>
<g id="a_node11"><a xlink:title=" ">
<polygon fill="#ffffff" stroke="#666666" points="110,-347 15,-347 15,-317 110,-317 110,-347"/>
<text text-anchor="start" x="23" y="-335" font-family="Helvetica,sans-Serif" font-size="10.00" fill="#000000">std::stack&lt; T, std</text>
<text text-anchor="middle" x="62.5" y="-324" font-family="Helvetica,sans-Serif" font-size="10.00" fill="#000000">::deque&lt; T &gt; &gt;</text>
</a>
</g>
</g>
<!-- Node11&#45;&gt;Node10 -->
<g id="edge10" class="edge">
<title>Node11&#45;&gt;Node10</title>
<path fill="none" stroke="#63b8ff" d="M120.308,-332C134.0418,-332 148.8734,-332 163.1969,-332"/>
<polygon fill="#63b8ff" stroke="#63b8ff" points="120.0463,-328.5001 110.0463,-332 120.0462,-335.5001 120.0463,-328.5001"/>
</g>
<!-- Node12&#45;&gt;Node5 -->
<g id="edge11" class="edge">
<title>Node12&#45;&gt;Node5</title>
<path fill="none" stroke="#9a32cd" stroke-dasharray="5,2" d="M571.5055,-264.0245C609.8883,-254.4514 665.0112,-240.7031 701.6294,-231.5701"/>
<polygon fill="#9a32cd" stroke="#9a32cd" points="570.4976,-260.6686 561.6418,-266.4846 572.1916,-267.4605 570.4976,-260.6686"/>
<text text-anchor="middle" x="636" y="-259" font-family="Helvetica,sans-Serif" font-size="10.00" fill="#000000"> memberDef</text>
</g>
<!-- Node13&#45;&gt;Node5 -->
<g id="edge13" class="edge">
<title>Node13&#45;&gt;Node5</title>
<path fill="none" stroke="#9a32cd" stroke-dasharray="5,2" d="M567.3201,-78.8847C600.1252,-90.6353 645.5606,-111.7408 673,-145 690.1766,-165.8197 672.5843,-183.2679 691,-203 694.6107,-206.8688 699.1005,-209.9598 703.8857,-212.4269"/>
<polygon fill="#9a32cd" stroke="#9a32cd" points="568.1732,-75.477 557.5785,-75.5352 565.8971,-82.0966 568.1732,-75.477"/>
<text text-anchor="middle" x="636" y="-148" font-family="Helvetica,sans-Serif" font-size="10.00" fill="#000000"> token</text>
</g>
<!-- Node14 -->
<g id="node14" class="node">
<title>Node14</title>
<g id="a_node14"><a xlink:href="../../db/d4d/class_html_attrib_list.html" target="_top" xlink:title="Class representing a list of HTML attributes.">
<polygon fill="#ffffff" stroke="#666666" points="275,-26.5 198,-26.5 198,-7.5 275,-7.5 275,-26.5"/>
<text text-anchor="middle" x="236.5" y="-14.5" font-family="Helvetica,sans-Serif" font-size="10.00" fill="#000000">HtmlAttribList</text>
</a>
</g>
</g>
<!-- Node14&#45;&gt;Node1 -->
<g id="edge19" class="edge">
<title>Node14&#45;&gt;Node1</title>
<path fill="none" stroke="#9a32cd" stroke-dasharray="5,2" d="M285.3507,-12.4006C343.124,-7.366 442.2213,0 527.5,0 527.5,0 527.5,0 1051,0 1072.8339,0 1097.0575,-2.593 1116.7312,-5.3682"/>
<polygon fill="#9a32cd" stroke="#9a32cd" points="284.7094,-8.9436 275.0568,-13.3113 285.3263,-15.9164 284.7094,-8.9436"/>
<text text-anchor="middle" x="834" y="-3" font-family="Helvetica,sans-Serif" font-size="10.00" fill="#000000"> m_attribs</text>
</g>
<!-- Node14&#45;&gt;Node13 -->
<g id="edge15" class="edge">
<title>Node14&#45;&gt;Node13</title>
<path fill="none" stroke="#9a32cd" stroke-dasharray="5,2" d="M285.3279,-15.8763C330.3562,-15.9857 398.6951,-19.0712 456,-34 475.8449,-39.1699 496.9817,-49.611 511.0831,-57.3711"/>
<polygon fill="#9a32cd" stroke="#9a32cd" points="285.2375,-12.3764 275.246,-15.9007 285.2545,-19.3764 285.2375,-12.3764"/>
<text text-anchor="middle" x="392.5" y="-37" font-family="Helvetica,sans-Serif" font-size="10.00" fill="#000000"> attribs</text>
</g>
<!-- Node15 -->
<g id="node15" class="node">
<title>Node15</title>
<g id="a_node15"><a xlink:title=" ">
<polygon fill="#ffffff" stroke="#666666" points="125,-26.5 0,-26.5 0,-7.5 125,-7.5 125,-26.5"/>
<text text-anchor="middle" x="62.5" y="-14.5" font-family="Helvetica,sans-Serif" font-size="10.00" fill="#000000">std::vector&lt; HtmlAttrib &gt;</text>
</a>
</g>
</g>
<!-- Node15&#45;&gt;Node14 -->
<g id="edge16" class="edge">
<title>Node15&#45;&gt;Node14</title>
<path fill="none" stroke="#63b8ff" d="M135.3908,-17C156.8225,-17 179.4279,-17 197.8162,-17"/>
<polygon fill="#63b8ff" stroke="#63b8ff" points="135.318,-13.5001 125.318,-17 135.318,-20.5001 135.318,-13.5001"/>
</g>
<!-- Node16 -->
<g id="node16" class="node">
<title>Node16</title>
<g id="a_node16"><a xlink:href="../../d1/d7f/class_doc_tokenizer.html" target="_top" xlink:title=" ">
<polygon fill="#ffffff" stroke="#666666" points="778.5,-194.5 701.5,-194.5 701.5,-175.5 778.5,-175.5 778.5,-194.5"/>
<text text-anchor="middle" x="740" y="-182.5" font-family="Helvetica,sans-Serif" font-size="10.00" fill="#000000">DocTokenizer</text>
</a>
</g>
</g>
<!-- Node16&#45;&gt;Node3 -->
<g id="edge17" class="edge">
<title>Node16&#45;&gt;Node3</title>
<path fill="none" stroke="#9a32cd" stroke-dasharray="5,2" d="M788.5268,-192.518C810.7412,-196.2932 837.3328,-201.2823 861,-207 867.5464,-208.5815 874.5057,-210.5238 881.074,-212.4798"/>
<polygon fill="#9a32cd" stroke="#9a32cd" points="789.0941,-189.0644 778.6544,-190.8707 787.9419,-195.9689 789.0941,-189.0644"/>
<text text-anchor="middle" x="834" y="-210" font-family="Helvetica,sans-Serif" font-size="10.00" fill="#000000"> tokenizer</text>
</g>
<!-- Node17 -->
<g id="node17" class="node">
<title>Node17</title>
<g id="a_node17"><a xlink:href="../../d2/dc1/class_s_i_data_collection.html" target="_top" xlink:title=" ">
<polygon fill="#ffffff" stroke="#666666" points="785.5,-305.5 694.5,-305.5 694.5,-286.5 785.5,-286.5 785.5,-305.5"/>
<text text-anchor="middle" x="740" y="-293.5" font-family="Helvetica,sans-Serif" font-size="10.00" fill="#000000">SIDataCollection</text>
</a>
</g>
</g>
<!-- Node17&#45;&gt;Node3 -->
<g id="edge18" class="edge">
<title>Node17&#45;&gt;Node3</title>
<path fill="none" stroke="#9a32cd" stroke-dasharray="5,2" d="M787.6756,-283.632C810.4685,-276.875 837.7789,-267.5212 861,-256 874.6355,-249.2347 888.8182,-239.1274 898.4889,-231.6905"/>
<polygon fill="#9a32cd" stroke="#9a32cd" points="786.5182,-280.3232 777.8815,-286.4598 788.46,-287.0485 786.5182,-280.3232"/>
<text text-anchor="middle" x="834" y="-279" font-family="Helvetica,sans-Serif" font-size="10.00" fill="#000000"> searchData</text>
</g>
</g>
</svg>
        <g id="navigator" transform="translate(0 0)" fill="#404254">
                <rect fill="#f2f5e9" fill-opacity="0.5" stroke="#606060" stroke-width=".5" x="0" y="0" width="60" height="60"/>
                <use id="zoomplus" xlink:href="#zoomPlus" x="17" y="9" onmousedown="handleZoom(evt,'in')"/>
                <use id="zoomminus" xlink:href="#zoomMin" x="42" y="9" onmousedown="handleZoom(evt,'out')"/>
                <use id="reset" xlink:href="#resetDef" x="30" y="36" onmousedown="handleReset()"/>
                <g id="arrowUp" xlink:href="#dirArrow" transform="translate(30 24)" onmousedown="handlePan(0,-1)">
                  <use xlink:href="#rim" fill="#404040">
                        <set attributeName="fill" to="#808080" begin="arrowUp.mouseover" end="arrowUp.mouseout"/>
                  </use>
                  <path fill="none" stroke="white" stroke-width="1.5" d="M0,-3.0v7 M-2.5,-0.5L0,-3.0L2.5,-0.5"/>
                </g>
                <g id="arrowRight" xlink:href="#dirArrow" transform="rotate(90) translate(36 -43)" onmousedown="handlePan(1,0)">
                  <use xlink:href="#rim" fill="#404040">
                        <set attributeName="fill" to="#808080" begin="arrowRight.mouseover" end="arrowRight.mouseout"/>
                  </use>
                  <path fill="none" stroke="white" stroke-width="1.5" d="M0,-3.0v7 M-2.5,-0.5L0,-3.0L2.5,-0.5"/>
                </g>
                <g id="arrowDown" xlink:href="#dirArrow" transform="rotate(180) translate(-30 -48)" onmousedown="handlePan(0,1)">
                  <use xlink:href="#rim" fill="#404040">
                        <set attributeName="fill" to="#808080" begin="arrowDown.mouseover" end="arrowDown.mouseout"/>
                  </use>
                  <path fill="none" stroke="white" stroke-width="1.5" d="M0,-3.0v7 M-2.5,-0.5L0,-3.0L2.5,-0.5"/>
                </g>
                <g id="arrowLeft" xlink:href="#dirArrow" transform="rotate(270) translate(-36 17)" onmousedown="handlePan(-1,0)">
                  <use xlink:href="#rim" fill="#404040">
                        <set attributeName="fill" to="#808080" begin="arrowLeft.mouseover" end="arrowLeft.mouseout"/>
                  </use>
                  <path fill="none" stroke="white" stroke-width="1.5" d="M0,-3.0v7 M-2.5,-0.5L0,-3.0L2.5,-0.5"/>
                </g>
        </g>
        <svg viewBox="0 0 15 15" width="100%" height="30px" preserveAspectRatio="xMaxYMin meet">
         <g id="arrow_out" transform="scale(0.3 0.3)">
          <a xlink:href="class_doc_line_break__coll__graph_org.svg" target="_base">
           <rect id="button" ry="5" rx="5" y="6" x="6" height="38" width="38"
                fill="#f2f5e9" fill-opacity="0.5" stroke="#606060" stroke-width="1.0"/>
           <path id="arrow"
             d="M 11.500037,31.436501 C 11.940474,20.09759 22.043105,11.32322 32.158766,21.979434 L 37.068811,17.246167 C 37.068811,17.246167 37.088388,32 37.088388,32 L 22.160133,31.978069 C 22.160133,31.978069 26.997745,27.140456 26.997745,27.140456 C 18.528582,18.264221 13.291696,25.230495 11.500037,31.436501 z"
             style="fill:#404040;"/>
          </a>
         </g>
        </svg>
</svg>
