<?xml version="1.0" encoding="UTF-8" standalone="no"?>
<!DOCTYPE svg PUBLIC "-//W3C//DTD SVG 1.1//EN"
 "http://www.w3.org/Graphics/SVG/1.1/DTD/svg11.dtd">
<!-- Generated by graphviz version 2.43.0 (0)
 -->
<!-- Title: RTFGenerator Pages: 1 -->
<svg width="482pt" height="170pt"
 viewBox="0.00 0.00 482.00 170.00" xmlns="http://www.w3.org/2000/svg" xmlns:xlink="http://www.w3.org/1999/xlink">
<g id="graph0" class="graph" transform="scale(1 1) rotate(0) translate(4 166)">
<title>RTFGenerator</title>
<!-- Node1 -->
<g id="node1" class="node">
<title>Node1</title>
<g id="a_node1"><a xlink:title="Generator for RTF output.">
<polygon fill="#999999" stroke="#666666" points="328.5,-19 245.5,-19 245.5,0 328.5,0 328.5,-19"/>
<text text-anchor="middle" x="287" y="-7" font-family="Helvetica,sans-Serif" font-size="10.00">RTFGenerator</text>
</a>
</g>
</g>
<!-- Node2 -->
<g id="node2" class="node">
<title>Node2</title>
<g id="a_node2"><a xlink:href="../../d3/d8e/class_output_generator.html" target="_top" xlink:title="Abstract output generator.">
<polygon fill="white" stroke="#666666" points="224,-85 126,-85 126,-66 224,-66 224,-85"/>
<text text-anchor="middle" x="175" y="-73" font-family="Helvetica,sans-Serif" font-size="10.00">OutputGenerator</text>
</a>
</g>
</g>
<!-- Node2&#45;&gt;Node1 -->
<g id="edge1" class="edge">
<title>Node2&#45;&gt;Node1</title>
<path fill="none" stroke="#63b8ff" d="M198.87,-60.86C220.92,-48.26 253.02,-29.92 271.78,-19.2"/>
<polygon fill="#63b8ff" stroke="#63b8ff" points="197.05,-57.87 190.1,-65.87 200.52,-63.95 197.05,-57.87"/>
</g>
<!-- Node3 -->
<g id="node3" class="node">
<title>Node3</title>
<g id="a_node3"><a xlink:href="../../d3/d30/class_text_stream.html" target="_top" xlink:title="Text streaming class that buffers data.">
<polygon fill="white" stroke="#666666" points="113,-162 41,-162 41,-143 113,-143 113,-162"/>
<text text-anchor="middle" x="77" y="-150" font-family="Helvetica,sans-Serif" font-size="10.00">TextStream</text>
</a>
</g>
</g>
<!-- Node3&#45;&gt;Node2 -->
<g id="edge2" class="edge">
<title>Node3&#45;&gt;Node2</title>
<path fill="none" stroke="#9a32cd" stroke-dasharray="5,2" d="M81.88,-133.16C85.42,-123.05 91.17,-110.97 100,-103 109.13,-94.77 120.97,-89.06 132.54,-85.11"/>
<polygon fill="#9a32cd" stroke="#9a32cd" points="78.54,-132.14 78.96,-142.73 85.23,-134.19 78.54,-132.14"/>
<text text-anchor="middle" x="111" y="-111.5" font-family="Helvetica,sans-Serif" font-size="10.00" fill="grey"> m_t</text>
</g>
<!-- Node6 -->
<g id="node6" class="node">
<title>Node6</title>
<g id="a_node6"><a xlink:href="../../d2/df7/class_r_t_f_code_generator.html" target="_top" xlink:title="Generator for RTF code fragments.">
<polygon fill="white" stroke="#666666" points="108,-85 0,-85 0,-66 108,-66 108,-85"/>
<text text-anchor="middle" x="54" y="-73" font-family="Helvetica,sans-Serif" font-size="10.00">RTFCodeGenerator</text>
</a>
</g>
</g>
<!-- Node3&#45;&gt;Node6 -->
<g id="edge7" class="edge">
<title>Node3&#45;&gt;Node6</title>
<path fill="none" stroke="#9a32cd" stroke-dasharray="5,2" d="M60.46,-134.88C58.24,-131.81 56.29,-128.47 55,-125 50.06,-111.74 51.17,-95 52.52,-85.05"/>
<polygon fill="#9a32cd" stroke="#9a32cd" points="57.96,-137.33 67.09,-142.7 63.3,-132.81 57.96,-137.33"/>
<text text-anchor="middle" x="66" y="-111.5" font-family="Helvetica,sans-Serif" font-size="10.00" fill="grey"> m_t</text>
</g>
<!-- Node4 -->
<g id="node4" class="node">
<title>Node4</title>
<g id="a_node4"><a xlink:href="../../d9/d45/class_q_c_string.html" target="_top" xlink:title="This is an alternative implementation of QCString.">
<polygon fill="white" stroke="#666666" points="293.5,-162 234.5,-162 234.5,-143 293.5,-143 293.5,-162"/>
<text text-anchor="middle" x="264" y="-150" font-family="Helvetica,sans-Serif" font-size="10.00">QCString</text>
</a>
</g>
</g>
<!-- Node4&#45;&gt;Node1 -->
<g id="edge4" class="edge">
<title>Node4&#45;&gt;Node1</title>
<path fill="none" stroke="#9a32cd" stroke-dasharray="5,2" d="M304.08,-146.36C340.47,-139.33 392.14,-122.92 417,-85 441.39,-47.8 375.19,-27.06 328.55,-17.38"/>
<polygon fill="#9a32cd" stroke="#9a32cd" points="303.02,-142.99 293.79,-148.17 304.24,-149.88 303.02,-142.99"/>
<text text-anchor="middle" x="448" y="-73" font-family="Helvetica,sans-Serif" font-size="10.00" fill="grey"> m_relPath</text>
</g>
<!-- Node4&#45;&gt;Node2 -->
<g id="edge3" class="edge">
<title>Node4&#45;&gt;Node2</title>
<path fill="none" stroke="#9a32cd" stroke-dasharray="5,2" d="M259.29,-132.97C255.93,-122.97 250.46,-111.05 242,-103 233.39,-94.81 221.95,-89.04 210.96,-85.04"/>
<polygon fill="#9a32cd" stroke="#9a32cd" points="256,-134.19 262.17,-142.8 262.72,-132.22 256,-134.19"/>
<text text-anchor="middle" x="286" y="-117" font-family="Helvetica,sans-Serif" font-size="10.00" fill="grey"> m_dir</text>
<text text-anchor="middle" x="286" y="-106" font-family="Helvetica,sans-Serif" font-size="10.00" fill="grey">m_fileName</text>
</g>
<!-- Node4&#45;&gt;Node6 -->
<g id="edge8" class="edge">
<title>Node4&#45;&gt;Node6</title>
<path fill="none" stroke="#9a32cd" stroke-dasharray="5,2" d="M224.24,-149.38C198.93,-146.54 166.27,-139.98 141,-125 129.89,-118.41 132.55,-110.45 122,-103 110.93,-95.18 97.23,-89.26 85.04,-85.03"/>
<polygon fill="#9a32cd" stroke="#9a32cd" points="223.96,-152.87 234.25,-150.36 224.64,-145.91 223.96,-152.87"/>
<text text-anchor="middle" x="189.5" y="-111.5" font-family="Helvetica,sans-Serif" font-size="10.00" fill="grey"> m_sourceFileName</text>
</g>
<!-- Node5 -->
<g id="node5" class="node">
<title>Node5</title>
<g id="a_node5"><a xlink:href="../../d3/d18/struct_r_t_f_generator_1_1_r_t_f_list_item_info.html" target="_top" xlink:title=" ">
<polygon fill="white" stroke="#666666" points="408,-85 242,-85 242,-66 408,-66 408,-85"/>
<text text-anchor="middle" x="325" y="-73" font-family="Helvetica,sans-Serif" font-size="10.00">RTFGenerator::RTFListItemInfo</text>
</a>
</g>
</g>
<!-- Node5&#45;&gt;Node1 -->
<g id="edge5" class="edge">
<title>Node5&#45;&gt;Node1</title>
<path fill="none" stroke="#9a32cd" stroke-dasharray="5,2" d="M314.64,-57.05C307.4,-44.86 298.05,-29.11 292.29,-19.41"/>
<polygon fill="#9a32cd" stroke="#9a32cd" points="311.76,-59.06 319.88,-65.87 317.78,-55.48 311.76,-59.06"/>
<text text-anchor="middle" x="345.5" y="-40" font-family="Helvetica,sans-Serif" font-size="10.00" fill="grey"> m_listItemInfo</text>
</g>
<!-- Node6&#45;&gt;Node1 -->
<g id="edge6" class="edge">
<title>Node6&#45;&gt;Node1</title>
<path fill="none" stroke="#9a32cd" stroke-dasharray="5,2" d="M84.98,-62.16C105.69,-54.22 133.69,-44.1 159,-37 187.51,-29 220.22,-22.27 245.43,-17.59"/>
<polygon fill="#9a32cd" stroke="#9a32cd" points="83.49,-58.98 75.44,-65.85 86.02,-65.5 83.49,-58.98"/>
<text text-anchor="middle" x="189.5" y="-40" font-family="Helvetica,sans-Serif" font-size="10.00" fill="grey"> m_codeGen</text>
</g>
</g>
</svg>
