<?xml version="1.0" encoding="UTF-8" standalone="no"?>
<!DOCTYPE svg PUBLIC "-//W3C//DTD SVG 1.1//EN"
 "http://www.w3.org/Graphics/SVG/1.1/DTD/svg11.dtd">
<!-- Generated by graphviz version 2.40.1 (20161225.0304)
 -->
<!-- Title: src/filename.h Pages: 1 -->
<svg width="777pt" height="247pt"
 viewBox="0.00 0.00 776.50 247.00" xmlns="http://www.w3.org/2000/svg" xmlns:xlink="http://www.w3.org/1999/xlink">
<g id="graph0" class="graph" transform="scale(1 1) rotate(0) translate(4 243)">
<title>src/filename.h</title>
<!-- Node1 -->
<g id="node1" class="node">
<title>Node1</title>
<g id="a_node1"><a xlink:title=" ">
<polygon fill="#999999" stroke="#666666" points="283,-239 205,-239 205,-220 283,-220 283,-239"/>
<text text-anchor="middle" x="244" y="-227" font-family="Helvetica,sans-Serif" font-size="10.00" fill="#000000">src/filename.h</text>
</a>
</g>
</g>
<!-- Node2 -->
<g id="node2" class="node">
<title>Node2</title>
<g id="a_node2"><a xlink:title=" ">
<polygon fill="#e0e0e0" stroke="#999999" points="52,-129 0,-129 0,-110 52,-110 52,-129"/>
<text text-anchor="middle" x="26" y="-117" font-family="Helvetica,sans-Serif" font-size="10.00" fill="#000000">memory</text>
</a>
</g>
</g>
<!-- Node1&#45;&gt;Node2 -->
<g id="edge1" class="edge">
<title>Node1&#45;&gt;Node2</title>
<path fill="none" stroke="#63b8ff" d="M225.0353,-219.9306C186.5443,-200.5086 99.0942,-156.3824 54.0187,-133.6379"/>
<polygon fill="#63b8ff" stroke="#63b8ff" points="55.5807,-130.5057 45.0761,-129.1256 52.4272,-136.7552 55.5807,-130.5057"/>
</g>
<!-- Node3 -->
<g id="node3" class="node">
<title>Node3</title>
<g id="a_node3"><a xlink:title=" ">
<polygon fill="#e0e0e0" stroke="#999999" points="114,-129 70,-129 70,-110 114,-110 114,-129"/>
<text text-anchor="middle" x="92" y="-117" font-family="Helvetica,sans-Serif" font-size="10.00" fill="#000000">vector</text>
</a>
</g>
</g>
<!-- Node1&#45;&gt;Node3 -->
<g id="edge2" class="edge">
<title>Node1&#45;&gt;Node3</title>
<path fill="none" stroke="#63b8ff" d="M230.7769,-219.9306C204.5006,-200.9149 145.501,-158.2179 113.5467,-135.093"/>
<polygon fill="#63b8ff" stroke="#63b8ff" points="115.4539,-132.1529 105.3008,-129.1256 111.35,-137.8237 115.4539,-132.1529"/>
</g>
<!-- Node4 -->
<g id="node4" class="node">
<title>Node4</title>
<g id="a_node4"><a xlink:href="../../da/de1/linkedmap_8h.html" target="_top" xlink:title=" ">
<polygon fill="#ffffff" stroke="#666666" points="278.5,-184 209.5,-184 209.5,-165 278.5,-165 278.5,-184"/>
<text text-anchor="middle" x="244" y="-172" font-family="Helvetica,sans-Serif" font-size="10.00" fill="#000000">linkedmap.h</text>
</a>
</g>
</g>
<!-- Node1&#45;&gt;Node4 -->
<g id="edge3" class="edge">
<title>Node1&#45;&gt;Node4</title>
<path fill="none" stroke="#63b8ff" d="M244,-219.9197C244,-212.9083 244,-203.1442 244,-194.4652"/>
<polygon fill="#63b8ff" stroke="#63b8ff" points="247.5001,-194.3408 244,-184.3408 240.5001,-194.3409 247.5001,-194.3408"/>
</g>
<!-- Node15 -->
<g id="node15" class="node">
<title>Node15</title>
<g id="a_node15"><a xlink:href="../../db/d7c/utf8_8h.html" target="_top" xlink:title="Various UTF8 related helper functions.">
<polygon fill="#ffffff" stroke="#666666" points="768.5,-74 727.5,-74 727.5,-55 768.5,-55 768.5,-74"/>
<text text-anchor="middle" x="748" y="-62" font-family="Helvetica,sans-Serif" font-size="10.00" fill="#000000">utf8.h</text>
</a>
</g>
</g>
<!-- Node1&#45;&gt;Node15 -->
<g id="edge24" class="edge">
<title>Node1&#45;&gt;Node15</title>
<path fill="none" stroke="#63b8ff" d="M269.1253,-219.9183C314.0376,-202.6489 410.8902,-164.7635 491,-129 508.6061,-121.1401 511.7056,-116.0883 530,-110 607.8043,-84.1069 633.6621,-94.0794 717.7291,-73.7769"/>
<polygon fill="#63b8ff" stroke="#63b8ff" points="718.5753,-77.1732 727.4346,-71.3625 716.8855,-70.3802 718.5753,-77.1732"/>
</g>
<!-- Node16 -->
<g id="node16" class="node">
<title>Node16</title>
<g id="a_node16"><a xlink:href="../../db/d16/config_8h.html" target="_top" xlink:title=" ">
<polygon fill="#ffffff" stroke="#666666" points="597.5,-184 546.5,-184 546.5,-165 597.5,-165 597.5,-184"/>
<text text-anchor="middle" x="572" y="-172" font-family="Helvetica,sans-Serif" font-size="10.00" fill="#000000">config.h</text>
</a>
</g>
</g>
<!-- Node1&#45;&gt;Node16 -->
<g id="edge22" class="edge">
<title>Node1&#45;&gt;Node16</title>
<path fill="none" stroke="#63b8ff" d="M283.1766,-223.649C337.5545,-215.4155 438.9394,-199.659 525,-184 528.6549,-183.335 532.4637,-182.6131 536.2618,-181.8745"/>
<polygon fill="#63b8ff" stroke="#63b8ff" points="537.0493,-185.2866 546.1771,-179.9075 535.6871,-178.4204 537.0493,-185.2866"/>
</g>
<!-- Node4&#45;&gt;Node2 -->
<g id="edge6" class="edge">
<title>Node4&#45;&gt;Node2</title>
<path fill="none" stroke="#63b8ff" d="M209.2021,-166.0823C174.3614,-157.6024 118.9658,-143.9801 62.2162,-129.2801"/>
<polygon fill="#63b8ff" stroke="#63b8ff" points="62.916,-125.8458 52.3572,-126.7188 61.1559,-132.6209 62.916,-125.8458"/>
</g>
<!-- Node4&#45;&gt;Node3 -->
<g id="edge5" class="edge">
<title>Node4&#45;&gt;Node3</title>
<path fill="none" stroke="#63b8ff" d="M217.5236,-164.9197C191.4644,-155.4904 151.6461,-141.0825 123.8664,-131.0306"/>
<polygon fill="#63b8ff" stroke="#63b8ff" points="124.8184,-127.6531 114.2242,-127.5416 122.4366,-134.2354 124.8184,-127.6531"/>
</g>
<!-- Node5 -->
<g id="node5" class="node">
<title>Node5</title>
<g id="a_node5"><a xlink:title=" ">
<polygon fill="#e0e0e0" stroke="#999999" points="215.5,-129 132.5,-129 132.5,-110 215.5,-110 215.5,-129"/>
<text text-anchor="middle" x="174" y="-117" font-family="Helvetica,sans-Serif" font-size="10.00" fill="#000000">unordered_map</text>
</a>
</g>
</g>
<!-- Node4&#45;&gt;Node5 -->
<g id="edge4" class="edge">
<title>Node4&#45;&gt;Node5</title>
<path fill="none" stroke="#63b8ff" d="M231.8069,-164.9197C221.5944,-156.8956 206.7932,-145.2661 194.7247,-135.7837"/>
<polygon fill="#63b8ff" stroke="#63b8ff" points="196.5503,-132.767 186.5247,-129.3408 192.2255,-138.2712 196.5503,-132.767"/>
</g>
<!-- Node6 -->
<g id="node6" class="node">
<title>Node6</title>
<g id="a_node6"><a xlink:title=" ">
<polygon fill="#e0e0e0" stroke="#999999" points="422.5,-19 381.5,-19 381.5,0 422.5,0 422.5,-19"/>
<text text-anchor="middle" x="402" y="-7" font-family="Helvetica,sans-Serif" font-size="10.00" fill="#000000">string</text>
</a>
</g>
</g>
<!-- Node4&#45;&gt;Node6 -->
<g id="edge7" class="edge">
<title>Node4&#45;&gt;Node6</title>
<path fill="none" stroke="#63b8ff" d="M240.6306,-164.9247C233.5601,-142.9489 219.811,-88.235 245,-55 260.2562,-34.8706 330.2035,-20.7358 371.4088,-13.9914"/>
<polygon fill="#63b8ff" stroke="#63b8ff" points="372.1318,-17.4206 381.461,-12.3991 371.0365,-10.5068 372.1318,-17.4206"/>
</g>
<!-- Node7 -->
<g id="node7" class="node">
<title>Node7</title>
<g id="a_node7"><a xlink:title=" ">
<polygon fill="#e0e0e0" stroke="#999999" points="310,-74 254,-74 254,-55 310,-55 310,-74"/>
<text text-anchor="middle" x="282" y="-62" font-family="Helvetica,sans-Serif" font-size="10.00" fill="#000000">algorithm</text>
</a>
</g>
</g>
<!-- Node4&#45;&gt;Node7 -->
<g id="edge8" class="edge">
<title>Node4&#45;&gt;Node7</title>
<path fill="none" stroke="#63b8ff" d="M247.3722,-164.7382C253.6414,-146.5906 267.1938,-107.36 275.3613,-83.7172"/>
<polygon fill="#63b8ff" stroke="#63b8ff" points="278.7325,-84.6776 278.6896,-74.0828 272.1161,-82.3919 278.7325,-84.6776"/>
</g>
<!-- Node8 -->
<g id="node8" class="node">
<title>Node8</title>
<g id="a_node8"><a xlink:title=" ">
<polygon fill="#e0e0e0" stroke="#999999" points="374,-74 328,-74 328,-55 374,-55 374,-74"/>
<text text-anchor="middle" x="351" y="-62" font-family="Helvetica,sans-Serif" font-size="10.00" fill="#000000">cctype</text>
</a>
</g>
</g>
<!-- Node4&#45;&gt;Node8 -->
<g id="edge9" class="edge">
<title>Node4&#45;&gt;Node8</title>
<path fill="none" stroke="#63b8ff" d="M253.4955,-164.7382C271.7048,-146.0184 311.7358,-104.865 334.4361,-81.5283"/>
<polygon fill="#63b8ff" stroke="#63b8ff" points="337.2147,-83.6914 341.6785,-74.0828 332.197,-78.8106 337.2147,-83.6914"/>
</g>
<!-- Node9 -->
<g id="node9" class="node">
<title>Node9</title>
<g id="a_node9"><a xlink:href="../../d7/d5c/qcstring_8h.html" target="_top" xlink:title=" ">
<polygon fill="#ffffff" stroke="#666666" points="482.5,-129 423.5,-129 423.5,-110 482.5,-110 482.5,-129"/>
<text text-anchor="middle" x="453" y="-117" font-family="Helvetica,sans-Serif" font-size="10.00" fill="#000000">qcstring.h</text>
</a>
</g>
</g>
<!-- Node4&#45;&gt;Node9 -->
<g id="edge10" class="edge">
<title>Node4&#45;&gt;Node9</title>
<path fill="none" stroke="#63b8ff" d="M278.5121,-165.4179C315.5499,-155.6711 374.2961,-140.2116 413.2431,-129.9623"/>
<polygon fill="#63b8ff" stroke="#63b8ff" points="414.4003,-133.2771 423.1803,-127.3473 412.6188,-126.5075 414.4003,-133.2771"/>
</g>
<!-- Node9&#45;&gt;Node6 -->
<g id="edge11" class="edge">
<title>Node9&#45;&gt;Node6</title>
<path fill="none" stroke="#63b8ff" d="M444.8869,-109.9651C437.7318,-101.1384 427.4649,-87.3936 421,-74 414.0225,-59.5446 409.0592,-42.0101 405.9592,-28.8743"/>
<polygon fill="#63b8ff" stroke="#63b8ff" points="409.3617,-28.0505 403.7902,-19.0389 402.526,-29.5581 409.3617,-28.0505"/>
</g>
<!-- Node9&#45;&gt;Node7 -->
<g id="edge12" class="edge">
<title>Node9&#45;&gt;Node7</title>
<path fill="none" stroke="#63b8ff" d="M423.2141,-109.9197C394.4615,-100.6718 350.8199,-86.635 319.6683,-76.6155"/>
<polygon fill="#63b8ff" stroke="#63b8ff" points="320.6192,-73.2448 310.0278,-73.5148 318.4758,-79.9086 320.6192,-73.2448"/>
</g>
<!-- Node9&#45;&gt;Node8 -->
<g id="edge13" class="edge">
<title>Node9&#45;&gt;Node8</title>
<path fill="none" stroke="#63b8ff" d="M435.233,-109.9197C419.3877,-101.3757 395.9618,-88.7441 377.8341,-78.9694"/>
<polygon fill="#63b8ff" stroke="#63b8ff" points="379.3688,-75.8205 368.9057,-74.155 376.0465,-81.9819 379.3688,-75.8205"/>
</g>
<!-- Node10 -->
<g id="node10" class="node">
<title>Node10</title>
<g id="a_node10"><a xlink:title=" ">
<polygon fill="#e0e0e0" stroke="#999999" points="476,-74 430,-74 430,-55 476,-55 476,-74"/>
<text text-anchor="middle" x="453" y="-62" font-family="Helvetica,sans-Serif" font-size="10.00" fill="#000000">cstring</text>
</a>
</g>
</g>
<!-- Node9&#45;&gt;Node10 -->
<g id="edge14" class="edge">
<title>Node9&#45;&gt;Node10</title>
<path fill="none" stroke="#63b8ff" d="M453,-109.9197C453,-102.9083 453,-93.1442 453,-84.4652"/>
<polygon fill="#63b8ff" stroke="#63b8ff" points="456.5001,-84.3408 453,-74.3408 449.5001,-84.3409 456.5001,-84.3408"/>
</g>
<!-- Node11 -->
<g id="node11" class="node">
<title>Node11</title>
<g id="a_node11"><a xlink:title=" ">
<polygon fill="#e0e0e0" stroke="#999999" points="537.5,-74 494.5,-74 494.5,-55 537.5,-55 537.5,-74"/>
<text text-anchor="middle" x="516" y="-62" font-family="Helvetica,sans-Serif" font-size="10.00" fill="#000000">cstdio</text>
</a>
</g>
</g>
<!-- Node9&#45;&gt;Node11 -->
<g id="edge15" class="edge">
<title>Node9&#45;&gt;Node11</title>
<path fill="none" stroke="#63b8ff" d="M463.9738,-109.9197C473.0758,-101.9735 486.2279,-90.4916 497.0307,-81.0605"/>
<polygon fill="#63b8ff" stroke="#63b8ff" points="499.4964,-83.5541 504.7278,-74.3408 494.8928,-78.2808 499.4964,-83.5541"/>
</g>
<!-- Node12 -->
<g id="node12" class="node">
<title>Node12</title>
<g id="a_node12"><a xlink:title=" ">
<polygon fill="#e0e0e0" stroke="#999999" points="600.5,-74 555.5,-74 555.5,-55 600.5,-55 600.5,-74"/>
<text text-anchor="middle" x="578" y="-62" font-family="Helvetica,sans-Serif" font-size="10.00" fill="#000000">cstdlib</text>
</a>
</g>
</g>
<!-- Node9&#45;&gt;Node12 -->
<g id="edge16" class="edge">
<title>Node9&#45;&gt;Node12</title>
<path fill="none" stroke="#63b8ff" d="M474.7733,-109.9197C494.6369,-101.1798 524.2215,-88.1625 546.6332,-78.3014"/>
<polygon fill="#63b8ff" stroke="#63b8ff" points="548.3132,-81.3861 556.0568,-74.155 545.494,-74.9789 548.3132,-81.3861"/>
</g>
<!-- Node13 -->
<g id="node13" class="node">
<title>Node13</title>
<g id="a_node13"><a xlink:title=" ">
<polygon fill="#e0e0e0" stroke="#999999" points="711,-19 665,-19 665,0 711,0 711,-19"/>
<text text-anchor="middle" x="688" y="-7" font-family="Helvetica,sans-Serif" font-size="10.00" fill="#000000">cstdint</text>
</a>
</g>
</g>
<!-- Node9&#45;&gt;Node13 -->
<g id="edge17" class="edge">
<title>Node9&#45;&gt;Node13</title>
<path fill="none" stroke="#63b8ff" d="M482.614,-112.4491C521.6209,-102.9008 587.8618,-85.7092 610,-74 633.5907,-61.5225 656.6433,-41.1485 671.4933,-26.6389"/>
<polygon fill="#63b8ff" stroke="#63b8ff" points="674.2628,-28.8187 678.8508,-19.2687 669.3088,-23.8732 674.2628,-28.8187"/>
</g>
<!-- Node14 -->
<g id="node14" class="node">
<title>Node14</title>
<g id="a_node14"><a xlink:title=" ">
<polygon fill="#e0e0e0" stroke="#999999" points="709,-74 657,-74 657,-55 709,-55 709,-74"/>
<text text-anchor="middle" x="683" y="-62" font-family="Helvetica,sans-Serif" font-size="10.00" fill="#000000">ostream</text>
</a>
</g>
</g>
<!-- Node9&#45;&gt;Node14 -->
<g id="edge18" class="edge">
<title>Node9&#45;&gt;Node14</title>
<path fill="none" stroke="#63b8ff" d="M482.5976,-112.4223C524.5822,-102.3825 601.3582,-84.023 646.7182,-73.1761"/>
<polygon fill="#63b8ff" stroke="#63b8ff" points="647.8033,-76.5154 656.715,-70.7855 646.1752,-69.7073 647.8033,-76.5154"/>
</g>
<!-- Node9&#45;&gt;Node15 -->
<g id="edge19" class="edge">
<title>Node9&#45;&gt;Node15</title>
<path fill="none" stroke="#63b8ff" d="M482.7801,-112.8544C487.5283,-111.8571 492.3929,-110.872 497,-110 591.7251,-92.071 619.4764,-96.7566 717.7212,-73.7533"/>
<polygon fill="#63b8ff" stroke="#63b8ff" points="718.5345,-77.1576 727.4535,-71.4391 716.915,-70.3475 718.5345,-77.1576"/>
</g>
<!-- Node15&#45;&gt;Node6 -->
<g id="edge21" class="edge">
<title>Node15&#45;&gt;Node6</title>
<path fill="none" stroke="#63b8ff" d="M727.4654,-57.5098C724.3181,-56.5804 721.0889,-55.7065 718,-55 614.7027,-31.3751 489.456,-17.6607 432.6518,-12.2302"/>
<polygon fill="#63b8ff" stroke="#63b8ff" points="432.829,-8.7316 422.546,-11.283 432.1757,-15.701 432.829,-8.7316"/>
</g>
<!-- Node15&#45;&gt;Node13 -->
<g id="edge20" class="edge">
<title>Node15&#45;&gt;Node13</title>
<path fill="none" stroke="#63b8ff" d="M737.5488,-54.9197C728.9651,-47.0514 716.5997,-35.7164 706.3693,-26.3385"/>
<polygon fill="#63b8ff" stroke="#63b8ff" points="708.4721,-23.5181 698.7355,-19.3408 703.742,-28.6782 708.4721,-23.5181"/>
</g>
<!-- Node17 -->
<g id="node17" class="node">
<title>Node17</title>
<g id="a_node17"><a xlink:title=" ">
<polygon fill="#e0e0e0" stroke="#999999" points="619,-129 539,-129 539,-110 619,-110 619,-129"/>
<text text-anchor="middle" x="579" y="-117" font-family="Helvetica,sans-Serif" font-size="10.00" fill="#000000">configvalues.h</text>
</a>
</g>
</g>
<!-- Node16&#45;&gt;Node17 -->
<g id="edge23" class="edge">
<title>Node16&#45;&gt;Node17</title>
<path fill="none" stroke="#63b8ff" d="M573.2193,-164.9197C574.1117,-157.9083 575.3544,-148.1442 576.459,-139.4652"/>
<polygon fill="#63b8ff" stroke="#63b8ff" points="579.9569,-139.7027 577.7475,-129.3408 573.0129,-138.8189 579.9569,-139.7027"/>
</g>
</g>
</svg>
