<?xml version="1.0" encoding="UTF-8" standalone="no"?>
<!DOCTYPE svg PUBLIC "-//W3C//DTD SVG 1.1//EN"
 "http://www.w3.org/Graphics/SVG/1.1/DTD/svg11.dtd">
<!-- Generated by graphviz version 2.40.1 (20161225.0304)
 -->
<!-- Title: NestingContext::Private Pages: 1 -->
<svg width="258pt" height="149pt"
 viewBox="0.00 0.00 258.00 149.00" xmlns="http://www.w3.org/2000/svg" xmlns:xlink="http://www.w3.org/1999/xlink">
<g id="graph0" class="graph" transform="scale(1 1) rotate(0) translate(4 145)">
<title>NestingContext::Private</title>
<!-- Node1 -->
<g id="node1" class="node">
<title>Node1</title>
<g id="a_node1"><a xlink:title=" ">
<polygon fill="#999999" stroke="#666666" points="189,-19 67,-19 67,0 189,0 189,-19"/>
<text text-anchor="middle" x="128" y="-7" font-family="Helvetica,sans-Serif" font-size="10.00" fill="#000000">NestingContext::Private</text>
</a>
</g>
</g>
<!-- Node2 -->
<g id="node2" class="node">
<title>Node2</title>
<g id="a_node2"><a xlink:href="../../d6/dcb/class_generic_node_list_context.html" target="_top" xlink:title="standard template list implementation">
<polygon fill="#ffffff" stroke="#666666" points="124,-85 0,-85 0,-66 124,-66 124,-85"/>
<text text-anchor="middle" x="62" y="-73" font-family="Helvetica,sans-Serif" font-size="10.00" fill="#000000">GenericNodeListContext</text>
</a>
</g>
</g>
<!-- Node2&#45;&gt;Node1 -->
<g id="edge1" class="edge">
<title>Node2&#45;&gt;Node1</title>
<path fill="none" stroke="#63b8ff" d="M78.8813,-58.6187C91.3438,-46.1562 107.8719,-29.6281 118.2215,-19.2785"/>
<polygon fill="#63b8ff" stroke="#63b8ff" points="76.3347,-56.2155 71.7385,-65.7615 81.2845,-61.1653 76.3347,-56.2155"/>
</g>
<!-- Node3 -->
<g id="node3" class="node">
<title>Node3</title>
<g id="a_node3"><a xlink:href="../../d6/d88/class_template_list_intf.html" target="_top" xlink:title="Abstract read&#45;only interface for a context value of type list.">
<polygon fill="#ffffff" stroke="#666666" points="105.5,-141 18.5,-141 18.5,-122 105.5,-122 105.5,-141"/>
<text text-anchor="middle" x="62" y="-129" font-family="Helvetica,sans-Serif" font-size="10.00" fill="#000000">TemplateListIntf</text>
</a>
</g>
</g>
<!-- Node3&#45;&gt;Node2 -->
<g id="edge2" class="edge">
<title>Node3&#45;&gt;Node2</title>
<path fill="none" stroke="#63b8ff" d="M62,-111.6575C62,-102.655 62,-92.4199 62,-85.1427"/>
<polygon fill="#63b8ff" stroke="#63b8ff" points="58.5001,-111.7455 62,-121.7455 65.5001,-111.7456 58.5001,-111.7455"/>
</g>
<!-- Node4 -->
<g id="node4" class="node">
<title>Node4</title>
<g id="a_node4"><a xlink:href="../../db/dc9/class_nesting_node_context.html" target="_top" xlink:title=" ">
<polygon fill="#ffffff" stroke="#666666" points="250,-85 142,-85 142,-66 250,-66 250,-85"/>
<text text-anchor="middle" x="196" y="-73" font-family="Helvetica,sans-Serif" font-size="10.00" fill="#000000">NestingNodeContext</text>
</a>
</g>
</g>
<!-- Node4&#45;&gt;Node1 -->
<g id="edge3" class="edge">
<title>Node4&#45;&gt;Node1</title>
<path fill="none" stroke="#9a32cd" stroke-dasharray="5,2" d="M178.6072,-58.6187C165.767,-46.1562 148.738,-29.6281 138.0748,-19.2785"/>
<polygon fill="#9a32cd" stroke="#9a32cd" points="176.3529,-61.3082 185.9664,-65.7615 181.2282,-56.2851 176.3529,-61.3082"/>
<text text-anchor="middle" x="189" y="-40" font-family="Helvetica,sans-Serif" font-size="10.00" fill="#000000"> m_parent</text>
</g>
<!-- Node5 -->
<g id="node5" class="node">
<title>Node5</title>
<g id="a_node5"><a xlink:href="../../d9/de8/class_template_struct_intf.html" target="_top" xlink:title="Abstract interface for a context value of type struct.">
<polygon fill="#ffffff" stroke="#666666" points="245,-141 147,-141 147,-122 245,-122 245,-141"/>
<text text-anchor="middle" x="196" y="-129" font-family="Helvetica,sans-Serif" font-size="10.00" fill="#000000">TemplateStructIntf</text>
</a>
</g>
</g>
<!-- Node5&#45;&gt;Node4 -->
<g id="edge4" class="edge">
<title>Node5&#45;&gt;Node4</title>
<path fill="none" stroke="#63b8ff" d="M196,-111.6575C196,-102.655 196,-92.4199 196,-85.1427"/>
<polygon fill="#63b8ff" stroke="#63b8ff" points="192.5001,-111.7455 196,-121.7455 199.5001,-111.7456 192.5001,-111.7455"/>
</g>
</g>
</svg>
