<?xml version="1.0" encoding="UTF-8" standalone="no"?>
<!DOCTYPE svg PUBLIC "-//W3C//DTD SVG 1.1//EN"
 "http://www.w3.org/Graphics/SVG/1.1/DTD/svg11.dtd">
<!-- Generated by graphviz version 2.40.1 (20161225.0304)
 -->
<!-- Title: src/docnode.h Pages: 1 -->
<svg width="2037pt" height="137pt"
 viewBox="0.00 0.00 2036.50 137.00" xmlns="http://www.w3.org/2000/svg" xmlns:xlink="http://www.w3.org/1999/xlink">
<g id="graph0" class="graph" transform="scale(1 1) rotate(0) translate(4 133)">
<title>src/docnode.h</title>
<!-- Node1 -->
<g id="node1" class="node">
<title>Node1</title>
<g id="a_node1"><a xlink:title=" ">
<polygon fill="#999999" stroke="#666666" points="1049,-129 971,-129 971,-110 1049,-110 1049,-129"/>
<text text-anchor="middle" x="1010" y="-117" font-family="Helvetica,sans-Serif" font-size="10.00" fill="#000000">src/docnode.h</text>
</a>
</g>
</g>
<!-- Node2 -->
<g id="node2" class="node">
<title>Node2</title>
<g id="a_node2"><a xlink:href="../../de/dcd/docbookvisitor_8h.html" target="_top" xlink:title=" ">
<polygon fill="#ffffff" stroke="#666666" points="232,-74 128,-74 128,-55 232,-55 232,-74"/>
<text text-anchor="middle" x="180" y="-62" font-family="Helvetica,sans-Serif" font-size="10.00" fill="#000000">src/docbookvisitor.h</text>
</a>
</g>
</g>
<!-- Node1&#45;&gt;Node2 -->
<g id="edge1" class="edge">
<title>Node1&#45;&gt;Node2</title>
<path fill="none" stroke="#63b8ff" d="M960.6455,-116.542C845.4495,-109.5902 549.8745,-91.477 303,-74 279.7129,-72.3514 253.9576,-70.3845 232.0576,-68.6691"/>
<polygon fill="#63b8ff" stroke="#63b8ff" points="960.7074,-120.052 970.8999,-117.1601 961.1286,-113.0647 960.7074,-120.052"/>
</g>
<!-- Node5 -->
<g id="node5" class="node">
<title>Node5</title>
<g id="a_node5"><a xlink:href="../../d0/d2b/docnode_8cpp.html" target="_top" xlink:title=" ">
<polygon fill="#ffffff" stroke="#666666" points="344.5,-19 255.5,-19 255.5,0 344.5,0 344.5,-19"/>
<text text-anchor="middle" x="300" y="-7" font-family="Helvetica,sans-Serif" font-size="10.00" fill="#000000">src/docnode.cpp</text>
</a>
</g>
</g>
<!-- Node1&#45;&gt;Node5 -->
<g id="edge4" class="edge">
<title>Node1&#45;&gt;Node5</title>
<path fill="none" stroke="#63b8ff" d="M960.6466,-118.3242C817.1039,-114.5931 406.5366,-101.6036 353,-74 329.2973,-61.7788 312.2873,-33.8048 304.5942,-19.0361"/>
<polygon fill="#63b8ff" stroke="#63b8ff" points="960.8253,-121.8298 970.9117,-118.587 961.0045,-114.8321 960.8253,-121.8298"/>
</g>
<!-- Node6 -->
<g id="node6" class="node">
<title>Node6</title>
<g id="a_node6"><a xlink:href="../../df/dc9/docparser__p_8h.html" target="_top" xlink:title="Private header shared between docparser.cpp and docnode.cpp.">
<polygon fill="#ffffff" stroke="#666666" points="457.5,-74 362.5,-74 362.5,-55 457.5,-55 457.5,-74"/>
<text text-anchor="middle" x="410" y="-62" font-family="Helvetica,sans-Serif" font-size="10.00" fill="#000000">src/docparser_p.h</text>
</a>
</g>
</g>
<!-- Node1&#45;&gt;Node6 -->
<g id="edge5" class="edge">
<title>Node1&#45;&gt;Node6</title>
<path fill="none" stroke="#63b8ff" d="M960.4953,-114.9621C847.0247,-104.5606 569.3603,-79.108 457.6768,-68.8704"/>
<polygon fill="#63b8ff" stroke="#63b8ff" points="960.3545,-118.4638 970.6323,-115.8913 960.9936,-111.493 960.3545,-118.4638"/>
</g>
<!-- Node8 -->
<g id="node8" class="node">
<title>Node8</title>
<g id="a_node8"><a xlink:href="../../d9/d92/dotfilepatcher_8cpp.html" target="_top" xlink:title=" ">
<polygon fill="#ffffff" stroke="#666666" points="682,-74 572,-74 572,-55 682,-55 682,-74"/>
<text text-anchor="middle" x="627" y="-62" font-family="Helvetica,sans-Serif" font-size="10.00" fill="#000000">src/dotfilepatcher.cpp</text>
</a>
</g>
</g>
<!-- Node1&#45;&gt;Node8 -->
<g id="edge8" class="edge">
<title>Node1&#45;&gt;Node8</title>
<path fill="none" stroke="#63b8ff" d="M960.705,-112.4211C889.119,-102.1411 756.805,-83.1404 682.0931,-72.4115"/>
<polygon fill="#63b8ff" stroke="#63b8ff" points="960.4162,-115.9154 970.8122,-113.8725 961.4113,-108.9865 960.4162,-115.9154"/>
</g>
<!-- Node9 -->
<g id="node9" class="node">
<title>Node9</title>
<g id="a_node9"><a xlink:href="../../d0/d71/htmldocvisitor_8h.html" target="_top" xlink:title=" ">
<polygon fill="#ffffff" stroke="#666666" points="1121,-74 1019,-74 1019,-55 1121,-55 1121,-74"/>
<text text-anchor="middle" x="1070" y="-62" font-family="Helvetica,sans-Serif" font-size="10.00" fill="#000000">src/htmldocvisitor.h</text>
</a>
</g>
</g>
<!-- Node1&#45;&gt;Node9 -->
<g id="edge9" class="edge">
<title>Node1&#45;&gt;Node9</title>
<path fill="none" stroke="#63b8ff" d="M1028.0329,-102.9699C1038.2157,-93.6356 1050.5985,-82.2847 1059.2645,-74.3408"/>
<polygon fill="#63b8ff" stroke="#63b8ff" points="1025.4577,-100.5824 1020.4512,-109.9197 1030.1878,-105.7425 1025.4577,-100.5824"/>
</g>
<!-- Node13 -->
<g id="node13" class="node">
<title>Node13</title>
<g id="a_node13"><a xlink:href="../../d8/d6e/htmlgen_8cpp.html" target="_top" xlink:title=" ">
<polygon fill="#ffffff" stroke="#666666" points="1346,-19 1260,-19 1260,0 1346,0 1346,-19"/>
<text text-anchor="middle" x="1303" y="-7" font-family="Helvetica,sans-Serif" font-size="10.00" fill="#000000">src/htmlgen.cpp</text>
</a>
</g>
</g>
<!-- Node1&#45;&gt;Node13 -->
<g id="edge14" class="edge">
<title>Node1&#45;&gt;Node13</title>
<path fill="none" stroke="#63b8ff" d="M1046.9003,-106.6046C1070.8351,-97.9725 1102.5582,-86.0262 1130,-74 1147.2945,-66.4208 1150.567,-62.255 1168,-55 1202.3658,-40.6981 1242.983,-27.4866 1270.624,-19.0264"/>
<polygon fill="#63b8ff" stroke="#63b8ff" points="1045.7181,-103.3103 1037.4823,-109.9754 1048.0769,-109.9009 1045.7181,-103.3103"/>
</g>
<!-- Node14 -->
<g id="node14" class="node">
<title>Node14</title>
<g id="a_node14"><a xlink:href="../../d8/d99/latexdocvisitor_8h.html" target="_top" xlink:title=" ">
<polygon fill="#ffffff" stroke="#666666" points="842,-74 738,-74 738,-55 842,-55 842,-74"/>
<text text-anchor="middle" x="790" y="-62" font-family="Helvetica,sans-Serif" font-size="10.00" fill="#000000">src/latexdocvisitor.h</text>
</a>
</g>
</g>
<!-- Node1&#45;&gt;Node14 -->
<g id="edge15" class="edge">
<title>Node1&#45;&gt;Node14</title>
<path fill="none" stroke="#63b8ff" d="M961.8501,-107.4625C921.7264,-97.4316 865.3373,-83.3343 828.2504,-74.0626"/>
<polygon fill="#63b8ff" stroke="#63b8ff" points="961.1286,-110.8898 971.6789,-109.9197 962.8264,-104.0988 961.1286,-110.8898"/>
</g>
<!-- Node16 -->
<g id="node16" class="node">
<title>Node16</title>
<g id="a_node16"><a xlink:href="../../d4/d42/latexgen_8cpp.html" target="_top" xlink:title=" ">
<polygon fill="#ffffff" stroke="#666666" points="564.5,-19 475.5,-19 475.5,0 564.5,0 564.5,-19"/>
<text text-anchor="middle" x="520" y="-7" font-family="Helvetica,sans-Serif" font-size="10.00" fill="#000000">src/latexgen.cpp</text>
</a>
</g>
</g>
<!-- Node1&#45;&gt;Node16 -->
<g id="edge20" class="edge">
<title>Node1&#45;&gt;Node16</title>
<path fill="none" stroke="#63b8ff" d="M960.7885,-116.0656C903.8469,-111.0619 807.8131,-99.4276 729,-74 711.0298,-68.2022 708.6596,-61.6845 691,-55 649.1963,-39.1765 599.6731,-26.6419 564.7093,-18.7691"/>
<polygon fill="#63b8ff" stroke="#63b8ff" points="960.6936,-119.5699 970.9529,-116.9245 961.2831,-112.5948 960.6936,-119.5699"/>
</g>
<!-- Node18 -->
<g id="node18" class="node">
<title>Node18</title>
<g id="a_node18"><a xlink:href="../../d6/d6e/mandocvisitor_8h.html" target="_top" xlink:title=" ">
<polygon fill="#ffffff" stroke="#666666" points="1279,-74 1177,-74 1177,-55 1279,-55 1279,-74"/>
<text text-anchor="middle" x="1228" y="-62" font-family="Helvetica,sans-Serif" font-size="10.00" fill="#000000">src/mandocvisitor.h</text>
</a>
</g>
</g>
<!-- Node1&#45;&gt;Node18 -->
<g id="edge21" class="edge">
<title>Node1&#45;&gt;Node18</title>
<path fill="none" stroke="#63b8ff" d="M1057.7122,-107.4625C1097.4711,-97.4316 1153.3476,-83.3343 1190.0974,-74.0626"/>
<polygon fill="#63b8ff" stroke="#63b8ff" points="1056.8126,-104.0797 1047.9727,-109.9197 1058.5251,-110.867 1056.8126,-104.0797"/>
</g>
<!-- Node21 -->
<g id="node21" class="node">
<title>Node21</title>
<g id="a_node21"><a xlink:href="../../db/d33/msc_8cpp.html" target="_top" xlink:title=" ">
<polygon fill="#ffffff" stroke="#666666" points="1368.5,-74 1297.5,-74 1297.5,-55 1368.5,-55 1368.5,-74"/>
<text text-anchor="middle" x="1333" y="-62" font-family="Helvetica,sans-Serif" font-size="10.00" fill="#000000">src/msc.cpp</text>
</a>
</g>
</g>
<!-- Node1&#45;&gt;Node21 -->
<g id="edge24" class="edge">
<title>Node1&#45;&gt;Node21</title>
<path fill="none" stroke="#63b8ff" d="M1059.1733,-112.1489C1114.8244,-103.6676 1208.1274,-88.9592 1288,-74 1290.9823,-73.4414 1294.0708,-72.8394 1297.1682,-72.2191"/>
<polygon fill="#63b8ff" stroke="#63b8ff" points="1058.593,-108.6968 1049.2319,-113.6587 1059.6441,-115.6175 1058.593,-108.6968"/>
</g>
<!-- Node22 -->
<g id="node22" class="node">
<title>Node22</title>
<g id="a_node22"><a xlink:href="../../de/dd0/perlmodgen_8cpp.html" target="_top" xlink:title=" ">
<polygon fill="#ffffff" stroke="#666666" points="1489,-74 1387,-74 1387,-55 1489,-55 1489,-74"/>
<text text-anchor="middle" x="1438" y="-62" font-family="Helvetica,sans-Serif" font-size="10.00" fill="#000000">src/perlmodgen.cpp</text>
</a>
</g>
</g>
<!-- Node1&#45;&gt;Node22 -->
<g id="edge25" class="edge">
<title>Node1&#45;&gt;Node22</title>
<path fill="none" stroke="#63b8ff" d="M1059.5181,-113.8568C1130.085,-105.7022 1263.6003,-89.8559 1377,-74 1380.1844,-73.5547 1383.4602,-73.0834 1386.7622,-72.5982"/>
<polygon fill="#63b8ff" stroke="#63b8ff" points="1058.6929,-110.4287 1049.1595,-115.0508 1059.4945,-117.3827 1058.6929,-110.4287"/>
</g>
<!-- Node23 -->
<g id="node23" class="node">
<title>Node23</title>
<g id="a_node23"><a xlink:href="../../d1/da7/rtfdocvisitor_8h.html" target="_top" xlink:title=" ">
<polygon fill="#ffffff" stroke="#666666" points="1698,-74 1606,-74 1606,-55 1698,-55 1698,-74"/>
<text text-anchor="middle" x="1652" y="-62" font-family="Helvetica,sans-Serif" font-size="10.00" fill="#000000">src/rtfdocvisitor.h</text>
</a>
</g>
</g>
<!-- Node1&#45;&gt;Node23 -->
<g id="edge26" class="edge">
<title>Node1&#45;&gt;Node23</title>
<path fill="none" stroke="#63b8ff" d="M1059.2441,-115.2813C1179.7773,-104.9552 1488.3235,-78.5221 1605.714,-68.4653"/>
<polygon fill="#63b8ff" stroke="#63b8ff" points="1058.8583,-111.8014 1049.1936,-116.1423 1059.4558,-118.7759 1058.8583,-111.8014"/>
</g>
<!-- Node26 -->
<g id="node26" class="node">
<title>Node26</title>
<g id="a_node26"><a xlink:href="../../dd/d66/textdocvisitor_8h.html" target="_top" xlink:title=" ">
<polygon fill="#ffffff" stroke="#666666" points="1001,-74 901,-74 901,-55 1001,-55 1001,-74"/>
<text text-anchor="middle" x="951" y="-62" font-family="Helvetica,sans-Serif" font-size="10.00" fill="#000000">src/textdocvisitor.h</text>
</a>
</g>
</g>
<!-- Node1&#45;&gt;Node26 -->
<g id="edge29" class="edge">
<title>Node1&#45;&gt;Node26</title>
<path fill="none" stroke="#63b8ff" d="M992.2677,-102.9699C982.2546,-93.6356 970.0781,-82.2847 961.5565,-74.3408"/>
<polygon fill="#63b8ff" stroke="#63b8ff" points="990.0217,-105.6611 999.723,-109.9197 994.7949,-100.5408 990.0217,-105.6611"/>
</g>
<!-- Node28 -->
<g id="node28" class="node">
<title>Node28</title>
<g id="a_node28"><a xlink:href="../../df/d2b/xmldocvisitor_8h.html" target="_top" xlink:title=" ">
<polygon fill="#ffffff" stroke="#666666" points="1921.5,-74 1822.5,-74 1822.5,-55 1921.5,-55 1921.5,-74"/>
<text text-anchor="middle" x="1872" y="-62" font-family="Helvetica,sans-Serif" font-size="10.00" fill="#000000">src/xmldocvisitor.h</text>
</a>
</g>
</g>
<!-- Node1&#45;&gt;Node28 -->
<g id="edge32" class="edge">
<title>Node1&#45;&gt;Node28</title>
<path fill="none" stroke="#63b8ff" d="M1059.6954,-116.3292C1211.8442,-106.6213 1670.1739,-77.3775 1822.3123,-67.6703"/>
<polygon fill="#63b8ff" stroke="#63b8ff" points="1059.0351,-112.8641 1049.2783,-116.9938 1059.4809,-119.8499 1059.0351,-112.8641"/>
</g>
<!-- Node3 -->
<g id="node3" class="node">
<title>Node3</title>
<g id="a_node3"><a xlink:href="../../d8/d29/docbookgen_8cpp.html" target="_top" xlink:title=" ">
<polygon fill="#ffffff" stroke="#666666" points="104,-19 0,-19 0,0 104,0 104,-19"/>
<text text-anchor="middle" x="52" y="-7" font-family="Helvetica,sans-Serif" font-size="10.00" fill="#000000">src/docbookgen.cpp</text>
</a>
</g>
</g>
<!-- Node2&#45;&gt;Node3 -->
<g id="edge2" class="edge">
<title>Node2&#45;&gt;Node3</title>
<path fill="none" stroke="#63b8ff" d="M148.3839,-50.915C125.4406,-41.0565 94.9582,-27.9586 74.4699,-19.155"/>
<polygon fill="#63b8ff" stroke="#63b8ff" points="147.1346,-54.1875 157.7041,-54.9197 149.8981,-47.7561 147.1346,-54.1875"/>
</g>
<!-- Node4 -->
<g id="node4" class="node">
<title>Node4</title>
<g id="a_node4"><a xlink:href="../../dc/d05/docbookvisitor_8cpp.html" target="_top" xlink:title=" ">
<polygon fill="#ffffff" stroke="#666666" points="237.5,-19 122.5,-19 122.5,0 237.5,0 237.5,-19"/>
<text text-anchor="middle" x="180" y="-7" font-family="Helvetica,sans-Serif" font-size="10.00" fill="#000000">src/docbookvisitor.cpp</text>
</a>
</g>
</g>
<!-- Node2&#45;&gt;Node4 -->
<g id="edge3" class="edge">
<title>Node2&#45;&gt;Node4</title>
<path fill="none" stroke="#63b8ff" d="M180,-44.8553C180,-36.2036 180,-26.4195 180,-19.3408"/>
<polygon fill="#63b8ff" stroke="#63b8ff" points="176.5001,-44.9197 180,-54.9197 183.5001,-44.9198 176.5001,-44.9197"/>
</g>
<!-- Node6&#45;&gt;Node5 -->
<g id="edge6" class="edge">
<title>Node6&#45;&gt;Node5</title>
<path fill="none" stroke="#63b8ff" d="M381.7676,-50.3838C362.1802,-40.5901 336.6028,-27.8014 319.31,-19.155"/>
<polygon fill="#63b8ff" stroke="#63b8ff" points="380.3299,-53.578 390.8395,-54.9197 383.4604,-47.317 380.3299,-53.578"/>
</g>
<!-- Node7 -->
<g id="node7" class="node">
<title>Node7</title>
<g id="a_node7"><a xlink:href="../../da/d17/docparser_8cpp.html" target="_top" xlink:title=" ">
<polygon fill="#ffffff" stroke="#666666" points="457.5,-19 362.5,-19 362.5,0 457.5,0 457.5,-19"/>
<text text-anchor="middle" x="410" y="-7" font-family="Helvetica,sans-Serif" font-size="10.00" fill="#000000">src/docparser.cpp</text>
</a>
</g>
</g>
<!-- Node6&#45;&gt;Node7 -->
<g id="edge7" class="edge">
<title>Node6&#45;&gt;Node7</title>
<path fill="none" stroke="#63b8ff" d="M410,-44.8553C410,-36.2036 410,-26.4195 410,-19.3408"/>
<polygon fill="#63b8ff" stroke="#63b8ff" points="406.5001,-44.9197 410,-54.9197 413.5001,-44.9198 406.5001,-44.9197"/>
</g>
<!-- Node10 -->
<g id="node10" class="node">
<title>Node10</title>
<g id="a_node10"><a xlink:href="../../db/d12/context_8cpp.html" target="_top" xlink:title=" ">
<polygon fill="#ffffff" stroke="#666666" points="883,-19 799,-19 799,0 883,0 883,-19"/>
<text text-anchor="middle" x="841" y="-7" font-family="Helvetica,sans-Serif" font-size="10.00" fill="#000000">src/context.cpp</text>
</a>
</g>
</g>
<!-- Node9&#45;&gt;Node10 -->
<g id="edge10" class="edge">
<title>Node9&#45;&gt;Node10</title>
<path fill="none" stroke="#63b8ff" d="M1020.4141,-52.5907C978.6505,-42.5602 919.6799,-28.3969 880.9097,-19.0853"/>
<polygon fill="#63b8ff" stroke="#63b8ff" points="1019.8318,-56.0503 1030.3727,-54.9825 1021.4666,-49.2439 1019.8318,-56.0503"/>
</g>
<!-- Node11 -->
<g id="node11" class="node">
<title>Node11</title>
<g id="a_node11"><a xlink:href="../../db/d41/ftvhelp_8cpp.html" target="_top" xlink:title=" ">
<polygon fill="#ffffff" stroke="#666666" points="1110.5,-19 1029.5,-19 1029.5,0 1110.5,0 1110.5,-19"/>
<text text-anchor="middle" x="1070" y="-7" font-family="Helvetica,sans-Serif" font-size="10.00" fill="#000000">src/ftvhelp.cpp</text>
</a>
</g>
</g>
<!-- Node9&#45;&gt;Node11 -->
<g id="edge11" class="edge">
<title>Node9&#45;&gt;Node11</title>
<path fill="none" stroke="#63b8ff" d="M1070,-44.8553C1070,-36.2036 1070,-26.4195 1070,-19.3408"/>
<polygon fill="#63b8ff" stroke="#63b8ff" points="1066.5001,-44.9197 1070,-54.9197 1073.5001,-44.9198 1066.5001,-44.9197"/>
</g>
<!-- Node12 -->
<g id="node12" class="node">
<title>Node12</title>
<g id="a_node12"><a xlink:href="../../da/db0/htmldocvisitor_8cpp.html" target="_top" xlink:title=" ">
<polygon fill="#ffffff" stroke="#666666" points="1241.5,-19 1128.5,-19 1128.5,0 1241.5,0 1241.5,-19"/>
<text text-anchor="middle" x="1185" y="-7" font-family="Helvetica,sans-Serif" font-size="10.00" fill="#000000">src/htmldocvisitor.cpp</text>
</a>
</g>
</g>
<!-- Node9&#45;&gt;Node12 -->
<g id="edge12" class="edge">
<title>Node9&#45;&gt;Node12</title>
<path fill="none" stroke="#63b8ff" d="M1099.2369,-50.5171C1119.7502,-40.7064 1146.6513,-27.8407 1164.8122,-19.155"/>
<polygon fill="#63b8ff" stroke="#63b8ff" points="1097.5427,-47.4476 1090.0315,-54.9197 1100.5629,-53.7626 1097.5427,-47.4476"/>
</g>
<!-- Node9&#45;&gt;Node13 -->
<g id="edge13" class="edge">
<title>Node9&#45;&gt;Node13</title>
<path fill="none" stroke="#63b8ff" d="M1120.1828,-52.6543C1162.6913,-42.6201 1222.8624,-28.4166 1262.3932,-19.0853"/>
<polygon fill="#63b8ff" stroke="#63b8ff" points="1119.2479,-49.2787 1110.3195,-54.9825 1120.8561,-56.0915 1119.2479,-49.2787"/>
</g>
<!-- Node14&#45;&gt;Node10 -->
<g id="edge16" class="edge">
<title>Node14&#45;&gt;Node10</title>
<path fill="none" stroke="#63b8ff" d="M805.8443,-47.413C814.3989,-38.1874 824.6546,-27.1274 831.8749,-19.3408"/>
<polygon fill="#63b8ff" stroke="#63b8ff" points="803.1165,-45.2072 798.8835,-54.9197 808.2494,-49.9668 803.1165,-45.2072"/>
</g>
<!-- Node15 -->
<g id="node15" class="node">
<title>Node15</title>
<g id="a_node15"><a xlink:href="../../d1/d4e/latexdocvisitor_8cpp.html" target="_top" xlink:title=" ">
<polygon fill="#ffffff" stroke="#666666" points="697.5,-19 582.5,-19 582.5,0 697.5,0 697.5,-19"/>
<text text-anchor="middle" x="640" y="-7" font-family="Helvetica,sans-Serif" font-size="10.00" fill="#000000">src/latexdocvisitor.cpp</text>
</a>
</g>
</g>
<!-- Node14&#45;&gt;Node15 -->
<g id="edge17" class="edge">
<title>Node14&#45;&gt;Node15</title>
<path fill="none" stroke="#63b8ff" d="M754.3512,-51.4288C727.222,-41.4814 690.5091,-28.02 666.0798,-19.0626"/>
<polygon fill="#63b8ff" stroke="#63b8ff" points="753.2783,-54.7632 763.872,-54.9197 755.6881,-48.1911 753.2783,-54.7632"/>
</g>
<!-- Node14&#45;&gt;Node16 -->
<g id="edge18" class="edge">
<title>Node14&#45;&gt;Node16</title>
<path fill="none" stroke="#63b8ff" d="M733.2442,-52.9386C683.107,-42.7255 610.9814,-28.0332 564.8051,-18.627"/>
<polygon fill="#63b8ff" stroke="#63b8ff" points="732.7804,-56.416 743.2778,-54.9825 734.1777,-49.5568 732.7804,-56.416"/>
</g>
<!-- Node17 -->
<g id="node17" class="node">
<title>Node17</title>
<g id="a_node17"><a xlink:href="../../df/d2d/util_8cpp.html" target="_top" xlink:title=" ">
<polygon fill="#ffffff" stroke="#666666" points="780.5,-19 715.5,-19 715.5,0 780.5,0 780.5,-19"/>
<text text-anchor="middle" x="748" y="-7" font-family="Helvetica,sans-Serif" font-size="10.00" fill="#000000">src/util.cpp</text>
</a>
</g>
</g>
<!-- Node14&#45;&gt;Node17 -->
<g id="edge19" class="edge">
<title>Node14&#45;&gt;Node17</title>
<path fill="none" stroke="#63b8ff" d="M776.5231,-46.8517C769.5665,-37.7419 761.3408,-26.9701 755.5148,-19.3408"/>
<polygon fill="#63b8ff" stroke="#63b8ff" points="773.8333,-49.0962 782.6842,-54.9197 779.3967,-44.8478 773.8333,-49.0962"/>
</g>
<!-- Node19 -->
<g id="node19" class="node">
<title>Node19</title>
<g id="a_node19"><a xlink:href="../../d8/dde/mandocvisitor_8cpp.html" target="_top" xlink:title=" ">
<polygon fill="#ffffff" stroke="#666666" points="1477.5,-19 1364.5,-19 1364.5,0 1477.5,0 1477.5,-19"/>
<text text-anchor="middle" x="1421" y="-7" font-family="Helvetica,sans-Serif" font-size="10.00" fill="#000000">src/mandocvisitor.cpp</text>
</a>
</g>
</g>
<!-- Node18&#45;&gt;Node19 -->
<g id="edge22" class="edge">
<title>Node18&#45;&gt;Node19</title>
<path fill="none" stroke="#63b8ff" d="M1271.5898,-52.078C1306.695,-42.074 1355.3223,-28.2165 1387.444,-19.0626"/>
<polygon fill="#63b8ff" stroke="#63b8ff" points="1270.2759,-48.813 1261.618,-54.9197 1272.1944,-55.545 1270.2759,-48.813"/>
</g>
<!-- Node20 -->
<g id="node20" class="node">
<title>Node20</title>
<g id="a_node20"><a xlink:href="../../d7/de7/mangen_8cpp.html" target="_top" xlink:title=" ">
<polygon fill="#ffffff" stroke="#666666" points="1582,-19 1496,-19 1496,0 1582,0 1582,-19"/>
<text text-anchor="middle" x="1539" y="-7" font-family="Helvetica,sans-Serif" font-size="10.00" fill="#000000">src/mangen.cpp</text>
</a>
</g>
</g>
<!-- Node18&#45;&gt;Node20 -->
<g id="edge23" class="edge">
<title>Node18&#45;&gt;Node20</title>
<path fill="none" stroke="#63b8ff" d="M1289.5208,-53.7003C1341.7969,-44.5115 1418.8292,-30.943 1486,-19 1489.2213,-18.4273 1492.5524,-17.8335 1495.9032,-17.2353"/>
<polygon fill="#63b8ff" stroke="#63b8ff" points="1288.6492,-50.2997 1279.4059,-55.4779 1289.8608,-57.1941 1288.6492,-50.2997"/>
</g>
<!-- Node24 -->
<g id="node24" class="node">
<title>Node24</title>
<g id="a_node24"><a xlink:href="../../de/d9a/rtfdocvisitor_8cpp.html" target="_top" xlink:title=" ">
<polygon fill="#ffffff" stroke="#666666" points="1703.5,-19 1600.5,-19 1600.5,0 1703.5,0 1703.5,-19"/>
<text text-anchor="middle" x="1652" y="-7" font-family="Helvetica,sans-Serif" font-size="10.00" fill="#000000">src/rtfdocvisitor.cpp</text>
</a>
</g>
</g>
<!-- Node23&#45;&gt;Node24 -->
<g id="edge27" class="edge">
<title>Node23&#45;&gt;Node24</title>
<path fill="none" stroke="#63b8ff" d="M1652,-44.8553C1652,-36.2036 1652,-26.4195 1652,-19.3408"/>
<polygon fill="#63b8ff" stroke="#63b8ff" points="1648.5001,-44.9197 1652,-54.9197 1655.5001,-44.9198 1648.5001,-44.9197"/>
</g>
<!-- Node25 -->
<g id="node25" class="node">
<title>Node25</title>
<g id="a_node25"><a xlink:href="../../d0/d9c/rtfgen_8cpp.html" target="_top" xlink:title=" ">
<polygon fill="#ffffff" stroke="#666666" points="1798.5,-19 1721.5,-19 1721.5,0 1798.5,0 1798.5,-19"/>
<text text-anchor="middle" x="1760" y="-7" font-family="Helvetica,sans-Serif" font-size="10.00" fill="#000000">src/rtfgen.cpp</text>
</a>
</g>
</g>
<!-- Node23&#45;&gt;Node25 -->
<g id="edge28" class="edge">
<title>Node23&#45;&gt;Node25</title>
<path fill="none" stroke="#63b8ff" d="M1679.9817,-50.25C1699.1785,-40.4739 1724.1399,-27.7621 1741.041,-19.155"/>
<polygon fill="#63b8ff" stroke="#63b8ff" points="1678.1349,-47.2628 1670.8122,-54.9197 1681.3115,-53.5005 1678.1349,-47.2628"/>
</g>
<!-- Node26&#45;&gt;Node17 -->
<g id="edge31" class="edge">
<title>Node26&#45;&gt;Node17</title>
<path fill="none" stroke="#63b8ff" d="M905.8565,-52.269C867.8932,-41.9834 814.5302,-27.5254 780.6084,-18.3348"/>
<polygon fill="#63b8ff" stroke="#63b8ff" points="905.0728,-55.6828 915.6401,-54.9197 906.9034,-48.9264 905.0728,-55.6828"/>
</g>
<!-- Node27 -->
<g id="node27" class="node">
<title>Node27</title>
<g id="a_node27"><a xlink:href="../../d3/da6/textdocvisitor_8cpp.html" target="_top" xlink:title=" ">
<polygon fill="#ffffff" stroke="#666666" points="1011,-19 901,-19 901,0 1011,0 1011,-19"/>
<text text-anchor="middle" x="956" y="-7" font-family="Helvetica,sans-Serif" font-size="10.00" fill="#000000">src/textdocvisitor.cpp</text>
</a>
</g>
</g>
<!-- Node26&#45;&gt;Node27 -->
<g id="edge30" class="edge">
<title>Node26&#45;&gt;Node27</title>
<path fill="none" stroke="#63b8ff" d="M952.7859,-44.8553C953.5724,-36.2036 954.4619,-26.4195 955.1054,-19.3408"/>
<polygon fill="#63b8ff" stroke="#63b8ff" points="949.2908,-44.6439 951.8709,-54.9197 956.262,-45.2777 949.2908,-44.6439"/>
</g>
<!-- Node29 -->
<g id="node29" class="node">
<title>Node29</title>
<g id="a_node29"><a xlink:href="../../dd/db6/xmldocvisitor_8cpp.html" target="_top" xlink:title=" ">
<polygon fill="#ffffff" stroke="#666666" points="1927,-19 1817,-19 1817,0 1927,0 1927,-19"/>
<text text-anchor="middle" x="1872" y="-7" font-family="Helvetica,sans-Serif" font-size="10.00" fill="#000000">src/xmldocvisitor.cpp</text>
</a>
</g>
</g>
<!-- Node28&#45;&gt;Node29 -->
<g id="edge33" class="edge">
<title>Node28&#45;&gt;Node29</title>
<path fill="none" stroke="#63b8ff" d="M1872,-44.8553C1872,-36.2036 1872,-26.4195 1872,-19.3408"/>
<polygon fill="#63b8ff" stroke="#63b8ff" points="1868.5001,-44.9197 1872,-54.9197 1875.5001,-44.9198 1868.5001,-44.9197"/>
</g>
<!-- Node30 -->
<g id="node30" class="node">
<title>Node30</title>
<g id="a_node30"><a xlink:href="../../d0/dc3/xmlgen_8cpp.html" target="_top" xlink:title=" ">
<polygon fill="#ffffff" stroke="#666666" points="2028.5,-19 1945.5,-19 1945.5,0 2028.5,0 2028.5,-19"/>
<text text-anchor="middle" x="1987" y="-7" font-family="Helvetica,sans-Serif" font-size="10.00" fill="#000000">src/xmlgen.cpp</text>
</a>
</g>
</g>
<!-- Node28&#45;&gt;Node30 -->
<g id="edge34" class="edge">
<title>Node28&#45;&gt;Node30</title>
<path fill="none" stroke="#63b8ff" d="M1901.2369,-50.5171C1921.7502,-40.7064 1948.6513,-27.8407 1966.8122,-19.155"/>
<polygon fill="#63b8ff" stroke="#63b8ff" points="1899.5427,-47.4476 1892.0315,-54.9197 1902.5629,-53.7626 1899.5427,-47.4476"/>
</g>
</g>
</svg>
