<?xml version="1.0" encoding="UTF-8" standalone="no"?>
<!DOCTYPE svg PUBLIC "-//W3C//DTD SVG 1.1//EN"
 "http://www.w3.org/Graphics/SVG/1.1/DTD/svg11.dtd">
<!-- Generated by graphviz version 2.40.1 (20161225.0304)
 -->
<!-- Title: src/defargs.l Pages: 1 -->
<svg width="1949pt" height="687pt"
 viewBox="0.00 0.00 1949.01 687.00" xmlns="http://www.w3.org/2000/svg" xmlns:xlink="http://www.w3.org/1999/xlink">
<g id="graph0" class="graph" transform="scale(1 1) rotate(0) translate(4 683)">
<title>src/defargs.l</title>
<!-- Node1 -->
<g id="node1" class="node">
<title>Node1</title>
<g id="a_node1"><a xlink:title=" ">
<polygon fill="#999999" stroke="#666666" points="1142.5092,-679 1071.5092,-679 1071.5092,-660 1142.5092,-660 1142.5092,-679"/>
<text text-anchor="middle" x="1107.0092" y="-667" font-family="Helvetica,sans-Serif" font-size="10.00" fill="#000000">src/defargs.l</text>
</a>
</g>
</g>
<!-- Node2 -->
<g id="node2" class="node">
<title>Node2</title>
<g id="a_node2"><a xlink:title=" ">
<polygon fill="#e0e0e0" stroke="#999999" points="540.5092,-624 491.5092,-624 491.5092,-605 540.5092,-605 540.5092,-624"/>
<text text-anchor="middle" x="516.0092" y="-612" font-family="Helvetica,sans-Serif" font-size="10.00" fill="#000000">stdint.h</text>
</a>
</g>
</g>
<!-- Node1&#45;&gt;Node2 -->
<g id="edge1" class="edge">
<title>Node1&#45;&gt;Node2</title>
<path fill="none" stroke="#63b8ff" d="M1071.1905,-668.9371C983.7112,-667.0604 752.2273,-659.0684 550.6442,-623.763"/>
<polygon fill="#63b8ff" stroke="#63b8ff" points="551.2233,-620.3111 540.765,-622.0063 549.9978,-627.203 551.2233,-620.3111"/>
</g>
<!-- Node3 -->
<g id="node3" class="node">
<title>Node3</title>
<g id="a_node3"><a xlink:title=" ">
<polygon fill="#e0e0e0" stroke="#999999" points="700.0092,-184 654.0092,-184 654.0092,-165 700.0092,-165 700.0092,-184"/>
<text text-anchor="middle" x="677.0092" y="-172" font-family="Helvetica,sans-Serif" font-size="10.00" fill="#000000">stdio.h</text>
</a>
</g>
</g>
<!-- Node1&#45;&gt;Node3 -->
<g id="edge2" class="edge">
<title>Node1&#45;&gt;Node3</title>
<path fill="none" stroke="#63b8ff" d="M1071.1737,-667.0106C1025.8564,-662.7984 946.2391,-651.8064 884.0092,-624 846.5961,-607.2826 835.5057,-601.0802 810.0092,-569 793.415,-548.1208 795.1439,-539.0572 786.0092,-514 739.3368,-385.9743 748.1639,-347.0933 699.0092,-220 695.499,-210.924 690.9011,-201.1722 686.8168,-193.0336"/>
<polygon fill="#63b8ff" stroke="#63b8ff" points="689.8863,-191.3492 682.1972,-184.0603 683.6626,-194.5533 689.8863,-191.3492"/>
</g>
<!-- Node4 -->
<g id="node4" class="node">
<title>Node4</title>
<g id="a_node4"><a xlink:title=" ">
<polygon fill="#e0e0e0" stroke="#999999" points="1730.0092,-624 1678.0092,-624 1678.0092,-605 1730.0092,-605 1730.0092,-624"/>
<text text-anchor="middle" x="1704.0092" y="-612" font-family="Helvetica,sans-Serif" font-size="10.00" fill="#000000">assert.h</text>
</a>
</g>
</g>
<!-- Node1&#45;&gt;Node4 -->
<g id="edge3" class="edge">
<title>Node1&#45;&gt;Node4</title>
<path fill="none" stroke="#63b8ff" d="M1142.7472,-668.4586C1231.4762,-665.4668 1468.7658,-654.9763 1664.0092,-624 1665.2781,-623.7987 1666.5663,-623.5787 1667.8649,-623.3437"/>
<polygon fill="#63b8ff" stroke="#63b8ff" points="1668.7711,-626.7311 1677.8726,-621.3077 1667.3756,-619.8716 1668.7711,-626.7311"/>
</g>
<!-- Node5 -->
<g id="node5" class="node">
<title>Node5</title>
<g id="a_node5"><a xlink:title=" ">
<polygon fill="#e0e0e0" stroke="#999999" points="1621.5092,-569 1572.5092,-569 1572.5092,-550 1621.5092,-550 1621.5092,-569"/>
<text text-anchor="middle" x="1597.0092" y="-557" font-family="Helvetica,sans-Serif" font-size="10.00" fill="#000000">ctype.h</text>
</a>
</g>
</g>
<!-- Node1&#45;&gt;Node5 -->
<g id="edge4" class="edge">
<title>Node1&#45;&gt;Node5</title>
<path fill="none" stroke="#63b8ff" d="M1142.7272,-661.7909C1219.0625,-645.2602 1403.716,-604.9796 1558.0092,-569 1559.4514,-568.6637 1560.9229,-568.3178 1562.4088,-567.9661"/>
<polygon fill="#63b8ff" stroke="#63b8ff" points="1563.3597,-571.3375 1572.2692,-565.6041 1561.7289,-564.5301 1563.3597,-571.3375"/>
</g>
<!-- Node6 -->
<g id="node6" class="node">
<title>Node6</title>
<g id="a_node6"><a xlink:href="../../d8/d65/defargs_8h.html" target="_top" xlink:title=" ">
<polygon fill="#ffffff" stroke="#666666" points="813.5092,-294 756.5092,-294 756.5092,-275 813.5092,-275 813.5092,-294"/>
<text text-anchor="middle" x="785.0092" y="-282" font-family="Helvetica,sans-Serif" font-size="10.00" fill="#000000">defargs.h</text>
</a>
</g>
</g>
<!-- Node1&#45;&gt;Node6 -->
<g id="edge5" class="edge">
<title>Node1&#45;&gt;Node6</title>
<path fill="none" stroke="#63b8ff" d="M1071.4187,-661.4621C1003.5846,-645.4092 859.7024,-607.5942 828.0092,-569 762.8743,-489.6823 774.5937,-354.4253 781.7595,-304.1123"/>
<polygon fill="#63b8ff" stroke="#63b8ff" points="785.221,-304.6293 783.2719,-294.2153 778.3013,-303.5718 785.221,-304.6293"/>
</g>
<!-- Node19 -->
<g id="node19" class="node">
<title>Node19</title>
<g id="a_node19"><a xlink:href="../../d1/dc6/entry_8h.html" target="_top" xlink:title=" ">
<polygon fill="#ffffff" stroke="#666666" points="1000.5092,-294 953.5092,-294 953.5092,-275 1000.5092,-275 1000.5092,-294"/>
<text text-anchor="middle" x="977.0092" y="-282" font-family="Helvetica,sans-Serif" font-size="10.00" fill="#000000">entry.h</text>
</a>
</g>
</g>
<!-- Node1&#45;&gt;Node19 -->
<g id="edge20" class="edge">
<title>Node1&#45;&gt;Node19</title>
<path fill="none" stroke="#63b8ff" d="M1106.0284,-659.8741C1103.5271,-638.7038 1095.5158,-587.0398 1074.0092,-550 1043.7526,-497.8905 983.0092,-509.7567 983.0092,-449.5 983.0092,-449.5 983.0092,-449.5 983.0092,-394.5 983.0092,-362.9039 980.5105,-326.2784 978.7381,-304.2728"/>
<polygon fill="#63b8ff" stroke="#63b8ff" points="982.2171,-303.8749 977.8945,-294.202 975.2416,-304.4592 982.2171,-303.8749"/>
</g>
<!-- Node22 -->
<g id="node22" class="node">
<title>Node22</title>
<g id="a_node22"><a xlink:href="../../df/d9b/arguments_8h.html" target="_top" xlink:title=" ">
<polygon fill="#ffffff" stroke="#666666" points="1296.5092,-239 1225.5092,-239 1225.5092,-220 1296.5092,-220 1296.5092,-239"/>
<text text-anchor="middle" x="1261.0092" y="-227" font-family="Helvetica,sans-Serif" font-size="10.00" fill="#000000">arguments.h</text>
</a>
</g>
</g>
<!-- Node1&#45;&gt;Node22 -->
<g id="edge129" class="edge">
<title>Node1&#45;&gt;Node22</title>
<path fill="none" stroke="#63b8ff" d="M1142.6551,-668.3802C1250.432,-664.1671 1569.2704,-645.3494 1631.0092,-569 1636.3189,-562.4337 1636.6254,-556.3061 1631.0092,-550 1584.8851,-498.2096 1387.7688,-532.7839 1321.0092,-514 1264.9224,-498.219 1233.3981,-508.0867 1202.0092,-459 1157.5032,-389.4003 1219.1243,-287.7758 1247.7607,-247.1947"/>
<polygon fill="#63b8ff" stroke="#63b8ff" points="1250.6086,-249.2293 1253.6318,-239.075 1244.9361,-245.1277 1250.6086,-249.2293"/>
</g>
<!-- Node30 -->
<g id="node30" class="node">
<title>Node30</title>
<g id="a_node30"><a xlink:href="../../d8/d3c/util_8h.html" target="_top" xlink:title="A bunch of utility functions.">
<polygon fill="#ffffff" stroke="#666666" points="1083.0092,-624 1045.0092,-624 1045.0092,-605 1083.0092,-605 1083.0092,-624"/>
<text text-anchor="middle" x="1064.0092" y="-612" font-family="Helvetica,sans-Serif" font-size="10.00" fill="#000000">util.h</text>
</a>
</g>
</g>
<!-- Node1&#45;&gt;Node30 -->
<g id="edge50" class="edge">
<title>Node1&#45;&gt;Node30</title>
<path fill="none" stroke="#63b8ff" d="M1099.5192,-659.9197C1093.6112,-652.363 1085.2033,-641.6087 1078.0519,-632.4616"/>
<polygon fill="#63b8ff" stroke="#63b8ff" points="1080.6195,-630.0632 1071.7029,-624.3408 1075.1049,-634.3747 1080.6195,-630.0632"/>
</g>
<!-- Node53 -->
<g id="node53" class="node">
<title>Node53</title>
<g id="a_node53"><a xlink:href="../../d2/d0d/message_8h.html" target="_top" xlink:title=" ">
<polygon fill="#ffffff" stroke="#666666" points="623.5092,-624 558.5092,-624 558.5092,-605 623.5092,-605 623.5092,-624"/>
<text text-anchor="middle" x="591.0092" y="-612" font-family="Helvetica,sans-Serif" font-size="10.00" fill="#000000">message.h</text>
</a>
</g>
</g>
<!-- Node1&#45;&gt;Node53 -->
<g id="edge130" class="edge">
<title>Node1&#45;&gt;Node53</title>
<path fill="none" stroke="#63b8ff" d="M1071.2608,-667.2902C992.6218,-662.1538 798.8191,-647.9877 638.0092,-624 636.5426,-623.7812 635.0525,-623.5469 633.5494,-623.3003"/>
<polygon fill="#63b8ff" stroke="#63b8ff" points="634.0063,-619.8268 623.5489,-621.5277 632.7846,-626.7193 634.0063,-619.8268"/>
</g>
<!-- Node55 -->
<g id="node55" class="node">
<title>Node55</title>
<g id="a_node55"><a xlink:href="../../d6/da5/doxygen__lex_8h.html" target="_top" xlink:title=" ">
<polygon fill="#ffffff" stroke="#666666" points="1828.0092,-624 1748.0092,-624 1748.0092,-605 1828.0092,-605 1828.0092,-624"/>
<text text-anchor="middle" x="1788.0092" y="-612" font-family="Helvetica,sans-Serif" font-size="10.00" fill="#000000">doxygen_lex.h</text>
</a>
</g>
</g>
<!-- Node1&#45;&gt;Node55 -->
<g id="edge133" class="edge">
<title>Node1&#45;&gt;Node55</title>
<path fill="none" stroke="#63b8ff" d="M1142.797,-668.4235C1238.0084,-665.2408 1505.5468,-654.2182 1737.969,-623.9838"/>
<polygon fill="#63b8ff" stroke="#63b8ff" points="1738.5039,-627.4437 1747.9618,-622.669 1737.5907,-620.5035 1738.5039,-627.4437"/>
</g>
<!-- Node7 -->
<g id="node7" class="node">
<title>Node7</title>
<g id="a_node7"><a xlink:href="../../d9/d49/types_8h.html" target="_top" xlink:title="This file contains a number of basic enums and types.">
<polygon fill="#ffffff" stroke="#666666" points="577.5092,-239 528.5092,-239 528.5092,-220 577.5092,-220 577.5092,-239"/>
<text text-anchor="middle" x="553.0092" y="-227" font-family="Helvetica,sans-Serif" font-size="10.00" fill="#000000">types.h</text>
</a>
</g>
</g>
<!-- Node6&#45;&gt;Node7 -->
<g id="edge6" class="edge">
<title>Node6&#45;&gt;Node7</title>
<path fill="none" stroke="#63b8ff" d="M756.2189,-277.7829C718.4873,-268.9635 650.2599,-252.9608 592.0092,-239 590.5691,-238.6549 589.0994,-238.3016 587.6148,-237.9438"/>
<polygon fill="#63b8ff" stroke="#63b8ff" points="588.3029,-234.5094 577.7601,-235.5583 586.6559,-241.3129 588.3029,-234.5094"/>
</g>
<!-- Node18 -->
<g id="node18" class="node">
<title>Node18</title>
<g id="a_node18"><a xlink:title=" ">
<polygon fill="#e0e0e0" stroke="#999999" points="1222.0092,-129 1170.0092,-129 1170.0092,-110 1222.0092,-110 1222.0092,-129"/>
<text text-anchor="middle" x="1196.0092" y="-117" font-family="Helvetica,sans-Serif" font-size="10.00" fill="#000000">memory</text>
</a>
</g>
</g>
<!-- Node6&#45;&gt;Node18 -->
<g id="edge19" class="edge">
<title>Node6&#45;&gt;Node18</title>
<path fill="none" stroke="#63b8ff" d="M808.0092,-274.9945C830.0928,-265.8452 864.3753,-251.5827 894.0092,-239 913.6159,-230.6749 917.7619,-226.6161 938.0092,-220 1006.4689,-197.6298 1029.6289,-211.943 1096.0092,-184 1125.896,-171.4191 1156.7266,-150.0183 1176.1084,-135.3426"/>
<polygon fill="#63b8ff" stroke="#63b8ff" points="1178.3833,-138.0081 1184.1634,-129.1288 1174.1077,-132.4656 1178.3833,-138.0081"/>
</g>
<!-- Node8 -->
<g id="node8" class="node">
<title>Node8</title>
<g id="a_node8"><a xlink:href="../../d7/d5c/qcstring_8h.html" target="_top" xlink:title=" ">
<polygon fill="#ffffff" stroke="#666666" points="766.5092,-129 707.5092,-129 707.5092,-110 766.5092,-110 766.5092,-129"/>
<text text-anchor="middle" x="737.0092" y="-117" font-family="Helvetica,sans-Serif" font-size="10.00" fill="#000000">qcstring.h</text>
</a>
</g>
</g>
<!-- Node7&#45;&gt;Node8 -->
<g id="edge7" class="edge">
<title>Node7&#45;&gt;Node8</title>
<path fill="none" stroke="#63b8ff" d="M558.2785,-219.7449C566.3402,-205.699 583.0317,-179.8399 604.0092,-165 632.0445,-145.1673 669.4448,-133.3901 697.4437,-126.8049"/>
<polygon fill="#63b8ff" stroke="#63b8ff" points="698.2999,-130.2001 707.299,-124.6084 696.7771,-123.3677 698.2999,-130.2001"/>
</g>
<!-- Node9 -->
<g id="node9" class="node">
<title>Node9</title>
<g id="a_node9"><a xlink:title=" ">
<polygon fill="#e0e0e0" stroke="#999999" points="950.5092,-19 909.5092,-19 909.5092,0 950.5092,0 950.5092,-19"/>
<text text-anchor="middle" x="930.0092" y="-7" font-family="Helvetica,sans-Serif" font-size="10.00" fill="#000000">string</text>
</a>
</g>
</g>
<!-- Node8&#45;&gt;Node9 -->
<g id="edge8" class="edge">
<title>Node8&#45;&gt;Node9</title>
<path fill="none" stroke="#63b8ff" d="M766.7444,-115.3069C810.8352,-108.5134 890.5554,-93.8352 911.0092,-74 922.9118,-62.4574 927.4555,-43.8687 929.1421,-29.6054"/>
<polygon fill="#63b8ff" stroke="#63b8ff" points="932.657,-29.559 929.9682,-19.311 925.6794,-28.999 932.657,-29.559"/>
</g>
<!-- Node10 -->
<g id="node10" class="node">
<title>Node10</title>
<g id="a_node10"><a xlink:title=" ">
<polygon fill="#e0e0e0" stroke="#999999" points="1421.0092,-74 1365.0092,-74 1365.0092,-55 1421.0092,-55 1421.0092,-74"/>
<text text-anchor="middle" x="1393.0092" y="-62" font-family="Helvetica,sans-Serif" font-size="10.00" fill="#000000">algorithm</text>
</a>
</g>
</g>
<!-- Node8&#45;&gt;Node10 -->
<g id="edge9" class="edge">
<title>Node8&#45;&gt;Node10</title>
<path fill="none" stroke="#63b8ff" d="M766.7308,-116.3022C784.9801,-114.379 808.8365,-111.9367 830.0092,-110 1027.2723,-91.9557 1263.7682,-74.0581 1354.7598,-67.3106"/>
<polygon fill="#63b8ff" stroke="#63b8ff" points="1355.1577,-70.7908 1364.8721,-66.5623 1354.6411,-63.8099 1355.1577,-70.7908"/>
</g>
<!-- Node11 -->
<g id="node11" class="node">
<title>Node11</title>
<g id="a_node11"><a xlink:title=" ">
<polygon fill="#e0e0e0" stroke="#999999" points="1004.0092,-74 958.0092,-74 958.0092,-55 1004.0092,-55 1004.0092,-74"/>
<text text-anchor="middle" x="981.0092" y="-62" font-family="Helvetica,sans-Serif" font-size="10.00" fill="#000000">cctype</text>
</a>
</g>
</g>
<!-- Node8&#45;&gt;Node11 -->
<g id="edge10" class="edge">
<title>Node8&#45;&gt;Node11</title>
<path fill="none" stroke="#63b8ff" d="M766.5632,-113.3434C806.796,-104.8848 881.0119,-89.0063 944.0092,-74 945.2793,-73.6974 946.5729,-73.3852 947.8789,-73.0667"/>
<polygon fill="#63b8ff" stroke="#63b8ff" points="949.0926,-76.3712 957.9475,-70.5539 947.3976,-69.5795 949.0926,-76.3712"/>
</g>
<!-- Node12 -->
<g id="node12" class="node">
<title>Node12</title>
<g id="a_node12"><a xlink:title=" ">
<polygon fill="#e0e0e0" stroke="#999999" points="768.0092,-74 722.0092,-74 722.0092,-55 768.0092,-55 768.0092,-74"/>
<text text-anchor="middle" x="745.0092" y="-62" font-family="Helvetica,sans-Serif" font-size="10.00" fill="#000000">cstring</text>
</a>
</g>
</g>
<!-- Node8&#45;&gt;Node12 -->
<g id="edge11" class="edge">
<title>Node8&#45;&gt;Node12</title>
<path fill="none" stroke="#63b8ff" d="M738.4027,-109.9197C739.4225,-102.9083 740.8428,-93.1442 742.1052,-84.4652"/>
<polygon fill="#63b8ff" stroke="#63b8ff" points="745.6019,-84.7405 743.5778,-74.3408 738.6748,-83.7329 745.6019,-84.7405"/>
</g>
<!-- Node13 -->
<g id="node13" class="node">
<title>Node13</title>
<g id="a_node13"><a xlink:title=" ">
<polygon fill="#e0e0e0" stroke="#999999" points="605.5092,-74 562.5092,-74 562.5092,-55 605.5092,-55 605.5092,-74"/>
<text text-anchor="middle" x="584.0092" y="-62" font-family="Helvetica,sans-Serif" font-size="10.00" fill="#000000">cstdio</text>
</a>
</g>
</g>
<!-- Node8&#45;&gt;Node13 -->
<g id="edge12" class="edge">
<title>Node8&#45;&gt;Node13</title>
<path fill="none" stroke="#63b8ff" d="M710.3586,-109.9197C683.9755,-100.4356 643.5812,-85.9148 615.5987,-75.8557"/>
<polygon fill="#63b8ff" stroke="#63b8ff" points="616.4943,-72.4584 605.8999,-72.3692 614.1263,-79.0458 616.4943,-72.4584"/>
</g>
<!-- Node14 -->
<g id="node14" class="node">
<title>Node14</title>
<g id="a_node14"><a xlink:title=" ">
<polygon fill="#e0e0e0" stroke="#999999" points="831.5092,-74 786.5092,-74 786.5092,-55 831.5092,-55 831.5092,-74"/>
<text text-anchor="middle" x="809.0092" y="-62" font-family="Helvetica,sans-Serif" font-size="10.00" fill="#000000">cstdlib</text>
</a>
</g>
</g>
<!-- Node8&#45;&gt;Node14 -->
<g id="edge13" class="edge">
<title>Node8&#45;&gt;Node14</title>
<path fill="none" stroke="#63b8ff" d="M749.5506,-109.9197C760.157,-101.8177 775.5751,-90.0399 788.0531,-80.5082"/>
<polygon fill="#63b8ff" stroke="#63b8ff" points="790.3046,-83.1926 796.1267,-74.3408 786.0553,-77.6299 790.3046,-83.1926"/>
</g>
<!-- Node15 -->
<g id="node15" class="node">
<title>Node15</title>
<g id="a_node15"><a xlink:title=" ">
<polygon fill="#e0e0e0" stroke="#999999" points="657.0092,-19 611.0092,-19 611.0092,0 657.0092,0 657.0092,-19"/>
<text text-anchor="middle" x="634.0092" y="-7" font-family="Helvetica,sans-Serif" font-size="10.00" fill="#000000">cstdint</text>
</a>
</g>
</g>
<!-- Node8&#45;&gt;Node15 -->
<g id="edge14" class="edge">
<title>Node8&#45;&gt;Node15</title>
<path fill="none" stroke="#63b8ff" d="M707.9172,-109.967C690.0287,-102.7197 667.9408,-91.0526 654.0092,-74 643.5911,-61.2481 638.5845,-43.0735 636.1873,-29.2649"/>
<polygon fill="#63b8ff" stroke="#63b8ff" points="639.6452,-28.7207 634.7707,-19.3138 632.7151,-29.7073 639.6452,-28.7207"/>
</g>
<!-- Node16 -->
<g id="node16" class="node">
<title>Node16</title>
<g id="a_node16"><a xlink:title=" ">
<polygon fill="#e0e0e0" stroke="#999999" points="902.0092,-74 850.0092,-74 850.0092,-55 902.0092,-55 902.0092,-74"/>
<text text-anchor="middle" x="876.0092" y="-62" font-family="Helvetica,sans-Serif" font-size="10.00" fill="#000000">ostream</text>
</a>
</g>
</g>
<!-- Node8&#45;&gt;Node16 -->
<g id="edge15" class="edge">
<title>Node8&#45;&gt;Node16</title>
<path fill="none" stroke="#63b8ff" d="M761.2212,-109.9197C783.6066,-101.0622 817.0946,-87.8115 842.1307,-77.9052"/>
<polygon fill="#63b8ff" stroke="#63b8ff" points="843.5975,-81.0889 851.6083,-74.155 841.022,-74.5799 843.5975,-81.0889"/>
</g>
<!-- Node17 -->
<g id="node17" class="node">
<title>Node17</title>
<g id="a_node17"><a xlink:href="../../db/d7c/utf8_8h.html" target="_top" xlink:title="Various UTF8 related helper functions.">
<polygon fill="#ffffff" stroke="#666666" points="703.5092,-74 662.5092,-74 662.5092,-55 703.5092,-55 703.5092,-74"/>
<text text-anchor="middle" x="683.0092" y="-62" font-family="Helvetica,sans-Serif" font-size="10.00" fill="#000000">utf8.h</text>
</a>
</g>
</g>
<!-- Node8&#45;&gt;Node17 -->
<g id="edge16" class="edge">
<title>Node8&#45;&gt;Node17</title>
<path fill="none" stroke="#63b8ff" d="M727.6031,-109.9197C719.9543,-102.1293 708.9689,-90.9405 699.8156,-81.6176"/>
<polygon fill="#63b8ff" stroke="#63b8ff" points="702.1745,-79.0244 692.6711,-74.3408 697.1796,-83.9286 702.1745,-79.0244"/>
</g>
<!-- Node17&#45;&gt;Node9 -->
<g id="edge18" class="edge">
<title>Node17&#45;&gt;Node9</title>
<path fill="none" stroke="#63b8ff" d="M703.587,-57.6856C706.7283,-56.732 709.9443,-55.8044 713.0092,-55 778.9094,-37.7032 857.4172,-22.5737 899.5956,-14.8831"/>
<polygon fill="#63b8ff" stroke="#63b8ff" points="900.2886,-18.3147 909.5064,-13.0914 899.0432,-11.4263 900.2886,-18.3147"/>
</g>
<!-- Node17&#45;&gt;Node15 -->
<g id="edge17" class="edge">
<title>Node17&#45;&gt;Node15</title>
<path fill="none" stroke="#63b8ff" d="M674.4741,-54.9197C667.6029,-47.2072 657.7643,-36.1639 649.5091,-26.8978"/>
<polygon fill="#63b8ff" stroke="#63b8ff" points="652.0419,-24.4792 642.7765,-19.3408 646.8153,-29.1357 652.0419,-24.4792"/>
</g>
<!-- Node19&#45;&gt;Node7 -->
<g id="edge24" class="edge">
<title>Node19&#45;&gt;Node7</title>
<path fill="none" stroke="#63b8ff" d="M953.4252,-282.7155C892.9942,-277.9263 727.7983,-263.4691 592.0092,-239 590.5518,-238.7374 589.0676,-238.4529 587.5712,-238.152"/>
<polygon fill="#63b8ff" stroke="#63b8ff" points="588.1875,-234.7041 577.6705,-235.9855 586.6911,-241.5423 588.1875,-234.7041"/>
</g>
<!-- Node19&#45;&gt;Node18 -->
<g id="edge22" class="edge">
<title>Node19&#45;&gt;Node18</title>
<path fill="none" stroke="#63b8ff" d="M997.5565,-274.9601C1039.6679,-255.1249 1133.9195,-209.1898 1159.0092,-184 1171.9315,-171.0262 1181.893,-152.6277 1188.2075,-138.799"/>
<polygon fill="#63b8ff" stroke="#63b8ff" points="1191.5664,-139.8488 1192.314,-129.2804 1185.139,-137.0759 1191.5664,-139.8488"/>
</g>
<!-- Node20 -->
<g id="node20" class="node">
<title>Node20</title>
<g id="a_node20"><a xlink:title=" ">
<polygon fill="#e0e0e0" stroke="#999999" points="1595.0092,-129 1551.0092,-129 1551.0092,-110 1595.0092,-110 1595.0092,-129"/>
<text text-anchor="middle" x="1573.0092" y="-117" font-family="Helvetica,sans-Serif" font-size="10.00" fill="#000000">vector</text>
</a>
</g>
</g>
<!-- Node19&#45;&gt;Node20 -->
<g id="edge21" class="edge">
<title>Node19&#45;&gt;Node20</title>
<path fill="none" stroke="#63b8ff" d="M1000.7119,-275.8275C1044.1955,-260.0296 1135.2568,-227.4967 1168.0092,-220 1293.7535,-191.2184 1333.3239,-223.8536 1456.0092,-184 1460.8279,-182.4347 1513.586,-152.9516 1546.5896,-134.3944"/>
<polygon fill="#63b8ff" stroke="#63b8ff" points="1548.7225,-137.2103 1555.7207,-129.2557 1545.2893,-131.11 1548.7225,-137.2103"/>
</g>
<!-- Node21 -->
<g id="node21" class="node">
<title>Node21</title>
<g id="a_node21"><a xlink:title=" ">
<polygon fill="#e0e0e0" stroke="#999999" points="418.0092,-184 366.0092,-184 366.0092,-165 418.0092,-165 418.0092,-184"/>
<text text-anchor="middle" x="392.0092" y="-172" font-family="Helvetica,sans-Serif" font-size="10.00" fill="#000000">sstream</text>
</a>
</g>
</g>
<!-- Node19&#45;&gt;Node21 -->
<g id="edge23" class="edge">
<title>Node19&#45;&gt;Node21</title>
<path fill="none" stroke="#63b8ff" d="M953.482,-282.4923C885.0542,-276.4904 687.0414,-257.9239 625.0092,-239 606.9486,-233.4903 604.795,-226.3412 587.0092,-220 521.3034,-196.5739 499.6125,-201.0891 428.2687,-184.1921"/>
<polygon fill="#63b8ff" stroke="#63b8ff" points="428.894,-180.7422 418.3503,-181.7822 427.2412,-187.5443 428.894,-180.7422"/>
</g>
<!-- Node19&#45;&gt;Node22 -->
<g id="edge25" class="edge">
<title>Node19&#45;&gt;Node22</title>
<path fill="none" stroke="#63b8ff" d="M1000.7344,-279.9053C1047.867,-270.7775 1154.0116,-250.2214 1215.1964,-238.3722"/>
<polygon fill="#63b8ff" stroke="#63b8ff" points="1216.1916,-241.7446 1225.3437,-236.4071 1214.8606,-234.8723 1216.1916,-241.7446"/>
</g>
<!-- Node23 -->
<g id="node23" class="node">
<title>Node23</title>
<g id="a_node23"><a xlink:href="../../d1/d02/reflist_8h.html" target="_top" xlink:title=" ">
<polygon fill="#ffffff" stroke="#666666" points="995.5092,-239 946.5092,-239 946.5092,-220 995.5092,-220 995.5092,-239"/>
<text text-anchor="middle" x="971.0092" y="-227" font-family="Helvetica,sans-Serif" font-size="10.00" fill="#000000">reflist.h</text>
</a>
</g>
</g>
<!-- Node19&#45;&gt;Node23 -->
<g id="edge28" class="edge">
<title>Node19&#45;&gt;Node23</title>
<path fill="none" stroke="#63b8ff" d="M975.9641,-274.9197C975.1992,-267.9083 974.134,-258.1442 973.1872,-249.4652"/>
<polygon fill="#63b8ff" stroke="#63b8ff" points="976.6467,-248.9023 972.0828,-239.3408 969.688,-249.6614 976.6467,-248.9023"/>
</g>
<!-- Node26 -->
<g id="node26" class="node">
<title>Node26</title>
<g id="a_node26"><a xlink:href="../../d4/d7d/textstream_8h.html" target="_top" xlink:title=" ">
<polygon fill="#ffffff" stroke="#666666" points="249.5092,-239 178.5092,-239 178.5092,-220 249.5092,-220 249.5092,-239"/>
<text text-anchor="middle" x="214.0092" y="-227" font-family="Helvetica,sans-Serif" font-size="10.00" fill="#000000">textstream.h</text>
</a>
</g>
</g>
<!-- Node19&#45;&gt;Node26 -->
<g id="edge41" class="edge">
<title>Node19&#45;&gt;Node26</title>
<path fill="none" stroke="#63b8ff" d="M953.3375,-282.7936C846.1,-275.0636 404.8361,-243.2555 260.1719,-232.8276"/>
<polygon fill="#63b8ff" stroke="#63b8ff" points="260.1041,-229.3137 249.8783,-232.0856 259.6008,-236.2956 260.1041,-229.3137"/>
</g>
<!-- Node22&#45;&gt;Node8 -->
<g id="edge27" class="edge">
<title>Node22&#45;&gt;Node8</title>
<path fill="none" stroke="#63b8ff" d="M1225.2634,-227.8043C1160.3743,-224.098 1019.2512,-213.1406 904.0092,-184 854.3103,-171.4329 799.3294,-148.2851 766.5031,-133.4073"/>
<polygon fill="#63b8ff" stroke="#63b8ff" points="767.6061,-130.0627 757.0573,-129.0764 764.6886,-136.4258 767.6061,-130.0627"/>
</g>
<!-- Node22&#45;&gt;Node20 -->
<g id="edge26" class="edge">
<title>Node22&#45;&gt;Node20</title>
<path fill="none" stroke="#63b8ff" d="M1296.6366,-226.9687C1360.6514,-221.8577 1492.0044,-208.6384 1530.0092,-184 1546.7084,-173.174 1558.463,-153.3337 1565.4134,-138.5052"/>
<polygon fill="#63b8ff" stroke="#63b8ff" points="1568.6764,-139.7784 1569.4595,-129.2125 1562.2584,-136.9839 1568.6764,-139.7784"/>
</g>
<!-- Node23&#45;&gt;Node8 -->
<g id="edge32" class="edge">
<title>Node23&#45;&gt;Node8</title>
<path fill="none" stroke="#63b8ff" d="M946.2631,-228.1528C909.5195,-225.1326 839.5532,-215.3813 790.0092,-184 771.7294,-172.4215 756.7449,-152.4108 747.4293,-137.741"/>
<polygon fill="#63b8ff" stroke="#63b8ff" points="750.3203,-135.7579 742.1486,-129.0144 744.3314,-139.3819 750.3203,-135.7579"/>
</g>
<!-- Node23&#45;&gt;Node18 -->
<g id="edge31" class="edge">
<title>Node23&#45;&gt;Node18</title>
<path fill="none" stroke="#63b8ff" d="M995.523,-222.6496C998.7142,-221.7581 1001.9396,-220.8572 1005.0092,-220 1062.34,-203.9909 1082.9137,-214.5346 1134.0092,-184 1153.8837,-172.123 1171.6341,-152.209 1182.9957,-137.6443"/>
<polygon fill="#63b8ff" stroke="#63b8ff" points="1185.9926,-139.4825 1189.2061,-129.3867 1180.3982,-135.275 1185.9926,-139.4825"/>
</g>
<!-- Node23&#45;&gt;Node20 -->
<g id="edge29" class="edge">
<title>Node23&#45;&gt;Node20</title>
<path fill="none" stroke="#63b8ff" d="M995.7675,-222.0078C998.8595,-221.2424 1001.994,-220.5468 1005.0092,-220 1187.6109,-186.8865 1241.2535,-230.1279 1421.0092,-184 1441.2471,-178.8067 1444.812,-173.2469 1464.0092,-165 1489.9879,-153.8398 1519.6025,-141.5021 1541.4,-132.4929"/>
<polygon fill="#63b8ff" stroke="#63b8ff" points="1542.9152,-135.654 1550.8239,-128.6039 1540.2449,-129.1833 1542.9152,-135.654"/>
</g>
<!-- Node24 -->
<g id="node24" class="node">
<title>Node24</title>
<g id="a_node24"><a xlink:title=" ">
<polygon fill="#e0e0e0" stroke="#999999" points="921.5092,-129 838.5092,-129 838.5092,-110 921.5092,-110 921.5092,-129"/>
<text text-anchor="middle" x="880.0092" y="-117" font-family="Helvetica,sans-Serif" font-size="10.00" fill="#000000">unordered_map</text>
</a>
</g>
</g>
<!-- Node23&#45;&gt;Node24 -->
<g id="edge30" class="edge">
<title>Node23&#45;&gt;Node24</title>
<path fill="none" stroke="#63b8ff" d="M950.6251,-219.9775C935.8712,-212.1629 916.4198,-199.8195 904.0092,-184 893.6512,-170.7968 887.4346,-152.6661 883.933,-138.9891"/>
<polygon fill="#63b8ff" stroke="#63b8ff" points="887.3247,-138.1202 881.6797,-129.1545 880.5015,-139.6836 887.3247,-138.1202"/>
</g>
<!-- Node25 -->
<g id="node25" class="node">
<title>Node25</title>
<g id="a_node25"><a xlink:href="../../da/de1/linkedmap_8h.html" target="_top" xlink:title=" ">
<polygon fill="#ffffff" stroke="#666666" points="1015.5092,-184 946.5092,-184 946.5092,-165 1015.5092,-165 1015.5092,-184"/>
<text text-anchor="middle" x="981.0092" y="-172" font-family="Helvetica,sans-Serif" font-size="10.00" fill="#000000">linkedmap.h</text>
</a>
</g>
</g>
<!-- Node23&#45;&gt;Node25 -->
<g id="edge33" class="edge">
<title>Node23&#45;&gt;Node25</title>
<path fill="none" stroke="#63b8ff" d="M972.7511,-219.9197C974.0259,-212.9083 975.8012,-203.1442 977.3792,-194.4652"/>
<polygon fill="#63b8ff" stroke="#63b8ff" points="980.8746,-194.8057 979.22,-184.3408 973.9875,-193.5534 980.8746,-194.8057"/>
</g>
<!-- Node25&#45;&gt;Node8 -->
<g id="edge40" class="edge">
<title>Node25&#45;&gt;Node8</title>
<path fill="none" stroke="#63b8ff" d="M946.3091,-166.6783C901.4461,-156.5657 823.5087,-138.9978 776.4483,-128.39"/>
<polygon fill="#63b8ff" stroke="#63b8ff" points="777.138,-124.9577 766.6131,-126.173 775.5987,-131.7864 777.138,-124.9577"/>
</g>
<!-- Node25&#45;&gt;Node9 -->
<g id="edge37" class="edge">
<title>Node25&#45;&gt;Node9</title>
<path fill="none" stroke="#63b8ff" d="M988.3011,-164.8347C1003.3711,-143.5859 1034.7878,-91.7752 1013.0092,-55 1001.6527,-35.8234 979.0334,-24.1952 960.2725,-17.4996"/>
<polygon fill="#63b8ff" stroke="#63b8ff" points="961.2112,-14.1244 950.6188,-14.3524 959.0414,-20.7797 961.2112,-14.1244"/>
</g>
<!-- Node25&#45;&gt;Node10 -->
<g id="edge38" class="edge">
<title>Node25&#45;&gt;Node10</title>
<path fill="none" stroke="#63b8ff" d="M1004.2344,-164.9036C1038.181,-151.171 1103.5637,-125.8287 1161.0092,-110 1228.3314,-91.4498 1308.6385,-77.4599 1354.9374,-70.162"/>
<polygon fill="#63b8ff" stroke="#63b8ff" points="1355.4951,-73.6174 1364.8383,-68.6219 1354.4191,-66.7006 1355.4951,-73.6174"/>
</g>
<!-- Node25&#45;&gt;Node11 -->
<g id="edge39" class="edge">
<title>Node25&#45;&gt;Node11</title>
<path fill="none" stroke="#63b8ff" d="M981.0092,-164.7382C981.0092,-146.7541 981.0092,-108.0652 981.0092,-84.3599"/>
<polygon fill="#63b8ff" stroke="#63b8ff" points="984.5093,-84.0828 981.0092,-74.0828 977.5093,-84.0829 984.5093,-84.0828"/>
</g>
<!-- Node25&#45;&gt;Node18 -->
<g id="edge36" class="edge">
<title>Node25&#45;&gt;Node18</title>
<path fill="none" stroke="#63b8ff" d="M1015.5527,-165.6633C1055.1911,-155.5232 1119.8866,-138.9732 1160.0929,-128.6879"/>
<polygon fill="#63b8ff" stroke="#63b8ff" points="1161.1827,-132.0219 1170.0033,-126.1527 1159.4478,-125.2403 1161.1827,-132.0219"/>
</g>
<!-- Node25&#45;&gt;Node20 -->
<g id="edge35" class="edge">
<title>Node25&#45;&gt;Node20</title>
<path fill="none" stroke="#63b8ff" d="M1015.8313,-171.2648C1121.6363,-161.435 1438.3452,-132.011 1540.7119,-122.5006"/>
<polygon fill="#63b8ff" stroke="#63b8ff" points="1541.1224,-125.9776 1550.7558,-121.5675 1540.4748,-119.0076 1541.1224,-125.9776"/>
</g>
<!-- Node25&#45;&gt;Node24 -->
<g id="edge34" class="edge">
<title>Node25&#45;&gt;Node24</title>
<path fill="none" stroke="#63b8ff" d="M963.4163,-164.9197C947.7264,-156.3757 924.5302,-143.7441 906.5803,-133.9694"/>
<polygon fill="#63b8ff" stroke="#63b8ff" points="908.1955,-130.8637 897.7393,-129.155 904.8478,-137.0113 908.1955,-130.8637"/>
</g>
<!-- Node26&#45;&gt;Node8 -->
<g id="edge49" class="edge">
<title>Node26&#45;&gt;Node8</title>
<path fill="none" stroke="#63b8ff" d="M186.9549,-219.9139C157.4234,-208.05 116.8549,-186.7405 137.0092,-165 156.0898,-144.4177 566.0563,-126.3241 697.1085,-121.0483"/>
<polygon fill="#63b8ff" stroke="#63b8ff" points="697.2764,-124.5444 707.1287,-120.648 696.997,-117.55 697.2764,-124.5444"/>
</g>
<!-- Node26&#45;&gt;Node9 -->
<g id="edge42" class="edge">
<title>Node26&#45;&gt;Node9</title>
<path fill="none" stroke="#63b8ff" d="M178.1595,-222.0882C157.3162,-215.7404 132.7218,-204.277 120.0092,-184 93.7356,-142.0928 157.7252,-121.7643 183.0092,-110 314.0108,-49.0466 774.8728,-18.4682 899.0122,-11.2176"/>
<polygon fill="#63b8ff" stroke="#63b8ff" points="899.5313,-14.6936 909.3137,-10.6247 899.129,-7.7052 899.5313,-14.6936"/>
</g>
<!-- Node26&#45;&gt;Node13 -->
<g id="edge46" class="edge">
<title>Node26&#45;&gt;Node13</title>
<path fill="none" stroke="#63b8ff" d="M181.8222,-219.9432C150.0216,-208.86 108.7195,-189.004 128.0092,-165 181.6728,-98.2214 457.5459,-73.2052 552.1364,-66.5107"/>
<polygon fill="#63b8ff" stroke="#63b8ff" points="552.5052,-69.9937 562.242,-65.817 552.0257,-63.0101 552.5052,-69.9937"/>
</g>
<!-- Node26&#45;&gt;Node15 -->
<g id="edge45" class="edge">
<title>Node26&#45;&gt;Node15</title>
<path fill="none" stroke="#63b8ff" d="M178.2273,-225.932C129.5299,-220.2527 46.3277,-207.3398 28.0092,-184 -7.3888,-138.8991 -10.9844,-97.0311 28.0092,-55 47.6408,-33.8392 476.6679,-15.603 600.7034,-10.7583"/>
<polygon fill="#63b8ff" stroke="#63b8ff" points="600.8968,-14.2536 610.7538,-10.3691 600.6258,-7.2588 600.8968,-14.2536"/>
</g>
<!-- Node26&#45;&gt;Node21 -->
<g id="edge44" class="edge">
<title>Node26&#45;&gt;Node21</title>
<path fill="none" stroke="#63b8ff" d="M245.0144,-219.9197C276.0666,-210.325 323.8015,-195.5754 356.391,-185.5056"/>
<polygon fill="#63b8ff" stroke="#63b8ff" points="357.4625,-188.8379 365.9836,-182.5416 355.396,-182.1499 357.4625,-188.8379"/>
</g>
<!-- Node27 -->
<g id="node27" class="node">
<title>Node27</title>
<g id="a_node27"><a xlink:title=" ">
<polygon fill="#e0e0e0" stroke="#999999" points="348.0092,-184 294.0092,-184 294.0092,-165 348.0092,-165 348.0092,-184"/>
<text text-anchor="middle" x="321.0092" y="-172" font-family="Helvetica,sans-Serif" font-size="10.00" fill="#000000">iostream</text>
</a>
</g>
</g>
<!-- Node26&#45;&gt;Node27 -->
<g id="edge43" class="edge">
<title>Node26&#45;&gt;Node27</title>
<path fill="none" stroke="#63b8ff" d="M232.6472,-219.9197C249.3454,-211.3365 274.069,-198.6281 293.121,-188.8351"/>
<polygon fill="#63b8ff" stroke="#63b8ff" points="294.932,-191.8395 302.2258,-184.155 291.7319,-185.6138 294.932,-191.8395"/>
</g>
<!-- Node28 -->
<g id="node28" class="node">
<title>Node28</title>
<g id="a_node28"><a xlink:title=" ">
<polygon fill="#e0e0e0" stroke="#999999" points="276.0092,-184 226.0092,-184 226.0092,-165 276.0092,-165 276.0092,-184"/>
<text text-anchor="middle" x="251.0092" y="-172" font-family="Helvetica,sans-Serif" font-size="10.00" fill="#000000">fstream</text>
</a>
</g>
</g>
<!-- Node26&#45;&gt;Node28 -->
<g id="edge47" class="edge">
<title>Node26&#45;&gt;Node28</title>
<path fill="none" stroke="#63b8ff" d="M220.4541,-219.9197C225.4853,-212.4409 232.6235,-201.8301 238.7353,-192.745"/>
<polygon fill="#63b8ff" stroke="#63b8ff" points="241.7112,-194.5917 244.389,-184.3408 235.9032,-190.6844 241.7112,-194.5917"/>
</g>
<!-- Node29 -->
<g id="node29" class="node">
<title>Node29</title>
<g id="a_node29"><a xlink:title=" ">
<polygon fill="#e0e0e0" stroke="#999999" points="208.0092,-184 146.0092,-184 146.0092,-165 208.0092,-165 208.0092,-184"/>
<text text-anchor="middle" x="177.0092" y="-172" font-family="Helvetica,sans-Serif" font-size="10.00" fill="#000000">type_traits</text>
</a>
</g>
</g>
<!-- Node26&#45;&gt;Node29 -->
<g id="edge48" class="edge">
<title>Node26&#45;&gt;Node29</title>
<path fill="none" stroke="#63b8ff" d="M207.5643,-219.9197C202.5331,-212.4409 195.3949,-201.8301 189.2831,-192.745"/>
<polygon fill="#63b8ff" stroke="#63b8ff" points="192.1152,-190.6844 183.6294,-184.3408 186.3072,-194.5917 192.1152,-190.6844"/>
</g>
<!-- Node30&#45;&gt;Node5 -->
<g id="edge57" class="edge">
<title>Node30&#45;&gt;Node5</title>
<path fill="none" stroke="#63b8ff" d="M1083.4432,-613.7384C1150.0252,-610.9109 1374.9385,-599.5574 1558.0092,-569 1559.4699,-568.7562 1560.9568,-568.4874 1562.4555,-568.1995"/>
<polygon fill="#63b8ff" stroke="#63b8ff" points="1563.3165,-571.5946 1572.3649,-566.0829 1561.8543,-564.749 1563.3165,-571.5946"/>
</g>
<!-- Node30&#45;&gt;Node7 -->
<g id="edge58" class="edge">
<title>Node30&#45;&gt;Node7</title>
<path fill="none" stroke="#63b8ff" d="M1044.7224,-612.5231C995.1759,-607.1736 864.7491,-591.301 828.0092,-569 685.4847,-482.4883 703.4072,-401.6784 595.0092,-275 586.7465,-265.3439 577.1585,-254.903 569.2313,-246.4614"/>
<polygon fill="#63b8ff" stroke="#63b8ff" points="571.6532,-243.9286 562.2373,-239.0713 566.569,-248.7402 571.6532,-243.9286"/>
</g>
<!-- Node30&#45;&gt;Node10 -->
<g id="edge53" class="edge">
<title>Node30&#45;&gt;Node10</title>
<path fill="none" stroke="#63b8ff" d="M1083.3038,-613.5225C1141.2954,-610.324 1318.9138,-598.6226 1463.0092,-569 1646.3083,-531.3181 1742.8919,-518.5846 1822.0092,-349 1857.0404,-273.9121 1889.2249,-239.0295 1852.0092,-165 1833.6038,-128.3879 1816.0885,-125.1387 1778.0092,-110 1715.4813,-85.1415 1515.7642,-71.3577 1431.3048,-66.5135"/>
<polygon fill="#63b8ff" stroke="#63b8ff" points="1431.3009,-63.0078 1421.1201,-65.9408 1430.9079,-69.9968 1431.3009,-63.0078"/>
</g>
<!-- Node30&#45;&gt;Node18 -->
<g id="edge51" class="edge">
<title>Node30&#45;&gt;Node18</title>
<path fill="none" stroke="#63b8ff" d="M1074.8424,-604.8318C1090.644,-591.1259 1121.3692,-565.9441 1151.0092,-550 1312.0496,-463.3721 1440.4169,-518.1016 1510.0092,-349 1527.5986,-306.2598 1530.5306,-272.6282 1474.0092,-220 1425.7284,-175.0448 1391.4868,-207.927 1330.0092,-184 1313.5146,-177.5803 1310.837,-172.9224 1295.0092,-165 1272.58,-153.7734 1246.8257,-141.9699 1227.2082,-133.1989"/>
<polygon fill="#63b8ff" stroke="#63b8ff" points="1228.3956,-129.8965 1217.8362,-129.0304 1225.5508,-136.2924 1228.3956,-129.8965"/>
</g>
<!-- Node30&#45;&gt;Node24 -->
<g id="edge52" class="edge">
<title>Node30&#45;&gt;Node24</title>
<path fill="none" stroke="#63b8ff" d="M1044.7523,-610.9749C1016.0406,-605.1767 960.9026,-591.9232 919.0092,-569 879.8463,-547.5709 842.0092,-549.1423 842.0092,-504.5 842.0092,-504.5 842.0092,-504.5 842.0092,-229.5 842.0092,-195.8364 858.1054,-159.3974 869.3459,-138.0549"/>
<polygon fill="#63b8ff" stroke="#63b8ff" points="872.5045,-139.5739 874.2378,-129.1218 866.3648,-136.2117 872.5045,-139.5739"/>
</g>
<!-- Node30&#45;&gt;Node28 -->
<g id="edge55" class="edge">
<title>Node30&#45;&gt;Node28</title>
<path fill="none" stroke="#63b8ff" d="M1044.9248,-612.965C986.1696,-608.0396 808.7959,-591.6244 756.0092,-569 532.8798,-473.3668 323.2339,-254.1522 266.1919,-191.5054"/>
<polygon fill="#63b8ff" stroke="#63b8ff" points="268.746,-189.1116 259.4441,-184.0395 263.5527,-193.8052 268.746,-189.1116"/>
</g>
<!-- Node31 -->
<g id="node31" class="node">
<title>Node31</title>
<g id="a_node31"><a xlink:title=" ">
<polygon fill="#e0e0e0" stroke="#999999" points="1005.5092,-569 946.5092,-569 946.5092,-550 1005.5092,-550 1005.5092,-569"/>
<text text-anchor="middle" x="976.0092" y="-557" font-family="Helvetica,sans-Serif" font-size="10.00" fill="#000000">functional</text>
</a>
</g>
</g>
<!-- Node30&#45;&gt;Node31 -->
<g id="edge54" class="edge">
<title>Node30&#45;&gt;Node31</title>
<path fill="none" stroke="#63b8ff" d="M1048.6808,-604.9197C1035.2612,-596.5325 1015.5393,-584.2063 1000.0257,-574.5103"/>
<polygon fill="#63b8ff" stroke="#63b8ff" points="1001.7923,-571.4871 991.4572,-569.155 998.0822,-577.4231 1001.7923,-571.4871"/>
</g>
<!-- Node32 -->
<g id="node32" class="node">
<title>Node32</title>
<g id="a_node32"><a xlink:title=" ">
<polygon fill="#e0e0e0" stroke="#999999" points="1064.5092,-569 1023.5092,-569 1023.5092,-550 1064.5092,-550 1064.5092,-569"/>
<text text-anchor="middle" x="1044.0092" y="-557" font-family="Helvetica,sans-Serif" font-size="10.00" fill="#000000">ctime</text>
</a>
</g>
</g>
<!-- Node30&#45;&gt;Node32 -->
<g id="edge56" class="edge">
<title>Node30&#45;&gt;Node32</title>
<path fill="none" stroke="#63b8ff" d="M1060.5255,-604.9197C1057.9192,-597.7525 1054.267,-587.7089 1051.0595,-578.8882"/>
<polygon fill="#63b8ff" stroke="#63b8ff" points="1054.2945,-577.5426 1047.5877,-569.3408 1047.7159,-579.9349 1054.2945,-577.5426"/>
</g>
<!-- Node33 -->
<g id="node33" class="node">
<title>Node33</title>
<g id="a_node33"><a xlink:href="../../de/d9c/docparser_8h.html" target="_top" xlink:title=" ">
<polygon fill="#ffffff" stroke="#666666" points="814.0092,-239 746.0092,-239 746.0092,-220 814.0092,-220 814.0092,-239"/>
<text text-anchor="middle" x="780.0092" y="-227" font-family="Helvetica,sans-Serif" font-size="10.00" fill="#000000">docparser.h</text>
</a>
</g>
</g>
<!-- Node30&#45;&gt;Node33 -->
<g id="edge59" class="edge">
<title>Node30&#45;&gt;Node33</title>
<path fill="none" stroke="#63b8ff" d="M1044.9332,-612.8549C1017.4703,-609.4691 966.9247,-599.273 938.0092,-569 917.2789,-547.2965 918.0092,-534.5132 918.0092,-504.5 918.0092,-504.5 918.0092,-504.5 918.0092,-339.5 918.0092,-289.4369 861.7873,-258.4681 821.1145,-242.6144"/>
<polygon fill="#63b8ff" stroke="#63b8ff" points="822.2618,-239.3069 811.6692,-239.0909 819.8152,-245.8654 822.2618,-239.3069"/>
</g>
<!-- Node36 -->
<g id="node36" class="node">
<title>Node36</title>
<g id="a_node36"><a xlink:href="../../d5/d75/containers_8h.html" target="_top" xlink:title=" ">
<polygon fill="#ffffff" stroke="#666666" points="1764.0092,-294 1694.0092,-294 1694.0092,-275 1764.0092,-275 1764.0092,-294"/>
<text text-anchor="middle" x="1729.0092" y="-282" font-family="Helvetica,sans-Serif" font-size="10.00" fill="#000000">containers.h</text>
</a>
</g>
</g>
<!-- Node30&#45;&gt;Node36 -->
<g id="edge67" class="edge">
<title>Node30&#45;&gt;Node36</title>
<path fill="none" stroke="#63b8ff" d="M1083.2909,-611.7168C1177.445,-597.8336 1588.5014,-533.757 1691.0092,-459 1733.9642,-427.6737 1731.8532,-401.8069 1738.0092,-349 1739.7711,-333.8864 1737.1933,-316.8381 1734.3517,-304.0661"/>
<polygon fill="#63b8ff" stroke="#63b8ff" points="1737.6856,-302.9675 1731.889,-294.099 1730.89,-304.6466 1737.6856,-302.9675"/>
</g>
<!-- Node41 -->
<g id="node41" class="node">
<title>Node41</title>
<g id="a_node41"><a xlink:href="../../df/d06/outputgen_8h.html" target="_top" xlink:title=" ">
<polygon fill="#ffffff" stroke="#666666" points="586.0092,-294 518.0092,-294 518.0092,-275 586.0092,-275 586.0092,-294"/>
<text text-anchor="middle" x="552.0092" y="-282" font-family="Helvetica,sans-Serif" font-size="10.00" fill="#000000">outputgen.h</text>
</a>
</g>
</g>
<!-- Node30&#45;&gt;Node41 -->
<g id="edge75" class="edge">
<title>Node30&#45;&gt;Node41</title>
<path fill="none" stroke="#63b8ff" d="M1044.6292,-612.8081C989.8665,-607.79 835.0327,-591.8972 790.0092,-569 670.0073,-507.9717 587.2781,-356.8828 560.9755,-303.5303"/>
<polygon fill="#63b8ff" stroke="#63b8ff" points="563.9772,-301.6977 556.4731,-294.2185 557.6752,-304.745 563.9772,-301.6977"/>
</g>
<!-- Node44 -->
<g id="node44" class="node">
<title>Node44</title>
<g id="a_node44"><a xlink:href="../../d1/d21/regex_8h.html" target="_top" xlink:title=" ">
<polygon fill="#ffffff" stroke="#666666" points="1821.5092,-184 1772.5092,-184 1772.5092,-165 1821.5092,-165 1821.5092,-184"/>
<text text-anchor="middle" x="1797.0092" y="-172" font-family="Helvetica,sans-Serif" font-size="10.00" fill="#000000">regex.h</text>
</a>
</g>
</g>
<!-- Node30&#45;&gt;Node44 -->
<g id="edge90" class="edge">
<title>Node30&#45;&gt;Node44</title>
<path fill="none" stroke="#63b8ff" d="M1083.336,-613.3328C1154.7835,-608.5196 1409.9276,-586.8966 1605.0092,-514 1656.2107,-494.8674 1674.9874,-496.2278 1715.0092,-459 1797.032,-382.7032 1814.2942,-348.483 1838.0092,-239 1839.7969,-230.747 1841.0369,-227.883 1838.0092,-220 1833.7773,-208.9819 1825.5071,-198.9644 1817.4962,-191.1512"/>
<polygon fill="#63b8ff" stroke="#63b8ff" points="1819.4921,-188.2367 1809.7309,-184.1174 1814.7928,-193.4248 1819.4921,-188.2367"/>
</g>
<!-- Node45 -->
<g id="node45" class="node">
<title>Node45</title>
<g id="a_node45"><a xlink:href="../../da/df1/conceptdef_8h.html" target="_top" xlink:title=" ">
<polygon fill="#ffffff" stroke="#666666" points="1232.5092,-569 1159.5092,-569 1159.5092,-550 1232.5092,-550 1232.5092,-569"/>
<text text-anchor="middle" x="1196.0092" y="-557" font-family="Helvetica,sans-Serif" font-size="10.00" fill="#000000">conceptdef.h</text>
</a>
</g>
</g>
<!-- Node30&#45;&gt;Node45 -->
<g id="edge95" class="edge">
<title>Node30&#45;&gt;Node45</title>
<path fill="none" stroke="#63b8ff" d="M1083.2031,-606.5025C1104.1604,-597.7703 1138.09,-583.633 1163.2723,-573.1404"/>
<polygon fill="#63b8ff" stroke="#63b8ff" points="1164.9029,-576.2527 1172.7875,-569.1757 1162.2105,-569.7912 1164.9029,-576.2527"/>
</g>
<!-- Node33&#45;&gt;Node3 -->
<g id="edge60" class="edge">
<title>Node33&#45;&gt;Node3</title>
<path fill="none" stroke="#63b8ff" d="M762.068,-219.9197C746.0674,-211.3757 722.4118,-198.7441 704.1064,-188.9694"/>
<polygon fill="#63b8ff" stroke="#63b8ff" points="705.5602,-185.778 695.0904,-184.155 702.263,-191.9528 705.5602,-185.778"/>
</g>
<!-- Node33&#45;&gt;Node8 -->
<g id="edge62" class="edge">
<title>Node33&#45;&gt;Node8</title>
<path fill="none" stroke="#63b8ff" d="M772.803,-219.8781C766.47,-210.9928 757.4407,-197.2108 752.0092,-184 746.1258,-169.6902 742.2828,-152.6006 739.9609,-139.6085"/>
<polygon fill="#63b8ff" stroke="#63b8ff" points="743.3631,-138.725 738.2989,-129.4189 736.4544,-139.8519 743.3631,-138.725"/>
</g>
<!-- Node33&#45;&gt;Node18 -->
<g id="edge61" class="edge">
<title>Node33&#45;&gt;Node18</title>
<path fill="none" stroke="#63b8ff" d="M814.2971,-225.687C862.2334,-219.7842 951.6453,-206.6815 1025.0092,-184 1044.9706,-177.8286 1048.5968,-172.7266 1068.0092,-165 1098.7672,-152.7576 1134.2777,-140.2612 1160.0819,-131.4699"/>
<polygon fill="#63b8ff" stroke="#63b8ff" points="1161.4626,-134.6976 1169.8109,-128.1741 1159.2166,-128.0677 1161.4626,-134.6976"/>
</g>
<!-- Node34 -->
<g id="node34" class="node">
<title>Node34</title>
<g id="a_node34"><a xlink:href="../../d7/d50/growvector_8h.html" target="_top" xlink:title=" ">
<polygon fill="#ffffff" stroke="#666666" points="1411.5092,-184 1338.5092,-184 1338.5092,-165 1411.5092,-165 1411.5092,-184"/>
<text text-anchor="middle" x="1375.0092" y="-172" font-family="Helvetica,sans-Serif" font-size="10.00" fill="#000000">growvector.h</text>
</a>
</g>
</g>
<!-- Node33&#45;&gt;Node34 -->
<g id="edge63" class="edge">
<title>Node33&#45;&gt;Node34</title>
<path fill="none" stroke="#63b8ff" d="M814.136,-226.3454C915.0675,-217.0156 1212.3004,-189.5403 1328.087,-178.8373"/>
<polygon fill="#63b8ff" stroke="#63b8ff" points="1328.7537,-182.2907 1338.3891,-177.8851 1328.1093,-175.3204 1328.7537,-182.2907"/>
</g>
<!-- Node34&#45;&gt;Node18 -->
<g id="edge65" class="edge">
<title>Node34&#45;&gt;Node18</title>
<path fill="none" stroke="#63b8ff" d="M1343.8298,-164.9197C1312.6032,-155.325 1264.6001,-140.5754 1231.8275,-130.5056"/>
<polygon fill="#63b8ff" stroke="#63b8ff" points="1232.768,-127.1332 1222.1811,-127.5416 1230.712,-133.8244 1232.768,-127.1332"/>
</g>
<!-- Node34&#45;&gt;Node20 -->
<g id="edge64" class="edge">
<title>Node34&#45;&gt;Node20</title>
<path fill="none" stroke="#63b8ff" d="M1409.4982,-164.9197C1446.5076,-154.6393 1504.8212,-138.4411 1540.8894,-128.4222"/>
<polygon fill="#63b8ff" stroke="#63b8ff" points="1542.18,-131.6963 1550.8784,-125.6474 1540.3064,-124.9516 1542.18,-131.6963"/>
</g>
<!-- Node35 -->
<g id="node35" class="node">
<title>Node35</title>
<g id="a_node35"><a xlink:title=" ">
<polygon fill="#e0e0e0" stroke="#999999" points="1723.5092,-129 1676.5092,-129 1676.5092,-110 1723.5092,-110 1723.5092,-129"/>
<text text-anchor="middle" x="1700.0092" y="-117" font-family="Helvetica,sans-Serif" font-size="10.00" fill="#000000">iterator</text>
</a>
</g>
</g>
<!-- Node34&#45;&gt;Node35 -->
<g id="edge66" class="edge">
<title>Node34&#45;&gt;Node35</title>
<path fill="none" stroke="#63b8ff" d="M1411.6591,-168.2977C1475.2153,-157.5421 1604.9505,-135.5869 1666.3563,-125.1951"/>
<polygon fill="#63b8ff" stroke="#63b8ff" points="1667.0256,-128.6317 1676.3014,-123.5121 1665.8575,-121.7298 1667.0256,-128.6317"/>
</g>
<!-- Node36&#45;&gt;Node9 -->
<g id="edge69" class="edge">
<title>Node36&#45;&gt;Node9</title>
<path fill="none" stroke="#63b8ff" d="M1764.0167,-282.0453C1824.2306,-275.7155 1941.0092,-253.2837 1941.0092,-174.5 1941.0092,-174.5 1941.0092,-174.5 1941.0092,-119.5 1941.0092,43.4853 1741.7562,-75.0525 1580.0092,-55 1342.705,-25.5803 1054.1243,-13.7232 960.7373,-10.4837"/>
<polygon fill="#63b8ff" stroke="#63b8ff" points="960.6909,-6.9802 950.5779,-10.1388 960.4534,-13.9761 960.6909,-6.9802"/>
</g>
<!-- Node36&#45;&gt;Node20 -->
<g id="edge68" class="edge">
<title>Node36&#45;&gt;Node20</title>
<path fill="none" stroke="#63b8ff" d="M1758.4465,-274.91C1787.0185,-263.9331 1823.9131,-244.2953 1808.0092,-220 1805.0247,-215.4408 1668.1817,-158.6751 1604.7199,-132.5291"/>
<polygon fill="#63b8ff" stroke="#63b8ff" points="1605.7759,-129.1789 1595.1964,-128.6085 1603.111,-135.6519 1605.7759,-129.1789"/>
</g>
<!-- Node36&#45;&gt;Node24 -->
<g id="edge73" class="edge">
<title>Node36&#45;&gt;Node24</title>
<path fill="none" stroke="#63b8ff" d="M1724.1715,-274.898C1716.092,-260.0391 1698.3108,-231.9436 1674.0092,-220 1527.0479,-147.7727 1085.9083,-254.2871 938.0092,-184 917.2837,-174.1505 900.6822,-153.175 890.638,-137.8078"/>
<polygon fill="#63b8ff" stroke="#63b8ff" points="893.4943,-135.7723 885.2532,-129.1138 887.5433,-139.4582 893.4943,-135.7723"/>
</g>
<!-- Node37 -->
<g id="node37" class="node">
<title>Node37</title>
<g id="a_node37"><a xlink:title=" ">
<polygon fill="#e0e0e0" stroke="#999999" points="1665.0092,-239 1635.0092,-239 1635.0092,-220 1665.0092,-220 1665.0092,-239"/>
<text text-anchor="middle" x="1650.0092" y="-227" font-family="Helvetica,sans-Serif" font-size="10.00" fill="#000000">set</text>
</a>
</g>
</g>
<!-- Node36&#45;&gt;Node37 -->
<g id="edge70" class="edge">
<title>Node36&#45;&gt;Node37</title>
<path fill="none" stroke="#63b8ff" d="M1715.2485,-274.9197C1703.4265,-266.6893 1686.1563,-254.6657 1672.3543,-245.0567"/>
<polygon fill="#63b8ff" stroke="#63b8ff" points="1674.0841,-241.9963 1663.8773,-239.155 1670.0845,-247.7412 1674.0841,-241.9963"/>
</g>
<!-- Node38 -->
<g id="node38" class="node">
<title>Node38</title>
<g id="a_node38"><a xlink:title=" ">
<polygon fill="#e0e0e0" stroke="#999999" points="1464.5092,-239 1429.5092,-239 1429.5092,-220 1464.5092,-220 1464.5092,-239"/>
<text text-anchor="middle" x="1447.0092" y="-227" font-family="Helvetica,sans-Serif" font-size="10.00" fill="#000000">map</text>
</a>
</g>
</g>
<!-- Node36&#45;&gt;Node38 -->
<g id="edge71" class="edge">
<title>Node36&#45;&gt;Node38</title>
<path fill="none" stroke="#63b8ff" d="M1693.8639,-277.6454C1637.073,-266.5692 1526.2911,-244.9628 1474.6914,-234.899"/>
<polygon fill="#63b8ff" stroke="#63b8ff" points="1475.1047,-231.4137 1464.6196,-232.9346 1473.7646,-238.2843 1475.1047,-231.4137"/>
</g>
<!-- Node39 -->
<g id="node39" class="node">
<title>Node39</title>
<g id="a_node39"><a xlink:title=" ">
<polygon fill="#e0e0e0" stroke="#999999" points="1799.0092,-239 1721.0092,-239 1721.0092,-220 1799.0092,-220 1799.0092,-239"/>
<text text-anchor="middle" x="1760.0092" y="-227" font-family="Helvetica,sans-Serif" font-size="10.00" fill="#000000">unordered_set</text>
</a>
</g>
</g>
<!-- Node36&#45;&gt;Node39 -->
<g id="edge72" class="edge">
<title>Node36&#45;&gt;Node39</title>
<path fill="none" stroke="#63b8ff" d="M1734.409,-274.9197C1738.5365,-267.5967 1744.3565,-257.2709 1749.4045,-248.3147"/>
<polygon fill="#63b8ff" stroke="#63b8ff" points="1752.6014,-249.7709 1754.4626,-239.3408 1746.5033,-246.3338 1752.6014,-249.7709"/>
</g>
<!-- Node40 -->
<g id="node40" class="node">
<title>Node40</title>
<g id="a_node40"><a xlink:title=" ">
<polygon fill="#e0e0e0" stroke="#999999" points="1054.5092,-239 1013.5092,-239 1013.5092,-220 1054.5092,-220 1054.5092,-239"/>
<text text-anchor="middle" x="1034.0092" y="-227" font-family="Helvetica,sans-Serif" font-size="10.00" fill="#000000">stack</text>
</a>
</g>
</g>
<!-- Node36&#45;&gt;Node40 -->
<g id="edge74" class="edge">
<title>Node36&#45;&gt;Node40</title>
<path fill="none" stroke="#63b8ff" d="M1693.5886,-281.6969C1572.7332,-272.1328 1177.8474,-240.8829 1064.6133,-231.9219"/>
<polygon fill="#63b8ff" stroke="#63b8ff" points="1064.798,-228.4257 1054.553,-231.1258 1064.2457,-235.4039 1064.798,-228.4257"/>
</g>
<!-- Node41&#45;&gt;Node7 -->
<g id="edge80" class="edge">
<title>Node41&#45;&gt;Node7</title>
<path fill="none" stroke="#63b8ff" d="M552.1834,-274.9197C552.3109,-267.9083 552.4884,-258.1442 552.6462,-249.4652"/>
<polygon fill="#63b8ff" stroke="#63b8ff" points="556.1478,-249.4028 552.8303,-239.3408 549.149,-249.2755 556.1478,-249.4028"/>
</g>
<!-- Node41&#45;&gt;Node18 -->
<g id="edge76" class="edge">
<title>Node41&#45;&gt;Node18</title>
<path fill="none" stroke="#63b8ff" d="M586.4329,-279.7924C638.0957,-272.4858 738.6274,-257.3307 823.0092,-239 854.9306,-232.0655 862.2604,-227.686 894.0092,-220 967.3825,-202.2371 989.0828,-209.8573 1060.0092,-184 1077.0066,-177.8034 1079.7686,-172.9719 1096.0092,-165 1118.8165,-153.8047 1144.9631,-141.9412 1164.7993,-133.1359"/>
<polygon fill="#63b8ff" stroke="#63b8ff" points="1166.2559,-136.3188 1173.9878,-129.0753 1163.4264,-129.9161 1166.2559,-136.3188"/>
</g>
<!-- Node41&#45;&gt;Node26 -->
<g id="edge88" class="edge">
<title>Node41&#45;&gt;Node26</title>
<path fill="none" stroke="#63b8ff" d="M517.7399,-278.9236C456.5195,-268.9617 328.3629,-248.1078 259.722,-236.9385"/>
<polygon fill="#63b8ff" stroke="#63b8ff" points="260.071,-233.4493 249.6387,-235.2977 258.9467,-240.3584 260.071,-233.4493"/>
</g>
<!-- Node41&#45;&gt;Node27 -->
<g id="edge78" class="edge">
<title>Node41&#45;&gt;Node27</title>
<path fill="none" stroke="#63b8ff" d="M536.5303,-274.7918C514.9509,-261.4796 474.3755,-237.249 438.0092,-220 411.8193,-207.5778 381.2626,-195.782 357.9454,-187.3147"/>
<polygon fill="#63b8ff" stroke="#63b8ff" points="359.0239,-183.9832 348.4294,-183.8975 356.658,-190.5713 359.0239,-183.9832"/>
</g>
<!-- Node41&#45;&gt;Node28 -->
<g id="edge79" class="edge">
<title>Node41&#45;&gt;Node28</title>
<path fill="none" stroke="#63b8ff" d="M526.3977,-274.9836C503.1234,-266.1694 467.9514,-252.4324 438.0092,-239 420.781,-231.2712 417.5445,-227.0041 400.0092,-220 379.2311,-211.7007 323.0774,-195.1248 285.9508,-184.4365"/>
<polygon fill="#63b8ff" stroke="#63b8ff" points="286.6064,-180.9834 276.0289,-181.5897 284.6758,-187.712 286.6064,-180.9834"/>
</g>
<!-- Node41&#45;&gt;Node33 -->
<g id="edge89" class="edge">
<title>Node41&#45;&gt;Node33</title>
<path fill="none" stroke="#63b8ff" d="M586.1431,-276.2659C626.0196,-266.6466 692.0964,-250.707 735.8474,-240.1531"/>
<polygon fill="#63b8ff" stroke="#63b8ff" points="736.7416,-243.5378 745.642,-237.7903 735.1,-236.733 736.7416,-243.5378"/>
</g>
<!-- Node41&#45;&gt;Node40 -->
<g id="edge77" class="edge">
<title>Node41&#45;&gt;Node40</title>
<path fill="none" stroke="#63b8ff" d="M586.2072,-283.5858C660.7148,-281.0581 843.2342,-271.9582 1003.2288,-238.9995"/>
<polygon fill="#63b8ff" stroke="#63b8ff" points="1004.1791,-242.3764 1013.2475,-236.8978 1002.7419,-235.5256 1004.1791,-242.3764"/>
</g>
<!-- Node42 -->
<g id="node42" class="node">
<title>Node42</title>
<g id="a_node42"><a xlink:href="../../d1/db5/index_8h.html" target="_top" xlink:title=" ">
<polygon fill="#ffffff" stroke="#666666" points="484.0092,-184 436.0092,-184 436.0092,-165 484.0092,-165 484.0092,-184"/>
<text text-anchor="middle" x="460.0092" y="-172" font-family="Helvetica,sans-Serif" font-size="10.00" fill="#000000">index.h</text>
</a>
</g>
</g>
<!-- Node41&#45;&gt;Node42 -->
<g id="edge81" class="edge">
<title>Node41&#45;&gt;Node42</title>
<path fill="none" stroke="#63b8ff" d="M543.8448,-274.7382C528.2566,-256.1002 494.0693,-215.224 474.5076,-191.835"/>
<polygon fill="#63b8ff" stroke="#63b8ff" points="477.1243,-189.5082 468.0239,-184.0828 471.7547,-193.9991 477.1243,-189.5082"/>
</g>
<!-- Node43 -->
<g id="node43" class="node">
<title>Node43</title>
<g id="a_node43"><a xlink:href="../../d1/d2a/section_8h.html" target="_top" xlink:title=" ">
<polygon fill="#ffffff" stroke="#666666" points="690.0092,-239 634.0092,-239 634.0092,-220 690.0092,-220 690.0092,-239"/>
<text text-anchor="middle" x="662.0092" y="-227" font-family="Helvetica,sans-Serif" font-size="10.00" fill="#000000">section.h</text>
</a>
</g>
</g>
<!-- Node41&#45;&gt;Node43 -->
<g id="edge83" class="edge">
<title>Node41&#45;&gt;Node43</title>
<path fill="none" stroke="#63b8ff" d="M571.1697,-274.9197C588.4145,-266.2973 613.9852,-253.512 633.607,-243.7011"/>
<polygon fill="#63b8ff" stroke="#63b8ff" points="635.3201,-246.7577 642.6992,-239.155 632.1896,-240.4967 635.3201,-246.7577"/>
</g>
<!-- Node42&#45;&gt;Node8 -->
<g id="edge82" class="edge">
<title>Node42&#45;&gt;Node8</title>
<path fill="none" stroke="#63b8ff" d="M484.0833,-168.2623C488.6949,-167.1296 493.493,-165.9936 498.0092,-165 567.9551,-149.6118 650.0927,-134.6475 697.5872,-126.2962"/>
<polygon fill="#63b8ff" stroke="#63b8ff" points="698.2173,-129.7393 707.464,-124.5672 697.0102,-122.8441 698.2173,-129.7393"/>
</g>
<!-- Node43&#45;&gt;Node8 -->
<g id="edge86" class="edge">
<title>Node43&#45;&gt;Node8</title>
<path fill="none" stroke="#63b8ff" d="M645.2161,-219.8881C625.7269,-207.4757 597.9503,-185.0788 612.0092,-165 622.1528,-150.513 664.8996,-137.0747 697.6082,-128.6155"/>
<polygon fill="#63b8ff" stroke="#63b8ff" points="698.5459,-131.9887 707.3897,-126.1544 696.8379,-125.2003 698.5459,-131.9887"/>
</g>
<!-- Node43&#45;&gt;Node9 -->
<g id="edge84" class="edge">
<title>Node43&#45;&gt;Node9</title>
<path fill="none" stroke="#63b8ff" d="M647.7136,-219.8485C608.353,-192.1574 504.5019,-110.8594 554.0092,-55 576.8295,-29.2517 813.6625,-15.1923 899.3132,-10.9195"/>
<polygon fill="#63b8ff" stroke="#63b8ff" points="899.6274,-14.4085 909.4448,-10.4249 899.286,-7.4168 899.6274,-14.4085"/>
</g>
<!-- Node43&#45;&gt;Node24 -->
<g id="edge85" class="edge">
<title>Node43&#45;&gt;Node24</title>
<path fill="none" stroke="#63b8ff" d="M654.5831,-219.6137C645.2346,-205.8726 631.8919,-180.9007 645.0092,-165 656.6032,-150.9459 762.5908,-134.7951 828.2061,-126.0154"/>
<polygon fill="#63b8ff" stroke="#63b8ff" points="828.915,-129.4522 838.3696,-124.671 827.997,-122.5126 828.915,-129.4522"/>
</g>
<!-- Node43&#45;&gt;Node25 -->
<g id="edge87" class="edge">
<title>Node43&#45;&gt;Node25</title>
<path fill="none" stroke="#63b8ff" d="M690.0387,-224.6673C745.4555,-215.1127 869.4384,-193.7363 936.2747,-182.2128"/>
<polygon fill="#63b8ff" stroke="#63b8ff" points="937.2317,-185.5996 946.4916,-180.4513 936.0423,-178.7014 937.2317,-185.5996"/>
</g>
<!-- Node44&#45;&gt;Node9 -->
<g id="edge92" class="edge">
<title>Node44&#45;&gt;Node9</title>
<path fill="none" stroke="#63b8ff" d="M1790.4267,-164.7991C1780.0453,-150.3302 1758.4163,-123.3705 1733.0092,-110 1594.6928,-37.2111 1090.24,-15.0321 960.5652,-10.4734"/>
<polygon fill="#63b8ff" stroke="#63b8ff" points="960.6478,-6.9743 950.5339,-10.13 960.4082,-13.9702 960.6478,-6.9743"/>
</g>
<!-- Node44&#45;&gt;Node18 -->
<g id="edge91" class="edge">
<title>Node44&#45;&gt;Node18</title>
<path fill="none" stroke="#63b8ff" d="M1772.3288,-172.2414C1678.4981,-163.6546 1343.6447,-133.0107 1232.3031,-122.8214"/>
<polygon fill="#63b8ff" stroke="#63b8ff" points="1232.5188,-119.3266 1222.2415,-121.9006 1231.8809,-126.2975 1232.5188,-119.3266"/>
</g>
<!-- Node44&#45;&gt;Node20 -->
<g id="edge93" class="edge">
<title>Node44&#45;&gt;Node20</title>
<path fill="none" stroke="#63b8ff" d="M1772.1814,-168.4039C1731.3902,-158.3882 1650.2257,-138.4594 1605.1189,-127.3841"/>
<polygon fill="#63b8ff" stroke="#63b8ff" points="1605.8168,-123.9515 1595.2707,-124.966 1604.1476,-130.7496 1605.8168,-123.9515"/>
</g>
<!-- Node44&#45;&gt;Node35 -->
<g id="edge94" class="edge">
<title>Node44&#45;&gt;Node35</title>
<path fill="none" stroke="#63b8ff" d="M1780.1131,-164.9197C1765.1828,-156.4541 1743.1752,-143.9755 1726.0037,-134.2391"/>
<polygon fill="#63b8ff" stroke="#63b8ff" points="1727.4625,-131.0428 1717.0372,-129.155 1724.0098,-137.1321 1727.4625,-131.0428"/>
</g>
<!-- Node46 -->
<g id="node46" class="node">
<title>Node46</title>
<g id="a_node46"><a xlink:href="../../df/da1/definition_8h.html" target="_top" xlink:title=" ">
<polygon fill="#ffffff" stroke="#666666" points="1129.0092,-294 1065.0092,-294 1065.0092,-275 1129.0092,-275 1129.0092,-294"/>
<text text-anchor="middle" x="1097.0092" y="-282" font-family="Helvetica,sans-Serif" font-size="10.00" fill="#000000">definition.h</text>
</a>
</g>
</g>
<!-- Node45&#45;&gt;Node46 -->
<g id="edge96" class="edge">
<title>Node45&#45;&gt;Node46</title>
<path fill="none" stroke="#63b8ff" d="M1171.3071,-549.8504C1123.0683,-530.2313 1021.0092,-484.578 1021.0092,-449.5 1021.0092,-449.5 1021.0092,-449.5 1021.0092,-394.5 1021.0092,-363.9131 1027.6354,-355.1735 1045.0092,-330 1052.8877,-318.5846 1064.2572,-308.1991 1074.3571,-300.2419"/>
<polygon fill="#63b8ff" stroke="#63b8ff" points="1076.5529,-302.9698 1082.4378,-294.1597 1072.3433,-297.377 1076.5529,-302.9698"/>
</g>
<!-- Node47 -->
<g id="node47" class="node">
<title>Node47</title>
<g id="a_node47"><a xlink:href="../../d4/d3a/filedef_8h.html" target="_top" xlink:title=" ">
<polygon fill="#ffffff" stroke="#666666" points="1380.5092,-514 1329.5092,-514 1329.5092,-495 1380.5092,-495 1380.5092,-514"/>
<text text-anchor="middle" x="1355.0092" y="-502" font-family="Helvetica,sans-Serif" font-size="10.00" fill="#000000">filedef.h</text>
</a>
</g>
</g>
<!-- Node45&#45;&gt;Node47 -->
<g id="edge100" class="edge">
<title>Node45&#45;&gt;Node47</title>
<path fill="none" stroke="#63b8ff" d="M1223.7049,-549.9197C1250.3675,-540.6968 1290.7995,-526.7109 1319.7491,-516.6969"/>
<polygon fill="#63b8ff" stroke="#63b8ff" points="1321.1622,-519.9116 1329.4686,-513.3348 1318.8739,-513.2962 1321.1622,-519.9116"/>
</g>
<!-- Node46&#45;&gt;Node7 -->
<g id="edge98" class="edge">
<title>Node46&#45;&gt;Node7</title>
<path fill="none" stroke="#63b8ff" d="M1064.795,-280.8618C1048.399,-279.0407 1028.149,-276.8384 1010.0092,-275 839.0275,-257.6719 795.7859,-258.2439 625.0092,-239 612.7993,-237.6241 599.4515,-235.9191 587.6017,-234.3349"/>
<polygon fill="#63b8ff" stroke="#63b8ff" points="588.0195,-230.8596 577.6401,-232.9851 587.0795,-237.7962 588.0195,-230.8596"/>
</g>
<!-- Node46&#45;&gt;Node20 -->
<g id="edge97" class="edge">
<title>Node46&#45;&gt;Node20</title>
<path fill="none" stroke="#63b8ff" d="M1110.6674,-274.9948C1132.1933,-260.5295 1175.8113,-233.2733 1217.0092,-220 1334.3352,-182.1995 1378.5382,-232.1519 1492.0092,-184 1517.656,-173.1167 1541.9373,-151.7706 1557.1064,-136.6192"/>
<polygon fill="#63b8ff" stroke="#63b8ff" points="1559.711,-138.961 1564.1672,-129.3489 1554.6894,-134.0841 1559.711,-138.961"/>
</g>
<!-- Node46&#45;&gt;Node23 -->
<g id="edge99" class="edge">
<title>Node46&#45;&gt;Node23</title>
<path fill="none" stroke="#63b8ff" d="M1075.0617,-274.9197C1054.9494,-266.1406 1024.9503,-253.0457 1002.3235,-243.1689"/>
<polygon fill="#63b8ff" stroke="#63b8ff" points="1003.6931,-239.9479 993.128,-239.155 1000.8927,-246.3634 1003.6931,-239.9479"/>
</g>
<!-- Node47&#45;&gt;Node36 -->
<g id="edge128" class="edge">
<title>Node47&#45;&gt;Node36</title>
<path fill="none" stroke="#63b8ff" d="M1380.7758,-504.1236C1447.761,-502.6353 1625.2096,-495.2793 1669.0092,-459 1716.2053,-419.9074 1726.3698,-341.8003 1728.4929,-304.815"/>
<polygon fill="#63b8ff" stroke="#63b8ff" points="1732.0096,-304.4926 1728.9364,-294.3533 1725.0159,-304.196 1732.0096,-304.4926"/>
</g>
<!-- Node47&#45;&gt;Node37 -->
<g id="edge101" class="edge">
<title>Node47&#45;&gt;Node37</title>
<path fill="none" stroke="#63b8ff" d="M1380.587,-500.7635C1453.1354,-489.4532 1655.0092,-452.7478 1655.0092,-394.5 1655.0092,-394.5 1655.0092,-394.5 1655.0092,-339.5 1655.0092,-307.9182 1652.927,-271.2886 1651.45,-249.2782"/>
<polygon fill="#63b8ff" stroke="#63b8ff" points="1654.9348,-248.937 1650.747,-239.2049 1647.9517,-249.4243 1654.9348,-248.937"/>
</g>
<!-- Node47&#45;&gt;Node46 -->
<g id="edge102" class="edge">
<title>Node47&#45;&gt;Node46</title>
<path fill="none" stroke="#63b8ff" d="M1329.3847,-497.0071C1288.7485,-484.0016 1209.0175,-453.7689 1159.0092,-404 1129.8728,-375.003 1111.5074,-329.4464 1102.8654,-303.7695"/>
<polygon fill="#63b8ff" stroke="#63b8ff" points="1106.146,-302.538 1099.7539,-294.0886 1099.4817,-304.6799 1106.146,-302.538"/>
</g>
<!-- Node48 -->
<g id="node48" class="node">
<title>Node48</title>
<g id="a_node48"><a xlink:href="../../dd/d78/memberlist_8h.html" target="_top" xlink:title=" ">
<polygon fill="#ffffff" stroke="#666666" points="1391.5092,-459 1318.5092,-459 1318.5092,-440 1391.5092,-440 1391.5092,-459"/>
<text text-anchor="middle" x="1355.0092" y="-447" font-family="Helvetica,sans-Serif" font-size="10.00" fill="#000000">memberlist.h</text>
</a>
</g>
</g>
<!-- Node47&#45;&gt;Node48 -->
<g id="edge103" class="edge">
<title>Node47&#45;&gt;Node48</title>
<path fill="none" stroke="#63b8ff" d="M1355.0092,-494.9197C1355.0092,-487.9083 1355.0092,-478.1442 1355.0092,-469.4652"/>
<polygon fill="#63b8ff" stroke="#63b8ff" points="1358.5093,-469.3408 1355.0092,-459.3408 1351.5093,-469.3409 1358.5093,-469.3408"/>
</g>
<!-- Node48&#45;&gt;Node7 -->
<g id="edge126" class="edge">
<title>Node48&#45;&gt;Node7</title>
<path fill="none" stroke="#63b8ff" d="M1318.4743,-444.4613C1215.3579,-429.5344 914.2176,-381.0629 678.0092,-294 641.4375,-280.5202 601.8788,-258.7766 577.2739,-244.3136"/>
<polygon fill="#63b8ff" stroke="#63b8ff" points="578.9967,-241.266 568.6134,-239.1593 575.4168,-247.2813 578.9967,-241.266"/>
</g>
<!-- Node48&#45;&gt;Node10 -->
<g id="edge105" class="edge">
<title>Node48&#45;&gt;Node10</title>
<path fill="none" stroke="#63b8ff" d="M1378.6581,-439.9505C1414.8403,-424.5647 1484.9011,-391.648 1534.0092,-349 1557.2312,-328.8328 1558.0586,-318.975 1576.0092,-294 1599.175,-261.7688 1592.704,-241.5932 1626.0092,-220 1703.6284,-169.6761 1771.5233,-254.8425 1831.0092,-184 1876.9003,-129.3478 1866.4093,-154.5373 1733.0092,-110 1677.7091,-91.5374 1508.12,-74.7011 1431.4072,-67.8028"/>
<polygon fill="#63b8ff" stroke="#63b8ff" points="1431.4915,-64.2966 1421.2206,-66.8963 1430.871,-71.269 1431.4915,-64.2966"/>
</g>
<!-- Node48&#45;&gt;Node20 -->
<g id="edge104" class="edge">
<title>Node48&#45;&gt;Node20</title>
<path fill="none" stroke="#63b8ff" d="M1391.5315,-443.9445C1432.2152,-437.128 1499.5582,-423.959 1555.0092,-404 1686.6191,-356.6284 1772.5705,-369.4652 1823.0092,-239 1826.0542,-231.1237 1827.3948,-227.2163 1823.0092,-220 1816.1181,-208.6609 1729.2698,-170.0733 1717.0092,-165 1679.5182,-149.4867 1634.7326,-136.1021 1605.1719,-127.9417"/>
<polygon fill="#63b8ff" stroke="#63b8ff" points="1605.9561,-124.5279 1595.3878,-125.2782 1604.1173,-131.2821 1605.9561,-124.5279"/>
</g>
<!-- Node48&#45;&gt;Node25 -->
<g id="edge125" class="edge">
<title>Node48&#45;&gt;Node25</title>
<path fill="none" stroke="#63b8ff" d="M1337.9407,-439.9919C1322.7884,-431.2904 1300.2822,-417.7172 1282.0092,-404 1180.6125,-327.8832 1170.7306,-288.4515 1064.0092,-220 1046.3182,-208.6529 1025.587,-197.2869 1009.2692,-188.7532"/>
<polygon fill="#63b8ff" stroke="#63b8ff" points="1010.7182,-185.5623 1000.2279,-184.0776 1007.5027,-191.78 1010.7182,-185.5623"/>
</g>
<!-- Node49 -->
<g id="node49" class="node">
<title>Node49</title>
<g id="a_node49"><a xlink:href="../../d4/d46/memberdef_8h.html" target="_top" xlink:title=" ">
<polygon fill="#ffffff" stroke="#666666" points="1365.0092,-404 1291.0092,-404 1291.0092,-385 1365.0092,-385 1365.0092,-404"/>
<text text-anchor="middle" x="1328.0092" y="-392" font-family="Helvetica,sans-Serif" font-size="10.00" fill="#000000">memberdef.h</text>
</a>
</g>
</g>
<!-- Node48&#45;&gt;Node49 -->
<g id="edge106" class="edge">
<title>Node48&#45;&gt;Node49</title>
<path fill="none" stroke="#63b8ff" d="M1350.3062,-439.9197C1346.7495,-432.6746 1341.7499,-422.4903 1337.3861,-413.601"/>
<polygon fill="#63b8ff" stroke="#63b8ff" points="1340.3888,-411.7751 1332.8402,-404.3408 1334.1051,-414.8599 1340.3888,-411.7751"/>
</g>
<!-- Node52 -->
<g id="node52" class="node">
<title>Node52</title>
<g id="a_node52"><a xlink:href="../../d9/d11/membergroup_8h.html" target="_top" xlink:title=" ">
<polygon fill="#ffffff" stroke="#666666" points="1437.0092,-294 1353.0092,-294 1353.0092,-275 1437.0092,-275 1437.0092,-294"/>
<text text-anchor="middle" x="1395.0092" y="-282" font-family="Helvetica,sans-Serif" font-size="10.00" fill="#000000">membergroup.h</text>
</a>
</g>
</g>
<!-- Node48&#45;&gt;Node52 -->
<g id="edge127" class="edge">
<title>Node48&#45;&gt;Node52</title>
<path fill="none" stroke="#63b8ff" d="M1359.5546,-439.9102C1363.733,-430.8192 1369.8866,-416.7019 1374.0092,-404 1385.1245,-369.7533 1390.7587,-327.9643 1393.2758,-303.9726"/>
<polygon fill="#63b8ff" stroke="#63b8ff" points="1396.7598,-304.306 1394.2466,-294.0136 1389.7928,-303.6269 1396.7598,-304.306"/>
</g>
<!-- Node49&#45;&gt;Node7 -->
<g id="edge110" class="edge">
<title>Node49&#45;&gt;Node7</title>
<path fill="none" stroke="#63b8ff" d="M1290.9705,-390.0166C1198.4693,-378.4032 950.2355,-344.67 748.0092,-294 690.6978,-279.64 625.8856,-256.8484 587.291,-242.5555"/>
<polygon fill="#63b8ff" stroke="#63b8ff" points="588.1892,-239.155 577.5966,-238.9394 585.7428,-245.7136 588.1892,-239.155"/>
</g>
<!-- Node49&#45;&gt;Node18 -->
<g id="edge108" class="edge">
<title>Node49&#45;&gt;Node18</title>
<path fill="none" stroke="#63b8ff" d="M1335.6384,-384.6911C1341.9593,-375.9002 1350.4597,-362.3657 1354.0092,-349 1356.1766,-340.8384 1355.7342,-338.2664 1354.0092,-330 1348.561,-303.892 1321.7402,-241.537 1306.0092,-220 1291.706,-200.4177 1282.98,-200.2818 1265.0092,-184 1247.3336,-167.9856 1227.4688,-149.3471 1213.6087,-136.2361"/>
<polygon fill="#63b8ff" stroke="#63b8ff" points="1215.8693,-133.5564 1206.2038,-129.217 1211.0536,-138.6367 1215.8693,-133.5564"/>
</g>
<!-- Node49&#45;&gt;Node20 -->
<g id="edge107" class="edge">
<title>Node49&#45;&gt;Node20</title>
<path fill="none" stroke="#63b8ff" d="M1365.3236,-389.0178C1411.8961,-381.5338 1488.1031,-366.973 1510.0092,-349 1572.7183,-297.5498 1570.2446,-263.1453 1588.0092,-184 1591.4662,-168.5985 1586.9005,-151.1647 1581.9233,-138.3085"/>
<polygon fill="#63b8ff" stroke="#63b8ff" points="1585.1382,-136.9248 1577.9888,-129.1058 1578.7018,-139.6766 1585.1382,-136.9248"/>
</g>
<!-- Node49&#45;&gt;Node22 -->
<g id="edge112" class="edge">
<title>Node49&#45;&gt;Node22</title>
<path fill="none" stroke="#63b8ff" d="M1307.5237,-384.8856C1293.7632,-377.2407 1276.6267,-365.1466 1268.0092,-349 1251.123,-317.3604 1253.822,-274.075 1257.3746,-249.2221"/>
<polygon fill="#63b8ff" stroke="#63b8ff" points="1260.8525,-249.64 1258.9997,-239.2084 1253.9429,-248.5186 1260.8525,-249.64"/>
</g>
<!-- Node49&#45;&gt;Node46 -->
<g id="edge111" class="edge">
<title>Node49&#45;&gt;Node46</title>
<path fill="none" stroke="#63b8ff" d="M1307.9136,-384.9306C1267.042,-365.468 1174.0743,-321.1976 1126.3995,-298.4954"/>
<polygon fill="#63b8ff" stroke="#63b8ff" points="1127.7563,-295.2649 1117.2229,-294.1256 1124.7467,-301.585 1127.7563,-295.2649"/>
</g>
<!-- Node50 -->
<g id="node50" class="node">
<title>Node50</title>
<g id="a_node50"><a xlink:title=" ">
<polygon fill="#e0e0e0" stroke="#999999" points="1345.0092,-349 1277.0092,-349 1277.0092,-330 1345.0092,-330 1345.0092,-349"/>
<text text-anchor="middle" x="1311.0092" y="-337" font-family="Helvetica,sans-Serif" font-size="10.00" fill="#000000">sys/types.h</text>
</a>
</g>
</g>
<!-- Node49&#45;&gt;Node50 -->
<g id="edge109" class="edge">
<title>Node49&#45;&gt;Node50</title>
<path fill="none" stroke="#63b8ff" d="M1325.048,-384.9197C1322.8568,-377.8304 1319.7957,-367.9269 1317.091,-359.1763"/>
<polygon fill="#63b8ff" stroke="#63b8ff" points="1320.348,-357.8613 1314.0509,-349.3408 1313.6601,-359.9285 1320.348,-357.8613"/>
</g>
<!-- Node51 -->
<g id="node51" class="node">
<title>Node51</title>
<g id="a_node51"><a xlink:href="../../d1/da6/classdef_8h.html" target="_top" xlink:title=" ">
<polygon fill="#ffffff" stroke="#666666" points="1501.0092,-349 1439.0092,-349 1439.0092,-330 1501.0092,-330 1501.0092,-349"/>
<text text-anchor="middle" x="1470.0092" y="-337" font-family="Helvetica,sans-Serif" font-size="10.00" fill="#000000">classdef.h</text>
</a>
</g>
</g>
<!-- Node49&#45;&gt;Node51 -->
<g id="edge113" class="edge">
<title>Node49&#45;&gt;Node51</title>
<path fill="none" stroke="#63b8ff" d="M1352.7437,-384.9197C1375.7135,-376.023 1410.1261,-362.6942 1435.7385,-352.7739"/>
<polygon fill="#63b8ff" stroke="#63b8ff" points="1437.0209,-356.0306 1445.0817,-349.155 1434.4926,-349.5031 1437.0209,-356.0306"/>
</g>
<!-- Node51&#45;&gt;Node20 -->
<g id="edge114" class="edge">
<title>Node51&#45;&gt;Node20</title>
<path fill="none" stroke="#63b8ff" d="M1471.4619,-329.7848C1473.7269,-316.6746 1478.9262,-292.9013 1489.0092,-275 1515.8738,-227.3047 1551.833,-234.8868 1572.0092,-184 1577.6282,-169.8283 1577.5542,-152.4908 1576.2529,-139.3612"/>
<polygon fill="#63b8ff" stroke="#63b8ff" points="1579.6768,-138.5514 1574.9057,-129.0916 1572.7363,-139.462 1579.6768,-138.5514"/>
</g>
<!-- Node51&#45;&gt;Node22 -->
<g id="edge118" class="edge">
<title>Node51&#45;&gt;Node22</title>
<path fill="none" stroke="#63b8ff" d="M1438.8075,-331.2164C1412.5717,-323.5627 1374.5648,-310.835 1344.0092,-294 1319.6452,-280.5764 1294.8689,-260.2708 1278.8091,-246.0379"/>
<polygon fill="#63b8ff" stroke="#63b8ff" points="1281.0218,-243.3203 1271.2537,-239.2172 1276.3311,-248.5162 1281.0218,-243.3203"/>
</g>
<!-- Node51&#45;&gt;Node36 -->
<g id="edge116" class="edge">
<title>Node51&#45;&gt;Node36</title>
<path fill="none" stroke="#63b8ff" d="M1501.2507,-332.8657C1546.7851,-323.1962 1631.6378,-305.1773 1683.9335,-294.0721"/>
<polygon fill="#63b8ff" stroke="#63b8ff" points="1684.8824,-297.4487 1693.9373,-291.9477 1683.4283,-290.6014 1684.8824,-297.4487"/>
</g>
<!-- Node51&#45;&gt;Node37 -->
<g id="edge115" class="edge">
<title>Node51&#45;&gt;Node37</title>
<path fill="none" stroke="#63b8ff" d="M1485.6681,-329.9306C1517.2084,-310.656 1588.5624,-267.0508 1626.021,-244.1595"/>
<polygon fill="#63b8ff" stroke="#63b8ff" points="1628.0615,-247.0144 1634.7692,-238.8133 1624.4113,-241.0414 1628.0615,-247.0144"/>
</g>
<!-- Node51&#45;&gt;Node46 -->
<g id="edge117" class="edge">
<title>Node51&#45;&gt;Node46</title>
<path fill="none" stroke="#63b8ff" d="M1438.849,-334.9053C1372.0423,-325.0545 1214.9645,-301.8929 1139.2611,-290.7302"/>
<polygon fill="#63b8ff" stroke="#63b8ff" points="1139.5406,-287.2336 1129.137,-289.2373 1138.5194,-294.1587 1139.5406,-287.2336"/>
</g>
<!-- Node51&#45;&gt;Node52 -->
<g id="edge119" class="edge">
<title>Node51&#45;&gt;Node52</title>
<path fill="none" stroke="#63b8ff" d="M1456.9452,-329.9197C1445.8287,-321.7677 1429.6379,-309.8944 1416.5982,-300.3319"/>
<polygon fill="#63b8ff" stroke="#63b8ff" points="1418.309,-297.2463 1408.1751,-294.155 1414.1694,-302.8911 1418.309,-297.2463"/>
</g>
<!-- Node52&#45;&gt;Node7 -->
<g id="edge123" class="edge">
<title>Node52&#45;&gt;Node7</title>
<path fill="none" stroke="#63b8ff" d="M1352.7754,-283.0758C1236.505,-278.9236 901.9578,-265.4187 625.0092,-239 612.7775,-237.8332 599.4246,-236.178 587.5767,-234.5755"/>
<polygon fill="#63b8ff" stroke="#63b8ff" points="588.0044,-231.1013 577.6183,-233.1942 587.0426,-238.035 588.0044,-231.1013"/>
</g>
<!-- Node52&#45;&gt;Node18 -->
<g id="edge122" class="edge">
<title>Node52&#45;&gt;Node18</title>
<path fill="none" stroke="#63b8ff" d="M1387.6974,-274.6634C1377.5877,-261.4157 1358.3848,-237.487 1339.0092,-220 1300.9985,-185.6942 1250.9687,-152.9497 1221.2782,-134.6126"/>
<polygon fill="#63b8ff" stroke="#63b8ff" points="1222.7517,-131.4112 1212.3941,-129.1816 1219.1006,-137.3837 1222.7517,-131.4112"/>
</g>
<!-- Node52&#45;&gt;Node20 -->
<g id="edge120" class="edge">
<title>Node52&#45;&gt;Node20</title>
<path fill="none" stroke="#63b8ff" d="M1396.2296,-274.64C1398.5135,-260.4633 1404.7706,-234.4429 1421.0092,-220 1466.4468,-179.5871 1509.2768,-226.2523 1553.0092,-184 1564.9846,-172.4299 1569.8281,-153.8443 1571.7673,-139.589"/>
<polygon fill="#63b8ff" stroke="#63b8ff" points="1575.2834,-139.5968 1572.7805,-129.3018 1568.3171,-138.9106 1575.2834,-139.5968"/>
</g>
<!-- Node52&#45;&gt;Node23 -->
<g id="edge124" class="edge">
<title>Node52&#45;&gt;Node23</title>
<path fill="none" stroke="#63b8ff" d="M1352.8324,-281.7504C1282.6879,-276.7067 1137.5616,-264.2727 1005.6603,-238.8389"/>
<polygon fill="#63b8ff" stroke="#63b8ff" points="1006.2702,-235.392 995.784,-236.905 1004.925,-242.2615 1006.2702,-235.392"/>
</g>
<!-- Node52&#45;&gt;Node38 -->
<g id="edge121" class="edge">
<title>Node52&#45;&gt;Node38</title>
<path fill="none" stroke="#63b8ff" d="M1404.0669,-274.9197C1411.4324,-267.1293 1422.0109,-255.9405 1430.8253,-246.6176"/>
<polygon fill="#63b8ff" stroke="#63b8ff" points="1433.3783,-249.0119 1437.7051,-239.3408 1428.2917,-244.2028 1433.3783,-249.0119"/>
</g>
<!-- Node53&#45;&gt;Node8 -->
<g id="edge132" class="edge">
<title>Node53&#45;&gt;Node8</title>
<path fill="none" stroke="#63b8ff" d="M558.4777,-607.0064C555.282,-606.311 552.085,-605.6312 549.0092,-605 428.3701,-580.2435 4.0092,-627.6531 4.0092,-504.5 4.0092,-504.5 4.0092,-504.5 4.0092,-229.5 4.0092,-167.3791 68.2582,-181.9949 128.0092,-165 235.554,-134.4112 579.2737,-123.3409 697.0039,-120.3904"/>
<polygon fill="#63b8ff" stroke="#63b8ff" points="697.4437,-123.8808 707.3552,-120.1374 697.2727,-116.8829 697.4437,-123.8808"/>
</g>
<!-- Node54 -->
<g id="node54" class="node">
<title>Node54</title>
<g id="a_node54"><a xlink:title=" ">
<polygon fill="#e0e0e0" stroke="#999999" points="615.5092,-569 566.5092,-569 566.5092,-550 615.5092,-550 615.5092,-569"/>
<text text-anchor="middle" x="591.0092" y="-557" font-family="Helvetica,sans-Serif" font-size="10.00" fill="#000000">cstdarg</text>
</a>
</g>
</g>
<!-- Node53&#45;&gt;Node54 -->
<g id="edge131" class="edge">
<title>Node53&#45;&gt;Node54</title>
<path fill="none" stroke="#63b8ff" d="M591.0092,-604.9197C591.0092,-597.9083 591.0092,-588.1442 591.0092,-579.4652"/>
<polygon fill="#63b8ff" stroke="#63b8ff" points="594.5093,-579.3408 591.0092,-569.3408 587.5093,-579.3409 594.5093,-579.3408"/>
</g>
</g>
</svg>
