<?xml version="1.0" encoding="UTF-8" standalone="no"?>
<!DOCTYPE svg PUBLIC "-//W3C//DTD SVG 1.1//EN"
 "http://www.w3.org/Graphics/SVG/1.1/DTD/svg11.dtd">
<!-- Generated by graphviz version 2.40.1 (20161225.0304)
 -->
<!-- Title: src/declinfo.l Pages: 1 -->
<svg width="2165pt" height="687pt"
 viewBox="0.00 0.00 2164.50 687.00" xmlns="http://www.w3.org/2000/svg" xmlns:xlink="http://www.w3.org/1999/xlink">
<g id="graph0" class="graph" transform="scale(1 1) rotate(0) translate(4 683)">
<title>src/declinfo.l</title>
<!-- Node1 -->
<g id="node1" class="node">
<title>Node1</title>
<g id="a_node1"><a xlink:title=" ">
<polygon fill="#999999" stroke="#666666" points="618.5,-679 546.5,-679 546.5,-660 618.5,-660 618.5,-679"/>
<text text-anchor="middle" x="582.5" y="-667" font-family="Helvetica,sans-Serif" font-size="10.00" fill="#000000">src/declinfo.l</text>
</a>
</g>
</g>
<!-- Node2 -->
<g id="node2" class="node">
<title>Node2</title>
<g id="a_node2"><a xlink:title=" ">
<polygon fill="#e0e0e0" stroke="#999999" points="49,-624 0,-624 0,-605 49,-605 49,-624"/>
<text text-anchor="middle" x="24.5" y="-612" font-family="Helvetica,sans-Serif" font-size="10.00" fill="#000000">stdint.h</text>
</a>
</g>
</g>
<!-- Node1&#45;&gt;Node2 -->
<g id="edge1" class="edge">
<title>Node1&#45;&gt;Node2</title>
<path fill="none" stroke="#63b8ff" d="M546.4,-668.2176C461.6122,-664.7968 243.3348,-653.6107 63.5,-624 62.0388,-623.7594 60.5515,-623.4933 59.0524,-623.2076"/>
<polygon fill="#63b8ff" stroke="#63b8ff" points="59.651,-619.7567 49.1416,-621.0996 58.1946,-626.6035 59.651,-619.7567"/>
</g>
<!-- Node3 -->
<g id="node3" class="node">
<title>Node3</title>
<g id="a_node3"><a xlink:title=" ">
<polygon fill="#e0e0e0" stroke="#999999" points="112.5,-184 66.5,-184 66.5,-165 112.5,-165 112.5,-184"/>
<text text-anchor="middle" x="89.5" y="-172" font-family="Helvetica,sans-Serif" font-size="10.00" fill="#000000">stdio.h</text>
</a>
</g>
</g>
<!-- Node1&#45;&gt;Node3 -->
<g id="edge2" class="edge">
<title>Node1&#45;&gt;Node3</title>
<path fill="none" stroke="#63b8ff" d="M546.1816,-665.4655C430.3897,-652.1188 77.5,-607.5052 77.5,-559.5 77.5,-559.5 77.5,-559.5 77.5,-284.5 77.5,-252.7636 82.4973,-216.1789 86.0422,-194.2198"/>
<polygon fill="#63b8ff" stroke="#63b8ff" points="89.5248,-194.6145 87.7294,-184.173 82.6215,-193.4552 89.5248,-194.6145"/>
</g>
<!-- Node4 -->
<g id="node4" class="node">
<title>Node4</title>
<g id="a_node4"><a xlink:title=" ">
<polygon fill="#e0e0e0" stroke="#999999" points="482.5,-624 430.5,-624 430.5,-605 482.5,-605 482.5,-624"/>
<text text-anchor="middle" x="456.5" y="-612" font-family="Helvetica,sans-Serif" font-size="10.00" fill="#000000">assert.h</text>
</a>
</g>
</g>
<!-- Node1&#45;&gt;Node4 -->
<g id="edge3" class="edge">
<title>Node1&#45;&gt;Node4</title>
<path fill="none" stroke="#63b8ff" d="M560.5525,-659.9197C540.4402,-651.1406 510.4411,-638.0457 487.8143,-628.1689"/>
<polygon fill="#63b8ff" stroke="#63b8ff" points="489.1839,-624.9479 478.6188,-624.155 486.3835,-631.3634 489.1839,-624.9479"/>
</g>
<!-- Node5 -->
<g id="node5" class="node">
<title>Node5</title>
<g id="a_node5"><a xlink:title=" ">
<polygon fill="#e0e0e0" stroke="#999999" points="732,-569 683,-569 683,-550 732,-550 732,-569"/>
<text text-anchor="middle" x="707.5" y="-557" font-family="Helvetica,sans-Serif" font-size="10.00" fill="#000000">ctype.h</text>
</a>
</g>
</g>
<!-- Node1&#45;&gt;Node5 -->
<g id="edge4" class="edge">
<title>Node1&#45;&gt;Node5</title>
<path fill="none" stroke="#63b8ff" d="M608.8805,-659.9411C627.1986,-652.3223 651.307,-640.2366 668.5,-624 682.1271,-611.1309 692.7142,-592.4708 699.3971,-578.5286"/>
<polygon fill="#63b8ff" stroke="#63b8ff" points="702.6125,-579.9129 703.561,-569.3606 696.239,-577.0182 702.6125,-579.9129"/>
</g>
<!-- Node6 -->
<g id="node6" class="node">
<title>Node6</title>
<g id="a_node6"><a xlink:href="../../d2/d4b/declinfo_8h.html" target="_top" xlink:title=" ">
<polygon fill="#ffffff" stroke="#666666" points="352,-294 293,-294 293,-275 352,-275 352,-294"/>
<text text-anchor="middle" x="322.5" y="-282" font-family="Helvetica,sans-Serif" font-size="10.00" fill="#000000">declinfo.h</text>
</a>
</g>
</g>
<!-- Node1&#45;&gt;Node6 -->
<g id="edge5" class="edge">
<title>Node1&#45;&gt;Node6</title>
<path fill="none" stroke="#63b8ff" d="M570.6107,-659.9831C550.1606,-642.4534 510.5,-602.8664 510.5,-559.5 510.5,-559.5 510.5,-559.5 510.5,-394.5 510.5,-326.4682 417.6535,-299.7307 362.4571,-289.8464"/>
<polygon fill="#63b8ff" stroke="#63b8ff" points="362.7308,-286.3434 352.2892,-288.1388 361.5713,-293.2467 362.7308,-286.3434"/>
</g>
<!-- Node17 -->
<g id="node17" class="node">
<title>Node17</title>
<g id="a_node17"><a xlink:href="../../d9/d49/types_8h.html" target="_top" xlink:title="This file contains a number of basic enums and types.">
<polygon fill="#ffffff" stroke="#666666" points="957,-239 908,-239 908,-220 957,-220 957,-239"/>
<text text-anchor="middle" x="932.5" y="-227" font-family="Helvetica,sans-Serif" font-size="10.00" fill="#000000">types.h</text>
</a>
</g>
</g>
<!-- Node1&#45;&gt;Node17 -->
<g id="edge125" class="edge">
<title>Node1&#45;&gt;Node17</title>
<path fill="none" stroke="#63b8ff" d="M592.2945,-659.7673C601.1107,-650.8075 614.2217,-636.9783 624.5,-624 649.1429,-592.8835 646.2979,-577.9311 674.5,-550 763.4844,-461.8707 909.5,-519.7397 909.5,-394.5 909.5,-394.5 909.5,-394.5 909.5,-339.5 909.5,-307.1207 919.1663,-270.4933 925.9658,-248.734"/>
<polygon fill="#63b8ff" stroke="#63b8ff" points="929.3441,-249.6628 929.1063,-239.0707 922.6868,-247.4993 929.3441,-249.6628"/>
</g>
<!-- Node18 -->
<g id="node18" class="node">
<title>Node18</title>
<g id="a_node18"><a xlink:href="../../d8/d3c/util_8h.html" target="_top" xlink:title="A bunch of utility functions.">
<polygon fill="#ffffff" stroke="#666666" points="966.5,-624 928.5,-624 928.5,-605 966.5,-605 966.5,-624"/>
<text text-anchor="middle" x="947.5" y="-612" font-family="Helvetica,sans-Serif" font-size="10.00" fill="#000000">util.h</text>
</a>
</g>
</g>
<!-- Node1&#45;&gt;Node18 -->
<g id="edge21" class="edge">
<title>Node1&#45;&gt;Node18</title>
<path fill="none" stroke="#63b8ff" d="M618.832,-664.0253C691.2548,-653.1123 852.3048,-628.8445 918.3673,-618.8899"/>
<polygon fill="#63b8ff" stroke="#63b8ff" points="919.1188,-622.3162 928.4856,-617.3652 918.0757,-615.3944 919.1188,-622.3162"/>
</g>
<!-- Node52 -->
<g id="node52" class="node">
<title>Node52</title>
<g id="a_node52"><a xlink:href="../../d2/d0d/message_8h.html" target="_top" xlink:title=" ">
<polygon fill="#ffffff" stroke="#666666" points="615,-624 550,-624 550,-605 615,-605 615,-624"/>
<text text-anchor="middle" x="582.5" y="-612" font-family="Helvetica,sans-Serif" font-size="10.00" fill="#000000">message.h</text>
</a>
</g>
</g>
<!-- Node1&#45;&gt;Node52 -->
<g id="edge122" class="edge">
<title>Node1&#45;&gt;Node52</title>
<path fill="none" stroke="#63b8ff" d="M582.5,-659.9197C582.5,-652.9083 582.5,-643.1442 582.5,-634.4652"/>
<polygon fill="#63b8ff" stroke="#63b8ff" points="586.0001,-634.3408 582.5,-624.3408 579.0001,-634.3409 586.0001,-634.3408"/>
</g>
<!-- Node54 -->
<g id="node54" class="node">
<title>Node54</title>
<g id="a_node54"><a xlink:href="../../d6/da5/doxygen__lex_8h.html" target="_top" xlink:title=" ">
<polygon fill="#ffffff" stroke="#666666" points="1064.5,-624 984.5,-624 984.5,-605 1064.5,-605 1064.5,-624"/>
<text text-anchor="middle" x="1024.5" y="-612" font-family="Helvetica,sans-Serif" font-size="10.00" fill="#000000">doxygen_lex.h</text>
</a>
</g>
</g>
<!-- Node1&#45;&gt;Node54 -->
<g id="edge126" class="edge">
<title>Node1&#45;&gt;Node54</title>
<path fill="none" stroke="#63b8ff" d="M618.6559,-666.2442C686.3614,-659.9466 837.0692,-644.9812 974.1666,-624.1047"/>
<polygon fill="#63b8ff" stroke="#63b8ff" points="975.0802,-627.5054 984.4321,-622.5263 974.0164,-620.5867 975.0802,-627.5054"/>
</g>
<!-- Node6&#45;&gt;Node3 -->
<g id="edge6" class="edge">
<title>Node6&#45;&gt;Node3</title>
<path fill="none" stroke="#63b8ff" d="M292.8365,-279.5649C247.779,-271.6663 164.6656,-255.399 139.5,-239 121.7777,-227.4514 107.7207,-207.4356 99.0816,-192.7565"/>
<polygon fill="#63b8ff" stroke="#63b8ff" points="102.1354,-191.0465 94.2026,-184.0235 96.0244,-194.4606 102.1354,-191.0465"/>
</g>
<!-- Node7 -->
<g id="node7" class="node">
<title>Node7</title>
<g id="a_node7"><a xlink:href="../../d7/d5c/qcstring_8h.html" target="_top" xlink:title=" ">
<polygon fill="#ffffff" stroke="#666666" points="879,-129 820,-129 820,-110 879,-110 879,-129"/>
<text text-anchor="middle" x="849.5" y="-117" font-family="Helvetica,sans-Serif" font-size="10.00" fill="#000000">qcstring.h</text>
</a>
</g>
</g>
<!-- Node6&#45;&gt;Node7 -->
<g id="edge7" class="edge">
<title>Node6&#45;&gt;Node7</title>
<path fill="none" stroke="#63b8ff" d="M292.989,-276.4246C234.2488,-259.0248 112.2566,-215.4613 159.5,-165 181.8378,-141.1407 665.6063,-124.9453 809.4853,-120.6432"/>
<polygon fill="#63b8ff" stroke="#63b8ff" points="809.7439,-124.1372 819.6359,-120.3427 809.5366,-117.1403 809.7439,-124.1372"/>
</g>
<!-- Node6&#45;&gt;Node17 -->
<g id="edge19" class="edge">
<title>Node6&#45;&gt;Node17</title>
<path fill="none" stroke="#63b8ff" d="M352.1278,-284.1766C436.2409,-282.834 683.6843,-275.9432 897.586,-238.8056"/>
<polygon fill="#63b8ff" stroke="#63b8ff" points="898.5053,-242.1975 907.7456,-237.0141 897.2897,-235.3039 898.5053,-242.1975"/>
</g>
<!-- Node8 -->
<g id="node8" class="node">
<title>Node8</title>
<g id="a_node8"><a xlink:title=" ">
<polygon fill="#e0e0e0" stroke="#999999" points="1117,-19 1076,-19 1076,0 1117,0 1117,-19"/>
<text text-anchor="middle" x="1096.5" y="-7" font-family="Helvetica,sans-Serif" font-size="10.00" fill="#000000">string</text>
</a>
</g>
</g>
<!-- Node7&#45;&gt;Node8 -->
<g id="edge8" class="edge">
<title>Node7&#45;&gt;Node8</title>
<path fill="none" stroke="#63b8ff" d="M879.3329,-117.3291C934.3569,-112.7322 1048.8274,-100.2148 1077.5,-74 1089.7367,-62.8122 1094.2438,-44.1846 1095.8316,-29.8163"/>
<polygon fill="#63b8ff" stroke="#63b8ff" points="1099.3519,-29.6532 1096.5709,-19.4299 1092.3696,-29.1561 1099.3519,-29.6532"/>
</g>
<!-- Node9 -->
<g id="node9" class="node">
<title>Node9</title>
<g id="a_node9"><a xlink:title=" ">
<polygon fill="#e0e0e0" stroke="#999999" points="1813.5,-74 1757.5,-74 1757.5,-55 1813.5,-55 1813.5,-74"/>
<text text-anchor="middle" x="1785.5" y="-62" font-family="Helvetica,sans-Serif" font-size="10.00" fill="#000000">algorithm</text>
</a>
</g>
</g>
<!-- Node7&#45;&gt;Node9 -->
<g id="edge9" class="edge">
<title>Node7&#45;&gt;Node9</title>
<path fill="none" stroke="#63b8ff" d="M879.0585,-117.7631C1016.3752,-109.6943 1591.8699,-75.8778 1746.8943,-66.7685"/>
<polygon fill="#63b8ff" stroke="#63b8ff" points="1747.5402,-70.2367 1757.3177,-66.156 1747.1295,-63.2487 1747.5402,-70.2367"/>
</g>
<!-- Node10 -->
<g id="node10" class="node">
<title>Node10</title>
<g id="a_node10"><a xlink:title=" ">
<polygon fill="#e0e0e0" stroke="#999999" points="1335.5,-74 1289.5,-74 1289.5,-55 1335.5,-55 1335.5,-74"/>
<text text-anchor="middle" x="1312.5" y="-62" font-family="Helvetica,sans-Serif" font-size="10.00" fill="#000000">cctype</text>
</a>
</g>
</g>
<!-- Node7&#45;&gt;Node10 -->
<g id="edge10" class="edge">
<title>Node7&#45;&gt;Node10</title>
<path fill="none" stroke="#63b8ff" d="M879.1671,-115.9758C961.5536,-106.1891 1192.7576,-78.7243 1279.2706,-68.4473"/>
<polygon fill="#63b8ff" stroke="#63b8ff" points="1279.8021,-71.9089 1289.3193,-67.2536 1278.9763,-64.9578 1279.8021,-71.9089"/>
</g>
<!-- Node11 -->
<g id="node11" class="node">
<title>Node11</title>
<g id="a_node11"><a xlink:title=" ">
<polygon fill="#e0e0e0" stroke="#999999" points="1004.5,-74 958.5,-74 958.5,-55 1004.5,-55 1004.5,-74"/>
<text text-anchor="middle" x="981.5" y="-62" font-family="Helvetica,sans-Serif" font-size="10.00" fill="#000000">cstring</text>
</a>
</g>
</g>
<!-- Node7&#45;&gt;Node11 -->
<g id="edge11" class="edge">
<title>Node7&#45;&gt;Node11</title>
<path fill="none" stroke="#63b8ff" d="M872.4926,-109.9197C893.6567,-101.1014 925.2711,-87.9287 949.0116,-78.0369"/>
<polygon fill="#63b8ff" stroke="#63b8ff" points="950.4433,-81.232 958.3279,-74.155 947.751,-74.7705 950.4433,-81.232"/>
</g>
<!-- Node12 -->
<g id="node12" class="node">
<title>Node12</title>
<g id="a_node12"><a xlink:title=" ">
<polygon fill="#e0e0e0" stroke="#999999" points="547,-74 504,-74 504,-55 547,-55 547,-74"/>
<text text-anchor="middle" x="525.5" y="-62" font-family="Helvetica,sans-Serif" font-size="10.00" fill="#000000">cstdio</text>
</a>
</g>
</g>
<!-- Node7&#45;&gt;Node12 -->
<g id="edge12" class="edge">
<title>Node7&#45;&gt;Node12</title>
<path fill="none" stroke="#63b8ff" d="M819.8882,-114.4733C758.8989,-104.1202 619.7502,-80.4993 557.1015,-69.8645"/>
<polygon fill="#63b8ff" stroke="#63b8ff" points="557.4714,-66.3773 547.0267,-68.1542 556.2998,-73.2785 557.4714,-66.3773"/>
</g>
<!-- Node13 -->
<g id="node13" class="node">
<title>Node13</title>
<g id="a_node13"><a xlink:title=" ">
<polygon fill="#e0e0e0" stroke="#999999" points="1068,-74 1023,-74 1023,-55 1068,-55 1068,-74"/>
<text text-anchor="middle" x="1045.5" y="-62" font-family="Helvetica,sans-Serif" font-size="10.00" fill="#000000">cstdlib</text>
</a>
</g>
</g>
<!-- Node7&#45;&gt;Node13 -->
<g id="edge13" class="edge">
<title>Node7&#45;&gt;Node13</title>
<path fill="none" stroke="#63b8ff" d="M879.1721,-111.44C910.1295,-102.9931 960.3177,-89.1936 1012.9393,-74.1245"/>
<polygon fill="#63b8ff" stroke="#63b8ff" points="1014.143,-77.4204 1022.7891,-71.297 1012.2115,-70.6921 1014.143,-77.4204"/>
</g>
<!-- Node14 -->
<g id="node14" class="node">
<title>Node14</title>
<g id="a_node14"><a xlink:title=" ">
<polygon fill="#e0e0e0" stroke="#999999" points="823.5,-19 777.5,-19 777.5,0 823.5,0 823.5,-19"/>
<text text-anchor="middle" x="800.5" y="-7" font-family="Helvetica,sans-Serif" font-size="10.00" fill="#000000">cstdint</text>
</a>
</g>
</g>
<!-- Node7&#45;&gt;Node14 -->
<g id="edge14" class="edge">
<title>Node7&#45;&gt;Node14</title>
<path fill="none" stroke="#63b8ff" d="M842.2466,-109.8196C835.829,-100.8949 826.5668,-87.088 820.5,-74 813.7975,-59.5407 808.5738,-42.2505 805.1483,-29.2128"/>
<polygon fill="#63b8ff" stroke="#63b8ff" points="808.5205,-28.2703 802.7008,-19.4169 801.7292,-29.9671 808.5205,-28.2703"/>
</g>
<!-- Node15 -->
<g id="node15" class="node">
<title>Node15</title>
<g id="a_node15"><a xlink:title=" ">
<polygon fill="#e0e0e0" stroke="#999999" points="940.5,-74 888.5,-74 888.5,-55 940.5,-55 940.5,-74"/>
<text text-anchor="middle" x="914.5" y="-62" font-family="Helvetica,sans-Serif" font-size="10.00" fill="#000000">ostream</text>
</a>
</g>
</g>
<!-- Node7&#45;&gt;Node15 -->
<g id="edge15" class="edge">
<title>Node7&#45;&gt;Node15</title>
<path fill="none" stroke="#63b8ff" d="M860.8221,-109.9197C870.2132,-101.9735 883.7827,-90.4916 894.9285,-81.0605"/>
<polygon fill="#63b8ff" stroke="#63b8ff" points="897.4969,-83.4721 902.8699,-74.3408 892.9752,-78.1284 897.4969,-83.4721"/>
</g>
<!-- Node16 -->
<g id="node16" class="node">
<title>Node16</title>
<g id="a_node16"><a xlink:href="../../db/d7c/utf8_8h.html" target="_top" xlink:title="Various UTF8 related helper functions.">
<polygon fill="#ffffff" stroke="#666666" points="870,-74 829,-74 829,-55 870,-55 870,-74"/>
<text text-anchor="middle" x="849.5" y="-62" font-family="Helvetica,sans-Serif" font-size="10.00" fill="#000000">utf8.h</text>
</a>
</g>
</g>
<!-- Node7&#45;&gt;Node16 -->
<g id="edge16" class="edge">
<title>Node7&#45;&gt;Node16</title>
<path fill="none" stroke="#63b8ff" d="M849.5,-109.9197C849.5,-102.9083 849.5,-93.1442 849.5,-84.4652"/>
<polygon fill="#63b8ff" stroke="#63b8ff" points="853.0001,-84.3408 849.5,-74.3408 846.0001,-84.3409 853.0001,-84.3408"/>
</g>
<!-- Node16&#45;&gt;Node8 -->
<g id="edge18" class="edge">
<title>Node16&#45;&gt;Node8</title>
<path fill="none" stroke="#63b8ff" d="M870.0778,-57.6856C873.2191,-56.732 876.4351,-55.8044 879.5,-55 945.4002,-37.7032 1023.908,-22.5737 1066.0864,-14.8831"/>
<polygon fill="#63b8ff" stroke="#63b8ff" points="1066.7794,-18.3147 1075.9972,-13.0914 1065.534,-11.4263 1066.7794,-18.3147"/>
</g>
<!-- Node16&#45;&gt;Node14 -->
<g id="edge17" class="edge">
<title>Node16&#45;&gt;Node14</title>
<path fill="none" stroke="#63b8ff" d="M840.9649,-54.9197C834.0937,-47.2072 824.2551,-36.1639 815.9999,-26.8978"/>
<polygon fill="#63b8ff" stroke="#63b8ff" points="818.5327,-24.4792 809.2673,-19.3408 813.3061,-29.1357 818.5327,-24.4792"/>
</g>
<!-- Node17&#45;&gt;Node7 -->
<g id="edge20" class="edge">
<title>Node17&#45;&gt;Node7</title>
<path fill="none" stroke="#63b8ff" d="M908.7568,-219.9571C893.202,-212.4754 873.7389,-200.5463 862.5,-184 853.5744,-170.8594 850.5098,-152.9624 849.5724,-139.354"/>
<polygon fill="#63b8ff" stroke="#63b8ff" points="853.0619,-138.9974 849.2033,-129.1302 846.0664,-139.25 853.0619,-138.9974"/>
</g>
<!-- Node18&#45;&gt;Node5 -->
<g id="edge28" class="edge">
<title>Node18&#45;&gt;Node5</title>
<path fill="none" stroke="#63b8ff" d="M928.3533,-610.275C892.5849,-602.3578 813.1999,-584.672 746.5,-569 745.0584,-568.6613 743.5874,-568.3133 742.1018,-567.96"/>
<polygon fill="#63b8ff" stroke="#63b8ff" points="742.7839,-564.5244 732.243,-565.5915 741.1487,-571.3307 742.7839,-564.5244"/>
</g>
<!-- Node18&#45;&gt;Node9 -->
<g id="edge24" class="edge">
<title>Node18&#45;&gt;Node9</title>
<path fill="none" stroke="#63b8ff" d="M966.5823,-607.1961C969.5313,-606.3101 972.5706,-605.5317 975.5,-605 1098.5536,-582.666 1987.557,-622.7111 2100.5,-569 2134.7842,-552.6958 2156.5,-542.4636 2156.5,-504.5 2156.5,-504.5 2156.5,-504.5 2156.5,-174.5 2156.5,-172.3453 1917.9678,-102.9222 1823.4317,-75.4927"/>
<polygon fill="#63b8ff" stroke="#63b8ff" points="1824.269,-72.0914 1813.6898,-72.6669 1822.3189,-78.8143 1824.269,-72.0914"/>
</g>
<!-- Node18&#45;&gt;Node17 -->
<g id="edge29" class="edge">
<title>Node18&#45;&gt;Node17</title>
<path fill="none" stroke="#63b8ff" d="M947.5,-604.7884C947.5,-585.6162 947.5,-541.5486 947.5,-504.5 947.5,-504.5 947.5,-504.5 947.5,-339.5 947.5,-307.6588 941.2533,-271.1046 936.8223,-249.1803"/>
<polygon fill="#63b8ff" stroke="#63b8ff" points="940.1963,-248.217 934.7133,-239.1513 933.3462,-249.6576 940.1963,-248.217"/>
</g>
<!-- Node19 -->
<g id="node19" class="node">
<title>Node19</title>
<g id="a_node19"><a xlink:title=" ">
<polygon fill="#e0e0e0" stroke="#999999" points="1092.5,-129 1040.5,-129 1040.5,-110 1092.5,-110 1092.5,-129"/>
<text text-anchor="middle" x="1066.5" y="-117" font-family="Helvetica,sans-Serif" font-size="10.00" fill="#000000">memory</text>
</a>
</g>
</g>
<!-- Node18&#45;&gt;Node19 -->
<g id="edge22" class="edge">
<title>Node18&#45;&gt;Node19</title>
<path fill="none" stroke="#63b8ff" d="M956.658,-604.7721C972.7706,-586.5941 1004.5,-545.5819 1004.5,-504.5 1004.5,-504.5 1004.5,-504.5 1004.5,-394.5 1004.5,-296.3868 1042.5201,-183.2986 1059.0141,-138.8547"/>
<polygon fill="#63b8ff" stroke="#63b8ff" points="1062.3607,-139.8996 1062.6216,-129.308 1055.8127,-137.4252 1062.3607,-139.8996"/>
</g>
<!-- Node20 -->
<g id="node20" class="node">
<title>Node20</title>
<g id="a_node20"><a xlink:title=" ">
<polygon fill="#e0e0e0" stroke="#999999" points="1683,-129 1600,-129 1600,-110 1683,-110 1683,-129"/>
<text text-anchor="middle" x="1641.5" y="-117" font-family="Helvetica,sans-Serif" font-size="10.00" fill="#000000">unordered_map</text>
</a>
</g>
</g>
<!-- Node18&#45;&gt;Node20 -->
<g id="edge23" class="edge">
<title>Node18&#45;&gt;Node20</title>
<path fill="none" stroke="#63b8ff" d="M966.5826,-607.1983C969.5316,-606.3119 972.5708,-605.5329 975.5,-605 1095.4852,-583.1724 1965.013,-626.6146 2072.5,-569 2103.5331,-552.3658 2118.5,-539.7101 2118.5,-504.5 2118.5,-504.5 2118.5,-504.5 2118.5,-229.5 2118.5,-143.1016 1817.6045,-124.5554 1693.7766,-120.5812"/>
<polygon fill="#63b8ff" stroke="#63b8ff" points="1693.5132,-117.0718 1683.4125,-120.2695 1693.3027,-124.0686 1693.5132,-117.0718"/>
</g>
<!-- Node21 -->
<g id="node21" class="node">
<title>Node21</title>
<g id="a_node21"><a xlink:title=" ">
<polygon fill="#e0e0e0" stroke="#999999" points="2063,-569 2004,-569 2004,-550 2063,-550 2063,-569"/>
<text text-anchor="middle" x="2033.5" y="-557" font-family="Helvetica,sans-Serif" font-size="10.00" fill="#000000">functional</text>
</a>
</g>
</g>
<!-- Node18&#45;&gt;Node21 -->
<g id="edge25" class="edge">
<title>Node18&#45;&gt;Node21</title>
<path fill="none" stroke="#63b8ff" d="M966.5839,-607.2053C969.5327,-606.318 972.5715,-605.5368 975.5,-605 1419.0601,-523.6929 1542.0156,-624.8044 1989.5,-569 1990.954,-568.8187 1992.4311,-568.6129 1993.92,-568.3874"/>
<polygon fill="#63b8ff" stroke="#63b8ff" points="1994.5532,-571.8298 2003.8004,-566.6587 1993.3467,-564.9346 1994.5532,-571.8298"/>
</g>
<!-- Node22 -->
<g id="node22" class="node">
<title>Node22</title>
<g id="a_node22"><a xlink:title=" ">
<polygon fill="#e0e0e0" stroke="#999999" points="630.5,-184 580.5,-184 580.5,-165 630.5,-165 630.5,-184"/>
<text text-anchor="middle" x="605.5" y="-172" font-family="Helvetica,sans-Serif" font-size="10.00" fill="#000000">fstream</text>
</a>
</g>
</g>
<!-- Node18&#45;&gt;Node22 -->
<g id="edge26" class="edge">
<title>Node18&#45;&gt;Node22</title>
<path fill="none" stroke="#63b8ff" d="M928.2592,-611.3863C889.3035,-604.7496 802.8969,-588.2367 780.5,-569 658.7844,-464.4585 618.2461,-258.7731 608.2436,-194.3065"/>
<polygon fill="#63b8ff" stroke="#63b8ff" points="611.6855,-193.6551 606.7612,-184.2742 604.7607,-194.6784 611.6855,-193.6551"/>
</g>
<!-- Node23 -->
<g id="node23" class="node">
<title>Node23</title>
<g id="a_node23"><a xlink:title=" ">
<polygon fill="#e0e0e0" stroke="#999999" points="830,-569 789,-569 789,-550 830,-550 830,-569"/>
<text text-anchor="middle" x="809.5" y="-557" font-family="Helvetica,sans-Serif" font-size="10.00" fill="#000000">ctime</text>
</a>
</g>
</g>
<!-- Node18&#45;&gt;Node23 -->
<g id="edge27" class="edge">
<title>Node18&#45;&gt;Node23</title>
<path fill="none" stroke="#63b8ff" d="M928.3117,-606.8525C905.3578,-597.7042 866.6561,-582.2796 839.6837,-571.5297"/>
<polygon fill="#63b8ff" stroke="#63b8ff" points="840.9134,-568.2521 830.3281,-567.8011 838.3217,-574.7547 840.9134,-568.2521"/>
</g>
<!-- Node24 -->
<g id="node24" class="node">
<title>Node24</title>
<g id="a_node24"><a xlink:href="../../de/d9c/docparser_8h.html" target="_top" xlink:title=" ">
<polygon fill="#ffffff" stroke="#666666" points="815.5,-239 747.5,-239 747.5,-220 815.5,-220 815.5,-239"/>
<text text-anchor="middle" x="781.5" y="-227" font-family="Helvetica,sans-Serif" font-size="10.00" fill="#000000">docparser.h</text>
</a>
</g>
</g>
<!-- Node18&#45;&gt;Node24 -->
<g id="edge30" class="edge">
<title>Node18&#45;&gt;Node24</title>
<path fill="none" stroke="#63b8ff" d="M941.5364,-604.8291C923.6201,-574.8223 871.5,-480.1676 871.5,-394.5 871.5,-394.5 871.5,-394.5 871.5,-339.5 871.5,-298.0445 832.7366,-263.6244 806.0892,-244.8604"/>
<polygon fill="#63b8ff" stroke="#63b8ff" points="807.8338,-241.815 797.5902,-239.1096 803.9109,-247.6125 807.8338,-241.815"/>
</g>
<!-- Node28 -->
<g id="node28" class="node">
<title>Node28</title>
<g id="a_node28"><a xlink:href="../../d5/d75/containers_8h.html" target="_top" xlink:title=" ">
<polygon fill="#ffffff" stroke="#666666" points="1885.5,-294 1815.5,-294 1815.5,-275 1885.5,-275 1885.5,-294"/>
<text text-anchor="middle" x="1850.5" y="-282" font-family="Helvetica,sans-Serif" font-size="10.00" fill="#000000">containers.h</text>
</a>
</g>
</g>
<!-- Node18&#45;&gt;Node28 -->
<g id="edge38" class="edge">
<title>Node18&#45;&gt;Node28</title>
<path fill="none" stroke="#63b8ff" d="M966.6178,-607.3748C969.5619,-606.4641 972.5904,-605.6312 975.5,-605 1084.6323,-581.3247 1975.5,-616.1708 1975.5,-504.5 1975.5,-504.5 1975.5,-504.5 1975.5,-449.5 1975.5,-382.9082 1910.0113,-326.2717 1873.8374,-300.067"/>
<polygon fill="#63b8ff" stroke="#63b8ff" points="1875.5207,-296.9715 1865.33,-294.0729 1871.4889,-302.6938 1875.5207,-296.9715"/>
</g>
<!-- Node33 -->
<g id="node33" class="node">
<title>Node33</title>
<g id="a_node33"><a xlink:href="../../df/d06/outputgen_8h.html" target="_top" xlink:title=" ">
<polygon fill="#ffffff" stroke="#666666" points="784.5,-294 716.5,-294 716.5,-275 784.5,-275 784.5,-294"/>
<text text-anchor="middle" x="750.5" y="-282" font-family="Helvetica,sans-Serif" font-size="10.00" fill="#000000">outputgen.h</text>
</a>
</g>
</g>
<!-- Node18&#45;&gt;Node33 -->
<g id="edge46" class="edge">
<title>Node18&#45;&gt;Node33</title>
<path fill="none" stroke="#63b8ff" d="M928.67,-604.8917C914.4747,-596.8755 895.325,-584.3119 882.5,-569 810.9788,-483.6101 769.4739,-353.0244 755.683,-303.9978"/>
<polygon fill="#63b8ff" stroke="#63b8ff" points="758.9846,-302.8032 752.9636,-294.0856 752.2341,-304.6552 758.9846,-302.8032"/>
</g>
<!-- Node41 -->
<g id="node41" class="node">
<title>Node41</title>
<g id="a_node41"><a xlink:href="../../d1/d21/regex_8h.html" target="_top" xlink:title=" ">
<polygon fill="#ffffff" stroke="#666666" points="1311,-184 1262,-184 1262,-165 1311,-165 1311,-184"/>
<text text-anchor="middle" x="1286.5" y="-172" font-family="Helvetica,sans-Serif" font-size="10.00" fill="#000000">regex.h</text>
</a>
</g>
</g>
<!-- Node18&#45;&gt;Node41 -->
<g id="edge76" class="edge">
<title>Node18&#45;&gt;Node41</title>
<path fill="none" stroke="#63b8ff" d="M966.675,-606.9531C1011.7177,-588.6263 1120.5,-540.6259 1120.5,-504.5 1120.5,-504.5 1120.5,-504.5 1120.5,-394.5 1120.5,-300.9732 1217.2794,-222.0093 1263.0464,-189.8962"/>
<polygon fill="#63b8ff" stroke="#63b8ff" points="1265.2135,-192.6539 1271.4758,-184.1079 1261.251,-186.8834 1265.2135,-192.6539"/>
</g>
<!-- Node42 -->
<g id="node42" class="node">
<title>Node42</title>
<g id="a_node42"><a xlink:href="../../da/df1/conceptdef_8h.html" target="_top" xlink:title=" ">
<polygon fill="#ffffff" stroke="#666666" points="1222,-569 1149,-569 1149,-550 1222,-550 1222,-569"/>
<text text-anchor="middle" x="1185.5" y="-557" font-family="Helvetica,sans-Serif" font-size="10.00" fill="#000000">conceptdef.h</text>
</a>
</g>
</g>
<!-- Node18&#45;&gt;Node42 -->
<g id="edge81" class="edge">
<title>Node18&#45;&gt;Node42</title>
<path fill="none" stroke="#63b8ff" d="M966.6903,-607.6683C969.6244,-606.7171 972.6307,-605.7948 975.5,-605 1005.6647,-596.6441 1086.5201,-579.6916 1138.647,-569.0035"/>
<polygon fill="#63b8ff" stroke="#63b8ff" points="1139.5703,-572.3872 1148.6659,-566.9538 1138.1672,-565.5292 1139.5703,-572.3872"/>
</g>
<!-- Node24&#45;&gt;Node3 -->
<g id="edge31" class="edge">
<title>Node24&#45;&gt;Node3</title>
<path fill="none" stroke="#63b8ff" d="M747.3849,-227.7479C653.465,-222.7637 383.2262,-207.3417 159.5,-184 147.546,-182.7528 134.4861,-181.0683 122.9188,-179.4641"/>
<polygon fill="#63b8ff" stroke="#63b8ff" points="123.1822,-175.9665 112.7899,-178.0283 122.1997,-182.8973 123.1822,-175.9665"/>
</g>
<!-- Node24&#45;&gt;Node7 -->
<g id="edge33" class="edge">
<title>Node24&#45;&gt;Node7</title>
<path fill="none" stroke="#63b8ff" d="M786.7873,-219.7463C793.7699,-206.9937 806.5787,-184.0382 818.5,-165 824.3116,-155.719 831.1299,-145.6326 836.89,-137.3203"/>
<polygon fill="#63b8ff" stroke="#63b8ff" points="839.763,-139.3193 842.6274,-129.119 834.0272,-135.3067 839.763,-139.3193"/>
</g>
<!-- Node24&#45;&gt;Node19 -->
<g id="edge32" class="edge">
<title>Node24&#45;&gt;Node19</title>
<path fill="none" stroke="#63b8ff" d="M815.5197,-220.4021C845.6062,-212.0188 890.4969,-198.683 928.5,-184 967.7794,-168.8239 1011.5832,-147.5739 1039.0878,-133.6767"/>
<polygon fill="#63b8ff" stroke="#63b8ff" points="1040.7772,-136.7441 1048.1026,-129.0897 1037.6027,-130.5053 1040.7772,-136.7441"/>
</g>
<!-- Node25 -->
<g id="node25" class="node">
<title>Node25</title>
<g id="a_node25"><a xlink:href="../../d7/d50/growvector_8h.html" target="_top" xlink:title=" ">
<polygon fill="#ffffff" stroke="#666666" points="1244,-184 1171,-184 1171,-165 1244,-165 1244,-184"/>
<text text-anchor="middle" x="1207.5" y="-172" font-family="Helvetica,sans-Serif" font-size="10.00" fill="#000000">growvector.h</text>
</a>
</g>
</g>
<!-- Node24&#45;&gt;Node25 -->
<g id="edge34" class="edge">
<title>Node24&#45;&gt;Node25</title>
<path fill="none" stroke="#63b8ff" d="M815.7075,-221.6216C818.6741,-221.0359 821.6356,-220.4853 824.5,-220 945.0014,-199.5828 1088.3677,-185.1502 1160.7382,-178.5473"/>
<polygon fill="#63b8ff" stroke="#63b8ff" points="1161.2451,-182.0158 1170.8895,-177.6301 1160.6151,-175.0442 1161.2451,-182.0158"/>
</g>
<!-- Node25&#45;&gt;Node19 -->
<g id="edge36" class="edge">
<title>Node25&#45;&gt;Node19</title>
<path fill="none" stroke="#63b8ff" d="M1182.9397,-164.9197C1160.2321,-156.0622 1126.2623,-142.8115 1100.8659,-132.9052"/>
<polygon fill="#63b8ff" stroke="#63b8ff" points="1101.8402,-129.5284 1091.252,-129.155 1099.2964,-136.0498 1101.8402,-129.5284"/>
</g>
<!-- Node26 -->
<g id="node26" class="node">
<title>Node26</title>
<g id="a_node26"><a xlink:title=" ">
<polygon fill="#e0e0e0" stroke="#999999" points="1581.5,-129 1537.5,-129 1537.5,-110 1581.5,-110 1581.5,-129"/>
<text text-anchor="middle" x="1559.5" y="-117" font-family="Helvetica,sans-Serif" font-size="10.00" fill="#000000">vector</text>
</a>
</g>
</g>
<!-- Node25&#45;&gt;Node26 -->
<g id="edge35" class="edge">
<title>Node25&#45;&gt;Node26</title>
<path fill="none" stroke="#63b8ff" d="M1244.1227,-166.7437C1247.2901,-166.1315 1250.4489,-165.5415 1253.5,-165 1352.8618,-147.3669 1471.2067,-131.1074 1527.1454,-123.7038"/>
<polygon fill="#63b8ff" stroke="#63b8ff" points="1527.7042,-127.1606 1537.1615,-122.3847 1526.7901,-120.2205 1527.7042,-127.1606"/>
</g>
<!-- Node27 -->
<g id="node27" class="node">
<title>Node27</title>
<g id="a_node27"><a xlink:title=" ">
<polygon fill="#e0e0e0" stroke="#999999" points="1232,-129 1185,-129 1185,-110 1232,-110 1232,-129"/>
<text text-anchor="middle" x="1208.5" y="-117" font-family="Helvetica,sans-Serif" font-size="10.00" fill="#000000">iterator</text>
</a>
</g>
</g>
<!-- Node25&#45;&gt;Node27 -->
<g id="edge37" class="edge">
<title>Node25&#45;&gt;Node27</title>
<path fill="none" stroke="#63b8ff" d="M1207.6742,-164.9197C1207.8017,-157.9083 1207.9792,-148.1442 1208.137,-139.4652"/>
<polygon fill="#63b8ff" stroke="#63b8ff" points="1211.6386,-139.4028 1208.3211,-129.3408 1204.6398,-139.2755 1211.6386,-139.4028"/>
</g>
<!-- Node28&#45;&gt;Node8 -->
<g id="edge40" class="edge">
<title>Node28&#45;&gt;Node8</title>
<path fill="none" stroke="#63b8ff" d="M1882.3712,-274.98C1917.5317,-264.1597 1969.9201,-246.9692 1975.5,-239 1980.3434,-232.0827 1978.5839,-227.8612 1975.5,-220 1938.9775,-126.8985 1912.8613,-97.8557 1822.5,-55 1759.0298,-24.8979 1257.486,-12.7511 1127.2906,-10.0873"/>
<polygon fill="#63b8ff" stroke="#63b8ff" points="1127.277,-6.5864 1117.2087,-9.8849 1127.1364,-13.585 1127.277,-6.5864"/>
</g>
<!-- Node28&#45;&gt;Node20 -->
<g id="edge44" class="edge">
<title>Node28&#45;&gt;Node20</title>
<path fill="none" stroke="#63b8ff" d="M1852.6462,-274.9923C1857.0755,-252.6785 1864.6098,-196.4678 1836.5,-165 1817.7584,-144.0195 1744.7715,-131.3811 1693.6209,-124.9227"/>
<polygon fill="#63b8ff" stroke="#63b8ff" points="1693.7349,-121.4107 1683.3849,-123.6751 1692.8879,-128.3593 1693.7349,-121.4107"/>
</g>
<!-- Node28&#45;&gt;Node26 -->
<g id="edge39" class="edge">
<title>Node28&#45;&gt;Node26</title>
<path fill="none" stroke="#63b8ff" d="M1845.1359,-274.6662C1831.7124,-251.1265 1794.1536,-191.5298 1744.5,-165 1682.8862,-132.0799 1659.012,-146.948 1591.5,-129 1591.402,-128.9739 1591.3038,-128.9478 1591.2055,-128.9216"/>
<polygon fill="#63b8ff" stroke="#63b8ff" points="1592.4059,-125.6228 1581.8333,-126.3084 1590.5258,-132.3656 1592.4059,-125.6228"/>
</g>
<!-- Node29 -->
<g id="node29" class="node">
<title>Node29</title>
<g id="a_node29"><a xlink:title=" ">
<polygon fill="#e0e0e0" stroke="#999999" points="2052.5,-239 2022.5,-239 2022.5,-220 2052.5,-220 2052.5,-239"/>
<text text-anchor="middle" x="2037.5" y="-227" font-family="Helvetica,sans-Serif" font-size="10.00" fill="#000000">set</text>
</a>
</g>
</g>
<!-- Node28&#45;&gt;Node29 -->
<g id="edge41" class="edge">
<title>Node28&#45;&gt;Node29</title>
<path fill="none" stroke="#63b8ff" d="M1885.1272,-274.9172C1917.2098,-265.9465 1966.2111,-252.011 2008.5,-239 2009.9242,-238.5618 2011.3854,-238.1053 2012.8585,-237.6396"/>
<polygon fill="#63b8ff" stroke="#63b8ff" points="2014.0395,-240.9363 2022.4814,-234.5344 2011.8897,-234.2746 2014.0395,-240.9363"/>
</g>
<!-- Node30 -->
<g id="node30" class="node">
<title>Node30</title>
<g id="a_node30"><a xlink:title=" ">
<polygon fill="#e0e0e0" stroke="#999999" points="1794,-239 1759,-239 1759,-220 1794,-220 1794,-239"/>
<text text-anchor="middle" x="1776.5" y="-227" font-family="Helvetica,sans-Serif" font-size="10.00" fill="#000000">map</text>
</a>
</g>
</g>
<!-- Node28&#45;&gt;Node30 -->
<g id="edge42" class="edge">
<title>Node28&#45;&gt;Node30</title>
<path fill="none" stroke="#63b8ff" d="M1837.6102,-274.9197C1826.7092,-266.8177 1810.8628,-255.0399 1798.0382,-245.5082"/>
<polygon fill="#63b8ff" stroke="#63b8ff" points="1799.8542,-242.497 1789.7404,-239.3408 1795.6785,-248.1152 1799.8542,-242.497"/>
</g>
<!-- Node31 -->
<g id="node31" class="node">
<title>Node31</title>
<g id="a_node31"><a xlink:title=" ">
<polygon fill="#e0e0e0" stroke="#999999" points="1966.5,-239 1888.5,-239 1888.5,-220 1966.5,-220 1966.5,-239"/>
<text text-anchor="middle" x="1927.5" y="-227" font-family="Helvetica,sans-Serif" font-size="10.00" fill="#000000">unordered_set</text>
</a>
</g>
</g>
<!-- Node28&#45;&gt;Node31 -->
<g id="edge43" class="edge">
<title>Node28&#45;&gt;Node31</title>
<path fill="none" stroke="#63b8ff" d="M1863.9124,-274.9197C1875.435,-266.6893 1892.268,-254.6657 1905.7206,-245.0567"/>
<polygon fill="#63b8ff" stroke="#63b8ff" points="1907.88,-247.8155 1913.983,-239.155 1903.8113,-242.1194 1907.88,-247.8155"/>
</g>
<!-- Node32 -->
<g id="node32" class="node">
<title>Node32</title>
<g id="a_node32"><a xlink:title=" ">
<polygon fill="#e0e0e0" stroke="#999999" points="1093,-239 1052,-239 1052,-220 1093,-220 1093,-239"/>
<text text-anchor="middle" x="1072.5" y="-227" font-family="Helvetica,sans-Serif" font-size="10.00" fill="#000000">stack</text>
</a>
</g>
</g>
<!-- Node28&#45;&gt;Node32 -->
<g id="edge45" class="edge">
<title>Node28&#45;&gt;Node32</title>
<path fill="none" stroke="#63b8ff" d="M1815.3048,-282.0119C1684.3626,-272.7551 1226.5793,-240.3925 1103.2847,-231.6763"/>
<polygon fill="#63b8ff" stroke="#63b8ff" points="1103.2754,-228.167 1093.0534,-230.953 1102.7817,-235.1496 1103.2754,-228.167"/>
</g>
<!-- Node33&#45;&gt;Node17 -->
<g id="edge51" class="edge">
<title>Node33&#45;&gt;Node17</title>
<path fill="none" stroke="#63b8ff" d="M782.202,-274.9197C814.598,-265.1297 864.753,-249.973 898.0961,-239.8968"/>
<polygon fill="#63b8ff" stroke="#63b8ff" points="899.306,-243.1876 907.866,-236.9444 897.281,-236.4868 899.306,-243.1876"/>
</g>
<!-- Node33&#45;&gt;Node19 -->
<g id="edge47" class="edge">
<title>Node33&#45;&gt;Node19</title>
<path fill="none" stroke="#63b8ff" d="M744.4796,-274.7253C736.9557,-261.1168 726.4454,-236.3014 738.5,-220 773.7158,-172.378 952.2002,-138.0898 1030.0757,-125.1624"/>
<polygon fill="#63b8ff" stroke="#63b8ff" points="1031.0661,-128.5471 1040.3711,-123.4809 1029.9377,-121.6386 1031.0661,-128.5471"/>
</g>
<!-- Node33&#45;&gt;Node22 -->
<g id="edge50" class="edge">
<title>Node33&#45;&gt;Node22</title>
<path fill="none" stroke="#63b8ff" d="M737.3713,-274.7894C724.991,-265.613 705.9344,-251.4379 689.5,-239 667.7763,-222.5591 643.0594,-203.5422 626.0917,-190.4391"/>
<polygon fill="#63b8ff" stroke="#63b8ff" points="628.0345,-187.5171 617.982,-184.171 623.7538,-193.0557 628.0345,-187.5171"/>
</g>
<!-- Node33&#45;&gt;Node24 -->
<g id="edge75" class="edge">
<title>Node33&#45;&gt;Node24</title>
<path fill="none" stroke="#63b8ff" d="M755.8998,-274.9197C760.0273,-267.5967 765.8473,-257.2709 770.8953,-248.3147"/>
<polygon fill="#63b8ff" stroke="#63b8ff" points="774.0922,-249.7709 775.9534,-239.3408 767.9941,-246.3338 774.0922,-249.7709"/>
</g>
<!-- Node33&#45;&gt;Node32 -->
<g id="edge48" class="edge">
<title>Node33&#45;&gt;Node32</title>
<path fill="none" stroke="#63b8ff" d="M784.6548,-278.6661C847.7153,-267.8949 981.48,-245.0469 1041.8288,-234.7389"/>
<polygon fill="#63b8ff" stroke="#63b8ff" points="1042.6059,-238.1569 1051.8739,-233.0231 1041.4273,-231.2568 1042.6059,-238.1569"/>
</g>
<!-- Node34 -->
<g id="node34" class="node">
<title>Node34</title>
<g id="a_node34"><a xlink:title=" ">
<polygon fill="#e0e0e0" stroke="#999999" points="222.5,-184 168.5,-184 168.5,-165 222.5,-165 222.5,-184"/>
<text text-anchor="middle" x="195.5" y="-172" font-family="Helvetica,sans-Serif" font-size="10.00" fill="#000000">iostream</text>
</a>
</g>
</g>
<!-- Node33&#45;&gt;Node34 -->
<g id="edge49" class="edge">
<title>Node33&#45;&gt;Node34</title>
<path fill="none" stroke="#63b8ff" d="M716.2919,-282.0643C631.1067,-275.7812 411.268,-258.1698 340.5,-239 296.7766,-227.1561 249.4064,-203.9209 221.1084,-188.8116"/>
<polygon fill="#63b8ff" stroke="#63b8ff" points="222.7356,-185.7126 212.2756,-184.0273 219.4016,-191.8676 222.7356,-185.7126"/>
</g>
<!-- Node35 -->
<g id="node35" class="node">
<title>Node35</title>
<g id="a_node35"><a xlink:href="../../d1/db5/index_8h.html" target="_top" xlink:title=" ">
<polygon fill="#ffffff" stroke="#666666" points="696.5,-184 648.5,-184 648.5,-165 696.5,-165 696.5,-184"/>
<text text-anchor="middle" x="672.5" y="-172" font-family="Helvetica,sans-Serif" font-size="10.00" fill="#000000">index.h</text>
</a>
</g>
</g>
<!-- Node33&#45;&gt;Node35 -->
<g id="edge52" class="edge">
<title>Node33&#45;&gt;Node35</title>
<path fill="none" stroke="#63b8ff" d="M739.1555,-274.8473C729.4078,-266.1566 715.3998,-252.6813 705.5,-239 695.2597,-224.8481 686.4183,-207.0691 680.4716,-193.7629"/>
<polygon fill="#63b8ff" stroke="#63b8ff" points="683.5244,-192.0029 676.3517,-184.2053 677.0962,-194.7739 683.5244,-192.0029"/>
</g>
<!-- Node36 -->
<g id="node36" class="node">
<title>Node36</title>
<g id="a_node36"><a xlink:href="../../d1/d2a/section_8h.html" target="_top" xlink:title=" ">
<polygon fill="#ffffff" stroke="#666666" points="889.5,-239 833.5,-239 833.5,-220 889.5,-220 889.5,-239"/>
<text text-anchor="middle" x="861.5" y="-227" font-family="Helvetica,sans-Serif" font-size="10.00" fill="#000000">section.h</text>
</a>
</g>
</g>
<!-- Node33&#45;&gt;Node36 -->
<g id="edge54" class="edge">
<title>Node33&#45;&gt;Node36</title>
<path fill="none" stroke="#63b8ff" d="M769.8347,-274.9197C787.2363,-266.2973 813.0394,-253.512 832.8396,-243.7011"/>
<polygon fill="#63b8ff" stroke="#63b8ff" points="834.608,-246.731 842.0144,-239.155 831.5001,-240.4588 834.608,-246.731"/>
</g>
<!-- Node38 -->
<g id="node38" class="node">
<title>Node38</title>
<g id="a_node38"><a xlink:href="../../d4/d7d/textstream_8h.html" target="_top" xlink:title=" ">
<polygon fill="#ffffff" stroke="#666666" points="421,-239 350,-239 350,-220 421,-220 421,-239"/>
<text text-anchor="middle" x="385.5" y="-227" font-family="Helvetica,sans-Serif" font-size="10.00" fill="#000000">textstream.h</text>
</a>
</g>
</g>
<!-- Node33&#45;&gt;Node38 -->
<g id="edge66" class="edge">
<title>Node33&#45;&gt;Node38</title>
<path fill="none" stroke="#63b8ff" d="M716.4895,-279.3751C650.5697,-269.442 505.3846,-247.5648 431.1539,-236.3794"/>
<polygon fill="#63b8ff" stroke="#63b8ff" points="431.5761,-232.9035 421.1662,-234.8744 430.533,-239.8254 431.5761,-232.9035"/>
</g>
<!-- Node35&#45;&gt;Node7 -->
<g id="edge53" class="edge">
<title>Node35&#45;&gt;Node7</title>
<path fill="none" stroke="#63b8ff" d="M696.74,-166.9678C725.9526,-157.8904 775.4323,-142.5154 810.1436,-131.7294"/>
<polygon fill="#63b8ff" stroke="#63b8ff" points="811.4465,-134.9897 819.9575,-128.6799 809.3693,-128.305 811.4465,-134.9897"/>
</g>
<!-- Node36&#45;&gt;Node7 -->
<g id="edge57" class="edge">
<title>Node36&#45;&gt;Node7</title>
<path fill="none" stroke="#63b8ff" d="M850.3523,-219.9594C841.4369,-211.5387 829.6127,-198.3909 824.5,-184 818.8707,-168.1549 826.8776,-150.3478 835.2884,-137.4649"/>
<polygon fill="#63b8ff" stroke="#63b8ff" points="838.3323,-139.2249 841.2949,-129.0528 832.6354,-135.1572 838.3323,-139.2249"/>
</g>
<!-- Node36&#45;&gt;Node8 -->
<g id="edge55" class="edge">
<title>Node36&#45;&gt;Node8</title>
<path fill="none" stroke="#63b8ff" d="M848.6709,-219.8024C838.6758,-211.4761 825.3788,-198.5407 818.5,-184 793.9793,-132.1672 779.9784,-95.5697 820.5,-55 854.4723,-20.9874 1000.9683,-12.3699 1065.6288,-10.2108"/>
<polygon fill="#63b8ff" stroke="#63b8ff" points="1065.7442,-13.709 1075.6334,-9.907 1065.5317,-6.7122 1065.7442,-13.709"/>
</g>
<!-- Node36&#45;&gt;Node20 -->
<g id="edge56" class="edge">
<title>Node36&#45;&gt;Node20</title>
<path fill="none" stroke="#63b8ff" d="M889.609,-221.893C892.9258,-221.1678 896.2765,-220.5131 899.5,-220 1123.0295,-184.4168 1184.4133,-222.2611 1407.5,-184 1426.3356,-180.7695 1535.9718,-149.731 1598.2686,-131.916"/>
<polygon fill="#63b8ff" stroke="#63b8ff" points="1599.558,-135.1876 1608.2088,-129.0708 1597.6317,-128.4578 1599.558,-135.1876"/>
</g>
<!-- Node37 -->
<g id="node37" class="node">
<title>Node37</title>
<g id="a_node37"><a xlink:href="../../da/de1/linkedmap_8h.html" target="_top" xlink:title=" ">
<polygon fill="#ffffff" stroke="#666666" points="1398,-184 1329,-184 1329,-165 1398,-165 1398,-184"/>
<text text-anchor="middle" x="1363.5" y="-172" font-family="Helvetica,sans-Serif" font-size="10.00" fill="#000000">linkedmap.h</text>
</a>
</g>
</g>
<!-- Node36&#45;&gt;Node37 -->
<g id="edge58" class="edge">
<title>Node36&#45;&gt;Node37</title>
<path fill="none" stroke="#63b8ff" d="M889.6166,-221.9394C892.932,-221.2059 896.2803,-220.5366 899.5,-220 1081.4829,-189.671 1133.0498,-211.5194 1318.7422,-184.09"/>
<polygon fill="#63b8ff" stroke="#63b8ff" points="1319.4726,-187.5195 1328.8401,-182.5697 1318.4304,-180.5975 1319.4726,-187.5195"/>
</g>
<!-- Node37&#45;&gt;Node7 -->
<g id="edge65" class="edge">
<title>Node37&#45;&gt;Node7</title>
<path fill="none" stroke="#63b8ff" d="M1328.8349,-166.4634C1326.0228,-165.9269 1323.2185,-165.43 1320.5,-165 1161.8873,-139.9122 970.8874,-126.6087 889.4372,-121.7204"/>
<polygon fill="#63b8ff" stroke="#63b8ff" points="889.3306,-118.2081 879.1417,-121.1126 888.918,-125.1959 889.3306,-118.2081"/>
</g>
<!-- Node37&#45;&gt;Node8 -->
<g id="edge62" class="edge">
<title>Node37&#45;&gt;Node8</title>
<path fill="none" stroke="#63b8ff" d="M1365.2778,-164.8444C1368.837,-142.2113 1374.1469,-85.3602 1344.5,-55 1314.7733,-24.5581 1187.1843,-14.1122 1127.5036,-10.8478"/>
<polygon fill="#63b8ff" stroke="#63b8ff" points="1127.3553,-7.3356 1117.1891,-10.3186 1126.9966,-14.3264 1127.3553,-7.3356"/>
</g>
<!-- Node37&#45;&gt;Node9 -->
<g id="edge63" class="edge">
<title>Node37&#45;&gt;Node9</title>
<path fill="none" stroke="#63b8ff" d="M1384.1434,-164.8975C1414.948,-150.9237 1475.0541,-125.0183 1528.5,-110 1604.6569,-88.5999 1696.4649,-75.2271 1747.1588,-68.8856"/>
<polygon fill="#63b8ff" stroke="#63b8ff" points="1747.832,-72.3294 1757.3319,-67.6388 1746.9803,-65.3814 1747.832,-72.3294"/>
</g>
<!-- Node37&#45;&gt;Node10 -->
<g id="edge64" class="edge">
<title>Node37&#45;&gt;Node10</title>
<path fill="none" stroke="#63b8ff" d="M1358.9741,-164.7382C1350.5223,-146.5089 1332.2074,-107.0062 1321.2621,-83.3986"/>
<polygon fill="#63b8ff" stroke="#63b8ff" points="1324.3246,-81.683 1316.9429,-74.0828 1317.9739,-84.6274 1324.3246,-81.683"/>
</g>
<!-- Node37&#45;&gt;Node19 -->
<g id="edge61" class="edge">
<title>Node37&#45;&gt;Node19</title>
<path fill="none" stroke="#63b8ff" d="M1328.7915,-166.7064C1325.9891,-166.1154 1323.1989,-165.5396 1320.5,-165 1243.1487,-149.5338 1152.0399,-133.8178 1102.6926,-125.5126"/>
<polygon fill="#63b8ff" stroke="#63b8ff" points="1102.9677,-122.0099 1092.5264,-123.8071 1101.8095,-128.9134 1102.9677,-122.0099"/>
</g>
<!-- Node37&#45;&gt;Node20 -->
<g id="edge59" class="edge">
<title>Node37&#45;&gt;Node20</title>
<path fill="none" stroke="#63b8ff" d="M1398.1468,-167.6454C1446.2422,-158.1301 1533.6179,-140.8436 1589.5403,-129.7798"/>
<polygon fill="#63b8ff" stroke="#63b8ff" points="1590.4691,-133.164 1599.5996,-127.7896 1589.1104,-126.2971 1590.4691,-133.164"/>
</g>
<!-- Node37&#45;&gt;Node26 -->
<g id="edge60" class="edge">
<title>Node37&#45;&gt;Node26</title>
<path fill="none" stroke="#63b8ff" d="M1397.6406,-164.9197C1434.1763,-154.6674 1491.6864,-138.5293 1527.4123,-128.5042"/>
<polygon fill="#63b8ff" stroke="#63b8ff" points="1528.6317,-131.7973 1537.3142,-125.7256 1526.7404,-125.0576 1528.6317,-131.7973"/>
</g>
<!-- Node38&#45;&gt;Node7 -->
<g id="edge74" class="edge">
<title>Node38&#45;&gt;Node7</title>
<path fill="none" stroke="#63b8ff" d="M409.1717,-219.899C431.4946,-210.8001 465.8575,-196.6774 495.5,-184 514.7105,-175.7841 518.4239,-170.7875 538.5,-165 633.4686,-137.6227 749.7345,-126.2088 809.6215,-121.8741"/>
<polygon fill="#63b8ff" stroke="#63b8ff" points="810.0488,-125.3529 819.782,-121.1679 809.5634,-118.3697 810.0488,-125.3529"/>
</g>
<!-- Node38&#45;&gt;Node8 -->
<g id="edge67" class="edge">
<title>Node38&#45;&gt;Node8</title>
<path fill="none" stroke="#63b8ff" d="M370.5077,-219.9735C359.3466,-211.9193 344.9693,-199.267 338.5,-184 335.2053,-176.2248 336.036,-173.077 338.5,-165 363.2541,-83.8553 412.3895,-76.3331 494.5,-55 604.345,-26.4613 959.1511,-13.646 1065.862,-10.3749"/>
<polygon fill="#63b8ff" stroke="#63b8ff" points="1066.0683,-13.8704 1075.9586,-10.0714 1065.8579,-6.8735 1066.0683,-13.8704"/>
</g>
<!-- Node38&#45;&gt;Node12 -->
<g id="edge71" class="edge">
<title>Node38&#45;&gt;Node12</title>
<path fill="none" stroke="#63b8ff" d="M372.2448,-219.9723C356.5439,-207.4641 333.894,-184.7724 345.5,-165 377.6366,-110.2507 451.6528,-83.1228 494.0865,-71.6236"/>
<polygon fill="#63b8ff" stroke="#63b8ff" points="495.0895,-74.9795 503.8974,-69.0912 493.34,-68.2016 495.0895,-74.9795"/>
</g>
<!-- Node38&#45;&gt;Node14 -->
<g id="edge70" class="edge">
<title>Node38&#45;&gt;Node14</title>
<path fill="none" stroke="#63b8ff" d="M349.946,-225.2948C324.2405,-220.1891 291.2079,-208.9058 274.5,-184 242.5597,-136.3877 235.7455,-97.2516 274.5,-55 307.816,-18.6777 656.4588,-11.2714 767.0438,-9.8318"/>
<polygon fill="#63b8ff" stroke="#63b8ff" points="767.3223,-13.3287 777.2788,-9.707 767.2368,-6.3293 767.3223,-13.3287"/>
</g>
<!-- Node38&#45;&gt;Node22 -->
<g id="edge72" class="edge">
<title>Node38&#45;&gt;Node22</title>
<path fill="none" stroke="#63b8ff" d="M421.3364,-220.5409C462.5303,-210.2424 529.6981,-193.4505 570.5255,-183.2436"/>
<polygon fill="#63b8ff" stroke="#63b8ff" points="571.4534,-186.6194 580.3059,-180.7985 569.7556,-179.8284 571.4534,-186.6194"/>
</g>
<!-- Node38&#45;&gt;Node34 -->
<g id="edge68" class="edge">
<title>Node38&#45;&gt;Node34</title>
<path fill="none" stroke="#63b8ff" d="M352.4045,-219.9197C318.9226,-210.2276 267.2698,-195.2755 232.4652,-185.2005"/>
<polygon fill="#63b8ff" stroke="#63b8ff" points="233.2634,-181.7879 222.6845,-182.3692 231.3169,-188.5118 233.2634,-181.7879"/>
</g>
<!-- Node39 -->
<g id="node39" class="node">
<title>Node39</title>
<g id="a_node39"><a xlink:title=" ">
<polygon fill="#e0e0e0" stroke="#999999" points="486.5,-184 434.5,-184 434.5,-165 486.5,-165 486.5,-184"/>
<text text-anchor="middle" x="460.5" y="-172" font-family="Helvetica,sans-Serif" font-size="10.00" fill="#000000">sstream</text>
</a>
</g>
</g>
<!-- Node38&#45;&gt;Node39 -->
<g id="edge69" class="edge">
<title>Node38&#45;&gt;Node39</title>
<path fill="none" stroke="#63b8ff" d="M398.564,-219.9197C409.6805,-211.7677 425.8713,-199.8944 438.911,-190.3319"/>
<polygon fill="#63b8ff" stroke="#63b8ff" points="441.3398,-192.8911 447.3341,-184.155 437.2002,-187.2463 441.3398,-192.8911"/>
</g>
<!-- Node40 -->
<g id="node40" class="node">
<title>Node40</title>
<g id="a_node40"><a xlink:title=" ">
<polygon fill="#e0e0e0" stroke="#999999" points="416.5,-184 354.5,-184 354.5,-165 416.5,-165 416.5,-184"/>
<text text-anchor="middle" x="385.5" y="-172" font-family="Helvetica,sans-Serif" font-size="10.00" fill="#000000">type_traits</text>
</a>
</g>
</g>
<!-- Node38&#45;&gt;Node40 -->
<g id="edge73" class="edge">
<title>Node38&#45;&gt;Node40</title>
<path fill="none" stroke="#63b8ff" d="M385.5,-219.9197C385.5,-212.9083 385.5,-203.1442 385.5,-194.4652"/>
<polygon fill="#63b8ff" stroke="#63b8ff" points="389.0001,-194.3408 385.5,-184.3408 382.0001,-194.3409 389.0001,-194.3408"/>
</g>
<!-- Node41&#45;&gt;Node8 -->
<g id="edge78" class="edge">
<title>Node41&#45;&gt;Node8</title>
<path fill="none" stroke="#63b8ff" d="M1281.3066,-164.9642C1273.7442,-151.6394 1258.7119,-127.159 1241.5,-110 1205.1331,-73.7449 1154.2091,-41.8725 1123.393,-24.1922"/>
<polygon fill="#63b8ff" stroke="#63b8ff" points="1124.9409,-21.0467 1114.5133,-19.1716 1121.4956,-27.1402 1124.9409,-21.0467"/>
</g>
<!-- Node41&#45;&gt;Node19 -->
<g id="edge77" class="edge">
<title>Node41&#45;&gt;Node19</title>
<path fill="none" stroke="#63b8ff" d="M1261.6645,-167.2305C1258.9142,-166.4612 1256.1506,-165.7037 1253.5,-165 1201.2521,-151.1295 1140.3547,-136.6179 1102.609,-127.8155"/>
<polygon fill="#63b8ff" stroke="#63b8ff" points="1103.1359,-124.3447 1092.6031,-125.4894 1101.5508,-131.1629 1103.1359,-124.3447"/>
</g>
<!-- Node41&#45;&gt;Node26 -->
<g id="edge79" class="edge">
<title>Node41&#45;&gt;Node26</title>
<path fill="none" stroke="#63b8ff" d="M1311.3199,-167.3045C1314.4014,-166.4882 1317.5165,-165.6995 1320.5,-165 1393.9414,-147.7814 1481.2281,-132.4434 1527.3015,-124.7419"/>
<polygon fill="#63b8ff" stroke="#63b8ff" points="1527.9999,-128.1739 1537.2919,-123.0839 1526.8538,-121.2684 1527.9999,-128.1739"/>
</g>
<!-- Node41&#45;&gt;Node27 -->
<g id="edge80" class="edge">
<title>Node41&#45;&gt;Node27</title>
<path fill="none" stroke="#63b8ff" d="M1272.9134,-164.9197C1261.2411,-156.6893 1244.1895,-144.6657 1230.5622,-135.0567"/>
<polygon fill="#63b8ff" stroke="#63b8ff" points="1232.3821,-132.0574 1222.1926,-129.155 1228.3482,-137.7782 1232.3821,-132.0574"/>
</g>
<!-- Node43 -->
<g id="node43" class="node">
<title>Node43</title>
<g id="a_node43"><a xlink:href="../../df/da1/definition_8h.html" target="_top" xlink:title=" ">
<polygon fill="#ffffff" stroke="#666666" points="1391.5,-294 1327.5,-294 1327.5,-275 1391.5,-275 1391.5,-294"/>
<text text-anchor="middle" x="1359.5" y="-282" font-family="Helvetica,sans-Serif" font-size="10.00" fill="#000000">definition.h</text>
</a>
</g>
</g>
<!-- Node42&#45;&gt;Node43 -->
<g id="edge82" class="edge">
<title>Node42&#45;&gt;Node43</title>
<path fill="none" stroke="#63b8ff" d="M1181.5161,-549.9819C1174.0056,-531.1489 1158.5,-487.6483 1158.5,-449.5 1158.5,-449.5 1158.5,-449.5 1158.5,-394.5 1158.5,-322.8243 1258.072,-297.5521 1317.0516,-288.8696"/>
<polygon fill="#63b8ff" stroke="#63b8ff" points="1317.7734,-292.3035 1327.2059,-287.4786 1316.8234,-285.3683 1317.7734,-292.3035"/>
</g>
<!-- Node45 -->
<g id="node45" class="node">
<title>Node45</title>
<g id="a_node45"><a xlink:href="../../d4/d3a/filedef_8h.html" target="_top" xlink:title=" ">
<polygon fill="#ffffff" stroke="#666666" points="1640,-514 1589,-514 1589,-495 1640,-495 1640,-514"/>
<text text-anchor="middle" x="1614.5" y="-502" font-family="Helvetica,sans-Serif" font-size="10.00" fill="#000000">filedef.h</text>
</a>
</g>
</g>
<!-- Node42&#45;&gt;Node45 -->
<g id="edge91" class="edge">
<title>Node42&#45;&gt;Node45</title>
<path fill="none" stroke="#63b8ff" d="M1222.0763,-554.8107C1303.3283,-544.3938 1498.0187,-519.4335 1578.619,-509.1001"/>
<polygon fill="#63b8ff" stroke="#63b8ff" points="1579.2911,-512.5427 1588.7649,-507.7994 1578.4009,-505.5995 1579.2911,-512.5427"/>
</g>
<!-- Node43&#45;&gt;Node17 -->
<g id="edge84" class="edge">
<title>Node43&#45;&gt;Node17</title>
<path fill="none" stroke="#63b8ff" d="M1327.3667,-282.0691C1260.6708,-276.7304 1102.5029,-262.5457 971.5,-239 970.0425,-238.738 968.5582,-238.4541 967.0617,-238.1537"/>
<polygon fill="#63b8ff" stroke="#63b8ff" points="967.6775,-234.7057 957.1606,-235.9889 966.1823,-241.5441 967.6775,-234.7057"/>
</g>
<!-- Node43&#45;&gt;Node26 -->
<g id="edge83" class="edge">
<title>Node43&#45;&gt;Node26</title>
<path fill="none" stroke="#63b8ff" d="M1371.1173,-274.9157C1404.1184,-247.6898 1498.6937,-169.6652 1539.9074,-135.6639"/>
<polygon fill="#63b8ff" stroke="#63b8ff" points="1542.3642,-138.1744 1547.8506,-129.1107 1537.9095,-132.7748 1542.3642,-138.1744"/>
</g>
<!-- Node44 -->
<g id="node44" class="node">
<title>Node44</title>
<g id="a_node44"><a xlink:href="../../d1/d02/reflist_8h.html" target="_top" xlink:title=" ">
<polygon fill="#ffffff" stroke="#666666" points="1388,-239 1339,-239 1339,-220 1388,-220 1388,-239"/>
<text text-anchor="middle" x="1363.5" y="-227" font-family="Helvetica,sans-Serif" font-size="10.00" fill="#000000">reflist.h</text>
</a>
</g>
</g>
<!-- Node43&#45;&gt;Node44 -->
<g id="edge85" class="edge">
<title>Node43&#45;&gt;Node44</title>
<path fill="none" stroke="#63b8ff" d="M1360.1967,-274.9197C1360.7067,-267.9083 1361.4168,-258.1442 1362.048,-249.4652"/>
<polygon fill="#63b8ff" stroke="#63b8ff" points="1365.5496,-249.5684 1362.7843,-239.3408 1358.5681,-249.0606 1365.5496,-249.5684"/>
</g>
<!-- Node44&#45;&gt;Node7 -->
<g id="edge89" class="edge">
<title>Node44&#45;&gt;Node7</title>
<path fill="none" stroke="#63b8ff" d="M1338.6583,-225.1278C1295.1516,-217.391 1202.3824,-200.5393 1124.5,-184 1040.2292,-166.1041 942.1137,-142.3952 888.8405,-129.2792"/>
<polygon fill="#63b8ff" stroke="#63b8ff" points="889.662,-125.877 879.1147,-126.8797 887.9852,-132.6733 889.662,-125.877"/>
</g>
<!-- Node44&#45;&gt;Node19 -->
<g id="edge88" class="edge">
<title>Node44&#45;&gt;Node19</title>
<path fill="none" stroke="#63b8ff" d="M1338.7741,-226.8741C1299.9209,-222.1021 1222.7881,-209.996 1162.5,-184 1133.6898,-171.5771 1104.2846,-150.29 1085.7439,-135.5875"/>
<polygon fill="#63b8ff" stroke="#63b8ff" points="1087.7738,-132.7277 1077.798,-129.1591 1083.371,-138.1698 1087.7738,-132.7277"/>
</g>
<!-- Node44&#45;&gt;Node20 -->
<g id="edge87" class="edge">
<title>Node44&#45;&gt;Node20</title>
<path fill="none" stroke="#63b8ff" d="M1387.6844,-219.9306C1437.2826,-200.3055 1550.628,-155.4565 1607.5557,-132.9312"/>
<polygon fill="#63b8ff" stroke="#63b8ff" points="1609.1628,-136.0594 1617.1736,-129.1256 1606.5873,-129.5504 1609.1628,-136.0594"/>
</g>
<!-- Node44&#45;&gt;Node26 -->
<g id="edge86" class="edge">
<title>Node44&#45;&gt;Node26</title>
<path fill="none" stroke="#63b8ff" d="M1380.5508,-219.9306C1414.9402,-200.6305 1492.7971,-156.9353 1533.5414,-134.0686"/>
<polygon fill="#63b8ff" stroke="#63b8ff" points="1535.3415,-137.0719 1542.349,-129.1256 1531.9155,-130.9676 1535.3415,-137.0719"/>
</g>
<!-- Node44&#45;&gt;Node37 -->
<g id="edge90" class="edge">
<title>Node44&#45;&gt;Node37</title>
<path fill="none" stroke="#63b8ff" d="M1363.5,-219.9197C1363.5,-212.9083 1363.5,-203.1442 1363.5,-194.4652"/>
<polygon fill="#63b8ff" stroke="#63b8ff" points="1367.0001,-194.3408 1363.5,-184.3408 1360.0001,-194.3409 1367.0001,-194.3408"/>
</g>
<!-- Node45&#45;&gt;Node28 -->
<g id="edge121" class="edge">
<title>Node45&#45;&gt;Node28</title>
<path fill="none" stroke="#63b8ff" d="M1628.8508,-494.746C1653.5752,-477.6557 1705.3189,-440.622 1744.5,-404 1780.408,-370.4373 1817.403,-326.0695 1836.7689,-301.9447"/>
<polygon fill="#63b8ff" stroke="#63b8ff" points="1839.58,-304.0331 1843.0714,-294.0301 1834.1041,-299.6726 1839.58,-304.0331"/>
</g>
<!-- Node45&#45;&gt;Node29 -->
<g id="edge92" class="edge">
<title>Node45&#45;&gt;Node29</title>
<path fill="none" stroke="#63b8ff" d="M1640.1822,-501.3147C1695.1867,-493.4075 1826.4382,-468.6353 1913.5,-404 1971.0781,-361.2537 2012.3045,-283.8119 2029.1185,-248.2604"/>
<polygon fill="#63b8ff" stroke="#63b8ff" points="2032.3656,-249.577 2033.3764,-239.0305 2026.0093,-246.6447 2032.3656,-249.577"/>
</g>
<!-- Node45&#45;&gt;Node43 -->
<g id="edge93" class="edge">
<title>Node45&#45;&gt;Node43</title>
<path fill="none" stroke="#63b8ff" d="M1588.9075,-499.7797C1543.4916,-490.0673 1448.6851,-463.5543 1396.5,-404 1371.439,-375.4001 1363.3508,-330.0219 1360.7415,-304.1948"/>
<polygon fill="#63b8ff" stroke="#63b8ff" points="1364.2215,-303.8071 1359.9059,-294.1311 1357.2455,-304.3865 1364.2215,-303.8071"/>
</g>
<!-- Node46 -->
<g id="node46" class="node">
<title>Node46</title>
<g id="a_node46"><a xlink:href="../../dd/d78/memberlist_8h.html" target="_top" xlink:title=" ">
<polygon fill="#ffffff" stroke="#666666" points="1651,-459 1578,-459 1578,-440 1651,-440 1651,-459"/>
<text text-anchor="middle" x="1614.5" y="-447" font-family="Helvetica,sans-Serif" font-size="10.00" fill="#000000">memberlist.h</text>
</a>
</g>
</g>
<!-- Node45&#45;&gt;Node46 -->
<g id="edge94" class="edge">
<title>Node45&#45;&gt;Node46</title>
<path fill="none" stroke="#63b8ff" d="M1614.5,-494.9197C1614.5,-487.9083 1614.5,-478.1442 1614.5,-469.4652"/>
<polygon fill="#63b8ff" stroke="#63b8ff" points="1618.0001,-469.3408 1614.5,-459.3408 1611.0001,-469.3409 1618.0001,-469.3408"/>
</g>
<!-- Node46&#45;&gt;Node9 -->
<g id="edge96" class="edge">
<title>Node46&#45;&gt;Node9</title>
<path fill="none" stroke="#63b8ff" d="M1651.137,-445.2644C1740.3762,-432.742 1968.4832,-386.9653 2061.5,-239 2092.0252,-190.4424 1901.8637,-109.6266 1820.812,-77.8837"/>
<polygon fill="#63b8ff" stroke="#63b8ff" points="1821.6256,-74.445 1811.0369,-74.0864 1819.0909,-80.9699 1821.6256,-74.445"/>
</g>
<!-- Node46&#45;&gt;Node17 -->
<g id="edge119" class="edge">
<title>Node46&#45;&gt;Node17</title>
<path fill="none" stroke="#63b8ff" d="M1577.8161,-443.8327C1485.2702,-428.6213 1236.1748,-381.9661 1046.5,-294 1014.2264,-279.0324 978.824,-258.2704 956.1698,-244.3859"/>
<polygon fill="#63b8ff" stroke="#63b8ff" points="957.9199,-241.353 947.5736,-239.0718 954.2391,-247.3072 957.9199,-241.353"/>
</g>
<!-- Node46&#45;&gt;Node26 -->
<g id="edge95" class="edge">
<title>Node46&#45;&gt;Node26</title>
<path fill="none" stroke="#63b8ff" d="M1637.9743,-439.9018C1671.8699,-424.2998 1730.5,-390.0121 1730.5,-339.5 1730.5,-339.5 1730.5,-339.5 1730.5,-229.5 1730.5,-196.655 1640.1393,-153.4351 1590.7894,-132.2801"/>
<polygon fill="#63b8ff" stroke="#63b8ff" points="1592.0787,-129.0253 1581.5052,-128.3529 1589.3516,-135.4723 1592.0787,-129.0253"/>
</g>
<!-- Node46&#45;&gt;Node37 -->
<g id="edge118" class="edge">
<title>Node46&#45;&gt;Node37</title>
<path fill="none" stroke="#63b8ff" d="M1619.3374,-439.9498C1629.0935,-419.3537 1649.0852,-369.4331 1635.5,-330 1625.3933,-300.6637 1617.0047,-294.0338 1592.5,-275 1535.7209,-230.8973 1456.5812,-201.7998 1407.7652,-186.7484"/>
<polygon fill="#63b8ff" stroke="#63b8ff" points="1408.7097,-183.3776 1398.1249,-183.8372 1406.6861,-190.0787 1408.7097,-183.3776"/>
</g>
<!-- Node47 -->
<g id="node47" class="node">
<title>Node47</title>
<g id="a_node47"><a xlink:href="../../d4/d46/memberdef_8h.html" target="_top" xlink:title=" ">
<polygon fill="#ffffff" stroke="#666666" points="1479.5,-404 1405.5,-404 1405.5,-385 1479.5,-385 1479.5,-404"/>
<text text-anchor="middle" x="1442.5" y="-392" font-family="Helvetica,sans-Serif" font-size="10.00" fill="#000000">memberdef.h</text>
</a>
</g>
</g>
<!-- Node46&#45;&gt;Node47 -->
<g id="edge97" class="edge">
<title>Node46&#45;&gt;Node47</title>
<path fill="none" stroke="#63b8ff" d="M1584.5399,-439.9197C1556.1402,-430.8384 1513.2993,-417.1393 1482.0944,-407.161"/>
<polygon fill="#63b8ff" stroke="#63b8ff" points="1482.9958,-403.7747 1472.4048,-404.0626 1480.8637,-410.4421 1482.9958,-403.7747"/>
</g>
<!-- Node51 -->
<g id="node51" class="node">
<title>Node51</title>
<g id="a_node51"><a xlink:href="../../d9/d11/membergroup_8h.html" target="_top" xlink:title=" ">
<polygon fill="#ffffff" stroke="#666666" points="1583.5,-294 1499.5,-294 1499.5,-275 1583.5,-275 1583.5,-294"/>
<text text-anchor="middle" x="1541.5" y="-282" font-family="Helvetica,sans-Serif" font-size="10.00" fill="#000000">membergroup.h</text>
</a>
</g>
</g>
<!-- Node46&#45;&gt;Node51 -->
<g id="edge120" class="edge">
<title>Node46&#45;&gt;Node51</title>
<path fill="none" stroke="#63b8ff" d="M1607.3498,-439.771C1594.9394,-422.4231 1569.4097,-384.6196 1555.5,-349 1549.8906,-334.6356 1546.3099,-317.5488 1544.1751,-304.5717"/>
<polygon fill="#63b8ff" stroke="#63b8ff" points="1547.5945,-303.7709 1542.6567,-294.3971 1540.6711,-304.8042 1547.5945,-303.7709"/>
</g>
<!-- Node47&#45;&gt;Node17 -->
<g id="edge101" class="edge">
<title>Node47&#45;&gt;Node17</title>
<path fill="none" stroke="#63b8ff" d="M1405.1771,-386.5018C1367.7768,-378.1996 1308.7056,-364.303 1258.5,-349 1149.485,-315.7715 1023.6839,-266.4455 965.3495,-242.9223"/>
<polygon fill="#63b8ff" stroke="#63b8ff" points="966.5018,-239.613 955.919,-239.107 963.8764,-246.102 966.5018,-239.613"/>
</g>
<!-- Node47&#45;&gt;Node19 -->
<g id="edge99" class="edge">
<title>Node47&#45;&gt;Node19</title>
<path fill="none" stroke="#63b8ff" d="M1417.0096,-384.9305C1354.7992,-360.4406 1193.3012,-289.8755 1097.5,-184 1085.676,-170.9326 1077.4378,-152.5443 1072.4417,-138.7432"/>
<polygon fill="#63b8ff" stroke="#63b8ff" points="1075.7532,-137.6098 1069.2475,-129.2477 1069.1186,-139.8417 1075.7532,-137.6098"/>
</g>
<!-- Node47&#45;&gt;Node26 -->
<g id="edge98" class="edge">
<title>Node47&#45;&gt;Node26</title>
<path fill="none" stroke="#63b8ff" d="M1479.6112,-391.1381C1530.1206,-385.7067 1616.4291,-373.0897 1635.5,-349 1686.3344,-284.7877 1668.7138,-234.5696 1625.5,-165 1617.2271,-151.6815 1603.4541,-141.2736 1590.6239,-133.7939"/>
<polygon fill="#63b8ff" stroke="#63b8ff" points="1591.999,-130.558 1581.5403,-128.8652 1588.6606,-136.7107 1591.999,-130.558"/>
</g>
<!-- Node47&#45;&gt;Node43 -->
<g id="edge102" class="edge">
<title>Node47&#45;&gt;Node43</title>
<path fill="none" stroke="#63b8ff" d="M1435.1343,-384.7382C1421.1327,-366.1819 1390.4984,-325.5822 1372.8131,-302.1438"/>
<polygon fill="#63b8ff" stroke="#63b8ff" points="1375.5478,-299.9573 1366.7307,-294.0828 1369.96,-304.1735 1375.5478,-299.9573"/>
</g>
<!-- Node48 -->
<g id="node48" class="node">
<title>Node48</title>
<g id="a_node48"><a xlink:title=" ">
<polygon fill="#e0e0e0" stroke="#999999" points="1508.5,-349 1440.5,-349 1440.5,-330 1508.5,-330 1508.5,-349"/>
<text text-anchor="middle" x="1474.5" y="-337" font-family="Helvetica,sans-Serif" font-size="10.00" fill="#000000">sys/types.h</text>
</a>
</g>
</g>
<!-- Node47&#45;&gt;Node48 -->
<g id="edge100" class="edge">
<title>Node47&#45;&gt;Node48</title>
<path fill="none" stroke="#63b8ff" d="M1448.074,-384.9197C1452.38,-377.5188 1458.4704,-367.0509 1463.7193,-358.0294"/>
<polygon fill="#63b8ff" stroke="#63b8ff" points="1466.7707,-359.7445 1468.7744,-349.3408 1460.7202,-356.2242 1466.7707,-359.7445"/>
</g>
<!-- Node49 -->
<g id="node49" class="node">
<title>Node49</title>
<g id="a_node49"><a xlink:href="../../df/d9b/arguments_8h.html" target="_top" xlink:title=" ">
<polygon fill="#ffffff" stroke="#666666" points="1481,-294 1410,-294 1410,-275 1481,-275 1481,-294"/>
<text text-anchor="middle" x="1445.5" y="-282" font-family="Helvetica,sans-Serif" font-size="10.00" fill="#000000">arguments.h</text>
</a>
</g>
</g>
<!-- Node47&#45;&gt;Node49 -->
<g id="edge103" class="edge">
<title>Node47&#45;&gt;Node49</title>
<path fill="none" stroke="#63b8ff" d="M1438.9326,-384.9026C1434.6989,-372.319 1428.5609,-349.546 1431.5,-330 1432.833,-321.135 1435.5498,-311.6138 1438.2384,-303.584"/>
<polygon fill="#63b8ff" stroke="#63b8ff" points="1441.5697,-304.6625 1441.6378,-294.0679 1434.9777,-302.3076 1441.5697,-304.6625"/>
</g>
<!-- Node50 -->
<g id="node50" class="node">
<title>Node50</title>
<g id="a_node50"><a xlink:href="../../d1/da6/classdef_8h.html" target="_top" xlink:title=" ">
<polygon fill="#ffffff" stroke="#666666" points="1626.5,-349 1564.5,-349 1564.5,-330 1626.5,-330 1626.5,-349"/>
<text text-anchor="middle" x="1595.5" y="-337" font-family="Helvetica,sans-Serif" font-size="10.00" fill="#000000">classdef.h</text>
</a>
</g>
</g>
<!-- Node47&#45;&gt;Node50 -->
<g id="edge106" class="edge">
<title>Node47&#45;&gt;Node50</title>
<path fill="none" stroke="#63b8ff" d="M1469.1506,-384.9197C1494.085,-375.9564 1531.5339,-362.4944 1559.1927,-352.5516"/>
<polygon fill="#63b8ff" stroke="#63b8ff" points="1560.6722,-355.7392 1568.8986,-349.0626 1558.3041,-349.1518 1560.6722,-355.7392"/>
</g>
<!-- Node49&#45;&gt;Node7 -->
<g id="edge105" class="edge">
<title>Node49&#45;&gt;Node7</title>
<path fill="none" stroke="#63b8ff" d="M1409.7026,-276.5801C1406.5977,-276.0034 1403.4981,-275.4663 1400.5,-275 1242.9227,-250.4945 1194.5572,-290.116 1043.5,-239 973.3309,-215.2556 902.0104,-162.3049 868.7706,-135.5828"/>
<polygon fill="#63b8ff" stroke="#63b8ff" points="870.7627,-132.6912 860.7998,-129.0869 866.3405,-138.1175 870.7627,-132.6912"/>
</g>
<!-- Node49&#45;&gt;Node26 -->
<g id="edge104" class="edge">
<title>Node49&#45;&gt;Node26</title>
<path fill="none" stroke="#63b8ff" d="M1464.735,-274.91C1479.9076,-266.7348 1501.0205,-253.9516 1516.5,-239 1537.8703,-218.3584 1544.5642,-212.0008 1554.5,-184 1559.6128,-169.5913 1560.702,-152.2689 1560.601,-139.2053"/>
<polygon fill="#63b8ff" stroke="#63b8ff" points="1564.0927,-138.8858 1560.277,-129.0019 1557.0962,-139.108 1564.0927,-138.8858"/>
</g>
<!-- Node50&#45;&gt;Node26 -->
<g id="edge107" class="edge">
<title>Node50&#45;&gt;Node26</title>
<path fill="none" stroke="#63b8ff" d="M1599.2734,-329.8758C1609.348,-302.5921 1634.407,-222.9664 1608.5,-165 1603.2244,-153.1958 1593.2646,-143.0506 1583.695,-135.3551"/>
<polygon fill="#63b8ff" stroke="#63b8ff" points="1585.6194,-132.4239 1575.5134,-129.2429 1581.4299,-138.0318 1585.6194,-132.4239"/>
</g>
<!-- Node50&#45;&gt;Node28 -->
<g id="edge109" class="edge">
<title>Node50&#45;&gt;Node28</title>
<path fill="none" stroke="#63b8ff" d="M1626.5131,-332.8109C1671.1851,-323.1758 1753.9133,-305.3324 1805.3622,-294.2356"/>
<polygon fill="#63b8ff" stroke="#63b8ff" points="1806.1772,-297.6404 1815.2144,-292.1106 1804.7012,-290.7977 1806.1772,-297.6404"/>
</g>
<!-- Node50&#45;&gt;Node29 -->
<g id="edge108" class="edge">
<title>Node50&#45;&gt;Node29</title>
<path fill="none" stroke="#63b8ff" d="M1626.6649,-337.5615C1681.7121,-333.5231 1799.3307,-322.1274 1894.5,-294 1937.9561,-281.1565 1985.3301,-257.7622 2013.1729,-242.957"/>
<polygon fill="#63b8ff" stroke="#63b8ff" points="2015.0253,-245.9347 2022.1682,-238.1098 2011.7046,-239.7724 2015.0253,-245.9347"/>
</g>
<!-- Node50&#45;&gt;Node43 -->
<g id="edge110" class="edge">
<title>Node50&#45;&gt;Node43</title>
<path fill="none" stroke="#63b8ff" d="M1564.161,-332.1964C1522.342,-322.4505 1448.1589,-305.162 1401.5228,-294.2934"/>
<polygon fill="#63b8ff" stroke="#63b8ff" points="1402.259,-290.8713 1391.7256,-292.0102 1400.6702,-297.6886 1402.259,-290.8713"/>
</g>
<!-- Node50&#45;&gt;Node49 -->
<g id="edge111" class="edge">
<title>Node50&#45;&gt;Node49</title>
<path fill="none" stroke="#63b8ff" d="M1569.372,-329.9197C1544.9265,-320.9564 1508.2119,-307.4944 1481.0953,-297.5516"/>
<polygon fill="#63b8ff" stroke="#63b8ff" points="1482.1735,-294.2191 1471.5798,-294.0626 1479.7637,-300.7913 1482.1735,-294.2191"/>
</g>
<!-- Node50&#45;&gt;Node51 -->
<g id="edge112" class="edge">
<title>Node50&#45;&gt;Node51</title>
<path fill="none" stroke="#63b8ff" d="M1586.0939,-329.9197C1578.4451,-322.1293 1567.4597,-310.9405 1558.3064,-301.6176"/>
<polygon fill="#63b8ff" stroke="#63b8ff" points="1560.6653,-299.0244 1551.1619,-294.3408 1555.6704,-303.9286 1560.6653,-299.0244"/>
</g>
<!-- Node51&#45;&gt;Node17 -->
<g id="edge116" class="edge">
<title>Node51&#45;&gt;Node17</title>
<path fill="none" stroke="#63b8ff" d="M1499.2533,-276.2812C1496.2964,-275.8136 1493.3569,-275.3801 1490.5,-275 1292.9309,-248.7153 1242.1259,-255.498 1043.5,-239 1017.9909,-236.8812 989.1912,-234.4142 967.3206,-232.5252"/>
<polygon fill="#63b8ff" stroke="#63b8ff" points="967.45,-229.0234 957.1855,-231.6484 966.8466,-235.9974 967.45,-229.0234"/>
</g>
<!-- Node51&#45;&gt;Node19 -->
<g id="edge115" class="edge">
<title>Node51&#45;&gt;Node19</title>
<path fill="none" stroke="#63b8ff" d="M1499.4243,-275.8994C1400.053,-255.3691 1156.7261,-203.7428 1124.5,-184 1105.3585,-172.2733 1088.8437,-152.3345 1078.3864,-137.723"/>
<polygon fill="#63b8ff" stroke="#63b8ff" points="1081.238,-135.6927 1072.6888,-129.4347 1075.4695,-139.6581 1081.238,-135.6927"/>
</g>
<!-- Node51&#45;&gt;Node26 -->
<g id="edge113" class="edge">
<title>Node51&#45;&gt;Node26</title>
<path fill="none" stroke="#63b8ff" d="M1558.2325,-274.9475C1570.251,-267.0408 1585.5146,-254.5935 1592.5,-239 1605.9458,-208.9852 1602.6502,-196.2834 1592.5,-165 1589.1825,-154.7755 1582.6099,-144.9255 1576.1978,-137.0209"/>
<polygon fill="#63b8ff" stroke="#63b8ff" points="1578.6687,-134.5287 1569.4645,-129.2814 1573.3876,-139.1232 1578.6687,-134.5287"/>
</g>
<!-- Node51&#45;&gt;Node30 -->
<g id="edge114" class="edge">
<title>Node51&#45;&gt;Node30</title>
<path fill="none" stroke="#63b8ff" d="M1582.1656,-274.9825C1629.9004,-263.8105 1707.7626,-245.5875 1748.9459,-235.9488"/>
<polygon fill="#63b8ff" stroke="#63b8ff" points="1749.8836,-239.324 1758.8229,-233.6372 1748.2884,-232.5082 1749.8836,-239.324"/>
</g>
<!-- Node51&#45;&gt;Node44 -->
<g id="edge117" class="edge">
<title>Node51&#45;&gt;Node44</title>
<path fill="none" stroke="#63b8ff" d="M1510.4948,-274.9197C1478.9913,-265.1855 1430.3165,-250.1456 1397.7068,-240.0695"/>
<polygon fill="#63b8ff" stroke="#63b8ff" points="1398.7267,-236.7214 1388.1391,-237.1132 1396.6601,-243.4095 1398.7267,-236.7214"/>
</g>
<!-- Node52&#45;&gt;Node7 -->
<g id="edge124" class="edge">
<title>Node52&#45;&gt;Node7</title>
<path fill="none" stroke="#63b8ff" d="M577.3361,-604.8025C567.8247,-586.0089 548.5,-543.0781 548.5,-504.5 548.5,-504.5 548.5,-504.5 548.5,-449.5 548.5,-322.643 485.5303,-258.284 571.5,-165 587.4527,-147.69 736.6517,-130.6813 809.6514,-123.3115"/>
<polygon fill="#63b8ff" stroke="#63b8ff" points="810.2407,-126.7702 819.844,-122.2952 809.5461,-119.8047 810.2407,-126.7702"/>
</g>
<!-- Node53 -->
<g id="node53" class="node">
<title>Node53</title>
<g id="a_node53"><a xlink:title=" ">
<polygon fill="#e0e0e0" stroke="#999999" points="626,-569 577,-569 577,-550 626,-550 626,-569"/>
<text text-anchor="middle" x="601.5" y="-557" font-family="Helvetica,sans-Serif" font-size="10.00" fill="#000000">cstdarg</text>
</a>
</g>
</g>
<!-- Node52&#45;&gt;Node53 -->
<g id="edge123" class="edge">
<title>Node52&#45;&gt;Node53</title>
<path fill="none" stroke="#63b8ff" d="M585.8095,-604.9197C588.2855,-597.7525 591.7551,-587.7089 594.8023,-578.8882"/>
<polygon fill="#63b8ff" stroke="#63b8ff" points="598.1433,-579.9356 598.1004,-569.3408 591.527,-577.6499 598.1433,-579.9356"/>
</g>
</g>
</svg>
