<?xml version="1.0" encoding="UTF-8" standalone="no"?>
<!DOCTYPE svg PUBLIC "-//W3C//DTD SVG 1.1//EN"
 "http://www.w3.org/Graphics/SVG/1.1/DTD/svg11.dtd">
<!-- Generated by graphviz version 2.40.1 (20161225.0304)
 -->
<!-- Title: src/latexgen.h Pages: 1 -->
<!--zoomable 357 -->
<svg id="main" version="1.1" xmlns="http://www.w3.org/2000/svg" xmlns:xlink="http://www.w3.org/1999/xlink" xml:space="preserve" onload="init(evt)">
<style type="text/css"><![CDATA[
.edge:hover path { stroke: red; }
.edge:hover polygon { stroke: red; fill: red; }
]]></style>
<script type="text/javascript"><![CDATA[
var edges = document.getElementsByTagName('g');
if (edges && edges.length) {
  for (var i=0;i<edges.length;i++) {
    if (edges[i].id.substr(0,4)=='edge') {
      edges[i].setAttribute('class','edge');
    }
  }
}
]]></script>
        <defs>
                <circle id="rim" cx="0" cy="0" r="7"/>
                <circle id="rim2" cx="0" cy="0" r="3.5"/>
                <g id="zoomPlus">
                        <use xlink:href="#rim" fill="#404040">
                                <set attributeName="fill" to="#808080" begin="zoomplus.mouseover" end="zoomplus.mouseout"/>
                        </use>
                        <path d="M-4,0h8M0,-4v8" fill="none" stroke="white" stroke-width="1.5" pointer-events="none"/>
                </g>
                <g id="zoomMin">
                        <use xlink:href="#rim" fill="#404040">
                                <set attributeName="fill" to="#808080" begin="zoomminus.mouseover" end="zoomminus.mouseout"/>
                        </use>
                        <path d="M-4,0h8" fill="none" stroke="white" stroke-width="1.5" pointer-events="none"/>
                </g>
                <g id="dirArrow">
                        <path fill="none" stroke="white" stroke-width="1.5" d="M0,-3.0v7 M-2.5,-0.5L0,-3.0L2.5,-0.5"/>
                </g>
               <g id="resetDef">
                       <use xlink:href="#rim2" fill="#404040">
                               <set attributeName="fill" to="#808080" begin="reset.mouseover" end="reset.mouseout"/>
                       </use>
               </g>
        </defs>

<script type="text/javascript">
var viewWidth = 1074;
var viewHeight = 357;
var sectionId = 'dynsection-0';
</script>
<script xlink:href="../../svgpan.js"/>
<svg id="graph" class="graph">
<g id="viewport">
<title>src/latexgen.h</title>
<!-- Node1 -->
<g id="node1" class="node">
<title>Node1</title>
<g id="a_node1"><a xlink:title=" ">
<polygon fill="#999999" stroke="#666666" points="362,-349 284,-349 284,-330 362,-330 362,-349"/>
<text text-anchor="middle" x="323" y="-337" font-family="Helvetica,sans-Serif" font-size="10.00" fill="#000000">src/latexgen.h</text>
</a>
</g>
</g>
<!-- Node2 -->
<g id="node2" class="node">
<title>Node2</title>
<g id="a_node2"><a xlink:href="../../db/d16/config_8h.html" target="_top" xlink:title=" ">
<polygon fill="#ffffff" stroke="#666666" points="309.5,-294 258.5,-294 258.5,-275 309.5,-275 309.5,-294"/>
<text text-anchor="middle" x="284" y="-282" font-family="Helvetica,sans-Serif" font-size="10.00" fill="#000000">config.h</text>
</a>
</g>
</g>
<!-- Node1&#45;&gt;Node2 -->
<g id="edge1" class="edge">
<title>Node1&#45;&gt;Node2</title>
<path fill="none" stroke="#63b8ff" d="M316.2067,-329.9197C310.9035,-322.4409 303.3796,-311.8301 296.9373,-302.745"/>
<polygon fill="#63b8ff" stroke="#63b8ff" points="299.6174,-300.4737 290.978,-294.3408 293.9073,-304.5227 299.6174,-300.4737"/>
</g>
<!-- Node4 -->
<g id="node4" class="node">
<title>Node4</title>
<g id="a_node4"><a xlink:href="../../df/d06/outputgen_8h.html" target="_top" xlink:title=" ">
<polygon fill="#ffffff" stroke="#666666" points="552,-294 484,-294 484,-275 552,-275 552,-294"/>
<text text-anchor="middle" x="518" y="-282" font-family="Helvetica,sans-Serif" font-size="10.00" fill="#000000">outputgen.h</text>
</a>
</g>
</g>
<!-- Node1&#45;&gt;Node4 -->
<g id="edge3" class="edge">
<title>Node1&#45;&gt;Node4</title>
<path fill="none" stroke="#63b8ff" d="M356.9664,-329.9197C389.4424,-320.7598 438.5756,-306.9018 474.0269,-296.9027"/>
<polygon fill="#63b8ff" stroke="#63b8ff" points="475.4219,-300.1458 484.0963,-294.0626 473.5216,-293.4087 475.4219,-300.1458"/>
</g>
<!-- Node3 -->
<g id="node3" class="node">
<title>Node3</title>
<g id="a_node3"><a xlink:title=" ">
<polygon fill="#e0e0e0" stroke="#999999" points="80,-239 0,-239 0,-220 80,-220 80,-239"/>
<text text-anchor="middle" x="40" y="-227" font-family="Helvetica,sans-Serif" font-size="10.00" fill="#000000">configvalues.h</text>
</a>
</g>
</g>
<!-- Node2&#45;&gt;Node3 -->
<g id="edge2" class="edge">
<title>Node2&#45;&gt;Node3</title>
<path fill="none" stroke="#63b8ff" d="M258.3489,-278.718C218.5451,-269.7458 141.174,-252.3056 90.0433,-240.7802"/>
<polygon fill="#63b8ff" stroke="#63b8ff" points="90.7108,-237.343 80.1859,-238.5583 89.1715,-244.1716 90.7108,-237.343"/>
</g>
<!-- Node5 -->
<g id="node5" class="node">
<title>Node5</title>
<g id="a_node5"><a xlink:title=" ">
<polygon fill="#e0e0e0" stroke="#999999" points="172,-129 120,-129 120,-110 172,-110 172,-129"/>
<text text-anchor="middle" x="146" y="-117" font-family="Helvetica,sans-Serif" font-size="10.00" fill="#000000">memory</text>
</a>
</g>
</g>
<!-- Node4&#45;&gt;Node5 -->
<g id="edge4" class="edge">
<title>Node4&#45;&gt;Node5</title>
<path fill="none" stroke="#63b8ff" d="M483.9599,-282.669C431.4853,-278.9982 328.2881,-268.3869 246,-239 199.6915,-222.4622 175.9628,-225.7601 150,-184 141.7623,-170.75 141.2939,-152.8624 142.5849,-139.2855"/>
<polygon fill="#63b8ff" stroke="#63b8ff" points="146.0917,-139.4675 143.9511,-129.0912 139.1537,-138.5377 146.0917,-139.4675"/>
</g>
<!-- Node6 -->
<g id="node6" class="node">
<title>Node6</title>
<g id="a_node6"><a xlink:title=" ">
<polygon fill="#e0e0e0" stroke="#999999" points="888.5,-239 847.5,-239 847.5,-220 888.5,-220 888.5,-239"/>
<text text-anchor="middle" x="868" y="-227" font-family="Helvetica,sans-Serif" font-size="10.00" fill="#000000">stack</text>
</a>
</g>
</g>
<!-- Node4&#45;&gt;Node6 -->
<g id="edge5" class="edge">
<title>Node4&#45;&gt;Node6</title>
<path fill="none" stroke="#63b8ff" d="M552.2646,-280.9331C610.3789,-274.5757 731.8208,-259.9579 833,-239 834.4643,-238.6967 835.9581,-238.3679 837.4634,-238.021"/>
<polygon fill="#63b8ff" stroke="#63b8ff" points="838.5185,-241.365 847.3722,-235.5458 836.822,-234.5737 838.5185,-241.365"/>
</g>
<!-- Node7 -->
<g id="node7" class="node">
<title>Node7</title>
<g id="a_node7"><a xlink:title=" ">
<polygon fill="#e0e0e0" stroke="#999999" points="998,-129 944,-129 944,-110 998,-110 998,-129"/>
<text text-anchor="middle" x="971" y="-117" font-family="Helvetica,sans-Serif" font-size="10.00" fill="#000000">iostream</text>
</a>
</g>
</g>
<!-- Node4&#45;&gt;Node7 -->
<g id="edge6" class="edge">
<title>Node4&#45;&gt;Node7</title>
<path fill="none" stroke="#63b8ff" d="M546.123,-274.9834C572.8846,-265.8856 614.2577,-251.7115 650,-239 754.8683,-201.7042 877.9854,-155.0647 936.6074,-132.6817"/>
<polygon fill="#63b8ff" stroke="#63b8ff" points="938.0263,-135.8864 946.1179,-129.047 935.5274,-129.3476 938.0263,-135.8864"/>
</g>
<!-- Node8 -->
<g id="node8" class="node">
<title>Node8</title>
<g id="a_node8"><a xlink:title=" ">
<polygon fill="#e0e0e0" stroke="#999999" points="1066,-129 1016,-129 1016,-110 1066,-110 1066,-129"/>
<text text-anchor="middle" x="1041" y="-117" font-family="Helvetica,sans-Serif" font-size="10.00" fill="#000000">fstream</text>
</a>
</g>
</g>
<!-- Node4&#45;&gt;Node8 -->
<g id="edge7" class="edge">
<title>Node4&#45;&gt;Node8</title>
<path fill="none" stroke="#63b8ff" d="M552.1573,-282.8948C633.42,-278.6809 836.086,-265.7363 898,-239 952.6761,-215.3892 1002.6587,-163.947 1026.4278,-136.9058"/>
<polygon fill="#63b8ff" stroke="#63b8ff" points="1029.3208,-138.9102 1033.1967,-129.0498 1024.0177,-134.341 1029.3208,-138.9102"/>
</g>
<!-- Node9 -->
<g id="node9" class="node">
<title>Node9</title>
<g id="a_node9"><a xlink:href="../../d9/d49/types_8h.html" target="_top" xlink:title="This file contains a number of basic enums and types.">
<polygon fill="#ffffff" stroke="#666666" points="455.5,-184 406.5,-184 406.5,-165 455.5,-165 455.5,-184"/>
<text text-anchor="middle" x="431" y="-172" font-family="Helvetica,sans-Serif" font-size="10.00" fill="#000000">types.h</text>
</a>
</g>
</g>
<!-- Node4&#45;&gt;Node9 -->
<g id="edge8" class="edge">
<title>Node4&#45;&gt;Node9</title>
<path fill="none" stroke="#63b8ff" d="M510.2793,-274.7382C495.603,-256.1819 463.4923,-215.5822 444.9546,-192.1438"/>
<polygon fill="#63b8ff" stroke="#63b8ff" points="447.5277,-189.755 438.5791,-184.0828 442.0374,-194.0974 447.5277,-189.755"/>
</g>
<!-- Node20 -->
<g id="node20" class="node">
<title>Node20</title>
<g id="a_node20"><a xlink:href="../../d1/db5/index_8h.html" target="_top" xlink:title=" ">
<polygon fill="#ffffff" stroke="#666666" points="417,-239 369,-239 369,-220 417,-220 417,-239"/>
<text text-anchor="middle" x="393" y="-227" font-family="Helvetica,sans-Serif" font-size="10.00" fill="#000000">index.h</text>
</a>
</g>
</g>
<!-- Node4&#45;&gt;Node20 -->
<g id="edge21" class="edge">
<title>Node4&#45;&gt;Node20</title>
<path fill="none" stroke="#63b8ff" d="M496.2267,-274.9197C476.3631,-266.1798 446.7785,-253.1625 424.3668,-243.3014"/>
<polygon fill="#63b8ff" stroke="#63b8ff" points="425.506,-239.9789 414.9432,-239.155 422.6868,-246.3861 425.506,-239.9789"/>
</g>
<!-- Node21 -->
<g id="node21" class="node">
<title>Node21</title>
<g id="a_node21"><a xlink:href="../../d1/d2a/section_8h.html" target="_top" xlink:title=" ">
<polygon fill="#ffffff" stroke="#666666" points="575,-239 519,-239 519,-220 575,-220 575,-239"/>
<text text-anchor="middle" x="547" y="-227" font-family="Helvetica,sans-Serif" font-size="10.00" fill="#000000">section.h</text>
</a>
</g>
</g>
<!-- Node4&#45;&gt;Node21 -->
<g id="edge23" class="edge">
<title>Node4&#45;&gt;Node21</title>
<path fill="none" stroke="#63b8ff" d="M523.0514,-274.9197C526.9126,-267.5967 532.3572,-257.2709 537.0795,-248.3147"/>
<polygon fill="#63b8ff" stroke="#63b8ff" points="540.2431,-249.819 541.8112,-239.3408 534.0511,-246.5541 540.2431,-249.819"/>
</g>
<!-- Node25 -->
<g id="node25" class="node">
<title>Node25</title>
<g id="a_node25"><a xlink:href="../../d4/d7d/textstream_8h.html" target="_top" xlink:title=" ">
<polygon fill="#ffffff" stroke="#666666" points="790.5,-184 719.5,-184 719.5,-165 790.5,-165 790.5,-184"/>
<text text-anchor="middle" x="755" y="-172" font-family="Helvetica,sans-Serif" font-size="10.00" fill="#000000">textstream.h</text>
</a>
</g>
</g>
<!-- Node4&#45;&gt;Node25 -->
<g id="edge35" class="edge">
<title>Node4&#45;&gt;Node25</title>
<path fill="none" stroke="#63b8ff" d="M538.6176,-274.9306C580.6384,-255.4273 676.3317,-211.0127 725.152,-188.3535"/>
<polygon fill="#63b8ff" stroke="#63b8ff" points="726.6642,-191.5103 734.2613,-184.1256 723.7172,-185.1609 726.6642,-191.5103"/>
</g>
<!-- Node28 -->
<g id="node28" class="node">
<title>Node28</title>
<g id="a_node28"><a xlink:href="../../de/d9c/docparser_8h.html" target="_top" xlink:title=" ">
<polygon fill="#ffffff" stroke="#666666" points="323,-239 255,-239 255,-220 323,-220 323,-239"/>
<text text-anchor="middle" x="289" y="-227" font-family="Helvetica,sans-Serif" font-size="10.00" fill="#000000">docparser.h</text>
</a>
</g>
</g>
<!-- Node4&#45;&gt;Node28 -->
<g id="edge44" class="edge">
<title>Node4&#45;&gt;Node28</title>
<path fill="none" stroke="#63b8ff" d="M483.7164,-276.2659C443.5493,-266.6188 376.9145,-250.6148 332.9751,-240.0617"/>
<polygon fill="#63b8ff" stroke="#63b8ff" points="333.6844,-236.6326 323.1435,-237.7004 332.0496,-243.439 333.6844,-236.6326"/>
</g>
<!-- Node10 -->
<g id="node10" class="node">
<title>Node10</title>
<g id="a_node10"><a xlink:href="../../d7/d5c/qcstring_8h.html" target="_top" xlink:title=" ">
<polygon fill="#ffffff" stroke="#666666" points="407.5,-129 348.5,-129 348.5,-110 407.5,-110 407.5,-129"/>
<text text-anchor="middle" x="378" y="-117" font-family="Helvetica,sans-Serif" font-size="10.00" fill="#000000">qcstring.h</text>
</a>
</g>
</g>
<!-- Node9&#45;&gt;Node10 -->
<g id="edge9" class="edge">
<title>Node9&#45;&gt;Node10</title>
<path fill="none" stroke="#63b8ff" d="M421.7681,-164.9197C414.2609,-157.1293 403.479,-145.9405 394.4951,-136.6176"/>
<polygon fill="#63b8ff" stroke="#63b8ff" points="396.9422,-134.113 387.483,-129.3408 391.9017,-138.9703 396.9422,-134.113"/>
</g>
<!-- Node11 -->
<g id="node11" class="node">
<title>Node11</title>
<g id="a_node11"><a xlink:title=" ">
<polygon fill="#e0e0e0" stroke="#999999" points="674.5,-19 633.5,-19 633.5,0 674.5,0 674.5,-19"/>
<text text-anchor="middle" x="654" y="-7" font-family="Helvetica,sans-Serif" font-size="10.00" fill="#000000">string</text>
</a>
</g>
</g>
<!-- Node10&#45;&gt;Node11 -->
<g id="edge10" class="edge">
<title>Node10&#45;&gt;Node11</title>
<path fill="none" stroke="#63b8ff" d="M377.8755,-109.9982C378.2421,-95.7894 381.1648,-69.1648 397,-55 429.9742,-25.5041 562.1802,-14.5324 623.0448,-10.9869"/>
<polygon fill="#63b8ff" stroke="#63b8ff" points="623.4077,-14.4723 633.1995,-10.4262 623.0217,-7.483 623.4077,-14.4723"/>
</g>
<!-- Node12 -->
<g id="node12" class="node">
<title>Node12</title>
<g id="a_node12"><a xlink:title=" ">
<polygon fill="#e0e0e0" stroke="#999999" points="462,-74 406,-74 406,-55 462,-55 462,-74"/>
<text text-anchor="middle" x="434" y="-62" font-family="Helvetica,sans-Serif" font-size="10.00" fill="#000000">algorithm</text>
</a>
</g>
</g>
<!-- Node10&#45;&gt;Node12 -->
<g id="edge11" class="edge">
<title>Node10&#45;&gt;Node12</title>
<path fill="none" stroke="#63b8ff" d="M387.7545,-109.9197C395.6865,-102.1293 407.0788,-90.9405 416.5712,-81.6176"/>
<polygon fill="#63b8ff" stroke="#63b8ff" points="419.2982,-83.845 423.9802,-74.3408 414.3932,-78.8509 419.2982,-83.845"/>
</g>
<!-- Node13 -->
<g id="node13" class="node">
<title>Node13</title>
<g id="a_node13"><a xlink:title=" ">
<polygon fill="#e0e0e0" stroke="#999999" points="526,-74 480,-74 480,-55 526,-55 526,-74"/>
<text text-anchor="middle" x="503" y="-62" font-family="Helvetica,sans-Serif" font-size="10.00" fill="#000000">cctype</text>
</a>
</g>
</g>
<!-- Node10&#45;&gt;Node13 -->
<g id="edge12" class="edge">
<title>Node10&#45;&gt;Node13</title>
<path fill="none" stroke="#63b8ff" d="M399.7733,-109.9197C419.6369,-101.1798 449.2215,-88.1625 471.6332,-78.3014"/>
<polygon fill="#63b8ff" stroke="#63b8ff" points="473.3132,-81.3861 481.0568,-74.155 470.494,-74.9789 473.3132,-81.3861"/>
</g>
<!-- Node14 -->
<g id="node14" class="node">
<title>Node14</title>
<g id="a_node14"><a xlink:title=" ">
<polygon fill="#e0e0e0" stroke="#999999" points="290,-74 244,-74 244,-55 290,-55 290,-74"/>
<text text-anchor="middle" x="267" y="-62" font-family="Helvetica,sans-Serif" font-size="10.00" fill="#000000">cstring</text>
</a>
</g>
</g>
<!-- Node10&#45;&gt;Node14 -->
<g id="edge13" class="edge">
<title>Node10&#45;&gt;Node14</title>
<path fill="none" stroke="#63b8ff" d="M358.6653,-109.9197C341.2637,-101.2973 315.4606,-88.512 295.6604,-78.7011"/>
<polygon fill="#63b8ff" stroke="#63b8ff" points="296.9999,-75.4588 286.4856,-74.155 293.892,-81.731 296.9999,-75.4588"/>
</g>
<!-- Node15 -->
<g id="node15" class="node">
<title>Node15</title>
<g id="a_node15"><a xlink:title=" ">
<polygon fill="#e0e0e0" stroke="#999999" points="587.5,-74 544.5,-74 544.5,-55 587.5,-55 587.5,-74"/>
<text text-anchor="middle" x="566" y="-62" font-family="Helvetica,sans-Serif" font-size="10.00" fill="#000000">cstdio</text>
</a>
</g>
</g>
<!-- Node10&#45;&gt;Node15 -->
<g id="edge14" class="edge">
<title>Node10&#45;&gt;Node15</title>
<path fill="none" stroke="#63b8ff" d="M407.5544,-111.0806C437.2301,-102.5946 484.5042,-88.9899 534.6128,-74.0835"/>
<polygon fill="#63b8ff" stroke="#63b8ff" points="535.7491,-77.397 544.3326,-71.1862 533.7494,-70.6887 535.7491,-77.397"/>
</g>
<!-- Node16 -->
<g id="node16" class="node">
<title>Node16</title>
<g id="a_node16"><a xlink:title=" ">
<polygon fill="#e0e0e0" stroke="#999999" points="117.5,-74 72.5,-74 72.5,-55 117.5,-55 117.5,-74"/>
<text text-anchor="middle" x="95" y="-62" font-family="Helvetica,sans-Serif" font-size="10.00" fill="#000000">cstdlib</text>
</a>
</g>
</g>
<!-- Node10&#45;&gt;Node16 -->
<g id="edge15" class="edge">
<title>Node10&#45;&gt;Node16</title>
<path fill="none" stroke="#63b8ff" d="M348.2881,-114.2035C290.6867,-103.9244 166.638,-81.7304 127.4581,-73.6984"/>
<polygon fill="#63b8ff" stroke="#63b8ff" points="128.1596,-70.2692 117.6431,-71.5551 126.6662,-77.108 128.1596,-70.2692"/>
</g>
<!-- Node17 -->
<g id="node17" class="node">
<title>Node17</title>
<g id="a_node17"><a xlink:title=" ">
<polygon fill="#e0e0e0" stroke="#999999" points="352,-19 306,-19 306,0 352,0 352,-19"/>
<text text-anchor="middle" x="329" y="-7" font-family="Helvetica,sans-Serif" font-size="10.00" fill="#000000">cstdint</text>
</a>
</g>
</g>
<!-- Node10&#45;&gt;Node17 -->
<g id="edge16" class="edge">
<title>Node10&#45;&gt;Node17</title>
<path fill="none" stroke="#63b8ff" d="M348.4757,-114.3065C310.6928,-106.9897 248.494,-92.4541 235,-74 215.436,-47.2446 261.6953,-27.8922 296.0304,-17.7069"/>
<polygon fill="#63b8ff" stroke="#63b8ff" points="297.0995,-21.042 305.7749,-14.9603 295.2004,-14.3045 297.0995,-21.042"/>
</g>
<!-- Node18 -->
<g id="node18" class="node">
<title>Node18</title>
<g id="a_node18"><a xlink:title=" ">
<polygon fill="#e0e0e0" stroke="#999999" points="188,-74 136,-74 136,-55 188,-55 188,-74"/>
<text text-anchor="middle" x="162" y="-62" font-family="Helvetica,sans-Serif" font-size="10.00" fill="#000000">ostream</text>
</a>
</g>
</g>
<!-- Node10&#45;&gt;Node18 -->
<g id="edge17" class="edge">
<title>Node10&#45;&gt;Node18</title>
<path fill="none" stroke="#63b8ff" d="M348.419,-111.9678C309.2454,-101.9931 240.2075,-84.4139 198.0351,-73.6756"/>
<polygon fill="#63b8ff" stroke="#63b8ff" points="198.7377,-70.2429 188.1832,-71.167 197.0103,-77.0264 198.7377,-70.2429"/>
</g>
<!-- Node19 -->
<g id="node19" class="node">
<title>Node19</title>
<g id="a_node19"><a xlink:href="../../db/d7c/utf8_8h.html" target="_top" xlink:title="Various UTF8 related helper functions.">
<polygon fill="#ffffff" stroke="#666666" points="349.5,-74 308.5,-74 308.5,-55 349.5,-55 349.5,-74"/>
<text text-anchor="middle" x="329" y="-62" font-family="Helvetica,sans-Serif" font-size="10.00" fill="#000000">utf8.h</text>
</a>
</g>
</g>
<!-- Node10&#45;&gt;Node19 -->
<g id="edge18" class="edge">
<title>Node10&#45;&gt;Node19</title>
<path fill="none" stroke="#63b8ff" d="M369.4649,-109.9197C362.5937,-102.2072 352.7551,-91.1639 344.4999,-81.8978"/>
<polygon fill="#63b8ff" stroke="#63b8ff" points="347.0327,-79.4792 337.7673,-74.3408 341.8061,-84.1357 347.0327,-79.4792"/>
</g>
<!-- Node19&#45;&gt;Node11 -->
<g id="edge20" class="edge">
<title>Node19&#45;&gt;Node11</title>
<path fill="none" stroke="#63b8ff" d="M349.6367,-58.4965C354.3345,-57.2422 359.3203,-55.9991 364,-55 457.7215,-34.9911 570.2303,-19.8271 623.3572,-13.1865"/>
<polygon fill="#63b8ff" stroke="#63b8ff" points="623.9715,-16.6373 633.4664,-11.9365 623.1125,-9.6902 623.9715,-16.6373"/>
</g>
<!-- Node19&#45;&gt;Node17 -->
<g id="edge19" class="edge">
<title>Node19&#45;&gt;Node17</title>
<path fill="none" stroke="#63b8ff" d="M329,-54.9197C329,-47.9083 329,-38.1442 329,-29.4652"/>
<polygon fill="#63b8ff" stroke="#63b8ff" points="332.5001,-29.3408 329,-19.3408 325.5001,-29.3409 332.5001,-29.3408"/>
</g>
<!-- Node20&#45;&gt;Node10 -->
<g id="edge22" class="edge">
<title>Node20&#45;&gt;Node10</title>
<path fill="none" stroke="#63b8ff" d="M391.6689,-219.7382C389.2053,-201.6724 383.8927,-162.713 380.6642,-139.0376"/>
<polygon fill="#63b8ff" stroke="#63b8ff" points="384.1259,-138.5182 379.3067,-129.0828 377.1901,-139.4641 384.1259,-138.5182"/>
</g>
<!-- Node21&#45;&gt;Node10 -->
<g id="edge26" class="edge">
<title>Node21&#45;&gt;Node10</title>
<path fill="none" stroke="#63b8ff" d="M536.0831,-219.8387C520.8128,-206.5808 491.9178,-182.413 465,-165 446.7661,-153.2046 425.1328,-141.8802 408.0001,-133.4795"/>
<polygon fill="#63b8ff" stroke="#63b8ff" points="409.5219,-130.3277 398.9951,-129.1288 406.4766,-136.6306 409.5219,-130.3277"/>
</g>
<!-- Node21&#45;&gt;Node11 -->
<g id="edge24" class="edge">
<title>Node21&#45;&gt;Node11</title>
<path fill="none" stroke="#63b8ff" d="M563.1743,-219.9538C576.0597,-211.7153 593.8864,-198.8242 606,-184 643.6895,-137.8769 651.8811,-64.3752 653.5946,-29.3349"/>
<polygon fill="#63b8ff" stroke="#63b8ff" points="657.1037,-29.1391 653.9606,-19.0213 650.1081,-28.8908 657.1037,-29.1391"/>
</g>
<!-- Node22 -->
<g id="node22" class="node">
<title>Node22</title>
<g id="a_node22"><a xlink:title=" ">
<polygon fill="#e0e0e0" stroke="#999999" points="623.5,-129 540.5,-129 540.5,-110 623.5,-110 623.5,-129"/>
<text text-anchor="middle" x="582" y="-117" font-family="Helvetica,sans-Serif" font-size="10.00" fill="#000000">unordered_map</text>
</a>
</g>
</g>
<!-- Node21&#45;&gt;Node22 -->
<g id="edge25" class="edge">
<title>Node21&#45;&gt;Node22</title>
<path fill="none" stroke="#63b8ff" d="M561.0582,-219.7554C571.5194,-211.5808 584.9848,-198.8732 591,-184 596.887,-169.4436 593.7383,-151.699 589.6248,-138.5089"/>
<polygon fill="#63b8ff" stroke="#63b8ff" points="592.9136,-137.3108 586.2732,-129.0551 586.3159,-139.6499 592.9136,-137.3108"/>
</g>
<!-- Node23 -->
<g id="node23" class="node">
<title>Node23</title>
<g id="a_node23"><a xlink:href="../../da/de1/linkedmap_8h.html" target="_top" xlink:title=" ">
<polygon fill="#ffffff" stroke="#666666" points="581.5,-184 512.5,-184 512.5,-165 581.5,-165 581.5,-184"/>
<text text-anchor="middle" x="547" y="-172" font-family="Helvetica,sans-Serif" font-size="10.00" fill="#000000">linkedmap.h</text>
</a>
</g>
</g>
<!-- Node21&#45;&gt;Node23 -->
<g id="edge27" class="edge">
<title>Node21&#45;&gt;Node23</title>
<path fill="none" stroke="#63b8ff" d="M547,-219.9197C547,-212.9083 547,-203.1442 547,-194.4652"/>
<polygon fill="#63b8ff" stroke="#63b8ff" points="550.5001,-194.3408 547,-184.3408 543.5001,-194.3409 550.5001,-194.3408"/>
</g>
<!-- Node23&#45;&gt;Node5 -->
<g id="edge30" class="edge">
<title>Node23&#45;&gt;Node5</title>
<path fill="none" stroke="#63b8ff" d="M512.423,-170.4843C432.9523,-161.2171 240.2138,-138.5145 182.2574,-128.8614"/>
<polygon fill="#63b8ff" stroke="#63b8ff" points="182.7418,-125.3924 172.2792,-127.0608 181.4987,-132.2811 182.7418,-125.3924"/>
</g>
<!-- Node23&#45;&gt;Node10 -->
<g id="edge34" class="edge">
<title>Node23&#45;&gt;Node10</title>
<path fill="none" stroke="#63b8ff" d="M517.5624,-164.9197C489.6581,-155.8384 447.5645,-142.1393 416.9038,-132.161"/>
<polygon fill="#63b8ff" stroke="#63b8ff" points="417.9755,-128.8292 407.3832,-129.0626 415.8092,-135.4855 417.9755,-128.8292"/>
</g>
<!-- Node23&#45;&gt;Node11 -->
<g id="edge31" class="edge">
<title>Node23&#45;&gt;Node11</title>
<path fill="none" stroke="#63b8ff" d="M540.5114,-164.6475C532.6694,-151.3817 521.7272,-127.4326 532,-110 548.7659,-81.5487 571.2475,-94.673 597,-74 614.016,-60.3403 630.1646,-41.2793 640.8996,-27.4224"/>
<polygon fill="#63b8ff" stroke="#63b8ff" points="643.8931,-29.2663 647.1269,-19.177 638.3072,-25.0475 643.8931,-29.2663"/>
</g>
<!-- Node23&#45;&gt;Node12 -->
<g id="edge32" class="edge">
<title>Node23&#45;&gt;Node12</title>
<path fill="none" stroke="#63b8ff" d="M533.2975,-164.671C521.3782,-155.8673 503.8873,-142.3252 490,-129 474.5513,-114.1766 458.7165,-95.5583 447.8447,-82.1402"/>
<polygon fill="#63b8ff" stroke="#63b8ff" points="450.4484,-79.792 441.4709,-74.1657 444.9803,-84.1624 450.4484,-79.792"/>
</g>
<!-- Node23&#45;&gt;Node13 -->
<g id="edge33" class="edge">
<title>Node23&#45;&gt;Node13</title>
<path fill="none" stroke="#63b8ff" d="M530.9068,-164.7923C519.3507,-156.8044 504.682,-144.3233 498,-129 491.827,-114.8441 493.7276,-97.2873 496.8098,-84.0668"/>
<polygon fill="#63b8ff" stroke="#63b8ff" points="500.2596,-84.7206 499.5255,-74.1512 493.5082,-82.8715 500.2596,-84.7206"/>
</g>
<!-- Node23&#45;&gt;Node22 -->
<g id="edge28" class="edge">
<title>Node23&#45;&gt;Node22</title>
<path fill="none" stroke="#63b8ff" d="M553.0965,-164.9197C557.8062,-157.5188 564.4676,-147.0509 570.2086,-138.0294"/>
<polygon fill="#63b8ff" stroke="#63b8ff" points="573.3217,-139.6565 575.7377,-129.3408 567.416,-135.8984 573.3217,-139.6565"/>
</g>
<!-- Node24 -->
<g id="node24" class="node">
<title>Node24</title>
<g id="a_node24"><a xlink:title=" ">
<polygon fill="#e0e0e0" stroke="#999999" points="315,-129 271,-129 271,-110 315,-110 315,-129"/>
<text text-anchor="middle" x="293" y="-117" font-family="Helvetica,sans-Serif" font-size="10.00" fill="#000000">vector</text>
</a>
</g>
</g>
<!-- Node23&#45;&gt;Node24 -->
<g id="edge29" class="edge">
<title>Node23&#45;&gt;Node24</title>
<path fill="none" stroke="#63b8ff" d="M512.4801,-167.0252C463.0699,-156.3262 372.8694,-136.7945 324.9313,-126.4143"/>
<polygon fill="#63b8ff" stroke="#63b8ff" points="325.6086,-122.9799 315.0943,-124.2842 324.1271,-129.8213 325.6086,-122.9799"/>
</g>
<!-- Node25&#45;&gt;Node7 -->
<g id="edge37" class="edge">
<title>Node25&#45;&gt;Node7</title>
<path fill="none" stroke="#63b8ff" d="M790.668,-165.4179C830.2402,-155.3416 893.7905,-139.1598 933.9218,-128.9412"/>
<polygon fill="#63b8ff" stroke="#63b8ff" points="935.0112,-132.2756 943.8383,-126.4162 933.2838,-125.492 935.0112,-132.2756"/>
</g>
<!-- Node25&#45;&gt;Node8 -->
<g id="edge41" class="edge">
<title>Node25&#45;&gt;Node8</title>
<path fill="none" stroke="#63b8ff" d="M790.6869,-169.1385C837.8446,-161.8173 923.6637,-147.6787 1006.0492,-129.0536"/>
<polygon fill="#63b8ff" stroke="#63b8ff" points="1006.8481,-132.4613 1015.8164,-126.8203 1005.2878,-125.6374 1006.8481,-132.4613"/>
</g>
<!-- Node25&#45;&gt;Node10 -->
<g id="edge43" class="edge">
<title>Node25&#45;&gt;Node10</title>
<path fill="none" stroke="#63b8ff" d="M719.1929,-169.2761C648.5936,-158.9765 491.8931,-136.1157 418.0147,-125.3377"/>
<polygon fill="#63b8ff" stroke="#63b8ff" points="418.1362,-121.8184 407.7356,-123.8381 417.1256,-128.7451 418.1362,-121.8184"/>
</g>
<!-- Node25&#45;&gt;Node11 -->
<g id="edge36" class="edge">
<title>Node25&#45;&gt;Node11</title>
<path fill="none" stroke="#63b8ff" d="M790.6157,-168.0191C828.3881,-160.3357 884.3351,-146.3572 897,-129 901.9774,-122.1784 901.6934,-117.02 897,-110 848.8294,-37.9498 738.4686,-17.4925 684.6461,-11.7309"/>
<polygon fill="#63b8ff" stroke="#63b8ff" points="684.9617,-8.2452 674.6706,-10.7636 684.2861,-15.2126 684.9617,-8.2452"/>
</g>
<!-- Node25&#45;&gt;Node15 -->
<g id="edge40" class="edge">
<title>Node25&#45;&gt;Node15</title>
<path fill="none" stroke="#63b8ff" d="M738.5581,-164.9306C705.4668,-145.6711 630.6366,-102.1192 591.2802,-79.2133"/>
<polygon fill="#63b8ff" stroke="#63b8ff" points="592.9418,-76.1308 582.5385,-74.1256 589.4207,-82.1808 592.9418,-76.1308"/>
</g>
<!-- Node25&#45;&gt;Node17 -->
<g id="edge39" class="edge">
<title>Node25&#45;&gt;Node17</title>
<path fill="none" stroke="#63b8ff" d="M745.7765,-164.7029C723.0416,-141.2448 661.4621,-81.8153 597,-55 554.9853,-37.5225 424.1917,-20.5573 362.2143,-13.2502"/>
<polygon fill="#63b8ff" stroke="#63b8ff" points="362.5172,-9.7619 352.1793,-12.0808 361.7069,-16.7149 362.5172,-9.7619"/>
</g>
<!-- Node26 -->
<g id="node26" class="node">
<title>Node26</title>
<g id="a_node26"><a xlink:title=" ">
<polygon fill="#e0e0e0" stroke="#999999" points="808,-129 756,-129 756,-110 808,-110 808,-129"/>
<text text-anchor="middle" x="782" y="-117" font-family="Helvetica,sans-Serif" font-size="10.00" fill="#000000">sstream</text>
</a>
</g>
</g>
<!-- Node25&#45;&gt;Node26 -->
<g id="edge38" class="edge">
<title>Node25&#45;&gt;Node26</title>
<path fill="none" stroke="#63b8ff" d="M759.703,-164.9197C763.2597,-157.6746 768.2593,-147.4903 772.6231,-138.601"/>
<polygon fill="#63b8ff" stroke="#63b8ff" points="775.9041,-139.8599 777.169,-129.3408 769.6204,-136.7751 775.9041,-139.8599"/>
</g>
<!-- Node27 -->
<g id="node27" class="node">
<title>Node27</title>
<g id="a_node27"><a xlink:title=" ">
<polygon fill="#e0e0e0" stroke="#999999" points="888,-129 826,-129 826,-110 888,-110 888,-129"/>
<text text-anchor="middle" x="857" y="-117" font-family="Helvetica,sans-Serif" font-size="10.00" fill="#000000">type_traits</text>
</a>
</g>
</g>
<!-- Node25&#45;&gt;Node27 -->
<g id="edge42" class="edge">
<title>Node25&#45;&gt;Node27</title>
<path fill="none" stroke="#63b8ff" d="M772.767,-164.9197C788.6123,-156.3757 812.0382,-143.7441 830.1659,-133.9694"/>
<polygon fill="#63b8ff" stroke="#63b8ff" points="831.9535,-136.9819 839.0943,-129.155 828.6312,-130.8205 831.9535,-136.9819"/>
</g>
<!-- Node28&#45;&gt;Node5 -->
<g id="edge46" class="edge">
<title>Node28&#45;&gt;Node5</title>
<path fill="none" stroke="#63b8ff" d="M254.9225,-225.4687C227.0466,-220.409 188.5165,-209.1023 165,-184 153.6644,-171.9 149.0586,-153.3724 147.2042,-139.274"/>
<polygon fill="#63b8ff" stroke="#63b8ff" points="150.6696,-138.7445 146.231,-129.1243 143.7016,-139.4127 150.6696,-138.7445"/>
</g>
<!-- Node28&#45;&gt;Node10 -->
<g id="edge47" class="edge">
<title>Node28&#45;&gt;Node10</title>
<path fill="none" stroke="#63b8ff" d="M296.8982,-219.7382C311.9119,-201.1819 344.7608,-160.5822 363.7246,-137.1438"/>
<polygon fill="#63b8ff" stroke="#63b8ff" points="366.6776,-139.0584 370.2466,-129.0828 361.2357,-134.6554 366.6776,-139.0584"/>
</g>
<!-- Node29 -->
<g id="node29" class="node">
<title>Node29</title>
<g id="a_node29"><a xlink:title=" ">
<polygon fill="#e0e0e0" stroke="#999999" points="312,-184 266,-184 266,-165 312,-165 312,-184"/>
<text text-anchor="middle" x="289" y="-172" font-family="Helvetica,sans-Serif" font-size="10.00" fill="#000000">stdio.h</text>
</a>
</g>
</g>
<!-- Node28&#45;&gt;Node29 -->
<g id="edge45" class="edge">
<title>Node28&#45;&gt;Node29</title>
<path fill="none" stroke="#63b8ff" d="M289,-219.9197C289,-212.9083 289,-203.1442 289,-194.4652"/>
<polygon fill="#63b8ff" stroke="#63b8ff" points="292.5001,-194.3408 289,-184.3408 285.5001,-194.3409 292.5001,-194.3408"/>
</g>
<!-- Node30 -->
<g id="node30" class="node">
<title>Node30</title>
<g id="a_node30"><a xlink:href="../../d7/d50/growvector_8h.html" target="_top" xlink:title=" ">
<polygon fill="#ffffff" stroke="#666666" points="247.5,-184 174.5,-184 174.5,-165 247.5,-165 247.5,-184"/>
<text text-anchor="middle" x="211" y="-172" font-family="Helvetica,sans-Serif" font-size="10.00" fill="#000000">growvector.h</text>
</a>
</g>
</g>
<!-- Node28&#45;&gt;Node30 -->
<g id="edge48" class="edge">
<title>Node28&#45;&gt;Node30</title>
<path fill="none" stroke="#63b8ff" d="M275.4134,-219.9197C263.7411,-211.6893 246.6895,-199.6657 233.0622,-190.0567"/>
<polygon fill="#63b8ff" stroke="#63b8ff" points="234.8821,-187.0574 224.6926,-184.155 230.8482,-192.7782 234.8821,-187.0574"/>
</g>
<!-- Node30&#45;&gt;Node5 -->
<g id="edge50" class="edge">
<title>Node30&#45;&gt;Node5</title>
<path fill="none" stroke="#63b8ff" d="M199.6779,-164.9197C190.2868,-156.9735 176.7173,-145.4916 165.5715,-136.0605"/>
<polygon fill="#63b8ff" stroke="#63b8ff" points="167.5248,-133.1284 157.6301,-129.3408 163.0031,-138.4721 167.5248,-133.1284"/>
</g>
<!-- Node30&#45;&gt;Node24 -->
<g id="edge49" class="edge">
<title>Node30&#45;&gt;Node24</title>
<path fill="none" stroke="#63b8ff" d="M225.2833,-164.9197C237.6711,-156.6109 255.8222,-144.4363 270.2147,-134.7828"/>
<polygon fill="#63b8ff" stroke="#63b8ff" points="272.25,-137.6321 278.6052,-129.155 268.3507,-131.8187 272.25,-137.6321"/>
</g>
<!-- Node31 -->
<g id="node31" class="node">
<title>Node31</title>
<g id="a_node31"><a xlink:title=" ">
<polygon fill="#e0e0e0" stroke="#999999" points="237.5,-129 190.5,-129 190.5,-110 237.5,-110 237.5,-129"/>
<text text-anchor="middle" x="214" y="-117" font-family="Helvetica,sans-Serif" font-size="10.00" fill="#000000">iterator</text>
</a>
</g>
</g>
<!-- Node30&#45;&gt;Node31 -->
<g id="edge51" class="edge">
<title>Node30&#45;&gt;Node31</title>
<path fill="none" stroke="#63b8ff" d="M211.5226,-164.9197C211.905,-157.9083 212.4376,-148.1442 212.911,-139.4652"/>
<polygon fill="#63b8ff" stroke="#63b8ff" points="216.4133,-139.5166 213.4632,-129.3408 209.4237,-139.1353 216.4133,-139.5166"/>
</g>
</g>
</svg>
        <g id="navigator" transform="translate(0 0)" fill="#404254">
                <rect fill="#f2f5e9" fill-opacity="0.5" stroke="#606060" stroke-width=".5" x="0" y="0" width="60" height="60"/>
                <use id="zoomplus" xlink:href="#zoomPlus" x="17" y="9" onmousedown="handleZoom(evt,'in')"/>
                <use id="zoomminus" xlink:href="#zoomMin" x="42" y="9" onmousedown="handleZoom(evt,'out')"/>
                <use id="reset" xlink:href="#resetDef" x="30" y="36" onmousedown="handleReset()"/>
                <g id="arrowUp" xlink:href="#dirArrow" transform="translate(30 24)" onmousedown="handlePan(0,-1)">
                  <use xlink:href="#rim" fill="#404040">
                        <set attributeName="fill" to="#808080" begin="arrowUp.mouseover" end="arrowUp.mouseout"/>
                  </use>
                  <path fill="none" stroke="white" stroke-width="1.5" d="M0,-3.0v7 M-2.5,-0.5L0,-3.0L2.5,-0.5"/>
                </g>
                <g id="arrowRight" xlink:href="#dirArrow" transform="rotate(90) translate(36 -43)" onmousedown="handlePan(1,0)">
                  <use xlink:href="#rim" fill="#404040">
                        <set attributeName="fill" to="#808080" begin="arrowRight.mouseover" end="arrowRight.mouseout"/>
                  </use>
                  <path fill="none" stroke="white" stroke-width="1.5" d="M0,-3.0v7 M-2.5,-0.5L0,-3.0L2.5,-0.5"/>
                </g>
                <g id="arrowDown" xlink:href="#dirArrow" transform="rotate(180) translate(-30 -48)" onmousedown="handlePan(0,1)">
                  <use xlink:href="#rim" fill="#404040">
                        <set attributeName="fill" to="#808080" begin="arrowDown.mouseover" end="arrowDown.mouseout"/>
                  </use>
                  <path fill="none" stroke="white" stroke-width="1.5" d="M0,-3.0v7 M-2.5,-0.5L0,-3.0L2.5,-0.5"/>
                </g>
                <g id="arrowLeft" xlink:href="#dirArrow" transform="rotate(270) translate(-36 17)" onmousedown="handlePan(-1,0)">
                  <use xlink:href="#rim" fill="#404040">
                        <set attributeName="fill" to="#808080" begin="arrowLeft.mouseover" end="arrowLeft.mouseout"/>
                  </use>
                  <path fill="none" stroke="white" stroke-width="1.5" d="M0,-3.0v7 M-2.5,-0.5L0,-3.0L2.5,-0.5"/>
                </g>
        </g>
        <svg viewBox="0 0 15 15" width="100%" height="30px" preserveAspectRatio="xMaxYMin meet">
         <g id="arrow_out" transform="scale(0.3 0.3)">
          <a xlink:href="latexgen_8h__incl_org.svg" target="_base">
           <rect id="button" ry="5" rx="5" y="6" x="6" height="38" width="38"
                fill="#f2f5e9" fill-opacity="0.5" stroke="#606060" stroke-width="1.0"/>
           <path id="arrow"
             d="M 11.500037,31.436501 C 11.940474,20.09759 22.043105,11.32322 32.158766,21.979434 L 37.068811,17.246167 C 37.068811,17.246167 37.088388,32 37.088388,32 L 22.160133,31.978069 C 22.160133,31.978069 26.997745,27.140456 26.997745,27.140456 C 18.528582,18.264221 13.291696,25.230495 11.500037,31.436501 z"
             style="fill:#404040;"/>
          </a>
         </g>
        </svg>
</svg>
