<?xml version="1.0" encoding="UTF-8" standalone="no"?>
<!DOCTYPE svg PUBLIC "-//W3C//DTD SVG 1.1//EN"
 "http://www.w3.org/Graphics/SVG/1.1/DTD/svg11.dtd">
<!-- Generated by graphviz version 2.40.1 (20161225.0304)
 -->
<!-- Title: lexscannerYY_state Pages: 1 -->
<svg width="299pt" height="193pt"
 viewBox="0.00 0.00 299.00 193.00" xmlns="http://www.w3.org/2000/svg" xmlns:xlink="http://www.w3.org/1999/xlink">
<g id="graph0" class="graph" transform="scale(1 1) rotate(0) translate(4 189)">
<title>lexscannerYY_state</title>
<!-- Node1 -->
<g id="node1" class="node">
<title>Node1</title>
<g id="a_node1"><a xlink:title=" ">
<polygon fill="#999999" stroke="#666666" points="200,-19 96,-19 96,0 200,0 200,-19"/>
<text text-anchor="middle" x="148" y="-7" font-family="Helvetica,sans-Serif" font-size="10.00" fill="#000000">lexscannerYY_state</text>
</a>
</g>
</g>
<!-- Node2 -->
<g id="node2" class="node">
<title>Node2</title>
<g id="a_node2"><a xlink:href="../../df/d21/class_c_outline_parser.html" target="_top" xlink:title="C&#45;like language parser using state&#45;based lexical scanning.">
<polygon fill="#ffffff" stroke="#666666" points="98.5,-129 15.5,-129 15.5,-110 98.5,-110 98.5,-129"/>
<text text-anchor="middle" x="57" y="-117" font-family="Helvetica,sans-Serif" font-size="10.00" fill="#000000">COutlineParser</text>
</a>
</g>
</g>
<!-- Node2&#45;&gt;Node1 -->
<g id="edge1" class="edge">
<title>Node2&#45;&gt;Node1</title>
<path fill="none" stroke="#9a32cd" stroke-dasharray="5,2" d="M56.5358,-99.6683C57.1602,-81.3254 60.8979,-54.3531 76,-37 83.1153,-28.8242 92.936,-23.0691 103.0379,-19.0212"/>
<polygon fill="#9a32cd" stroke="#9a32cd" points="53.0351,-99.7904 56.4757,-109.811 60.035,-99.8319 53.0351,-99.7904"/>
<text text-anchor="middle" x="110" y="-62" font-family="Helvetica,sans-Serif" font-size="10.00" fill="#000000"> cOutlineParser</text>
</g>
<!-- Node3 -->
<g id="node3" class="node">
<title>Node3</title>
<g id="a_node3"><a xlink:href="../../d5/d79/class_outline_parser_interface.html" target="_top" xlink:title="Abstract interface for outline parsers.">
<polygon fill="#ffffff" stroke="#666666" points="114,-185 0,-185 0,-166 114,-166 114,-185"/>
<text text-anchor="middle" x="57" y="-173" font-family="Helvetica,sans-Serif" font-size="10.00" fill="#000000">OutlineParserInterface</text>
</a>
</g>
</g>
<!-- Node3&#45;&gt;Node2 -->
<g id="edge2" class="edge">
<title>Node3&#45;&gt;Node2</title>
<path fill="none" stroke="#63b8ff" d="M57,-155.6575C57,-146.655 57,-136.4199 57,-129.1427"/>
<polygon fill="#63b8ff" stroke="#63b8ff" points="53.5001,-155.7455 57,-165.7455 60.5001,-155.7456 53.5001,-155.7455"/>
</g>
<!-- Node4 -->
<g id="node4" class="node">
<title>Node4</title>
<g id="a_node4"><a xlink:href="../../d9/d45/class_q_c_string.html" target="_top" xlink:title="This is an alternative implementation of QCString.">
<polygon fill="#ffffff" stroke="#666666" points="176.5,-129 119.5,-129 119.5,-110 176.5,-110 176.5,-129"/>
<text text-anchor="middle" x="148" y="-117" font-family="Helvetica,sans-Serif" font-size="10.00" fill="#000000">QCString</text>
</a>
</g>
</g>
<!-- Node4&#45;&gt;Node1 -->
<g id="edge3" class="edge">
<title>Node4&#45;&gt;Node1</title>
<path fill="none" stroke="#9a32cd" stroke-dasharray="5,2" d="M148,-99.7265C148,-75.9502 148,-37.0098 148,-19.0828"/>
<polygon fill="#9a32cd" stroke="#9a32cd" points="144.5001,-99.7382 148,-109.7382 151.5001,-99.7383 144.5001,-99.7382"/>
<text text-anchor="middle" x="181.5" y="-84" font-family="Helvetica,sans-Serif" font-size="10.00" fill="#000000"> cCodeBuffer</text>
<text text-anchor="middle" x="181.5" y="-73" font-family="Helvetica,sans-Serif" font-size="10.00" fill="#000000">delimiter</text>
<text text-anchor="middle" x="181.5" y="-62" font-family="Helvetica,sans-Serif" font-size="10.00" fill="#000000">docBlockName</text>
<text text-anchor="middle" x="181.5" y="-51" font-family="Helvetica,sans-Serif" font-size="10.00" fill="#000000">fileName</text>
<text text-anchor="middle" x="181.5" y="-40" font-family="Helvetica,sans-Serif" font-size="10.00" fill="#000000">prefix</text>
</g>
<!-- Node5 -->
<g id="node5" class="node">
<title>Node5</title>
<g id="a_node5"><a xlink:href="../../dd/df8/class_clang_t_u_parser.html" target="_top" xlink:title="Clang parser object for a single translation unit, which consists of a source file and the directly o...">
<polygon fill="#ffffff" stroke="#666666" points="280,-129 196,-129 196,-110 280,-110 280,-129"/>
<text text-anchor="middle" x="238" y="-117" font-family="Helvetica,sans-Serif" font-size="10.00" fill="#000000">ClangTUParser</text>
</a>
</g>
</g>
<!-- Node5&#45;&gt;Node1 -->
<g id="edge4" class="edge">
<title>Node5&#45;&gt;Node1</title>
<path fill="none" stroke="#9a32cd" stroke-dasharray="5,2" d="M237.574,-99.6842C236.1618,-81.3528 231.3602,-54.3883 216,-37 208.8338,-28.8876 198.9298,-23.1307 188.8961,-19.0593"/>
<polygon fill="#9a32cd" stroke="#9a32cd" points="234.0857,-100.0065 238.0795,-109.8197 241.077,-99.6578 234.0857,-100.0065"/>
<text text-anchor="middle" x="263.5" y="-62" font-family="Helvetica,sans-Serif" font-size="10.00" fill="#000000"> clangParser</text>
</g>
</g>
</svg>
