<?xml version="1.0" encoding="UTF-8" standalone="no"?>
<!DOCTYPE svg PUBLIC "-//W3C//DTD SVG 1.1//EN"
 "http://www.w3.org/Graphics/SVG/1.1/DTD/svg11.dtd">
<!-- Generated by graphviz version 2.43.0 (0)
 -->
<!-- Title: OutputList Pages: 1 -->
<svg width="229pt" height="149pt"
 viewBox="0.00 0.00 229.00 149.00" xmlns="http://www.w3.org/2000/svg" xmlns:xlink="http://www.w3.org/1999/xlink">
<g id="graph0" class="graph" transform="scale(1 1) rotate(0) translate(4 145)">
<title>OutputList</title>
<!-- Node1 -->
<g id="node1" class="node">
<title>Node1</title>
<g id="a_node1"><a xlink:title="Class representing a list of output generators that are written to in parallel.">
<polygon fill="#999999" stroke="#666666" points="134.5,-19 67.5,-19 67.5,0 134.5,0 134.5,-19"/>
<text text-anchor="middle" x="101" y="-7" font-family="Helvetica,sans-Serif" font-size="10.00">OutputList</text>
</a>
</g>
</g>
<!-- Node2 -->
<g id="node2" class="node">
<title>Node2</title>
<g id="a_node2"><a xlink:href="../../d2/dc1/class_s_i_data_collection.html" target="_top" xlink:title=" ">
<polygon fill="white" stroke="#666666" points="98,-85 0,-85 0,-66 98,-66 98,-85"/>
<text text-anchor="middle" x="49" y="-73" font-family="Helvetica,sans-Serif" font-size="10.00">SIDataCollection</text>
</a>
</g>
</g>
<!-- Node2&#45;&gt;Node1 -->
<g id="edge1" class="edge">
<title>Node2&#45;&gt;Node1</title>
<path fill="none" stroke="#9a32cd" stroke-dasharray="5,2" d="M50.53,-55.97C51.78,-49.5 54.02,-42.49 58,-37 63.56,-29.33 72.08,-23.42 80.07,-19.14"/>
<polygon fill="#9a32cd" stroke="#9a32cd" points="47.05,-55.62 49.22,-65.99 53.99,-56.53 47.05,-55.62"/>
<text text-anchor="middle" x="95" y="-40" font-family="Helvetica,sans-Serif" font-size="10.00" fill="grey"> m_searchData</text>
</g>
<!-- Node3 -->
<g id="node3" class="node">
<title>Node3</title>
<g id="a_node3"><a xlink:href="../../db/d8e/class_output_code_list.html" target="_top" xlink:title=" ">
<polygon fill="white" stroke="#666666" points="208,-85 116,-85 116,-66 208,-66 208,-85"/>
<text text-anchor="middle" x="162" y="-73" font-family="Helvetica,sans-Serif" font-size="10.00">OutputCodeList</text>
</a>
</g>
</g>
<!-- Node3&#45;&gt;Node1 -->
<g id="edge2" class="edge">
<title>Node3&#45;&gt;Node1</title>
<path fill="none" stroke="#9a32cd" stroke-dasharray="5,2" d="M149.48,-57.48C144.33,-50.85 138.14,-43.34 132,-37 125.8,-30.59 118.19,-24.07 112.06,-19.1"/>
<polygon fill="#9a32cd" stroke="#9a32cd" points="146.94,-59.91 155.76,-65.78 152.52,-55.69 146.94,-59.91"/>
<text text-anchor="middle" x="180.5" y="-40" font-family="Helvetica,sans-Serif" font-size="10.00" fill="grey"> m_codeGenList</text>
</g>
<!-- Node4 -->
<g id="node4" class="node">
<title>Node4</title>
<g id="a_node4"><a xlink:href="../../d5/d9c/class_code_output_interface.html" target="_top" xlink:title="Output interface for code parser.">
<polygon fill="white" stroke="#666666" points="221,-141 103,-141 103,-122 221,-122 221,-141"/>
<text text-anchor="middle" x="162" y="-129" font-family="Helvetica,sans-Serif" font-size="10.00">CodeOutputInterface</text>
</a>
</g>
</g>
<!-- Node4&#45;&gt;Node3 -->
<g id="edge3" class="edge">
<title>Node4&#45;&gt;Node3</title>
<path fill="none" stroke="#63b8ff" d="M162,-111.3C162,-102.41 162,-92.28 162,-85.25"/>
<polygon fill="#63b8ff" stroke="#63b8ff" points="158.5,-111.58 162,-121.58 165.5,-111.58 158.5,-111.58"/>
</g>
</g>
</svg>
