<?xml version="1.0" encoding="UTF-8" standalone="no"?>
<!DOCTYPE svg PUBLIC "-//W3C//DTD SVG 1.1//EN"
 "http://www.w3.org/Graphics/SVG/1.1/DTD/svg11.dtd">
<!-- Generated by graphviz version 2.40.1 (20161225.0304)
 -->
<!-- Title: src/configimpl.h Pages: 1 -->
<svg width="1099pt" height="192pt"
 viewBox="0.00 0.00 1098.81 192.00" xmlns="http://www.w3.org/2000/svg" xmlns:xlink="http://www.w3.org/1999/xlink">
<g id="graph0" class="graph" transform="scale(1 1) rotate(0) translate(4 188)">
<title>src/configimpl.h</title>
<!-- Node1 -->
<g id="node1" class="node">
<title>Node1</title>
<g id="a_node1"><a xlink:title=" ">
<polygon fill="#999999" stroke="#666666" points="219.8088,-184 133.8088,-184 133.8088,-165 219.8088,-165 219.8088,-184"/>
<text text-anchor="middle" x="176.8088" y="-172" font-family="Helvetica,sans-Serif" font-size="10.00" fill="#000000">src/configimpl.h</text>
</a>
</g>
</g>
<!-- Node2 -->
<g id="node2" class="node">
<title>Node2</title>
<g id="a_node2"><a xlink:title=" ">
<polygon fill="#e0e0e0" stroke="#999999" points="63.8088,-74 19.8088,-74 19.8088,-55 63.8088,-55 63.8088,-74"/>
<text text-anchor="middle" x="41.8088" y="-62" font-family="Helvetica,sans-Serif" font-size="10.00" fill="#000000">vector</text>
</a>
</g>
</g>
<!-- Node1&#45;&gt;Node2 -->
<g id="edge1" class="edge">
<title>Node1&#45;&gt;Node2</title>
<path fill="none" stroke="#63b8ff" d="M157.0805,-164.9798C140.8579,-156.6655 117.7103,-143.6565 99.8088,-129 82.7948,-115.07 66.3205,-96.0471 55.3055,-82.2728"/>
<polygon fill="#63b8ff" stroke="#63b8ff" points="57.821,-79.8078 48.9045,-74.0853 52.3063,-84.1192 57.821,-79.8078"/>
</g>
<!-- Node3 -->
<g id="node3" class="node">
<title>Node3</title>
<g id="a_node3"><a xlink:title=" ">
<polygon fill="#e0e0e0" stroke="#999999" points="165.3088,-74 82.3088,-74 82.3088,-55 165.3088,-55 165.3088,-74"/>
<text text-anchor="middle" x="123.8088" y="-62" font-family="Helvetica,sans-Serif" font-size="10.00" fill="#000000">unordered_map</text>
</a>
</g>
</g>
<!-- Node1&#45;&gt;Node3 -->
<g id="edge2" class="edge">
<title>Node1&#45;&gt;Node3</title>
<path fill="none" stroke="#63b8ff" d="M150.5799,-164.9794C134.8178,-157.737 116.0729,-146.0708 106.8088,-129 98.9861,-114.5852 105.0218,-96.379 111.9764,-82.9881"/>
<polygon fill="#63b8ff" stroke="#63b8ff" points="115.0718,-84.6262 117.0179,-74.2116 109.0019,-81.1395 115.0718,-84.6262"/>
</g>
<!-- Node4 -->
<g id="node4" class="node">
<title>Node4</title>
<g id="a_node4"><a xlink:title=" ">
<polygon fill="#e0e0e0" stroke="#999999" points="391.3088,-19 350.3088,-19 350.3088,0 391.3088,0 391.3088,-19"/>
<text text-anchor="middle" x="370.8088" y="-7" font-family="Helvetica,sans-Serif" font-size="10.00" fill="#000000">string</text>
</a>
</g>
</g>
<!-- Node1&#45;&gt;Node4 -->
<g id="edge3" class="edge">
<title>Node1&#45;&gt;Node4</title>
<path fill="none" stroke="#63b8ff" d="M140.5006,-164.8589C79.2431,-146.9219 -33.8081,-105.6109 10.8088,-55 32.485,-30.4118 256.8629,-15.73 340.0236,-11.0988"/>
<polygon fill="#63b8ff" stroke="#63b8ff" points="340.3219,-14.5878 350.1162,-10.5477 339.9402,-7.5982 340.3219,-14.5878"/>
</g>
<!-- Node5 -->
<g id="node5" class="node">
<title>Node5</title>
<g id="a_node5"><a xlink:title=" ">
<polygon fill="#e0e0e0" stroke="#999999" points="167.8088,-129 115.8088,-129 115.8088,-110 167.8088,-110 167.8088,-129"/>
<text text-anchor="middle" x="141.8088" y="-117" font-family="Helvetica,sans-Serif" font-size="10.00" fill="#000000">memory</text>
</a>
</g>
</g>
<!-- Node1&#45;&gt;Node5 -->
<g id="edge4" class="edge">
<title>Node1&#45;&gt;Node5</title>
<path fill="none" stroke="#63b8ff" d="M170.7123,-164.9197C166.0026,-157.5188 159.3412,-147.0509 153.6003,-138.0294"/>
<polygon fill="#63b8ff" stroke="#63b8ff" points="156.3928,-135.8984 148.0712,-129.3408 150.4872,-139.6565 156.3928,-135.8984"/>
</g>
<!-- Node6 -->
<g id="node6" class="node">
<title>Node6</title>
<g id="a_node6"><a xlink:title=" ">
<polygon fill="#e0e0e0" stroke="#999999" points="239.8088,-129 185.8088,-129 185.8088,-110 239.8088,-110 239.8088,-129"/>
<text text-anchor="middle" x="212.8088" y="-117" font-family="Helvetica,sans-Serif" font-size="10.00" fill="#000000">iostream</text>
</a>
</g>
</g>
<!-- Node1&#45;&gt;Node6 -->
<g id="edge5" class="edge">
<title>Node1&#45;&gt;Node6</title>
<path fill="none" stroke="#63b8ff" d="M183.0796,-164.9197C187.9748,-157.4409 194.92,-146.8301 200.8667,-137.745"/>
<polygon fill="#63b8ff" stroke="#63b8ff" points="203.8194,-139.6247 206.3676,-129.3408 197.9625,-135.791 203.8194,-139.6247"/>
</g>
<!-- Node7 -->
<g id="node7" class="node">
<title>Node7</title>
<g id="a_node7"><a xlink:href="../../d5/d75/containers_8h.html" target="_top" xlink:title=" ">
<polygon fill="#ffffff" stroke="#666666" points="327.8088,-129 257.8088,-129 257.8088,-110 327.8088,-110 327.8088,-129"/>
<text text-anchor="middle" x="292.8088" y="-117" font-family="Helvetica,sans-Serif" font-size="10.00" fill="#000000">containers.h</text>
</a>
</g>
</g>
<!-- Node1&#45;&gt;Node7 -->
<g id="edge6" class="edge">
<title>Node1&#45;&gt;Node7</title>
<path fill="none" stroke="#63b8ff" d="M197.0145,-164.9197C215.2826,-156.2581 242.4107,-143.3957 263.1392,-133.5675"/>
<polygon fill="#63b8ff" stroke="#63b8ff" points="264.9092,-136.6018 272.4455,-129.155 261.9102,-130.2768 264.9092,-136.6018"/>
</g>
<!-- Node12 -->
<g id="node12" class="node">
<title>Node12</title>
<g id="a_node12"><a xlink:href="../../d7/d5c/qcstring_8h.html" target="_top" xlink:title=" ">
<polygon fill="#ffffff" stroke="#666666" points="738.3088,-129 679.3088,-129 679.3088,-110 738.3088,-110 738.3088,-129"/>
<text text-anchor="middle" x="708.8088" y="-117" font-family="Helvetica,sans-Serif" font-size="10.00" fill="#000000">qcstring.h</text>
</a>
</g>
</g>
<!-- Node1&#45;&gt;Node12 -->
<g id="edge14" class="edge">
<title>Node1&#45;&gt;Node12</title>
<path fill="none" stroke="#63b8ff" d="M219.894,-170.0457C320.8508,-159.6084 571.5188,-133.6935 669.0713,-123.6082"/>
<polygon fill="#63b8ff" stroke="#63b8ff" points="669.5234,-127.0802 679.1104,-122.5703 668.8035,-120.1173 669.5234,-127.0802"/>
</g>
<!-- Node21 -->
<g id="node21" class="node">
<title>Node21</title>
<g id="a_node21"><a xlink:href="../../db/d16/config_8h.html" target="_top" xlink:title=" ">
<polygon fill="#ffffff" stroke="#666666" points="957.3088,-129 906.3088,-129 906.3088,-110 957.3088,-110 957.3088,-129"/>
<text text-anchor="middle" x="931.8088" y="-117" font-family="Helvetica,sans-Serif" font-size="10.00" fill="#000000">config.h</text>
</a>
</g>
</g>
<!-- Node1&#45;&gt;Node21 -->
<g id="edge26" class="edge">
<title>Node1&#45;&gt;Node21</title>
<path fill="none" stroke="#63b8ff" d="M219.838,-171.3654C355.1751,-161.5064 770.6008,-131.2436 895.7564,-122.1263"/>
<polygon fill="#63b8ff" stroke="#63b8ff" points="896.2265,-125.6015 905.9458,-121.3841 895.7179,-118.62 896.2265,-125.6015"/>
</g>
<!-- Node7&#45;&gt;Node2 -->
<g id="edge7" class="edge">
<title>Node7&#45;&gt;Node2</title>
<path fill="none" stroke="#63b8ff" d="M257.7517,-111.8949C254.7279,-111.2498 251.715,-110.6109 248.8088,-110 173.7269,-94.2162 151.8665,-93.7334 73.8836,-74.098"/>
<polygon fill="#63b8ff" stroke="#63b8ff" points="74.6421,-70.6795 64.0879,-71.6061 72.9164,-77.4635 74.6421,-70.6795"/>
</g>
<!-- Node7&#45;&gt;Node3 -->
<g id="edge12" class="edge">
<title>Node7&#45;&gt;Node3</title>
<path fill="none" stroke="#63b8ff" d="M263.3713,-109.9197C235.467,-100.8384 193.3733,-87.1393 162.7126,-77.161"/>
<polygon fill="#63b8ff" stroke="#63b8ff" points="163.7844,-73.8292 153.1921,-74.0626 161.618,-80.4855 163.7844,-73.8292"/>
</g>
<!-- Node7&#45;&gt;Node4 -->
<g id="edge8" class="edge">
<title>Node7&#45;&gt;Node4</title>
<path fill="none" stroke="#63b8ff" d="M284.6615,-109.6525C274.7442,-96.3925 260.6242,-72.4498 271.8088,-55 286.7685,-31.6607 317.0454,-20.1321 340.1993,-14.5405"/>
<polygon fill="#63b8ff" stroke="#63b8ff" points="341.2203,-17.9008 350.2557,-12.368 339.7421,-11.0586 341.2203,-17.9008"/>
</g>
<!-- Node8 -->
<g id="node8" class="node">
<title>Node8</title>
<g id="a_node8"><a xlink:title=" ">
<polygon fill="#e0e0e0" stroke="#999999" points="310.8088,-74 280.8088,-74 280.8088,-55 310.8088,-55 310.8088,-74"/>
<text text-anchor="middle" x="295.8088" y="-62" font-family="Helvetica,sans-Serif" font-size="10.00" fill="#000000">set</text>
</a>
</g>
</g>
<!-- Node7&#45;&gt;Node8 -->
<g id="edge9" class="edge">
<title>Node7&#45;&gt;Node8</title>
<path fill="none" stroke="#63b8ff" d="M293.3314,-109.9197C293.7138,-102.9083 294.2464,-93.1442 294.7198,-84.4652"/>
<polygon fill="#63b8ff" stroke="#63b8ff" points="298.2221,-84.5166 295.2721,-74.3408 291.2325,-84.1353 298.2221,-84.5166"/>
</g>
<!-- Node9 -->
<g id="node9" class="node">
<title>Node9</title>
<g id="a_node9"><a xlink:title=" ">
<polygon fill="#e0e0e0" stroke="#999999" points="364.3088,-74 329.3088,-74 329.3088,-55 364.3088,-55 364.3088,-74"/>
<text text-anchor="middle" x="346.8088" y="-62" font-family="Helvetica,sans-Serif" font-size="10.00" fill="#000000">map</text>
</a>
</g>
</g>
<!-- Node7&#45;&gt;Node9 -->
<g id="edge10" class="edge">
<title>Node7&#45;&gt;Node9</title>
<path fill="none" stroke="#63b8ff" d="M302.2149,-109.9197C309.8637,-102.1293 320.8491,-90.9405 330.0025,-81.6176"/>
<polygon fill="#63b8ff" stroke="#63b8ff" points="332.6385,-83.9286 337.1469,-74.3408 327.6435,-79.0244 332.6385,-83.9286"/>
</g>
<!-- Node10 -->
<g id="node10" class="node">
<title>Node10</title>
<g id="a_node10"><a xlink:title=" ">
<polygon fill="#e0e0e0" stroke="#999999" points="460.8088,-74 382.8088,-74 382.8088,-55 460.8088,-55 460.8088,-74"/>
<text text-anchor="middle" x="421.8088" y="-62" font-family="Helvetica,sans-Serif" font-size="10.00" fill="#000000">unordered_set</text>
</a>
</g>
</g>
<!-- Node7&#45;&gt;Node10 -->
<g id="edge11" class="edge">
<title>Node7&#45;&gt;Node10</title>
<path fill="none" stroke="#63b8ff" d="M315.2789,-109.9197C335.8701,-101.1406 366.5835,-88.0457 389.749,-78.1689"/>
<polygon fill="#63b8ff" stroke="#63b8ff" points="391.3373,-81.2966 399.1634,-74.155 388.5919,-74.8575 391.3373,-81.2966"/>
</g>
<!-- Node11 -->
<g id="node11" class="node">
<title>Node11</title>
<g id="a_node11"><a xlink:title=" ">
<polygon fill="#e0e0e0" stroke="#999999" points="224.3088,-74 183.3088,-74 183.3088,-55 224.3088,-55 224.3088,-74"/>
<text text-anchor="middle" x="203.8088" y="-62" font-family="Helvetica,sans-Serif" font-size="10.00" fill="#000000">stack</text>
</a>
</g>
</g>
<!-- Node7&#45;&gt;Node11 -->
<g id="edge13" class="edge">
<title>Node7&#45;&gt;Node11</title>
<path fill="none" stroke="#63b8ff" d="M277.3062,-109.9197C263.7342,-101.5325 243.7881,-89.2063 228.0982,-79.5103"/>
<polygon fill="#63b8ff" stroke="#63b8ff" points="229.7791,-76.4347 219.4324,-74.155 226.0992,-82.3894 229.7791,-76.4347"/>
</g>
<!-- Node12&#45;&gt;Node4 -->
<g id="edge15" class="edge">
<title>Node12&#45;&gt;Node4</title>
<path fill="none" stroke="#63b8ff" d="M679.2241,-115.099C639.4618,-108.6698 566.9401,-95.1255 507.8088,-74 490.0272,-67.6473 486.8341,-63.166 469.8088,-55 446.756,-43.9429 420.4482,-31.8779 400.749,-22.9516"/>
<polygon fill="#63b8ff" stroke="#63b8ff" points="401.932,-19.6454 391.378,-18.716 399.0489,-26.0241 401.932,-19.6454"/>
</g>
<!-- Node13 -->
<g id="node13" class="node">
<title>Node13</title>
<g id="a_node13"><a xlink:title=" ">
<polygon fill="#e0e0e0" stroke="#999999" points="572.8088,-74 516.8088,-74 516.8088,-55 572.8088,-55 572.8088,-74"/>
<text text-anchor="middle" x="544.8088" y="-62" font-family="Helvetica,sans-Serif" font-size="10.00" fill="#000000">algorithm</text>
</a>
</g>
</g>
<!-- Node12&#45;&gt;Node13 -->
<g id="edge16" class="edge">
<title>Node12&#45;&gt;Node13</title>
<path fill="none" stroke="#63b8ff" d="M680.2422,-109.9197C653.1983,-100.8501 612.4201,-87.1745 582.6763,-77.1995"/>
<polygon fill="#63b8ff" stroke="#63b8ff" points="583.642,-73.8318 573.0481,-73.9705 581.4163,-80.4685 583.642,-73.8318"/>
</g>
<!-- Node14 -->
<g id="node14" class="node">
<title>Node14</title>
<g id="a_node14"><a xlink:title=" ">
<polygon fill="#e0e0e0" stroke="#999999" points="636.8088,-74 590.8088,-74 590.8088,-55 636.8088,-55 636.8088,-74"/>
<text text-anchor="middle" x="613.8088" y="-62" font-family="Helvetica,sans-Serif" font-size="10.00" fill="#000000">cctype</text>
</a>
</g>
</g>
<!-- Node12&#45;&gt;Node14 -->
<g id="edge17" class="edge">
<title>Node12&#45;&gt;Node14</title>
<path fill="none" stroke="#63b8ff" d="M692.2611,-109.9197C677.6387,-101.4541 656.0848,-88.9755 639.2673,-79.2391"/>
<polygon fill="#63b8ff" stroke="#63b8ff" points="640.8936,-76.1364 630.4857,-74.155 637.3863,-82.1944 640.8936,-76.1364"/>
</g>
<!-- Node15 -->
<g id="node15" class="node">
<title>Node15</title>
<g id="a_node15"><a xlink:title=" ">
<polygon fill="#e0e0e0" stroke="#999999" points="700.8088,-74 654.8088,-74 654.8088,-55 700.8088,-55 700.8088,-74"/>
<text text-anchor="middle" x="677.8088" y="-62" font-family="Helvetica,sans-Serif" font-size="10.00" fill="#000000">cstring</text>
</a>
</g>
</g>
<!-- Node12&#45;&gt;Node15 -->
<g id="edge18" class="edge">
<title>Node12&#45;&gt;Node15</title>
<path fill="none" stroke="#63b8ff" d="M703.4091,-109.9197C699.2815,-102.5967 693.4615,-92.2709 688.4135,-83.3147"/>
<polygon fill="#63b8ff" stroke="#63b8ff" points="691.3147,-81.3338 683.3555,-74.3408 685.2166,-84.7709 691.3147,-81.3338"/>
</g>
<!-- Node16 -->
<g id="node16" class="node">
<title>Node16</title>
<g id="a_node16"><a xlink:title=" ">
<polygon fill="#e0e0e0" stroke="#999999" points="762.3088,-74 719.3088,-74 719.3088,-55 762.3088,-55 762.3088,-74"/>
<text text-anchor="middle" x="740.8088" y="-62" font-family="Helvetica,sans-Serif" font-size="10.00" fill="#000000">cstdio</text>
</a>
</g>
</g>
<!-- Node12&#45;&gt;Node16 -->
<g id="edge19" class="edge">
<title>Node12&#45;&gt;Node16</title>
<path fill="none" stroke="#63b8ff" d="M714.3828,-109.9197C718.6888,-102.5188 724.7793,-92.0509 730.0281,-83.0294"/>
<polygon fill="#63b8ff" stroke="#63b8ff" points="733.0795,-84.7445 735.0833,-74.3408 727.0291,-81.2242 733.0795,-84.7445"/>
</g>
<!-- Node17 -->
<g id="node17" class="node">
<title>Node17</title>
<g id="a_node17"><a xlink:title=" ">
<polygon fill="#e0e0e0" stroke="#999999" points="825.3088,-74 780.3088,-74 780.3088,-55 825.3088,-55 825.3088,-74"/>
<text text-anchor="middle" x="802.8088" y="-62" font-family="Helvetica,sans-Serif" font-size="10.00" fill="#000000">cstdlib</text>
</a>
</g>
</g>
<!-- Node12&#45;&gt;Node17 -->
<g id="edge20" class="edge">
<title>Node12&#45;&gt;Node17</title>
<path fill="none" stroke="#63b8ff" d="M725.1824,-109.9197C739.6509,-101.4541 760.9779,-88.9755 777.6183,-79.2391"/>
<polygon fill="#63b8ff" stroke="#63b8ff" points="779.444,-82.2261 786.3075,-74.155 775.9088,-76.1843 779.444,-82.2261"/>
</g>
<!-- Node18 -->
<g id="node18" class="node">
<title>Node18</title>
<g id="a_node18"><a xlink:title=" ">
<polygon fill="#e0e0e0" stroke="#999999" points="945.8088,-19 899.8088,-19 899.8088,0 945.8088,0 945.8088,-19"/>
<text text-anchor="middle" x="922.8088" y="-7" font-family="Helvetica,sans-Serif" font-size="10.00" fill="#000000">cstdint</text>
</a>
</g>
</g>
<!-- Node12&#45;&gt;Node18 -->
<g id="edge21" class="edge">
<title>Node12&#45;&gt;Node18</title>
<path fill="none" stroke="#63b8ff" d="M738.6678,-118.7753C799.6952,-116.5982 935.3709,-107.9614 963.8088,-74 976.5761,-58.753 960.3414,-39.2512 944.6871,-25.7026"/>
<polygon fill="#63b8ff" stroke="#63b8ff" points="946.6768,-22.8093 936.7105,-19.2142 942.2596,-28.2396 946.6768,-22.8093"/>
</g>
<!-- Node19 -->
<g id="node19" class="node">
<title>Node19</title>
<g id="a_node19"><a xlink:title=" ">
<polygon fill="#e0e0e0" stroke="#999999" points="954.8088,-74 902.8088,-74 902.8088,-55 954.8088,-55 954.8088,-74"/>
<text text-anchor="middle" x="928.8088" y="-62" font-family="Helvetica,sans-Serif" font-size="10.00" fill="#000000">ostream</text>
</a>
</g>
</g>
<!-- Node12&#45;&gt;Node19 -->
<g id="edge22" class="edge">
<title>Node12&#45;&gt;Node19</title>
<path fill="none" stroke="#63b8ff" d="M738.341,-112.4667C772.9752,-104.1682 832.3632,-89.7832 892.4211,-74.318"/>
<polygon fill="#63b8ff" stroke="#63b8ff" points="893.647,-77.6163 902.4535,-71.7259 891.8958,-70.8388 893.647,-77.6163"/>
</g>
<!-- Node20 -->
<g id="node20" class="node">
<title>Node20</title>
<g id="a_node20"><a xlink:href="../../db/d7c/utf8_8h.html" target="_top" xlink:title="Various UTF8 related helper functions.">
<polygon fill="#ffffff" stroke="#666666" points="884.3088,-74 843.3088,-74 843.3088,-55 884.3088,-55 884.3088,-74"/>
<text text-anchor="middle" x="863.8088" y="-62" font-family="Helvetica,sans-Serif" font-size="10.00" fill="#000000">utf8.h</text>
</a>
</g>
</g>
<!-- Node12&#45;&gt;Node20 -->
<g id="edge23" class="edge">
<title>Node12&#45;&gt;Node20</title>
<path fill="none" stroke="#63b8ff" d="M735.8078,-109.9197C762.9993,-100.2711 804.8816,-85.4097 833.2697,-75.3365"/>
<polygon fill="#63b8ff" stroke="#63b8ff" points="834.8119,-78.5031 843.0657,-71.8605 832.4709,-71.9061 834.8119,-78.5031"/>
</g>
<!-- Node20&#45;&gt;Node4 -->
<g id="edge25" class="edge">
<title>Node20&#45;&gt;Node4</title>
<path fill="none" stroke="#63b8ff" d="M843.0484,-57.0961C840.3022,-56.295 837.5049,-55.5666 834.8088,-55 673.9975,-21.2017 476.4347,-12.3947 401.544,-10.197"/>
<polygon fill="#63b8ff" stroke="#63b8ff" points="401.496,-6.6944 391.4037,-9.9185 401.3038,-13.6918 401.496,-6.6944"/>
</g>
<!-- Node20&#45;&gt;Node18 -->
<g id="edge24" class="edge">
<title>Node20&#45;&gt;Node18</title>
<path fill="none" stroke="#63b8ff" d="M874.0859,-54.9197C882.5265,-47.0514 894.6858,-35.7164 904.7457,-26.3385"/>
<polygon fill="#63b8ff" stroke="#63b8ff" points="907.3242,-28.7198 912.2523,-19.3408 902.551,-23.5995 907.3242,-28.7198"/>
</g>
<!-- Node22 -->
<g id="node22" class="node">
<title>Node22</title>
<g id="a_node22"><a xlink:title=" ">
<polygon fill="#e0e0e0" stroke="#999999" points="1090.8088,-74 1010.8088,-74 1010.8088,-55 1090.8088,-55 1090.8088,-74"/>
<text text-anchor="middle" x="1050.8088" y="-62" font-family="Helvetica,sans-Serif" font-size="10.00" fill="#000000">configvalues.h</text>
</a>
</g>
</g>
<!-- Node21&#45;&gt;Node22 -->
<g id="edge27" class="edge">
<title>Node21&#45;&gt;Node22</title>
<path fill="none" stroke="#63b8ff" d="M952.5371,-109.9197C971.3624,-101.219 999.3593,-88.2792 1020.6602,-78.4343"/>
<polygon fill="#63b8ff" stroke="#63b8ff" points="1022.3099,-81.5276 1029.9189,-74.155 1019.3731,-75.1734 1022.3099,-81.5276"/>
</g>
</g>
</svg>
