<?xml version="1.0" encoding="UTF-8" standalone="no"?>
<!DOCTYPE svg PUBLIC "-//W3C//DTD SVG 1.1//EN"
 "http://www.w3.org/Graphics/SVG/1.1/DTD/svg11.dtd">
<!-- Generated by graphviz version 2.43.0 (0)
 -->
<!-- Title: src/configimpl.h Pages: 1 -->
<!--zoomable 192 -->
<svg id="main" version="1.1" xmlns="http://www.w3.org/2000/svg" xmlns:xlink="http://www.w3.org/1999/xlink" xml:space="preserve" onload="init(evt)">
<style type="text/css"><![CDATA[
.edge:hover path { stroke: red; }
.edge:hover polygon { stroke: red; fill: red; }
]]></style>
<script type="text/javascript"><![CDATA[
var edges = document.getElementsByTagName('g');
if (edges && edges.length) {
  for (var i=0;i<edges.length;i++) {
    if (edges[i].id.substr(0,4)=='edge') {
      edges[i].setAttribute('class','edge');
    }
  }
}
]]></script>
        <defs>
                <circle id="rim" cx="0" cy="0" r="7"/>
                <circle id="rim2" cx="0" cy="0" r="3.5"/>
                <g id="zoomPlus">
                        <use xlink:href="#rim" fill="#404040">
                                <set attributeName="fill" to="#808080" begin="zoomplus.mouseover" end="zoomplus.mouseout"/>
                        </use>
                        <path d="M-4,0h8M0,-4v8" fill="none" stroke="white" stroke-width="1.5" pointer-events="none"/>
                </g>
                <g id="zoomMin">
                        <use xlink:href="#rim" fill="#404040">
                                <set attributeName="fill" to="#808080" begin="zoomminus.mouseover" end="zoomminus.mouseout"/>
                        </use>
                        <path d="M-4,0h8" fill="none" stroke="white" stroke-width="1.5" pointer-events="none"/>
                </g>
                <g id="dirArrow">
                        <path fill="none" stroke="white" stroke-width="1.5" d="M0,-3.0v7 M-2.5,-0.5L0,-3.0L2.5,-0.5"/>
                </g>
               <g id="resetDef">
                       <use xlink:href="#rim2" fill="#404040">
                               <set attributeName="fill" to="#808080" begin="reset.mouseover" end="reset.mouseout"/>
                       </use>
               </g>
        </defs>

<script type="text/javascript">
var viewWidth = 1165;
var viewHeight = 192;
var sectionId = 'dynsection-0';
</script>
<script xlink:href="../../svgpan.js"/>
<svg id="graph" class="graph">
<g id="viewport">
<title>src/configimpl.h</title>
<!-- Node1 -->
<g id="node1" class="node">
<title>Node1</title>
<g id="a_node1"><a xlink:title=" ">
<polygon fill="#999999" stroke="#666666" points="229.52,-184 135.52,-184 135.52,-165 229.52,-165 229.52,-184"/>
<text text-anchor="middle" x="182.52" y="-172" font-family="Helvetica,sans-Serif" font-size="10.00">src/configimpl.h</text>
</a>
</g>
</g>
<!-- Node2 -->
<g id="node2" class="node">
<title>Node2</title>
<g id="a_node2"><a xlink:title=" ">
<polygon fill="#e0e0e0" stroke="#999999" points="67.02,-74 20.02,-74 20.02,-55 67.02,-55 67.02,-74"/>
<text text-anchor="middle" x="43.52" y="-62" font-family="Helvetica,sans-Serif" font-size="10.00">vector</text>
</a>
</g>
</g>
<!-- Node1&#45;&gt;Node2 -->
<g id="edge1" class="edge">
<title>Node1&#45;&gt;Node2</title>
<path fill="none" stroke="#63b8ff" d="M161.85,-164.92C144.27,-157.06 118.87,-144.33 99.52,-129 82.32,-115.37 66.14,-96.04 55.63,-82.3"/>
<polygon fill="#63b8ff" stroke="#63b8ff" points="58.38,-80.12 49.6,-74.19 52.76,-84.3 58.38,-80.12"/>
</g>
<!-- Node3 -->
<g id="node3" class="node">
<title>Node3</title>
<g id="a_node3"><a xlink:title=" ">
<polygon fill="#e0e0e0" stroke="#999999" points="178.02,-74 85.02,-74 85.02,-55 178.02,-55 178.02,-74"/>
<text text-anchor="middle" x="131.52" y="-62" font-family="Helvetica,sans-Serif" font-size="10.00">unordered_map</text>
</a>
</g>
</g>
<!-- Node1&#45;&gt;Node3 -->
<g id="edge2" class="edge">
<title>Node1&#45;&gt;Node3</title>
<path fill="none" stroke="#63b8ff" d="M154.13,-164.92C137.06,-158.13 116.71,-146.77 106.52,-129 97.9,-113.97 107.29,-95.39 116.93,-82.22"/>
<polygon fill="#63b8ff" stroke="#63b8ff" points="119.92,-84.08 123.42,-74.07 114.45,-79.71 119.92,-84.08"/>
</g>
<!-- Node4 -->
<g id="node4" class="node">
<title>Node4</title>
<g id="a_node4"><a xlink:title=" ">
<polygon fill="#e0e0e0" stroke="#999999" points="413.52,-19 369.52,-19 369.52,0 413.52,0 413.52,-19"/>
<text text-anchor="middle" x="391.52" y="-7" font-family="Helvetica,sans-Serif" font-size="10.00">string</text>
</a>
</g>
</g>
<!-- Node1&#45;&gt;Node4 -->
<g id="edge3" class="edge">
<title>Node1&#45;&gt;Node4</title>
<path fill="none" stroke="#63b8ff" d="M147.46,-164.87C84.75,-147.87 -35.89,-107.14 10.52,-55 33.58,-29.09 271.39,-15.88 359.18,-11.86"/>
<polygon fill="#63b8ff" stroke="#63b8ff" points="359.53,-15.35 369.36,-11.4 359.21,-8.36 359.53,-15.35"/>
</g>
<!-- Node5 -->
<g id="node5" class="node">
<title>Node5</title>
<g id="a_node5"><a xlink:title=" ">
<polygon fill="#e0e0e0" stroke="#999999" points="173.52,-129 115.52,-129 115.52,-110 173.52,-110 173.52,-129"/>
<text text-anchor="middle" x="144.52" y="-117" font-family="Helvetica,sans-Serif" font-size="10.00">memory</text>
</a>
</g>
</g>
<!-- Node1&#45;&gt;Node5 -->
<g id="edge4" class="edge">
<title>Node1&#45;&gt;Node5</title>
<path fill="none" stroke="#63b8ff" d="M176.25,-164.75C170.93,-157.34 163.17,-146.5 156.65,-137.41"/>
<polygon fill="#63b8ff" stroke="#63b8ff" points="159.35,-135.18 150.68,-129.09 153.66,-139.26 159.35,-135.18"/>
</g>
<!-- Node6 -->
<g id="node6" class="node">
<title>Node6</title>
<g id="a_node6"><a xlink:title=" ">
<polygon fill="#e0e0e0" stroke="#999999" points="251.52,-129 191.52,-129 191.52,-110 251.52,-110 251.52,-129"/>
<text text-anchor="middle" x="221.52" y="-117" font-family="Helvetica,sans-Serif" font-size="10.00">iostream</text>
</a>
</g>
</g>
<!-- Node1&#45;&gt;Node6 -->
<g id="edge5" class="edge">
<title>Node1&#45;&gt;Node6</title>
<path fill="none" stroke="#63b8ff" d="M188.96,-164.75C194.41,-157.34 202.39,-146.5 209.08,-137.41"/>
<polygon fill="#63b8ff" stroke="#63b8ff" points="212.09,-139.22 215.2,-129.09 206.46,-135.07 212.09,-139.22"/>
</g>
<!-- Node7 -->
<g id="node7" class="node">
<title>Node7</title>
<g id="a_node7"><a xlink:href="../../d5/d75/containers_8h.html" target="_top" xlink:title=" ">
<polygon fill="white" stroke="#666666" points="347.02,-129 270.02,-129 270.02,-110 347.02,-110 347.02,-129"/>
<text text-anchor="middle" x="308.52" y="-117" font-family="Helvetica,sans-Serif" font-size="10.00">containers.h</text>
</a>
</g>
</g>
<!-- Node1&#45;&gt;Node7 -->
<g id="edge6" class="edge">
<title>Node1&#45;&gt;Node7</title>
<path fill="none" stroke="#63b8ff" d="M202.77,-164.98C223.22,-156.38 255.05,-142.99 278.45,-133.15"/>
<polygon fill="#63b8ff" stroke="#63b8ff" points="280.05,-136.27 287.91,-129.17 277.33,-129.82 280.05,-136.27"/>
</g>
<!-- Node12 -->
<g id="node12" class="node">
<title>Node12</title>
<g id="a_node12"><a xlink:href="../../d7/d5c/qcstring_8h.html" target="_top" xlink:title=" ">
<polygon fill="white" stroke="#666666" points="784.02,-129 719.02,-129 719.02,-110 784.02,-110 784.02,-129"/>
<text text-anchor="middle" x="751.52" y="-117" font-family="Helvetica,sans-Serif" font-size="10.00">qcstring.h</text>
</a>
</g>
</g>
<!-- Node1&#45;&gt;Node12 -->
<g id="edge14" class="edge">
<title>Node1&#45;&gt;Node12</title>
<path fill="none" stroke="#63b8ff" d="M229.57,-169.12C338.07,-159.01 604.5,-134.19 708.73,-124.49"/>
<polygon fill="#63b8ff" stroke="#63b8ff" points="709.25,-127.95 718.88,-123.54 708.6,-120.98 709.25,-127.95"/>
</g>
<!-- Node21 -->
<g id="node21" class="node">
<title>Node21</title>
<g id="a_node21"><a xlink:href="../../db/d16/config_8h.html" target="_top" xlink:title=" ">
<polygon fill="white" stroke="#666666" points="1015.02,-129 960.02,-129 960.02,-110 1015.02,-110 1015.02,-129"/>
<text text-anchor="middle" x="987.52" y="-117" font-family="Helvetica,sans-Serif" font-size="10.00">config.h</text>
</a>
</g>
</g>
<!-- Node1&#45;&gt;Node21 -->
<g id="edge26" class="edge">
<title>Node1&#45;&gt;Node21</title>
<path fill="none" stroke="#63b8ff" d="M229.58,-170.4C375.28,-160.81 817.15,-131.72 949.6,-123"/>
<polygon fill="#63b8ff" stroke="#63b8ff" points="949.92,-126.48 959.67,-122.33 949.46,-119.5 949.92,-126.48"/>
</g>
<!-- Node7&#45;&gt;Node2 -->
<g id="edge7" class="edge">
<title>Node7&#45;&gt;Node2</title>
<path fill="none" stroke="#63b8ff" d="M269.6,-111.41C217.14,-101.8 125.52,-84.82 77.16,-74.22"/>
<polygon fill="#63b8ff" stroke="#63b8ff" points="77.76,-70.77 67.24,-72 76.23,-77.6 77.76,-70.77"/>
</g>
<!-- Node7&#45;&gt;Node3 -->
<g id="edge12" class="edge">
<title>Node7&#45;&gt;Node3</title>
<path fill="none" stroke="#63b8ff" d="M280.08,-109.98C250.24,-101.05 203.14,-86.94 169.99,-77.02"/>
<polygon fill="#63b8ff" stroke="#63b8ff" points="170.77,-73.6 160.18,-74.08 168.76,-80.3 170.77,-73.6"/>
</g>
<!-- Node7&#45;&gt;Node4 -->
<g id="edge8" class="edge">
<title>Node7&#45;&gt;Node4</title>
<path fill="none" stroke="#63b8ff" d="M300.79,-109.66C290.51,-96.79 274.93,-72.51 286.52,-55 302.59,-30.74 334.83,-19.66 359.37,-14.64"/>
<polygon fill="#63b8ff" stroke="#63b8ff" points="360.12,-18.05 369.34,-12.83 358.88,-11.17 360.12,-18.05"/>
</g>
<!-- Node8 -->
<g id="node8" class="node">
<title>Node8</title>
<g id="a_node8"><a xlink:title=" ">
<polygon fill="#e0e0e0" stroke="#999999" points="327.52,-74 295.52,-74 295.52,-55 327.52,-55 327.52,-74"/>
<text text-anchor="middle" x="311.52" y="-62" font-family="Helvetica,sans-Serif" font-size="10.00">set</text>
</a>
</g>
</g>
<!-- Node7&#45;&gt;Node8 -->
<g id="edge9" class="edge">
<title>Node7&#45;&gt;Node8</title>
<path fill="none" stroke="#63b8ff" d="M309.02,-109.75C309.41,-102.8 309.97,-92.85 310.47,-84.13"/>
<polygon fill="#63b8ff" stroke="#63b8ff" points="313.97,-84.27 311.04,-74.09 306.98,-83.88 313.97,-84.27"/>
</g>
<!-- Node9 -->
<g id="node9" class="node">
<title>Node9</title>
<g id="a_node9"><a xlink:title=" ">
<polygon fill="#e0e0e0" stroke="#999999" points="383.52,-74 345.52,-74 345.52,-55 383.52,-55 383.52,-74"/>
<text text-anchor="middle" x="364.52" y="-62" font-family="Helvetica,sans-Serif" font-size="10.00">map</text>
</a>
</g>
</g>
<!-- Node7&#45;&gt;Node9 -->
<g id="edge10" class="edge">
<title>Node7&#45;&gt;Node9</title>
<path fill="none" stroke="#63b8ff" d="M317.52,-109.98C325.72,-102.23 338.03,-90.58 347.99,-81.14"/>
<polygon fill="#63b8ff" stroke="#63b8ff" points="350.5,-83.59 355.36,-74.17 345.69,-78.5 350.5,-83.59"/>
</g>
<!-- Node10 -->
<g id="node10" class="node">
<title>Node10</title>
<g id="a_node10"><a xlink:title=" ">
<polygon fill="#e0e0e0" stroke="#999999" points="487.52,-74 401.52,-74 401.52,-55 487.52,-55 487.52,-74"/>
<text text-anchor="middle" x="444.52" y="-62" font-family="Helvetica,sans-Serif" font-size="10.00">unordered_set</text>
</a>
</g>
</g>
<!-- Node7&#45;&gt;Node10 -->
<g id="edge11" class="edge">
<title>Node7&#45;&gt;Node10</title>
<path fill="none" stroke="#63b8ff" d="M330.37,-109.98C352.65,-101.3 387.42,-87.75 412.74,-77.88"/>
<polygon fill="#63b8ff" stroke="#63b8ff" points="414.23,-81.06 422.27,-74.17 411.69,-74.54 414.23,-81.06"/>
</g>
<!-- Node11 -->
<g id="node11" class="node">
<title>Node11</title>
<g id="a_node11"><a xlink:title=" ">
<polygon fill="#e0e0e0" stroke="#999999" points="239.02,-74 196.02,-74 196.02,-55 239.02,-55 239.02,-74"/>
<text text-anchor="middle" x="217.52" y="-62" font-family="Helvetica,sans-Serif" font-size="10.00">stack</text>
</a>
</g>
</g>
<!-- Node7&#45;&gt;Node11 -->
<g id="edge13" class="edge">
<title>Node7&#45;&gt;Node11</title>
<path fill="none" stroke="#63b8ff" d="M293.9,-109.98C279.66,-101.69 257.77,-88.94 241.07,-79.22"/>
<polygon fill="#63b8ff" stroke="#63b8ff" points="242.81,-76.18 232.41,-74.17 239.29,-82.23 242.81,-76.18"/>
</g>
<!-- Node12&#45;&gt;Node4 -->
<g id="edge15" class="edge">
<title>Node12&#45;&gt;Node4</title>
<path fill="none" stroke="#63b8ff" d="M718.83,-114.51C675.73,-108.64 597.95,-95.93 534.52,-74 516.68,-67.83 513.67,-62.91 496.52,-55 471.85,-43.62 443.44,-31.65 422.41,-22.99"/>
<polygon fill="#63b8ff" stroke="#63b8ff" points="423.59,-19.69 413.01,-19.15 420.94,-26.17 423.59,-19.69"/>
</g>
<!-- Node13 -->
<g id="node13" class="node">
<title>Node13</title>
<g id="a_node13"><a xlink:title=" ">
<polygon fill="#e0e0e0" stroke="#999999" points="607.52,-74 543.52,-74 543.52,-55 607.52,-55 607.52,-74"/>
<text text-anchor="middle" x="575.52" y="-62" font-family="Helvetica,sans-Serif" font-size="10.00">algorithm</text>
</a>
</g>
</g>
<!-- Node12&#45;&gt;Node13 -->
<g id="edge16" class="edge">
<title>Node12&#45;&gt;Node13</title>
<path fill="none" stroke="#63b8ff" d="M723.24,-109.98C693.57,-101.05 646.73,-86.94 613.77,-77.02"/>
<polygon fill="#63b8ff" stroke="#63b8ff" points="614.61,-73.61 604.02,-74.08 612.59,-80.32 614.61,-73.61"/>
</g>
<!-- Node14 -->
<g id="node14" class="node">
<title>Node14</title>
<g id="a_node14"><a xlink:title=" ">
<polygon fill="#e0e0e0" stroke="#999999" points="675.02,-74 626.02,-74 626.02,-55 675.02,-55 675.02,-74"/>
<text text-anchor="middle" x="650.52" y="-62" font-family="Helvetica,sans-Serif" font-size="10.00">cctype</text>
</a>
</g>
</g>
<!-- Node12&#45;&gt;Node14 -->
<g id="edge17" class="edge">
<title>Node12&#45;&gt;Node14</title>
<path fill="none" stroke="#63b8ff" d="M735.29,-109.98C719.34,-101.61 694.74,-88.7 676.15,-78.95"/>
<polygon fill="#63b8ff" stroke="#63b8ff" points="677.53,-75.72 667.04,-74.17 674.27,-81.92 677.53,-75.72"/>
</g>
<!-- Node15 -->
<g id="node15" class="node">
<title>Node15</title>
<g id="a_node15"><a xlink:title=" ">
<polygon fill="#e0e0e0" stroke="#999999" points="743.52,-74 693.52,-74 693.52,-55 743.52,-55 743.52,-74"/>
<text text-anchor="middle" x="718.52" y="-62" font-family="Helvetica,sans-Serif" font-size="10.00">cstring</text>
</a>
</g>
</g>
<!-- Node12&#45;&gt;Node15 -->
<g id="edge18" class="edge">
<title>Node12&#45;&gt;Node15</title>
<path fill="none" stroke="#63b8ff" d="M746.07,-109.75C741.51,-102.42 734.85,-91.73 729.23,-82.7"/>
<polygon fill="#63b8ff" stroke="#63b8ff" points="732.13,-80.73 723.87,-74.09 726.18,-84.43 732.13,-80.73"/>
</g>
<!-- Node16 -->
<g id="node16" class="node">
<title>Node16</title>
<g id="a_node16"><a xlink:title=" ">
<polygon fill="#e0e0e0" stroke="#999999" points="807.52,-74 761.52,-74 761.52,-55 807.52,-55 807.52,-74"/>
<text text-anchor="middle" x="784.52" y="-62" font-family="Helvetica,sans-Serif" font-size="10.00">cstdio</text>
</a>
</g>
</g>
<!-- Node12&#45;&gt;Node16 -->
<g id="edge19" class="edge">
<title>Node12&#45;&gt;Node16</title>
<path fill="none" stroke="#63b8ff" d="M756.97,-109.75C761.54,-102.42 768.19,-91.73 773.82,-82.7"/>
<polygon fill="#63b8ff" stroke="#63b8ff" points="776.86,-84.43 779.17,-74.09 770.92,-80.73 776.86,-84.43"/>
</g>
<!-- Node17 -->
<g id="node17" class="node">
<title>Node17</title>
<g id="a_node17"><a xlink:title=" ">
<polygon fill="#e0e0e0" stroke="#999999" points="875.02,-74 826.02,-74 826.02,-55 875.02,-55 875.02,-74"/>
<text text-anchor="middle" x="850.52" y="-62" font-family="Helvetica,sans-Serif" font-size="10.00">cstdlib</text>
</a>
</g>
</g>
<!-- Node12&#45;&gt;Node17 -->
<g id="edge20" class="edge">
<title>Node12&#45;&gt;Node17</title>
<path fill="none" stroke="#63b8ff" d="M767.43,-109.98C783.07,-101.61 807.18,-88.7 825.41,-78.95"/>
<polygon fill="#63b8ff" stroke="#63b8ff" points="827.16,-81.98 834.33,-74.17 823.86,-75.8 827.16,-81.98"/>
</g>
<!-- Node18 -->
<g id="node18" class="node">
<title>Node18</title>
<g id="a_node18"><a xlink:title=" ">
<polygon fill="#e0e0e0" stroke="#999999" points="1003.52,-19 953.52,-19 953.52,0 1003.52,0 1003.52,-19"/>
<text text-anchor="middle" x="978.52" y="-7" font-family="Helvetica,sans-Serif" font-size="10.00">cstdint</text>
</a>
</g>
</g>
<!-- Node12&#45;&gt;Node18 -->
<g id="edge21" class="edge">
<title>Node12&#45;&gt;Node18</title>
<path fill="none" stroke="#63b8ff" d="M784.22,-118.18C849.49,-116.78 992.28,-109.62 1022.52,-74 1035.95,-58.19 1017.09,-38.3 1000.05,-25.03"/>
<polygon fill="#63b8ff" stroke="#63b8ff" points="1002.11,-22.21 991.99,-19.1 997.97,-27.85 1002.11,-22.21"/>
</g>
<!-- Node19 -->
<g id="node19" class="node">
<title>Node19</title>
<g id="a_node19"><a xlink:title=" ">
<polygon fill="#e0e0e0" stroke="#999999" points="1013.02,-74 956.02,-74 956.02,-55 1013.02,-55 1013.02,-74"/>
<text text-anchor="middle" x="984.52" y="-62" font-family="Helvetica,sans-Serif" font-size="10.00">ostream</text>
</a>
</g>
</g>
<!-- Node12&#45;&gt;Node19 -->
<g id="edge22" class="edge">
<title>Node12&#45;&gt;Node19</title>
<path fill="none" stroke="#63b8ff" d="M784.13,-111.12C821.05,-102.76 883.3,-88.66 945.81,-74.39"/>
<polygon fill="#63b8ff" stroke="#63b8ff" points="946.87,-77.74 955.84,-72.1 945.31,-70.91 946.87,-77.74"/>
</g>
<!-- Node20 -->
<g id="node20" class="node">
<title>Node20</title>
<g id="a_node20"><a xlink:href="../../db/d7c/utf8_8h.html" target="_top" xlink:title="Various UTF8 related helper functions.">
<polygon fill="white" stroke="#666666" points="938.02,-74 893.02,-74 893.02,-55 938.02,-55 938.02,-74"/>
<text text-anchor="middle" x="915.52" y="-62" font-family="Helvetica,sans-Serif" font-size="10.00">utf8.h</text>
</a>
</g>
</g>
<!-- Node12&#45;&gt;Node20 -->
<g id="edge23" class="edge">
<title>Node12&#45;&gt;Node20</title>
<path fill="none" stroke="#63b8ff" d="M777.87,-109.98C806.51,-100.73 852.28,-85.94 883.1,-75.98"/>
<polygon fill="#63b8ff" stroke="#63b8ff" points="884.49,-79.21 892.93,-72.8 882.34,-72.54 884.49,-79.21"/>
</g>
<!-- Node20&#45;&gt;Node4 -->
<g id="edge25" class="edge">
<title>Node20&#45;&gt;Node4</title>
<path fill="none" stroke="#63b8ff" d="M892.94,-56.81C890.12,-56.12 887.27,-55.5 884.52,-55 712.89,-23.98 503.54,-14.17 424.14,-11.44"/>
<polygon fill="#63b8ff" stroke="#63b8ff" points="423.93,-7.94 413.82,-11.1 423.7,-14.93 423.93,-7.94"/>
</g>
<!-- Node20&#45;&gt;Node18 -->
<g id="edge24" class="edge">
<title>Node20&#45;&gt;Node18</title>
<path fill="none" stroke="#63b8ff" d="M925.64,-54.98C934.96,-47.15 948.99,-35.34 960.26,-25.86"/>
<polygon fill="#63b8ff" stroke="#63b8ff" points="962.82,-28.29 968.22,-19.17 958.31,-22.93 962.82,-28.29"/>
</g>
<!-- Node22 -->
<g id="node22" class="node">
<title>Node22</title>
<g id="a_node22"><a xlink:title=" ">
<polygon fill="#e0e0e0" stroke="#999999" points="1157.02,-74 1070.02,-74 1070.02,-55 1157.02,-55 1157.02,-74"/>
<text text-anchor="middle" x="1113.52" y="-62" font-family="Helvetica,sans-Serif" font-size="10.00">configvalues.h</text>
</a>
</g>
</g>
<!-- Node21&#45;&gt;Node22 -->
<g id="edge27" class="edge">
<title>Node21&#45;&gt;Node22</title>
<path fill="none" stroke="#63b8ff" d="M1007.77,-109.98C1028.22,-101.38 1060.05,-87.99 1083.45,-78.15"/>
<polygon fill="#63b8ff" stroke="#63b8ff" points="1085.05,-81.27 1092.91,-74.17 1082.33,-74.82 1085.05,-81.27"/>
</g>
</g>
</svg>
        <g id="navigator" transform="translate(0 0)" fill="#404254">
                <rect fill="#f2f5e9" fill-opacity="0.5" stroke="#606060" stroke-width=".5" x="0" y="0" width="60" height="60"/>
                <use id="zoomplus" xlink:href="#zoomPlus" x="17" y="9" onmousedown="handleZoom(evt,'in')"/>
                <use id="zoomminus" xlink:href="#zoomMin" x="42" y="9" onmousedown="handleZoom(evt,'out')"/>
                <use id="reset" xlink:href="#resetDef" x="30" y="36" onmousedown="handleReset()"/>
                <g id="arrowUp" xlink:href="#dirArrow" transform="translate(30 24)" onmousedown="handlePan(0,-1)">
                  <use xlink:href="#rim" fill="#404040">
                        <set attributeName="fill" to="#808080" begin="arrowUp.mouseover" end="arrowUp.mouseout"/>
                  </use>
                  <path fill="none" stroke="white" stroke-width="1.5" d="M0,-3.0v7 M-2.5,-0.5L0,-3.0L2.5,-0.5"/>
                </g>
                <g id="arrowRight" xlink:href="#dirArrow" transform="rotate(90) translate(36 -43)" onmousedown="handlePan(1,0)">
                  <use xlink:href="#rim" fill="#404040">
                        <set attributeName="fill" to="#808080" begin="arrowRight.mouseover" end="arrowRight.mouseout"/>
                  </use>
                  <path fill="none" stroke="white" stroke-width="1.5" d="M0,-3.0v7 M-2.5,-0.5L0,-3.0L2.5,-0.5"/>
                </g>
                <g id="arrowDown" xlink:href="#dirArrow" transform="rotate(180) translate(-30 -48)" onmousedown="handlePan(0,1)">
                  <use xlink:href="#rim" fill="#404040">
                        <set attributeName="fill" to="#808080" begin="arrowDown.mouseover" end="arrowDown.mouseout"/>
                  </use>
                  <path fill="none" stroke="white" stroke-width="1.5" d="M0,-3.0v7 M-2.5,-0.5L0,-3.0L2.5,-0.5"/>
                </g>
                <g id="arrowLeft" xlink:href="#dirArrow" transform="rotate(270) translate(-36 17)" onmousedown="handlePan(-1,0)">
                  <use xlink:href="#rim" fill="#404040">
                        <set attributeName="fill" to="#808080" begin="arrowLeft.mouseover" end="arrowLeft.mouseout"/>
                  </use>
                  <path fill="none" stroke="white" stroke-width="1.5" d="M0,-3.0v7 M-2.5,-0.5L0,-3.0L2.5,-0.5"/>
                </g>
        </g>
        <svg viewBox="0 0 15 15" width="100%" height="30px" preserveAspectRatio="xMaxYMin meet">
         <g id="arrow_out" transform="scale(0.3 0.3)">
          <a xlink:href="configimpl_8h__incl_org.svg" target="_base">
           <rect id="button" ry="5" rx="5" y="6" x="6" height="38" width="38"
                fill="#f2f5e9" fill-opacity="0.5" stroke="#606060" stroke-width="1.0"/>
           <path id="arrow"
             d="M 11.500037,31.436501 C 11.940474,20.09759 22.043105,11.32322 32.158766,21.979434 L 37.068811,17.246167 C 37.068811,17.246167 37.088388,32 37.088388,32 L 22.160133,31.978069 C 22.160133,31.978069 26.997745,27.140456 26.997745,27.140456 C 18.528582,18.264221 13.291696,25.230495 11.500037,31.436501 z"
             style="fill:#404040;"/>
          </a>
         </g>
        </svg>
</svg>
