<?xml version="1.0" encoding="UTF-8" standalone="no"?>
<!DOCTYPE svg PUBLIC "-//W3C//DTD SVG 1.1//EN"
 "http://www.w3.org/Graphics/SVG/1.1/DTD/svg11.dtd">
<!-- Generated by graphviz version 2.40.1 (20161225.0304)
 -->
<!-- Title: src/definition.h Pages: 1 -->
<!--zoomable 302 -->
<svg id="main" version="1.1" xmlns="http://www.w3.org/2000/svg" xmlns:xlink="http://www.w3.org/1999/xlink" xml:space="preserve" onload="init(evt)">
<style type="text/css"><![CDATA[
.edge:hover path { stroke: red; }
.edge:hover polygon { stroke: red; fill: red; }
]]></style>
<script type="text/javascript"><![CDATA[
var edges = document.getElementsByTagName('g');
if (edges && edges.length) {
  for (var i=0;i<edges.length;i++) {
    if (edges[i].id.substr(0,4)=='edge') {
      edges[i].setAttribute('class','edge');
    }
  }
}
]]></script>
        <defs>
                <circle id="rim" cx="0" cy="0" r="7"/>
                <circle id="rim2" cx="0" cy="0" r="3.5"/>
                <g id="zoomPlus">
                        <use xlink:href="#rim" fill="#404040">
                                <set attributeName="fill" to="#808080" begin="zoomplus.mouseover" end="zoomplus.mouseout"/>
                        </use>
                        <path d="M-4,0h8M0,-4v8" fill="none" stroke="white" stroke-width="1.5" pointer-events="none"/>
                </g>
                <g id="zoomMin">
                        <use xlink:href="#rim" fill="#404040">
                                <set attributeName="fill" to="#808080" begin="zoomminus.mouseover" end="zoomminus.mouseout"/>
                        </use>
                        <path d="M-4,0h8" fill="none" stroke="white" stroke-width="1.5" pointer-events="none"/>
                </g>
                <g id="dirArrow">
                        <path fill="none" stroke="white" stroke-width="1.5" d="M0,-3.0v7 M-2.5,-0.5L0,-3.0L2.5,-0.5"/>
                </g>
               <g id="resetDef">
                       <use xlink:href="#rim2" fill="#404040">
                               <set attributeName="fill" to="#808080" begin="reset.mouseover" end="reset.mouseout"/>
                       </use>
               </g>
        </defs>

<script type="text/javascript">
var viewWidth = 624;
var viewHeight = 302;
var sectionId = 'dynsection-0';
</script>
<script xlink:href="../../svgpan.js"/>
<svg id="graph" class="graph">
<g id="viewport">
<title>src/definition.h</title>
<!-- Node1 -->
<g id="node1" class="node">
<title>Node1</title>
<g id="a_node1"><a xlink:title=" ">
<polygon fill="#999999" stroke="#666666" points="444.5,-294 364.5,-294 364.5,-275 444.5,-275 444.5,-294"/>
<text text-anchor="middle" x="404.5" y="-282" font-family="Helvetica,sans-Serif" font-size="10.00" fill="#000000">src/definition.h</text>
</a>
</g>
</g>
<!-- Node2 -->
<g id="node2" class="node">
<title>Node2</title>
<g id="a_node2"><a xlink:title=" ">
<polygon fill="#e0e0e0" stroke="#999999" points="615.5,-129 571.5,-129 571.5,-110 615.5,-110 615.5,-129"/>
<text text-anchor="middle" x="593.5" y="-117" font-family="Helvetica,sans-Serif" font-size="10.00" fill="#000000">vector</text>
</a>
</g>
</g>
<!-- Node1&#45;&gt;Node2 -->
<g id="edge1" class="edge">
<title>Node1&#45;&gt;Node2</title>
<path fill="none" stroke="#63b8ff" d="M419.4064,-274.917C445.0637,-258.0848 498.6522,-221.4296 538.5,-184 553.9862,-169.4536 569.4982,-150.7999 580.0813,-137.2982"/>
<polygon fill="#63b8ff" stroke="#63b8ff" points="582.941,-139.3214 586.2744,-129.2646 577.397,-135.0475 582.941,-139.3214"/>
</g>
<!-- Node3 -->
<g id="node3" class="node">
<title>Node3</title>
<g id="a_node3"><a xlink:href="../../d9/d49/types_8h.html" target="_top" xlink:title="This file contains a number of basic enums and types.">
<polygon fill="#ffffff" stroke="#666666" points="268,-184 219,-184 219,-165 268,-165 268,-184"/>
<text text-anchor="middle" x="243.5" y="-172" font-family="Helvetica,sans-Serif" font-size="10.00" fill="#000000">types.h</text>
</a>
</g>
</g>
<!-- Node1&#45;&gt;Node3 -->
<g id="edge2" class="edge">
<title>Node1&#45;&gt;Node3</title>
<path fill="none" stroke="#63b8ff" d="M390.494,-274.9306C362.5429,-255.8337 299.6341,-212.8525 265.8901,-189.7976"/>
<polygon fill="#63b8ff" stroke="#63b8ff" points="267.8197,-186.877 257.5883,-184.1256 263.8707,-192.6568 267.8197,-186.877"/>
</g>
<!-- Node14 -->
<g id="node14" class="node">
<title>Node14</title>
<g id="a_node14"><a xlink:href="../../d1/d02/reflist_8h.html" target="_top" xlink:title=" ">
<polygon fill="#ffffff" stroke="#666666" points="429,-239 380,-239 380,-220 429,-220 429,-239"/>
<text text-anchor="middle" x="404.5" y="-227" font-family="Helvetica,sans-Serif" font-size="10.00" fill="#000000">reflist.h</text>
</a>
</g>
</g>
<!-- Node1&#45;&gt;Node14 -->
<g id="edge15" class="edge">
<title>Node1&#45;&gt;Node14</title>
<path fill="none" stroke="#63b8ff" d="M404.5,-274.9197C404.5,-267.9083 404.5,-258.1442 404.5,-249.4652"/>
<polygon fill="#63b8ff" stroke="#63b8ff" points="408.0001,-249.3408 404.5,-239.3408 401.0001,-249.3409 408.0001,-249.3408"/>
</g>
<!-- Node4 -->
<g id="node4" class="node">
<title>Node4</title>
<g id="a_node4"><a xlink:href="../../d7/d5c/qcstring_8h.html" target="_top" xlink:title=" ">
<polygon fill="#ffffff" stroke="#666666" points="268,-129 209,-129 209,-110 268,-110 268,-129"/>
<text text-anchor="middle" x="238.5" y="-117" font-family="Helvetica,sans-Serif" font-size="10.00" fill="#000000">qcstring.h</text>
</a>
</g>
</g>
<!-- Node3&#45;&gt;Node4 -->
<g id="edge3" class="edge">
<title>Node3&#45;&gt;Node4</title>
<path fill="none" stroke="#63b8ff" d="M242.6291,-164.9197C241.9917,-157.9083 241.104,-148.1442 240.315,-139.4652"/>
<polygon fill="#63b8ff" stroke="#63b8ff" points="243.7857,-138.9829 239.3946,-129.3408 236.8144,-139.6167 243.7857,-138.9829"/>
</g>
<!-- Node5 -->
<g id="node5" class="node">
<title>Node5</title>
<g id="a_node5"><a xlink:title=" ">
<polygon fill="#e0e0e0" stroke="#999999" points="262,-19 221,-19 221,0 262,0 262,-19"/>
<text text-anchor="middle" x="241.5" y="-7" font-family="Helvetica,sans-Serif" font-size="10.00" fill="#000000">string</text>
</a>
</g>
</g>
<!-- Node4&#45;&gt;Node5 -->
<g id="edge4" class="edge">
<title>Node4&#45;&gt;Node5</title>
<path fill="none" stroke="#63b8ff" d="M238.7662,-109.7382C239.2567,-91.7541 240.3119,-53.0652 240.9584,-29.3599"/>
<polygon fill="#63b8ff" stroke="#63b8ff" points="244.4646,-29.1746 241.2387,-19.0828 237.4672,-28.9837 244.4646,-29.1746"/>
</g>
<!-- Node6 -->
<g id="node6" class="node">
<title>Node6</title>
<g id="a_node6"><a xlink:title=" ">
<polygon fill="#e0e0e0" stroke="#999999" points="451.5,-74 395.5,-74 395.5,-55 451.5,-55 451.5,-74"/>
<text text-anchor="middle" x="423.5" y="-62" font-family="Helvetica,sans-Serif" font-size="10.00" fill="#000000">algorithm</text>
</a>
</g>
</g>
<!-- Node4&#45;&gt;Node6 -->
<g id="edge5" class="edge">
<title>Node4&#45;&gt;Node6</title>
<path fill="none" stroke="#63b8ff" d="M268.2235,-110.6633C300.1096,-101.1836 350.8396,-86.1017 385.5795,-75.7737"/>
<polygon fill="#63b8ff" stroke="#63b8ff" points="386.7784,-79.0687 395.3663,-72.8641 384.7835,-72.359 386.7784,-79.0687"/>
</g>
<!-- Node7 -->
<g id="node7" class="node">
<title>Node7</title>
<g id="a_node7"><a xlink:title=" ">
<polygon fill="#e0e0e0" stroke="#999999" points="515.5,-74 469.5,-74 469.5,-55 515.5,-55 515.5,-74"/>
<text text-anchor="middle" x="492.5" y="-62" font-family="Helvetica,sans-Serif" font-size="10.00" fill="#000000">cctype</text>
</a>
</g>
</g>
<!-- Node4&#45;&gt;Node7 -->
<g id="edge6" class="edge">
<title>Node4&#45;&gt;Node7</title>
<path fill="none" stroke="#63b8ff" d="M268.3361,-111.886C271.0918,-111.2296 273.8449,-110.5912 276.5,-110 354.818,-92.561 377.8822,-93.76 459.7639,-73.9946"/>
<polygon fill="#63b8ff" stroke="#63b8ff" points="460.6173,-77.3892 469.4996,-71.6137 458.9544,-70.5895 460.6173,-77.3892"/>
</g>
<!-- Node8 -->
<g id="node8" class="node">
<title>Node8</title>
<g id="a_node8"><a xlink:title=" ">
<polygon fill="#e0e0e0" stroke="#999999" points="315.5,-74 269.5,-74 269.5,-55 315.5,-55 315.5,-74"/>
<text text-anchor="middle" x="292.5" y="-62" font-family="Helvetica,sans-Serif" font-size="10.00" fill="#000000">cstring</text>
</a>
</g>
</g>
<!-- Node4&#45;&gt;Node8 -->
<g id="edge7" class="edge">
<title>Node4&#45;&gt;Node8</title>
<path fill="none" stroke="#63b8ff" d="M247.9061,-109.9197C255.5549,-102.1293 266.5403,-90.9405 275.6936,-81.6176"/>
<polygon fill="#63b8ff" stroke="#63b8ff" points="278.3296,-83.9286 282.8381,-74.3408 273.3347,-79.0244 278.3296,-83.9286"/>
</g>
<!-- Node9 -->
<g id="node9" class="node">
<title>Node9</title>
<g id="a_node9"><a xlink:title=" ">
<polygon fill="#e0e0e0" stroke="#999999" points="377,-74 334,-74 334,-55 377,-55 377,-74"/>
<text text-anchor="middle" x="355.5" y="-62" font-family="Helvetica,sans-Serif" font-size="10.00" fill="#000000">cstdio</text>
</a>
</g>
</g>
<!-- Node4&#45;&gt;Node9 -->
<g id="edge8" class="edge">
<title>Node4&#45;&gt;Node9</title>
<path fill="none" stroke="#63b8ff" d="M258.8798,-109.9197C277.3888,-101.219 304.9152,-88.2792 325.858,-78.4343"/>
<polygon fill="#63b8ff" stroke="#63b8ff" points="327.4002,-81.5768 334.9611,-74.155 324.4222,-75.2418 327.4002,-81.5768"/>
</g>
<!-- Node10 -->
<g id="node10" class="node">
<title>Node10</title>
<g id="a_node10"><a xlink:title=" ">
<polygon fill="#e0e0e0" stroke="#999999" points="45,-74 0,-74 0,-55 45,-55 45,-74"/>
<text text-anchor="middle" x="22.5" y="-62" font-family="Helvetica,sans-Serif" font-size="10.00" fill="#000000">cstdlib</text>
</a>
</g>
</g>
<!-- Node4&#45;&gt;Node10 -->
<g id="edge9" class="edge">
<title>Node4&#45;&gt;Node10</title>
<path fill="none" stroke="#63b8ff" d="M208.7537,-112.5907C174.134,-104.4519 115.0335,-90.2579 54.853,-74.0024"/>
<polygon fill="#63b8ff" stroke="#63b8ff" points="55.7566,-70.6211 45.1887,-71.3765 53.921,-77.3762 55.7566,-70.6211"/>
</g>
<!-- Node11 -->
<g id="node11" class="node">
<title>Node11</title>
<g id="a_node11"><a xlink:title=" ">
<polygon fill="#e0e0e0" stroke="#999999" points="184.5,-19 138.5,-19 138.5,0 184.5,0 184.5,-19"/>
<text text-anchor="middle" x="161.5" y="-7" font-family="Helvetica,sans-Serif" font-size="10.00" fill="#000000">cstdint</text>
</a>
</g>
</g>
<!-- Node4&#45;&gt;Node11 -->
<g id="edge10" class="edge">
<title>Node4&#45;&gt;Node11</title>
<path fill="none" stroke="#63b8ff" d="M208.6528,-109.8669C191.9351,-102.7779 172.4929,-91.3152 162.5,-74 154.7154,-60.5112 155.0931,-42.6443 157.0625,-29.1361"/>
<polygon fill="#63b8ff" stroke="#63b8ff" points="160.5589,-29.4776 158.9468,-19.0061 153.6769,-28.1973 160.5589,-29.4776"/>
</g>
<!-- Node12 -->
<g id="node12" class="node">
<title>Node12</title>
<g id="a_node12"><a xlink:title=" ">
<polygon fill="#e0e0e0" stroke="#999999" points="115.5,-74 63.5,-74 63.5,-55 115.5,-55 115.5,-74"/>
<text text-anchor="middle" x="89.5" y="-62" font-family="Helvetica,sans-Serif" font-size="10.00" fill="#000000">ostream</text>
</a>
</g>
</g>
<!-- Node4&#45;&gt;Node12 -->
<g id="edge11" class="edge">
<title>Node4&#45;&gt;Node12</title>
<path fill="none" stroke="#63b8ff" d="M212.5462,-109.9197C188.2637,-100.9564 151.7938,-87.4944 124.858,-77.5516"/>
<polygon fill="#63b8ff" stroke="#63b8ff" points="125.9993,-74.2421 115.4059,-74.0626 123.5752,-80.809 125.9993,-74.2421"/>
</g>
<!-- Node13 -->
<g id="node13" class="node">
<title>Node13</title>
<g id="a_node13"><a xlink:href="../../db/d7c/utf8_8h.html" target="_top" xlink:title="Various UTF8 related helper functions.">
<polygon fill="#ffffff" stroke="#666666" points="213,-74 172,-74 172,-55 213,-55 213,-74"/>
<text text-anchor="middle" x="192.5" y="-62" font-family="Helvetica,sans-Serif" font-size="10.00" fill="#000000">utf8.h</text>
</a>
</g>
</g>
<!-- Node4&#45;&gt;Node13 -->
<g id="edge12" class="edge">
<title>Node4&#45;&gt;Node13</title>
<path fill="none" stroke="#63b8ff" d="M230.4874,-109.9197C224.1021,-102.2851 214.987,-91.3867 207.2862,-82.1792"/>
<polygon fill="#63b8ff" stroke="#63b8ff" points="209.8309,-79.7662 200.7305,-74.3408 204.4613,-84.2571 209.8309,-79.7662"/>
</g>
<!-- Node13&#45;&gt;Node5 -->
<g id="edge14" class="edge">
<title>Node13&#45;&gt;Node5</title>
<path fill="none" stroke="#63b8ff" d="M201.0351,-54.9197C207.9063,-47.2072 217.7449,-36.1639 226.0001,-26.8978"/>
<polygon fill="#63b8ff" stroke="#63b8ff" points="228.6939,-29.1357 232.7327,-19.3408 223.4673,-24.4792 228.6939,-29.1357"/>
</g>
<!-- Node13&#45;&gt;Node11 -->
<g id="edge13" class="edge">
<title>Node13&#45;&gt;Node11</title>
<path fill="none" stroke="#63b8ff" d="M187.1002,-54.9197C182.9727,-47.5967 177.1527,-37.2709 172.1047,-28.3147"/>
<polygon fill="#63b8ff" stroke="#63b8ff" points="175.0059,-26.3338 167.0466,-19.3408 168.9078,-29.7709 175.0059,-26.3338"/>
</g>
<!-- Node14&#45;&gt;Node2 -->
<g id="edge16" class="edge">
<title>Node14&#45;&gt;Node2</title>
<path fill="none" stroke="#63b8ff" d="M429.1815,-221.1256C451.4594,-213.0801 484.7458,-199.8302 511.5,-184 535.1282,-170.0194 559.5237,-149.982 575.4942,-135.9616"/>
<polygon fill="#63b8ff" stroke="#63b8ff" points="577.8951,-138.5101 583.0291,-129.2423 573.2362,-133.2857 577.8951,-138.5101"/>
</g>
<!-- Node14&#45;&gt;Node4 -->
<g id="edge19" class="edge">
<title>Node14&#45;&gt;Node4</title>
<path fill="none" stroke="#63b8ff" d="M390.059,-219.9306C361.2399,-200.8337 296.3774,-157.8525 261.5855,-134.7976"/>
<polygon fill="#63b8ff" stroke="#63b8ff" points="263.2951,-131.7318 253.0258,-129.1256 259.4284,-137.567 263.2951,-131.7318"/>
</g>
<!-- Node15 -->
<g id="node15" class="node">
<title>Node15</title>
<g id="a_node15"><a xlink:title=" ">
<polygon fill="#e0e0e0" stroke="#999999" points="369,-129 286,-129 286,-110 369,-110 369,-129"/>
<text text-anchor="middle" x="327.5" y="-117" font-family="Helvetica,sans-Serif" font-size="10.00" fill="#000000">unordered_map</text>
</a>
</g>
</g>
<!-- Node14&#45;&gt;Node15 -->
<g id="edge17" class="edge">
<title>Node14&#45;&gt;Node15</title>
<path fill="none" stroke="#63b8ff" d="M397.6668,-219.7382C384.7346,-201.2636 356.5076,-160.9395 340.0682,-137.4546"/>
<polygon fill="#63b8ff" stroke="#63b8ff" points="342.81,-135.268 334.208,-129.0828 337.0753,-139.2823 342.81,-135.268"/>
</g>
<!-- Node16 -->
<g id="node16" class="node">
<title>Node16</title>
<g id="a_node16"><a xlink:title=" ">
<polygon fill="#e0e0e0" stroke="#999999" points="439.5,-129 387.5,-129 387.5,-110 439.5,-110 439.5,-129"/>
<text text-anchor="middle" x="413.5" y="-117" font-family="Helvetica,sans-Serif" font-size="10.00" fill="#000000">memory</text>
</a>
</g>
</g>
<!-- Node14&#45;&gt;Node16 -->
<g id="edge18" class="edge">
<title>Node14&#45;&gt;Node16</title>
<path fill="none" stroke="#63b8ff" d="M405.2987,-219.7382C406.7701,-201.7541 409.9356,-163.0652 411.8751,-139.3599"/>
<polygon fill="#63b8ff" stroke="#63b8ff" points="415.3887,-139.335 412.716,-129.0828 408.4121,-138.7641 415.3887,-139.335"/>
</g>
<!-- Node17 -->
<g id="node17" class="node">
<title>Node17</title>
<g id="a_node17"><a xlink:href="../../da/de1/linkedmap_8h.html" target="_top" xlink:title=" ">
<polygon fill="#ffffff" stroke="#666666" points="502,-184 433,-184 433,-165 502,-165 502,-184"/>
<text text-anchor="middle" x="467.5" y="-172" font-family="Helvetica,sans-Serif" font-size="10.00" fill="#000000">linkedmap.h</text>
</a>
</g>
</g>
<!-- Node14&#45;&gt;Node17 -->
<g id="edge20" class="edge">
<title>Node14&#45;&gt;Node17</title>
<path fill="none" stroke="#63b8ff" d="M415.4738,-219.9197C424.5758,-211.9735 437.7279,-200.4916 448.5307,-191.0605"/>
<polygon fill="#63b8ff" stroke="#63b8ff" points="450.9964,-193.5541 456.2278,-184.3408 446.3928,-188.2808 450.9964,-193.5541"/>
</g>
<!-- Node17&#45;&gt;Node2 -->
<g id="edge22" class="edge">
<title>Node17&#45;&gt;Node2</title>
<path fill="none" stroke="#63b8ff" d="M489.4475,-164.9197C509.5598,-156.1406 539.5589,-143.0457 562.1857,-133.1689"/>
<polygon fill="#63b8ff" stroke="#63b8ff" points="563.6165,-136.3634 571.3812,-129.155 560.8161,-129.9479 563.6165,-136.3634"/>
</g>
<!-- Node17&#45;&gt;Node4 -->
<g id="edge27" class="edge">
<title>Node17&#45;&gt;Node4</title>
<path fill="none" stroke="#63b8ff" d="M432.9676,-166.3955C396.7096,-157.8592 337.7726,-143.9079 278.2972,-129.4224"/>
<polygon fill="#63b8ff" stroke="#63b8ff" points="278.9076,-125.9687 268.363,-126.999 277.2486,-132.7693 278.9076,-125.9687"/>
</g>
<!-- Node17&#45;&gt;Node5 -->
<g id="edge24" class="edge">
<title>Node17&#45;&gt;Node5</title>
<path fill="none" stroke="#63b8ff" d="M478.7694,-164.8702C502.7542,-143.2459 554.3153,-89.9919 524.5,-55 508.2299,-35.9051 342.0028,-18.6612 272.1526,-12.1998"/>
<polygon fill="#63b8ff" stroke="#63b8ff" points="272.4672,-8.7141 262.1906,-11.2912 271.8313,-15.6851 272.4672,-8.7141"/>
</g>
<!-- Node17&#45;&gt;Node6 -->
<g id="edge25" class="edge">
<title>Node17&#45;&gt;Node6</title>
<path fill="none" stroke="#63b8ff" d="M465.3033,-164.6583C462.2782,-151.8106 456.3059,-128.7524 448.5,-110 444.6661,-100.7897 439.4739,-91.0379 434.8147,-82.9347"/>
<polygon fill="#63b8ff" stroke="#63b8ff" points="437.813,-81.1288 429.7034,-74.3107 431.7912,-84.6978 437.813,-81.1288"/>
</g>
<!-- Node17&#45;&gt;Node7 -->
<g id="edge26" class="edge">
<title>Node17&#45;&gt;Node7</title>
<path fill="none" stroke="#63b8ff" d="M470.8729,-164.8373C473.9686,-155.6947 478.5141,-141.5426 481.5,-129 485.0404,-114.1281 487.8984,-97.0674 489.813,-84.2292"/>
<polygon fill="#63b8ff" stroke="#63b8ff" points="493.2969,-84.5896 491.2462,-74.1952 486.3673,-83.5998 493.2969,-84.5896"/>
</g>
<!-- Node17&#45;&gt;Node15 -->
<g id="edge21" class="edge">
<title>Node17&#45;&gt;Node15</title>
<path fill="none" stroke="#63b8ff" d="M443.1139,-164.9197C420.5674,-156.0622 386.8384,-142.8115 361.6222,-132.9052"/>
<polygon fill="#63b8ff" stroke="#63b8ff" points="362.6638,-129.554 352.0764,-129.155 360.1041,-136.0692 362.6638,-129.554"/>
</g>
<!-- Node17&#45;&gt;Node16 -->
<g id="edge23" class="edge">
<title>Node17&#45;&gt;Node16</title>
<path fill="none" stroke="#63b8ff" d="M458.0939,-164.9197C450.4451,-157.1293 439.4597,-145.9405 430.3064,-136.6176"/>
<polygon fill="#63b8ff" stroke="#63b8ff" points="432.6653,-134.0244 423.1619,-129.3408 427.6704,-138.9286 432.6653,-134.0244"/>
</g>
</g>
</svg>
        <g id="navigator" transform="translate(0 0)" fill="#404254">
                <rect fill="#f2f5e9" fill-opacity="0.5" stroke="#606060" stroke-width=".5" x="0" y="0" width="60" height="60"/>
                <use id="zoomplus" xlink:href="#zoomPlus" x="17" y="9" onmousedown="handleZoom(evt,'in')"/>
                <use id="zoomminus" xlink:href="#zoomMin" x="42" y="9" onmousedown="handleZoom(evt,'out')"/>
                <use id="reset" xlink:href="#resetDef" x="30" y="36" onmousedown="handleReset()"/>
                <g id="arrowUp" xlink:href="#dirArrow" transform="translate(30 24)" onmousedown="handlePan(0,-1)">
                  <use xlink:href="#rim" fill="#404040">
                        <set attributeName="fill" to="#808080" begin="arrowUp.mouseover" end="arrowUp.mouseout"/>
                  </use>
                  <path fill="none" stroke="white" stroke-width="1.5" d="M0,-3.0v7 M-2.5,-0.5L0,-3.0L2.5,-0.5"/>
                </g>
                <g id="arrowRight" xlink:href="#dirArrow" transform="rotate(90) translate(36 -43)" onmousedown="handlePan(1,0)">
                  <use xlink:href="#rim" fill="#404040">
                        <set attributeName="fill" to="#808080" begin="arrowRight.mouseover" end="arrowRight.mouseout"/>
                  </use>
                  <path fill="none" stroke="white" stroke-width="1.5" d="M0,-3.0v7 M-2.5,-0.5L0,-3.0L2.5,-0.5"/>
                </g>
                <g id="arrowDown" xlink:href="#dirArrow" transform="rotate(180) translate(-30 -48)" onmousedown="handlePan(0,1)">
                  <use xlink:href="#rim" fill="#404040">
                        <set attributeName="fill" to="#808080" begin="arrowDown.mouseover" end="arrowDown.mouseout"/>
                  </use>
                  <path fill="none" stroke="white" stroke-width="1.5" d="M0,-3.0v7 M-2.5,-0.5L0,-3.0L2.5,-0.5"/>
                </g>
                <g id="arrowLeft" xlink:href="#dirArrow" transform="rotate(270) translate(-36 17)" onmousedown="handlePan(-1,0)">
                  <use xlink:href="#rim" fill="#404040">
                        <set attributeName="fill" to="#808080" begin="arrowLeft.mouseover" end="arrowLeft.mouseout"/>
                  </use>
                  <path fill="none" stroke="white" stroke-width="1.5" d="M0,-3.0v7 M-2.5,-0.5L0,-3.0L2.5,-0.5"/>
                </g>
        </g>
        <svg viewBox="0 0 15 15" width="100%" height="30px" preserveAspectRatio="xMaxYMin meet">
         <g id="arrow_out" transform="scale(0.3 0.3)">
          <a xlink:href="definition_8h__incl_org.svg" target="_base">
           <rect id="button" ry="5" rx="5" y="6" x="6" height="38" width="38"
                fill="#f2f5e9" fill-opacity="0.5" stroke="#606060" stroke-width="1.0"/>
           <path id="arrow"
             d="M 11.500037,31.436501 C 11.940474,20.09759 22.043105,11.32322 32.158766,21.979434 L 37.068811,17.246167 C 37.068811,17.246167 37.088388,32 37.088388,32 L 22.160133,31.978069 C 22.160133,31.978069 26.997745,27.140456 26.997745,27.140456 C 18.528582,18.264221 13.291696,25.230495 11.500037,31.436501 z"
             style="fill:#404040;"/>
          </a>
         </g>
        </svg>
</svg>
