<?xml version="1.0" encoding="UTF-8" standalone="no"?>
<!DOCTYPE svg PUBLIC "-//W3C//DTD SVG 1.1//EN"
 "http://www.w3.org/Graphics/SVG/1.1/DTD/svg11.dtd">
<!-- Generated by graphviz version 2.40.1 (20161225.0304)
 -->
<!-- Title: TranslatorAdapter_1_8_4 Pages: 1 -->
<!--zoomable 452 -->
<svg id="main" version="1.1" xmlns="http://www.w3.org/2000/svg" xmlns:xlink="http://www.w3.org/1999/xlink" xml:space="preserve" onload="init(evt)">
<style type="text/css"><![CDATA[
.edge:hover path { stroke: red; }
.edge:hover polygon { stroke: red; fill: red; }
]]></style>
<script type="text/javascript"><![CDATA[
var edges = document.getElementsByTagName('g');
if (edges && edges.length) {
  for (var i=0;i<edges.length;i++) {
    if (edges[i].id.substr(0,4)=='edge') {
      edges[i].setAttribute('class','edge');
    }
  }
}
]]></script>
        <defs>
                <circle id="rim" cx="0" cy="0" r="7"/>
                <circle id="rim2" cx="0" cy="0" r="3.5"/>
                <g id="zoomPlus">
                        <use xlink:href="#rim" fill="#404040">
                                <set attributeName="fill" to="#808080" begin="zoomplus.mouseover" end="zoomplus.mouseout"/>
                        </use>
                        <path d="M-4,0h8M0,-4v8" fill="none" stroke="white" stroke-width="1.5" pointer-events="none"/>
                </g>
                <g id="zoomMin">
                        <use xlink:href="#rim" fill="#404040">
                                <set attributeName="fill" to="#808080" begin="zoomminus.mouseover" end="zoomminus.mouseout"/>
                        </use>
                        <path d="M-4,0h8" fill="none" stroke="white" stroke-width="1.5" pointer-events="none"/>
                </g>
                <g id="dirArrow">
                        <path fill="none" stroke="white" stroke-width="1.5" d="M0,-3.0v7 M-2.5,-0.5L0,-3.0L2.5,-0.5"/>
                </g>
               <g id="resetDef">
                       <use xlink:href="#rim2" fill="#404040">
                               <set attributeName="fill" to="#808080" begin="reset.mouseover" end="reset.mouseout"/>
                       </use>
               </g>
        </defs>

<script type="text/javascript">
var viewWidth = 1985;
var viewHeight = 452;
var sectionId = 'dynsection-0';
</script>
<script xlink:href="../../svgpan.js"/>
<svg id="graph" class="graph">
<g id="viewport">
<title>TranslatorAdapter_1_8_4</title>
<!-- Node1 -->
<g id="node1" class="node">
<title>Node1</title>
<g id="a_node1"><a xlink:title=" ">
<polygon fill="#999999" stroke="#666666" points="1029,-74 904,-74 904,-55 1029,-55 1029,-74"/>
<text text-anchor="middle" x="966.5" y="-62" font-family="Helvetica,sans-Serif" font-size="10.00" fill="#000000">TranslatorAdapter_1_8_4</text>
</a>
</g>
</g>
<!-- Node8 -->
<g id="node8" class="node">
<title>Node8</title>
<g id="a_node8"><a xlink:href="../../d2/d75/class_translator_adapter__1__8__2.html" target="_top" xlink:title=" ">
<polygon fill="#ffffff" stroke="#666666" points="1190,-130 1065,-130 1065,-111 1190,-111 1190,-130"/>
<text text-anchor="middle" x="1127.5" y="-118" font-family="Helvetica,sans-Serif" font-size="10.00" fill="#000000">TranslatorAdapter_1_8_2</text>
</a>
</g>
</g>
<!-- Node1&#45;&gt;Node8 -->
<g id="edge7" class="edge">
<title>Node1&#45;&gt;Node8</title>
<path fill="none" stroke="#63b8ff" d="M1000.0286,-77.7049C1018.9904,-85.0187 1043.199,-94.1002 1065,-101.5 1074.5579,-104.7442 1085.0241,-108.0291 1094.6119,-110.9343"/>
<polygon fill="#63b8ff" stroke="#63b8ff" points="1001.2206,-74.4132 990.6316,-74.0596 998.6889,-80.9394 1001.2206,-74.4132"/>
</g>
<!-- Node31 -->
<g id="node31" class="node">
<title>Node31</title>
<g id="a_node31"><a xlink:href="../../d2/d07/class_translator_esperanto.html" target="_top" xlink:title=" ">
<polygon fill="#ffffff" stroke="#666666" points="1179.5,-93 1075.5,-93 1075.5,-74 1179.5,-74 1179.5,-93"/>
<text text-anchor="middle" x="1127.5" y="-81" font-family="Helvetica,sans-Serif" font-size="10.00" fill="#000000">TranslatorEsperanto</text>
</a>
</g>
</g>
<!-- Node1&#45;&gt;Node31 -->
<g id="edge30" class="edge">
<title>Node1&#45;&gt;Node31</title>
<path fill="none" stroke="#63b8ff" d="M1039.3364,-73.0956C1051.4893,-74.5298 1063.8774,-75.9917 1075.3791,-77.3491"/>
<polygon fill="#63b8ff" stroke="#63b8ff" points="1039.5491,-69.5965 1029.2078,-71.9003 1038.7287,-76.5483 1039.5491,-69.5965"/>
</g>
<!-- Node32 -->
<g id="node32" class="node">
<title>Node32</title>
<g id="a_node32"><a xlink:href="../../d8/d83/class_translator_latvian.html" target="_top" xlink:title=" ">
<polygon fill="#ffffff" stroke="#666666" points="1173.5,-56 1081.5,-56 1081.5,-37 1173.5,-37 1173.5,-56"/>
<text text-anchor="middle" x="1127.5" y="-44" font-family="Helvetica,sans-Serif" font-size="10.00" fill="#000000">TranslatorLatvian</text>
</a>
</g>
</g>
<!-- Node1&#45;&gt;Node32 -->
<g id="edge31" class="edge">
<title>Node1&#45;&gt;Node32</title>
<path fill="none" stroke="#63b8ff" d="M1039.4544,-56.3436C1053.6379,-54.7579 1068.1366,-53.1369 1081.1684,-51.6799"/>
<polygon fill="#63b8ff" stroke="#63b8ff" points="1038.757,-52.8997 1029.2078,-57.4892 1039.5348,-59.8563 1038.757,-52.8997"/>
</g>
<!-- Node33 -->
<g id="node33" class="node">
<title>Node33</title>
<g id="a_node33"><a xlink:href="../../d1/d56/class_translator_ukrainian.html" target="_top" xlink:title=" ">
<polygon fill="#ffffff" stroke="#666666" points="1178,-19 1077,-19 1077,0 1178,0 1178,-19"/>
<text text-anchor="middle" x="1127.5" y="-7" font-family="Helvetica,sans-Serif" font-size="10.00" fill="#000000">TranslatorUkrainian</text>
</a>
</g>
</g>
<!-- Node1&#45;&gt;Node33 -->
<g id="edge32" class="edge">
<title>Node1&#45;&gt;Node33</title>
<path fill="none" stroke="#63b8ff" d="M999.6036,-51.3198C1018.6085,-43.941 1042.9975,-34.7882 1065,-27.5 1073.8967,-24.553 1083.5944,-21.6248 1092.6384,-19.0131"/>
<polygon fill="#63b8ff" stroke="#63b8ff" points="998.2362,-48.0963 990.1972,-54.9974 1000.7852,-54.6158 998.2362,-48.0963"/>
</g>
<!-- Node2 -->
<g id="node2" class="node">
<title>Node2</title>
<g id="a_node2"><a xlink:href="../../d4/d2e/class_translator_adapter__1__8__15.html" target="_top" xlink:title=" ">
<polygon fill="#ffffff" stroke="#666666" points="868,-74 737,-74 737,-55 868,-55 868,-74"/>
<text text-anchor="middle" x="802.5" y="-62" font-family="Helvetica,sans-Serif" font-size="10.00" fill="#000000">TranslatorAdapter_1_8_15</text>
</a>
</g>
</g>
<!-- Node2&#45;&gt;Node1 -->
<g id="edge1" class="edge">
<title>Node2&#45;&gt;Node1</title>
<path fill="none" stroke="#63b8ff" d="M878.2726,-64.5C886.857,-64.5 895.5328,-64.5 903.9211,-64.5"/>
<polygon fill="#63b8ff" stroke="#63b8ff" points="878.2601,-61.0001 868.2601,-64.5 878.2601,-68.0001 878.2601,-61.0001"/>
</g>
<!-- Node3 -->
<g id="node3" class="node">
<title>Node3</title>
<g id="a_node3"><a xlink:href="../../de/dde/class_translator_adapter__1__8__19.html" target="_top" xlink:title=" ">
<polygon fill="#ffffff" stroke="#666666" points="701,-74 570,-74 570,-55 701,-55 701,-74"/>
<text text-anchor="middle" x="635.5" y="-62" font-family="Helvetica,sans-Serif" font-size="10.00" fill="#000000">TranslatorAdapter_1_8_19</text>
</a>
</g>
</g>
<!-- Node3&#45;&gt;Node2 -->
<g id="edge2" class="edge">
<title>Node3&#45;&gt;Node2</title>
<path fill="none" stroke="#63b8ff" d="M711.0663,-64.5C719.6848,-64.5 728.4171,-64.5 736.8913,-64.5"/>
<polygon fill="#63b8ff" stroke="#63b8ff" points="711.0235,-61.0001 701.0235,-64.5 711.0235,-68.0001 711.0235,-61.0001"/>
</g>
<!-- Node4 -->
<g id="node4" class="node">
<title>Node4</title>
<g id="a_node4"><a xlink:href="../../d3/d2e/class_translator_adapter__1__9__2.html" target="_top" xlink:title=" ">
<polygon fill="#ffffff" stroke="#666666" points="534,-74 409,-74 409,-55 534,-55 534,-74"/>
<text text-anchor="middle" x="471.5" y="-62" font-family="Helvetica,sans-Serif" font-size="10.00" fill="#000000">TranslatorAdapter_1_9_2</text>
</a>
</g>
</g>
<!-- Node4&#45;&gt;Node3 -->
<g id="edge3" class="edge">
<title>Node4&#45;&gt;Node3</title>
<path fill="none" stroke="#63b8ff" d="M544.5745,-64.5C552.9557,-64.5 561.4628,-64.5 569.7399,-64.5"/>
<polygon fill="#63b8ff" stroke="#63b8ff" points="544.4377,-61.0001 534.4377,-64.5 544.4376,-68.0001 544.4377,-61.0001"/>
</g>
<!-- Node5 -->
<g id="node5" class="node">
<title>Node5</title>
<g id="a_node5"><a xlink:href="../../d0/d33/class_translator_adapter__1__9__4.html" target="_top" xlink:title=" ">
<polygon fill="#ffffff" stroke="#666666" points="373,-74 248,-74 248,-55 373,-55 373,-74"/>
<text text-anchor="middle" x="310.5" y="-62" font-family="Helvetica,sans-Serif" font-size="10.00" fill="#000000">TranslatorAdapter_1_9_4</text>
</a>
</g>
</g>
<!-- Node5&#45;&gt;Node4 -->
<g id="edge4" class="edge">
<title>Node5&#45;&gt;Node4</title>
<path fill="none" stroke="#63b8ff" d="M383.2184,-64.5C391.8129,-64.5 400.5268,-64.5 408.9633,-64.5"/>
<polygon fill="#63b8ff" stroke="#63b8ff" points="383.2078,-61.0001 373.2078,-64.5 383.2078,-68.0001 383.2078,-61.0001"/>
</g>
<!-- Node6 -->
<g id="node6" class="node">
<title>Node6</title>
<g id="a_node6"><a xlink:href="../../db/d6c/class_translator_adapter_base.html" target="_top" xlink:title="Base of the translator adapter tree.">
<polygon fill="#ffffff" stroke="#666666" points="212,-74 96,-74 96,-55 212,-55 212,-74"/>
<text text-anchor="middle" x="154" y="-62" font-family="Helvetica,sans-Serif" font-size="10.00" fill="#000000">TranslatorAdapterBase</text>
</a>
</g>
</g>
<!-- Node6&#45;&gt;Node5 -->
<g id="edge5" class="edge">
<title>Node6&#45;&gt;Node5</title>
<path fill="none" stroke="#63b8ff" d="M222.5047,-64.5C230.9767,-64.5 239.6034,-64.5 247.9794,-64.5"/>
<polygon fill="#63b8ff" stroke="#63b8ff" points="222.2749,-61.0001 212.2748,-64.5 222.2748,-68.0001 222.2749,-61.0001"/>
</g>
<!-- Node7 -->
<g id="node7" class="node">
<title>Node7</title>
<g id="a_node7"><a xlink:href="../../d8/dfb/class_translator.html" target="_top" xlink:title="Abstract base class for all translatable text fragments.">
<polygon fill="#ffffff" stroke="#666666" points="60,-74 0,-74 0,-55 60,-55 60,-74"/>
<text text-anchor="middle" x="30" y="-62" font-family="Helvetica,sans-Serif" font-size="10.00" fill="#000000">Translator</text>
</a>
</g>
</g>
<!-- Node7&#45;&gt;Node6 -->
<g id="edge6" class="edge">
<title>Node7&#45;&gt;Node6</title>
<path fill="none" stroke="#63b8ff" d="M70.2811,-64.5C78.379,-64.5 87.0427,-64.5 95.614,-64.5"/>
<polygon fill="#63b8ff" stroke="#63b8ff" points="70.017,-61.0001 60.0169,-64.5 70.0169,-68.0001 70.017,-61.0001"/>
</g>
<!-- Node9 -->
<g id="node9" class="node">
<title>Node9</title>
<g id="a_node9"><a xlink:href="../../de/d49/class_translator_adapter__1__8__0.html" target="_top" xlink:title="Adapter class for languages that only contain translations up to version 1.8.0.">
<polygon fill="#ffffff" stroke="#666666" points="1351,-167 1226,-167 1226,-148 1351,-148 1351,-167"/>
<text text-anchor="middle" x="1288.5" y="-155" font-family="Helvetica,sans-Serif" font-size="10.00" fill="#000000">TranslatorAdapter_1_8_0</text>
</a>
</g>
</g>
<!-- Node8&#45;&gt;Node9 -->
<g id="edge8" class="edge">
<title>Node8&#45;&gt;Node9</title>
<path fill="none" stroke="#63b8ff" d="M1178.7953,-132.2884C1200.7748,-137.3396 1226.1145,-143.163 1246.8995,-147.9396"/>
<polygon fill="#63b8ff" stroke="#63b8ff" points="1179.4914,-128.8572 1168.9615,-130.0284 1177.9235,-135.6793 1179.4914,-128.8572"/>
</g>
<!-- Node29 -->
<g id="node29" class="node">
<title>Node29</title>
<g id="a_node29"><a xlink:href="../../d9/d82/class_translator_croatian.html" target="_top" xlink:title=" ">
<polygon fill="#ffffff" stroke="#666666" points="1337,-130 1240,-130 1240,-111 1337,-111 1337,-130"/>
<text text-anchor="middle" x="1288.5" y="-118" font-family="Helvetica,sans-Serif" font-size="10.00" fill="#000000">TranslatorCroatian</text>
</a>
</g>
</g>
<!-- Node8&#45;&gt;Node29 -->
<g id="edge28" class="edge">
<title>Node8&#45;&gt;Node29</title>
<path fill="none" stroke="#63b8ff" d="M1200.3743,-120.5C1213.774,-120.5 1227.4581,-120.5 1239.9234,-120.5"/>
<polygon fill="#63b8ff" stroke="#63b8ff" points="1200.2078,-117.0001 1190.2078,-120.5 1200.2078,-124.0001 1200.2078,-117.0001"/>
</g>
<!-- Node30 -->
<g id="node30" class="node">
<title>Node30</title>
<g id="a_node30"><a xlink:href="../../de/d82/class_translator_polish.html" target="_top" xlink:title=" ">
<polygon fill="#ffffff" stroke="#666666" points="1332,-93 1245,-93 1245,-74 1332,-74 1332,-93"/>
<text text-anchor="middle" x="1288.5" y="-81" font-family="Helvetica,sans-Serif" font-size="10.00" fill="#000000">TranslatorPolish</text>
</a>
</g>
</g>
<!-- Node8&#45;&gt;Node30 -->
<g id="edge29" class="edge">
<title>Node8&#45;&gt;Node30</title>
<path fill="none" stroke="#63b8ff" d="M1178.7953,-108.7116C1200.7748,-103.6604 1226.1145,-97.837 1246.8995,-93.0604"/>
<polygon fill="#63b8ff" stroke="#63b8ff" points="1177.9235,-105.3207 1168.9615,-110.9716 1179.4914,-112.1428 1177.9235,-105.3207"/>
</g>
<!-- Node10 -->
<g id="node10" class="node">
<title>Node10</title>
<g id="a_node10"><a xlink:href="../../da/d24/class_translator_adapter__1__7__5.html" target="_top" xlink:title="Adapter class for languages that only contain translations up to version 1.7.5.">
<polygon fill="#ffffff" stroke="#666666" points="1512,-241 1387,-241 1387,-222 1512,-222 1512,-241"/>
<text text-anchor="middle" x="1449.5" y="-229" font-family="Helvetica,sans-Serif" font-size="10.00" fill="#000000">TranslatorAdapter_1_7_5</text>
</a>
</g>
</g>
<!-- Node9&#45;&gt;Node10 -->
<g id="edge9" class="edge">
<title>Node9&#45;&gt;Node10</title>
<path fill="none" stroke="#63b8ff" d="M1311.8673,-172.4312C1331.3839,-184.435 1360.2385,-201.1164 1387,-212.5 1395.3489,-216.0514 1404.5832,-219.2386 1413.3343,-221.9425"/>
<polygon fill="#63b8ff" stroke="#63b8ff" points="1313.681,-169.4375 1303.3428,-167.1196 1309.9791,-175.3786 1313.681,-169.4375"/>
</g>
<!-- Node25 -->
<g id="node25" class="node">
<title>Node25</title>
<g id="a_node25"><a xlink:href="../../da/db8/class_translator_armenian.html" target="_top" xlink:title=" ">
<polygon fill="#ffffff" stroke="#666666" points="1500,-204 1399,-204 1399,-185 1500,-185 1500,-204"/>
<text text-anchor="middle" x="1449.5" y="-192" font-family="Helvetica,sans-Serif" font-size="10.00" fill="#000000">TranslatorArmenian</text>
</a>
</g>
</g>
<!-- Node9&#45;&gt;Node25 -->
<g id="edge24" class="edge">
<title>Node9&#45;&gt;Node25</title>
<path fill="none" stroke="#63b8ff" d="M1339.7953,-169.2884C1361.7748,-174.3396 1387.1145,-180.163 1407.8995,-184.9396"/>
<polygon fill="#63b8ff" stroke="#63b8ff" points="1340.4914,-165.8572 1329.9615,-167.0284 1338.9235,-172.6793 1340.4914,-165.8572"/>
</g>
<!-- Node26 -->
<g id="node26" class="node">
<title>Node26</title>
<g id="a_node26"><a xlink:href="../../d9/dc1/class_translator_catalan.html" target="_top" xlink:title=" ">
<polygon fill="#ffffff" stroke="#666666" points="1496.5,-167 1402.5,-167 1402.5,-148 1496.5,-148 1496.5,-167"/>
<text text-anchor="middle" x="1449.5" y="-155" font-family="Helvetica,sans-Serif" font-size="10.00" fill="#000000">TranslatorCatalan</text>
</a>
</g>
</g>
<!-- Node9&#45;&gt;Node26 -->
<g id="edge25" class="edge">
<title>Node9&#45;&gt;Node26</title>
<path fill="none" stroke="#63b8ff" d="M1361.2437,-157.5C1375.1346,-157.5 1389.3364,-157.5 1402.174,-157.5"/>
<polygon fill="#63b8ff" stroke="#63b8ff" points="1361.2078,-154.0001 1351.2078,-157.5 1361.2078,-161.0001 1361.2078,-154.0001"/>
</g>
<!-- Node27 -->
<g id="node27" class="node">
<title>Node27</title>
<g id="a_node27"><a xlink:href="../../d7/d21/class_translator_danish.html" target="_top" xlink:title=" ">
<polygon fill="#ffffff" stroke="#666666" points="1495,-130 1404,-130 1404,-111 1495,-111 1495,-130"/>
<text text-anchor="middle" x="1449.5" y="-118" font-family="Helvetica,sans-Serif" font-size="10.00" fill="#000000">TranslatorDanish</text>
</a>
</g>
</g>
<!-- Node9&#45;&gt;Node27 -->
<g id="edge26" class="edge">
<title>Node9&#45;&gt;Node27</title>
<path fill="none" stroke="#63b8ff" d="M1339.7953,-145.7116C1361.7748,-140.6604 1387.1145,-134.837 1407.8995,-130.0604"/>
<polygon fill="#63b8ff" stroke="#63b8ff" points="1338.9235,-142.3207 1329.9615,-147.9716 1340.4914,-149.1428 1338.9235,-142.3207"/>
</g>
<!-- Node28 -->
<g id="node28" class="node">
<title>Node28</title>
<g id="a_node28"><a xlink:href="../../df/dc8/class_translator_indonesian.html" target="_top" xlink:title=" ">
<polygon fill="#ffffff" stroke="#666666" points="1503,-93 1396,-93 1396,-74 1503,-74 1503,-93"/>
<text text-anchor="middle" x="1449.5" y="-81" font-family="Helvetica,sans-Serif" font-size="10.00" fill="#000000">TranslatorIndonesian</text>
</a>
</g>
</g>
<!-- Node9&#45;&gt;Node28 -->
<g id="edge27" class="edge">
<title>Node9&#45;&gt;Node28</title>
<path fill="none" stroke="#63b8ff" d="M1340.06,-144.1629C1343.8652,-142.4783 1347.5571,-140.5972 1351,-138.5 1370.5948,-126.5641 1367.318,-113.2914 1387,-101.5 1392.6181,-98.1342 1398.8987,-95.3696 1405.2532,-93.1065"/>
<polygon fill="#63b8ff" stroke="#63b8ff" points="1338.4623,-141.0307 1330.4448,-147.9568 1341.0315,-147.5422 1338.4623,-141.0307"/>
</g>
<!-- Node11 -->
<g id="node11" class="node">
<title>Node11</title>
<g id="a_node11"><a xlink:href="../../d3/da1/class_translator_adapter__1__6__0.html" target="_top" xlink:title="Adapter class for languages that only contain translations up to version 1.6.0.">
<polygon fill="#ffffff" stroke="#666666" points="1673,-278 1548,-278 1548,-259 1673,-259 1673,-278"/>
<text text-anchor="middle" x="1610.5" y="-266" font-family="Helvetica,sans-Serif" font-size="10.00" fill="#000000">TranslatorAdapter_1_6_0</text>
</a>
</g>
</g>
<!-- Node10&#45;&gt;Node11 -->
<g id="edge10" class="edge">
<title>Node10&#45;&gt;Node11</title>
<path fill="none" stroke="#63b8ff" d="M1500.7953,-243.2884C1522.7748,-248.3396 1548.1145,-254.163 1568.8995,-258.9396"/>
<polygon fill="#63b8ff" stroke="#63b8ff" points="1501.4914,-239.8572 1490.9615,-241.0284 1499.9235,-246.6793 1501.4914,-239.8572"/>
</g>
<!-- Node23 -->
<g id="node23" class="node">
<title>Node23</title>
<g id="a_node23"><a xlink:href="../../d5/d43/class_translator_persian.html" target="_top" xlink:title=" ">
<polygon fill="#ffffff" stroke="#666666" points="1657,-241 1564,-241 1564,-222 1657,-222 1657,-241"/>
<text text-anchor="middle" x="1610.5" y="-229" font-family="Helvetica,sans-Serif" font-size="10.00" fill="#000000">TranslatorPersian</text>
</a>
</g>
</g>
<!-- Node10&#45;&gt;Node23 -->
<g id="edge22" class="edge">
<title>Node10&#45;&gt;Node23</title>
<path fill="none" stroke="#63b8ff" d="M1522.349,-231.5C1536.3862,-231.5 1550.7365,-231.5 1563.6719,-231.5"/>
<polygon fill="#63b8ff" stroke="#63b8ff" points="1522.2078,-228.0001 1512.2078,-231.5 1522.2078,-235.0001 1522.2078,-228.0001"/>
</g>
<!-- Node24 -->
<g id="node24" class="node">
<title>Node24</title>
<g id="a_node24"><a xlink:href="../../dd/d80/class_translator_turkish.html" target="_top" xlink:title=" ">
<polygon fill="#ffffff" stroke="#666666" points="1656.5,-204 1564.5,-204 1564.5,-185 1656.5,-185 1656.5,-204"/>
<text text-anchor="middle" x="1610.5" y="-192" font-family="Helvetica,sans-Serif" font-size="10.00" fill="#000000">TranslatorTurkish</text>
</a>
</g>
</g>
<!-- Node10&#45;&gt;Node24 -->
<g id="edge23" class="edge">
<title>Node10&#45;&gt;Node24</title>
<path fill="none" stroke="#63b8ff" d="M1500.7953,-219.7116C1522.7748,-214.6604 1548.1145,-208.837 1568.8995,-204.0604"/>
<polygon fill="#63b8ff" stroke="#63b8ff" points="1499.9235,-216.3207 1490.9615,-221.9716 1501.4914,-223.1428 1499.9235,-216.3207"/>
</g>
<!-- Node12 -->
<g id="node12" class="node">
<title>Node12</title>
<g id="a_node12"><a xlink:href="../../d4/d2b/class_translator_adapter__1__4__6.html" target="_top" xlink:title="Adapter class for languages that only contain translations up to version 1.4.6.">
<polygon fill="#ffffff" stroke="#666666" points="1834,-389 1709,-389 1709,-370 1834,-370 1834,-389"/>
<text text-anchor="middle" x="1771.5" y="-377" font-family="Helvetica,sans-Serif" font-size="10.00" fill="#000000">TranslatorAdapter_1_4_6</text>
</a>
</g>
</g>
<!-- Node11&#45;&gt;Node12 -->
<g id="edge11" class="edge">
<title>Node11&#45;&gt;Node12</title>
<path fill="none" stroke="#63b8ff" d="M1624.4656,-286.0385C1642.041,-306.969 1674.1707,-341.6252 1709,-361.5 1714.8844,-364.8578 1721.4437,-367.6305 1728.0383,-369.9077"/>
<polygon fill="#63b8ff" stroke="#63b8ff" points="1627.1135,-283.748 1618.0609,-278.2434 1621.705,-288.1918 1627.1135,-283.748"/>
</g>
<!-- Node17 -->
<g id="node17" class="node">
<title>Node17</title>
<g id="a_node17"><a xlink:href="../../d3/d65/class_translator_afrikaans.html" target="_top" xlink:title=" ">
<polygon fill="#ffffff" stroke="#666666" points="1822,-352 1721,-352 1721,-333 1822,-333 1822,-352"/>
<text text-anchor="middle" x="1771.5" y="-340" font-family="Helvetica,sans-Serif" font-size="10.00" fill="#000000">TranslatorAfrikaans</text>
</a>
</g>
</g>
<!-- Node11&#45;&gt;Node17 -->
<g id="edge16" class="edge">
<title>Node11&#45;&gt;Node17</title>
<path fill="none" stroke="#63b8ff" d="M1633.446,-283.6218C1652.9173,-295.938 1681.9256,-313.0951 1709,-324.5 1716.5965,-327.7 1724.9427,-330.5386 1732.9934,-332.9618"/>
<polygon fill="#63b8ff" stroke="#63b8ff" points="1635.2649,-280.6304 1624.9582,-278.1765 1631.4851,-286.5222 1635.2649,-280.6304"/>
</g>
<!-- Node18 -->
<g id="node18" class="node">
<title>Node18</title>
<g id="a_node18"><a xlink:href="../../de/df7/class_translator_finnish.html" target="_top" xlink:title=" ">
<polygon fill="#ffffff" stroke="#666666" points="1817.5,-315 1725.5,-315 1725.5,-296 1817.5,-296 1817.5,-315"/>
<text text-anchor="middle" x="1771.5" y="-303" font-family="Helvetica,sans-Serif" font-size="10.00" fill="#000000">TranslatorFinnish</text>
</a>
</g>
</g>
<!-- Node11&#45;&gt;Node18 -->
<g id="edge17" class="edge">
<title>Node11&#45;&gt;Node18</title>
<path fill="none" stroke="#63b8ff" d="M1661.7953,-280.2884C1683.7748,-285.3396 1709.1145,-291.163 1729.8995,-295.9396"/>
<polygon fill="#63b8ff" stroke="#63b8ff" points="1662.4914,-276.8572 1651.9615,-278.0284 1660.9235,-283.6793 1662.4914,-276.8572"/>
</g>
<!-- Node19 -->
<g id="node19" class="node">
<title>Node19</title>
<g id="a_node19"><a xlink:href="../../d9/ddf/class_translator_macedonian.html" target="_top" xlink:title=" ">
<polygon fill="#ffffff" stroke="#666666" points="1828,-278 1715,-278 1715,-259 1828,-259 1828,-278"/>
<text text-anchor="middle" x="1771.5" y="-266" font-family="Helvetica,sans-Serif" font-size="10.00" fill="#000000">TranslatorMacedonian</text>
</a>
</g>
</g>
<!-- Node11&#45;&gt;Node19 -->
<g id="edge18" class="edge">
<title>Node11&#45;&gt;Node19</title>
<path fill="none" stroke="#63b8ff" d="M1683.3195,-268.5C1693.9493,-268.5 1704.7593,-268.5 1714.9992,-268.5"/>
<polygon fill="#63b8ff" stroke="#63b8ff" points="1683.2078,-265.0001 1673.2078,-268.5 1683.2078,-272.0001 1683.2078,-265.0001"/>
</g>
<!-- Node20 -->
<g id="node20" class="node">
<title>Node20</title>
<g id="a_node20"><a xlink:href="../../d5/d0a/class_translator_serbian.html" target="_top" xlink:title=" ">
<polygon fill="#ffffff" stroke="#666666" points="1818,-241 1725,-241 1725,-222 1818,-222 1818,-241"/>
<text text-anchor="middle" x="1771.5" y="-229" font-family="Helvetica,sans-Serif" font-size="10.00" fill="#000000">TranslatorSerbian</text>
</a>
</g>
</g>
<!-- Node11&#45;&gt;Node20 -->
<g id="edge19" class="edge">
<title>Node11&#45;&gt;Node20</title>
<path fill="none" stroke="#63b8ff" d="M1661.7953,-256.7116C1683.7748,-251.6604 1709.1145,-245.837 1729.8995,-241.0604"/>
<polygon fill="#63b8ff" stroke="#63b8ff" points="1660.9235,-253.3207 1651.9615,-258.9716 1662.4914,-260.1428 1660.9235,-253.3207"/>
</g>
<!-- Node21 -->
<g id="node21" class="node">
<title>Node21</title>
<g id="a_node21"><a xlink:href="../../dc/d03/class_translator_serbian_cyrillic.html" target="_top" xlink:title=" ">
<polygon fill="#ffffff" stroke="#666666" points="1833,-204 1710,-204 1710,-185 1833,-185 1833,-204"/>
<text text-anchor="middle" x="1771.5" y="-192" font-family="Helvetica,sans-Serif" font-size="10.00" fill="#000000">TranslatorSerbianCyrillic</text>
</a>
</g>
</g>
<!-- Node11&#45;&gt;Node21 -->
<g id="edge20" class="edge">
<title>Node11&#45;&gt;Node21</title>
<path fill="none" stroke="#63b8ff" d="M1662.06,-255.1629C1665.8652,-253.4783 1669.5571,-251.5972 1673,-249.5 1692.5948,-237.5641 1689.318,-224.2914 1709,-212.5 1714.6181,-209.1342 1720.8987,-206.3696 1727.2532,-204.1065"/>
<polygon fill="#63b8ff" stroke="#63b8ff" points="1660.4623,-252.0307 1652.4448,-258.9568 1663.0315,-258.5422 1660.4623,-252.0307"/>
</g>
<!-- Node22 -->
<g id="node22" class="node">
<title>Node22</title>
<g id="a_node22"><a xlink:href="../../df/d20/class_translator_vietnamese.html" target="_top" xlink:title=" ">
<polygon fill="#ffffff" stroke="#666666" points="1827.5,-167 1715.5,-167 1715.5,-148 1827.5,-148 1827.5,-167"/>
<text text-anchor="middle" x="1771.5" y="-155" font-family="Helvetica,sans-Serif" font-size="10.00" fill="#000000">TranslatorVietnamese</text>
</a>
</g>
</g>
<!-- Node11&#45;&gt;Node22 -->
<g id="edge21" class="edge">
<title>Node11&#45;&gt;Node22</title>
<path fill="none" stroke="#63b8ff" d="M1666.592,-254.1754C1668.8493,-252.7611 1670.9999,-251.2073 1673,-249.5 1700.8182,-225.7549 1681.0079,-199.0398 1709,-175.5 1713.0618,-172.0843 1717.7388,-169.316 1722.6682,-167.0726"/>
<polygon fill="#63b8ff" stroke="#63b8ff" points="1664.6812,-251.2252 1657.4485,-258.9673 1667.9306,-257.4254 1664.6812,-251.2252"/>
</g>
<!-- Node13 -->
<g id="node13" class="node">
<title>Node13</title>
<g id="a_node13"><a xlink:href="../../d3/de9/class_translator_arabic.html" target="_top" xlink:title=" ">
<polygon fill="#ffffff" stroke="#666666" points="1967.5,-444 1879.5,-444 1879.5,-425 1967.5,-425 1967.5,-444"/>
<text text-anchor="middle" x="1923.5" y="-432" font-family="Helvetica,sans-Serif" font-size="10.00" fill="#000000">TranslatorArabic</text>
</a>
</g>
</g>
<!-- Node12&#45;&gt;Node13 -->
<g id="edge12" class="edge">
<title>Node12&#45;&gt;Node13</title>
<path fill="none" stroke="#63b8ff" d="M1805.5002,-392.6044C1824.4304,-399.8165 1848.4568,-408.8323 1870,-416.5 1877.9399,-419.326 1886.5829,-422.2846 1894.5605,-424.9679"/>
<polygon fill="#63b8ff" stroke="#63b8ff" points="1806.6963,-389.3146 1796.1057,-389.014 1804.1973,-395.8534 1806.6963,-389.3146"/>
</g>
<!-- Node14 -->
<g id="node14" class="node">
<title>Node14</title>
<g id="a_node14"><a xlink:href="../../dc/d53/class_translator_lithuanian.html" target="_top" xlink:title=" ">
<polygon fill="#ffffff" stroke="#666666" points="1975.5,-407 1871.5,-407 1871.5,-388 1975.5,-388 1975.5,-407"/>
<text text-anchor="middle" x="1923.5" y="-395" font-family="Helvetica,sans-Serif" font-size="10.00" fill="#000000">TranslatorLithuanian</text>
</a>
</g>
</g>
<!-- Node12&#45;&gt;Node14 -->
<g id="edge13" class="edge">
<title>Node12&#45;&gt;Node14</title>
<path fill="none" stroke="#63b8ff" d="M1844.344,-388.1263C1853.3737,-389.1956 1862.4628,-390.2719 1871.1005,-391.2948"/>
<polygon fill="#63b8ff" stroke="#63b8ff" points="1844.544,-384.6256 1834.2018,-386.9252 1843.7208,-391.577 1844.544,-384.6256"/>
</g>
<!-- Node15 -->
<g id="node15" class="node">
<title>Node15</title>
<g id="a_node15"><a xlink:href="../../dd/d38/class_translator_norwegian.html" target="_top" xlink:title=" ">
<polygon fill="#ffffff" stroke="#666666" points="1977,-370 1870,-370 1870,-351 1977,-351 1977,-370"/>
<text text-anchor="middle" x="1923.5" y="-358" font-family="Helvetica,sans-Serif" font-size="10.00" fill="#000000">TranslatorNorwegian</text>
</a>
</g>
</g>
<!-- Node12&#45;&gt;Node15 -->
<g id="edge14" class="edge">
<title>Node12&#45;&gt;Node15</title>
<path fill="none" stroke="#63b8ff" d="M1844.2159,-370.4105C1852.7906,-369.3387 1861.4211,-368.2599 1869.6698,-367.2288"/>
<polygon fill="#63b8ff" stroke="#63b8ff" points="1843.6904,-366.9489 1834.2018,-371.6623 1844.5587,-373.8948 1843.6904,-366.9489"/>
</g>
<!-- Node16 -->
<g id="node16" class="node">
<title>Node16</title>
<g id="a_node16"><a xlink:href="../../dd/d0b/class_translator_slovene.html" target="_top" xlink:title=" ">
<polygon fill="#ffffff" stroke="#666666" points="1971,-333 1876,-333 1876,-314 1971,-314 1971,-333"/>
<text text-anchor="middle" x="1923.5" y="-321" font-family="Helvetica,sans-Serif" font-size="10.00" fill="#000000">TranslatorSlovene</text>
</a>
</g>
</g>
<!-- Node12&#45;&gt;Node16 -->
<g id="edge15" class="edge">
<title>Node12&#45;&gt;Node16</title>
<path fill="none" stroke="#63b8ff" d="M1819.0447,-366.9207C1824.1436,-365.2424 1829.2133,-363.4286 1834,-361.5 1850.7808,-354.7388 1853.4326,-349.7685 1870,-342.5 1877.7624,-339.0945 1886.3472,-335.8328 1894.3257,-333.0027"/>
<polygon fill="#63b8ff" stroke="#63b8ff" points="1817.7702,-363.652 1809.2697,-369.976 1819.8585,-370.3333 1817.7702,-363.652"/>
</g>
</g>
</svg>
        <g id="navigator" transform="translate(0 0)" fill="#404254">
                <rect fill="#f2f5e9" fill-opacity="0.5" stroke="#606060" stroke-width=".5" x="0" y="0" width="60" height="60"/>
                <use id="zoomplus" xlink:href="#zoomPlus" x="17" y="9" onmousedown="handleZoom(evt,'in')"/>
                <use id="zoomminus" xlink:href="#zoomMin" x="42" y="9" onmousedown="handleZoom(evt,'out')"/>
                <use id="reset" xlink:href="#resetDef" x="30" y="36" onmousedown="handleReset()"/>
                <g id="arrowUp" xlink:href="#dirArrow" transform="translate(30 24)" onmousedown="handlePan(0,-1)">
                  <use xlink:href="#rim" fill="#404040">
                        <set attributeName="fill" to="#808080" begin="arrowUp.mouseover" end="arrowUp.mouseout"/>
                  </use>
                  <path fill="none" stroke="white" stroke-width="1.5" d="M0,-3.0v7 M-2.5,-0.5L0,-3.0L2.5,-0.5"/>
                </g>
                <g id="arrowRight" xlink:href="#dirArrow" transform="rotate(90) translate(36 -43)" onmousedown="handlePan(1,0)">
                  <use xlink:href="#rim" fill="#404040">
                        <set attributeName="fill" to="#808080" begin="arrowRight.mouseover" end="arrowRight.mouseout"/>
                  </use>
                  <path fill="none" stroke="white" stroke-width="1.5" d="M0,-3.0v7 M-2.5,-0.5L0,-3.0L2.5,-0.5"/>
                </g>
                <g id="arrowDown" xlink:href="#dirArrow" transform="rotate(180) translate(-30 -48)" onmousedown="handlePan(0,1)">
                  <use xlink:href="#rim" fill="#404040">
                        <set attributeName="fill" to="#808080" begin="arrowDown.mouseover" end="arrowDown.mouseout"/>
                  </use>
                  <path fill="none" stroke="white" stroke-width="1.5" d="M0,-3.0v7 M-2.5,-0.5L0,-3.0L2.5,-0.5"/>
                </g>
                <g id="arrowLeft" xlink:href="#dirArrow" transform="rotate(270) translate(-36 17)" onmousedown="handlePan(-1,0)">
                  <use xlink:href="#rim" fill="#404040">
                        <set attributeName="fill" to="#808080" begin="arrowLeft.mouseover" end="arrowLeft.mouseout"/>
                  </use>
                  <path fill="none" stroke="white" stroke-width="1.5" d="M0,-3.0v7 M-2.5,-0.5L0,-3.0L2.5,-0.5"/>
                </g>
        </g>
        <svg viewBox="0 0 15 15" width="100%" height="30px" preserveAspectRatio="xMaxYMin meet">
         <g id="arrow_out" transform="scale(0.3 0.3)">
          <a xlink:href="class_translator_adapter__1__8__4__inherit__graph_org.svg" target="_base">
           <rect id="button" ry="5" rx="5" y="6" x="6" height="38" width="38"
                fill="#f2f5e9" fill-opacity="0.5" stroke="#606060" stroke-width="1.0"/>
           <path id="arrow"
             d="M 11.500037,31.436501 C 11.940474,20.09759 22.043105,11.32322 32.158766,21.979434 L 37.068811,17.246167 C 37.068811,17.246167 37.088388,32 37.088388,32 L 22.160133,31.978069 C 22.160133,31.978069 26.997745,27.140456 26.997745,27.140456 C 18.528582,18.264221 13.291696,25.230495 11.500037,31.436501 z"
             style="fill:#404040;"/>
          </a>
         </g>
        </svg>
</svg>
