<?xml version="1.0" encoding="UTF-8" standalone="no"?>
<!DOCTYPE svg PUBLIC "-//W3C//DTD SVG 1.1//EN"
 "http://www.w3.org/Graphics/SVG/1.1/DTD/svg11.dtd">
<!-- Generated by graphviz version 2.43.0 (0)
 -->
<!-- Title: TranslatorAdapter_1_8_4 Pages: 1 -->
<svg width="2131pt" height="452pt"
 viewBox="0.00 0.00 2131.00 452.00" xmlns="http://www.w3.org/2000/svg" xmlns:xlink="http://www.w3.org/1999/xlink">
<g id="graph0" class="graph" transform="scale(1 1) rotate(0) translate(4 448)">
<title>TranslatorAdapter_1_8_4</title>
<!-- Node1 -->
<g id="node1" class="node">
<title>Node1</title>
<g id="a_node1"><a xlink:title=" ">
<polygon fill="#999999" stroke="#666666" points="1105,-74 968,-74 968,-55 1105,-55 1105,-74"/>
<text text-anchor="middle" x="1036.5" y="-62" font-family="Helvetica,sans-Serif" font-size="10.00">TranslatorAdapter_1_8_4</text>
</a>
</g>
</g>
<!-- Node8 -->
<g id="node8" class="node">
<title>Node8</title>
<g id="a_node8"><a xlink:href="../../d2/d75/class_translator_adapter__1__8__2.html" target="_top" xlink:title=" ">
<polygon fill="white" stroke="#666666" points="1278,-130 1141,-130 1141,-111 1278,-111 1278,-130"/>
<text text-anchor="middle" x="1209.5" y="-118" font-family="Helvetica,sans-Serif" font-size="10.00">TranslatorAdapter_1_8_2</text>
</a>
</g>
</g>
<!-- Node1&#45;&gt;Node8 -->
<g id="edge7" class="edge">
<title>Node1&#45;&gt;Node8</title>
<path fill="none" stroke="#63b8ff" d="M1072.45,-77.67C1092.42,-85.03 1117.98,-94.16 1141,-101.5 1151.32,-104.79 1162.63,-108.09 1172.98,-111"/>
<polygon fill="#63b8ff" stroke="#63b8ff" points="1073.45,-74.31 1062.85,-74.12 1071.01,-80.87 1073.45,-74.31"/>
</g>
<!-- Node31 -->
<g id="node31" class="node">
<title>Node31</title>
<g id="a_node31"><a xlink:href="../../d2/d07/class_translator_esperanto.html" target="_top" xlink:title=" ">
<polygon fill="white" stroke="#666666" points="1266,-93 1153,-93 1153,-74 1266,-74 1266,-93"/>
<text text-anchor="middle" x="1209.5" y="-81" font-family="Helvetica,sans-Serif" font-size="10.00">TranslatorEsperanto</text>
</a>
</g>
</g>
<!-- Node1&#45;&gt;Node31 -->
<g id="edge30" class="edge">
<title>Node1&#45;&gt;Node31</title>
<path fill="none" stroke="#63b8ff" d="M1115.22,-73.14C1127.95,-74.55 1140.91,-75.99 1152.96,-77.33"/>
<polygon fill="#63b8ff" stroke="#63b8ff" points="1115.41,-69.64 1105.08,-72.01 1114.64,-76.59 1115.41,-69.64"/>
</g>
<!-- Node32 -->
<g id="node32" class="node">
<title>Node32</title>
<g id="a_node32"><a xlink:href="../../d8/d83/class_translator_latvian.html" target="_top" xlink:title=" ">
<polygon fill="white" stroke="#666666" points="1260,-56 1159,-56 1159,-37 1260,-37 1260,-56"/>
<text text-anchor="middle" x="1209.5" y="-44" font-family="Helvetica,sans-Serif" font-size="10.00">TranslatorLatvian</text>
</a>
</g>
</g>
<!-- Node1&#45;&gt;Node32 -->
<g id="edge31" class="edge">
<title>Node1&#45;&gt;Node32</title>
<path fill="none" stroke="#63b8ff" d="M1115.26,-56.31C1130.06,-54.76 1145.18,-53.17 1158.81,-51.73"/>
<polygon fill="#63b8ff" stroke="#63b8ff" points="1114.66,-52.86 1105.08,-57.39 1115.4,-59.82 1114.66,-52.86"/>
</g>
<!-- Node33 -->
<g id="node33" class="node">
<title>Node33</title>
<g id="a_node33"><a xlink:href="../../d1/d56/class_translator_ukrainian.html" target="_top" xlink:title=" ">
<polygon fill="white" stroke="#666666" points="1265.5,-19 1153.5,-19 1153.5,0 1265.5,0 1265.5,-19"/>
<text text-anchor="middle" x="1209.5" y="-7" font-family="Helvetica,sans-Serif" font-size="10.00">TranslatorUkrainian</text>
</a>
</g>
</g>
<!-- Node1&#45;&gt;Node33 -->
<g id="edge32" class="edge">
<title>Node1&#45;&gt;Node33</title>
<path fill="none" stroke="#63b8ff" d="M1072.01,-51.35C1092.02,-43.94 1117.78,-34.73 1141,-27.5 1150.5,-24.54 1160.83,-21.63 1170.5,-19.04"/>
<polygon fill="#63b8ff" stroke="#63b8ff" points="1070.55,-48.17 1062.4,-54.94 1072.99,-54.72 1070.55,-48.17"/>
</g>
<!-- Node2 -->
<g id="node2" class="node">
<title>Node2</title>
<g id="a_node2"><a xlink:href="../../d4/d2e/class_translator_adapter__1__8__15.html" target="_top" xlink:title=" ">
<polygon fill="white" stroke="#666666" points="932,-74 789,-74 789,-55 932,-55 932,-74"/>
<text text-anchor="middle" x="860.5" y="-62" font-family="Helvetica,sans-Serif" font-size="10.00">TranslatorAdapter_1_8_15</text>
</a>
</g>
</g>
<!-- Node2&#45;&gt;Node1 -->
<g id="edge1" class="edge">
<title>Node2&#45;&gt;Node1</title>
<path fill="none" stroke="#63b8ff" d="M942.12,-64.5C950.77,-64.5 959.5,-64.5 967.98,-64.5"/>
<polygon fill="#63b8ff" stroke="#63b8ff" points="942.02,-61 932.02,-64.5 942.02,-68 942.02,-61"/>
</g>
<!-- Node3 -->
<g id="node3" class="node">
<title>Node3</title>
<g id="a_node3"><a xlink:href="../../de/dde/class_translator_adapter__1__8__19.html" target="_top" xlink:title=" ">
<polygon fill="white" stroke="#666666" points="753,-74 610,-74 610,-55 753,-55 753,-74"/>
<text text-anchor="middle" x="681.5" y="-62" font-family="Helvetica,sans-Serif" font-size="10.00">TranslatorAdapter_1_8_19</text>
</a>
</g>
</g>
<!-- Node3&#45;&gt;Node2 -->
<g id="edge2" class="edge">
<title>Node3&#45;&gt;Node2</title>
<path fill="none" stroke="#63b8ff" d="M763.49,-64.5C771.97,-64.5 780.54,-64.5 788.89,-64.5"/>
<polygon fill="#63b8ff" stroke="#63b8ff" points="763.22,-61 753.22,-64.5 763.22,-68 763.22,-61"/>
</g>
<!-- Node4 -->
<g id="node4" class="node">
<title>Node4</title>
<g id="a_node4"><a xlink:href="../../d3/d2e/class_translator_adapter__1__9__2.html" target="_top" xlink:title=" ">
<polygon fill="white" stroke="#666666" points="574,-74 437,-74 437,-55 574,-55 574,-74"/>
<text text-anchor="middle" x="505.5" y="-62" font-family="Helvetica,sans-Serif" font-size="10.00">TranslatorAdapter_1_9_2</text>
</a>
</g>
</g>
<!-- Node4&#45;&gt;Node3 -->
<g id="edge3" class="edge">
<title>Node4&#45;&gt;Node3</title>
<path fill="none" stroke="#63b8ff" d="M584.47,-64.5C592.89,-64.5 601.42,-64.5 609.75,-64.5"/>
<polygon fill="#63b8ff" stroke="#63b8ff" points="584.27,-61 574.27,-64.5 584.27,-68 584.27,-61"/>
</g>
<!-- Node5 -->
<g id="node5" class="node">
<title>Node5</title>
<g id="a_node5"><a xlink:href="../../d0/d33/class_translator_adapter__1__9__4.html" target="_top" xlink:title=" ">
<polygon fill="white" stroke="#666666" points="401,-74 264,-74 264,-55 401,-55 401,-74"/>
<text text-anchor="middle" x="332.5" y="-62" font-family="Helvetica,sans-Serif" font-size="10.00">TranslatorAdapter_1_9_4</text>
</a>
</g>
</g>
<!-- Node5&#45;&gt;Node4 -->
<g id="edge4" class="edge">
<title>Node5&#45;&gt;Node4</title>
<path fill="none" stroke="#63b8ff" d="M411.1,-64.5C419.69,-64.5 428.39,-64.5 436.85,-64.5"/>
<polygon fill="#63b8ff" stroke="#63b8ff" points="411.08,-61 401.08,-64.5 411.08,-68 411.08,-61"/>
</g>
<!-- Node6 -->
<g id="node6" class="node">
<title>Node6</title>
<g id="a_node6"><a xlink:href="../../db/d6c/class_translator_adapter_base.html" target="_top" xlink:title="Base of the translator adapter tree.">
<polygon fill="white" stroke="#666666" points="228,-74 101,-74 101,-55 228,-55 228,-74"/>
<text text-anchor="middle" x="164.5" y="-62" font-family="Helvetica,sans-Serif" font-size="10.00">TranslatorAdapterBase</text>
</a>
</g>
</g>
<!-- Node6&#45;&gt;Node5 -->
<g id="edge5" class="edge">
<title>Node6&#45;&gt;Node5</title>
<path fill="none" stroke="#63b8ff" d="M238.49,-64.5C246.95,-64.5 255.56,-64.5 263.94,-64.5"/>
<polygon fill="#63b8ff" stroke="#63b8ff" points="238.26,-61 228.26,-64.5 238.26,-68 238.26,-61"/>
</g>
<!-- Node7 -->
<g id="node7" class="node">
<title>Node7</title>
<g id="a_node7"><a xlink:href="../../d8/dfb/class_translator.html" target="_top" xlink:title="Abstract base class for all translatable text fragments.">
<polygon fill="white" stroke="#666666" points="65,-74 0,-74 0,-55 65,-55 65,-74"/>
<text text-anchor="middle" x="32.5" y="-62" font-family="Helvetica,sans-Serif" font-size="10.00">Translator</text>
</a>
</g>
</g>
<!-- Node7&#45;&gt;Node6 -->
<g id="edge6" class="edge">
<title>Node7&#45;&gt;Node6</title>
<path fill="none" stroke="#63b8ff" d="M75.54,-64.5C83.6,-64.5 92.2,-64.5 100.75,-64.5"/>
<polygon fill="#63b8ff" stroke="#63b8ff" points="75.3,-61 65.3,-64.5 75.3,-68 75.3,-61"/>
</g>
<!-- Node9 -->
<g id="node9" class="node">
<title>Node9</title>
<g id="a_node9"><a xlink:href="../../de/d49/class_translator_adapter__1__8__0.html" target="_top" xlink:title="Adapter class for languages that only contain translations up to version 1.8.0.">
<polygon fill="white" stroke="#666666" points="1451,-167 1314,-167 1314,-148 1451,-148 1451,-167"/>
<text text-anchor="middle" x="1382.5" y="-155" font-family="Helvetica,sans-Serif" font-size="10.00">TranslatorAdapter_1_8_0</text>
</a>
</g>
</g>
<!-- Node8&#45;&gt;Node9 -->
<g id="edge8" class="edge">
<title>Node8&#45;&gt;Node9</title>
<path fill="none" stroke="#63b8ff" d="M1264.35,-132.15C1287.84,-137.23 1315.04,-143.12 1337.32,-147.94"/>
<polygon fill="#63b8ff" stroke="#63b8ff" points="1265.05,-128.72 1254.54,-130.03 1263.57,-135.56 1265.05,-128.72"/>
</g>
<!-- Node29 -->
<g id="node29" class="node">
<title>Node29</title>
<g id="a_node29"><a xlink:href="../../d9/d82/class_translator_croatian.html" target="_top" xlink:title=" ">
<polygon fill="white" stroke="#666666" points="1435.5,-130 1329.5,-130 1329.5,-111 1435.5,-111 1435.5,-130"/>
<text text-anchor="middle" x="1382.5" y="-118" font-family="Helvetica,sans-Serif" font-size="10.00">TranslatorCroatian</text>
</a>
</g>
</g>
<!-- Node8&#45;&gt;Node29 -->
<g id="edge28" class="edge">
<title>Node8&#45;&gt;Node29</title>
<path fill="none" stroke="#63b8ff" d="M1288.19,-120.5C1302.16,-120.5 1316.41,-120.5 1329.44,-120.5"/>
<polygon fill="#63b8ff" stroke="#63b8ff" points="1288.08,-117 1278.08,-120.5 1288.08,-124 1288.08,-117"/>
</g>
<!-- Node30 -->
<g id="node30" class="node">
<title>Node30</title>
<g id="a_node30"><a xlink:href="../../de/d82/class_translator_polish.html" target="_top" xlink:title=" ">
<polygon fill="white" stroke="#666666" points="1429.5,-93 1335.5,-93 1335.5,-74 1429.5,-74 1429.5,-93"/>
<text text-anchor="middle" x="1382.5" y="-81" font-family="Helvetica,sans-Serif" font-size="10.00">TranslatorPolish</text>
</a>
</g>
</g>
<!-- Node8&#45;&gt;Node30 -->
<g id="edge29" class="edge">
<title>Node8&#45;&gt;Node30</title>
<path fill="none" stroke="#63b8ff" d="M1264.35,-108.85C1287.84,-103.77 1315.04,-97.88 1337.32,-93.06"/>
<polygon fill="#63b8ff" stroke="#63b8ff" points="1263.57,-105.44 1254.54,-110.97 1265.05,-112.28 1263.57,-105.44"/>
</g>
<!-- Node10 -->
<g id="node10" class="node">
<title>Node10</title>
<g id="a_node10"><a xlink:href="../../da/d24/class_translator_adapter__1__7__5.html" target="_top" xlink:title="Adapter class for languages that only contain translations up to version 1.7.5.">
<polygon fill="white" stroke="#666666" points="1624,-241 1487,-241 1487,-222 1624,-222 1624,-241"/>
<text text-anchor="middle" x="1555.5" y="-229" font-family="Helvetica,sans-Serif" font-size="10.00">TranslatorAdapter_1_7_5</text>
</a>
</g>
</g>
<!-- Node9&#45;&gt;Node10 -->
<g id="edge9" class="edge">
<title>Node9&#45;&gt;Node10</title>
<path fill="none" stroke="#63b8ff" d="M1407.82,-172.34C1428.35,-184.4 1458.83,-201.2 1487,-212.5 1495.93,-216.08 1505.77,-219.26 1515.12,-221.95"/>
<polygon fill="#63b8ff" stroke="#63b8ff" points="1409.51,-169.27 1399.13,-167.17 1405.93,-175.29 1409.51,-169.27"/>
</g>
<!-- Node25 -->
<g id="node25" class="node">
<title>Node25</title>
<g id="a_node25"><a xlink:href="../../da/db8/class_translator_armenian.html" target="_top" xlink:title=" ">
<polygon fill="white" stroke="#666666" points="1611.5,-204 1499.5,-204 1499.5,-185 1611.5,-185 1611.5,-204"/>
<text text-anchor="middle" x="1555.5" y="-192" font-family="Helvetica,sans-Serif" font-size="10.00">TranslatorArmenian</text>
</a>
</g>
</g>
<!-- Node9&#45;&gt;Node25 -->
<g id="edge24" class="edge">
<title>Node9&#45;&gt;Node25</title>
<path fill="none" stroke="#63b8ff" d="M1437.35,-169.15C1460.84,-174.23 1488.04,-180.12 1510.32,-184.94"/>
<polygon fill="#63b8ff" stroke="#63b8ff" points="1438.05,-165.72 1427.54,-167.03 1436.57,-172.56 1438.05,-165.72"/>
</g>
<!-- Node26 -->
<g id="node26" class="node">
<title>Node26</title>
<g id="a_node26"><a xlink:href="../../d9/dc1/class_translator_catalan.html" target="_top" xlink:title=" ">
<polygon fill="white" stroke="#666666" points="1606.5,-167 1504.5,-167 1504.5,-148 1606.5,-148 1606.5,-167"/>
<text text-anchor="middle" x="1555.5" y="-155" font-family="Helvetica,sans-Serif" font-size="10.00">TranslatorCatalan</text>
</a>
</g>
</g>
<!-- Node9&#45;&gt;Node26 -->
<g id="edge25" class="edge">
<title>Node9&#45;&gt;Node26</title>
<path fill="none" stroke="#63b8ff" d="M1461.15,-157.5C1475.8,-157.5 1490.76,-157.5 1504.28,-157.5"/>
<polygon fill="#63b8ff" stroke="#63b8ff" points="1461.08,-154 1451.08,-157.5 1461.08,-161 1461.08,-154"/>
</g>
<!-- Node27 -->
<g id="node27" class="node">
<title>Node27</title>
<g id="a_node27"><a xlink:href="../../d7/d21/class_translator_danish.html" target="_top" xlink:title=" ">
<polygon fill="white" stroke="#666666" points="1604.5,-130 1506.5,-130 1506.5,-111 1604.5,-111 1604.5,-130"/>
<text text-anchor="middle" x="1555.5" y="-118" font-family="Helvetica,sans-Serif" font-size="10.00">TranslatorDanish</text>
</a>
</g>
</g>
<!-- Node9&#45;&gt;Node27 -->
<g id="edge26" class="edge">
<title>Node9&#45;&gt;Node27</title>
<path fill="none" stroke="#63b8ff" d="M1437.35,-145.85C1460.84,-140.77 1488.04,-134.88 1510.32,-130.06"/>
<polygon fill="#63b8ff" stroke="#63b8ff" points="1436.57,-142.44 1427.54,-147.97 1438.05,-149.28 1436.57,-142.44"/>
</g>
<!-- Node28 -->
<g id="node28" class="node">
<title>Node28</title>
<g id="a_node28"><a xlink:href="../../df/dc8/class_translator_indonesian.html" target="_top" xlink:title=" ">
<polygon fill="white" stroke="#666666" points="1614.5,-93 1496.5,-93 1496.5,-74 1614.5,-74 1614.5,-93"/>
<text text-anchor="middle" x="1555.5" y="-81" font-family="Helvetica,sans-Serif" font-size="10.00">TranslatorIndonesian</text>
</a>
</g>
</g>
<!-- Node9&#45;&gt;Node28 -->
<g id="edge27" class="edge">
<title>Node9&#45;&gt;Node28</title>
<path fill="none" stroke="#63b8ff" d="M1439.42,-144.32C1443.44,-142.6 1447.35,-140.67 1451,-138.5 1470.72,-126.77 1467.2,-113.1 1487,-101.5 1492.86,-98.07 1499.39,-95.28 1506.01,-93.01"/>
<polygon fill="#63b8ff" stroke="#63b8ff" points="1437.97,-141.13 1429.86,-147.95 1440.46,-147.67 1437.97,-141.13"/>
</g>
<!-- Node11 -->
<g id="node11" class="node">
<title>Node11</title>
<g id="a_node11"><a xlink:href="../../d3/da1/class_translator_adapter__1__6__0.html" target="_top" xlink:title="Adapter class for languages that only contain translations up to version 1.6.0.">
<polygon fill="white" stroke="#666666" points="1797,-278 1660,-278 1660,-259 1797,-259 1797,-278"/>
<text text-anchor="middle" x="1728.5" y="-266" font-family="Helvetica,sans-Serif" font-size="10.00">TranslatorAdapter_1_6_0</text>
</a>
</g>
</g>
<!-- Node10&#45;&gt;Node11 -->
<g id="edge10" class="edge">
<title>Node10&#45;&gt;Node11</title>
<path fill="none" stroke="#63b8ff" d="M1610.35,-243.15C1633.84,-248.23 1661.04,-254.12 1683.32,-258.94"/>
<polygon fill="#63b8ff" stroke="#63b8ff" points="1611.05,-239.72 1600.54,-241.03 1609.57,-246.56 1611.05,-239.72"/>
</g>
<!-- Node23 -->
<g id="node23" class="node">
<title>Node23</title>
<g id="a_node23"><a xlink:href="../../d5/d43/class_translator_persian.html" target="_top" xlink:title=" ">
<polygon fill="white" stroke="#666666" points="1779,-241 1678,-241 1678,-222 1779,-222 1779,-241"/>
<text text-anchor="middle" x="1728.5" y="-229" font-family="Helvetica,sans-Serif" font-size="10.00">TranslatorPersian</text>
</a>
</g>
</g>
<!-- Node10&#45;&gt;Node23 -->
<g id="edge22" class="edge">
<title>Node10&#45;&gt;Node23</title>
<path fill="none" stroke="#63b8ff" d="M1634.26,-231.5C1649.06,-231.5 1664.18,-231.5 1677.81,-231.5"/>
<polygon fill="#63b8ff" stroke="#63b8ff" points="1634.08,-228 1624.08,-231.5 1634.08,-235 1634.08,-228"/>
</g>
<!-- Node24 -->
<g id="node24" class="node">
<title>Node24</title>
<g id="a_node24"><a xlink:href="../../dd/d80/class_translator_turkish.html" target="_top" xlink:title=" ">
<polygon fill="white" stroke="#666666" points="1778,-204 1679,-204 1679,-185 1778,-185 1778,-204"/>
<text text-anchor="middle" x="1728.5" y="-192" font-family="Helvetica,sans-Serif" font-size="10.00">TranslatorTurkish</text>
</a>
</g>
</g>
<!-- Node10&#45;&gt;Node24 -->
<g id="edge23" class="edge">
<title>Node10&#45;&gt;Node24</title>
<path fill="none" stroke="#63b8ff" d="M1610.35,-219.85C1633.84,-214.77 1661.04,-208.88 1683.32,-204.06"/>
<polygon fill="#63b8ff" stroke="#63b8ff" points="1609.57,-216.44 1600.54,-221.97 1611.05,-223.28 1609.57,-216.44"/>
</g>
<!-- Node12 -->
<g id="node12" class="node">
<title>Node12</title>
<g id="a_node12"><a xlink:href="../../d4/d2b/class_translator_adapter__1__4__6.html" target="_top" xlink:title="Adapter class for languages that only contain translations up to version 1.4.6.">
<polygon fill="white" stroke="#666666" points="1970,-389 1833,-389 1833,-370 1970,-370 1970,-389"/>
<text text-anchor="middle" x="1901.5" y="-377" font-family="Helvetica,sans-Serif" font-size="10.00">TranslatorAdapter_1_4_6</text>
</a>
</g>
</g>
<!-- Node11&#45;&gt;Node12 -->
<g id="edge11" class="edge">
<title>Node11&#45;&gt;Node12</title>
<path fill="none" stroke="#63b8ff" d="M1744.01,-285.8C1762.54,-306.78 1796.59,-341.79 1833,-361.5 1839.29,-364.91 1846.27,-367.7 1853.28,-369.98"/>
<polygon fill="#63b8ff" stroke="#63b8ff" points="1746.46,-283.28 1737.27,-278 1741.17,-287.86 1746.46,-283.28"/>
</g>
<!-- Node17 -->
<g id="node17" class="node">
<title>Node17</title>
<g id="a_node17"><a xlink:href="../../d3/d65/class_translator_afrikaans.html" target="_top" xlink:title=" ">
<polygon fill="white" stroke="#666666" points="1956.5,-352 1846.5,-352 1846.5,-333 1956.5,-333 1956.5,-352"/>
<text text-anchor="middle" x="1901.5" y="-340" font-family="Helvetica,sans-Serif" font-size="10.00">TranslatorAfrikaans</text>
</a>
</g>
</g>
<!-- Node11&#45;&gt;Node17 -->
<g id="edge16" class="edge">
<title>Node11&#45;&gt;Node17</title>
<path fill="none" stroke="#63b8ff" d="M1753.03,-283.31C1773.52,-295.7 1804.35,-313.11 1833,-324.5 1841.11,-327.73 1850,-330.56 1858.59,-332.97"/>
<polygon fill="#63b8ff" stroke="#63b8ff" points="1754.74,-280.26 1744.39,-278.01 1751.08,-286.22 1754.74,-280.26"/>
</g>
<!-- Node18 -->
<g id="node18" class="node">
<title>Node18</title>
<g id="a_node18"><a xlink:href="../../de/df7/class_translator_finnish.html" target="_top" xlink:title=" ">
<polygon fill="white" stroke="#666666" points="1951,-315 1852,-315 1852,-296 1951,-296 1951,-315"/>
<text text-anchor="middle" x="1901.5" y="-303" font-family="Helvetica,sans-Serif" font-size="10.00">TranslatorFinnish</text>
</a>
</g>
</g>
<!-- Node11&#45;&gt;Node18 -->
<g id="edge17" class="edge">
<title>Node11&#45;&gt;Node18</title>
<path fill="none" stroke="#63b8ff" d="M1783.35,-280.15C1806.84,-285.23 1834.04,-291.12 1856.32,-295.94"/>
<polygon fill="#63b8ff" stroke="#63b8ff" points="1784.05,-276.72 1773.54,-278.03 1782.57,-283.56 1784.05,-276.72"/>
</g>
<!-- Node19 -->
<g id="node19" class="node">
<title>Node19</title>
<g id="a_node19"><a xlink:href="../../d9/ddf/class_translator_macedonian.html" target="_top" xlink:title=" ">
<polygon fill="white" stroke="#666666" points="1963.5,-278 1839.5,-278 1839.5,-259 1963.5,-259 1963.5,-278"/>
<text text-anchor="middle" x="1901.5" y="-266" font-family="Helvetica,sans-Serif" font-size="10.00">TranslatorMacedonian</text>
</a>
</g>
</g>
<!-- Node11&#45;&gt;Node19 -->
<g id="edge18" class="edge">
<title>Node11&#45;&gt;Node19</title>
<path fill="none" stroke="#63b8ff" d="M1807.28,-268.5C1818,-268.5 1828.88,-268.5 1839.24,-268.5"/>
<polygon fill="#63b8ff" stroke="#63b8ff" points="1807.08,-265 1797.08,-268.5 1807.08,-272 1807.08,-265"/>
</g>
<!-- Node20 -->
<g id="node20" class="node">
<title>Node20</title>
<g id="a_node20"><a xlink:href="../../d5/d0a/class_translator_serbian.html" target="_top" xlink:title=" ">
<polygon fill="white" stroke="#666666" points="1952,-241 1851,-241 1851,-222 1952,-222 1952,-241"/>
<text text-anchor="middle" x="1901.5" y="-229" font-family="Helvetica,sans-Serif" font-size="10.00">TranslatorSerbian</text>
</a>
</g>
</g>
<!-- Node11&#45;&gt;Node20 -->
<g id="edge19" class="edge">
<title>Node11&#45;&gt;Node20</title>
<path fill="none" stroke="#63b8ff" d="M1783.35,-256.85C1806.84,-251.77 1834.04,-245.88 1856.32,-241.06"/>
<polygon fill="#63b8ff" stroke="#63b8ff" points="1782.57,-253.44 1773.54,-258.97 1784.05,-260.28 1782.57,-253.44"/>
</g>
<!-- Node21 -->
<g id="node21" class="node">
<title>Node21</title>
<g id="a_node21"><a xlink:href="../../dc/d03/class_translator_serbian_cyrillic.html" target="_top" xlink:title=" ">
<polygon fill="white" stroke="#666666" points="1969,-204 1834,-204 1834,-185 1969,-185 1969,-204"/>
<text text-anchor="middle" x="1901.5" y="-192" font-family="Helvetica,sans-Serif" font-size="10.00">TranslatorSerbianCyrillic</text>
</a>
</g>
</g>
<!-- Node11&#45;&gt;Node21 -->
<g id="edge20" class="edge">
<title>Node11&#45;&gt;Node21</title>
<path fill="none" stroke="#63b8ff" d="M1785.42,-255.32C1789.44,-253.6 1793.35,-251.67 1797,-249.5 1816.72,-237.77 1813.2,-224.1 1833,-212.5 1838.86,-209.07 1845.39,-206.28 1852.01,-204.01"/>
<polygon fill="#63b8ff" stroke="#63b8ff" points="1783.97,-252.13 1775.86,-258.95 1786.46,-258.67 1783.97,-252.13"/>
</g>
<!-- Node22 -->
<g id="node22" class="node">
<title>Node22</title>
<g id="a_node22"><a xlink:href="../../df/d20/class_translator_vietnamese.html" target="_top" xlink:title=" ">
<polygon fill="white" stroke="#666666" points="1963,-167 1840,-167 1840,-148 1963,-148 1963,-167"/>
<text text-anchor="middle" x="1901.5" y="-155" font-family="Helvetica,sans-Serif" font-size="10.00">TranslatorVietnamese</text>
</a>
</g>
</g>
<!-- Node11&#45;&gt;Node22 -->
<g id="edge21" class="edge">
<title>Node11&#45;&gt;Node22</title>
<path fill="none" stroke="#63b8ff" d="M1790.48,-254.18C1792.77,-252.76 1794.96,-251.21 1797,-249.5 1825.06,-226.04 1804.78,-198.76 1833,-175.5 1837.12,-172.11 1841.81,-169.35 1846.77,-167.1"/>
<polygon fill="#63b8ff" stroke="#63b8ff" points="1788.48,-251.27 1781.21,-258.97 1791.7,-257.49 1788.48,-251.27"/>
</g>
<!-- Node13 -->
<g id="node13" class="node">
<title>Node13</title>
<g id="a_node13"><a xlink:href="../../d3/de9/class_translator_arabic.html" target="_top" xlink:title=" ">
<polygon fill="white" stroke="#666666" points="2112,-444 2017,-444 2017,-425 2112,-425 2112,-444"/>
<text text-anchor="middle" x="2064.5" y="-432" font-family="Helvetica,sans-Serif" font-size="10.00">TranslatorArabic</text>
</a>
</g>
</g>
<!-- Node12&#45;&gt;Node13 -->
<g id="edge12" class="edge">
<title>Node12&#45;&gt;Node13</title>
<path fill="none" stroke="#63b8ff" d="M1937.94,-392.57C1957.87,-399.81 1983.25,-408.88 2006,-416.5 2014.43,-419.33 2023.6,-422.26 2032.09,-424.92"/>
<polygon fill="#63b8ff" stroke="#63b8ff" points="1938.94,-389.2 1928.35,-389.06 1936.54,-395.78 1938.94,-389.2"/>
</g>
<!-- Node14 -->
<g id="node14" class="node">
<title>Node14</title>
<g id="a_node14"><a xlink:href="../../dc/d53/class_translator_lithuanian.html" target="_top" xlink:title=" ">
<polygon fill="white" stroke="#666666" points="2122.5,-407 2006.5,-407 2006.5,-388 2122.5,-388 2122.5,-407"/>
<text text-anchor="middle" x="2064.5" y="-395" font-family="Helvetica,sans-Serif" font-size="10.00">TranslatorLithuanian</text>
</a>
</g>
</g>
<!-- Node12&#45;&gt;Node14 -->
<g id="edge13" class="edge">
<title>Node12&#45;&gt;Node14</title>
<path fill="none" stroke="#63b8ff" d="M1980.53,-388.22C1989.27,-389.2 1998.05,-390.18 2006.46,-391.12"/>
<polygon fill="#63b8ff" stroke="#63b8ff" points="1980.64,-384.71 1970.31,-387.08 1979.86,-391.67 1980.64,-384.71"/>
</g>
<!-- Node15 -->
<g id="node15" class="node">
<title>Node15</title>
<g id="a_node15"><a xlink:href="../../dd/d38/class_translator_norwegian.html" target="_top" xlink:title=" ">
<polygon fill="white" stroke="#666666" points="2123,-370 2006,-370 2006,-351 2123,-351 2123,-370"/>
<text text-anchor="middle" x="2064.5" y="-358" font-family="Helvetica,sans-Serif" font-size="10.00">TranslatorNorwegian</text>
</a>
</g>
</g>
<!-- Node12&#45;&gt;Node15 -->
<g id="edge14" class="edge">
<title>Node12&#45;&gt;Node15</title>
<path fill="none" stroke="#63b8ff" d="M1980.38,-370.31C1989,-369.29 1997.66,-368.27 2005.96,-367.29"/>
<polygon fill="#63b8ff" stroke="#63b8ff" points="1979.83,-366.85 1970.31,-371.5 1980.65,-373.8 1979.83,-366.85"/>
</g>
<!-- Node16 -->
<g id="node16" class="node">
<title>Node16</title>
<g id="a_node16"><a xlink:href="../../dd/d0b/class_translator_slovene.html" target="_top" xlink:title=" ">
<polygon fill="white" stroke="#666666" points="2116.5,-333 2012.5,-333 2012.5,-314 2116.5,-314 2116.5,-333"/>
<text text-anchor="middle" x="2064.5" y="-321" font-family="Helvetica,sans-Serif" font-size="10.00">TranslatorSlovene</text>
</a>
</g>
</g>
<!-- Node12&#45;&gt;Node16 -->
<g id="edge15" class="edge">
<title>Node12&#45;&gt;Node16</title>
<path fill="none" stroke="#63b8ff" d="M1954.12,-367.03C1959.54,-365.34 1964.92,-363.49 1970,-361.5 1986.85,-354.91 1989.35,-349.58 2006,-342.5 2014.13,-339.04 2023.11,-335.81 2031.51,-333.02"/>
<polygon fill="#63b8ff" stroke="#63b8ff" points="1952.98,-363.71 1944.38,-369.9 1954.96,-370.43 1952.98,-363.71"/>
</g>
</g>
</svg>
