<?xml version="1.0" encoding="UTF-8" standalone="no"?>
<!DOCTYPE svg PUBLIC "-//W3C//DTD SVG 1.1//EN"
 "http://www.w3.org/Graphics/SVG/1.1/DTD/svg11.dtd">
<!-- Generated by graphviz version 2.40.1 (20161225.0304)
 -->
<!-- Title: ConceptDefImpl Pages: 1 -->
<svg width="336pt" height="272pt"
 viewBox="0.00 0.00 336.00 272.00" xmlns="http://www.w3.org/2000/svg" xmlns:xlink="http://www.w3.org/1999/xlink">
<g id="graph0" class="graph" transform="scale(1 1) rotate(0) translate(4 268)">
<title>ConceptDefImpl</title>
<!-- Node1 -->
<g id="node1" class="node">
<title>Node1</title>
<g id="a_node1"><a xlink:title=" ">
<polygon fill="#999999" stroke="#666666" points="224,-19 136,-19 136,0 224,0 224,-19"/>
<text text-anchor="middle" x="180" y="-7" font-family="Helvetica,sans-Serif" font-size="10.00" fill="#000000">ConceptDefImpl</text>
</a>
</g>
</g>
<!-- Node2 -->
<g id="node2" class="node">
<title>Node2</title>
<g id="a_node2"><a xlink:href="../../dd/d10/class_definition_mixin.html" target="_top" xlink:title=" ">
<polygon fill="#ffffff" stroke="#666666" points="243.5,-86 116.5,-86 116.5,-56 243.5,-56 243.5,-86"/>
<text text-anchor="start" x="124.5" y="-74" font-family="Helvetica,sans-Serif" font-size="10.00" fill="#000000">DefinitionMixin&lt; Concept</text>
<text text-anchor="middle" x="180" y="-63" font-family="Helvetica,sans-Serif" font-size="10.00" fill="#000000">DefMutable &gt;</text>
</a>
</g>
</g>
<!-- Node2&#45;&gt;Node1 -->
<g id="edge1" class="edge">
<title>Node2&#45;&gt;Node1</title>
<path fill="none" stroke="#63b8ff" d="M180,-45.7849C180,-36.4858 180,-26.4883 180,-19.3469"/>
<polygon fill="#63b8ff" stroke="#63b8ff" points="176.5001,-45.7977 180,-55.7977 183.5001,-45.7978 176.5001,-45.7977"/>
</g>
<!-- Node3 -->
<g id="node3" class="node">
<title>Node3</title>
<g id="a_node3"><a xlink:href="../../d4/deb/class_concept_def_mutable.html" target="_top" xlink:title=" ">
<polygon fill="#ffffff" stroke="#666666" points="167,-152 63,-152 63,-133 167,-133 167,-152"/>
<text text-anchor="middle" x="115" y="-140" font-family="Helvetica,sans-Serif" font-size="10.00" fill="#000000">ConceptDefMutable</text>
</a>
</g>
</g>
<!-- Node3&#45;&gt;Node2 -->
<g id="edge2" class="edge">
<title>Node3&#45;&gt;Node2</title>
<path fill="none" stroke="#63b8ff" d="M130.6198,-125.3183C141.448,-113.4072 155.7368,-97.6895 166.1567,-86.2276"/>
<polygon fill="#63b8ff" stroke="#63b8ff" points="127.9032,-123.1034 123.7662,-132.8572 133.0827,-127.8121 127.9032,-123.1034"/>
</g>
<!-- Node4 -->
<g id="node4" class="node">
<title>Node4</title>
<g id="a_node4"><a xlink:href="../../d0/d46/class_definition_mutable.html" target="_top" xlink:title=" ">
<polygon fill="#ffffff" stroke="#666666" points="92,-208 0,-208 0,-189 92,-189 92,-208"/>
<text text-anchor="middle" x="46" y="-196" font-family="Helvetica,sans-Serif" font-size="10.00" fill="#000000">DefinitionMutable</text>
</a>
</g>
</g>
<!-- Node4&#45;&gt;Node3 -->
<g id="edge3" class="edge">
<title>Node4&#45;&gt;Node3</title>
<path fill="none" stroke="#63b8ff" d="M65.803,-182.428C77.8636,-172.6397 92.8714,-160.4595 103.1188,-152.1427"/>
<polygon fill="#63b8ff" stroke="#63b8ff" points="63.5779,-179.7262 58.0189,-188.7455 67.9891,-185.1614 63.5779,-179.7262"/>
</g>
<!-- Node5 -->
<g id="node5" class="node">
<title>Node5</title>
<g id="a_node5"><a xlink:href="../../d6/d8d/class_concept_def.html" target="_top" xlink:title=" ">
<polygon fill="#ffffff" stroke="#666666" points="179.5,-208 110.5,-208 110.5,-189 179.5,-189 179.5,-208"/>
<text text-anchor="middle" x="145" y="-196" font-family="Helvetica,sans-Serif" font-size="10.00" fill="#000000">ConceptDef</text>
</a>
</g>
</g>
<!-- Node5&#45;&gt;Node3 -->
<g id="edge4" class="edge">
<title>Node5&#45;&gt;Node3</title>
<path fill="none" stroke="#63b8ff" d="M135.002,-179.8372C130.0324,-170.5605 124.2356,-159.7398 120.1657,-152.1427"/>
<polygon fill="#63b8ff" stroke="#63b8ff" points="131.9669,-181.5835 139.7744,-188.7455 138.1373,-178.2779 131.9669,-181.5835"/>
</g>
<!-- Node6 -->
<g id="node6" class="node">
<title>Node6</title>
<g id="a_node6"><a xlink:href="../../d5/dcc/class_definition.html" target="_top" xlink:title="The common base class of all entity definitions found in the sources.">
<polygon fill="#ffffff" stroke="#666666" points="174,-264 116,-264 116,-245 174,-245 174,-264"/>
<text text-anchor="middle" x="145" y="-252" font-family="Helvetica,sans-Serif" font-size="10.00" fill="#000000">Definition</text>
</a>
</g>
</g>
<!-- Node6&#45;&gt;Node5 -->
<g id="edge5" class="edge">
<title>Node6&#45;&gt;Node5</title>
<path fill="none" stroke="#63b8ff" d="M145,-234.6575C145,-225.655 145,-215.4199 145,-208.1427"/>
<polygon fill="#63b8ff" stroke="#63b8ff" points="141.5001,-234.7455 145,-244.7455 148.5001,-234.7456 141.5001,-234.7455"/>
</g>
<!-- Node7 -->
<g id="node7" class="node">
<title>Node7</title>
<g id="a_node7"><a xlink:href="../../dd/d10/class_definition_mixin.html" target="_top" xlink:title=" ">
<polygon fill="#ffffff" stroke="#666666" points="307,-152 185,-152 185,-133 307,-133 307,-152"/>
<text text-anchor="middle" x="246" y="-140" font-family="Helvetica,sans-Serif" font-size="10.00" fill="#000000">DefinitionMixin&lt; Base &gt;</text>
</a>
</g>
</g>
<!-- Node7&#45;&gt;Node2 -->
<g id="edge6" class="edge">
<title>Node7&#45;&gt;Node2</title>
<path fill="none" stroke="#ffa500" stroke-dasharray="5,2" d="M230.1399,-125.3183C219.1451,-113.4072 204.6364,-97.6895 194.0562,-86.2276"/>
<polygon fill="#ffa500" stroke="#ffa500" points="227.7443,-127.8831 237.0989,-132.8572 232.8879,-123.1351 227.7443,-127.8831"/>
<text text-anchor="middle" x="273.5" y="-107" font-family="Helvetica,sans-Serif" font-size="10.00" fill="#000000"> &lt; ConceptDefMutable &gt;</text>
</g>
<!-- Node8 -->
<g id="node8" class="node">
<title>Node8</title>
<g id="a_node8"><a xlink:title=" ">
<polygon fill="#ffffff" stroke="#666666" points="265.5,-208 226.5,-208 226.5,-189 265.5,-189 265.5,-208"/>
<text text-anchor="middle" x="246" y="-196" font-family="Helvetica,sans-Serif" font-size="10.00" fill="#000000">Base</text>
</a>
</g>
</g>
<!-- Node8&#45;&gt;Node7 -->
<g id="edge7" class="edge">
<title>Node8&#45;&gt;Node7</title>
<path fill="none" stroke="#63b8ff" d="M246,-178.6575C246,-169.655 246,-159.4199 246,-152.1427"/>
<polygon fill="#63b8ff" stroke="#63b8ff" points="242.5001,-178.7455 246,-188.7455 249.5001,-178.7456 242.5001,-178.7455"/>
</g>
</g>
</svg>
