<?xml version="1.0" encoding="UTF-8" standalone="no"?>
<!DOCTYPE svg PUBLIC "-//W3C//DTD SVG 1.1//EN"
 "http://www.w3.org/Graphics/SVG/1.1/DTD/svg11.dtd">
<!-- Generated by graphviz version 2.40.1 (20161225.0304)
 -->
<!-- Title: ArgumentContext::Private Pages: 1 -->
<svg width="674pt" height="430pt"
 viewBox="0.00 0.00 674.00 429.60" xmlns="http://www.w3.org/2000/svg" xmlns:xlink="http://www.w3.org/1999/xlink">
<g id="graph0" class="graph" transform="scale(1 1) rotate(0) translate(4 425.5962)">
<title>ArgumentContext::Private</title>
<!-- Node1 -->
<g id="node1" class="node">
<title>Node1</title>
<g id="a_node1"><a xlink:title=" ">
<polygon fill="#999999" stroke="#666666" points="666,-249 536,-249 536,-230 666,-230 666,-249"/>
<text text-anchor="middle" x="601" y="-237" font-family="Helvetica,sans-Serif" font-size="10.00" fill="#000000">ArgumentContext::Private</text>
</a>
</g>
</g>
<!-- Node2 -->
<g id="node2" class="node">
<title>Node2</title>
<g id="a_node2"><a xlink:href="../../d1/dee/struct_argument.html" target="_top" xlink:title="This class contains the information about the argument of a function or template.">
<polygon fill="#ffffff" stroke="#666666" points="392.5,-334 333.5,-334 333.5,-315 392.5,-315 392.5,-334"/>
<text text-anchor="middle" x="363" y="-322" font-family="Helvetica,sans-Serif" font-size="10.00" fill="#000000">Argument</text>
</a>
</g>
</g>
<!-- Node2&#45;&gt;Node1 -->
<g id="edge1" class="edge">
<title>Node2&#45;&gt;Node1</title>
<path fill="none" stroke="#9a32cd" stroke-dasharray="5,2" d="M402.5782,-316.1489C415.2279,-313.3019 429.2524,-309.9588 442,-306.5 476.1859,-297.2243 485.2641,-296.0305 518,-282.5 541.8469,-272.6435 568.0894,-258.443 584.5525,-249.0969"/>
<polygon fill="#9a32cd" stroke="#9a32cd" points="401.7858,-312.7395 392.7788,-318.3185 403.299,-319.574 401.7858,-312.7395"/>
<text text-anchor="middle" x="489" y="-303.5" font-family="Helvetica,sans-Serif" font-size="10.00" fill="#000000"> m_argument</text>
</g>
<!-- Node3 -->
<g id="node3" class="node">
<title>Node3</title>
<g id="a_node3"><a xlink:href="../../d9/d45/class_q_c_string.html" target="_top" xlink:title="This is an alternative implementation of QCString.">
<polygon fill="#ffffff" stroke="#666666" points="92.5,-385 35.5,-385 35.5,-366 92.5,-366 92.5,-385"/>
<text text-anchor="middle" x="64" y="-373" font-family="Helvetica,sans-Serif" font-size="10.00" fill="#000000">QCString</text>
</a>
</g>
</g>
<!-- Node3&#45;&gt;Node1 -->
<g id="edge4" class="edge">
<title>Node3&#45;&gt;Node1</title>
<path fill="none" stroke="#9a32cd" stroke-dasharray="5,2" d="M88.3686,-390.212C104.1789,-398.8765 125.5707,-408.9964 146,-413.5 198.0828,-424.9815 213.5811,-423.3338 266,-413.5 384.1106,-391.3423 415.9392,-378.9404 518,-315.5 548.864,-296.3151 578.6939,-264.8884 592.6994,-249.1363"/>
<polygon fill="#9a32cd" stroke="#9a32cd" points="89.7288,-386.9597 79.3041,-385.0684 86.2741,-393.0478 89.7288,-386.9597"/>
<text text-anchor="middle" x="363" y="-412.5" font-family="Helvetica,sans-Serif" font-size="10.00" fill="#000000"> m_relPath</text>
</g>
<!-- Node3&#45;&gt;Node2 -->
<g id="edge2" class="edge">
<title>Node3&#45;&gt;Node2</title>
<path fill="none" stroke="#9a32cd" stroke-dasharray="5,2" d="M83.1728,-359.6134C98.9405,-347.6365 122.4477,-332.1729 146,-325.5 210.7014,-307.1688 290.6756,-313.9148 333.1677,-319.6794"/>
<polygon fill="#9a32cd" stroke="#9a32cd" points="80.9599,-356.901 75.258,-365.8307 85.284,-362.4057 80.9599,-356.901"/>
<text text-anchor="middle" x="206" y="-405.5" font-family="Helvetica,sans-Serif" font-size="10.00" fill="#000000"> array</text>
<text text-anchor="middle" x="206" y="-394.5" font-family="Helvetica,sans-Serif" font-size="10.00" fill="#000000">attrib</text>
<text text-anchor="middle" x="206" y="-383.5" font-family="Helvetica,sans-Serif" font-size="10.00" fill="#000000">canType</text>
<text text-anchor="middle" x="206" y="-372.5" font-family="Helvetica,sans-Serif" font-size="10.00" fill="#000000">defval</text>
<text text-anchor="middle" x="206" y="-361.5" font-family="Helvetica,sans-Serif" font-size="10.00" fill="#000000">docs</text>
<text text-anchor="middle" x="206" y="-350.5" font-family="Helvetica,sans-Serif" font-size="10.00" fill="#000000">name</text>
<text text-anchor="middle" x="206" y="-339.5" font-family="Helvetica,sans-Serif" font-size="10.00" fill="#000000">type</text>
<text text-anchor="middle" x="206" y="-328.5" font-family="Helvetica,sans-Serif" font-size="10.00" fill="#000000">typeConstraint</text>
</g>
<!-- Node4 -->
<g id="node4" class="node">
<title>Node4</title>
<g id="a_node4"><a xlink:href="../../d5/dcc/class_definition.html" target="_top" xlink:title="The common base class of all entity definitions found in the sources.">
<polygon fill="#ffffff" stroke="#666666" points="392,-297 334,-297 334,-278 392,-278 392,-297"/>
<text text-anchor="middle" x="363" y="-285" font-family="Helvetica,sans-Serif" font-size="10.00" fill="#000000">Definition</text>
</a>
</g>
</g>
<!-- Node4&#45;&gt;Node1 -->
<g id="edge3" class="edge">
<title>Node4&#45;&gt;Node1</title>
<path fill="none" stroke="#9a32cd" stroke-dasharray="5,2" d="M402.1811,-279.5979C443.6458,-271.2353 509.0999,-258.0345 553.4805,-249.0838"/>
<polygon fill="#9a32cd" stroke="#9a32cd" points="401.2941,-276.2063 392.1835,-281.6143 402.6781,-283.0681 401.2941,-276.2063"/>
<text text-anchor="middle" x="489" y="-270.5" font-family="Helvetica,sans-Serif" font-size="10.00" fill="#000000"> m_def</text>
</g>
<!-- Node5 -->
<g id="node5" class="node">
<title>Node5</title>
<g id="a_node5"><a xlink:href="../../d7/dc1/class_cached_item.html" target="_top" xlink:title=" ">
<polygon fill="#ffffff" stroke="#666666" points="439.5,-260 286.5,-260 286.5,-219 439.5,-219 439.5,-260"/>
<text text-anchor="start" x="294.5" y="-248" font-family="Helvetica,sans-Serif" font-size="10.00" fill="#000000">CachedItem&lt; TemplateVariant,</text>
<text text-anchor="start" x="294.5" y="-237" font-family="Helvetica,sans-Serif" font-size="10.00" fill="#000000"> ArgumentContext::Private,</text>
<text text-anchor="middle" x="363" y="-226" font-family="Helvetica,sans-Serif" font-size="10.00" fill="#000000"> &amp;Private::createType &gt;</text>
</a>
</g>
</g>
<!-- Node5&#45;&gt;Node1 -->
<g id="edge5" class="edge">
<title>Node5&#45;&gt;Node1</title>
<path fill="none" stroke="#9a32cd" stroke-dasharray="5,2" d="M449.926,-239.5C478.2716,-239.5 509.241,-239.5 535.7196,-239.5"/>
<polygon fill="#9a32cd" stroke="#9a32cd" points="449.6148,-236.0001 439.6148,-239.5 449.6147,-243.0001 449.6148,-236.0001"/>
<text text-anchor="middle" x="489" y="-242.5" font-family="Helvetica,sans-Serif" font-size="10.00" fill="#000000"> m_type</text>
</g>
<!-- Node6 -->
<g id="node6" class="node">
<title>Node6</title>
<g id="a_node6"><a xlink:href="../../d1/dba/class_template_variant.html" target="_top" xlink:title="Variant type which can hold one value of a fixed set of types.">
<polygon fill="#ffffff" stroke="#666666" points="108,-98 20,-98 20,-79 108,-79 108,-98"/>
<text text-anchor="middle" x="64" y="-86" font-family="Helvetica,sans-Serif" font-size="10.00" fill="#000000">TemplateVariant</text>
</a>
</g>
</g>
<!-- Node6&#45;&gt;Node5 -->
<g id="edge6" class="edge">
<title>Node6&#45;&gt;Node5</title>
<path fill="none" stroke="#9a32cd" stroke-dasharray="5,2" d="M79.5702,-105.774C94.8707,-121.5962 119.6936,-144.3464 146,-156.5 195.1517,-179.2082 222.0075,-145.9372 266,-177.5 279.5743,-187.239 271.3481,-199.5894 284,-210.5 287.6512,-213.6487 291.6738,-216.4675 295.9114,-218.9891"/>
<polygon fill="#9a32cd" stroke="#9a32cd" points="81.8769,-103.1174 72.4796,-98.2242 76.7744,-107.9096 81.8769,-103.1174"/>
<text text-anchor="middle" x="206" y="-180.5" font-family="Helvetica,sans-Serif" font-size="10.00" fill="#000000"> m_item</text>
</g>
<!-- Node8 -->
<g id="node8" class="node">
<title>Node8</title>
<g id="a_node8"><a xlink:href="../../d7/dc1/class_cached_item.html" target="_top" xlink:title=" ">
<polygon fill="#ffffff" stroke="#666666" points="439.5,-142 286.5,-142 286.5,-101 439.5,-101 439.5,-142"/>
<text text-anchor="start" x="294.5" y="-130" font-family="Helvetica,sans-Serif" font-size="10.00" fill="#000000">CachedItem&lt; TemplateVariant,</text>
<text text-anchor="start" x="294.5" y="-119" font-family="Helvetica,sans-Serif" font-size="10.00" fill="#000000"> ArgumentContext::Private,</text>
<text text-anchor="middle" x="363" y="-108" font-family="Helvetica,sans-Serif" font-size="10.00" fill="#000000"> &amp;Private::createDefval &gt;</text>
</a>
</g>
</g>
<!-- Node6&#45;&gt;Node8 -->
<g id="edge9" class="edge">
<title>Node6&#45;&gt;Node8</title>
<path fill="none" stroke="#9a32cd" stroke-dasharray="5,2" d="M91.0149,-74.5784C106.6311,-67.3181 126.9112,-59.197 146,-55.5 198.3604,-45.3593 215.0287,-39.8037 266,-55.5 294.8107,-64.3721 322.7292,-85.0449 341.1577,-100.9086"/>
<polygon fill="#9a32cd" stroke="#9a32cd" points="89.4411,-71.4516 81.9467,-78.9405 92.4755,-77.7597 89.4411,-71.4516"/>
<text text-anchor="middle" x="206" y="-58.5" font-family="Helvetica,sans-Serif" font-size="10.00" fill="#000000"> m_item</text>
</g>
<!-- Node9 -->
<g id="node9" class="node">
<title>Node9</title>
<g id="a_node9"><a xlink:href="../../d7/dc1/class_cached_item.html" target="_top" xlink:title=" ">
<polygon fill="#ffffff" stroke="#666666" points="439.5,-201 286.5,-201 286.5,-160 439.5,-160 439.5,-201"/>
<text text-anchor="start" x="294.5" y="-189" font-family="Helvetica,sans-Serif" font-size="10.00" fill="#000000">CachedItem&lt; TemplateVariant,</text>
<text text-anchor="start" x="294.5" y="-178" font-family="Helvetica,sans-Serif" font-size="10.00" fill="#000000"> ArgumentContext::Private,</text>
<text text-anchor="middle" x="363" y="-167" font-family="Helvetica,sans-Serif" font-size="10.00" fill="#000000"> &amp;Private::createDocs &gt;</text>
</a>
</g>
</g>
<!-- Node6&#45;&gt;Node9 -->
<g id="edge12" class="edge">
<title>Node6&#45;&gt;Node9</title>
<path fill="none" stroke="#9a32cd" stroke-dasharray="5,2" d="M118.1654,-82.0281C170.0158,-77.0499 243.5677,-73.5571 266,-90.5 288.556,-107.5364 264.6711,-130.8746 284,-151.5 286.8972,-154.5916 290.1518,-157.3549 293.6457,-159.8246"/>
<polygon fill="#9a32cd" stroke="#9a32cd" points="117.7066,-78.5564 108.1063,-83.0379 118.4059,-85.5214 117.7066,-78.5564"/>
<text text-anchor="middle" x="206" y="-93.5" font-family="Helvetica,sans-Serif" font-size="10.00" fill="#000000"> m_item</text>
</g>
<!-- Node7 -->
<g id="node7" class="node">
<title>Node7</title>
<g id="a_node7"><a xlink:href="../../d7/dc1/class_cached_item.html" target="_top" xlink:title="Wrapper for data that needs to be cached.">
<polygon fill="#ffffff" stroke="#666666" points="128,-227.5 0,-227.5 0,-197.5 128,-197.5 128,-227.5"/>
<text text-anchor="start" x="8" y="-215.5" font-family="Helvetica,sans-Serif" font-size="10.00" fill="#000000">CachedItem&lt; T, TOwner,</text>
<text text-anchor="middle" x="64" y="-204.5" font-family="Helvetica,sans-Serif" font-size="10.00" fill="#000000"> creator &gt;</text>
</a>
</g>
</g>
<!-- Node7&#45;&gt;Node5 -->
<g id="edge7" class="edge">
<title>Node7&#45;&gt;Node5</title>
<path fill="none" stroke="#ffa500" stroke-dasharray="5,2" d="M102.1522,-231.966C115.6449,-237.8572 131.1616,-243.5457 146,-246.5 192.0247,-255.6635 244.6069,-254.2584 286.483,-250.3971"/>
<polygon fill="#ffa500" stroke="#ffa500" points="103.2755,-228.6319 92.7238,-227.6767 100.3768,-235.0036 103.2755,-228.6319"/>
<text text-anchor="start" x="146" y="-277.5" font-family="Helvetica,sans-Serif" font-size="10.00" fill="#000000"> &lt; TemplateVariant,</text>
<text text-anchor="start" x="146" y="-266.5" font-family="Helvetica,sans-Serif" font-size="10.00" fill="#000000"> ArgumentContext::Private,</text>
<text text-anchor="middle" x="206" y="-255.5" font-family="Helvetica,sans-Serif" font-size="10.00" fill="#000000"> &amp;Private::createType &gt;</text>
</g>
<!-- Node7&#45;&gt;Node8 -->
<g id="edge10" class="edge">
<title>Node7&#45;&gt;Node8</title>
<path fill="none" stroke="#ffa500" stroke-dasharray="5,2" d="M77.8794,-188.714C91.9553,-167.1795 115.9234,-136.8508 146,-123.5 189.6465,-104.1256 243.2683,-103.4462 286.288,-107.6987"/>
<polygon fill="#ffa500" stroke="#ffa500" points="74.8225,-187.0006 72.4636,-197.3295 80.7488,-190.726 74.8225,-187.0006"/>
<text text-anchor="start" x="146" y="-148.5" font-family="Helvetica,sans-Serif" font-size="10.00" fill="#000000"> &lt; TemplateVariant,</text>
<text text-anchor="start" x="146" y="-137.5" font-family="Helvetica,sans-Serif" font-size="10.00" fill="#000000"> ArgumentContext::Private,</text>
<text text-anchor="middle" x="206" y="-126.5" font-family="Helvetica,sans-Serif" font-size="10.00" fill="#000000"> &amp;Private::createDefval &gt;</text>
</g>
<!-- Node7&#45;&gt;Node9 -->
<g id="edge13" class="edge">
<title>Node7&#45;&gt;Node9</title>
<path fill="none" stroke="#ffa500" stroke-dasharray="5,2" d="M138.1492,-204.5643C183.2334,-199.7392 240.6963,-193.5894 286.2458,-188.7145"/>
<polygon fill="#ffa500" stroke="#ffa500" points="137.7137,-201.0908 128.143,-205.6352 138.4587,-208.0511 137.7137,-201.0908"/>
<text text-anchor="start" x="146" y="-227.5" font-family="Helvetica,sans-Serif" font-size="10.00" fill="#000000"> &lt; TemplateVariant,</text>
<text text-anchor="start" x="146" y="-216.5" font-family="Helvetica,sans-Serif" font-size="10.00" fill="#000000"> ArgumentContext::Private,</text>
<text text-anchor="middle" x="206" y="-205.5" font-family="Helvetica,sans-Serif" font-size="10.00" fill="#000000"> &amp;Private::createDocs &gt;</text>
</g>
<!-- Node8&#45;&gt;Node1 -->
<g id="edge8" class="edge">
<title>Node8&#45;&gt;Node1</title>
<path fill="none" stroke="#9a32cd" stroke-dasharray="5,2" d="M428.7038,-145.8694C433.2242,-147.7243 437.6922,-149.6108 442,-151.5 476.5851,-166.6671 484.9113,-171.298 518,-189.5 542.1726,-202.7973 569.4373,-219.5775 585.9119,-229.9208"/>
<polygon fill="#9a32cd" stroke="#9a32cd" points="429.9693,-142.6059 419.3859,-142.1155 427.3536,-149.0988 429.9693,-142.6059"/>
<text text-anchor="middle" x="489" y="-192.5" font-family="Helvetica,sans-Serif" font-size="10.00" fill="#000000"> m_defval</text>
</g>
<!-- Node9&#45;&gt;Node1 -->
<g id="edge11" class="edge">
<title>Node9&#45;&gt;Node1</title>
<path fill="none" stroke="#9a32cd" stroke-dasharray="5,2" d="M449.3636,-201.9095C488.1785,-211.5316 532.0139,-222.3984 562.5339,-229.9643"/>
<polygon fill="#9a32cd" stroke="#9a32cd" points="450.1631,-198.5018 439.6148,-199.4927 448.4788,-205.2961 450.1631,-198.5018"/>
<text text-anchor="middle" x="489" y="-221.5" font-family="Helvetica,sans-Serif" font-size="10.00" fill="#000000"> m_docs</text>
</g>
<!-- Node10 -->
<g id="node10" class="node">
<title>Node10</title>
<g id="a_node10"><a xlink:href="../../d5/dbf/class_property_map.html" target="_top" xlink:title=" ">
<polygon fill="#ffffff" stroke="#666666" points="442,-53.5 284,-53.5 284,-23.5 442,-23.5 442,-53.5"/>
<text text-anchor="start" x="292" y="-41.5" font-family="Helvetica,sans-Serif" font-size="10.00" fill="#000000">PropertyMap&lt; ArgumentContext</text>
<text text-anchor="middle" x="363" y="-30.5" font-family="Helvetica,sans-Serif" font-size="10.00" fill="#000000">::Private &gt;</text>
</a>
</g>
</g>
<!-- Node10&#45;&gt;Node1 -->
<g id="edge14" class="edge">
<title>Node10&#45;&gt;Node1</title>
<path fill="none" stroke="#9a32cd" stroke-dasharray="5,2" d="M393.7898,-59.5414C408.4001,-69.5272 426.1013,-81.6273 442,-92.5 475.783,-115.6034 487.4033,-117.3172 518,-144.5 549.436,-172.4284 580.4055,-211.9017 593.9255,-229.8928"/>
<polygon fill="#9a32cd" stroke="#9a32cd" points="395.3669,-56.38 385.136,-53.627 391.4171,-62.1592 395.3669,-56.38"/>
<text text-anchor="middle" x="489" y="-147.5" font-family="Helvetica,sans-Serif" font-size="10.00" fill="#000000"> s_inst</text>
</g>
<!-- Node11 -->
<g id="node11" class="node">
<title>Node11</title>
<g id="a_node11"><a xlink:href="../../d5/dbf/class_property_map.html" target="_top" xlink:title="Class representing a mapping of properties and the corresponding getter function.">
<polygon fill="#ffffff" stroke="#666666" points="112,-19 16,-19 16,0 112,0 112,-19"/>
<text text-anchor="middle" x="64" y="-7" font-family="Helvetica,sans-Serif" font-size="10.00" fill="#000000">PropertyMap&lt; T &gt;</text>
</a>
</g>
</g>
<!-- Node11&#45;&gt;Node10 -->
<g id="edge15" class="edge">
<title>Node11&#45;&gt;Node10</title>
<path fill="none" stroke="#ffa500" stroke-dasharray="5,2" d="M122.2615,-5.5624C162.7839,-3.8534 217.9419,-3.5812 266,-10.5 284.0429,-13.0976 303.4348,-18.2058 320.1017,-23.3559"/>
<polygon fill="#ffa500" stroke="#ffa500" points="121.8531,-2.0775 112.0262,-6.0375 122.1778,-9.0699 121.8531,-2.0775"/>
<text text-anchor="start" x="158.5" y="-24.5" font-family="Helvetica,sans-Serif" font-size="10.00" fill="#000000"> &lt; ArgumentContext::</text>
<text text-anchor="middle" x="206" y="-13.5" font-family="Helvetica,sans-Serif" font-size="10.00" fill="#000000">Private &gt;</text>
</g>
</g>
</svg>
