<?xml version="1.0" encoding="UTF-8" standalone="no"?>
<!DOCTYPE svg PUBLIC "-//W3C//DTD SVG 1.1//EN"
 "http://www.w3.org/Graphics/SVG/1.1/DTD/svg11.dtd">
<!-- Generated by graphviz version 2.40.1 (20161225.0304)
 -->
<!-- Title: TemplateEngine::Private Pages: 1 -->
<svg width="221pt" height="104pt"
 viewBox="0.00 0.00 220.50 104.00" xmlns="http://www.w3.org/2000/svg" xmlns:xlink="http://www.w3.org/1999/xlink">
<g id="graph0" class="graph" transform="scale(1 1) rotate(0) translate(4 100)">
<title>TemplateEngine::Private</title>
<!-- Node1 -->
<g id="node1" class="node">
<title>Node1</title>
<g id="a_node1"><a xlink:title="Private data of the template engine.">
<polygon fill="#999999" stroke="#666666" points="150.5,-19 26.5,-19 26.5,0 150.5,0 150.5,-19"/>
<text text-anchor="middle" x="88.5" y="-7" font-family="Helvetica,sans-Serif" font-size="10.00" fill="#000000">TemplateEngine::Private</text>
</a>
</g>
</g>
<!-- Node2 -->
<g id="node2" class="node">
<title>Node2</title>
<g id="a_node2"><a xlink:href="../../d0/d1d/class_template_engine.html" target="_top" xlink:title="Engine to create templates and template contexts.">
<polygon fill="#ffffff" stroke="#666666" points="87,-96 0,-96 0,-77 87,-77 87,-96"/>
<text text-anchor="middle" x="43.5" y="-84" font-family="Helvetica,sans-Serif" font-size="10.00" fill="#000000">TemplateEngine</text>
</a>
</g>
</g>
<!-- Node2&#45;&gt;Node1 -->
<g id="edge1" class="edge">
<title>Node2&#45;&gt;Node1</title>
<path fill="none" stroke="#9a32cd" stroke-dasharray="5,2" d="M50.4337,-67.6452C54.2856,-58.1358 59.5088,-46.612 65.5,-37 69.4507,-30.6616 74.7513,-24.223 79.2683,-19.1708"/>
<polygon fill="#9a32cd" stroke="#9a32cd" points="47.1635,-66.398 46.8208,-76.9873 53.6922,-68.9229 47.1635,-66.398"/>
<text text-anchor="middle" x="88.5" y="-45.5" font-family="Helvetica,sans-Serif" font-size="10.00" fill="#000000"> m_engine</text>
</g>
<!-- Node3 -->
<g id="node3" class="node">
<title>Node3</title>
<g id="a_node3"><a xlink:href="../../d9/d45/class_q_c_string.html" target="_top" xlink:title="This is an alternative implementation of QCString.">
<polygon fill="#ffffff" stroke="#666666" points="162,-96 105,-96 105,-77 162,-77 162,-96"/>
<text text-anchor="middle" x="133.5" y="-84" font-family="Helvetica,sans-Serif" font-size="10.00" fill="#000000">QCString</text>
</a>
</g>
</g>
<!-- Node3&#45;&gt;Node1 -->
<g id="edge2" class="edge">
<title>Node3&#45;&gt;Node1</title>
<path fill="none" stroke="#9a32cd" stroke-dasharray="5,2" d="M126.5663,-67.6452C122.7144,-58.1358 117.4912,-46.612 111.5,-37 107.5493,-30.6616 102.2487,-24.223 97.7317,-19.1708"/>
<polygon fill="#9a32cd" stroke="#9a32cd" points="123.3078,-68.9229 130.1792,-76.9873 129.8365,-66.398 123.3078,-68.9229"/>
<text text-anchor="middle" x="167" y="-51" font-family="Helvetica,sans-Serif" font-size="10.00" fill="#000000"> m_extension</text>
<text text-anchor="middle" x="167" y="-40" font-family="Helvetica,sans-Serif" font-size="10.00" fill="#000000">m_templateDirName</text>
</g>
</g>
</svg>
