<?xml version="1.0" encoding="UTF-8" standalone="no"?>
<!DOCTYPE svg PUBLIC "-//W3C//DTD SVG 1.1//EN"
 "http://www.w3.org/Graphics/SVG/1.1/DTD/svg11.dtd">
<!-- Generated by graphviz version 2.40.1 (20161225.0304)
 -->
<!-- Title: vhdl::parser::VhdlErrorHandler Pages: 1 -->
<svg width="214pt" height="93pt"
 viewBox="0.00 0.00 214.00 93.00" xmlns="http://www.w3.org/2000/svg" xmlns:xlink="http://www.w3.org/1999/xlink">
<g id="graph0" class="graph" transform="scale(1 1) rotate(0) translate(4 89)">
<title>vhdl::parser::VhdlErrorHandler</title>
<!-- Node1 -->
<g id="node1" class="node">
<title>Node1</title>
<g id="a_node1"><a xlink:title=" ">
<polygon fill="#999999" stroke="#666666" points="193,-19 45,-19 45,0 193,0 193,-19"/>
<text text-anchor="middle" x="119" y="-7" font-family="Helvetica,sans-Serif" font-size="10.00" fill="#000000">vhdl::parser::VhdlErrorHandler</text>
</a>
</g>
</g>
<!-- Node2 -->
<g id="node2" class="node">
<title>Node2</title>
<g id="a_node2"><a xlink:href="../../df/d0f/classvhdl_1_1parser_1_1_error_handler.html" target="_top" xlink:title=" ">
<polygon fill="#ffffff" stroke="#666666" points="128,-85 0,-85 0,-66 128,-66 128,-85"/>
<text text-anchor="middle" x="64" y="-73" font-family="Helvetica,sans-Serif" font-size="10.00" fill="#000000">vhdl::parser::ErrorHandler</text>
</a>
</g>
</g>
<!-- Node2&#45;&gt;Node1 -->
<g id="edge1" class="edge">
<title>Node2&#45;&gt;Node1</title>
<path fill="none" stroke="#63b8ff" d="M78.6591,-57.909C88.9711,-45.5347 102.3893,-29.4328 110.8513,-19.2785"/>
<polygon fill="#63b8ff" stroke="#63b8ff" points="75.8285,-55.8386 72.1154,-65.7615 81.2061,-60.3199 75.8285,-55.8386"/>
</g>
<!-- Node3 -->
<g id="node3" class="node">
<title>Node3</title>
<g id="a_node3"><a xlink:href="../../d9/d45/class_q_c_string.html" target="_top" xlink:title="This is an alternative implementation of QCString.">
<polygon fill="#ffffff" stroke="#666666" points="203.5,-85 146.5,-85 146.5,-66 203.5,-66 203.5,-85"/>
<text text-anchor="middle" x="175" y="-73" font-family="Helvetica,sans-Serif" font-size="10.00" fill="#000000">QCString</text>
</a>
</g>
</g>
<!-- Node3&#45;&gt;Node1 -->
<g id="edge2" class="edge">
<title>Node3&#45;&gt;Node1</title>
<path fill="none" stroke="#9a32cd" stroke-dasharray="5,2" d="M160.0743,-57.909C149.5749,-45.5347 135.9127,-29.4328 127.2969,-19.2785"/>
<polygon fill="#9a32cd" stroke="#9a32cd" points="157.5984,-60.4008 166.737,-65.7615 162.936,-55.8719 157.5984,-60.4008"/>
<text text-anchor="middle" x="178" y="-40" font-family="Helvetica,sans-Serif" font-size="10.00" fill="#000000"> m_fileName</text>
</g>
</g>
</svg>
