<?xml version="1.0" encoding="UTF-8" standalone="no"?>
<!DOCTYPE svg PUBLIC "-//W3C//DTD SVG 1.1//EN"
 "http://www.w3.org/Graphics/SVG/1.1/DTD/svg11.dtd">
<!-- Generated by graphviz version 2.40.1 (20161225.0304)
 -->
<!-- Title: MemberDef Pages: 1 -->
<svg width="276pt" height="269pt"
 viewBox="0.00 0.00 275.50 269.00" xmlns="http://www.w3.org/2000/svg" xmlns:xlink="http://www.w3.org/1999/xlink">
<g id="graph0" class="graph" transform="scale(1 1) rotate(0) translate(4 265)">
<title>MemberDef</title>
<!-- Node1 -->
<g id="node1" class="node">
<title>Node1</title>
<g id="a_node1"><a xlink:title="A model of a class/file/namespace member symbol.">
<polygon fill="#999999" stroke="#666666" points="159,-206 91,-206 91,-187 159,-187 159,-206"/>
<text text-anchor="middle" x="125" y="-194" font-family="Helvetica,sans-Serif" font-size="10.00" fill="#000000">MemberDef</text>
</a>
</g>
</g>
<!-- Node3 -->
<g id="node3" class="node">
<title>Node3</title>
<g id="a_node3"><a xlink:href="../../d8/d83/class_definition_alias_mixin.html" target="_top" xlink:title=" ">
<polygon fill="#ffffff" stroke="#666666" points="116.5,-151 13.5,-151 13.5,-121 116.5,-121 116.5,-151"/>
<text text-anchor="start" x="21.5" y="-139" font-family="Helvetica,sans-Serif" font-size="10.00" fill="#000000">DefinitionAliasMixin</text>
<text text-anchor="middle" x="65" y="-128" font-family="Helvetica,sans-Serif" font-size="10.00" fill="#000000">&lt; MemberDef &gt;</text>
</a>
</g>
</g>
<!-- Node1&#45;&gt;Node3 -->
<g id="edge2" class="edge">
<title>Node1&#45;&gt;Node3</title>
<path fill="none" stroke="#63b8ff" d="M108.1777,-179.5375C99.3281,-170.6142 88.5693,-159.7657 80.0051,-151.1301"/>
<polygon fill="#63b8ff" stroke="#63b8ff" points="105.8331,-182.1438 115.36,-186.7796 110.8034,-177.2147 105.8331,-182.1438"/>
</g>
<!-- Node5 -->
<g id="node5" class="node">
<title>Node5</title>
<g id="a_node5"><a xlink:href="../../dd/d4b/class_member_def_mutable.html" target="_top" xlink:title=" ">
<polygon fill="#ffffff" stroke="#666666" points="242,-145.5 140,-145.5 140,-126.5 242,-126.5 242,-145.5"/>
<text text-anchor="middle" x="191" y="-133.5" font-family="Helvetica,sans-Serif" font-size="10.00" fill="#000000">MemberDefMutable</text>
</a>
</g>
</g>
<!-- Node1&#45;&gt;Node5 -->
<g id="edge4" class="edge">
<title>Node1&#45;&gt;Node5</title>
<path fill="none" stroke="#63b8ff" d="M143.2102,-179.8073C155.0882,-168.9192 170.1893,-155.0765 180.203,-145.8972"/>
<polygon fill="#63b8ff" stroke="#63b8ff" points="140.6106,-177.4423 135.604,-186.7796 145.3407,-182.6024 140.6106,-177.4423"/>
</g>
<!-- Node2 -->
<g id="node2" class="node">
<title>Node2</title>
<g id="a_node2"><a xlink:href="../../d5/dcc/class_definition.html" target="_top" xlink:title="The common base class of all entity definitions found in the sources.">
<polygon fill="#ffffff" stroke="#666666" points="154,-261 96,-261 96,-242 154,-242 154,-261"/>
<text text-anchor="middle" x="125" y="-249" font-family="Helvetica,sans-Serif" font-size="10.00" fill="#000000">Definition</text>
</a>
</g>
</g>
<!-- Node2&#45;&gt;Node1 -->
<g id="edge1" class="edge">
<title>Node2&#45;&gt;Node1</title>
<path fill="none" stroke="#63b8ff" d="M125,-231.8553C125,-223.2036 125,-213.4195 125,-206.3408"/>
<polygon fill="#63b8ff" stroke="#63b8ff" points="121.5001,-231.9197 125,-241.9197 128.5001,-231.9198 121.5001,-231.9197"/>
</g>
<!-- Node4 -->
<g id="node4" class="node">
<title>Node4</title>
<g id="a_node4"><a xlink:href="../../d7/d70/class_member_def_alias_impl.html" target="_top" xlink:title=" ">
<polygon fill="#ffffff" stroke="#666666" points="108,-79.5 0,-79.5 0,-60.5 108,-60.5 108,-79.5"/>
<text text-anchor="middle" x="54" y="-67.5" font-family="Helvetica,sans-Serif" font-size="10.00" fill="#000000">MemberDefAliasImpl</text>
</a>
</g>
</g>
<!-- Node3&#45;&gt;Node4 -->
<g id="edge3" class="edge">
<title>Node3&#45;&gt;Node4</title>
<path fill="none" stroke="#63b8ff" d="M60.8012,-110.8073C58.9901,-99.9409 56.9794,-87.8763 55.6172,-79.7031"/>
<polygon fill="#63b8ff" stroke="#63b8ff" points="57.3523,-111.4039 62.4487,-120.6924 64.257,-110.253 57.3523,-111.4039"/>
</g>
<!-- Node6 -->
<g id="node6" class="node">
<title>Node6</title>
<g id="a_node6"><a xlink:href="../../dd/d10/class_definition_mixin.html" target="_top" xlink:title=" ">
<polygon fill="#ffffff" stroke="#666666" points="267.5,-85 126.5,-85 126.5,-55 267.5,-55 267.5,-85"/>
<text text-anchor="start" x="134.5" y="-73" font-family="Helvetica,sans-Serif" font-size="10.00" fill="#000000">DefinitionMixin&lt; MemberDef</text>
<text text-anchor="middle" x="197" y="-62" font-family="Helvetica,sans-Serif" font-size="10.00" fill="#000000">Mutable &gt;</text>
</a>
</g>
</g>
<!-- Node5&#45;&gt;Node6 -->
<g id="edge5" class="edge">
<title>Node5&#45;&gt;Node6</title>
<path fill="none" stroke="#63b8ff" d="M192.8096,-116.0942C193.7123,-106.165 194.7865,-94.3481 195.6214,-85.165"/>
<polygon fill="#63b8ff" stroke="#63b8ff" points="189.3051,-115.9856 191.8853,-126.2615 196.2764,-116.6194 189.3051,-115.9856"/>
</g>
<!-- Node7 -->
<g id="node7" class="node">
<title>Node7</title>
<g id="a_node7"><a xlink:href="../../d7/d7e/class_member_def_impl.html" target="_top" xlink:title=" ">
<polygon fill="#ffffff" stroke="#666666" points="240,-19 154,-19 154,0 240,0 240,-19"/>
<text text-anchor="middle" x="197" y="-7" font-family="Helvetica,sans-Serif" font-size="10.00" fill="#000000">MemberDefImpl</text>
</a>
</g>
</g>
<!-- Node6&#45;&gt;Node7 -->
<g id="edge6" class="edge">
<title>Node6&#45;&gt;Node7</title>
<path fill="none" stroke="#63b8ff" d="M197,-44.611C197,-35.5866 197,-25.9694 197,-19.0864"/>
<polygon fill="#63b8ff" stroke="#63b8ff" points="193.5001,-44.7333 197,-54.7333 200.5001,-44.7333 193.5001,-44.7333"/>
</g>
</g>
</svg>
