<?xml version="1.0" encoding="UTF-8" standalone="no"?>
<!DOCTYPE svg PUBLIC "-//W3C//DTD SVG 1.1//EN"
 "http://www.w3.org/Graphics/SVG/1.1/DTD/svg11.dtd">
<!-- Generated by graphviz version 2.43.0 (0)
 -->
<!-- Title: src/searchindex.h Pages: 1 -->
<!--zoomable 192 -->
<svg id="main" version="1.1" xmlns="http://www.w3.org/2000/svg" xmlns:xlink="http://www.w3.org/1999/xlink" xml:space="preserve" onload="init(evt)">
<style type="text/css"><![CDATA[
.edge:hover path { stroke: red; }
.edge:hover polygon { stroke: red; fill: red; }
]]></style>
<script type="text/javascript"><![CDATA[
var edges = document.getElementsByTagName('g');
if (edges && edges.length) {
  for (var i=0;i<edges.length;i++) {
    if (edges[i].id.substr(0,4)=='edge') {
      edges[i].setAttribute('class','edge');
    }
  }
}
]]></script>
        <defs>
                <circle id="rim" cx="0" cy="0" r="7"/>
                <circle id="rim2" cx="0" cy="0" r="3.5"/>
                <g id="zoomPlus">
                        <use xlink:href="#rim" fill="#404040">
                                <set attributeName="fill" to="#808080" begin="zoomplus.mouseover" end="zoomplus.mouseout"/>
                        </use>
                        <path d="M-4,0h8M0,-4v8" fill="none" stroke="white" stroke-width="1.5" pointer-events="none"/>
                </g>
                <g id="zoomMin">
                        <use xlink:href="#rim" fill="#404040">
                                <set attributeName="fill" to="#808080" begin="zoomminus.mouseover" end="zoomminus.mouseout"/>
                        </use>
                        <path d="M-4,0h8" fill="none" stroke="white" stroke-width="1.5" pointer-events="none"/>
                </g>
                <g id="dirArrow">
                        <path fill="none" stroke="white" stroke-width="1.5" d="M0,-3.0v7 M-2.5,-0.5L0,-3.0L2.5,-0.5"/>
                </g>
               <g id="resetDef">
                       <use xlink:href="#rim2" fill="#404040">
                               <set attributeName="fill" to="#808080" begin="reset.mouseover" end="reset.mouseout"/>
                       </use>
               </g>
        </defs>

<script type="text/javascript">
var viewWidth = 1123;
var viewHeight = 192;
var sectionId = 'dynsection-0';
</script>
<script xlink:href="../../svgpan.js"/>
<svg id="graph" class="graph">
<g id="viewport">
<title>src/searchindex.h</title>
<!-- Node1 -->
<g id="node1" class="node">
<title>Node1</title>
<g id="a_node1"><a xlink:title="Web server based search engine.">
<polygon fill="#999999" stroke="#666666" points="556.19,-184 454.19,-184 454.19,-165 556.19,-165 556.19,-184"/>
<text text-anchor="middle" x="505.19" y="-172" font-family="Helvetica,sans-Serif" font-size="10.00">src/searchindex.h</text>
</a>
</g>
</g>
<!-- Node2 -->
<g id="node2" class="node">
<title>Node2</title>
<g id="a_node2"><a xlink:title=" ">
<polygon fill="#e0e0e0" stroke="#999999" points="144.19,-129 86.19,-129 86.19,-110 144.19,-110 144.19,-129"/>
<text text-anchor="middle" x="115.19" y="-117" font-family="Helvetica,sans-Serif" font-size="10.00">memory</text>
</a>
</g>
</g>
<!-- Node1&#45;&gt;Node2 -->
<g id="edge1" class="edge">
<title>Node1&#45;&gt;Node2</title>
<path fill="none" stroke="#63b8ff" d="M453.95,-168.55C387.25,-161.78 266.84,-148.39 154.72,-129.12"/>
<polygon fill="#63b8ff" stroke="#63b8ff" points="155.04,-125.63 144.59,-127.36 153.84,-132.53 155.04,-125.63"/>
</g>
<!-- Node3 -->
<g id="node3" class="node">
<title>Node3</title>
<g id="a_node3"><a xlink:title=" ">
<polygon fill="#e0e0e0" stroke="#999999" points="209.69,-129 162.69,-129 162.69,-110 209.69,-110 209.69,-129"/>
<text text-anchor="middle" x="186.19" y="-117" font-family="Helvetica,sans-Serif" font-size="10.00">vector</text>
</a>
</g>
</g>
<!-- Node1&#45;&gt;Node3 -->
<g id="edge2" class="edge">
<title>Node1&#45;&gt;Node3</title>
<path fill="none" stroke="#63b8ff" d="M454.03,-167.08C398.67,-159.78 307.64,-146.79 219.78,-128.94"/>
<polygon fill="#63b8ff" stroke="#63b8ff" points="220.41,-125.49 209.91,-126.91 219,-132.35 220.41,-125.49"/>
</g>
<!-- Node4 -->
<g id="node4" class="node">
<title>Node4</title>
<g id="a_node4"><a xlink:title=" ">
<polygon fill="#e0e0e0" stroke="#999999" points="266.19,-129 228.19,-129 228.19,-110 266.19,-110 266.19,-129"/>
<text text-anchor="middle" x="247.19" y="-117" font-family="Helvetica,sans-Serif" font-size="10.00">map</text>
</a>
</g>
</g>
<!-- Node1&#45;&gt;Node4 -->
<g id="edge3" class="edge">
<title>Node1&#45;&gt;Node4</title>
<path fill="none" stroke="#63b8ff" d="M454.15,-165.19C409.52,-157.57 342.79,-145.33 276.21,-129.05"/>
<polygon fill="#63b8ff" stroke="#63b8ff" points="276.94,-125.62 266.39,-126.62 275.26,-132.42 276.94,-125.62"/>
</g>
<!-- Node5 -->
<g id="node5" class="node">
<title>Node5</title>
<g id="a_node5"><a xlink:title=" ">
<polygon fill="#e0e0e0" stroke="#999999" points="377.69,-129 284.69,-129 284.69,-110 377.69,-110 377.69,-129"/>
<text text-anchor="middle" x="331.19" y="-117" font-family="Helvetica,sans-Serif" font-size="10.00">unordered_map</text>
</a>
</g>
</g>
<!-- Node1&#45;&gt;Node5 -->
<g id="edge4" class="edge">
<title>Node1&#45;&gt;Node5</title>
<path fill="none" stroke="#63b8ff" d="M477.23,-164.98C447.89,-156.05 401.59,-141.94 369,-132.02"/>
<polygon fill="#63b8ff" stroke="#63b8ff" points="369.95,-128.65 359.36,-129.08 367.91,-135.34 369.95,-128.65"/>
</g>
<!-- Node6 -->
<g id="node6" class="node">
<title>Node6</title>
<g id="a_node6"><a xlink:title=" ">
<polygon fill="#e0e0e0" stroke="#999999" points="553.19,-19 509.19,-19 509.19,0 553.19,0 553.19,-19"/>
<text text-anchor="middle" x="531.19" y="-7" font-family="Helvetica,sans-Serif" font-size="10.00">string</text>
</a>
</g>
</g>
<!-- Node1&#45;&gt;Node6 -->
<g id="edge5" class="edge">
<title>Node1&#45;&gt;Node6</title>
<path fill="none" stroke="#63b8ff" d="M506.58,-164.74C510.66,-139.2 522.58,-64.43 528.2,-29.23"/>
<polygon fill="#63b8ff" stroke="#63b8ff" points="531.66,-29.73 529.78,-19.31 524.75,-28.63 531.66,-29.73"/>
</g>
<!-- Node7 -->
<g id="node7" class="node">
<title>Node7</title>
<g id="a_node7"><a xlink:title=" ">
<polygon fill="#e0e0e0" stroke="#999999" points="1029.19,-129 987.19,-129 987.19,-110 1029.19,-110 1029.19,-129"/>
<text text-anchor="middle" x="1008.19" y="-117" font-family="Helvetica,sans-Serif" font-size="10.00">array</text>
</a>
</g>
</g>
<!-- Node1&#45;&gt;Node7 -->
<g id="edge6" class="edge">
<title>Node1&#45;&gt;Node7</title>
<path fill="none" stroke="#63b8ff" d="M556.36,-171.74C641.8,-168.14 818.92,-157.84 977.09,-128.87"/>
<polygon fill="#63b8ff" stroke="#63b8ff" points="977.8,-132.29 986.99,-127.02 976.52,-125.41 977.8,-132.29"/>
</g>
<!-- Node8 -->
<g id="node8" class="node">
<title>Node8</title>
<g id="a_node8"><a xlink:title=" ">
<polygon fill="#e0e0e0" stroke="#999999" points="870.69,-74 819.69,-74 819.69,-55 870.69,-55 870.69,-74"/>
<text text-anchor="middle" x="845.19" y="-62" font-family="Helvetica,sans-Serif" font-size="10.00">variant</text>
</a>
</g>
</g>
<!-- Node1&#45;&gt;Node8 -->
<g id="edge7" class="edge">
<title>Node1&#45;&gt;Node8</title>
<path fill="none" stroke="#63b8ff" d="M556.27,-171.68C609.44,-168.2 694.15,-158.11 761.19,-129 787.75,-117.47 813.6,-95.9 829.45,-81.12"/>
<polygon fill="#63b8ff" stroke="#63b8ff" points="831.97,-83.55 836.78,-74.11 827.13,-78.5 831.97,-83.55"/>
</g>
<!-- Node9 -->
<g id="node9" class="node">
<title>Node9</title>
<g id="a_node9"><a xlink:href="../../d7/d5c/qcstring_8h.html" target="_top" xlink:title=" ">
<polygon fill="white" stroke="#666666" points="460.69,-129 395.69,-129 395.69,-110 460.69,-110 460.69,-129"/>
<text text-anchor="middle" x="428.19" y="-117" font-family="Helvetica,sans-Serif" font-size="10.00">qcstring.h</text>
</a>
</g>
</g>
<!-- Node1&#45;&gt;Node9 -->
<g id="edge8" class="edge">
<title>Node1&#45;&gt;Node9</title>
<path fill="none" stroke="#63b8ff" d="M492.81,-164.98C481.1,-156.92 463.27,-144.65 449.3,-135.03"/>
<polygon fill="#63b8ff" stroke="#63b8ff" points="451,-131.96 440.78,-129.17 447.04,-137.72 451,-131.96"/>
</g>
<!-- Node18 -->
<g id="node18" class="node">
<title>Node18</title>
<g id="a_node18"><a xlink:href="../../dd/d72/growbuf_8h.html" target="_top" xlink:title=" ">
<polygon fill="white" stroke="#666666" points="968.69,-129 903.69,-129 903.69,-110 968.69,-110 968.69,-129"/>
<text text-anchor="middle" x="936.19" y="-117" font-family="Helvetica,sans-Serif" font-size="10.00">growbuf.h</text>
</a>
</g>
</g>
<!-- Node1&#45;&gt;Node18 -->
<g id="edge20" class="edge">
<title>Node1&#45;&gt;Node18</title>
<path fill="none" stroke="#63b8ff" d="M556.32,-167.21C642.11,-156.66 813.45,-135.59 893.34,-125.77"/>
<polygon fill="#63b8ff" stroke="#63b8ff" points="894.03,-129.21 903.53,-124.52 893.18,-122.26 894.03,-129.21"/>
</g>
<!-- Node22 -->
<g id="node22" class="node">
<title>Node22</title>
<g id="a_node22"><a xlink:href="../../da/d73/dispatcher_8h.html" target="_top" xlink:title=" ">
<polygon fill="white" stroke="#666666" points="752.19,-129 676.19,-129 676.19,-110 752.19,-110 752.19,-129"/>
<text text-anchor="middle" x="714.19" y="-117" font-family="Helvetica,sans-Serif" font-size="10.00">dispatcher.h</text>
</a>
</g>
</g>
<!-- Node1&#45;&gt;Node22 -->
<g id="edge25" class="edge">
<title>Node1&#45;&gt;Node22</title>
<path fill="none" stroke="#63b8ff" d="M538.77,-164.98C574.54,-155.91 631.3,-141.52 670.53,-131.57"/>
<polygon fill="#63b8ff" stroke="#63b8ff" points="671.51,-134.93 680.34,-129.08 669.79,-128.15 671.51,-134.93"/>
</g>
<!-- Node9&#45;&gt;Node6 -->
<g id="edge9" class="edge">
<title>Node9&#45;&gt;Node6</title>
<path fill="none" stroke="#63b8ff" d="M444.02,-109.99C457.88,-102.01 477.97,-89.05 492.19,-74 505.07,-60.36 515.87,-41.8 522.82,-28.26"/>
<polygon fill="#63b8ff" stroke="#63b8ff" points="526.07,-29.58 527.35,-19.06 519.79,-26.49 526.07,-29.58"/>
</g>
<!-- Node10 -->
<g id="node10" class="node">
<title>Node10</title>
<g id="a_node10"><a xlink:title=" ">
<polygon fill="#e0e0e0" stroke="#999999" points="153.19,-74 89.19,-74 89.19,-55 153.19,-55 153.19,-74"/>
<text text-anchor="middle" x="121.19" y="-62" font-family="Helvetica,sans-Serif" font-size="10.00">algorithm</text>
</a>
</g>
</g>
<!-- Node9&#45;&gt;Node10 -->
<g id="edge10" class="edge">
<title>Node9&#45;&gt;Node10</title>
<path fill="none" stroke="#63b8ff" d="M395.65,-111.78C392.46,-111.16 389.26,-110.56 386.19,-110 290.07,-92.56 263.03,-92.24 163.27,-74.13"/>
<polygon fill="#63b8ff" stroke="#63b8ff" points="163.86,-70.68 153.39,-72.32 162.59,-77.56 163.86,-70.68"/>
</g>
<!-- Node11 -->
<g id="node11" class="node">
<title>Node11</title>
<g id="a_node11"><a xlink:title=" ">
<polygon fill="#e0e0e0" stroke="#999999" points="220.69,-74 171.69,-74 171.69,-55 220.69,-55 220.69,-74"/>
<text text-anchor="middle" x="196.19" y="-62" font-family="Helvetica,sans-Serif" font-size="10.00">cctype</text>
</a>
</g>
</g>
<!-- Node9&#45;&gt;Node11 -->
<g id="edge11" class="edge">
<title>Node9&#45;&gt;Node11</title>
<path fill="none" stroke="#63b8ff" d="M395.55,-111.42C358.17,-103.25 294.86,-89.24 230.9,-74.13"/>
<polygon fill="#63b8ff" stroke="#63b8ff" points="231.59,-70.69 221.05,-71.79 229.97,-77.5 231.59,-70.69"/>
</g>
<!-- Node12 -->
<g id="node12" class="node">
<title>Node12</title>
<g id="a_node12"><a xlink:title=" ">
<polygon fill="#e0e0e0" stroke="#999999" points="289.19,-74 239.19,-74 239.19,-55 289.19,-55 289.19,-74"/>
<text text-anchor="middle" x="264.19" y="-62" font-family="Helvetica,sans-Serif" font-size="10.00">cstring</text>
</a>
</g>
</g>
<!-- Node9&#45;&gt;Node12 -->
<g id="edge12" class="edge">
<title>Node9&#45;&gt;Node12</title>
<path fill="none" stroke="#63b8ff" d="M401.84,-109.98C374.02,-100.99 330.01,-86.77 299.27,-76.84"/>
<polygon fill="#63b8ff" stroke="#63b8ff" points="299.98,-73.39 289.39,-73.65 297.83,-80.05 299.98,-73.39"/>
</g>
<!-- Node13 -->
<g id="node13" class="node">
<title>Node13</title>
<g id="a_node13"><a xlink:title=" ">
<polygon fill="#e0e0e0" stroke="#999999" points="353.19,-74 307.19,-74 307.19,-55 353.19,-55 353.19,-74"/>
<text text-anchor="middle" x="330.19" y="-62" font-family="Helvetica,sans-Serif" font-size="10.00">cstdio</text>
</a>
</g>
</g>
<!-- Node9&#45;&gt;Node13 -->
<g id="edge13" class="edge">
<title>Node9&#45;&gt;Node13</title>
<path fill="none" stroke="#63b8ff" d="M412.44,-109.98C396.96,-101.61 373.09,-88.7 355.05,-78.95"/>
<polygon fill="#63b8ff" stroke="#63b8ff" points="356.68,-75.85 346.22,-74.17 353.35,-82.01 356.68,-75.85"/>
</g>
<!-- Node14 -->
<g id="node14" class="node">
<title>Node14</title>
<g id="a_node14"><a xlink:title=" ">
<polygon fill="#e0e0e0" stroke="#999999" points="420.69,-74 371.69,-74 371.69,-55 420.69,-55 420.69,-74"/>
<text text-anchor="middle" x="396.19" y="-62" font-family="Helvetica,sans-Serif" font-size="10.00">cstdlib</text>
</a>
</g>
</g>
<!-- Node9&#45;&gt;Node14 -->
<g id="edge14" class="edge">
<title>Node9&#45;&gt;Node14</title>
<path fill="none" stroke="#63b8ff" d="M422.9,-109.75C418.48,-102.42 412.02,-91.73 406.57,-82.7"/>
<polygon fill="#63b8ff" stroke="#63b8ff" points="409.54,-80.84 401.37,-74.09 403.54,-84.46 409.54,-80.84"/>
</g>
<!-- Node15 -->
<g id="node15" class="node">
<title>Node15</title>
<g id="a_node15"><a xlink:title=" ">
<polygon fill="#e0e0e0" stroke="#999999" points="260.19,-19 210.19,-19 210.19,0 260.19,0 260.19,-19"/>
<text text-anchor="middle" x="235.19" y="-7" font-family="Helvetica,sans-Serif" font-size="10.00">cstdint</text>
</a>
</g>
</g>
<!-- Node9&#45;&gt;Node15 -->
<g id="edge15" class="edge">
<title>Node9&#45;&gt;Node15</title>
<path fill="none" stroke="#63b8ff" d="M395.23,-111.49C392.18,-110.94 389.13,-110.44 386.19,-110 344.01,-103.76 32.88,-105.53 4.19,-74 -1.5,-67.76 -1.19,-61.51 4.19,-55 28.54,-25.5 140.96,-15.35 199.51,-12.02"/>
<polygon fill="#63b8ff" stroke="#63b8ff" points="199.98,-15.5 209.78,-11.48 199.61,-8.51 199.98,-15.5"/>
</g>
<!-- Node16 -->
<g id="node16" class="node">
<title>Node16</title>
<g id="a_node16"><a xlink:title=" ">
<polygon fill="#e0e0e0" stroke="#999999" points="70.69,-74 13.69,-74 13.69,-55 70.69,-55 70.69,-74"/>
<text text-anchor="middle" x="42.19" y="-62" font-family="Helvetica,sans-Serif" font-size="10.00">ostream</text>
</a>
</g>
</g>
<!-- Node9&#45;&gt;Node16 -->
<g id="edge16" class="edge">
<title>Node9&#45;&gt;Node16</title>
<path fill="none" stroke="#63b8ff" d="M395.68,-111.64C392.48,-111.05 389.27,-110.49 386.19,-110 254.13,-88.91 216.91,-96.59 80.74,-73.91"/>
<polygon fill="#63b8ff" stroke="#63b8ff" points="81.2,-70.44 70.76,-72.22 80.03,-77.34 81.2,-70.44"/>
</g>
<!-- Node17 -->
<g id="node17" class="node">
<title>Node17</title>
<g id="a_node17"><a xlink:href="../../db/d7c/utf8_8h.html" target="_top" xlink:title="Various UTF8 related helper functions.">
<polygon fill="white" stroke="#666666" points="483.69,-74 438.69,-74 438.69,-55 483.69,-55 483.69,-74"/>
<text text-anchor="middle" x="461.19" y="-62" font-family="Helvetica,sans-Serif" font-size="10.00">utf8.h</text>
</a>
</g>
</g>
<!-- Node9&#45;&gt;Node17 -->
<g id="edge17" class="edge">
<title>Node9&#45;&gt;Node17</title>
<path fill="none" stroke="#63b8ff" d="M433.64,-109.75C438.2,-102.42 444.85,-91.73 450.48,-82.7"/>
<polygon fill="#63b8ff" stroke="#63b8ff" points="453.52,-84.43 455.84,-74.09 447.58,-80.73 453.52,-84.43"/>
</g>
<!-- Node17&#45;&gt;Node6 -->
<g id="edge19" class="edge">
<title>Node17&#45;&gt;Node6</title>
<path fill="none" stroke="#63b8ff" d="M472.43,-54.98C482.98,-47 498.99,-34.88 511.63,-25.31"/>
<polygon fill="#63b8ff" stroke="#63b8ff" points="513.88,-28 519.73,-19.17 509.65,-22.42 513.88,-28"/>
</g>
<!-- Node17&#45;&gt;Node15 -->
<g id="edge18" class="edge">
<title>Node17&#45;&gt;Node15</title>
<path fill="none" stroke="#63b8ff" d="M438.49,-57.37C435.37,-56.55 432.2,-55.75 429.19,-55 373.76,-41.29 309.06,-26.74 270.15,-18.14"/>
<polygon fill="#63b8ff" stroke="#63b8ff" points="270.88,-14.72 260.36,-15.99 269.38,-21.56 270.88,-14.72"/>
</g>
<!-- Node18&#45;&gt;Node6 -->
<g id="edge24" class="edge">
<title>Node18&#45;&gt;Node6</title>
<path fill="none" stroke="#63b8ff" d="M940.77,-109.86C947.24,-96.35 956.82,-70.19 943.19,-55 917.93,-26.87 656.43,-14.93 563.63,-11.56"/>
<polygon fill="#63b8ff" stroke="#63b8ff" points="563.55,-8.06 553.43,-11.2 563.3,-15.05 563.55,-8.06"/>
</g>
<!-- Node19 -->
<g id="node19" class="node">
<title>Node19</title>
<g id="a_node19"><a xlink:title=" ">
<polygon fill="#e0e0e0" stroke="#999999" points="933.69,-74 888.69,-74 888.69,-55 933.69,-55 933.69,-74"/>
<text text-anchor="middle" x="911.19" y="-62" font-family="Helvetica,sans-Serif" font-size="10.00">utility</text>
</a>
</g>
</g>
<!-- Node18&#45;&gt;Node19 -->
<g id="edge21" class="edge">
<title>Node18&#45;&gt;Node19</title>
<path fill="none" stroke="#63b8ff" d="M932.06,-109.75C928.67,-102.57 923.77,-92.18 919.57,-83.27"/>
<polygon fill="#63b8ff" stroke="#63b8ff" points="922.67,-81.64 915.24,-74.09 916.34,-84.63 922.67,-81.64"/>
</g>
<!-- Node20 -->
<g id="node20" class="node">
<title>Node20</title>
<g id="a_node20"><a xlink:title=" ">
<polygon fill="#e0e0e0" stroke="#999999" points="1043.69,-74 990.69,-74 990.69,-55 1043.69,-55 1043.69,-74"/>
<text text-anchor="middle" x="1017.19" y="-62" font-family="Helvetica,sans-Serif" font-size="10.00">stdlib.h</text>
</a>
</g>
</g>
<!-- Node18&#45;&gt;Node20 -->
<g id="edge22" class="edge">
<title>Node18&#45;&gt;Node20</title>
<path fill="none" stroke="#63b8ff" d="M949.2,-109.98C961.64,-101.84 980.64,-89.41 995.39,-79.76"/>
<polygon fill="#63b8ff" stroke="#63b8ff" points="997.48,-82.57 1003.94,-74.17 993.65,-76.72 997.48,-82.57"/>
</g>
<!-- Node21 -->
<g id="node21" class="node">
<title>Node21</title>
<g id="a_node21"><a xlink:title=" ">
<polygon fill="#e0e0e0" stroke="#999999" points="1114.69,-74 1061.69,-74 1061.69,-55 1114.69,-55 1114.69,-74"/>
<text text-anchor="middle" x="1088.19" y="-62" font-family="Helvetica,sans-Serif" font-size="10.00">string.h</text>
</a>
</g>
</g>
<!-- Node18&#45;&gt;Node21 -->
<g id="edge23" class="edge">
<title>Node18&#45;&gt;Node21</title>
<path fill="none" stroke="#63b8ff" d="M960.61,-109.98C985.91,-101.16 1025.64,-87.31 1054.04,-77.41"/>
<polygon fill="#63b8ff" stroke="#63b8ff" points="1055.28,-80.68 1063.57,-74.08 1052.98,-74.07 1055.28,-80.68"/>
</g>
<!-- Node22&#45;&gt;Node8 -->
<g id="edge29" class="edge">
<title>Node22&#45;&gt;Node8</title>
<path fill="none" stroke="#63b8ff" d="M735.23,-109.98C756.59,-101.34 789.89,-87.87 814.25,-78.02"/>
<polygon fill="#63b8ff" stroke="#63b8ff" points="815.8,-81.17 823.76,-74.17 813.17,-74.68 815.8,-81.17"/>
</g>
<!-- Node22&#45;&gt;Node19 -->
<g id="edge27" class="edge">
<title>Node22&#45;&gt;Node19</title>
<path fill="none" stroke="#63b8ff" d="M746.33,-109.94C777.76,-101.56 827.23,-88.33 878.56,-74.43"/>
<polygon fill="#63b8ff" stroke="#63b8ff" points="879.77,-77.73 888.5,-71.74 877.94,-70.97 879.77,-77.73"/>
</g>
<!-- Node23 -->
<g id="node23" class="node">
<title>Node23</title>
<g id="a_node23"><a xlink:title=" ">
<polygon fill="#e0e0e0" stroke="#999999" points="718.69,-74 665.69,-74 665.69,-55 718.69,-55 718.69,-74"/>
<text text-anchor="middle" x="692.19" y="-62" font-family="Helvetica,sans-Serif" font-size="10.00">cstddef</text>
</a>
</g>
</g>
<!-- Node22&#45;&gt;Node23 -->
<g id="edge26" class="edge">
<title>Node22&#45;&gt;Node23</title>
<path fill="none" stroke="#63b8ff" d="M710.55,-109.75C707.61,-102.65 703.35,-92.4 699.68,-83.56"/>
<polygon fill="#63b8ff" stroke="#63b8ff" points="702.82,-81.98 695.75,-74.09 696.35,-84.67 702.82,-81.98"/>
</g>
<!-- Node24 -->
<g id="node24" class="node">
<title>Node24</title>
<g id="a_node24"><a xlink:title=" ">
<polygon fill="#e0e0e0" stroke="#999999" points="801.69,-74 736.69,-74 736.69,-55 801.69,-55 801.69,-74"/>
<text text-anchor="middle" x="769.19" y="-62" font-family="Helvetica,sans-Serif" font-size="10.00">functional</text>
</a>
</g>
</g>
<!-- Node22&#45;&gt;Node24 -->
<g id="edge28" class="edge">
<title>Node22&#45;&gt;Node24</title>
<path fill="none" stroke="#63b8ff" d="M723.27,-109.75C731.28,-102.03 743.14,-90.6 752.81,-81.28"/>
<polygon fill="#63b8ff" stroke="#63b8ff" points="755.5,-83.55 760.27,-74.09 750.64,-78.51 755.5,-83.55"/>
</g>
<!-- Node25 -->
<g id="node25" class="node">
<title>Node25</title>
<g id="a_node25"><a xlink:title=" ">
<polygon fill="#e0e0e0" stroke="#999999" points="647.69,-74 578.69,-74 578.69,-55 647.69,-55 647.69,-74"/>
<text text-anchor="middle" x="613.19" y="-62" font-family="Helvetica,sans-Serif" font-size="10.00">type_traits</text>
</a>
</g>
</g>
<!-- Node22&#45;&gt;Node25 -->
<g id="edge30" class="edge">
<title>Node22&#45;&gt;Node25</title>
<path fill="none" stroke="#63b8ff" d="M697.96,-109.98C682,-101.61 657.41,-88.7 638.81,-78.95"/>
<polygon fill="#63b8ff" stroke="#63b8ff" points="640.19,-75.72 629.71,-74.17 636.94,-81.92 640.19,-75.72"/>
</g>
</g>
</svg>
        <g id="navigator" transform="translate(0 0)" fill="#404254">
                <rect fill="#f2f5e9" fill-opacity="0.5" stroke="#606060" stroke-width=".5" x="0" y="0" width="60" height="60"/>
                <use id="zoomplus" xlink:href="#zoomPlus" x="17" y="9" onmousedown="handleZoom(evt,'in')"/>
                <use id="zoomminus" xlink:href="#zoomMin" x="42" y="9" onmousedown="handleZoom(evt,'out')"/>
                <use id="reset" xlink:href="#resetDef" x="30" y="36" onmousedown="handleReset()"/>
                <g id="arrowUp" xlink:href="#dirArrow" transform="translate(30 24)" onmousedown="handlePan(0,-1)">
                  <use xlink:href="#rim" fill="#404040">
                        <set attributeName="fill" to="#808080" begin="arrowUp.mouseover" end="arrowUp.mouseout"/>
                  </use>
                  <path fill="none" stroke="white" stroke-width="1.5" d="M0,-3.0v7 M-2.5,-0.5L0,-3.0L2.5,-0.5"/>
                </g>
                <g id="arrowRight" xlink:href="#dirArrow" transform="rotate(90) translate(36 -43)" onmousedown="handlePan(1,0)">
                  <use xlink:href="#rim" fill="#404040">
                        <set attributeName="fill" to="#808080" begin="arrowRight.mouseover" end="arrowRight.mouseout"/>
                  </use>
                  <path fill="none" stroke="white" stroke-width="1.5" d="M0,-3.0v7 M-2.5,-0.5L0,-3.0L2.5,-0.5"/>
                </g>
                <g id="arrowDown" xlink:href="#dirArrow" transform="rotate(180) translate(-30 -48)" onmousedown="handlePan(0,1)">
                  <use xlink:href="#rim" fill="#404040">
                        <set attributeName="fill" to="#808080" begin="arrowDown.mouseover" end="arrowDown.mouseout"/>
                  </use>
                  <path fill="none" stroke="white" stroke-width="1.5" d="M0,-3.0v7 M-2.5,-0.5L0,-3.0L2.5,-0.5"/>
                </g>
                <g id="arrowLeft" xlink:href="#dirArrow" transform="rotate(270) translate(-36 17)" onmousedown="handlePan(-1,0)">
                  <use xlink:href="#rim" fill="#404040">
                        <set attributeName="fill" to="#808080" begin="arrowLeft.mouseover" end="arrowLeft.mouseout"/>
                  </use>
                  <path fill="none" stroke="white" stroke-width="1.5" d="M0,-3.0v7 M-2.5,-0.5L0,-3.0L2.5,-0.5"/>
                </g>
        </g>
        <svg viewBox="0 0 15 15" width="100%" height="30px" preserveAspectRatio="xMaxYMin meet">
         <g id="arrow_out" transform="scale(0.3 0.3)">
          <a xlink:href="searchindex_8h__incl_org.svg" target="_base">
           <rect id="button" ry="5" rx="5" y="6" x="6" height="38" width="38"
                fill="#f2f5e9" fill-opacity="0.5" stroke="#606060" stroke-width="1.0"/>
           <path id="arrow"
             d="M 11.500037,31.436501 C 11.940474,20.09759 22.043105,11.32322 32.158766,21.979434 L 37.068811,17.246167 C 37.068811,17.246167 37.088388,32 37.088388,32 L 22.160133,31.978069 C 22.160133,31.978069 26.997745,27.140456 26.997745,27.140456 C 18.528582,18.264221 13.291696,25.230495 11.500037,31.436501 z"
             style="fill:#404040;"/>
          </a>
         </g>
        </svg>
</svg>
