<?xml version="1.0" encoding="UTF-8" standalone="no"?>
<!DOCTYPE svg PUBLIC "-//W3C//DTD SVG 1.1//EN"
 "http://www.w3.org/Graphics/SVG/1.1/DTD/svg11.dtd">
<!-- Generated by graphviz version 2.40.1 (20161225.0304)
 -->
<!-- Title: Graphical Class Hierarchy Pages: 1 -->
<svg width="247pt" height="64pt"
 viewBox="0.00 0.00 247.00 64.00" xmlns="http://www.w3.org/2000/svg" xmlns:xlink="http://www.w3.org/1999/xlink">
<g id="graph0" class="graph" transform="scale(1 1) rotate(0) translate(4 60)">
<title>Graphical Class Hierarchy</title>
<!-- Node0 -->
<g id="node1" class="node">
<title>Node0</title>
<g id="a_node1"><a xlink:href="df/d80/class_template_spaceless_intf.html" target="_top" xlink:title="Interface used to remove redundant spaces inside a spaceless block.">
<polygon fill="#ffffff" stroke="#666666" points="117,-37 0,-37 0,-18 117,-18 117,-37"/>
<text text-anchor="middle" x="58.5" y="-25" font-family="Helvetica,sans-Serif" font-size="10.00" fill="#000000">TemplateSpacelessIntf</text>
</a>
</g>
</g>
<!-- Node1 -->
<g id="node2" class="node">
<title>Node1</title>
<g id="a_node2"><a xlink:href="d0/dc2/class_html_spaceless.html" target="_top" xlink:title=" ">
<polygon fill="#ffffff" stroke="#666666" points="237.5,-56 154.5,-56 154.5,-37 237.5,-37 237.5,-56"/>
<text text-anchor="middle" x="196" y="-44" font-family="Helvetica,sans-Serif" font-size="10.00" fill="#000000">HtmlSpaceless</text>
</a>
</g>
</g>
<!-- Node0&#45;&gt;Node1 -->
<g id="edge1" class="edge">
<title>Node0&#45;&gt;Node1</title>
<path fill="none" stroke="#63b8ff" d="M127.1626,-36.9879C136.363,-38.2592 145.5654,-39.5309 154.1109,-40.7117"/>
<polygon fill="#63b8ff" stroke="#63b8ff" points="127.5962,-33.5147 117.2112,-35.6128 126.638,-40.4488 127.5962,-33.5147"/>
</g>
<!-- Node2 -->
<g id="node3" class="node">
<title>Node2</title>
<g id="a_node3"><a xlink:href="dc/dc0/class_latex_spaceless.html" target="_top" xlink:title=" ">
<polygon fill="#ffffff" stroke="#666666" points="239,-19 153,-19 153,0 239,0 239,-19"/>
<text text-anchor="middle" x="196" y="-7" font-family="Helvetica,sans-Serif" font-size="10.00" fill="#000000">LatexSpaceless</text>
</a>
</g>
</g>
<!-- Node0&#45;&gt;Node2 -->
<g id="edge2" class="edge">
<title>Node0&#45;&gt;Node2</title>
<path fill="none" stroke="#63b8ff" d="M127.3768,-18.4834C136.0636,-17.3462 144.7477,-16.2094 152.8743,-15.1455"/>
<polygon fill="#63b8ff" stroke="#63b8ff" points="126.6723,-15.0457 117.2112,-19.8142 127.5809,-21.9865 126.6723,-15.0457"/>
</g>
</g>
</svg>
