<?xml version="1.0" encoding="UTF-8" standalone="no"?>
<!DOCTYPE svg PUBLIC "-//W3C//DTD SVG 1.1//EN"
 "http://www.w3.org/Graphics/SVG/1.1/DTD/svg11.dtd">
<!-- Generated by graphviz version 2.40.1 (20161225.0304)
 -->
<!-- Title: Graphical Class Hierarchy Pages: 1 -->
<svg width="327pt" height="76pt"
 viewBox="0.00 0.00 327.00 75.50" xmlns="http://www.w3.org/2000/svg" xmlns:xlink="http://www.w3.org/1999/xlink">
<g id="graph0" class="graph" transform="scale(1 1) rotate(0) translate(4 71.5)">
<title>Graphical Class Hierarchy</title>
<!-- Node0 -->
<g id="node1" class="node">
<title>Node0</title>
<g id="a_node1"><a xlink:href="d8/d23/class_template_list_intf_1_1_const_iterator.html" target="_top" xlink:title="Abstract interface for a iterator of a list.">
<polygon fill="#ffffff" stroke="#666666" points="150,-45.5 0,-45.5 0,-26.5 150,-26.5 150,-45.5"/>
<text text-anchor="middle" x="75" y="-33.5" font-family="Helvetica,sans-Serif" font-size="10.00" fill="#000000">TemplateListIntf::ConstIterator</text>
</a>
</g>
</g>
<!-- Node1 -->
<g id="node2" class="node">
<title>Node1</title>
<g id="a_node2"><a xlink:href="df/d6e/class_generic_const_iterator.html" target="_top" xlink:title="Template List iterator support.">
<polygon fill="#ffffff" stroke="#666666" points="306,-67.5 199,-67.5 199,-48.5 306,-48.5 306,-67.5"/>
<text text-anchor="middle" x="252.5" y="-55.5" font-family="Helvetica,sans-Serif" font-size="10.00" fill="#000000">GenericConstIterator</text>
</a>
</g>
</g>
<!-- Node0&#45;&gt;Node1 -->
<g id="edge1" class="edge">
<title>Node0&#45;&gt;Node1</title>
<path fill="none" stroke="#63b8ff" d="M160.0532,-46.5418C173.2281,-48.1747 186.5118,-49.8212 198.7403,-51.3368"/>
<polygon fill="#63b8ff" stroke="#63b8ff" points="160.3733,-43.0548 150.0187,-45.2981 159.5122,-50.0016 160.3733,-43.0548"/>
</g>
<!-- Node2 -->
<g id="node3" class="node">
<title>Node2</title>
<g id="a_node3"><a xlink:href="d5/d7c/class_template_list_generic_const_iterator.html" target="_top" xlink:title=" ">
<polygon fill="#ffffff" stroke="#666666" points="319,-30 186,-30 186,0 319,0 319,-30"/>
<text text-anchor="start" x="194" y="-18" font-family="Helvetica,sans-Serif" font-size="10.00" fill="#000000">TemplateListGenericConst</text>
<text text-anchor="middle" x="252.5" y="-7" font-family="Helvetica,sans-Serif" font-size="10.00" fill="#000000">Iterator&lt; List &gt;</text>
</a>
</g>
</g>
<!-- Node0&#45;&gt;Node2 -->
<g id="edge2" class="edge">
<title>Node0&#45;&gt;Node2</title>
<path fill="none" stroke="#63b8ff" d="M160.1383,-25.9273C168.7934,-24.9033 177.4945,-23.8739 185.9114,-22.8781"/>
<polygon fill="#63b8ff" stroke="#63b8ff" points="159.5382,-22.4738 150.0187,-27.1245 160.3607,-29.4253 159.5382,-22.4738"/>
</g>
</g>
</svg>
