<?xml version="1.0" encoding="UTF-8" standalone="no"?>
<!DOCTYPE svg PUBLIC "-//W3C//DTD SVG 1.1//EN"
 "http://www.w3.org/Graphics/SVG/1.1/DTD/svg11.dtd">
<!-- Generated by graphviz version 2.40.1 (20161225.0304)
 -->
<!-- Title: Graphical Class Hierarchy Pages: 1 -->
<svg width="472pt" height="1147pt"
 viewBox="0.00 0.00 472.00 1147.00" xmlns="http://www.w3.org/2000/svg" xmlns:xlink="http://www.w3.org/1999/xlink">
<g id="graph0" class="graph" transform="scale(1 1) rotate(0) translate(4 1143)">
<title>Graphical Class Hierarchy</title>
<!-- Node0 -->
<g id="node1" class="node">
<title>Node0</title>
<g id="a_node1"><a xlink:href="d5/de9/class_template.html" target="_top" xlink:title="Abstract interface for a template.">
<polygon fill="#ffffff" stroke="#666666" points="68.5,-1139 11.5,-1139 11.5,-1120 68.5,-1120 68.5,-1139"/>
<text text-anchor="middle" x="40" y="-1127" font-family="Helvetica,sans-Serif" font-size="10.00" fill="#000000">Template</text>
</a>
</g>
</g>
<!-- Node1 -->
<g id="node2" class="node">
<title>Node1</title>
<g id="a_node2"><a xlink:href="d6/d07/class_template_impl.html" target="_top" xlink:title="Internal class representing the implementation of a template.">
<polygon fill="#ffffff" stroke="#666666" points="236.5,-1139 160.5,-1139 160.5,-1120 236.5,-1120 236.5,-1139"/>
<text text-anchor="middle" x="198.5" y="-1127" font-family="Helvetica,sans-Serif" font-size="10.00" fill="#000000">TemplateImpl</text>
</a>
</g>
</g>
<!-- Node0&#45;&gt;Node1 -->
<g id="edge1" class="edge">
<title>Node0&#45;&gt;Node1</title>
<path fill="none" stroke="#63b8ff" d="M78.8654,-1129.5C103.709,-1129.5 135.7784,-1129.5 160.4597,-1129.5"/>
<polygon fill="#63b8ff" stroke="#63b8ff" points="78.7032,-1126.0001 68.7032,-1129.5 78.7031,-1133.0001 78.7032,-1126.0001"/>
</g>
<!-- Node2 -->
<g id="node3" class="node">
<title>Node2</title>
<g id="a_node3"><a xlink:href="d6/d53/class_template_node.html" target="_top" xlink:title="Base class of all nodes in a template&#39;s AST.">
<polygon fill="#ffffff" stroke="#666666" points="80,-568 0,-568 0,-549 80,-549 80,-568"/>
<text text-anchor="middle" x="40" y="-556" font-family="Helvetica,sans-Serif" font-size="10.00" fill="#000000">TemplateNode</text>
</a>
</g>
</g>
<!-- Node2&#45;&gt;Node1 -->
<g id="edge44" class="edge">
<title>Node2&#45;&gt;Node1</title>
<path fill="none" stroke="#63b8ff" d="M41.404,-578.3114C48.2374,-672.2848 79.187,-1070.2341 116,-1110.5 127.1075,-1122.6494 144.287,-1127.8048 160.0994,-1129.7604"/>
<polygon fill="#63b8ff" stroke="#63b8ff" points="44.8843,-577.9105 40.6762,-568.1873 37.9024,-578.4125 44.8843,-577.9105"/>
</g>
<!-- Node3 -->
<g id="node4" class="node">
<title>Node3</title>
<g id="a_node4"><a xlink:href="d8/d78/class_template_node_creator.html" target="_top" xlink:title=" ">
<polygon fill="#ffffff" stroke="#666666" points="260,-1101.5 137,-1101.5 137,-1071.5 260,-1071.5 260,-1101.5"/>
<text text-anchor="start" x="145" y="-1089.5" font-family="Helvetica,sans-Serif" font-size="10.00" fill="#000000">TemplateNodeCreator</text>
<text text-anchor="middle" x="198.5" y="-1078.5" font-family="Helvetica,sans-Serif" font-size="10.00" fill="#000000">&lt; TemplateNodeBlock &gt;</text>
</a>
</g>
</g>
<!-- Node2&#45;&gt;Node3 -->
<g id="edge2" class="edge">
<title>Node2&#45;&gt;Node3</title>
<path fill="none" stroke="#63b8ff" d="M40.2334,-578.2888C41.623,-662.2859 51.1752,-988.3926 116,-1062.5 121.598,-1068.8996 128.7931,-1073.6392 136.5967,-1077.1408"/>
<polygon fill="#63b8ff" stroke="#63b8ff" points="43.7303,-578.0433 40.0865,-568.0947 36.731,-578.1441 43.7303,-578.0433"/>
</g>
<!-- Node5 -->
<g id="node6" class="node">
<title>Node5</title>
<g id="a_node6"><a xlink:href="d8/d78/class_template_node_creator.html" target="_top" xlink:title=" ">
<polygon fill="#ffffff" stroke="#666666" points="281,-1053.5 116,-1053.5 116,-1023.5 281,-1023.5 281,-1053.5"/>
<text text-anchor="start" x="124" y="-1041.5" font-family="Helvetica,sans-Serif" font-size="10.00" fill="#000000">TemplateNodeCreator</text>
<text text-anchor="middle" x="198.5" y="-1030.5" font-family="Helvetica,sans-Serif" font-size="10.00" fill="#000000">&lt; TemplateNodeCloseSubIndex &gt;</text>
</a>
</g>
</g>
<!-- Node2&#45;&gt;Node5 -->
<g id="edge4" class="edge">
<title>Node2&#45;&gt;Node5</title>
<path fill="none" stroke="#63b8ff" d="M40.5831,-578.3986C43.2979,-657.4631 57.1885,-948.308 116,-1014.5 119.0714,-1017.9568 122.6087,-1020.9284 126.454,-1023.4815"/>
<polygon fill="#63b8ff" stroke="#63b8ff" points="44.0787,-578.2045 40.2596,-568.322 37.0823,-578.4292 44.0787,-578.2045"/>
</g>
<!-- Node7 -->
<g id="node8" class="node">
<title>Node7</title>
<g id="a_node8"><a xlink:href="d8/d78/class_template_node_creator.html" target="_top" xlink:title=" ">
<polygon fill="#ffffff" stroke="#666666" points="262.5,-1005.5 134.5,-1005.5 134.5,-975.5 262.5,-975.5 262.5,-1005.5"/>
<text text-anchor="start" x="142.5" y="-993.5" font-family="Helvetica,sans-Serif" font-size="10.00" fill="#000000">TemplateNodeCreator</text>
<text text-anchor="middle" x="198.5" y="-982.5" font-family="Helvetica,sans-Serif" font-size="10.00" fill="#000000">&lt; TemplateNodeCreate &gt;</text>
</a>
</g>
</g>
<!-- Node2&#45;&gt;Node7 -->
<g id="edge6" class="edge">
<title>Node2&#45;&gt;Node7</title>
<path fill="none" stroke="#63b8ff" d="M40.9964,-578.1459C45.1056,-651.4919 63.088,-908.0761 116,-966.5 121.1068,-972.1387 127.4531,-976.4833 134.3423,-979.8255"/>
<polygon fill="#63b8ff" stroke="#63b8ff" points="44.4832,-577.8043 40.4528,-568.006 37.4932,-578.1791 44.4832,-577.8043"/>
</g>
<!-- Node9 -->
<g id="node10" class="node">
<title>Node9</title>
<g id="a_node10"><a xlink:href="d8/d78/class_template_node_creator.html" target="_top" xlink:title=" ">
<polygon fill="#ffffff" stroke="#666666" points="260.5,-957.5 136.5,-957.5 136.5,-927.5 260.5,-927.5 260.5,-957.5"/>
<text text-anchor="start" x="144.5" y="-945.5" font-family="Helvetica,sans-Serif" font-size="10.00" fill="#000000">TemplateNodeCreator</text>
<text text-anchor="middle" x="198.5" y="-934.5" font-family="Helvetica,sans-Serif" font-size="10.00" fill="#000000">&lt; TemplateNodeCycle &gt;</text>
</a>
</g>
</g>
<!-- Node2&#45;&gt;Node9 -->
<g id="edge8" class="edge">
<title>Node2&#45;&gt;Node9</title>
<path fill="none" stroke="#63b8ff" d="M41.5499,-578.4125C47.232,-646.3975 69.0816,-867.9218 116,-918.5 121.5795,-924.5148 128.5696,-929.0528 136.1067,-932.4711"/>
<polygon fill="#63b8ff" stroke="#63b8ff" points="45.0202,-577.9027 40.7244,-568.2179 38.043,-578.4678 45.0202,-577.9027"/>
</g>
<!-- Node11 -->
<g id="node12" class="node">
<title>Node11</title>
<g id="a_node12"><a xlink:href="d8/d78/class_template_node_creator.html" target="_top" xlink:title=" ">
<polygon fill="#ffffff" stroke="#666666" points="268,-909.5 129,-909.5 129,-879.5 268,-879.5 268,-909.5"/>
<text text-anchor="start" x="137" y="-897.5" font-family="Helvetica,sans-Serif" font-size="10.00" fill="#000000">TemplateNodeCreator</text>
<text text-anchor="middle" x="198.5" y="-886.5" font-family="Helvetica,sans-Serif" font-size="10.00" fill="#000000">&lt; TemplateNodeEncoding &gt;</text>
</a>
</g>
</g>
<!-- Node2&#45;&gt;Node11 -->
<g id="edge10" class="edge">
<title>Node2&#45;&gt;Node11</title>
<path fill="none" stroke="#63b8ff" d="M42.2145,-578.1212C49.5435,-639.6955 74.9091,-827.5533 116,-870.5 119.7124,-874.3801 124.0122,-877.6435 128.6607,-880.3869"/>
<polygon fill="#63b8ff" stroke="#63b8ff" points="45.6876,-577.6859 41.0562,-568.1569 38.7344,-578.4942 45.6876,-577.6859"/>
</g>
<!-- Node13 -->
<g id="node14" class="node">
<title>Node13</title>
<g id="a_node14"><a xlink:href="d8/d78/class_template_node_creator.html" target="_top" xlink:title=" ">
<polygon fill="#ffffff" stroke="#666666" points="263,-861.5 134,-861.5 134,-831.5 263,-831.5 263,-861.5"/>
<text text-anchor="start" x="142" y="-849.5" font-family="Helvetica,sans-Serif" font-size="10.00" fill="#000000">TemplateNodeCreator</text>
<text text-anchor="middle" x="198.5" y="-838.5" font-family="Helvetica,sans-Serif" font-size="10.00" fill="#000000">&lt; TemplateNodeExtend &gt;</text>
</a>
</g>
</g>
<!-- Node2&#45;&gt;Node13 -->
<g id="edge12" class="edge">
<title>Node2&#45;&gt;Node13</title>
<path fill="none" stroke="#63b8ff" d="M43.1692,-578.2605C52.3879,-633.3963 80.7853,-787.1867 116,-822.5 121.0558,-827.57 127.1161,-831.5824 133.6264,-834.7557"/>
<polygon fill="#63b8ff" stroke="#63b8ff" points="46.5703,-577.3722 41.4975,-568.0707 39.6626,-578.5054 46.5703,-577.3722"/>
</g>
<!-- Node15 -->
<g id="node16" class="node">
<title>Node15</title>
<g id="a_node16"><a xlink:href="d8/d78/class_template_node_creator.html" target="_top" xlink:title=" ">
<polygon fill="#ffffff" stroke="#666666" points="255,-813.5 142,-813.5 142,-783.5 255,-783.5 255,-813.5"/>
<text text-anchor="start" x="150" y="-801.5" font-family="Helvetica,sans-Serif" font-size="10.00" fill="#000000">TemplateNodeCreator</text>
<text text-anchor="middle" x="198.5" y="-790.5" font-family="Helvetica,sans-Serif" font-size="10.00" fill="#000000">&lt; TemplateNodeFor &gt;</text>
</a>
</g>
</g>
<!-- Node2&#45;&gt;Node15 -->
<g id="edge14" class="edge">
<title>Node2&#45;&gt;Node15</title>
<path fill="none" stroke="#63b8ff" d="M41.1389,-578.4977C44.6499,-620.9151 58.8673,-720.4386 116,-774.5 123.2594,-781.3691 132.3699,-786.2866 141.8654,-789.8035"/>
<polygon fill="#63b8ff" stroke="#63b8ff" points="44.6179,-578.0767 40.4184,-568.3498 37.6355,-578.5726 44.6179,-578.0767"/>
</g>
<!-- Node17 -->
<g id="node18" class="node">
<title>Node17</title>
<g id="a_node18"><a xlink:href="d8/d78/class_template_node_creator.html" target="_top" xlink:title=" ">
<polygon fill="#ffffff" stroke="#666666" points="255,-765.5 142,-765.5 142,-735.5 255,-735.5 255,-765.5"/>
<text text-anchor="start" x="150" y="-753.5" font-family="Helvetica,sans-Serif" font-size="10.00" fill="#000000">TemplateNodeCreator</text>
<text text-anchor="middle" x="198.5" y="-742.5" font-family="Helvetica,sans-Serif" font-size="10.00" fill="#000000">&lt; TemplateNodeIf &gt;</text>
</a>
</g>
</g>
<!-- Node2&#45;&gt;Node17 -->
<g id="edge16" class="edge">
<title>Node2&#45;&gt;Node17</title>
<path fill="none" stroke="#63b8ff" d="M43.3443,-578.0763C50.3637,-613.1038 69.9585,-686.562 116,-726.5 123.4369,-732.9511 132.5227,-737.671 141.9129,-741.1237"/>
<polygon fill="#63b8ff" stroke="#63b8ff" points="46.7661,-577.3328 41.4896,-568.1453 39.885,-578.618 46.7661,-577.3328"/>
</g>
<!-- Node19 -->
<g id="node20" class="node">
<title>Node19</title>
<g id="a_node20"><a xlink:href="d8/d78/class_template_node_creator.html" target="_top" xlink:title=" ">
<polygon fill="#ffffff" stroke="#666666" points="263.5,-717.5 133.5,-717.5 133.5,-687.5 263.5,-687.5 263.5,-717.5"/>
<text text-anchor="start" x="141.5" y="-705.5" font-family="Helvetica,sans-Serif" font-size="10.00" fill="#000000">TemplateNodeCreator</text>
<text text-anchor="middle" x="198.5" y="-694.5" font-family="Helvetica,sans-Serif" font-size="10.00" fill="#000000">&lt; TemplateNodeInclude &gt;</text>
</a>
</g>
</g>
<!-- Node2&#45;&gt;Node19 -->
<g id="edge18" class="edge">
<title>Node2&#45;&gt;Node19</title>
<path fill="none" stroke="#63b8ff" d="M47.036,-577.6386C57.792,-604.235 80.8499,-652.0736 116,-678.5 121.2461,-682.4441 127.126,-685.7414 133.2668,-688.4977"/>
<polygon fill="#63b8ff" stroke="#63b8ff" points="50.2818,-576.3282 43.4034,-568.2698 43.7552,-578.8588 50.2818,-576.3282"/>
</g>
<!-- Node21 -->
<g id="node22" class="node">
<title>Node21</title>
<g id="a_node22"><a xlink:href="d8/d78/class_template_node_creator.html" target="_top" xlink:title=" ">
<polygon fill="#ffffff" stroke="#666666" points="271.5,-669.5 125.5,-669.5 125.5,-639.5 271.5,-639.5 271.5,-669.5"/>
<text text-anchor="start" x="133.5" y="-657.5" font-family="Helvetica,sans-Serif" font-size="10.00" fill="#000000">TemplateNodeCreator</text>
<text text-anchor="middle" x="198.5" y="-646.5" font-family="Helvetica,sans-Serif" font-size="10.00" fill="#000000">&lt; TemplateNodeIndexEntry &gt;</text>
</a>
</g>
</g>
<!-- Node2&#45;&gt;Node21 -->
<g id="edge20" class="edge">
<title>Node2&#45;&gt;Node21</title>
<path fill="none" stroke="#63b8ff" d="M54.2855,-576.2031C68.3619,-592.5344 91.2962,-616.3314 116,-630.5 121.9522,-633.9138 128.429,-636.8757 135.0498,-639.4378"/>
<polygon fill="#63b8ff" stroke="#63b8ff" points="56.8772,-573.8467 47.7694,-568.434 51.5139,-578.345 56.8772,-573.8467"/>
</g>
<!-- Node23 -->
<g id="node24" class="node">
<title>Node23</title>
<g id="a_node24"><a xlink:href="d8/d78/class_template_node_creator.html" target="_top" xlink:title=" ">
<polygon fill="#ffffff" stroke="#666666" points="265.5,-621.5 131.5,-621.5 131.5,-591.5 265.5,-591.5 265.5,-621.5"/>
<text text-anchor="start" x="139.5" y="-609.5" font-family="Helvetica,sans-Serif" font-size="10.00" fill="#000000">TemplateNodeCreator</text>
<text text-anchor="middle" x="198.5" y="-598.5" font-family="Helvetica,sans-Serif" font-size="10.00" fill="#000000">&lt; TemplateNodeMarkers &gt;</text>
</a>
</g>
</g>
<!-- Node2&#45;&gt;Node23 -->
<g id="edge22" class="edge">
<title>Node2&#45;&gt;Node23</title>
<path fill="none" stroke="#63b8ff" d="M79.1477,-571.05C90.9723,-574.79 104.0003,-578.8604 116,-582.5 125.7067,-585.4441 136.0776,-588.5175 146.075,-591.4438"/>
<polygon fill="#63b8ff" stroke="#63b8ff" points="80.1375,-567.6921 69.5472,-568.0027 78.0197,-574.3641 80.1375,-567.6921"/>
</g>
<!-- Node25 -->
<g id="node26" class="node">
<title>Node25</title>
<g id="a_node26"><a xlink:href="d8/d78/class_template_node_creator.html" target="_top" xlink:title=" ">
<polygon fill="#ffffff" stroke="#666666" points="257,-573.5 140,-573.5 140,-543.5 257,-543.5 257,-573.5"/>
<text text-anchor="start" x="148" y="-561.5" font-family="Helvetica,sans-Serif" font-size="10.00" fill="#000000">TemplateNodeCreator</text>
<text text-anchor="middle" x="198.5" y="-550.5" font-family="Helvetica,sans-Serif" font-size="10.00" fill="#000000">&lt; TemplateNodeMsg &gt;</text>
</a>
</g>
</g>
<!-- Node2&#45;&gt;Node25 -->
<g id="edge24" class="edge">
<title>Node2&#45;&gt;Node25</title>
<path fill="none" stroke="#63b8ff" d="M90.4615,-558.5C106.1946,-558.5 123.6794,-558.5 139.9193,-558.5"/>
<polygon fill="#63b8ff" stroke="#63b8ff" points="90.4064,-555.0001 80.4063,-558.5 90.4063,-562.0001 90.4064,-555.0001"/>
</g>
<!-- Node27 -->
<g id="node28" class="node">
<title>Node27</title>
<g id="a_node28"><a xlink:href="d8/d78/class_template_node_creator.html" target="_top" xlink:title=" ">
<polygon fill="#ffffff" stroke="#666666" points="280,-525.5 117,-525.5 117,-495.5 280,-495.5 280,-525.5"/>
<text text-anchor="start" x="125" y="-513.5" font-family="Helvetica,sans-Serif" font-size="10.00" fill="#000000">TemplateNodeCreator</text>
<text text-anchor="middle" x="198.5" y="-502.5" font-family="Helvetica,sans-Serif" font-size="10.00" fill="#000000">&lt; TemplateNodeOpenSubIndex &gt;</text>
</a>
</g>
</g>
<!-- Node2&#45;&gt;Node27 -->
<g id="edge26" class="edge">
<title>Node2&#45;&gt;Node27</title>
<path fill="none" stroke="#63b8ff" d="M79.1477,-545.95C90.9723,-542.21 104.0003,-538.1396 116,-534.5 125.7067,-531.5559 136.0776,-528.4825 146.075,-525.5562"/>
<polygon fill="#63b8ff" stroke="#63b8ff" points="78.0197,-542.6359 69.5472,-548.9973 80.1375,-549.3079 78.0197,-542.6359"/>
</g>
<!-- Node29 -->
<g id="node30" class="node">
<title>Node29</title>
<g id="a_node30"><a xlink:href="d8/d78/class_template_node_creator.html" target="_top" xlink:title=" ">
<polygon fill="#ffffff" stroke="#666666" points="262,-477.5 135,-477.5 135,-447.5 262,-447.5 262,-477.5"/>
<text text-anchor="start" x="143" y="-465.5" font-family="Helvetica,sans-Serif" font-size="10.00" fill="#000000">TemplateNodeCreator</text>
<text text-anchor="middle" x="198.5" y="-454.5" font-family="Helvetica,sans-Serif" font-size="10.00" fill="#000000">&lt; TemplateNodeRange &gt;</text>
</a>
</g>
</g>
<!-- Node2&#45;&gt;Node29 -->
<g id="edge28" class="edge">
<title>Node2&#45;&gt;Node29</title>
<path fill="none" stroke="#63b8ff" d="M54.2855,-540.7969C68.3619,-524.4656 91.2962,-500.6686 116,-486.5 121.9522,-483.0862 128.429,-480.1243 135.0498,-477.5622"/>
<polygon fill="#63b8ff" stroke="#63b8ff" points="51.5139,-538.655 47.7694,-548.566 56.8772,-543.1533 51.5139,-538.655"/>
</g>
<!-- Node31 -->
<g id="node32" class="node">
<title>Node31</title>
<g id="a_node32"><a xlink:href="d8/d78/class_template_node_creator.html" target="_top" xlink:title=" ">
<polygon fill="#ffffff" stroke="#666666" points="263.5,-429.5 133.5,-429.5 133.5,-399.5 263.5,-399.5 263.5,-429.5"/>
<text text-anchor="start" x="141.5" y="-417.5" font-family="Helvetica,sans-Serif" font-size="10.00" fill="#000000">TemplateNodeCreator</text>
<text text-anchor="middle" x="198.5" y="-406.5" font-family="Helvetica,sans-Serif" font-size="10.00" fill="#000000">&lt; TemplateNodeRepeat &gt;</text>
</a>
</g>
</g>
<!-- Node2&#45;&gt;Node31 -->
<g id="edge30" class="edge">
<title>Node2&#45;&gt;Node31</title>
<path fill="none" stroke="#63b8ff" d="M47.036,-539.3614C57.792,-512.765 80.8499,-464.9264 116,-438.5 121.2461,-434.5559 127.126,-431.2586 133.2668,-428.5023"/>
<polygon fill="#63b8ff" stroke="#63b8ff" points="43.7552,-538.1412 43.4034,-548.7302 50.2818,-540.6718 43.7552,-538.1412"/>
</g>
<!-- Node33 -->
<g id="node34" class="node">
<title>Node33</title>
<g id="a_node34"><a xlink:href="d8/d78/class_template_node_creator.html" target="_top" xlink:title=" ">
<polygon fill="#ffffff" stroke="#666666" points="268.5,-381.5 128.5,-381.5 128.5,-351.5 268.5,-351.5 268.5,-381.5"/>
<text text-anchor="start" x="136.5" y="-369.5" font-family="Helvetica,sans-Serif" font-size="10.00" fill="#000000">TemplateNodeCreator</text>
<text text-anchor="middle" x="198.5" y="-358.5" font-family="Helvetica,sans-Serif" font-size="10.00" fill="#000000">&lt; TemplateNodeResource &gt;</text>
</a>
</g>
</g>
<!-- Node2&#45;&gt;Node33 -->
<g id="edge32" class="edge">
<title>Node2&#45;&gt;Node33</title>
<path fill="none" stroke="#63b8ff" d="M43.3443,-538.9237C50.3637,-503.8962 69.9585,-430.438 116,-390.5 119.9438,-387.079 124.3514,-384.1448 129.0221,-381.6283"/>
<polygon fill="#63b8ff" stroke="#63b8ff" points="39.885,-538.382 41.4896,-548.8547 46.7661,-539.6672 39.885,-538.382"/>
</g>
<!-- Node35 -->
<g id="node36" class="node">
<title>Node35</title>
<g id="a_node36"><a xlink:href="d8/d78/class_template_node_creator.html" target="_top" xlink:title=" ">
<polygon fill="#ffffff" stroke="#666666" points="255,-333.5 142,-333.5 142,-303.5 255,-303.5 255,-333.5"/>
<text text-anchor="start" x="150" y="-321.5" font-family="Helvetica,sans-Serif" font-size="10.00" fill="#000000">TemplateNodeCreator</text>
<text text-anchor="middle" x="198.5" y="-310.5" font-family="Helvetica,sans-Serif" font-size="10.00" fill="#000000">&lt; TemplateNodeSet &gt;</text>
</a>
</g>
</g>
<!-- Node2&#45;&gt;Node35 -->
<g id="edge34" class="edge">
<title>Node2&#45;&gt;Node35</title>
<path fill="none" stroke="#63b8ff" d="M41.1389,-538.5023C44.6499,-496.0849 58.8673,-396.5614 116,-342.5 123.2594,-335.6309 132.3699,-330.7134 141.8654,-327.1965"/>
<polygon fill="#63b8ff" stroke="#63b8ff" points="37.6355,-538.4274 40.4184,-548.6502 44.6179,-538.9233 37.6355,-538.4274"/>
</g>
<!-- Node37 -->
<g id="node38" class="node">
<title>Node37</title>
<g id="a_node38"><a xlink:href="d8/d78/class_template_node_creator.html" target="_top" xlink:title=" ">
<polygon fill="#ffffff" stroke="#666666" points="270.5,-285.5 126.5,-285.5 126.5,-255.5 270.5,-255.5 270.5,-285.5"/>
<text text-anchor="start" x="134.5" y="-273.5" font-family="Helvetica,sans-Serif" font-size="10.00" fill="#000000">TemplateNodeCreator</text>
<text text-anchor="middle" x="198.5" y="-262.5" font-family="Helvetica,sans-Serif" font-size="10.00" fill="#000000">&lt; TemplateNodeSpaceless &gt;</text>
</a>
</g>
</g>
<!-- Node2&#45;&gt;Node37 -->
<g id="edge36" class="edge">
<title>Node2&#45;&gt;Node37</title>
<path fill="none" stroke="#63b8ff" d="M43.1692,-538.7395C52.3879,-483.6037 80.7853,-329.8133 116,-294.5 119.3705,-291.12 123.1875,-288.21 127.2866,-285.7054"/>
<polygon fill="#63b8ff" stroke="#63b8ff" points="39.6626,-538.4946 41.4975,-548.9293 46.5703,-539.6278 39.6626,-538.4946"/>
</g>
<!-- Node39 -->
<g id="node40" class="node">
<title>Node39</title>
<g id="a_node40"><a xlink:href="d8/d78/class_template_node_creator.html" target="_top" xlink:title=" ">
<polygon fill="#ffffff" stroke="#666666" points="265,-237.5 132,-237.5 132,-207.5 265,-207.5 265,-237.5"/>
<text text-anchor="start" x="140" y="-225.5" font-family="Helvetica,sans-Serif" font-size="10.00" fill="#000000">TemplateNodeCreator</text>
<text text-anchor="middle" x="198.5" y="-214.5" font-family="Helvetica,sans-Serif" font-size="10.00" fill="#000000">&lt; TemplateNodeTabbing &gt;</text>
</a>
</g>
</g>
<!-- Node2&#45;&gt;Node39 -->
<g id="edge38" class="edge">
<title>Node2&#45;&gt;Node39</title>
<path fill="none" stroke="#63b8ff" d="M42.2145,-538.8788C49.5435,-477.3045 74.9091,-289.4467 116,-246.5 120.5374,-241.7577 125.9522,-237.9366 131.8087,-234.8601"/>
<polygon fill="#63b8ff" stroke="#63b8ff" points="38.7344,-538.5058 41.0562,-548.8431 45.6876,-539.3141 38.7344,-538.5058"/>
</g>
<!-- Node41 -->
<g id="node42" class="node">
<title>Node41</title>
<g id="a_node42"><a xlink:href="d8/d78/class_template_node_creator.html" target="_top" xlink:title=" ">
<polygon fill="#ffffff" stroke="#666666" points="257.5,-189.5 139.5,-189.5 139.5,-159.5 257.5,-159.5 257.5,-189.5"/>
<text text-anchor="start" x="147.5" y="-177.5" font-family="Helvetica,sans-Serif" font-size="10.00" fill="#000000">TemplateNodeCreator</text>
<text text-anchor="middle" x="198.5" y="-166.5" font-family="Helvetica,sans-Serif" font-size="10.00" fill="#000000">&lt; TemplateNodeTree &gt;</text>
</a>
</g>
</g>
<!-- Node2&#45;&gt;Node41 -->
<g id="edge40" class="edge">
<title>Node2&#45;&gt;Node41</title>
<path fill="none" stroke="#63b8ff" d="M41.5499,-538.5875C47.232,-470.6025 69.0816,-249.0782 116,-198.5 122.3911,-191.6104 130.633,-186.6582 139.4276,-183.1073"/>
<polygon fill="#63b8ff" stroke="#63b8ff" points="38.043,-538.5322 40.7244,-548.7821 45.0202,-539.0973 38.043,-538.5322"/>
</g>
<!-- Node43 -->
<g id="node44" class="node">
<title>Node43</title>
<g id="a_node44"><a xlink:href="d8/d78/class_template_node_creator.html" target="_top" xlink:title=" ">
<polygon fill="#ffffff" stroke="#666666" points="258,-141.5 139,-141.5 139,-111.5 258,-111.5 258,-141.5"/>
<text text-anchor="start" x="147" y="-129.5" font-family="Helvetica,sans-Serif" font-size="10.00" fill="#000000">TemplateNodeCreator</text>
<text text-anchor="middle" x="198.5" y="-118.5" font-family="Helvetica,sans-Serif" font-size="10.00" fill="#000000">&lt; TemplateNodeWith &gt;</text>
</a>
</g>
</g>
<!-- Node2&#45;&gt;Node43 -->
<g id="edge42" class="edge">
<title>Node2&#45;&gt;Node43</title>
<path fill="none" stroke="#63b8ff" d="M40.9964,-538.8541C45.1056,-465.5081 63.088,-208.9239 116,-150.5 122.2082,-143.6451 130.2483,-138.7028 138.8689,-135.1488"/>
<polygon fill="#63b8ff" stroke="#63b8ff" points="37.4932,-538.8209 40.4528,-548.994 44.4832,-539.1957 37.4932,-538.8209"/>
</g>
<!-- Node45 -->
<g id="node46" class="node">
<title>Node45</title>
<g id="a_node46"><a xlink:href="d8/d78/class_template_node_creator.html" target="_top" xlink:title="Helper class for creating template AST tag nodes and returning the template for a given node.">
<polygon fill="#ffffff" stroke="#666666" points="267,-93 130,-93 130,-74 267,-74 267,-93"/>
<text text-anchor="middle" x="198.5" y="-81" font-family="Helvetica,sans-Serif" font-size="10.00" fill="#000000">TemplateNodeCreator&lt; T &gt;</text>
</a>
</g>
</g>
<!-- Node2&#45;&gt;Node45 -->
<g id="edge45" class="edge">
<title>Node2&#45;&gt;Node45</title>
<path fill="none" stroke="#63b8ff" d="M40.477,-538.5044C42.7859,-459.0688 55.3345,-166.9971 116,-102.5 119.9273,-98.3246 124.5728,-94.9805 129.6263,-92.3112"/>
<polygon fill="#63b8ff" stroke="#63b8ff" points="36.9749,-538.5391 40.2061,-548.6291 43.9724,-538.7264 36.9749,-538.5391"/>
</g>
<!-- Node46 -->
<g id="node47" class="node">
<title>Node46</title>
<g id="a_node47"><a xlink:href="d9/daf/class_template_node_text.html" target="_top" xlink:title="Class representing a piece of plain text in a template.">
<polygon fill="#ffffff" stroke="#666666" points="248.5,-56 148.5,-56 148.5,-37 248.5,-37 248.5,-56"/>
<text text-anchor="middle" x="198.5" y="-44" font-family="Helvetica,sans-Serif" font-size="10.00" fill="#000000">TemplateNodeText</text>
</a>
</g>
</g>
<!-- Node2&#45;&gt;Node46 -->
<g id="edge46" class="edge">
<title>Node2&#45;&gt;Node46</title>
<path fill="none" stroke="#63b8ff" d="M41.7378,-538.5748C49.5841,-450.614 82.7695,-99.8633 116,-64.5 124.4327,-55.5261 136.2139,-50.5033 148.2382,-47.8049"/>
<polygon fill="#63b8ff" stroke="#63b8ff" points="38.2477,-538.3089 40.8542,-548.5781 45.2206,-538.9249 38.2477,-538.3089"/>
</g>
<!-- Node47 -->
<g id="node48" class="node">
<title>Node47</title>
<g id="a_node48"><a xlink:href="d9/d06/class_template_node_variable.html" target="_top" xlink:title="Class representing a variable in a template.">
<polygon fill="#ffffff" stroke="#666666" points="256.5,-19 140.5,-19 140.5,0 256.5,0 256.5,-19"/>
<text text-anchor="middle" x="198.5" y="-7" font-family="Helvetica,sans-Serif" font-size="10.00" fill="#000000">TemplateNodeVariable</text>
</a>
</g>
</g>
<!-- Node2&#45;&gt;Node47 -->
<g id="edge47" class="edge">
<title>Node2&#45;&gt;Node47</title>
<path fill="none" stroke="#63b8ff" d="M41.5155,-538.5693C48.6859,-446.5754 80.3475,-65.8417 116,-27.5 122.4888,-20.5218 131.0011,-15.9267 140.0911,-12.9546"/>
<polygon fill="#63b8ff" stroke="#63b8ff" points="38.0106,-538.4996 40.7315,-548.7391 44.9898,-539.0377 38.0106,-538.4996"/>
</g>
<!-- Node4 -->
<g id="node5" class="node">
<title>Node4</title>
<g id="a_node5"><a xlink:href="d2/de0/class_template_node_block.html" target="_top" xlink:title="Class representing a &#39;block&#39; tag in a template.">
<polygon fill="#ffffff" stroke="#666666" points="443,-1096 338,-1096 338,-1077 443,-1077 443,-1096"/>
<text text-anchor="middle" x="390.5" y="-1084" font-family="Helvetica,sans-Serif" font-size="10.00" fill="#000000">TemplateNodeBlock</text>
</a>
</g>
</g>
<!-- Node3&#45;&gt;Node4 -->
<g id="edge3" class="edge">
<title>Node3&#45;&gt;Node4</title>
<path fill="none" stroke="#63b8ff" d="M270.1778,-1086.5C292.5684,-1086.5 316.8489,-1086.5 337.6958,-1086.5"/>
<polygon fill="#63b8ff" stroke="#63b8ff" points="270.0423,-1083.0001 260.0422,-1086.5 270.0422,-1090.0001 270.0423,-1083.0001"/>
</g>
<!-- Node6 -->
<g id="node7" class="node">
<title>Node6</title>
<g id="a_node7"><a xlink:href="dd/dff/class_template_node_close_sub_index.html" target="_top" xlink:title="Class representing an &#39;closesubindex&#39; tag in a template.">
<polygon fill="#ffffff" stroke="#666666" points="464,-1048 317,-1048 317,-1029 464,-1029 464,-1048"/>
<text text-anchor="middle" x="390.5" y="-1036" font-family="Helvetica,sans-Serif" font-size="10.00" fill="#000000">TemplateNodeCloseSubIndex</text>
</a>
</g>
</g>
<!-- Node5&#45;&gt;Node6 -->
<g id="edge5" class="edge">
<title>Node5&#45;&gt;Node6</title>
<path fill="none" stroke="#63b8ff" d="M291.1231,-1038.5C299.7413,-1038.5 308.3958,-1038.5 316.8083,-1038.5"/>
<polygon fill="#63b8ff" stroke="#63b8ff" points="291.0396,-1035.0001 281.0396,-1038.5 291.0395,-1042.0001 291.0396,-1035.0001"/>
</g>
<!-- Node8 -->
<g id="node9" class="node">
<title>Node8</title>
<g id="a_node9"><a xlink:href="d5/dcd/class_template_node_create.html" target="_top" xlink:title="Class representing an &#39;create&#39; tag in a template.">
<polygon fill="#ffffff" stroke="#666666" points="445.5,-1000 335.5,-1000 335.5,-981 445.5,-981 445.5,-1000"/>
<text text-anchor="middle" x="390.5" y="-988" font-family="Helvetica,sans-Serif" font-size="10.00" fill="#000000">TemplateNodeCreate</text>
</a>
</g>
</g>
<!-- Node7&#45;&gt;Node8 -->
<g id="edge7" class="edge">
<title>Node7&#45;&gt;Node8</title>
<path fill="none" stroke="#63b8ff" d="M272.7865,-990.5C293.6055,-990.5 315.8622,-990.5 335.3559,-990.5"/>
<polygon fill="#63b8ff" stroke="#63b8ff" points="272.7002,-987.0001 262.7002,-990.5 272.7001,-994.0001 272.7002,-987.0001"/>
</g>
<!-- Node10 -->
<g id="node11" class="node">
<title>Node10</title>
<g id="a_node11"><a xlink:href="d3/d37/class_template_node_cycle.html" target="_top" xlink:title="Class representing an &#39;cycle&#39; tag in a template.">
<polygon fill="#ffffff" stroke="#666666" points="443.5,-952 337.5,-952 337.5,-933 443.5,-933 443.5,-952"/>
<text text-anchor="middle" x="390.5" y="-940" font-family="Helvetica,sans-Serif" font-size="10.00" fill="#000000">TemplateNodeCycle</text>
</a>
</g>
</g>
<!-- Node9&#45;&gt;Node10 -->
<g id="edge9" class="edge">
<title>Node9&#45;&gt;Node10</title>
<path fill="none" stroke="#63b8ff" d="M270.6019,-942.5C292.7498,-942.5 316.7101,-942.5 337.3469,-942.5"/>
<polygon fill="#63b8ff" stroke="#63b8ff" points="270.5718,-939.0001 260.5717,-942.5 270.5717,-946.0001 270.5718,-939.0001"/>
</g>
<!-- Node12 -->
<g id="node13" class="node">
<title>Node12</title>
<g id="a_node13"><a xlink:href="d3/d38/class_template_node_encoding.html" target="_top" xlink:title="Class representing the &#39;encoding&#39; tag in a template.">
<polygon fill="#ffffff" stroke="#666666" points="451,-904 330,-904 330,-885 451,-885 451,-904"/>
<text text-anchor="middle" x="390.5" y="-892" font-family="Helvetica,sans-Serif" font-size="10.00" fill="#000000">TemplateNodeEncoding</text>
</a>
</g>
</g>
<!-- Node11&#45;&gt;Node12 -->
<g id="edge11" class="edge">
<title>Node11&#45;&gt;Node12</title>
<path fill="none" stroke="#63b8ff" d="M278.137,-894.5C295.3766,-894.5 313.3417,-894.5 329.7191,-894.5"/>
<polygon fill="#63b8ff" stroke="#63b8ff" points="278.0879,-891.0001 268.0879,-894.5 278.0878,-898.0001 278.0879,-891.0001"/>
</g>
<!-- Node14 -->
<g id="node15" class="node">
<title>Node14</title>
<g id="a_node15"><a xlink:href="d0/d21/class_template_node_extend.html" target="_top" xlink:title="Class representing a &#39;extend&#39; tag in a template.">
<polygon fill="#ffffff" stroke="#666666" points="446,-856 335,-856 335,-837 446,-837 446,-856"/>
<text text-anchor="middle" x="390.5" y="-844" font-family="Helvetica,sans-Serif" font-size="10.00" fill="#000000">TemplateNodeExtend</text>
</a>
</g>
</g>
<!-- Node13&#45;&gt;Node14 -->
<g id="edge13" class="edge">
<title>Node13&#45;&gt;Node14</title>
<path fill="none" stroke="#63b8ff" d="M273.4414,-846.5C293.8418,-846.5 315.5766,-846.5 334.7103,-846.5"/>
<polygon fill="#63b8ff" stroke="#63b8ff" points="273.2348,-843.0001 263.2348,-846.5 273.2347,-850.0001 273.2348,-843.0001"/>
</g>
<!-- Node16 -->
<g id="node17" class="node">
<title>Node16</title>
<g id="a_node17"><a xlink:href="d5/da1/class_template_node_for.html" target="_top" xlink:title="Class representing a &#39;for&#39; tag in a template.">
<polygon fill="#ffffff" stroke="#666666" points="438,-808 343,-808 343,-789 438,-789 438,-808"/>
<text text-anchor="middle" x="390.5" y="-796" font-family="Helvetica,sans-Serif" font-size="10.00" fill="#000000">TemplateNodeFor</text>
</a>
</g>
</g>
<!-- Node15&#45;&gt;Node16 -->
<g id="edge15" class="edge">
<title>Node15&#45;&gt;Node16</title>
<path fill="none" stroke="#63b8ff" d="M265.0695,-798.5C290.643,-798.5 319.3011,-798.5 342.7618,-798.5"/>
<polygon fill="#63b8ff" stroke="#63b8ff" points="265.0679,-795.0001 255.0679,-798.5 265.0678,-802.0001 265.0679,-795.0001"/>
</g>
<!-- Node18 -->
<g id="node19" class="node">
<title>Node18</title>
<g id="a_node19"><a xlink:href="d8/d38/class_template_node_if.html" target="_top" xlink:title="Class representing an &#39;if&#39; tag in a template.">
<polygon fill="#ffffff" stroke="#666666" points="433.5,-760 347.5,-760 347.5,-741 433.5,-741 433.5,-760"/>
<text text-anchor="middle" x="390.5" y="-748" font-family="Helvetica,sans-Serif" font-size="10.00" fill="#000000">TemplateNodeIf</text>
</a>
</g>
</g>
<!-- Node17&#45;&gt;Node18 -->
<g id="edge17" class="edge">
<title>Node17&#45;&gt;Node18</title>
<path fill="none" stroke="#63b8ff" d="M265.3162,-750.5C292.5527,-750.5 323.2527,-750.5 347.4339,-750.5"/>
<polygon fill="#63b8ff" stroke="#63b8ff" points="265.0679,-747.0001 255.0679,-750.5 265.0678,-754.0001 265.0679,-747.0001"/>
</g>
<!-- Node20 -->
<g id="node21" class="node">
<title>Node20</title>
<g id="a_node21"><a xlink:href="da/d4b/class_template_node_include.html" target="_top" xlink:title="Class representing an &#39;include&#39; tag in a template.">
<polygon fill="#ffffff" stroke="#666666" points="446.5,-712 334.5,-712 334.5,-693 446.5,-693 446.5,-712"/>
<text text-anchor="middle" x="390.5" y="-700" font-family="Helvetica,sans-Serif" font-size="10.00" fill="#000000">TemplateNodeInclude</text>
</a>
</g>
</g>
<!-- Node19&#45;&gt;Node20 -->
<g id="edge19" class="edge">
<title>Node19&#45;&gt;Node20</title>
<path fill="none" stroke="#63b8ff" d="M273.6031,-702.5C293.7865,-702.5 315.2651,-702.5 334.2314,-702.5"/>
<polygon fill="#63b8ff" stroke="#63b8ff" points="273.5025,-699.0001 263.5024,-702.5 273.5024,-706.0001 273.5025,-699.0001"/>
</g>
<!-- Node22 -->
<g id="node23" class="node">
<title>Node22</title>
<g id="a_node23"><a xlink:href="da/ddd/class_template_node_index_entry.html" target="_top" xlink:title="Class representing an &#39;indexentry&#39; tag in a template.">
<polygon fill="#ffffff" stroke="#666666" points="454.5,-664 326.5,-664 326.5,-645 454.5,-645 454.5,-664"/>
<text text-anchor="middle" x="390.5" y="-652" font-family="Helvetica,sans-Serif" font-size="10.00" fill="#000000">TemplateNodeIndexEntry</text>
</a>
</g>
</g>
<!-- Node21&#45;&gt;Node22 -->
<g id="edge21" class="edge">
<title>Node21&#45;&gt;Node22</title>
<path fill="none" stroke="#63b8ff" d="M281.8708,-654.5C296.7777,-654.5 312.0981,-654.5 326.3603,-654.5"/>
<polygon fill="#63b8ff" stroke="#63b8ff" points="281.6347,-651.0001 271.6347,-654.5 281.6347,-658.0001 281.6347,-651.0001"/>
</g>
<!-- Node24 -->
<g id="node25" class="node">
<title>Node24</title>
<g id="a_node25"><a xlink:href="d9/d8f/class_template_node_markers.html" target="_top" xlink:title="Class representing an &#39;markers&#39; tag in a template.">
<polygon fill="#ffffff" stroke="#666666" points="448.5,-616 332.5,-616 332.5,-597 448.5,-597 448.5,-616"/>
<text text-anchor="middle" x="390.5" y="-604" font-family="Helvetica,sans-Serif" font-size="10.00" fill="#000000">TemplateNodeMarkers</text>
</a>
</g>
</g>
<!-- Node23&#45;&gt;Node24 -->
<g id="edge23" class="edge">
<title>Node23&#45;&gt;Node24</title>
<path fill="none" stroke="#63b8ff" d="M275.7199,-606.5C294.6068,-606.5 314.5029,-606.5 332.3278,-606.5"/>
<polygon fill="#63b8ff" stroke="#63b8ff" points="275.6523,-603.0001 265.6523,-606.5 275.6522,-610.0001 275.6523,-603.0001"/>
</g>
<!-- Node26 -->
<g id="node27" class="node">
<title>Node26</title>
<g id="a_node27"><a xlink:href="d4/d50/class_template_node_msg.html" target="_top" xlink:title="Class representing an &#39;markers&#39; tag in a template.">
<polygon fill="#ffffff" stroke="#666666" points="440,-568 341,-568 341,-549 440,-549 440,-568"/>
<text text-anchor="middle" x="390.5" y="-556" font-family="Helvetica,sans-Serif" font-size="10.00" fill="#000000">TemplateNodeMsg</text>
</a>
</g>
</g>
<!-- Node25&#45;&gt;Node26 -->
<g id="edge25" class="edge">
<title>Node25&#45;&gt;Node26</title>
<path fill="none" stroke="#63b8ff" d="M267.3942,-558.5C291.7068,-558.5 318.5458,-558.5 340.9421,-558.5"/>
<polygon fill="#63b8ff" stroke="#63b8ff" points="267.1496,-555.0001 257.1496,-558.5 267.1496,-562.0001 267.1496,-555.0001"/>
</g>
<!-- Node28 -->
<g id="node29" class="node">
<title>Node28</title>
<g id="a_node29"><a xlink:href="d6/d20/class_template_node_open_sub_index.html" target="_top" xlink:title="Class representing an &#39;opensubindex&#39; tag in a template.">
<polygon fill="#ffffff" stroke="#666666" points="463,-520 318,-520 318,-501 463,-501 463,-520"/>
<text text-anchor="middle" x="390.5" y="-508" font-family="Helvetica,sans-Serif" font-size="10.00" fill="#000000">TemplateNodeOpenSubIndex</text>
</a>
</g>
</g>
<!-- Node27&#45;&gt;Node28 -->
<g id="edge27" class="edge">
<title>Node27&#45;&gt;Node28</title>
<path fill="none" stroke="#63b8ff" d="M290.2617,-510.5C299.5655,-510.5 308.9223,-510.5 317.982,-510.5"/>
<polygon fill="#63b8ff" stroke="#63b8ff" points="290.2037,-507.0001 280.2037,-510.5 290.2037,-514.0001 290.2037,-507.0001"/>
</g>
<!-- Node30 -->
<g id="node31" class="node">
<title>Node30</title>
<g id="a_node31"><a xlink:href="d6/d83/class_template_node_range.html" target="_top" xlink:title="Class representing a &#39;range&#39; tag in a template.">
<polygon fill="#ffffff" stroke="#666666" points="445,-472 336,-472 336,-453 445,-453 445,-472"/>
<text text-anchor="middle" x="390.5" y="-460" font-family="Helvetica,sans-Serif" font-size="10.00" fill="#000000">TemplateNodeRange</text>
</a>
</g>
</g>
<!-- Node29&#45;&gt;Node30 -->
<g id="edge29" class="edge">
<title>Node29&#45;&gt;Node30</title>
<path fill="none" stroke="#63b8ff" d="M272.3647,-462.5C293.4236,-462.5 315.9855,-462.5 335.6903,-462.5"/>
<polygon fill="#63b8ff" stroke="#63b8ff" points="272.1666,-459.0001 262.1665,-462.5 272.1665,-466.0001 272.1666,-459.0001"/>
</g>
<!-- Node32 -->
<g id="node33" class="node">
<title>Node32</title>
<g id="a_node33"><a xlink:href="db/d54/class_template_node_repeat.html" target="_top" xlink:title="Class representing a &#39;for&#39; tag in a template.">
<polygon fill="#ffffff" stroke="#666666" points="446.5,-424 334.5,-424 334.5,-405 446.5,-405 446.5,-424"/>
<text text-anchor="middle" x="390.5" y="-412" font-family="Helvetica,sans-Serif" font-size="10.00" fill="#000000">TemplateNodeRepeat</text>
</a>
</g>
</g>
<!-- Node31&#45;&gt;Node32 -->
<g id="edge31" class="edge">
<title>Node31&#45;&gt;Node32</title>
<path fill="none" stroke="#63b8ff" d="M273.6031,-414.5C293.7865,-414.5 315.2651,-414.5 334.2314,-414.5"/>
<polygon fill="#63b8ff" stroke="#63b8ff" points="273.5025,-411.0001 263.5024,-414.5 273.5024,-418.0001 273.5025,-411.0001"/>
</g>
<!-- Node34 -->
<g id="node35" class="node">
<title>Node34</title>
<g id="a_node35"><a xlink:href="d8/d57/class_template_node_resource.html" target="_top" xlink:title="Class representing an &#39;markers&#39; tag in a template.">
<polygon fill="#ffffff" stroke="#666666" points="451.5,-376 329.5,-376 329.5,-357 451.5,-357 451.5,-376"/>
<text text-anchor="middle" x="390.5" y="-364" font-family="Helvetica,sans-Serif" font-size="10.00" fill="#000000">TemplateNodeResource</text>
</a>
</g>
</g>
<!-- Node33&#45;&gt;Node34 -->
<g id="edge33" class="edge">
<title>Node33&#45;&gt;Node34</title>
<path fill="none" stroke="#63b8ff" d="M279.0284,-366.5C295.8932,-366.5 313.4124,-366.5 329.4295,-366.5"/>
<polygon fill="#63b8ff" stroke="#63b8ff" points="278.6314,-363.0001 268.6314,-366.5 278.6314,-370.0001 278.6314,-363.0001"/>
</g>
<!-- Node36 -->
<g id="node37" class="node">
<title>Node36</title>
<g id="a_node37"><a xlink:href="d3/d86/class_template_node_set.html" target="_top" xlink:title="Class representing an &#39;set&#39; tag in a template.">
<polygon fill="#ffffff" stroke="#666666" points="438,-328 343,-328 343,-309 438,-309 438,-328"/>
<text text-anchor="middle" x="390.5" y="-316" font-family="Helvetica,sans-Serif" font-size="10.00" fill="#000000">TemplateNodeSet</text>
</a>
</g>
</g>
<!-- Node35&#45;&gt;Node36 -->
<g id="edge35" class="edge">
<title>Node35&#45;&gt;Node36</title>
<path fill="none" stroke="#63b8ff" d="M265.0695,-318.5C290.643,-318.5 319.3011,-318.5 342.7618,-318.5"/>
<polygon fill="#63b8ff" stroke="#63b8ff" points="265.0679,-315.0001 255.0679,-318.5 265.0678,-322.0001 265.0679,-315.0001"/>
</g>
<!-- Node38 -->
<g id="node39" class="node">
<title>Node38</title>
<g id="a_node39"><a xlink:href="df/dc6/class_template_node_spaceless.html" target="_top" xlink:title="Class representing an &#39;spaceless&#39; tag in a template.">
<polygon fill="#ffffff" stroke="#666666" points="453.5,-280 327.5,-280 327.5,-261 453.5,-261 453.5,-280"/>
<text text-anchor="middle" x="390.5" y="-268" font-family="Helvetica,sans-Serif" font-size="10.00" fill="#000000">TemplateNodeSpaceless</text>
</a>
</g>
</g>
<!-- Node37&#45;&gt;Node38 -->
<g id="edge37" class="edge">
<title>Node37&#45;&gt;Node38</title>
<path fill="none" stroke="#63b8ff" d="M280.6848,-270.5C296.258,-270.5 312.3266,-270.5 327.205,-270.5"/>
<polygon fill="#63b8ff" stroke="#63b8ff" points="280.54,-267.0001 270.54,-270.5 280.5399,-274.0001 280.54,-267.0001"/>
</g>
<!-- Node40 -->
<g id="node41" class="node">
<title>Node40</title>
<g id="a_node41"><a xlink:href="da/da1/class_template_node_tabbing.html" target="_top" xlink:title="Class representing an &#39;tabbing&#39; tag in a template.">
<polygon fill="#ffffff" stroke="#666666" points="448,-232 333,-232 333,-213 448,-213 448,-232"/>
<text text-anchor="middle" x="390.5" y="-220" font-family="Helvetica,sans-Serif" font-size="10.00" fill="#000000">TemplateNodeTabbing</text>
</a>
</g>
</g>
<!-- Node39&#45;&gt;Node40 -->
<g id="edge39" class="edge">
<title>Node39&#45;&gt;Node40</title>
<path fill="none" stroke="#63b8ff" d="M275.3527,-222.5C294.5703,-222.5 314.8549,-222.5 332.9547,-222.5"/>
<polygon fill="#63b8ff" stroke="#63b8ff" points="275.1135,-219.0001 265.1134,-222.5 275.1134,-226.0001 275.1135,-219.0001"/>
</g>
<!-- Node42 -->
<g id="node43" class="node">
<title>Node42</title>
<g id="a_node43"><a xlink:href="d8/d31/class_template_node_tree.html" target="_top" xlink:title="Class representing an &#39;tree&#39; tag in a template.">
<polygon fill="#ffffff" stroke="#666666" points="440.5,-184 340.5,-184 340.5,-165 440.5,-165 440.5,-184"/>
<text text-anchor="middle" x="390.5" y="-172" font-family="Helvetica,sans-Serif" font-size="10.00" fill="#000000">TemplateNodeTree</text>
</a>
</g>
</g>
<!-- Node41&#45;&gt;Node42 -->
<g id="edge41" class="edge">
<title>Node41&#45;&gt;Node42</title>
<path fill="none" stroke="#63b8ff" d="M267.7761,-174.5C291.7402,-174.5 318.1183,-174.5 340.2581,-174.5"/>
<polygon fill="#63b8ff" stroke="#63b8ff" points="267.673,-171.0001 257.673,-174.5 267.673,-178.0001 267.673,-171.0001"/>
</g>
<!-- Node44 -->
<g id="node45" class="node">
<title>Node44</title>
<g id="a_node45"><a xlink:href="d6/df7/class_template_node_with.html" target="_top" xlink:title="Class representing an &#39;with&#39; tag in a template.">
<polygon fill="#ffffff" stroke="#666666" points="441,-136 340,-136 340,-117 441,-117 441,-136"/>
<text text-anchor="middle" x="390.5" y="-124" font-family="Helvetica,sans-Serif" font-size="10.00" fill="#000000">TemplateNodeWith</text>
</a>
</g>
</g>
<!-- Node43&#45;&gt;Node44 -->
<g id="edge43" class="edge">
<title>Node43&#45;&gt;Node44</title>
<path fill="none" stroke="#63b8ff" d="M268.2019,-126.5C291.9208,-126.5 317.9604,-126.5 339.8934,-126.5"/>
<polygon fill="#63b8ff" stroke="#63b8ff" points="268.1976,-123.0001 258.1975,-126.5 268.1975,-130.0001 268.1976,-123.0001"/>
</g>
</g>
</svg>
