<?xml version="1.0" encoding="UTF-8" standalone="no"?>
<!DOCTYPE svg PUBLIC "-//W3C//DTD SVG 1.1//EN"
 "http://www.w3.org/Graphics/SVG/1.1/DTD/svg11.dtd">
<!-- Generated by graphviz version 2.40.1 (20161225.0304)
 -->
<!-- Title: Graphical Class Hierarchy Pages: 1 -->
<svg width="250pt" height="76pt"
 viewBox="0.00 0.00 250.00 75.50" xmlns="http://www.w3.org/2000/svg" xmlns:xlink="http://www.w3.org/1999/xlink">
<g id="graph0" class="graph" transform="scale(1 1) rotate(0) translate(4 71.5)">
<title>Graphical Class Hierarchy</title>
<!-- Node0 -->
<g id="node1" class="node">
<title>Node0</title>
<g id="a_node1"><a xlink:title=" ">
<polygon fill="#e0e0e0" stroke="#999999" points="60,-40 0,-40 0,-21 60,-21 60,-40"/>
<text text-anchor="middle" x="30" y="-28" font-family="Helvetica,sans-Serif" font-size="10.00" fill="#000000">std::stack</text>
</a>
</g>
</g>
<!-- Node1 -->
<g id="node2" class="node">
<title>Node1</title>
<g id="a_node2"><a xlink:href="d9/d82/class_iterable_stack.html" target="_top" xlink:title=" ">
<polygon fill="#ffffff" stroke="#666666" points="222.5,-67.5 115.5,-67.5 115.5,-37.5 222.5,-37.5 222.5,-67.5"/>
<text text-anchor="start" x="123.5" y="-55.5" font-family="Helvetica,sans-Serif" font-size="10.00" fill="#000000">IterableStack&lt; const</text>
<text text-anchor="middle" x="169" y="-44.5" font-family="Helvetica,sans-Serif" font-size="10.00" fill="#000000"> DocNodeVariant * &gt;</text>
</a>
</g>
</g>
<!-- Node0&#45;&gt;Node1 -->
<g id="edge1" class="edge">
<title>Node0&#45;&gt;Node1</title>
<path fill="none" stroke="#63b8ff" d="M70.0503,-36.8389C84.1746,-39.0744 100.2899,-41.625 115.3553,-44.0095"/>
<polygon fill="#63b8ff" stroke="#63b8ff" points="70.5852,-33.3801 60.1609,-35.2737 69.4908,-40.294 70.5852,-33.3801"/>
</g>
<!-- Node2 -->
<g id="node3" class="node">
<title>Node2</title>
<g id="a_node3"><a xlink:href="d9/d82/class_iterable_stack.html" target="_top" xlink:title=" ">
<polygon fill="#ffffff" stroke="#666666" points="242,-19 96,-19 96,0 242,0 242,-19"/>
<text text-anchor="middle" x="169" y="-7" font-family="Helvetica,sans-Serif" font-size="10.00" fill="#000000">IterableStack&lt; T, Container &gt;</text>
</a>
</g>
</g>
<!-- Node0&#45;&gt;Node2 -->
<g id="edge2" class="edge">
<title>Node0&#45;&gt;Node2</title>
<path fill="none" stroke="#63b8ff" d="M70.091,-24.4431C81.3373,-22.744 93.8433,-20.8546 106.0753,-19.0066"/>
<polygon fill="#63b8ff" stroke="#63b8ff" points="69.5259,-20.9887 60.1609,-25.9433 70.5716,-27.9101 69.5259,-20.9887"/>
</g>
</g>
</svg>
