<?xml version="1.0" encoding="UTF-8" standalone="no"?>
<!DOCTYPE svg PUBLIC "-//W3C//DTD SVG 1.1//EN"
 "http://www.w3.org/Graphics/SVG/1.1/DTD/svg11.dtd">
<!-- Generated by graphviz version 2.40.1 (20161225.0304)
 -->
<!-- Title: Graphical Class Hierarchy Pages: 1 -->
<svg width="717pt" height="496pt"
 viewBox="0.00 0.00 717.00 495.50" xmlns="http://www.w3.org/2000/svg" xmlns:xlink="http://www.w3.org/1999/xlink">
<g id="graph0" class="graph" transform="scale(1 1) rotate(0) translate(4 491.5)">
<title>Graphical Class Hierarchy</title>
<!-- Node0 -->
<g id="node1" class="node">
<title>Node0</title>
<g id="a_node1"><a xlink:href="d5/dcc/class_definition.html" target="_top" xlink:title="The common base class of all entity definitions found in the sources.">
<polygon fill="#ffffff" stroke="#666666" points="75,-268 17,-268 17,-249 75,-249 75,-268"/>
<text text-anchor="middle" x="46" y="-256" font-family="Helvetica,sans-Serif" font-size="10.00" fill="#000000">Definition</text>
</a>
</g>
</g>
<!-- Node1 -->
<g id="node2" class="node">
<title>Node1</title>
<g id="a_node2"><a xlink:href="d1/dcf/class_class_def.html" target="_top" xlink:title="A abstract class representing of a compound symbol.">
<polygon fill="#ffffff" stroke="#666666" points="199.5,-457 141.5,-457 141.5,-438 199.5,-438 199.5,-457"/>
<text text-anchor="middle" x="170.5" y="-445" font-family="Helvetica,sans-Serif" font-size="10.00" fill="#000000">ClassDef</text>
</a>
</g>
</g>
<!-- Node0&#45;&gt;Node1 -->
<g id="edge1" class="edge">
<title>Node0&#45;&gt;Node1</title>
<path fill="none" stroke="#63b8ff" d="M51.5604,-278.1258C61.8505,-311.4998 86.6642,-379.92 128,-423.5 133.4815,-429.2791 140.6677,-434.05 147.5676,-437.774"/>
<polygon fill="#63b8ff" stroke="#63b8ff" points="54.8261,-276.8279 48.6246,-268.2377 48.1156,-278.8203 54.8261,-276.8279"/>
</g>
<!-- Node11 -->
<g id="node8" class="node">
<title>Node11</title>
<g id="a_node8"><a xlink:href="d6/d8d/class_concept_def.html" target="_top" xlink:title=" ">
<polygon fill="#ffffff" stroke="#666666" points="205,-381 136,-381 136,-362 205,-362 205,-381"/>
<text text-anchor="middle" x="170.5" y="-369" font-family="Helvetica,sans-Serif" font-size="10.00" fill="#000000">ConceptDef</text>
</a>
</g>
</g>
<!-- Node0&#45;&gt;Node11 -->
<g id="edge7" class="edge">
<title>Node0&#45;&gt;Node11</title>
<path fill="none" stroke="#63b8ff" d="M59.4839,-276.1618C74.6952,-295.3068 100.8705,-325.9983 128,-347.5 134.9065,-352.9738 143.2156,-357.9611 150.6479,-361.9537"/>
<polygon fill="#63b8ff" stroke="#63b8ff" points="62.2181,-273.9763 53.3025,-268.2524 56.7026,-278.2868 62.2181,-273.9763"/>
</g>
<!-- Node14 -->
<g id="node14" class="node">
<title>Node14</title>
<g id="a_node14"><a xlink:href="d4/dd4/class_dir_def.html" target="_top" xlink:title="A model of a directory symbol.">
<polygon fill="#ffffff" stroke="#666666" points="193,-305 148,-305 148,-286 193,-286 193,-305"/>
<text text-anchor="middle" x="170.5" y="-293" font-family="Helvetica,sans-Serif" font-size="10.00" fill="#000000">DirDef</text>
</a>
</g>
</g>
<!-- Node0&#45;&gt;Node14 -->
<g id="edge13" class="edge">
<title>Node0&#45;&gt;Node14</title>
<path fill="none" stroke="#63b8ff" d="M84.9462,-270.0744C105.5722,-276.2042 130.1874,-283.5196 147.7078,-288.7264"/>
<polygon fill="#63b8ff" stroke="#63b8ff" points="85.7725,-266.6687 75.1897,-267.1749 83.7783,-273.3787 85.7725,-266.6687"/>
</g>
<!-- Node17 -->
<g id="node17" class="node">
<title>Node17</title>
<g id="a_node17"><a xlink:href="de/db0/class_file_def.html" target="_top" xlink:title="A model of a file symbol.">
<polygon fill="#ffffff" stroke="#666666" points="194.5,-268 146.5,-268 146.5,-249 194.5,-249 194.5,-268"/>
<text text-anchor="middle" x="170.5" y="-256" font-family="Helvetica,sans-Serif" font-size="10.00" fill="#000000">FileDef</text>
</a>
</g>
</g>
<!-- Node0&#45;&gt;Node17 -->
<g id="edge16" class="edge">
<title>Node0&#45;&gt;Node17</title>
<path fill="none" stroke="#63b8ff" d="M85.2313,-258.5C105.1742,-258.5 128.7857,-258.5 146.1,-258.5"/>
<polygon fill="#63b8ff" stroke="#63b8ff" points="85.1898,-255.0001 75.1897,-258.5 85.1897,-262.0001 85.1898,-255.0001"/>
</g>
<!-- Node20 -->
<g id="node20" class="node">
<title>Node20</title>
<g id="a_node20"><a xlink:href="d8/d09/class_group_def.html" target="_top" xlink:title="A model of a group of symbols.">
<polygon fill="#ffffff" stroke="#666666" points="200,-231 141,-231 141,-212 200,-212 200,-231"/>
<text text-anchor="middle" x="170.5" y="-219" font-family="Helvetica,sans-Serif" font-size="10.00" fill="#000000">GroupDef</text>
</a>
</g>
</g>
<!-- Node0&#45;&gt;Node20 -->
<g id="edge19" class="edge">
<title>Node0&#45;&gt;Node20</title>
<path fill="none" stroke="#63b8ff" d="M84.8293,-246.9604C102.8316,-241.6103 123.8932,-235.351 140.6284,-230.3775"/>
<polygon fill="#63b8ff" stroke="#63b8ff" points="83.7783,-243.6213 75.1897,-249.8251 85.7725,-250.3313 83.7783,-243.6213"/>
</g>
<!-- Node26 -->
<g id="node23" class="node">
<title>Node26</title>
<g id="a_node23"><a xlink:href="da/d09/class_member_def.html" target="_top" xlink:title="A model of a class/file/namespace member symbol.">
<polygon fill="#ffffff" stroke="#666666" points="204.5,-194 136.5,-194 136.5,-175 204.5,-175 204.5,-194"/>
<text text-anchor="middle" x="170.5" y="-182" font-family="Helvetica,sans-Serif" font-size="10.00" fill="#000000">MemberDef</text>
</a>
</g>
</g>
<!-- Node0&#45;&gt;Node26 -->
<g id="edge22" class="edge">
<title>Node0&#45;&gt;Node26</title>
<path fill="none" stroke="#63b8ff" d="M84.3599,-244.9756C87.0136,-243.5923 89.5886,-242.1008 92,-240.5 111.1153,-227.8105 109.1909,-216.6391 128,-203.5 133.1681,-199.8898 139.1323,-196.7158 144.9278,-194.0472"/>
<polygon fill="#63b8ff" stroke="#63b8ff" points="82.7443,-241.867 75.1582,-249.2631 85.7008,-248.212 82.7443,-241.867"/>
</g>
<!-- Node32 -->
<g id="node29" class="node">
<title>Node32</title>
<g id="a_node29"><a xlink:href="d0/d07/class_namespace_def.html" target="_top" xlink:title="An abstract interface of a namespace symbol.">
<polygon fill="#ffffff" stroke="#666666" points="213,-118 128,-118 128,-99 213,-99 213,-118"/>
<text text-anchor="middle" x="170.5" y="-106" font-family="Helvetica,sans-Serif" font-size="10.00" fill="#000000">NamespaceDef</text>
</a>
</g>
</g>
<!-- Node0&#45;&gt;Node32 -->
<g id="edge28" class="edge">
<title>Node0&#45;&gt;Node32</title>
<path fill="none" stroke="#63b8ff" d="M84.3187,-246.2192C87.0768,-244.5393 89.6804,-242.6415 92,-240.5 118.8729,-215.6901 109.1151,-197.8215 128,-166.5 138.6999,-148.7537 153.3934,-129.6348 162.4023,-118.3852"/>
<polygon fill="#63b8ff" stroke="#63b8ff" points="82.4767,-243.229 75.1421,-250.8746 85.6437,-249.4717 82.4767,-243.229"/>
</g>
<!-- Node35 -->
<g id="node35" class="node">
<title>Node35</title>
<g id="a_node35"><a xlink:href="dd/d41/class_page_def.html" target="_top" xlink:title="A model of a page symbol.">
<polygon fill="#ffffff" stroke="#666666" points="198,-42 143,-42 143,-23 198,-23 198,-42"/>
<text text-anchor="middle" x="170.5" y="-30" font-family="Helvetica,sans-Serif" font-size="10.00" fill="#000000">PageDef</text>
</a>
</g>
</g>
<!-- Node0&#45;&gt;Node35 -->
<g id="edge34" class="edge">
<title>Node0&#45;&gt;Node35</title>
<path fill="none" stroke="#63b8ff" d="M84.3868,-247.0618C87.2078,-245.1929 89.803,-243.0218 92,-240.5 137.0357,-188.8064 99.1729,-152.7048 128,-90.5 136.6081,-71.9249 151.6291,-53.3459 161.3137,-42.3913"/>
<polygon fill="#63b8ff" stroke="#63b8ff" points="82.6185,-244.0376 75.4182,-251.8098 85.8937,-250.2242 82.6185,-244.0376"/>
</g>
<!-- Node2 -->
<g id="node3" class="node">
<title>Node2</title>
<g id="a_node3"><a xlink:href="d8/d83/class_definition_alias_mixin.html" target="_top" xlink:title=" ">
<polygon fill="#ffffff" stroke="#666666" points="371,-487.5 268,-487.5 268,-457.5 371,-457.5 371,-487.5"/>
<text text-anchor="start" x="276" y="-475.5" font-family="Helvetica,sans-Serif" font-size="10.00" fill="#000000">DefinitionAliasMixin</text>
<text text-anchor="middle" x="319.5" y="-464.5" font-family="Helvetica,sans-Serif" font-size="10.00" fill="#000000">&lt; ClassDef &gt;</text>
</a>
</g>
</g>
<!-- Node1&#45;&gt;Node2 -->
<g id="edge2" class="edge">
<title>Node1&#45;&gt;Node2</title>
<path fill="none" stroke="#63b8ff" d="M209.6208,-454.0639C227.4336,-457.0526 248.7609,-460.631 267.8664,-463.8366"/>
<polygon fill="#63b8ff" stroke="#63b8ff" points="210.0237,-450.5827 199.5824,-452.3796 208.8654,-457.4862 210.0237,-450.5827"/>
</g>
<!-- Node4 -->
<g id="node5" class="node">
<title>Node4</title>
<g id="a_node5"><a xlink:href="d0/dc2/class_class_def_mutable.html" target="_top" xlink:title=" ">
<polygon fill="#ffffff" stroke="#666666" points="365.5,-439 273.5,-439 273.5,-420 365.5,-420 365.5,-439"/>
<text text-anchor="middle" x="319.5" y="-427" font-family="Helvetica,sans-Serif" font-size="10.00" fill="#000000">ClassDefMutable</text>
</a>
</g>
</g>
<!-- Node1&#45;&gt;Node4 -->
<g id="edge4" class="edge">
<title>Node1&#45;&gt;Node4</title>
<path fill="none" stroke="#63b8ff" d="M209.6797,-442.7669C229.2494,-440.4028 253.0496,-437.5276 273.484,-435.059"/>
<polygon fill="#63b8ff" stroke="#63b8ff" points="209.0904,-439.3125 199.5824,-443.9867 209.93,-446.262 209.0904,-439.3125"/>
</g>
<!-- Node3 -->
<g id="node4" class="node">
<title>Node3</title>
<g id="a_node4"><a xlink:href="d0/d2b/class_class_def_alias_impl.html" target="_top" xlink:title=" ">
<polygon fill="#ffffff" stroke="#666666" points="546.5,-482 448.5,-482 448.5,-463 546.5,-463 546.5,-482"/>
<text text-anchor="middle" x="497.5" y="-470" font-family="Helvetica,sans-Serif" font-size="10.00" fill="#000000">ClassDefAliasImpl</text>
</a>
</g>
</g>
<!-- Node2&#45;&gt;Node3 -->
<g id="edge3" class="edge">
<title>Node2&#45;&gt;Node3</title>
<path fill="none" stroke="#63b8ff" d="M381.6224,-472.5C403.4305,-472.5 427.6147,-472.5 448.2236,-472.5"/>
<polygon fill="#63b8ff" stroke="#63b8ff" points="381.4635,-469.0001 371.4635,-472.5 381.4634,-476.0001 381.4635,-469.0001"/>
</g>
<!-- Node5 -->
<g id="node6" class="node">
<title>Node5</title>
<g id="a_node6"><a xlink:href="dd/d10/class_definition_mixin.html" target="_top" xlink:title=" ">
<polygon fill="#ffffff" stroke="#666666" points="563,-444.5 432,-444.5 432,-414.5 563,-414.5 563,-444.5"/>
<text text-anchor="start" x="440" y="-432.5" font-family="Helvetica,sans-Serif" font-size="10.00" fill="#000000">DefinitionMixin&lt; ClassDef</text>
<text text-anchor="middle" x="497.5" y="-421.5" font-family="Helvetica,sans-Serif" font-size="10.00" fill="#000000">Mutable &gt;</text>
</a>
</g>
</g>
<!-- Node4&#45;&gt;Node5 -->
<g id="edge5" class="edge">
<title>Node4&#45;&gt;Node5</title>
<path fill="none" stroke="#63b8ff" d="M376.0241,-429.5C393.8225,-429.5 413.6291,-429.5 431.9974,-429.5"/>
<polygon fill="#63b8ff" stroke="#63b8ff" points="375.8028,-426.0001 365.8027,-429.5 375.8027,-433.0001 375.8028,-426.0001"/>
</g>
<!-- Node6 -->
<g id="node7" class="node">
<title>Node6</title>
<g id="a_node7"><a xlink:href="d1/d25/class_class_def_impl.html" target="_top" xlink:title="Implementation of the ClassDef interface.">
<polygon fill="#ffffff" stroke="#666666" points="695.5,-439 618.5,-439 618.5,-420 695.5,-420 695.5,-439"/>
<text text-anchor="middle" x="657" y="-427" font-family="Helvetica,sans-Serif" font-size="10.00" fill="#000000">ClassDefImpl</text>
</a>
</g>
</g>
<!-- Node5&#45;&gt;Node6 -->
<g id="edge6" class="edge">
<title>Node5&#45;&gt;Node6</title>
<path fill="none" stroke="#63b8ff" d="M573.4575,-429.5C589.0012,-429.5 604.7375,-429.5 618.2973,-429.5"/>
<polygon fill="#63b8ff" stroke="#63b8ff" points="573.2957,-426.0001 563.2956,-429.5 573.2956,-433.0001 573.2957,-426.0001"/>
</g>
<!-- Node12 -->
<g id="node9" class="node">
<title>Node12</title>
<g id="a_node9"><a xlink:href="d8/d83/class_definition_alias_mixin.html" target="_top" xlink:title=" ">
<polygon fill="#ffffff" stroke="#666666" points="371,-353.5 268,-353.5 268,-323.5 371,-323.5 371,-353.5"/>
<text text-anchor="start" x="276" y="-341.5" font-family="Helvetica,sans-Serif" font-size="10.00" fill="#000000">DefinitionAliasMixin</text>
<text text-anchor="middle" x="319.5" y="-330.5" font-family="Helvetica,sans-Serif" font-size="10.00" fill="#000000">&lt; ConceptDef &gt;</text>
</a>
</g>
</g>
<!-- Node11&#45;&gt;Node12 -->
<g id="edge8" class="edge">
<title>Node11&#45;&gt;Node12</title>
<path fill="none" stroke="#63b8ff" d="M215.0602,-361.631C231.6792,-357.9502 250.6826,-353.7414 267.8835,-349.9318"/>
<polygon fill="#63b8ff" stroke="#63b8ff" points="214.0647,-358.2666 205.0581,-363.8462 215.5784,-365.1009 214.0647,-358.2666"/>
</g>
<!-- Node8 -->
<g id="node11" class="node">
<title>Node8</title>
<g id="a_node11"><a xlink:href="d4/deb/class_concept_def_mutable.html" target="_top" xlink:title=" ">
<polygon fill="#ffffff" stroke="#666666" points="371.5,-391 267.5,-391 267.5,-372 371.5,-372 371.5,-391"/>
<text text-anchor="middle" x="319.5" y="-379" font-family="Helvetica,sans-Serif" font-size="10.00" fill="#000000">ConceptDefMutable</text>
</a>
</g>
</g>
<!-- Node11&#45;&gt;Node8 -->
<g id="edge10" class="edge">
<title>Node11&#45;&gt;Node8</title>
<path fill="none" stroke="#63b8ff" d="M215.4313,-374.5155C231.7763,-375.6125 250.3881,-376.8616 267.3085,-377.9972"/>
<polygon fill="#63b8ff" stroke="#63b8ff" points="215.2701,-370.9969 205.0581,-373.8193 214.8013,-377.9812 215.2701,-370.9969"/>
</g>
<!-- Node13 -->
<g id="node10" class="node">
<title>Node13</title>
<g id="a_node10"><a xlink:href="dd/df3/class_concept_def_alias_impl.html" target="_top" xlink:title=" ">
<polygon fill="#ffffff" stroke="#666666" points="552.5,-348 442.5,-348 442.5,-329 552.5,-329 552.5,-348"/>
<text text-anchor="middle" x="497.5" y="-336" font-family="Helvetica,sans-Serif" font-size="10.00" fill="#000000">ConceptDefAliasImpl</text>
</a>
</g>
</g>
<!-- Node12&#45;&gt;Node13 -->
<g id="edge9" class="edge">
<title>Node12&#45;&gt;Node13</title>
<path fill="none" stroke="#63b8ff" d="M381.6048,-338.5C401.3839,-338.5 423.1189,-338.5 442.3692,-338.5"/>
<polygon fill="#63b8ff" stroke="#63b8ff" points="381.4635,-335.0001 371.4635,-338.5 381.4634,-342.0001 381.4635,-335.0001"/>
</g>
<!-- Node9 -->
<g id="node12" class="node">
<title>Node9</title>
<g id="a_node12"><a xlink:href="dd/d10/class_definition_mixin.html" target="_top" xlink:title=" ">
<polygon fill="#ffffff" stroke="#666666" points="561,-396.5 434,-396.5 434,-366.5 561,-366.5 561,-396.5"/>
<text text-anchor="start" x="442" y="-384.5" font-family="Helvetica,sans-Serif" font-size="10.00" fill="#000000">DefinitionMixin&lt; Concept</text>
<text text-anchor="middle" x="497.5" y="-373.5" font-family="Helvetica,sans-Serif" font-size="10.00" fill="#000000">DefMutable &gt;</text>
</a>
</g>
</g>
<!-- Node8&#45;&gt;Node9 -->
<g id="edge11" class="edge">
<title>Node8&#45;&gt;Node9</title>
<path fill="none" stroke="#63b8ff" d="M382.1612,-381.5C398.8936,-381.5 416.9911,-381.5 433.7799,-381.5"/>
<polygon fill="#63b8ff" stroke="#63b8ff" points="381.9432,-378.0001 371.9431,-381.5 381.9431,-385.0001 381.9432,-378.0001"/>
</g>
<!-- Node10 -->
<g id="node13" class="node">
<title>Node10</title>
<g id="a_node13"><a xlink:href="d8/d72/class_concept_def_impl.html" target="_top" xlink:title=" ">
<polygon fill="#ffffff" stroke="#666666" points="701,-391 613,-391 613,-372 701,-372 701,-391"/>
<text text-anchor="middle" x="657" y="-379" font-family="Helvetica,sans-Serif" font-size="10.00" fill="#000000">ConceptDefImpl</text>
</a>
</g>
</g>
<!-- Node9&#45;&gt;Node10 -->
<g id="edge12" class="edge">
<title>Node9&#45;&gt;Node10</title>
<path fill="none" stroke="#63b8ff" d="M571.6019,-381.5C585.6272,-381.5 599.8866,-381.5 612.6333,-381.5"/>
<polygon fill="#63b8ff" stroke="#63b8ff" points="571.4558,-378.0001 561.4557,-381.5 571.4557,-385.0001 571.4558,-378.0001"/>
</g>
<!-- Node15 -->
<g id="node15" class="node">
<title>Node15</title>
<g id="a_node15"><a xlink:href="dd/d10/class_definition_mixin.html" target="_top" xlink:title=" ">
<polygon fill="#ffffff" stroke="#666666" points="383.5,-305 255.5,-305 255.5,-286 383.5,-286 383.5,-305"/>
<text text-anchor="middle" x="319.5" y="-293" font-family="Helvetica,sans-Serif" font-size="10.00" fill="#000000">DefinitionMixin&lt; DirDef &gt;</text>
</a>
</g>
</g>
<!-- Node14&#45;&gt;Node15 -->
<g id="edge14" class="edge">
<title>Node14&#45;&gt;Node15</title>
<path fill="none" stroke="#63b8ff" d="M203.1386,-295.5C218.4819,-295.5 237.3324,-295.5 255.358,-295.5"/>
<polygon fill="#63b8ff" stroke="#63b8ff" points="203.1299,-292.0001 193.1299,-295.5 203.1299,-299.0001 203.1299,-292.0001"/>
</g>
<!-- Node16 -->
<g id="node16" class="node">
<title>Node16</title>
<g id="a_node16"><a xlink:href="d8/db7/class_dir_def_impl.html" target="_top" xlink:title=" ">
<polygon fill="#ffffff" stroke="#666666" points="529.5,-308 465.5,-308 465.5,-289 529.5,-289 529.5,-308"/>
<text text-anchor="middle" x="497.5" y="-296" font-family="Helvetica,sans-Serif" font-size="10.00" fill="#000000">DirDefImpl</text>
</a>
</g>
</g>
<!-- Node15&#45;&gt;Node16 -->
<g id="edge15" class="edge">
<title>Node15&#45;&gt;Node16</title>
<path fill="none" stroke="#63b8ff" d="M393.7099,-296.7507C418.6568,-297.1712 445.1987,-297.6185 465.197,-297.9556"/>
<polygon fill="#63b8ff" stroke="#63b8ff" points="393.5682,-293.2479 383.5106,-296.5788 393.4502,-300.2469 393.5682,-293.2479"/>
</g>
<!-- Node18 -->
<g id="node18" class="node">
<title>Node18</title>
<g id="a_node18"><a xlink:href="dd/d10/class_definition_mixin.html" target="_top" xlink:title=" ">
<polygon fill="#ffffff" stroke="#666666" points="385,-268 254,-268 254,-249 385,-249 385,-268"/>
<text text-anchor="middle" x="319.5" y="-256" font-family="Helvetica,sans-Serif" font-size="10.00" fill="#000000">DefinitionMixin&lt; FileDef &gt;</text>
</a>
</g>
</g>
<!-- Node17&#45;&gt;Node18 -->
<g id="edge17" class="edge">
<title>Node17&#45;&gt;Node18</title>
<path fill="none" stroke="#63b8ff" d="M204.8113,-258.5C219.3795,-258.5 236.8737,-258.5 253.7593,-258.5"/>
<polygon fill="#63b8ff" stroke="#63b8ff" points="204.7711,-255.0001 194.771,-258.5 204.771,-262.0001 204.7711,-255.0001"/>
</g>
<!-- Node19 -->
<g id="node19" class="node">
<title>Node19</title>
<g id="a_node19"><a xlink:href="d5/d14/class_file_def_impl.html" target="_top" xlink:title=" ">
<polygon fill="#ffffff" stroke="#666666" points="531,-271 464,-271 464,-252 531,-252 531,-271"/>
<text text-anchor="middle" x="497.5" y="-259" font-family="Helvetica,sans-Serif" font-size="10.00" fill="#000000">FileDefImpl</text>
</a>
</g>
</g>
<!-- Node18&#45;&gt;Node19 -->
<g id="edge18" class="edge">
<title>Node18&#45;&gt;Node19</title>
<path fill="none" stroke="#63b8ff" d="M395.1812,-259.7755C419.1218,-260.179 444.378,-260.6047 463.8078,-260.9322"/>
<polygon fill="#63b8ff" stroke="#63b8ff" points="395.0799,-256.2734 385.0223,-259.6043 394.9619,-263.2724 395.0799,-256.2734"/>
</g>
<!-- Node21 -->
<g id="node21" class="node">
<title>Node21</title>
<g id="a_node21"><a xlink:href="dd/d10/class_definition_mixin.html" target="_top" xlink:title=" ">
<polygon fill="#ffffff" stroke="#666666" points="390,-231 249,-231 249,-212 390,-212 390,-231"/>
<text text-anchor="middle" x="319.5" y="-219" font-family="Helvetica,sans-Serif" font-size="10.00" fill="#000000">DefinitionMixin&lt; GroupDef &gt;</text>
</a>
</g>
</g>
<!-- Node20&#45;&gt;Node21 -->
<g id="edge20" class="edge">
<title>Node20&#45;&gt;Node21</title>
<path fill="none" stroke="#63b8ff" d="M210.6523,-221.5C222.4305,-221.5 235.6752,-221.5 248.7644,-221.5"/>
<polygon fill="#63b8ff" stroke="#63b8ff" points="210.2943,-218.0001 200.2943,-221.5 210.2942,-225.0001 210.2943,-218.0001"/>
</g>
<!-- Node22 -->
<g id="node22" class="node">
<title>Node22</title>
<g id="a_node22"><a xlink:href="db/d22/class_group_def_impl.html" target="_top" xlink:title=" ">
<polygon fill="#ffffff" stroke="#666666" points="536,-234 459,-234 459,-215 536,-215 536,-234"/>
<text text-anchor="middle" x="497.5" y="-222" font-family="Helvetica,sans-Serif" font-size="10.00" fill="#000000">GroupDefImpl</text>
</a>
</g>
</g>
<!-- Node21&#45;&gt;Node22 -->
<g id="edge21" class="edge">
<title>Node21&#45;&gt;Node22</title>
<path fill="none" stroke="#63b8ff" d="M400.3819,-222.8632C420.7943,-223.2072 441.7811,-223.5609 458.9991,-223.8511"/>
<polygon fill="#63b8ff" stroke="#63b8ff" points="400.1636,-219.3591 390.106,-222.69 400.0455,-226.3581 400.1636,-219.3591"/>
</g>
<!-- Node27 -->
<g id="node24" class="node">
<title>Node27</title>
<g id="a_node24"><a xlink:href="d8/d83/class_definition_alias_mixin.html" target="_top" xlink:title=" ">
<polygon fill="#ffffff" stroke="#666666" points="371,-153.5 268,-153.5 268,-123.5 371,-123.5 371,-153.5"/>
<text text-anchor="start" x="276" y="-141.5" font-family="Helvetica,sans-Serif" font-size="10.00" fill="#000000">DefinitionAliasMixin</text>
<text text-anchor="middle" x="319.5" y="-130.5" font-family="Helvetica,sans-Serif" font-size="10.00" fill="#000000">&lt; MemberDef &gt;</text>
</a>
</g>
</g>
<!-- Node26&#45;&gt;Node27 -->
<g id="edge23" class="edge">
<title>Node26&#45;&gt;Node27</title>
<path fill="none" stroke="#63b8ff" d="M210.9443,-172.0139C229.4017,-166.3156 251.4128,-159.5202 270.7747,-153.5427"/>
<polygon fill="#63b8ff" stroke="#63b8ff" points="209.8954,-168.6746 201.3729,-174.9688 211.9604,-175.3631 209.8954,-168.6746"/>
</g>
<!-- Node23 -->
<g id="node26" class="node">
<title>Node23</title>
<g id="a_node26"><a xlink:href="dd/d4b/class_member_def_mutable.html" target="_top" xlink:title=" ">
<polygon fill="#ffffff" stroke="#666666" points="370.5,-191 268.5,-191 268.5,-172 370.5,-172 370.5,-191"/>
<text text-anchor="middle" x="319.5" y="-179" font-family="Helvetica,sans-Serif" font-size="10.00" fill="#000000">MemberDefMutable</text>
</a>
</g>
</g>
<!-- Node26&#45;&gt;Node23 -->
<g id="edge25" class="edge">
<title>Node26&#45;&gt;Node23</title>
<path fill="none" stroke="#63b8ff" d="M214.7819,-183.6084C231.5747,-183.2703 250.8337,-182.8825 268.2186,-182.5325"/>
<polygon fill="#63b8ff" stroke="#63b8ff" points="214.6111,-180.1111 204.6836,-183.8117 214.7521,-187.1096 214.6111,-180.1111"/>
</g>
<!-- Node28 -->
<g id="node25" class="node">
<title>Node28</title>
<g id="a_node25"><a xlink:href="d7/d70/class_member_def_alias_impl.html" target="_top" xlink:title=" ">
<polygon fill="#ffffff" stroke="#666666" points="551.5,-148 443.5,-148 443.5,-129 551.5,-129 551.5,-148"/>
<text text-anchor="middle" x="497.5" y="-136" font-family="Helvetica,sans-Serif" font-size="10.00" fill="#000000">MemberDefAliasImpl</text>
</a>
</g>
</g>
<!-- Node27&#45;&gt;Node28 -->
<g id="edge24" class="edge">
<title>Node27&#45;&gt;Node28</title>
<path fill="none" stroke="#63b8ff" d="M381.4719,-138.5C401.6074,-138.5 423.7822,-138.5 443.3048,-138.5"/>
<polygon fill="#63b8ff" stroke="#63b8ff" points="381.4635,-135.0001 371.4635,-138.5 381.4634,-142.0001 381.4635,-135.0001"/>
</g>
<!-- Node24 -->
<g id="node27" class="node">
<title>Node24</title>
<g id="a_node27"><a xlink:href="dd/d10/class_definition_mixin.html" target="_top" xlink:title=" ">
<polygon fill="#ffffff" stroke="#666666" points="568,-196.5 427,-196.5 427,-166.5 568,-166.5 568,-196.5"/>
<text text-anchor="start" x="435" y="-184.5" font-family="Helvetica,sans-Serif" font-size="10.00" fill="#000000">DefinitionMixin&lt; MemberDef</text>
<text text-anchor="middle" x="497.5" y="-173.5" font-family="Helvetica,sans-Serif" font-size="10.00" fill="#000000">Mutable &gt;</text>
</a>
</g>
</g>
<!-- Node23&#45;&gt;Node24 -->
<g id="edge26" class="edge">
<title>Node23&#45;&gt;Node24</title>
<path fill="none" stroke="#63b8ff" d="M380.622,-181.5C395.5336,-181.5 411.6067,-181.5 426.919,-181.5"/>
<polygon fill="#63b8ff" stroke="#63b8ff" points="380.5077,-178.0001 370.5077,-181.5 380.5076,-185.0001 380.5077,-178.0001"/>
</g>
<!-- Node25 -->
<g id="node28" class="node">
<title>Node25</title>
<g id="a_node28"><a xlink:href="d7/d7e/class_member_def_impl.html" target="_top" xlink:title=" ">
<polygon fill="#ffffff" stroke="#666666" points="700,-191 614,-191 614,-172 700,-172 700,-191"/>
<text text-anchor="middle" x="657" y="-179" font-family="Helvetica,sans-Serif" font-size="10.00" fill="#000000">MemberDefImpl</text>
</a>
</g>
</g>
<!-- Node24&#45;&gt;Node25 -->
<g id="edge27" class="edge">
<title>Node24&#45;&gt;Node25</title>
<path fill="none" stroke="#63b8ff" d="M578.5834,-181.5C590.7389,-181.5 602.8531,-181.5 613.7959,-181.5"/>
<polygon fill="#63b8ff" stroke="#63b8ff" points="578.3879,-178.0001 568.3879,-181.5 578.3878,-185.0001 578.3879,-178.0001"/>
</g>
<!-- Node33 -->
<g id="node30" class="node">
<title>Node33</title>
<g id="a_node30"><a xlink:href="d8/d83/class_definition_alias_mixin.html" target="_top" xlink:title=" ">
<polygon fill="#ffffff" stroke="#666666" points="371,-67.5 268,-67.5 268,-37.5 371,-37.5 371,-67.5"/>
<text text-anchor="start" x="276" y="-55.5" font-family="Helvetica,sans-Serif" font-size="10.00" fill="#000000">DefinitionAliasMixin</text>
<text text-anchor="middle" x="319.5" y="-44.5" font-family="Helvetica,sans-Serif" font-size="10.00" fill="#000000">&lt; NamespaceDef &gt;</text>
</a>
</g>
</g>
<!-- Node32&#45;&gt;Node33 -->
<g id="edge29" class="edge">
<title>Node32&#45;&gt;Node33</title>
<path fill="none" stroke="#63b8ff" d="M203.7717,-95.0603C217.7032,-89.5112 234.094,-83.0841 249,-77.5 257.7559,-74.2198 267.1633,-70.8072 276.1631,-67.5961"/>
<polygon fill="#63b8ff" stroke="#63b8ff" points="202.1037,-91.9578 194.1185,-98.9212 204.7032,-98.4573 202.1037,-91.9578"/>
</g>
<!-- Node29 -->
<g id="node32" class="node">
<title>Node29</title>
<g id="a_node32"><a xlink:href="dd/dd5/class_namespace_def_mutable.html" target="_top" xlink:title=" ">
<polygon fill="#ffffff" stroke="#666666" points="379,-105 260,-105 260,-86 379,-86 379,-105"/>
<text text-anchor="middle" x="319.5" y="-93" font-family="Helvetica,sans-Serif" font-size="10.00" fill="#000000">NamespaceDefMutable</text>
</a>
</g>
</g>
<!-- Node32&#45;&gt;Node29 -->
<g id="edge31" class="edge">
<title>Node32&#45;&gt;Node29</title>
<path fill="none" stroke="#63b8ff" d="M223.3478,-103.8891C235.1699,-102.8577 247.7886,-101.7567 259.8642,-100.7031"/>
<polygon fill="#63b8ff" stroke="#63b8ff" points="222.8553,-100.4187 213.1974,-104.7747 223.4638,-107.3922 222.8553,-100.4187"/>
</g>
<!-- Node34 -->
<g id="node31" class="node">
<title>Node34</title>
<g id="a_node31"><a xlink:href="d2/d9c/class_namespace_def_alias_impl.html" target="_top" xlink:title=" ">
<polygon fill="#ffffff" stroke="#666666" points="560,-62 435,-62 435,-43 560,-43 560,-62"/>
<text text-anchor="middle" x="497.5" y="-50" font-family="Helvetica,sans-Serif" font-size="10.00" fill="#000000">NamespaceDefAliasImpl</text>
</a>
</g>
</g>
<!-- Node33&#45;&gt;Node34 -->
<g id="edge30" class="edge">
<title>Node33&#45;&gt;Node34</title>
<path fill="none" stroke="#63b8ff" d="M381.9136,-52.5C399.0384,-52.5 417.6092,-52.5 434.7527,-52.5"/>
<polygon fill="#63b8ff" stroke="#63b8ff" points="381.4635,-49.0001 371.4635,-52.5 381.4634,-56.0001 381.4635,-49.0001"/>
</g>
<!-- Node30 -->
<g id="node33" class="node">
<title>Node30</title>
<g id="a_node33"><a xlink:href="dd/d10/class_definition_mixin.html" target="_top" xlink:title=" ">
<polygon fill="#ffffff" stroke="#666666" points="569,-110.5 426,-110.5 426,-80.5 569,-80.5 569,-110.5"/>
<text text-anchor="start" x="434" y="-98.5" font-family="Helvetica,sans-Serif" font-size="10.00" fill="#000000">DefinitionMixin&lt; Namespace</text>
<text text-anchor="middle" x="497.5" y="-87.5" font-family="Helvetica,sans-Serif" font-size="10.00" fill="#000000">DefMutable &gt;</text>
</a>
</g>
</g>
<!-- Node29&#45;&gt;Node30 -->
<g id="edge32" class="edge">
<title>Node29&#45;&gt;Node30</title>
<path fill="none" stroke="#63b8ff" d="M389.5941,-95.5C401.5109,-95.5 413.9019,-95.5 425.858,-95.5"/>
<polygon fill="#63b8ff" stroke="#63b8ff" points="389.2666,-92.0001 379.2666,-95.5 389.2666,-99.0001 389.2666,-92.0001"/>
</g>
<!-- Node31 -->
<g id="node34" class="node">
<title>Node31</title>
<g id="a_node34"><a xlink:href="d5/dfa/class_namespace_def_impl.html" target="_top" xlink:title=" ">
<polygon fill="#ffffff" stroke="#666666" points="709,-105 605,-105 605,-86 709,-86 709,-105"/>
<text text-anchor="middle" x="657" y="-93" font-family="Helvetica,sans-Serif" font-size="10.00" fill="#000000">NamespaceDefImpl</text>
</a>
</g>
</g>
<!-- Node30&#45;&gt;Node31 -->
<g id="edge33" class="edge">
<title>Node30&#45;&gt;Node31</title>
<path fill="none" stroke="#63b8ff" d="M579.3968,-95.5C587.99,-95.5 596.5499,-95.5 604.6771,-95.5"/>
<polygon fill="#63b8ff" stroke="#63b8ff" points="579.3179,-92.0001 569.3178,-95.5 579.3178,-99.0001 579.3179,-92.0001"/>
</g>
<!-- Node36 -->
<g id="node36" class="node">
<title>Node36</title>
<g id="a_node36"><a xlink:href="dd/d10/class_definition_mixin.html" target="_top" xlink:title=" ">
<polygon fill="#ffffff" stroke="#666666" points="388,-19 251,-19 251,0 388,0 388,-19"/>
<text text-anchor="middle" x="319.5" y="-7" font-family="Helvetica,sans-Serif" font-size="10.00" fill="#000000">DefinitionMixin&lt; PageDef &gt;</text>
</a>
</g>
</g>
<!-- Node35&#45;&gt;Node36 -->
<g id="edge35" class="edge">
<title>Node35&#45;&gt;Node36</title>
<path fill="none" stroke="#63b8ff" d="M208.1132,-26.6939C223.1482,-24.3731 240.864,-21.6384 257.69,-19.0411"/>
<polygon fill="#63b8ff" stroke="#63b8ff" points="207.5255,-23.2431 198.1766,-28.2278 208.5935,-30.1612 207.5255,-23.2431"/>
</g>
<!-- Node37 -->
<g id="node37" class="node">
<title>Node37</title>
<g id="a_node37"><a xlink:href="dd/de8/class_page_def_impl.html" target="_top" xlink:title=" ">
<polygon fill="#ffffff" stroke="#666666" points="534.5,-19 460.5,-19 460.5,0 534.5,0 534.5,-19"/>
<text text-anchor="middle" x="497.5" y="-7" font-family="Helvetica,sans-Serif" font-size="10.00" fill="#000000">PageDefImpl</text>
</a>
</g>
</g>
<!-- Node36&#45;&gt;Node37 -->
<g id="edge36" class="edge">
<title>Node36&#45;&gt;Node37</title>
<path fill="none" stroke="#63b8ff" d="M398.2091,-9.5C419.732,-9.5 442.0686,-9.5 460.093,-9.5"/>
<polygon fill="#63b8ff" stroke="#63b8ff" points="398.0649,-6.0001 388.0648,-9.5 398.0648,-13.0001 398.0649,-6.0001"/>
</g>
<!-- Node7 -->
<g id="node38" class="node">
<title>Node7</title>
<g id="a_node38"><a xlink:href="d0/d46/class_definition_mutable.html" target="_top" xlink:title=" ">
<polygon fill="#ffffff" stroke="#666666" points="92,-231 0,-231 0,-212 92,-212 92,-231"/>
<text text-anchor="middle" x="46" y="-219" font-family="Helvetica,sans-Serif" font-size="10.00" fill="#000000">DefinitionMutable</text>
</a>
</g>
</g>
<!-- Node7&#45;&gt;Node4 -->
<g id="edge37" class="edge">
<title>Node7&#45;&gt;Node4</title>
<path fill="none" stroke="#63b8ff" d="M88.7049,-237.1443C89.8782,-238.1925 90.9824,-239.3096 92,-240.5 136.5501,-292.6127 78.6886,-342.8677 128,-390.5 166.4352,-427.6264 230.0624,-433.832 273.3354,-433.111"/>
<polygon fill="#63b8ff" stroke="#63b8ff" points="90.3483,-234.0236 80.1422,-231.1799 86.3473,-239.7675 90.3483,-234.0236"/>
</g>
<!-- Node7&#45;&gt;Node8 -->
<g id="edge38" class="edge">
<title>Node7&#45;&gt;Node8</title>
<path fill="none" stroke="#63b8ff" d="M86.7105,-236.2243C88.5853,-237.5381 90.3637,-238.9607 92,-240.5 118.6396,-265.5602 101.1851,-289.6275 128,-314.5 150.5959,-335.4591 231.787,-359.0723 280.9036,-371.9168"/>
<polygon fill="#63b8ff" stroke="#63b8ff" points="88.4143,-233.1662 78.0155,-231.1372 84.8794,-239.2081 88.4143,-233.1662"/>
</g>
<!-- Node7&#45;&gt;Node14 -->
<g id="edge39" class="edge">
<title>Node7&#45;&gt;Node14</title>
<path fill="none" stroke="#63b8ff" d="M83.3464,-235.3623C86.3567,-236.9451 89.2816,-238.6585 92,-240.5 110.9958,-253.3678 109.0618,-264.5476 128,-277.5 133.9526,-281.5712 140.9726,-285.0045 147.5738,-287.7454"/>
<polygon fill="#63b8ff" stroke="#63b8ff" points="84.7154,-232.1378 74.1809,-231.0083 81.7117,-238.4607 84.7154,-232.1378"/>
</g>
<!-- Node7&#45;&gt;Node17 -->
<g id="edge40" class="edge">
<title>Node7&#45;&gt;Node17</title>
<path fill="none" stroke="#63b8ff" d="M87.6563,-233.8798C107.1862,-239.6839 129.764,-246.3937 146.4121,-251.3414"/>
<polygon fill="#63b8ff" stroke="#63b8ff" points="88.6446,-230.5223 78.0618,-231.0284 86.6504,-237.2322 88.6446,-230.5223"/>
</g>
<!-- Node7&#45;&gt;Node20 -->
<g id="edge41" class="edge">
<title>Node7&#45;&gt;Node20</title>
<path fill="none" stroke="#63b8ff" d="M102.1245,-221.5C115.5086,-221.5 129.2741,-221.5 140.9138,-221.5"/>
<polygon fill="#63b8ff" stroke="#63b8ff" points="102.0055,-218.0001 92.0055,-221.5 102.0054,-225.0001 102.0055,-218.0001"/>
</g>
<!-- Node7&#45;&gt;Node23 -->
<g id="edge42" class="edge">
<title>Node7&#45;&gt;Node23</title>
<path fill="none" stroke="#63b8ff" d="M63.823,-204.9201C79.4167,-191.6259 103.3703,-173.9951 128,-166.5 182.2365,-149.9953 248.8877,-162.0256 287.5481,-171.9711"/>
<polygon fill="#63b8ff" stroke="#63b8ff" points="61.2477,-202.5249 56.0687,-211.7677 65.8812,-207.7719 61.2477,-202.5249"/>
</g>
<!-- Node7&#45;&gt;Node29 -->
<g id="edge43" class="edge">
<title>Node7&#45;&gt;Node29</title>
<path fill="none" stroke="#63b8ff" d="M51.5044,-202.0949C61.2534,-171.8522 84.7269,-114.4646 128,-90.5 179.0604,-62.2228 250.1123,-75.0661 289.7484,-85.9395"/>
<polygon fill="#63b8ff" stroke="#63b8ff" points="48.0846,-201.3108 48.5223,-211.8966 54.7815,-203.3483 48.0846,-201.3108"/>
</g>
<!-- Node7&#45;&gt;Node35 -->
<g id="edge44" class="edge">
<title>Node7&#45;&gt;Node35</title>
<path fill="none" stroke="#63b8ff" d="M51.5604,-201.8742C61.8505,-168.5002 86.6642,-100.08 128,-56.5 133.4815,-50.7209 140.6677,-45.95 147.5676,-42.226"/>
<polygon fill="#63b8ff" stroke="#63b8ff" points="48.1156,-201.1797 48.6246,-211.7623 54.8261,-203.1721 48.1156,-201.1797"/>
</g>
</g>
</svg>
