<?xml version="1.0" encoding="UTF-8" standalone="no"?>
<!DOCTYPE svg PUBLIC "-//W3C//DTD SVG 1.1//EN"
 "http://www.w3.org/Graphics/SVG/1.1/DTD/svg11.dtd">
<!-- Generated by graphviz version 2.40.1 (20161225.0304)
 -->
<!-- Title: Graphical Class Hierarchy Pages: 1 -->
<svg width="225pt" height="64pt"
 viewBox="0.00 0.00 225.00 64.00" xmlns="http://www.w3.org/2000/svg" xmlns:xlink="http://www.w3.org/1999/xlink">
<g id="graph0" class="graph" transform="scale(1 1) rotate(0) translate(4 60)">
<title>Graphical Class Hierarchy</title>
<!-- Node0 -->
<g id="node1" class="node">
<title>Node0</title>
<g id="a_node1"><a xlink:href="d4/d9c/class_template_escape_intf.html" target="_top" xlink:title="Interface used to escape characters in a string.">
<polygon fill="#ffffff" stroke="#666666" points="104,-37 0,-37 0,-18 104,-18 104,-37"/>
<text text-anchor="middle" x="52" y="-25" font-family="Helvetica,sans-Serif" font-size="10.00" fill="#000000">TemplateEscapeIntf</text>
</a>
</g>
</g>
<!-- Node1 -->
<g id="node2" class="node">
<title>Node1</title>
<g id="a_node2"><a xlink:href="dc/d97/class_html_escaper.html" target="_top" xlink:title=" ">
<polygon fill="#ffffff" stroke="#666666" points="215.5,-56 141.5,-56 141.5,-37 215.5,-37 215.5,-56"/>
<text text-anchor="middle" x="178.5" y="-44" font-family="Helvetica,sans-Serif" font-size="10.00" fill="#000000">HtmlEscaper</text>
</a>
</g>
</g>
<!-- Node0&#45;&gt;Node1 -->
<g id="edge1" class="edge">
<title>Node0&#45;&gt;Node1</title>
<path fill="none" stroke="#63b8ff" d="M114.2499,-36.8498C123.5733,-38.2501 132.9256,-39.6548 141.4964,-40.9421"/>
<polygon fill="#63b8ff" stroke="#63b8ff" points="114.5917,-33.3619 104.1827,-35.3377 113.5519,-40.2843 114.5917,-33.3619"/>
</g>
<!-- Node2 -->
<g id="node3" class="node">
<title>Node2</title>
<g id="a_node3"><a xlink:href="da/dd3/class_latex_escaper.html" target="_top" xlink:title=" ">
<polygon fill="#ffffff" stroke="#666666" points="217,-19 140,-19 140,0 217,0 217,-19"/>
<text text-anchor="middle" x="178.5" y="-7" font-family="Helvetica,sans-Serif" font-size="10.00" fill="#000000">LatexEscaper</text>
</a>
</g>
</g>
<!-- Node0&#45;&gt;Node2 -->
<g id="edge2" class="edge">
<title>Node0&#45;&gt;Node2</title>
<path fill="none" stroke="#63b8ff" d="M114.0946,-18.6644C122.9175,-17.409 131.7703,-16.1493 139.9661,-14.9831"/>
<polygon fill="#63b8ff" stroke="#63b8ff" points="113.5899,-15.2009 104.1827,-20.0748 114.5761,-22.1311 113.5899,-15.2009"/>
</g>
</g>
</svg>
