<?xml version="1.0" encoding="UTF-8" standalone="no"?>
<!DOCTYPE svg PUBLIC "-//W3C//DTD SVG 1.1//EN"
 "http://www.w3.org/Graphics/SVG/1.1/DTD/svg11.dtd">
<!-- Generated by graphviz version 2.40.1 (20161225.0304)
 -->
<!-- Title: Graphical Class Hierarchy Pages: 1 -->
<svg width="541pt" height="304pt"
 viewBox="0.00 0.00 541.00 304.00" xmlns="http://www.w3.org/2000/svg" xmlns:xlink="http://www.w3.org/1999/xlink">
<g id="graph0" class="graph" transform="scale(1 1) rotate(0) translate(4 300)">
<title>Graphical Class Hierarchy</title>
<!-- Node0 -->
<g id="node1" class="node">
<title>Node0</title>
<g id="a_node1"><a xlink:href="d5/d9c/class_code_output_interface.html" target="_top" xlink:title="Output interface for code parser.">
<polygon fill="#ffffff" stroke="#666666" points="107,-111 0,-111 0,-92 107,-92 107,-111"/>
<text text-anchor="middle" x="53.5" y="-99" font-family="Helvetica,sans-Serif" font-size="10.00" fill="#000000">CodeOutputInterface</text>
</a>
</g>
</g>
<!-- Node1 -->
<g id="node2" class="node">
<title>Node1</title>
<g id="a_node2"><a xlink:href="df/d27/class_base_output_doc_interface.html" target="_top" xlink:title="Base Interface used for generating output outside of the comment blocks.">
<polygon fill="#ffffff" stroke="#666666" points="271,-204 146,-204 146,-185 271,-185 271,-204"/>
<text text-anchor="middle" x="208.5" y="-192" font-family="Helvetica,sans-Serif" font-size="10.00" fill="#000000">BaseOutputDocInterface</text>
</a>
</g>
</g>
<!-- Node0&#45;&gt;Node1 -->
<g id="edge1" class="edge">
<title>Node0&#45;&gt;Node1</title>
<path fill="none" stroke="#63b8ff" d="M69.4779,-118.6531C86.2488,-135.6837 114.1456,-161.374 143,-176.5 149.3714,-179.84 156.4254,-182.6103 163.4749,-184.8927"/>
<polygon fill="#63b8ff" stroke="#63b8ff" points="71.6391,-115.8513 62.1832,-111.0725 66.5951,-120.705 71.6391,-115.8513"/>
</g>
<!-- Node9 -->
<g id="node10" class="node">
<title>Node9</title>
<g id="a_node10"><a xlink:href="dd/d8a/class_dev_null_code_doc_interface.html" target="_top" xlink:title="Class implementing CodeOutputInterface by throwing away everything.">
<polygon fill="#ffffff" stroke="#666666" points="274,-167 143,-167 143,-148 274,-148 274,-167"/>
<text text-anchor="middle" x="208.5" y="-155" font-family="Helvetica,sans-Serif" font-size="10.00" fill="#000000">DevNullCodeDocInterface</text>
</a>
</g>
</g>
<!-- Node0&#45;&gt;Node9 -->
<g id="edge9" class="edge">
<title>Node0&#45;&gt;Node9</title>
<path fill="none" stroke="#63b8ff" d="M83.3249,-115.3444C100.5454,-123.0382 122.7422,-132.4512 143,-139.5 151.7991,-142.5617 161.4051,-145.4479 170.482,-147.9753"/>
<polygon fill="#63b8ff" stroke="#63b8ff" points="84.367,-111.9745 73.8131,-111.0439 81.4832,-118.3529 84.367,-111.9745"/>
</g>
<!-- Node10 -->
<g id="node11" class="node">
<title>Node10</title>
<g id="a_node11"><a xlink:href="d7/d80/class_docbook_code_generator.html" target="_top" xlink:title=" ">
<polygon fill="#ffffff" stroke="#666666" points="269.5,-130 147.5,-130 147.5,-111 269.5,-111 269.5,-130"/>
<text text-anchor="middle" x="208.5" y="-118" font-family="Helvetica,sans-Serif" font-size="10.00" fill="#000000">DocbookCodeGenerator</text>
</a>
</g>
</g>
<!-- Node0&#45;&gt;Node10 -->
<g id="edge10" class="edge">
<title>Node0&#45;&gt;Node10</title>
<path fill="none" stroke="#63b8ff" d="M117.4518,-109.3393C127.3488,-110.5524 137.5499,-111.8029 147.3824,-113.0082"/>
<polygon fill="#63b8ff" stroke="#63b8ff" points="117.6281,-105.8347 107.2765,-108.092 116.7763,-112.7827 117.6281,-105.8347"/>
</g>
<!-- Node11 -->
<g id="node12" class="node">
<title>Node11</title>
<g id="a_node12"><a xlink:href="da/db6/class_html_code_generator.html" target="_top" xlink:title=" ">
<polygon fill="#ffffff" stroke="#666666" points="260.5,-93 156.5,-93 156.5,-74 260.5,-74 260.5,-93"/>
<text text-anchor="middle" x="208.5" y="-81" font-family="Helvetica,sans-Serif" font-size="10.00" fill="#000000">HtmlCodeGenerator</text>
</a>
</g>
</g>
<!-- Node0&#45;&gt;Node11 -->
<g id="edge11" class="edge">
<title>Node0&#45;&gt;Node11</title>
<path fill="none" stroke="#63b8ff" d="M117.5152,-94.066C130.4561,-92.5632 143.9146,-91.0002 156.3869,-89.5518"/>
<polygon fill="#63b8ff" stroke="#63b8ff" points="116.806,-90.6247 107.2765,-95.255 117.6135,-97.578 116.806,-90.6247"/>
</g>
<!-- Node12 -->
<g id="node13" class="node">
<title>Node12</title>
<g id="a_node13"><a xlink:href="d0/d37/class_latex_code_generator.html" target="_top" xlink:title=" ">
<polygon fill="#ffffff" stroke="#666666" points="262,-56 155,-56 155,-37 262,-37 262,-56"/>
<text text-anchor="middle" x="208.5" y="-44" font-family="Helvetica,sans-Serif" font-size="10.00" fill="#000000">LatexCodeGenerator</text>
</a>
</g>
</g>
<!-- Node0&#45;&gt;Node12 -->
<g id="edge12" class="edge">
<title>Node0&#45;&gt;Node12</title>
<path fill="none" stroke="#63b8ff" d="M85.1516,-87.8684C102.1464,-80.7785 123.5459,-72.2153 143,-65.5 152.7373,-62.1388 163.4211,-58.8678 173.2835,-56.0139"/>
<polygon fill="#63b8ff" stroke="#63b8ff" points="83.5602,-84.7408 75.7023,-91.8474 86.2768,-91.1921 83.5602,-84.7408"/>
</g>
<!-- Node13 -->
<g id="node14" class="node">
<title>Node13</title>
<g id="a_node14"><a xlink:href="dd/d66/class_x_m_l_code_generator.html" target="_top" xlink:title=" ">
<polygon fill="#ffffff" stroke="#666666" points="260,-19 157,-19 157,0 260,0 260,-19"/>
<text text-anchor="middle" x="208.5" y="-7" font-family="Helvetica,sans-Serif" font-size="10.00" fill="#000000">XMLCodeGenerator</text>
</a>
</g>
</g>
<!-- Node0&#45;&gt;Node13 -->
<g id="edge13" class="edge">
<title>Node0&#45;&gt;Node13</title>
<path fill="none" stroke="#63b8ff" d="M69.8832,-84.6432C86.7874,-68.148 114.6196,-43.3932 143,-28.5 150.2342,-24.7037 158.3271,-21.5735 166.2903,-19.0262"/>
<polygon fill="#63b8ff" stroke="#63b8ff" points="67.1175,-82.4583 62.5082,-91.9979 72.0605,-87.4149 67.1175,-82.4583"/>
</g>
<!-- Node2 -->
<g id="node3" class="node">
<title>Node2</title>
<g id="a_node3"><a xlink:href="d3/d8e/class_output_generator.html" target="_top" xlink:title="Abstract output generator.">
<polygon fill="#ffffff" stroke="#666666" points="399,-222 310,-222 310,-203 399,-203 399,-222"/>
<text text-anchor="middle" x="354.5" y="-210" font-family="Helvetica,sans-Serif" font-size="10.00" fill="#000000">OutputGenerator</text>
</a>
</g>
</g>
<!-- Node1&#45;&gt;Node2 -->
<g id="edge2" class="edge">
<title>Node1&#45;&gt;Node2</title>
<path fill="none" stroke="#63b8ff" d="M281.3659,-203.4835C291.0881,-204.6821 300.8134,-205.8811 309.8522,-206.9955"/>
<polygon fill="#63b8ff" stroke="#63b8ff" points="281.6176,-199.9881 271.2645,-202.2381 280.761,-206.9355 281.6176,-199.9881"/>
</g>
<!-- Node8 -->
<g id="node9" class="node">
<title>Node8</title>
<g id="a_node9"><a xlink:href="df/dc8/class_output_list.html" target="_top" xlink:title="Class representing a list of output generators that are written to in parallel.">
<polygon fill="#ffffff" stroke="#666666" points="385.5,-185 323.5,-185 323.5,-166 385.5,-166 385.5,-185"/>
<text text-anchor="middle" x="354.5" y="-173" font-family="Helvetica,sans-Serif" font-size="10.00" fill="#000000">OutputList</text>
</a>
</g>
</g>
<!-- Node1&#45;&gt;Node8 -->
<g id="edge8" class="edge">
<title>Node1&#45;&gt;Node8</title>
<path fill="none" stroke="#63b8ff" d="M281.4098,-185.0117C296.1076,-183.099 310.8102,-181.1857 323.1345,-179.5818"/>
<polygon fill="#63b8ff" stroke="#63b8ff" points="280.7291,-181.5707 271.2645,-186.332 281.6325,-188.5122 280.7291,-181.5707"/>
</g>
<!-- Node3 -->
<g id="node4" class="node">
<title>Node3</title>
<g id="a_node4"><a xlink:href="d1/d72/class_docbook_generator.html" target="_top" xlink:title=" ">
<polygon fill="#ffffff" stroke="#666666" points="533,-296 435,-296 435,-277 533,-277 533,-296"/>
<text text-anchor="middle" x="484" y="-284" font-family="Helvetica,sans-Serif" font-size="10.00" fill="#000000">DocbookGenerator</text>
</a>
</g>
</g>
<!-- Node2&#45;&gt;Node3 -->
<g id="edge3" class="edge">
<title>Node2&#45;&gt;Node3</title>
<path fill="none" stroke="#63b8ff" d="M374.1135,-228.2838C389.8791,-240.4303 412.9566,-257.0261 435,-268.5 441.0292,-271.6383 447.7314,-274.4827 454.1947,-276.936"/>
<polygon fill="#63b8ff" stroke="#63b8ff" points="376.1909,-225.4651 366.1601,-222.0543 371.8746,-230.976 376.1909,-225.4651"/>
</g>
<!-- Node4 -->
<g id="node5" class="node">
<title>Node4</title>
<g id="a_node5"><a xlink:href="d7/d41/class_html_generator.html" target="_top" xlink:title="Generator for HTML output.">
<polygon fill="#ffffff" stroke="#666666" points="524,-259 444,-259 444,-240 524,-240 524,-259"/>
<text text-anchor="middle" x="484" y="-247" font-family="Helvetica,sans-Serif" font-size="10.00" fill="#000000">HtmlGenerator</text>
</a>
</g>
</g>
<!-- Node2&#45;&gt;Node4 -->
<g id="edge4" class="edge">
<title>Node2&#45;&gt;Node4</title>
<path fill="none" stroke="#63b8ff" d="M397.6413,-224.8261C414.7927,-229.7265 434.2289,-235.2797 450.3135,-239.8753"/>
<polygon fill="#63b8ff" stroke="#63b8ff" points="398.4263,-221.4104 387.8495,-222.0284 396.5032,-228.141 398.4263,-221.4104"/>
</g>
<!-- Node5 -->
<g id="node6" class="node">
<title>Node5</title>
<g id="a_node6"><a xlink:href="d3/d77/class_latex_generator.html" target="_top" xlink:title="Generator for LaTeX output.">
<polygon fill="#ffffff" stroke="#666666" points="525.5,-222 442.5,-222 442.5,-203 525.5,-203 525.5,-222"/>
<text text-anchor="middle" x="484" y="-210" font-family="Helvetica,sans-Serif" font-size="10.00" fill="#000000">LatexGenerator</text>
</a>
</g>
</g>
<!-- Node2&#45;&gt;Node5 -->
<g id="edge5" class="edge">
<title>Node2&#45;&gt;Node5</title>
<path fill="none" stroke="#63b8ff" d="M409.1367,-212.5C420.2696,-212.5 431.8115,-212.5 442.4018,-212.5"/>
<polygon fill="#63b8ff" stroke="#63b8ff" points="409.0666,-209.0001 399.0666,-212.5 409.0665,-216.0001 409.0666,-209.0001"/>
</g>
<!-- Node6 -->
<g id="node7" class="node">
<title>Node6</title>
<g id="a_node7"><a xlink:href="de/da5/class_man_generator.html" target="_top" xlink:title="Generator for Man page output.">
<polygon fill="#ffffff" stroke="#666666" points="523,-185 445,-185 445,-166 523,-166 523,-185"/>
<text text-anchor="middle" x="484" y="-173" font-family="Helvetica,sans-Serif" font-size="10.00" fill="#000000">ManGenerator</text>
</a>
</g>
</g>
<!-- Node2&#45;&gt;Node6 -->
<g id="edge6" class="edge">
<title>Node2&#45;&gt;Node6</title>
<path fill="none" stroke="#63b8ff" d="M397.6413,-200.1739C414.7927,-195.2735 434.2289,-189.7203 450.3135,-185.1247"/>
<polygon fill="#63b8ff" stroke="#63b8ff" points="396.5032,-196.859 387.8495,-202.9716 398.4263,-203.5896 396.5032,-196.859"/>
</g>
<!-- Node7 -->
<g id="node8" class="node">
<title>Node7</title>
<g id="a_node8"><a xlink:href="d0/da4/class_r_t_f_generator.html" target="_top" xlink:title="Generator for RTF output.">
<polygon fill="#ffffff" stroke="#666666" points="523.5,-148 444.5,-148 444.5,-129 523.5,-129 523.5,-148"/>
<text text-anchor="middle" x="484" y="-136" font-family="Helvetica,sans-Serif" font-size="10.00" fill="#000000">RTFGenerator</text>
</a>
</g>
</g>
<!-- Node2&#45;&gt;Node7 -->
<g id="edge7" class="edge">
<title>Node2&#45;&gt;Node7</title>
<path fill="none" stroke="#63b8ff" d="M392.3165,-198.5213C394.6334,-197.2643 396.8817,-195.9236 399,-194.5 418.0428,-181.7019 415.8651,-170.16 435,-157.5 440.6309,-153.7745 447.1008,-150.6152 453.454,-148.006"/>
<polygon fill="#63b8ff" stroke="#63b8ff" points="390.6421,-195.4434 383.1702,-202.9548 393.6954,-201.7424 390.6421,-195.4434"/>
</g>
</g>
</svg>
