<?xml version="1.0" encoding="UTF-8" standalone="no"?>
<!DOCTYPE svg PUBLIC "-//W3C//DTD SVG 1.1//EN"
 "http://www.w3.org/Graphics/SVG/1.1/DTD/svg11.dtd">
<!-- Generated by graphviz version 2.40.1 (20161225.0304)
 -->
<!-- Title: Graphical Class Hierarchy Pages: 1 -->
<svg width="205pt" height="76pt"
 viewBox="0.00 0.00 205.00 75.50" xmlns="http://www.w3.org/2000/svg" xmlns:xlink="http://www.w3.org/1999/xlink">
<g id="graph0" class="graph" transform="scale(1 1) rotate(0) translate(4 71.5)">
<title>Graphical Class Hierarchy</title>
<!-- Node0 -->
<g id="node1" class="node">
<title>Node0</title>
<g id="a_node1"><a xlink:title=" ">
<polygon fill="#e0e0e0" stroke="#999999" points="39,-40 0,-40 0,-21 39,-21 39,-40"/>
<text text-anchor="middle" x="19.5" y="-28" font-family="Helvetica,sans-Serif" font-size="10.00" fill="#000000">Base</text>
</a>
</g>
</g>
<!-- Node1 -->
<g id="node2" class="node">
<title>Node1</title>
<g id="a_node2"><a xlink:href="d8/d83/class_definition_alias_mixin.html" target="_top" xlink:title=" ">
<polygon fill="#ffffff" stroke="#666666" points="187.5,-67.5 84.5,-67.5 84.5,-37.5 187.5,-37.5 187.5,-67.5"/>
<text text-anchor="start" x="92.5" y="-55.5" font-family="Helvetica,sans-Serif" font-size="10.00" fill="#000000">DefinitionAliasMixin</text>
<text text-anchor="middle" x="136" y="-44.5" font-family="Helvetica,sans-Serif" font-size="10.00" fill="#000000">&lt; Base &gt;</text>
</a>
</g>
</g>
<!-- Node0&#45;&gt;Node1 -->
<g id="edge1" class="edge">
<title>Node0&#45;&gt;Node1</title>
<path fill="none" stroke="#63b8ff" d="M49.3315,-36.1334C60.0437,-38.1563 72.4543,-40.5 84.4775,-42.7704"/>
<polygon fill="#63b8ff" stroke="#63b8ff" points="49.7385,-32.6485 39.2626,-34.232 48.4395,-39.5269 49.7385,-32.6485"/>
</g>
<!-- Node2 -->
<g id="node3" class="node">
<title>Node2</title>
<g id="a_node3"><a xlink:href="dd/d10/class_definition_mixin.html" target="_top" xlink:title=" ">
<polygon fill="#ffffff" stroke="#666666" points="197,-19 75,-19 75,0 197,0 197,-19"/>
<text text-anchor="middle" x="136" y="-7" font-family="Helvetica,sans-Serif" font-size="10.00" fill="#000000">DefinitionMixin&lt; Base &gt;</text>
</a>
</g>
</g>
<!-- Node0&#45;&gt;Node2 -->
<g id="edge2" class="edge">
<title>Node0&#45;&gt;Node2</title>
<path fill="none" stroke="#63b8ff" d="M49.3786,-25.1142C59.7079,-23.2522 71.6122,-21.1064 83.2237,-19.0133"/>
<polygon fill="#63b8ff" stroke="#63b8ff" points="48.4831,-21.7191 39.2626,-26.9376 49.725,-28.6081 48.4831,-21.7191"/>
</g>
</g>
</svg>
