<?xml version="1.0" encoding="UTF-8" standalone="no"?>
<!DOCTYPE svg PUBLIC "-//W3C//DTD SVG 1.1//EN"
 "http://www.w3.org/Graphics/SVG/1.1/DTD/svg11.dtd">
<!-- Generated by graphviz version 2.40.1 (20161225.0304)
 -->
<!-- Title: Graphical Class Hierarchy Pages: 1 -->
<svg width="409pt" height="286pt"
 viewBox="0.00 0.00 409.00 286.00" xmlns="http://www.w3.org/2000/svg" xmlns:xlink="http://www.w3.org/1999/xlink">
<g id="graph0" class="graph" transform="scale(1 1) rotate(0) translate(4 282)">
<title>Graphical Class Hierarchy</title>
<!-- Node0 -->
<g id="node1" class="node">
<title>Node0</title>
<g id="a_node1"><a xlink:href="d4/d65/class_code_parser_interface.html" target="_top" xlink:title="Abstract interface for code parsers.">
<polygon fill="#ffffff" stroke="#666666" points="107,-148 0,-148 0,-129 107,-129 107,-148"/>
<text text-anchor="middle" x="53.5" y="-136" font-family="Helvetica,sans-Serif" font-size="10.00" fill="#000000">CodeParserInterface</text>
</a>
</g>
</g>
<!-- Node1 -->
<g id="node2" class="node">
<title>Node1</title>
<g id="a_node2"><a xlink:href="d0/d53/class_c_code_parser.html" target="_top" xlink:title=" ">
<polygon fill="#ffffff" stroke="#666666" points="230.5,-278 154.5,-278 154.5,-259 230.5,-259 230.5,-278"/>
<text text-anchor="middle" x="192.5" y="-266" font-family="Helvetica,sans-Serif" font-size="10.00" fill="#000000">CCodeParser</text>
</a>
</g>
</g>
<!-- Node0&#45;&gt;Node1 -->
<g id="edge1" class="edge">
<title>Node0&#45;&gt;Node1</title>
<path fill="none" stroke="#63b8ff" d="M63.693,-156.7562C78.2717,-181.3171 107.3014,-224.8694 143,-250.5 147.6797,-253.8599 153.0539,-256.6562 158.4974,-258.9628"/>
<polygon fill="#63b8ff" stroke="#63b8ff" points="66.7042,-154.9717 58.6695,-148.0656 60.6438,-158.4749 66.7042,-154.9717"/>
</g>
<!-- Node2 -->
<g id="node3" class="node">
<title>Node2</title>
<g id="a_node3"><a xlink:href="da/d02/class_file_code_parser.html" target="_top" xlink:title="Generic code parser.">
<polygon fill="#ffffff" stroke="#666666" points="234.5,-241 150.5,-241 150.5,-222 234.5,-222 234.5,-241"/>
<text text-anchor="middle" x="192.5" y="-229" font-family="Helvetica,sans-Serif" font-size="10.00" fill="#000000">FileCodeParser</text>
</a>
</g>
</g>
<!-- Node0&#45;&gt;Node2 -->
<g id="edge2" class="edge">
<title>Node0&#45;&gt;Node2</title>
<path fill="none" stroke="#63b8ff" d="M70.0143,-155.4429C87.02,-172.0989 114.9292,-197.3111 143,-213.5 148.6242,-216.7436 154.9362,-219.5725 161.1219,-221.9673"/>
<polygon fill="#63b8ff" stroke="#63b8ff" points="72.139,-152.6185 62.589,-148.0307 67.1936,-157.5726 72.139,-152.6185"/>
</g>
<!-- Node3 -->
<g id="node4" class="node">
<title>Node3</title>
<g id="a_node4"><a xlink:href="d8/dc0/class_fortran_code_parser.html" target="_top" xlink:title=" ">
<polygon fill="#ffffff" stroke="#666666" points="242,-204 143,-204 143,-185 242,-185 242,-204"/>
<text text-anchor="middle" x="192.5" y="-192" font-family="Helvetica,sans-Serif" font-size="10.00" fill="#000000">FortranCodeParser</text>
</a>
</g>
</g>
<!-- Node0&#45;&gt;Node3 -->
<g id="edge3" class="edge">
<title>Node0&#45;&gt;Node3</title>
<path fill="none" stroke="#63b8ff" d="M84.5832,-152.1737C101.7232,-159.5932 123.4365,-168.796 143,-176.5 150.2321,-179.3479 158.1188,-182.2891 165.428,-184.9476"/>
<polygon fill="#63b8ff" stroke="#63b8ff" points="85.6369,-148.8153 75.0707,-148.0362 82.8448,-155.2344 85.6369,-148.8153"/>
</g>
<!-- Node6 -->
<g id="node7" class="node">
<title>Node6</title>
<g id="a_node7"><a xlink:href="da/d18/class_lex_code_parser.html" target="_top" xlink:title="LEX code scanner.">
<polygon fill="#ffffff" stroke="#666666" points="234.5,-167 150.5,-167 150.5,-148 234.5,-148 234.5,-167"/>
<text text-anchor="middle" x="192.5" y="-155" font-family="Helvetica,sans-Serif" font-size="10.00" fill="#000000">LexCodeParser</text>
</a>
</g>
</g>
<!-- Node0&#45;&gt;Node6 -->
<g id="edge6" class="edge">
<title>Node0&#45;&gt;Node6</title>
<path fill="none" stroke="#63b8ff" d="M117.3522,-147.228C128.4572,-148.7459 139.7557,-150.2903 150.1037,-151.7048"/>
<polygon fill="#63b8ff" stroke="#63b8ff" points="117.6229,-143.7325 107.241,-145.8459 116.6749,-150.668 117.6229,-143.7325"/>
</g>
<!-- Node7 -->
<g id="node8" class="node">
<title>Node7</title>
<g id="a_node8"><a xlink:href="d5/d3e/class_python_code_parser.html" target="_top" xlink:title=" ">
<polygon fill="#ffffff" stroke="#666666" points="242,-130 143,-130 143,-111 242,-111 242,-130"/>
<text text-anchor="middle" x="192.5" y="-118" font-family="Helvetica,sans-Serif" font-size="10.00" fill="#000000">PythonCodeParser</text>
</a>
</g>
</g>
<!-- Node0&#45;&gt;Node7 -->
<g id="edge7" class="edge">
<title>Node0&#45;&gt;Node7</title>
<path fill="none" stroke="#63b8ff" d="M117.2864,-130.2399C125.9173,-129.1222 134.6665,-127.9892 142.9968,-126.9105"/>
<polygon fill="#63b8ff" stroke="#63b8ff" points="116.7087,-126.7854 107.241,-131.5407 117.6077,-133.7274 116.7087,-126.7854"/>
</g>
<!-- Node8 -->
<g id="node9" class="node">
<title>Node8</title>
<g id="a_node9"><a xlink:href="d1/d05/class_s_q_l_code_parser.html" target="_top" xlink:title="SQL scanner.">
<polygon fill="#ffffff" stroke="#666666" points="236.5,-93 148.5,-93 148.5,-74 236.5,-74 236.5,-93"/>
<text text-anchor="middle" x="192.5" y="-81" font-family="Helvetica,sans-Serif" font-size="10.00" fill="#000000">SQLCodeParser</text>
</a>
</g>
</g>
<!-- Node0&#45;&gt;Node8 -->
<g id="edge8" class="edge">
<title>Node0&#45;&gt;Node8</title>
<path fill="none" stroke="#63b8ff" d="M86.4448,-125.1027C103.3302,-118.2731 124.2366,-109.8742 143,-102.5 150.8818,-99.4024 159.4915,-96.0773 167.288,-93.0883"/>
<polygon fill="#63b8ff" stroke="#63b8ff" points="84.9685,-121.9244 77.0142,-128.9229 87.5967,-128.4123 84.9685,-121.9244"/>
</g>
<!-- Node9 -->
<g id="node10" class="node">
<title>Node9</title>
<g id="a_node10"><a xlink:href="de/d18/class_v_h_d_l_code_parser.html" target="_top" xlink:title=" ">
<polygon fill="#ffffff" stroke="#666666" points="240,-56 145,-56 145,-37 240,-37 240,-56"/>
<text text-anchor="middle" x="192.5" y="-44" font-family="Helvetica,sans-Serif" font-size="10.00" fill="#000000">VHDLCodeParser</text>
</a>
</g>
</g>
<!-- Node0&#45;&gt;Node9 -->
<g id="edge9" class="edge">
<title>Node0&#45;&gt;Node9</title>
<path fill="none" stroke="#63b8ff" d="M70.715,-121.6205C87.879,-105.51 115.5695,-81.4012 143,-65.5 149.2117,-61.8991 156.2335,-58.7287 162.995,-56.0607"/>
<polygon fill="#63b8ff" stroke="#63b8ff" points="67.9958,-119.3777 63.1819,-128.8158 72.8308,-124.4396 67.9958,-119.3777"/>
</g>
<!-- Node10 -->
<g id="node11" class="node">
<title>Node10</title>
<g id="a_node11"><a xlink:href="d7/db4/class_x_m_l_code_parser.html" target="_top" xlink:title="XML scanner.">
<polygon fill="#ffffff" stroke="#666666" points="237,-19 148,-19 148,0 237,0 237,-19"/>
<text text-anchor="middle" x="192.5" y="-7" font-family="Helvetica,sans-Serif" font-size="10.00" fill="#000000">XMLCodeParser</text>
</a>
</g>
</g>
<!-- Node0&#45;&gt;Node10 -->
<g id="edge10" class="edge">
<title>Node0&#45;&gt;Node10</title>
<path fill="none" stroke="#63b8ff" d="M64.2575,-119.9848C79.1327,-95.8559 108.1335,-53.7696 143,-28.5 148.2174,-24.7187 154.2825,-21.5847 160.3417,-19.0267"/>
<polygon fill="#63b8ff" stroke="#63b8ff" points="61.0846,-118.47 58.9352,-128.8445 67.0851,-122.0748 61.0846,-118.47"/>
</g>
<!-- Node4 -->
<g id="node5" class="node">
<title>Node4</title>
<g id="a_node5"><a xlink:href="d6/dbc/class_fortran_code_parser_fixed.html" target="_top" xlink:title=" ">
<polygon fill="#ffffff" stroke="#666666" points="401,-222 278,-222 278,-203 401,-203 401,-222"/>
<text text-anchor="middle" x="339.5" y="-210" font-family="Helvetica,sans-Serif" font-size="10.00" fill="#000000">FortranCodeParserFixed</text>
</a>
</g>
</g>
<!-- Node3&#45;&gt;Node4 -->
<g id="edge4" class="edge">
<title>Node3&#45;&gt;Node4</title>
<path fill="none" stroke="#63b8ff" d="M252.3466,-201.8282C260.7348,-202.8553 269.369,-203.9125 277.7911,-204.9438"/>
<polygon fill="#63b8ff" stroke="#63b8ff" points="252.6188,-198.3354 242.2675,-200.594 251.7679,-205.2835 252.6188,-198.3354"/>
</g>
<!-- Node5 -->
<g id="node6" class="node">
<title>Node5</title>
<g id="a_node6"><a xlink:href="d7/d86/class_fortran_code_parser_free.html" target="_top" xlink:title=" ">
<polygon fill="#ffffff" stroke="#666666" points="399,-185 280,-185 280,-166 399,-166 399,-185"/>
<text text-anchor="middle" x="339.5" y="-173" font-family="Helvetica,sans-Serif" font-size="10.00" fill="#000000">FortranCodeParserFree</text>
</a>
</g>
</g>
<!-- Node3&#45;&gt;Node5 -->
<g id="edge5" class="edge">
<title>Node3&#45;&gt;Node5</title>
<path fill="none" stroke="#63b8ff" d="M252.3587,-186.7632C261.4321,-185.5904 270.793,-184.3805 279.8618,-183.2083"/>
<polygon fill="#63b8ff" stroke="#63b8ff" points="251.7363,-183.3144 242.2675,-188.0675 252.6337,-190.2567 251.7363,-183.3144"/>
</g>
</g>
</svg>
