<?xml version="1.0" encoding="UTF-8" standalone="no"?>
<!DOCTYPE svg PUBLIC "-//W3C//DTD SVG 1.1//EN"
 "http://www.w3.org/Graphics/SVG/1.1/DTD/svg11.dtd">
<!-- Generated by graphviz version 2.40.1 (20161225.0304)
 -->
<!-- Title: DocIndexEntry Pages: 1 -->
<svg width="1207pt" height="490pt"
 viewBox="0.00 0.00 1207.00 489.50" xmlns="http://www.w3.org/2000/svg" xmlns:xlink="http://www.w3.org/1999/xlink">
<g id="graph0" class="graph" transform="scale(1 1) rotate(0) translate(4 485.5)">
<title>DocIndexEntry</title>
<!-- Node1 -->
<g id="node1" class="node">
<title>Node1</title>
<g id="a_node1"><a xlink:title="Node representing an entry in the index.">
<polygon fill="#999999" stroke="#666666" points="1199,-411 1117,-411 1117,-392 1199,-392 1199,-411"/>
<text text-anchor="middle" x="1158" y="-399" font-family="Helvetica,sans-Serif" font-size="10.00" fill="#000000">DocIndexEntry</text>
</a>
</g>
</g>
<!-- Node2 -->
<g id="node2" class="node">
<title>Node2</title>
<g id="a_node2"><a xlink:href="../../d9/d0e/class_doc_node.html" target="_top" xlink:title="Abstract node interface with type information.">
<polygon fill="#ffffff" stroke="#666666" points="1080,-335 1022,-335 1022,-316 1080,-316 1080,-335"/>
<text text-anchor="middle" x="1051" y="-323" font-family="Helvetica,sans-Serif" font-size="10.00" fill="#000000">DocNode</text>
</a>
</g>
</g>
<!-- Node2&#45;&gt;Node1 -->
<g id="edge1" class="edge">
<title>Node2&#45;&gt;Node1</title>
<path fill="none" stroke="#63b8ff" d="M1073.8423,-341.0154C1081.8333,-346.493 1090.8443,-352.7261 1099,-358.5 1114.931,-369.7784 1133.0458,-383.0482 1144.9519,-391.8321"/>
<polygon fill="#63b8ff" stroke="#63b8ff" points="1075.5852,-337.9673 1065.3536,-335.2167 1071.6367,-343.7475 1075.5852,-337.9673"/>
</g>
<!-- Node3 -->
<g id="node3" class="node">
<title>Node3</title>
<g id="a_node3"><a xlink:href="../../da/d02/class_doc_parser.html" target="_top" xlink:title=" ">
<polygon fill="#ffffff" stroke="#666666" points="942,-307 879,-307 879,-288 942,-288 942,-307"/>
<text text-anchor="middle" x="910.5" y="-295" font-family="Helvetica,sans-Serif" font-size="10.00" fill="#000000">DocParser</text>
</a>
</g>
</g>
<!-- Node3&#45;&gt;Node2 -->
<g id="edge2" class="edge">
<title>Node3&#45;&gt;Node2</title>
<path fill="none" stroke="#9a32cd" stroke-dasharray="5,2" d="M951.9924,-305.769C974.4943,-310.2533 1001.7538,-315.6858 1021.9682,-319.7143"/>
<polygon fill="#9a32cd" stroke="#9a32cd" points="952.5222,-302.3058 942.0309,-303.7837 951.154,-309.1708 952.5222,-302.3058"/>
<text text-anchor="middle" x="982" y="-318.5" font-family="Helvetica,sans-Serif" font-size="10.00" fill="#000000"> m_parser</text>
</g>
<!-- Node4 -->
<g id="node4" class="node">
<title>Node4</title>
<g id="a_node4"><a xlink:href="../../de/dad/class_i_doc_parser.html" target="_top" xlink:title="opaque parser interface">
<polygon fill="#ffffff" stroke="#666666" points="773,-270 707,-270 707,-251 773,-251 773,-270"/>
<text text-anchor="middle" x="740" y="-258" font-family="Helvetica,sans-Serif" font-size="10.00" fill="#000000">IDocParser</text>
</a>
</g>
</g>
<!-- Node4&#45;&gt;Node3 -->
<g id="edge3" class="edge">
<title>Node4&#45;&gt;Node3</title>
<path fill="none" stroke="#63b8ff" d="M783.3833,-269.9146C813.1126,-276.3661 851.8783,-284.7786 878.7465,-290.6092"/>
<polygon fill="#63b8ff" stroke="#63b8ff" points="783.7937,-266.4222 773.2789,-267.7218 782.3091,-273.263 783.7937,-266.4222"/>
</g>
<!-- Node5 -->
<g id="node5" class="node">
<title>Node5</title>
<g id="a_node5"><a xlink:href="../../d8/d7d/struct_doc_parser_context.html" target="_top" xlink:title="Parser&#39;s context to store all global variables.">
<polygon fill="#ffffff" stroke="#666666" points="789,-233 691,-233 691,-214 789,-214 789,-233"/>
<text text-anchor="middle" x="740" y="-221" font-family="Helvetica,sans-Serif" font-size="10.00" fill="#000000">DocParserContext</text>
</a>
</g>
</g>
<!-- Node5&#45;&gt;Node3 -->
<g id="edge4" class="edge">
<title>Node5&#45;&gt;Node3</title>
<path fill="none" stroke="#9a32cd" stroke-dasharray="5,2" d="M793.6302,-235.6196C815.2147,-241.5799 839.9325,-249.8165 861,-260.5 875.545,-267.8759 890.2685,-279.5369 899.8309,-287.7941"/>
<polygon fill="#9a32cd" stroke="#9a32cd" points="794.5221,-232.2351 783.9579,-233.0406 792.7186,-238.9988 794.5221,-232.2351"/>
<text text-anchor="middle" x="834" y="-263.5" font-family="Helvetica,sans-Serif" font-size="10.00" fill="#000000"> context</text>
</g>
<!-- Node6 -->
<g id="node6" class="node">
<title>Node6</title>
<g id="a_node6"><a xlink:href="../../d5/dcc/class_definition.html" target="_top" xlink:title="The common base class of all entity definitions found in the sources.">
<polygon fill="#ffffff" stroke="#666666" points="265.5,-442 207.5,-442 207.5,-423 265.5,-423 265.5,-442"/>
<text text-anchor="middle" x="236.5" y="-430" font-family="Helvetica,sans-Serif" font-size="10.00" fill="#000000">Definition</text>
</a>
</g>
</g>
<!-- Node6&#45;&gt;Node1 -->
<g id="edge20" class="edge">
<title>Node6&#45;&gt;Node1</title>
<path fill="none" stroke="#9a32cd" stroke-dasharray="5,2" d="M275.7999,-440.9285C331.5175,-452.1231 436.796,-470.5 527.5,-470.5 527.5,-470.5 527.5,-470.5 1051,-470.5 1094.3237,-470.5 1134.0294,-430.0535 1150.2616,-411.0942"/>
<polygon fill="#9a32cd" stroke="#9a32cd" points="276.1597,-437.4298 265.6618,-438.8603 274.7605,-444.2886 276.1597,-437.4298"/>
<text text-anchor="middle" x="834" y="-473.5" font-family="Helvetica,sans-Serif" font-size="10.00" fill="#000000"> m_scope</text>
</g>
<!-- Node6&#45;&gt;Node5 -->
<g id="edge5" class="edge">
<title>Node6&#45;&gt;Node5</title>
<path fill="none" stroke="#9a32cd" stroke-dasharray="5,2" d="M275.4798,-422.663C340.7082,-405.4393 475.231,-366.6335 581,-314.5 633.6292,-288.5591 638.6599,-268.0194 691,-241.5 697.1441,-238.387 703.9587,-235.5359 710.5042,-233.0655"/>
<polygon fill="#9a32cd" stroke="#9a32cd" points="274.4104,-419.3249 265.621,-425.2408 276.1812,-426.0972 274.4104,-419.3249"/>
<text text-anchor="middle" x="527.5" y="-360.5" font-family="Helvetica,sans-Serif" font-size="10.00" fill="#000000"> scope</text>
</g>
<!-- Node12 -->
<g id="node12" class="node">
<title>Node12</title>
<g id="a_node12"><a xlink:href="../../da/d09/class_member_def.html" target="_top" xlink:title="A model of a class/file/namespace member symbol.">
<polygon fill="#ffffff" stroke="#666666" points="561.5,-442 493.5,-442 493.5,-423 561.5,-423 561.5,-442"/>
<text text-anchor="middle" x="527.5" y="-430" font-family="Helvetica,sans-Serif" font-size="10.00" fill="#000000">MemberDef</text>
</a>
</g>
</g>
<!-- Node6&#45;&gt;Node12 -->
<g id="edge12" class="edge">
<title>Node6&#45;&gt;Node12</title>
<path fill="none" stroke="#63b8ff" d="M275.8707,-432.5C333.294,-432.5 439.0756,-432.5 493.3748,-432.5"/>
<polygon fill="#63b8ff" stroke="#63b8ff" points="275.7346,-429.0001 265.7346,-432.5 275.7345,-436.0001 275.7346,-429.0001"/>
</g>
<!-- Node7 -->
<g id="node7" class="node">
<title>Node7</title>
<g id="a_node7"><a xlink:href="../../d9/d45/class_q_c_string.html" target="_top" xlink:title="This is an alternative implementation of QCString.">
<polygon fill="#ffffff" stroke="#666666" points="265,-252 208,-252 208,-233 265,-233 265,-252"/>
<text text-anchor="middle" x="236.5" y="-240" font-family="Helvetica,sans-Serif" font-size="10.00" fill="#000000">QCString</text>
</a>
</g>
</g>
<!-- Node7&#45;&gt;Node1 -->
<g id="edge19" class="edge">
<title>Node7&#45;&gt;Node1</title>
<path fill="none" stroke="#9a32cd" stroke-dasharray="5,2" d="M267.2143,-256.2518C344.7804,-289.6845 555.5347,-372.5 740,-372.5 740,-372.5 740,-372.5 1051,-372.5 1081.2171,-372.5 1114.6152,-383.4073 1135.9276,-391.8434"/>
<polygon fill="#9a32cd" stroke="#9a32cd" points="268.1523,-252.8429 257.5865,-252.0592 265.3575,-259.2607 268.1523,-252.8429"/>
<text text-anchor="middle" x="834" y="-375.5" font-family="Helvetica,sans-Serif" font-size="10.00" fill="#000000"> m_entry</text>
</g>
<!-- Node7&#45;&gt;Node5 -->
<g id="edge6" class="edge">
<title>Node7&#45;&gt;Node5</title>
<path fill="none" stroke="#9a32cd" stroke-dasharray="5,2" d="M275.105,-241.0432C365.5506,-237.6302 591.0426,-229.121 690.9834,-225.3497"/>
<polygon fill="#9a32cd" stroke="#9a32cd" points="274.8738,-237.5493 265.013,-241.424 275.1379,-244.5444 274.8738,-237.5493"/>
<text text-anchor="middle" x="527.5" y="-302.5" font-family="Helvetica,sans-Serif" font-size="10.00" fill="#000000"> context</text>
<text text-anchor="middle" x="527.5" y="-291.5" font-family="Helvetica,sans-Serif" font-size="10.00" fill="#000000">exampleName</text>
<text text-anchor="middle" x="527.5" y="-280.5" font-family="Helvetica,sans-Serif" font-size="10.00" fill="#000000">fileName</text>
<text text-anchor="middle" x="527.5" y="-269.5" font-family="Helvetica,sans-Serif" font-size="10.00" fill="#000000">includeFileName</text>
<text text-anchor="middle" x="527.5" y="-258.5" font-family="Helvetica,sans-Serif" font-size="10.00" fill="#000000">includeFileText</text>
<text text-anchor="middle" x="527.5" y="-247.5" font-family="Helvetica,sans-Serif" font-size="10.00" fill="#000000">relPath</text>
<text text-anchor="middle" x="527.5" y="-236.5" font-family="Helvetica,sans-Serif" font-size="10.00" fill="#000000">searchUrl</text>
</g>
<!-- Node13 -->
<g id="node13" class="node">
<title>Node13</title>
<g id="a_node13"><a xlink:href="../../d6/df4/struct_token_info.html" target="_top" xlink:title="Data associated with a token used by the comment block parser.">
<polygon fill="#ffffff" stroke="#666666" points="557.5,-149 497.5,-149 497.5,-130 557.5,-130 557.5,-149"/>
<text text-anchor="middle" x="527.5" y="-137" font-family="Helvetica,sans-Serif" font-size="10.00" fill="#000000">TokenInfo</text>
</a>
</g>
</g>
<!-- Node7&#45;&gt;Node13 -->
<g id="edge14" class="edge">
<title>Node7&#45;&gt;Node13</title>
<path fill="none" stroke="#9a32cd" stroke-dasharray="5,2" d="M246.5577,-224.0985C261.0772,-199.6917 290.4535,-157.6962 329,-140.5 384.2341,-115.8591 457.027,-124.5332 497.3453,-132.4249"/>
<polygon fill="#9a32cd" stroke="#9a32cd" points="243.5125,-222.3731 241.5742,-232.7891 249.585,-225.8552 243.5125,-222.3731"/>
<text text-anchor="middle" x="392.5" y="-220.5" font-family="Helvetica,sans-Serif" font-size="10.00" fill="#000000"> attribsStr</text>
<text text-anchor="middle" x="392.5" y="-209.5" font-family="Helvetica,sans-Serif" font-size="10.00" fill="#000000">chars</text>
<text text-anchor="middle" x="392.5" y="-198.5" font-family="Helvetica,sans-Serif" font-size="10.00" fill="#000000">name</text>
<text text-anchor="middle" x="392.5" y="-187.5" font-family="Helvetica,sans-Serif" font-size="10.00" fill="#000000">sectionId</text>
<text text-anchor="middle" x="392.5" y="-176.5" font-family="Helvetica,sans-Serif" font-size="10.00" fill="#000000">simpleSectName</text>
<text text-anchor="middle" x="392.5" y="-165.5" font-family="Helvetica,sans-Serif" font-size="10.00" fill="#000000">simpleSectText</text>
<text text-anchor="middle" x="392.5" y="-154.5" font-family="Helvetica,sans-Serif" font-size="10.00" fill="#000000">text</text>
<text text-anchor="middle" x="392.5" y="-143.5" font-family="Helvetica,sans-Serif" font-size="10.00" fill="#000000">verb</text>
</g>
<!-- Node8 -->
<g id="node8" class="node">
<title>Node8</title>
<g id="a_node8"><a xlink:href="../../d9/d82/class_iterable_stack.html" target="_top" xlink:title=" ">
<polygon fill="#ffffff" stroke="#666666" points="581,-83.5 474,-83.5 474,-53.5 581,-53.5 581,-83.5"/>
<text text-anchor="start" x="482" y="-71.5" font-family="Helvetica,sans-Serif" font-size="10.00" fill="#000000">IterableStack&lt; const</text>
<text text-anchor="middle" x="527.5" y="-60.5" font-family="Helvetica,sans-Serif" font-size="10.00" fill="#000000"> DocNodeVariant * &gt;</text>
</a>
</g>
</g>
<!-- Node8&#45;&gt;Node5 -->
<g id="edge7" class="edge">
<title>Node8&#45;&gt;Node5</title>
<path fill="none" stroke="#9a32cd" stroke-dasharray="5,2" d="M575.7889,-87.5562C605.5705,-100.6696 643.5651,-119.9505 673,-143.5 699.4533,-164.664 723.0102,-197.5955 733.787,-213.8101"/>
<polygon fill="#9a32cd" stroke="#9a32cd" points="576.9978,-84.266 566.4294,-83.5178 574.2245,-90.6932 576.9978,-84.266"/>
<text text-anchor="middle" x="636" y="-157.5" font-family="Helvetica,sans-Serif" font-size="10.00" fill="#000000"> initialStyleStack</text>
<text text-anchor="middle" x="636" y="-146.5" font-family="Helvetica,sans-Serif" font-size="10.00" fill="#000000">styleStack</text>
</g>
<!-- Node9 -->
<g id="node9" class="node">
<title>Node9</title>
<g id="a_node9"><a xlink:title=" ">
<polygon fill="#ffffff" stroke="#666666" points="311,-41 162,-41 162,0 311,0 311,-41"/>
<text text-anchor="start" x="170" y="-29" font-family="Helvetica,sans-Serif" font-size="10.00" fill="#000000">std::stack&lt; const DocNode</text>
<text text-anchor="start" x="170" y="-18" font-family="Helvetica,sans-Serif" font-size="10.00" fill="#000000">Variant * , std::deque</text>
<text text-anchor="middle" x="236.5" y="-7" font-family="Helvetica,sans-Serif" font-size="10.00" fill="#000000">&lt;const DocNodeVariant * &gt; &#160;&gt;</text>
</a>
</g>
</g>
<!-- Node9&#45;&gt;Node8 -->
<g id="edge8" class="edge">
<title>Node9&#45;&gt;Node8</title>
<path fill="none" stroke="#63b8ff" d="M321.0765,-34.4508C370.3617,-42.5803 431.0285,-52.5872 473.8016,-59.6425"/>
<polygon fill="#63b8ff" stroke="#63b8ff" points="321.4982,-30.9731 311.0618,-32.7989 320.3589,-37.8798 321.4982,-30.9731"/>
</g>
<!-- Node10 -->
<g id="node10" class="node">
<title>Node10</title>
<g id="a_node10"><a xlink:href="../../d9/d82/class_iterable_stack.html" target="_top" xlink:title=" ">
<polygon fill="#ffffff" stroke="#666666" points="309.5,-78 163.5,-78 163.5,-59 309.5,-59 309.5,-78"/>
<text text-anchor="middle" x="236.5" y="-66" font-family="Helvetica,sans-Serif" font-size="10.00" fill="#000000">IterableStack&lt; T, Container &gt;</text>
</a>
</g>
</g>
<!-- Node10&#45;&gt;Node8 -->
<g id="edge9" class="edge">
<title>Node10&#45;&gt;Node8</title>
<path fill="none" stroke="#ffa500" stroke-dasharray="5,2" d="M319.6087,-68.5C369.1144,-68.5 430.508,-68.5 473.7014,-68.5"/>
<polygon fill="#ffa500" stroke="#ffa500" points="319.556,-65.0001 309.556,-68.5 319.5559,-72.0001 319.556,-65.0001"/>
<text text-anchor="middle" x="392.5" y="-71.5" font-family="Helvetica,sans-Serif" font-size="10.00" fill="#000000"> &lt; const DocNodeVariant * &gt;</text>
</g>
<!-- Node11 -->
<g id="node11" class="node">
<title>Node11</title>
<g id="a_node11"><a xlink:title=" ">
<polygon fill="#ffffff" stroke="#666666" points="110,-82.5 15,-82.5 15,-52.5 110,-52.5 110,-82.5"/>
<text text-anchor="start" x="23" y="-70.5" font-family="Helvetica,sans-Serif" font-size="10.00" fill="#000000">std::stack&lt; T, std</text>
<text text-anchor="middle" x="62.5" y="-59.5" font-family="Helvetica,sans-Serif" font-size="10.00" fill="#000000">::deque&lt; T &gt; &gt;</text>
</a>
</g>
</g>
<!-- Node11&#45;&gt;Node10 -->
<g id="edge10" class="edge">
<title>Node11&#45;&gt;Node10</title>
<path fill="none" stroke="#63b8ff" d="M120.308,-67.8322C134.0418,-67.9112 148.8734,-67.9964 163.1969,-68.0787"/>
<polygon fill="#63b8ff" stroke="#63b8ff" points="120.0662,-64.3309 110.0463,-67.7733 120.026,-71.3308 120.0662,-64.3309"/>
</g>
<!-- Node12&#45;&gt;Node1 -->
<g id="edge21" class="edge">
<title>Node12&#45;&gt;Node1</title>
<path fill="none" stroke="#9a32cd" stroke-dasharray="5,2" d="M571.8521,-432.1699C614.8406,-431.8786 681.8892,-431.5 740,-431.5 740,-431.5 740,-431.5 1051,-431.5 1081.6754,-431.5 1115.5223,-419.9273 1136.7678,-411.1573"/>
<polygon fill="#9a32cd" stroke="#9a32cd" points="571.7033,-428.6707 561.7278,-432.2399 571.7518,-435.6705 571.7033,-428.6707"/>
<text text-anchor="middle" x="910.5" y="-434.5" font-family="Helvetica,sans-Serif" font-size="10.00" fill="#000000"> m_member</text>
</g>
<!-- Node12&#45;&gt;Node5 -->
<g id="edge11" class="edge">
<title>Node12&#45;&gt;Node5</title>
<path fill="none" stroke="#9a32cd" stroke-dasharray="5,2" d="M563.9667,-419.2842C602.4523,-404.579 659.4001,-380.402 673,-361.5 704.497,-317.7235 656.9292,-283.3046 691,-241.5 693.7482,-238.1279 697.1885,-235.3876 700.9648,-233.1606"/>
<polygon fill="#9a32cd" stroke="#9a32cd" points="562.2591,-416.1874 554.1357,-422.989 564.7276,-422.7377 562.2591,-416.1874"/>
<text text-anchor="middle" x="636" y="-407.5" font-family="Helvetica,sans-Serif" font-size="10.00" fill="#000000"> memberDef</text>
</g>
<!-- Node13&#45;&gt;Node5 -->
<g id="edge13" class="edge">
<title>Node13&#45;&gt;Node5</title>
<path fill="none" stroke="#9a32cd" stroke-dasharray="5,2" d="M561.3781,-152.8918C604.5371,-169.9523 678.0573,-199.0144 715.9078,-213.9765"/>
<polygon fill="#9a32cd" stroke="#9a32cd" points="562.4629,-149.5572 551.8765,-149.1359 559.8896,-156.067 562.4629,-149.5572"/>
<text text-anchor="middle" x="636" y="-199.5" font-family="Helvetica,sans-Serif" font-size="10.00" fill="#000000"> token</text>
</g>
<!-- Node14 -->
<g id="node14" class="node">
<title>Node14</title>
<g id="a_node14"><a xlink:href="../../db/d4d/class_html_attrib_list.html" target="_top" xlink:title="Class representing a list of HTML attributes.">
<polygon fill="#ffffff" stroke="#666666" points="275,-118 198,-118 198,-99 275,-99 275,-118"/>
<text text-anchor="middle" x="236.5" y="-106" font-family="Helvetica,sans-Serif" font-size="10.00" fill="#000000">HtmlAttribList</text>
</a>
</g>
</g>
<!-- Node14&#45;&gt;Node13 -->
<g id="edge15" class="edge">
<title>Node14&#45;&gt;Node13</title>
<path fill="none" stroke="#9a32cd" stroke-dasharray="5,2" d="M285.1578,-101.8883C330.069,-97.2314 398.3314,-93.8338 456,-106.5 476.4305,-110.9873 497.9794,-121.8982 512.0123,-129.9517"/>
<polygon fill="#9a32cd" stroke="#9a32cd" points="284.662,-98.4216 275.1038,-102.9925 285.4262,-105.3798 284.662,-98.4216"/>
<text text-anchor="middle" x="392.5" y="-109.5" font-family="Helvetica,sans-Serif" font-size="10.00" fill="#000000"> attribs</text>
</g>
<!-- Node15 -->
<g id="node15" class="node">
<title>Node15</title>
<g id="a_node15"><a xlink:title=" ">
<polygon fill="#ffffff" stroke="#666666" points="125,-120 0,-120 0,-101 125,-101 125,-120"/>
<text text-anchor="middle" x="62.5" y="-108" font-family="Helvetica,sans-Serif" font-size="10.00" fill="#000000">std::vector&lt; HtmlAttrib &gt;</text>
</a>
</g>
</g>
<!-- Node15&#45;&gt;Node14 -->
<g id="edge16" class="edge">
<title>Node15&#45;&gt;Node14</title>
<path fill="none" stroke="#63b8ff" d="M135.3908,-109.6622C156.8225,-109.4158 179.4279,-109.156 197.8162,-108.9446"/>
<polygon fill="#63b8ff" stroke="#63b8ff" points="135.2771,-106.1632 125.318,-109.778 135.3576,-113.1627 135.2771,-106.1632"/>
</g>
<!-- Node16 -->
<g id="node16" class="node">
<title>Node16</title>
<g id="a_node16"><a xlink:href="../../d1/d7f/class_doc_tokenizer.html" target="_top" xlink:title=" ">
<polygon fill="#ffffff" stroke="#666666" points="778.5,-344 701.5,-344 701.5,-325 778.5,-325 778.5,-344"/>
<text text-anchor="middle" x="740" y="-332" font-family="Helvetica,sans-Serif" font-size="10.00" fill="#000000">DocTokenizer</text>
</a>
</g>
</g>
<!-- Node16&#45;&gt;Node3 -->
<g id="edge17" class="edge">
<title>Node16&#45;&gt;Node3</title>
<path fill="none" stroke="#9a32cd" stroke-dasharray="5,2" d="M788.5268,-326.982C810.7412,-323.2068 837.3328,-318.2177 861,-312.5 867.5464,-310.9185 874.5057,-308.9762 881.074,-307.0202"/>
<polygon fill="#9a32cd" stroke="#9a32cd" points="787.9419,-323.5311 778.6544,-328.6293 789.0941,-330.4356 787.9419,-323.5311"/>
<text text-anchor="middle" x="834" y="-326.5" font-family="Helvetica,sans-Serif" font-size="10.00" fill="#000000"> tokenizer</text>
</g>
<!-- Node17 -->
<g id="node17" class="node">
<title>Node17</title>
<g id="a_node17"><a xlink:href="../../d2/dc1/class_s_i_data_collection.html" target="_top" xlink:title=" ">
<polygon fill="#ffffff" stroke="#666666" points="785.5,-307 694.5,-307 694.5,-288 785.5,-288 785.5,-307"/>
<text text-anchor="middle" x="740" y="-295" font-family="Helvetica,sans-Serif" font-size="10.00" fill="#000000">SIDataCollection</text>
</a>
</g>
</g>
<!-- Node17&#45;&gt;Node3 -->
<g id="edge18" class="edge">
<title>Node17&#45;&gt;Node3</title>
<path fill="none" stroke="#9a32cd" stroke-dasharray="5,2" d="M795.9982,-297.5C823.5591,-297.5 855.7618,-297.5 878.9839,-297.5"/>
<polygon fill="#9a32cd" stroke="#9a32cd" points="795.6909,-294.0001 785.6909,-297.5 795.6908,-301.0001 795.6909,-294.0001"/>
<text text-anchor="middle" x="834" y="-300.5" font-family="Helvetica,sans-Serif" font-size="10.00" fill="#000000"> searchData</text>
</g>
</g>
</svg>
