<?xml version="1.0" encoding="UTF-8" standalone="no"?>
<!DOCTYPE svg PUBLIC "-//W3C//DTD SVG 1.1//EN"
 "http://www.w3.org/Graphics/SVG/1.1/DTD/svg11.dtd">
<!-- Generated by graphviz version 2.40.1 (20161225.0304)
 -->
<!-- Title: LinkedMap&lt; T, Hash, KeyEqual, Map &gt; Pages: 1 -->
<svg width="640pt" height="692pt"
 viewBox="0.00 0.00 640.00 692.33" xmlns="http://www.w3.org/2000/svg" xmlns:xlink="http://www.w3.org/1999/xlink">
<g id="graph0" class="graph" transform="scale(1 1) rotate(0) translate(4 688.3253)">
<title>LinkedMap&lt; T, Hash, KeyEqual, Map &gt;</title>
<!-- Node1 -->
<g id="node1" class="node">
<title>Node1</title>
<g id="a_node1"><a xlink:title="Container class representing a vector of objects with keys.">
<polygon fill="#999999" stroke="#666666" points="111,-334.3253 0,-334.3253 0,-304.3253 111,-304.3253 111,-334.3253"/>
<text text-anchor="start" x="8" y="-322.3253" font-family="Helvetica,sans-Serif" font-size="10.00" fill="#000000">LinkedMap&lt; T, Hash,</text>
<text text-anchor="middle" x="55.5" y="-311.3253" font-family="Helvetica,sans-Serif" font-size="10.00" fill="#000000"> KeyEqual, Map &gt;</text>
</a>
</g>
</g>
<!-- Node2 -->
<g id="node2" class="node">
<title>Node2</title>
<g id="a_node2"><a xlink:href="../../d0/d2c/class_linked_map.html" target="_top" xlink:title=" ">
<polygon fill="#ffffff" stroke="#666666" points="434.5,-668.8253 311.5,-668.8253 311.5,-649.8253 434.5,-649.8253 434.5,-668.8253"/>
<text text-anchor="middle" x="373" y="-656.8253" font-family="Helvetica,sans-Serif" font-size="10.00" fill="#000000">LinkedMap&lt; ClassDef &gt;</text>
</a>
</g>
</g>
<!-- Node1&#45;&gt;Node2 -->
<g id="edge1" class="edge">
<title>Node1&#45;&gt;Node2</title>
<path fill="none" stroke="#ffa500" stroke-dasharray="5,2" d="M57.7315,-344.7728C64.2257,-412.5468 85.4748,-594.8797 129,-633.3253 182.9598,-680.9877 272.0125,-677.0518 326.3085,-668.8719"/>
<polygon fill="#ffa500" stroke="#ffa500" points="61.1931,-344.1968 56.7828,-334.5635 54.2232,-344.8445 61.1931,-344.1968"/>
<text text-anchor="middle" x="202" y="-676.3253" font-family="Helvetica,sans-Serif" font-size="10.00" fill="#000000"> &lt; ClassDef &gt;</text>
</g>
<!-- Node4 -->
<g id="node4" class="node">
<title>Node4</title>
<g id="a_node4"><a xlink:href="../../d0/d2c/class_linked_map.html" target="_top" xlink:title=" ">
<polygon fill="#ffffff" stroke="#666666" points="440,-631.8253 306,-631.8253 306,-612.8253 440,-612.8253 440,-631.8253"/>
<text text-anchor="middle" x="373" y="-619.8253" font-family="Helvetica,sans-Serif" font-size="10.00" fill="#000000">LinkedMap&lt; ConceptDef &gt;</text>
</a>
</g>
</g>
<!-- Node1&#45;&gt;Node4 -->
<g id="edge3" class="edge">
<title>Node1&#45;&gt;Node4</title>
<path fill="none" stroke="#ffa500" stroke-dasharray="5,2" d="M58.6135,-344.4642C66.7672,-405.9583 90.7925,-561.3557 129,-594.3253 154.7044,-616.5059 242.85,-621.9259 305.8042,-622.8546"/>
<polygon fill="#ffa500" stroke="#ffa500" points="62.0721,-343.9177 57.3168,-334.4499 55.13,-344.8166 62.0721,-343.9177"/>
<text text-anchor="middle" x="202" y="-624.3253" font-family="Helvetica,sans-Serif" font-size="10.00" fill="#000000"> &lt; ConceptDef &gt;</text>
</g>
<!-- Node6 -->
<g id="node6" class="node">
<title>Node6</title>
<g id="a_node6"><a xlink:href="../../d0/d2c/class_linked_map.html" target="_top" xlink:title=" ">
<polygon fill="#ffffff" stroke="#666666" points="432,-594.8253 314,-594.8253 314,-575.8253 432,-575.8253 432,-594.8253"/>
<text text-anchor="middle" x="373" y="-582.8253" font-family="Helvetica,sans-Serif" font-size="10.00" fill="#000000">LinkedMap&lt; UsedDir &gt;</text>
</a>
</g>
</g>
<!-- Node1&#45;&gt;Node6 -->
<g id="edge5" class="edge">
<title>Node1&#45;&gt;Node6</title>
<path fill="none" stroke="#ffa500" stroke-dasharray="5,2" d="M59.6646,-344.6416C69.3935,-400.5025 95.3621,-531.5692 129,-559.3253 142.9856,-570.8654 246.2848,-578.5555 313.9181,-582.4124"/>
<polygon fill="#ffa500" stroke="#ffa500" points="63.0706,-343.7936 57.9379,-334.5251 56.1704,-344.9714 63.0706,-343.7936"/>
<text text-anchor="middle" x="202" y="-582.3253" font-family="Helvetica,sans-Serif" font-size="10.00" fill="#000000"> &lt; UsedDir &gt;</text>
</g>
<!-- Node8 -->
<g id="node8" class="node">
<title>Node8</title>
<g id="a_node8"><a xlink:href="../../d0/d2c/class_linked_map.html" target="_top" xlink:title=" ">
<polygon fill="#ffffff" stroke="#666666" points="428,-557.8253 318,-557.8253 318,-538.8253 428,-538.8253 428,-557.8253"/>
<text text-anchor="middle" x="373" y="-545.8253" font-family="Helvetica,sans-Serif" font-size="10.00" fill="#000000">LinkedMap&lt; DirDef &gt;</text>
</a>
</g>
</g>
<!-- Node1&#45;&gt;Node8 -->
<g id="edge7" class="edge">
<title>Node1&#45;&gt;Node8</title>
<path fill="none" stroke="#ffa500" stroke-dasharray="5,2" d="M61.0999,-344.435C72.5964,-393.6035 100.2109,-499.7604 129,-522.3253 157.4159,-544.5976 255.1698,-548.7746 317.9858,-549.0545"/>
<polygon fill="#ffa500" stroke="#ffa500" points="64.4876,-343.549 58.8354,-334.5877 57.6656,-345.1178 64.4876,-343.549"/>
<text text-anchor="middle" x="202" y="-550.3253" font-family="Helvetica,sans-Serif" font-size="10.00" fill="#000000"> &lt; DirDef &gt;</text>
</g>
<!-- Node10 -->
<g id="node10" class="node">
<title>Node10</title>
<g id="a_node10"><a xlink:href="../../d0/d2c/class_linked_map.html" target="_top" xlink:title=" ">
<polygon fill="#ffffff" stroke="#666666" points="438.5,-520.8253 307.5,-520.8253 307.5,-501.8253 438.5,-501.8253 438.5,-520.8253"/>
<text text-anchor="middle" x="373" y="-508.8253" font-family="Helvetica,sans-Serif" font-size="10.00" fill="#000000">LinkedMap&lt; DirRelation &gt;</text>
</a>
</g>
</g>
<!-- Node1&#45;&gt;Node10 -->
<g id="edge9" class="edge">
<title>Node1&#45;&gt;Node10</title>
<path fill="none" stroke="#ffa500" stroke-dasharray="5,2" d="M58.8665,-344.5358C65.2905,-381.7858 83.0224,-450.7341 129,-484.3253 156.5308,-504.4393 244.9606,-509.9577 307.4114,-511.2679"/>
<polygon fill="#ffa500" stroke="#ffa500" points="62.2978,-343.8262 57.2783,-334.4958 55.3838,-344.9199 62.2978,-343.8262"/>
<text text-anchor="middle" x="202" y="-512.3253" font-family="Helvetica,sans-Serif" font-size="10.00" fill="#000000"> &lt; DirRelation &gt;</text>
</g>
<!-- Node12 -->
<g id="node12" class="node">
<title>Node12</title>
<g id="a_node12"><a xlink:href="../../d0/d2c/class_linked_map.html" target="_top" xlink:title=" ">
<polygon fill="#ffffff" stroke="#666666" points="448,-483.8253 298,-483.8253 298,-420.8253 448,-420.8253 448,-483.8253"/>
<text text-anchor="start" x="306" y="-471.8253" font-family="Helvetica,sans-Serif" font-size="10.00" fill="#000000">LinkedMap&lt; FileName,</text>
<text text-anchor="start" x="306" y="-460.8253" font-family="Helvetica,sans-Serif" font-size="10.00" fill="#000000"> FileNameFn, FileNameFn,</text>
<text text-anchor="start" x="306" y="-449.8253" font-family="Helvetica,sans-Serif" font-size="10.00" fill="#000000"> std::unordered_multimap</text>
<text text-anchor="start" x="306" y="-438.8253" font-family="Helvetica,sans-Serif" font-size="10.00" fill="#000000">&lt; std::string, FileName *,</text>
<text text-anchor="middle" x="373" y="-427.8253" font-family="Helvetica,sans-Serif" font-size="10.00" fill="#000000"> FileNameFn, FileNameFn &gt; &gt;</text>
</a>
</g>
</g>
<!-- Node1&#45;&gt;Node12 -->
<g id="edge11" class="edge">
<title>Node1&#45;&gt;Node12</title>
<path fill="none" stroke="#ffa500" stroke-dasharray="5,2" d="M69.7976,-343.3363C82.7496,-362.9 103.6574,-389.6113 129,-404.3253 157.1889,-420.6918 237.0151,-434.4509 297.7554,-442.9843"/>
<polygon fill="#ffa500" stroke="#ffa500" points="72.5871,-341.2013 64.2565,-334.6552 66.6866,-344.9676 72.5871,-341.2013"/>
<text text-anchor="start" x="129" y="-474.3253" font-family="Helvetica,sans-Serif" font-size="10.00" fill="#000000"> &lt; FileName, FileNameFn,</text>
<text text-anchor="start" x="129" y="-463.3253" font-family="Helvetica,sans-Serif" font-size="10.00" fill="#000000"> FileNameFn, std::unordered</text>
<text text-anchor="start" x="129" y="-452.3253" font-family="Helvetica,sans-Serif" font-size="10.00" fill="#000000">_multimap&lt; std::string, FileName</text>
<text text-anchor="middle" x="202" y="-441.3253" font-family="Helvetica,sans-Serif" font-size="10.00" fill="#000000"> *, FileNameFn, FileNameFn &gt; &gt;</text>
</g>
<!-- Node14 -->
<g id="node14" class="node">
<title>Node14</title>
<g id="a_node14"><a xlink:href="../../d0/d2c/class_linked_map.html" target="_top" xlink:title=" ">
<polygon fill="#ffffff" stroke="#666666" points="430.5,-402.8253 315.5,-402.8253 315.5,-383.8253 430.5,-383.8253 430.5,-402.8253"/>
<text text-anchor="middle" x="373" y="-390.8253" font-family="Helvetica,sans-Serif" font-size="10.00" fill="#000000">LinkedMap&lt; FilePair &gt;</text>
</a>
</g>
</g>
<!-- Node1&#45;&gt;Node14 -->
<g id="edge13" class="edge">
<title>Node1&#45;&gt;Node14</title>
<path fill="none" stroke="#ffa500" stroke-dasharray="5,2" d="M84.466,-339.9278C97.4931,-348.2056 113.4204,-357.0262 129,-362.3253 190.4492,-383.2262 264.947,-390.236 315.335,-392.482"/>
<polygon fill="#ffa500" stroke="#ffa500" points="86.2301,-336.899 75.9505,-334.3336 82.3867,-342.7495 86.2301,-336.899"/>
<text text-anchor="middle" x="202" y="-392.3253" font-family="Helvetica,sans-Serif" font-size="10.00" fill="#000000"> &lt; FilePair &gt;</text>
</g>
<!-- Node16 -->
<g id="node16" class="node">
<title>Node16</title>
<g id="a_node16"><a xlink:href="../../d0/d2c/class_linked_map.html" target="_top" xlink:title=" ">
<polygon fill="#ffffff" stroke="#666666" points="435,-365.8253 311,-365.8253 311,-346.8253 435,-346.8253 435,-365.8253"/>
<text text-anchor="middle" x="373" y="-353.8253" font-family="Helvetica,sans-Serif" font-size="10.00" fill="#000000">LinkedMap&lt; GroupDef &gt;</text>
</a>
</g>
</g>
<!-- Node1&#45;&gt;Node16 -->
<g id="edge15" class="edge">
<title>Node1&#45;&gt;Node16</title>
<path fill="none" stroke="#ffa500" stroke-dasharray="5,2" d="M121.3018,-331.2187C123.8991,-331.6072 126.4725,-331.978 129,-332.3253 190.6726,-340.7996 261.514,-347.4242 310.92,-351.5469"/>
<polygon fill="#ffa500" stroke="#ffa500" points="121.6317,-327.7279 111.2115,-329.6436 120.5521,-334.6441 121.6317,-327.7279"/>
<text text-anchor="middle" x="202" y="-350.3253" font-family="Helvetica,sans-Serif" font-size="10.00" fill="#000000"> &lt; GroupDef &gt;</text>
</g>
<!-- Node18 -->
<g id="node18" class="node">
<title>Node18</title>
<g id="a_node18"><a xlink:href="../../d0/d2c/class_linked_map.html" target="_top" xlink:title=" ">
<polygon fill="#ffffff" stroke="#666666" points="453,-328.8253 293,-328.8253 293,-309.8253 453,-309.8253 453,-328.8253"/>
<text text-anchor="middle" x="373" y="-316.8253" font-family="Helvetica,sans-Serif" font-size="10.00" fill="#000000">LinkedMap&lt; MemberNameInfo &gt;</text>
</a>
</g>
</g>
<!-- Node1&#45;&gt;Node18 -->
<g id="edge17" class="edge">
<title>Node1&#45;&gt;Node18</title>
<path fill="none" stroke="#ffa500" stroke-dasharray="5,2" d="M121.1917,-319.3253C171.0512,-319.3253 239.8408,-319.3253 292.9238,-319.3253"/>
<polygon fill="#ffa500" stroke="#ffa500" points="121.1676,-315.8254 111.1676,-319.3253 121.1676,-322.8254 121.1676,-315.8254"/>
<text text-anchor="middle" x="202" y="-322.3253" font-family="Helvetica,sans-Serif" font-size="10.00" fill="#000000"> &lt; MemberNameInfo &gt;</text>
</g>
<!-- Node20 -->
<g id="node20" class="node">
<title>Node20</title>
<g id="a_node20"><a xlink:href="../../d0/d2c/class_linked_map.html" target="_top" xlink:title=" ">
<polygon fill="#ffffff" stroke="#666666" points="444.5,-291.8253 301.5,-291.8253 301.5,-272.8253 444.5,-272.8253 444.5,-291.8253"/>
<text text-anchor="middle" x="373" y="-279.8253" font-family="Helvetica,sans-Serif" font-size="10.00" fill="#000000">LinkedMap&lt; MemberName &gt;</text>
</a>
</g>
</g>
<!-- Node1&#45;&gt;Node20 -->
<g id="edge19" class="edge">
<title>Node1&#45;&gt;Node20</title>
<path fill="none" stroke="#ffa500" stroke-dasharray="5,2" d="M121.2778,-305.5289C123.8818,-305.1009 126.4631,-304.6973 129,-304.3253 186.7586,-295.8546 252.7196,-290.1431 301.4858,-286.667"/>
<polygon fill="#ffa500" stroke="#ffa500" points="120.4207,-302.1252 111.1677,-307.2859 121.6194,-309.0219 120.4207,-302.1252"/>
<text text-anchor="middle" x="202" y="-307.3253" font-family="Helvetica,sans-Serif" font-size="10.00" fill="#000000"> &lt; MemberName &gt;</text>
</g>
<!-- Node22 -->
<g id="node22" class="node">
<title>Node22</title>
<g id="a_node22"><a xlink:href="../../d0/d2c/class_linked_map.html" target="_top" xlink:title=" ">
<polygon fill="#ffffff" stroke="#666666" points="448,-254.8253 298,-254.8253 298,-235.8253 448,-235.8253 448,-254.8253"/>
<text text-anchor="middle" x="373" y="-242.8253" font-family="Helvetica,sans-Serif" font-size="10.00" fill="#000000">LinkedMap&lt; NamespaceDef &gt;</text>
</a>
</g>
</g>
<!-- Node1&#45;&gt;Node22 -->
<g id="edge21" class="edge">
<title>Node1&#45;&gt;Node22</title>
<path fill="none" stroke="#ffa500" stroke-dasharray="5,2" d="M82.4495,-298.3921C95.7434,-289.164 112.4499,-279.1189 129,-273.3253 183.5313,-254.2358 248.6939,-247.51 297.9565,-245.4078"/>
<polygon fill="#ffa500" stroke="#ffa500" points="80.3236,-295.6097 74.2422,-304.2853 84.4065,-301.2957 80.3236,-295.6097"/>
<text text-anchor="middle" x="202" y="-276.3253" font-family="Helvetica,sans-Serif" font-size="10.00" fill="#000000"> &lt; NamespaceDef &gt;</text>
</g>
<!-- Node24 -->
<g id="node24" class="node">
<title>Node24</title>
<g id="a_node24"><a xlink:href="../../d0/d2c/class_linked_map.html" target="_top" xlink:title=" ">
<polygon fill="#ffffff" stroke="#666666" points="433,-217.8253 313,-217.8253 313,-198.8253 433,-198.8253 433,-217.8253"/>
<text text-anchor="middle" x="373" y="-205.8253" font-family="Helvetica,sans-Serif" font-size="10.00" fill="#000000">LinkedMap&lt; PageDef &gt;</text>
</a>
</g>
</g>
<!-- Node1&#45;&gt;Node24 -->
<g id="edge23" class="edge">
<title>Node1&#45;&gt;Node24</title>
<path fill="none" stroke="#ffa500" stroke-dasharray="5,2" d="M68.4111,-295.1407C80.9241,-274.3567 101.9622,-245.5552 129,-231.3253 186.1378,-201.2539 261.2729,-198.7518 312.9915,-201.7008"/>
<polygon fill="#ffa500" stroke="#ffa500" points="65.2394,-293.6343 63.2708,-304.0447 71.3017,-297.1341 65.2394,-293.6343"/>
<text text-anchor="middle" x="202" y="-234.3253" font-family="Helvetica,sans-Serif" font-size="10.00" fill="#000000"> &lt; PageDef &gt;</text>
</g>
<!-- Node26 -->
<g id="node26" class="node">
<title>Node26</title>
<g id="a_node26"><a xlink:href="../../d0/d2c/class_linked_map.html" target="_top" xlink:title=" ">
<polygon fill="#ffffff" stroke="#666666" points="429.5,-180.8253 316.5,-180.8253 316.5,-161.8253 429.5,-161.8253 429.5,-180.8253"/>
<text text-anchor="middle" x="373" y="-168.8253" font-family="Helvetica,sans-Serif" font-size="10.00" fill="#000000">LinkedMap&lt; RefList &gt;</text>
</a>
</g>
</g>
<!-- Node1&#45;&gt;Node26 -->
<g id="edge25" class="edge">
<title>Node1&#45;&gt;Node26</title>
<path fill="none" stroke="#ffa500" stroke-dasharray="5,2" d="M61.3677,-294.1477C70.1743,-262.6546 90.0972,-209.8895 129,-185.3253 189.6325,-147.0403 276.5479,-153.2022 328.6205,-161.812"/>
<polygon fill="#ffa500" stroke="#ffa500" points="57.9507,-293.38 58.796,-303.9411 64.7212,-295.158 57.9507,-293.38"/>
<text text-anchor="middle" x="202" y="-188.3253" font-family="Helvetica,sans-Serif" font-size="10.00" fill="#000000"> &lt; RefList &gt;</text>
</g>
<!-- Node28 -->
<g id="node28" class="node">
<title>Node28</title>
<g id="a_node28"><a xlink:href="../../d0/d2c/class_linked_map.html" target="_top" xlink:title=" ">
<polygon fill="#ffffff" stroke="#666666" points="438.5,-143.8253 307.5,-143.8253 307.5,-124.8253 438.5,-124.8253 438.5,-143.8253"/>
<text text-anchor="middle" x="373" y="-131.8253" font-family="Helvetica,sans-Serif" font-size="10.00" fill="#000000">LinkedMap&lt; SectionInfo &gt;</text>
</a>
</g>
</g>
<!-- Node1&#45;&gt;Node28 -->
<g id="edge27" class="edge">
<title>Node1&#45;&gt;Node28</title>
<path fill="none" stroke="#ffa500" stroke-dasharray="5,2" d="M57.4742,-294.1112C62.1371,-253.7668 77.6708,-175.6589 129,-140.3253 156.8793,-121.134 244.9788,-123.5579 307.2845,-128.0934"/>
<polygon fill="#ffa500" stroke="#ffa500" points="53.9787,-293.8903 56.4466,-304.1936 60.9426,-294.6001 53.9787,-293.8903"/>
<text text-anchor="middle" x="202" y="-143.3253" font-family="Helvetica,sans-Serif" font-size="10.00" fill="#000000"> &lt; SectionInfo &gt;</text>
</g>
<!-- Node30 -->
<g id="node30" class="node">
<title>Node30</title>
<g id="a_node30"><a xlink:href="../../d0/d2c/class_linked_map.html" target="_top" xlink:title=" ">
<polygon fill="#ffffff" stroke="#666666" points="431.5,-106.8253 314.5,-106.8253 314.5,-87.8253 431.5,-87.8253 431.5,-106.8253"/>
<text text-anchor="middle" x="373" y="-94.8253" font-family="Helvetica,sans-Serif" font-size="10.00" fill="#000000">LinkedMap&lt; Formula &gt;</text>
</a>
</g>
</g>
<!-- Node1&#45;&gt;Node30 -->
<g id="edge29" class="edge">
<title>Node1&#45;&gt;Node30</title>
<path fill="none" stroke="#ffa500" stroke-dasharray="5,2" d="M60.7297,-294.0743C71.7439,-243.555 98.815,-132.9371 129,-110.3253 189.7732,-64.7997 284.8521,-76.583 336.55,-87.7901"/>
<polygon fill="#ffa500" stroke="#ffa500" points="57.2403,-293.6546 58.5697,-304.1657 64.0853,-295.1198 57.2403,-293.6546"/>
<text text-anchor="middle" x="202" y="-113.3253" font-family="Helvetica,sans-Serif" font-size="10.00" fill="#000000"> &lt; Formula &gt;</text>
</g>
<!-- Node31 -->
<g id="node31" class="node">
<title>Node31</title>
<g id="a_node31"><a xlink:href="../../d0/d2c/class_linked_map.html" target="_top" xlink:title=" ">
<polygon fill="#ffffff" stroke="#666666" points="436.5,-69.8253 309.5,-69.8253 309.5,-50.8253 436.5,-50.8253 436.5,-69.8253"/>
<text text-anchor="middle" x="373" y="-57.8253" font-family="Helvetica,sans-Serif" font-size="10.00" fill="#000000">LinkedMap&lt; IndexField &gt;</text>
</a>
</g>
</g>
<!-- Node1&#45;&gt;Node31 -->
<g id="edge30" class="edge">
<title>Node1&#45;&gt;Node31</title>
<path fill="none" stroke="#ffa500" stroke-dasharray="5,2" d="M58.924,-294.0922C67.4767,-235.2372 91.7966,-91.7104 129,-63.3253 156.2392,-42.5426 246.4658,-46.8247 309.2101,-52.7948"/>
<polygon fill="#ffa500" stroke="#ffa500" points="55.4508,-293.657 57.511,-304.0496 62.3814,-294.6405 55.4508,-293.657"/>
<text text-anchor="middle" x="202" y="-66.3253" font-family="Helvetica,sans-Serif" font-size="10.00" fill="#000000"> &lt; IndexField &gt;</text>
</g>
<!-- Node32 -->
<g id="node32" class="node">
<title>Node32</title>
<g id="a_node32"><a xlink:href="../../d0/d2c/class_linked_map.html" target="_top" xlink:title=" ">
<polygon fill="#ffffff" stroke="#666666" points="445.5,-32.8253 300.5,-32.8253 300.5,-13.8253 445.5,-13.8253 445.5,-32.8253"/>
<text text-anchor="middle" x="373" y="-20.8253" font-family="Helvetica,sans-Serif" font-size="10.00" fill="#000000">LinkedMap&lt; PreIncludeInfo &gt;</text>
</a>
</g>
</g>
<!-- Node1&#45;&gt;Node32 -->
<g id="edge31" class="edge">
<title>Node1&#45;&gt;Node32</title>
<path fill="none" stroke="#ffa500" stroke-dasharray="5,2" d="M58.1596,-294.2931C65.4563,-230.8568 88.023,-66.4689 129,-33.3253 189.9829,15.9997 290.2511,-.743 341.1778,-13.824"/>
<polygon fill="#ffa500" stroke="#ffa500" points="54.6799,-293.9169 57.0459,-304.2442 61.6365,-294.6955 54.6799,-293.9169"/>
<text text-anchor="middle" x="202" y="-36.3253" font-family="Helvetica,sans-Serif" font-size="10.00" fill="#000000"> &lt; PreIncludeInfo &gt;</text>
</g>
<!-- Node3 -->
<g id="node3" class="node">
<title>Node3</title>
<g id="a_node3"><a xlink:href="../../d0/d10/class_class_linked_map.html" target="_top" xlink:title=" ">
<polygon fill="#ffffff" stroke="#666666" points="605.5,-668.8253 516.5,-668.8253 516.5,-649.8253 605.5,-649.8253 605.5,-668.8253"/>
<text text-anchor="middle" x="561" y="-656.8253" font-family="Helvetica,sans-Serif" font-size="10.00" fill="#000000">ClassLinkedMap</text>
</a>
</g>
</g>
<!-- Node2&#45;&gt;Node3 -->
<g id="edge2" class="edge">
<title>Node2&#45;&gt;Node3</title>
<path fill="none" stroke="#63b8ff" d="M444.7237,-659.3253C468.7848,-659.3253 494.912,-659.3253 516.2939,-659.3253"/>
<polygon fill="#63b8ff" stroke="#63b8ff" points="444.5583,-655.8254 434.5582,-659.3253 444.5582,-662.8254 444.5583,-655.8254"/>
</g>
<!-- Node5 -->
<g id="node5" class="node">
<title>Node5</title>
<g id="a_node5"><a xlink:href="../../db/ded/class_concept_linked_map.html" target="_top" xlink:title=" ">
<polygon fill="#ffffff" stroke="#666666" points="611.5,-631.8253 510.5,-631.8253 510.5,-612.8253 611.5,-612.8253 611.5,-631.8253"/>
<text text-anchor="middle" x="561" y="-619.8253" font-family="Helvetica,sans-Serif" font-size="10.00" fill="#000000">ConceptLinkedMap</text>
</a>
</g>
</g>
<!-- Node4&#45;&gt;Node5 -->
<g id="edge4" class="edge">
<title>Node4&#45;&gt;Node5</title>
<path fill="none" stroke="#63b8ff" d="M450.2189,-622.3253C470.4487,-622.3253 491.7503,-622.3253 510.2101,-622.3253"/>
<polygon fill="#63b8ff" stroke="#63b8ff" points="450.0761,-618.8254 440.0761,-622.3253 450.0761,-625.8254 450.0761,-618.8254"/>
</g>
<!-- Node7 -->
<g id="node7" class="node">
<title>Node7</title>
<g id="a_node7"><a xlink:href="../../dd/dd7/class_dir_def_1_1_used_dir_linked_map.html" target="_top" xlink:title=" ">
<polygon fill="#ffffff" stroke="#666666" points="628,-594.8253 494,-594.8253 494,-575.8253 628,-575.8253 628,-594.8253"/>
<text text-anchor="middle" x="561" y="-582.8253" font-family="Helvetica,sans-Serif" font-size="10.00" fill="#000000">DirDef::UsedDirLinkedMap</text>
</a>
</g>
</g>
<!-- Node6&#45;&gt;Node7 -->
<g id="edge6" class="edge">
<title>Node6&#45;&gt;Node7</title>
<path fill="none" stroke="#63b8ff" d="M442.5135,-585.3253C459.3017,-585.3253 477.2099,-585.3253 493.8856,-585.3253"/>
<polygon fill="#63b8ff" stroke="#63b8ff" points="442.2264,-581.8254 432.2263,-585.3253 442.2263,-588.8254 442.2264,-581.8254"/>
</g>
<!-- Node9 -->
<g id="node9" class="node">
<title>Node9</title>
<g id="a_node9"><a xlink:href="../../de/d40/class_dir_linked_map.html" target="_top" xlink:title="A linked map of directories.">
<polygon fill="#ffffff" stroke="#666666" points="599.5,-557.8253 522.5,-557.8253 522.5,-538.8253 599.5,-538.8253 599.5,-557.8253"/>
<text text-anchor="middle" x="561" y="-545.8253" font-family="Helvetica,sans-Serif" font-size="10.00" fill="#000000">DirLinkedMap</text>
</a>
</g>
</g>
<!-- Node8&#45;&gt;Node9 -->
<g id="edge8" class="edge">
<title>Node8&#45;&gt;Node9</title>
<path fill="none" stroke="#63b8ff" d="M438.2672,-548.3253C466.2864,-548.3253 498.0737,-548.3253 522.2773,-548.3253"/>
<polygon fill="#63b8ff" stroke="#63b8ff" points="438.136,-544.8254 428.1359,-548.3253 438.1359,-551.8254 438.136,-544.8254"/>
</g>
<!-- Node11 -->
<g id="node11" class="node">
<title>Node11</title>
<g id="a_node11"><a xlink:href="../../d4/d03/class_dir_relation_linked_map.html" target="_top" xlink:title=" ">
<polygon fill="#ffffff" stroke="#666666" points="617.5,-520.8253 504.5,-520.8253 504.5,-501.8253 617.5,-501.8253 617.5,-520.8253"/>
<text text-anchor="middle" x="561" y="-508.8253" font-family="Helvetica,sans-Serif" font-size="10.00" fill="#000000">DirRelationLinkedMap</text>
</a>
</g>
</g>
<!-- Node10&#45;&gt;Node11 -->
<g id="edge10" class="edge">
<title>Node10&#45;&gt;Node11</title>
<path fill="none" stroke="#63b8ff" d="M448.9178,-511.3253C467.4284,-511.3253 486.9112,-511.3253 504.3468,-511.3253"/>
<polygon fill="#63b8ff" stroke="#63b8ff" points="448.7533,-507.8254 438.7533,-511.3253 448.7532,-514.8254 448.7533,-507.8254"/>
</g>
<!-- Node13 -->
<g id="node13" class="node">
<title>Node13</title>
<g id="a_node13"><a xlink:href="../../d0/d2c/class_file_name_linked_map.html" target="_top" xlink:title="Ordered dictionary of FileName objects.">
<polygon fill="#ffffff" stroke="#666666" points="614,-461.8253 508,-461.8253 508,-442.8253 614,-442.8253 614,-461.8253"/>
<text text-anchor="middle" x="561" y="-449.8253" font-family="Helvetica,sans-Serif" font-size="10.00" fill="#000000">FileNameLinkedMap</text>
</a>
</g>
</g>
<!-- Node12&#45;&gt;Node13 -->
<g id="edge12" class="edge">
<title>Node12&#45;&gt;Node13</title>
<path fill="none" stroke="#63b8ff" d="M458.5357,-452.3253C475.3824,-452.3253 492.5947,-452.3253 507.9844,-452.3253"/>
<polygon fill="#63b8ff" stroke="#63b8ff" points="458.1131,-448.8254 448.1131,-452.3253 458.113,-455.8254 458.1131,-448.8254"/>
</g>
<!-- Node15 -->
<g id="node15" class="node">
<title>Node15</title>
<g id="a_node15"><a xlink:href="../../d3/d29/class_file_pair_linked_map.html" target="_top" xlink:title="A linked map of file pairs.">
<polygon fill="#ffffff" stroke="#666666" points="609.5,-402.8253 512.5,-402.8253 512.5,-383.8253 609.5,-383.8253 609.5,-402.8253"/>
<text text-anchor="middle" x="561" y="-390.8253" font-family="Helvetica,sans-Serif" font-size="10.00" fill="#000000">FilePairLinkedMap</text>
</a>
</g>
</g>
<!-- Node14&#45;&gt;Node15 -->
<g id="edge14" class="edge">
<title>Node14&#45;&gt;Node15</title>
<path fill="none" stroke="#63b8ff" d="M440.9841,-393.3253C464.5855,-393.3253 490.562,-393.3253 512.294,-393.3253"/>
<polygon fill="#63b8ff" stroke="#63b8ff" points="440.6839,-389.8254 430.6838,-393.3253 440.6838,-396.8254 440.6839,-389.8254"/>
</g>
<!-- Node17 -->
<g id="node17" class="node">
<title>Node17</title>
<g id="a_node17"><a xlink:href="../../d3/dbd/class_group_linked_map.html" target="_top" xlink:title=" ">
<polygon fill="#ffffff" stroke="#666666" points="606,-365.8253 516,-365.8253 516,-346.8253 606,-346.8253 606,-365.8253"/>
<text text-anchor="middle" x="561" y="-353.8253" font-family="Helvetica,sans-Serif" font-size="10.00" fill="#000000">GroupLinkedMap</text>
</a>
</g>
</g>
<!-- Node16&#45;&gt;Node17 -->
<g id="edge16" class="edge">
<title>Node16&#45;&gt;Node17</title>
<path fill="none" stroke="#63b8ff" d="M445.1455,-356.3253C468.9614,-356.3253 494.7587,-356.3253 515.9516,-356.3253"/>
<polygon fill="#63b8ff" stroke="#63b8ff" points="445.0793,-352.8254 435.0793,-356.3253 445.0792,-359.8254 445.0793,-352.8254"/>
</g>
<!-- Node19 -->
<g id="node19" class="node">
<title>Node19</title>
<g id="a_node19"><a xlink:href="../../de/d04/class_member_name_info_linked_map.html" target="_top" xlink:title=" ">
<polygon fill="#ffffff" stroke="#666666" points="632,-328.8253 490,-328.8253 490,-309.8253 632,-309.8253 632,-328.8253"/>
<text text-anchor="middle" x="561" y="-316.8253" font-family="Helvetica,sans-Serif" font-size="10.00" fill="#000000">MemberNameInfoLinkedMap</text>
</a>
</g>
</g>
<!-- Node18&#45;&gt;Node19 -->
<g id="edge18" class="edge">
<title>Node18&#45;&gt;Node19</title>
<path fill="none" stroke="#63b8ff" d="M463.1408,-319.3253C472.1548,-319.3253 481.2163,-319.3253 489.9928,-319.3253"/>
<polygon fill="#63b8ff" stroke="#63b8ff" points="463.0016,-315.8254 453.0015,-319.3253 463.0015,-322.8254 463.0016,-315.8254"/>
</g>
<!-- Node21 -->
<g id="node21" class="node">
<title>Node21</title>
<g id="a_node21"><a xlink:href="../../da/d3d/class_member_name_linked_map.html" target="_top" xlink:title="Ordered dictionary of MemberName objects.">
<polygon fill="#ffffff" stroke="#666666" points="623.5,-291.8253 498.5,-291.8253 498.5,-272.8253 623.5,-272.8253 623.5,-291.8253"/>
<text text-anchor="middle" x="561" y="-279.8253" font-family="Helvetica,sans-Serif" font-size="10.00" fill="#000000">MemberNameLinkedMap</text>
</a>
</g>
</g>
<!-- Node20&#45;&gt;Node21 -->
<g id="edge20" class="edge">
<title>Node20&#45;&gt;Node21</title>
<path fill="none" stroke="#63b8ff" d="M454.6933,-282.3253C469.3767,-282.3253 484.4677,-282.3253 498.4997,-282.3253"/>
<polygon fill="#63b8ff" stroke="#63b8ff" points="454.6111,-278.8254 444.611,-282.3253 454.611,-285.8254 454.6111,-278.8254"/>
</g>
<!-- Node23 -->
<g id="node23" class="node">
<title>Node23</title>
<g id="a_node23"><a xlink:href="../../d7/d60/class_namespace_linked_map.html" target="_top" xlink:title=" ">
<polygon fill="#ffffff" stroke="#666666" points="619,-254.8253 503,-254.8253 503,-235.8253 619,-235.8253 619,-254.8253"/>
<text text-anchor="middle" x="561" y="-242.8253" font-family="Helvetica,sans-Serif" font-size="10.00" fill="#000000">NamespaceLinkedMap</text>
</a>
</g>
</g>
<!-- Node22&#45;&gt;Node23 -->
<g id="edge22" class="edge">
<title>Node22&#45;&gt;Node23</title>
<path fill="none" stroke="#63b8ff" d="M458.4384,-245.3253C473.448,-245.3253 488.7512,-245.3253 502.8001,-245.3253"/>
<polygon fill="#63b8ff" stroke="#63b8ff" points="458.1131,-241.8254 448.1131,-245.3253 458.113,-248.8254 458.1131,-241.8254"/>
</g>
<!-- Node25 -->
<g id="node25" class="node">
<title>Node25</title>
<g id="a_node25"><a xlink:href="../../d9/d5e/class_page_linked_map.html" target="_top" xlink:title=" ">
<polygon fill="#ffffff" stroke="#666666" points="604,-217.8253 518,-217.8253 518,-198.8253 604,-198.8253 604,-217.8253"/>
<text text-anchor="middle" x="561" y="-205.8253" font-family="Helvetica,sans-Serif" font-size="10.00" fill="#000000">PageLinkedMap</text>
</a>
</g>
</g>
<!-- Node24&#45;&gt;Node25 -->
<g id="edge24" class="edge">
<title>Node24&#45;&gt;Node25</title>
<path fill="none" stroke="#63b8ff" d="M443.2127,-208.3253C468.3006,-208.3253 495.8082,-208.3253 517.927,-208.3253"/>
<polygon fill="#63b8ff" stroke="#63b8ff" points="443.0013,-204.8254 433.0013,-208.3253 443.0012,-211.8254 443.0013,-204.8254"/>
</g>
<!-- Node27 -->
<g id="node27" class="node">
<title>Node27</title>
<g id="a_node27"><a xlink:href="../../d7/d5a/class_ref_list_manager.html" target="_top" xlink:title=" ">
<polygon fill="#ffffff" stroke="#666666" points="604,-180.8253 518,-180.8253 518,-161.8253 604,-161.8253 604,-180.8253"/>
<text text-anchor="middle" x="561" y="-168.8253" font-family="Helvetica,sans-Serif" font-size="10.00" fill="#000000">RefListManager</text>
</a>
</g>
</g>
<!-- Node26&#45;&gt;Node27 -->
<g id="edge26" class="edge">
<title>Node26&#45;&gt;Node27</title>
<path fill="none" stroke="#63b8ff" d="M439.8213,-171.3253C465.7889,-171.3253 494.7839,-171.3253 517.8994,-171.3253"/>
<polygon fill="#63b8ff" stroke="#63b8ff" points="439.6612,-167.8254 429.6611,-171.3253 439.6611,-174.8254 439.6612,-167.8254"/>
</g>
<!-- Node29 -->
<g id="node29" class="node">
<title>Node29</title>
<g id="a_node29"><a xlink:href="../../df/df5/class_section_manager.html" target="_top" xlink:title="singleton class that owns the list of all sections">
<polygon fill="#ffffff" stroke="#666666" points="604.5,-143.8253 517.5,-143.8253 517.5,-124.8253 604.5,-124.8253 604.5,-143.8253"/>
<text text-anchor="middle" x="561" y="-131.8253" font-family="Helvetica,sans-Serif" font-size="10.00" fill="#000000">SectionManager</text>
</a>
</g>
</g>
<!-- Node28&#45;&gt;Node29 -->
<g id="edge28" class="edge">
<title>Node28&#45;&gt;Node29</title>
<path fill="none" stroke="#63b8ff" d="M448.9661,-134.3253C472.2414,-134.3253 497.0494,-134.3253 517.3891,-134.3253"/>
<polygon fill="#63b8ff" stroke="#63b8ff" points="448.7533,-130.8254 438.7533,-134.3253 448.7532,-137.8254 448.7533,-130.8254"/>
</g>
</g>
</svg>
