<?xml version="1.0" encoding="UTF-8" standalone="no"?>
<!DOCTYPE svg PUBLIC "-//W3C//DTD SVG 1.1//EN"
 "http://www.w3.org/Graphics/SVG/1.1/DTD/svg11.dtd">
<!-- Generated by graphviz version 2.40.1 (20161225.0304)
 -->
<!-- Title: CallContext::Ctx Pages: 1 -->
<svg width="237pt" height="162pt"
 viewBox="0.00 0.00 237.00 162.00" xmlns="http://www.w3.org/2000/svg" xmlns:xlink="http://www.w3.org/1999/xlink">
<g id="graph0" class="graph" transform="scale(1 1) rotate(0) translate(4 158)">
<title>CallContext::Ctx</title>
<!-- Node1 -->
<g id="node1" class="node">
<title>Node1</title>
<g id="a_node1"><a xlink:title=" ">
<polygon fill="#999999" stroke="#666666" points="90,-19 0,-19 0,0 90,0 90,-19"/>
<text text-anchor="middle" x="45" y="-7" font-family="Helvetica,sans-Serif" font-size="10.00" fill="#000000">CallContext::Ctx</text>
</a>
</g>
</g>
<!-- Node2 -->
<g id="node2" class="node">
<title>Node2</title>
<g id="a_node2"><a xlink:href="../../d9/d45/class_q_c_string.html" target="_top" xlink:title="This is an alternative implementation of QCString.">
<polygon fill="#ffffff" stroke="#666666" points="68.5,-154 11.5,-154 11.5,-135 68.5,-135 68.5,-154"/>
<text text-anchor="middle" x="40" y="-142" font-family="Helvetica,sans-Serif" font-size="10.00" fill="#000000">QCString</text>
</a>
</g>
</g>
<!-- Node2&#45;&gt;Node1 -->
<g id="edge1" class="edge">
<title>Node2&#45;&gt;Node1</title>
<path fill="none" stroke="#9a32cd" stroke-dasharray="5,2" d="M38.5392,-124.6261C37.6021,-108.7463 36.7702,-85.9279 38,-66 39.0228,-49.4264 41.7178,-30.2731 43.4498,-19.0637"/>
<polygon fill="#9a32cd" stroke="#9a32cd" points="35.0611,-125.0744 39.2122,-134.8222 42.0459,-124.6133 35.0611,-125.0744"/>
<text text-anchor="middle" x="52" y="-80" font-family="Helvetica,sans-Serif" font-size="10.00" fill="#000000"> name</text>
<text text-anchor="middle" x="52" y="-69" font-family="Helvetica,sans-Serif" font-size="10.00" fill="#000000">type</text>
</g>
<!-- Node3 -->
<g id="node3" class="node">
<title>Node3</title>
<g id="a_node3"><a xlink:href="../../de/ddb/class_scoped_type_variant.html" target="_top" xlink:title=" ">
<polygon fill="#ffffff" stroke="#666666" points="177,-86.5 75,-86.5 75,-67.5 177,-67.5 177,-86.5"/>
<text text-anchor="middle" x="126" y="-74.5" font-family="Helvetica,sans-Serif" font-size="10.00" fill="#000000">ScopedTypeVariant</text>
</a>
</g>
</g>
<!-- Node2&#45;&gt;Node3 -->
<g id="edge3" class="edge">
<title>Node2&#45;&gt;Node3</title>
<path fill="none" stroke="#9a32cd" stroke-dasharray="5,2" d="M56.506,-127.6985C63.751,-120.6736 72.524,-112.622 81,-106 90.0818,-98.9047 100.9235,-91.879 109.6894,-86.5202"/>
<polygon fill="#9a32cd" stroke="#9a32cd" points="53.9748,-125.2793 49.3305,-134.8019 58.8995,-130.254 53.9748,-125.2793"/>
<text text-anchor="middle" x="101.5" y="-109" font-family="Helvetica,sans-Serif" font-size="10.00" fill="#000000"> m_name</text>
</g>
<!-- Node3&#45;&gt;Node1 -->
<g id="edge2" class="edge">
<title>Node3&#45;&gt;Node1</title>
<path fill="none" stroke="#9a32cd" stroke-dasharray="5,2" d="M106.414,-60.6783C90.8352,-47.696 69.5668,-29.9723 56.5838,-19.1532"/>
<polygon fill="#9a32cd" stroke="#9a32cd" points="104.4718,-63.6158 114.3947,-67.3289 108.9531,-58.2382 104.4718,-63.6158"/>
<text text-anchor="middle" x="99.5" y="-40" font-family="Helvetica,sans-Serif" font-size="10.00" fill="#000000"> stv</text>
</g>
<!-- Node4 -->
<g id="node4" class="node">
<title>Node4</title>
<g id="a_node4"><a xlink:href="../../d5/dcc/class_definition.html" target="_top" xlink:title="The common base class of all entity definitions found in the sources.">
<polygon fill="#ffffff" stroke="#666666" points="155,-154 97,-154 97,-135 155,-135 155,-154"/>
<text text-anchor="middle" x="126" y="-142" font-family="Helvetica,sans-Serif" font-size="10.00" fill="#000000">Definition</text>
</a>
</g>
</g>
<!-- Node4&#45;&gt;Node3 -->
<g id="edge4" class="edge">
<title>Node4&#45;&gt;Node3</title>
<path fill="none" stroke="#9a32cd" stroke-dasharray="5,2" d="M126,-124.4594C126,-111.9731 126,-96.4705 126,-86.6532"/>
<polygon fill="#9a32cd" stroke="#9a32cd" points="122.5001,-124.8289 126,-134.8289 129.5001,-124.8289 122.5001,-124.8289"/>
<text text-anchor="middle" x="148.5" y="-109" font-family="Helvetica,sans-Serif" font-size="10.00" fill="#000000"> globalDef</text>
</g>
<!-- Node5 -->
<g id="node5" class="node">
<title>Node5</title>
<g id="a_node5"><a xlink:href="../../dc/db8/class_local_def.html" target="_top" xlink:title="Class representing a local class definition found while generating syntax highlighted code.">
<polygon fill="#ffffff" stroke="#666666" points="229,-154 173,-154 173,-135 229,-135 229,-154"/>
<text text-anchor="middle" x="201" y="-142" font-family="Helvetica,sans-Serif" font-size="10.00" fill="#000000">LocalDef</text>
</a>
</g>
</g>
<!-- Node5&#45;&gt;Node3 -->
<g id="edge5" class="edge">
<title>Node5&#45;&gt;Node3</title>
<path fill="none" stroke="#9a32cd" stroke-dasharray="5,2" d="M190.9056,-126.0808C186.5933,-119.256 181.1346,-111.7796 175,-106 166.7978,-98.2724 156.1838,-91.6764 146.9325,-86.7366"/>
<polygon fill="#9a32cd" stroke="#9a32cd" points="187.9335,-127.931 196.0314,-134.7629 193.9614,-124.3723 187.9335,-127.931"/>
<text text-anchor="middle" x="204" y="-109" font-family="Helvetica,sans-Serif" font-size="10.00" fill="#000000"> localDef</text>
</g>
</g>
</svg>
