<?xml version="1.0" encoding="UTF-8" standalone="no"?>
<!DOCTYPE svg PUBLIC "-//W3C//DTD SVG 1.1//EN"
 "http://www.w3.org/Graphics/SVG/1.1/DTD/svg11.dtd">
<!-- Generated by graphviz version 2.40.1 (20161225.0304)
 -->
<!-- Title: src/scopedtypevariant.h Pages: 1 -->
<!--zoomable 357 -->
<svg id="main" version="1.1" xmlns="http://www.w3.org/2000/svg" xmlns:xlink="http://www.w3.org/1999/xlink" xml:space="preserve" onload="init(evt)">
<style type="text/css"><![CDATA[
.edge:hover path { stroke: red; }
.edge:hover polygon { stroke: red; fill: red; }
]]></style>
<script type="text/javascript"><![CDATA[
var edges = document.getElementsByTagName('g');
if (edges && edges.length) {
  for (var i=0;i<edges.length;i++) {
    if (edges[i].id.substr(0,4)=='edge') {
      edges[i].setAttribute('class','edge');
    }
  }
}
]]></script>
        <defs>
                <circle id="rim" cx="0" cy="0" r="7"/>
                <circle id="rim2" cx="0" cy="0" r="3.5"/>
                <g id="zoomPlus">
                        <use xlink:href="#rim" fill="#404040">
                                <set attributeName="fill" to="#808080" begin="zoomplus.mouseover" end="zoomplus.mouseout"/>
                        </use>
                        <path d="M-4,0h8M0,-4v8" fill="none" stroke="white" stroke-width="1.5" pointer-events="none"/>
                </g>
                <g id="zoomMin">
                        <use xlink:href="#rim" fill="#404040">
                                <set attributeName="fill" to="#808080" begin="zoomminus.mouseover" end="zoomminus.mouseout"/>
                        </use>
                        <path d="M-4,0h8" fill="none" stroke="white" stroke-width="1.5" pointer-events="none"/>
                </g>
                <g id="dirArrow">
                        <path fill="none" stroke="white" stroke-width="1.5" d="M0,-3.0v7 M-2.5,-0.5L0,-3.0L2.5,-0.5"/>
                </g>
               <g id="resetDef">
                       <use xlink:href="#rim2" fill="#404040">
                               <set attributeName="fill" to="#808080" begin="reset.mouseover" end="reset.mouseout"/>
                       </use>
               </g>
        </defs>

<script type="text/javascript">
var viewWidth = 693;
var viewHeight = 357;
var sectionId = 'dynsection-0';
</script>
<script xlink:href="../../svgpan.js"/>
<svg id="graph" class="graph">
<g id="viewport">
<title>src/scopedtypevariant.h</title>
<!-- Node1 -->
<g id="node1" class="node">
<title>Node1</title>
<g id="a_node1"><a xlink:title=" ">
<polygon fill="#999999" stroke="#666666" points="436.5,-349 315.5,-349 315.5,-330 436.5,-330 436.5,-349"/>
<text text-anchor="middle" x="376" y="-337" font-family="Helvetica,sans-Serif" font-size="10.00" fill="#000000">src/scopedtypevariant.h</text>
</a>
</g>
</g>
<!-- Node2 -->
<g id="node2" class="node">
<title>Node2</title>
<g id="a_node2"><a xlink:title=" ">
<polygon fill="#e0e0e0" stroke="#999999" points="270,-294 230,-294 230,-275 270,-275 270,-294"/>
<text text-anchor="middle" x="250" y="-282" font-family="Helvetica,sans-Serif" font-size="10.00" fill="#000000">utility</text>
</a>
</g>
</g>
<!-- Node1&#45;&gt;Node2 -->
<g id="edge1" class="edge">
<title>Node1&#45;&gt;Node2</title>
<path fill="none" stroke="#63b8ff" d="M354.0525,-329.9197C333.3233,-320.8713 302.0913,-307.2383 279.2534,-297.2693"/>
<polygon fill="#63b8ff" stroke="#63b8ff" points="280.5998,-294.0382 270.0347,-293.2453 277.7994,-300.4536 280.5998,-294.0382"/>
</g>
<!-- Node3 -->
<g id="node3" class="node">
<title>Node3</title>
<g id="a_node3"><a xlink:title=" ">
<polygon fill="#e0e0e0" stroke="#999999" points="685,-129 641,-129 641,-110 685,-110 685,-129"/>
<text text-anchor="middle" x="663" y="-117" font-family="Helvetica,sans-Serif" font-size="10.00" fill="#000000">vector</text>
</a>
</g>
</g>
<!-- Node1&#45;&gt;Node3 -->
<g id="edge2" class="edge">
<title>Node1&#45;&gt;Node3</title>
<path fill="none" stroke="#63b8ff" d="M399.1911,-329.857C446.4886,-309.2237 555.321,-256.6879 623,-184 635.861,-170.1872 646.8523,-151.6394 654.04,-137.9793"/>
<polygon fill="#63b8ff" stroke="#63b8ff" points="657.1748,-139.5361 658.5739,-129.034 650.931,-136.3714 657.1748,-139.5361"/>
</g>
<!-- Node4 -->
<g id="node4" class="node">
<title>Node4</title>
<g id="a_node4"><a xlink:href="../../d7/d5c/qcstring_8h.html" target="_top" xlink:title=" ">
<polygon fill="#ffffff" stroke="#666666" points="337.5,-129 278.5,-129 278.5,-110 337.5,-110 337.5,-129"/>
<text text-anchor="middle" x="308" y="-117" font-family="Helvetica,sans-Serif" font-size="10.00" fill="#000000">qcstring.h</text>
</a>
</g>
</g>
<!-- Node1&#45;&gt;Node4 -->
<g id="edge3" class="edge">
<title>Node1&#45;&gt;Node4</title>
<path fill="none" stroke="#63b8ff" d="M371.4943,-329.922C360.4007,-305.926 331.6096,-241.0633 317,-184 313.2261,-169.2595 310.9328,-152.1921 309.6064,-139.3179"/>
<polygon fill="#63b8ff" stroke="#63b8ff" points="313.0813,-138.8834 308.6768,-129.2475 306.1109,-139.5269 313.0813,-138.8834"/>
</g>
<!-- Node14 -->
<g id="node14" class="node">
<title>Node14</title>
<g id="a_node14"><a xlink:href="../../df/da1/definition_8h.html" target="_top" xlink:title=" ">
<polygon fill="#ffffff" stroke="#666666" points="461,-294 397,-294 397,-275 461,-275 461,-294"/>
<text text-anchor="middle" x="429" y="-282" font-family="Helvetica,sans-Serif" font-size="10.00" fill="#000000">definition.h</text>
</a>
</g>
</g>
<!-- Node1&#45;&gt;Node14 -->
<g id="edge15" class="edge">
<title>Node1&#45;&gt;Node14</title>
<path fill="none" stroke="#63b8ff" d="M385.2319,-329.9197C392.7391,-322.1293 403.521,-310.9405 412.5049,-301.6176"/>
<polygon fill="#63b8ff" stroke="#63b8ff" points="415.0983,-303.9703 419.517,-294.3408 410.0578,-299.113 415.0983,-303.9703"/>
</g>
<!-- Node5 -->
<g id="node5" class="node">
<title>Node5</title>
<g id="a_node5"><a xlink:title=" ">
<polygon fill="#e0e0e0" stroke="#999999" points="325.5,-19 284.5,-19 284.5,0 325.5,0 325.5,-19"/>
<text text-anchor="middle" x="305" y="-7" font-family="Helvetica,sans-Serif" font-size="10.00" fill="#000000">string</text>
</a>
</g>
</g>
<!-- Node4&#45;&gt;Node5 -->
<g id="edge4" class="edge">
<title>Node4&#45;&gt;Node5</title>
<path fill="none" stroke="#63b8ff" d="M302.3061,-109.7798C297.4146,-100.8283 290.732,-87.0044 288,-74 284.7312,-58.4402 289.8584,-41.0179 295.316,-28.2064"/>
<polygon fill="#63b8ff" stroke="#63b8ff" points="298.5355,-29.5843 299.6097,-19.044 292.197,-26.6139 298.5355,-29.5843"/>
</g>
<!-- Node6 -->
<g id="node6" class="node">
<title>Node6</title>
<g id="a_node6"><a xlink:title=" ">
<polygon fill="#e0e0e0" stroke="#999999" points="515,-74 459,-74 459,-55 515,-55 515,-74"/>
<text text-anchor="middle" x="487" y="-62" font-family="Helvetica,sans-Serif" font-size="10.00" fill="#000000">algorithm</text>
</a>
</g>
</g>
<!-- Node4&#45;&gt;Node6 -->
<g id="edge5" class="edge">
<title>Node4&#45;&gt;Node6</title>
<path fill="none" stroke="#63b8ff" d="M337.5582,-110.4179C368.0647,-101.0444 415.7668,-86.3873 449.0448,-76.1622"/>
<polygon fill="#63b8ff" stroke="#63b8ff" points="450.3434,-79.4248 458.8744,-73.142 448.2874,-72.7335 450.3434,-79.4248"/>
</g>
<!-- Node7 -->
<g id="node7" class="node">
<title>Node7</title>
<g id="a_node7"><a xlink:title=" ">
<polygon fill="#e0e0e0" stroke="#999999" points="441,-74 395,-74 395,-55 441,-55 441,-74"/>
<text text-anchor="middle" x="418" y="-62" font-family="Helvetica,sans-Serif" font-size="10.00" fill="#000000">cctype</text>
</a>
</g>
</g>
<!-- Node4&#45;&gt;Node7 -->
<g id="edge6" class="edge">
<title>Node4&#45;&gt;Node7</title>
<path fill="none" stroke="#63b8ff" d="M327.1605,-109.9197C344.4053,-101.2973 369.976,-88.512 389.5978,-78.7011"/>
<polygon fill="#63b8ff" stroke="#63b8ff" points="391.3109,-81.7577 398.69,-74.155 388.1804,-75.4967 391.3109,-81.7577"/>
</g>
<!-- Node8 -->
<g id="node8" class="node">
<title>Node8</title>
<g id="a_node8"><a xlink:title=" ">
<polygon fill="#e0e0e0" stroke="#999999" points="46,-74 0,-74 0,-55 46,-55 46,-74"/>
<text text-anchor="middle" x="23" y="-62" font-family="Helvetica,sans-Serif" font-size="10.00" fill="#000000">cstring</text>
</a>
</g>
</g>
<!-- Node4&#45;&gt;Node8 -->
<g id="edge7" class="edge">
<title>Node4&#45;&gt;Node8</title>
<path fill="none" stroke="#63b8ff" d="M278.1778,-115.2315C232.4036,-108.444 141.932,-94.0984 56.2238,-74.0915"/>
<polygon fill="#63b8ff" stroke="#63b8ff" points="56.8755,-70.6492 46.3384,-71.7533 55.2642,-77.4612 56.8755,-70.6492"/>
</g>
<!-- Node9 -->
<g id="node9" class="node">
<title>Node9</title>
<g id="a_node9"><a xlink:title=" ">
<polygon fill="#e0e0e0" stroke="#999999" points="107.5,-74 64.5,-74 64.5,-55 107.5,-55 107.5,-74"/>
<text text-anchor="middle" x="86" y="-62" font-family="Helvetica,sans-Serif" font-size="10.00" fill="#000000">cstdio</text>
</a>
</g>
</g>
<!-- Node4&#45;&gt;Node9 -->
<g id="edge8" class="edge">
<title>Node4&#45;&gt;Node9</title>
<path fill="none" stroke="#63b8ff" d="M278.2241,-113.1606C242.2561,-105.3473 179.7234,-91.2681 117.5452,-74.2906"/>
<polygon fill="#63b8ff" stroke="#63b8ff" points="118.1437,-70.8251 107.5731,-71.5415 116.2833,-77.5734 118.1437,-70.8251"/>
</g>
<!-- Node10 -->
<g id="node10" class="node">
<title>Node10</title>
<g id="a_node10"><a xlink:title=" ">
<polygon fill="#e0e0e0" stroke="#999999" points="170.5,-74 125.5,-74 125.5,-55 170.5,-55 170.5,-74"/>
<text text-anchor="middle" x="148" y="-62" font-family="Helvetica,sans-Serif" font-size="10.00" fill="#000000">cstdlib</text>
</a>
</g>
</g>
<!-- Node4&#45;&gt;Node10 -->
<g id="edge9" class="edge">
<title>Node4&#45;&gt;Node10</title>
<path fill="none" stroke="#63b8ff" d="M280.1301,-109.9197C252.4189,-100.394 209.9267,-85.7873 180.6505,-75.7236"/>
<polygon fill="#63b8ff" stroke="#63b8ff" points="181.4869,-72.3102 170.8922,-72.3692 179.2113,-78.93 181.4869,-72.3102"/>
</g>
<!-- Node11 -->
<g id="node11" class="node">
<title>Node11</title>
<g id="a_node11"><a xlink:title=" ">
<polygon fill="#e0e0e0" stroke="#999999" points="390,-19 344,-19 344,0 390,0 390,-19"/>
<text text-anchor="middle" x="367" y="-7" font-family="Helvetica,sans-Serif" font-size="10.00" fill="#000000">cstdint</text>
</a>
</g>
</g>
<!-- Node4&#45;&gt;Node11 -->
<g id="edge10" class="edge">
<title>Node4&#45;&gt;Node11</title>
<path fill="none" stroke="#63b8ff" d="M318.2942,-109.9272C327.0385,-101.2878 339.3539,-87.8427 347,-74 354.7942,-59.8892 359.9855,-42.3291 363.1214,-29.0958"/>
<polygon fill="#63b8ff" stroke="#63b8ff" points="366.5753,-29.684 365.2842,-19.1682 359.7357,-28.1939 366.5753,-29.684"/>
</g>
<!-- Node12 -->
<g id="node12" class="node">
<title>Node12</title>
<g id="a_node12"><a xlink:title=" ">
<polygon fill="#e0e0e0" stroke="#999999" points="241,-74 189,-74 189,-55 241,-55 241,-74"/>
<text text-anchor="middle" x="215" y="-62" font-family="Helvetica,sans-Serif" font-size="10.00" fill="#000000">ostream</text>
</a>
</g>
</g>
<!-- Node4&#45;&gt;Node12 -->
<g id="edge11" class="edge">
<title>Node4&#45;&gt;Node12</title>
<path fill="none" stroke="#63b8ff" d="M291.8006,-109.9197C277.6186,-101.5325 256.7761,-89.2063 240.381,-79.5103"/>
<polygon fill="#63b8ff" stroke="#63b8ff" points="241.7149,-76.2329 231.3258,-74.155 238.1515,-82.2581 241.7149,-76.2329"/>
</g>
<!-- Node13 -->
<g id="node13" class="node">
<title>Node13</title>
<g id="a_node13"><a xlink:href="../../db/d7c/utf8_8h.html" target="_top" xlink:title="Various UTF8 related helper functions.">
<polygon fill="#ffffff" stroke="#666666" points="338.5,-74 297.5,-74 297.5,-55 338.5,-55 338.5,-74"/>
<text text-anchor="middle" x="318" y="-62" font-family="Helvetica,sans-Serif" font-size="10.00" fill="#000000">utf8.h</text>
</a>
</g>
</g>
<!-- Node4&#45;&gt;Node13 -->
<g id="edge12" class="edge">
<title>Node4&#45;&gt;Node13</title>
<path fill="none" stroke="#63b8ff" d="M309.7419,-109.9197C311.0167,-102.9083 312.792,-93.1442 314.37,-84.4652"/>
<polygon fill="#63b8ff" stroke="#63b8ff" points="317.8654,-84.8057 316.2108,-74.3408 310.9783,-83.5534 317.8654,-84.8057"/>
</g>
<!-- Node13&#45;&gt;Node5 -->
<g id="edge14" class="edge">
<title>Node13&#45;&gt;Node5</title>
<path fill="none" stroke="#63b8ff" d="M315.7356,-54.9197C314.0599,-47.8304 311.7191,-37.9269 309.6508,-29.1763"/>
<polygon fill="#63b8ff" stroke="#63b8ff" points="313.0325,-28.2676 307.326,-19.3408 306.2202,-29.8778 313.0325,-28.2676"/>
</g>
<!-- Node13&#45;&gt;Node11 -->
<g id="edge13" class="edge">
<title>Node13&#45;&gt;Node11</title>
<path fill="none" stroke="#63b8ff" d="M326.5351,-54.9197C333.4063,-47.2072 343.2449,-36.1639 351.5001,-26.8978"/>
<polygon fill="#63b8ff" stroke="#63b8ff" points="354.1939,-29.1357 358.2327,-19.3408 348.9673,-24.4792 354.1939,-29.1357"/>
</g>
<!-- Node14&#45;&gt;Node3 -->
<g id="edge16" class="edge">
<title>Node14&#45;&gt;Node3</title>
<path fill="none" stroke="#63b8ff" d="M449.3178,-274.9213C482.483,-258.7712 549.5121,-223.9483 599,-184 616.8905,-169.5582 635.1547,-150.6536 647.5681,-137.0491"/>
<polygon fill="#63b8ff" stroke="#63b8ff" points="650.4053,-139.1283 654.4854,-129.3506 645.1984,-134.4497 650.4053,-139.1283"/>
</g>
<!-- Node15 -->
<g id="node15" class="node">
<title>Node15</title>
<g id="a_node15"><a xlink:href="../../d9/d49/types_8h.html" target="_top" xlink:title="This file contains a number of basic enums and types.">
<polygon fill="#ffffff" stroke="#666666" points="375.5,-184 326.5,-184 326.5,-165 375.5,-165 375.5,-184"/>
<text text-anchor="middle" x="351" y="-172" font-family="Helvetica,sans-Serif" font-size="10.00" fill="#000000">types.h</text>
</a>
</g>
</g>
<!-- Node14&#45;&gt;Node15 -->
<g id="edge17" class="edge">
<title>Node14&#45;&gt;Node15</title>
<path fill="none" stroke="#63b8ff" d="M422.078,-274.7382C408.9779,-256.2636 380.3843,-215.9395 363.7314,-192.4546"/>
<polygon fill="#63b8ff" stroke="#63b8ff" points="366.4345,-190.2157 357.7951,-184.0828 360.7244,-194.2647 366.4345,-190.2157"/>
</g>
<!-- Node16 -->
<g id="node16" class="node">
<title>Node16</title>
<g id="a_node16"><a xlink:href="../../d1/d02/reflist_8h.html" target="_top" xlink:title=" ">
<polygon fill="#ffffff" stroke="#666666" points="504.5,-239 455.5,-239 455.5,-220 504.5,-220 504.5,-239"/>
<text text-anchor="middle" x="480" y="-227" font-family="Helvetica,sans-Serif" font-size="10.00" fill="#000000">reflist.h</text>
</a>
</g>
</g>
<!-- Node14&#45;&gt;Node16 -->
<g id="edge19" class="edge">
<title>Node14&#45;&gt;Node16</title>
<path fill="none" stroke="#63b8ff" d="M437.8835,-274.9197C445.0352,-267.2072 455.2753,-256.1639 463.8675,-246.8978"/>
<polygon fill="#63b8ff" stroke="#63b8ff" points="466.6419,-249.0533 470.8749,-239.3408 461.509,-244.2937 466.6419,-249.0533"/>
</g>
<!-- Node15&#45;&gt;Node4 -->
<g id="edge18" class="edge">
<title>Node15&#45;&gt;Node4</title>
<path fill="none" stroke="#63b8ff" d="M343.51,-164.9197C337.602,-157.363 329.1941,-146.6087 322.0427,-137.4616"/>
<polygon fill="#63b8ff" stroke="#63b8ff" points="324.6103,-135.0632 315.6937,-129.3408 319.0957,-139.3747 324.6103,-135.0632"/>
</g>
<!-- Node16&#45;&gt;Node3 -->
<g id="edge20" class="edge">
<title>Node16&#45;&gt;Node3</title>
<path fill="none" stroke="#63b8ff" d="M501.4348,-219.88C520.1812,-211.2102 547.9382,-197.7473 571,-184 596.4866,-168.8073 624.1664,-148.8974 642.4351,-135.2397"/>
<polygon fill="#63b8ff" stroke="#63b8ff" points="644.7195,-137.9008 650.5965,-129.0854 640.5049,-132.3117 644.7195,-137.9008"/>
</g>
<!-- Node16&#45;&gt;Node4 -->
<g id="edge23" class="edge">
<title>Node16&#45;&gt;Node4</title>
<path fill="none" stroke="#63b8ff" d="M466.1597,-219.8696C447.6349,-207.0563 413.6677,-183.8293 384,-165 367.2263,-154.3542 348.0277,-142.8659 333.1233,-134.0965"/>
<polygon fill="#63b8ff" stroke="#63b8ff" points="334.8556,-131.055 324.4581,-129.0195 331.3169,-137.0947 334.8556,-131.055"/>
</g>
<!-- Node17 -->
<g id="node17" class="node">
<title>Node17</title>
<g id="a_node17"><a xlink:title=" ">
<polygon fill="#e0e0e0" stroke="#999999" points="438.5,-129 355.5,-129 355.5,-110 438.5,-110 438.5,-129"/>
<text text-anchor="middle" x="397" y="-117" font-family="Helvetica,sans-Serif" font-size="10.00" fill="#000000">unordered_map</text>
</a>
</g>
</g>
<!-- Node16&#45;&gt;Node17 -->
<g id="edge21" class="edge">
<title>Node16&#45;&gt;Node17</title>
<path fill="none" stroke="#63b8ff" d="M472.6343,-219.7382C458.6327,-201.1819 427.9984,-160.5822 410.3131,-137.1438"/>
<polygon fill="#63b8ff" stroke="#63b8ff" points="413.0478,-134.9573 404.2307,-129.0828 407.46,-139.1735 413.0478,-134.9573"/>
</g>
<!-- Node18 -->
<g id="node18" class="node">
<title>Node18</title>
<g id="a_node18"><a xlink:title=" ">
<polygon fill="#e0e0e0" stroke="#999999" points="623,-129 571,-129 571,-110 623,-110 623,-129"/>
<text text-anchor="middle" x="597" y="-117" font-family="Helvetica,sans-Serif" font-size="10.00" fill="#000000">memory</text>
</a>
</g>
</g>
<!-- Node16&#45;&gt;Node18 -->
<g id="edge22" class="edge">
<title>Node16&#45;&gt;Node18</title>
<path fill="none" stroke="#63b8ff" d="M497.6328,-219.9032C512.0843,-211.5433 532.5922,-198.5103 548,-184 562.8061,-170.0563 576.5218,-151.2816 585.6537,-137.5846"/>
<polygon fill="#63b8ff" stroke="#63b8ff" points="588.6939,-139.3292 591.2004,-129.0351 582.8215,-135.5193 588.6939,-139.3292"/>
</g>
<!-- Node19 -->
<g id="node19" class="node">
<title>Node19</title>
<g id="a_node19"><a xlink:href="../../da/de1/linkedmap_8h.html" target="_top" xlink:title=" ">
<polygon fill="#ffffff" stroke="#666666" points="539.5,-184 470.5,-184 470.5,-165 539.5,-165 539.5,-184"/>
<text text-anchor="middle" x="505" y="-172" font-family="Helvetica,sans-Serif" font-size="10.00" fill="#000000">linkedmap.h</text>
</a>
</g>
</g>
<!-- Node16&#45;&gt;Node19 -->
<g id="edge24" class="edge">
<title>Node16&#45;&gt;Node19</title>
<path fill="none" stroke="#63b8ff" d="M484.3547,-219.9197C487.6479,-212.6746 492.2772,-202.4903 496.3177,-193.601"/>
<polygon fill="#63b8ff" stroke="#63b8ff" points="499.5751,-194.8928 500.5269,-184.3408 493.2025,-191.9962 499.5751,-194.8928"/>
</g>
<!-- Node19&#45;&gt;Node3 -->
<g id="edge26" class="edge">
<title>Node19&#45;&gt;Node3</title>
<path fill="none" stroke="#63b8ff" d="M532.5215,-164.9197C560.0446,-155.3389 602.333,-140.6183 631.2577,-130.5496"/>
<polygon fill="#63b8ff" stroke="#63b8ff" points="632.5917,-133.7912 640.8852,-127.1982 630.2904,-127.1803 632.5917,-133.7912"/>
</g>
<!-- Node19&#45;&gt;Node4 -->
<g id="edge31" class="edge">
<title>Node19&#45;&gt;Node4</title>
<path fill="none" stroke="#63b8ff" d="M470.6852,-164.9197C436.3246,-155.3267 383.5068,-140.5806 347.4391,-130.5109"/>
<polygon fill="#63b8ff" stroke="#63b8ff" points="348.3124,-127.121 337.7396,-127.8029 346.43,-133.8631 348.3124,-127.121"/>
</g>
<!-- Node19&#45;&gt;Node5 -->
<g id="edge28" class="edge">
<title>Node19&#45;&gt;Node5</title>
<path fill="none" stroke="#63b8ff" d="M510.9818,-164.8272C523.8539,-142.6462 550.9193,-87.5307 524,-55 471.4545,8.4989 421.6369,-36.4237 335.4167,-18.6387"/>
<polygon fill="#63b8ff" stroke="#63b8ff" points="336.0956,-15.2035 325.5647,-16.3652 334.5216,-22.0242 336.0956,-15.2035"/>
</g>
<!-- Node19&#45;&gt;Node6 -->
<g id="edge29" class="edge">
<title>Node19&#45;&gt;Node6</title>
<path fill="none" stroke="#63b8ff" d="M503.4026,-164.7382C500.4464,-146.6724 494.0712,-107.713 490.1971,-84.0376"/>
<polygon fill="#63b8ff" stroke="#63b8ff" points="493.6371,-83.3863 488.5681,-74.0828 486.729,-84.5168 493.6371,-83.3863"/>
</g>
<!-- Node19&#45;&gt;Node7 -->
<g id="edge30" class="edge">
<title>Node19&#45;&gt;Node7</title>
<path fill="none" stroke="#63b8ff" d="M497.2793,-164.7382C482.603,-146.1819 450.4923,-105.5822 431.9546,-82.1438"/>
<polygon fill="#63b8ff" stroke="#63b8ff" points="434.5277,-79.755 425.5791,-74.0828 429.0374,-84.0974 434.5277,-79.755"/>
</g>
<!-- Node19&#45;&gt;Node17 -->
<g id="edge25" class="edge">
<title>Node19&#45;&gt;Node17</title>
<path fill="none" stroke="#63b8ff" d="M486.1878,-164.9197C469.2566,-156.2973 444.1508,-143.512 424.8858,-133.7011"/>
<polygon fill="#63b8ff" stroke="#63b8ff" points="426.4583,-130.5742 415.959,-129.155 423.2817,-136.812 426.4583,-130.5742"/>
</g>
<!-- Node19&#45;&gt;Node18 -->
<g id="edge27" class="edge">
<title>Node19&#45;&gt;Node18</title>
<path fill="none" stroke="#63b8ff" d="M521.0252,-164.9197C535.0547,-156.5325 555.6731,-144.2063 571.8919,-134.5103"/>
<polygon fill="#63b8ff" stroke="#63b8ff" points="574.0626,-137.2904 580.8498,-129.155 570.4707,-131.2822 574.0626,-137.2904"/>
</g>
</g>
</svg>
        <g id="navigator" transform="translate(0 0)" fill="#404254">
                <rect fill="#f2f5e9" fill-opacity="0.5" stroke="#606060" stroke-width=".5" x="0" y="0" width="60" height="60"/>
                <use id="zoomplus" xlink:href="#zoomPlus" x="17" y="9" onmousedown="handleZoom(evt,'in')"/>
                <use id="zoomminus" xlink:href="#zoomMin" x="42" y="9" onmousedown="handleZoom(evt,'out')"/>
                <use id="reset" xlink:href="#resetDef" x="30" y="36" onmousedown="handleReset()"/>
                <g id="arrowUp" xlink:href="#dirArrow" transform="translate(30 24)" onmousedown="handlePan(0,-1)">
                  <use xlink:href="#rim" fill="#404040">
                        <set attributeName="fill" to="#808080" begin="arrowUp.mouseover" end="arrowUp.mouseout"/>
                  </use>
                  <path fill="none" stroke="white" stroke-width="1.5" d="M0,-3.0v7 M-2.5,-0.5L0,-3.0L2.5,-0.5"/>
                </g>
                <g id="arrowRight" xlink:href="#dirArrow" transform="rotate(90) translate(36 -43)" onmousedown="handlePan(1,0)">
                  <use xlink:href="#rim" fill="#404040">
                        <set attributeName="fill" to="#808080" begin="arrowRight.mouseover" end="arrowRight.mouseout"/>
                  </use>
                  <path fill="none" stroke="white" stroke-width="1.5" d="M0,-3.0v7 M-2.5,-0.5L0,-3.0L2.5,-0.5"/>
                </g>
                <g id="arrowDown" xlink:href="#dirArrow" transform="rotate(180) translate(-30 -48)" onmousedown="handlePan(0,1)">
                  <use xlink:href="#rim" fill="#404040">
                        <set attributeName="fill" to="#808080" begin="arrowDown.mouseover" end="arrowDown.mouseout"/>
                  </use>
                  <path fill="none" stroke="white" stroke-width="1.5" d="M0,-3.0v7 M-2.5,-0.5L0,-3.0L2.5,-0.5"/>
                </g>
                <g id="arrowLeft" xlink:href="#dirArrow" transform="rotate(270) translate(-36 17)" onmousedown="handlePan(-1,0)">
                  <use xlink:href="#rim" fill="#404040">
                        <set attributeName="fill" to="#808080" begin="arrowLeft.mouseover" end="arrowLeft.mouseout"/>
                  </use>
                  <path fill="none" stroke="white" stroke-width="1.5" d="M0,-3.0v7 M-2.5,-0.5L0,-3.0L2.5,-0.5"/>
                </g>
        </g>
        <svg viewBox="0 0 15 15" width="100%" height="30px" preserveAspectRatio="xMaxYMin meet">
         <g id="arrow_out" transform="scale(0.3 0.3)">
          <a xlink:href="scopedtypevariant_8h__incl_org.svg" target="_base">
           <rect id="button" ry="5" rx="5" y="6" x="6" height="38" width="38"
                fill="#f2f5e9" fill-opacity="0.5" stroke="#606060" stroke-width="1.0"/>
           <path id="arrow"
             d="M 11.500037,31.436501 C 11.940474,20.09759 22.043105,11.32322 32.158766,21.979434 L 37.068811,17.246167 C 37.068811,17.246167 37.088388,32 37.088388,32 L 22.160133,31.978069 C 22.160133,31.978069 26.997745,27.140456 26.997745,27.140456 C 18.528582,18.264221 13.291696,25.230495 11.500037,31.436501 z"
             style="fill:#404040;"/>
          </a>
         </g>
        </svg>
</svg>
