<?xml version="1.0" encoding="UTF-8" standalone="no"?>
<!DOCTYPE svg PUBLIC "-//W3C//DTD SVG 1.1//EN"
 "http://www.w3.org/Graphics/SVG/1.1/DTD/svg11.dtd">
<!-- Generated by graphviz version 2.40.1 (20161225.0304)
 -->
<!-- Title: doctokenizerYY_state Pages: 1 -->
<svg width="223pt" height="317pt"
 viewBox="0.00 0.00 222.50 317.00" xmlns="http://www.w3.org/2000/svg" xmlns:xlink="http://www.w3.org/1999/xlink">
<g id="graph0" class="graph" transform="scale(1 1) rotate(0) translate(4 313)">
<title>doctokenizerYY_state</title>
<!-- Node1 -->
<g id="node1" class="node">
<title>Node1</title>
<g id="a_node1"><a xlink:title=" ">
<polygon fill="#999999" stroke="#666666" points="165,-19 52,-19 52,0 165,0 165,-19"/>
<text text-anchor="middle" x="108.5" y="-7" font-family="Helvetica,sans-Serif" font-size="10.00" fill="#000000">doctokenizerYY_state</text>
</a>
</g>
</g>
<!-- Node2 -->
<g id="node2" class="node">
<title>Node2</title>
<g id="a_node2"><a xlink:href="../../d6/df4/struct_token_info.html" target="_top" xlink:title="Data associated with a token used by the comment block parser.">
<polygon fill="#ffffff" stroke="#666666" points="138.5,-97.5 78.5,-97.5 78.5,-78.5 138.5,-78.5 138.5,-97.5"/>
<text text-anchor="middle" x="108.5" y="-85.5" font-family="Helvetica,sans-Serif" font-size="10.00" fill="#000000">TokenInfo</text>
</a>
</g>
</g>
<!-- Node2&#45;&gt;Node1 -->
<g id="edge1" class="edge">
<title>Node2&#45;&gt;Node1</title>
<path fill="none" stroke="#9a32cd" stroke-dasharray="5,2" d="M108.5,-68.1602C108.5,-52.5135 108.5,-31.3669 108.5,-19.2044"/>
<polygon fill="#9a32cd" stroke="#9a32cd" points="105.0001,-68.3743 108.5,-78.3744 112.0001,-68.3744 105.0001,-68.3743"/>
<text text-anchor="middle" x="122.5" y="-40" font-family="Helvetica,sans-Serif" font-size="10.00" fill="#000000"> token</text>
</g>
<!-- Node3 -->
<g id="node3" class="node">
<title>Node3</title>
<g id="a_node3"><a xlink:href="../../d9/d45/class_q_c_string.html" target="_top" xlink:title="This is an alternative implementation of QCString.">
<polygon fill="#ffffff" stroke="#666666" points="57,-253 0,-253 0,-234 57,-234 57,-253"/>
<text text-anchor="middle" x="28.5" y="-241" font-family="Helvetica,sans-Serif" font-size="10.00" fill="#000000">QCString</text>
</a>
</g>
</g>
<!-- Node3&#45;&gt;Node1 -->
<g id="edge5" class="edge">
<title>Node3&#45;&gt;Node1</title>
<path fill="none" stroke="#9a32cd" stroke-dasharray="5,2" d="M21.4862,-224.171C10.3218,-189.9061 -7.5248,-117.297 20.5,-66 33.1216,-42.8972 59.6771,-27.8395 80.3328,-19.125"/>
<polygon fill="#9a32cd" stroke="#9a32cd" points="18.2578,-225.5468 24.8096,-233.873 24.88,-223.2784 18.2578,-225.5468"/>
<text text-anchor="middle" x="45" y="-102" font-family="Helvetica,sans-Serif" font-size="10.00" fill="#000000"> endMarker</text>
<text text-anchor="middle" x="45" y="-91" font-family="Helvetica,sans-Serif" font-size="10.00" fill="#000000">fileName</text>
<text text-anchor="middle" x="45" y="-80" font-family="Helvetica,sans-Serif" font-size="10.00" fill="#000000">secLabel</text>
<text text-anchor="middle" x="45" y="-69" font-family="Helvetica,sans-Serif" font-size="10.00" fill="#000000">secTitle</text>
</g>
<!-- Node3&#45;&gt;Node2 -->
<g id="edge2" class="edge">
<title>Node3&#45;&gt;Node2</title>
<path fill="none" stroke="#9a32cd" stroke-dasharray="5,2" d="M25.7003,-223.6899C23.2945,-199.1843 22.7254,-157.1414 41.5,-128 47.1862,-119.174 70.5485,-106.372 88.0977,-97.6443"/>
<polygon fill="#9a32cd" stroke="#9a32cd" points="22.257,-224.3749 26.9119,-233.8924 29.2081,-223.5494 22.257,-224.3749"/>
<text text-anchor="middle" x="79.5" y="-208" font-family="Helvetica,sans-Serif" font-size="10.00" fill="#000000"> attribsStr</text>
<text text-anchor="middle" x="79.5" y="-197" font-family="Helvetica,sans-Serif" font-size="10.00" fill="#000000">chars</text>
<text text-anchor="middle" x="79.5" y="-186" font-family="Helvetica,sans-Serif" font-size="10.00" fill="#000000">name</text>
<text text-anchor="middle" x="79.5" y="-175" font-family="Helvetica,sans-Serif" font-size="10.00" fill="#000000">sectionId</text>
<text text-anchor="middle" x="79.5" y="-164" font-family="Helvetica,sans-Serif" font-size="10.00" fill="#000000">simpleSectName</text>
<text text-anchor="middle" x="79.5" y="-153" font-family="Helvetica,sans-Serif" font-size="10.00" fill="#000000">simpleSectText</text>
<text text-anchor="middle" x="79.5" y="-142" font-family="Helvetica,sans-Serif" font-size="10.00" fill="#000000">text</text>
<text text-anchor="middle" x="79.5" y="-131" font-family="Helvetica,sans-Serif" font-size="10.00" fill="#000000">verb</text>
</g>
<!-- Node4 -->
<g id="node4" class="node">
<title>Node4</title>
<g id="a_node4"><a xlink:href="../../db/d4d/class_html_attrib_list.html" target="_top" xlink:title="Class representing a list of HTML attributes.">
<polygon fill="#ffffff" stroke="#666666" points="182,-253 105,-253 105,-234 182,-234 182,-253"/>
<text text-anchor="middle" x="143.5" y="-241" font-family="Helvetica,sans-Serif" font-size="10.00" fill="#000000">HtmlAttribList</text>
</a>
</g>
</g>
<!-- Node4&#45;&gt;Node2 -->
<g id="edge3" class="edge">
<title>Node4&#45;&gt;Node2</title>
<path fill="none" stroke="#9a32cd" stroke-dasharray="5,2" d="M140.5391,-223.8946C136.871,-200.7832 130.0472,-161.3031 121.5,-128 118.8135,-117.5323 114.8883,-105.7987 112.0545,-97.7616"/>
<polygon fill="#9a32cd" stroke="#9a32cd" points="137.0882,-224.4813 142.08,-233.8265 144.0054,-223.4081 137.0882,-224.4813"/>
<text text-anchor="middle" x="155" y="-169.5" font-family="Helvetica,sans-Serif" font-size="10.00" fill="#000000"> attribs</text>
</g>
<!-- Node5 -->
<g id="node5" class="node">
<title>Node5</title>
<g id="a_node5"><a xlink:title=" ">
<polygon fill="#ffffff" stroke="#666666" points="206,-309 81,-309 81,-290 206,-290 206,-309"/>
<text text-anchor="middle" x="143.5" y="-297" font-family="Helvetica,sans-Serif" font-size="10.00" fill="#000000">std::vector&lt; HtmlAttrib &gt;</text>
</a>
</g>
</g>
<!-- Node5&#45;&gt;Node4 -->
<g id="edge4" class="edge">
<title>Node5&#45;&gt;Node4</title>
<path fill="none" stroke="#63b8ff" d="M143.5,-279.6575C143.5,-270.655 143.5,-260.4199 143.5,-253.1427"/>
<polygon fill="#63b8ff" stroke="#63b8ff" points="140.0001,-279.7455 143.5,-289.7455 147.0001,-279.7456 140.0001,-279.7455"/>
</g>
<!-- Node6 -->
<g id="node6" class="node">
<title>Node6</title>
<g id="a_node6"><a xlink:href="../../d5/dcc/class_definition.html" target="_top" xlink:title="The common base class of all entity definitions found in the sources.">
<polygon fill="#ffffff" stroke="#666666" points="214.5,-97.5 156.5,-97.5 156.5,-78.5 214.5,-78.5 214.5,-97.5"/>
<text text-anchor="middle" x="185.5" y="-85.5" font-family="Helvetica,sans-Serif" font-size="10.00" fill="#000000">Definition</text>
</a>
</g>
</g>
<!-- Node6&#45;&gt;Node1 -->
<g id="edge6" class="edge">
<title>Node6&#45;&gt;Node1</title>
<path fill="none" stroke="#9a32cd" stroke-dasharray="5,2" d="M171.0929,-70.4926C162.5291,-60.3923 151.2676,-47.6278 140.5,-37 134.1396,-30.7222 126.5739,-24.1824 120.3962,-19.056"/>
<polygon fill="#9a32cd" stroke="#9a32cd" points="168.4794,-72.8233 177.582,-78.2449 173.8471,-68.3302 168.4794,-72.8233"/>
<text text-anchor="middle" x="173" y="-40" font-family="Helvetica,sans-Serif" font-size="10.00" fill="#000000"> definition</text>
</g>
</g>
</svg>
