<?xml version="1.0" encoding="UTF-8" standalone="no"?>
<!DOCTYPE svg PUBLIC "-//W3C//DTD SVG 1.1//EN"
 "http://www.w3.org/Graphics/SVG/1.1/DTD/svg11.dtd">
<!-- Generated by graphviz version 2.43.0 (0)
 -->
<!-- Title: libxml/xml.h Pages: 1 -->
<svg width="324pt" height="82pt"
 viewBox="0.00 0.00 323.50 82.00" xmlns="http://www.w3.org/2000/svg" xmlns:xlink="http://www.w3.org/1999/xlink">
<g id="graph0" class="graph" transform="scale(1 1) rotate(0) translate(4 78)">
<title>libxml/xml.h</title>
<!-- Node1 -->
<g id="node1" class="node">
<title>Node1</title>
<g id="a_node1"><a xlink:title=" ">
<polygon fill="#999999" stroke="#666666" points="184,-74 106,-74 106,-55 184,-55 184,-74"/>
<text text-anchor="middle" x="145" y="-62" font-family="Helvetica,sans-Serif" font-size="10.00">libxml/xml.h</text>
</a>
</g>
</g>
<!-- Node2 -->
<g id="node2" class="node">
<title>Node2</title>
<g id="a_node2"><a xlink:title=" ">
<polygon fill="#e0e0e0" stroke="#999999" points="58,-19 0,-19 0,0 58,0 58,-19"/>
<text text-anchor="middle" x="29" y="-7" font-family="Helvetica,sans-Serif" font-size="10.00">memory</text>
</a>
</g>
</g>
<!-- Node1&#45;&gt;Node2 -->
<g id="edge1" class="edge">
<title>Node1&#45;&gt;Node2</title>
<path fill="none" stroke="#63b8ff" d="M126.36,-54.98C107.7,-46.46 78.75,-33.23 57.26,-23.41"/>
<polygon fill="#63b8ff" stroke="#63b8ff" points="58.53,-20.14 47.98,-19.17 55.62,-26.51 58.53,-20.14"/>
</g>
<!-- Node3 -->
<g id="node3" class="node">
<title>Node3</title>
<g id="a_node3"><a xlink:title=" ">
<polygon fill="#e0e0e0" stroke="#999999" points="141.5,-19 76.5,-19 76.5,0 141.5,0 141.5,-19"/>
<text text-anchor="middle" x="109" y="-7" font-family="Helvetica,sans-Serif" font-size="10.00">functional</text>
</a>
</g>
</g>
<!-- Node1&#45;&gt;Node3 -->
<g id="edge2" class="edge">
<title>Node1&#45;&gt;Node3</title>
<path fill="none" stroke="#63b8ff" d="M139.06,-54.75C134.02,-47.34 126.66,-36.5 120.49,-27.41"/>
<polygon fill="#63b8ff" stroke="#63b8ff" points="123.35,-25.39 114.83,-19.09 117.56,-29.33 123.35,-25.39"/>
</g>
<!-- Node4 -->
<g id="node4" class="node">
<title>Node4</title>
<g id="a_node4"><a xlink:title=" ">
<polygon fill="#e0e0e0" stroke="#999999" points="204,-19 160,-19 160,0 204,0 204,-19"/>
<text text-anchor="middle" x="182" y="-7" font-family="Helvetica,sans-Serif" font-size="10.00">string</text>
</a>
</g>
</g>
<!-- Node1&#45;&gt;Node4 -->
<g id="edge3" class="edge">
<title>Node1&#45;&gt;Node4</title>
<path fill="none" stroke="#63b8ff" d="M151.11,-54.75C156.28,-47.34 163.85,-36.5 170.19,-27.41"/>
<polygon fill="#63b8ff" stroke="#63b8ff" points="173.15,-29.29 176,-19.09 167.41,-25.29 173.15,-29.29"/>
</g>
<!-- Node5 -->
<g id="node5" class="node">
<title>Node5</title>
<g id="a_node5"><a xlink:title=" ">
<polygon fill="#e0e0e0" stroke="#999999" points="315.5,-19 222.5,-19 222.5,0 315.5,0 315.5,-19"/>
<text text-anchor="middle" x="269" y="-7" font-family="Helvetica,sans-Serif" font-size="10.00">unordered_map</text>
</a>
</g>
</g>
<!-- Node1&#45;&gt;Node5 -->
<g id="edge4" class="edge">
<title>Node1&#45;&gt;Node5</title>
<path fill="none" stroke="#63b8ff" d="M164.92,-54.98C185.05,-46.38 216.38,-32.99 239.41,-23.15"/>
<polygon fill="#63b8ff" stroke="#63b8ff" points="240.9,-26.32 248.71,-19.17 238.14,-19.88 240.9,-26.32"/>
</g>
</g>
</svg>
