<?xml version="1.0" encoding="UTF-8" standalone="no"?>
<!DOCTYPE svg PUBLIC "-//W3C//DTD SVG 1.1//EN"
 "http://www.w3.org/Graphics/SVG/1.1/DTD/svg11.dtd">
<!-- Generated by graphviz version 2.40.1 (20161225.0304)
 -->
<!-- Title: src/dotdirdeps.h Pages: 1 -->
<svg width="731pt" height="82pt"
 viewBox="0.00 0.00 730.50 82.00" xmlns="http://www.w3.org/2000/svg" xmlns:xlink="http://www.w3.org/1999/xlink">
<g id="graph0" class="graph" transform="scale(1 1) rotate(0) translate(4 78)">
<title>src/dotdirdeps.h</title>
<!-- Node1 -->
<g id="node1" class="node">
<title>Node1</title>
<g id="a_node1"><a xlink:title=" ">
<polygon fill="#999999" stroke="#666666" points="410,-74 324,-74 324,-55 410,-55 410,-74"/>
<text text-anchor="middle" x="367" y="-62" font-family="Helvetica,sans-Serif" font-size="10.00" fill="#000000">src/dotdirdeps.h</text>
</a>
</g>
</g>
<!-- Node2 -->
<g id="node2" class="node">
<title>Node2</title>
<g id="a_node2"><a xlink:href="../../db/d12/context_8cpp.html" target="_top" xlink:title=" ">
<polygon fill="#ffffff" stroke="#666666" points="84,-19 0,-19 0,0 84,0 84,-19"/>
<text text-anchor="middle" x="42" y="-7" font-family="Helvetica,sans-Serif" font-size="10.00" fill="#000000">src/context.cpp</text>
</a>
</g>
</g>
<!-- Node1&#45;&gt;Node2 -->
<g id="edge1" class="edge">
<title>Node1&#45;&gt;Node2</title>
<path fill="none" stroke="#63b8ff" d="M313.858,-55.9919C258.6168,-47.0735 169.6727,-32.5058 93,-19 90.0729,-18.4844 87.053,-17.9439 84.0129,-17.3934"/>
<polygon fill="#63b8ff" stroke="#63b8ff" points="313.3403,-59.4536 323.7699,-57.5899 314.4545,-52.5428 313.3403,-59.4536"/>
</g>
<!-- Node3 -->
<g id="node3" class="node">
<title>Node3</title>
<g id="a_node3"><a xlink:href="../../d8/d52/dirdef_8cpp.html" target="_top" xlink:title=" ">
<polygon fill="#ffffff" stroke="#666666" points="178,-19 102,-19 102,0 178,0 178,-19"/>
<text text-anchor="middle" x="140" y="-7" font-family="Helvetica,sans-Serif" font-size="10.00" fill="#000000">src/dirdef.cpp</text>
</a>
</g>
</g>
<!-- Node1&#45;&gt;Node3 -->
<g id="edge2" class="edge">
<title>Node1&#45;&gt;Node3</title>
<path fill="none" stroke="#63b8ff" d="M317.9876,-52.6247C276.0329,-42.4595 216.4846,-28.0315 178.0452,-18.718"/>
<polygon fill="#63b8ff" stroke="#63b8ff" points="317.1758,-56.0293 327.7188,-54.9825 318.8242,-49.2261 317.1758,-56.0293"/>
</g>
<!-- Node4 -->
<g id="node4" class="node">
<title>Node4</title>
<g id="a_node4"><a xlink:href="../../d8/d29/docbookgen_8cpp.html" target="_top" xlink:title=" ">
<polygon fill="#ffffff" stroke="#666666" points="300,-19 196,-19 196,0 300,0 300,-19"/>
<text text-anchor="middle" x="248" y="-7" font-family="Helvetica,sans-Serif" font-size="10.00" fill="#000000">src/docbookgen.cpp</text>
</a>
</g>
</g>
<!-- Node1&#45;&gt;Node4 -->
<g id="edge3" class="edge">
<title>Node1&#45;&gt;Node4</title>
<path fill="none" stroke="#63b8ff" d="M337.0339,-50.6501C315.7715,-40.823 287.7676,-27.88 268.89,-19.155"/>
<polygon fill="#63b8ff" stroke="#63b8ff" points="335.726,-53.9013 346.2718,-54.9197 338.6628,-47.5472 335.726,-53.9013"/>
</g>
<!-- Node5 -->
<g id="node5" class="node">
<title>Node5</title>
<g id="a_node5"><a xlink:href="../../da/d45/dotdirdeps_8cpp.html" target="_top" xlink:title=" ">
<polygon fill="#ffffff" stroke="#666666" points="415.5,-19 318.5,-19 318.5,0 415.5,0 415.5,-19"/>
<text text-anchor="middle" x="367" y="-7" font-family="Helvetica,sans-Serif" font-size="10.00" fill="#000000">src/dotdirdeps.cpp</text>
</a>
</g>
</g>
<!-- Node1&#45;&gt;Node5 -->
<g id="edge4" class="edge">
<title>Node1&#45;&gt;Node5</title>
<path fill="none" stroke="#63b8ff" d="M367,-44.8553C367,-36.2036 367,-26.4195 367,-19.3408"/>
<polygon fill="#63b8ff" stroke="#63b8ff" points="363.5001,-44.9197 367,-54.9197 370.5001,-44.9198 363.5001,-44.9197"/>
</g>
<!-- Node6 -->
<g id="node6" class="node">
<title>Node6</title>
<g id="a_node6"><a xlink:href="../../d8/d6e/htmlgen_8cpp.html" target="_top" xlink:title=" ">
<polygon fill="#ffffff" stroke="#666666" points="520,-19 434,-19 434,0 520,0 520,-19"/>
<text text-anchor="middle" x="477" y="-7" font-family="Helvetica,sans-Serif" font-size="10.00" fill="#000000">src/htmlgen.cpp</text>
</a>
</g>
</g>
<!-- Node1&#45;&gt;Node6 -->
<g id="edge5" class="edge">
<title>Node1&#45;&gt;Node6</title>
<path fill="none" stroke="#63b8ff" d="M395.2324,-50.3838C414.8198,-40.5901 440.3972,-27.8014 457.69,-19.155"/>
<polygon fill="#63b8ff" stroke="#63b8ff" points="393.5396,-47.317 386.1605,-54.9197 396.6701,-53.578 393.5396,-47.317"/>
</g>
<!-- Node7 -->
<g id="node7" class="node">
<title>Node7</title>
<g id="a_node7"><a xlink:href="../../d4/d42/latexgen_8cpp.html" target="_top" xlink:title=" ">
<polygon fill="#ffffff" stroke="#666666" points="627.5,-19 538.5,-19 538.5,0 627.5,0 627.5,-19"/>
<text text-anchor="middle" x="583" y="-7" font-family="Helvetica,sans-Serif" font-size="10.00" fill="#000000">src/latexgen.cpp</text>
</a>
</g>
</g>
<!-- Node1&#45;&gt;Node7 -->
<g id="edge6" class="edge">
<title>Node1&#45;&gt;Node7</title>
<path fill="none" stroke="#63b8ff" d="M414.5251,-52.3987C453.9031,-42.3719 509.1097,-28.3147 545.4451,-19.0626"/>
<polygon fill="#63b8ff" stroke="#63b8ff" points="413.4514,-49.0603 404.6243,-54.9197 415.1788,-55.8439 413.4514,-49.0603"/>
</g>
<!-- Node8 -->
<g id="node8" class="node">
<title>Node8</title>
<g id="a_node8"><a xlink:href="../../d0/d9c/rtfgen_8cpp.html" target="_top" xlink:title=" ">
<polygon fill="#ffffff" stroke="#666666" points="722.5,-19 645.5,-19 645.5,0 722.5,0 722.5,-19"/>
<text text-anchor="middle" x="684" y="-7" font-family="Helvetica,sans-Serif" font-size="10.00" fill="#000000">src/rtfgen.cpp</text>
</a>
</g>
</g>
<!-- Node1&#45;&gt;Node8 -->
<g id="edge7" class="edge">
<title>Node1&#45;&gt;Node8</title>
<path fill="none" stroke="#63b8ff" d="M420.22,-56.055C474.7412,-47.2808 561.913,-32.9115 637,-19 639.7012,-18.4995 642.487,-17.9703 645.2907,-17.4279"/>
<polygon fill="#63b8ff" stroke="#63b8ff" points="419.4161,-52.6392 410.0974,-57.6802 420.5258,-59.5507 419.4161,-52.6392"/>
</g>
</g>
</svg>
