<?xml version="1.0" encoding="UTF-8" standalone="no"?>
<!DOCTYPE svg PUBLIC "-//W3C//DTD SVG 1.1//EN"
 "http://www.w3.org/Graphics/SVG/1.1/DTD/svg11.dtd">
<!-- Generated by graphviz version 2.40.1 (20161225.0304)
 -->
<!-- Title: LatexGenerator Pages: 1 -->
<svg width="133pt" height="192pt"
 viewBox="0.00 0.00 133.00 192.00" xmlns="http://www.w3.org/2000/svg" xmlns:xlink="http://www.w3.org/1999/xlink">
<g id="graph0" class="graph" transform="scale(1 1) rotate(0) translate(4 188)">
<title>LatexGenerator</title>
<!-- Node1 -->
<g id="node1" class="node">
<title>Node1</title>
<g id="a_node1"><a xlink:title="Generator for LaTeX output.">
<polygon fill="#999999" stroke="#666666" points="104,-19 21,-19 21,0 104,0 104,-19"/>
<text text-anchor="middle" x="62.5" y="-7" font-family="Helvetica,sans-Serif" font-size="10.00" fill="#000000">LatexGenerator</text>
</a>
</g>
</g>
<!-- Node2 -->
<g id="node2" class="node">
<title>Node2</title>
<g id="a_node2"><a xlink:href="../../d3/d8e/class_output_generator.html" target="_top" xlink:title="Abstract output generator.">
<polygon fill="#ffffff" stroke="#666666" points="107,-74 18,-74 18,-55 107,-55 107,-74"/>
<text text-anchor="middle" x="62.5" y="-62" font-family="Helvetica,sans-Serif" font-size="10.00" fill="#000000">OutputGenerator</text>
</a>
</g>
</g>
<!-- Node2&#45;&gt;Node1 -->
<g id="edge1" class="edge">
<title>Node2&#45;&gt;Node1</title>
<path fill="none" stroke="#63b8ff" d="M62.5,-44.8553C62.5,-36.2036 62.5,-26.4195 62.5,-19.3408"/>
<polygon fill="#63b8ff" stroke="#63b8ff" points="59.0001,-44.9197 62.5,-54.9197 66.0001,-44.9198 59.0001,-44.9197"/>
</g>
<!-- Node3 -->
<g id="node3" class="node">
<title>Node3</title>
<g id="a_node3"><a xlink:href="../../df/d27/class_base_output_doc_interface.html" target="_top" xlink:title="Base Interface used for generating output outside of the comment blocks.">
<polygon fill="#ffffff" stroke="#666666" points="125,-129 0,-129 0,-110 125,-110 125,-129"/>
<text text-anchor="middle" x="62.5" y="-117" font-family="Helvetica,sans-Serif" font-size="10.00" fill="#000000">BaseOutputDocInterface</text>
</a>
</g>
</g>
<!-- Node3&#45;&gt;Node2 -->
<g id="edge2" class="edge">
<title>Node3&#45;&gt;Node2</title>
<path fill="none" stroke="#63b8ff" d="M62.5,-99.8553C62.5,-91.2036 62.5,-81.4195 62.5,-74.3408"/>
<polygon fill="#63b8ff" stroke="#63b8ff" points="59.0001,-99.9197 62.5,-109.9197 66.0001,-99.9198 59.0001,-99.9197"/>
</g>
<!-- Node4 -->
<g id="node4" class="node">
<title>Node4</title>
<g id="a_node4"><a xlink:href="../../d5/d9c/class_code_output_interface.html" target="_top" xlink:title="Output interface for code parser.">
<polygon fill="#ffffff" stroke="#666666" points="116,-184 9,-184 9,-165 116,-165 116,-184"/>
<text text-anchor="middle" x="62.5" y="-172" font-family="Helvetica,sans-Serif" font-size="10.00" fill="#000000">CodeOutputInterface</text>
</a>
</g>
</g>
<!-- Node4&#45;&gt;Node3 -->
<g id="edge3" class="edge">
<title>Node4&#45;&gt;Node3</title>
<path fill="none" stroke="#63b8ff" d="M62.5,-154.8553C62.5,-146.2036 62.5,-136.4195 62.5,-129.3408"/>
<polygon fill="#63b8ff" stroke="#63b8ff" points="59.0001,-154.9197 62.5,-164.9197 66.0001,-154.9198 59.0001,-154.9197"/>
</g>
</g>
</svg>
