<?xml version="1.0" encoding="UTF-8" standalone="no"?>
<!DOCTYPE svg PUBLIC "-//W3C//DTD SVG 1.1//EN"
 "http://www.w3.org/Graphics/SVG/1.1/DTD/svg11.dtd">
<!-- Generated by graphviz version 2.40.1 (20161225.0304)
 -->
<!-- Title: vhdlparser/VhdlParserErrorHandler.hpp Pages: 1 -->
<svg width="2475pt" height="863pt"
 viewBox="0.00 0.00 2475.00 863.00" xmlns="http://www.w3.org/2000/svg" xmlns:xlink="http://www.w3.org/1999/xlink">
<g id="graph0" class="graph" transform="scale(1 1) rotate(0) translate(4 859)">
<title>vhdlparser/VhdlParserErrorHandler.hpp</title>
<!-- Node1 -->
<g id="node1" class="node">
<title>Node1</title>
<g id="a_node1"><a xlink:title=" ">
<polygon fill="#999999" stroke="#666666" points="2029,-855 1895,-855 1895,-825 2029,-825 2029,-855"/>
<text text-anchor="start" x="1903" y="-843" font-family="Helvetica,sans-Serif" font-size="10.00" fill="#000000">vhdlparser/VhdlParserError</text>
<text text-anchor="middle" x="1962" y="-832" font-family="Helvetica,sans-Serif" font-size="10.00" fill="#000000">Handler.hpp</text>
</a>
</g>
</g>
<!-- Node2 -->
<g id="node2" class="node">
<title>Node2</title>
<g id="a_node2"><a xlink:title=" ">
<polygon fill="#e0e0e0" stroke="#999999" points="2348,-184 2302,-184 2302,-165 2348,-165 2348,-184"/>
<text text-anchor="middle" x="2325" y="-172" font-family="Helvetica,sans-Serif" font-size="10.00" fill="#000000">stdio.h</text>
</a>
</g>
</g>
<!-- Node1&#45;&gt;Node2 -->
<g id="edge1" class="edge">
<title>Node1&#45;&gt;Node2</title>
<path fill="none" stroke="#63b8ff" d="M2029.0601,-838.5758C2166.43,-833.8347 2467,-813.3132 2467,-724.5 2467,-724.5 2467,-724.5 2467,-284.5 2467,-229.5029 2399.6069,-198.0762 2357.6765,-183.8456"/>
<polygon fill="#63b8ff" stroke="#63b8ff" points="2358.7228,-180.5055 2348.1308,-180.7513 2356.5642,-187.1644 2358.7228,-180.5055"/>
</g>
<!-- Node3 -->
<g id="node3" class="node">
<title>Node3</title>
<g id="a_node3"><a xlink:title=" ">
<polygon fill="#e0e0e0" stroke="#999999" points="2439,-624 2391,-624 2391,-605 2439,-605 2439,-624"/>
<text text-anchor="middle" x="2415" y="-612" font-family="Helvetica,sans-Serif" font-size="10.00" fill="#000000">stdlib.h</text>
</a>
</g>
</g>
<!-- Node1&#45;&gt;Node3 -->
<g id="edge2" class="edge">
<title>Node1&#45;&gt;Node3</title>
<path fill="none" stroke="#63b8ff" d="M2002.1864,-824.9823C2027.1643,-815.342 2059.782,-802.195 2088,-789 2203.2016,-735.1308 2335.4206,-660.4353 2389.7224,-629.1754"/>
<polygon fill="#63b8ff" stroke="#63b8ff" points="2391.7288,-632.0585 2398.6402,-624.0284 2388.2296,-625.9958 2391.7288,-632.0585"/>
</g>
<!-- Node4 -->
<g id="node4" class="node">
<title>Node4</title>
<g id="a_node4"><a xlink:title=" ">
<polygon fill="#e0e0e0" stroke="#999999" points="1910.5,-789 1851.5,-789 1851.5,-770 1910.5,-770 1910.5,-789"/>
<text text-anchor="middle" x="1881" y="-777" font-family="Helvetica,sans-Serif" font-size="10.00" fill="#000000">exception</text>
</a>
</g>
</g>
<!-- Node1&#45;&gt;Node4 -->
<g id="edge3" class="edge">
<title>Node1&#45;&gt;Node4</title>
<path fill="none" stroke="#63b8ff" d="M1941.5603,-824.7333C1929.4922,-815.7195 1914.2449,-804.3311 1902.0687,-795.2365"/>
<polygon fill="#63b8ff" stroke="#63b8ff" points="1903.941,-792.2665 1893.8347,-789.0864 1899.7521,-797.8748 1903.941,-792.2665"/>
</g>
<!-- Node5 -->
<g id="node5" class="node">
<title>Node5</title>
<g id="a_node5"><a xlink:href="../../d5/df9/_vhdl_parser_8h.html" target="_top" xlink:title=" ">
<polygon fill="#ffffff" stroke="#666666" points="776.5,-734 703.5,-734 703.5,-715 776.5,-715 776.5,-734"/>
<text text-anchor="middle" x="740" y="-722" font-family="Helvetica,sans-Serif" font-size="10.00" fill="#000000">VhdlParser.h</text>
</a>
</g>
</g>
<!-- Node1&#45;&gt;Node5 -->
<g id="edge4" class="edge">
<title>Node1&#45;&gt;Node5</title>
<path fill="none" stroke="#63b8ff" d="M1894.9964,-833.667C1674.4003,-812.8169 974.227,-746.6385 786.6239,-728.9068"/>
<polygon fill="#63b8ff" stroke="#63b8ff" points="786.8251,-725.4103 776.5401,-727.9537 786.1663,-732.3792 786.8251,-725.4103"/>
</g>
<!-- Node65 -->
<g id="node65" class="node">
<title>Node65</title>
<g id="a_node65"><a xlink:href="../../d3/dd5/_error_handler_8h.html" target="_top" xlink:title=" ">
<polygon fill="#ffffff" stroke="#666666" points="500,-679 420,-679 420,-660 500,-660 500,-679"/>
<text text-anchor="middle" x="460" y="-667" font-family="Helvetica,sans-Serif" font-size="10.00" fill="#000000">ErrorHandler.h</text>
</a>
</g>
</g>
<!-- Node1&#45;&gt;Node65 -->
<g id="edge171" class="edge">
<title>Node1&#45;&gt;Node65</title>
<path fill="none" stroke="#63b8ff" d="M1894.7392,-839.1391C1704.6671,-835.6867 1147.9613,-818.5331 695,-734 624.4816,-720.8396 544.2847,-696.8169 498.166,-682.0942"/>
<polygon fill="#63b8ff" stroke="#63b8ff" points="499.1732,-678.7416 488.5818,-679.0116 497.0298,-685.4054 499.1732,-678.7416"/>
</g>
<!-- Node66 -->
<g id="node66" class="node">
<title>Node66</title>
<g id="a_node66"><a xlink:href="../../d9/d48/vhdlstring_8h.html" target="_top" xlink:title=" ">
<polygon fill="#ffffff" stroke="#666666" points="1995.5,-789 1928.5,-789 1928.5,-770 1995.5,-770 1995.5,-789"/>
<text text-anchor="middle" x="1962" y="-777" font-family="Helvetica,sans-Serif" font-size="10.00" fill="#000000">vhdlstring.h</text>
</a>
</g>
</g>
<!-- Node1&#45;&gt;Node66 -->
<g id="edge172" class="edge">
<title>Node1&#45;&gt;Node66</title>
<path fill="none" stroke="#63b8ff" d="M1962,-824.7333C1962,-817.0322 1962,-807.5977 1962,-799.3414"/>
<polygon fill="#63b8ff" stroke="#63b8ff" points="1965.5001,-799.0864 1962,-789.0864 1958.5001,-799.0864 1965.5001,-799.0864"/>
</g>
<!-- Node68 -->
<g id="node68" class="node">
<title>Node68</title>
<g id="a_node68"><a xlink:href="../../d2/d0d/message_8h.html" target="_top" xlink:title=" ">
<polygon fill="#ffffff" stroke="#666666" points="2078.5,-789 2013.5,-789 2013.5,-770 2078.5,-770 2078.5,-789"/>
<text text-anchor="middle" x="2046" y="-777" font-family="Helvetica,sans-Serif" font-size="10.00" fill="#000000">message.h</text>
</a>
</g>
</g>
<!-- Node1&#45;&gt;Node68 -->
<g id="edge177" class="edge">
<title>Node1&#45;&gt;Node68</title>
<path fill="none" stroke="#63b8ff" d="M1983.1967,-824.7333C1995.8333,-815.632 2011.8312,-804.1097 2024.5179,-794.9723"/>
<polygon fill="#63b8ff" stroke="#63b8ff" points="2026.621,-797.7708 2032.69,-789.0864 2022.53,-792.0907 2026.621,-797.7708"/>
</g>
<!-- Node6 -->
<g id="node6" class="node">
<title>Node6</title>
<g id="a_node6"><a xlink:href="../../d1/d2f/_java_c_c_8h.html" target="_top" xlink:title=" ">
<polygon fill="#ffffff" stroke="#666666" points="651.5,-569 590.5,-569 590.5,-550 651.5,-550 651.5,-569"/>
<text text-anchor="middle" x="621" y="-557" font-family="Helvetica,sans-Serif" font-size="10.00" fill="#000000">JavaCC.h</text>
</a>
</g>
</g>
<!-- Node5&#45;&gt;Node6 -->
<g id="edge5" class="edge">
<title>Node5&#45;&gt;Node6</title>
<path fill="none" stroke="#63b8ff" d="M703.3881,-718.097C660.7468,-710.0272 593.6313,-695.235 574,-679 547.0209,-656.6884 529.9164,-635.5586 547,-605 554.833,-590.9885 568.9446,-580.7628 582.7598,-573.5969"/>
<polygon fill="#63b8ff" stroke="#63b8ff" points="584.6643,-576.5672 592.1961,-569.1158 581.6614,-570.244 584.6643,-576.5672"/>
</g>
<!-- Node11 -->
<g id="node11" class="node">
<title>Node11</title>
<g id="a_node11"><a xlink:href="../../df/ddf/_char_stream_8h.html" target="_top" xlink:title=" ">
<polygon fill="#ffffff" stroke="#666666" points="778.5,-679 701.5,-679 701.5,-660 778.5,-660 778.5,-679"/>
<text text-anchor="middle" x="740" y="-667" font-family="Helvetica,sans-Serif" font-size="10.00" fill="#000000">CharStream.h</text>
</a>
</g>
</g>
<!-- Node5&#45;&gt;Node11 -->
<g id="edge10" class="edge">
<title>Node5&#45;&gt;Node11</title>
<path fill="none" stroke="#63b8ff" d="M740,-714.9197C740,-707.9083 740,-698.1442 740,-689.4652"/>
<polygon fill="#63b8ff" stroke="#63b8ff" points="743.5001,-689.3408 740,-679.3408 736.5001,-689.3409 743.5001,-689.3408"/>
</g>
<!-- Node12 -->
<g id="node12" class="node">
<title>Node12</title>
<g id="a_node12"><a xlink:href="../../dd/dcd/_token_8h.html" target="_top" xlink:title=" ">
<polygon fill="#ffffff" stroke="#666666" points="608,-624 556,-624 556,-605 608,-605 608,-624"/>
<text text-anchor="middle" x="582" y="-612" font-family="Helvetica,sans-Serif" font-size="10.00" fill="#000000">Token.h</text>
</a>
</g>
</g>
<!-- Node5&#45;&gt;Node12 -->
<g id="edge12" class="edge">
<title>Node5&#45;&gt;Node12</title>
<path fill="none" stroke="#63b8ff" d="M703.4548,-718.6254C662.7225,-711.2699 600.6357,-697.3704 586,-679 576.0705,-666.5367 575.9277,-648.049 577.7686,-634.058"/>
<polygon fill="#63b8ff" stroke="#63b8ff" points="581.252,-634.455 579.5211,-624.0025 574.356,-633.2531 581.252,-634.455"/>
</g>
<!-- Node13 -->
<g id="node13" class="node">
<title>Node13</title>
<g id="a_node13"><a xlink:href="../../d4/df9/_token_manager_8h.html" target="_top" xlink:title=" ">
<polygon fill="#ffffff" stroke="#666666" points="683.5,-679 594.5,-679 594.5,-660 683.5,-660 683.5,-679"/>
<text text-anchor="middle" x="639" y="-667" font-family="Helvetica,sans-Serif" font-size="10.00" fill="#000000">TokenManager.h</text>
</a>
</g>
</g>
<!-- Node5&#45;&gt;Node13 -->
<g id="edge14" class="edge">
<title>Node5&#45;&gt;Node13</title>
<path fill="none" stroke="#63b8ff" d="M722.4071,-714.9197C706.7172,-706.3757 683.521,-693.7441 665.5711,-683.9694"/>
<polygon fill="#63b8ff" stroke="#63b8ff" points="667.1863,-680.8637 656.7301,-679.155 663.8386,-687.0113 667.1863,-680.8637"/>
</g>
<!-- Node15 -->
<g id="node15" class="node">
<title>Node15</title>
<g id="a_node15"><a xlink:href="../../d2/d55/vhdljjparser_8h.html" target="_top" xlink:title=" ">
<polygon fill="#ffffff" stroke="#666666" points="1718,-679 1644,-679 1644,-660 1718,-660 1718,-679"/>
<text text-anchor="middle" x="1681" y="-667" font-family="Helvetica,sans-Serif" font-size="10.00" fill="#000000">vhdljjparser.h</text>
</a>
</g>
</g>
<!-- Node5&#45;&gt;Node15 -->
<g id="edge18" class="edge">
<title>Node5&#45;&gt;Node15</title>
<path fill="none" stroke="#63b8ff" d="M776.5995,-722.3608C923.2899,-713.787 1468.6904,-681.9092 1633.5192,-672.2752"/>
<polygon fill="#63b8ff" stroke="#63b8ff" points="1634.0389,-675.7509 1643.8176,-671.6733 1633.6304,-668.7628 1634.0389,-675.7509"/>
</g>
<!-- Node64 -->
<g id="node64" class="node">
<title>Node64</title>
<g id="a_node64"><a xlink:href="../../dc/d21/_vhdl_parser_constants_8h.html" target="_top" xlink:title=" ">
<polygon fill="#ffffff" stroke="#666666" points="915,-679 797,-679 797,-660 915,-660 915,-679"/>
<text text-anchor="middle" x="856" y="-667" font-family="Helvetica,sans-Serif" font-size="10.00" fill="#000000">VhdlParserConstants.h</text>
</a>
</g>
</g>
<!-- Node5&#45;&gt;Node64 -->
<g id="edge164" class="edge">
<title>Node5&#45;&gt;Node64</title>
<path fill="none" stroke="#63b8ff" d="M760.2057,-714.9197C778.4737,-706.2581 805.6018,-693.3957 826.3304,-683.5675"/>
<polygon fill="#63b8ff" stroke="#63b8ff" points="828.1004,-686.6018 835.6367,-679.155 825.1014,-680.2768 828.1004,-686.6018"/>
</g>
<!-- Node5&#45;&gt;Node65 -->
<g id="edge166" class="edge">
<title>Node5&#45;&gt;Node65</title>
<path fill="none" stroke="#63b8ff" d="M703.3949,-717.3097C653.9938,-707.6059 565.785,-690.2792 510.2173,-679.3641"/>
<polygon fill="#63b8ff" stroke="#63b8ff" points="510.7253,-675.8971 500.2382,-677.4039 509.3761,-682.7658 510.7253,-675.8971"/>
</g>
<!-- Node7 -->
<g id="node7" class="node">
<title>Node7</title>
<g id="a_node7"><a xlink:title=" ">
<polygon fill="#e0e0e0" stroke="#999999" points="880.5,-19 839.5,-19 839.5,0 880.5,0 880.5,-19"/>
<text text-anchor="middle" x="860" y="-7" font-family="Helvetica,sans-Serif" font-size="10.00" fill="#000000">string</text>
</a>
</g>
</g>
<!-- Node6&#45;&gt;Node7 -->
<g id="edge6" class="edge">
<title>Node6&#45;&gt;Node7</title>
<path fill="none" stroke="#63b8ff" d="M590.4762,-554.772C470.5196,-534.3025 38,-441.9525 38,-174.5 38,-174.5 38,-174.5 38,-119.5 38,-38.1179 679.1541,-14.6854 828.9636,-10.321"/>
<polygon fill="#63b8ff" stroke="#63b8ff" points="829.373,-13.8109 839.2697,-10.0286 829.1744,-6.8137 829.373,-13.8109"/>
</g>
<!-- Node8 -->
<g id="node8" class="node">
<title>Node8</title>
<g id="a_node8"><a xlink:title=" ">
<polygon fill="#e0e0e0" stroke="#999999" points="1363,-129 1311,-129 1311,-110 1363,-110 1363,-129"/>
<text text-anchor="middle" x="1337" y="-117" font-family="Helvetica,sans-Serif" font-size="10.00" fill="#000000">memory</text>
</a>
</g>
</g>
<!-- Node6&#45;&gt;Node8 -->
<g id="edge7" class="edge">
<title>Node6&#45;&gt;Node8</title>
<path fill="none" stroke="#63b8ff" d="M626.1728,-549.8381C651.3691,-503.8294 766.3814,-305.6421 922,-220 1009.5703,-171.8071 1049.2195,-215.7454 1144,-184 1161.155,-178.2542 1163.2249,-171.7752 1180,-165 1220.3643,-148.6974 1268.7268,-135.5952 1301.0092,-127.7115"/>
<polygon fill="#63b8ff" stroke="#63b8ff" points="1301.9885,-131.0759 1310.8949,-125.3378 1300.3541,-124.2694 1301.9885,-131.0759"/>
</g>
<!-- Node9 -->
<g id="node9" class="node">
<title>Node9</title>
<g id="a_node9"><a xlink:title=" ">
<polygon fill="#e0e0e0" stroke="#999999" points="631.5,-514 582.5,-514 582.5,-495 631.5,-495 631.5,-514"/>
<text text-anchor="middle" x="607" y="-502" font-family="Helvetica,sans-Serif" font-size="10.00" fill="#000000">cassert</text>
</a>
</g>
</g>
<!-- Node6&#45;&gt;Node9 -->
<g id="edge8" class="edge">
<title>Node6&#45;&gt;Node9</title>
<path fill="none" stroke="#63b8ff" d="M618.5614,-549.9197C616.7568,-542.8304 614.2359,-532.9269 612.0085,-524.1763"/>
<polygon fill="#63b8ff" stroke="#63b8ff" points="615.3636,-523.1684 609.5049,-514.3408 608.58,-524.8952 615.3636,-523.1684"/>
</g>
<!-- Node10 -->
<g id="node10" class="node">
<title>Node10</title>
<g id="a_node10"><a xlink:title=" ">
<polygon fill="#e0e0e0" stroke="#999999" points="943.5,-294 884.5,-294 884.5,-275 943.5,-275 943.5,-294"/>
<text text-anchor="middle" x="914" y="-282" font-family="Helvetica,sans-Serif" font-size="10.00" fill="#000000">functional</text>
</a>
</g>
</g>
<!-- Node6&#45;&gt;Node10 -->
<g id="edge9" class="edge">
<title>Node6&#45;&gt;Node10</title>
<path fill="none" stroke="#63b8ff" d="M635.9089,-549.8126C661.5934,-532.8228 715.3407,-495.9365 756,-459 813.7893,-406.5018 873.3161,-335.1806 899.8053,-302.365"/>
<polygon fill="#63b8ff" stroke="#63b8ff" points="902.8452,-304.1688 906.3716,-294.178 897.3846,-299.7891 902.8452,-304.1688"/>
</g>
<!-- Node11&#45;&gt;Node6 -->
<g id="edge11" class="edge">
<title>Node11&#45;&gt;Node6</title>
<path fill="none" stroke="#63b8ff" d="M729.4395,-659.7382C709.0112,-640.8549 663.8881,-599.1445 638.7645,-575.921"/>
<polygon fill="#63b8ff" stroke="#63b8ff" points="641.086,-573.3006 631.3669,-569.0828 636.3344,-578.4409 641.086,-573.3006"/>
</g>
<!-- Node12&#45;&gt;Node6 -->
<g id="edge13" class="edge">
<title>Node12&#45;&gt;Node6</title>
<path fill="none" stroke="#63b8ff" d="M588.7933,-604.9197C594.0965,-597.4409 601.6204,-586.8301 608.0627,-577.745"/>
<polygon fill="#63b8ff" stroke="#63b8ff" points="611.0927,-579.5227 614.022,-569.3408 605.3826,-575.4737 611.0927,-579.5227"/>
</g>
<!-- Node13&#45;&gt;Node6 -->
<g id="edge16" class="edge">
<title>Node13&#45;&gt;Node6</title>
<path fill="none" stroke="#63b8ff" d="M637.4026,-659.7382C634.4464,-641.6724 628.0712,-602.713 624.1971,-579.0376"/>
<polygon fill="#63b8ff" stroke="#63b8ff" points="627.6371,-578.3863 622.5681,-569.0828 620.729,-579.5168 627.6371,-578.3863"/>
</g>
<!-- Node13&#45;&gt;Node12 -->
<g id="edge17" class="edge">
<title>Node13&#45;&gt;Node12</title>
<path fill="none" stroke="#63b8ff" d="M629.0714,-659.9197C620.9169,-652.0514 609.1697,-640.7164 599.4508,-631.3385"/>
<polygon fill="#63b8ff" stroke="#63b8ff" points="601.8252,-628.7659 592.1987,-624.3408 596.9646,-633.8032 601.8252,-628.7659"/>
</g>
<!-- Node14 -->
<g id="node14" class="node">
<title>Node14</title>
<g id="a_node14"><a xlink:title=" ">
<polygon fill="#e0e0e0" stroke="#999999" points="158,-184 104,-184 104,-165 158,-165 158,-184"/>
<text text-anchor="middle" x="131" y="-172" font-family="Helvetica,sans-Serif" font-size="10.00" fill="#000000">iostream</text>
</a>
</g>
</g>
<!-- Node13&#45;&gt;Node14 -->
<g id="edge15" class="edge">
<title>Node13&#45;&gt;Node14</title>
<path fill="none" stroke="#63b8ff" d="M594.2388,-664.8571C467.2791,-651.0905 114,-608.3906 114,-559.5 114,-559.5 114,-559.5 114,-284.5 114,-252.5762 121.0795,-216.046 126.1014,-194.1491"/>
<polygon fill="#63b8ff" stroke="#63b8ff" points="129.5745,-194.6736 128.4916,-184.1342 122.7657,-193.0486 129.5745,-194.6736"/>
</g>
<!-- Node15&#45;&gt;Node2 -->
<g id="edge48" class="edge">
<title>Node15&#45;&gt;Node2</title>
<path fill="none" stroke="#63b8ff" d="M1718.3687,-667.9368C1829.4835,-663.0464 2152.6854,-646.9824 2194,-624 2278.7479,-576.8567 2325,-546.4778 2325,-449.5 2325,-449.5 2325,-449.5 2325,-284.5 2325,-252.9508 2325,-216.3117 2325,-194.2905"/>
<polygon fill="#63b8ff" stroke="#63b8ff" points="2328.5001,-194.2116 2325,-184.2116 2321.5001,-194.2117 2328.5001,-194.2116"/>
</g>
<!-- Node15&#45;&gt;Node3 -->
<g id="edge49" class="edge">
<title>Node15&#45;&gt;Node3</title>
<path fill="none" stroke="#63b8ff" d="M1718.1614,-667.6525C1818.4684,-662.5095 2103.0739,-646.8847 2339,-624 2352.6807,-622.673 2367.7042,-620.8688 2380.7557,-619.189"/>
<polygon fill="#63b8ff" stroke="#63b8ff" points="2381.2767,-622.6508 2390.7367,-617.8801 2380.3665,-615.7102 2381.2767,-622.6508"/>
</g>
<!-- Node15&#45;&gt;Node7 -->
<g id="edge21" class="edge">
<title>Node15&#45;&gt;Node7</title>
<path fill="none" stroke="#63b8ff" d="M1718.1485,-668.8008C1824.6596,-666.4161 2129.4437,-656.8308 2223,-624 2312.9103,-592.4486 2401,-599.7857 2401,-504.5 2401,-504.5 2401,-504.5 2401,-119.5 2401,5.1738 2251.5572,-71.6487 2128,-55 1878.0676,-21.3228 1060.8327,-11.4892 891.0585,-9.7883"/>
<polygon fill="#63b8ff" stroke="#63b8ff" points="890.8589,-6.2862 880.825,-9.6878 890.7901,-13.2859 890.8589,-6.2862"/>
</g>
<!-- Node15&#45;&gt;Node8 -->
<g id="edge20" class="edge">
<title>Node15&#45;&gt;Node8</title>
<path fill="none" stroke="#63b8ff" d="M1687.8199,-659.9446C1693.6811,-651.1041 1701.6948,-637.3505 1705,-624 1707.0293,-615.803 1705.4017,-613.4349 1705,-605 1699.1312,-481.7561 1729.7285,-436.248 1667,-330 1602.6721,-221.0431 1548.2325,-221.4632 1435,-165 1412.7409,-153.9005 1387.2488,-142.0924 1367.8445,-133.2875"/>
<polygon fill="#63b8ff" stroke="#63b8ff" points="1369.1299,-130.0276 1358.5757,-129.0998 1366.2477,-136.4067 1369.1299,-130.0276"/>
</g>
<!-- Node16 -->
<g id="node16" class="node">
<title>Node16</title>
<g id="a_node16"><a xlink:title=" ">
<polygon fill="#e0e0e0" stroke="#999999" points="1825,-129 1781,-129 1781,-110 1825,-110 1825,-129"/>
<text text-anchor="middle" x="1803" y="-117" font-family="Helvetica,sans-Serif" font-size="10.00" fill="#000000">vector</text>
</a>
</g>
</g>
<!-- Node15&#45;&gt;Node16 -->
<g id="edge19" class="edge">
<title>Node15&#45;&gt;Node16</title>
<path fill="none" stroke="#63b8ff" d="M1718.0984,-665.2786C1833.7429,-651.6249 2180,-606.7945 2180,-559.5 2180,-559.5 2180,-559.5 2180,-394.5 2180,-260.0754 2104.0445,-223.4654 1983,-165 1979.6227,-163.3688 1885.9592,-140.0461 1835.1154,-127.4445"/>
<polygon fill="#63b8ff" stroke="#63b8ff" points="1835.8084,-124.0105 1825.2602,-125.0033 1834.1253,-130.8051 1835.8084,-124.0105"/>
</g>
<!-- Node17 -->
<g id="node17" class="node">
<title>Node17</title>
<g id="a_node17"><a xlink:href="../../da/d55/parserintf_8h.html" target="_top" xlink:title=" ">
<polygon fill="#ffffff" stroke="#666666" points="1813.5,-349 1748.5,-349 1748.5,-330 1813.5,-330 1813.5,-349"/>
<text text-anchor="middle" x="1781" y="-337" font-family="Helvetica,sans-Serif" font-size="10.00" fill="#000000">parserintf.h</text>
</a>
</g>
</g>
<!-- Node15&#45;&gt;Node17 -->
<g id="edge22" class="edge">
<title>Node15&#45;&gt;Node17</title>
<path fill="none" stroke="#63b8ff" d="M1718.3496,-663.7522C1759.5406,-656.5605 1821.8816,-642.8586 1836,-624 1898.4654,-540.5622 1823.7956,-405.8312 1793.0494,-357.4853"/>
<polygon fill="#63b8ff" stroke="#63b8ff" points="1795.924,-355.4856 1787.5394,-349.0087 1790.0549,-359.3006 1795.924,-355.4856"/>
</g>
<!-- Node19 -->
<g id="node19" class="node">
<title>Node19</title>
<g id="a_node19"><a xlink:href="../../d9/d49/types_8h.html" target="_top" xlink:title="This file contains a number of basic enums and types.">
<polygon fill="#ffffff" stroke="#666666" points="415.5,-239 366.5,-239 366.5,-220 415.5,-220 415.5,-239"/>
<text text-anchor="middle" x="391" y="-227" font-family="Helvetica,sans-Serif" font-size="10.00" fill="#000000">types.h</text>
</a>
</g>
</g>
<!-- Node15&#45;&gt;Node19 -->
<g id="edge52" class="edge">
<title>Node15&#45;&gt;Node19</title>
<path fill="none" stroke="#63b8ff" d="M1643.7418,-668.2401C1482.8179,-662.7091 853.7658,-640.1378 815,-624 712.1995,-581.2053 469.8808,-317.1399 406.4284,-246.7353"/>
<polygon fill="#63b8ff" stroke="#63b8ff" points="408.8865,-244.2344 399.5984,-239.1373 403.6807,-248.9141 408.8865,-244.2344"/>
</g>
<!-- Node34 -->
<g id="node34" class="node">
<title>Node34</title>
<g id="a_node34"><a xlink:title=" ">
<polygon fill="#e0e0e0" stroke="#999999" points="1680,-624 1628,-624 1628,-605 1680,-605 1680,-624"/>
<text text-anchor="middle" x="1654" y="-612" font-family="Helvetica,sans-Serif" font-size="10.00" fill="#000000">assert.h</text>
</a>
</g>
</g>
<!-- Node15&#45;&gt;Node34 -->
<g id="edge50" class="edge">
<title>Node15&#45;&gt;Node34</title>
<path fill="none" stroke="#63b8ff" d="M1676.297,-659.9197C1672.7403,-652.6746 1667.7407,-642.4903 1663.3769,-633.601"/>
<polygon fill="#63b8ff" stroke="#63b8ff" points="1666.3796,-631.7751 1658.831,-624.3408 1660.0959,-634.8599 1666.3796,-631.7751"/>
</g>
<!-- Node35 -->
<g id="node35" class="node">
<title>Node35</title>
<g id="a_node35"><a xlink:title=" ">
<polygon fill="#e0e0e0" stroke="#999999" points="987.5,-569 938.5,-569 938.5,-550 987.5,-550 987.5,-569"/>
<text text-anchor="middle" x="963" y="-557" font-family="Helvetica,sans-Serif" font-size="10.00" fill="#000000">ctype.h</text>
</a>
</g>
</g>
<!-- Node15&#45;&gt;Node35 -->
<g id="edge51" class="edge">
<title>Node15&#45;&gt;Node35</title>
<path fill="none" stroke="#63b8ff" d="M1643.8758,-668.5411C1560.7913,-665.8648 1353.824,-656.2436 1184,-624 1116.7472,-611.2311 1040.5642,-586.678 997.5016,-571.8237"/>
<polygon fill="#63b8ff" stroke="#63b8ff" points="998.3999,-568.4304 987.8051,-568.4492 996.0991,-575.0416 998.3999,-568.4304"/>
</g>
<!-- Node36 -->
<g id="node36" class="node">
<title>Node36</title>
<g id="a_node36"><a xlink:href="../../d1/dc6/entry_8h.html" target="_top" xlink:title=" ">
<polygon fill="#ffffff" stroke="#666666" points="1077.5,-294 1030.5,-294 1030.5,-275 1077.5,-275 1077.5,-294"/>
<text text-anchor="middle" x="1054" y="-282" font-family="Helvetica,sans-Serif" font-size="10.00" fill="#000000">entry.h</text>
</a>
</g>
</g>
<!-- Node15&#45;&gt;Node36 -->
<g id="edge53" class="edge">
<title>Node15&#45;&gt;Node36</title>
<path fill="none" stroke="#63b8ff" d="M1643.9506,-667.7378C1533.0559,-662.2833 1204.9558,-644.7873 1100,-624 1022.1017,-608.5716 976.7173,-633.2158 930,-569 925.0322,-562.1714 927.0964,-557.9295 930,-550 970.2309,-440.1339 1059.7691,-458.8661 1100,-349 1106.7836,-330.4746 1091.5243,-312.4598 1076.7938,-300.1993"/>
<polygon fill="#63b8ff" stroke="#63b8ff" points="1078.8569,-297.3702 1068.808,-294.0132 1074.5701,-302.904 1078.8569,-297.3702"/>
</g>
<!-- Node44 -->
<g id="node44" class="node">
<title>Node44</title>
<g id="a_node44"><a xlink:href="../../dd/dec/vhdldocgen_8h.html" target="_top" xlink:title=" ">
<polygon fill="#ffffff" stroke="#666666" points="1091,-349 1017,-349 1017,-330 1091,-330 1091,-349"/>
<text text-anchor="middle" x="1054" y="-337" font-family="Helvetica,sans-Serif" font-size="10.00" fill="#000000">vhdldocgen.h</text>
</a>
</g>
</g>
<!-- Node15&#45;&gt;Node44 -->
<g id="edge83" class="edge">
<title>Node15&#45;&gt;Node44</title>
<path fill="none" stroke="#63b8ff" d="M1685.8844,-659.8356C1691.9349,-646.3579 1700.1632,-621.6971 1689,-605 1680.8804,-592.8552 1216.4538,-409.6937 1203,-404 1162.1858,-386.7274 1115.3022,-366.3419 1085.1995,-353.1824"/>
<polygon fill="#63b8ff" stroke="#63b8ff" points="1086.2316,-349.8136 1075.6671,-349.0116 1083.4256,-356.2266 1086.2316,-349.8136"/>
</g>
<!-- Node46 -->
<g id="node46" class="node">
<title>Node46</title>
<g id="a_node46"><a xlink:href="../../db/d16/config_8h.html" target="_top" xlink:title=" ">
<polygon fill="#ffffff" stroke="#666666" points="874.5,-624 823.5,-624 823.5,-605 874.5,-605 874.5,-624"/>
<text text-anchor="middle" x="849" y="-612" font-family="Helvetica,sans-Serif" font-size="10.00" fill="#000000">config.h</text>
</a>
</g>
</g>
<!-- Node15&#45;&gt;Node46 -->
<g id="edge91" class="edge">
<title>Node15&#45;&gt;Node46</title>
<path fill="none" stroke="#63b8ff" d="M1643.6428,-669.2072C1530.5322,-667.92 1182.0008,-661.0038 896,-624 892.3158,-623.5233 888.4879,-622.9242 884.6783,-622.2597"/>
<polygon fill="#63b8ff" stroke="#63b8ff" points="885.2236,-618.8009 874.7482,-620.3876 883.9267,-625.6798 885.2236,-618.8009"/>
</g>
<!-- Node48 -->
<g id="node48" class="node">
<title>Node48</title>
<g id="a_node48"><a xlink:href="../../d8/d3c/util_8h.html" target="_top" xlink:title="A bunch of utility functions.">
<polygon fill="#ffffff" stroke="#666666" points="1231,-624 1193,-624 1193,-605 1231,-605 1231,-624"/>
<text text-anchor="middle" x="1212" y="-612" font-family="Helvetica,sans-Serif" font-size="10.00" fill="#000000">util.h</text>
</a>
</g>
</g>
<!-- Node15&#45;&gt;Node48 -->
<g id="edge93" class="edge">
<title>Node15&#45;&gt;Node48</title>
<path fill="none" stroke="#63b8ff" d="M1643.8063,-665.1383C1553.4027,-654.5366 1323.5551,-627.5822 1241.5936,-617.9705"/>
<polygon fill="#63b8ff" stroke="#63b8ff" points="1241.8139,-614.4724 1231.4742,-616.7838 1240.9985,-621.4248 1241.8139,-614.4724"/>
</g>
<!-- Node17&#45;&gt;Node7 -->
<g id="edge26" class="edge">
<title>Node17&#45;&gt;Node7</title>
<path fill="none" stroke="#63b8ff" d="M1813.5576,-335.469C1924.8927,-320.2623 2278.6076,-259.4545 2187,-110 2158.8503,-64.0748 2131.1353,-68.544 2079,-55 1960.9877,-24.342 1068.8074,-12.0218 890.8321,-9.8568"/>
<polygon fill="#63b8ff" stroke="#63b8ff" points="890.8729,-6.3571 880.8316,-9.7367 890.7889,-13.3566 890.8729,-6.3571"/>
</g>
<!-- Node17&#45;&gt;Node8 -->
<g id="edge24" class="edge">
<title>Node17&#45;&gt;Node8</title>
<path fill="none" stroke="#63b8ff" d="M1769.0161,-329.9511C1741.7341,-308.4925 1672.4369,-255.5553 1609,-220 1556.0537,-190.3245 1540.8615,-186.2302 1484,-165 1446.7237,-151.0822 1403.0644,-137.958 1373.0668,-129.4148"/>
<polygon fill="#63b8ff" stroke="#63b8ff" points="1373.6336,-125.9382 1363.0589,-126.5903 1371.7322,-132.675 1373.6336,-125.9382"/>
</g>
<!-- Node17&#45;&gt;Node10 -->
<g id="edge23" class="edge">
<title>Node17&#45;&gt;Node10</title>
<path fill="none" stroke="#63b8ff" d="M1748.2913,-337.8715C1606.4304,-330.7878 1047.6884,-302.6683 953.9074,-293.5158"/>
<polygon fill="#63b8ff" stroke="#63b8ff" points="954.0361,-290.0073 943.6992,-292.3311 953.229,-296.9607 954.0361,-290.0073"/>
</g>
<!-- Node18 -->
<g id="node18" class="node">
<title>Node18</title>
<g id="a_node18"><a xlink:title=" ">
<polygon fill="#e0e0e0" stroke="#999999" points="1810.5,-239 1775.5,-239 1775.5,-220 1810.5,-220 1810.5,-239"/>
<text text-anchor="middle" x="1793" y="-227" font-family="Helvetica,sans-Serif" font-size="10.00" fill="#000000">map</text>
</a>
</g>
</g>
<!-- Node17&#45;&gt;Node18 -->
<g id="edge25" class="edge">
<title>Node17&#45;&gt;Node18</title>
<path fill="none" stroke="#63b8ff" d="M1782.0649,-329.7382C1784.0357,-311.6724 1788.2859,-272.713 1790.8686,-249.0376"/>
<polygon fill="#63b8ff" stroke="#63b8ff" points="1794.3494,-249.4034 1791.9546,-239.0828 1787.3907,-248.6443 1794.3494,-249.4034"/>
</g>
<!-- Node17&#45;&gt;Node19 -->
<g id="edge27" class="edge">
<title>Node17&#45;&gt;Node19</title>
<path fill="none" stroke="#63b8ff" d="M1748.1791,-337.9245C1707.5306,-335.9876 1636.1646,-332.6336 1575,-330 1175.0507,-312.779 1071.6672,-347.9548 675,-294 638.3603,-289.0163 630.0896,-283.053 594,-275 521.7143,-258.8703 500.643,-257.762 425.7305,-239.3146"/>
<polygon fill="#63b8ff" stroke="#63b8ff" points="426.3638,-235.8656 415.8148,-236.8499 424.6752,-242.6589 426.3638,-235.8656"/>
</g>
<!-- Node29 -->
<g id="node29" class="node">
<title>Node29</title>
<g id="a_node29"><a xlink:href="../../d5/d75/containers_8h.html" target="_top" xlink:title=" ">
<polygon fill="#ffffff" stroke="#666666" points="1894,-294 1824,-294 1824,-275 1894,-275 1894,-294"/>
<text text-anchor="middle" x="1859" y="-282" font-family="Helvetica,sans-Serif" font-size="10.00" fill="#000000">containers.h</text>
</a>
</g>
</g>
<!-- Node17&#45;&gt;Node29 -->
<g id="edge40" class="edge">
<title>Node17&#45;&gt;Node29</title>
<path fill="none" stroke="#63b8ff" d="M1794.5866,-329.9197C1806.2589,-321.6893 1823.3105,-309.6657 1836.9378,-300.0567"/>
<polygon fill="#63b8ff" stroke="#63b8ff" points="1839.1518,-302.7782 1845.3074,-294.155 1835.1179,-297.0574 1839.1518,-302.7782"/>
</g>
<!-- Node20 -->
<g id="node20" class="node">
<title>Node20</title>
<g id="a_node20"><a xlink:href="../../d7/d5c/qcstring_8h.html" target="_top" xlink:title=" ">
<polygon fill="#ffffff" stroke="#666666" points="707.5,-129 648.5,-129 648.5,-110 707.5,-110 707.5,-129"/>
<text text-anchor="middle" x="678" y="-117" font-family="Helvetica,sans-Serif" font-size="10.00" fill="#000000">qcstring.h</text>
</a>
</g>
</g>
<!-- Node19&#45;&gt;Node20 -->
<g id="edge28" class="edge">
<title>Node19&#45;&gt;Node20</title>
<path fill="none" stroke="#63b8ff" d="M377.29,-219.9238C360.0803,-206.7648 334.5762,-182.7111 350,-165 368.7144,-143.5103 555.1874,-128.0152 638.338,-122.1195"/>
<polygon fill="#63b8ff" stroke="#63b8ff" points="638.6867,-125.6037 648.4188,-121.416 638.1993,-118.6207 638.6867,-125.6037"/>
</g>
<!-- Node20&#45;&gt;Node7 -->
<g id="edge29" class="edge">
<title>Node20&#45;&gt;Node7</title>
<path fill="none" stroke="#63b8ff" d="M707.5893,-114.759C749.2347,-107.5168 822.1696,-92.5638 841,-74 852.8073,-62.3599 857.3614,-43.7819 859.0762,-29.5474"/>
<polygon fill="#63b8ff" stroke="#63b8ff" points="862.5893,-29.5332 859.9271,-19.2783 855.6132,-28.9552 862.5893,-29.5332"/>
</g>
<!-- Node21 -->
<g id="node21" class="node">
<title>Node21</title>
<g id="a_node21"><a xlink:title=" ">
<polygon fill="#e0e0e0" stroke="#999999" points="2043,-74 1987,-74 1987,-55 2043,-55 2043,-74"/>
<text text-anchor="middle" x="2015" y="-62" font-family="Helvetica,sans-Serif" font-size="10.00" fill="#000000">algorithm</text>
</a>
</g>
</g>
<!-- Node20&#45;&gt;Node21 -->
<g id="edge30" class="edge">
<title>Node20&#45;&gt;Node21</title>
<path fill="none" stroke="#63b8ff" d="M707.6434,-118.2663C751.2953,-116.4504 835.4369,-112.9538 907,-110 1326.0074,-92.7055 1834.1528,-71.9003 1976.3851,-66.0799"/>
<polygon fill="#63b8ff" stroke="#63b8ff" points="1976.8998,-69.5618 1986.7483,-65.6558 1976.6135,-62.5677 1976.8998,-69.5618"/>
</g>
<!-- Node22 -->
<g id="node22" class="node">
<title>Node22</title>
<g id="a_node22"><a xlink:title=" ">
<polygon fill="#e0e0e0" stroke="#999999" points="986,-74 940,-74 940,-55 986,-55 986,-74"/>
<text text-anchor="middle" x="963" y="-62" font-family="Helvetica,sans-Serif" font-size="10.00" fill="#000000">cctype</text>
</a>
</g>
</g>
<!-- Node20&#45;&gt;Node22 -->
<g id="edge31" class="edge">
<title>Node20&#45;&gt;Node22</title>
<path fill="none" stroke="#63b8ff" d="M707.6935,-113.7697C761.2684,-103.4307 873.7293,-81.7277 929.778,-70.9113"/>
<polygon fill="#63b8ff" stroke="#63b8ff" points="930.7254,-74.2931 939.881,-68.9616 929.399,-67.4199 930.7254,-74.2931"/>
</g>
<!-- Node23 -->
<g id="node23" class="node">
<title>Node23</title>
<g id="a_node23"><a xlink:title=" ">
<polygon fill="#e0e0e0" stroke="#999999" points="768,-74 722,-74 722,-55 768,-55 768,-74"/>
<text text-anchor="middle" x="745" y="-62" font-family="Helvetica,sans-Serif" font-size="10.00" fill="#000000">cstring</text>
</a>
</g>
</g>
<!-- Node20&#45;&gt;Node23 -->
<g id="edge32" class="edge">
<title>Node20&#45;&gt;Node23</title>
<path fill="none" stroke="#63b8ff" d="M689.6705,-109.9197C699.4454,-101.8956 713.6122,-90.2661 725.1635,-80.7837"/>
<polygon fill="#63b8ff" stroke="#63b8ff" points="727.5035,-83.3911 733.0121,-74.3408 723.062,-77.9805 727.5035,-83.3911"/>
</g>
<!-- Node24 -->
<g id="node24" class="node">
<title>Node24</title>
<g id="a_node24"><a xlink:title=" ">
<polygon fill="#e0e0e0" stroke="#999999" points="415.5,-74 372.5,-74 372.5,-55 415.5,-55 415.5,-74"/>
<text text-anchor="middle" x="394" y="-62" font-family="Helvetica,sans-Serif" font-size="10.00" fill="#000000">cstdio</text>
</a>
</g>
</g>
<!-- Node20&#45;&gt;Node24 -->
<g id="edge33" class="edge">
<title>Node20&#45;&gt;Node24</title>
<path fill="none" stroke="#63b8ff" d="M648.4107,-113.7697C594.4899,-103.3273 480.7103,-81.2925 425.4469,-70.5901"/>
<polygon fill="#63b8ff" stroke="#63b8ff" points="426.0058,-67.1333 415.5227,-68.6681 424.6748,-74.0057 426.0058,-67.1333"/>
</g>
<!-- Node25 -->
<g id="node25" class="node">
<title>Node25</title>
<g id="a_node25"><a xlink:title=" ">
<polygon fill="#e0e0e0" stroke="#999999" points="831.5,-74 786.5,-74 786.5,-55 831.5,-55 831.5,-74"/>
<text text-anchor="middle" x="809" y="-62" font-family="Helvetica,sans-Serif" font-size="10.00" fill="#000000">cstdlib</text>
</a>
</g>
</g>
<!-- Node20&#45;&gt;Node25 -->
<g id="edge34" class="edge">
<title>Node20&#45;&gt;Node25</title>
<path fill="none" stroke="#63b8ff" d="M700.8185,-109.9197C721.951,-101.0473 753.5824,-87.7669 777.1904,-77.8552"/>
<polygon fill="#63b8ff" stroke="#63b8ff" points="778.5776,-81.0688 786.443,-73.9705 775.8678,-74.6146 778.5776,-81.0688"/>
</g>
<!-- Node26 -->
<g id="node26" class="node">
<title>Node26</title>
<g id="a_node26"><a xlink:title=" ">
<polygon fill="#e0e0e0" stroke="#999999" points="549,-19 503,-19 503,0 549,0 549,-19"/>
<text text-anchor="middle" x="526" y="-7" font-family="Helvetica,sans-Serif" font-size="10.00" fill="#000000">cstdint</text>
</a>
</g>
</g>
<!-- Node20&#45;&gt;Node26 -->
<g id="edge35" class="edge">
<title>Node20&#45;&gt;Node26</title>
<path fill="none" stroke="#63b8ff" d="M651.009,-109.943C631.0649,-102.1108 603.8677,-89.7605 583,-74 565.5877,-60.8492 549.4948,-41.7166 538.8809,-27.7043"/>
<polygon fill="#63b8ff" stroke="#63b8ff" points="541.482,-25.3333 532.7385,-19.3498 535.8423,-29.4799 541.482,-25.3333"/>
</g>
<!-- Node27 -->
<g id="node27" class="node">
<title>Node27</title>
<g id="a_node27"><a xlink:title=" ">
<polygon fill="#e0e0e0" stroke="#999999" points="704,-74 652,-74 652,-55 704,-55 704,-74"/>
<text text-anchor="middle" x="678" y="-62" font-family="Helvetica,sans-Serif" font-size="10.00" fill="#000000">ostream</text>
</a>
</g>
</g>
<!-- Node20&#45;&gt;Node27 -->
<g id="edge36" class="edge">
<title>Node20&#45;&gt;Node27</title>
<path fill="none" stroke="#63b8ff" d="M678,-109.9197C678,-102.9083 678,-93.1442 678,-84.4652"/>
<polygon fill="#63b8ff" stroke="#63b8ff" points="681.5001,-84.3408 678,-74.3408 674.5001,-84.3409 681.5001,-84.3408"/>
</g>
<!-- Node28 -->
<g id="node28" class="node">
<title>Node28</title>
<g id="a_node28"><a xlink:href="../../db/d7c/utf8_8h.html" target="_top" xlink:title="Various UTF8 related helper functions.">
<polygon fill="#ffffff" stroke="#666666" points="633.5,-74 592.5,-74 592.5,-55 633.5,-55 633.5,-74"/>
<text text-anchor="middle" x="613" y="-62" font-family="Helvetica,sans-Serif" font-size="10.00" fill="#000000">utf8.h</text>
</a>
</g>
</g>
<!-- Node20&#45;&gt;Node28 -->
<g id="edge37" class="edge">
<title>Node20&#45;&gt;Node28</title>
<path fill="none" stroke="#63b8ff" d="M666.6779,-109.9197C657.2868,-101.9735 643.7173,-90.4916 632.5715,-81.0605"/>
<polygon fill="#63b8ff" stroke="#63b8ff" points="634.5248,-78.1284 624.6301,-74.3408 630.0031,-83.4721 634.5248,-78.1284"/>
</g>
<!-- Node28&#45;&gt;Node7 -->
<g id="edge39" class="edge">
<title>Node28&#45;&gt;Node7</title>
<path fill="none" stroke="#63b8ff" d="M633.5778,-57.6856C636.7191,-56.732 639.9351,-55.8044 643,-55 708.9002,-37.7032 787.408,-22.5737 829.5864,-14.8831"/>
<polygon fill="#63b8ff" stroke="#63b8ff" points="830.2794,-18.3147 839.4972,-13.0914 829.034,-11.4263 830.2794,-18.3147"/>
</g>
<!-- Node28&#45;&gt;Node26 -->
<g id="edge38" class="edge">
<title>Node28&#45;&gt;Node26</title>
<path fill="none" stroke="#63b8ff" d="M597.8458,-54.9197C584.5787,-46.5325 565.0809,-34.2063 549.7435,-24.5103"/>
<polygon fill="#63b8ff" stroke="#63b8ff" points="551.5954,-21.5402 541.2725,-19.155 547.8548,-27.4571 551.5954,-21.5402"/>
</g>
<!-- Node29&#45;&gt;Node7 -->
<g id="edge42" class="edge">
<title>Node29&#45;&gt;Node7</title>
<path fill="none" stroke="#63b8ff" d="M1876.7027,-274.9039C1901.8498,-261.5075 1949.5793,-236.9425 1992,-220 2040.9496,-200.4499 2073.896,-226.5536 2105,-184 2136.2235,-141.283 2178.3239,-137.7591 2052,-55 2002.0263,-22.2605 1073.4029,-11.5723 890.959,-9.7844"/>
<polygon fill="#63b8ff" stroke="#63b8ff" points="890.7592,-6.2824 880.7259,-9.6859 890.6917,-13.2821 890.7592,-6.2824"/>
</g>
<!-- Node29&#45;&gt;Node16 -->
<g id="edge41" class="edge">
<title>Node29&#45;&gt;Node16</title>
<path fill="none" stroke="#63b8ff" d="M1878.3097,-274.8562C1891.4908,-267.1274 1907.9664,-254.9439 1916,-239 1930.8046,-209.6181 1936.4963,-192.2095 1918,-165 1908.2939,-150.7216 1865.399,-136.4266 1834.8443,-127.7706"/>
<polygon fill="#63b8ff" stroke="#63b8ff" points="1835.592,-124.3462 1825.0212,-125.0595 1833.7296,-131.0939 1835.592,-124.3462"/>
</g>
<!-- Node29&#45;&gt;Node18 -->
<g id="edge44" class="edge">
<title>Node29&#45;&gt;Node18</title>
<path fill="none" stroke="#63b8ff" d="M1847.5037,-274.9197C1837.8747,-266.8956 1823.9193,-255.2661 1812.5405,-245.7837"/>
<polygon fill="#63b8ff" stroke="#63b8ff" points="1814.7319,-243.0539 1804.809,-239.3408 1810.2506,-248.4315 1814.7319,-243.0539"/>
</g>
<!-- Node30 -->
<g id="node30" class="node">
<title>Node30</title>
<g id="a_node30"><a xlink:title=" ">
<polygon fill="#e0e0e0" stroke="#999999" points="2031,-239 2001,-239 2001,-220 2031,-220 2031,-239"/>
<text text-anchor="middle" x="2016" y="-227" font-family="Helvetica,sans-Serif" font-size="10.00" fill="#000000">set</text>
</a>
</g>
</g>
<!-- Node29&#45;&gt;Node30 -->
<g id="edge43" class="edge">
<title>Node29&#45;&gt;Node30</title>
<path fill="none" stroke="#63b8ff" d="M1886.3473,-274.9197C1915.9241,-264.5584 1962.6606,-248.1858 1991.2033,-238.1868"/>
<polygon fill="#63b8ff" stroke="#63b8ff" points="1992.5499,-241.4236 2000.8303,-234.8142 1990.2355,-234.8173 1992.5499,-241.4236"/>
</g>
<!-- Node31 -->
<g id="node31" class="node">
<title>Node31</title>
<g id="a_node31"><a xlink:title=" ">
<polygon fill="#e0e0e0" stroke="#999999" points="1907,-239 1829,-239 1829,-220 1907,-220 1907,-239"/>
<text text-anchor="middle" x="1868" y="-227" font-family="Helvetica,sans-Serif" font-size="10.00" fill="#000000">unordered_set</text>
</a>
</g>
</g>
<!-- Node29&#45;&gt;Node31 -->
<g id="edge45" class="edge">
<title>Node29&#45;&gt;Node31</title>
<path fill="none" stroke="#63b8ff" d="M1860.5677,-274.9197C1861.715,-267.9083 1863.3128,-258.1442 1864.733,-249.4652"/>
<polygon fill="#63b8ff" stroke="#63b8ff" points="1868.2288,-249.7748 1866.3897,-239.3408 1861.3207,-248.6443 1868.2288,-249.7748"/>
</g>
<!-- Node32 -->
<g id="node32" class="node">
<title>Node32</title>
<g id="a_node32"><a xlink:title=" ">
<polygon fill="#e0e0e0" stroke="#999999" points="998.5,-129 915.5,-129 915.5,-110 998.5,-110 998.5,-129"/>
<text text-anchor="middle" x="957" y="-117" font-family="Helvetica,sans-Serif" font-size="10.00" fill="#000000">unordered_map</text>
</a>
</g>
</g>
<!-- Node29&#45;&gt;Node32 -->
<g id="edge46" class="edge">
<title>Node29&#45;&gt;Node32</title>
<path fill="none" stroke="#63b8ff" d="M1823.9903,-280.9461C1669.982,-265.2295 1058.7601,-201.956 1022,-184 1000.2672,-173.3843 981.4085,-152.6055 969.6836,-137.4929"/>
<polygon fill="#63b8ff" stroke="#63b8ff" points="972.4153,-135.3011 963.6367,-129.3692 966.8002,-139.4808 972.4153,-135.3011"/>
</g>
<!-- Node33 -->
<g id="node33" class="node">
<title>Node33</title>
<g id="a_node33"><a xlink:title=" ">
<polygon fill="#e0e0e0" stroke="#999999" points="980.5,-239 939.5,-239 939.5,-220 980.5,-220 980.5,-239"/>
<text text-anchor="middle" x="960" y="-227" font-family="Helvetica,sans-Serif" font-size="10.00" fill="#000000">stack</text>
</a>
</g>
</g>
<!-- Node29&#45;&gt;Node33 -->
<g id="edge47" class="edge">
<title>Node29&#45;&gt;Node33</title>
<path fill="none" stroke="#63b8ff" d="M1823.7501,-282.9545C1686.4184,-276.8732 1187.0172,-254.1834 1029,-239 1016.432,-237.7924 1002.6376,-235.9895 990.7079,-234.2778"/>
<polygon fill="#63b8ff" stroke="#63b8ff" points="991.1857,-230.8105 980.7821,-232.8143 990.1646,-237.7356 991.1857,-230.8105"/>
</g>
<!-- Node36&#45;&gt;Node8 -->
<g id="edge55" class="edge">
<title>Node36&#45;&gt;Node8</title>
<path fill="none" stroke="#63b8ff" d="M1064.2012,-274.8828C1079.4052,-261.0086 1109.4049,-235.3613 1139,-220 1185.7828,-195.7174 1205.2172,-208.2826 1252,-184 1277.2021,-170.9189 1302.6976,-150.3788 1319.0999,-136.0016"/>
<polygon fill="#63b8ff" stroke="#63b8ff" points="1321.6774,-138.392 1326.7988,-129.1172 1317.0114,-133.174 1321.6774,-138.392"/>
</g>
<!-- Node36&#45;&gt;Node16 -->
<g id="edge54" class="edge">
<title>Node36&#45;&gt;Node16</title>
<path fill="none" stroke="#63b8ff" d="M1071.3289,-274.9904C1103.6839,-257.2509 1170.279,-220.8202 1173,-220 1345.5956,-167.9716 1400.3339,-219.8507 1577,-184 1603.9981,-178.5213 1609.5923,-172.8451 1636,-165 1682.7282,-151.1181 1737.2923,-136.5594 1770.9987,-127.7557"/>
<polygon fill="#63b8ff" stroke="#63b8ff" points="1771.962,-131.1217 1780.7579,-125.2154 1770.1986,-124.3474 1771.962,-131.1217"/>
</g>
<!-- Node36&#45;&gt;Node19 -->
<g id="edge57" class="edge">
<title>Node36&#45;&gt;Node19</title>
<path fill="none" stroke="#63b8ff" d="M1030.3787,-276.8324C1027.5767,-276.1181 1024.7395,-275.4826 1022,-275 763.107,-229.3969 688.3044,-282.7149 425.9447,-238.9876"/>
<polygon fill="#63b8ff" stroke="#63b8ff" points="426.1751,-235.4767 415.7302,-237.2522 425.0027,-242.3778 426.1751,-235.4767"/>
</g>
<!-- Node37 -->
<g id="node37" class="node">
<title>Node37</title>
<g id="a_node37"><a xlink:title=" ">
<polygon fill="#e0e0e0" stroke="#999999" points="536,-184 484,-184 484,-165 536,-165 536,-184"/>
<text text-anchor="middle" x="510" y="-172" font-family="Helvetica,sans-Serif" font-size="10.00" fill="#000000">sstream</text>
</a>
</g>
</g>
<!-- Node36&#45;&gt;Node37 -->
<g id="edge56" class="edge">
<title>Node36&#45;&gt;Node37</title>
<path fill="none" stroke="#63b8ff" d="M1030.3632,-276.9163C1027.564,-276.187 1024.7317,-275.5249 1022,-275 849.3189,-241.8164 796.21,-290.2378 628,-239 591.9189,-228.0095 554.3835,-205.2033 531.5988,-189.8715"/>
<polygon fill="#63b8ff" stroke="#63b8ff" points="533.5686,-186.9784 523.3429,-184.2062 529.608,-192.7502 533.5686,-186.9784"/>
</g>
<!-- Node38 -->
<g id="node38" class="node">
<title>Node38</title>
<g id="a_node38"><a xlink:href="../../df/d9b/arguments_8h.html" target="_top" xlink:title=" ">
<polygon fill="#ffffff" stroke="#666666" points="1252.5,-239 1181.5,-239 1181.5,-220 1252.5,-220 1252.5,-239"/>
<text text-anchor="middle" x="1217" y="-227" font-family="Helvetica,sans-Serif" font-size="10.00" fill="#000000">arguments.h</text>
</a>
</g>
</g>
<!-- Node36&#45;&gt;Node38 -->
<g id="edge58" class="edge">
<title>Node36&#45;&gt;Node38</title>
<path fill="none" stroke="#63b8ff" d="M1077.7016,-276.5025C1104.2329,-267.5503 1147.6006,-252.917 1178.905,-242.3541"/>
<polygon fill="#63b8ff" stroke="#63b8ff" points="1180.2522,-245.5935 1188.6083,-239.08 1178.0141,-238.9609 1180.2522,-245.5935"/>
</g>
<!-- Node39 -->
<g id="node39" class="node">
<title>Node39</title>
<g id="a_node39"><a xlink:href="../../d1/d02/reflist_8h.html" target="_top" xlink:title=" ">
<polygon fill="#ffffff" stroke="#666666" points="1086.5,-239 1037.5,-239 1037.5,-220 1086.5,-220 1086.5,-239"/>
<text text-anchor="middle" x="1062" y="-227" font-family="Helvetica,sans-Serif" font-size="10.00" fill="#000000">reflist.h</text>
</a>
</g>
</g>
<!-- Node36&#45;&gt;Node39 -->
<g id="edge61" class="edge">
<title>Node36&#45;&gt;Node39</title>
<path fill="none" stroke="#63b8ff" d="M1055.3935,-274.9197C1056.4133,-267.9083 1057.8336,-258.1442 1059.096,-249.4652"/>
<polygon fill="#63b8ff" stroke="#63b8ff" points="1062.5927,-249.7405 1060.5686,-239.3408 1055.6656,-248.7329 1062.5927,-249.7405"/>
</g>
<!-- Node41 -->
<g id="node41" class="node">
<title>Node41</title>
<g id="a_node41"><a xlink:href="../../d4/d7d/textstream_8h.html" target="_top" xlink:title=" ">
<polygon fill="#ffffff" stroke="#666666" points="504.5,-239 433.5,-239 433.5,-220 504.5,-220 504.5,-239"/>
<text text-anchor="middle" x="469" y="-227" font-family="Helvetica,sans-Serif" font-size="10.00" fill="#000000">textstream.h</text>
</a>
</g>
</g>
<!-- Node36&#45;&gt;Node41 -->
<g id="edge74" class="edge">
<title>Node36&#45;&gt;Node41</title>
<path fill="none" stroke="#63b8ff" d="M1030.3703,-276.8789C1027.5698,-276.1563 1024.7353,-275.506 1022,-275 818.1733,-237.2932 763.4008,-258.1262 557,-239 543.2219,-237.7232 528.2488,-236.1693 514.6261,-234.6911"/>
<polygon fill="#63b8ff" stroke="#63b8ff" points="514.8362,-231.1932 504.514,-233.5814 514.0725,-238.1515 514.8362,-231.1932"/>
</g>
<!-- Node38&#45;&gt;Node16 -->
<g id="edge59" class="edge">
<title>Node38&#45;&gt;Node16</title>
<path fill="none" stroke="#63b8ff" d="M1252.5859,-227.0102C1340.0662,-220.6692 1563.7458,-203.0588 1636,-184 1656.5964,-178.5672 1660.2263,-172.9201 1680,-165 1710.6513,-152.723 1746.0468,-139.7543 1770.9753,-130.8174"/>
<polygon fill="#63b8ff" stroke="#63b8ff" points="1772.4025,-134.0243 1780.6433,-127.3654 1770.0487,-127.4319 1772.4025,-134.0243"/>
</g>
<!-- Node38&#45;&gt;Node20 -->
<g id="edge60" class="edge">
<title>Node38&#45;&gt;Node20</title>
<path fill="none" stroke="#63b8ff" d="M1181.3493,-226.4013C1123.9731,-220.9205 1007.8695,-207.7869 912,-184 887.3065,-177.8731 882.3583,-172.3473 858,-165 810.0471,-150.5356 753.9888,-136.8667 717.3329,-128.3569"/>
<polygon fill="#63b8ff" stroke="#63b8ff" points="718.0622,-124.9333 707.5315,-126.0971 716.4895,-131.7543 718.0622,-124.9333"/>
</g>
<!-- Node39&#45;&gt;Node8 -->
<g id="edge64" class="edge">
<title>Node39&#45;&gt;Node8</title>
<path fill="none" stroke="#63b8ff" d="M1086.6889,-222.9884C1124.2888,-212.9551 1194.0617,-193.8468 1218,-184 1252.3425,-169.8736 1289.6302,-148.6104 1313.1414,-134.4038"/>
<polygon fill="#63b8ff" stroke="#63b8ff" points="1315.0281,-137.3527 1321.7369,-129.1526 1311.3787,-131.3793 1315.0281,-137.3527"/>
</g>
<!-- Node39&#45;&gt;Node16 -->
<g id="edge62" class="edge">
<title>Node39&#45;&gt;Node16</title>
<path fill="none" stroke="#63b8ff" d="M1086.5999,-226.2803C1101.7065,-224.3491 1121.4583,-221.9061 1139,-220 1308.972,-201.5304 1353.2024,-211.184 1522,-184 1534.3933,-182.0041 1699.9566,-143.5195 1770.9924,-126.9661"/>
<polygon fill="#63b8ff" stroke="#63b8ff" points="1771.8133,-130.3686 1780.7577,-124.6898 1770.2242,-123.5514 1771.8133,-130.3686"/>
</g>
<!-- Node39&#45;&gt;Node20 -->
<g id="edge65" class="edge">
<title>Node39&#45;&gt;Node20</title>
<path fill="none" stroke="#63b8ff" d="M1037.1989,-224.1659C1001.0743,-216.2455 931.9691,-200.5242 874,-184 817.7469,-167.9649 753.5146,-146.1445 714.3677,-132.4425"/>
<polygon fill="#63b8ff" stroke="#63b8ff" points="715.3316,-129.0715 704.7367,-129.0581 713.0107,-135.6756 715.3316,-129.0715"/>
</g>
<!-- Node39&#45;&gt;Node32 -->
<g id="edge63" class="edge">
<title>Node39&#45;&gt;Node32</title>
<path fill="none" stroke="#63b8ff" d="M1039.578,-219.9292C1023.5411,-212.1642 1002.3415,-199.9044 988,-184 976.1984,-170.9123 967.9578,-152.5262 962.9551,-138.7311"/>
<polygon fill="#63b8ff" stroke="#63b8ff" points="966.2668,-137.5983 959.7553,-129.2406 959.6337,-139.8347 966.2668,-137.5983"/>
</g>
<!-- Node40 -->
<g id="node40" class="node">
<title>Node40</title>
<g id="a_node40"><a xlink:href="../../da/de1/linkedmap_8h.html" target="_top" xlink:title=" ">
<polygon fill="#ffffff" stroke="#666666" points="1099.5,-184 1030.5,-184 1030.5,-165 1099.5,-165 1099.5,-184"/>
<text text-anchor="middle" x="1065" y="-172" font-family="Helvetica,sans-Serif" font-size="10.00" fill="#000000">linkedmap.h</text>
</a>
</g>
</g>
<!-- Node39&#45;&gt;Node40 -->
<g id="edge66" class="edge">
<title>Node39&#45;&gt;Node40</title>
<path fill="none" stroke="#63b8ff" d="M1062.5226,-219.9197C1062.905,-212.9083 1063.4376,-203.1442 1063.911,-194.4652"/>
<polygon fill="#63b8ff" stroke="#63b8ff" points="1067.4133,-194.5166 1064.4632,-184.3408 1060.4237,-194.1353 1067.4133,-194.5166"/>
</g>
<!-- Node40&#45;&gt;Node7 -->
<g id="edge70" class="edge">
<title>Node40&#45;&gt;Node7</title>
<path fill="none" stroke="#63b8ff" d="M1062.0473,-164.8233C1054.6298,-142.1446 1033.036,-85.2022 995,-55 964.4661,-30.7548 920.3462,-19.1161 890.9505,-13.7516"/>
<polygon fill="#63b8ff" stroke="#63b8ff" points="891.2817,-10.2582 880.8391,-12.0474 890.1183,-17.1608 891.2817,-10.2582"/>
</g>
<!-- Node40&#45;&gt;Node8 -->
<g id="edge69" class="edge">
<title>Node40&#45;&gt;Node8</title>
<path fill="none" stroke="#63b8ff" d="M1099.7253,-167.4783C1151.4182,-157.0257 1248.1454,-137.4669 1300.723,-126.8354"/>
<polygon fill="#63b8ff" stroke="#63b8ff" points="1301.5156,-130.2461 1310.6235,-124.8335 1300.1281,-123.3849 1301.5156,-130.2461"/>
</g>
<!-- Node40&#45;&gt;Node16 -->
<g id="edge68" class="edge">
<title>Node40&#45;&gt;Node16</title>
<path fill="none" stroke="#63b8ff" d="M1099.6054,-171.921C1224.3622,-162.6234 1650.0344,-130.8999 1770.8131,-121.8987"/>
<polygon fill="#63b8ff" stroke="#63b8ff" points="1771.1868,-125.3807 1780.899,-121.1471 1770.6665,-118.4001 1771.1868,-125.3807"/>
</g>
<!-- Node40&#45;&gt;Node20 -->
<g id="edge73" class="edge">
<title>Node40&#45;&gt;Node20</title>
<path fill="none" stroke="#63b8ff" d="M1030.3158,-169.5707C958.4643,-159.3593 793.7298,-135.9474 717.7392,-125.1477"/>
<polygon fill="#63b8ff" stroke="#63b8ff" points="718.0175,-121.6521 707.6245,-123.7102 717.0325,-128.5825 718.0175,-121.6521"/>
</g>
<!-- Node40&#45;&gt;Node21 -->
<g id="edge71" class="edge">
<title>Node40&#45;&gt;Node21</title>
<path fill="none" stroke="#63b8ff" d="M1092.6859,-164.998C1136.5093,-150.4076 1224.8104,-122.8311 1302,-110 1433.6568,-88.1149 1847.8081,-70.8715 1976.474,-65.9311"/>
<polygon fill="#63b8ff" stroke="#63b8ff" points="1976.7765,-69.4222 1986.6359,-65.5438 1976.5098,-62.4273 1976.7765,-69.4222"/>
</g>
<!-- Node40&#45;&gt;Node22 -->
<g id="edge72" class="edge">
<title>Node40&#45;&gt;Node22</title>
<path fill="none" stroke="#63b8ff" d="M1056.668,-164.7326C1045.7092,-151.9651 1025.7587,-128.9936 1008,-110 998.9373,-100.3072 988.5359,-89.7547 980.0176,-81.2546"/>
<polygon fill="#63b8ff" stroke="#63b8ff" points="982.3801,-78.6682 972.8164,-74.1089 977.4495,-83.6371 982.3801,-78.6682"/>
</g>
<!-- Node40&#45;&gt;Node32 -->
<g id="edge67" class="edge">
<title>Node40&#45;&gt;Node32</title>
<path fill="none" stroke="#63b8ff" d="M1046.1878,-164.9197C1029.2566,-156.2973 1004.1508,-143.512 984.8858,-133.7011"/>
<polygon fill="#63b8ff" stroke="#63b8ff" points="986.4583,-130.5742 975.959,-129.155 983.2817,-136.812 986.4583,-130.5742"/>
</g>
<!-- Node41&#45;&gt;Node7 -->
<g id="edge75" class="edge">
<title>Node41&#45;&gt;Node7</title>
<path fill="none" stroke="#63b8ff" d="M433.1814,-221.8388C398.6847,-213.6481 350.1383,-199.6992 339,-184 305.2553,-136.4375 317.3951,-91.3466 363,-55 399.4841,-25.9226 726.3648,-13.5662 829.185,-10.3769"/>
<polygon fill="#63b8ff" stroke="#63b8ff" points="829.3472,-13.8737 839.2366,-10.0725 829.1352,-6.8769 829.3472,-13.8737"/>
</g>
<!-- Node41&#45;&gt;Node14 -->
<g id="edge76" class="edge">
<title>Node41&#45;&gt;Node14</title>
<path fill="none" stroke="#63b8ff" d="M433.1802,-221.7149C430.0802,-221.1089 426.9879,-220.5282 424,-220 312.5904,-200.3045 283.2108,-204.7882 172,-184 170.7476,-183.7659 169.4756,-183.5196 168.1924,-183.2639"/>
<polygon fill="#63b8ff" stroke="#63b8ff" points="168.7867,-179.8122 158.2785,-181.1642 167.3363,-186.6603 168.7867,-179.8122"/>
</g>
<!-- Node41&#45;&gt;Node20 -->
<g id="edge82" class="edge">
<title>Node41&#45;&gt;Node20</title>
<path fill="none" stroke="#63b8ff" d="M434.1256,-219.9712C404.7213,-211.1486 366.0241,-197.4063 357,-184 352.2846,-176.9947 351.4637,-171.3764 357,-165 375.2286,-144.0054 556.5462,-128.3139 638.3388,-122.2463"/>
<polygon fill="#63b8ff" stroke="#63b8ff" points="638.7801,-125.7235 648.4986,-121.5043 638.2702,-118.7421 638.7801,-125.7235"/>
</g>
<!-- Node41&#45;&gt;Node24 -->
<g id="edge79" class="edge">
<title>Node41&#45;&gt;Node24</title>
<path fill="none" stroke="#63b8ff" d="M433.4907,-220.6839C402.1007,-212.0871 359.8126,-198.2572 350,-184 327.6876,-151.5811 357.6805,-106.4667 378.0253,-81.9879"/>
<polygon fill="#63b8ff" stroke="#63b8ff" points="380.8267,-84.0992 384.7177,-74.2447 375.5306,-79.5219 380.8267,-84.0992"/>
</g>
<!-- Node41&#45;&gt;Node26 -->
<g id="edge78" class="edge">
<title>Node41&#45;&gt;Node26</title>
<path fill="none" stroke="#63b8ff" d="M433.1429,-221.9089C430.051,-221.2608 426.9707,-220.6174 424,-220 345.8285,-203.7539 298.4839,-245.8554 248,-184 211.7482,-139.5825 210.8774,-98.6924 248,-55 263.7,-36.5215 421.9129,-19.3668 492.4114,-12.5745"/>
<polygon fill="#63b8ff" stroke="#63b8ff" points="492.9198,-16.042 502.5438,-11.6116 492.2575,-9.0734 492.9198,-16.042"/>
</g>
<!-- Node41&#45;&gt;Node37 -->
<g id="edge77" class="edge">
<title>Node41&#45;&gt;Node37</title>
<path fill="none" stroke="#63b8ff" d="M476.1417,-219.9197C481.7749,-212.363 489.7917,-201.6087 496.6105,-192.4616"/>
<polygon fill="#63b8ff" stroke="#63b8ff" points="499.4935,-194.4501 502.6641,-184.3408 493.8813,-190.2665 499.4935,-194.4501"/>
</g>
<!-- Node42 -->
<g id="node42" class="node">
<title>Node42</title>
<g id="a_node42"><a xlink:title=" ">
<polygon fill="#e0e0e0" stroke="#999999" points="784,-184 734,-184 734,-165 784,-165 784,-184"/>
<text text-anchor="middle" x="759" y="-172" font-family="Helvetica,sans-Serif" font-size="10.00" fill="#000000">fstream</text>
</a>
</g>
</g>
<!-- Node41&#45;&gt;Node42 -->
<g id="edge80" class="edge">
<title>Node41&#45;&gt;Node42</title>
<path fill="none" stroke="#63b8ff" d="M504.5597,-222.7559C560.4008,-212.1654 668.014,-191.756 723.6963,-181.1955"/>
<polygon fill="#63b8ff" stroke="#63b8ff" points="724.6148,-184.5838 733.7875,-179.2817 723.3104,-177.7064 724.6148,-184.5838"/>
</g>
<!-- Node43 -->
<g id="node43" class="node">
<title>Node43</title>
<g id="a_node43"><a xlink:title=" ">
<polygon fill="#e0e0e0" stroke="#999999" points="428,-184 366,-184 366,-165 428,-165 428,-184"/>
<text text-anchor="middle" x="397" y="-172" font-family="Helvetica,sans-Serif" font-size="10.00" fill="#000000">type_traits</text>
</a>
</g>
</g>
<!-- Node41&#45;&gt;Node43 -->
<g id="edge81" class="edge">
<title>Node41&#45;&gt;Node43</title>
<path fill="none" stroke="#63b8ff" d="M456.4586,-219.9197C445.8522,-211.8177 430.4341,-200.0399 417.9561,-190.5082"/>
<polygon fill="#63b8ff" stroke="#63b8ff" points="419.9539,-187.6299 409.8825,-184.3408 415.7046,-193.1926 419.9539,-187.6299"/>
</g>
<!-- Node44&#45;&gt;Node20 -->
<g id="edge84" class="edge">
<title>Node44&#45;&gt;Node20</title>
<path fill="none" stroke="#63b8ff" d="M1016.749,-337.4408C904.0289,-330.623 557.208,-305.3249 278,-239 195.372,-219.372 145.6786,-252.1493 95,-184 89.961,-177.2238 89.2659,-171.1991 95,-165 113.4606,-145.0425 509.2868,-126.6243 637.9721,-121.1449"/>
<polygon fill="#63b8ff" stroke="#63b8ff" points="638.3341,-124.6328 648.1774,-120.7137 638.0385,-117.6391 638.3341,-124.6328"/>
</g>
<!-- Node44&#45;&gt;Node36 -->
<g id="edge90" class="edge">
<title>Node44&#45;&gt;Node36</title>
<path fill="none" stroke="#63b8ff" d="M1054,-329.9197C1054,-322.9083 1054,-313.1442 1054,-304.4652"/>
<polygon fill="#63b8ff" stroke="#63b8ff" points="1057.5001,-304.3408 1054,-294.3408 1050.5001,-304.3409 1057.5001,-304.3408"/>
</g>
<!-- Node44&#45;&gt;Node38 -->
<g id="edge89" class="edge">
<title>Node44&#45;&gt;Node38</title>
<path fill="none" stroke="#63b8ff" d="M1062.936,-329.8358C1075.7493,-316.3584 1100.5075,-291.6979 1125,-275 1143.3851,-262.4658 1165.7246,-251.3334 1183.7861,-243.2177"/>
<polygon fill="#63b8ff" stroke="#63b8ff" points="1185.5778,-246.2537 1193.3279,-239.0296 1182.7644,-239.8439 1185.5778,-246.2537"/>
</g>
<!-- Node45 -->
<g id="node45" class="node">
<title>Node45</title>
<g id="a_node45"><a xlink:href="../../db/d51/layout_8h.html" target="_top" xlink:title=" ">
<polygon fill="#ffffff" stroke="#666666" points="1012.5,-294 961.5,-294 961.5,-275 1012.5,-275 1012.5,-294"/>
<text text-anchor="middle" x="987" y="-282" font-family="Helvetica,sans-Serif" font-size="10.00" fill="#000000">layout.h</text>
</a>
</g>
</g>
<!-- Node44&#45;&gt;Node45 -->
<g id="edge85" class="edge">
<title>Node44&#45;&gt;Node45</title>
<path fill="none" stroke="#63b8ff" d="M1042.3295,-329.9197C1032.5546,-321.8956 1018.3878,-310.2661 1006.8365,-300.7837"/>
<polygon fill="#63b8ff" stroke="#63b8ff" points="1008.938,-297.9805 998.9879,-294.3408 1004.4965,-303.3911 1008.938,-297.9805"/>
</g>
<!-- Node45&#45;&gt;Node8 -->
<g id="edge86" class="edge">
<title>Node45&#45;&gt;Node8</title>
<path fill="none" stroke="#63b8ff" d="M968.2452,-274.8908C946.0505,-262.2944 914.11,-239.5075 931,-220 967.5958,-177.7327 1126.6485,-200.7151 1180,-184 1198.0187,-178.3547 1200.7161,-172.6032 1218,-165 1245.4587,-152.9209 1277.223,-140.8698 1301.0239,-132.2074"/>
<polygon fill="#63b8ff" stroke="#63b8ff" points="1302.4846,-135.4012 1310.7009,-128.7122 1300.1066,-128.8175 1302.4846,-135.4012"/>
</g>
<!-- Node45&#45;&gt;Node16 -->
<g id="edge87" class="edge">
<title>Node45&#45;&gt;Node16</title>
<path fill="none" stroke="#63b8ff" d="M990.3386,-274.6928C995.8696,-260.0851 1008.4123,-232.9466 1029,-220 1061.0712,-199.832 1627.9638,-138.1857 1770.6245,-122.9382"/>
<polygon fill="#63b8ff" stroke="#63b8ff" points="1771.3213,-126.3838 1780.8936,-121.8425 1770.5786,-119.4233 1771.3213,-126.3838"/>
</g>
<!-- Node45&#45;&gt;Node19 -->
<g id="edge88" class="edge">
<title>Node45&#45;&gt;Node19</title>
<path fill="none" stroke="#63b8ff" d="M961.1359,-276.6852C958.4063,-276.0372 955.6577,-275.4568 953,-275 724.039,-235.6488 657.9563,-278.576 425.8397,-238.9883"/>
<polygon fill="#63b8ff" stroke="#63b8ff" points="426.1857,-235.496 415.7339,-237.2309 424.9863,-242.3925 426.1857,-235.496"/>
</g>
<!-- Node47 -->
<g id="node47" class="node">
<title>Node47</title>
<g id="a_node47"><a xlink:title=" ">
<polygon fill="#e0e0e0" stroke="#999999" points="882,-569 802,-569 802,-550 882,-550 882,-569"/>
<text text-anchor="middle" x="842" y="-557" font-family="Helvetica,sans-Serif" font-size="10.00" fill="#000000">configvalues.h</text>
</a>
</g>
</g>
<!-- Node46&#45;&gt;Node47 -->
<g id="edge92" class="edge">
<title>Node46&#45;&gt;Node47</title>
<path fill="none" stroke="#63b8ff" d="M847.7807,-604.9197C846.8883,-597.9083 845.6456,-588.1442 844.541,-579.4652"/>
<polygon fill="#63b8ff" stroke="#63b8ff" points="847.9871,-578.8189 843.2525,-569.3408 841.0431,-579.7027 847.9871,-578.8189"/>
</g>
<!-- Node48&#45;&gt;Node8 -->
<g id="edge94" class="edge">
<title>Node48&#45;&gt;Node8</title>
<path fill="none" stroke="#63b8ff" d="M1214.4969,-604.6122C1229.827,-543.9053 1311.2344,-221.5319 1332.1159,-138.8409"/>
<polygon fill="#63b8ff" stroke="#63b8ff" points="1335.5445,-139.5587 1334.5995,-129.0061 1328.7575,-137.8448 1335.5445,-139.5587"/>
</g>
<!-- Node48&#45;&gt;Node10 -->
<g id="edge97" class="edge">
<title>Node48&#45;&gt;Node10</title>
<path fill="none" stroke="#63b8ff" d="M1203.4028,-604.9796C1162.0238,-559.1572 983.1672,-361.0946 929.3663,-301.5164"/>
<polygon fill="#63b8ff" stroke="#63b8ff" points="931.9318,-299.135 922.6321,-294.059 926.7365,-303.8265 931.9318,-299.135"/>
</g>
<!-- Node48&#45;&gt;Node19 -->
<g id="edge100" class="edge">
<title>Node48&#45;&gt;Node19</title>
<path fill="none" stroke="#63b8ff" d="M1192.811,-610.4104C1152.4216,-601.6877 1059.8995,-581.0704 1030,-569 1014.3066,-562.6646 1012.672,-556.388 997,-550 937.506,-525.7498 916.1773,-539.013 857,-514 672.2967,-435.9299 474.6358,-292.609 411.5633,-245.1921"/>
<polygon fill="#63b8ff" stroke="#63b8ff" points="413.6608,-242.3902 403.5721,-239.1547 409.4411,-247.9754 413.6608,-242.3902"/>
</g>
<!-- Node48&#45;&gt;Node21 -->
<g id="edge96" class="edge">
<title>Node48&#45;&gt;Node21</title>
<path fill="none" stroke="#63b8ff" d="M1231.2247,-606.3048C1232.8219,-605.8039 1234.4271,-605.3584 1236,-605 1455.3905,-555.009 1526.8735,-638.1459 1741,-569 1785.2493,-554.711 1791.9036,-540.6615 1830,-514 1988.3835,-403.1564 2090.6569,-416.6046 2167,-239 2191.5452,-181.898 2162.8961,-147.0606 2113,-110 2094.7071,-96.4128 2071.7084,-85.4753 2052.5889,-77.7321"/>
<polygon fill="#63b8ff" stroke="#63b8ff" points="2053.8595,-74.471 2043.2718,-74.0837 2051.3071,-80.989 2053.8595,-74.471"/>
</g>
<!-- Node48&#45;&gt;Node29 -->
<g id="edge109" class="edge">
<title>Node48&#45;&gt;Node29</title>
<path fill="none" stroke="#63b8ff" d="M1231.239,-613.5756C1314.8332,-609.4347 1644.1044,-591.7924 1684,-569 1736.489,-539.0129 1818.8741,-403.9819 1844,-349 1850.5047,-334.7659 1854.333,-317.4324 1856.492,-304.3202"/>
<polygon fill="#63b8ff" stroke="#63b8ff" points="1860.0073,-304.468 1857.9849,-294.068 1853.0804,-303.4593 1860.0073,-304.468"/>
</g>
<!-- Node48&#45;&gt;Node32 -->
<g id="edge95" class="edge">
<title>Node48&#45;&gt;Node32</title>
<path fill="none" stroke="#63b8ff" d="M1194.0205,-604.7881C1134.2856,-571.3329 942.4732,-454.0695 876,-294 851.5558,-235.1375 908.5621,-167.0681 939.1714,-136.2251"/>
<polygon fill="#63b8ff" stroke="#63b8ff" points="941.631,-138.7152 946.3191,-129.214 936.7292,-133.718 941.631,-138.7152"/>
</g>
<!-- Node48&#45;&gt;Node35 -->
<g id="edge99" class="edge">
<title>Node48&#45;&gt;Node35</title>
<path fill="none" stroke="#63b8ff" d="M1192.8534,-610.5227C1155.8925,-602.8069 1072.1639,-585.1439 1002,-569 1000.5568,-568.6679 999.0845,-568.3256 997.5979,-567.9768"/>
<polygon fill="#63b8ff" stroke="#63b8ff" points="998.274,-564.54 987.735,-565.6261 996.651,-571.3493 998.274,-564.54"/>
</g>
<!-- Node48&#45;&gt;Node42 -->
<g id="edge98" class="edge">
<title>Node48&#45;&gt;Node42</title>
<path fill="none" stroke="#63b8ff" d="M1192.8631,-605.4219C1159.6479,-589.751 1092.5289,-558.4854 1068,-550 1005.6554,-528.4328 976.1877,-554.354 924,-514 814.4169,-429.2651 773.306,-253.0004 762.3036,-194.1259"/>
<polygon fill="#63b8ff" stroke="#63b8ff" points="765.7455,-193.49 760.5412,-184.2615 758.8546,-194.7212 765.7455,-193.49"/>
</g>
<!-- Node49 -->
<g id="node49" class="node">
<title>Node49</title>
<g id="a_node49"><a xlink:href="../../de/d9c/docparser_8h.html" target="_top" xlink:title=" ">
<polygon fill="#ffffff" stroke="#666666" points="1529,-239 1461,-239 1461,-220 1529,-220 1529,-239"/>
<text text-anchor="middle" x="1495" y="-227" font-family="Helvetica,sans-Serif" font-size="10.00" fill="#000000">docparser.h</text>
</a>
</g>
</g>
<!-- Node48&#45;&gt;Node49 -->
<g id="edge101" class="edge">
<title>Node48&#45;&gt;Node49</title>
<path fill="none" stroke="#63b8ff" d="M1231.0966,-614.0828C1317.7766,-611.6847 1670,-596.2925 1670,-504.5 1670,-504.5 1670,-504.5 1670,-394.5 1670,-317.8078 1579.9255,-266.2314 1529.0215,-243.2073"/>
<polygon fill="#63b8ff" stroke="#63b8ff" points="1530.2652,-239.9308 1519.7021,-239.1123 1527.4493,-246.3395 1530.2652,-239.9308"/>
</g>
<!-- Node52 -->
<g id="node52" class="node">
<title>Node52</title>
<g id="a_node52"><a xlink:href="../../df/d06/outputgen_8h.html" target="_top" xlink:title=" ">
<polygon fill="#ffffff" stroke="#666666" points="752,-294 684,-294 684,-275 752,-275 752,-294"/>
<text text-anchor="middle" x="718" y="-282" font-family="Helvetica,sans-Serif" font-size="10.00" fill="#000000">outputgen.h</text>
</a>
</g>
</g>
<!-- Node48&#45;&gt;Node52 -->
<g id="edge110" class="edge">
<title>Node48&#45;&gt;Node52</title>
<path fill="none" stroke="#63b8ff" d="M1192.8117,-608.3161C1166.703,-599.8266 1118.5873,-583.9133 1078,-569 1056.4639,-561.0869 1051.8493,-557.0021 1030,-550 966.7668,-529.7355 940.0809,-551.0834 885,-514 802.5051,-458.4601 746.2891,-347.854 726.1891,-303.5245"/>
<polygon fill="#63b8ff" stroke="#63b8ff" points="729.3092,-301.9265 722.0563,-294.2034 722.91,-304.7638 729.3092,-301.9265"/>
</g>
<!-- Node55 -->
<g id="node55" class="node">
<title>Node55</title>
<g id="a_node55"><a xlink:href="../../d1/d21/regex_8h.html" target="_top" xlink:title=" ">
<polygon fill="#ffffff" stroke="#666666" points="2095.5,-184 2046.5,-184 2046.5,-165 2095.5,-165 2095.5,-184"/>
<text text-anchor="middle" x="2071" y="-172" font-family="Helvetica,sans-Serif" font-size="10.00" fill="#000000">regex.h</text>
</a>
</g>
</g>
<!-- Node48&#45;&gt;Node55 -->
<g id="edge125" class="edge">
<title>Node48&#45;&gt;Node55</title>
<path fill="none" stroke="#63b8ff" d="M1231.0545,-614.3869C1311.2339,-613.6646 1621.1152,-608.3323 1709,-569 1872.6064,-495.7789 1877.4231,-420.9121 2004,-294 2027.5411,-270.3965 2039.152,-268.3283 2055,-239 2062.5416,-225.0435 2066.5977,-207.472 2068.7368,-194.195"/>
<polygon fill="#63b8ff" stroke="#63b8ff" points="2072.2124,-194.6116 2070.1172,-184.226 2065.2786,-193.6514 2072.2124,-194.6116"/>
</g>
<!-- Node56 -->
<g id="node56" class="node">
<title>Node56</title>
<g id="a_node56"><a xlink:href="../../da/df1/conceptdef_8h.html" target="_top" xlink:title=" ">
<polygon fill="#ffffff" stroke="#666666" points="1313.5,-569 1240.5,-569 1240.5,-550 1313.5,-550 1313.5,-569"/>
<text text-anchor="middle" x="1277" y="-557" font-family="Helvetica,sans-Serif" font-size="10.00" fill="#000000">conceptdef.h</text>
</a>
</g>
</g>
<!-- Node48&#45;&gt;Node56 -->
<g id="edge130" class="edge">
<title>Node48&#45;&gt;Node56</title>
<path fill="none" stroke="#63b8ff" d="M1223.3221,-604.9197C1232.7132,-596.9735 1246.2827,-585.4916 1257.4285,-576.0605"/>
<polygon fill="#63b8ff" stroke="#63b8ff" points="1259.9969,-578.4721 1265.3699,-569.3408 1255.4752,-573.1284 1259.9969,-578.4721"/>
</g>
<!-- Node49&#45;&gt;Node2 -->
<g id="edge102" class="edge">
<title>Node49&#45;&gt;Node2</title>
<path fill="none" stroke="#63b8ff" d="M1529.0844,-227.2414C1663.7759,-218.3161 2158.0872,-185.5605 2291.5832,-176.7144"/>
<polygon fill="#63b8ff" stroke="#63b8ff" points="2291.8741,-180.2029 2301.6207,-176.0492 2291.4112,-173.2182 2291.8741,-180.2029"/>
</g>
<!-- Node49&#45;&gt;Node8 -->
<g id="edge103" class="edge">
<title>Node49&#45;&gt;Node8</title>
<path fill="none" stroke="#63b8ff" d="M1482.5165,-219.8265C1465.794,-206.9655 1435.0836,-183.6858 1408,-165 1392.6779,-154.4288 1375.0614,-143.1343 1361.2093,-134.4428"/>
<polygon fill="#63b8ff" stroke="#63b8ff" points="1363.0488,-131.4652 1352.712,-129.1408 1359.3432,-137.4039 1363.0488,-131.4652"/>
</g>
<!-- Node49&#45;&gt;Node20 -->
<g id="edge104" class="edge">
<title>Node49&#45;&gt;Node20</title>
<path fill="none" stroke="#63b8ff" d="M1460.7458,-227.2606C1382.6608,-221.9254 1185.5697,-207.1546 1022,-184 911.1535,-168.3088 781.6785,-141.7946 717.8037,-128.1635"/>
<polygon fill="#63b8ff" stroke="#63b8ff" points="718.2719,-124.6845 707.7604,-126.0109 716.8048,-131.529 718.2719,-124.6845"/>
</g>
<!-- Node50 -->
<g id="node50" class="node">
<title>Node50</title>
<g id="a_node50"><a xlink:href="../../d7/d50/growvector_8h.html" target="_top" xlink:title=" ">
<polygon fill="#ffffff" stroke="#666666" points="1761.5,-184 1688.5,-184 1688.5,-165 1761.5,-165 1761.5,-184"/>
<text text-anchor="middle" x="1725" y="-172" font-family="Helvetica,sans-Serif" font-size="10.00" fill="#000000">growvector.h</text>
</a>
</g>
</g>
<!-- Node49&#45;&gt;Node50 -->
<g id="edge105" class="edge">
<title>Node49&#45;&gt;Node50</title>
<path fill="none" stroke="#63b8ff" d="M1529.4333,-221.2659C1569.0783,-211.7856 1634.3951,-196.1664 1678.5235,-185.614"/>
<polygon fill="#63b8ff" stroke="#63b8ff" points="1679.516,-188.9754 1688.4277,-183.2455 1677.8879,-182.1673 1679.516,-188.9754"/>
</g>
<!-- Node50&#45;&gt;Node8 -->
<g id="edge107" class="edge">
<title>Node50&#45;&gt;Node8</title>
<path fill="none" stroke="#63b8ff" d="M1688.4979,-169.3257C1614.4186,-158.8248 1447.2072,-135.1222 1373.2987,-124.6454"/>
<polygon fill="#63b8ff" stroke="#63b8ff" points="1373.4856,-121.137 1363.0934,-123.1988 1372.5031,-128.0677 1373.4856,-121.137"/>
</g>
<!-- Node50&#45;&gt;Node16 -->
<g id="edge106" class="edge">
<title>Node50&#45;&gt;Node16</title>
<path fill="none" stroke="#63b8ff" d="M1738.5866,-164.9197C1750.2589,-156.6893 1767.3105,-144.6657 1780.9378,-135.0567"/>
<polygon fill="#63b8ff" stroke="#63b8ff" points="1783.1518,-137.7782 1789.3074,-129.155 1779.1179,-132.0574 1783.1518,-137.7782"/>
</g>
<!-- Node51 -->
<g id="node51" class="node">
<title>Node51</title>
<g id="a_node51"><a xlink:title=" ">
<polygon fill="#e0e0e0" stroke="#999999" points="1897.5,-129 1850.5,-129 1850.5,-110 1897.5,-110 1897.5,-129"/>
<text text-anchor="middle" x="1874" y="-117" font-family="Helvetica,sans-Serif" font-size="10.00" fill="#000000">iterator</text>
</a>
</g>
</g>
<!-- Node50&#45;&gt;Node51 -->
<g id="edge108" class="edge">
<title>Node50&#45;&gt;Node51</title>
<path fill="none" stroke="#63b8ff" d="M1750.9538,-164.9197C1775.9047,-155.7097 1813.7229,-141.7499 1840.8439,-131.7388"/>
<polygon fill="#63b8ff" stroke="#63b8ff" points="1842.1389,-134.9917 1850.3082,-128.2453 1839.7149,-128.4248 1842.1389,-134.9917"/>
</g>
<!-- Node52&#45;&gt;Node8 -->
<g id="edge111" class="edge">
<title>Node52&#45;&gt;Node8</title>
<path fill="none" stroke="#63b8ff" d="M734.7514,-274.9124C760.5611,-260.5916 811.9981,-233.8226 859,-220 966.6966,-188.3278 1001.1004,-214.9734 1109,-184 1129.0826,-178.2352 1132.2244,-171.743 1152,-165 1202.6487,-147.7301 1263.1693,-134.1158 1300.8545,-126.4343"/>
<polygon fill="#63b8ff" stroke="#63b8ff" points="1301.7357,-129.8273 1310.8509,-124.4269 1300.3575,-122.9643 1301.7357,-129.8273"/>
</g>
<!-- Node52&#45;&gt;Node14 -->
<g id="edge113" class="edge">
<title>Node52&#45;&gt;Node14</title>
<path fill="none" stroke="#63b8ff" d="M683.8738,-281.9463C619.4759,-276.7422 475.8268,-263.2968 357,-239 289.3166,-225.1606 212.3055,-201.414 167.9106,-186.9184"/>
<polygon fill="#63b8ff" stroke="#63b8ff" points="168.7427,-183.5077 158.1497,-183.7085 166.5558,-190.1574 168.7427,-183.5077"/>
</g>
<!-- Node52&#45;&gt;Node19 -->
<g id="edge115" class="edge">
<title>Node52&#45;&gt;Node19</title>
<path fill="none" stroke="#63b8ff" d="M683.7867,-280.6343C630.4656,-274.3006 524.1959,-260.4408 425.6016,-239.1501"/>
<polygon fill="#63b8ff" stroke="#63b8ff" points="426.2973,-235.7196 415.7799,-236.9985 424.7992,-242.5574 426.2973,-235.7196"/>
</g>
<!-- Node52&#45;&gt;Node33 -->
<g id="edge112" class="edge">
<title>Node52&#45;&gt;Node33</title>
<path fill="none" stroke="#63b8ff" d="M752.1594,-276.7365C799.4206,-265.9953 884.0398,-246.7637 929.3591,-236.4638"/>
<polygon fill="#63b8ff" stroke="#63b8ff" points="930.2223,-239.857 939.1979,-234.2277 928.6709,-233.0311 930.2223,-239.857"/>
</g>
<!-- Node52&#45;&gt;Node41 -->
<g id="edge123" class="edge">
<title>Node52&#45;&gt;Node41</title>
<path fill="none" stroke="#63b8ff" d="M683.8997,-276.9678C640.0048,-267.2721 563.5824,-250.3917 514.6925,-239.5927"/>
<polygon fill="#63b8ff" stroke="#63b8ff" points="515.219,-236.1247 504.6994,-237.3854 513.7091,-242.96 515.219,-236.1247"/>
</g>
<!-- Node52&#45;&gt;Node42 -->
<g id="edge114" class="edge">
<title>Node52&#45;&gt;Node42</title>
<path fill="none" stroke="#63b8ff" d="M721.6385,-274.7382C728.4026,-256.5906 743.0249,-217.36 751.8372,-193.7172"/>
<polygon fill="#63b8ff" stroke="#63b8ff" points="755.2152,-194.6755 755.4282,-184.0828 748.656,-192.2307 755.2152,-194.6755"/>
</g>
<!-- Node52&#45;&gt;Node49 -->
<g id="edge124" class="edge">
<title>Node52&#45;&gt;Node49</title>
<path fill="none" stroke="#63b8ff" d="M752.1374,-282.0836C877.168,-273.2333 1310.1008,-242.5881 1450.597,-232.6431"/>
<polygon fill="#63b8ff" stroke="#63b8ff" points="1451.2437,-236.1061 1460.9716,-231.9087 1450.7494,-229.1236 1451.2437,-236.1061"/>
</g>
<!-- Node53 -->
<g id="node53" class="node">
<title>Node53</title>
<g id="a_node53"><a xlink:href="../../d1/db5/index_8h.html" target="_top" xlink:title=" ">
<polygon fill="#ffffff" stroke="#666666" points="640,-184 592,-184 592,-165 640,-165 640,-184"/>
<text text-anchor="middle" x="616" y="-172" font-family="Helvetica,sans-Serif" font-size="10.00" fill="#000000">index.h</text>
</a>
</g>
</g>
<!-- Node52&#45;&gt;Node53 -->
<g id="edge116" class="edge">
<title>Node52&#45;&gt;Node53</title>
<path fill="none" stroke="#63b8ff" d="M683.9771,-275.5179C664.6486,-268.6597 641.6533,-257.211 628,-239 618.4986,-226.3269 615.7788,-208.3895 615.2766,-194.6467"/>
<polygon fill="#63b8ff" stroke="#63b8ff" points="618.7767,-194.2967 615.2761,-184.2969 611.7767,-194.2971 618.7767,-194.2967"/>
</g>
<!-- Node54 -->
<g id="node54" class="node">
<title>Node54</title>
<g id="a_node54"><a xlink:href="../../d1/d2a/section_8h.html" target="_top" xlink:title=" ">
<polygon fill="#ffffff" stroke="#666666" points="693,-239 637,-239 637,-220 693,-220 693,-239"/>
<text text-anchor="middle" x="665" y="-227" font-family="Helvetica,sans-Serif" font-size="10.00" fill="#000000">section.h</text>
</a>
</g>
</g>
<!-- Node52&#45;&gt;Node54 -->
<g id="edge118" class="edge">
<title>Node52&#45;&gt;Node54</title>
<path fill="none" stroke="#63b8ff" d="M708.7681,-274.9197C701.2609,-267.1293 690.479,-255.9405 681.4951,-246.6176"/>
<polygon fill="#63b8ff" stroke="#63b8ff" points="683.9422,-244.113 674.483,-239.3408 678.9017,-248.9703 683.9422,-244.113"/>
</g>
<!-- Node53&#45;&gt;Node20 -->
<g id="edge117" class="edge">
<title>Node53&#45;&gt;Node20</title>
<path fill="none" stroke="#63b8ff" d="M626.7996,-164.9197C635.7572,-156.9735 648.7004,-145.4916 659.3318,-136.0605"/>
<polygon fill="#63b8ff" stroke="#63b8ff" points="661.7486,-138.5953 666.9067,-129.3408 657.1033,-133.3587 661.7486,-138.5953"/>
</g>
<!-- Node54&#45;&gt;Node7 -->
<g id="edge119" class="edge">
<title>Node54&#45;&gt;Node7</title>
<path fill="none" stroke="#63b8ff" d="M636.8719,-222.0385C618.0039,-215.4082 594.5641,-203.6418 583,-184 553.9119,-134.5936 545.89,-98.703 583,-55 598.8321,-36.3551 760.1869,-18.9711 829.0847,-12.337"/>
<polygon fill="#63b8ff" stroke="#63b8ff" points="829.6877,-15.7956 839.3121,-11.366 829.026,-8.8269 829.6877,-15.7956"/>
</g>
<!-- Node54&#45;&gt;Node20 -->
<g id="edge121" class="edge">
<title>Node54&#45;&gt;Node20</title>
<path fill="none" stroke="#63b8ff" d="M666.1537,-219.7382C668.2887,-201.6724 672.893,-162.713 675.691,-139.0376"/>
<polygon fill="#63b8ff" stroke="#63b8ff" points="679.1696,-139.4245 676.8675,-129.0828 672.2179,-138.6029 679.1696,-139.4245"/>
</g>
<!-- Node54&#45;&gt;Node32 -->
<g id="edge120" class="edge">
<title>Node54&#45;&gt;Node32</title>
<path fill="none" stroke="#63b8ff" d="M671.0443,-219.839C680.6111,-205.4223 700.6748,-178.5298 725,-165 755.2852,-148.1552 846.5585,-133.7359 905.1858,-125.8713"/>
<polygon fill="#63b8ff" stroke="#63b8ff" points="905.9168,-129.3053 915.3726,-124.5265 905.0005,-122.3655 905.9168,-129.3053"/>
</g>
<!-- Node54&#45;&gt;Node40 -->
<g id="edge122" class="edge">
<title>Node54&#45;&gt;Node40</title>
<path fill="none" stroke="#63b8ff" d="M693.1272,-225.6325C761.5972,-216.2179 937.3906,-192.0463 1020.3679,-180.6369"/>
<polygon fill="#63b8ff" stroke="#63b8ff" points="1021.0597,-184.0748 1030.4897,-179.2452 1020.1061,-177.1401 1021.0597,-184.0748"/>
</g>
<!-- Node55&#45;&gt;Node7 -->
<g id="edge127" class="edge">
<title>Node55&#45;&gt;Node7</title>
<path fill="none" stroke="#63b8ff" d="M2051.8809,-164.9398C2021.8564,-150.4009 1961.4475,-123.0477 1907,-110 1706.0535,-61.8455 1042.1147,-20.2873 890.8567,-11.2978"/>
<polygon fill="#63b8ff" stroke="#63b8ff" points="891.0547,-7.8034 880.8655,-10.7071 890.6415,-14.7912 891.0547,-7.8034"/>
</g>
<!-- Node55&#45;&gt;Node8 -->
<g id="edge126" class="edge">
<title>Node55&#45;&gt;Node8</title>
<path fill="none" stroke="#63b8ff" d="M2046.1579,-172.6385C1937.4022,-164.4893 1502.9165,-131.9324 1373.5334,-122.2375"/>
<polygon fill="#63b8ff" stroke="#63b8ff" points="1373.5925,-118.7322 1363.3589,-121.4751 1373.0694,-125.7127 1373.5925,-118.7322"/>
</g>
<!-- Node55&#45;&gt;Node16 -->
<g id="edge128" class="edge">
<title>Node55&#45;&gt;Node16</title>
<path fill="none" stroke="#63b8ff" d="M2046.2869,-168.2762C2041.5544,-167.1423 2036.6316,-166.0022 2032,-165 1947.9972,-146.8234 1926.0028,-147.1766 1842,-129 1839.7864,-128.521 1837.5062,-128.0105 1835.2121,-127.4843"/>
<polygon fill="#63b8ff" stroke="#63b8ff" points="1835.7651,-124.0186 1825.2281,-125.1248 1834.1551,-130.831 1835.7651,-124.0186"/>
</g>
<!-- Node55&#45;&gt;Node51 -->
<g id="edge129" class="edge">
<title>Node55&#45;&gt;Node51</title>
<path fill="none" stroke="#63b8ff" d="M2046.4481,-167.6454C2011.3412,-157.844 1946.6994,-139.7968 1907.3069,-128.7989"/>
<polygon fill="#63b8ff" stroke="#63b8ff" points="1908.2026,-125.4152 1897.6297,-126.0971 1906.3202,-132.1573 1908.2026,-125.4152"/>
</g>
<!-- Node57 -->
<g id="node57" class="node">
<title>Node57</title>
<g id="a_node57"><a xlink:href="../../df/da1/definition_8h.html" target="_top" xlink:title=" ">
<polygon fill="#ffffff" stroke="#666666" points="1198,-294 1134,-294 1134,-275 1198,-275 1198,-294"/>
<text text-anchor="middle" x="1166" y="-282" font-family="Helvetica,sans-Serif" font-size="10.00" fill="#000000">definition.h</text>
</a>
</g>
</g>
<!-- Node56&#45;&gt;Node57 -->
<g id="edge131" class="edge">
<title>Node56&#45;&gt;Node57</title>
<path fill="none" stroke="#63b8ff" d="M1273.0495,-549.7126C1256.8652,-509.6166 1195.4603,-357.4872 1173.7013,-303.5797"/>
<polygon fill="#63b8ff" stroke="#63b8ff" points="1176.8918,-302.1332 1169.9032,-294.1701 1170.4006,-304.7533 1176.8918,-302.1332"/>
</g>
<!-- Node58 -->
<g id="node58" class="node">
<title>Node58</title>
<g id="a_node58"><a xlink:href="../../d4/d3a/filedef_8h.html" target="_top" xlink:title=" ">
<polygon fill="#ffffff" stroke="#666666" points="1544.5,-514 1493.5,-514 1493.5,-495 1544.5,-495 1544.5,-514"/>
<text text-anchor="middle" x="1519" y="-502" font-family="Helvetica,sans-Serif" font-size="10.00" fill="#000000">filedef.h</text>
</a>
</g>
</g>
<!-- Node56&#45;&gt;Node58 -->
<g id="edge135" class="edge">
<title>Node56&#45;&gt;Node58</title>
<path fill="none" stroke="#63b8ff" d="M1313.7546,-551.1467C1359.7554,-540.692 1438.0058,-522.9078 1483.4399,-512.5818"/>
<polygon fill="#63b8ff" stroke="#63b8ff" points="1484.4534,-515.9408 1493.4291,-510.3116 1482.902,-509.1149 1484.4534,-515.9408"/>
</g>
<!-- Node57&#45;&gt;Node16 -->
<g id="edge132" class="edge">
<title>Node57&#45;&gt;Node16</title>
<path fill="none" stroke="#63b8ff" d="M1198.024,-281.7811C1262.6376,-276.0318 1413.1008,-261.3097 1538,-239 1564.1859,-234.3226 1750.1671,-200.54 1771,-184 1785.1986,-172.7273 1793.5799,-153.5256 1798.1781,-138.997"/>
<polygon fill="#63b8ff" stroke="#63b8ff" points="1801.6498,-139.5808 1800.9907,-129.0065 1794.9117,-137.6838 1801.6498,-139.5808"/>
</g>
<!-- Node57&#45;&gt;Node19 -->
<g id="edge133" class="edge">
<title>Node57&#45;&gt;Node19</title>
<path fill="none" stroke="#63b8ff" d="M1133.7629,-280.1395C1119.4611,-278.3301 1102.4133,-276.3438 1087,-275 796.316,-249.6576 716.7618,-287.2698 425.7266,-238.9483"/>
<polygon fill="#63b8ff" stroke="#63b8ff" points="426.1692,-235.4736 415.7274,-237.2683 425.0093,-242.3769 426.1692,-235.4736"/>
</g>
<!-- Node57&#45;&gt;Node39 -->
<g id="edge134" class="edge">
<title>Node57&#45;&gt;Node39</title>
<path fill="none" stroke="#63b8ff" d="M1147.8846,-274.9197C1131.6545,-266.3365 1107.6241,-253.6281 1089.1063,-243.8351"/>
<polygon fill="#63b8ff" stroke="#63b8ff" points="1090.733,-240.7361 1080.2568,-239.155 1087.4605,-246.924 1090.733,-240.7361"/>
</g>
<!-- Node58&#45;&gt;Node29 -->
<g id="edge163" class="edge">
<title>Node58&#45;&gt;Node29</title>
<path fill="none" stroke="#63b8ff" d="M1544.8725,-496.9854C1601.4898,-479.4304 1738.084,-430.8919 1823,-349 1836.0934,-336.3729 1845.7293,-317.937 1851.7195,-304.0059"/>
<polygon fill="#63b8ff" stroke="#63b8ff" points="1855.0982,-304.9851 1855.5865,-294.4015 1848.6048,-302.3706 1855.0982,-304.9851"/>
</g>
<!-- Node58&#45;&gt;Node30 -->
<g id="edge136" class="edge">
<title>Node58&#45;&gt;Node30</title>
<path fill="none" stroke="#63b8ff" d="M1544.6115,-500.7185C1614.0656,-489.3328 1809.017,-449.7411 1932,-349 1966.8107,-320.4849 1993.7215,-274.0862 2006.9591,-248.2958"/>
<polygon fill="#63b8ff" stroke="#63b8ff" points="2010.1622,-249.7155 2011.4945,-239.2048 2003.8984,-246.5906 2010.1622,-249.7155"/>
</g>
<!-- Node58&#45;&gt;Node57 -->
<g id="edge137" class="edge">
<title>Node58&#45;&gt;Node57</title>
<path fill="none" stroke="#63b8ff" d="M1493.438,-495.6204C1451.2194,-480.3461 1365.117,-446.5926 1300,-404 1252.9226,-373.207 1205.6272,-326.4423 1181.8168,-301.5276"/>
<polygon fill="#63b8ff" stroke="#63b8ff" points="1184.3544,-299.117 1174.9414,-294.2542 1179.2674,-303.9256 1184.3544,-299.117"/>
</g>
<!-- Node59 -->
<g id="node59" class="node">
<title>Node59</title>
<g id="a_node59"><a xlink:href="../../dd/d78/memberlist_8h.html" target="_top" xlink:title=" ">
<polygon fill="#ffffff" stroke="#666666" points="1555.5,-459 1482.5,-459 1482.5,-440 1555.5,-440 1555.5,-459"/>
<text text-anchor="middle" x="1519" y="-447" font-family="Helvetica,sans-Serif" font-size="10.00" fill="#000000">memberlist.h</text>
</a>
</g>
</g>
<!-- Node58&#45;&gt;Node59 -->
<g id="edge138" class="edge">
<title>Node58&#45;&gt;Node59</title>
<path fill="none" stroke="#63b8ff" d="M1519,-494.9197C1519,-487.9083 1519,-478.1442 1519,-469.4652"/>
<polygon fill="#63b8ff" stroke="#63b8ff" points="1522.5001,-469.3408 1519,-459.3408 1515.5001,-469.3409 1522.5001,-469.3408"/>
</g>
<!-- Node59&#45;&gt;Node16 -->
<g id="edge139" class="edge">
<title>Node59&#45;&gt;Node16</title>
<path fill="none" stroke="#63b8ff" d="M1555.5725,-440.7559C1665.2442,-413.6787 1987.062,-327.6886 2040,-239 2044.3281,-231.749 2044.3573,-227.2334 2040,-220 2017.7556,-183.0727 1894.4482,-144.7284 1835.0286,-128.0732"/>
<polygon fill="#63b8ff" stroke="#63b8ff" points="1835.6236,-124.6064 1825.0524,-125.3128 1833.7568,-131.3529 1835.6236,-124.6064"/>
</g>
<!-- Node59&#45;&gt;Node19 -->
<g id="edge161" class="edge">
<title>Node59&#45;&gt;Node19</title>
<path fill="none" stroke="#63b8ff" d="M1482.4968,-445.2458C1328.8318,-427.0865 734.2904,-354.2444 556,-294 538.1113,-287.9554 535.3635,-282.4198 518,-275 487.1988,-261.838 451.1759,-249.1817 425.3786,-240.5739"/>
<polygon fill="#63b8ff" stroke="#63b8ff" points="426.2752,-237.184 415.682,-237.3683 424.078,-243.8303 426.2752,-237.184"/>
</g>
<!-- Node59&#45;&gt;Node21 -->
<g id="edge140" class="edge">
<title>Node59&#45;&gt;Node21</title>
<path fill="none" stroke="#63b8ff" d="M1555.7545,-443.2334C1680.0362,-421.194 2080.6416,-342.9353 2149,-239 2189.8034,-176.9606 2091.365,-108.5179 2041.6294,-79.172"/>
<polygon fill="#63b8ff" stroke="#63b8ff" points="2043.3633,-76.1317 2032.954,-74.1579 2039.8605,-82.1922 2043.3633,-76.1317"/>
</g>
<!-- Node59&#45;&gt;Node40 -->
<g id="edge160" class="edge">
<title>Node59&#45;&gt;Node40</title>
<path fill="none" stroke="#63b8ff" d="M1482.4766,-441.4418C1457.2113,-434.5542 1423.8073,-422.7259 1399,-404 1317.6251,-342.5738 1347.3449,-275.7792 1262,-220 1237.2599,-203.8305 1159.8245,-189.2456 1109.7256,-181.1572"/>
<polygon fill="#63b8ff" stroke="#63b8ff" points="1110.2117,-177.6906 1099.7866,-179.5796 1109.1142,-184.604 1110.2117,-177.6906"/>
</g>
<!-- Node60 -->
<g id="node60" class="node">
<title>Node60</title>
<g id="a_node60"><a xlink:href="../../d4/d46/memberdef_8h.html" target="_top" xlink:title=" ">
<polygon fill="#ffffff" stroke="#666666" points="1482,-404 1408,-404 1408,-385 1482,-385 1482,-404"/>
<text text-anchor="middle" x="1445" y="-392" font-family="Helvetica,sans-Serif" font-size="10.00" fill="#000000">memberdef.h</text>
</a>
</g>
</g>
<!-- Node59&#45;&gt;Node60 -->
<g id="edge141" class="edge">
<title>Node59&#45;&gt;Node60</title>
<path fill="none" stroke="#63b8ff" d="M1506.1102,-439.9197C1495.2092,-431.8177 1479.3628,-420.0399 1466.5382,-410.5082"/>
<polygon fill="#63b8ff" stroke="#63b8ff" points="1468.3542,-407.497 1458.2404,-404.3408 1464.1785,-413.1152 1468.3542,-407.497"/>
</g>
<!-- Node63 -->
<g id="node63" class="node">
<title>Node63</title>
<g id="a_node63"><a xlink:href="../../d9/d11/membergroup_8h.html" target="_top" xlink:title=" ">
<polygon fill="#ffffff" stroke="#666666" points="1577,-294 1493,-294 1493,-275 1577,-275 1577,-294"/>
<text text-anchor="middle" x="1535" y="-282" font-family="Helvetica,sans-Serif" font-size="10.00" fill="#000000">membergroup.h</text>
</a>
</g>
</g>
<!-- Node59&#45;&gt;Node63 -->
<g id="edge162" class="edge">
<title>Node59&#45;&gt;Node63</title>
<path fill="none" stroke="#63b8ff" d="M1526.549,-439.9596C1539.508,-422.9035 1565.5075,-385.5375 1575,-349 1577.1234,-340.8269 1577.9793,-337.9014 1575,-330 1570.8809,-319.076 1562.8137,-309.071 1554.9966,-301.2418"/>
<polygon fill="#63b8ff" stroke="#63b8ff" points="1557.1217,-298.4382 1547.4182,-294.1844 1552.3511,-303.5609 1557.1217,-298.4382"/>
</g>
<!-- Node60&#45;&gt;Node8 -->
<g id="edge143" class="edge">
<title>Node60&#45;&gt;Node8</title>
<path fill="none" stroke="#63b8ff" d="M1449.4944,-384.7758C1454.7646,-372.0552 1462.1641,-349.1341 1457,-330 1437.4353,-257.509 1408.7986,-249.4492 1372,-184 1363.3424,-168.6017 1353.7956,-150.962 1346.8626,-138.0261"/>
<polygon fill="#63b8ff" stroke="#63b8ff" points="1349.9281,-136.3364 1342.1284,-129.1659 1343.7542,-139.6353 1349.9281,-136.3364"/>
</g>
<!-- Node60&#45;&gt;Node16 -->
<g id="edge142" class="edge">
<title>Node60&#45;&gt;Node16</title>
<path fill="none" stroke="#63b8ff" d="M1479.9175,-384.9272C1506.6666,-376.9703 1544.1027,-364.4676 1575,-349 1666.9292,-302.9791 1678.4713,-272.2643 1767,-220 1797.1261,-202.2146 1818.777,-213.8634 1837,-184 1846.5907,-168.283 1834.3069,-149.6039 1821.9097,-136.4025"/>
<polygon fill="#63b8ff" stroke="#63b8ff" points="1824.3309,-133.8744 1814.7618,-129.3265 1819.4062,-138.8491 1824.3309,-133.8744"/>
</g>
<!-- Node60&#45;&gt;Node19 -->
<g id="edge145" class="edge">
<title>Node60&#45;&gt;Node19</title>
<path fill="none" stroke="#63b8ff" d="M1407.8722,-390.9097C1254.275,-375.9489 672.887,-318.218 594,-294 575.9491,-288.4585 573.6388,-281.7392 556,-275 502.0801,-254.3991 484.3467,-255.2583 425.6411,-239.3918"/>
<polygon fill="#63b8ff" stroke="#63b8ff" points="426.4261,-235.9777 415.8556,-236.6959 424.5668,-242.7263 426.4261,-235.9777"/>
</g>
<!-- Node60&#45;&gt;Node38 -->
<g id="edge147" class="edge">
<title>Node60&#45;&gt;Node38</title>
<path fill="none" stroke="#63b8ff" d="M1428.2126,-384.883C1412.9953,-376.001 1390.0951,-362.2212 1371,-349 1321.075,-314.4326 1265.4775,-269.6134 1236.6876,-245.8969"/>
<polygon fill="#63b8ff" stroke="#63b8ff" points="1238.5861,-242.925 1228.6495,-239.2488 1234.1247,-248.3192 1238.5861,-242.925"/>
</g>
<!-- Node60&#45;&gt;Node57 -->
<g id="edge146" class="edge">
<title>Node60&#45;&gt;Node57</title>
<path fill="none" stroke="#63b8ff" d="M1420.7286,-384.9306C1370.952,-365.3055 1257.1989,-320.4565 1200.0664,-297.9312"/>
<polygon fill="#63b8ff" stroke="#63b8ff" points="1201.0007,-294.5374 1190.4139,-294.1256 1198.4332,-301.0496 1201.0007,-294.5374"/>
</g>
<!-- Node61 -->
<g id="node61" class="node">
<title>Node61</title>
<g id="a_node61"><a xlink:title=" ">
<polygon fill="#e0e0e0" stroke="#999999" points="1448,-349 1380,-349 1380,-330 1448,-330 1448,-349"/>
<text text-anchor="middle" x="1414" y="-337" font-family="Helvetica,sans-Serif" font-size="10.00" fill="#000000">sys/types.h</text>
</a>
</g>
</g>
<!-- Node60&#45;&gt;Node61 -->
<g id="edge144" class="edge">
<title>Node60&#45;&gt;Node61</title>
<path fill="none" stroke="#63b8ff" d="M1439.6002,-384.9197C1435.4727,-377.5967 1429.6527,-367.2709 1424.6047,-358.3147"/>
<polygon fill="#63b8ff" stroke="#63b8ff" points="1427.5059,-356.3338 1419.5466,-349.3408 1421.4078,-359.7709 1427.5059,-356.3338"/>
</g>
<!-- Node62 -->
<g id="node62" class="node">
<title>Node62</title>
<g id="a_node62"><a xlink:href="../../d1/da6/classdef_8h.html" target="_top" xlink:title=" ">
<polygon fill="#ffffff" stroke="#666666" points="1566,-349 1504,-349 1504,-330 1566,-330 1566,-349"/>
<text text-anchor="middle" x="1535" y="-337" font-family="Helvetica,sans-Serif" font-size="10.00" fill="#000000">classdef.h</text>
</a>
</g>
</g>
<!-- Node60&#45;&gt;Node62 -->
<g id="edge148" class="edge">
<title>Node60&#45;&gt;Node62</title>
<path fill="none" stroke="#63b8ff" d="M1460.6768,-384.9197C1474.4014,-376.5325 1494.5715,-364.2063 1510.4377,-354.5103"/>
<polygon fill="#63b8ff" stroke="#63b8ff" points="1512.4931,-357.3561 1519.2009,-349.155 1508.8429,-351.3831 1512.4931,-357.3561"/>
</g>
<!-- Node62&#45;&gt;Node16 -->
<g id="edge149" class="edge">
<title>Node62&#45;&gt;Node16</title>
<path fill="none" stroke="#63b8ff" d="M1549.4589,-329.701C1581.5642,-308.1856 1661.6081,-255.8763 1733,-220 1770.7578,-201.0257 1797.4462,-219.0842 1821,-184 1830.3718,-170.0403 1823.4097,-151.2677 1815.578,-137.5756"/>
<polygon fill="#63b8ff" stroke="#63b8ff" points="1818.4917,-135.634 1810.2072,-129.0296 1812.565,-139.3588 1818.4917,-135.634"/>
</g>
<!-- Node62&#45;&gt;Node29 -->
<g id="edge151" class="edge">
<title>Node62&#45;&gt;Node29</title>
<path fill="none" stroke="#63b8ff" d="M1566.0665,-334.2264C1623.4982,-324.4772 1746.5055,-303.5963 1813.4011,-292.2406"/>
<polygon fill="#63b8ff" stroke="#63b8ff" points="1814.3638,-295.6273 1823.637,-290.503 1813.1922,-288.726 1814.3638,-295.6273"/>
</g>
<!-- Node62&#45;&gt;Node30 -->
<g id="edge150" class="edge">
<title>Node62&#45;&gt;Node30</title>
<path fill="none" stroke="#63b8ff" d="M1566.103,-337.237C1643.0372,-331.3869 1840.5352,-314.7587 1903,-294 1937.478,-282.5421 1973.2375,-260.0212 1995.0585,-244.8616"/>
<polygon fill="#63b8ff" stroke="#63b8ff" points="1997.1073,-247.6994 2003.2443,-239.063 1993.061,-241.9874 1997.1073,-247.6994"/>
</g>
<!-- Node62&#45;&gt;Node38 -->
<g id="edge153" class="edge">
<title>Node62&#45;&gt;Node38</title>
<path fill="none" stroke="#63b8ff" d="M1507.3359,-329.9306C1450.2488,-310.1836 1319.3337,-264.8984 1254.6225,-242.5141"/>
<polygon fill="#63b8ff" stroke="#63b8ff" points="1255.4214,-239.087 1244.8266,-239.1256 1253.133,-245.7024 1255.4214,-239.087"/>
</g>
<!-- Node62&#45;&gt;Node57 -->
<g id="edge152" class="edge">
<title>Node62&#45;&gt;Node57</title>
<path fill="none" stroke="#63b8ff" d="M1503.8573,-334.8581C1437.7275,-325.0014 1283.2209,-301.9719 1208.2704,-290.8005"/>
<polygon fill="#63b8ff" stroke="#63b8ff" points="1208.6467,-287.318 1198.24,-289.3054 1207.6147,-294.2415 1208.6467,-287.318"/>
</g>
<!-- Node62&#45;&gt;Node63 -->
<g id="edge154" class="edge">
<title>Node62&#45;&gt;Node63</title>
<path fill="none" stroke="#63b8ff" d="M1535,-329.9197C1535,-322.9083 1535,-313.1442 1535,-304.4652"/>
<polygon fill="#63b8ff" stroke="#63b8ff" points="1538.5001,-304.3408 1535,-294.3408 1531.5001,-304.3409 1538.5001,-304.3408"/>
</g>
<!-- Node63&#45;&gt;Node8 -->
<g id="edge157" class="edge">
<title>Node63&#45;&gt;Node8</title>
<path fill="none" stroke="#63b8ff" d="M1513.4613,-274.9286C1496.0395,-266.6754 1471.3167,-253.7769 1452,-239 1411.0862,-207.7018 1371.1924,-161.786 1350.8751,-136.9697"/>
<polygon fill="#63b8ff" stroke="#63b8ff" points="1353.545,-134.7051 1344.5354,-129.1303 1348.1021,-139.1068 1353.545,-134.7051"/>
</g>
<!-- Node63&#45;&gt;Node16 -->
<g id="edge155" class="edge">
<title>Node63&#45;&gt;Node16</title>
<path fill="none" stroke="#63b8ff" d="M1557.3464,-274.9624C1588.1156,-261.9516 1645.3631,-238.1806 1695,-220 1742.906,-202.4534 1774.1121,-225.347 1804,-184 1813.2149,-171.2521 1812.0174,-153.0771 1809.0591,-139.2674"/>
<polygon fill="#63b8ff" stroke="#63b8ff" points="1812.3758,-138.1143 1806.4744,-129.3152 1805.6006,-139.8739 1812.3758,-138.1143"/>
</g>
<!-- Node63&#45;&gt;Node18 -->
<g id="edge156" class="edge">
<title>Node63&#45;&gt;Node18</title>
<path fill="none" stroke="#63b8ff" d="M1577.0264,-275.5409C1630.1669,-264.2125 1720.1651,-245.0268 1765.3613,-235.392"/>
<polygon fill="#63b8ff" stroke="#63b8ff" points="1766.2749,-238.7759 1775.3253,-233.2679 1764.8154,-231.9298 1766.2749,-238.7759"/>
</g>
<!-- Node63&#45;&gt;Node19 -->
<g id="edge158" class="edge">
<title>Node63&#45;&gt;Node19</title>
<path fill="none" stroke="#63b8ff" d="M1492.7573,-283.0533C1303.4072,-276.5336 537.5151,-249.78 425.6682,-238.5338"/>
<polygon fill="#63b8ff" stroke="#63b8ff" points="426.0752,-235.0575 415.7214,-237.3046 425.2167,-242.0047 426.0752,-235.0575"/>
</g>
<!-- Node63&#45;&gt;Node39 -->
<g id="edge159" class="edge">
<title>Node63&#45;&gt;Node39</title>
<path fill="none" stroke="#63b8ff" d="M1492.6081,-279.5707C1400.1901,-268.8244 1182.0454,-243.4588 1096.9011,-233.5583"/>
<polygon fill="#63b8ff" stroke="#63b8ff" points="1097.0638,-230.0537 1086.7264,-232.3752 1096.2552,-237.0068 1097.0638,-230.0537"/>
</g>
<!-- Node64&#45;&gt;Node6 -->
<g id="edge165" class="edge">
<title>Node64&#45;&gt;Node6</title>
<path fill="none" stroke="#63b8ff" d="M827.3832,-659.9986C802.7572,-651.5051 766.4852,-638.2322 736,-624 703.55,-608.8505 667.8133,-588.1289 644.9259,-574.3034"/>
<polygon fill="#63b8ff" stroke="#63b8ff" points="646.6011,-571.2257 636.2396,-569.0141 642.9605,-577.2045 646.6011,-571.2257"/>
</g>
<!-- Node65&#45;&gt;Node2 -->
<g id="edge167" class="edge">
<title>Node65&#45;&gt;Node2</title>
<path fill="none" stroke="#63b8ff" d="M500.2744,-666.2546C525.0016,-664.3139 557.3233,-661.8701 586,-660 876.4896,-641.0558 949.6218,-644.5822 1240,-624 1381.0641,-614.0013 1736.1683,-600.6463 1874,-569 2080.3588,-521.6198 2140.3264,-466.5689 2263,-294 2286.4614,-260.9962 2306.5635,-217.9324 2317.1078,-193.5408"/>
<polygon fill="#63b8ff" stroke="#63b8ff" points="2320.3386,-194.8869 2321.0236,-184.3142 2313.8949,-192.1521 2320.3386,-194.8869"/>
</g>
<!-- Node65&#45;&gt;Node6 -->
<g id="edge169" class="edge">
<title>Node65&#45;&gt;Node6</title>
<path fill="none" stroke="#63b8ff" d="M465.8684,-659.9605C474.7645,-646.183 492.8822,-620.655 514,-605 534.0188,-590.1597 559.6123,-579.0515 580.7488,-571.527"/>
<polygon fill="#63b8ff" stroke="#63b8ff" points="582.0863,-574.7686 590.4158,-568.2211 579.8212,-568.1452 582.0863,-574.7686"/>
</g>
<!-- Node65&#45;&gt;Node7 -->
<g id="edge168" class="edge">
<title>Node65&#45;&gt;Node7</title>
<path fill="none" stroke="#63b8ff" d="M419.9827,-668.4442C308.0676,-664.4153 0,-645.5131 0,-559.5 0,-559.5 0,-559.5 0,-119.5 0,-58.9507 61.7638,-71.5761 120,-55 188.9362,-35.3783 698.1115,-15.4566 829.2606,-10.611"/>
<polygon fill="#63b8ff" stroke="#63b8ff" points="829.5422,-14.1031 839.407,-10.2384 829.2852,-7.1078 829.5422,-14.1031"/>
</g>
<!-- Node65&#45;&gt;Node12 -->
<g id="edge170" class="edge">
<title>Node65&#45;&gt;Node12</title>
<path fill="none" stroke="#63b8ff" d="M481.2508,-659.9197C500.6376,-651.1798 529.5122,-638.1625 551.386,-628.3014"/>
<polygon fill="#63b8ff" stroke="#63b8ff" points="552.9054,-631.4557 560.5834,-624.155 550.0285,-625.0742 552.9054,-631.4557"/>
</g>
<!-- Node66&#45;&gt;Node2 -->
<g id="edge173" class="edge">
<title>Node66&#45;&gt;Node2</title>
<path fill="none" stroke="#63b8ff" d="M1971.6674,-769.8509C1985.5044,-756.3916 2012.1494,-731.7523 2038,-715 2071.5943,-693.2294 2363,-599.5317 2363,-559.5 2363,-559.5 2363,-559.5 2363,-284.5 2363,-250.8364 2346.9038,-214.3974 2335.6633,-193.0549"/>
<polygon fill="#63b8ff" stroke="#63b8ff" points="2338.6444,-191.2117 2330.7714,-184.1218 2332.5047,-194.5739 2338.6444,-191.2117"/>
</g>
<!-- Node66&#45;&gt;Node3 -->
<g id="edge174" class="edge">
<title>Node66&#45;&gt;Node3</title>
<path fill="none" stroke="#63b8ff" d="M1977.2816,-769.8922C1999.4596,-756.2597 2042.167,-731.1666 2081,-715 2136.6612,-691.8277 2307.8239,-643.8952 2381.1193,-623.7437"/>
<polygon fill="#63b8ff" stroke="#63b8ff" points="2382.0726,-627.1116 2390.7899,-621.0901 2380.2202,-620.3611 2382.0726,-627.1116"/>
</g>
<!-- Node66&#45;&gt;Node5 -->
<g id="edge176" class="edge">
<title>Node66&#45;&gt;Node5</title>
<path fill="none" stroke="#63b8ff" d="M1928.1702,-771.2867C1925.4169,-770.7898 1922.6684,-770.3502 1920,-770 1695.1899,-740.496 977.929,-728.0086 787.0417,-725.1584"/>
<polygon fill="#63b8ff" stroke="#63b8ff" points="786.8372,-721.6551 776.7866,-725.007 786.7338,-728.6543 786.8372,-721.6551"/>
</g>
<!-- Node67 -->
<g id="node67" class="node">
<title>Node67</title>
<g id="a_node67"><a xlink:title=" ">
<polygon fill="#e0e0e0" stroke="#999999" points="1956.5,-734 1907.5,-734 1907.5,-715 1956.5,-715 1956.5,-734"/>
<text text-anchor="middle" x="1932" y="-722" font-family="Helvetica,sans-Serif" font-size="10.00" fill="#000000">string.h</text>
</a>
</g>
</g>
<!-- Node66&#45;&gt;Node67 -->
<g id="edge175" class="edge">
<title>Node66&#45;&gt;Node67</title>
<path fill="none" stroke="#63b8ff" d="M1956.7744,-769.9197C1952.78,-762.5967 1947.1478,-752.2709 1942.2626,-743.3147"/>
<polygon fill="#63b8ff" stroke="#63b8ff" points="1945.2289,-741.4438 1937.3677,-734.3408 1939.0837,-744.7958 1945.2289,-741.4438"/>
</g>
<!-- Node68&#45;&gt;Node20 -->
<g id="edge179" class="edge">
<title>Node68&#45;&gt;Node20</title>
<path fill="none" stroke="#63b8ff" d="M2037.8167,-769.9351C2024.4932,-755.127 1996.5158,-727.0998 1966,-715 1842.9346,-666.2032 891.9991,-691.3085 778,-624 593.0888,-514.8228 650.758,-384.7256 513,-220 498.0754,-202.1537 484.1925,-205.3713 475,-184 471.6633,-176.2427 469.7221,-171.5918 475,-165 495.052,-139.956 585.0366,-127.759 638.2347,-122.6392"/>
<polygon fill="#63b8ff" stroke="#63b8ff" points="638.7152,-126.1099 648.3522,-121.7079 638.0735,-119.1394 638.7152,-126.1099"/>
</g>
<!-- Node69 -->
<g id="node69" class="node">
<title>Node69</title>
<g id="a_node69"><a xlink:title=" ">
<polygon fill="#e0e0e0" stroke="#999999" points="2138.5,-734 2089.5,-734 2089.5,-715 2138.5,-715 2138.5,-734"/>
<text text-anchor="middle" x="2114" y="-722" font-family="Helvetica,sans-Serif" font-size="10.00" fill="#000000">cstdarg</text>
</a>
</g>
</g>
<!-- Node68&#45;&gt;Node69 -->
<g id="edge178" class="edge">
<title>Node68&#45;&gt;Node69</title>
<path fill="none" stroke="#63b8ff" d="M2057.8447,-769.9197C2067.7655,-761.8956 2082.1438,-750.2661 2093.8674,-740.7837"/>
<polygon fill="#63b8ff" stroke="#63b8ff" points="2096.2591,-743.3509 2101.8332,-734.3408 2091.857,-737.9083 2096.2591,-743.3509"/>
</g>
</g>
</svg>
