<?xml version="1.0" encoding="UTF-8" standalone="no"?>
<!DOCTYPE svg PUBLIC "-//W3C//DTD SVG 1.1//EN"
 "http://www.w3.org/Graphics/SVG/1.1/DTD/svg11.dtd">
<!-- Generated by graphviz version 2.40.1 (20161225.0304)
 -->
<!-- Title: vhdlparser/VhdlParserErrorHandler.hpp Pages: 1 -->
<svg width="2691pt" height="863pt"
 viewBox="0.00 0.00 2691.00 863.00" xmlns="http://www.w3.org/2000/svg" xmlns:xlink="http://www.w3.org/1999/xlink">
<g id="graph0" class="graph" transform="scale(1 1) rotate(0) translate(4 859)">
<title>vhdlparser/VhdlParserErrorHandler.hpp</title>
<!-- Node1 -->
<g id="node1" class="node">
<title>Node1</title>
<g id="a_node1"><a xlink:title=" ">
<polygon fill="#999999" stroke="#666666" points="422,-855 288,-855 288,-825 422,-825 422,-855"/>
<text text-anchor="start" x="296" y="-843" font-family="Helvetica,sans-Serif" font-size="10.00" fill="#000000">vhdlparser/VhdlParserError</text>
<text text-anchor="middle" x="355" y="-832" font-family="Helvetica,sans-Serif" font-size="10.00" fill="#000000">Handler.hpp</text>
</a>
</g>
</g>
<!-- Node2 -->
<g id="node2" class="node">
<title>Node2</title>
<g id="a_node2"><a xlink:title=" ">
<polygon fill="#e0e0e0" stroke="#999999" points="397,-184 351,-184 351,-165 397,-165 397,-184"/>
<text text-anchor="middle" x="374" y="-172" font-family="Helvetica,sans-Serif" font-size="10.00" fill="#000000">stdio.h</text>
</a>
</g>
</g>
<!-- Node1&#45;&gt;Node2 -->
<g id="edge1" class="edge">
<title>Node1&#45;&gt;Node2</title>
<path fill="none" stroke="#63b8ff" d="M287.8099,-832.0525C184.8917,-817.981 0,-784.37 0,-724.5 0,-724.5 0,-724.5 0,-394.5 0,-289.2781 66.4617,-268.1896 160,-220 218.9561,-189.6267 297.0404,-179.5194 340.7349,-176.1626"/>
<polygon fill="#63b8ff" stroke="#63b8ff" points="341.0783,-179.6473 350.8116,-175.4624 340.593,-172.6641 341.0783,-179.6473"/>
</g>
<!-- Node3 -->
<g id="node3" class="node">
<title>Node3</title>
<g id="a_node3"><a xlink:title=" ">
<polygon fill="#e0e0e0" stroke="#999999" points="86,-624 38,-624 38,-605 86,-605 86,-624"/>
<text text-anchor="middle" x="62" y="-612" font-family="Helvetica,sans-Serif" font-size="10.00" fill="#000000">stdlib.h</text>
</a>
</g>
</g>
<!-- Node1&#45;&gt;Node3 -->
<g id="edge2" class="edge">
<title>Node1&#45;&gt;Node3</title>
<path fill="none" stroke="#63b8ff" d="M287.8492,-832.0857C225.5039,-821.0645 134.8788,-795.0115 84,-734 60.3446,-705.6336 58.756,-660.1695 60.1148,-634.2648"/>
<polygon fill="#63b8ff" stroke="#63b8ff" points="63.6144,-634.3959 60.8497,-624.1682 56.6329,-633.8877 63.6144,-634.3959"/>
</g>
<!-- Node4 -->
<g id="node4" class="node">
<title>Node4</title>
<g id="a_node4"><a xlink:title=" ">
<polygon fill="#e0e0e0" stroke="#999999" points="590.5,-789 531.5,-789 531.5,-770 590.5,-770 590.5,-789"/>
<text text-anchor="middle" x="561" y="-777" font-family="Helvetica,sans-Serif" font-size="10.00" fill="#000000">exception</text>
</a>
</g>
</g>
<!-- Node1&#45;&gt;Node4 -->
<g id="edge3" class="edge">
<title>Node1&#45;&gt;Node4</title>
<path fill="none" stroke="#63b8ff" d="M406.186,-824.9672C441.9301,-814.4696 488.931,-800.6659 521.7294,-791.0334"/>
<polygon fill="#63b8ff" stroke="#63b8ff" points="522.8155,-794.3623 531.424,-788.1862 520.843,-787.6459 522.8155,-794.3623"/>
</g>
<!-- Node5 -->
<g id="node5" class="node">
<title>Node5</title>
<g id="a_node5"><a xlink:href="../../d5/df9/_vhdl_parser_8h.html" target="_top" xlink:title=" ">
<polygon fill="#ffffff" stroke="#666666" points="391.5,-734 318.5,-734 318.5,-715 391.5,-715 391.5,-734"/>
<text text-anchor="middle" x="355" y="-722" font-family="Helvetica,sans-Serif" font-size="10.00" fill="#000000">VhdlParser.h</text>
</a>
</g>
</g>
<!-- Node1&#45;&gt;Node5 -->
<g id="edge4" class="edge">
<title>Node1&#45;&gt;Node5</title>
<path fill="none" stroke="#63b8ff" d="M355,-824.9004C355,-804.2903 355,-767.3051 355,-744.4365"/>
<polygon fill="#63b8ff" stroke="#63b8ff" points="358.5001,-744.2014 355,-734.2014 351.5001,-744.2014 358.5001,-744.2014"/>
</g>
<!-- Node66 -->
<g id="node66" class="node">
<title>Node66</title>
<g id="a_node66"><a xlink:href="../../d3/dd5/_error_handler_8h.html" target="_top" xlink:title=" ">
<polygon fill="#ffffff" stroke="#666666" points="637,-679 557,-679 557,-660 637,-660 637,-679"/>
<text text-anchor="middle" x="597" y="-667" font-family="Helvetica,sans-Serif" font-size="10.00" fill="#000000">ErrorHandler.h</text>
</a>
</g>
</g>
<!-- Node1&#45;&gt;Node66 -->
<g id="edge172" class="edge">
<title>Node1&#45;&gt;Node66</title>
<path fill="none" stroke="#63b8ff" d="M362.0615,-824.8369C375.0881,-798.5215 405.4163,-744.4 447,-715 476.5465,-694.1104 515.8675,-682.646 546.8377,-676.4515"/>
<polygon fill="#63b8ff" stroke="#63b8ff" points="547.8109,-679.8301 556.9944,-674.5468 546.5206,-672.95 547.8109,-679.8301"/>
</g>
<!-- Node67 -->
<g id="node67" class="node">
<title>Node67</title>
<g id="a_node67"><a xlink:href="../../d9/d48/vhdlstring_8h.html" target="_top" xlink:title=" ">
<polygon fill="#ffffff" stroke="#666666" points="254.5,-789 187.5,-789 187.5,-770 254.5,-770 254.5,-789"/>
<text text-anchor="middle" x="221" y="-777" font-family="Helvetica,sans-Serif" font-size="10.00" fill="#000000">vhdlstring.h</text>
</a>
</g>
</g>
<!-- Node1&#45;&gt;Node67 -->
<g id="edge173" class="edge">
<title>Node1&#45;&gt;Node67</title>
<path fill="none" stroke="#63b8ff" d="M321.5318,-824.8894C300.1171,-815.2208 272.5447,-802.7721 251.6936,-793.3579"/>
<polygon fill="#63b8ff" stroke="#63b8ff" points="252.8982,-790.0616 242.3438,-789.1366 250.0177,-796.4415 252.8982,-790.0616"/>
</g>
<!-- Node69 -->
<g id="node69" class="node">
<title>Node69</title>
<g id="a_node69"><a xlink:href="../../d2/d0d/message_8h.html" target="_top" xlink:title=" ">
<polygon fill="#ffffff" stroke="#666666" points="513.5,-789 448.5,-789 448.5,-770 513.5,-770 513.5,-789"/>
<text text-anchor="middle" x="481" y="-777" font-family="Helvetica,sans-Serif" font-size="10.00" fill="#000000">message.h</text>
</a>
</g>
</g>
<!-- Node1&#45;&gt;Node69 -->
<g id="edge178" class="edge">
<title>Node1&#45;&gt;Node69</title>
<path fill="none" stroke="#63b8ff" d="M386.4701,-824.8894C406.5152,-815.2645 432.2981,-802.8847 451.8724,-793.4859"/>
<polygon fill="#63b8ff" stroke="#63b8ff" points="453.4308,-796.6202 460.9305,-789.1366 450.4008,-790.31 453.4308,-796.6202"/>
</g>
<!-- Node6 -->
<g id="node6" class="node">
<title>Node6</title>
<g id="a_node6"><a xlink:href="../../d1/d2f/_java_c_c_8h.html" target="_top" xlink:title=" ">
<polygon fill="#ffffff" stroke="#666666" points="394.5,-569 333.5,-569 333.5,-550 394.5,-550 394.5,-569"/>
<text text-anchor="middle" x="364" y="-557" font-family="Helvetica,sans-Serif" font-size="10.00" fill="#000000">JavaCC.h</text>
</a>
</g>
</g>
<!-- Node5&#45;&gt;Node6 -->
<g id="edge5" class="edge">
<title>Node5&#45;&gt;Node6</title>
<path fill="none" stroke="#63b8ff" d="M339.2268,-714.7158C327.9022,-706.6877 313.5311,-694.19 307,-679 303.6645,-671.2422 304.8457,-668.165 307,-660 315.3493,-628.3549 336.2097,-596.2235 350.2419,-577.0803"/>
<polygon fill="#63b8ff" stroke="#63b8ff" points="353.0957,-579.1088 356.3181,-569.0158 347.505,-574.8963 353.0957,-579.1088"/>
</g>
<!-- Node11 -->
<g id="node11" class="node">
<title>Node11</title>
<g id="a_node11"><a xlink:href="../../df/ddf/_char_stream_8h.html" target="_top" xlink:title=" ">
<polygon fill="#ffffff" stroke="#666666" points="393.5,-679 316.5,-679 316.5,-660 393.5,-660 393.5,-679"/>
<text text-anchor="middle" x="355" y="-667" font-family="Helvetica,sans-Serif" font-size="10.00" fill="#000000">CharStream.h</text>
</a>
</g>
</g>
<!-- Node5&#45;&gt;Node11 -->
<g id="edge10" class="edge">
<title>Node5&#45;&gt;Node11</title>
<path fill="none" stroke="#63b8ff" d="M355,-714.9197C355,-707.9083 355,-698.1442 355,-689.4652"/>
<polygon fill="#63b8ff" stroke="#63b8ff" points="358.5001,-689.3408 355,-679.3408 351.5001,-689.3409 358.5001,-689.3408"/>
</g>
<!-- Node12 -->
<g id="node12" class="node">
<title>Node12</title>
<g id="a_node12"><a xlink:href="../../dd/dcd/_token_8h.html" target="_top" xlink:title=" ">
<polygon fill="#ffffff" stroke="#666666" points="482,-624 430,-624 430,-605 482,-605 482,-624"/>
<text text-anchor="middle" x="456" y="-612" font-family="Helvetica,sans-Serif" font-size="10.00" fill="#000000">Token.h</text>
</a>
</g>
</g>
<!-- Node5&#45;&gt;Node12 -->
<g id="edge12" class="edge">
<title>Node5&#45;&gt;Node12</title>
<path fill="none" stroke="#63b8ff" d="M391.5429,-716.1201C434.7727,-705.8413 501.824,-688.6028 509,-679 522.0158,-661.5825 501.5745,-642.4281 482.4198,-629.5542"/>
<polygon fill="#63b8ff" stroke="#63b8ff" points="484.1539,-626.5095 473.8343,-624.1099 480.4051,-632.4211 484.1539,-626.5095"/>
</g>
<!-- Node13 -->
<g id="node13" class="node">
<title>Node13</title>
<g id="a_node13"><a xlink:href="../../d4/df9/_token_manager_8h.html" target="_top" xlink:title=" ">
<polygon fill="#ffffff" stroke="#666666" points="500.5,-679 411.5,-679 411.5,-660 500.5,-660 500.5,-679"/>
<text text-anchor="middle" x="456" y="-667" font-family="Helvetica,sans-Serif" font-size="10.00" fill="#000000">TokenManager.h</text>
</a>
</g>
</g>
<!-- Node5&#45;&gt;Node13 -->
<g id="edge14" class="edge">
<title>Node5&#45;&gt;Node13</title>
<path fill="none" stroke="#63b8ff" d="M372.5929,-714.9197C388.2828,-706.3757 411.479,-693.7441 429.4289,-683.9694"/>
<polygon fill="#63b8ff" stroke="#63b8ff" points="431.1614,-687.0113 438.2699,-679.155 427.8137,-680.8637 431.1614,-687.0113"/>
</g>
<!-- Node15 -->
<g id="node15" class="node">
<title>Node15</title>
<g id="a_node15"><a xlink:href="../../d2/d55/vhdljjparser_8h.html" target="_top" xlink:title=" ">
<polygon fill="#ffffff" stroke="#666666" points="1390,-679 1316,-679 1316,-660 1390,-660 1390,-679"/>
<text text-anchor="middle" x="1353" y="-667" font-family="Helvetica,sans-Serif" font-size="10.00" fill="#000000">vhdljjparser.h</text>
</a>
</g>
</g>
<!-- Node5&#45;&gt;Node15 -->
<g id="edge18" class="edge">
<title>Node5&#45;&gt;Node15</title>
<path fill="none" stroke="#63b8ff" d="M391.67,-720.2657C408.5083,-718.4366 428.7484,-716.3997 447,-715 774.9457,-689.8508 1170.7832,-675.4535 1305.4842,-671.0028"/>
<polygon fill="#63b8ff" stroke="#63b8ff" points="1305.9668,-674.4889 1315.8467,-670.6631 1305.7374,-667.4927 1305.9668,-674.4889"/>
</g>
<!-- Node65 -->
<g id="node65" class="node">
<title>Node65</title>
<g id="a_node65"><a xlink:href="../../dc/d21/_vhdl_parser_constants_8h.html" target="_top" xlink:title=" ">
<polygon fill="#ffffff" stroke="#666666" points="260,-679 142,-679 142,-660 260,-660 260,-679"/>
<text text-anchor="middle" x="201" y="-667" font-family="Helvetica,sans-Serif" font-size="10.00" fill="#000000">VhdlParserConstants.h</text>
</a>
</g>
</g>
<!-- Node5&#45;&gt;Node65 -->
<g id="edge165" class="edge">
<title>Node5&#45;&gt;Node65</title>
<path fill="none" stroke="#63b8ff" d="M328.1752,-714.9197C303.0779,-705.9564 265.3842,-692.4944 237.5446,-682.5516"/>
<polygon fill="#63b8ff" stroke="#63b8ff" points="238.3699,-679.1299 227.7753,-679.0626 236.0155,-685.7221 238.3699,-679.1299"/>
</g>
<!-- Node5&#45;&gt;Node66 -->
<g id="edge167" class="edge">
<title>Node5&#45;&gt;Node66</title>
<path fill="none" stroke="#63b8ff" d="M391.7546,-716.1467C433.1449,-706.7398 500.6441,-691.3991 546.8552,-680.8965"/>
<polygon fill="#63b8ff" stroke="#63b8ff" points="547.6893,-684.2963 556.6649,-678.6671 546.1379,-677.4704 547.6893,-684.2963"/>
</g>
<!-- Node7 -->
<g id="node7" class="node">
<title>Node7</title>
<g id="a_node7"><a xlink:title=" ">
<polygon fill="#e0e0e0" stroke="#999999" points="1332.5,-19 1291.5,-19 1291.5,0 1332.5,0 1332.5,-19"/>
<text text-anchor="middle" x="1312" y="-7" font-family="Helvetica,sans-Serif" font-size="10.00" fill="#000000">string</text>
</a>
</g>
</g>
<!-- Node6&#45;&gt;Node7 -->
<g id="edge6" class="edge">
<title>Node6&#45;&gt;Node7</title>
<path fill="none" stroke="#63b8ff" d="M333.3307,-555.8245C252.1775,-545.2502 38,-511.4723 38,-449.5 38,-449.5 38,-449.5 38,-119.5 38,-55.0199 1087.5465,-16.9697 1281.4078,-10.4915"/>
<polygon fill="#63b8ff" stroke="#63b8ff" points="1281.5939,-13.9873 1291.4725,-10.1579 1281.362,-6.9912 1281.5939,-13.9873"/>
</g>
<!-- Node8 -->
<g id="node8" class="node">
<title>Node8</title>
<g id="a_node8"><a xlink:title=" ">
<polygon fill="#e0e0e0" stroke="#999999" points="874,-129 822,-129 822,-110 874,-110 874,-129"/>
<text text-anchor="middle" x="848" y="-117" font-family="Helvetica,sans-Serif" font-size="10.00" fill="#000000">memory</text>
</a>
</g>
</g>
<!-- Node6&#45;&gt;Node8 -->
<g id="edge7" class="edge">
<title>Node6&#45;&gt;Node8</title>
<path fill="none" stroke="#63b8ff" d="M373.8007,-549.8933C391.044,-531.9124 425,-491.2088 425,-449.5 425,-449.5 425,-449.5 425,-229.5 425,-166.9844 490.5399,-184.3053 550,-165 556.2027,-162.9861 733.4894,-136.512 811.6179,-124.8984"/>
<polygon fill="#63b8ff" stroke="#63b8ff" points="812.5789,-128.2941 821.956,-123.3624 811.5501,-121.3701 812.5789,-128.2941"/>
</g>
<!-- Node9 -->
<g id="node9" class="node">
<title>Node9</title>
<g id="a_node9"><a xlink:title=" ">
<polygon fill="#e0e0e0" stroke="#999999" points="388.5,-514 339.5,-514 339.5,-495 388.5,-495 388.5,-514"/>
<text text-anchor="middle" x="364" y="-502" font-family="Helvetica,sans-Serif" font-size="10.00" fill="#000000">cassert</text>
</a>
</g>
</g>
<!-- Node6&#45;&gt;Node9 -->
<g id="edge8" class="edge">
<title>Node6&#45;&gt;Node9</title>
<path fill="none" stroke="#63b8ff" d="M364,-549.9197C364,-542.9083 364,-533.1442 364,-524.4652"/>
<polygon fill="#63b8ff" stroke="#63b8ff" points="367.5001,-524.3408 364,-514.3408 360.5001,-524.3409 367.5001,-524.3408"/>
</g>
<!-- Node10 -->
<g id="node10" class="node">
<title>Node10</title>
<g id="a_node10"><a xlink:title=" ">
<polygon fill="#e0e0e0" stroke="#999999" points="724.5,-294 665.5,-294 665.5,-275 724.5,-275 724.5,-294"/>
<text text-anchor="middle" x="695" y="-282" font-family="Helvetica,sans-Serif" font-size="10.00" fill="#000000">functional</text>
</a>
</g>
</g>
<!-- Node6&#45;&gt;Node10 -->
<g id="edge9" class="edge">
<title>Node6&#45;&gt;Node10</title>
<path fill="none" stroke="#63b8ff" d="M381.8705,-549.9006C397.4518,-541.2441 420.4059,-527.789 439,-514 535.4373,-442.4844 638.3708,-341.6696 678.0572,-301.7469"/>
<polygon fill="#63b8ff" stroke="#63b8ff" points="680.7894,-303.9618 685.3362,-294.3922 675.8141,-299.0377 680.7894,-303.9618"/>
</g>
<!-- Node11&#45;&gt;Node6 -->
<g id="edge11" class="edge">
<title>Node11&#45;&gt;Node6</title>
<path fill="none" stroke="#63b8ff" d="M352.8952,-659.8348C350.4483,-647.1778 347.0941,-624.3256 350,-605 351.333,-596.135 354.0498,-586.6138 356.7384,-578.584"/>
<polygon fill="#63b8ff" stroke="#63b8ff" points="360.0697,-579.6625 360.1378,-569.0679 353.4777,-577.3076 360.0697,-579.6625"/>
</g>
<!-- Node12&#45;&gt;Node6 -->
<g id="edge13" class="edge">
<title>Node12&#45;&gt;Node6</title>
<path fill="none" stroke="#63b8ff" d="M439.9748,-604.9197C425.9453,-596.5325 405.3269,-584.2063 389.1081,-574.5103"/>
<polygon fill="#63b8ff" stroke="#63b8ff" points="390.5293,-571.2822 380.1502,-569.155 386.9374,-577.2904 390.5293,-571.2822"/>
</g>
<!-- Node13&#45;&gt;Node6 -->
<g id="edge16" class="edge">
<title>Node13&#45;&gt;Node6</title>
<path fill="none" stroke="#63b8ff" d="M434.9949,-659.8831C420.0588,-652.0952 400.5044,-639.8269 388,-624 377.5967,-610.8325 371.3845,-592.6983 367.8962,-579.0109"/>
<polygon fill="#63b8ff" stroke="#63b8ff" points="371.2876,-578.1403 365.6545,-569.1671 364.4623,-579.6946 371.2876,-578.1403"/>
</g>
<!-- Node13&#45;&gt;Node12 -->
<g id="edge17" class="edge">
<title>Node13&#45;&gt;Node12</title>
<path fill="none" stroke="#63b8ff" d="M456,-659.9197C456,-652.9083 456,-643.1442 456,-634.4652"/>
<polygon fill="#63b8ff" stroke="#63b8ff" points="459.5001,-634.3408 456,-624.3408 452.5001,-634.3409 459.5001,-634.3408"/>
</g>
<!-- Node14 -->
<g id="node14" class="node">
<title>Node14</title>
<g id="a_node14"><a xlink:title=" ">
<polygon fill="#e0e0e0" stroke="#999999" points="1001,-184 947,-184 947,-165 1001,-165 1001,-184"/>
<text text-anchor="middle" x="974" y="-172" font-family="Helvetica,sans-Serif" font-size="10.00" fill="#000000">iostream</text>
</a>
</g>
</g>
<!-- Node13&#45;&gt;Node14 -->
<g id="edge15" class="edge">
<title>Node13&#45;&gt;Node14</title>
<path fill="none" stroke="#63b8ff" d="M444.1514,-659.816C430.1425,-647.1387 410.0315,-624.2645 421,-605 483.9064,-494.5141 565.1363,-535.0798 667,-459 787.8291,-368.7554 914.5167,-237.8503 958.1509,-191.5234"/>
<polygon fill="#63b8ff" stroke="#63b8ff" points="960.8056,-193.8092 965.0931,-184.1206 955.6995,-189.0209 960.8056,-193.8092"/>
</g>
<!-- Node15&#45;&gt;Node2 -->
<g id="edge48" class="edge">
<title>Node15&#45;&gt;Node2</title>
<path fill="none" stroke="#63b8ff" d="M1315.7521,-668.1954C1174.0591,-663.0919 675.2226,-643.7839 648,-624 624.8834,-607.2 567.7295,-409.488 553,-385 504.9281,-305.0798 426.6353,-225.1447 391.7476,-191.31"/>
<polygon fill="#63b8ff" stroke="#63b8ff" points="393.8666,-188.4921 384.2318,-184.0852 389.0155,-193.5386 393.8666,-188.4921"/>
</g>
<!-- Node15&#45;&gt;Node3 -->
<g id="edge49" class="edge">
<title>Node15&#45;&gt;Node3</title>
<path fill="none" stroke="#63b8ff" d="M1315.7552,-667.9133C1126.9638,-659.8703 277.5924,-623.6848 96.1661,-615.9556"/>
<polygon fill="#63b8ff" stroke="#63b8ff" points="96.2695,-612.4569 86.1296,-615.528 95.9715,-619.4505 96.2695,-612.4569"/>
</g>
<!-- Node15&#45;&gt;Node7 -->
<g id="edge21" class="edge">
<title>Node15&#45;&gt;Node7</title>
<path fill="none" stroke="#63b8ff" d="M1315.8933,-668.2537C1172.3343,-663.2918 659.9376,-644.227 632,-624 547.8419,-563.069 509.1573,-263.2336 543,-165 574.4076,-73.8345 635.9303,-76.1773 730,-55 836.5973,-31.0024 1176.5037,-15.1514 1281.0829,-10.7479"/>
<polygon fill="#63b8ff" stroke="#63b8ff" points="1281.4351,-14.2363 1291.281,-10.3235 1281.1441,-7.2424 1281.4351,-14.2363"/>
</g>
<!-- Node15&#45;&gt;Node8 -->
<g id="edge20" class="edge">
<title>Node15&#45;&gt;Node8</title>
<path fill="none" stroke="#63b8ff" d="M1315.774,-668.3806C1214.0683,-664.9713 933.2921,-653.1167 846,-624 750.2945,-592.0769 653,-605.3891 653,-504.5 653,-504.5 653,-504.5 653,-394.5 653,-341.3722 640.5071,-325.8187 656,-275 672.8986,-219.5702 680.9598,-201.461 726,-165 750.9729,-144.7839 785.8226,-132.9904 811.8837,-126.4987"/>
<polygon fill="#63b8ff" stroke="#63b8ff" points="812.8158,-129.8752 821.7538,-124.1865 811.2191,-123.0597 812.8158,-129.8752"/>
</g>
<!-- Node16 -->
<g id="node16" class="node">
<title>Node16</title>
<g id="a_node16"><a xlink:title=" ">
<polygon fill="#e0e0e0" stroke="#999999" points="2316,-129 2272,-129 2272,-110 2316,-110 2316,-129"/>
<text text-anchor="middle" x="2294" y="-117" font-family="Helvetica,sans-Serif" font-size="10.00" fill="#000000">vector</text>
</a>
</g>
</g>
<!-- Node15&#45;&gt;Node16 -->
<g id="edge19" class="edge">
<title>Node15&#45;&gt;Node16</title>
<path fill="none" stroke="#63b8ff" d="M1390.1795,-668.7942C1560.2525,-665.4329 2259.8647,-650.1195 2354,-624 2525.7929,-576.333 2683,-572.7833 2683,-394.5 2683,-394.5 2683,-394.5 2683,-339.5 2683,-175.8898 2419.056,-132.5443 2326.0014,-122.3466"/>
<polygon fill="#63b8ff" stroke="#63b8ff" points="2326.3371,-118.8627 2316.0289,-121.3102 2325.6135,-125.8252 2326.3371,-118.8627"/>
</g>
<!-- Node17 -->
<g id="node17" class="node">
<title>Node17</title>
<g id="a_node17"><a xlink:href="../../da/d55/parserintf_8h.html" target="_top" xlink:title=" ">
<polygon fill="#ffffff" stroke="#666666" points="922.5,-349 857.5,-349 857.5,-330 922.5,-330 922.5,-349"/>
<text text-anchor="middle" x="890" y="-337" font-family="Helvetica,sans-Serif" font-size="10.00" fill="#000000">parserintf.h</text>
</a>
</g>
</g>
<!-- Node15&#45;&gt;Node17 -->
<g id="edge22" class="edge">
<title>Node15&#45;&gt;Node17</title>
<path fill="none" stroke="#63b8ff" d="M1315.6891,-668.7759C1201.2066,-665.6918 858.5955,-649.7556 791,-569 734.4821,-501.4786 829.7668,-396.8023 871.7084,-356.2985"/>
<polygon fill="#63b8ff" stroke="#63b8ff" points="874.2482,-358.7136 879.098,-349.294 869.4325,-353.6332 874.2482,-358.7136"/>
</g>
<!-- Node19 -->
<g id="node19" class="node">
<title>Node19</title>
<g id="a_node19"><a xlink:href="../../d9/d49/types_8h.html" target="_top" xlink:title="This file contains a number of basic enums and types.">
<polygon fill="#ffffff" stroke="#666666" points="1875.5,-239 1826.5,-239 1826.5,-220 1875.5,-220 1875.5,-239"/>
<text text-anchor="middle" x="1851" y="-227" font-family="Helvetica,sans-Serif" font-size="10.00" fill="#000000">types.h</text>
</a>
</g>
</g>
<!-- Node15&#45;&gt;Node19 -->
<g id="edge52" class="edge">
<title>Node15&#45;&gt;Node19</title>
<path fill="none" stroke="#63b8ff" d="M1390.0366,-666.5473C1471.1053,-659.7756 1658.83,-642.2963 1681,-624 1704.3605,-604.7212 1703,-589.7883 1703,-559.5 1703,-559.5 1703,-559.5 1703,-504.5 1703,-395.2166 1794.749,-287.543 1833.7692,-246.6918"/>
<polygon fill="#63b8ff" stroke="#63b8ff" points="1836.3661,-249.0417 1840.8274,-239.4319 1831.3471,-244.1621 1836.3661,-249.0417"/>
</g>
<!-- Node34 -->
<g id="node34" class="node">
<title>Node34</title>
<g id="a_node34"><a xlink:title=" ">
<polygon fill="#e0e0e0" stroke="#999999" points="1672,-624 1620,-624 1620,-605 1672,-605 1672,-624"/>
<text text-anchor="middle" x="1646" y="-612" font-family="Helvetica,sans-Serif" font-size="10.00" fill="#000000">assert.h</text>
</a>
</g>
</g>
<!-- Node15&#45;&gt;Node34 -->
<g id="edge50" class="edge">
<title>Node15&#45;&gt;Node34</title>
<path fill="none" stroke="#63b8ff" d="M1390.4194,-663.4348C1439.9062,-655.262 1529.7632,-639.8957 1606,-624 1607.2577,-623.7378 1608.5363,-623.4654 1609.8267,-623.1857"/>
<polygon fill="#63b8ff" stroke="#63b8ff" points="1610.8088,-626.5523 1619.7963,-620.9422 1609.2719,-619.7231 1610.8088,-626.5523"/>
</g>
<!-- Node35 -->
<g id="node35" class="node">
<title>Node35</title>
<g id="a_node35"><a xlink:title=" ">
<polygon fill="#e0e0e0" stroke="#999999" points="1563.5,-569 1514.5,-569 1514.5,-550 1563.5,-550 1563.5,-569"/>
<text text-anchor="middle" x="1539" y="-557" font-family="Helvetica,sans-Serif" font-size="10.00" fill="#000000">ctype.h</text>
</a>
</g>
</g>
<!-- Node15&#45;&gt;Node35 -->
<g id="edge51" class="edge">
<title>Node15&#45;&gt;Node35</title>
<path fill="none" stroke="#63b8ff" d="M1369.1809,-659.9306C1401.6096,-640.7524 1474.7687,-597.4863 1513.629,-574.5044"/>
<polygon fill="#63b8ff" stroke="#63b8ff" points="1515.8983,-577.2286 1522.7241,-569.1256 1512.335,-571.2034 1515.8983,-577.2286"/>
</g>
<!-- Node36 -->
<g id="node36" class="node">
<title>Node36</title>
<g id="a_node36"><a xlink:href="../../d1/dc6/entry_8h.html" target="_top" xlink:title=" ">
<polygon fill="#ffffff" stroke="#666666" points="2225.5,-294 2178.5,-294 2178.5,-275 2225.5,-275 2225.5,-294"/>
<text text-anchor="middle" x="2202" y="-282" font-family="Helvetica,sans-Serif" font-size="10.00" fill="#000000">entry.h</text>
</a>
</g>
</g>
<!-- Node15&#45;&gt;Node36 -->
<g id="edge53" class="edge">
<title>Node15&#45;&gt;Node36</title>
<path fill="none" stroke="#63b8ff" d="M1390.2539,-668.7563C1556.2031,-664.9606 2220,-644.4674 2220,-559.5 2220,-559.5 2220,-559.5 2220,-394.5 2220,-362.3845 2212.4351,-325.679 2207.1137,-303.8319"/>
<polygon fill="#63b8ff" stroke="#63b8ff" points="2210.5034,-302.96 2204.656,-294.1249 2203.7176,-304.6781 2210.5034,-302.96"/>
</g>
<!-- Node44 -->
<g id="node44" class="node">
<title>Node44</title>
<g id="a_node44"><a xlink:href="../../dd/dec/vhdldocgen_8h.html" target="_top" xlink:title=" ">
<polygon fill="#ffffff" stroke="#666666" points="2322,-349 2248,-349 2248,-330 2322,-330 2322,-349"/>
<text text-anchor="middle" x="2285" y="-337" font-family="Helvetica,sans-Serif" font-size="10.00" fill="#000000">vhdldocgen.h</text>
</a>
</g>
</g>
<!-- Node15&#45;&gt;Node44 -->
<g id="edge83" class="edge">
<title>Node15&#45;&gt;Node44</title>
<path fill="none" stroke="#63b8ff" d="M1390.0506,-668.7162C1553.0111,-665.1259 2199.485,-649.329 2234,-624 2258.6592,-605.9037 2258,-590.0869 2258,-559.5 2258,-559.5 2258,-559.5 2258,-449.5 2258,-416.8653 2269.3474,-380.3137 2277.3295,-358.6392"/>
<polygon fill="#63b8ff" stroke="#63b8ff" points="2280.7062,-359.6084 2281.0161,-349.0181 2274.1696,-357.1037 2280.7062,-359.6084"/>
</g>
<!-- Node46 -->
<g id="node46" class="node">
<title>Node46</title>
<g id="a_node46"><a xlink:href="../../db/d16/config_8h.html" target="_top" xlink:title=" ">
<polygon fill="#ffffff" stroke="#666666" points="2344.5,-624 2293.5,-624 2293.5,-605 2344.5,-605 2344.5,-624"/>
<text text-anchor="middle" x="2319" y="-612" font-family="Helvetica,sans-Serif" font-size="10.00" fill="#000000">config.h</text>
</a>
</g>
</g>
<!-- Node15&#45;&gt;Node46 -->
<g id="edge91" class="edge">
<title>Node15&#45;&gt;Node46</title>
<path fill="none" stroke="#63b8ff" d="M1390.015,-668.4098C1539.218,-663.9006 2096.8481,-645.9118 2272,-624 2275.6862,-623.5389 2279.5154,-622.9498 2283.3258,-622.2915"/>
<polygon fill="#63b8ff" stroke="#63b8ff" points="2284.0742,-625.7122 2293.2568,-620.4272 2282.7827,-618.8323 2284.0742,-625.7122"/>
</g>
<!-- Node48 -->
<g id="node48" class="node">
<title>Node48</title>
<g id="a_node48"><a xlink:href="../../d8/d3c/util_8h.html" target="_top" xlink:title="A bunch of utility functions.">
<polygon fill="#ffffff" stroke="#666666" points="1294,-624 1256,-624 1256,-605 1294,-605 1294,-624"/>
<text text-anchor="middle" x="1275" y="-612" font-family="Helvetica,sans-Serif" font-size="10.00" fill="#000000">util.h</text>
</a>
</g>
</g>
<!-- Node15&#45;&gt;Node48 -->
<g id="edge93" class="edge">
<title>Node15&#45;&gt;Node48</title>
<path fill="none" stroke="#63b8ff" d="M1339.4134,-659.9197C1327.7411,-651.6893 1310.6895,-639.6657 1297.0622,-630.0567"/>
<polygon fill="#63b8ff" stroke="#63b8ff" points="1298.8821,-627.0574 1288.6926,-624.155 1294.8482,-632.7782 1298.8821,-627.0574"/>
</g>
<!-- Node17&#45;&gt;Node7 -->
<g id="edge26" class="edge">
<title>Node17&#45;&gt;Node7</title>
<path fill="none" stroke="#63b8ff" d="M867.3558,-329.9413C792.8343,-298.3814 559.4269,-198.6775 550,-184 545.4366,-176.8948 545.4507,-172.1143 550,-165 631.0079,-38.3177 1147.903,-14.3634 1280.8543,-10.2773"/>
<polygon fill="#63b8ff" stroke="#63b8ff" points="1281.2447,-13.7675 1291.1386,-9.978 1281.041,-6.7705 1281.2447,-13.7675"/>
</g>
<!-- Node17&#45;&gt;Node8 -->
<g id="edge24" class="edge">
<title>Node17&#45;&gt;Node8</title>
<path fill="none" stroke="#63b8ff" d="M878.6802,-329.7892C862.8473,-316.4739 832.8905,-292.2398 805,-275 774.2288,-255.9796 751.1029,-269.7201 732,-239 716.1632,-213.5322 751.7795,-174.1896 761,-165 775.3309,-150.7171 795.0771,-139.8971 812.1353,-132.3994"/>
<polygon fill="#63b8ff" stroke="#63b8ff" points="813.9236,-135.446 821.8071,-128.3678 811.2303,-128.9849 813.9236,-135.446"/>
</g>
<!-- Node17&#45;&gt;Node10 -->
<g id="edge23" class="edge">
<title>Node17&#45;&gt;Node10</title>
<path fill="none" stroke="#63b8ff" d="M857.3614,-330.2942C823.4679,-320.7345 770.4361,-305.7768 734.2715,-295.5766"/>
<polygon fill="#63b8ff" stroke="#63b8ff" points="735.1231,-292.1803 724.5484,-292.8342 733.2228,-298.9174 735.1231,-292.1803"/>
</g>
<!-- Node18 -->
<g id="node18" class="node">
<title>Node18</title>
<g id="a_node18"><a xlink:title=" ">
<polygon fill="#e0e0e0" stroke="#999999" points="1246.5,-239 1211.5,-239 1211.5,-220 1246.5,-220 1246.5,-239"/>
<text text-anchor="middle" x="1229" y="-227" font-family="Helvetica,sans-Serif" font-size="10.00" fill="#000000">map</text>
</a>
</g>
</g>
<!-- Node17&#45;&gt;Node18 -->
<g id="edge25" class="edge">
<title>Node17&#45;&gt;Node18</title>
<path fill="none" stroke="#63b8ff" d="M910.2879,-329.8401C939.6716,-316.1442 996.0319,-290.9747 1046,-275 1110.864,-254.2632 1131.8685,-258.4162 1201.6677,-238.8084"/>
<polygon fill="#63b8ff" stroke="#63b8ff" points="1202.7285,-242.1453 1211.3727,-236.0193 1200.7949,-235.4176 1202.7285,-242.1453"/>
</g>
<!-- Node17&#45;&gt;Node19 -->
<g id="edge27" class="edge">
<title>Node17&#45;&gt;Node19</title>
<path fill="none" stroke="#63b8ff" d="M922.7883,-337.3352C1042.2833,-329.1461 1465.4721,-297.5195 1810,-239 1812.0823,-238.6463 1814.217,-238.2514 1816.3659,-237.829"/>
<polygon fill="#63b8ff" stroke="#63b8ff" points="1817.3237,-241.2038 1826.3797,-235.7047 1815.871,-234.3562 1817.3237,-241.2038"/>
</g>
<!-- Node29 -->
<g id="node29" class="node">
<title>Node29</title>
<g id="a_node29"><a xlink:href="../../d5/d75/containers_8h.html" target="_top" xlink:title=" ">
<polygon fill="#ffffff" stroke="#666666" points="1285,-294 1215,-294 1215,-275 1285,-275 1285,-294"/>
<text text-anchor="middle" x="1250" y="-282" font-family="Helvetica,sans-Serif" font-size="10.00" fill="#000000">containers.h</text>
</a>
</g>
</g>
<!-- Node17&#45;&gt;Node29 -->
<g id="edge40" class="edge">
<title>Node17&#45;&gt;Node29</title>
<path fill="none" stroke="#63b8ff" d="M922.5825,-334.5221C987.1343,-324.66 1131.3755,-302.6232 1204.9571,-291.3816"/>
<polygon fill="#63b8ff" stroke="#63b8ff" points="1205.4984,-294.8395 1214.8551,-289.8694 1204.4412,-287.9198 1205.4984,-294.8395"/>
</g>
<!-- Node20 -->
<g id="node20" class="node">
<title>Node20</title>
<g id="a_node20"><a xlink:href="../../d7/d5c/qcstring_8h.html" target="_top" xlink:title=" ">
<polygon fill="#ffffff" stroke="#666666" points="1880.5,-129 1821.5,-129 1821.5,-110 1880.5,-110 1880.5,-129"/>
<text text-anchor="middle" x="1851" y="-117" font-family="Helvetica,sans-Serif" font-size="10.00" fill="#000000">qcstring.h</text>
</a>
</g>
</g>
<!-- Node19&#45;&gt;Node20 -->
<g id="edge28" class="edge">
<title>Node19&#45;&gt;Node20</title>
<path fill="none" stroke="#63b8ff" d="M1851,-219.7382C1851,-201.7541 1851,-163.0652 1851,-139.3599"/>
<polygon fill="#63b8ff" stroke="#63b8ff" points="1854.5001,-139.0828 1851,-129.0828 1847.5001,-139.0829 1854.5001,-139.0828"/>
</g>
<!-- Node20&#45;&gt;Node7 -->
<g id="edge29" class="edge">
<title>Node20&#45;&gt;Node7</title>
<path fill="none" stroke="#63b8ff" d="M1821.2853,-113.3659C1786.9248,-105.8582 1728.9415,-91.9047 1681,-74 1662.9377,-67.2543 1660.447,-60.609 1642,-55 1535.2149,-22.531 1401.8911,-13.1583 1342.7281,-10.5114"/>
<polygon fill="#63b8ff" stroke="#63b8ff" points="1342.7033,-7.0075 1332.5672,-10.0914 1342.4141,-14.0015 1342.7033,-7.0075"/>
</g>
<!-- Node21 -->
<g id="node21" class="node">
<title>Node21</title>
<g id="a_node21"><a xlink:title=" ">
<polygon fill="#e0e0e0" stroke="#999999" points="2413,-74 2357,-74 2357,-55 2413,-55 2413,-74"/>
<text text-anchor="middle" x="2385" y="-62" font-family="Helvetica,sans-Serif" font-size="10.00" fill="#000000">algorithm</text>
</a>
</g>
</g>
<!-- Node20&#45;&gt;Node21 -->
<g id="edge30" class="edge">
<title>Node20&#45;&gt;Node21</title>
<path fill="none" stroke="#63b8ff" d="M1880.8544,-116.4251C1971.8607,-107.0518 2245.7321,-78.8441 2346.9018,-68.424"/>
<polygon fill="#63b8ff" stroke="#63b8ff" points="2347.3894,-71.8924 2356.9782,-67.3861 2346.6722,-64.9292 2347.3894,-71.8924"/>
</g>
<!-- Node22 -->
<g id="node22" class="node">
<title>Node22</title>
<g id="a_node22"><a xlink:title=" ">
<polygon fill="#e0e0e0" stroke="#999999" points="2031,-74 1985,-74 1985,-55 2031,-55 2031,-74"/>
<text text-anchor="middle" x="2008" y="-62" font-family="Helvetica,sans-Serif" font-size="10.00" fill="#000000">cctype</text>
</a>
</g>
</g>
<!-- Node20&#45;&gt;Node22 -->
<g id="edge31" class="edge">
<title>Node20&#45;&gt;Node22</title>
<path fill="none" stroke="#63b8ff" d="M1878.3473,-109.9197C1905.3032,-100.4766 1946.5125,-86.0402 1975.2115,-75.9864"/>
<polygon fill="#63b8ff" stroke="#63b8ff" points="1976.5167,-79.2378 1984.7972,-72.6284 1974.2023,-72.6315 1976.5167,-79.2378"/>
</g>
<!-- Node23 -->
<g id="node23" class="node">
<title>Node23</title>
<g id="a_node23"><a xlink:title=" ">
<polygon fill="#e0e0e0" stroke="#999999" points="1795,-74 1749,-74 1749,-55 1795,-55 1795,-74"/>
<text text-anchor="middle" x="1772" y="-62" font-family="Helvetica,sans-Serif" font-size="10.00" fill="#000000">cstring</text>
</a>
</g>
</g>
<!-- Node20&#45;&gt;Node23 -->
<g id="edge32" class="edge">
<title>Node20&#45;&gt;Node23</title>
<path fill="none" stroke="#63b8ff" d="M1837.2393,-109.9197C1825.4173,-101.6893 1808.1471,-89.6657 1794.3451,-80.0567"/>
<polygon fill="#63b8ff" stroke="#63b8ff" points="1796.0749,-76.9963 1785.8681,-74.155 1792.0753,-82.7412 1796.0749,-76.9963"/>
</g>
<!-- Node24 -->
<g id="node24" class="node">
<title>Node24</title>
<g id="a_node24"><a xlink:title=" ">
<polygon fill="#e0e0e0" stroke="#999999" points="1632.5,-74 1589.5,-74 1589.5,-55 1632.5,-55 1632.5,-74"/>
<text text-anchor="middle" x="1611" y="-62" font-family="Helvetica,sans-Serif" font-size="10.00" fill="#000000">cstdio</text>
</a>
</g>
</g>
<!-- Node20&#45;&gt;Node24 -->
<g id="edge33" class="edge">
<title>Node20&#45;&gt;Node24</title>
<path fill="none" stroke="#63b8ff" d="M1821.1861,-113.2271C1781.3745,-104.7645 1708.7011,-89.0161 1647,-74 1645.5476,-73.6465 1644.0638,-73.2794 1642.5662,-72.904"/>
<polygon fill="#63b8ff" stroke="#63b8ff" points="1643.2239,-69.4594 1632.6676,-70.3625 1641.483,-76.2395 1643.2239,-69.4594"/>
</g>
<!-- Node25 -->
<g id="node25" class="node">
<title>Node25</title>
<g id="a_node25"><a xlink:title=" ">
<polygon fill="#e0e0e0" stroke="#999999" points="1858.5,-74 1813.5,-74 1813.5,-55 1858.5,-55 1858.5,-74"/>
<text text-anchor="middle" x="1836" y="-62" font-family="Helvetica,sans-Serif" font-size="10.00" fill="#000000">cstdlib</text>
</a>
</g>
</g>
<!-- Node20&#45;&gt;Node25 -->
<g id="edge34" class="edge">
<title>Node20&#45;&gt;Node25</title>
<path fill="none" stroke="#63b8ff" d="M1848.3872,-109.9197C1846.4538,-102.8304 1843.7528,-92.9269 1841.3663,-84.1763"/>
<polygon fill="#63b8ff" stroke="#63b8ff" points="1844.6918,-83.0675 1838.6839,-74.3408 1837.9384,-84.9094 1844.6918,-83.0675"/>
</g>
<!-- Node26 -->
<g id="node26" class="node">
<title>Node26</title>
<g id="a_node26"><a xlink:title=" ">
<polygon fill="#e0e0e0" stroke="#999999" points="1980,-19 1934,-19 1934,0 1980,0 1980,-19"/>
<text text-anchor="middle" x="1957" y="-7" font-family="Helvetica,sans-Serif" font-size="10.00" fill="#000000">cstdint</text>
</a>
</g>
</g>
<!-- Node20&#45;&gt;Node26 -->
<g id="edge35" class="edge">
<title>Node20&#45;&gt;Node26</title>
<path fill="none" stroke="#63b8ff" d="M1880.7276,-110.6875C1899.6514,-103.6342 1923.2854,-91.9124 1938,-74 1948.4075,-61.3307 1953.1142,-43.148 1955.2427,-29.3154"/>
<polygon fill="#63b8ff" stroke="#63b8ff" points="1958.7226,-29.6926 1956.4567,-19.3429 1951.7739,-28.8467 1958.7226,-29.6926"/>
</g>
<!-- Node27 -->
<g id="node27" class="node">
<title>Node27</title>
<g id="a_node27"><a xlink:title=" ">
<polygon fill="#e0e0e0" stroke="#999999" points="1929,-74 1877,-74 1877,-55 1929,-55 1929,-74"/>
<text text-anchor="middle" x="1903" y="-62" font-family="Helvetica,sans-Serif" font-size="10.00" fill="#000000">ostream</text>
</a>
</g>
</g>
<!-- Node20&#45;&gt;Node27 -->
<g id="edge36" class="edge">
<title>Node20&#45;&gt;Node27</title>
<path fill="none" stroke="#63b8ff" d="M1860.0577,-109.9197C1867.4232,-102.1293 1878.0017,-90.9405 1886.8161,-81.6176"/>
<polygon fill="#63b8ff" stroke="#63b8ff" points="1889.3691,-84.0119 1893.6959,-74.3408 1884.2825,-79.2028 1889.3691,-84.0119"/>
</g>
<!-- Node28 -->
<g id="node28" class="node">
<title>Node28</title>
<g id="a_node28"><a xlink:href="../../db/d7c/utf8_8h.html" target="_top" xlink:title="Various UTF8 related helper functions.">
<polygon fill="#ffffff" stroke="#666666" points="1730.5,-74 1689.5,-74 1689.5,-55 1730.5,-55 1730.5,-74"/>
<text text-anchor="middle" x="1710" y="-62" font-family="Helvetica,sans-Serif" font-size="10.00" fill="#000000">utf8.h</text>
</a>
</g>
</g>
<!-- Node20&#45;&gt;Node28 -->
<g id="edge37" class="edge">
<title>Node20&#45;&gt;Node28</title>
<path fill="none" stroke="#63b8ff" d="M1826.4397,-109.9197C1802.4784,-100.5731 1765.9767,-86.3349 1740.2409,-76.2961"/>
<polygon fill="#63b8ff" stroke="#63b8ff" points="1741.2041,-72.915 1730.6158,-72.5416 1738.6602,-79.4364 1741.2041,-72.915"/>
</g>
<!-- Node28&#45;&gt;Node7 -->
<g id="edge39" class="edge">
<title>Node28&#45;&gt;Node7</title>
<path fill="none" stroke="#63b8ff" d="M1689.3854,-58.389C1684.6865,-57.1403 1679.6946,-55.9266 1675,-55 1553.0684,-30.934 1405.4504,-17.0747 1342.6547,-11.8796"/>
<polygon fill="#63b8ff" stroke="#63b8ff" points="1342.88,-8.3864 1332.6293,-11.0646 1342.3128,-15.3634 1342.88,-8.3864"/>
</g>
<!-- Node28&#45;&gt;Node26 -->
<g id="edge38" class="edge">
<title>Node28&#45;&gt;Node26</title>
<path fill="none" stroke="#63b8ff" d="M1730.5778,-57.6856C1733.7191,-56.732 1736.9351,-55.8044 1740,-55 1804.492,-38.0728 1881.0586,-23.2213 1923.8332,-15.3863"/>
<polygon fill="#63b8ff" stroke="#63b8ff" points="1924.4856,-18.8251 1933.699,-13.5941 1923.2344,-11.9379 1924.4856,-18.8251"/>
</g>
<!-- Node29&#45;&gt;Node7 -->
<g id="edge42" class="edge">
<title>Node29&#45;&gt;Node7</title>
<path fill="none" stroke="#63b8ff" d="M1252.2066,-274.7126C1261.2088,-234.7836 1295.2593,-83.753 1307.5453,-29.2586"/>
<polygon fill="#63b8ff" stroke="#63b8ff" points="1311.0347,-29.6951 1309.8198,-19.1701 1304.2061,-28.1555 1311.0347,-29.6951"/>
</g>
<!-- Node29&#45;&gt;Node16 -->
<g id="edge41" class="edge">
<title>Node29&#45;&gt;Node16</title>
<path fill="none" stroke="#63b8ff" d="M1285.0118,-282.3865C1358.9434,-277.5806 1536.2482,-264.2454 1683,-239 1718.5895,-232.8776 1726.579,-227.0319 1762,-220 1863.0556,-199.938 1892.1571,-213.0656 1991,-184 2011.0449,-178.1056 2014.0068,-171.0677 2034,-165 2113.8664,-140.7614 2211.6965,-127.9813 2261.5019,-122.6242"/>
<polygon fill="#63b8ff" stroke="#63b8ff" points="2262.0811,-126.0829 2271.6635,-121.5633 2261.3541,-119.1207 2262.0811,-126.0829"/>
</g>
<!-- Node29&#45;&gt;Node18 -->
<g id="edge44" class="edge">
<title>Node29&#45;&gt;Node18</title>
<path fill="none" stroke="#63b8ff" d="M1246.3421,-274.9197C1243.6055,-267.7525 1239.7707,-257.7089 1236.4028,-248.8882"/>
<polygon fill="#63b8ff" stroke="#63b8ff" points="1239.5943,-247.4345 1232.7574,-239.3408 1233.0547,-249.9315 1239.5943,-247.4345"/>
</g>
<!-- Node30 -->
<g id="node30" class="node">
<title>Node30</title>
<g id="a_node30"><a xlink:title=" ">
<polygon fill="#e0e0e0" stroke="#999999" points="1801,-239 1771,-239 1771,-220 1801,-220 1801,-239"/>
<text text-anchor="middle" x="1786" y="-227" font-family="Helvetica,sans-Serif" font-size="10.00" fill="#000000">set</text>
</a>
</g>
</g>
<!-- Node29&#45;&gt;Node30 -->
<g id="edge43" class="edge">
<title>Node29&#45;&gt;Node30</title>
<path fill="none" stroke="#63b8ff" d="M1285.2543,-277.2018C1289.8656,-276.3834 1294.5372,-275.6221 1299,-275 1484.557,-249.1341 1532.8475,-260.1589 1719,-239 1732.8135,-237.4299 1748.1726,-235.2814 1760.6969,-233.4248"/>
<polygon fill="#63b8ff" stroke="#63b8ff" points="1761.4976,-236.8437 1770.8632,-231.8902 1760.4527,-229.9221 1761.4976,-236.8437"/>
</g>
<!-- Node31 -->
<g id="node31" class="node">
<title>Node31</title>
<g id="a_node31"><a xlink:title=" ">
<polygon fill="#e0e0e0" stroke="#999999" points="1193,-239 1115,-239 1115,-220 1193,-220 1193,-239"/>
<text text-anchor="middle" x="1154" y="-227" font-family="Helvetica,sans-Serif" font-size="10.00" fill="#000000">unordered_set</text>
</a>
</g>
</g>
<!-- Node29&#45;&gt;Node31 -->
<g id="edge45" class="edge">
<title>Node29&#45;&gt;Node31</title>
<path fill="none" stroke="#63b8ff" d="M1233.2781,-274.9197C1218.5017,-266.4541 1196.721,-253.9755 1179.7265,-244.2391"/>
<polygon fill="#63b8ff" stroke="#63b8ff" points="1181.2692,-241.0893 1170.8524,-239.155 1177.7894,-247.1631 1181.2692,-241.0893"/>
</g>
<!-- Node32 -->
<g id="node32" class="node">
<title>Node32</title>
<g id="a_node32"><a xlink:title=" ">
<polygon fill="#e0e0e0" stroke="#999999" points="1423.5,-129 1340.5,-129 1340.5,-110 1423.5,-110 1423.5,-129"/>
<text text-anchor="middle" x="1382" y="-117" font-family="Helvetica,sans-Serif" font-size="10.00" fill="#000000">unordered_map</text>
</a>
</g>
</g>
<!-- Node29&#45;&gt;Node32 -->
<g id="edge46" class="edge">
<title>Node29&#45;&gt;Node32</title>
<path fill="none" stroke="#63b8ff" d="M1258.5032,-274.8495C1266.4958,-265.7156 1278.7318,-251.5692 1289,-239 1318.0531,-203.4362 1350.7589,-160.7662 1368.6051,-137.2469"/>
<polygon fill="#63b8ff" stroke="#63b8ff" points="1371.4325,-139.3107 1374.6786,-129.2253 1365.8517,-135.0851 1371.4325,-139.3107"/>
</g>
<!-- Node33 -->
<g id="node33" class="node">
<title>Node33</title>
<g id="a_node33"><a xlink:title=" ">
<polygon fill="#e0e0e0" stroke="#999999" points="1096.5,-239 1055.5,-239 1055.5,-220 1096.5,-220 1096.5,-239"/>
<text text-anchor="middle" x="1076" y="-227" font-family="Helvetica,sans-Serif" font-size="10.00" fill="#000000">stack</text>
</a>
</g>
</g>
<!-- Node29&#45;&gt;Node33 -->
<g id="edge47" class="edge">
<title>Node29&#45;&gt;Node33</title>
<path fill="none" stroke="#63b8ff" d="M1219.658,-274.9189C1192.4501,-266.3261 1151.1872,-253.2911 1106.2886,-239.0899"/>
<polygon fill="#63b8ff" stroke="#63b8ff" points="1107.2462,-235.722 1096.6562,-236.043 1105.135,-242.396 1107.2462,-235.722"/>
</g>
<!-- Node36&#45;&gt;Node8 -->
<g id="edge55" class="edge">
<title>Node36&#45;&gt;Node8</title>
<path fill="none" stroke="#63b8ff" d="M2178.3857,-280.8741C2164.5977,-278.8739 2146.8477,-276.4989 2131,-275 1844.2792,-247.8822 1766.7444,-293.7707 1484,-239 1458.1972,-234.0017 1453.2663,-227.2374 1428,-220 1325.2963,-190.581 1299.0927,-184.2108 1194,-165 1081.884,-144.5053 947.7082,-129.5619 884.4335,-123.078"/>
<polygon fill="#63b8ff" stroke="#63b8ff" points="884.4839,-119.5652 874.1818,-122.0381 883.7775,-126.5295 884.4839,-119.5652"/>
</g>
<!-- Node36&#45;&gt;Node16 -->
<g id="edge54" class="edge">
<title>Node36&#45;&gt;Node16</title>
<path fill="none" stroke="#63b8ff" d="M2222.6627,-274.9217C2262.8954,-255.7997 2349.2005,-212.3027 2365,-184 2377.3256,-161.9203 2350.0508,-143.3413 2325.8163,-131.8781"/>
<polygon fill="#63b8ff" stroke="#63b8ff" points="2326.985,-128.5672 2316.4259,-127.6977 2324.1381,-134.9622 2326.985,-128.5672"/>
</g>
<!-- Node36&#45;&gt;Node19 -->
<g id="edge57" class="edge">
<title>Node36&#45;&gt;Node19</title>
<path fill="none" stroke="#63b8ff" d="M2178.4249,-280.8059C2118.0431,-271.3444 1957.5696,-246.1989 1886.1414,-235.0065"/>
<polygon fill="#63b8ff" stroke="#63b8ff" points="1886.292,-231.4875 1875.8707,-233.3971 1885.2083,-238.4031 1886.292,-231.4875"/>
</g>
<!-- Node37 -->
<g id="node37" class="node">
<title>Node37</title>
<g id="a_node37"><a xlink:title=" ">
<polygon fill="#e0e0e0" stroke="#999999" points="2095,-184 2043,-184 2043,-165 2095,-165 2095,-184"/>
<text text-anchor="middle" x="2069" y="-172" font-family="Helvetica,sans-Serif" font-size="10.00" fill="#000000">sstream</text>
</a>
</g>
</g>
<!-- Node36&#45;&gt;Node37 -->
<g id="edge56" class="edge">
<title>Node36&#45;&gt;Node37</title>
<path fill="none" stroke="#63b8ff" d="M2203.2919,-274.9972C2204.6074,-261.2655 2204.9071,-235.7939 2192,-220 2170.7927,-194.0493 2133.3087,-182.8985 2105.2769,-178.1076"/>
<polygon fill="#63b8ff" stroke="#63b8ff" points="2105.46,-174.5957 2095.0498,-176.5653 2104.4161,-181.5175 2105.46,-174.5957"/>
</g>
<!-- Node38 -->
<g id="node38" class="node">
<title>Node38</title>
<g id="a_node38"><a xlink:href="../../df/d9b/arguments_8h.html" target="_top" xlink:title=" ">
<polygon fill="#ffffff" stroke="#666666" points="2436.5,-239 2365.5,-239 2365.5,-220 2436.5,-220 2436.5,-239"/>
<text text-anchor="middle" x="2401" y="-227" font-family="Helvetica,sans-Serif" font-size="10.00" fill="#000000">arguments.h</text>
</a>
</g>
</g>
<!-- Node36&#45;&gt;Node38 -->
<g id="edge58" class="edge">
<title>Node36&#45;&gt;Node38</title>
<path fill="none" stroke="#63b8ff" d="M2225.6094,-277.9748C2257.7845,-269.0822 2316.026,-252.9853 2356.5256,-241.7919"/>
<polygon fill="#63b8ff" stroke="#63b8ff" points="2357.707,-245.0967 2366.4132,-239.0592 2355.8422,-238.3497 2357.707,-245.0967"/>
</g>
<!-- Node39 -->
<g id="node39" class="node">
<title>Node39</title>
<g id="a_node39"><a xlink:href="../../d1/d02/reflist_8h.html" target="_top" xlink:title=" ">
<polygon fill="#ffffff" stroke="#666666" points="1998.5,-239 1949.5,-239 1949.5,-220 1998.5,-220 1998.5,-239"/>
<text text-anchor="middle" x="1974" y="-227" font-family="Helvetica,sans-Serif" font-size="10.00" fill="#000000">reflist.h</text>
</a>
</g>
</g>
<!-- Node36&#45;&gt;Node39 -->
<g id="edge61" class="edge">
<title>Node36&#45;&gt;Node39</title>
<path fill="none" stroke="#63b8ff" d="M2178.4587,-278.8212C2138.1578,-269.0995 2055.7622,-249.2233 2008.8042,-237.8958"/>
<polygon fill="#63b8ff" stroke="#63b8ff" points="2009.3334,-234.4231 1998.7915,-235.4804 2007.6919,-241.2279 2009.3334,-234.4231"/>
</g>
<!-- Node41 -->
<g id="node41" class="node">
<title>Node41</title>
<g id="a_node41"><a xlink:href="../../d4/d7d/textstream_8h.html" target="_top" xlink:title=" ">
<polygon fill="#ffffff" stroke="#666666" points="1638.5,-239 1567.5,-239 1567.5,-220 1638.5,-220 1638.5,-239"/>
<text text-anchor="middle" x="1603" y="-227" font-family="Helvetica,sans-Serif" font-size="10.00" fill="#000000">textstream.h</text>
</a>
</g>
</g>
<!-- Node36&#45;&gt;Node41 -->
<g id="edge74" class="edge">
<title>Node36&#45;&gt;Node41</title>
<path fill="none" stroke="#63b8ff" d="M2178.3673,-281.0545C2164.5731,-279.1144 2146.8231,-276.7394 2131,-275 1952.8954,-255.4215 1740.2148,-239.2999 1648.6321,-232.7057"/>
<polygon fill="#63b8ff" stroke="#63b8ff" points="1648.8167,-229.21 1638.592,-231.9861 1648.3162,-236.1921 1648.8167,-229.21"/>
</g>
<!-- Node38&#45;&gt;Node16 -->
<g id="edge59" class="edge">
<title>Node38&#45;&gt;Node16</title>
<path fill="none" stroke="#63b8ff" d="M2404.5231,-219.8075C2408.7705,-206.2965 2414.0564,-181.5962 2403,-165 2386.0128,-139.5012 2351.7243,-128.2677 2326.1169,-123.3337"/>
<polygon fill="#63b8ff" stroke="#63b8ff" points="2326.5396,-119.8555 2316.0949,-121.6322 2325.3679,-126.7567 2326.5396,-119.8555"/>
</g>
<!-- Node38&#45;&gt;Node20 -->
<g id="edge60" class="edge">
<title>Node38&#45;&gt;Node20</title>
<path fill="none" stroke="#63b8ff" d="M2388.4025,-219.8413C2368.5126,-205.1706 2328.0671,-177.6439 2289,-165 2215.3735,-141.171 1984.2787,-126.5756 1890.8158,-121.5119"/>
<polygon fill="#63b8ff" stroke="#63b8ff" points="1890.8122,-118.0069 1880.6399,-120.969 1890.4392,-124.9969 1890.8122,-118.0069"/>
</g>
<!-- Node39&#45;&gt;Node8 -->
<g id="edge64" class="edge">
<title>Node39&#45;&gt;Node8</title>
<path fill="none" stroke="#63b8ff" d="M1949.2365,-225.7415C1899.2466,-218.1232 1782.7088,-200.2064 1685,-184 1636.4879,-175.9536 1624.8359,-170.7647 1576,-165 1311.853,-133.8195 991.0965,-123.1752 884.4315,-120.3581"/>
<polygon fill="#63b8ff" stroke="#63b8ff" points="884.2971,-116.8536 874.2103,-120.0951 884.1169,-123.8513 884.2971,-116.8536"/>
</g>
<!-- Node39&#45;&gt;Node16 -->
<g id="edge62" class="edge">
<title>Node39&#45;&gt;Node16</title>
<path fill="none" stroke="#63b8ff" d="M1998.5866,-222.354C2027.8904,-213.7302 2078.2655,-198.567 2121,-184 2170.7056,-167.0568 2227.6431,-145.3839 2262.2,-131.9739"/>
<polygon fill="#63b8ff" stroke="#63b8ff" points="2263.7012,-135.1454 2271.7508,-128.2567 2261.1623,-128.6221 2263.7012,-135.1454"/>
</g>
<!-- Node39&#45;&gt;Node20 -->
<g id="edge65" class="edge">
<title>Node39&#45;&gt;Node20</title>
<path fill="none" stroke="#63b8ff" d="M1998.6992,-226.5808C2044.5308,-220.2032 2135.3542,-202.496 2104,-165 2077.2882,-133.0558 1955.0833,-123.5058 1890.7985,-120.6756"/>
<polygon fill="#63b8ff" stroke="#63b8ff" points="1890.7611,-117.1713 1880.6273,-120.2627 1890.4771,-124.1656 1890.7611,-117.1713"/>
</g>
<!-- Node39&#45;&gt;Node32 -->
<g id="edge63" class="edge">
<title>Node39&#45;&gt;Node32</title>
<path fill="none" stroke="#63b8ff" d="M1949.3189,-224.2267C1910.3394,-215.8701 1832.153,-198.9933 1766,-184 1729.9375,-175.8266 1721.3136,-171.9735 1685,-165 1597.3459,-148.1672 1494.4262,-133.8533 1433.9089,-125.9877"/>
<polygon fill="#63b8ff" stroke="#63b8ff" points="1434.2086,-122.4974 1423.8427,-124.6881 1433.3122,-129.4398 1434.2086,-122.4974"/>
</g>
<!-- Node40 -->
<g id="node40" class="node">
<title>Node40</title>
<g id="a_node40"><a xlink:href="../../da/de1/linkedmap_8h.html" target="_top" xlink:title=" ">
<polygon fill="#ffffff" stroke="#666666" points="1948.5,-184 1879.5,-184 1879.5,-165 1948.5,-165 1948.5,-184"/>
<text text-anchor="middle" x="1914" y="-172" font-family="Helvetica,sans-Serif" font-size="10.00" fill="#000000">linkedmap.h</text>
</a>
</g>
</g>
<!-- Node39&#45;&gt;Node40 -->
<g id="edge66" class="edge">
<title>Node39&#45;&gt;Node40</title>
<path fill="none" stroke="#63b8ff" d="M1963.5488,-219.9197C1954.9651,-212.0514 1942.5997,-200.7164 1932.3693,-191.3385"/>
<polygon fill="#63b8ff" stroke="#63b8ff" points="1934.4721,-188.5181 1924.7355,-184.3408 1929.742,-193.6782 1934.4721,-188.5181"/>
</g>
<!-- Node40&#45;&gt;Node7 -->
<g id="edge70" class="edge">
<title>Node40&#45;&gt;Node7</title>
<path fill="none" stroke="#63b8ff" d="M1879.0545,-165.3727C1817.927,-149.0935 1687.9157,-113.0721 1581,-74 1560.9932,-66.6886 1557.3269,-61.3677 1537,-55 1469.0159,-33.703 1386.266,-19.9629 1342.5209,-13.6104"/>
<polygon fill="#63b8ff" stroke="#63b8ff" points="1342.919,-10.1318 1332.5259,-12.1896 1341.9338,-17.0622 1342.919,-10.1318"/>
</g>
<!-- Node40&#45;&gt;Node8 -->
<g id="edge69" class="edge">
<title>Node40&#45;&gt;Node8</title>
<path fill="none" stroke="#63b8ff" d="M1879.3399,-169.9469C1864.7472,-168.1697 1847.5702,-166.2604 1832,-165 1462.6865,-135.1043 1013.6858,-123.2215 884.4071,-120.2753"/>
<polygon fill="#63b8ff" stroke="#63b8ff" points="884.347,-116.7731 874.271,-120.0478 884.1899,-123.7714 884.347,-116.7731"/>
</g>
<!-- Node40&#45;&gt;Node16 -->
<g id="edge68" class="edge">
<title>Node40&#45;&gt;Node16</title>
<path fill="none" stroke="#63b8ff" d="M1948.7298,-169.4733C2021.7496,-158.9047 2190.2938,-134.5101 2261.4067,-124.2174"/>
<polygon fill="#63b8ff" stroke="#63b8ff" points="2262.1666,-127.644 2271.562,-122.7476 2261.1638,-120.7162 2262.1666,-127.644"/>
</g>
<!-- Node40&#45;&gt;Node20 -->
<g id="edge73" class="edge">
<title>Node40&#45;&gt;Node20</title>
<path fill="none" stroke="#63b8ff" d="M1903.0262,-164.9197C1893.9242,-156.9735 1880.7721,-145.4916 1869.9693,-136.0605"/>
<polygon fill="#63b8ff" stroke="#63b8ff" points="1872.1072,-133.2808 1862.2722,-129.3408 1867.5036,-138.5541 1872.1072,-133.2808"/>
</g>
<!-- Node40&#45;&gt;Node21 -->
<g id="edge71" class="edge">
<title>Node40&#45;&gt;Node21</title>
<path fill="none" stroke="#63b8ff" d="M1948.6338,-166.4114C2034.5644,-146.3427 2257.0657,-94.3785 2346.7228,-73.4395"/>
<polygon fill="#63b8ff" stroke="#63b8ff" points="2347.789,-76.7847 2356.731,-71.1021 2346.197,-69.9682 2347.789,-76.7847"/>
</g>
<!-- Node40&#45;&gt;Node22 -->
<g id="edge72" class="edge">
<title>Node40&#45;&gt;Node22</title>
<path fill="none" stroke="#63b8ff" d="M1922.3419,-164.7382C1938.269,-146.1002 1973.1995,-105.224 1993.1864,-81.835"/>
<polygon fill="#63b8ff" stroke="#63b8ff" points="1995.9753,-83.959 1999.811,-74.0828 1990.6537,-79.4114 1995.9753,-83.959"/>
</g>
<!-- Node40&#45;&gt;Node32 -->
<g id="edge67" class="edge">
<title>Node40&#45;&gt;Node32</title>
<path fill="none" stroke="#63b8ff" d="M1879.3002,-170.3666C1864.701,-168.657 1847.53,-166.6846 1832,-165 1687.7411,-149.3513 1517.27,-132.5862 1433.5967,-124.4704"/>
<polygon fill="#63b8ff" stroke="#63b8ff" points="1433.8791,-120.9814 1423.5881,-123.5007 1433.204,-127.9488 1433.8791,-120.9814"/>
</g>
<!-- Node41&#45;&gt;Node7 -->
<g id="edge75" class="edge">
<title>Node41&#45;&gt;Node7</title>
<path fill="none" stroke="#63b8ff" d="M1570.1049,-219.8699C1547.8451,-212.3493 1518.5108,-200.4095 1496,-184 1460.8621,-158.3857 1462.9901,-140.5022 1432,-110 1399.2566,-77.7721 1357.4239,-44.2789 1332.7882,-25.2477"/>
<polygon fill="#63b8ff" stroke="#63b8ff" points="1334.899,-22.4557 1324.8346,-19.1451 1330.6378,-28.0093 1334.899,-22.4557"/>
</g>
<!-- Node41&#45;&gt;Node14 -->
<g id="edge76" class="edge">
<title>Node41&#45;&gt;Node14</title>
<path fill="none" stroke="#63b8ff" d="M1567.2193,-221.4662C1564.1108,-220.9142 1561.0058,-220.4139 1558,-220 1319.5066,-187.1623 1252.7112,-222.3328 1011.1532,-183.8655"/>
<polygon fill="#63b8ff" stroke="#63b8ff" points="1011.4373,-180.366 1001.0065,-182.223 1010.3187,-187.2761 1011.4373,-180.366"/>
</g>
<!-- Node41&#45;&gt;Node20 -->
<g id="edge82" class="edge">
<title>Node41&#45;&gt;Node20</title>
<path fill="none" stroke="#63b8ff" d="M1624.5745,-219.9306C1668.6372,-200.3867 1769.0979,-155.8275 1820.0853,-133.2122"/>
<polygon fill="#63b8ff" stroke="#63b8ff" points="1821.5767,-136.3796 1829.2987,-129.1256 1818.7385,-129.9808 1821.5767,-136.3796"/>
</g>
<!-- Node41&#45;&gt;Node24 -->
<g id="edge79" class="edge">
<title>Node41&#45;&gt;Node24</title>
<path fill="none" stroke="#63b8ff" d="M1603.4765,-219.6726C1604.7634,-193.1291 1608.3281,-119.6086 1610.0478,-84.1401"/>
<polygon fill="#63b8ff" stroke="#63b8ff" points="1613.5476,-84.227 1610.536,-74.0692 1606.5558,-83.8879 1613.5476,-84.227"/>
</g>
<!-- Node41&#45;&gt;Node26 -->
<g id="edge78" class="edge">
<title>Node41&#45;&gt;Node26</title>
<path fill="none" stroke="#63b8ff" d="M1638.7918,-225.0043C1728.5646,-213.7165 1956.2774,-185.0066 1958,-184 2016.6554,-149.7239 2074.6174,-113.4547 2040,-55 2029.1403,-36.6624 2007.9818,-25.2271 1989.7465,-18.4069"/>
<polygon fill="#63b8ff" stroke="#63b8ff" points="1990.8692,-15.0919 1980.2746,-15.1637 1988.6016,-21.7145 1990.8692,-15.0919"/>
</g>
<!-- Node41&#45;&gt;Node37 -->
<g id="edge77" class="edge">
<title>Node41&#45;&gt;Node37</title>
<path fill="none" stroke="#63b8ff" d="M1638.58,-225.3814C1706.9,-217.461 1861.1958,-199.5156 1991,-184 2004.5739,-182.3775 2019.4729,-180.5695 2032.5797,-178.9699"/>
<polygon fill="#63b8ff" stroke="#63b8ff" points="2033.1459,-182.4269 2042.6473,-177.7393 2032.2964,-175.4786 2033.1459,-182.4269"/>
</g>
<!-- Node42 -->
<g id="node42" class="node">
<title>Node42</title>
<g id="a_node42"><a xlink:title=" ">
<polygon fill="#e0e0e0" stroke="#999999" points="1069,-184 1019,-184 1019,-165 1069,-165 1069,-184"/>
<text text-anchor="middle" x="1044" y="-172" font-family="Helvetica,sans-Serif" font-size="10.00" fill="#000000">fstream</text>
</a>
</g>
</g>
<!-- Node41&#45;&gt;Node42 -->
<g id="edge80" class="edge">
<title>Node41&#45;&gt;Node42</title>
<path fill="none" stroke="#63b8ff" d="M1567.2087,-221.5403C1564.1025,-220.9722 1561.0009,-220.4479 1558,-220 1379.3218,-193.3291 1163.1943,-180.4434 1079.493,-176.1748"/>
<polygon fill="#63b8ff" stroke="#63b8ff" points="1079.4265,-172.6672 1069.264,-175.6627 1079.0764,-179.6584 1079.4265,-172.6672"/>
</g>
<!-- Node43 -->
<g id="node43" class="node">
<title>Node43</title>
<g id="a_node43"><a xlink:title=" ">
<polygon fill="#e0e0e0" stroke="#999999" points="1567,-184 1505,-184 1505,-165 1567,-165 1567,-184"/>
<text text-anchor="middle" x="1536" y="-172" font-family="Helvetica,sans-Serif" font-size="10.00" fill="#000000">type_traits</text>
</a>
</g>
</g>
<!-- Node41&#45;&gt;Node43 -->
<g id="edge81" class="edge">
<title>Node41&#45;&gt;Node43</title>
<path fill="none" stroke="#63b8ff" d="M1591.3295,-219.9197C1581.5546,-211.8956 1567.3878,-200.2661 1555.8365,-190.7837"/>
<polygon fill="#63b8ff" stroke="#63b8ff" points="1557.938,-187.9805 1547.9879,-184.3408 1553.4965,-193.3911 1557.938,-187.9805"/>
</g>
<!-- Node44&#45;&gt;Node20 -->
<g id="edge84" class="edge">
<title>Node44&#45;&gt;Node20</title>
<path fill="none" stroke="#63b8ff" d="M2280.7935,-329.8024C2270.9838,-308.0392 2244.7599,-254.5194 2210,-220 2177.0062,-187.2345 2164.5145,-181.391 2121,-165 2042.8043,-135.5453 1944.6939,-125.0881 1890.8853,-121.4266"/>
<polygon fill="#63b8ff" stroke="#63b8ff" points="1890.9353,-117.9228 1880.7333,-120.7813 1890.4911,-124.9087 1890.9353,-117.9228"/>
</g>
<!-- Node44&#45;&gt;Node36 -->
<g id="edge90" class="edge">
<title>Node44&#45;&gt;Node36</title>
<path fill="none" stroke="#63b8ff" d="M2270.5425,-329.9197C2258.0037,-321.6109 2239.6312,-309.4363 2225.0632,-299.7828"/>
<polygon fill="#63b8ff" stroke="#63b8ff" points="2226.8396,-296.7613 2216.5703,-294.155 2222.9729,-302.5964 2226.8396,-296.7613"/>
</g>
<!-- Node44&#45;&gt;Node38 -->
<g id="edge89" class="edge">
<title>Node44&#45;&gt;Node38</title>
<path fill="none" stroke="#63b8ff" d="M2295.2942,-329.7382C2315.1213,-310.9367 2358.8127,-269.5052 2383.3642,-246.2236"/>
<polygon fill="#63b8ff" stroke="#63b8ff" points="2386.0465,-248.5035 2390.8945,-239.0828 2381.2299,-243.4241 2386.0465,-248.5035"/>
</g>
<!-- Node45 -->
<g id="node45" class="node">
<title>Node45</title>
<g id="a_node45"><a xlink:href="../../db/d51/layout_8h.html" target="_top" xlink:title=" ">
<polygon fill="#ffffff" stroke="#666666" points="2121.5,-294 2070.5,-294 2070.5,-275 2121.5,-275 2121.5,-294"/>
<text text-anchor="middle" x="2096" y="-282" font-family="Helvetica,sans-Serif" font-size="10.00" fill="#000000">layout.h</text>
</a>
</g>
</g>
<!-- Node44&#45;&gt;Node45 -->
<g id="edge85" class="edge">
<title>Node44&#45;&gt;Node45</title>
<path fill="none" stroke="#63b8ff" d="M2252.0787,-329.9197C2218.2917,-320.0875 2165.9033,-304.8422 2131.2804,-294.7668"/>
<polygon fill="#63b8ff" stroke="#63b8ff" points="2132.1612,-291.378 2121.5815,-291.9444 2130.2052,-298.0992 2132.1612,-291.378"/>
</g>
<!-- Node45&#45;&gt;Node8 -->
<g id="edge86" class="edge">
<title>Node45&#45;&gt;Node8</title>
<path fill="none" stroke="#63b8ff" d="M2070.137,-276.8421C2067.0772,-276.1261 2063.9826,-275.4874 2061,-275 1792.9729,-231.197 1719.3883,-280.5327 1451,-239 1417.0181,-233.7414 1409.4384,-228.0183 1376,-220 1268.3208,-194.1792 1241.7297,-185.9616 1133,-165 1043.9791,-147.838 938.4247,-132.2063 884.1783,-124.515"/>
<polygon fill="#63b8ff" stroke="#63b8ff" points="884.424,-121.0151 874.0332,-123.0845 883.4466,-127.9465 884.424,-121.0151"/>
</g>
<!-- Node45&#45;&gt;Node16 -->
<g id="edge87" class="edge">
<title>Node45&#45;&gt;Node16</title>
<path fill="none" stroke="#63b8ff" d="M2115.9205,-274.9612C2147.306,-259.2397 2209.0075,-225.46 2251,-184 2264.7175,-170.4565 2276.546,-151.8767 2284.3051,-138.136"/>
<polygon fill="#63b8ff" stroke="#63b8ff" points="2287.5016,-139.5843 2289.2045,-129.1272 2281.3521,-136.2399 2287.5016,-139.5843"/>
</g>
<!-- Node45&#45;&gt;Node19 -->
<g id="edge88" class="edge">
<title>Node45&#45;&gt;Node19</title>
<path fill="none" stroke="#63b8ff" d="M2070.4252,-277.3946C2067.2574,-276.5628 2064.0585,-275.7459 2061,-275 1999.5244,-260.0076 1927.3185,-244.907 1885.592,-236.4237"/>
<polygon fill="#63b8ff" stroke="#63b8ff" points="1886.1611,-232.968 1875.6653,-234.4136 1884.7718,-239.8287 1886.1611,-232.968"/>
</g>
<!-- Node47 -->
<g id="node47" class="node">
<title>Node47</title>
<g id="a_node47"><a xlink:title=" ">
<polygon fill="#e0e0e0" stroke="#999999" points="2366,-569 2286,-569 2286,-550 2366,-550 2366,-569"/>
<text text-anchor="middle" x="2326" y="-557" font-family="Helvetica,sans-Serif" font-size="10.00" fill="#000000">configvalues.h</text>
</a>
</g>
</g>
<!-- Node46&#45;&gt;Node47 -->
<g id="edge92" class="edge">
<title>Node46&#45;&gt;Node47</title>
<path fill="none" stroke="#63b8ff" d="M2320.2193,-604.9197C2321.1117,-597.9083 2322.3544,-588.1442 2323.459,-579.4652"/>
<polygon fill="#63b8ff" stroke="#63b8ff" points="2326.9569,-579.7027 2324.7475,-569.3408 2320.0129,-578.8189 2326.9569,-579.7027"/>
</g>
<!-- Node48&#45;&gt;Node8 -->
<g id="edge94" class="edge">
<title>Node48&#45;&gt;Node8</title>
<path fill="none" stroke="#63b8ff" d="M1255.8801,-613.8133C1172.2751,-610.3028 843,-590.9869 843,-504.5 843,-504.5 843,-504.5 843,-449.5 843,-342.0296 751.3444,-342.9335 724,-239 721.8514,-230.8335 722.6701,-228.3391 724,-220 728.0505,-194.6007 724.6418,-183.9795 742,-165 760.3665,-144.9181 789.1022,-133.3354 812.0235,-126.8873"/>
<polygon fill="#63b8ff" stroke="#63b8ff" points="812.9694,-130.2578 821.7649,-124.3511 811.2056,-123.4836 812.9694,-130.2578"/>
</g>
<!-- Node48&#45;&gt;Node10 -->
<g id="edge97" class="edge">
<title>Node48&#45;&gt;Node10</title>
<path fill="none" stroke="#63b8ff" d="M1255.8463,-613.7268C1174.8752,-610.3013 863.252,-595.4802 829,-569 804.8014,-550.2921 805,-535.0869 805,-504.5 805,-504.5 805,-504.5 805,-449.5 805,-385.6603 747.2873,-327.7342 715.4685,-300.649"/>
<polygon fill="#63b8ff" stroke="#63b8ff" points="717.5517,-297.8297 707.6184,-294.1445 713.0855,-303.2199 717.5517,-297.8297"/>
</g>
<!-- Node48&#45;&gt;Node19 -->
<g id="edge101" class="edge">
<title>Node48&#45;&gt;Node19</title>
<path fill="none" stroke="#63b8ff" d="M1294.1446,-605.9508C1312.3903,-597.4938 1340.3587,-583.7144 1363,-569 1538.2395,-455.1136 1548.3751,-378.3992 1730,-275 1757.5988,-259.288 1791.6565,-247.0439 1816.6005,-239.2344"/>
<polygon fill="#63b8ff" stroke="#63b8ff" points="1817.8064,-242.5259 1826.351,-236.2616 1815.7649,-235.8302 1817.8064,-242.5259"/>
</g>
<!-- Node48&#45;&gt;Node21 -->
<g id="edge96" class="edge">
<title>Node48&#45;&gt;Node21</title>
<path fill="none" stroke="#63b8ff" d="M1294.2142,-614.3655C1373.4015,-613.5599 1682.0487,-607.949 1932,-569 2093.1756,-543.8846 2645,-557.6207 2645,-394.5 2645,-394.5 2645,-394.5 2645,-339.5 2645,-207.0938 2483.8849,-112.736 2415.3122,-78.5723"/>
<polygon fill="#63b8ff" stroke="#63b8ff" points="2416.7978,-75.4027 2406.2769,-74.1534 2413.7224,-81.691 2416.7978,-75.4027"/>
</g>
<!-- Node48&#45;&gt;Node29 -->
<g id="edge110" class="edge">
<title>Node48&#45;&gt;Node29</title>
<path fill="none" stroke="#63b8ff" d="M1271.3112,-604.9546C1264.357,-586.0738 1250,-542.4934 1250,-504.5 1250,-504.5 1250,-504.5 1250,-394.5 1250,-362.9508 1250,-326.3117 1250,-304.2905"/>
<polygon fill="#63b8ff" stroke="#63b8ff" points="1253.5001,-304.2116 1250,-294.2116 1246.5001,-304.2117 1253.5001,-304.2116"/>
</g>
<!-- Node48&#45;&gt;Node32 -->
<g id="edge95" class="edge">
<title>Node48&#45;&gt;Node32</title>
<path fill="none" stroke="#63b8ff" d="M1291.9209,-604.8848C1304.1658,-596.9453 1319.9261,-584.4844 1328,-569 1375.3955,-478.1036 1351,-442.0109 1351,-339.5 1351,-339.5 1351,-339.5 1351,-284.5 1351,-231.0243 1366.9223,-169.4502 1375.9447,-138.8519"/>
<polygon fill="#63b8ff" stroke="#63b8ff" points="1379.3636,-139.638 1378.9143,-129.0527 1372.6644,-137.6078 1379.3636,-139.638"/>
</g>
<!-- Node48&#45;&gt;Node35 -->
<g id="edge100" class="edge">
<title>Node48&#45;&gt;Node35</title>
<path fill="none" stroke="#63b8ff" d="M1294.0177,-610.9166C1332.8366,-603.5444 1423.9519,-585.9447 1500,-569 1501.4454,-568.6779 1502.9196,-568.3439 1504.4078,-568.002"/>
<polygon fill="#63b8ff" stroke="#63b8ff" points="1505.3454,-571.3771 1514.2768,-565.6778 1503.7407,-564.5635 1505.3454,-571.3771"/>
</g>
<!-- Node48&#45;&gt;Node42 -->
<g id="edge98" class="edge">
<title>Node48&#45;&gt;Node42</title>
<path fill="none" stroke="#63b8ff" d="M1255.7906,-607.1752C1191.6659,-581.3389 989,-487.9418 989,-339.5 989,-339.5 989,-339.5 989,-284.5 989,-248.6297 1012.6865,-212.4662 1028.971,-191.8423"/>
<polygon fill="#63b8ff" stroke="#63b8ff" points="1031.7677,-193.9515 1035.4063,-184.001 1026.3567,-189.5107 1031.7677,-193.9515"/>
</g>
<!-- Node49 -->
<g id="node49" class="node">
<title>Node49</title>
<g id="a_node49"><a xlink:title=" ">
<polygon fill="#e0e0e0" stroke="#999999" points="1319.5,-569 1278.5,-569 1278.5,-550 1319.5,-550 1319.5,-569"/>
<text text-anchor="middle" x="1299" y="-557" font-family="Helvetica,sans-Serif" font-size="10.00" fill="#000000">ctime</text>
</a>
</g>
</g>
<!-- Node48&#45;&gt;Node49 -->
<g id="edge99" class="edge">
<title>Node48&#45;&gt;Node49</title>
<path fill="none" stroke="#63b8ff" d="M1279.1805,-604.9197C1282.342,-597.6746 1286.7861,-587.4903 1290.665,-578.601"/>
<polygon fill="#63b8ff" stroke="#63b8ff" points="1293.9142,-579.9061 1294.7058,-569.3408 1287.4984,-577.1064 1293.9142,-579.9061"/>
</g>
<!-- Node50 -->
<g id="node50" class="node">
<title>Node50</title>
<g id="a_node50"><a xlink:href="../../de/d9c/docparser_8h.html" target="_top" xlink:title=" ">
<polygon fill="#ffffff" stroke="#666666" points="809,-239 741,-239 741,-220 809,-220 809,-239"/>
<text text-anchor="middle" x="775" y="-227" font-family="Helvetica,sans-Serif" font-size="10.00" fill="#000000">docparser.h</text>
</a>
</g>
</g>
<!-- Node48&#45;&gt;Node50 -->
<g id="edge102" class="edge">
<title>Node48&#45;&gt;Node50</title>
<path fill="none" stroke="#63b8ff" d="M1255.693,-612.1413C1205.3923,-605.8007 1071.4146,-587.6059 1031,-569 989.5129,-549.9003 951,-550.1725 951,-504.5 951,-504.5 951,-504.5 951,-339.5 951,-277.5127 871.5219,-249.1622 819.3838,-237.233"/>
<polygon fill="#63b8ff" stroke="#63b8ff" points="819.8666,-233.7565 809.3524,-235.061 818.3852,-240.598 819.8666,-233.7565"/>
</g>
<!-- Node53 -->
<g id="node53" class="node">
<title>Node53</title>
<g id="a_node53"><a xlink:href="../../df/d06/outputgen_8h.html" target="_top" xlink:title=" ">
<polygon fill="#ffffff" stroke="#666666" points="1123,-294 1055,-294 1055,-275 1123,-275 1123,-294"/>
<text text-anchor="middle" x="1089" y="-282" font-family="Helvetica,sans-Serif" font-size="10.00" fill="#000000">outputgen.h</text>
</a>
</g>
</g>
<!-- Node48&#45;&gt;Node53 -->
<g id="edge111" class="edge">
<title>Node48&#45;&gt;Node53</title>
<path fill="none" stroke="#63b8ff" d="M1255.9066,-612.9805C1207.5676,-608.7746 1081.9884,-595.5003 1051,-569 1027.7541,-549.1208 1027,-535.0869 1027,-504.5 1027,-504.5 1027,-504.5 1027,-394.5 1027,-357.6996 1053.6602,-321.8623 1072.016,-301.5493"/>
<polygon fill="#63b8ff" stroke="#63b8ff" points="1074.7416,-303.7598 1079.0386,-294.0754 1069.6403,-298.9664 1074.7416,-303.7598"/>
</g>
<!-- Node56 -->
<g id="node56" class="node">
<title>Node56</title>
<g id="a_node56"><a xlink:href="../../d1/d21/regex_8h.html" target="_top" xlink:title=" ">
<polygon fill="#ffffff" stroke="#666666" points="608.5,-184 559.5,-184 559.5,-165 608.5,-165 608.5,-184"/>
<text text-anchor="middle" x="584" y="-172" font-family="Helvetica,sans-Serif" font-size="10.00" fill="#000000">regex.h</text>
</a>
</g>
</g>
<!-- Node48&#45;&gt;Node56 -->
<g id="edge126" class="edge">
<title>Node48&#45;&gt;Node56</title>
<path fill="none" stroke="#63b8ff" d="M1255.9438,-613.6002C1173.1468,-609.5625 847.0455,-592.292 808,-569 662.2157,-482.0348 603.1312,-261.8724 588.094,-194.4387"/>
<polygon fill="#63b8ff" stroke="#63b8ff" points="591.443,-193.3644 585.9182,-184.3241 584.5996,-194.8365 591.443,-193.3644"/>
</g>
<!-- Node57 -->
<g id="node57" class="node">
<title>Node57</title>
<g id="a_node57"><a xlink:href="../../da/df1/conceptdef_8h.html" target="_top" xlink:title=" ">
<polygon fill="#ffffff" stroke="#666666" points="1922.5,-569 1849.5,-569 1849.5,-550 1922.5,-550 1922.5,-569"/>
<text text-anchor="middle" x="1886" y="-557" font-family="Helvetica,sans-Serif" font-size="10.00" fill="#000000">conceptdef.h</text>
</a>
</g>
</g>
<!-- Node48&#45;&gt;Node57 -->
<g id="edge131" class="edge">
<title>Node48&#45;&gt;Node57</title>
<path fill="none" stroke="#63b8ff" d="M1294.2952,-612.7631C1378.4441,-605.1883 1714.6713,-574.9224 1839.2524,-563.7081"/>
<polygon fill="#63b8ff" stroke="#63b8ff" points="1839.6012,-567.1909 1849.2471,-562.8084 1838.9736,-560.2191 1839.6012,-567.1909"/>
</g>
<!-- Node50&#45;&gt;Node2 -->
<g id="edge103" class="edge">
<title>Node50&#45;&gt;Node2</title>
<path fill="none" stroke="#63b8ff" d="M740.811,-224.8107C664.8111,-214.3868 482.6341,-189.3999 407.3873,-179.0793"/>
<polygon fill="#63b8ff" stroke="#63b8ff" points="407.4694,-175.5579 397.0866,-177.6665 406.5182,-182.493 407.4694,-175.5579"/>
</g>
<!-- Node50&#45;&gt;Node8 -->
<g id="edge104" class="edge">
<title>Node50&#45;&gt;Node8</title>
<path fill="none" stroke="#63b8ff" d="M770.9559,-219.5621C766.2099,-206.1996 760.1546,-182.1412 770,-165 779.182,-149.0138 796.3867,-138.1136 812.3062,-130.9999"/>
<polygon fill="#63b8ff" stroke="#63b8ff" points="814.038,-134.0731 821.9691,-127.0483 811.3883,-127.5939 814.038,-134.0731"/>
</g>
<!-- Node50&#45;&gt;Node20 -->
<g id="edge105" class="edge">
<title>Node50&#45;&gt;Node20</title>
<path fill="none" stroke="#63b8ff" d="M809.2801,-225.9955C969.1273,-209.6543 1640.7006,-140.999 1811.4036,-123.548"/>
<polygon fill="#63b8ff" stroke="#63b8ff" points="1811.8656,-127.0191 1821.4577,-122.5201 1811.1536,-120.0554 1811.8656,-127.0191"/>
</g>
<!-- Node51 -->
<g id="node51" class="node">
<title>Node51</title>
<g id="a_node51"><a xlink:href="../../d7/d50/growvector_8h.html" target="_top" xlink:title=" ">
<polygon fill="#ffffff" stroke="#666666" points="852.5,-184 779.5,-184 779.5,-165 852.5,-165 852.5,-184"/>
<text text-anchor="middle" x="816" y="-172" font-family="Helvetica,sans-Serif" font-size="10.00" fill="#000000">growvector.h</text>
</a>
</g>
</g>
<!-- Node50&#45;&gt;Node51 -->
<g id="edge106" class="edge">
<title>Node50&#45;&gt;Node51</title>
<path fill="none" stroke="#63b8ff" d="M782.1417,-219.9197C787.7749,-212.363 795.7917,-201.6087 802.6105,-192.4616"/>
<polygon fill="#63b8ff" stroke="#63b8ff" points="805.4935,-194.4501 808.6641,-184.3408 799.8813,-190.2665 805.4935,-194.4501"/>
</g>
<!-- Node51&#45;&gt;Node8 -->
<g id="edge108" class="edge">
<title>Node51&#45;&gt;Node8</title>
<path fill="none" stroke="#63b8ff" d="M821.574,-164.9197C825.88,-157.5188 831.9704,-147.0509 837.2193,-138.0294"/>
<polygon fill="#63b8ff" stroke="#63b8ff" points="840.2707,-139.7445 842.2744,-129.3408 834.2202,-136.2242 840.2707,-139.7445"/>
</g>
<!-- Node51&#45;&gt;Node16 -->
<g id="edge107" class="edge">
<title>Node51&#45;&gt;Node16</title>
<path fill="none" stroke="#63b8ff" d="M852.5404,-171.2308C876.7632,-169.1682 909.258,-166.6005 938,-165 1207.6575,-149.9843 2082.26,-125.3608 2261.6613,-120.3906"/>
<polygon fill="#63b8ff" stroke="#63b8ff" points="2261.8752,-123.8861 2271.7745,-120.1109 2261.6815,-116.8888 2261.8752,-123.8861"/>
</g>
<!-- Node52 -->
<g id="node52" class="node">
<title>Node52</title>
<g id="a_node52"><a xlink:title=" ">
<polygon fill="#e0e0e0" stroke="#999999" points="775.5,-129 728.5,-129 728.5,-110 775.5,-110 775.5,-129"/>
<text text-anchor="middle" x="752" y="-117" font-family="Helvetica,sans-Serif" font-size="10.00" fill="#000000">iterator</text>
</a>
</g>
</g>
<!-- Node51&#45;&gt;Node52 -->
<g id="edge109" class="edge">
<title>Node51&#45;&gt;Node52</title>
<path fill="none" stroke="#63b8ff" d="M804.8521,-164.9197C795.6055,-156.9735 782.2447,-145.4916 771.2704,-136.0605"/>
<polygon fill="#63b8ff" stroke="#63b8ff" points="773.3166,-133.2041 763.4511,-129.3408 768.7542,-138.513 773.3166,-133.2041"/>
</g>
<!-- Node53&#45;&gt;Node8 -->
<g id="edge112" class="edge">
<title>Node53&#45;&gt;Node8</title>
<path fill="none" stroke="#63b8ff" d="M1073.4225,-274.9344C1058.7523,-265.8604 1036.2204,-251.7546 1017,-239 962.8107,-203.0401 900.7745,-158.1984 869.0706,-135.0063"/>
<polygon fill="#63b8ff" stroke="#63b8ff" points="871.099,-132.1536 860.9645,-129.0644 866.9606,-137.7993 871.099,-132.1536"/>
</g>
<!-- Node53&#45;&gt;Node14 -->
<g id="edge114" class="edge">
<title>Node53&#45;&gt;Node14</title>
<path fill="none" stroke="#63b8ff" d="M1077.8821,-274.9264C1067.4315,-265.8468 1051.4314,-251.7372 1038,-239 1021.5063,-223.3588 1003.3038,-204.8906 990.5415,-191.7333"/>
<polygon fill="#63b8ff" stroke="#63b8ff" points="992.8269,-189.0614 983.3622,-184.3001 987.7919,-193.9245 992.8269,-189.0614"/>
</g>
<!-- Node53&#45;&gt;Node19 -->
<g id="edge116" class="edge">
<title>Node53&#45;&gt;Node19</title>
<path fill="none" stroke="#63b8ff" d="M1123.0313,-281.5426C1146.3692,-279.5622 1178.0476,-276.9676 1206,-275 1474.2571,-256.117 1543.8475,-277.4873 1810,-239 1812.0903,-238.6977 1814.2313,-238.3426 1816.3849,-237.9504"/>
<polygon fill="#63b8ff" stroke="#63b8ff" points="1817.3129,-241.3332 1826.411,-235.9042 1815.9131,-234.4746 1817.3129,-241.3332"/>
</g>
<!-- Node53&#45;&gt;Node33 -->
<g id="edge113" class="edge">
<title>Node53&#45;&gt;Node33</title>
<path fill="none" stroke="#63b8ff" d="M1086.7356,-274.9197C1085.0599,-267.8304 1082.7191,-257.9269 1080.6508,-249.1763"/>
<polygon fill="#63b8ff" stroke="#63b8ff" points="1084.0325,-248.2676 1078.326,-239.3408 1077.2202,-249.8778 1084.0325,-248.2676"/>
</g>
<!-- Node53&#45;&gt;Node41 -->
<g id="edge124" class="edge">
<title>Node53&#45;&gt;Node41</title>
<path fill="none" stroke="#63b8ff" d="M1123.0764,-281.6911C1213.0499,-274.198 1456.3913,-253.4174 1557.0653,-238.9442"/>
<polygon fill="#63b8ff" stroke="#63b8ff" points="1557.8301,-242.369 1567.2045,-237.4322 1556.7976,-235.4455 1557.8301,-242.369"/>
</g>
<!-- Node53&#45;&gt;Node42 -->
<g id="edge115" class="edge">
<title>Node53&#45;&gt;Node42</title>
<path fill="none" stroke="#63b8ff" d="M1075.7958,-274.9691C1065.583,-266.7394 1052.1762,-253.8528 1046,-239 1040.1445,-224.9184 1039.9507,-207.5752 1041.0531,-194.4205"/>
<polygon fill="#63b8ff" stroke="#63b8ff" points="1044.5716,-194.4622 1042.2459,-184.1258 1037.6181,-193.6565 1044.5716,-194.4622"/>
</g>
<!-- Node53&#45;&gt;Node50 -->
<g id="edge125" class="edge">
<title>Node53&#45;&gt;Node50</title>
<path fill="none" stroke="#63b8ff" d="M1054.7988,-278.5093C997.5833,-268.4875 882.5201,-248.3331 819.2291,-237.2471"/>
<polygon fill="#63b8ff" stroke="#63b8ff" points="819.613,-233.7612 809.1591,-235.4833 818.4052,-240.6562 819.613,-233.7612"/>
</g>
<!-- Node54 -->
<g id="node54" class="node">
<title>Node54</title>
<g id="a_node54"><a xlink:href="../../d1/db5/index_8h.html" target="_top" xlink:title=" ">
<polygon fill="#ffffff" stroke="#666666" points="1823,-184 1775,-184 1775,-165 1823,-165 1823,-184"/>
<text text-anchor="middle" x="1799" y="-172" font-family="Helvetica,sans-Serif" font-size="10.00" fill="#000000">index.h</text>
</a>
</g>
</g>
<!-- Node53&#45;&gt;Node54 -->
<g id="edge117" class="edge">
<title>Node53&#45;&gt;Node54</title>
<path fill="none" stroke="#63b8ff" d="M1123.0993,-281.7292C1244.373,-271.8742 1647.5991,-239.1018 1648,-239 1668.2511,-233.8584 1671.8164,-228.2785 1691,-220 1716.2717,-209.0943 1744.9932,-197.0087 1766.4614,-188.0357"/>
<polygon fill="#63b8ff" stroke="#63b8ff" points="1767.8963,-191.2295 1775.7763,-184.1474 1765.1998,-184.7697 1767.8963,-191.2295"/>
</g>
<!-- Node55 -->
<g id="node55" class="node">
<title>Node55</title>
<g id="a_node55"><a xlink:href="../../d1/d2a/section_8h.html" target="_top" xlink:title=" ">
<polygon fill="#ffffff" stroke="#666666" points="1549,-239 1493,-239 1493,-220 1549,-220 1549,-239"/>
<text text-anchor="middle" x="1521" y="-227" font-family="Helvetica,sans-Serif" font-size="10.00" fill="#000000">section.h</text>
</a>
</g>
</g>
<!-- Node53&#45;&gt;Node55 -->
<g id="edge119" class="edge">
<title>Node53&#45;&gt;Node55</title>
<path fill="none" stroke="#63b8ff" d="M1123.2594,-280.1383C1202.7776,-270.0144 1399.4211,-244.9788 1482.7265,-234.3728"/>
<polygon fill="#63b8ff" stroke="#63b8ff" points="1483.2976,-237.8284 1492.7754,-233.0934 1482.4134,-230.8845 1483.2976,-237.8284"/>
</g>
<!-- Node54&#45;&gt;Node20 -->
<g id="edge118" class="edge">
<title>Node54&#45;&gt;Node20</title>
<path fill="none" stroke="#63b8ff" d="M1808.0577,-164.9197C1815.4232,-157.1293 1826.0017,-145.9405 1834.8161,-136.6176"/>
<polygon fill="#63b8ff" stroke="#63b8ff" points="1837.3691,-139.0119 1841.6959,-129.3408 1832.2825,-134.2028 1837.3691,-139.0119"/>
</g>
<!-- Node55&#45;&gt;Node7 -->
<g id="edge120" class="edge">
<title>Node55&#45;&gt;Node7</title>
<path fill="none" stroke="#63b8ff" d="M1492.7628,-224.0863C1449.0576,-214.0176 1366.3836,-187.843 1331,-129 1312.3183,-97.9323 1310.1895,-54.4477 1310.7861,-29.4043"/>
<polygon fill="#63b8ff" stroke="#63b8ff" points="1314.2874,-29.4422 1311.2023,-19.3065 1307.2934,-29.1538 1314.2874,-29.4422"/>
</g>
<!-- Node55&#45;&gt;Node20 -->
<g id="edge122" class="edge">
<title>Node55&#45;&gt;Node20</title>
<path fill="none" stroke="#63b8ff" d="M1511.5185,-219.6548C1499.4806,-205.9624 1481.8776,-181.048 1496,-165 1516.5857,-141.6075 1722.8779,-126.938 1811.2065,-121.684"/>
<polygon fill="#63b8ff" stroke="#63b8ff" points="1811.5943,-125.1674 1821.3731,-121.09 1811.1859,-118.1793 1811.5943,-125.1674"/>
</g>
<!-- Node55&#45;&gt;Node32 -->
<g id="edge121" class="edge">
<title>Node55&#45;&gt;Node32</title>
<path fill="none" stroke="#63b8ff" d="M1492.6321,-220.6555C1472.1854,-213.2515 1444.8156,-201.1252 1425,-184 1410.4151,-171.3954 1398.6898,-152.7038 1391.19,-138.6826"/>
<polygon fill="#63b8ff" stroke="#63b8ff" points="1394.1485,-136.7788 1386.4953,-129.4522 1387.9091,-139.9522 1394.1485,-136.7788"/>
</g>
<!-- Node55&#45;&gt;Node40 -->
<g id="edge123" class="edge">
<title>Node55&#45;&gt;Node40</title>
<path fill="none" stroke="#63b8ff" d="M1549.1404,-222.0736C1552.4516,-221.3161 1555.7923,-220.6044 1559,-220 1588.882,-214.3699 1780.6286,-190.7468 1869.2299,-179.939"/>
<polygon fill="#63b8ff" stroke="#63b8ff" points="1869.7495,-183.4017 1879.2525,-178.7174 1868.9025,-176.4531 1869.7495,-183.4017"/>
</g>
<!-- Node56&#45;&gt;Node7 -->
<g id="edge128" class="edge">
<title>Node56&#45;&gt;Node7</title>
<path fill="none" stroke="#63b8ff" d="M600.4314,-164.7917C625.2529,-150.5628 674.1803,-124.1989 719,-110 927.5554,-43.9297 1191.9283,-18.6904 1281.0688,-11.7025"/>
<polygon fill="#63b8ff" stroke="#63b8ff" points="1281.587,-15.1732 1291.2914,-10.9217 1281.0539,-8.1935 1281.587,-15.1732"/>
</g>
<!-- Node56&#45;&gt;Node8 -->
<g id="edge127" class="edge">
<title>Node56&#45;&gt;Node8</title>
<path fill="none" stroke="#63b8ff" d="M608.7232,-168.3222C613.4548,-167.184 618.3746,-166.0306 623,-165 689.4426,-150.1956 767.3865,-134.8912 811.9056,-126.3445"/>
<polygon fill="#63b8ff" stroke="#63b8ff" points="812.7813,-129.7405 821.9451,-124.423 811.4654,-122.8653 812.7813,-129.7405"/>
</g>
<!-- Node56&#45;&gt;Node16 -->
<g id="edge129" class="edge">
<title>Node56&#45;&gt;Node16</title>
<path fill="none" stroke="#63b8ff" d="M608.6637,-173.0737C644.2749,-171.0522 712.1699,-167.3399 770,-165 1368.5299,-140.7829 2099.7762,-123.8259 2261.3907,-120.2173"/>
<polygon fill="#63b8ff" stroke="#63b8ff" points="2261.7006,-123.7113 2271.6202,-119.9897 2261.5448,-116.7131 2261.7006,-123.7113"/>
</g>
<!-- Node56&#45;&gt;Node52 -->
<g id="edge130" class="edge">
<title>Node56&#45;&gt;Node52</title>
<path fill="none" stroke="#63b8ff" d="M608.789,-166.3846C637.8621,-156.8666 686.1891,-141.0452 718.5611,-130.4473"/>
<polygon fill="#63b8ff" stroke="#63b8ff" points="720.0515,-133.6422 728.4662,-127.2045 717.8735,-126.9896 720.0515,-133.6422"/>
</g>
<!-- Node58 -->
<g id="node58" class="node">
<title>Node58</title>
<g id="a_node58"><a xlink:href="../../df/da1/definition_8h.html" target="_top" xlink:title=" ">
<polygon fill="#ffffff" stroke="#666666" points="2052,-294 1988,-294 1988,-275 2052,-275 2052,-294"/>
<text text-anchor="middle" x="2020" y="-282" font-family="Helvetica,sans-Serif" font-size="10.00" fill="#000000">definition.h</text>
</a>
</g>
</g>
<!-- Node57&#45;&gt;Node58 -->
<g id="edge132" class="edge">
<title>Node57&#45;&gt;Node58</title>
<path fill="none" stroke="#63b8ff" d="M1922.5923,-553.8321C2001.7873,-540.5328 2182,-504.2541 2182,-449.5 2182,-449.5 2182,-449.5 2182,-394.5 2182,-363.2518 2098.4606,-320.1583 2051.362,-298.3458"/>
<polygon fill="#63b8ff" stroke="#63b8ff" points="2052.7357,-295.1255 2042.1857,-294.1514 2049.8256,-301.4919 2052.7357,-295.1255"/>
</g>
<!-- Node59 -->
<g id="node59" class="node">
<title>Node59</title>
<g id="a_node59"><a xlink:href="../../d4/d3a/filedef_8h.html" target="_top" xlink:title=" ">
<polygon fill="#ffffff" stroke="#666666" points="1911.5,-514 1860.5,-514 1860.5,-495 1911.5,-495 1911.5,-514"/>
<text text-anchor="middle" x="1886" y="-502" font-family="Helvetica,sans-Serif" font-size="10.00" fill="#000000">filedef.h</text>
</a>
</g>
</g>
<!-- Node57&#45;&gt;Node59 -->
<g id="edge136" class="edge">
<title>Node57&#45;&gt;Node59</title>
<path fill="none" stroke="#63b8ff" d="M1886,-549.9197C1886,-542.9083 1886,-533.1442 1886,-524.4652"/>
<polygon fill="#63b8ff" stroke="#63b8ff" points="1889.5001,-524.3408 1886,-514.3408 1882.5001,-524.3409 1889.5001,-524.3408"/>
</g>
<!-- Node58&#45;&gt;Node16 -->
<g id="edge133" class="edge">
<title>Node58&#45;&gt;Node16</title>
<path fill="none" stroke="#63b8ff" d="M2042.3391,-274.8898C2079.275,-258.5646 2154.7754,-223.335 2213,-184 2235.2457,-168.9714 2259.1027,-149.5264 2275.1201,-135.9324"/>
<polygon fill="#63b8ff" stroke="#63b8ff" points="2277.8376,-138.2129 2283.1522,-129.0474 2273.2819,-132.8982 2277.8376,-138.2129"/>
</g>
<!-- Node58&#45;&gt;Node19 -->
<g id="edge134" class="edge">
<title>Node58&#45;&gt;Node19</title>
<path fill="none" stroke="#63b8ff" d="M1990.5624,-274.9197C1961.3345,-265.4077 1916.5392,-250.8293 1885.6207,-240.7671"/>
<polygon fill="#63b8ff" stroke="#63b8ff" points="1886.302,-237.3082 1875.7097,-237.5416 1884.1357,-243.9646 1886.302,-237.3082"/>
</g>
<!-- Node58&#45;&gt;Node39 -->
<g id="edge135" class="edge">
<title>Node58&#45;&gt;Node39</title>
<path fill="none" stroke="#63b8ff" d="M2011.9874,-274.9197C2005.6021,-267.2851 1996.487,-256.3867 1988.7862,-247.1792"/>
<polygon fill="#63b8ff" stroke="#63b8ff" points="1991.3309,-244.7662 1982.2305,-239.3408 1985.9613,-249.2571 1991.3309,-244.7662"/>
</g>
<!-- Node59&#45;&gt;Node29 -->
<g id="edge164" class="edge">
<title>Node59&#45;&gt;Node29</title>
<path fill="none" stroke="#63b8ff" d="M1860.4944,-497.809C1828.9457,-489.3936 1773.6864,-474.1978 1727,-459 1558.8842,-404.2734 1361.514,-328.2326 1283.8346,-297.833"/>
<polygon fill="#63b8ff" stroke="#63b8ff" points="1284.6966,-294.4116 1274.109,-294.0204 1282.1418,-300.9288 1284.6966,-294.4116"/>
</g>
<!-- Node59&#45;&gt;Node30 -->
<g id="edge137" class="edge">
<title>Node59&#45;&gt;Node30</title>
<path fill="none" stroke="#63b8ff" d="M1882.4409,-494.7126C1867.8606,-454.6166 1812.5408,-302.4872 1792.9381,-248.5797"/>
<polygon fill="#63b8ff" stroke="#63b8ff" points="1796.2232,-247.3719 1789.5164,-239.1701 1789.6446,-249.7642 1796.2232,-247.3719"/>
</g>
<!-- Node59&#45;&gt;Node58 -->
<g id="edge138" class="edge">
<title>Node59&#45;&gt;Node58</title>
<path fill="none" stroke="#63b8ff" d="M1911.6615,-500.932C1953.0199,-494.6203 2031.5583,-480.1281 2049,-459 2085.5884,-414.6784 2077.5943,-384.0294 2058,-330 2054.1052,-319.2605 2046.4438,-309.28 2039.0144,-301.4193"/>
<polygon fill="#63b8ff" stroke="#63b8ff" points="2041.3883,-298.8449 2031.8103,-294.3157 2036.4734,-303.8292 2041.3883,-298.8449"/>
</g>
<!-- Node60 -->
<g id="node60" class="node">
<title>Node60</title>
<g id="a_node60"><a xlink:href="../../dd/d78/memberlist_8h.html" target="_top" xlink:title=" ">
<polygon fill="#ffffff" stroke="#666666" points="2039.5,-459 1966.5,-459 1966.5,-440 2039.5,-440 2039.5,-459"/>
<text text-anchor="middle" x="2003" y="-447" font-family="Helvetica,sans-Serif" font-size="10.00" fill="#000000">memberlist.h</text>
</a>
</g>
</g>
<!-- Node59&#45;&gt;Node60 -->
<g id="edge139" class="edge">
<title>Node59&#45;&gt;Node60</title>
<path fill="none" stroke="#63b8ff" d="M1906.3798,-494.9197C1924.8888,-486.219 1952.4152,-473.2792 1973.358,-463.4343"/>
<polygon fill="#63b8ff" stroke="#63b8ff" points="1974.9002,-466.5768 1982.4611,-459.155 1971.9222,-460.2418 1974.9002,-466.5768"/>
</g>
<!-- Node60&#45;&gt;Node16 -->
<g id="edge140" class="edge">
<title>Node60&#45;&gt;Node16</title>
<path fill="none" stroke="#63b8ff" d="M2039.6036,-445.176C2109.8705,-435.7574 2267.1376,-409.2124 2385,-349 2419.3082,-331.473 2428.5305,-324.5521 2452,-294 2486.9938,-248.4458 2501.2683,-204.9584 2460,-165 2440.9605,-146.5649 2368.6132,-131.8329 2325.9692,-124.5226"/>
<polygon fill="#63b8ff" stroke="#63b8ff" points="2326.5136,-121.0651 2316.0733,-122.8678 2325.359,-127.9692 2326.5136,-121.0651"/>
</g>
<!-- Node60&#45;&gt;Node19 -->
<g id="edge162" class="edge">
<title>Node60&#45;&gt;Node19</title>
<path fill="none" stroke="#63b8ff" d="M1966.7909,-439.9508C1945.3768,-432.8461 1918.8474,-421.338 1900,-404 1859.9179,-367.1279 1857.1255,-347.3137 1846,-294 1842.9123,-279.2036 1844.4527,-262.139 1846.6087,-249.2801"/>
<polygon fill="#63b8ff" stroke="#63b8ff" points="1850.0907,-249.709 1848.5608,-239.2252 1843.219,-248.3748 1850.0907,-249.709"/>
</g>
<!-- Node60&#45;&gt;Node21 -->
<g id="edge141" class="edge">
<title>Node60&#45;&gt;Node21</title>
<path fill="none" stroke="#63b8ff" d="M2039.8415,-446.2817C2093.9577,-440.9362 2197.7544,-428.3229 2283,-404 2344.1164,-386.5618 2361.8788,-383.892 2415,-349 2444.4241,-329.6731 2451.6906,-322.7548 2472,-294 2505.1566,-247.0559 2509.6965,-214.7958 2481,-165 2461.2172,-130.6718 2427.3164,-99.0336 2405.5477,-80.7578"/>
<polygon fill="#63b8ff" stroke="#63b8ff" points="2407.5296,-77.8562 2397.5815,-74.2112 2403.0852,-83.2644 2407.5296,-77.8562"/>
</g>
<!-- Node60&#45;&gt;Node40 -->
<g id="edge161" class="edge">
<title>Node60&#45;&gt;Node40</title>
<path fill="none" stroke="#63b8ff" d="M2019.8754,-439.9715C2063.3401,-414.1813 2172.8731,-340.5386 2131,-275 2093.0694,-215.632 2010.0818,-190.8116 1958.4337,-180.8235"/>
<polygon fill="#63b8ff" stroke="#63b8ff" points="1959.0107,-177.371 1948.5446,-179.0178 1957.7532,-184.2572 1959.0107,-177.371"/>
</g>
<!-- Node61 -->
<g id="node61" class="node">
<title>Node61</title>
<g id="a_node61"><a xlink:href="../../d4/d46/memberdef_8h.html" target="_top" xlink:title=" ">
<polygon fill="#ffffff" stroke="#666666" points="2040,-404 1966,-404 1966,-385 2040,-385 2040,-404"/>
<text text-anchor="middle" x="2003" y="-392" font-family="Helvetica,sans-Serif" font-size="10.00" fill="#000000">memberdef.h</text>
</a>
</g>
</g>
<!-- Node60&#45;&gt;Node61 -->
<g id="edge142" class="edge">
<title>Node60&#45;&gt;Node61</title>
<path fill="none" stroke="#63b8ff" d="M2003,-439.9197C2003,-432.9083 2003,-423.1442 2003,-414.4652"/>
<polygon fill="#63b8ff" stroke="#63b8ff" points="2006.5001,-414.3408 2003,-404.3408 1999.5001,-414.3409 2006.5001,-414.3408"/>
</g>
<!-- Node64 -->
<g id="node64" class="node">
<title>Node64</title>
<g id="a_node64"><a xlink:href="../../d9/d11/membergroup_8h.html" target="_top" xlink:title=" ">
<polygon fill="#ffffff" stroke="#666666" points="1970,-294 1886,-294 1886,-275 1970,-275 1970,-294"/>
<text text-anchor="middle" x="1928" y="-282" font-family="Helvetica,sans-Serif" font-size="10.00" fill="#000000">membergroup.h</text>
</a>
</g>
</g>
<!-- Node60&#45;&gt;Node64 -->
<g id="edge163" class="edge">
<title>Node60&#45;&gt;Node64</title>
<path fill="none" stroke="#63b8ff" d="M1981.5575,-439.9409C1951.674,-425.2819 1898.7296,-394.1271 1877,-349 1868.0342,-330.3802 1885.5173,-312.1932 1902.4032,-299.9038"/>
<polygon fill="#63b8ff" stroke="#63b8ff" points="1904.7278,-302.5561 1911.0357,-294.0438 1900.7962,-296.7645 1904.7278,-302.5561"/>
</g>
<!-- Node61&#45;&gt;Node8 -->
<g id="edge144" class="edge">
<title>Node61&#45;&gt;Node8</title>
<path fill="none" stroke="#63b8ff" d="M1965.9157,-393.3886C1811.2245,-388.3304 1217.4709,-364.5993 1046,-294 962.414,-259.5853 890.0694,-174.5822 861.2795,-137.3985"/>
<polygon fill="#63b8ff" stroke="#63b8ff" points="863.7579,-134.8754 854.9182,-129.0351 858.1865,-139.1133 863.7579,-134.8754"/>
</g>
<!-- Node61&#45;&gt;Node16 -->
<g id="edge143" class="edge">
<title>Node61&#45;&gt;Node16</title>
<path fill="none" stroke="#63b8ff" d="M2040.2022,-392.7411C2118.8964,-388.53 2299.4689,-376.1358 2354,-349 2415.3388,-318.4766 2436.0716,-302.418 2462,-239 2472.2469,-213.9373 2441.7385,-165.6923 2441,-165 2424.2979,-149.3429 2364.0735,-134.2568 2326.0872,-125.9947"/>
<polygon fill="#63b8ff" stroke="#63b8ff" points="2326.5272,-122.51 2316.0175,-123.8505 2325.0692,-129.3565 2326.5272,-122.51"/>
</g>
<!-- Node61&#45;&gt;Node19 -->
<g id="edge146" class="edge">
<title>Node61&#45;&gt;Node19</title>
<path fill="none" stroke="#63b8ff" d="M1965.8838,-390.7168C1937.4666,-385.8287 1899.4475,-374.6327 1877,-349 1852.5085,-321.0332 1849.3564,-275.4221 1849.8104,-249.3845"/>
<polygon fill="#63b8ff" stroke="#63b8ff" points="1853.3138,-249.356 1850.1914,-239.2317 1846.3187,-249.0934 1853.3138,-249.356"/>
</g>
<!-- Node61&#45;&gt;Node38 -->
<g id="edge148" class="edge">
<title>Node61&#45;&gt;Node38</title>
<path fill="none" stroke="#63b8ff" d="M2040.0217,-393.3681C2115.4958,-390.4271 2283.9859,-380.4357 2331,-349 2366.8197,-325.0493 2386.7929,-276.0695 2395.5523,-248.8407"/>
<polygon fill="#63b8ff" stroke="#63b8ff" points="2398.906,-249.842 2398.4586,-239.2566 2392.2072,-247.8106 2398.906,-249.842"/>
</g>
<!-- Node61&#45;&gt;Node58 -->
<g id="edge147" class="edge">
<title>Node61&#45;&gt;Node58</title>
<path fill="none" stroke="#63b8ff" d="M2015.4182,-384.8156C2024.9969,-376.4969 2037.5079,-363.5653 2043,-349 2048.8729,-333.4246 2041.4414,-315.5922 2033.502,-302.6309"/>
<polygon fill="#63b8ff" stroke="#63b8ff" points="2036.293,-300.5088 2027.8141,-294.1559 2030.4807,-304.4097 2036.293,-300.5088"/>
</g>
<!-- Node62 -->
<g id="node62" class="node">
<title>Node62</title>
<g id="a_node62"><a xlink:title=" ">
<polygon fill="#e0e0e0" stroke="#999999" points="1954,-349 1886,-349 1886,-330 1954,-330 1954,-349"/>
<text text-anchor="middle" x="1920" y="-337" font-family="Helvetica,sans-Serif" font-size="10.00" fill="#000000">sys/types.h</text>
</a>
</g>
</g>
<!-- Node61&#45;&gt;Node62 -->
<g id="edge145" class="edge">
<title>Node61&#45;&gt;Node62</title>
<path fill="none" stroke="#63b8ff" d="M1988.5425,-384.9197C1976.0037,-376.6109 1957.6312,-364.4363 1943.0632,-354.7828"/>
<polygon fill="#63b8ff" stroke="#63b8ff" points="1944.8396,-351.7613 1934.5703,-349.155 1940.9729,-357.5964 1944.8396,-351.7613"/>
</g>
<!-- Node63 -->
<g id="node63" class="node">
<title>Node63</title>
<g id="a_node63"><a xlink:href="../../d1/da6/classdef_8h.html" target="_top" xlink:title=" ">
<polygon fill="#ffffff" stroke="#666666" points="2034,-349 1972,-349 1972,-330 2034,-330 2034,-349"/>
<text text-anchor="middle" x="2003" y="-337" font-family="Helvetica,sans-Serif" font-size="10.00" fill="#000000">classdef.h</text>
</a>
</g>
</g>
<!-- Node61&#45;&gt;Node63 -->
<g id="edge149" class="edge">
<title>Node61&#45;&gt;Node63</title>
<path fill="none" stroke="#63b8ff" d="M2003,-384.9197C2003,-377.9083 2003,-368.1442 2003,-359.4652"/>
<polygon fill="#63b8ff" stroke="#63b8ff" points="2006.5001,-359.3408 2003,-349.3408 1999.5001,-359.3409 2006.5001,-359.3408"/>
</g>
<!-- Node63&#45;&gt;Node16 -->
<g id="edge150" class="edge">
<title>Node63&#45;&gt;Node16</title>
<path fill="none" stroke="#63b8ff" d="M2034.0562,-337.5589C2126.5689,-331.0433 2396.937,-306.4401 2446,-239 2462.6185,-216.1569 2434.9348,-178.5787 2420,-165 2393.7546,-141.1379 2354.0595,-129.5586 2326.2559,-124.0963"/>
<polygon fill="#63b8ff" stroke="#63b8ff" points="2326.6973,-120.6195 2316.2349,-122.2895 2325.4552,-127.5085 2326.6973,-120.6195"/>
</g>
<!-- Node63&#45;&gt;Node29 -->
<g id="edge152" class="edge">
<title>Node63&#45;&gt;Node29</title>
<path fill="none" stroke="#63b8ff" d="M1971.6551,-331.5252C1968.7415,-330.9445 1965.8236,-330.4223 1963,-330 1833.2801,-310.5998 1431.2719,-292.2003 1295.4019,-286.3887"/>
<polygon fill="#63b8ff" stroke="#63b8ff" points="1295.474,-282.8887 1285.3342,-285.9603 1295.1763,-289.8823 1295.474,-282.8887"/>
</g>
<!-- Node63&#45;&gt;Node30 -->
<g id="edge151" class="edge">
<title>Node63&#45;&gt;Node30</title>
<path fill="none" stroke="#63b8ff" d="M1971.9851,-330.8684C1945.8632,-323.0023 1907.9187,-310.1584 1877,-294 1850.5996,-280.2029 1823.0693,-259.6979 1805.2995,-245.5281"/>
<polygon fill="#63b8ff" stroke="#63b8ff" points="1807.3821,-242.711 1797.4079,-239.1381 1802.9771,-248.1512 1807.3821,-242.711"/>
</g>
<!-- Node63&#45;&gt;Node38 -->
<g id="edge154" class="edge">
<title>Node63&#45;&gt;Node38</title>
<path fill="none" stroke="#63b8ff" d="M2034.1884,-335.1787C2079.1238,-328.5499 2164.434,-314.4545 2235,-294 2283.4418,-279.9585 2337.5501,-257.6226 2370.4345,-243.2641"/>
<polygon fill="#63b8ff" stroke="#63b8ff" points="2372.1882,-246.3162 2379.9289,-239.0821 2369.3664,-239.9101 2372.1882,-246.3162"/>
</g>
<!-- Node63&#45;&gt;Node58 -->
<g id="edge153" class="edge">
<title>Node63&#45;&gt;Node58</title>
<path fill="none" stroke="#63b8ff" d="M2005.9612,-329.9197C2008.1524,-322.8304 2011.2135,-312.9269 2013.9182,-304.1763"/>
<polygon fill="#63b8ff" stroke="#63b8ff" points="2017.3491,-304.9285 2016.9583,-294.3408 2010.6612,-302.8613 2017.3491,-304.9285"/>
</g>
<!-- Node63&#45;&gt;Node64 -->
<g id="edge155" class="edge">
<title>Node63&#45;&gt;Node64</title>
<path fill="none" stroke="#63b8ff" d="M1989.936,-329.9197C1978.8195,-321.7677 1962.6287,-309.8944 1949.589,-300.3319"/>
<polygon fill="#63b8ff" stroke="#63b8ff" points="1951.2998,-297.2463 1941.1659,-294.155 1947.1602,-302.8911 1951.2998,-297.2463"/>
</g>
<!-- Node64&#45;&gt;Node8 -->
<g id="edge158" class="edge">
<title>Node64&#45;&gt;Node8</title>
<path fill="none" stroke="#63b8ff" d="M1885.7306,-282.5595C1797.4833,-278.1147 1587.3759,-265.476 1413,-239 1298.8037,-221.6612 1271.675,-209.4121 1159,-184 1122.9289,-175.8647 1114.1426,-172.8114 1078,-165 1009.7153,-150.2418 929.6107,-134.821 884.2278,-126.2596"/>
<polygon fill="#63b8ff" stroke="#63b8ff" points="884.7513,-122.7968 874.2765,-124.3873 883.457,-129.6761 884.7513,-122.7968"/>
</g>
<!-- Node64&#45;&gt;Node16 -->
<g id="edge156" class="edge">
<title>Node64&#45;&gt;Node16</title>
<path fill="none" stroke="#63b8ff" d="M1950.9685,-274.9908C1992.931,-257.5297 2084.6956,-218.9378 2161,-184 2197.3663,-167.3488 2238.7501,-147.0648 2265.5619,-133.7436"/>
<polygon fill="#63b8ff" stroke="#63b8ff" points="2267.3534,-136.7615 2274.7444,-129.1704 2264.2327,-130.4956 2267.3534,-136.7615"/>
</g>
<!-- Node64&#45;&gt;Node18 -->
<g id="edge157" class="edge">
<title>Node64&#45;&gt;Node18</title>
<path fill="none" stroke="#63b8ff" d="M1885.8486,-281.1834C1756.0076,-270.967 1364.4138,-240.1549 1256.6891,-231.6787"/>
<polygon fill="#63b8ff" stroke="#63b8ff" points="1256.8605,-228.1814 1246.6167,-230.8861 1256.3113,-235.1599 1256.8605,-228.1814"/>
</g>
<!-- Node64&#45;&gt;Node19 -->
<g id="edge159" class="edge">
<title>Node64&#45;&gt;Node19</title>
<path fill="none" stroke="#63b8ff" d="M1914.5876,-274.9197C1903.065,-266.6893 1886.232,-254.6657 1872.7794,-245.0567"/>
<polygon fill="#63b8ff" stroke="#63b8ff" points="1874.6887,-242.1194 1864.517,-239.155 1870.62,-247.8155 1874.6887,-242.1194"/>
</g>
<!-- Node64&#45;&gt;Node39 -->
<g id="edge160" class="edge">
<title>Node64&#45;&gt;Node39</title>
<path fill="none" stroke="#63b8ff" d="M1936.0126,-274.9197C1942.3979,-267.2851 1951.513,-256.3867 1959.2138,-247.1792"/>
<polygon fill="#63b8ff" stroke="#63b8ff" points="1962.0387,-249.2571 1965.7695,-239.3408 1956.6691,-244.7662 1962.0387,-249.2571"/>
</g>
<!-- Node65&#45;&gt;Node6 -->
<g id="edge166" class="edge">
<title>Node65&#45;&gt;Node6</title>
<path fill="none" stroke="#63b8ff" d="M210.2621,-659.8906C223.5247,-646.4784 249.0847,-621.8948 274,-605 292.2178,-592.6467 314.2476,-581.4534 331.9518,-573.2599"/>
<polygon fill="#63b8ff" stroke="#63b8ff" points="333.6267,-576.3436 341.2908,-569.0284 330.7377,-569.9676 333.6267,-576.3436"/>
</g>
<!-- Node66&#45;&gt;Node2 -->
<g id="edge168" class="edge">
<title>Node66&#45;&gt;Node2</title>
<path fill="none" stroke="#63b8ff" d="M591.3859,-659.8669C586.147,-650.7453 578.2254,-636.6073 572,-624 491.1608,-460.289 407.0389,-255.9878 381.6751,-193.5151"/>
<polygon fill="#63b8ff" stroke="#63b8ff" points="384.8729,-192.0869 377.8751,-184.132 378.3848,-194.7146 384.8729,-192.0869"/>
</g>
<!-- Node66&#45;&gt;Node6 -->
<g id="edge170" class="edge">
<title>Node66&#45;&gt;Node6</title>
<path fill="none" stroke="#63b8ff" d="M583.1127,-659.7855C563.334,-646.2483 525.6049,-621.5172 491,-605 462.9171,-591.5958 429.7757,-579.8493 404.3907,-571.6503"/>
<polygon fill="#63b8ff" stroke="#63b8ff" points="405.3121,-568.2707 394.7217,-568.5772 403.1917,-574.9419 405.3121,-568.2707"/>
</g>
<!-- Node66&#45;&gt;Node7 -->
<g id="edge169" class="edge">
<title>Node66&#45;&gt;Node7</title>
<path fill="none" stroke="#63b8ff" d="M637.3878,-668.8253C745.6665,-666.6006 1051.293,-657.5878 1303,-624 1433.4483,-606.593 1592,-691.1045 1592,-559.5 1592,-559.5 1592,-559.5 1592,-339.5 1592,-280.8464 1673.9988,-272.5767 1648,-220 1586.4729,-95.5756 1413.4016,-36.5611 1342.6852,-17.1108"/>
<polygon fill="#63b8ff" stroke="#63b8ff" points="1343.1973,-13.6249 1332.6327,-14.4246 1341.3902,-20.3876 1343.1973,-13.6249"/>
</g>
<!-- Node66&#45;&gt;Node12 -->
<g id="edge171" class="edge">
<title>Node66&#45;&gt;Node12</title>
<path fill="none" stroke="#63b8ff" d="M572.4397,-659.9197C549.7321,-651.0622 515.7623,-637.8115 490.3659,-627.9052"/>
<polygon fill="#63b8ff" stroke="#63b8ff" points="491.3402,-624.5284 480.752,-624.155 488.7964,-631.0498 491.3402,-624.5284"/>
</g>
<!-- Node67&#45;&gt;Node2 -->
<g id="edge174" class="edge">
<title>Node67&#45;&gt;Node2</title>
<path fill="none" stroke="#63b8ff" d="M200.3693,-769.9238C169.2764,-753.9004 114,-718.5209 114,-669.5 114,-669.5 114,-669.5 114,-284.5 114,-235.7828 270.7848,-196.3956 340.8542,-181.2254"/>
<polygon fill="#63b8ff" stroke="#63b8ff" points="341.8739,-184.5869 350.9267,-179.0826 340.4173,-177.7401 341.8739,-184.5869"/>
</g>
<!-- Node67&#45;&gt;Node3 -->
<g id="edge175" class="edge">
<title>Node67&#45;&gt;Node3</title>
<path fill="none" stroke="#63b8ff" d="M187.3226,-775.0077C160.2379,-769.6852 123.0255,-758.2501 100,-734 73.7539,-706.358 65.6339,-660.6274 63.1229,-634.4819"/>
<polygon fill="#63b8ff" stroke="#63b8ff" points="66.595,-633.9845 62.3361,-624.2834 59.6158,-634.523 66.595,-633.9845"/>
</g>
<!-- Node67&#45;&gt;Node5 -->
<g id="edge177" class="edge">
<title>Node67&#45;&gt;Node5</title>
<path fill="none" stroke="#63b8ff" d="M244.341,-769.9197C265.8257,-761.1014 297.9192,-747.9287 322.0193,-738.0369"/>
<polygon fill="#63b8ff" stroke="#63b8ff" points="323.5548,-741.19 331.4769,-734.155 320.8968,-734.7143 323.5548,-741.19"/>
</g>
<!-- Node68 -->
<g id="node68" class="node">
<title>Node68</title>
<g id="a_node68"><a xlink:title=" ">
<polygon fill="#e0e0e0" stroke="#999999" points="245.5,-734 196.5,-734 196.5,-715 245.5,-715 245.5,-734"/>
<text text-anchor="middle" x="221" y="-722" font-family="Helvetica,sans-Serif" font-size="10.00" fill="#000000">string.h</text>
</a>
</g>
</g>
<!-- Node67&#45;&gt;Node68 -->
<g id="edge176" class="edge">
<title>Node67&#45;&gt;Node68</title>
<path fill="none" stroke="#63b8ff" d="M221,-769.9197C221,-762.9083 221,-753.1442 221,-744.4652"/>
<polygon fill="#63b8ff" stroke="#63b8ff" points="224.5001,-744.3408 221,-734.3408 217.5001,-744.3409 224.5001,-744.3408"/>
</g>
<!-- Node69&#45;&gt;Node20 -->
<g id="edge180" class="edge">
<title>Node69&#45;&gt;Node20</title>
<path fill="none" stroke="#63b8ff" d="M513.5752,-771.3963C516.4128,-770.8595 519.2498,-770.3817 522,-770 636.8665,-754.0556 2607,-785.4678 2607,-669.5 2607,-669.5 2607,-669.5 2607,-339.5 2607,-250.3878 2522.8405,-265.1279 2446,-220 2394.7132,-189.8796 2381.4828,-180.2743 2324,-165 2242.457,-143.3325 1989.2494,-127.2421 1890.7597,-121.6494"/>
<polygon fill="#63b8ff" stroke="#63b8ff" points="1890.8062,-118.1466 1880.6256,-121.0801 1890.4135,-125.1356 1890.8062,-118.1466"/>
</g>
<!-- Node70 -->
<g id="node70" class="node">
<title>Node70</title>
<g id="a_node70"><a xlink:title=" ">
<polygon fill="#e0e0e0" stroke="#999999" points="505.5,-734 456.5,-734 456.5,-715 505.5,-715 505.5,-734"/>
<text text-anchor="middle" x="481" y="-722" font-family="Helvetica,sans-Serif" font-size="10.00" fill="#000000">cstdarg</text>
</a>
</g>
</g>
<!-- Node69&#45;&gt;Node70 -->
<g id="edge179" class="edge">
<title>Node69&#45;&gt;Node70</title>
<path fill="none" stroke="#63b8ff" d="M481,-769.9197C481,-762.9083 481,-753.1442 481,-744.4652"/>
<polygon fill="#63b8ff" stroke="#63b8ff" points="484.5001,-744.3408 481,-734.3408 477.5001,-744.3409 484.5001,-744.3408"/>
</g>
</g>
</svg>
