<?xml version="1.0" encoding="UTF-8" standalone="no"?>
<!DOCTYPE svg PUBLIC "-//W3C//DTD SVG 1.1//EN"
 "http://www.w3.org/Graphics/SVG/1.1/DTD/svg11.dtd">
<!-- Generated by graphviz version 2.43.0 (0)
 -->
<!-- Title: src/dotcallgraph.h Pages: 1 -->
<svg width="821pt" height="82pt"
 viewBox="0.00 0.00 821.00 82.00" xmlns="http://www.w3.org/2000/svg" xmlns:xlink="http://www.w3.org/1999/xlink">
<g id="graph0" class="graph" transform="scale(1 1) rotate(0) translate(4 78)">
<title>src/dotcallgraph.h</title>
<!-- Node1 -->
<g id="node1" class="node">
<title>Node1</title>
<g id="a_node1"><a xlink:title=" ">
<polygon fill="#999999" stroke="#666666" points="472.5,-74 368.5,-74 368.5,-55 472.5,-55 472.5,-74"/>
<text text-anchor="middle" x="420.5" y="-62" font-family="Helvetica,sans-Serif" font-size="10.00">src/dotcallgraph.h</text>
</a>
</g>
</g>
<!-- Node2 -->
<g id="node2" class="node">
<title>Node2</title>
<g id="a_node2"><a xlink:href="../../db/d12/context_8cpp.html" target="_top" xlink:title=" ">
<polygon fill="white" stroke="#666666" points="91,-19 0,-19 0,0 91,0 91,-19"/>
<text text-anchor="middle" x="45.5" y="-7" font-family="Helvetica,sans-Serif" font-size="10.00">src/context.cpp</text>
</a>
</g>
</g>
<!-- Node1&#45;&gt;Node2 -->
<g id="edge1" class="edge">
<title>Node1&#45;&gt;Node2</title>
<path fill="none" stroke="#63b8ff" d="M358.44,-55.24C293.75,-46.55 189.44,-32.31 99.5,-19 96.78,-18.6 93.98,-18.18 91.16,-17.75"/>
<polygon fill="#63b8ff" stroke="#63b8ff" points="358.1,-58.73 368.47,-56.59 359.03,-51.79 358.1,-58.73"/>
</g>
<!-- Node3 -->
<g id="node3" class="node">
<title>Node3</title>
<g id="a_node3"><a xlink:href="../../d8/d29/docbookgen_8cpp.html" target="_top" xlink:title=" ">
<polygon fill="white" stroke="#666666" points="222,-19 109,-19 109,0 222,0 222,-19"/>
<text text-anchor="middle" x="165.5" y="-7" font-family="Helvetica,sans-Serif" font-size="10.00">src/docbookgen.cpp</text>
</a>
</g>
</g>
<!-- Node1&#45;&gt;Node3 -->
<g id="edge2" class="edge">
<title>Node1&#45;&gt;Node3</title>
<path fill="none" stroke="#63b8ff" d="M369.7,-52.94C321.9,-43.01 251.21,-28.31 206.79,-19.08"/>
<polygon fill="#63b8ff" stroke="#63b8ff" points="369.03,-56.38 379.53,-54.98 370.45,-49.52 369.03,-56.38"/>
</g>
<!-- Node4 -->
<g id="node4" class="node">
<title>Node4</title>
<g id="a_node4"><a xlink:href="../../d4/dd5/dotcallgraph_8cpp.html" target="_top" xlink:title=" ">
<polygon fill="white" stroke="#666666" points="355,-19 240,-19 240,0 355,0 355,-19"/>
<text text-anchor="middle" x="297.5" y="-7" font-family="Helvetica,sans-Serif" font-size="10.00">src/dotcallgraph.cpp</text>
</a>
</g>
</g>
<!-- Node1&#45;&gt;Node4 -->
<g id="edge3" class="edge">
<title>Node1&#45;&gt;Node4</title>
<path fill="none" stroke="#63b8ff" d="M391.25,-50.9C368.53,-41.11 337.63,-27.79 317.62,-19.17"/>
<polygon fill="#63b8ff" stroke="#63b8ff" points="390.17,-54.24 400.74,-54.98 392.94,-47.81 390.17,-54.24"/>
</g>
<!-- Node5 -->
<g id="node5" class="node">
<title>Node5</title>
<g id="a_node5"><a xlink:href="../../d8/d6e/htmlgen_8cpp.html" target="_top" xlink:title=" ">
<polygon fill="white" stroke="#666666" points="468,-19 373,-19 373,0 468,0 468,-19"/>
<text text-anchor="middle" x="420.5" y="-7" font-family="Helvetica,sans-Serif" font-size="10.00">src/htmlgen.cpp</text>
</a>
</g>
</g>
<!-- Node1&#45;&gt;Node5 -->
<g id="edge4" class="edge">
<title>Node1&#45;&gt;Node5</title>
<path fill="none" stroke="#63b8ff" d="M420.5,-44.66C420.5,-35.93 420.5,-25.99 420.5,-19.09"/>
<polygon fill="#63b8ff" stroke="#63b8ff" points="417,-44.75 420.5,-54.75 424,-44.75 417,-44.75"/>
</g>
<!-- Node6 -->
<g id="node6" class="node">
<title>Node6</title>
<g id="a_node6"><a xlink:href="../../d4/d42/latexgen_8cpp.html" target="_top" xlink:title=" ">
<polygon fill="white" stroke="#666666" points="583,-19 486,-19 486,0 583,0 583,-19"/>
<text text-anchor="middle" x="534.5" y="-7" font-family="Helvetica,sans-Serif" font-size="10.00">src/latexgen.cpp</text>
</a>
</g>
</g>
<!-- Node1&#45;&gt;Node6 -->
<g id="edge5" class="edge">
<title>Node1&#45;&gt;Node6</title>
<path fill="none" stroke="#63b8ff" d="M447.89,-50.77C468.92,-40.99 497.39,-27.75 515.85,-19.17"/>
<polygon fill="#63b8ff" stroke="#63b8ff" points="446.41,-47.6 438.82,-54.98 449.36,-53.94 446.41,-47.6"/>
</g>
<!-- Node7 -->
<g id="node7" class="node">
<title>Node7</title>
<g id="a_node7"><a xlink:href="../../d0/d72/memberdef_8cpp.html" target="_top" xlink:title=" ">
<polygon fill="white" stroke="#666666" points="711.5,-19 601.5,-19 601.5,0 711.5,0 711.5,-19"/>
<text text-anchor="middle" x="656.5" y="-7" font-family="Helvetica,sans-Serif" font-size="10.00">src/memberdef.cpp</text>
</a>
</g>
</g>
<!-- Node1&#45;&gt;Node7 -->
<g id="edge6" class="edge">
<title>Node1&#45;&gt;Node7</title>
<path fill="none" stroke="#63b8ff" d="M468.35,-52.75C512.58,-42.82 577.43,-28.26 618.29,-19.08"/>
<polygon fill="#63b8ff" stroke="#63b8ff" points="467.41,-49.38 458.42,-54.98 468.94,-56.21 467.41,-49.38"/>
</g>
<!-- Node8 -->
<g id="node8" class="node">
<title>Node8</title>
<g id="a_node8"><a xlink:href="../../d0/d9c/rtfgen_8cpp.html" target="_top" xlink:title=" ">
<polygon fill="white" stroke="#666666" points="813,-19 730,-19 730,0 813,0 813,-19"/>
<text text-anchor="middle" x="771.5" y="-7" font-family="Helvetica,sans-Serif" font-size="10.00">src/rtfgen.cpp</text>
</a>
</g>
</g>
<!-- Node1&#45;&gt;Node8 -->
<g id="edge7" class="edge">
<title>Node1&#45;&gt;Node8</title>
<path fill="none" stroke="#63b8ff" d="M482.76,-54.6C543.47,-45.84 638.39,-31.93 720.5,-19 723.51,-18.53 726.63,-18.03 729.76,-17.52"/>
<polygon fill="#63b8ff" stroke="#63b8ff" points="481.97,-51.17 472.57,-56.06 482.97,-58.1 481.97,-51.17"/>
</g>
</g>
</svg>
