<?xml version="1.0" encoding="UTF-8" standalone="no"?>
<!DOCTYPE svg PUBLIC "-//W3C//DTD SVG 1.1//EN"
 "http://www.w3.org/Graphics/SVG/1.1/DTD/svg11.dtd">
<!-- Generated by graphviz version 2.40.1 (20161225.0304)
 -->
<!-- Title: ConfigOption Pages: 1 -->
<svg width="202pt" height="286pt"
 viewBox="0.00 0.00 202.00 286.00" xmlns="http://www.w3.org/2000/svg" xmlns:xlink="http://www.w3.org/1999/xlink">
<g id="graph0" class="graph" transform="scale(1 1) rotate(0) translate(4 282)">
<title>ConfigOption</title>
<!-- Node1 -->
<g id="node1" class="node">
<title>Node1</title>
<g id="a_node1"><a xlink:title="Abstract base class for any configuration option.">
<polygon fill="#999999" stroke="#666666" points="74,-148 0,-148 0,-129 74,-129 74,-148"/>
<text text-anchor="middle" x="37" y="-136" font-family="Helvetica,sans-Serif" font-size="10.00" fill="#000000">ConfigOption</text>
</a>
</g>
</g>
<!-- Node2 -->
<g id="node2" class="node">
<title>Node2</title>
<g id="a_node2"><a xlink:href="../../d4/ded/class_config_bool.html" target="_top" xlink:title="Class representing a Boolean type option.">
<polygon fill="#ffffff" stroke="#666666" points="184.5,-278 119.5,-278 119.5,-259 184.5,-259 184.5,-278"/>
<text text-anchor="middle" x="152" y="-266" font-family="Helvetica,sans-Serif" font-size="10.00" fill="#000000">ConfigBool</text>
</a>
</g>
</g>
<!-- Node1&#45;&gt;Node2 -->
<g id="edge1" class="edge">
<title>Node1&#45;&gt;Node2</title>
<path fill="none" stroke="#63b8ff" d="M45.1316,-157.5605C56.4392,-182.0499 79.064,-224.4943 110,-250.5 113.8864,-253.767 118.4546,-256.5256 123.1208,-258.8256"/>
<polygon fill="#63b8ff" stroke="#63b8ff" points="48.2559,-155.9728 40.9872,-148.2646 41.8625,-158.8232 48.2559,-155.9728"/>
</g>
<!-- Node3 -->
<g id="node3" class="node">
<title>Node3</title>
<g id="a_node3"><a xlink:href="../../d5/d86/class_config_disabled.html" target="_top" xlink:title="Section marker for compile time optional options.">
<polygon fill="#ffffff" stroke="#666666" points="193.5,-241 110.5,-241 110.5,-222 193.5,-222 193.5,-241"/>
<text text-anchor="middle" x="152" y="-229" font-family="Helvetica,sans-Serif" font-size="10.00" fill="#000000">ConfigDisabled</text>
</a>
</g>
</g>
<!-- Node1&#45;&gt;Node3 -->
<g id="edge2" class="edge">
<title>Node1&#45;&gt;Node3</title>
<path fill="none" stroke="#63b8ff" d="M50.8396,-156.326C64.4451,-172.8961 86.5327,-197.3796 110,-213.5 114.708,-216.7341 120.0901,-219.5728 125.3946,-221.9828"/>
<polygon fill="#63b8ff" stroke="#63b8ff" points="53.5234,-154.0782 44.5355,-148.4685 48.0634,-158.4587 53.5234,-154.0782"/>
</g>
<!-- Node4 -->
<g id="node4" class="node">
<title>Node4</title>
<g id="a_node4"><a xlink:href="../../df/d59/class_config_enum.html" target="_top" xlink:title="Class representing an enum type option.">
<polygon fill="#ffffff" stroke="#666666" points="187.5,-204 116.5,-204 116.5,-185 187.5,-185 187.5,-204"/>
<text text-anchor="middle" x="152" y="-192" font-family="Helvetica,sans-Serif" font-size="10.00" fill="#000000">ConfigEnum</text>
</a>
</g>
</g>
<!-- Node1&#45;&gt;Node4 -->
<g id="edge3" class="edge">
<title>Node1&#45;&gt;Node4</title>
<path fill="none" stroke="#63b8ff" d="M63.4353,-152.8707C77.1956,-160.195 94.3681,-169.0945 110,-176.5 116.0222,-179.353 122.6143,-182.2717 128.7539,-184.9058"/>
<polygon fill="#63b8ff" stroke="#63b8ff" points="64.9823,-149.7288 54.515,-148.0894 61.6753,-155.8984 64.9823,-149.7288"/>
</g>
<!-- Node5 -->
<g id="node5" class="node">
<title>Node5</title>
<g id="a_node5"><a xlink:href="../../dd/d89/class_config_info.html" target="_top" xlink:title="Section marker for grouping the configuration options.">
<polygon fill="#ffffff" stroke="#666666" points="183,-167 121,-167 121,-148 183,-148 183,-167"/>
<text text-anchor="middle" x="152" y="-155" font-family="Helvetica,sans-Serif" font-size="10.00" fill="#000000">ConfigInfo</text>
</a>
</g>
</g>
<!-- Node1&#45;&gt;Node5 -->
<g id="edge4" class="edge">
<title>Node1&#45;&gt;Node5</title>
<path fill="none" stroke="#63b8ff" d="M84.1893,-146.2965C96.542,-148.3374 109.551,-150.4867 120.8343,-152.3509"/>
<polygon fill="#63b8ff" stroke="#63b8ff" points="84.4565,-142.7933 74.0197,-144.6163 83.3154,-149.6996 84.4565,-142.7933"/>
</g>
<!-- Node6 -->
<g id="node6" class="node">
<title>Node6</title>
<g id="a_node6"><a xlink:href="../../d4/d52/class_config_int.html" target="_top" xlink:title="Class representing an integer type option.">
<polygon fill="#ffffff" stroke="#666666" points="180,-130 124,-130 124,-111 180,-111 180,-130"/>
<text text-anchor="middle" x="152" y="-118" font-family="Helvetica,sans-Serif" font-size="10.00" fill="#000000">ConfigInt</text>
</a>
</g>
</g>
<!-- Node1&#45;&gt;Node6 -->
<g id="edge5" class="edge">
<title>Node1&#45;&gt;Node6</title>
<path fill="none" stroke="#63b8ff" d="M84.1184,-131.1249C97.5919,-129.0161 111.852,-126.784 123.8057,-124.913"/>
<polygon fill="#63b8ff" stroke="#63b8ff" points="83.3582,-127.7012 74.0197,-132.7056 84.4407,-134.617 83.3582,-127.7012"/>
</g>
<!-- Node7 -->
<g id="node7" class="node">
<title>Node7</title>
<g id="a_node7"><a xlink:href="../../dd/df8/class_config_list.html" target="_top" xlink:title="Class representing a list type option.">
<polygon fill="#ffffff" stroke="#666666" points="182.5,-93 121.5,-93 121.5,-74 182.5,-74 182.5,-93"/>
<text text-anchor="middle" x="152" y="-81" font-family="Helvetica,sans-Serif" font-size="10.00" fill="#000000">ConfigList</text>
</a>
</g>
</g>
<!-- Node1&#45;&gt;Node7 -->
<g id="edge6" class="edge">
<title>Node1&#45;&gt;Node7</title>
<path fill="none" stroke="#63b8ff" d="M65.3645,-124.2386C78.8373,-117.535 95.1958,-109.4965 110,-102.5 116.6568,-99.3539 123.9534,-96.0153 130.5701,-93.0287"/>
<polygon fill="#63b8ff" stroke="#63b8ff" points="63.5113,-121.2518 56.1278,-128.8501 66.6381,-127.5147 63.5113,-121.2518"/>
</g>
<!-- Node8 -->
<g id="node8" class="node">
<title>Node8</title>
<g id="a_node8"><a xlink:href="../../d3/db9/class_config_obsolete.html" target="_top" xlink:title="Section marker for obsolete options.">
<polygon fill="#ffffff" stroke="#666666" points="194,-56 110,-56 110,-37 194,-37 194,-56"/>
<text text-anchor="middle" x="152" y="-44" font-family="Helvetica,sans-Serif" font-size="10.00" fill="#000000">ConfigObsolete</text>
</a>
</g>
</g>
<!-- Node1&#45;&gt;Node8 -->
<g id="edge7" class="edge">
<title>Node1&#45;&gt;Node8</title>
<path fill="none" stroke="#63b8ff" d="M51.3867,-120.8347C65.1394,-104.8067 87.1151,-81.3289 110,-65.5 115.134,-61.949 121.0385,-58.798 126.7674,-56.1329"/>
<polygon fill="#63b8ff" stroke="#63b8ff" points="48.3854,-118.9665 44.6388,-128.8767 53.7478,-123.4659 48.3854,-118.9665"/>
</g>
<!-- Node9 -->
<g id="node9" class="node">
<title>Node9</title>
<g id="a_node9"><a xlink:href="../../d1/dff/class_config_string.html" target="_top" xlink:title="Class representing a string type option.">
<polygon fill="#ffffff" stroke="#666666" points="187.5,-19 116.5,-19 116.5,0 187.5,0 187.5,-19"/>
<text text-anchor="middle" x="152" y="-7" font-family="Helvetica,sans-Serif" font-size="10.00" fill="#000000">ConfigString</text>
</a>
</g>
</g>
<!-- Node1&#45;&gt;Node9 -->
<g id="edge8" class="edge">
<title>Node1&#45;&gt;Node9</title>
<path fill="none" stroke="#63b8ff" d="M45.2964,-119.8772C56.7827,-95.9306 79.601,-54.3585 110,-28.5 114.3891,-24.7665 119.6316,-21.6301 124.9002,-19.0504"/>
<polygon fill="#63b8ff" stroke="#63b8ff" points="42.1144,-118.4196 41.0785,-128.9637 48.4636,-121.367 42.1144,-118.4196"/>
</g>
</g>
</svg>
