<?xml version="1.0" encoding="UTF-8" standalone="no"?>
<!DOCTYPE svg PUBLIC "-//W3C//DTD SVG 1.1//EN"
 "http://www.w3.org/Graphics/SVG/1.1/DTD/svg11.dtd">
<!-- Generated by graphviz version 2.43.0 (0)
 -->
<!-- Title: src/constexp.l Pages: 1 -->
<svg width="717pt" height="247pt"
 viewBox="0.00 0.00 717.00 247.00" xmlns="http://www.w3.org/2000/svg" xmlns:xlink="http://www.w3.org/1999/xlink">
<g id="graph0" class="graph" transform="scale(1 1) rotate(0) translate(4 243)">
<title>src/constexp.l</title>
<!-- Node1 -->
<g id="node1" class="node">
<title>Node1</title>
<g id="a_node1"><a xlink:title=" ">
<polygon fill="#999999" stroke="#666666" points="260.5,-239 176.5,-239 176.5,-220 260.5,-220 260.5,-239"/>
<text text-anchor="middle" x="218.5" y="-227" font-family="Helvetica,sans-Serif" font-size="10.00">src/constexp.l</text>
</a>
</g>
</g>
<!-- Node2 -->
<g id="node2" class="node">
<title>Node2</title>
<g id="a_node2"><a xlink:title=" ">
<polygon fill="#e0e0e0" stroke="#999999" points="53,-184 0,-184 0,-165 53,-165 53,-184"/>
<text text-anchor="middle" x="26.5" y="-172" font-family="Helvetica,sans-Serif" font-size="10.00">stdint.h</text>
</a>
</g>
</g>
<!-- Node1&#45;&gt;Node2 -->
<g id="edge1" class="edge">
<title>Node1&#45;&gt;Node2</title>
<path fill="none" stroke="#63b8ff" d="M187.65,-219.98C153.64,-210.6 98.98,-195.51 62.9,-185.55"/>
<polygon fill="#63b8ff" stroke="#63b8ff" points="63.82,-182.17 53.25,-182.88 61.95,-188.92 63.82,-182.17"/>
</g>
<!-- Node3 -->
<g id="node3" class="node">
<title>Node3</title>
<g id="a_node3"><a xlink:href="../../da/d12/constexp__p_8h.html" target="_top" xlink:title="Private interface between Parser (constexp.y) and Lexer (constexp.l)">
<polygon fill="white" stroke="#666666" points="152,-184 71,-184 71,-165 152,-165 152,-184"/>
<text text-anchor="middle" x="111.5" y="-172" font-family="Helvetica,sans-Serif" font-size="10.00">constexp_p.h</text>
</a>
</g>
</g>
<!-- Node1&#45;&gt;Node3 -->
<g id="edge2" class="edge">
<title>Node1&#45;&gt;Node3</title>
<path fill="none" stroke="#63b8ff" d="M201.31,-219.98C184.25,-211.54 157.87,-198.47 138.1,-188.68"/>
<polygon fill="#63b8ff" stroke="#63b8ff" points="139.52,-185.47 129,-184.17 136.41,-191.75 139.52,-185.47"/>
</g>
<!-- Node5 -->
<g id="node5" class="node">
<title>Node5</title>
<g id="a_node5"><a xlink:href="../../d6/dcc/cppvalue_8h.html" target="_top" xlink:title=" ">
<polygon fill="white" stroke="#666666" points="157.5,-129 87.5,-129 87.5,-110 157.5,-110 157.5,-129"/>
<text text-anchor="middle" x="122.5" y="-117" font-family="Helvetica,sans-Serif" font-size="10.00">cppvalue.h</text>
</a>
</g>
</g>
<!-- Node1&#45;&gt;Node5 -->
<g id="edge9" class="edge">
<title>Node1&#45;&gt;Node5</title>
<path fill="none" stroke="#63b8ff" d="M210.64,-219.66C194.53,-201.54 157.53,-159.91 136.96,-136.77"/>
<polygon fill="#63b8ff" stroke="#63b8ff" points="139.46,-134.31 130.2,-129.16 134.22,-138.96 139.46,-134.31"/>
</g>
<!-- Node7 -->
<g id="node7" class="node">
<title>Node7</title>
<g id="a_node7"><a xlink:href="../../d6/dd8/constexp_8h.html" target="_top" xlink:title=" ">
<polygon fill="white" stroke="#666666" points="245.5,-129 175.5,-129 175.5,-110 245.5,-110 245.5,-129"/>
<text text-anchor="middle" x="210.5" y="-117" font-family="Helvetica,sans-Serif" font-size="10.00">constexp.h</text>
</a>
</g>
</g>
<!-- Node1&#45;&gt;Node7 -->
<g id="edge7" class="edge">
<title>Node1&#45;&gt;Node7</title>
<path fill="none" stroke="#63b8ff" d="M217.85,-219.66C216.55,-202.17 213.63,-162.8 211.89,-139.27"/>
<polygon fill="#63b8ff" stroke="#63b8ff" points="215.37,-138.87 211.14,-129.16 208.39,-139.39 215.37,-138.87"/>
</g>
<!-- Node8 -->
<g id="node8" class="node">
<title>Node8</title>
<g id="a_node8"><a xlink:title=" ">
<polygon fill="#e0e0e0" stroke="#999999" points="416,-184 335,-184 335,-165 416,-165 416,-184"/>
<text text-anchor="middle" x="375.5" y="-172" font-family="Helvetica,sans-Serif" font-size="10.00">ce_parse.hpp</text>
</a>
</g>
</g>
<!-- Node1&#45;&gt;Node8 -->
<g id="edge10" class="edge">
<title>Node1&#45;&gt;Node8</title>
<path fill="none" stroke="#63b8ff" d="M243.72,-219.98C269.86,-211.16 310.9,-197.31 340.23,-187.41"/>
<polygon fill="#63b8ff" stroke="#63b8ff" points="341.72,-190.6 350.08,-184.08 339.48,-183.96 341.72,-190.6"/>
</g>
<!-- Node9 -->
<g id="node9" class="node">
<title>Node9</title>
<g id="a_node9"><a xlink:href="../../d2/d0d/message_8h.html" target="_top" xlink:title=" ">
<polygon fill="white" stroke="#666666" points="316.5,-184 246.5,-184 246.5,-165 316.5,-165 316.5,-184"/>
<text text-anchor="middle" x="281.5" y="-172" font-family="Helvetica,sans-Serif" font-size="10.00">message.h</text>
</a>
</g>
</g>
<!-- Node1&#45;&gt;Node9 -->
<g id="edge11" class="edge">
<title>Node1&#45;&gt;Node9</title>
<path fill="none" stroke="#63b8ff" d="M228.62,-219.98C237.94,-212.15 251.97,-200.34 263.24,-190.86"/>
<polygon fill="#63b8ff" stroke="#63b8ff" points="265.79,-193.29 271.19,-184.17 261.29,-187.93 265.79,-193.29"/>
</g>
<!-- Node19 -->
<g id="node19" class="node">
<title>Node19</title>
<g id="a_node19"><a xlink:href="../../d6/da5/doxygen__lex_8h.html" target="_top" xlink:title=" ">
<polygon fill="white" stroke="#666666" points="522.5,-184 434.5,-184 434.5,-165 522.5,-165 522.5,-184"/>
<text text-anchor="middle" x="478.5" y="-172" font-family="Helvetica,sans-Serif" font-size="10.00">doxygen_lex.h</text>
</a>
</g>
</g>
<!-- Node1&#45;&gt;Node19 -->
<g id="edge25" class="edge">
<title>Node1&#45;&gt;Node19</title>
<path fill="none" stroke="#63b8ff" d="M260.27,-219.98C305.44,-210.78 377.5,-196.09 426.35,-186.13"/>
<polygon fill="#63b8ff" stroke="#63b8ff" points="427.3,-189.51 436.4,-184.08 425.9,-182.65 427.3,-189.51"/>
</g>
<!-- Node4 -->
<g id="node4" class="node">
<title>Node4</title>
<g id="a_node4"><a xlink:title=" ">
<polygon fill="#e0e0e0" stroke="#999999" points="157.5,-19 113.5,-19 113.5,0 157.5,0 157.5,-19"/>
<text text-anchor="middle" x="135.5" y="-7" font-family="Helvetica,sans-Serif" font-size="10.00">string</text>
</a>
</g>
</g>
<!-- Node3&#45;&gt;Node4 -->
<g id="edge3" class="edge">
<title>Node3&#45;&gt;Node4</title>
<path fill="none" stroke="#63b8ff" d="M102.48,-164.96C94.43,-156.66 83.21,-143.25 78.5,-129 75.85,-120.98 76.33,-118.16 78.5,-110 86.95,-78.26 108.19,-46.1 122.22,-27.25"/>
<polygon fill="#63b8ff" stroke="#63b8ff" points="125.14,-29.19 128.44,-19.12 119.58,-24.93 125.14,-29.19"/>
</g>
<!-- Node3&#45;&gt;Node5 -->
<g id="edge4" class="edge">
<title>Node3&#45;&gt;Node5</title>
<path fill="none" stroke="#63b8ff" d="M113.32,-164.75C114.76,-157.8 116.82,-147.85 118.63,-139.13"/>
<polygon fill="#63b8ff" stroke="#63b8ff" points="122.11,-139.59 120.72,-129.09 115.26,-138.17 122.11,-139.59"/>
</g>
<!-- Node5&#45;&gt;Node4 -->
<g id="edge6" class="edge">
<title>Node5&#45;&gt;Node4</title>
<path fill="none" stroke="#63b8ff" d="M121.45,-109.81C120.17,-97.52 118.52,-74.4 121.5,-55 122.85,-46.19 125.63,-36.74 128.35,-28.82"/>
<polygon fill="#63b8ff" stroke="#63b8ff" points="131.73,-29.77 131.9,-19.18 125.16,-27.35 131.73,-29.77"/>
</g>
<!-- Node6 -->
<g id="node6" class="node">
<title>Node6</title>
<g id="a_node6"><a xlink:title=" ">
<polygon fill="#e0e0e0" stroke="#999999" points="209.5,-74 163.5,-74 163.5,-55 209.5,-55 209.5,-74"/>
<text text-anchor="middle" x="186.5" y="-62" font-family="Helvetica,sans-Serif" font-size="10.00">cstdio</text>
</a>
</g>
</g>
<!-- Node5&#45;&gt;Node6 -->
<g id="edge5" class="edge">
<title>Node5&#45;&gt;Node6</title>
<path fill="none" stroke="#63b8ff" d="M132.78,-109.98C142.34,-102.07 156.78,-90.11 168.28,-80.58"/>
<polygon fill="#63b8ff" stroke="#63b8ff" points="170.56,-83.24 176.03,-74.17 166.1,-77.85 170.56,-83.24"/>
</g>
<!-- Node7&#45;&gt;Node4 -->
<g id="edge8" class="edge">
<title>Node7&#45;&gt;Node4</title>
<path fill="none" stroke="#63b8ff" d="M195.02,-109.86C182.37,-102.05 164.94,-89.43 154.5,-74 145.33,-60.45 140.48,-42.36 137.99,-28.96"/>
<polygon fill="#63b8ff" stroke="#63b8ff" points="141.43,-28.33 136.4,-19 134.52,-29.43 141.43,-28.33"/>
</g>
<!-- Node10 -->
<g id="node10" class="node">
<title>Node10</title>
<g id="a_node10"><a xlink:title=" ">
<polygon fill="#e0e0e0" stroke="#999999" points="317,-129 264,-129 264,-110 317,-110 317,-129"/>
<text text-anchor="middle" x="290.5" y="-117" font-family="Helvetica,sans-Serif" font-size="10.00">cstdarg</text>
</a>
</g>
</g>
<!-- Node9&#45;&gt;Node10 -->
<g id="edge12" class="edge">
<title>Node9&#45;&gt;Node10</title>
<path fill="none" stroke="#63b8ff" d="M282.99,-164.75C284.17,-157.8 285.86,-147.85 287.34,-139.13"/>
<polygon fill="#63b8ff" stroke="#63b8ff" points="290.82,-139.53 289.04,-129.09 283.92,-138.36 290.82,-139.53"/>
</g>
<!-- Node11 -->
<g id="node11" class="node">
<title>Node11</title>
<g id="a_node11"><a xlink:href="../../d7/d5c/qcstring_8h.html" target="_top" xlink:title=" ">
<polygon fill="white" stroke="#666666" points="431,-129 366,-129 366,-110 431,-110 431,-129"/>
<text text-anchor="middle" x="398.5" y="-117" font-family="Helvetica,sans-Serif" font-size="10.00">qcstring.h</text>
</a>
</g>
</g>
<!-- Node9&#45;&gt;Node11 -->
<g id="edge13" class="edge">
<title>Node9&#45;&gt;Node11</title>
<path fill="none" stroke="#63b8ff" d="M300.3,-164.98C319.12,-156.46 348.32,-143.23 370,-133.41"/>
<polygon fill="#63b8ff" stroke="#63b8ff" points="371.7,-136.48 379.36,-129.17 368.81,-130.11 371.7,-136.48"/>
</g>
<!-- Node11&#45;&gt;Node4 -->
<g id="edge14" class="edge">
<title>Node11&#45;&gt;Node4</title>
<path fill="none" stroke="#63b8ff" d="M365.77,-110.05C336.6,-102.09 293.01,-89.16 256.5,-74 246.83,-69.98 192.94,-41.3 160.42,-23.89"/>
<polygon fill="#63b8ff" stroke="#63b8ff" points="161.95,-20.73 151.48,-19.09 158.64,-26.9 161.95,-20.73"/>
</g>
<!-- Node11&#45;&gt;Node6 -->
<g id="edge18" class="edge">
<title>Node11&#45;&gt;Node6</title>
<path fill="none" stroke="#63b8ff" d="M365.84,-110.33C326.09,-100.4 259.36,-83.72 219.47,-73.74"/>
<polygon fill="#63b8ff" stroke="#63b8ff" points="220.25,-70.33 209.7,-71.3 218.55,-77.12 220.25,-70.33"/>
</g>
<!-- Node12 -->
<g id="node12" class="node">
<title>Node12</title>
<g id="a_node12"><a xlink:title=" ">
<polygon fill="#e0e0e0" stroke="#999999" points="641.5,-74 577.5,-74 577.5,-55 641.5,-55 641.5,-74"/>
<text text-anchor="middle" x="609.5" y="-62" font-family="Helvetica,sans-Serif" font-size="10.00">algorithm</text>
</a>
</g>
</g>
<!-- Node11&#45;&gt;Node12 -->
<g id="edge15" class="edge">
<title>Node11&#45;&gt;Node12</title>
<path fill="none" stroke="#63b8ff" d="M431.01,-110.33C467.67,-101.13 527.39,-86.12 567.54,-76.04"/>
<polygon fill="#63b8ff" stroke="#63b8ff" points="568.46,-79.42 577.3,-73.59 566.75,-72.63 568.46,-79.42"/>
</g>
<!-- Node13 -->
<g id="node13" class="node">
<title>Node13</title>
<g id="a_node13"><a xlink:title=" ">
<polygon fill="#e0e0e0" stroke="#999999" points="709,-74 660,-74 660,-55 709,-55 709,-74"/>
<text text-anchor="middle" x="684.5" y="-62" font-family="Helvetica,sans-Serif" font-size="10.00">cctype</text>
</a>
</g>
</g>
<!-- Node11&#45;&gt;Node13 -->
<g id="edge16" class="edge">
<title>Node11&#45;&gt;Node13</title>
<path fill="none" stroke="#63b8ff" d="M431.26,-113.47C477.64,-106.18 565.28,-91.81 649.66,-74.05"/>
<polygon fill="#63b8ff" stroke="#63b8ff" points="650.61,-77.42 659.66,-71.92 649.16,-70.58 650.61,-77.42"/>
</g>
<!-- Node14 -->
<g id="node14" class="node">
<title>Node14</title>
<g id="a_node14"><a xlink:title=" ">
<polygon fill="#e0e0e0" stroke="#999999" points="315.5,-74 265.5,-74 265.5,-55 315.5,-55 315.5,-74"/>
<text text-anchor="middle" x="290.5" y="-62" font-family="Helvetica,sans-Serif" font-size="10.00">cstring</text>
</a>
</g>
</g>
<!-- Node11&#45;&gt;Node14 -->
<g id="edge17" class="edge">
<title>Node11&#45;&gt;Node14</title>
<path fill="none" stroke="#63b8ff" d="M381.15,-109.98C363.93,-101.54 337.3,-88.47 317.35,-78.68"/>
<polygon fill="#63b8ff" stroke="#63b8ff" points="318.69,-75.43 308.17,-74.17 315.6,-81.72 318.69,-75.43"/>
</g>
<!-- Node15 -->
<g id="node15" class="node">
<title>Node15</title>
<g id="a_node15"><a xlink:title=" ">
<polygon fill="#e0e0e0" stroke="#999999" points="383,-74 334,-74 334,-55 383,-55 383,-74"/>
<text text-anchor="middle" x="358.5" y="-62" font-family="Helvetica,sans-Serif" font-size="10.00">cstdlib</text>
</a>
</g>
</g>
<!-- Node11&#45;&gt;Node15 -->
<g id="edge19" class="edge">
<title>Node11&#45;&gt;Node15</title>
<path fill="none" stroke="#63b8ff" d="M391.89,-109.75C386.24,-102.26 377.96,-91.28 371.05,-82.13"/>
<polygon fill="#63b8ff" stroke="#63b8ff" points="373.8,-79.96 364.98,-74.09 368.21,-84.18 373.8,-79.96"/>
</g>
<!-- Node16 -->
<g id="node16" class="node">
<title>Node16</title>
<g id="a_node16"><a xlink:title=" ">
<polygon fill="#e0e0e0" stroke="#999999" points="548.5,-19 498.5,-19 498.5,0 548.5,0 548.5,-19"/>
<text text-anchor="middle" x="523.5" y="-7" font-family="Helvetica,sans-Serif" font-size="10.00">cstdint</text>
</a>
</g>
</g>
<!-- Node11&#45;&gt;Node16 -->
<g id="edge20" class="edge">
<title>Node11&#45;&gt;Node16</title>
<path fill="none" stroke="#63b8ff" d="M431.04,-117.65C462.3,-114.89 508,-105.33 530.5,-74 539.88,-60.93 536.39,-42.29 531.59,-28.59"/>
<polygon fill="#63b8ff" stroke="#63b8ff" points="534.82,-27.23 527.87,-19.24 528.32,-29.83 534.82,-27.23"/>
</g>
<!-- Node17 -->
<g id="node17" class="node">
<title>Node17</title>
<g id="a_node17"><a xlink:title=" ">
<polygon fill="#e0e0e0" stroke="#999999" points="458,-74 401,-74 401,-55 458,-55 458,-74"/>
<text text-anchor="middle" x="429.5" y="-62" font-family="Helvetica,sans-Serif" font-size="10.00">ostream</text>
</a>
</g>
</g>
<!-- Node11&#45;&gt;Node17 -->
<g id="edge21" class="edge">
<title>Node11&#45;&gt;Node17</title>
<path fill="none" stroke="#63b8ff" d="M403.62,-109.75C407.86,-102.49 414.03,-91.95 419.28,-82.98"/>
<polygon fill="#63b8ff" stroke="#63b8ff" points="422.45,-84.49 424.48,-74.09 416.41,-80.95 422.45,-84.49"/>
</g>
<!-- Node18 -->
<g id="node18" class="node">
<title>Node18</title>
<g id="a_node18"><a xlink:href="../../db/d7c/utf8_8h.html" target="_top" xlink:title="Various UTF8 related helper functions.">
<polygon fill="white" stroke="#666666" points="521,-74 476,-74 476,-55 521,-55 521,-74"/>
<text text-anchor="middle" x="498.5" y="-62" font-family="Helvetica,sans-Serif" font-size="10.00">utf8.h</text>
</a>
</g>
</g>
<!-- Node11&#45;&gt;Node18 -->
<g id="edge22" class="edge">
<title>Node11&#45;&gt;Node18</title>
<path fill="none" stroke="#63b8ff" d="M414.57,-109.98C430.36,-101.61 454.72,-88.7 473.13,-78.95"/>
<polygon fill="#63b8ff" stroke="#63b8ff" points="474.94,-81.95 482.14,-74.17 471.67,-75.76 474.94,-81.95"/>
</g>
<!-- Node18&#45;&gt;Node4 -->
<g id="edge24" class="edge">
<title>Node18&#45;&gt;Node4</title>
<path fill="none" stroke="#63b8ff" d="M475.9,-56.93C473.08,-56.22 470.23,-55.56 467.5,-55 358.86,-32.93 227.92,-19.05 168.13,-13.41"/>
<polygon fill="#63b8ff" stroke="#63b8ff" points="168.1,-9.89 157.82,-12.45 167.45,-16.86 168.1,-9.89"/>
</g>
<!-- Node18&#45;&gt;Node16 -->
<g id="edge23" class="edge">
<title>Node18&#45;&gt;Node16</title>
<path fill="none" stroke="#63b8ff" d="M502.63,-54.75C506.01,-47.57 510.92,-37.18 515.12,-28.27"/>
<polygon fill="#63b8ff" stroke="#63b8ff" points="518.35,-29.63 519.45,-19.09 512.02,-26.64 518.35,-29.63"/>
</g>
</g>
</svg>
