<?xml version="1.0" encoding="UTF-8" standalone="no"?>
<!DOCTYPE svg PUBLIC "-//W3C//DTD SVG 1.1//EN"
 "http://www.w3.org/Graphics/SVG/1.1/DTD/svg11.dtd">
<!-- Generated by graphviz version 2.40.1 (20161225.0304)
 -->
<!-- Title: src/constexp_p.h Pages: 1 -->
<svg width="121pt" height="137pt"
 viewBox="0.00 0.00 120.50 137.00" xmlns="http://www.w3.org/2000/svg" xmlns:xlink="http://www.w3.org/1999/xlink">
<g id="graph0" class="graph" transform="scale(1 1) rotate(0) translate(4 133)">
<title>src/constexp_p.h</title>
<!-- Node1 -->
<g id="node1" class="node">
<title>Node1</title>
<g id="a_node1"><a xlink:title="Private interface between Parser (constexp.y) and Lexer (constexp.l)">
<polygon fill="#999999" stroke="#666666" points="96.5,-129 4.5,-129 4.5,-110 96.5,-110 96.5,-129"/>
<text text-anchor="middle" x="50.5" y="-117" font-family="Helvetica,sans-Serif" font-size="10.00" fill="#000000">src/constexp_p.h</text>
</a>
</g>
</g>
<!-- Node2 -->
<g id="node2" class="node">
<title>Node2</title>
<g id="a_node2"><a xlink:title=" ">
<polygon fill="#e0e0e0" stroke="#999999" points="41,-19 0,-19 0,0 41,0 41,-19"/>
<text text-anchor="middle" x="20.5" y="-7" font-family="Helvetica,sans-Serif" font-size="10.00" fill="#000000">string</text>
</a>
</g>
</g>
<!-- Node1&#45;&gt;Node2 -->
<g id="edge1" class="edge">
<title>Node1&#45;&gt;Node2</title>
<path fill="none" stroke="#63b8ff" d="M47.8377,-109.7382C42.9106,-91.6724 32.2854,-52.713 25.8284,-29.0376"/>
<polygon fill="#63b8ff" stroke="#63b8ff" points="29.1214,-27.8095 23.1135,-19.0828 22.3681,-29.6514 29.1214,-27.8095"/>
</g>
<!-- Node3 -->
<g id="node3" class="node">
<title>Node3</title>
<g id="a_node3"><a xlink:href="../../d6/dcc/cppvalue_8h.html" target="_top" xlink:title=" ">
<polygon fill="#ffffff" stroke="#666666" points="112.5,-74 48.5,-74 48.5,-55 112.5,-55 112.5,-74"/>
<text text-anchor="middle" x="80.5" y="-62" font-family="Helvetica,sans-Serif" font-size="10.00" fill="#000000">cppvalue.h</text>
</a>
</g>
</g>
<!-- Node1&#45;&gt;Node3 -->
<g id="edge2" class="edge">
<title>Node1&#45;&gt;Node3</title>
<path fill="none" stroke="#63b8ff" d="M55.7256,-109.9197C59.72,-102.5967 65.3522,-92.2709 70.2374,-83.3147"/>
<polygon fill="#63b8ff" stroke="#63b8ff" points="73.4163,-84.7958 75.1323,-74.3408 67.2711,-81.4438 73.4163,-84.7958"/>
</g>
<!-- Node3&#45;&gt;Node2 -->
<g id="edge4" class="edge">
<title>Node3&#45;&gt;Node2</title>
<path fill="none" stroke="#63b8ff" d="M70.0488,-54.9197C61.4651,-47.0514 49.0997,-35.7164 38.8693,-26.3385"/>
<polygon fill="#63b8ff" stroke="#63b8ff" points="40.9721,-23.5181 31.2355,-19.3408 36.242,-28.6782 40.9721,-23.5181"/>
</g>
<!-- Node4 -->
<g id="node4" class="node">
<title>Node4</title>
<g id="a_node4"><a xlink:title=" ">
<polygon fill="#e0e0e0" stroke="#999999" points="102,-19 59,-19 59,0 102,0 102,-19"/>
<text text-anchor="middle" x="80.5" y="-7" font-family="Helvetica,sans-Serif" font-size="10.00" fill="#000000">cstdio</text>
</a>
</g>
</g>
<!-- Node3&#45;&gt;Node4 -->
<g id="edge3" class="edge">
<title>Node3&#45;&gt;Node4</title>
<path fill="none" stroke="#63b8ff" d="M80.5,-54.9197C80.5,-47.9083 80.5,-38.1442 80.5,-29.4652"/>
<polygon fill="#63b8ff" stroke="#63b8ff" points="84.0001,-29.3408 80.5,-19.3408 77.0001,-29.3409 84.0001,-29.3408"/>
</g>
</g>
</svg>
