<?xml version="1.0" encoding="UTF-8" standalone="no"?>
<!DOCTYPE svg PUBLIC "-//W3C//DTD SVG 1.1//EN"
 "http://www.w3.org/Graphics/SVG/1.1/DTD/svg11.dtd">
<!-- Generated by graphviz version 2.40.1 (20161225.0304)
 -->
<!-- Title: vhdlparser/TokenManager.h Pages: 1 -->
<svg width="264pt" height="192pt"
 viewBox="0.00 0.00 264.00 192.00" xmlns="http://www.w3.org/2000/svg" xmlns:xlink="http://www.w3.org/1999/xlink">
<g id="graph0" class="graph" transform="scale(1 1) rotate(0) translate(4 188)">
<title>vhdlparser/TokenManager.h</title>
<!-- Node1 -->
<g id="node1" class="node">
<title>Node1</title>
<g id="a_node1"><a xlink:title=" ">
<polygon fill="#999999" stroke="#666666" points="161,-184 24,-184 24,-165 161,-165 161,-184"/>
<text text-anchor="middle" x="92.5" y="-172" font-family="Helvetica,sans-Serif" font-size="10.00" fill="#000000">vhdlparser/TokenManager.h</text>
</a>
</g>
</g>
<!-- Node2 -->
<g id="node2" class="node">
<title>Node2</title>
<g id="a_node2"><a xlink:title=" ">
<polygon fill="#e0e0e0" stroke="#999999" points="64.5,-129 10.5,-129 10.5,-110 64.5,-110 64.5,-129"/>
<text text-anchor="middle" x="37.5" y="-117" font-family="Helvetica,sans-Serif" font-size="10.00" fill="#000000">iostream</text>
</a>
</g>
</g>
<!-- Node1&#45;&gt;Node2 -->
<g id="edge1" class="edge">
<title>Node1&#45;&gt;Node2</title>
<path fill="none" stroke="#63b8ff" d="M82.9197,-164.9197C75.1293,-157.1293 63.9405,-145.9405 54.6176,-136.6176"/>
<polygon fill="#63b8ff" stroke="#63b8ff" points="56.8868,-133.937 47.3408,-129.3408 51.937,-138.8868 56.8868,-133.937"/>
</g>
<!-- Node3 -->
<g id="node3" class="node">
<title>Node3</title>
<g id="a_node3"><a xlink:href="../../d1/d2f/_java_c_c_8h.html" target="_top" xlink:title=" ">
<polygon fill="#ffffff" stroke="#666666" points="150,-74 89,-74 89,-55 150,-55 150,-74"/>
<text text-anchor="middle" x="119.5" y="-62" font-family="Helvetica,sans-Serif" font-size="10.00" fill="#000000">JavaCC.h</text>
</a>
</g>
</g>
<!-- Node1&#45;&gt;Node3 -->
<g id="edge2" class="edge">
<title>Node1&#45;&gt;Node3</title>
<path fill="none" stroke="#63b8ff" d="M94.8961,-164.7382C99.3304,-146.6724 108.8932,-107.713 114.7044,-84.0376"/>
<polygon fill="#63b8ff" stroke="#63b8ff" points="118.1631,-84.6289 117.1479,-74.0828 111.3649,-82.9602 118.1631,-84.6289"/>
</g>
<!-- Node8 -->
<g id="node8" class="node">
<title>Node8</title>
<g id="a_node8"><a xlink:href="../../dd/dcd/_token_8h.html" target="_top" xlink:title=" ">
<polygon fill="#ffffff" stroke="#666666" points="172.5,-129 120.5,-129 120.5,-110 172.5,-110 172.5,-129"/>
<text text-anchor="middle" x="146.5" y="-117" font-family="Helvetica,sans-Serif" font-size="10.00" fill="#000000">Token.h</text>
</a>
</g>
</g>
<!-- Node1&#45;&gt;Node8 -->
<g id="edge7" class="edge">
<title>Node1&#45;&gt;Node8</title>
<path fill="none" stroke="#63b8ff" d="M101.9061,-164.9197C109.5549,-157.1293 120.5403,-145.9405 129.6936,-136.6176"/>
<polygon fill="#63b8ff" stroke="#63b8ff" points="132.3296,-138.9286 136.8381,-129.3408 127.3347,-134.0244 132.3296,-138.9286"/>
</g>
<!-- Node4 -->
<g id="node4" class="node">
<title>Node4</title>
<g id="a_node4"><a xlink:title=" ">
<polygon fill="#e0e0e0" stroke="#999999" points="41,-19 0,-19 0,0 41,0 41,-19"/>
<text text-anchor="middle" x="20.5" y="-7" font-family="Helvetica,sans-Serif" font-size="10.00" fill="#000000">string</text>
</a>
</g>
</g>
<!-- Node3&#45;&gt;Node4 -->
<g id="edge3" class="edge">
<title>Node3&#45;&gt;Node4</title>
<path fill="none" stroke="#63b8ff" d="M102.2555,-54.9197C87.0174,-46.4541 64.556,-33.9755 47.0304,-24.2391"/>
<polygon fill="#63b8ff" stroke="#63b8ff" points="48.3204,-20.9519 37.879,-19.155 44.9209,-27.0711 48.3204,-20.9519"/>
</g>
<!-- Node5 -->
<g id="node5" class="node">
<title>Node5</title>
<g id="a_node5"><a xlink:title=" ">
<polygon fill="#e0e0e0" stroke="#999999" points="111.5,-19 59.5,-19 59.5,0 111.5,0 111.5,-19"/>
<text text-anchor="middle" x="85.5" y="-7" font-family="Helvetica,sans-Serif" font-size="10.00" fill="#000000">memory</text>
</a>
</g>
</g>
<!-- Node3&#45;&gt;Node5 -->
<g id="edge4" class="edge">
<title>Node3&#45;&gt;Node5</title>
<path fill="none" stroke="#63b8ff" d="M113.5777,-54.9197C109.0025,-47.5188 102.5314,-37.0509 96.9545,-28.0294"/>
<polygon fill="#63b8ff" stroke="#63b8ff" points="99.8188,-26.0064 91.5834,-19.3408 93.8646,-29.6872 99.8188,-26.0064"/>
</g>
<!-- Node6 -->
<g id="node6" class="node">
<title>Node6</title>
<g id="a_node6"><a xlink:title=" ">
<polygon fill="#e0e0e0" stroke="#999999" points="179,-19 130,-19 130,0 179,0 179,-19"/>
<text text-anchor="middle" x="154.5" y="-7" font-family="Helvetica,sans-Serif" font-size="10.00" fill="#000000">cassert</text>
</a>
</g>
</g>
<!-- Node3&#45;&gt;Node6 -->
<g id="edge5" class="edge">
<title>Node3&#45;&gt;Node6</title>
<path fill="none" stroke="#63b8ff" d="M125.5965,-54.9197C130.3062,-47.5188 136.9676,-37.0509 142.7086,-28.0294"/>
<polygon fill="#63b8ff" stroke="#63b8ff" points="145.8217,-29.6565 148.2377,-19.3408 139.916,-25.8984 145.8217,-29.6565"/>
</g>
<!-- Node7 -->
<g id="node7" class="node">
<title>Node7</title>
<g id="a_node7"><a xlink:title=" ">
<polygon fill="#e0e0e0" stroke="#999999" points="256,-19 197,-19 197,0 256,0 256,-19"/>
<text text-anchor="middle" x="226.5" y="-7" font-family="Helvetica,sans-Serif" font-size="10.00" fill="#000000">functional</text>
</a>
</g>
</g>
<!-- Node3&#45;&gt;Node7 -->
<g id="edge6" class="edge">
<title>Node3&#45;&gt;Node7</title>
<path fill="none" stroke="#63b8ff" d="M138.138,-54.9197C154.8362,-46.3365 179.5598,-33.6281 198.6118,-23.8351"/>
<polygon fill="#63b8ff" stroke="#63b8ff" points="200.4228,-26.8395 207.7166,-19.155 197.2227,-20.6138 200.4228,-26.8395"/>
</g>
<!-- Node8&#45;&gt;Node3 -->
<g id="edge8" class="edge">
<title>Node8&#45;&gt;Node3</title>
<path fill="none" stroke="#63b8ff" d="M141.797,-109.9197C138.2403,-102.6746 133.2407,-92.4903 128.8769,-83.601"/>
<polygon fill="#63b8ff" stroke="#63b8ff" points="131.8796,-81.7751 124.331,-74.3408 125.5959,-84.8599 131.8796,-81.7751"/>
</g>
</g>
</svg>
