<?xml version="1.0" encoding="UTF-8" standalone="no"?>
<!DOCTYPE svg PUBLIC "-//W3C//DTD SVG 1.1//EN"
 "http://www.w3.org/Graphics/SVG/1.1/DTD/svg11.dtd">
<!-- Generated by graphviz version 2.40.1 (20161225.0304)
 -->
<!-- Title: src/vhdldocgen.h Pages: 1 -->
<svg width="2314pt" height="313pt"
 viewBox="0.00 0.00 2314.00 313.00" xmlns="http://www.w3.org/2000/svg" xmlns:xlink="http://www.w3.org/1999/xlink">
<g id="graph0" class="graph" transform="scale(1 1) rotate(0) translate(4 309)">
<title>src/vhdldocgen.h</title>
<!-- Node1 -->
<g id="node1" class="node">
<title>Node1</title>
<g id="a_node1"><a xlink:title=" ">
<polygon fill="#999999" stroke="#666666" points="1100,-305 1009,-305 1009,-286 1100,-286 1100,-305"/>
<text text-anchor="middle" x="1054.5" y="-293" font-family="Helvetica,sans-Serif" font-size="10.00" fill="#000000">src/vhdldocgen.h</text>
</a>
</g>
</g>
<!-- Node2 -->
<g id="node2" class="node">
<title>Node2</title>
<g id="a_node2"><a xlink:href="../../de/d89/classdef_8cpp.html" target="_top" xlink:title=" ">
<polygon fill="#ffffff" stroke="#666666" points="89,-250 0,-250 0,-231 89,-231 89,-250"/>
<text text-anchor="middle" x="44.5" y="-238" font-family="Helvetica,sans-Serif" font-size="10.00" fill="#000000">src/classdef.cpp</text>
</a>
</g>
</g>
<!-- Node1&#45;&gt;Node2 -->
<g id="edge1" class="edge">
<title>Node1&#45;&gt;Node2</title>
<path fill="none" stroke="#63b8ff" d="M998.7109,-293.8013C821.6907,-288.2609 273.9374,-269.9218 97.5,-250 94.8062,-249.6958 92.0426,-249.3387 89.2595,-248.9444"/>
<polygon fill="#63b8ff" stroke="#63b8ff" points="998.7384,-297.3037 1008.8426,-294.1171 998.9565,-290.3071 998.7384,-297.3037"/>
</g>
<!-- Node3 -->
<g id="node3" class="node">
<title>Node3</title>
<g id="a_node3"><a xlink:href="../../d6/d10/classlist_8cpp.html" target="_top" xlink:title=" ">
<polygon fill="#ffffff" stroke="#666666" points="194.5,-250 106.5,-250 106.5,-231 194.5,-231 194.5,-250"/>
<text text-anchor="middle" x="150.5" y="-238" font-family="Helvetica,sans-Serif" font-size="10.00" fill="#000000">src/classlist.cpp</text>
</a>
</g>
</g>
<!-- Node1&#45;&gt;Node3 -->
<g id="edge2" class="edge">
<title>Node1&#45;&gt;Node3</title>
<path fill="none" stroke="#63b8ff" d="M998.4643,-294.9022C862.0102,-292.9255 501.7942,-284.5734 203.5,-250 200.6214,-249.6664 197.6627,-249.2742 194.6857,-248.8426"/>
<polygon fill="#63b8ff" stroke="#63b8ff" points="998.6207,-298.4046 1008.6684,-295.0441 998.7181,-291.4053 998.6207,-298.4046"/>
</g>
<!-- Node4 -->
<g id="node4" class="node">
<title>Node4</title>
<g id="a_node4"><a xlink:href="../../db/d12/context_8cpp.html" target="_top" xlink:title=" ">
<polygon fill="#ffffff" stroke="#666666" points="296.5,-250 212.5,-250 212.5,-231 296.5,-231 296.5,-250"/>
<text text-anchor="middle" x="254.5" y="-238" font-family="Helvetica,sans-Serif" font-size="10.00" fill="#000000">src/context.cpp</text>
</a>
</g>
</g>
<!-- Node1&#45;&gt;Node4 -->
<g id="edge3" class="edge">
<title>Node1&#45;&gt;Node4</title>
<path fill="none" stroke="#63b8ff" d="M998.6498,-294.4626C873.9037,-291.6307 563.3161,-281.7201 305.5,-250 302.6395,-249.6481 299.6972,-249.2357 296.7384,-248.7834"/>
<polygon fill="#63b8ff" stroke="#63b8ff" points="998.6498,-297.9634 1008.7246,-294.685 998.8043,-290.9651 998.6498,-297.9634"/>
</g>
<!-- Node5 -->
<g id="node5" class="node">
<title>Node5</title>
<g id="a_node5"><a xlink:href="../../d3/dea/definition_8cpp.html" target="_top" xlink:title=" ">
<polygon fill="#ffffff" stroke="#666666" points="406,-250 315,-250 315,-231 406,-231 406,-250"/>
<text text-anchor="middle" x="360.5" y="-238" font-family="Helvetica,sans-Serif" font-size="10.00" fill="#000000">src/definition.cpp</text>
</a>
</g>
</g>
<!-- Node1&#45;&gt;Node5 -->
<g id="edge4" class="edge">
<title>Node1&#45;&gt;Node5</title>
<path fill="none" stroke="#63b8ff" d="M998.6283,-293.4682C887.1898,-288.9877 629.5055,-276.4836 414.5,-250 411.7602,-249.6625 408.9482,-249.2796 406.1155,-248.8658"/>
<polygon fill="#63b8ff" stroke="#63b8ff" points="998.819,-296.9784 1008.9497,-293.8769 999.0961,-289.9838 998.819,-296.9784"/>
</g>
<!-- Node6 -->
<g id="node6" class="node">
<title>Node6</title>
<g id="a_node6"><a xlink:href="../../d0/d2b/docnode_8cpp.html" target="_top" xlink:title=" ">
<polygon fill="#ffffff" stroke="#666666" points="513,-250 424,-250 424,-231 513,-231 513,-250"/>
<text text-anchor="middle" x="468.5" y="-238" font-family="Helvetica,sans-Serif" font-size="10.00" fill="#000000">src/docnode.cpp</text>
</a>
</g>
</g>
<!-- Node1&#45;&gt;Node6 -->
<g id="edge5" class="edge">
<title>Node1&#45;&gt;Node6</title>
<path fill="none" stroke="#63b8ff" d="M998.635,-292.3601C901.5322,-286.5371 695.4412,-272.5626 522.5,-250 519.4795,-249.6059 516.3704,-249.162 513.242,-248.6867"/>
<polygon fill="#63b8ff" stroke="#63b8ff" points="998.6186,-295.8652 1008.8085,-292.9642 999.0335,-288.8775 998.6186,-295.8652"/>
</g>
<!-- Node7 -->
<g id="node7" class="node">
<title>Node7</title>
<g id="a_node7"><a xlink:href="../../d4/d09/dotgfxhierarchytable_8cpp.html" target="_top" xlink:title=" ">
<polygon fill="#ffffff" stroke="#666666" points="671.5,-250 531.5,-250 531.5,-231 671.5,-231 671.5,-250"/>
<text text-anchor="middle" x="601.5" y="-238" font-family="Helvetica,sans-Serif" font-size="10.00" fill="#000000">src/dotgfxhierarchytable.cpp</text>
</a>
</g>
</g>
<!-- Node1&#45;&gt;Node7 -->
<g id="edge6" class="edge">
<title>Node1&#45;&gt;Node7</title>
<path fill="none" stroke="#63b8ff" d="M998.8144,-288.7391C916.3391,-278.7255 761.7828,-259.9604 671.6732,-249.0199"/>
<polygon fill="#63b8ff" stroke="#63b8ff" points="998.6416,-292.2437 1008.9905,-289.9746 999.4853,-285.2947 998.6416,-292.2437"/>
</g>
<!-- Node8 -->
<g id="node8" class="node">
<title>Node8</title>
<g id="a_node8"><a xlink:href="../../dc/d98/doxygen_8cpp.html" target="_top" xlink:title=" ">
<polygon fill="#ffffff" stroke="#666666" points="517,-195 428,-195 428,-176 517,-176 517,-195"/>
<text text-anchor="middle" x="472.5" y="-183" font-family="Helvetica,sans-Serif" font-size="10.00" fill="#000000">src/doxygen.cpp</text>
</a>
</g>
</g>
<!-- Node1&#45;&gt;Node8 -->
<g id="edge7" class="edge">
<title>Node1&#45;&gt;Node8</title>
<path fill="none" stroke="#63b8ff" d="M998.8392,-293.3416C931.4176,-289.5048 815.0055,-278.934 719.5,-250 701.0473,-244.4096 698.7132,-237.3271 680.5,-231 650.8197,-220.6893 568.8349,-204.008 517.1009,-193.9638"/>
<polygon fill="#63b8ff" stroke="#63b8ff" points="998.6515,-296.8365 1008.8257,-293.8808 999.0289,-289.8466 998.6515,-296.8365"/>
</g>
<!-- Node9 -->
<g id="node9" class="node">
<title>Node9</title>
<g id="a_node9"><a xlink:href="../../d6/ddc/filedef_8cpp.html" target="_top" xlink:title=" ">
<polygon fill="#ffffff" stroke="#666666" points="991.5,-250 913.5,-250 913.5,-231 991.5,-231 991.5,-250"/>
<text text-anchor="middle" x="952.5" y="-238" font-family="Helvetica,sans-Serif" font-size="10.00" fill="#000000">src/filedef.cpp</text>
</a>
</g>
</g>
<!-- Node1&#45;&gt;Node9 -->
<g id="edge8" class="edge">
<title>Node1&#45;&gt;Node9</title>
<path fill="none" stroke="#63b8ff" d="M1027.8241,-281.1159C1009.7274,-271.3579 986.295,-258.7228 970.4057,-250.155"/>
<polygon fill="#63b8ff" stroke="#63b8ff" points="1026.2698,-284.2542 1036.733,-285.9197 1029.5922,-278.0929 1026.2698,-284.2542"/>
</g>
<!-- Node10 -->
<g id="node10" class="node">
<title>Node10</title>
<g id="a_node10"><a xlink:href="../../d6/d42/groupdef_8cpp.html" target="_top" xlink:title=" ">
<polygon fill="#ffffff" stroke="#666666" points="1099,-250 1010,-250 1010,-231 1099,-231 1099,-250"/>
<text text-anchor="middle" x="1054.5" y="-238" font-family="Helvetica,sans-Serif" font-size="10.00" fill="#000000">src/groupdef.cpp</text>
</a>
</g>
</g>
<!-- Node1&#45;&gt;Node10 -->
<g id="edge9" class="edge">
<title>Node1&#45;&gt;Node10</title>
<path fill="none" stroke="#63b8ff" d="M1054.5,-275.8553C1054.5,-267.2036 1054.5,-257.4195 1054.5,-250.3408"/>
<polygon fill="#63b8ff" stroke="#63b8ff" points="1051.0001,-275.9197 1054.5,-285.9197 1058.0001,-275.9198 1051.0001,-275.9197"/>
</g>
<!-- Node11 -->
<g id="node11" class="node">
<title>Node11</title>
<g id="a_node11"><a xlink:href="../../da/db0/htmldocvisitor_8cpp.html" target="_top" xlink:title=" ">
<polygon fill="#ffffff" stroke="#666666" points="1230,-250 1117,-250 1117,-231 1230,-231 1230,-250"/>
<text text-anchor="middle" x="1173.5" y="-238" font-family="Helvetica,sans-Serif" font-size="10.00" fill="#000000">src/htmldocvisitor.cpp</text>
</a>
</g>
</g>
<!-- Node1&#45;&gt;Node11 -->
<g id="edge10" class="edge">
<title>Node1&#45;&gt;Node11</title>
<path fill="none" stroke="#63b8ff" d="M1084.4661,-281.6501C1105.7285,-271.823 1133.7324,-258.88 1152.61,-250.155"/>
<polygon fill="#63b8ff" stroke="#63b8ff" points="1082.8372,-278.5472 1075.2282,-285.9197 1085.774,-284.9013 1082.8372,-278.5472"/>
</g>
<!-- Node12 -->
<g id="node12" class="node">
<title>Node12</title>
<g id="a_node12"><a xlink:href="../../d8/d6e/htmlgen_8cpp.html" target="_top" xlink:title=" ">
<polygon fill="#ffffff" stroke="#666666" points="1334.5,-250 1248.5,-250 1248.5,-231 1334.5,-231 1334.5,-250"/>
<text text-anchor="middle" x="1291.5" y="-238" font-family="Helvetica,sans-Serif" font-size="10.00" fill="#000000">src/htmlgen.cpp</text>
</a>
</g>
</g>
<!-- Node1&#45;&gt;Node12 -->
<g id="edge11" class="edge">
<title>Node1&#45;&gt;Node12</title>
<path fill="none" stroke="#63b8ff" d="M1105.2709,-283.7177C1148.5243,-273.68 1209.9018,-259.4363 1250.1961,-250.0853"/>
<polygon fill="#63b8ff" stroke="#63b8ff" points="1104.4616,-280.3124 1095.5117,-285.9825 1106.0441,-287.1312 1104.4616,-280.3124"/>
</g>
<!-- Node13 -->
<g id="node13" class="node">
<title>Node13</title>
<g id="a_node13"><a xlink:href="../../db/d14/index_8cpp.html" target="_top" xlink:title="This file contains functions for the various index pages.">
<polygon fill="#ffffff" stroke="#666666" points="1428,-250 1353,-250 1353,-231 1428,-231 1428,-250"/>
<text text-anchor="middle" x="1390.5" y="-238" font-family="Helvetica,sans-Serif" font-size="10.00" fill="#000000">src/index.cpp</text>
</a>
</g>
</g>
<!-- Node1&#45;&gt;Node13 -->
<g id="edge12" class="edge">
<title>Node1&#45;&gt;Node13</title>
<path fill="none" stroke="#63b8ff" d="M1110.2539,-287.4536C1168.5446,-278.8699 1262.6216,-264.5336 1343.5,-250 1346.5316,-249.4552 1349.6687,-248.8695 1352.8174,-248.266"/>
<polygon fill="#63b8ff" stroke="#63b8ff" points="1109.5377,-284.0211 1100.152,-288.9363 1110.5543,-290.9469 1109.5377,-284.0211"/>
</g>
<!-- Node14 -->
<g id="node14" class="node">
<title>Node14</title>
<g id="a_node14"><a xlink:href="../../d2/d48/language_8cpp.html" target="_top" xlink:title=" ">
<polygon fill="#ffffff" stroke="#666666" points="1537,-250 1446,-250 1446,-231 1537,-231 1537,-250"/>
<text text-anchor="middle" x="1491.5" y="-238" font-family="Helvetica,sans-Serif" font-size="10.00" fill="#000000">src/language.cpp</text>
</a>
</g>
</g>
<!-- Node1&#45;&gt;Node14 -->
<g id="edge13" class="edge">
<title>Node1&#45;&gt;Node14</title>
<path fill="none" stroke="#63b8ff" d="M1110.1185,-289.8782C1184.7609,-282.1084 1321.3988,-267.0953 1437.5,-250 1440.2311,-249.5979 1443.0363,-249.1649 1445.8639,-248.7133"/>
<polygon fill="#63b8ff" stroke="#63b8ff" points="1109.5922,-286.4139 1100.0062,-290.9259 1110.3137,-293.3766 1109.5922,-286.4139"/>
</g>
<!-- Node15 -->
<g id="node15" class="node">
<title>Node15</title>
<g id="a_node15"><a xlink:href="../../db/d16/layout_8cpp.html" target="_top" xlink:title=" ">
<polygon fill="#ffffff" stroke="#666666" points="1633.5,-250 1555.5,-250 1555.5,-231 1633.5,-231 1633.5,-250"/>
<text text-anchor="middle" x="1594.5" y="-238" font-family="Helvetica,sans-Serif" font-size="10.00" fill="#000000">src/layout.cpp</text>
</a>
</g>
</g>
<!-- Node1&#45;&gt;Node15 -->
<g id="edge14" class="edge">
<title>Node1&#45;&gt;Node15</title>
<path fill="none" stroke="#63b8ff" d="M1110.2705,-292.2233C1201.7235,-286.429 1389.1403,-272.7863 1546.5,-250 1549.3585,-249.5861 1552.3044,-249.1145 1555.264,-248.608"/>
<polygon fill="#63b8ff" stroke="#63b8ff" points="1109.8933,-288.74 1100.1316,-292.8584 1110.3309,-295.7263 1109.8933,-288.74"/>
</g>
<!-- Node16 -->
<g id="node16" class="node">
<title>Node16</title>
<g id="a_node16"><a xlink:href="../../d0/d72/memberdef_8cpp.html" target="_top" xlink:title=" ">
<polygon fill="#ffffff" stroke="#666666" points="1753,-250 1652,-250 1652,-231 1753,-231 1753,-250"/>
<text text-anchor="middle" x="1702.5" y="-238" font-family="Helvetica,sans-Serif" font-size="10.00" fill="#000000">src/memberdef.cpp</text>
</a>
</g>
</g>
<!-- Node1&#45;&gt;Node16 -->
<g id="edge15" class="edge">
<title>Node1&#45;&gt;Node16</title>
<path fill="none" stroke="#63b8ff" d="M1110.3903,-292.6646C1215.0553,-287.0243 1447.6483,-272.9276 1642.5,-250 1645.5375,-249.6426 1648.6568,-249.2442 1651.8003,-248.8188"/>
<polygon fill="#63b8ff" stroke="#63b8ff" points="1110.1651,-289.1715 1100.366,-293.1999 1110.5385,-296.1615 1110.1651,-289.1715"/>
</g>
<!-- Node17 -->
<g id="node17" class="node">
<title>Node17</title>
<g id="a_node17"><a xlink:href="../../d0/d14/memberlist_8cpp.html" target="_top" xlink:title=" ">
<polygon fill="#ffffff" stroke="#666666" points="1871.5,-250 1771.5,-250 1771.5,-231 1871.5,-231 1871.5,-250"/>
<text text-anchor="middle" x="1821.5" y="-238" font-family="Helvetica,sans-Serif" font-size="10.00" fill="#000000">src/memberlist.cpp</text>
</a>
</g>
</g>
<!-- Node1&#45;&gt;Node17 -->
<g id="edge16" class="edge">
<title>Node1&#45;&gt;Node17</title>
<path fill="none" stroke="#63b8ff" d="M1110.2156,-293.729C1229.9285,-289.5268 1520.4707,-277.1996 1762.5,-250 1765.3868,-249.6756 1768.348,-249.3085 1771.3326,-248.9119"/>
<polygon fill="#63b8ff" stroke="#63b8ff" points="1110.062,-290.2321 1100.189,-294.0759 1110.3041,-297.228 1110.062,-290.2321"/>
</g>
<!-- Node18 -->
<g id="node18" class="node">
<title>Node18</title>
<g id="a_node18"><a xlink:href="../../d7/d1c/namespacedef_8cpp.html" target="_top" xlink:title=" ">
<polygon fill="#ffffff" stroke="#666666" points="2005.5,-250 1889.5,-250 1889.5,-231 2005.5,-231 2005.5,-250"/>
<text text-anchor="middle" x="1947.5" y="-238" font-family="Helvetica,sans-Serif" font-size="10.00" fill="#000000">src/namespacedef.cpp</text>
</a>
</g>
</g>
<!-- Node1&#45;&gt;Node18 -->
<g id="edge17" class="edge">
<title>Node1&#45;&gt;Node18</title>
<path fill="none" stroke="#63b8ff" d="M1110.6557,-294.0689C1244.3123,-290.3005 1591.7364,-278.3725 1880.5,-250 1883.423,-249.7128 1886.4141,-249.3911 1889.432,-249.0444"/>
<polygon fill="#63b8ff" stroke="#63b8ff" points="1110.1716,-290.5809 1100.2727,-294.3573 1110.366,-297.5782 1110.1716,-290.5809"/>
</g>
<!-- Node19 -->
<g id="node19" class="node">
<title>Node19</title>
<g id="a_node19"><a xlink:href="../../db/dd8/outputlist_8cpp.html" target="_top" xlink:title=" ">
<polygon fill="#ffffff" stroke="#666666" points="2115.5,-250 2023.5,-250 2023.5,-231 2115.5,-231 2115.5,-250"/>
<text text-anchor="middle" x="2069.5" y="-238" font-family="Helvetica,sans-Serif" font-size="10.00" fill="#000000">src/outputlist.cpp</text>
</a>
</g>
</g>
<!-- Node1&#45;&gt;Node19 -->
<g id="edge18" class="edge">
<title>Node1&#45;&gt;Node19</title>
<path fill="none" stroke="#63b8ff" d="M1110.1534,-293.7688C1287.3875,-288.1128 1837.3453,-269.4226 2014.5,-250 2017.3897,-249.6832 2020.3574,-249.3102 2023.3452,-248.8985"/>
<polygon fill="#63b8ff" stroke="#63b8ff" points="1109.8951,-290.2752 1100.0113,-294.0912 1110.1175,-297.2716 1109.8951,-290.2752"/>
</g>
<!-- Node20 -->
<g id="node20" class="node">
<title>Node20</title>
<g id="a_node20"><a xlink:href="../../d0/d9c/rtfgen_8cpp.html" target="_top" xlink:title=" ">
<polygon fill="#ffffff" stroke="#666666" points="2211,-250 2134,-250 2134,-231 2211,-231 2211,-250"/>
<text text-anchor="middle" x="2172.5" y="-238" font-family="Helvetica,sans-Serif" font-size="10.00" fill="#000000">src/rtfgen.cpp</text>
</a>
</g>
</g>
<!-- Node1&#45;&gt;Node20 -->
<g id="edge19" class="edge">
<title>Node1&#45;&gt;Node20</title>
<path fill="none" stroke="#63b8ff" d="M1110.3597,-294.2539C1301.0064,-289.8241 1925.2024,-273.8178 2124.5,-250 2127.5366,-249.6371 2130.6683,-249.1884 2133.8085,-248.6852"/>
<polygon fill="#63b8ff" stroke="#63b8ff" points="1110.1989,-290.7566 1100.2824,-294.4866 1110.3605,-297.7547 1110.1989,-290.7566"/>
</g>
<!-- Node21 -->
<g id="node21" class="node">
<title>Node21</title>
<g id="a_node21"><a xlink:href="../../d5/d6a/vhdlcode_8l.html" target="_top" xlink:title=" ">
<polygon fill="#ffffff" stroke="#666666" points="2306,-250 2229,-250 2229,-231 2306,-231 2306,-250"/>
<text text-anchor="middle" x="2267.5" y="-238" font-family="Helvetica,sans-Serif" font-size="10.00" fill="#000000">src/vhdlcode.l</text>
</a>
</g>
</g>
<!-- Node1&#45;&gt;Node21 -->
<g id="edge20" class="edge">
<title>Node1&#45;&gt;Node21</title>
<path fill="none" stroke="#63b8ff" d="M1110.2438,-294.5114C1311.6846,-290.7537 2001.5373,-276.2295 2220.5,-250 2223.2277,-249.6733 2226.0331,-249.2729 2228.8509,-248.8233"/>
<polygon fill="#63b8ff" stroke="#63b8ff" points="1110.1179,-291.013 1100.1844,-294.6976 1110.2475,-298.0118 1110.1179,-291.013"/>
</g>
<!-- Node22 -->
<g id="node22" class="node">
<title>Node22</title>
<g id="a_node22"><a xlink:href="../../de/dea/vhdldocgen_8cpp.html" target="_top" xlink:title=" ">
<polygon fill="#ffffff" stroke="#666666" points="865,-140 764,-140 764,-121 865,-121 865,-140"/>
<text text-anchor="middle" x="814.5" y="-128" font-family="Helvetica,sans-Serif" font-size="10.00" fill="#000000">src/vhdldocgen.cpp</text>
</a>
</g>
</g>
<!-- Node1&#45;&gt;Node22 -->
<g id="edge21" class="edge">
<title>Node1&#45;&gt;Node22</title>
<path fill="none" stroke="#63b8ff" d="M998.695,-286.9894C952.3073,-278.9618 890.8729,-265.8176 871.5,-250 835.5342,-220.6346 820.8376,-163.2084 816.2378,-140.2884"/>
<polygon fill="#63b8ff" stroke="#63b8ff" points="998.1967,-290.4547 1008.6406,-288.6728 999.365,-283.5529 998.1967,-290.4547"/>
</g>
<!-- Node23 -->
<g id="node23" class="node">
<title>Node23</title>
<g id="a_node23"><a xlink:href="../../d1/d86/vhdljjparser_8cpp.html" target="_top" xlink:title=" ">
<polygon fill="#ffffff" stroke="#666666" points="768,-19 667,-19 667,0 768,0 768,-19"/>
<text text-anchor="middle" x="717.5" y="-7" font-family="Helvetica,sans-Serif" font-size="10.00" fill="#000000">src/vhdljjparser.cpp</text>
</a>
</g>
</g>
<!-- Node1&#45;&gt;Node23 -->
<g id="edge22" class="edge">
<title>Node1&#45;&gt;Node23</title>
<path fill="none" stroke="#63b8ff" d="M999.1498,-285.1211C961.8172,-276.9688 917.1442,-264.5784 904.5,-250 847.0466,-183.758 932.364,-120.8836 874.5,-55 860.408,-38.9549 808.6235,-26.0498 768.335,-18.1382"/>
<polygon fill="#63b8ff" stroke="#63b8ff" points="998.4451,-288.5494 1008.9541,-287.2036 999.8996,-281.7021 998.4451,-288.5494"/>
</g>
<!-- Node24 -->
<g id="node24" class="node">
<title>Node24</title>
<g id="a_node24"><a xlink:href="../../d2/d55/vhdljjparser_8h.html" target="_top" xlink:title=" ">
<polygon fill="#ffffff" stroke="#666666" points="819,-250 728,-250 728,-231 819,-231 819,-250"/>
<text text-anchor="middle" x="773.5" y="-238" font-family="Helvetica,sans-Serif" font-size="10.00" fill="#000000">src/vhdljjparser.h</text>
</a>
</g>
</g>
<!-- Node1&#45;&gt;Node24 -->
<g id="edge23" class="edge">
<title>Node1&#45;&gt;Node24</title>
<path fill="none" stroke="#63b8ff" d="M998.8904,-284.6156C946.3035,-274.3227 868.3355,-259.0621 819.2533,-249.4553"/>
<polygon fill="#63b8ff" stroke="#63b8ff" points="998.241,-288.0548 1008.7271,-286.5409 999.5856,-281.1851 998.241,-288.0548"/>
</g>
<!-- Node24&#45;&gt;Node8 -->
<g id="edge24" class="edge">
<title>Node24&#45;&gt;Node8</title>
<path fill="none" stroke="#63b8ff" d="M717.718,-230.3073C659.8612,-219.7354 570.5398,-203.4143 517.1693,-193.6622"/>
<polygon fill="#63b8ff" stroke="#63b8ff" points="717.3183,-233.7921 727.7846,-232.1467 718.5766,-226.9061 717.3183,-233.7921"/>
</g>
<!-- Node24&#45;&gt;Node22 -->
<g id="edge25" class="edge">
<title>Node24&#45;&gt;Node22</title>
<path fill="none" stroke="#63b8ff" d="M780.7502,-221.0483C789.6007,-197.303 804.2161,-158.0909 810.9282,-140.0828"/>
<polygon fill="#63b8ff" stroke="#63b8ff" points="777.3515,-220.1455 777.1385,-230.7382 783.9107,-222.5904 777.3515,-220.1455"/>
</g>
<!-- Node24&#45;&gt;Node23 -->
<g id="edge26" class="edge">
<title>Node24&#45;&gt;Node23</title>
<path fill="none" stroke="#63b8ff" d="M718.2979,-228.5904C681.545,-219.7883 637.3731,-207.2533 622.5,-195 579.8434,-159.857 577.7777,-138.65 564.5,-85 561.2968,-72.0572 556.5281,-65.6877 564.5,-55 576.9267,-38.3399 627.3192,-25.5822 666.92,-17.8735"/>
<polygon fill="#63b8ff" stroke="#63b8ff" points="717.9016,-232.0924 728.4369,-230.9707 719.5016,-225.2777 717.9016,-232.0924"/>
</g>
<!-- Node25 -->
<g id="node25" class="node">
<title>Node25</title>
<g id="a_node25"><a xlink:href="../../d5/df9/_vhdl_parser_8h.html" target="_top" xlink:title=" ">
<polygon fill="#ffffff" stroke="#666666" points="752,-195 631,-195 631,-176 752,-176 752,-195"/>
<text text-anchor="middle" x="691.5" y="-183" font-family="Helvetica,sans-Serif" font-size="10.00" fill="#000000">vhdlparser/VhdlParser.h</text>
</a>
</g>
</g>
<!-- Node24&#45;&gt;Node25 -->
<g id="edge27" class="edge">
<title>Node24&#45;&gt;Node25</title>
<path fill="none" stroke="#63b8ff" d="M750.8439,-225.3038C736.474,-215.6655 718.3169,-203.487 705.8948,-195.155"/>
<polygon fill="#63b8ff" stroke="#63b8ff" points="748.9621,-228.2561 759.2167,-230.9197 752.8614,-222.4426 748.9621,-228.2561"/>
</g>
<!-- Node25&#45;&gt;Node22 -->
<g id="edge28" class="edge">
<title>Node25&#45;&gt;Node22</title>
<path fill="none" stroke="#63b8ff" d="M722.1768,-171.7827C744.1895,-161.9396 773.3078,-148.9193 792.9079,-140.155"/>
<polygon fill="#63b8ff" stroke="#63b8ff" points="720.6252,-168.6425 712.925,-175.9197 723.4826,-175.0328 720.6252,-168.6425"/>
</g>
<!-- Node26 -->
<g id="node26" class="node">
<title>Node26</title>
<g id="a_node26"><a xlink:href="../../d2/dc3/_vhdl_parser_error_handler_8hpp.html" target="_top" xlink:title=" ">
<polygon fill="#ffffff" stroke="#666666" points="707.5,-85 573.5,-85 573.5,-55 707.5,-55 707.5,-85"/>
<text text-anchor="start" x="581.5" y="-73" font-family="Helvetica,sans-Serif" font-size="10.00" fill="#000000">vhdlparser/VhdlParserError</text>
<text text-anchor="middle" x="640.5" y="-62" font-family="Helvetica,sans-Serif" font-size="10.00" fill="#000000">Handler.hpp</text>
</a>
</g>
</g>
<!-- Node25&#45;&gt;Node26 -->
<g id="edge29" class="edge">
<title>Node25&#45;&gt;Node26</title>
<path fill="none" stroke="#63b8ff" d="M656.664,-171.3191C643.4933,-164.0406 629.9063,-153.7555 622.5,-140 613.101,-122.5435 622.1604,-99.9704 630.474,-85.2461"/>
<polygon fill="#63b8ff" stroke="#63b8ff" points="655.1348,-174.468 665.6347,-175.8834 658.3092,-168.2291 655.1348,-174.468"/>
</g>
<!-- Node27 -->
<g id="node27" class="node">
<title>Node27</title>
<g id="a_node27"><a xlink:href="../../d9/d48/vhdlstring_8h.html" target="_top" xlink:title=" ">
<polygon fill="#ffffff" stroke="#666666" points="746,-140 631,-140 631,-121 746,-121 746,-140"/>
<text text-anchor="middle" x="688.5" y="-128" font-family="Helvetica,sans-Serif" font-size="10.00" fill="#000000">vhdlparser/vhdlstring.h</text>
</a>
</g>
</g>
<!-- Node25&#45;&gt;Node27 -->
<g id="edge31" class="edge">
<title>Node25&#45;&gt;Node27</title>
<path fill="none" stroke="#63b8ff" d="M690.4285,-165.8553C689.9566,-157.2036 689.4229,-147.4195 689.0368,-140.3408"/>
<polygon fill="#63b8ff" stroke="#63b8ff" points="686.9379,-166.1252 690.9774,-175.9197 693.9275,-165.7439 686.9379,-166.1252"/>
</g>
<!-- Node26&#45;&gt;Node23 -->
<g id="edge30" class="edge">
<title>Node26&#45;&gt;Node23</title>
<path fill="none" stroke="#63b8ff" d="M668.0015,-48.3917C680.7703,-38.359 695.301,-26.942 705.2991,-19.0864"/>
<polygon fill="#63b8ff" stroke="#63b8ff" points="665.6312,-45.8029 659.9304,-54.7333 669.9559,-51.3072 665.6312,-45.8029"/>
</g>
<!-- Node27&#45;&gt;Node26 -->
<g id="edge32" class="edge">
<title>Node27&#45;&gt;Node26</title>
<path fill="none" stroke="#63b8ff" d="M674.3944,-112.7211C667.4425,-103.9587 659.1478,-93.504 652.5041,-85.1301"/>
<polygon fill="#63b8ff" stroke="#63b8ff" points="671.8307,-115.1211 680.788,-120.7796 677.3145,-110.7703 671.8307,-115.1211"/>
</g>
<!-- Node28 -->
<g id="node28" class="node">
<title>Node28</title>
<g id="a_node28"><a xlink:href="../../d7/dad/_vhdl_parser_token_manager_8h.html" target="_top" xlink:title=" ">
<polygon fill="#ffffff" stroke="#666666" points="865.5,-85 725.5,-85 725.5,-55 865.5,-55 865.5,-85"/>
<text text-anchor="start" x="733.5" y="-73" font-family="Helvetica,sans-Serif" font-size="10.00" fill="#000000">vhdlparser/VhdlParserToken</text>
<text text-anchor="middle" x="795.5" y="-62" font-family="Helvetica,sans-Serif" font-size="10.00" fill="#000000">Manager.h</text>
</a>
</g>
</g>
<!-- Node27&#45;&gt;Node28 -->
<g id="edge33" class="edge">
<title>Node27&#45;&gt;Node28</title>
<path fill="none" stroke="#63b8ff" d="M714.7444,-115.6609C731.1551,-106.3819 752.234,-94.4635 768.7409,-85.1301"/>
<polygon fill="#63b8ff" stroke="#63b8ff" points="712.6736,-112.811 705.6914,-120.7796 716.119,-118.9044 712.6736,-112.811"/>
</g>
<!-- Node28&#45;&gt;Node23 -->
<g id="edge34" class="edge">
<title>Node28&#45;&gt;Node23</title>
<path fill="none" stroke="#63b8ff" d="M767.6413,-48.3917C754.7067,-38.359 739.9873,-26.942 729.8593,-19.0864"/>
<polygon fill="#63b8ff" stroke="#63b8ff" points="765.7705,-51.37 775.8173,-54.7333 770.0607,-45.8388 765.7705,-51.37"/>
</g>
</g>
</svg>
