<?xml version="1.0" encoding="UTF-8" standalone="no"?>
<!DOCTYPE svg PUBLIC "-//W3C//DTD SVG 1.1//EN"
 "http://www.w3.org/Graphics/SVG/1.1/DTD/svg11.dtd">
<!-- Generated by graphviz version 2.40.1 (20161225.0304)
 -->
<!-- Title: src/containers.h Pages: 1 -->
<svg width="471pt" height="82pt"
 viewBox="0.00 0.00 470.50 82.00" xmlns="http://www.w3.org/2000/svg" xmlns:xlink="http://www.w3.org/1999/xlink">
<g id="graph0" class="graph" transform="scale(1 1) rotate(0) translate(4 78)">
<title>src/containers.h</title>
<!-- Node1 -->
<g id="node1" class="node">
<title>Node1</title>
<g id="a_node1"><a xlink:title=" ">
<polygon fill="#999999" stroke="#666666" points="231,-74 145,-74 145,-55 231,-55 231,-74"/>
<text text-anchor="middle" x="188" y="-62" font-family="Helvetica,sans-Serif" font-size="10.00" fill="#000000">src/containers.h</text>
</a>
</g>
</g>
<!-- Node2 -->
<g id="node2" class="node">
<title>Node2</title>
<g id="a_node2"><a xlink:title=" ">
<polygon fill="#e0e0e0" stroke="#999999" points="44,-19 0,-19 0,0 44,0 44,-19"/>
<text text-anchor="middle" x="22" y="-7" font-family="Helvetica,sans-Serif" font-size="10.00" fill="#000000">vector</text>
</a>
</g>
</g>
<!-- Node1&#45;&gt;Node2 -->
<g id="edge1" class="edge">
<title>Node1&#45;&gt;Node2</title>
<path fill="none" stroke="#63b8ff" d="M159.085,-54.9197C129.7083,-45.1865 84.321,-30.1485 53.9097,-20.0725"/>
<polygon fill="#63b8ff" stroke="#63b8ff" points="54.8086,-16.6833 44.2153,-16.8605 52.607,-23.328 54.8086,-16.6833"/>
</g>
<!-- Node3 -->
<g id="node3" class="node">
<title>Node3</title>
<g id="a_node3"><a xlink:title=" ">
<polygon fill="#e0e0e0" stroke="#999999" points="103.5,-19 62.5,-19 62.5,0 103.5,0 103.5,-19"/>
<text text-anchor="middle" x="83" y="-7" font-family="Helvetica,sans-Serif" font-size="10.00" fill="#000000">string</text>
</a>
</g>
</g>
<!-- Node1&#45;&gt;Node3 -->
<g id="edge2" class="edge">
<title>Node1&#45;&gt;Node3</title>
<path fill="none" stroke="#63b8ff" d="M169.7104,-54.9197C153.3243,-46.3365 129.0628,-33.6281 110.3669,-23.8351"/>
<polygon fill="#63b8ff" stroke="#63b8ff" points="111.9147,-20.6947 101.4323,-19.155 108.6666,-26.8956 111.9147,-20.6947"/>
</g>
<!-- Node4 -->
<g id="node4" class="node">
<title>Node4</title>
<g id="a_node4"><a xlink:title=" ">
<polygon fill="#e0e0e0" stroke="#999999" points="152,-19 122,-19 122,0 152,0 152,-19"/>
<text text-anchor="middle" x="137" y="-7" font-family="Helvetica,sans-Serif" font-size="10.00" fill="#000000">set</text>
</a>
</g>
</g>
<!-- Node1&#45;&gt;Node4 -->
<g id="edge3" class="edge">
<title>Node1&#45;&gt;Node4</title>
<path fill="none" stroke="#63b8ff" d="M179.1165,-54.9197C171.9648,-47.2072 161.7247,-36.1639 153.1325,-26.8978"/>
<polygon fill="#63b8ff" stroke="#63b8ff" points="155.491,-24.2937 146.1251,-19.3408 150.3581,-29.0533 155.491,-24.2937"/>
</g>
<!-- Node5 -->
<g id="node5" class="node">
<title>Node5</title>
<g id="a_node5"><a xlink:title=" ">
<polygon fill="#e0e0e0" stroke="#999999" points="205.5,-19 170.5,-19 170.5,0 205.5,0 205.5,-19"/>
<text text-anchor="middle" x="188" y="-7" font-family="Helvetica,sans-Serif" font-size="10.00" fill="#000000">map</text>
</a>
</g>
</g>
<!-- Node1&#45;&gt;Node5 -->
<g id="edge4" class="edge">
<title>Node1&#45;&gt;Node5</title>
<path fill="none" stroke="#63b8ff" d="M188,-54.9197C188,-47.9083 188,-38.1442 188,-29.4652"/>
<polygon fill="#63b8ff" stroke="#63b8ff" points="191.5001,-29.3408 188,-19.3408 184.5001,-29.3409 191.5001,-29.3408"/>
</g>
<!-- Node6 -->
<g id="node6" class="node">
<title>Node6</title>
<g id="a_node6"><a xlink:title=" ">
<polygon fill="#e0e0e0" stroke="#999999" points="302,-19 224,-19 224,0 302,0 302,-19"/>
<text text-anchor="middle" x="263" y="-7" font-family="Helvetica,sans-Serif" font-size="10.00" fill="#000000">unordered_set</text>
</a>
</g>
</g>
<!-- Node1&#45;&gt;Node6 -->
<g id="edge5" class="edge">
<title>Node1&#45;&gt;Node6</title>
<path fill="none" stroke="#63b8ff" d="M201.064,-54.9197C212.1805,-46.7677 228.3713,-34.8944 241.411,-25.3319"/>
<polygon fill="#63b8ff" stroke="#63b8ff" points="243.8398,-27.8911 249.8341,-19.155 239.7002,-22.2463 243.8398,-27.8911"/>
</g>
<!-- Node7 -->
<g id="node7" class="node">
<title>Node7</title>
<g id="a_node7"><a xlink:title=" ">
<polygon fill="#e0e0e0" stroke="#999999" points="403.5,-19 320.5,-19 320.5,0 403.5,0 403.5,-19"/>
<text text-anchor="middle" x="362" y="-7" font-family="Helvetica,sans-Serif" font-size="10.00" fill="#000000">unordered_map</text>
</a>
</g>
</g>
<!-- Node1&#45;&gt;Node7 -->
<g id="edge6" class="edge">
<title>Node1&#45;&gt;Node7</title>
<path fill="none" stroke="#63b8ff" d="M218.3085,-54.9197C247.0384,-45.8384 290.3774,-32.1393 321.9452,-22.161"/>
<polygon fill="#63b8ff" stroke="#63b8ff" points="323.2673,-25.4138 331.7474,-19.0626 321.1575,-18.7393 323.2673,-25.4138"/>
</g>
<!-- Node8 -->
<g id="node8" class="node">
<title>Node8</title>
<g id="a_node8"><a xlink:title=" ">
<polygon fill="#e0e0e0" stroke="#999999" points="462.5,-19 421.5,-19 421.5,0 462.5,0 462.5,-19"/>
<text text-anchor="middle" x="442" y="-7" font-family="Helvetica,sans-Serif" font-size="10.00" fill="#000000">stack</text>
</a>
</g>
</g>
<!-- Node1&#45;&gt;Node8 -->
<g id="edge7" class="edge">
<title>Node1&#45;&gt;Node8</title>
<path fill="none" stroke="#63b8ff" d="M231.0593,-57.3389C274.4667,-49.7774 343.5279,-36.8149 411.4792,-19.1819"/>
<polygon fill="#63b8ff" stroke="#63b8ff" points="412.7135,-22.4763 421.4935,-16.5465 410.932,-15.7068 412.7135,-22.4763"/>
</g>
</g>
</svg>
