<?xml version="1.0" encoding="UTF-8" standalone="no"?>
<!DOCTYPE svg PUBLIC "-//W3C//DTD SVG 1.1//EN"
 "http://www.w3.org/Graphics/SVG/1.1/DTD/svg11.dtd">
<!-- Generated by graphviz version 2.40.1 (20161225.0304)
 -->
<!-- Title: src/htmlentity.h Pages: 1 -->
<!--zoomable 192 -->
<svg id="main" version="1.1" xmlns="http://www.w3.org/2000/svg" xmlns:xlink="http://www.w3.org/1999/xlink" xml:space="preserve" onload="init(evt)">
<style type="text/css"><![CDATA[
.edge:hover path { stroke: red; }
.edge:hover polygon { stroke: red; fill: red; }
]]></style>
<script type="text/javascript"><![CDATA[
var edges = document.getElementsByTagName('g');
if (edges && edges.length) {
  for (var i=0;i<edges.length;i++) {
    if (edges[i].id.substr(0,4)=='edge') {
      edges[i].setAttribute('class','edge');
    }
  }
}
]]></script>
        <defs>
                <circle id="rim" cx="0" cy="0" r="7"/>
                <circle id="rim2" cx="0" cy="0" r="3.5"/>
                <g id="zoomPlus">
                        <use xlink:href="#rim" fill="#404040">
                                <set attributeName="fill" to="#808080" begin="zoomplus.mouseover" end="zoomplus.mouseout"/>
                        </use>
                        <path d="M-4,0h8M0,-4v8" fill="none" stroke="white" stroke-width="1.5" pointer-events="none"/>
                </g>
                <g id="zoomMin">
                        <use xlink:href="#rim" fill="#404040">
                                <set attributeName="fill" to="#808080" begin="zoomminus.mouseover" end="zoomminus.mouseout"/>
                        </use>
                        <path d="M-4,0h8" fill="none" stroke="white" stroke-width="1.5" pointer-events="none"/>
                </g>
                <g id="dirArrow">
                        <path fill="none" stroke="white" stroke-width="1.5" d="M0,-3.0v7 M-2.5,-0.5L0,-3.0L2.5,-0.5"/>
                </g>
               <g id="resetDef">
                       <use xlink:href="#rim2" fill="#404040">
                               <set attributeName="fill" to="#808080" begin="reset.mouseover" end="reset.mouseout"/>
                       </use>
               </g>
        </defs>

<script type="text/javascript">
var viewWidth = 2078;
var viewHeight = 192;
var sectionId = 'dynsection-1';
</script>
<script xlink:href="../../svgpan.js"/>
<svg id="graph" class="graph">
<g id="viewport">
<title>src/htmlentity.h</title>
<!-- Node1 -->
<g id="node1" class="node">
<title>Node1</title>
<g id="a_node1"><a xlink:title=" ">
<polygon fill="#999999" stroke="#666666" points="1140.5,-184 1056.5,-184 1056.5,-165 1140.5,-165 1140.5,-184"/>
<text text-anchor="middle" x="1098.5" y="-172" font-family="Helvetica,sans-Serif" font-size="10.00" fill="#000000">src/htmlentity.h</text>
</a>
</g>
</g>
<!-- Node2 -->
<g id="node2" class="node">
<title>Node2</title>
<g id="a_node2"><a xlink:href="../../dc/d05/docbookvisitor_8cpp.html" target="_top" xlink:title=" ">
<polygon fill="#ffffff" stroke="#666666" points="115,-19 0,-19 0,0 115,0 115,-19"/>
<text text-anchor="middle" x="57.5" y="-7" font-family="Helvetica,sans-Serif" font-size="10.00" fill="#000000">src/docbookvisitor.cpp</text>
</a>
</g>
</g>
<!-- Node1&#45;&gt;Node2 -->
<g id="edge1" class="edge">
<title>Node1&#45;&gt;Node2</title>
<path fill="none" stroke="#63b8ff" d="M1046.1821,-172.4499C900.255,-166.5466 490.734,-148.6688 357.5,-129 252.2393,-113.4608 217.9221,-124.9274 124.5,-74 98.6988,-59.9349 75.7197,-33.2683 64.5908,-19.0268"/>
<polygon fill="#63b8ff" stroke="#63b8ff" points="1046.0932,-175.9491 1056.2259,-172.8541 1046.3748,-168.9547 1046.0932,-175.9491"/>
</g>
<!-- Node3 -->
<g id="node3" class="node">
<title>Node3</title>
<g id="a_node3"><a xlink:href="../../d0/d2b/docnode_8cpp.html" target="_top" xlink:title=" ">
<polygon fill="#ffffff" stroke="#666666" points="345,-19 256,-19 256,0 345,0 345,-19"/>
<text text-anchor="middle" x="300.5" y="-7" font-family="Helvetica,sans-Serif" font-size="10.00" fill="#000000">src/docnode.cpp</text>
</a>
</g>
</g>
<!-- Node1&#45;&gt;Node3 -->
<g id="edge2" class="edge">
<title>Node1&#45;&gt;Node3</title>
<path fill="none" stroke="#63b8ff" d="M1046.0492,-172.8613C893.7493,-167.856 458.4809,-151.714 398.5,-129 361.171,-114.864 351.7858,-105.6778 327.5,-74 314.353,-56.8515 306.4352,-32.367 302.8307,-19.0387"/>
<polygon fill="#63b8ff" stroke="#63b8ff" points="1045.9825,-176.3609 1056.0912,-173.1886 1046.2106,-169.3646 1045.9825,-176.3609"/>
</g>
<!-- Node4 -->
<g id="node4" class="node">
<title>Node4</title>
<g id="a_node4"><a xlink:href="../../de/d2b/docnode_8h.html" target="_top" xlink:title=" ">
<polygon fill="#ffffff" stroke="#666666" points="991.5,-129 913.5,-129 913.5,-110 991.5,-110 991.5,-129"/>
<text text-anchor="middle" x="952.5" y="-117" font-family="Helvetica,sans-Serif" font-size="10.00" fill="#000000">src/docnode.h</text>
</a>
</g>
</g>
<!-- Node1&#45;&gt;Node4 -->
<g id="edge3" class="edge">
<title>Node1&#45;&gt;Node4</title>
<path fill="none" stroke="#63b8ff" d="M1063.4847,-161.3093C1037.2015,-151.4081 1001.8122,-138.0765 978.1297,-129.155"/>
<polygon fill="#63b8ff" stroke="#63b8ff" points="1062.4769,-164.6697 1073.0687,-164.9197 1064.9446,-158.1191 1062.4769,-164.6697"/>
</g>
<!-- Node13 -->
<g id="node13" class="node">
<title>Node13</title>
<g id="a_node13"><a xlink:href="../../da/db0/htmldocvisitor_8cpp.html" target="_top" xlink:title=" ">
<polygon fill="#ffffff" stroke="#666666" points="1242,-19 1129,-19 1129,0 1242,0 1242,-19"/>
<text text-anchor="middle" x="1185.5" y="-7" font-family="Helvetica,sans-Serif" font-size="10.00" fill="#000000">src/htmldocvisitor.cpp</text>
</a>
</g>
</g>
<!-- Node1&#45;&gt;Node13 -->
<g id="edge38" class="edge">
<title>Node1&#45;&gt;Node13</title>
<path fill="none" stroke="#63b8ff" d="M1110.5282,-156.1571C1123.2636,-136.3419 1143.5522,-103.6223 1158.5,-74 1168.0159,-55.1423 1177.0694,-32.1219 1181.893,-19.3092"/>
<polygon fill="#63b8ff" stroke="#63b8ff" points="1107.4424,-154.4828 1104.9394,-164.7778 1113.3161,-158.2907 1107.4424,-154.4828"/>
</g>
<!-- Node16 -->
<g id="node16" class="node">
<title>Node16</title>
<g id="a_node16"><a xlink:href="../../d1/d4e/latexdocvisitor_8cpp.html" target="_top" xlink:title=" ">
<polygon fill="#ffffff" stroke="#666666" points="591,-19 476,-19 476,0 591,0 591,-19"/>
<text text-anchor="middle" x="533.5" y="-7" font-family="Helvetica,sans-Serif" font-size="10.00" fill="#000000">src/latexdocvisitor.cpp</text>
</a>
</g>
</g>
<!-- Node1&#45;&gt;Node16 -->
<g id="edge40" class="edge">
<title>Node1&#45;&gt;Node16</title>
<path fill="none" stroke="#63b8ff" d="M1046.3422,-171.3539C925.3148,-163.052 630.1055,-136.7308 556.5,-74 540.0321,-59.9652 535.3546,-33.2857 534.0264,-19.0344"/>
<polygon fill="#63b8ff" stroke="#63b8ff" points="1046.2586,-174.8561 1056.4708,-172.0343 1046.7279,-167.8718 1046.2586,-174.8561"/>
</g>
<!-- Node18 -->
<g id="node18" class="node">
<title>Node18</title>
<g id="a_node18"><a xlink:href="../../df/d2d/util_8cpp.html" target="_top" xlink:title=" ">
<polygon fill="#ffffff" stroke="#666666" points="781,-19 716,-19 716,0 781,0 781,-19"/>
<text text-anchor="middle" x="748.5" y="-7" font-family="Helvetica,sans-Serif" font-size="10.00" fill="#000000">src/util.cpp</text>
</a>
</g>
</g>
<!-- Node1&#45;&gt;Node18 -->
<g id="edge47" class="edge">
<title>Node1&#45;&gt;Node18</title>
<path fill="none" stroke="#63b8ff" d="M1046.2506,-166.1732C997.1508,-157.653 927.8287,-143.6238 904.5,-129 868.6246,-106.5112 877.7917,-81.162 844.5,-55 824.0524,-38.9314 797.0065,-26.7605 776.8338,-19.0683"/>
<polygon fill="#63b8ff" stroke="#63b8ff" points="1045.9507,-169.6726 1056.3972,-167.9059 1047.129,-162.7725 1045.9507,-169.6726"/>
</g>
<!-- Node20 -->
<g id="node20" class="node">
<title>Node20</title>
<g id="a_node20"><a xlink:href="../../d8/dde/mandocvisitor_8cpp.html" target="_top" xlink:title=" ">
<polygon fill="#ffffff" stroke="#666666" points="1478,-19 1365,-19 1365,0 1478,0 1478,-19"/>
<text text-anchor="middle" x="1421.5" y="-7" font-family="Helvetica,sans-Serif" font-size="10.00" fill="#000000">src/mandocvisitor.cpp</text>
</a>
</g>
</g>
<!-- Node1&#45;&gt;Node20 -->
<g id="edge41" class="edge">
<title>Node1&#45;&gt;Node20</title>
<path fill="none" stroke="#63b8ff" d="M1117.7718,-158.2935C1148.6313,-133.0552 1211.8469,-84.2306 1272.5,-55 1306.4897,-38.6193 1347.68,-26.5803 1378.1304,-19.0152"/>
<polygon fill="#63b8ff" stroke="#63b8ff" points="1115.4356,-155.6836 1109.9549,-164.7507 1119.8937,-161.0805 1115.4356,-155.6836"/>
</g>
<!-- Node23 -->
<g id="node23" class="node">
<title>Node23</title>
<g id="a_node23"><a xlink:href="../../de/dd0/perlmodgen_8cpp.html" target="_top" xlink:title=" ">
<polygon fill="#ffffff" stroke="#666666" points="1593.5,-74 1491.5,-74 1491.5,-55 1593.5,-55 1593.5,-74"/>
<text text-anchor="middle" x="1542.5" y="-62" font-family="Helvetica,sans-Serif" font-size="10.00" fill="#000000">src/perlmodgen.cpp</text>
</a>
</g>
</g>
<!-- Node1&#45;&gt;Node23 -->
<g id="edge42" class="edge">
<title>Node1&#45;&gt;Node23</title>
<path fill="none" stroke="#63b8ff" d="M1146.9475,-162.4972C1235.7958,-140.4853 1423.0871,-94.0843 1503.9645,-74.0471"/>
<polygon fill="#63b8ff" stroke="#63b8ff" points="1145.9902,-159.1285 1137.1254,-164.9306 1147.6736,-165.9231 1145.9902,-159.1285"/>
</g>
<!-- Node25 -->
<g id="node25" class="node">
<title>Node25</title>
<g id="a_node25"><a xlink:href="../../de/d9a/rtfdocvisitor_8cpp.html" target="_top" xlink:title=" ">
<polygon fill="#ffffff" stroke="#666666" points="1704,-19 1601,-19 1601,0 1704,0 1704,-19"/>
<text text-anchor="middle" x="1652.5" y="-7" font-family="Helvetica,sans-Serif" font-size="10.00" fill="#000000">src/rtfdocvisitor.cpp</text>
</a>
</g>
</g>
<!-- Node1&#45;&gt;Node25 -->
<g id="edge45" class="edge">
<title>Node1&#45;&gt;Node25</title>
<path fill="none" stroke="#63b8ff" d="M1150.6482,-168.8053C1263.6547,-155.7209 1527.0317,-120.9884 1602.5,-74 1624.3903,-60.3705 1640.427,-33.5201 1647.869,-19.136"/>
<polygon fill="#63b8ff" stroke="#63b8ff" points="1150.0507,-165.3508 1140.5145,-169.9672 1150.8481,-172.3053 1150.0507,-165.3508"/>
</g>
<!-- Node28 -->
<g id="node28" class="node">
<title>Node28</title>
<g id="a_node28"><a xlink:href="../../d3/da6/textdocvisitor_8cpp.html" target="_top" xlink:title=" ">
<polygon fill="#ffffff" stroke="#666666" points="1011.5,-19 901.5,-19 901.5,0 1011.5,0 1011.5,-19"/>
<text text-anchor="middle" x="956.5" y="-7" font-family="Helvetica,sans-Serif" font-size="10.00" fill="#000000">src/textdocvisitor.cpp</text>
</a>
</g>
</g>
<!-- Node1&#45;&gt;Node28 -->
<g id="edge46" class="edge">
<title>Node1&#45;&gt;Node28</title>
<path fill="none" stroke="#63b8ff" d="M1084.8373,-156.9407C1066.2841,-133.3084 1031.8352,-90.1733 1000.5,-55 989.097,-42.2003 975.2525,-28.1044 966.1765,-19.045"/>
<polygon fill="#63b8ff" stroke="#63b8ff" points="1082.2122,-159.2655 1091.13,-164.9858 1087.7259,-154.9528 1082.2122,-159.2655"/>
</g>
<!-- Node30 -->
<g id="node30" class="node">
<title>Node30</title>
<g id="a_node30"><a xlink:href="../../dd/db6/xmldocvisitor_8cpp.html" target="_top" xlink:title=" ">
<polygon fill="#ffffff" stroke="#666666" points="1927.5,-19 1817.5,-19 1817.5,0 1927.5,0 1927.5,-19"/>
<text text-anchor="middle" x="1872.5" y="-7" font-family="Helvetica,sans-Serif" font-size="10.00" fill="#000000">src/xmldocvisitor.cpp</text>
</a>
</g>
</g>
<!-- Node1&#45;&gt;Node30 -->
<g id="edge48" class="edge">
<title>Node1&#45;&gt;Node30</title>
<path fill="none" stroke="#63b8ff" d="M1150.7155,-173.0502C1263.4525,-168.5134 1536.7264,-149.9012 1750.5,-74 1791.3655,-59.4905 1835.4316,-33.2553 1857.7441,-19.1284"/>
<polygon fill="#63b8ff" stroke="#63b8ff" points="1150.4922,-169.5561 1140.6331,-173.4353 1150.7594,-176.551 1150.4922,-169.5561"/>
</g>
<!-- Node31 -->
<g id="node31" class="node">
<title>Node31</title>
<g id="a_node31"><a xlink:href="../../d0/dc3/xmlgen_8cpp.html" target="_top" xlink:title=" ">
<polygon fill="#ffffff" stroke="#666666" points="2029,-19 1946,-19 1946,0 2029,0 2029,-19"/>
<text text-anchor="middle" x="1987.5" y="-7" font-family="Helvetica,sans-Serif" font-size="10.00" fill="#000000">src/xmlgen.cpp</text>
</a>
</g>
</g>
<!-- Node1&#45;&gt;Node31 -->
<g id="edge49" class="edge">
<title>Node1&#45;&gt;Node31</title>
<path fill="none" stroke="#63b8ff" d="M1150.7098,-173.0524C1310.6066,-167.8671 1790.9222,-146.4846 1926.5,-74 1951.2374,-60.7745 1971.6327,-33.7536 1981.3567,-19.2373"/>
<polygon fill="#63b8ff" stroke="#63b8ff" points="1150.5324,-169.5562 1140.6481,-173.3709 1150.7539,-176.5527 1150.5324,-169.5562"/>
</g>
<!-- Node32 -->
<g id="node32" class="node">
<title>Node32</title>
<g id="a_node32"><a xlink:href="../../d2/db2/htmlentity_8cpp.html" target="_top" xlink:title=" ">
<polygon fill="#ffffff" stroke="#666666" points="2070,-129 1975,-129 1975,-110 2070,-110 2070,-129"/>
<text text-anchor="middle" x="2022.5" y="-117" font-family="Helvetica,sans-Serif" font-size="10.00" fill="#000000">src/htmlentity.cpp</text>
</a>
</g>
</g>
<!-- Node1&#45;&gt;Node32 -->
<g id="edge39" class="edge">
<title>Node1&#45;&gt;Node32</title>
<path fill="none" stroke="#63b8ff" d="M1150.8096,-173.5472C1285.4181,-170.7037 1654.6622,-160.4244 1960.5,-129 1965.158,-128.5214 1970.0004,-127.9356 1974.8339,-127.292"/>
<polygon fill="#63b8ff" stroke="#63b8ff" points="1150.6977,-170.0487 1140.7721,-173.7546 1150.8423,-177.0472 1150.6977,-170.0487"/>
</g>
<!-- Node33 -->
<g id="node33" class="node">
<title>Node33</title>
<g id="a_node33"><a xlink:href="../../db/d73/printdocvisitor_8h.html" target="_top" xlink:title=" ">
<polygon fill="#ffffff" stroke="#666666" points="509.5,-129 407.5,-129 407.5,-110 509.5,-110 509.5,-129"/>
<text text-anchor="middle" x="458.5" y="-117" font-family="Helvetica,sans-Serif" font-size="10.00" fill="#000000">src/printdocvisitor.h</text>
</a>
</g>
</g>
<!-- Node1&#45;&gt;Node33 -->
<g id="edge43" class="edge">
<title>Node1&#45;&gt;Node33</title>
<path fill="none" stroke="#63b8ff" d="M1045.9419,-171.5084C944.6587,-165.4851 715.4783,-150.6009 523.5,-129 518.9668,-128.4899 514.2632,-127.9073 509.5533,-127.2873"/>
<polygon fill="#63b8ff" stroke="#63b8ff" points="1046.0181,-175.019 1056.207,-172.1146 1046.4308,-168.0311 1046.0181,-175.019"/>
</g>
<!-- Node4&#45;&gt;Node3 -->
<g id="edge7" class="edge">
<title>Node4&#45;&gt;Node3</title>
<path fill="none" stroke="#63b8ff" d="M903.3966,-117.9759C768.9704,-113.4956 401.75,-99.0819 353.5,-74 329.8382,-61.6998 312.8103,-33.7604 305.1039,-19.0174"/>
<polygon fill="#63b8ff" stroke="#63b8ff" points="903.3093,-121.4748 913.4191,-118.3059 903.5397,-114.4786 903.3093,-121.4748"/>
</g>
<!-- Node5 -->
<g id="node5" class="node">
<title>Node5</title>
<g id="a_node5"><a xlink:href="../../de/dcd/docbookvisitor_8h.html" target="_top" xlink:title=" ">
<polygon fill="#ffffff" stroke="#666666" points="237.5,-74 133.5,-74 133.5,-55 237.5,-55 237.5,-74"/>
<text text-anchor="middle" x="185.5" y="-62" font-family="Helvetica,sans-Serif" font-size="10.00" fill="#000000">src/docbookvisitor.h</text>
</a>
</g>
</g>
<!-- Node4&#45;&gt;Node5 -->
<g id="edge4" class="edge">
<title>Node4&#45;&gt;Node5</title>
<path fill="none" stroke="#63b8ff" d="M903.1763,-115.9631C765.63,-106.0999 378.6839,-78.3528 237.7124,-68.244"/>
<polygon fill="#63b8ff" stroke="#63b8ff" points="903.1851,-119.4726 913.4099,-116.6969 903.6859,-112.4906 903.1851,-119.4726"/>
</g>
<!-- Node7 -->
<g id="node7" class="node">
<title>Node7</title>
<g id="a_node7"><a xlink:href="../../df/dc9/docparser__p_8h.html" target="_top" xlink:title="Private header shared between docparser.cpp and docnode.cpp.">
<polygon fill="#ffffff" stroke="#666666" points="458,-74 363,-74 363,-55 458,-55 458,-74"/>
<text text-anchor="middle" x="410.5" y="-62" font-family="Helvetica,sans-Serif" font-size="10.00" fill="#000000">src/docparser_p.h</text>
</a>
</g>
</g>
<!-- Node4&#45;&gt;Node7 -->
<g id="edge8" class="edge">
<title>Node4&#45;&gt;Node7</title>
<path fill="none" stroke="#63b8ff" d="M902.8782,-114.4646C799.0747,-103.931 560.196,-79.6906 458.1387,-69.3342"/>
<polygon fill="#63b8ff" stroke="#63b8ff" points="902.7818,-117.9727 913.0841,-115.5002 903.4886,-111.0085 902.7818,-117.9727"/>
</g>
<!-- Node9 -->
<g id="node9" class="node">
<title>Node9</title>
<g id="a_node9"><a xlink:href="../../d9/d92/dotfilepatcher_8cpp.html" target="_top" xlink:title=" ">
<polygon fill="#ffffff" stroke="#666666" points="675.5,-74 565.5,-74 565.5,-55 675.5,-55 675.5,-74"/>
<text text-anchor="middle" x="620.5" y="-62" font-family="Helvetica,sans-Serif" font-size="10.00" fill="#000000">src/dotfilepatcher.cpp</text>
</a>
</g>
</g>
<!-- Node4&#45;&gt;Node9 -->
<g id="edge11" class="edge">
<title>Node4&#45;&gt;Node9</title>
<path fill="none" stroke="#63b8ff" d="M903.321,-111.3529C842.473,-101.2726 739.1585,-84.1573 675.6684,-73.6393"/>
<polygon fill="#63b8ff" stroke="#63b8ff" points="903.0015,-114.8476 913.4391,-113.0291 904.1456,-107.9417 903.0015,-114.8476"/>
</g>
<!-- Node10 -->
<g id="node10" class="node">
<title>Node10</title>
<g id="a_node10"><a xlink:href="../../d0/d71/htmldocvisitor_8h.html" target="_top" xlink:title=" ">
<polygon fill="#ffffff" stroke="#666666" points="1149.5,-74 1047.5,-74 1047.5,-55 1149.5,-55 1149.5,-74"/>
<text text-anchor="middle" x="1098.5" y="-62" font-family="Helvetica,sans-Serif" font-size="10.00" fill="#000000">src/htmldocvisitor.h</text>
</a>
</g>
</g>
<!-- Node4&#45;&gt;Node10 -->
<g id="edge12" class="edge">
<title>Node4&#45;&gt;Node10</title>
<path fill="none" stroke="#63b8ff" d="M987.5153,-106.3093C1013.7985,-96.4081 1049.1878,-83.0765 1072.8703,-74.155"/>
<polygon fill="#63b8ff" stroke="#63b8ff" points="986.0554,-103.1191 977.9313,-109.9197 988.5231,-109.6697 986.0554,-103.1191"/>
</g>
<!-- Node14 -->
<g id="node14" class="node">
<title>Node14</title>
<g id="a_node14"><a xlink:href="../../d8/d6e/htmlgen_8cpp.html" target="_top" xlink:title=" ">
<polygon fill="#ffffff" stroke="#666666" points="1346.5,-19 1260.5,-19 1260.5,0 1346.5,0 1346.5,-19"/>
<text text-anchor="middle" x="1303.5" y="-7" font-family="Helvetica,sans-Serif" font-size="10.00" fill="#000000">src/htmlgen.cpp</text>
</a>
</g>
</g>
<!-- Node4&#45;&gt;Node14 -->
<g id="edge17" class="edge">
<title>Node4&#45;&gt;Node14</title>
<path fill="none" stroke="#63b8ff" d="M1001.8739,-111.4796C1044.0789,-103.9434 1106.1119,-91.2426 1158.5,-74 1205.6074,-58.4955 1258.1558,-32.9064 1285.2046,-19.0793"/>
<polygon fill="#63b8ff" stroke="#63b8ff" points="1001.0995,-108.0619 991.8551,-113.238 1002.3096,-114.9565 1001.0995,-108.0619"/>
</g>
<!-- Node15 -->
<g id="node15" class="node">
<title>Node15</title>
<g id="a_node15"><a xlink:href="../../d8/d99/latexdocvisitor_8h.html" target="_top" xlink:title=" ">
<polygon fill="#ffffff" stroke="#666666" points="835.5,-74 731.5,-74 731.5,-55 835.5,-55 835.5,-74"/>
<text text-anchor="middle" x="783.5" y="-62" font-family="Helvetica,sans-Serif" font-size="10.00" fill="#000000">src/latexdocvisitor.h</text>
</a>
</g>
</g>
<!-- Node4&#45;&gt;Node15 -->
<g id="edge18" class="edge">
<title>Node4&#45;&gt;Node15</title>
<path fill="none" stroke="#63b8ff" d="M913.5365,-106.8196C882.861,-96.8364 840.7691,-83.1379 812.8832,-74.0626"/>
<polygon fill="#63b8ff" stroke="#63b8ff" points="912.4702,-110.1532 923.0624,-109.9197 914.6365,-103.4968 912.4702,-110.1532"/>
</g>
<!-- Node17 -->
<g id="node17" class="node">
<title>Node17</title>
<g id="a_node17"><a xlink:href="../../d4/d42/latexgen_8cpp.html" target="_top" xlink:title=" ">
<polygon fill="#ffffff" stroke="#666666" points="698,-19 609,-19 609,0 698,0 698,-19"/>
<text text-anchor="middle" x="653.5" y="-7" font-family="Helvetica,sans-Serif" font-size="10.00" fill="#000000">src/latexgen.cpp</text>
</a>
</g>
</g>
<!-- Node4&#45;&gt;Node17 -->
<g id="edge23" class="edge">
<title>Node4&#45;&gt;Node17</title>
<path fill="none" stroke="#63b8ff" d="M903.2574,-112.9951C845.4184,-104.7959 753.4275,-89.8467 722.5,-74 695.9393,-60.3908 672.2698,-33.5318 660.8052,-19.1411"/>
<polygon fill="#63b8ff" stroke="#63b8ff" points="902.8972,-116.4788 913.2856,-114.3978 903.8668,-109.5462 902.8972,-116.4788"/>
</g>
<!-- Node19 -->
<g id="node19" class="node">
<title>Node19</title>
<g id="a_node19"><a xlink:href="../../d6/d6e/mandocvisitor_8h.html" target="_top" xlink:title=" ">
<polygon fill="#ffffff" stroke="#666666" points="1383.5,-74 1281.5,-74 1281.5,-55 1383.5,-55 1383.5,-74"/>
<text text-anchor="middle" x="1332.5" y="-62" font-family="Helvetica,sans-Serif" font-size="10.00" fill="#000000">src/mandocvisitor.h</text>
</a>
</g>
</g>
<!-- Node4&#45;&gt;Node19 -->
<g id="edge24" class="edge">
<title>Node4&#45;&gt;Node19</title>
<path fill="none" stroke="#63b8ff" d="M1001.9452,-112.3435C1074.2754,-101.8746 1208.2612,-82.4819 1281.4765,-71.885"/>
<polygon fill="#63b8ff" stroke="#63b8ff" points="1001.1309,-108.9248 991.7354,-113.8212 1002.1337,-115.8526 1001.1309,-108.9248"/>
</g>
<!-- Node22 -->
<g id="node22" class="node">
<title>Node22</title>
<g id="a_node22"><a xlink:href="../../db/d33/msc_8cpp.html" target="_top" xlink:title=" ">
<polygon fill="#ffffff" stroke="#666666" points="1473,-74 1402,-74 1402,-55 1473,-55 1473,-74"/>
<text text-anchor="middle" x="1437.5" y="-62" font-family="Helvetica,sans-Serif" font-size="10.00" fill="#000000">src/msc.cpp</text>
</a>
</g>
</g>
<!-- Node4&#45;&gt;Node22 -->
<g id="edge27" class="edge">
<title>Node4&#45;&gt;Node22</title>
<path fill="none" stroke="#63b8ff" d="M1001.9922,-116.0857C1083.662,-110.0706 1251.6385,-96.0894 1392.5,-74 1395.4976,-73.5299 1398.5967,-72.9901 1401.7013,-72.4116"/>
<polygon fill="#63b8ff" stroke="#63b8ff" points="1001.2435,-112.6309 991.524,-116.8478 1001.7518,-119.6124 1001.2435,-112.6309"/>
</g>
<!-- Node4&#45;&gt;Node23 -->
<g id="edge28" class="edge">
<title>Node4&#45;&gt;Node23</title>
<path fill="none" stroke="#63b8ff" d="M1001.7841,-116.3961C1095.4464,-110.2459 1305.5248,-95.2455 1481.5,-74 1484.6922,-73.6146 1487.9739,-73.1891 1491.2804,-72.7381"/>
<polygon fill="#63b8ff" stroke="#63b8ff" points="1001.5005,-112.9071 991.7494,-117.0504 1001.956,-119.8923 1001.5005,-112.9071"/>
</g>
<!-- Node24 -->
<g id="node24" class="node">
<title>Node24</title>
<g id="a_node24"><a xlink:href="../../d1/da7/rtfdocvisitor_8h.html" target="_top" xlink:title=" ">
<polygon fill="#ffffff" stroke="#666666" points="1741.5,-74 1649.5,-74 1649.5,-55 1741.5,-55 1741.5,-74"/>
<text text-anchor="middle" x="1695.5" y="-62" font-family="Helvetica,sans-Serif" font-size="10.00" fill="#000000">src/rtfdocvisitor.h</text>
</a>
</g>
</g>
<!-- Node4&#45;&gt;Node24 -->
<g id="edge29" class="edge">
<title>Node4&#45;&gt;Node24</title>
<path fill="none" stroke="#63b8ff" d="M1001.7338,-116.5918C1110.2937,-110.0611 1378.3983,-93.2847 1602.5,-74 1617.6999,-72.692 1634.2762,-71.0637 1649.1689,-69.5267"/>
<polygon fill="#63b8ff" stroke="#63b8ff" points="1001.5054,-113.0991 991.7329,-117.1915 1001.9245,-120.0865 1001.5054,-113.0991"/>
</g>
<!-- Node27 -->
<g id="node27" class="node">
<title>Node27</title>
<g id="a_node27"><a xlink:href="../../dd/d66/textdocvisitor_8h.html" target="_top" xlink:title=" ">
<polygon fill="#ffffff" stroke="#666666" points="991.5,-74 891.5,-74 891.5,-55 991.5,-55 991.5,-74"/>
<text text-anchor="middle" x="941.5" y="-62" font-family="Helvetica,sans-Serif" font-size="10.00" fill="#000000">src/textdocvisitor.h</text>
</a>
</g>
</g>
<!-- Node4&#45;&gt;Node27 -->
<g id="edge32" class="edge">
<title>Node4&#45;&gt;Node27</title>
<path fill="none" stroke="#63b8ff" d="M948.5711,-99.8553C946.8407,-91.2036 944.8839,-81.4195 943.4682,-74.3408"/>
<polygon fill="#63b8ff" stroke="#63b8ff" points="945.1907,-100.8004 950.5839,-109.9197 952.0547,-99.4275 945.1907,-100.8004"/>
</g>
<!-- Node29 -->
<g id="node29" class="node">
<title>Node29</title>
<g id="a_node29"><a xlink:href="../../df/d2b/xmldocvisitor_8h.html" target="_top" xlink:title=" ">
<polygon fill="#ffffff" stroke="#666666" points="1918,-74 1819,-74 1819,-55 1918,-55 1918,-74"/>
<text text-anchor="middle" x="1868.5" y="-62" font-family="Helvetica,sans-Serif" font-size="10.00" fill="#000000">src/xmldocvisitor.h</text>
</a>
</g>
</g>
<!-- Node4&#45;&gt;Node29 -->
<g id="edge35" class="edge">
<title>Node4&#45;&gt;Node29</title>
<path fill="none" stroke="#63b8ff" d="M1001.5713,-117.1021C1126.5559,-110.9078 1467.0525,-93.488 1750.5,-74 1772.9519,-72.4564 1797.7858,-70.4952 1818.8562,-68.756"/>
<polygon fill="#63b8ff" stroke="#63b8ff" points="1001.3624,-113.6081 991.5474,-117.5977 1001.7081,-120.5996 1001.3624,-113.6081"/>
</g>
<!-- Node5&#45;&gt;Node2 -->
<g id="edge6" class="edge">
<title>Node5&#45;&gt;Node2</title>
<path fill="none" stroke="#63b8ff" d="M153.8839,-50.915C130.9406,-41.0565 100.4582,-27.9586 79.9699,-19.155"/>
<polygon fill="#63b8ff" stroke="#63b8ff" points="152.6346,-54.1875 163.2041,-54.9197 155.3981,-47.7561 152.6346,-54.1875"/>
</g>
<!-- Node6 -->
<g id="node6" class="node">
<title>Node6</title>
<g id="a_node6"><a xlink:href="../../d8/d29/docbookgen_8cpp.html" target="_top" xlink:title=" ">
<polygon fill="#ffffff" stroke="#666666" points="237.5,-19 133.5,-19 133.5,0 237.5,0 237.5,-19"/>
<text text-anchor="middle" x="185.5" y="-7" font-family="Helvetica,sans-Serif" font-size="10.00" fill="#000000">src/docbookgen.cpp</text>
</a>
</g>
</g>
<!-- Node5&#45;&gt;Node6 -->
<g id="edge5" class="edge">
<title>Node5&#45;&gt;Node6</title>
<path fill="none" stroke="#63b8ff" d="M185.5,-44.8553C185.5,-36.2036 185.5,-26.4195 185.5,-19.3408"/>
<polygon fill="#63b8ff" stroke="#63b8ff" points="182.0001,-44.9197 185.5,-54.9197 189.0001,-44.9198 182.0001,-44.9197"/>
</g>
<!-- Node7&#45;&gt;Node3 -->
<g id="edge9" class="edge">
<title>Node7&#45;&gt;Node3</title>
<path fill="none" stroke="#63b8ff" d="M382.2676,-50.3838C362.6802,-40.5901 337.1028,-27.8014 319.81,-19.155"/>
<polygon fill="#63b8ff" stroke="#63b8ff" points="380.8299,-53.578 391.3395,-54.9197 383.9604,-47.317 380.8299,-53.578"/>
</g>
<!-- Node8 -->
<g id="node8" class="node">
<title>Node8</title>
<g id="a_node8"><a xlink:href="../../da/d17/docparser_8cpp.html" target="_top" xlink:title=" ">
<polygon fill="#ffffff" stroke="#666666" points="458,-19 363,-19 363,0 458,0 458,-19"/>
<text text-anchor="middle" x="410.5" y="-7" font-family="Helvetica,sans-Serif" font-size="10.00" fill="#000000">src/docparser.cpp</text>
</a>
</g>
</g>
<!-- Node7&#45;&gt;Node8 -->
<g id="edge10" class="edge">
<title>Node7&#45;&gt;Node8</title>
<path fill="none" stroke="#63b8ff" d="M410.5,-44.8553C410.5,-36.2036 410.5,-26.4195 410.5,-19.3408"/>
<polygon fill="#63b8ff" stroke="#63b8ff" points="407.0001,-44.9197 410.5,-54.9197 414.0001,-44.9198 407.0001,-44.9197"/>
</g>
<!-- Node11 -->
<g id="node11" class="node">
<title>Node11</title>
<g id="a_node11"><a xlink:href="../../db/d12/context_8cpp.html" target="_top" xlink:title=" ">
<polygon fill="#ffffff" stroke="#666666" points="883.5,-19 799.5,-19 799.5,0 883.5,0 883.5,-19"/>
<text text-anchor="middle" x="841.5" y="-7" font-family="Helvetica,sans-Serif" font-size="10.00" fill="#000000">src/context.cpp</text>
</a>
</g>
</g>
<!-- Node10&#45;&gt;Node11 -->
<g id="edge13" class="edge">
<title>Node10&#45;&gt;Node11</title>
<path fill="none" stroke="#63b8ff" d="M1044.1471,-52.8681C996.2839,-42.625 927.5577,-27.917 883.7241,-18.5363"/>
<polygon fill="#63b8ff" stroke="#63b8ff" points="1043.5164,-56.3123 1054.0274,-54.9825 1044.9813,-49.4672 1043.5164,-56.3123"/>
</g>
<!-- Node12 -->
<g id="node12" class="node">
<title>Node12</title>
<g id="a_node12"><a xlink:href="../../db/d41/ftvhelp_8cpp.html" target="_top" xlink:title=" ">
<polygon fill="#ffffff" stroke="#666666" points="1111,-19 1030,-19 1030,0 1111,0 1111,-19"/>
<text text-anchor="middle" x="1070.5" y="-7" font-family="Helvetica,sans-Serif" font-size="10.00" fill="#000000">src/ftvhelp.cpp</text>
</a>
</g>
</g>
<!-- Node10&#45;&gt;Node12 -->
<g id="edge14" class="edge">
<title>Node10&#45;&gt;Node12</title>
<path fill="none" stroke="#63b8ff" d="M1089.0827,-46.0018C1084.54,-37.0786 1079.2737,-26.7341 1075.5099,-19.3408"/>
<polygon fill="#63b8ff" stroke="#63b8ff" points="1085.9668,-47.596 1093.6228,-54.9197 1092.205,-44.4202 1085.9668,-47.596"/>
</g>
<!-- Node10&#45;&gt;Node13 -->
<g id="edge15" class="edge">
<title>Node10&#45;&gt;Node13</title>
<path fill="none" stroke="#63b8ff" d="M1122.1071,-49.5759C1137.4197,-39.8956 1156.9235,-27.5656 1170.2275,-19.155"/>
<polygon fill="#63b8ff" stroke="#63b8ff" points="1120.2366,-46.6177 1113.6542,-54.9197 1123.9771,-52.5345 1120.2366,-46.6177"/>
</g>
<!-- Node10&#45;&gt;Node14 -->
<g id="edge16" class="edge">
<title>Node10&#45;&gt;Node14</title>
<path fill="none" stroke="#63b8ff" d="M1144.3208,-52.2066C1181.6442,-42.193 1233.5922,-28.2557 1267.8576,-19.0626"/>
<polygon fill="#63b8ff" stroke="#63b8ff" points="1142.9597,-48.9479 1134.2083,-54.9197 1144.7737,-55.7088 1142.9597,-48.9479"/>
</g>
<!-- Node15&#45;&gt;Node11 -->
<g id="edge19" class="edge">
<title>Node15&#45;&gt;Node11</title>
<path fill="none" stroke="#63b8ff" d="M800.9318,-47.9699C810.7751,-38.6356 822.7452,-27.2847 831.1224,-19.3408"/>
<polygon fill="#63b8ff" stroke="#63b8ff" points="798.4508,-45.4991 793.6028,-54.9197 803.2674,-50.5785 798.4508,-45.4991"/>
</g>
<!-- Node15&#45;&gt;Node16 -->
<g id="edge20" class="edge">
<title>Node15&#45;&gt;Node16</title>
<path fill="none" stroke="#63b8ff" d="M730.2321,-52.7811C684.591,-42.74 619.6635,-28.456 577.0696,-19.0853"/>
<polygon fill="#63b8ff" stroke="#63b8ff" points="729.7202,-56.2521 740.2387,-54.9825 731.2243,-49.4156 729.7202,-56.2521"/>
</g>
<!-- Node15&#45;&gt;Node17 -->
<g id="edge21" class="edge">
<title>Node15&#45;&gt;Node17</title>
<path fill="none" stroke="#63b8ff" d="M751.3899,-50.915C728.0881,-41.0565 697.1294,-27.9586 676.321,-19.155"/>
<polygon fill="#63b8ff" stroke="#63b8ff" points="750.2823,-54.2467 760.8557,-54.9197 753.0098,-47.7999 750.2823,-54.2467"/>
</g>
<!-- Node15&#45;&gt;Node18 -->
<g id="edge22" class="edge">
<title>Node15&#45;&gt;Node18</title>
<path fill="none" stroke="#63b8ff" d="M771.9094,-46.2861C766.1903,-37.299 759.5172,-26.8128 754.7623,-19.3408"/>
<polygon fill="#63b8ff" stroke="#63b8ff" points="769.0818,-48.3622 777.4035,-54.9197 774.9875,-44.604 769.0818,-48.3622"/>
</g>
<!-- Node19&#45;&gt;Node20 -->
<g id="edge25" class="edge">
<title>Node19&#45;&gt;Node20</title>
<path fill="none" stroke="#63b8ff" d="M1356.6498,-49.5759C1372.3144,-39.8956 1392.2666,-27.5656 1405.8764,-19.155"/>
<polygon fill="#63b8ff" stroke="#63b8ff" points="1354.6694,-46.6854 1348.0026,-54.9197 1358.3493,-52.6401 1354.6694,-46.6854"/>
</g>
<!-- Node21 -->
<g id="node21" class="node">
<title>Node21</title>
<g id="a_node21"><a xlink:href="../../d7/de7/mangen_8cpp.html" target="_top" xlink:title=" ">
<polygon fill="#ffffff" stroke="#666666" points="1582.5,-19 1496.5,-19 1496.5,0 1582.5,0 1582.5,-19"/>
<text text-anchor="middle" x="1539.5" y="-7" font-family="Helvetica,sans-Serif" font-size="10.00" fill="#000000">src/mangen.cpp</text>
</a>
</g>
</g>
<!-- Node19&#45;&gt;Node21 -->
<g id="edge26" class="edge">
<title>Node19&#45;&gt;Node21</title>
<path fill="none" stroke="#63b8ff" d="M1378.2854,-52.3348C1416.0067,-42.3122 1468.7623,-28.295 1503.5099,-19.0626"/>
<polygon fill="#63b8ff" stroke="#63b8ff" points="1377.3225,-48.9691 1368.5566,-54.9197 1379.1201,-55.7344 1377.3225,-48.9691"/>
</g>
<!-- Node24&#45;&gt;Node25 -->
<g id="edge30" class="edge">
<title>Node24&#45;&gt;Node25</title>
<path fill="none" stroke="#63b8ff" d="M1681.7022,-46.8517C1674.58,-37.7419 1666.1584,-26.9701 1660.1937,-19.3408"/>
<polygon fill="#63b8ff" stroke="#63b8ff" points="1679.0934,-49.1974 1688.01,-54.9197 1684.608,-44.8859 1679.0934,-49.1974"/>
</g>
<!-- Node26 -->
<g id="node26" class="node">
<title>Node26</title>
<g id="a_node26"><a xlink:href="../../d0/d9c/rtfgen_8cpp.html" target="_top" xlink:title=" ">
<polygon fill="#ffffff" stroke="#666666" points="1799,-19 1722,-19 1722,0 1799,0 1799,-19"/>
<text text-anchor="middle" x="1760.5" y="-7" font-family="Helvetica,sans-Serif" font-size="10.00" fill="#000000">src/rtfgen.cpp</text>
</a>
</g>
</g>
<!-- Node24&#45;&gt;Node26 -->
<g id="edge31" class="edge">
<title>Node24&#45;&gt;Node26</title>
<path fill="none" stroke="#63b8ff" d="M1714.7087,-48.2465C1725.8009,-38.8608 1739.3888,-27.3633 1748.8699,-19.3408"/>
<polygon fill="#63b8ff" stroke="#63b8ff" points="1712.1952,-45.7884 1706.8221,-54.9197 1716.7168,-51.1321 1712.1952,-45.7884"/>
</g>
<!-- Node27&#45;&gt;Node18 -->
<g id="edge34" class="edge">
<title>Node27&#45;&gt;Node18</title>
<path fill="none" stroke="#63b8ff" d="M897.8148,-52.0508C862.3629,-41.948 813.1673,-27.9285 781.0897,-18.7872"/>
<polygon fill="#63b8ff" stroke="#63b8ff" points="897.3056,-55.545 907.882,-54.9197 899.2241,-48.813 897.3056,-55.545"/>
</g>
<!-- Node27&#45;&gt;Node28 -->
<g id="edge33" class="edge">
<title>Node27&#45;&gt;Node28</title>
<path fill="none" stroke="#63b8ff" d="M946.7791,-45.1433C949.1578,-36.4213 951.8641,-26.4982 953.8161,-19.3408"/>
<polygon fill="#63b8ff" stroke="#63b8ff" points="943.3674,-44.3512 944.1128,-54.9197 950.1207,-46.193 943.3674,-44.3512"/>
</g>
<!-- Node29&#45;&gt;Node30 -->
<g id="edge36" class="edge">
<title>Node29&#45;&gt;Node30</title>
<path fill="none" stroke="#63b8ff" d="M1869.9287,-44.8553C1870.5579,-36.2036 1871.2695,-26.4195 1871.7843,-19.3408"/>
<polygon fill="#63b8ff" stroke="#63b8ff" points="1866.4314,-44.6922 1869.1967,-54.9197 1873.413,-45.2 1866.4314,-44.6922"/>
</g>
<!-- Node29&#45;&gt;Node31 -->
<g id="edge37" class="edge">
<title>Node29&#45;&gt;Node31</title>
<path fill="none" stroke="#63b8ff" d="M1898.4661,-50.6501C1919.7285,-40.823 1947.7324,-27.88 1966.61,-19.155"/>
<polygon fill="#63b8ff" stroke="#63b8ff" points="1896.8372,-47.5472 1889.2282,-54.9197 1899.774,-53.9013 1896.8372,-47.5472"/>
</g>
<!-- Node33&#45;&gt;Node8 -->
<g id="edge44" class="edge">
<title>Node33&#45;&gt;Node8</title>
<path fill="none" stroke="#63b8ff" d="M466.2206,-100.2354C470.3082,-86.9285 473.2346,-69.1493 466.5,-55 458.909,-39.0516 442.6918,-26.8685 429.6535,-19.1411"/>
<polygon fill="#63b8ff" stroke="#63b8ff" points="462.875,-99.1989 462.856,-109.7937 469.4779,-101.5233 462.875,-99.1989"/>
</g>
</g>
</svg>
        <g id="navigator" transform="translate(0 0)" fill="#404254">
                <rect fill="#f2f5e9" fill-opacity="0.5" stroke="#606060" stroke-width=".5" x="0" y="0" width="60" height="60"/>
                <use id="zoomplus" xlink:href="#zoomPlus" x="17" y="9" onmousedown="handleZoom(evt,'in')"/>
                <use id="zoomminus" xlink:href="#zoomMin" x="42" y="9" onmousedown="handleZoom(evt,'out')"/>
                <use id="reset" xlink:href="#resetDef" x="30" y="36" onmousedown="handleReset()"/>
                <g id="arrowUp" xlink:href="#dirArrow" transform="translate(30 24)" onmousedown="handlePan(0,-1)">
                  <use xlink:href="#rim" fill="#404040">
                        <set attributeName="fill" to="#808080" begin="arrowUp.mouseover" end="arrowUp.mouseout"/>
                  </use>
                  <path fill="none" stroke="white" stroke-width="1.5" d="M0,-3.0v7 M-2.5,-0.5L0,-3.0L2.5,-0.5"/>
                </g>
                <g id="arrowRight" xlink:href="#dirArrow" transform="rotate(90) translate(36 -43)" onmousedown="handlePan(1,0)">
                  <use xlink:href="#rim" fill="#404040">
                        <set attributeName="fill" to="#808080" begin="arrowRight.mouseover" end="arrowRight.mouseout"/>
                  </use>
                  <path fill="none" stroke="white" stroke-width="1.5" d="M0,-3.0v7 M-2.5,-0.5L0,-3.0L2.5,-0.5"/>
                </g>
                <g id="arrowDown" xlink:href="#dirArrow" transform="rotate(180) translate(-30 -48)" onmousedown="handlePan(0,1)">
                  <use xlink:href="#rim" fill="#404040">
                        <set attributeName="fill" to="#808080" begin="arrowDown.mouseover" end="arrowDown.mouseout"/>
                  </use>
                  <path fill="none" stroke="white" stroke-width="1.5" d="M0,-3.0v7 M-2.5,-0.5L0,-3.0L2.5,-0.5"/>
                </g>
                <g id="arrowLeft" xlink:href="#dirArrow" transform="rotate(270) translate(-36 17)" onmousedown="handlePan(-1,0)">
                  <use xlink:href="#rim" fill="#404040">
                        <set attributeName="fill" to="#808080" begin="arrowLeft.mouseover" end="arrowLeft.mouseout"/>
                  </use>
                  <path fill="none" stroke="white" stroke-width="1.5" d="M0,-3.0v7 M-2.5,-0.5L0,-3.0L2.5,-0.5"/>
                </g>
        </g>
        <svg viewBox="0 0 15 15" width="100%" height="30px" preserveAspectRatio="xMaxYMin meet">
         <g id="arrow_out" transform="scale(0.3 0.3)">
          <a xlink:href="htmlentity_8h__dep__incl_org.svg" target="_base">
           <rect id="button" ry="5" rx="5" y="6" x="6" height="38" width="38"
                fill="#f2f5e9" fill-opacity="0.5" stroke="#606060" stroke-width="1.0"/>
           <path id="arrow"
             d="M 11.500037,31.436501 C 11.940474,20.09759 22.043105,11.32322 32.158766,21.979434 L 37.068811,17.246167 C 37.068811,17.246167 37.088388,32 37.088388,32 L 22.160133,31.978069 C 22.160133,31.978069 26.997745,27.140456 26.997745,27.140456 C 18.528582,18.264221 13.291696,25.230495 11.500037,31.436501 z"
             style="fill:#404040;"/>
          </a>
         </g>
        </svg>
</svg>
