<?xml version="1.0" encoding="UTF-8" standalone="no"?>
<!DOCTYPE svg PUBLIC "-//W3C//DTD SVG 1.1//EN"
 "http://www.w3.org/Graphics/SVG/1.1/DTD/svg11.dtd">
<!-- Generated by graphviz version 2.40.1 (20161225.0304)
 -->
<!-- Title: src/code.h Pages: 1 -->
<svg width="624pt" height="82pt"
 viewBox="0.00 0.00 624.00 82.00" xmlns="http://www.w3.org/2000/svg" xmlns:xlink="http://www.w3.org/1999/xlink">
<g id="graph0" class="graph" transform="scale(1 1) rotate(0) translate(4 78)">
<title>src/code.h</title>
<!-- Node1 -->
<g id="node1" class="node">
<title>Node1</title>
<g id="a_node1"><a xlink:title=" ">
<polygon fill="#999999" stroke="#666666" points="310.5,-74 248.5,-74 248.5,-55 310.5,-55 310.5,-74"/>
<text text-anchor="middle" x="279.5" y="-62" font-family="Helvetica,sans-Serif" font-size="10.00" fill="#000000">src/code.h</text>
</a>
</g>
</g>
<!-- Node2 -->
<g id="node2" class="node">
<title>Node2</title>
<g id="a_node2"><a xlink:href="../../da/d1f/code_8l.html" target="_top" xlink:title=" ">
<polygon fill="#ffffff" stroke="#666666" points="59,-19 0,-19 0,0 59,0 59,-19"/>
<text text-anchor="middle" x="29.5" y="-7" font-family="Helvetica,sans-Serif" font-size="10.00" fill="#000000">src/code.l</text>
</a>
</g>
</g>
<!-- Node1&#45;&gt;Node2 -->
<g id="edge1" class="edge">
<title>Node1&#45;&gt;Node2</title>
<path fill="none" stroke="#63b8ff" d="M238.1391,-56.0514C195.3434,-47.2094 126.6115,-32.7282 67.5,-19 64.8504,-18.3847 62.1011,-17.7297 59.3479,-17.0625"/>
<polygon fill="#63b8ff" stroke="#63b8ff" points="237.6753,-59.5293 248.176,-58.12 239.0883,-52.6734 237.6753,-59.5293"/>
</g>
<!-- Node3 -->
<g id="node3" class="node">
<title>Node3</title>
<g id="a_node3"><a xlink:href="../../d3/dea/definition_8cpp.html" target="_top" xlink:title=" ">
<polygon fill="#ffffff" stroke="#666666" points="168,-19 77,-19 77,0 168,0 168,-19"/>
<text text-anchor="middle" x="122.5" y="-7" font-family="Helvetica,sans-Serif" font-size="10.00" fill="#000000">src/definition.cpp</text>
</a>
</g>
</g>
<!-- Node1&#45;&gt;Node3 -->
<g id="edge2" class="edge">
<title>Node1&#45;&gt;Node3</title>
<path fill="none" stroke="#63b8ff" d="M242.5606,-51.5594C214.1297,-41.5996 175.4784,-28.0593 149.7969,-19.0626"/>
<polygon fill="#63b8ff" stroke="#63b8ff" points="241.5578,-54.9167 252.1527,-54.9197 243.8722,-48.3103 241.5578,-54.9167"/>
</g>
<!-- Node4 -->
<g id="node4" class="node">
<title>Node4</title>
<g id="a_node4"><a xlink:href="../../dc/d98/doxygen_8cpp.html" target="_top" xlink:title=" ">
<polygon fill="#ffffff" stroke="#666666" points="275,-19 186,-19 186,0 275,0 275,-19"/>
<text text-anchor="middle" x="230.5" y="-7" font-family="Helvetica,sans-Serif" font-size="10.00" fill="#000000">src/doxygen.cpp</text>
</a>
</g>
</g>
<!-- Node1&#45;&gt;Node4 -->
<g id="edge3" class="edge">
<title>Node1&#45;&gt;Node4</title>
<path fill="none" stroke="#63b8ff" d="M264.2771,-47.413C256.0579,-38.1874 246.2044,-27.1274 239.2673,-19.3408"/>
<polygon fill="#63b8ff" stroke="#63b8ff" points="261.6994,-49.7813 270.9649,-54.9197 266.9261,-45.1249 261.6994,-49.7813"/>
</g>
<!-- Node5 -->
<g id="node5" class="node">
<title>Node5</title>
<g id="a_node5"><a xlink:href="../../d0/d7e/lexcode_8l.html" target="_top" xlink:title=" ">
<polygon fill="#ffffff" stroke="#666666" points="365.5,-19 293.5,-19 293.5,0 365.5,0 365.5,-19"/>
<text text-anchor="middle" x="329.5" y="-7" font-family="Helvetica,sans-Serif" font-size="10.00" fill="#000000">src/lexcode.l</text>
</a>
</g>
</g>
<!-- Node1&#45;&gt;Node5 -->
<g id="edge4" class="edge">
<title>Node1&#45;&gt;Node5</title>
<path fill="none" stroke="#63b8ff" d="M295.0336,-47.413C303.4205,-38.1874 313.4751,-27.1274 320.5538,-19.3408"/>
<polygon fill="#63b8ff" stroke="#63b8ff" points="292.3463,-45.1659 288.2093,-54.9197 297.5259,-49.8747 292.3463,-45.1659"/>
</g>
<!-- Node6 -->
<g id="node6" class="node">
<title>Node6</title>
<g id="a_node6"><a xlink:href="../../d8/dde/mandocvisitor_8cpp.html" target="_top" xlink:title=" ">
<polygon fill="#ffffff" stroke="#666666" points="497,-19 384,-19 384,0 497,0 497,-19"/>
<text text-anchor="middle" x="440.5" y="-7" font-family="Helvetica,sans-Serif" font-size="10.00" fill="#000000">src/mandocvisitor.cpp</text>
</a>
</g>
</g>
<!-- Node1&#45;&gt;Node6 -->
<g id="edge5" class="edge">
<title>Node1&#45;&gt;Node6</title>
<path fill="none" stroke="#63b8ff" d="M317.3806,-51.5594C346.5358,-41.5996 386.1718,-28.0593 412.5077,-19.0626"/>
<polygon fill="#63b8ff" stroke="#63b8ff" points="315.8756,-48.3749 307.5441,-54.9197 318.1386,-54.999 315.8756,-48.3749"/>
</g>
<!-- Node7 -->
<g id="node7" class="node">
<title>Node7</title>
<g id="a_node7"><a xlink:href="../../d0/d72/memberdef_8cpp.html" target="_top" xlink:title=" ">
<polygon fill="#ffffff" stroke="#666666" points="616,-19 515,-19 515,0 616,0 616,-19"/>
<text text-anchor="middle" x="565.5" y="-7" font-family="Helvetica,sans-Serif" font-size="10.00" fill="#000000">src/memberdef.cpp</text>
</a>
</g>
</g>
<!-- Node1&#45;&gt;Node7 -->
<g id="edge6" class="edge">
<title>Node1&#45;&gt;Node7</title>
<path fill="none" stroke="#63b8ff" d="M320.7795,-56.5616C372.4214,-46.6305 460.7611,-29.6421 515.9868,-19.0218"/>
<polygon fill="#63b8ff" stroke="#63b8ff" points="319.8105,-53.1838 310.6515,-58.5093 321.1325,-60.0578 319.8105,-53.1838"/>
</g>
</g>
</svg>
