<?xml version="1.0" encoding="UTF-8" standalone="no"?>
<!DOCTYPE svg PUBLIC "-//W3C//DTD SVG 1.1//EN"
 "http://www.w3.org/Graphics/SVG/1.1/DTD/svg11.dtd">
<!-- Generated by graphviz version 2.40.1 (20161225.0304)
 -->
<!-- Title: TemplateNodeRange Pages: 1 -->
<svg width="496pt" height="247pt"
 viewBox="0.00 0.00 496.00 247.00" xmlns="http://www.w3.org/2000/svg" xmlns:xlink="http://www.w3.org/1999/xlink">
<g id="graph0" class="graph" transform="scale(1 1) rotate(0) translate(4 243)">
<title>TemplateNodeRange</title>
<!-- Node1 -->
<g id="node1" class="node">
<title>Node1</title>
<g id="a_node1"><a xlink:title="Class representing a &#39;range&#39; tag in a template.">
<polygon fill="#999999" stroke="#666666" points="378.5,-19 269.5,-19 269.5,0 378.5,0 378.5,-19"/>
<text text-anchor="middle" x="324" y="-7" font-family="Helvetica,sans-Serif" font-size="10.00" fill="#000000">TemplateNodeRange</text>
</a>
</g>
</g>
<!-- Node2 -->
<g id="node2" class="node">
<title>Node2</title>
<g id="a_node2"><a xlink:href="../../d8/d78/class_template_node_creator.html" target="_top" xlink:title=" ">
<polygon fill="#ffffff" stroke="#666666" points="214.5,-96 87.5,-96 87.5,-66 214.5,-66 214.5,-96"/>
<text text-anchor="start" x="95.5" y="-84" font-family="Helvetica,sans-Serif" font-size="10.00" fill="#000000">TemplateNodeCreator</text>
<text text-anchor="middle" x="151" y="-73" font-family="Helvetica,sans-Serif" font-size="10.00" fill="#000000">&lt; TemplateNodeRange &gt;</text>
</a>
</g>
</g>
<!-- Node2&#45;&gt;Node1 -->
<g id="edge1" class="edge">
<title>Node2&#45;&gt;Node1</title>
<path fill="none" stroke="#63b8ff" d="M197.2385,-61.8899C230.5898,-48.106 274.2193,-30.0741 300.6235,-19.1614"/>
<polygon fill="#63b8ff" stroke="#63b8ff" points="195.5938,-58.7824 187.6889,-65.8367 198.2675,-65.2517 195.5938,-58.7824"/>
</g>
<!-- Node3 -->
<g id="node3" class="node">
<title>Node3</title>
<g id="a_node3"><a xlink:href="../../d6/d53/class_template_node.html" target="_top" xlink:title="Base class of all nodes in a template&#39;s AST.">
<polygon fill="#ffffff" stroke="#666666" points="80,-239 0,-239 0,-220 80,-220 80,-239"/>
<text text-anchor="middle" x="40" y="-227" font-family="Helvetica,sans-Serif" font-size="10.00" fill="#000000">TemplateNode</text>
</a>
</g>
</g>
<!-- Node3&#45;&gt;Node2 -->
<g id="edge2" class="edge">
<title>Node3&#45;&gt;Node2</title>
<path fill="none" stroke="#63b8ff" d="M32.2773,-210.5329C26.065,-192.0582 20.1427,-163.796 32,-143 45.0388,-120.132 69.7526,-105.3721 93.2942,-96.018"/>
<polygon fill="#63b8ff" stroke="#63b8ff" points="28.9943,-211.7463 35.7417,-219.9147 35.5609,-209.3214 28.9943,-211.7463"/>
</g>
<!-- Node3&#45;&gt;Node3 -->
<g id="edge3" class="edge">
<title>Node3&#45;&gt;Node3</title>
<path fill="none" stroke="#9a32cd" stroke-dasharray="5,2" d="M90.2648,-234.3206C95.0048,-233.3334 98,-231.7266 98,-229.5 98,-225.9375 90.3323,-223.9614 80.1186,-223.5718"/>
<polygon fill="#9a32cd" stroke="#9a32cd" points="89.6797,-230.8636 80.1186,-235.4282 90.4394,-237.8222 89.6797,-230.8636"/>
<text text-anchor="middle" x="120" y="-227" font-family="Helvetica,sans-Serif" font-size="10.00" fill="#000000"> m_parent</text>
</g>
<!-- Node5 -->
<g id="node5" class="node">
<title>Node5</title>
<g id="a_node5"><a xlink:href="../../d8/d78/class_template_node_creator.html" target="_top" xlink:title="Helper class for creating template AST tag nodes and returning the template for a given node.">
<polygon fill="#ffffff" stroke="#666666" points="178.5,-167.5 41.5,-167.5 41.5,-148.5 178.5,-148.5 178.5,-167.5"/>
<text text-anchor="middle" x="110" y="-155.5" font-family="Helvetica,sans-Serif" font-size="10.00" fill="#000000">TemplateNodeCreator&lt; T &gt;</text>
</a>
</g>
</g>
<!-- Node3&#45;&gt;Node5 -->
<g id="edge6" class="edge">
<title>Node3&#45;&gt;Node5</title>
<path fill="none" stroke="#63b8ff" d="M56.757,-212.3839C70.3434,-198.5064 89.0202,-179.4293 100.2599,-167.9488"/>
<polygon fill="#63b8ff" stroke="#63b8ff" points="53.9353,-210.263 49.4405,-219.8572 58.9372,-215.1601 53.9353,-210.263"/>
</g>
<!-- Node4 -->
<g id="node4" class="node">
<title>Node4</title>
<g id="a_node4"><a xlink:href="../../d9/d45/class_q_c_string.html" target="_top" xlink:title="This is an alternative implementation of QCString.">
<polygon fill="#ffffff" stroke="#666666" points="243.5,-239 186.5,-239 186.5,-220 243.5,-220 243.5,-239"/>
<text text-anchor="middle" x="215" y="-227" font-family="Helvetica,sans-Serif" font-size="10.00" fill="#000000">QCString</text>
</a>
</g>
</g>
<!-- Node4&#45;&gt;Node1 -->
<g id="edge8" class="edge">
<title>Node4&#45;&gt;Node1</title>
<path fill="none" stroke="#9a32cd" stroke-dasharray="5,2" d="M250.3013,-215.679C269.0561,-206.4589 290.7141,-192.428 303,-173 334.8156,-122.689 328.7941,-46.1978 325.4176,-19.2824"/>
<polygon fill="#9a32cd" stroke="#9a32cd" points="248.7037,-212.5618 241.1033,-219.9431 251.6479,-218.9125 248.7037,-212.5618"/>
<text text-anchor="middle" x="339.5" y="-117" font-family="Helvetica,sans-Serif" font-size="10.00" fill="#000000"> m_var</text>
</g>
<!-- Node4&#45;&gt;Node2 -->
<g id="edge4" class="edge">
<title>Node4&#45;&gt;Node2</title>
<path fill="none" stroke="#9a32cd" stroke-dasharray="5,2" d="M217.3781,-209.8094C219.3148,-185.4265 219.2562,-143.5096 201,-114 196.5677,-106.8356 189.9346,-100.9012 182.9371,-96.1357"/>
<polygon fill="#9a32cd" stroke="#9a32cd" points="213.8759,-209.6592 216.3721,-219.9558 220.8417,-210.3499 213.8759,-209.6592"/>
<text text-anchor="middle" x="258.5" y="-155.5" font-family="Helvetica,sans-Serif" font-size="10.00" fill="#000000"> m_templateName</text>
</g>
<!-- Node4&#45;&gt;Node5 -->
<g id="edge7" class="edge">
<title>Node4&#45;&gt;Node5</title>
<path fill="none" stroke="#9a32cd" stroke-dasharray="5,2" d="M176.2912,-222.4339C153.6096,-217.5264 127.9028,-210.3775 120,-202 111.2917,-192.7687 109.6004,-177.6009 109.5323,-167.7067"/>
<polygon fill="#9a32cd" stroke="#9a32cd" points="175.5926,-225.8634 186.0943,-224.4621 177.0108,-219.0086 175.5926,-225.8634"/>
<text text-anchor="middle" x="160.5" y="-194" font-family="Helvetica,sans-Serif" font-size="10.00" fill="#000000"> m_templateName</text>
</g>
<!-- Node5&#45;&gt;Node2 -->
<g id="edge5" class="edge">
<title>Node5&#45;&gt;Node2</title>
<path fill="none" stroke="#ffa500" stroke-dasharray="5,2" d="M92.3792,-140.7874C86.1046,-132.5422 81.7514,-122.6115 87,-114 91.5543,-106.5277 98.4031,-100.6744 105.9511,-96.1135"/>
<polygon fill="#ffa500" stroke="#ffa500" points="89.7887,-143.142 99.0098,-148.3596 95.0551,-138.5305 89.7887,-143.142"/>
<text text-anchor="middle" x="144" y="-117" font-family="Helvetica,sans-Serif" font-size="10.00" fill="#000000"> &lt; TemplateNodeRange &gt;</text>
</g>
<!-- Node6 -->
<g id="node6" class="node">
<title>Node6</title>
<g id="a_node6"><a xlink:href="../../df/daf/class_template_node_list.html" target="_top" xlink:title="Class representing a list of AST nodes in a template.">
<polygon fill="#ffffff" stroke="#666666" points="458,-90.5 362,-90.5 362,-71.5 458,-71.5 458,-90.5"/>
<text text-anchor="middle" x="410" y="-78.5" font-family="Helvetica,sans-Serif" font-size="10.00" fill="#000000">TemplateNodeList</text>
</a>
</g>
</g>
<!-- Node6&#45;&gt;Node1 -->
<g id="edge9" class="edge">
<title>Node6&#45;&gt;Node1</title>
<path fill="none" stroke="#9a32cd" stroke-dasharray="5,2" d="M390.2929,-64.6156C373.4252,-50.5918 349.7086,-30.874 335.6892,-19.2184"/>
<polygon fill="#9a32cd" stroke="#9a32cd" points="388.4745,-67.6555 398.4017,-71.3572 392.9497,-62.2728 388.4745,-67.6555"/>
<text text-anchor="middle" x="401" y="-40" font-family="Helvetica,sans-Serif" font-size="10.00" fill="#000000"> m_loopNodes</text>
</g>
<!-- Node7 -->
<g id="node7" class="node">
<title>Node7</title>
<g id="a_node7"><a xlink:title=" ">
<polygon fill="#ffffff" stroke="#666666" points="488,-173 352,-173 352,-143 488,-143 488,-173"/>
<text text-anchor="start" x="360" y="-161" font-family="Helvetica,sans-Serif" font-size="10.00" fill="#000000">std::vector&lt; TemplateNode</text>
<text text-anchor="middle" x="420" y="-150" font-family="Helvetica,sans-Serif" font-size="10.00" fill="#000000">Ptr &gt;</text>
</a>
</g>
</g>
<!-- Node7&#45;&gt;Node6 -->
<g id="edge10" class="edge">
<title>Node7&#45;&gt;Node6</title>
<path fill="none" stroke="#63b8ff" d="M416.6948,-132.5501C414.8403,-118.2703 412.633,-101.2738 411.2741,-90.8107"/>
<polygon fill="#63b8ff" stroke="#63b8ff" points="413.2655,-133.3213 418.0243,-142.7873 420.2072,-132.4198 413.2655,-133.3213"/>
</g>
</g>
</svg>
