<?xml version="1.0" encoding="UTF-8" standalone="no"?>
<!DOCTYPE svg PUBLIC "-//W3C//DTD SVG 1.1//EN"
 "http://www.w3.org/Graphics/SVG/1.1/DTD/svg11.dtd">
<!-- Generated by graphviz version 2.40.1 (20161225.0304)
 -->
<!-- Title: DocCompoundNode Pages: 1 -->
<!--zoomable 1248 -->
<svg id="main" version="1.1" xmlns="http://www.w3.org/2000/svg" xmlns:xlink="http://www.w3.org/1999/xlink" xml:space="preserve" onload="init(evt)">
<style type="text/css"><![CDATA[
.edge:hover path { stroke: red; }
.edge:hover polygon { stroke: red; fill: red; }
]]></style>
<script type="text/javascript"><![CDATA[
var edges = document.getElementsByTagName('g');
if (edges && edges.length) {
  for (var i=0;i<edges.length;i++) {
    if (edges[i].id.substr(0,4)=='edge') {
      edges[i].setAttribute('class','edge');
    }
  }
}
]]></script>
        <defs>
                <circle id="rim" cx="0" cy="0" r="7"/>
                <circle id="rim2" cx="0" cy="0" r="3.5"/>
                <g id="zoomPlus">
                        <use xlink:href="#rim" fill="#404040">
                                <set attributeName="fill" to="#808080" begin="zoomplus.mouseover" end="zoomplus.mouseout"/>
                        </use>
                        <path d="M-4,0h8M0,-4v8" fill="none" stroke="white" stroke-width="1.5" pointer-events="none"/>
                </g>
                <g id="zoomMin">
                        <use xlink:href="#rim" fill="#404040">
                                <set attributeName="fill" to="#808080" begin="zoomminus.mouseover" end="zoomminus.mouseout"/>
                        </use>
                        <path d="M-4,0h8" fill="none" stroke="white" stroke-width="1.5" pointer-events="none"/>
                </g>
                <g id="dirArrow">
                        <path fill="none" stroke="white" stroke-width="1.5" d="M0,-3.0v7 M-2.5,-0.5L0,-3.0L2.5,-0.5"/>
                </g>
               <g id="resetDef">
                       <use xlink:href="#rim2" fill="#404040">
                               <set attributeName="fill" to="#808080" begin="reset.mouseover" end="reset.mouseout"/>
                       </use>
               </g>
        </defs>

<script type="text/javascript">
var viewWidth = 458;
var viewHeight = 1248;
var sectionId = 'dynsection-0';
</script>
<script xlink:href="../../svgpan.js"/>
<svg id="graph" class="graph">
<g id="viewport">
<title>DocCompoundNode</title>
<!-- Node1 -->
<g id="node1" class="node">
<title>Node1</title>
<g id="a_node1"><a xlink:title="Base class for nodes with children.">
<polygon fill="#999999" stroke="#666666" points="199,-629 94,-629 94,-610 199,-610 199,-629"/>
<text text-anchor="middle" x="146.5" y="-617" font-family="Helvetica,sans-Serif" font-size="10.00" fill="#000000">DocCompoundNode</text>
</a>
</g>
</g>
<!-- Node3 -->
<g id="node3" class="node">
<title>Node3</title>
<g id="a_node3"><a xlink:href="../../d1/d3f/class_doc_auto_list.html" target="_top" xlink:title="Node representing an auto List.">
<polygon fill="#ffffff" stroke="#666666" points="325.5,-1240 254.5,-1240 254.5,-1221 325.5,-1221 325.5,-1240"/>
<text text-anchor="middle" x="290" y="-1228" font-family="Helvetica,sans-Serif" font-size="10.00" fill="#000000">DocAutoList</text>
</a>
</g>
</g>
<!-- Node1&#45;&gt;Node3 -->
<g id="edge2" class="edge">
<title>Node1&#45;&gt;Node3</title>
<path fill="none" stroke="#63b8ff" d="M146.7896,-639.3475C148.5297,-732.0328 160.2499,-1121.5344 235,-1211.5 239.9712,-1217.4831 246.9277,-1221.5858 254.2255,-1224.3982"/>
<polygon fill="#63b8ff" stroke="#63b8ff" points="150.2891,-639.2816 146.6201,-629.3423 143.2901,-639.4002 150.2891,-639.2816"/>
</g>
<!-- Node4 -->
<g id="node4" class="node">
<title>Node4</title>
<g id="a_node4"><a xlink:href="../../d8/df9/class_doc_auto_list_item.html" target="_top" xlink:title="Node representing an item of a auto list.">
<polygon fill="#ffffff" stroke="#666666" points="335,-1203 245,-1203 245,-1184 335,-1184 335,-1203"/>
<text text-anchor="middle" x="290" y="-1191" font-family="Helvetica,sans-Serif" font-size="10.00" fill="#000000">DocAutoListItem</text>
</a>
</g>
</g>
<!-- Node1&#45;&gt;Node4 -->
<g id="edge3" class="edge">
<title>Node1&#45;&gt;Node4</title>
<path fill="none" stroke="#63b8ff" d="M147.0038,-639.2164C149.6574,-728.0879 164.6999,-1090.7231 235,-1174.5 238.2469,-1178.3693 242.3236,-1181.452 246.782,-1183.9077"/>
<polygon fill="#63b8ff" stroke="#63b8ff" points="150.5007,-639.0528 146.7226,-629.1545 143.5034,-639.2484 150.5007,-639.0528"/>
</g>
<!-- Node5 -->
<g id="node5" class="node">
<title>Node5</title>
<g id="a_node5"><a xlink:href="../../d3/d7c/class_doc_diagram_file_base.html" target="_top" xlink:title=" ">
<polygon fill="#ffffff" stroke="#666666" points="345,-1166 235,-1166 235,-1147 345,-1147 345,-1166"/>
<text text-anchor="middle" x="290" y="-1154" font-family="Helvetica,sans-Serif" font-size="10.00" fill="#000000">DocDiagramFileBase</text>
</a>
</g>
</g>
<!-- Node1&#45;&gt;Node5 -->
<g id="edge4" class="edge">
<title>Node1&#45;&gt;Node5</title>
<path fill="none" stroke="#63b8ff" d="M147.2632,-639.5121C150.9158,-725.1627 169.2501,-1060.022 235,-1137.5 238.2683,-1141.3513 242.358,-1144.423 246.8236,-1146.8726"/>
<polygon fill="#63b8ff" stroke="#63b8ff" points="150.7526,-639.1796 146.8494,-629.33 143.7584,-639.4639 150.7526,-639.1796"/>
</g>
<!-- Node9 -->
<g id="node9" class="node">
<title>Node9</title>
<g id="a_node9"><a xlink:href="../../d9/d10/class_doc_h_ref.html" target="_top" xlink:title="Node representing a Hypertext reference.">
<polygon fill="#ffffff" stroke="#666666" points="319,-1129 261,-1129 261,-1110 319,-1110 319,-1129"/>
<text text-anchor="middle" x="290" y="-1117" font-family="Helvetica,sans-Serif" font-size="10.00" fill="#000000">DocHRef</text>
</a>
</g>
</g>
<!-- Node1&#45;&gt;Node9 -->
<g id="edge8" class="edge">
<title>Node1&#45;&gt;Node9</title>
<path fill="none" stroke="#63b8ff" d="M147.5423,-639.3553C152.204,-720.9061 173.6711,-1029.1578 235,-1100.5 241.5855,-1108.1608 251.4185,-1112.7357 260.9569,-1115.4667"/>
<polygon fill="#63b8ff" stroke="#63b8ff" points="151.018,-638.8158 146.9737,-629.0233 144.0286,-639.2006 151.018,-638.8158"/>
</g>
<!-- Node10 -->
<g id="node10" class="node">
<title>Node10</title>
<g id="a_node10"><a xlink:href="../../d9/dd3/class_doc_html_block_quote.html" target="_top" xlink:title="Node representing an HTML blockquote.">
<polygon fill="#ffffff" stroke="#666666" points="343.5,-1092 236.5,-1092 236.5,-1073 343.5,-1073 343.5,-1092"/>
<text text-anchor="middle" x="290" y="-1080" font-family="Helvetica,sans-Serif" font-size="10.00" fill="#000000">DocHtmlBlockQuote</text>
</a>
</g>
</g>
<!-- Node1&#45;&gt;Node10 -->
<g id="edge9" class="edge">
<title>Node1&#45;&gt;Node10</title>
<path fill="none" stroke="#63b8ff" d="M147.8704,-639.2989C153.6092,-716.7708 178.1043,-998.2965 235,-1063.5 238.3874,-1067.3821 242.608,-1070.4714 247.1954,-1072.9299"/>
<polygon fill="#63b8ff" stroke="#63b8ff" points="151.3408,-638.7613 147.133,-629.0379 144.3589,-639.2631 151.3408,-638.7613"/>
</g>
<!-- Node11 -->
<g id="node11" class="node">
<title>Node11</title>
<g id="a_node11"><a xlink:href="../../d0/dc7/class_doc_html_caption.html" target="_top" xlink:title="Node representing a HTML table caption.">
<polygon fill="#ffffff" stroke="#666666" points="334.5,-1055 245.5,-1055 245.5,-1036 334.5,-1036 334.5,-1055"/>
<text text-anchor="middle" x="290" y="-1043" font-family="Helvetica,sans-Serif" font-size="10.00" fill="#000000">DocHtmlCaption</text>
</a>
</g>
</g>
<!-- Node1&#45;&gt;Node11 -->
<g id="edge10" class="edge">
<title>Node1&#45;&gt;Node11</title>
<path fill="none" stroke="#63b8ff" d="M148.281,-639.52C155.2061,-713.1178 182.588,-967.4774 235,-1026.5 238.421,-1030.3525 242.6618,-1033.4241 247.26,-1035.873"/>
<polygon fill="#63b8ff" stroke="#63b8ff" points="151.744,-638.9558 147.3445,-629.3176 144.7733,-639.5957 151.744,-638.9558"/>
</g>
<!-- Node12 -->
<g id="node12" class="node">
<title>Node12</title>
<g id="a_node12"><a xlink:href="../../d1/d56/class_doc_html_cell.html" target="_top" xlink:title="Node representing a HTML table cell.">
<polygon fill="#ffffff" stroke="#666666" points="326.5,-1018 253.5,-1018 253.5,-999 326.5,-999 326.5,-1018"/>
<text text-anchor="middle" x="290" y="-1006" font-family="Helvetica,sans-Serif" font-size="10.00" fill="#000000">DocHtmlCell</text>
</a>
</g>
</g>
<!-- Node1&#45;&gt;Node12 -->
<g id="edge11" class="edge">
<title>Node1&#45;&gt;Node12</title>
<path fill="none" stroke="#63b8ff" d="M148.7434,-639.4474C156.8904,-708.5747 186.9819,-936.5379 235,-989.5 239.9535,-994.9635 246.5542,-998.856 253.4599,-1001.6293"/>
<polygon fill="#63b8ff" stroke="#63b8ff" points="152.1738,-638.6423 147.5506,-629.1095 145.22,-639.4448 152.1738,-638.6423"/>
</g>
<!-- Node13 -->
<g id="node13" class="node">
<title>Node13</title>
<g id="a_node13"><a xlink:href="../../dd/d88/class_doc_html_desc_data.html" target="_top" xlink:title="Node representing a HTML description data.">
<polygon fill="#ffffff" stroke="#666666" points="340,-981 240,-981 240,-962 340,-962 340,-981"/>
<text text-anchor="middle" x="290" y="-969" font-family="Helvetica,sans-Serif" font-size="10.00" fill="#000000">DocHtmlDescData</text>
</a>
</g>
</g>
<!-- Node1&#45;&gt;Node13 -->
<g id="edge12" class="edge">
<title>Node1&#45;&gt;Node13</title>
<path fill="none" stroke="#63b8ff" d="M149.2642,-639.1089C158.6701,-703.2643 191.2938,-905.4875 235,-952.5 238.5768,-956.3474 242.9698,-959.4157 247.6999,-961.8627"/>
<polygon fill="#63b8ff" stroke="#63b8ff" points="152.7139,-638.5084 147.8237,-629.1096 145.7854,-639.5066 152.7139,-638.5084"/>
</g>
<!-- Node14 -->
<g id="node14" class="node">
<title>Node14</title>
<g id="a_node14"><a xlink:href="../../df/d6f/class_doc_html_desc_list.html" target="_top" xlink:title="Node representing a Html description list.">
<polygon fill="#ffffff" stroke="#666666" points="337.5,-944 242.5,-944 242.5,-925 337.5,-925 337.5,-944"/>
<text text-anchor="middle" x="290" y="-932" font-family="Helvetica,sans-Serif" font-size="10.00" fill="#000000">DocHtmlDescList</text>
</a>
</g>
</g>
<!-- Node1&#45;&gt;Node14 -->
<g id="edge13" class="edge">
<title>Node1&#45;&gt;Node14</title>
<path fill="none" stroke="#63b8ff" d="M149.9809,-639.2184C160.8322,-698.6531 195.681,-874.4901 235,-915.5 238.7055,-919.3648 243.2341,-922.4438 248.0861,-924.8966"/>
<polygon fill="#63b8ff" stroke="#63b8ff" points="153.402,-638.4672 148.1871,-629.2447 146.5125,-639.7063 153.402,-638.4672"/>
</g>
<!-- Node15 -->
<g id="node15" class="node">
<title>Node15</title>
<g id="a_node15"><a xlink:href="../../dd/dd1/class_doc_html_desc_title.html" target="_top" xlink:title="Node representing a Html description item.">
<polygon fill="#ffffff" stroke="#666666" points="339,-907 241,-907 241,-888 339,-888 339,-907"/>
<text text-anchor="middle" x="290" y="-895" font-family="Helvetica,sans-Serif" font-size="10.00" fill="#000000">DocHtmlDescTitle</text>
</a>
</g>
</g>
<!-- Node1&#45;&gt;Node15 -->
<g id="edge14" class="edge">
<title>Node1&#45;&gt;Node15</title>
<path fill="none" stroke="#63b8ff" d="M147.5405,-639.2505C151.1187,-687.0579 166.825,-810.0956 235,-878.5 238.851,-882.3639 243.5245,-885.4431 248.5023,-887.8968"/>
<polygon fill="#63b8ff" stroke="#63b8ff" points="151.0178,-638.7856 146.8801,-629.0322 144.0324,-639.2371 151.0178,-638.7856"/>
</g>
<!-- Node16 -->
<g id="node16" class="node">
<title>Node16</title>
<g id="a_node16"><a xlink:href="../../dc/dcc/class_doc_html_details.html" target="_top" xlink:title="Node Html details.">
<polygon fill="#ffffff" stroke="#666666" points="333,-870 247,-870 247,-851 333,-851 333,-870"/>
<text text-anchor="middle" x="290" y="-858" font-family="Helvetica,sans-Serif" font-size="10.00" fill="#000000">DocHtmlDetails</text>
</a>
</g>
</g>
<!-- Node1&#45;&gt;Node16 -->
<g id="edge15" class="edge">
<title>Node1&#45;&gt;Node16</title>
<path fill="none" stroke="#63b8ff" d="M148.8065,-639.0099C154.8826,-681.7634 175.2082,-784.4384 235,-841.5 239.0927,-845.4058 244.0266,-848.512 249.238,-850.9815"/>
<polygon fill="#63b8ff" stroke="#63b8ff" points="152.2722,-638.5188 147.501,-629.0591 145.3317,-639.4295 152.2722,-638.5188"/>
</g>
<!-- Node17 -->
<g id="node17" class="node">
<title>Node17</title>
<g id="a_node17"><a xlink:href="../../df/d24/class_doc_html_header.html" target="_top" xlink:title="Node Html heading.">
<polygon fill="#ffffff" stroke="#666666" points="333.5,-833 246.5,-833 246.5,-814 333.5,-814 333.5,-833"/>
<text text-anchor="middle" x="290" y="-821" font-family="Helvetica,sans-Serif" font-size="10.00" fill="#000000">DocHtmlHeader</text>
</a>
</g>
</g>
<!-- Node1&#45;&gt;Node17 -->
<g id="edge16" class="edge">
<title>Node1&#45;&gt;Node17</title>
<path fill="none" stroke="#63b8ff" d="M150.6221,-639.2666C159.4571,-676.8051 183.7228,-758.7396 235,-804.5 239.3717,-808.4013 244.5856,-811.5102 250.0358,-813.9853"/>
<polygon fill="#63b8ff" stroke="#63b8ff" points="153.9547,-638.1301 148.3628,-629.1312 147.1224,-639.6532 153.9547,-638.1301"/>
</g>
<!-- Node18 -->
<g id="node18" class="node">
<title>Node18</title>
<g id="a_node18"><a xlink:href="../../d5/d42/class_doc_html_list.html" target="_top" xlink:title="Node representing a Html list.">
<polygon fill="#ffffff" stroke="#666666" points="325.5,-796 254.5,-796 254.5,-777 325.5,-777 325.5,-796"/>
<text text-anchor="middle" x="290" y="-784" font-family="Helvetica,sans-Serif" font-size="10.00" fill="#000000">DocHtmlList</text>
</a>
</g>
</g>
<!-- Node1&#45;&gt;Node18 -->
<g id="edge17" class="edge">
<title>Node1&#45;&gt;Node18</title>
<path fill="none" stroke="#63b8ff" d="M153.0261,-638.7383C164.6273,-670.1287 191.7655,-732.3772 235,-767.5 240.6455,-772.0863 247.466,-775.5958 254.354,-778.2713"/>
<polygon fill="#63b8ff" stroke="#63b8ff" points="156.2176,-637.2667 149.5697,-629.0171 149.6221,-639.6118 156.2176,-637.2667"/>
</g>
<!-- Node19 -->
<g id="node19" class="node">
<title>Node19</title>
<g id="a_node19"><a xlink:href="../../df/da8/class_doc_html_list_item.html" target="_top" xlink:title="Node representing a HTML list item.">
<polygon fill="#ffffff" stroke="#666666" points="335.5,-759 244.5,-759 244.5,-740 335.5,-740 335.5,-759"/>
<text text-anchor="middle" x="290" y="-747" font-family="Helvetica,sans-Serif" font-size="10.00" fill="#000000">DocHtmlListItem</text>
</a>
</g>
</g>
<!-- Node1&#45;&gt;Node19 -->
<g id="edge18" class="edge">
<title>Node1&#45;&gt;Node19</title>
<path fill="none" stroke="#63b8ff" d="M156.7013,-638.0022C171.1,-662.4968 199.6187,-705.4984 235,-730.5 240.4452,-734.3478 246.7385,-737.4744 253.0805,-739.996"/>
<polygon fill="#63b8ff" stroke="#63b8ff" points="159.5731,-635.9732 151.5729,-629.0272 153.4953,-639.4462 159.5731,-635.9732"/>
</g>
<!-- Node20 -->
<g id="node20" class="node">
<title>Node20</title>
<g id="a_node20"><a xlink:href="../../d3/d16/class_doc_html_row.html" target="_top" xlink:title="Node representing a HTML table row.">
<polygon fill="#ffffff" stroke="#666666" points="328,-722 252,-722 252,-703 328,-703 328,-722"/>
<text text-anchor="middle" x="290" y="-710" font-family="Helvetica,sans-Serif" font-size="10.00" fill="#000000">DocHtmlRow</text>
</a>
</g>
</g>
<!-- Node1&#45;&gt;Node20 -->
<g id="edge19" class="edge">
<title>Node1&#45;&gt;Node20</title>
<path fill="none" stroke="#63b8ff" d="M163.3275,-636.845C180.1544,-653.3504 207.4308,-677.9152 235,-693.5 241.5079,-697.1789 248.849,-700.3185 255.9979,-702.9232"/>
<polygon fill="#63b8ff" stroke="#63b8ff" points="165.4956,-634.0632 155.9508,-629.4644 160.5445,-639.0116 165.4956,-634.0632"/>
</g>
<!-- Node21 -->
<g id="node21" class="node">
<title>Node21</title>
<g id="a_node21"><a xlink:href="../../de/d79/class_doc_html_table.html" target="_top" xlink:title="Node representing a HTML table.">
<polygon fill="#ffffff" stroke="#666666" points="330,-685 250,-685 250,-666 330,-666 330,-685"/>
<text text-anchor="middle" x="290" y="-673" font-family="Helvetica,sans-Serif" font-size="10.00" fill="#000000">DocHtmlTable</text>
</a>
</g>
</g>
<!-- Node1&#45;&gt;Node21 -->
<g id="edge20" class="edge">
<title>Node1&#45;&gt;Node21</title>
<path fill="none" stroke="#63b8ff" d="M177.5489,-633.0476C194.4353,-640.2719 215.7489,-649.159 235,-656.5 243.4954,-659.7395 252.8152,-663.0496 261.3299,-665.9802"/>
<polygon fill="#63b8ff" stroke="#63b8ff" points="178.7362,-629.7483 168.1671,-629.0105 175.9693,-636.1782 178.7362,-629.7483"/>
</g>
<!-- Node22 -->
<g id="node22" class="node">
<title>Node22</title>
<g id="a_node22"><a xlink:href="../../db/dc8/class_doc_image.html" target="_top" xlink:title="Node representing an image.">
<polygon fill="#ffffff" stroke="#666666" points="321,-648 259,-648 259,-629 321,-629 321,-648"/>
<text text-anchor="middle" x="290" y="-636" font-family="Helvetica,sans-Serif" font-size="10.00" fill="#000000">DocImage</text>
</a>
</g>
</g>
<!-- Node1&#45;&gt;Node22 -->
<g id="edge21" class="edge">
<title>Node1&#45;&gt;Node22</title>
<path fill="none" stroke="#63b8ff" d="M209.1042,-627.7891C226.2533,-630.0597 244.1108,-632.4241 258.6718,-634.352"/>
<polygon fill="#63b8ff" stroke="#63b8ff" points="209.4922,-624.31 199.1193,-626.467 208.5733,-631.2494 209.4922,-624.31"/>
</g>
<!-- Node23 -->
<g id="node23" class="node">
<title>Node23</title>
<g id="a_node23"><a xlink:href="../../db/d6d/class_doc_internal.html" target="_top" xlink:title="Node representing an internal section of documentation.">
<polygon fill="#ffffff" stroke="#666666" points="323.5,-611 256.5,-611 256.5,-592 323.5,-592 323.5,-611"/>
<text text-anchor="middle" x="290" y="-599" font-family="Helvetica,sans-Serif" font-size="10.00" fill="#000000">DocInternal</text>
</a>
</g>
</g>
<!-- Node1&#45;&gt;Node23 -->
<g id="edge22" class="edge">
<title>Node1&#45;&gt;Node23</title>
<path fill="none" stroke="#63b8ff" d="M209.0773,-611.6506C225.2499,-609.622 242.0546,-607.5141 256.1317,-605.7483"/>
<polygon fill="#63b8ff" stroke="#63b8ff" points="208.6059,-608.1822 199.1193,-612.8997 209.4772,-615.1278 208.6059,-608.1822"/>
</g>
<!-- Node24 -->
<g id="node24" class="node">
<title>Node24</title>
<g id="a_node24"><a xlink:href="../../da/da2/class_doc_internal_ref.html" target="_top" xlink:title="Node representing an internal reference to some item.">
<polygon fill="#ffffff" stroke="#666666" points="331.5,-574 248.5,-574 248.5,-555 331.5,-555 331.5,-574"/>
<text text-anchor="middle" x="290" y="-562" font-family="Helvetica,sans-Serif" font-size="10.00" fill="#000000">DocInternalRef</text>
</a>
</g>
</g>
<!-- Node1&#45;&gt;Node24 -->
<g id="edge23" class="edge">
<title>Node1&#45;&gt;Node24</title>
<path fill="none" stroke="#63b8ff" d="M177.5014,-605.8263C194.374,-598.5654 215.6896,-589.6835 235,-582.5 242.8157,-579.5925 251.3449,-576.6783 259.3034,-574.0672"/>
<polygon fill="#63b8ff" stroke="#63b8ff" points="175.9122,-602.7004 168.1292,-609.889 178.6963,-609.1229 175.9122,-602.7004"/>
</g>
<!-- Node25 -->
<g id="node25" class="node">
<title>Node25</title>
<g id="a_node25"><a xlink:href="../../d5/dd3/class_doc_link.html" target="_top" xlink:title="Node representing a link to some item.">
<polygon fill="#ffffff" stroke="#666666" points="316.5,-537 263.5,-537 263.5,-518 316.5,-518 316.5,-537"/>
<text text-anchor="middle" x="290" y="-525" font-family="Helvetica,sans-Serif" font-size="10.00" fill="#000000">DocLink</text>
</a>
</g>
</g>
<!-- Node1&#45;&gt;Node25 -->
<g id="edge24" class="edge">
<title>Node1&#45;&gt;Node25</title>
<path fill="none" stroke="#63b8ff" d="M162.7284,-602.5938C179.4656,-586.0133 207.0034,-561.026 235,-545.5 243.7863,-540.6274 254.1006,-536.8149 263.4086,-533.9779"/>
<polygon fill="#63b8ff" stroke="#63b8ff" points="159.9675,-600.4081 155.4249,-609.9797 164.945,-605.33 159.9675,-600.4081"/>
</g>
<!-- Node26 -->
<g id="node26" class="node">
<title>Node26</title>
<g id="a_node26"><a xlink:href="../../d9/dd2/class_doc_par_block.html" target="_top" xlink:title="Node representing an block of paragraphs.">
<polygon fill="#ffffff" stroke="#666666" points="327,-500 253,-500 253,-481 327,-481 327,-500"/>
<text text-anchor="middle" x="290" y="-488" font-family="Helvetica,sans-Serif" font-size="10.00" fill="#000000">DocParBlock</text>
</a>
</g>
</g>
<!-- Node1&#45;&gt;Node26 -->
<g id="edge25" class="edge">
<title>Node1&#45;&gt;Node26</title>
<path fill="none" stroke="#63b8ff" d="M156.6415,-600.9124C170.9728,-576.3216 199.4157,-533.2118 235,-508.5 240.364,-504.775 246.5498,-501.7811 252.7943,-499.3873"/>
<polygon fill="#63b8ff" stroke="#63b8ff" points="153.4199,-599.4988 151.5397,-609.9255 159.5117,-602.947 153.4199,-599.4988"/>
</g>
<!-- Node27 -->
<g id="node27" class="node">
<title>Node27</title>
<g id="a_node27"><a xlink:href="../../d3/d01/class_doc_para.html" target="_top" xlink:title="Node representing a paragraph in the documentation tree.">
<polygon fill="#ffffff" stroke="#666666" points="317.5,-463 262.5,-463 262.5,-444 317.5,-444 317.5,-463"/>
<text text-anchor="middle" x="290" y="-451" font-family="Helvetica,sans-Serif" font-size="10.00" fill="#000000">DocPara</text>
</a>
</g>
</g>
<!-- Node1&#45;&gt;Node27 -->
<g id="edge26" class="edge">
<title>Node1&#45;&gt;Node27</title>
<path fill="none" stroke="#63b8ff" d="M152.9622,-600.1824C164.4714,-568.6778 191.4801,-506.2686 235,-471.5 242.8495,-465.2289 252.9589,-461.1105 262.365,-458.4199"/>
<polygon fill="#63b8ff" stroke="#63b8ff" points="149.5464,-599.3463 149.5361,-609.9412 156.1512,-601.6652 149.5464,-599.3463"/>
</g>
<!-- Node28 -->
<g id="node28" class="node">
<title>Node28</title>
<g id="a_node28"><a xlink:href="../../d1/d01/class_doc_param_sect.html" target="_top" xlink:title="Node representing a parameter section.">
<polygon fill="#ffffff" stroke="#666666" points="331.5,-426 248.5,-426 248.5,-407 331.5,-407 331.5,-426"/>
<text text-anchor="middle" x="290" y="-414" font-family="Helvetica,sans-Serif" font-size="10.00" fill="#000000">DocParamSect</text>
</a>
</g>
</g>
<!-- Node1&#45;&gt;Node28 -->
<g id="edge27" class="edge">
<title>Node1&#45;&gt;Node28</title>
<path fill="none" stroke="#63b8ff" d="M150.5546,-599.6571C159.2741,-561.9881 183.3508,-479.8401 235,-434.5 238.9262,-431.0534 243.5267,-428.2642 248.3656,-426.0077"/>
<polygon fill="#63b8ff" stroke="#63b8ff" points="147.0472,-599.3124 148.328,-609.8295 153.8854,-600.8092 147.0472,-599.3124"/>
</g>
<!-- Node29 -->
<g id="node29" class="node">
<title>Node29</title>
<g id="a_node29"><a xlink:href="../../d5/d68/class_doc_ref.html" target="_top" xlink:title="Node representing a reference to some item.">
<polygon fill="#ffffff" stroke="#666666" points="315,-389 265,-389 265,-370 315,-370 315,-389"/>
<text text-anchor="middle" x="290" y="-377" font-family="Helvetica,sans-Serif" font-size="10.00" fill="#000000">DocRef</text>
</a>
</g>
</g>
<!-- Node1&#45;&gt;Node29 -->
<g id="edge28" class="edge">
<title>Node1&#45;&gt;Node29</title>
<path fill="none" stroke="#63b8ff" d="M148.738,-599.9177C154.6767,-557.0191 174.7441,-454.0714 235,-397.5 243.1304,-389.8667 254.5504,-385.4689 264.8788,-382.9358"/>
<polygon fill="#63b8ff" stroke="#63b8ff" points="145.2577,-599.5415 147.4658,-609.9037 152.2016,-600.4262 145.2577,-599.5415"/>
</g>
<!-- Node30 -->
<g id="node30" class="node">
<title>Node30</title>
<g id="a_node30"><a xlink:href="../../d8/ddb/class_doc_root.html" target="_top" xlink:title="Root node of documentation tree.">
<polygon fill="#ffffff" stroke="#666666" points="318,-352 262,-352 262,-333 318,-333 318,-352"/>
<text text-anchor="middle" x="290" y="-340" font-family="Helvetica,sans-Serif" font-size="10.00" fill="#000000">DocRoot</text>
</a>
</g>
</g>
<!-- Node1&#45;&gt;Node30 -->
<g id="edge29" class="edge">
<title>Node1&#45;&gt;Node30</title>
<path fill="none" stroke="#63b8ff" d="M147.4696,-599.6782C150.8894,-551.7117 166.2687,-428.3453 235,-360.5 242.2217,-353.3714 252.3061,-349.0659 261.8702,-346.4655"/>
<polygon fill="#63b8ff" stroke="#63b8ff" points="143.9595,-599.7374 146.8444,-609.9319 150.9466,-600.1635 143.9595,-599.7374"/>
</g>
<!-- Node31 -->
<g id="node31" class="node">
<title>Node31</title>
<g id="a_node31"><a xlink:href="../../de/d87/class_doc_sec_ref_item.html" target="_top" xlink:title="Node representing a reference to a section.">
<polygon fill="#ffffff" stroke="#666666" points="333.5,-315 246.5,-315 246.5,-296 333.5,-296 333.5,-315"/>
<text text-anchor="middle" x="290" y="-303" font-family="Helvetica,sans-Serif" font-size="10.00" fill="#000000">DocSecRefItem</text>
</a>
</g>
</g>
<!-- Node1&#45;&gt;Node31 -->
<g id="edge30" class="edge">
<title>Node1&#45;&gt;Node31</title>
<path fill="none" stroke="#63b8ff" d="M149.9511,-599.7528C160.7172,-540.2357 195.3474,-364.1874 235,-323.5 238.2957,-320.1183 242.2352,-317.3715 246.4709,-315.1406"/>
<polygon fill="#63b8ff" stroke="#63b8ff" points="146.48,-599.2819 148.1719,-609.7407 153.3715,-600.5095 146.48,-599.2819"/>
</g>
<!-- Node32 -->
<g id="node32" class="node">
<title>Node32</title>
<g id="a_node32"><a xlink:href="../../d3/ddb/class_doc_sec_ref_list.html" target="_top" xlink:title="Node representing a list of section references.">
<polygon fill="#ffffff" stroke="#666666" points="331.5,-278 248.5,-278 248.5,-259 331.5,-259 331.5,-278"/>
<text text-anchor="middle" x="290" y="-266" font-family="Helvetica,sans-Serif" font-size="10.00" fill="#000000">DocSecRefList</text>
</a>
</g>
</g>
<!-- Node1&#45;&gt;Node32 -->
<g id="edge31" class="edge">
<title>Node1&#45;&gt;Node32</title>
<path fill="none" stroke="#63b8ff" d="M149.2342,-599.863C158.5464,-535.6198 190.9113,-333.154 235,-286.5 238.7264,-282.5568 243.3279,-279.4763 248.2695,-277.0699"/>
<polygon fill="#63b8ff" stroke="#63b8ff" points="145.7532,-599.4827 147.8086,-609.8762 152.6833,-600.4694 145.7532,-599.4827"/>
</g>
<!-- Node33 -->
<g id="node33" class="node">
<title>Node33</title>
<g id="a_node33"><a xlink:href="../../d2/da3/class_doc_section.html" target="_top" xlink:title="Node representing a normal section.">
<polygon fill="#ffffff" stroke="#666666" points="324,-241 256,-241 256,-222 324,-222 324,-241"/>
<text text-anchor="middle" x="290" y="-229" font-family="Helvetica,sans-Serif" font-size="10.00" fill="#000000">DocSection</text>
</a>
</g>
</g>
<!-- Node1&#45;&gt;Node33 -->
<g id="edge32" class="edge">
<title>Node1&#45;&gt;Node33</title>
<path fill="none" stroke="#63b8ff" d="M148.7126,-599.5245C156.7573,-530.3036 186.551,-302.0682 235,-249.5 240.5152,-243.5159 248.0466,-239.5165 255.766,-236.8451"/>
<polygon fill="#63b8ff" stroke="#63b8ff" points="145.1878,-599.5452 147.5354,-609.8766 152.1429,-600.3362 145.1878,-599.5452"/>
</g>
<!-- Node34 -->
<g id="node34" class="node">
<title>Node34</title>
<g id="a_node34"><a xlink:href="../../dc/de6/class_doc_simple_list.html" target="_top" xlink:title="Node representing a simple list.">
<polygon fill="#ffffff" stroke="#666666" points="330,-204 250,-204 250,-185 330,-185 330,-204"/>
<text text-anchor="middle" x="290" y="-192" font-family="Helvetica,sans-Serif" font-size="10.00" fill="#000000">DocSimpleList</text>
</a>
</g>
</g>
<!-- Node1&#45;&gt;Node34 -->
<g id="edge33" class="edge">
<title>Node1&#45;&gt;Node34</title>
<path fill="none" stroke="#63b8ff" d="M148.2498,-599.452C155.0647,-525.7556 182.1078,-271.0926 235,-212.5 239.0393,-208.0253 244.2065,-204.6594 249.7509,-202.1283"/>
<polygon fill="#63b8ff" stroke="#63b8ff" points="144.7409,-599.3945 147.3289,-609.6684 151.7126,-600.023 144.7409,-599.3945"/>
</g>
<!-- Node35 -->
<g id="node35" class="node">
<title>Node35</title>
<g id="a_node35"><a xlink:href="../../de/d65/class_doc_simple_sect.html" target="_top" xlink:title="Node representing a simple section.">
<polygon fill="#ffffff" stroke="#666666" points="332.5,-167 247.5,-167 247.5,-148 332.5,-148 332.5,-167"/>
<text text-anchor="middle" x="290" y="-155" font-family="Helvetica,sans-Serif" font-size="10.00" fill="#000000">DocSimpleSect</text>
</a>
</g>
</g>
<!-- Node1&#45;&gt;Node35 -->
<g id="edge34" class="edge">
<title>Node1&#45;&gt;Node35</title>
<path fill="none" stroke="#63b8ff" d="M147.8392,-599.6737C153.4607,-522.0986 177.5737,-240.2367 235,-175.5 238.467,-171.5917 242.7947,-168.5285 247.4906,-166.1283"/>
<polygon fill="#63b8ff" stroke="#63b8ff" points="144.3269,-599.7279 147.1177,-609.9486 151.3097,-600.2184 144.3269,-599.7279"/>
</g>
<!-- Node36 -->
<g id="node36" class="node">
<title>Node36</title>
<g id="a_node36"><a xlink:href="../../d0/d87/class_doc_text.html" target="_top" xlink:title="Root node of a text fragment.">
<polygon fill="#ffffff" stroke="#666666" points="317,-130 263,-130 263,-111 317,-111 317,-130"/>
<text text-anchor="middle" x="290" y="-118" font-family="Helvetica,sans-Serif" font-size="10.00" fill="#000000">DocText</text>
</a>
</g>
</g>
<!-- Node1&#45;&gt;Node36 -->
<g id="edge35" class="edge">
<title>Node1&#45;&gt;Node36</title>
<path fill="none" stroke="#63b8ff" d="M147.5109,-599.6175C152.048,-517.9587 173.0905,-209.339 235,-138.5 242.0743,-130.4054 252.8433,-125.9328 262.9826,-123.4686"/>
<polygon fill="#63b8ff" stroke="#63b8ff" points="143.9967,-599.7909 146.9583,-609.9633 150.9867,-600.1643 143.9967,-599.7909"/>
</g>
<!-- Node37 -->
<g id="node37" class="node">
<title>Node37</title>
<g id="a_node37"><a xlink:href="../../d3/d1c/class_doc_title.html" target="_top" xlink:title="Node representing a simple section title.">
<polygon fill="#ffffff" stroke="#666666" points="316.5,-93 263.5,-93 263.5,-74 316.5,-74 316.5,-93"/>
<text text-anchor="middle" x="290" y="-81" font-family="Helvetica,sans-Serif" font-size="10.00" fill="#000000">DocTitle</text>
</a>
</g>
</g>
<!-- Node1&#45;&gt;Node37 -->
<g id="edge36" class="edge">
<title>Node1&#45;&gt;Node37</title>
<path fill="none" stroke="#63b8ff" d="M147.2313,-599.4606C150.7521,-513.6972 168.6196,-178.4384 235,-101.5 242.1538,-93.2083 253.1866,-88.7143 263.4983,-86.2872"/>
<polygon fill="#63b8ff" stroke="#63b8ff" points="143.7261,-599.5274 146.8334,-609.6563 150.7208,-599.8005 143.7261,-599.5274"/>
</g>
<!-- Node38 -->
<g id="node38" class="node">
<title>Node38</title>
<g id="a_node38"><a xlink:href="../../d0/d89/class_doc_vhdl_flow.html" target="_top" xlink:title="Node representing a VHDL flow chart.">
<polygon fill="#ffffff" stroke="#666666" points="327.5,-56 252.5,-56 252.5,-37 327.5,-37 327.5,-56"/>
<text text-anchor="middle" x="290" y="-44" font-family="Helvetica,sans-Serif" font-size="10.00" fill="#000000">DocVhdlFlow</text>
</a>
</g>
</g>
<!-- Node1&#45;&gt;Node38 -->
<g id="edge37" class="edge">
<title>Node1&#45;&gt;Node38</title>
<path fill="none" stroke="#63b8ff" d="M146.9722,-599.7568C149.4879,-510.7686 164.018,-147.7 235,-64.5 239.5646,-59.1497 245.7452,-55.3795 252.3167,-52.7254"/>
<polygon fill="#63b8ff" stroke="#63b8ff" points="143.4714,-599.7435 146.7069,-609.8322 150.469,-599.9278 143.4714,-599.7435"/>
</g>
<!-- Node39 -->
<g id="node39" class="node">
<title>Node39</title>
<g id="a_node39"><a xlink:href="../../d0/d90/class_doc_x_ref_item.html" target="_top" xlink:title="Node representing an item of a cross&#45;referenced list.">
<polygon fill="#ffffff" stroke="#666666" points="328.5,-19 251.5,-19 251.5,0 328.5,0 328.5,-19"/>
<text text-anchor="middle" x="290" y="-7" font-family="Helvetica,sans-Serif" font-size="10.00" fill="#000000">DocXRefItem</text>
</a>
</g>
</g>
<!-- Node1&#45;&gt;Node39 -->
<g id="edge38" class="edge">
<title>Node1&#45;&gt;Node39</title>
<path fill="none" stroke="#63b8ff" d="M146.7576,-599.6257C148.353,-506.8192 159.5177,-116.8521 235,-27.5 239.344,-22.3578 245.1815,-18.6743 251.4332,-16.0381"/>
<polygon fill="#63b8ff" stroke="#63b8ff" points="143.2578,-599.5916 146.604,-609.6441 150.257,-599.699 143.2578,-599.5916"/>
</g>
<!-- Node2 -->
<g id="node2" class="node">
<title>Node2</title>
<g id="a_node2"><a xlink:href="../../d9/d0e/class_doc_node.html" target="_top" xlink:title="Abstract node interface with type information.">
<polygon fill="#ffffff" stroke="#666666" points="58,-629 0,-629 0,-610 58,-610 58,-629"/>
<text text-anchor="middle" x="29" y="-617" font-family="Helvetica,sans-Serif" font-size="10.00" fill="#000000">DocNode</text>
</a>
</g>
</g>
<!-- Node2&#45;&gt;Node1 -->
<g id="edge1" class="edge">
<title>Node2&#45;&gt;Node1</title>
<path fill="none" stroke="#63b8ff" d="M68.1583,-619.5C76.4357,-619.5 85.299,-619.5 93.9789,-619.5"/>
<polygon fill="#63b8ff" stroke="#63b8ff" points="68.045,-616.0001 58.045,-619.5 68.0449,-623.0001 68.045,-616.0001"/>
</g>
<!-- Node6 -->
<g id="node6" class="node">
<title>Node6</title>
<g id="a_node6"><a xlink:href="../../d6/ddb/class_doc_dia_file.html" target="_top" xlink:title="Node representing a dia file.">
<polygon fill="#ffffff" stroke="#666666" points="448,-1203 383,-1203 383,-1184 448,-1184 448,-1203"/>
<text text-anchor="middle" x="415.5" y="-1191" font-family="Helvetica,sans-Serif" font-size="10.00" fill="#000000">DocDiaFile</text>
</a>
</g>
</g>
<!-- Node5&#45;&gt;Node6 -->
<g id="edge5" class="edge">
<title>Node5&#45;&gt;Node6</title>
<path fill="none" stroke="#63b8ff" d="M332.2754,-1168.9637C348.7821,-1173.8302 367.4119,-1179.3226 382.854,-1183.8753"/>
<polygon fill="#63b8ff" stroke="#63b8ff" points="332.901,-1165.4992 322.3194,-1166.0284 330.9214,-1172.2135 332.901,-1165.4992"/>
</g>
<!-- Node7 -->
<g id="node7" class="node">
<title>Node7</title>
<g id="a_node7"><a xlink:href="../../df/d37/class_doc_dot_file.html" target="_top" xlink:title="Node representing a dot file.">
<polygon fill="#ffffff" stroke="#666666" points="448.5,-1166 382.5,-1166 382.5,-1147 448.5,-1147 448.5,-1166"/>
<text text-anchor="middle" x="415.5" y="-1154" font-family="Helvetica,sans-Serif" font-size="10.00" fill="#000000">DocDotFile</text>
</a>
</g>
</g>
<!-- Node5&#45;&gt;Node7 -->
<g id="edge6" class="edge">
<title>Node5&#45;&gt;Node7</title>
<path fill="none" stroke="#63b8ff" d="M355.1731,-1156.5C364.5161,-1156.5 373.7873,-1156.5 382.1567,-1156.5"/>
<polygon fill="#63b8ff" stroke="#63b8ff" points="355.0462,-1153.0001 345.0461,-1156.5 355.0461,-1160.0001 355.0462,-1153.0001"/>
</g>
<!-- Node8 -->
<g id="node8" class="node">
<title>Node8</title>
<g id="a_node8"><a xlink:href="../../d3/d7d/class_doc_msc_file.html" target="_top" xlink:title="Node representing a msc file.">
<polygon fill="#ffffff" stroke="#666666" points="450,-1129 381,-1129 381,-1110 450,-1110 450,-1129"/>
<text text-anchor="middle" x="415.5" y="-1117" font-family="Helvetica,sans-Serif" font-size="10.00" fill="#000000">DocMscFile</text>
</a>
</g>
</g>
<!-- Node5&#45;&gt;Node8 -->
<g id="edge7" class="edge">
<title>Node5&#45;&gt;Node8</title>
<path fill="none" stroke="#63b8ff" d="M332.2754,-1144.0363C348.7821,-1139.1698 367.4119,-1133.6774 382.854,-1129.1247"/>
<polygon fill="#63b8ff" stroke="#63b8ff" points="330.9214,-1140.7865 322.3194,-1146.9716 332.901,-1147.5008 330.9214,-1140.7865"/>
</g>
</g>
</svg>
        <g id="navigator" transform="translate(0 0)" fill="#404254">
                <rect fill="#f2f5e9" fill-opacity="0.5" stroke="#606060" stroke-width=".5" x="0" y="0" width="60" height="60"/>
                <use id="zoomplus" xlink:href="#zoomPlus" x="17" y="9" onmousedown="handleZoom(evt,'in')"/>
                <use id="zoomminus" xlink:href="#zoomMin" x="42" y="9" onmousedown="handleZoom(evt,'out')"/>
                <use id="reset" xlink:href="#resetDef" x="30" y="36" onmousedown="handleReset()"/>
                <g id="arrowUp" xlink:href="#dirArrow" transform="translate(30 24)" onmousedown="handlePan(0,-1)">
                  <use xlink:href="#rim" fill="#404040">
                        <set attributeName="fill" to="#808080" begin="arrowUp.mouseover" end="arrowUp.mouseout"/>
                  </use>
                  <path fill="none" stroke="white" stroke-width="1.5" d="M0,-3.0v7 M-2.5,-0.5L0,-3.0L2.5,-0.5"/>
                </g>
                <g id="arrowRight" xlink:href="#dirArrow" transform="rotate(90) translate(36 -43)" onmousedown="handlePan(1,0)">
                  <use xlink:href="#rim" fill="#404040">
                        <set attributeName="fill" to="#808080" begin="arrowRight.mouseover" end="arrowRight.mouseout"/>
                  </use>
                  <path fill="none" stroke="white" stroke-width="1.5" d="M0,-3.0v7 M-2.5,-0.5L0,-3.0L2.5,-0.5"/>
                </g>
                <g id="arrowDown" xlink:href="#dirArrow" transform="rotate(180) translate(-30 -48)" onmousedown="handlePan(0,1)">
                  <use xlink:href="#rim" fill="#404040">
                        <set attributeName="fill" to="#808080" begin="arrowDown.mouseover" end="arrowDown.mouseout"/>
                  </use>
                  <path fill="none" stroke="white" stroke-width="1.5" d="M0,-3.0v7 M-2.5,-0.5L0,-3.0L2.5,-0.5"/>
                </g>
                <g id="arrowLeft" xlink:href="#dirArrow" transform="rotate(270) translate(-36 17)" onmousedown="handlePan(-1,0)">
                  <use xlink:href="#rim" fill="#404040">
                        <set attributeName="fill" to="#808080" begin="arrowLeft.mouseover" end="arrowLeft.mouseout"/>
                  </use>
                  <path fill="none" stroke="white" stroke-width="1.5" d="M0,-3.0v7 M-2.5,-0.5L0,-3.0L2.5,-0.5"/>
                </g>
        </g>
        <svg viewBox="0 0 15 15" width="100%" height="30px" preserveAspectRatio="xMaxYMin meet">
         <g id="arrow_out" transform="scale(0.3 0.3)">
          <a xlink:href="class_doc_compound_node__inherit__graph_org.svg" target="_base">
           <rect id="button" ry="5" rx="5" y="6" x="6" height="38" width="38"
                fill="#f2f5e9" fill-opacity="0.5" stroke="#606060" stroke-width="1.0"/>
           <path id="arrow"
             d="M 11.500037,31.436501 C 11.940474,20.09759 22.043105,11.32322 32.158766,21.979434 L 37.068811,17.246167 C 37.068811,17.246167 37.088388,32 37.088388,32 L 22.160133,31.978069 C 22.160133,31.978069 26.997745,27.140456 26.997745,27.140456 C 18.528582,18.264221 13.291696,25.230495 11.500037,31.436501 z"
             style="fill:#404040;"/>
          </a>
         </g>
        </svg>
</svg>
