<?xml version="1.0" encoding="UTF-8" standalone="no"?>
<!DOCTYPE svg PUBLIC "-//W3C//DTD SVG 1.1//EN"
 "http://www.w3.org/Graphics/SVG/1.1/DTD/svg11.dtd">
<!-- Generated by graphviz version 2.43.0 (0)
 -->
<!-- Title: DocCompoundNode Pages: 1 -->
<!--zoomable 1322 -->
<svg id="main" version="1.1" xmlns="http://www.w3.org/2000/svg" xmlns:xlink="http://www.w3.org/1999/xlink" xml:space="preserve" onload="init(evt)">
<style type="text/css"><![CDATA[
.edge:hover path { stroke: red; }
.edge:hover polygon { stroke: red; fill: red; }
]]></style>
<script type="text/javascript"><![CDATA[
var edges = document.getElementsByTagName('g');
if (edges && edges.length) {
  for (var i=0;i<edges.length;i++) {
    if (edges[i].id.substr(0,4)=='edge') {
      edges[i].setAttribute('class','edge');
    }
  }
}
]]></script>
        <defs>
                <circle id="rim" cx="0" cy="0" r="7"/>
                <circle id="rim2" cx="0" cy="0" r="3.5"/>
                <g id="zoomPlus">
                        <use xlink:href="#rim" fill="#404040">
                                <set attributeName="fill" to="#808080" begin="zoomplus.mouseover" end="zoomplus.mouseout"/>
                        </use>
                        <path d="M-4,0h8M0,-4v8" fill="none" stroke="white" stroke-width="1.5" pointer-events="none"/>
                </g>
                <g id="zoomMin">
                        <use xlink:href="#rim" fill="#404040">
                                <set attributeName="fill" to="#808080" begin="zoomminus.mouseover" end="zoomminus.mouseout"/>
                        </use>
                        <path d="M-4,0h8" fill="none" stroke="white" stroke-width="1.5" pointer-events="none"/>
                </g>
                <g id="dirArrow">
                        <path fill="none" stroke="white" stroke-width="1.5" d="M0,-3.0v7 M-2.5,-0.5L0,-3.0L2.5,-0.5"/>
                </g>
               <g id="resetDef">
                       <use xlink:href="#rim2" fill="#404040">
                               <set attributeName="fill" to="#808080" begin="reset.mouseover" end="reset.mouseout"/>
                       </use>
               </g>
        </defs>

<script type="text/javascript">
var viewWidth = 481;
var viewHeight = 1322;
var sectionId = 'dynsection-0';
</script>
<script xlink:href="../../svgpan.js"/>
<svg id="graph" class="graph">
<g id="viewport">
<title>DocCompoundNode</title>
<!-- Node1 -->
<g id="node1" class="node">
<title>Node1</title>
<g id="a_node1"><a xlink:title="Base class for nodes with children.">
<polygon fill="#999999" stroke="#666666" points="210,-666 97,-666 97,-647 210,-647 210,-666"/>
<text text-anchor="middle" x="153.5" y="-654" font-family="Helvetica,sans-Serif" font-size="10.00">DocCompoundNode</text>
</a>
</g>
</g>
<!-- Node3 -->
<g id="node3" class="node">
<title>Node3</title>
<g id="a_node3"><a xlink:href="../../d1/d3f/class_doc_auto_list.html" target="_top" xlink:title="Node representing an auto List.">
<polygon fill="white" stroke="#666666" points="343,-1314 268,-1314 268,-1295 343,-1295 343,-1314"/>
<text text-anchor="middle" x="305.5" y="-1302" font-family="Helvetica,sans-Serif" font-size="10.00">DocAutoList</text>
</a>
</g>
</g>
<!-- Node1&#45;&gt;Node3 -->
<g id="edge2" class="edge">
<title>Node1&#45;&gt;Node3</title>
<path fill="none" stroke="#63b8ff" d="M154.66,-676.08C155.82,-771.83 165.5,-1190.05 246,-1285.5 251.65,-1292.19 259.68,-1296.55 267.98,-1299.38"/>
<polygon fill="#63b8ff" stroke="#63b8ff" points="158.16,-676.01 154.55,-666.04 151.16,-676.08 158.16,-676.01"/>
</g>
<!-- Node4 -->
<g id="node4" class="node">
<title>Node4</title>
<g id="a_node4"><a xlink:href="../../d8/df9/class_doc_auto_list_item.html" target="_top" xlink:title="Node representing an item of a auto list.">
<polygon fill="white" stroke="#666666" points="354.5,-1277 256.5,-1277 256.5,-1258 354.5,-1258 354.5,-1277"/>
<text text-anchor="middle" x="305.5" y="-1265" font-family="Helvetica,sans-Serif" font-size="10.00">DocAutoListItem</text>
</a>
</g>
</g>
<!-- Node1&#45;&gt;Node4 -->
<g id="edge3" class="edge">
<title>Node1&#45;&gt;Node4</title>
<path fill="none" stroke="#63b8ff" d="M154.86,-676.38C156.94,-769.23 170.14,-1159.35 246,-1248.5 249.32,-1252.4 253.45,-1255.51 257.98,-1257.98"/>
<polygon fill="#63b8ff" stroke="#63b8ff" points="158.36,-676.29 154.66,-666.36 151.36,-676.43 158.36,-676.29"/>
</g>
<!-- Node5 -->
<g id="node5" class="node">
<title>Node5</title>
<g id="a_node5"><a xlink:href="../../d3/d7c/class_doc_diagram_file_base.html" target="_top" xlink:title=" ">
<polygon fill="white" stroke="#666666" points="365,-1240 246,-1240 246,-1221 365,-1221 365,-1240"/>
<text text-anchor="middle" x="305.5" y="-1228" font-family="Helvetica,sans-Serif" font-size="10.00">DocDiagramFileBase</text>
</a>
</g>
</g>
<!-- Node1&#45;&gt;Node5 -->
<g id="edge4" class="edge">
<title>Node1&#45;&gt;Node5</title>
<path fill="none" stroke="#63b8ff" d="M155.08,-676.25C158.09,-765.28 174.65,-1128.5 246,-1211.5 249.34,-1215.39 253.49,-1218.48 258.02,-1220.95"/>
<polygon fill="#63b8ff" stroke="#63b8ff" points="158.58,-676.06 154.76,-666.17 151.58,-676.28 158.58,-676.06"/>
</g>
<!-- Node9 -->
<g id="node9" class="node">
<title>Node9</title>
<g id="a_node9"><a xlink:href="../../d9/d10/class_doc_h_ref.html" target="_top" xlink:title="Node representing a Hypertext reference.">
<polygon fill="white" stroke="#666666" points="335,-1203 276,-1203 276,-1184 335,-1184 335,-1203"/>
<text text-anchor="middle" x="305.5" y="-1191" font-family="Helvetica,sans-Serif" font-size="10.00">DocHRef</text>
</a>
</g>
</g>
<!-- Node1&#45;&gt;Node9 -->
<g id="edge8" class="edge">
<title>Node1&#45;&gt;Node9</title>
<path fill="none" stroke="#63b8ff" d="M155.35,-676.55C159.39,-762.35 179.25,-1097.75 246,-1174.5 253.5,-1183.12 264.95,-1187.86 275.74,-1190.45"/>
<polygon fill="#63b8ff" stroke="#63b8ff" points="158.84,-676.18 154.89,-666.35 151.85,-676.5 158.84,-676.18"/>
</g>
<!-- Node10 -->
<g id="node10" class="node">
<title>Node10</title>
<g id="a_node10"><a xlink:href="../../d9/dd3/class_doc_html_block_quote.html" target="_top" xlink:title="Node representing an HTML blockquote.">
<polygon fill="white" stroke="#666666" points="363.5,-1166 247.5,-1166 247.5,-1147 363.5,-1147 363.5,-1166"/>
<text text-anchor="middle" x="305.5" y="-1154" font-family="Helvetica,sans-Serif" font-size="10.00">DocHtmlBlockQuote</text>
</a>
</g>
</g>
<!-- Node1&#45;&gt;Node10 -->
<g id="edge9" class="edge">
<title>Node1&#45;&gt;Node10</title>
<path fill="none" stroke="#63b8ff" d="M155.64,-676.39C160.7,-758.09 183.73,-1066.84 246,-1137.5 249.39,-1141.35 253.56,-1144.42 258.11,-1146.87"/>
<polygon fill="#63b8ff" stroke="#63b8ff" points="159.11,-675.81 155.02,-666.04 152.12,-676.23 159.11,-675.81"/>
</g>
<!-- Node11 -->
<g id="node11" class="node">
<title>Node11</title>
<g id="a_node11"><a xlink:href="../../d0/dc7/class_doc_html_caption.html" target="_top" xlink:title="Node representing a HTML table caption.">
<polygon fill="white" stroke="#666666" points="354,-1129 257,-1129 257,-1110 354,-1110 354,-1129"/>
<text text-anchor="middle" x="305.5" y="-1117" font-family="Helvetica,sans-Serif" font-size="10.00">DocHtmlCaption</text>
</a>
</g>
</g>
<!-- Node1&#45;&gt;Node11 -->
<g id="edge10" class="edge">
<title>Node1&#45;&gt;Node11</title>
<path fill="none" stroke="#63b8ff" d="M155.98,-676.34C162.14,-753.95 188.22,-1035.93 246,-1100.5 249.49,-1104.4 253.79,-1107.5 258.45,-1109.97"/>
<polygon fill="#63b8ff" stroke="#63b8ff" points="159.44,-675.76 155.18,-666.06 152.46,-676.3 159.44,-675.76"/>
</g>
<!-- Node12 -->
<g id="node12" class="node">
<title>Node12</title>
<g id="a_node12"><a xlink:href="../../d1/d56/class_doc_html_cell.html" target="_top" xlink:title="Node representing a HTML table cell.">
<polygon fill="white" stroke="#666666" points="344.5,-1092 266.5,-1092 266.5,-1073 344.5,-1073 344.5,-1092"/>
<text text-anchor="middle" x="305.5" y="-1080" font-family="Helvetica,sans-Serif" font-size="10.00">DocHtmlCell</text>
</a>
</g>
</g>
<!-- Node1&#45;&gt;Node12 -->
<g id="edge11" class="edge">
<title>Node1&#45;&gt;Node12</title>
<path fill="none" stroke="#63b8ff" d="M156.4,-676.56C163.78,-750.29 192.75,-1005.06 246,-1063.5 251.39,-1069.42 258.65,-1073.5 266.21,-1076.31"/>
<polygon fill="#63b8ff" stroke="#63b8ff" points="159.86,-675.95 155.4,-666.34 152.89,-676.63 159.86,-675.95"/>
</g>
<!-- Node13 -->
<g id="node13" class="node">
<title>Node13</title>
<g id="a_node13"><a xlink:href="../../dd/d88/class_doc_html_desc_data.html" target="_top" xlink:title="Node representing a HTML description data.">
<polygon fill="white" stroke="#666666" points="359,-1055 252,-1055 252,-1036 359,-1036 359,-1055"/>
<text text-anchor="middle" x="305.5" y="-1043" font-family="Helvetica,sans-Serif" font-size="10.00">DocHtmlDescData</text>
</a>
</g>
</g>
<!-- Node1&#45;&gt;Node13 -->
<g id="edge12" class="edge">
<title>Node1&#45;&gt;Node13</title>
<path fill="none" stroke="#63b8ff" d="M156.83,-676.06C165.37,-744.8 197.1,-973.97 246,-1026.5 249.64,-1030.41 254.09,-1033.51 258.89,-1035.98"/>
<polygon fill="#63b8ff" stroke="#63b8ff" points="160.3,-675.63 155.62,-666.13 153.35,-676.48 160.3,-675.63"/>
</g>
<!-- Node14 -->
<g id="node14" class="node">
<title>Node14</title>
<g id="a_node14"><a xlink:href="../../df/d6f/class_doc_html_desc_list.html" target="_top" xlink:title="Node representing a Html description list.">
<polygon fill="white" stroke="#666666" points="356,-1018 255,-1018 255,-999 356,-999 356,-1018"/>
<text text-anchor="middle" x="305.5" y="-1006" font-family="Helvetica,sans-Serif" font-size="10.00">DocHtmlDescList</text>
</a>
</g>
</g>
<!-- Node1&#45;&gt;Node14 -->
<g id="edge13" class="edge">
<title>Node1&#45;&gt;Node14</title>
<path fill="none" stroke="#63b8ff" d="M153.87,-676.43C153.2,-733.39 159.22,-898.64 246,-989.5 249.69,-993.36 254.17,-996.44 258.99,-998.89"/>
<polygon fill="#63b8ff" stroke="#63b8ff" points="157.38,-676.33 154.08,-666.26 150.38,-676.18 157.38,-676.33"/>
</g>
<!-- Node15 -->
<g id="node15" class="node">
<title>Node15</title>
<g id="a_node15"><a xlink:href="../../dd/dd1/class_doc_html_desc_title.html" target="_top" xlink:title="Node representing a Html description item.">
<polygon fill="white" stroke="#666666" points="358,-981 253,-981 253,-962 358,-962 358,-981"/>
<text text-anchor="middle" x="305.5" y="-969" font-family="Helvetica,sans-Serif" font-size="10.00">DocHtmlDescTitle</text>
</a>
</g>
</g>
<!-- Node1&#45;&gt;Node15 -->
<g id="edge14" class="edge">
<title>Node1&#45;&gt;Node15</title>
<path fill="none" stroke="#63b8ff" d="M154.69,-676.28C156.27,-728.82 167.89,-873.27 246,-952.5 249.82,-956.38 254.45,-959.47 259.4,-961.92"/>
<polygon fill="#63b8ff" stroke="#63b8ff" points="158.18,-675.93 154.47,-666 151.18,-676.07 158.18,-675.93"/>
</g>
<!-- Node16 -->
<g id="node16" class="node">
<title>Node16</title>
<g id="a_node16"><a xlink:href="../../dc/dcc/class_doc_html_details.html" target="_top" xlink:title="Node Html details.">
<polygon fill="white" stroke="#666666" points="352.5,-944 258.5,-944 258.5,-925 352.5,-925 352.5,-944"/>
<text text-anchor="middle" x="305.5" y="-932" font-family="Helvetica,sans-Serif" font-size="10.00">DocHtmlDetails</text>
</a>
</g>
</g>
<!-- Node1&#45;&gt;Node16 -->
<g id="edge15" class="edge">
<title>Node1&#45;&gt;Node16</title>
<path fill="none" stroke="#63b8ff" d="M155.71,-676.35C159.72,-724.37 176.59,-847.85 246,-915.5 249.98,-919.38 254.75,-922.46 259.84,-924.92"/>
<polygon fill="#63b8ff" stroke="#63b8ff" points="159.18,-675.8 154.96,-666.08 152.2,-676.31 159.18,-675.8"/>
</g>
<!-- Node17 -->
<g id="node17" class="node">
<title>Node17</title>
<g id="a_node17"><a xlink:href="../../df/d24/class_doc_html_header.html" target="_top" xlink:title="Node Html heading.">
<polygon fill="white" stroke="#666666" points="353,-907 258,-907 258,-888 353,-888 353,-907"/>
<text text-anchor="middle" x="305.5" y="-895" font-family="Helvetica,sans-Serif" font-size="10.00">DocHtmlHeader</text>
</a>
</g>
</g>
<!-- Node1&#45;&gt;Node17 -->
<g id="edge16" class="edge">
<title>Node1&#45;&gt;Node17</title>
<path fill="none" stroke="#63b8ff" d="M157.02,-676.1C163.56,-719.05 185.07,-822.08 246,-878.5 250.23,-882.42 255.28,-885.53 260.61,-888"/>
<polygon fill="#63b8ff" stroke="#63b8ff" points="160.47,-675.52 155.6,-666.11 153.54,-676.5 160.47,-675.52"/>
</g>
<!-- Node18 -->
<g id="node18" class="node">
<title>Node18</title>
<g id="a_node18"><a xlink:href="../../d5/d42/class_doc_html_list.html" target="_top" xlink:title="Node representing a Html list.">
<polygon fill="white" stroke="#666666" points="344,-870 267,-870 267,-851 344,-851 344,-870"/>
<text text-anchor="middle" x="305.5" y="-858" font-family="Helvetica,sans-Serif" font-size="10.00">DocHtmlList</text>
</a>
</g>
</g>
<!-- Node1&#45;&gt;Node18 -->
<g id="edge17" class="edge">
<title>Node1&#45;&gt;Node18</title>
<path fill="none" stroke="#63b8ff" d="M158.89,-676.36C168.23,-714.07 193.67,-796.27 246,-841.5 251.98,-846.67 259.39,-850.43 266.9,-853.18"/>
<polygon fill="#63b8ff" stroke="#63b8ff" points="162.19,-675.11 156.49,-666.18 155.37,-676.72 162.19,-675.11"/>
</g>
<!-- Node19 -->
<g id="node19" class="node">
<title>Node19</title>
<g id="a_node19"><a xlink:href="../../df/da8/class_doc_html_list_item.html" target="_top" xlink:title="Node representing a HTML list item.">
<polygon fill="white" stroke="#666666" points="355,-833 256,-833 256,-814 355,-814 355,-833"/>
<text text-anchor="middle" x="305.5" y="-821" font-family="Helvetica,sans-Serif" font-size="10.00">DocHtmlListItem</text>
</a>
</g>
</g>
<!-- Node1&#45;&gt;Node19 -->
<g id="edge18" class="edge">
<title>Node1&#45;&gt;Node19</title>
<path fill="none" stroke="#63b8ff" d="M161.36,-675.83C173.51,-707.36 201.79,-769.79 246,-804.5 250.96,-808.39 256.73,-811.5 262.69,-813.97"/>
<polygon fill="#63b8ff" stroke="#63b8ff" points="164.49,-674.22 157.73,-666.07 157.93,-676.66 164.49,-674.22"/>
</g>
<!-- Node20 -->
<g id="node20" class="node">
<title>Node20</title>
<g id="a_node20"><a xlink:href="../../d4/d9d/class_doc_html_picture.html" target="_top" xlink:title="Node Html picture.">
<polygon fill="white" stroke="#666666" points="352,-796 259,-796 259,-777 352,-777 352,-796"/>
<text text-anchor="middle" x="305.5" y="-784" font-family="Helvetica,sans-Serif" font-size="10.00">DocHtmlPicture</text>
</a>
</g>
</g>
<!-- Node1&#45;&gt;Node20 -->
<g id="edge19" class="edge">
<title>Node1&#45;&gt;Node20</title>
<path fill="none" stroke="#63b8ff" d="M164.93,-674.76C179.85,-699.3 209.55,-742.69 246,-767.5 251.65,-771.35 258.13,-774.46 264.67,-776.96"/>
<polygon fill="#63b8ff" stroke="#63b8ff" points="167.9,-672.9 159.79,-666.08 161.87,-676.46 167.9,-672.9"/>
</g>
<!-- Node21 -->
<g id="node21" class="node">
<title>Node21</title>
<g id="a_node21"><a xlink:href="../../d3/d16/class_doc_html_row.html" target="_top" xlink:title="Node representing a HTML table row.">
<polygon fill="white" stroke="#666666" points="345.5,-759 265.5,-759 265.5,-740 345.5,-740 345.5,-759"/>
<text text-anchor="middle" x="305.5" y="-747" font-family="Helvetica,sans-Serif" font-size="10.00">DocHtmlRow</text>
</a>
</g>
</g>
<!-- Node1&#45;&gt;Node21 -->
<g id="edge20" class="edge">
<title>Node1&#45;&gt;Node21</title>
<path fill="none" stroke="#63b8ff" d="M171.38,-673.39C188.76,-689.95 217.3,-714.93 246,-730.5 252.85,-734.22 260.55,-737.36 268.06,-739.95"/>
<polygon fill="#63b8ff" stroke="#63b8ff" points="173.4,-670.47 163.79,-666.01 168.52,-675.49 173.4,-670.47"/>
</g>
<!-- Node22 -->
<g id="node22" class="node">
<title>Node22</title>
<g id="a_node22"><a xlink:href="../../df/d20/class_doc_html_summary.html" target="_top" xlink:title="Node Html summary.">
<polygon fill="white" stroke="#666666" points="359,-722 252,-722 252,-703 359,-703 359,-722"/>
<text text-anchor="middle" x="305.5" y="-710" font-family="Helvetica,sans-Serif" font-size="10.00">DocHtmlSummary</text>
</a>
</g>
</g>
<!-- Node1&#45;&gt;Node22 -->
<g id="edge21" class="edge">
<title>Node1&#45;&gt;Node22</title>
<path fill="none" stroke="#63b8ff" d="M186.59,-670.12C204.04,-677.36 226.08,-686.25 246,-693.5 254.93,-696.75 264.72,-700.04 273.7,-702.94"/>
<polygon fill="#63b8ff" stroke="#63b8ff" points="187.47,-666.69 176.89,-666.07 184.77,-673.15 187.47,-666.69"/>
</g>
<!-- Node23 -->
<g id="node23" class="node">
<title>Node23</title>
<g id="a_node23"><a xlink:href="../../de/d79/class_doc_html_table.html" target="_top" xlink:title="Node representing a HTML table.">
<polygon fill="white" stroke="#666666" points="348,-685 263,-685 263,-666 348,-666 348,-685"/>
<text text-anchor="middle" x="305.5" y="-673" font-family="Helvetica,sans-Serif" font-size="10.00">DocHtmlTable</text>
</a>
</g>
</g>
<!-- Node1&#45;&gt;Node23 -->
<g id="edge22" class="edge">
<title>Node1&#45;&gt;Node23</title>
<path fill="none" stroke="#63b8ff" d="M220.64,-664.88C234.92,-666.69 249.63,-668.55 262.67,-670.2"/>
<polygon fill="#63b8ff" stroke="#63b8ff" points="220.72,-661.36 210.35,-663.57 219.84,-668.3 220.72,-661.36"/>
</g>
<!-- Node24 -->
<g id="node24" class="node">
<title>Node24</title>
<g id="a_node24"><a xlink:href="../../db/dc8/class_doc_image.html" target="_top" xlink:title="Node representing an image.">
<polygon fill="white" stroke="#666666" points="338.5,-648 272.5,-648 272.5,-629 338.5,-629 338.5,-648"/>
<text text-anchor="middle" x="305.5" y="-636" font-family="Helvetica,sans-Serif" font-size="10.00">DocImage</text>
</a>
</g>
</g>
<!-- Node1&#45;&gt;Node24 -->
<g id="edge23" class="edge">
<title>Node1&#45;&gt;Node24</title>
<path fill="none" stroke="#63b8ff" d="M220.49,-648.58C238.4,-646.43 257,-644.2 272.13,-642.38"/>
<polygon fill="#63b8ff" stroke="#63b8ff" points="219.87,-645.13 210.35,-649.8 220.7,-652.08 219.87,-645.13"/>
</g>
<!-- Node25 -->
<g id="node25" class="node">
<title>Node25</title>
<g id="a_node25"><a xlink:href="../../db/d6d/class_doc_internal.html" target="_top" xlink:title="Node representing an internal section of documentation.">
<polygon fill="white" stroke="#666666" points="342,-611 269,-611 269,-592 342,-592 342,-611"/>
<text text-anchor="middle" x="305.5" y="-599" font-family="Helvetica,sans-Serif" font-size="10.00">DocInternal</text>
</a>
</g>
</g>
<!-- Node1&#45;&gt;Node25 -->
<g id="edge24" class="edge">
<title>Node1&#45;&gt;Node25</title>
<path fill="none" stroke="#63b8ff" d="M185.7,-643.11C203.27,-635.76 225.7,-626.71 246,-619.5 254.31,-616.55 263.38,-613.62 271.85,-611.01"/>
<polygon fill="#63b8ff" stroke="#63b8ff" points="184.34,-639.88 176.48,-646.99 187.06,-646.34 184.34,-639.88"/>
</g>
<!-- Node26 -->
<g id="node26" class="node">
<title>Node26</title>
<g id="a_node26"><a xlink:href="../../da/da2/class_doc_internal_ref.html" target="_top" xlink:title="Node representing an internal reference to some item.">
<polygon fill="white" stroke="#666666" points="350,-574 261,-574 261,-555 350,-555 350,-574"/>
<text text-anchor="middle" x="305.5" y="-562" font-family="Helvetica,sans-Serif" font-size="10.00">DocInternalRef</text>
</a>
</g>
</g>
<!-- Node1&#45;&gt;Node26 -->
<g id="edge25" class="edge">
<title>Node1&#45;&gt;Node26</title>
<path fill="none" stroke="#63b8ff" d="M171.33,-639.52C188.67,-622.88 217.17,-597.85 246,-582.5 252.19,-579.2 259.08,-576.41 265.89,-574.08"/>
<polygon fill="#63b8ff" stroke="#63b8ff" points="168.45,-637.44 163.76,-646.93 173.35,-642.44 168.45,-637.44"/>
</g>
<!-- Node27 -->
<g id="node27" class="node">
<title>Node27</title>
<g id="a_node27"><a xlink:href="../../d5/dd3/class_doc_link.html" target="_top" xlink:title="Node representing a link to some item.">
<polygon fill="white" stroke="#666666" points="333.5,-537 277.5,-537 277.5,-518 333.5,-518 333.5,-537"/>
<text text-anchor="middle" x="305.5" y="-525" font-family="Helvetica,sans-Serif" font-size="10.00">DocLink</text>
</a>
</g>
</g>
<!-- Node1&#45;&gt;Node27 -->
<g id="edge26" class="edge">
<title>Node1&#45;&gt;Node27</title>
<path fill="none" stroke="#63b8ff" d="M164.88,-638.16C179.74,-613.52 209.36,-570.03 246,-545.5 255.36,-539.23 267,-535.07 277.42,-532.34"/>
<polygon fill="#63b8ff" stroke="#63b8ff" points="161.8,-636.48 159.76,-646.88 167.84,-640.02 161.8,-636.48"/>
</g>
<!-- Node28 -->
<g id="node28" class="node">
<title>Node28</title>
<g id="a_node28"><a xlink:href="../../d9/dd2/class_doc_par_block.html" target="_top" xlink:title="Node representing an block of paragraphs.">
<polygon fill="white" stroke="#666666" points="344,-500 267,-500 267,-481 344,-481 344,-500"/>
<text text-anchor="middle" x="305.5" y="-488" font-family="Helvetica,sans-Serif" font-size="10.00">DocParBlock</text>
</a>
</g>
</g>
<!-- Node1&#45;&gt;Node28 -->
<g id="edge27" class="edge">
<title>Node1&#45;&gt;Node28</title>
<path fill="none" stroke="#63b8ff" d="M161.3,-637.09C173.36,-605.46 201.52,-542.86 246,-508.5 252.14,-503.76 259.53,-500.26 266.97,-497.67"/>
<polygon fill="#63b8ff" stroke="#63b8ff" points="157.86,-636.3 157.7,-646.89 164.43,-638.71 157.86,-636.3"/>
</g>
<!-- Node29 -->
<g id="node29" class="node">
<title>Node29</title>
<g id="a_node29"><a xlink:href="../../d3/d01/class_doc_para.html" target="_top" xlink:title="Node representing a paragraph in the documentation tree.">
<polygon fill="white" stroke="#666666" points="333.5,-463 277.5,-463 277.5,-444 333.5,-444 333.5,-463"/>
<text text-anchor="middle" x="305.5" y="-451" font-family="Helvetica,sans-Serif" font-size="10.00">DocPara</text>
</a>
</g>
</g>
<!-- Node1&#45;&gt;Node29 -->
<g id="edge28" class="edge">
<title>Node1&#45;&gt;Node29</title>
<path fill="none" stroke="#63b8ff" d="M158.82,-636.56C168.06,-598.73 193.32,-516.32 246,-471.5 254.74,-464.06 266.52,-459.7 277.21,-457.14"/>
<polygon fill="#63b8ff" stroke="#63b8ff" points="155.3,-636.25 156.46,-646.78 162.12,-637.83 155.3,-636.25"/>
</g>
<!-- Node30 -->
<g id="node30" class="node">
<title>Node30</title>
<g id="a_node30"><a xlink:href="../../d1/d01/class_doc_param_sect.html" target="_top" xlink:title="Node representing a parameter section.">
<polygon fill="white" stroke="#666666" points="349,-426 262,-426 262,-407 349,-407 349,-426"/>
<text text-anchor="middle" x="305.5" y="-414" font-family="Helvetica,sans-Serif" font-size="10.00">DocParamSect</text>
</a>
</g>
</g>
<!-- Node1&#45;&gt;Node30 -->
<g id="edge29" class="edge">
<title>Node1&#45;&gt;Node30</title>
<path fill="none" stroke="#63b8ff" d="M156.95,-636.82C163.37,-593.74 184.63,-490.44 246,-434.5 250.55,-430.35 256.05,-427.15 261.82,-424.7"/>
<polygon fill="#63b8ff" stroke="#63b8ff" points="153.47,-636.47 155.57,-646.86 160.4,-637.43 153.47,-636.47"/>
</g>
<!-- Node31 -->
<g id="node31" class="node">
<title>Node31</title>
<g id="a_node31"><a xlink:href="../../d5/d68/class_doc_ref.html" target="_top" xlink:title="Node representing a reference to some item.">
<polygon fill="white" stroke="#666666" points="331.5,-389 279.5,-389 279.5,-370 331.5,-370 331.5,-389"/>
<text text-anchor="middle" x="305.5" y="-377" font-family="Helvetica,sans-Serif" font-size="10.00">DocRef</text>
</a>
</g>
</g>
<!-- Node1&#45;&gt;Node31 -->
<g id="edge30" class="edge">
<title>Node1&#45;&gt;Node31</title>
<path fill="none" stroke="#63b8ff" d="M155.62,-636.89C159.43,-588.93 175.92,-464.75 246,-397.5 254.97,-388.89 267.96,-384.39 279.42,-382.04"/>
<polygon fill="#63b8ff" stroke="#63b8ff" points="152.13,-636.67 154.93,-646.88 159.11,-637.15 152.13,-636.67"/>
</g>
<!-- Node32 -->
<g id="node32" class="node">
<title>Node32</title>
<g id="a_node32"><a xlink:href="../../d8/ddb/class_doc_root.html" target="_top" xlink:title="Root node of documentation tree.">
<polygon fill="white" stroke="#666666" points="334.5,-352 276.5,-352 276.5,-333 334.5,-333 334.5,-352"/>
<text text-anchor="middle" x="305.5" y="-340" font-family="Helvetica,sans-Serif" font-size="10.00">DocRoot</text>
</a>
</g>
</g>
<!-- Node1&#45;&gt;Node32 -->
<g id="edge31" class="edge">
<title>Node1&#45;&gt;Node32</title>
<path fill="none" stroke="#63b8ff" d="M154.62,-636.66C156.03,-583.95 167.27,-439.12 246,-360.5 254.05,-352.47 265.58,-348 276.29,-345.53"/>
<polygon fill="#63b8ff" stroke="#63b8ff" points="151.11,-636.91 154.44,-646.96 158.11,-637.03 151.11,-636.91"/>
</g>
<!-- Node33 -->
<g id="node33" class="node">
<title>Node33</title>
<g id="a_node33"><a xlink:href="../../de/d87/class_doc_sec_ref_item.html" target="_top" xlink:title="Node representing a reference to a section.">
<polygon fill="white" stroke="#666666" points="351.5,-315 259.5,-315 259.5,-296 351.5,-296 351.5,-315"/>
<text text-anchor="middle" x="305.5" y="-303" font-family="Helvetica,sans-Serif" font-size="10.00">DocSecRefItem</text>
</a>
</g>
</g>
<!-- Node1&#45;&gt;Node33 -->
<g id="edge32" class="edge">
<title>Node1&#45;&gt;Node33</title>
<path fill="none" stroke="#63b8ff" d="M153.8,-636.51C152.95,-579.36 158.51,-413.68 246,-323.5 249.77,-319.61 254.37,-316.56 259.3,-314.16"/>
<polygon fill="#63b8ff" stroke="#63b8ff" points="150.31,-636.8 154.05,-646.71 157.31,-636.63 150.31,-636.8"/>
</g>
<!-- Node34 -->
<g id="node34" class="node">
<title>Node34</title>
<g id="a_node34"><a xlink:href="../../d3/ddb/class_doc_sec_ref_list.html" target="_top" xlink:title="Node representing a list of section references.">
<polygon fill="white" stroke="#666666" points="348.5,-278 262.5,-278 262.5,-259 348.5,-259 348.5,-278"/>
<text text-anchor="middle" x="305.5" y="-266" font-family="Helvetica,sans-Serif" font-size="10.00">DocSecRefList</text>
</a>
</g>
</g>
<!-- Node1&#45;&gt;Node34 -->
<g id="edge33" class="edge">
<title>Node1&#45;&gt;Node34</title>
<path fill="none" stroke="#63b8ff" d="M156.8,-636.91C165.25,-568.09 196.69,-338.65 246,-286.5 250.53,-281.71 256.29,-278.19 262.43,-275.6"/>
<polygon fill="#63b8ff" stroke="#63b8ff" points="153.32,-636.51 155.6,-646.86 160.27,-637.35 153.32,-636.51"/>
</g>
<!-- Node35 -->
<g id="node35" class="node">
<title>Node35</title>
<g id="a_node35"><a xlink:href="../../d2/da3/class_doc_section.html" target="_top" xlink:title="Node representing a normal section.">
<polygon fill="white" stroke="#666666" points="341,-241 270,-241 270,-222 341,-222 341,-241"/>
<text text-anchor="middle" x="305.5" y="-229" font-family="Helvetica,sans-Serif" font-size="10.00">DocSection</text>
</a>
</g>
</g>
<!-- Node1&#45;&gt;Node35 -->
<g id="edge34" class="edge">
<title>Node1&#45;&gt;Node35</title>
<path fill="none" stroke="#63b8ff" d="M156.37,-636.41C163.65,-562.59 192.3,-307.52 246,-249.5 252.28,-242.72 261.05,-238.46 269.89,-235.81"/>
<polygon fill="#63b8ff" stroke="#63b8ff" points="152.86,-636.36 155.39,-646.65 159.83,-637.03 152.86,-636.36"/>
</g>
<!-- Node36 -->
<g id="node36" class="node">
<title>Node36</title>
<g id="a_node36"><a xlink:href="../../dc/de6/class_doc_simple_list.html" target="_top" xlink:title="Node representing a simple list.">
<polygon fill="white" stroke="#666666" points="348.5,-204 262.5,-204 262.5,-185 348.5,-185 348.5,-204"/>
<text text-anchor="middle" x="305.5" y="-192" font-family="Helvetica,sans-Serif" font-size="10.00">DocSimpleList</text>
</a>
</g>
</g>
<!-- Node1&#45;&gt;Node36 -->
<g id="edge35" class="edge">
<title>Node1&#45;&gt;Node36</title>
<path fill="none" stroke="#63b8ff" d="M155.95,-636.64C162,-558.93 187.72,-276.62 246,-212.5 250.43,-207.62 256.15,-204.06 262.27,-201.45"/>
<polygon fill="#63b8ff" stroke="#63b8ff" points="152.43,-636.7 155.17,-646.93 159.41,-637.22 152.43,-636.7"/>
</g>
<!-- Node37 -->
<g id="node37" class="node">
<title>Node37</title>
<g id="a_node37"><a xlink:href="../../de/d65/class_doc_simple_sect.html" target="_top" xlink:title="Node representing a simple section.">
<polygon fill="white" stroke="#666666" points="350.5,-167 260.5,-167 260.5,-148 350.5,-148 350.5,-167"/>
<text text-anchor="middle" x="305.5" y="-155" font-family="Helvetica,sans-Serif" font-size="10.00">DocSimpleSect</text>
</a>
</g>
</g>
<!-- Node1&#45;&gt;Node37 -->
<g id="edge36" class="edge">
<title>Node1&#45;&gt;Node37</title>
<path fill="none" stroke="#63b8ff" d="M155.61,-636.58C160.56,-554.78 183.18,-245.68 246,-175.5 249.97,-171.07 255,-167.71 260.44,-165.17"/>
<polygon fill="#63b8ff" stroke="#63b8ff" points="152.09,-636.76 155.01,-646.95 159.08,-637.17 152.09,-636.76"/>
</g>
<!-- Node38 -->
<g id="node38" class="node">
<title>Node38</title>
<g id="a_node38"><a xlink:href="../../d0/d87/class_doc_text.html" target="_top" xlink:title="Root node of a text fragment.">
<polygon fill="white" stroke="#666666" points="333.5,-130 277.5,-130 277.5,-111 333.5,-111 333.5,-130"/>
<text text-anchor="middle" x="305.5" y="-118" font-family="Helvetica,sans-Serif" font-size="10.00">DocText</text>
</a>
</g>
</g>
<!-- Node1&#45;&gt;Node38 -->
<g id="edge37" class="edge">
<title>Node1&#45;&gt;Node38</title>
<path fill="none" stroke="#63b8ff" d="M155.32,-636.42C159.23,-550.51 178.66,-214.73 246,-138.5 253.88,-129.58 266.06,-125.02 277.27,-122.71"/>
<polygon fill="#63b8ff" stroke="#63b8ff" points="151.81,-636.5 154.88,-646.64 158.81,-636.8 151.81,-636.5"/>
</g>
<!-- Node39 -->
<g id="node39" class="node">
<title>Node39</title>
<g id="a_node39"><a xlink:href="../../d3/d1c/class_doc_title.html" target="_top" xlink:title="Node representing a simple section title.">
<polygon fill="white" stroke="#666666" points="334,-93 277,-93 277,-74 334,-74 334,-93"/>
<text text-anchor="middle" x="305.5" y="-81" font-family="Helvetica,sans-Serif" font-size="10.00">DocTitle</text>
</a>
</g>
</g>
<!-- Node1&#45;&gt;Node39 -->
<g id="edge38" class="edge">
<title>Node1&#45;&gt;Node39</title>
<path fill="none" stroke="#63b8ff" d="M155.05,-636.72C157.93,-547.58 174,-183.95 246,-101.5 253.76,-92.62 265.79,-88.05 276.92,-85.73"/>
<polygon fill="#63b8ff" stroke="#63b8ff" points="151.55,-636.71 154.75,-646.81 158.55,-636.93 151.55,-636.71"/>
</g>
<!-- Node40 -->
<g id="node40" class="node">
<title>Node40</title>
<g id="a_node40"><a xlink:href="../../d0/d89/class_doc_vhdl_flow.html" target="_top" xlink:title="Node representing a VHDL flow chart.">
<polygon fill="white" stroke="#666666" points="345.5,-56 265.5,-56 265.5,-37 345.5,-37 345.5,-56"/>
<text text-anchor="middle" x="305.5" y="-44" font-family="Helvetica,sans-Serif" font-size="10.00">DocVhdlFlow</text>
</a>
</g>
</g>
<!-- Node1&#45;&gt;Node40 -->
<g id="edge39" class="edge">
<title>Node1&#45;&gt;Node40</title>
<path fill="none" stroke="#63b8ff" d="M154.83,-636.59C156.78,-543.63 169.45,-153.05 246,-64.5 251.07,-58.63 258.01,-54.65 265.33,-51.95"/>
<polygon fill="#63b8ff" stroke="#63b8ff" points="151.33,-636.56 154.64,-646.63 158.33,-636.7 151.33,-636.56"/>
</g>
<!-- Node41 -->
<g id="node41" class="node">
<title>Node41</title>
<g id="a_node41"><a xlink:href="../../d0/d90/class_doc_x_ref_item.html" target="_top" xlink:title="Node representing an item of a cross&#45;referenced list.">
<polygon fill="white" stroke="#666666" points="346,-19 265,-19 265,0 346,0 346,-19"/>
<text text-anchor="middle" x="305.5" y="-7" font-family="Helvetica,sans-Serif" font-size="10.00">DocXRefItem</text>
</a>
</g>
</g>
<!-- Node1&#45;&gt;Node41 -->
<g id="edge40" class="edge">
<title>Node1&#45;&gt;Node41</title>
<path fill="none" stroke="#63b8ff" d="M154.63,-636.9C155.65,-541.02 164.76,-122.32 246,-27.5 250.98,-21.69 257.78,-17.72 264.99,-15.02"/>
<polygon fill="#63b8ff" stroke="#63b8ff" points="151.13,-636.91 154.54,-646.94 158.13,-636.98 151.13,-636.91"/>
</g>
<!-- Node2 -->
<g id="node2" class="node">
<title>Node2</title>
<g id="a_node2"><a xlink:href="../../d9/d0e/class_doc_node.html" target="_top" xlink:title="Abstract node interface with type information.">
<polygon fill="white" stroke="#666666" points="61,-666 0,-666 0,-647 61,-647 61,-666"/>
<text text-anchor="middle" x="30.5" y="-654" font-family="Helvetica,sans-Serif" font-size="10.00">DocNode</text>
</a>
</g>
</g>
<!-- Node2&#45;&gt;Node1 -->
<g id="edge1" class="edge">
<title>Node2&#45;&gt;Node1</title>
<path fill="none" stroke="#63b8ff" d="M71.11,-656.5C79.31,-656.5 88.09,-656.5 96.74,-656.5"/>
<polygon fill="#63b8ff" stroke="#63b8ff" points="71.1,-653 61.1,-656.5 71.1,-660 71.1,-653"/>
</g>
<!-- Node6 -->
<g id="node6" class="node">
<title>Node6</title>
<g id="a_node6"><a xlink:href="../../d6/ddb/class_doc_dia_file.html" target="_top" xlink:title="Node representing a dia file.">
<polygon fill="white" stroke="#666666" points="471.5,-1277 402.5,-1277 402.5,-1258 471.5,-1258 471.5,-1277"/>
<text text-anchor="middle" x="437" y="-1265" font-family="Helvetica,sans-Serif" font-size="10.00">DocDiaFile</text>
</a>
</g>
</g>
<!-- Node5&#45;&gt;Node6 -->
<g id="edge5" class="edge">
<title>Node5&#45;&gt;Node6</title>
<path fill="none" stroke="#63b8ff" d="M349.64,-1242.83C366.79,-1247.73 386.23,-1253.28 402.31,-1257.88"/>
<polygon fill="#63b8ff" stroke="#63b8ff" points="350.43,-1239.41 339.85,-1240.03 348.5,-1246.14 350.43,-1239.41"/>
</g>
<!-- Node7 -->
<g id="node7" class="node">
<title>Node7</title>
<g id="a_node7"><a xlink:href="../../df/d37/class_doc_dot_file.html" target="_top" xlink:title="Node representing a dot file.">
<polygon fill="white" stroke="#666666" points="472,-1240 402,-1240 402,-1221 472,-1221 472,-1240"/>
<text text-anchor="middle" x="437" y="-1228" font-family="Helvetica,sans-Serif" font-size="10.00">DocDotFile</text>
</a>
</g>
</g>
<!-- Node5&#45;&gt;Node7 -->
<g id="edge6" class="edge">
<title>Node5&#45;&gt;Node7</title>
<path fill="none" stroke="#63b8ff" d="M375.24,-1230.5C384.5,-1230.5 393.65,-1230.5 401.93,-1230.5"/>
<polygon fill="#63b8ff" stroke="#63b8ff" points="375.19,-1227 365.19,-1230.5 375.19,-1234 375.19,-1227"/>
</g>
<!-- Node8 -->
<g id="node8" class="node">
<title>Node8</title>
<g id="a_node8"><a xlink:href="../../d3/d7d/class_doc_msc_file.html" target="_top" xlink:title="Node representing a msc file.">
<polygon fill="white" stroke="#666666" points="473,-1203 401,-1203 401,-1184 473,-1184 473,-1203"/>
<text text-anchor="middle" x="437" y="-1191" font-family="Helvetica,sans-Serif" font-size="10.00">DocMscFile</text>
</a>
</g>
</g>
<!-- Node5&#45;&gt;Node8 -->
<g id="edge7" class="edge">
<title>Node5&#45;&gt;Node8</title>
<path fill="none" stroke="#63b8ff" d="M349.64,-1218.17C366.79,-1213.27 386.23,-1207.72 402.31,-1203.12"/>
<polygon fill="#63b8ff" stroke="#63b8ff" points="348.5,-1214.86 339.85,-1220.97 350.43,-1221.59 348.5,-1214.86"/>
</g>
</g>
</svg>
        <g id="navigator" transform="translate(0 0)" fill="#404254">
                <rect fill="#f2f5e9" fill-opacity="0.5" stroke="#606060" stroke-width=".5" x="0" y="0" width="60" height="60"/>
                <use id="zoomplus" xlink:href="#zoomPlus" x="17" y="9" onmousedown="handleZoom(evt,'in')"/>
                <use id="zoomminus" xlink:href="#zoomMin" x="42" y="9" onmousedown="handleZoom(evt,'out')"/>
                <use id="reset" xlink:href="#resetDef" x="30" y="36" onmousedown="handleReset()"/>
                <g id="arrowUp" xlink:href="#dirArrow" transform="translate(30 24)" onmousedown="handlePan(0,-1)">
                  <use xlink:href="#rim" fill="#404040">
                        <set attributeName="fill" to="#808080" begin="arrowUp.mouseover" end="arrowUp.mouseout"/>
                  </use>
                  <path fill="none" stroke="white" stroke-width="1.5" d="M0,-3.0v7 M-2.5,-0.5L0,-3.0L2.5,-0.5"/>
                </g>
                <g id="arrowRight" xlink:href="#dirArrow" transform="rotate(90) translate(36 -43)" onmousedown="handlePan(1,0)">
                  <use xlink:href="#rim" fill="#404040">
                        <set attributeName="fill" to="#808080" begin="arrowRight.mouseover" end="arrowRight.mouseout"/>
                  </use>
                  <path fill="none" stroke="white" stroke-width="1.5" d="M0,-3.0v7 M-2.5,-0.5L0,-3.0L2.5,-0.5"/>
                </g>
                <g id="arrowDown" xlink:href="#dirArrow" transform="rotate(180) translate(-30 -48)" onmousedown="handlePan(0,1)">
                  <use xlink:href="#rim" fill="#404040">
                        <set attributeName="fill" to="#808080" begin="arrowDown.mouseover" end="arrowDown.mouseout"/>
                  </use>
                  <path fill="none" stroke="white" stroke-width="1.5" d="M0,-3.0v7 M-2.5,-0.5L0,-3.0L2.5,-0.5"/>
                </g>
                <g id="arrowLeft" xlink:href="#dirArrow" transform="rotate(270) translate(-36 17)" onmousedown="handlePan(-1,0)">
                  <use xlink:href="#rim" fill="#404040">
                        <set attributeName="fill" to="#808080" begin="arrowLeft.mouseover" end="arrowLeft.mouseout"/>
                  </use>
                  <path fill="none" stroke="white" stroke-width="1.5" d="M0,-3.0v7 M-2.5,-0.5L0,-3.0L2.5,-0.5"/>
                </g>
        </g>
        <svg viewBox="0 0 15 15" width="100%" height="30px" preserveAspectRatio="xMaxYMin meet">
         <g id="arrow_out" transform="scale(0.3 0.3)">
          <a xlink:href="class_doc_compound_node__inherit__graph_org.svg" target="_base">
           <rect id="button" ry="5" rx="5" y="6" x="6" height="38" width="38"
                fill="#f2f5e9" fill-opacity="0.5" stroke="#606060" stroke-width="1.0"/>
           <path id="arrow"
             d="M 11.500037,31.436501 C 11.940474,20.09759 22.043105,11.32322 32.158766,21.979434 L 37.068811,17.246167 C 37.068811,17.246167 37.088388,32 37.088388,32 L 22.160133,31.978069 C 22.160133,31.978069 26.997745,27.140456 26.997745,27.140456 C 18.528582,18.264221 13.291696,25.230495 11.500037,31.436501 z"
             style="fill:#404040;"/>
          </a>
         </g>
        </svg>
</svg>
