<?xml version="1.0" encoding="UTF-8" standalone="no"?>
<!DOCTYPE svg PUBLIC "-//W3C//DTD SVG 1.1//EN"
 "http://www.w3.org/Graphics/SVG/1.1/DTD/svg11.dtd">
<!-- Generated by graphviz version 2.40.1 (20161225.0304)
 -->
<!-- Title: src/pyscanner.h Pages: 1 -->
<svg width="198pt" height="82pt"
 viewBox="0.00 0.00 198.00 82.00" xmlns="http://www.w3.org/2000/svg" xmlns:xlink="http://www.w3.org/1999/xlink">
<g id="graph0" class="graph" transform="scale(1 1) rotate(0) translate(4 78)">
<title>src/pyscanner.h</title>
<!-- Node1 -->
<g id="node1" class="node">
<title>Node1</title>
<g id="a_node1"><a xlink:title=" ">
<polygon fill="#999999" stroke="#666666" points="139.5,-74 53.5,-74 53.5,-55 139.5,-55 139.5,-74"/>
<text text-anchor="middle" x="96.5" y="-62" font-family="Helvetica,sans-Serif" font-size="10.00" fill="#000000">src/pyscanner.h</text>
</a>
</g>
</g>
<!-- Node2 -->
<g id="node2" class="node">
<title>Node2</title>
<g id="a_node2"><a xlink:href="../../dc/d98/doxygen_8cpp.html" target="_top" xlink:title=" ">
<polygon fill="#ffffff" stroke="#666666" points="89,-19 0,-19 0,0 89,0 89,-19"/>
<text text-anchor="middle" x="44.5" y="-7" font-family="Helvetica,sans-Serif" font-size="10.00" fill="#000000">src/doxygen.cpp</text>
</a>
</g>
</g>
<!-- Node1&#45;&gt;Node2 -->
<g id="edge1" class="edge">
<title>Node1&#45;&gt;Node2</title>
<path fill="none" stroke="#63b8ff" d="M80.345,-47.413C71.6227,-38.1874 61.1659,-27.1274 53.8041,-19.3408"/>
<polygon fill="#63b8ff" stroke="#63b8ff" points="78.0289,-50.0578 87.4423,-54.9197 83.1154,-45.2487 78.0289,-50.0578"/>
</g>
<!-- Node3 -->
<g id="node3" class="node">
<title>Node3</title>
<g id="a_node3"><a xlink:href="../../de/d2b/pyscanner_8l.html" target="_top" xlink:title=" ">
<polygon fill="#ffffff" stroke="#666666" points="190,-19 107,-19 107,0 190,0 190,-19"/>
<text text-anchor="middle" x="148.5" y="-7" font-family="Helvetica,sans-Serif" font-size="10.00" fill="#000000">src/pyscanner.l</text>
</a>
</g>
</g>
<!-- Node1&#45;&gt;Node3 -->
<g id="edge2" class="edge">
<title>Node1&#45;&gt;Node3</title>
<path fill="none" stroke="#63b8ff" d="M112.655,-47.413C121.3773,-38.1874 131.8341,-27.1274 139.1959,-19.3408"/>
<polygon fill="#63b8ff" stroke="#63b8ff" points="109.8846,-45.2487 105.5577,-54.9197 114.9711,-50.0578 109.8846,-45.2487"/>
</g>
</g>
</svg>
