<?xml version="1.0" encoding="UTF-8" standalone="no"?>
<!DOCTYPE svg PUBLIC "-//W3C//DTD SVG 1.1//EN"
 "http://www.w3.org/Graphics/SVG/1.1/DTD/svg11.dtd">
<!-- Generated by graphviz version 2.40.1 (20161225.0304)
 -->
<!-- Title: src/dispatcher.h Pages: 1 -->
<svg width="338pt" height="82pt"
 viewBox="0.00 0.00 337.50 82.00" xmlns="http://www.w3.org/2000/svg" xmlns:xlink="http://www.w3.org/1999/xlink">
<g id="graph0" class="graph" transform="scale(1 1) rotate(0) translate(4 78)">
<title>src/dispatcher.h</title>
<!-- Node1 -->
<g id="node1" class="node">
<title>Node1</title>
<g id="a_node1"><a xlink:title=" ">
<polygon fill="#999999" stroke="#666666" points="198.5,-74 112.5,-74 112.5,-55 198.5,-55 198.5,-74"/>
<text text-anchor="middle" x="155.5" y="-62" font-family="Helvetica,sans-Serif" font-size="10.00" fill="#000000">src/dispatcher.h</text>
</a>
</g>
</g>
<!-- Node2 -->
<g id="node2" class="node">
<title>Node2</title>
<g id="a_node2"><a xlink:title=" ">
<polygon fill="#e0e0e0" stroke="#999999" points="49,-19 0,-19 0,0 49,0 49,-19"/>
<text text-anchor="middle" x="24.5" y="-7" font-family="Helvetica,sans-Serif" font-size="10.00" fill="#000000">cstddef</text>
</a>
</g>
</g>
<!-- Node1&#45;&gt;Node2 -->
<g id="edge1" class="edge">
<title>Node1&#45;&gt;Node2</title>
<path fill="none" stroke="#63b8ff" d="M132.6815,-54.9197C111.6778,-46.1014 80.3029,-32.9287 56.7423,-23.0369"/>
<polygon fill="#63b8ff" stroke="#63b8ff" points="58.0718,-19.7991 47.4965,-19.155 55.3619,-26.2533 58.0718,-19.7991"/>
</g>
<!-- Node3 -->
<g id="node3" class="node">
<title>Node3</title>
<g id="a_node3"><a xlink:title=" ">
<polygon fill="#e0e0e0" stroke="#999999" points="107.5,-19 67.5,-19 67.5,0 107.5,0 107.5,-19"/>
<text text-anchor="middle" x="87.5" y="-7" font-family="Helvetica,sans-Serif" font-size="10.00" fill="#000000">utility</text>
</a>
</g>
</g>
<!-- Node1&#45;&gt;Node3 -->
<g id="edge2" class="edge">
<title>Node1&#45;&gt;Node3</title>
<path fill="none" stroke="#63b8ff" d="M143.6553,-54.9197C133.7345,-46.8956 119.3562,-35.2661 107.6326,-25.7837"/>
<polygon fill="#63b8ff" stroke="#63b8ff" points="109.643,-22.9083 99.6668,-19.3408 105.2409,-28.3509 109.643,-22.9083"/>
</g>
<!-- Node4 -->
<g id="node4" class="node">
<title>Node4</title>
<g id="a_node4"><a xlink:title=" ">
<polygon fill="#e0e0e0" stroke="#999999" points="185,-19 126,-19 126,0 185,0 185,-19"/>
<text text-anchor="middle" x="155.5" y="-7" font-family="Helvetica,sans-Serif" font-size="10.00" fill="#000000">functional</text>
</a>
</g>
</g>
<!-- Node1&#45;&gt;Node4 -->
<g id="edge3" class="edge">
<title>Node1&#45;&gt;Node4</title>
<path fill="none" stroke="#63b8ff" d="M155.5,-54.9197C155.5,-47.9083 155.5,-38.1442 155.5,-29.4652"/>
<polygon fill="#63b8ff" stroke="#63b8ff" points="159.0001,-29.3408 155.5,-19.3408 152.0001,-29.3409 159.0001,-29.3408"/>
</g>
<!-- Node5 -->
<g id="node5" class="node">
<title>Node5</title>
<g id="a_node5"><a xlink:title=" ">
<polygon fill="#e0e0e0" stroke="#999999" points="249.5,-19 203.5,-19 203.5,0 249.5,0 249.5,-19"/>
<text text-anchor="middle" x="226.5" y="-7" font-family="Helvetica,sans-Serif" font-size="10.00" fill="#000000">variant</text>
</a>
</g>
</g>
<!-- Node1&#45;&gt;Node5 -->
<g id="edge4" class="edge">
<title>Node1&#45;&gt;Node5</title>
<path fill="none" stroke="#63b8ff" d="M167.8673,-54.9197C178.3263,-46.8177 193.5303,-35.0399 205.8349,-25.5082"/>
<polygon fill="#63b8ff" stroke="#63b8ff" points="208.0343,-28.2318 213.7964,-19.3408 203.7475,-22.6979 208.0343,-28.2318"/>
</g>
<!-- Node6 -->
<g id="node6" class="node">
<title>Node6</title>
<g id="a_node6"><a xlink:title=" ">
<polygon fill="#e0e0e0" stroke="#999999" points="329.5,-19 267.5,-19 267.5,0 329.5,0 329.5,-19"/>
<text text-anchor="middle" x="298.5" y="-7" font-family="Helvetica,sans-Serif" font-size="10.00" fill="#000000">type_traits</text>
</a>
</g>
</g>
<!-- Node1&#45;&gt;Node6 -->
<g id="edge5" class="edge">
<title>Node1&#45;&gt;Node6</title>
<path fill="none" stroke="#63b8ff" d="M180.4087,-54.9197C203.5402,-46.023 238.1951,-32.6942 263.988,-22.7739"/>
<polygon fill="#63b8ff" stroke="#63b8ff" points="265.3199,-26.0116 273.3969,-19.155 262.807,-19.4782 265.3199,-26.0116"/>
</g>
</g>
</svg>
