<?xml version="1.0" encoding="UTF-8" standalone="no"?>
<!DOCTYPE svg PUBLIC "-//W3C//DTD SVG 1.1//EN"
 "http://www.w3.org/Graphics/SVG/1.1/DTD/svg11.dtd">
<!-- Generated by graphviz version 2.40.1 (20161225.0304)
 -->
<!-- Title: TranslatorAdapterBase Pages: 1 -->
<svg width="170pt" height="149pt"
 viewBox="0.00 0.00 170.00 149.00" xmlns="http://www.w3.org/2000/svg" xmlns:xlink="http://www.w3.org/1999/xlink">
<g id="graph0" class="graph" transform="scale(1 1) rotate(0) translate(4 145)">
<title>TranslatorAdapterBase</title>
<!-- Node1 -->
<g id="node1" class="node">
<title>Node1</title>
<g id="a_node1"><a xlink:title="Base of the translator adapter tree.">
<polygon fill="#999999" stroke="#666666" points="116,-19 0,-19 0,0 116,0 116,-19"/>
<text text-anchor="middle" x="58" y="-7" font-family="Helvetica,sans-Serif" font-size="10.00" fill="#000000">TranslatorAdapterBase</text>
</a>
</g>
</g>
<!-- Node2 -->
<g id="node2" class="node">
<title>Node2</title>
<g id="a_node2"><a xlink:href="../../d8/dfb/class_translator.html" target="_top" xlink:title="Abstract base class for all translatable text fragments.">
<polygon fill="#ffffff" stroke="#666666" points="84,-141 24,-141 24,-122 84,-122 84,-141"/>
<text text-anchor="middle" x="54" y="-129" font-family="Helvetica,sans-Serif" font-size="10.00" fill="#000000">Translator</text>
</a>
</g>
</g>
<!-- Node2&#45;&gt;Node1 -->
<g id="edge1" class="edge">
<title>Node2&#45;&gt;Node1</title>
<path fill="none" stroke="#63b8ff" d="M54.6429,-111.8912C55.5138,-85.3282 57.0346,-38.9446 57.6876,-19.0287"/>
<polygon fill="#63b8ff" stroke="#63b8ff" points="51.1435,-111.8175 54.3139,-121.9269 58.1398,-112.047 51.1435,-111.8175"/>
</g>
<!-- Node3 -->
<g id="node3" class="node">
<title>Node3</title>
<g id="a_node3"><a xlink:href="../../d6/d78/class_translator_english.html" target="_top" xlink:title=" ">
<polygon fill="#ffffff" stroke="#666666" points="162,-85 70,-85 70,-66 162,-66 162,-85"/>
<text text-anchor="middle" x="116" y="-73" font-family="Helvetica,sans-Serif" font-size="10.00" fill="#000000">TranslatorEnglish</text>
</a>
</g>
</g>
<!-- Node2&#45;&gt;Node3 -->
<g id="edge3" class="edge">
<title>Node2&#45;&gt;Node3</title>
<path fill="none" stroke="#63b8ff" d="M72.4221,-114.8607C83.1481,-105.1727 96.2934,-93.2995 105.3242,-85.1427"/>
<polygon fill="#63b8ff" stroke="#63b8ff" points="69.8746,-112.4453 64.7996,-121.7455 74.5666,-117.64 69.8746,-112.4453"/>
</g>
<!-- Node3&#45;&gt;Node1 -->
<g id="edge2" class="edge">
<title>Node3&#45;&gt;Node1</title>
<path fill="none" stroke="#9a32cd" stroke-dasharray="5,2" d="M100.5413,-57.909C89.6669,-45.5347 75.5167,-29.4328 66.5932,-19.2785"/>
<polygon fill="#9a32cd" stroke="#9a32cd" points="98.2116,-60.5602 107.4419,-65.7615 103.4698,-55.9394 98.2116,-60.5602"/>
<text text-anchor="middle" x="107" y="-40" font-family="Helvetica,sans-Serif" font-size="10.00" fill="#000000"> english</text>
</g>
</g>
</svg>
