<?xml version="1.0" encoding="UTF-8" standalone="no"?>
<!DOCTYPE svg PUBLIC "-//W3C//DTD SVG 1.1//EN"
 "http://www.w3.org/Graphics/SVG/1.1/DTD/svg11.dtd">
<!-- Generated by graphviz version 2.40.1 (20161225.0304)
 -->
<!-- Title: ConstExpressionParser::Private Pages: 1 -->
<svg width="152pt" height="170pt"
 viewBox="0.00 0.00 152.00 170.00" xmlns="http://www.w3.org/2000/svg" xmlns:xlink="http://www.w3.org/1999/xlink">
<g id="graph0" class="graph" transform="scale(1 1) rotate(0) translate(4 166)">
<title>ConstExpressionParser::Private</title>
<!-- Node1 -->
<g id="node1" class="node">
<title>Node1</title>
<g id="a_node1"><a xlink:title=" ">
<polygon fill="#999999" stroke="#666666" points="120,-30 0,-30 0,0 120,0 120,-30"/>
<text text-anchor="start" x="8" y="-18" font-family="Helvetica,sans-Serif" font-size="10.00" fill="#000000">ConstExpressionParser</text>
<text text-anchor="middle" x="60" y="-7" font-family="Helvetica,sans-Serif" font-size="10.00" fill="#000000">::Private</text>
</a>
</g>
</g>
<!-- Node2 -->
<g id="node2" class="node">
<title>Node2</title>
<g id="a_node2"><a xlink:href="../../d3/d1e/structconstexp_y_y__state.html" target="_top" xlink:title=" ">
<polygon fill="#ffffff" stroke="#666666" points="108.5,-96 11.5,-96 11.5,-77 108.5,-77 108.5,-96"/>
<text text-anchor="middle" x="60" y="-84" font-family="Helvetica,sans-Serif" font-size="10.00" fill="#000000">constexpYY_state</text>
</a>
</g>
</g>
<!-- Node2&#45;&gt;Node1 -->
<g id="edge1" class="edge">
<title>Node2&#45;&gt;Node1</title>
<path fill="none" stroke="#9a32cd" stroke-dasharray="5,2" d="M60,-66.5057C60,-55.0142 60,-40.8078 60,-30.2276"/>
<polygon fill="#9a32cd" stroke="#9a32cd" points="56.5001,-66.8572 60,-76.8572 63.5001,-66.8572 56.5001,-66.8572"/>
<text text-anchor="middle" x="102" y="-51" font-family="Helvetica,sans-Serif" font-size="10.00" fill="#000000"> constexpYY_extra</text>
</g>
<!-- Node3 -->
<g id="node3" class="node">
<title>Node3</title>
<g id="a_node3"><a xlink:href="../../d2/d75/class_c_p_p_value.html" target="_top" xlink:title="A class representing a C&#45;preprocessor value.">
<polygon fill="#ffffff" stroke="#666666" points="91,-162 29,-162 29,-143 91,-143 91,-162"/>
<text text-anchor="middle" x="60" y="-150" font-family="Helvetica,sans-Serif" font-size="10.00" fill="#000000">CPPValue</text>
</a>
</g>
</g>
<!-- Node3&#45;&gt;Node2 -->
<g id="edge2" class="edge">
<title>Node3&#45;&gt;Node2</title>
<path fill="none" stroke="#9a32cd" stroke-dasharray="5,2" d="M60,-132.732C60,-120.6966 60,-105.847 60,-96.2785"/>
<polygon fill="#9a32cd" stroke="#9a32cd" points="56.5001,-132.7614 60,-142.7615 63.5001,-132.7615 56.5001,-132.7614"/>
<text text-anchor="middle" x="86" y="-117" font-family="Helvetica,sans-Serif" font-size="10.00" fill="#000000"> resultValue</text>
</g>
</g>
</svg>
