<?xml version="1.0" encoding="UTF-8" standalone="no"?>
<!DOCTYPE svg PUBLIC "-//W3C//DTD SVG 1.1//EN"
 "http://www.w3.org/Graphics/SVG/1.1/DTD/svg11.dtd">
<!-- Generated by graphviz version 2.40.1 (20161225.0304)
 -->
<!-- Title: src/docvisitor.h Pages: 1 -->
<!--zoomable 192 -->
<svg id="main" version="1.1" xmlns="http://www.w3.org/2000/svg" xmlns:xlink="http://www.w3.org/1999/xlink" xml:space="preserve" onload="init(evt)">
<style type="text/css"><![CDATA[
.edge:hover path { stroke: red; }
.edge:hover polygon { stroke: red; fill: red; }
]]></style>
<script type="text/javascript"><![CDATA[
var edges = document.getElementsByTagName('g');
if (edges && edges.length) {
  for (var i=0;i<edges.length;i++) {
    if (edges[i].id.substr(0,4)=='edge') {
      edges[i].setAttribute('class','edge');
    }
  }
}
]]></script>
        <defs>
                <circle id="rim" cx="0" cy="0" r="7"/>
                <circle id="rim2" cx="0" cy="0" r="3.5"/>
                <g id="zoomPlus">
                        <use xlink:href="#rim" fill="#404040">
                                <set attributeName="fill" to="#808080" begin="zoomplus.mouseover" end="zoomplus.mouseout"/>
                        </use>
                        <path d="M-4,0h8M0,-4v8" fill="none" stroke="white" stroke-width="1.5" pointer-events="none"/>
                </g>
                <g id="zoomMin">
                        <use xlink:href="#rim" fill="#404040">
                                <set attributeName="fill" to="#808080" begin="zoomminus.mouseover" end="zoomminus.mouseout"/>
                        </use>
                        <path d="M-4,0h8" fill="none" stroke="white" stroke-width="1.5" pointer-events="none"/>
                </g>
                <g id="dirArrow">
                        <path fill="none" stroke="white" stroke-width="1.5" d="M0,-3.0v7 M-2.5,-0.5L0,-3.0L2.5,-0.5"/>
                </g>
               <g id="resetDef">
                       <use xlink:href="#rim2" fill="#404040">
                               <set attributeName="fill" to="#808080" begin="reset.mouseover" end="reset.mouseout"/>
                       </use>
               </g>
        </defs>

<script type="text/javascript">
var viewWidth = 2036;
var viewHeight = 192;
var sectionId = 'dynsection-1';
</script>
<script xlink:href="../../svgpan.js"/>
<svg id="graph" class="graph">
<g id="viewport">
<title>src/docvisitor.h</title>
<!-- Node1 -->
<g id="node1" class="node">
<title>Node1</title>
<g id="a_node1"><a xlink:title=" ">
<polygon fill="#999999" stroke="#666666" points="1308.5,-184 1225.5,-184 1225.5,-165 1308.5,-165 1308.5,-184"/>
<text text-anchor="middle" x="1267" y="-172" font-family="Helvetica,sans-Serif" font-size="10.00" fill="#000000">src/docvisitor.h</text>
</a>
</g>
</g>
<!-- Node2 -->
<g id="node2" class="node">
<title>Node2</title>
<g id="a_node2"><a xlink:href="../../de/dcd/docbookvisitor_8h.html" target="_top" xlink:title=" ">
<polygon fill="#ffffff" stroke="#666666" points="361,-74 257,-74 257,-55 361,-55 361,-74"/>
<text text-anchor="middle" x="309" y="-62" font-family="Helvetica,sans-Serif" font-size="10.00" fill="#000000">src/docbookvisitor.h</text>
</a>
</g>
</g>
<!-- Node1&#45;&gt;Node2 -->
<g id="edge1" class="edge">
<title>Node1&#45;&gt;Node2</title>
<path fill="none" stroke="#63b8ff" d="M1215.3642,-169.7699C1131.2191,-161.9592 959.3103,-145.5743 814,-129 648.466,-110.119 452.9062,-84.0727 361.2874,-71.65"/>
<polygon fill="#63b8ff" stroke="#63b8ff" points="1215.1465,-173.2646 1225.4267,-170.7019 1215.7921,-166.2945 1215.1465,-173.2646"/>
</g>
<!-- Node5 -->
<g id="node5" class="node">
<title>Node5</title>
<g id="a_node5"><a xlink:href="../../de/d2b/docnode_8h.html" target="_top" xlink:title=" ">
<polygon fill="#ffffff" stroke="#666666" points="1110,-129 1032,-129 1032,-110 1110,-110 1110,-129"/>
<text text-anchor="middle" x="1071" y="-117" font-family="Helvetica,sans-Serif" font-size="10.00" fill="#000000">src/docnode.h</text>
</a>
</g>
</g>
<!-- Node1&#45;&gt;Node5 -->
<g id="edge4" class="edge">
<title>Node1&#45;&gt;Node5</title>
<path fill="none" stroke="#63b8ff" d="M1223.1909,-162.2066C1187.506,-152.193 1137.8386,-138.2557 1105.0776,-129.0626"/>
<polygon fill="#63b8ff" stroke="#63b8ff" points="1222.2857,-165.5877 1232.8594,-164.9197 1224.1769,-158.8481 1222.2857,-165.5877"/>
</g>
<!-- Node10 -->
<g id="node10" class="node">
<title>Node10</title>
<g id="a_node10"><a xlink:href="../../d0/d71/htmldocvisitor_8h.html" target="_top" xlink:title=" ">
<polygon fill="#ffffff" stroke="#666666" points="595,-74 493,-74 493,-55 595,-55 595,-74"/>
<text text-anchor="middle" x="544" y="-62" font-family="Helvetica,sans-Serif" font-size="10.00" fill="#000000">src/htmldocvisitor.h</text>
</a>
</g>
</g>
<!-- Node1&#45;&gt;Node10 -->
<g id="edge38" class="edge">
<title>Node1&#45;&gt;Node10</title>
<path fill="none" stroke="#63b8ff" d="M1215.3912,-167.8359C1150.2206,-159.3218 1034.6781,-143.8979 936,-129 813.5849,-110.5184 670.1142,-86.2435 595.2995,-73.3858"/>
<polygon fill="#63b8ff" stroke="#63b8ff" points="1215.0393,-171.3196 1225.4079,-169.1419 1215.9444,-164.3784 1215.0393,-171.3196"/>
</g>
<!-- Node15 -->
<g id="node15" class="node">
<title>Node15</title>
<g id="a_node15"><a xlink:href="../../d8/d99/latexdocvisitor_8h.html" target="_top" xlink:title=" ">
<polygon fill="#ffffff" stroke="#666666" points="801,-74 697,-74 697,-55 801,-55 801,-74"/>
<text text-anchor="middle" x="749" y="-62" font-family="Helvetica,sans-Serif" font-size="10.00" fill="#000000">src/latexdocvisitor.h</text>
</a>
</g>
</g>
<!-- Node1&#45;&gt;Node15 -->
<g id="edge39" class="edge">
<title>Node1&#45;&gt;Node15</title>
<path fill="none" stroke="#63b8ff" d="M1215.3039,-165.5845C1165.8192,-156.8793 1089.1324,-142.9419 1023,-129 938.3611,-111.1566 839.7782,-87.1535 786.9943,-74.0384"/>
<polygon fill="#63b8ff" stroke="#63b8ff" points="1214.9827,-169.0815 1225.4369,-167.3608 1216.1914,-162.1866 1214.9827,-169.0815"/>
</g>
<!-- Node19 -->
<g id="node19" class="node">
<title>Node19</title>
<g id="a_node19"><a xlink:href="../../d6/d6e/mandocvisitor_8h.html" target="_top" xlink:title=" ">
<polygon fill="#ffffff" stroke="#666666" points="1566,-74 1464,-74 1464,-55 1566,-55 1566,-74"/>
<text text-anchor="middle" x="1515" y="-62" font-family="Helvetica,sans-Serif" font-size="10.00" fill="#000000">src/mandocvisitor.h</text>
</a>
</g>
</g>
<!-- Node1&#45;&gt;Node19 -->
<g id="edge40" class="edge">
<title>Node1&#45;&gt;Node19</title>
<path fill="none" stroke="#63b8ff" d="M1279.5403,-156.6741C1290.8239,-141.9669 1308.7137,-121.6835 1329,-110 1351.686,-96.9344 1416.8611,-82.7232 1463.6568,-73.7216"/>
<polygon fill="#63b8ff" stroke="#63b8ff" points="1276.5291,-154.86 1273.406,-164.984 1282.1609,-159.0173 1276.5291,-154.86"/>
</g>
<!-- Node24 -->
<g id="node24" class="node">
<title>Node24</title>
<g id="a_node24"><a xlink:href="../../d1/da7/rtfdocvisitor_8h.html" target="_top" xlink:title=" ">
<polygon fill="#ffffff" stroke="#666666" points="1686,-74 1594,-74 1594,-55 1686,-55 1686,-74"/>
<text text-anchor="middle" x="1640" y="-62" font-family="Helvetica,sans-Serif" font-size="10.00" fill="#000000">src/rtfdocvisitor.h</text>
</a>
</g>
</g>
<!-- Node1&#45;&gt;Node24 -->
<g id="edge41" class="edge">
<title>Node1&#45;&gt;Node24</title>
<path fill="none" stroke="#63b8ff" d="M1286.4221,-158.5073C1305.6664,-143.5358 1336.5888,-121.7604 1367,-110 1377.4896,-105.9435 1518.6924,-83.4782 1593.7772,-71.7044"/>
<polygon fill="#63b8ff" stroke="#63b8ff" points="1284.0965,-155.8849 1278.4457,-164.847 1288.452,-161.3648 1284.0965,-155.8849"/>
</g>
<!-- Node27 -->
<g id="node27" class="node">
<title>Node27</title>
<g id="a_node27"><a xlink:href="../../dd/d66/textdocvisitor_8h.html" target="_top" xlink:title=" ">
<polygon fill="#ffffff" stroke="#666666" points="1446,-74 1346,-74 1346,-55 1446,-55 1446,-74"/>
<text text-anchor="middle" x="1396" y="-62" font-family="Helvetica,sans-Serif" font-size="10.00" fill="#000000">src/textdocvisitor.h</text>
</a>
</g>
</g>
<!-- Node1&#45;&gt;Node27 -->
<g id="edge42" class="edge">
<title>Node1&#45;&gt;Node27</title>
<path fill="none" stroke="#63b8ff" d="M1270.0905,-154.8518C1273.2135,-140.8158 1279.3207,-122.3114 1291,-110 1307.9548,-92.1275 1333.1197,-80.8938 1354.5632,-74.0608"/>
<polygon fill="#63b8ff" stroke="#63b8ff" points="1266.6006,-154.4696 1268.1762,-164.9466 1273.4781,-155.7738 1266.6006,-154.4696"/>
</g>
<!-- Node29 -->
<g id="node29" class="node">
<title>Node29</title>
<g id="a_node29"><a xlink:href="../../df/d2b/xmldocvisitor_8h.html" target="_top" xlink:title=" ">
<polygon fill="#ffffff" stroke="#666666" points="1861.5,-74 1762.5,-74 1762.5,-55 1861.5,-55 1861.5,-74"/>
<text text-anchor="middle" x="1812" y="-62" font-family="Helvetica,sans-Serif" font-size="10.00" fill="#000000">src/xmldocvisitor.h</text>
</a>
</g>
</g>
<!-- Node1&#45;&gt;Node29 -->
<g id="edge43" class="edge">
<title>Node1&#45;&gt;Node29</title>
<path fill="none" stroke="#63b8ff" d="M1296.7611,-160.6922C1315.7801,-151.7949 1340.9282,-139.8942 1363,-129 1379.5766,-120.8181 1382.2977,-115.325 1400,-110 1433.9824,-99.7779 1660.1945,-78.2957 1762.2326,-68.974"/>
<polygon fill="#63b8ff" stroke="#63b8ff" points="1295.2722,-157.5246 1287.6906,-164.9253 1298.2325,-163.8679 1295.2722,-157.5246"/>
</g>
<!-- Node32 -->
<g id="node32" class="node">
<title>Node32</title>
<g id="a_node32"><a xlink:href="../../da/d39/docvisitor_8cpp.html" target="_top" xlink:title=" ">
<polygon fill="#ffffff" stroke="#666666" points="1503,-129 1409,-129 1409,-110 1503,-110 1503,-129"/>
<text text-anchor="middle" x="1456" y="-117" font-family="Helvetica,sans-Serif" font-size="10.00" fill="#000000">src/docvisitor.cpp</text>
</a>
</g>
</g>
<!-- Node1&#45;&gt;Node32 -->
<g id="edge37" class="edge">
<title>Node1&#45;&gt;Node32</title>
<path fill="none" stroke="#63b8ff" d="M1309.6864,-162.078C1344.064,-152.074 1391.6835,-138.2165 1423.1394,-129.0626"/>
<polygon fill="#63b8ff" stroke="#63b8ff" points="1308.545,-158.7649 1299.9213,-164.9197 1310.501,-165.4861 1308.545,-158.7649"/>
</g>
<!-- Node3 -->
<g id="node3" class="node">
<title>Node3</title>
<g id="a_node3"><a xlink:href="../../d8/d29/docbookgen_8cpp.html" target="_top" xlink:title=" ">
<polygon fill="#ffffff" stroke="#666666" points="104,-19 0,-19 0,0 104,0 104,-19"/>
<text text-anchor="middle" x="52" y="-7" font-family="Helvetica,sans-Serif" font-size="10.00" fill="#000000">src/docbookgen.cpp</text>
</a>
</g>
</g>
<!-- Node2&#45;&gt;Node3 -->
<g id="edge2" class="edge">
<title>Node2&#45;&gt;Node3</title>
<path fill="none" stroke="#63b8ff" d="M254.5361,-52.8443C207.6021,-42.8001 140.6681,-28.4757 96.7895,-19.0853"/>
<polygon fill="#63b8ff" stroke="#63b8ff" points="254.0164,-56.3123 264.5274,-54.9825 255.4813,-49.4672 254.0164,-56.3123"/>
</g>
<!-- Node4 -->
<g id="node4" class="node">
<title>Node4</title>
<g id="a_node4"><a xlink:href="../../dc/d05/docbookvisitor_8cpp.html" target="_top" xlink:title=" ">
<polygon fill="#ffffff" stroke="#666666" points="237.5,-19 122.5,-19 122.5,0 237.5,0 237.5,-19"/>
<text text-anchor="middle" x="180" y="-7" font-family="Helvetica,sans-Serif" font-size="10.00" fill="#000000">src/docbookvisitor.cpp</text>
</a>
</g>
</g>
<!-- Node2&#45;&gt;Node4 -->
<g id="edge3" class="edge">
<title>Node2&#45;&gt;Node4</title>
<path fill="none" stroke="#63b8ff" d="M277.1369,-50.915C254.0143,-41.0565 223.2938,-27.9586 202.6454,-19.155"/>
<polygon fill="#63b8ff" stroke="#63b8ff" points="275.9584,-54.2173 286.5299,-54.9197 278.7038,-47.7781 275.9584,-54.2173"/>
</g>
<!-- Node5&#45;&gt;Node2 -->
<g id="edge5" class="edge">
<title>Node5&#45;&gt;Node2</title>
<path fill="none" stroke="#63b8ff" d="M1021.7182,-115.9429C884.8906,-106.0669 501.2,-78.3727 361.075,-68.2587"/>
<polygon fill="#63b8ff" stroke="#63b8ff" points="1021.6748,-119.4488 1031.9008,-116.6779 1022.1788,-112.467 1021.6748,-119.4488"/>
</g>
<!-- Node6 -->
<g id="node6" class="node">
<title>Node6</title>
<g id="a_node6"><a xlink:href="../../d0/d2b/docnode_8cpp.html" target="_top" xlink:title=" ">
<polygon fill="#ffffff" stroke="#666666" points="1103.5,-19 1014.5,-19 1014.5,0 1103.5,0 1103.5,-19"/>
<text text-anchor="middle" x="1059" y="-7" font-family="Helvetica,sans-Serif" font-size="10.00" fill="#000000">src/docnode.cpp</text>
</a>
</g>
</g>
<!-- Node5&#45;&gt;Node6 -->
<g id="edge6" class="edge">
<title>Node5&#45;&gt;Node6</title>
<path fill="none" stroke="#63b8ff" d="M1042.7993,-104.4857C1031.6745,-96.9481 1020.1093,-86.6938 1014,-74 1003.8746,-52.9617 1027.3543,-31.2505 1044.0626,-19.1523"/>
<polygon fill="#63b8ff" stroke="#63b8ff" points="1041.1811,-107.602 1051.5141,-109.943 1044.8963,-101.6692 1041.1811,-107.602"/>
</g>
<!-- Node7 -->
<g id="node7" class="node">
<title>Node7</title>
<g id="a_node7"><a xlink:href="../../df/dc9/docparser__p_8h.html" target="_top" xlink:title="Private header shared between docparser.cpp and docnode.cpp.">
<polygon fill="#ffffff" stroke="#666666" points="1118.5,-74 1023.5,-74 1023.5,-55 1118.5,-55 1118.5,-74"/>
<text text-anchor="middle" x="1071" y="-62" font-family="Helvetica,sans-Serif" font-size="10.00" fill="#000000">src/docparser_p.h</text>
</a>
</g>
</g>
<!-- Node5&#45;&gt;Node7 -->
<g id="edge7" class="edge">
<title>Node5&#45;&gt;Node7</title>
<path fill="none" stroke="#63b8ff" d="M1071,-99.8553C1071,-91.2036 1071,-81.4195 1071,-74.3408"/>
<polygon fill="#63b8ff" stroke="#63b8ff" points="1067.5001,-99.9197 1071,-109.9197 1074.5001,-99.9198 1067.5001,-99.9197"/>
</g>
<!-- Node9 -->
<g id="node9" class="node">
<title>Node9</title>
<g id="a_node9"><a xlink:href="../../d9/d92/dotfilepatcher_8cpp.html" target="_top" xlink:title=" ">
<polygon fill="#ffffff" stroke="#666666" points="967,-74 857,-74 857,-55 967,-55 967,-74"/>
<text text-anchor="middle" x="912" y="-62" font-family="Helvetica,sans-Serif" font-size="10.00" fill="#000000">src/dotfilepatcher.cpp</text>
</a>
</g>
</g>
<!-- Node5&#45;&gt;Node9 -->
<g id="edge10" class="edge">
<title>Node5&#45;&gt;Node9</title>
<path fill="none" stroke="#63b8ff" d="M1033.59,-106.5594C1004.7969,-96.5996 965.6533,-83.0593 939.6446,-74.0626"/>
<polygon fill="#63b8ff" stroke="#63b8ff" points="1032.7095,-109.9583 1043.3043,-109.9197 1034.9979,-103.3429 1032.7095,-109.9583"/>
</g>
<!-- Node5&#45;&gt;Node10 -->
<g id="edge11" class="edge">
<title>Node5&#45;&gt;Node10</title>
<path fill="none" stroke="#63b8ff" d="M1021.7018,-114.355C921.8578,-103.9349 696.6371,-80.4299 595.2129,-69.8448"/>
<polygon fill="#63b8ff" stroke="#63b8ff" points="1021.5106,-117.854 1031.8199,-115.411 1022.2372,-110.8918 1021.5106,-117.854"/>
</g>
<!-- Node14 -->
<g id="node14" class="node">
<title>Node14</title>
<g id="a_node14"><a xlink:href="../../d8/d6e/htmlgen_8cpp.html" target="_top" xlink:title=" ">
<polygon fill="#ffffff" stroke="#666666" points="572,-19 486,-19 486,0 572,0 572,-19"/>
<text text-anchor="middle" x="529" y="-7" font-family="Helvetica,sans-Serif" font-size="10.00" fill="#000000">src/htmlgen.cpp</text>
</a>
</g>
</g>
<!-- Node5&#45;&gt;Node14 -->
<g id="edge16" class="edge">
<title>Node5&#45;&gt;Node14</title>
<path fill="none" stroke="#63b8ff" d="M1021.3975,-117.8263C947.6302,-114.3956 805.1282,-104.1338 688,-74 635.4939,-60.4917 577.2812,-33.5901 548.0142,-19.1664"/>
<polygon fill="#63b8ff" stroke="#63b8ff" points="1021.6266,-121.3397 1031.7713,-118.2844 1021.9355,-114.3465 1021.6266,-121.3397"/>
</g>
<!-- Node5&#45;&gt;Node15 -->
<g id="edge17" class="edge">
<title>Node5&#45;&gt;Node15</title>
<path fill="none" stroke="#63b8ff" d="M1021.9141,-111.1158C962.2985,-100.933 862.1685,-83.83 801.1873,-73.414"/>
<polygon fill="#63b8ff" stroke="#63b8ff" points="1021.3918,-114.5772 1031.8384,-112.8109 1022.5705,-107.6771 1021.3918,-114.5772"/>
</g>
<!-- Node17 -->
<g id="node17" class="node">
<title>Node17</title>
<g id="a_node17"><a xlink:href="../../d4/d42/latexgen_8cpp.html" target="_top" xlink:title=" ">
<polygon fill="#ffffff" stroke="#666666" points="913.5,-19 824.5,-19 824.5,0 913.5,0 913.5,-19"/>
<text text-anchor="middle" x="869" y="-7" font-family="Helvetica,sans-Serif" font-size="10.00" fill="#000000">src/latexgen.cpp</text>
</a>
</g>
</g>
<!-- Node5&#45;&gt;Node17 -->
<g id="edge22" class="edge">
<title>Node5&#45;&gt;Node17</title>
<path fill="none" stroke="#63b8ff" d="M1021.3524,-116.4946C962.4359,-111.7711 869.4541,-100.2735 848,-74 834.7417,-57.7634 850.0734,-32.9227 860.6469,-19.2927"/>
<polygon fill="#63b8ff" stroke="#63b8ff" points="1021.3363,-120.0034 1031.5735,-117.2739 1021.8685,-113.0237 1021.3363,-120.0034"/>
</g>
<!-- Node5&#45;&gt;Node19 -->
<g id="edge23" class="edge">
<title>Node5&#45;&gt;Node19</title>
<path fill="none" stroke="#63b8ff" d="M1120.3256,-114.2793C1193.4902,-106.3941 1335.0488,-90.5962 1455,-74 1457.9251,-73.5953 1460.9282,-73.1655 1463.9571,-72.7208"/>
<polygon fill="#63b8ff" stroke="#63b8ff" points="1119.6067,-110.8363 1110.0378,-115.3844 1120.3544,-117.7962 1119.6067,-110.8363"/>
</g>
<!-- Node22 -->
<g id="node22" class="node">
<title>Node22</title>
<g id="a_node22"><a xlink:href="../../db/d33/msc_8cpp.html" target="_top" xlink:title=" ">
<polygon fill="#ffffff" stroke="#666666" points="1207.5,-74 1136.5,-74 1136.5,-55 1207.5,-55 1207.5,-74"/>
<text text-anchor="middle" x="1172" y="-62" font-family="Helvetica,sans-Serif" font-size="10.00" fill="#000000">src/msc.cpp</text>
</a>
</g>
</g>
<!-- Node5&#45;&gt;Node22 -->
<g id="edge26" class="edge">
<title>Node5&#45;&gt;Node22</title>
<path fill="none" stroke="#63b8ff" d="M1097.4144,-105.1159C1115.3337,-95.3579 1138.5363,-82.7228 1154.2699,-74.155"/>
<polygon fill="#63b8ff" stroke="#63b8ff" points="1095.7013,-102.0635 1088.5929,-109.9197 1099.049,-108.2111 1095.7013,-102.0635"/>
</g>
<!-- Node23 -->
<g id="node23" class="node">
<title>Node23</title>
<g id="a_node23"><a xlink:href="../../de/dd0/perlmodgen_8cpp.html" target="_top" xlink:title=" ">
<polygon fill="#ffffff" stroke="#666666" points="1328,-74 1226,-74 1226,-55 1328,-55 1328,-74"/>
<text text-anchor="middle" x="1277" y="-62" font-family="Helvetica,sans-Serif" font-size="10.00" fill="#000000">src/perlmodgen.cpp</text>
</a>
</g>
</g>
<!-- Node5&#45;&gt;Node23 -->
<g id="edge27" class="edge">
<title>Node5&#45;&gt;Node23</title>
<path fill="none" stroke="#63b8ff" d="M1116.5642,-107.3348C1154.1033,-97.3122 1206.6041,-83.295 1241.1837,-74.0626"/>
<polygon fill="#63b8ff" stroke="#63b8ff" points="1115.6412,-103.9586 1106.8825,-109.9197 1117.4469,-110.7217 1115.6412,-103.9586"/>
</g>
<!-- Node5&#45;&gt;Node24 -->
<g id="edge28" class="edge">
<title>Node5&#45;&gt;Node24</title>
<path fill="none" stroke="#63b8ff" d="M1120.5141,-115.9399C1210.9449,-109.2355 1408.826,-93.6293 1575,-74 1581.116,-73.2776 1587.5439,-72.4372 1593.8801,-71.5608"/>
<polygon fill="#63b8ff" stroke="#63b8ff" points="1120.0021,-112.4681 1110.2866,-116.6941 1120.5169,-119.4491 1120.0021,-112.4681"/>
</g>
<!-- Node5&#45;&gt;Node27 -->
<g id="edge31" class="edge">
<title>Node5&#45;&gt;Node27</title>
<path fill="none" stroke="#63b8ff" d="M1120.339,-111.1503C1181.2769,-100.8377 1284.3789,-83.3897 1345.7387,-73.0058"/>
<polygon fill="#63b8ff" stroke="#63b8ff" points="1119.4784,-107.7461 1110.2026,-112.8657 1120.6464,-114.648 1119.4784,-107.7461"/>
</g>
<!-- Node5&#45;&gt;Node29 -->
<g id="edge34" class="edge">
<title>Node5&#45;&gt;Node29</title>
<path fill="none" stroke="#63b8ff" d="M1120.086,-116.0588C1225.4135,-108.6444 1480.926,-90.4955 1695,-74 1717.1478,-72.2934 1741.6463,-70.3178 1762.4785,-68.6117"/>
<polygon fill="#63b8ff" stroke="#63b8ff" points="1119.8002,-112.5702 1110.0705,-116.7633 1120.2915,-119.5529 1119.8002,-112.5702"/>
</g>
<!-- Node7&#45;&gt;Node6 -->
<g id="edge8" class="edge">
<title>Node7&#45;&gt;Node6</title>
<path fill="none" stroke="#63b8ff" d="M1066.7767,-45.1433C1064.8737,-36.4213 1062.7087,-26.4982 1061.1471,-19.3408"/>
<polygon fill="#63b8ff" stroke="#63b8ff" points="1063.3585,-45.8957 1068.9098,-54.9197 1070.1976,-44.4035 1063.3585,-45.8957"/>
</g>
<!-- Node8 -->
<g id="node8" class="node">
<title>Node8</title>
<g id="a_node8"><a xlink:href="../../da/d17/docparser_8cpp.html" target="_top" xlink:title=" ">
<polygon fill="#ffffff" stroke="#666666" points="1216.5,-19 1121.5,-19 1121.5,0 1216.5,0 1216.5,-19"/>
<text text-anchor="middle" x="1169" y="-7" font-family="Helvetica,sans-Serif" font-size="10.00" fill="#000000">src/docparser.cpp</text>
</a>
</g>
</g>
<!-- Node7&#45;&gt;Node8 -->
<g id="edge9" class="edge">
<title>Node7&#45;&gt;Node8</title>
<path fill="none" stroke="#63b8ff" d="M1097.1096,-49.8467C1114.4293,-40.1264 1136.6704,-27.6442 1151.7965,-19.155"/>
<polygon fill="#63b8ff" stroke="#63b8ff" points="1095.0778,-46.9733 1088.0703,-54.9197 1098.5038,-53.0777 1095.0778,-46.9733"/>
</g>
<!-- Node11 -->
<g id="node11" class="node">
<title>Node11</title>
<g id="a_node11"><a xlink:href="../../db/d12/context_8cpp.html" target="_top" xlink:title=" ">
<polygon fill="#ffffff" stroke="#666666" points="674,-19 590,-19 590,0 674,0 674,-19"/>
<text text-anchor="middle" x="632" y="-7" font-family="Helvetica,sans-Serif" font-size="10.00" fill="#000000">src/context.cpp</text>
</a>
</g>
</g>
<!-- Node10&#45;&gt;Node11 -->
<g id="edge12" class="edge">
<title>Node10&#45;&gt;Node11</title>
<path fill="none" stroke="#63b8ff" d="M567.8785,-49.5759C583.367,-39.8956 603.0951,-27.5656 616.552,-19.155"/>
<polygon fill="#63b8ff" stroke="#63b8ff" points="565.9534,-46.6517 559.3284,-54.9197 569.6634,-52.5877 565.9534,-46.6517"/>
</g>
<!-- Node12 -->
<g id="node12" class="node">
<title>Node12</title>
<g id="a_node12"><a xlink:href="../../db/d41/ftvhelp_8cpp.html" target="_top" xlink:title=" ">
<polygon fill="#ffffff" stroke="#666666" points="336.5,-19 255.5,-19 255.5,0 336.5,0 336.5,-19"/>
<text text-anchor="middle" x="296" y="-7" font-family="Helvetica,sans-Serif" font-size="10.00" fill="#000000">src/ftvhelp.cpp</text>
</a>
</g>
</g>
<!-- Node10&#45;&gt;Node12 -->
<g id="edge13" class="edge">
<title>Node10&#45;&gt;Node12</title>
<path fill="none" stroke="#63b8ff" d="M491.2603,-52.8037C445.0861,-42.5634 378.9555,-27.8974 336.7454,-18.5363"/>
<polygon fill="#63b8ff" stroke="#63b8ff" points="490.5642,-56.2343 501.0848,-54.9825 492.0798,-49.4003 490.5642,-56.2343"/>
</g>
<!-- Node13 -->
<g id="node13" class="node">
<title>Node13</title>
<g id="a_node13"><a xlink:href="../../da/db0/htmldocvisitor_8cpp.html" target="_top" xlink:title=" ">
<polygon fill="#ffffff" stroke="#666666" points="467.5,-19 354.5,-19 354.5,0 467.5,0 467.5,-19"/>
<text text-anchor="middle" x="411" y="-7" font-family="Helvetica,sans-Serif" font-size="10.00" fill="#000000">src/htmldocvisitor.cpp</text>
</a>
</g>
</g>
<!-- Node10&#45;&gt;Node13 -->
<g id="edge14" class="edge">
<title>Node10&#45;&gt;Node13</title>
<path fill="none" stroke="#63b8ff" d="M511.4677,-51.0468C487.5924,-41.1735 455.7313,-27.9979 434.3476,-19.155"/>
<polygon fill="#63b8ff" stroke="#63b8ff" points="510.2546,-54.3326 520.8332,-54.9197 512.9297,-47.8638 510.2546,-54.3326"/>
</g>
<!-- Node10&#45;&gt;Node14 -->
<g id="edge15" class="edge">
<title>Node10&#45;&gt;Node14</title>
<path fill="none" stroke="#63b8ff" d="M538.7209,-45.1433C536.3422,-36.4213 533.6359,-26.4982 531.6839,-19.3408"/>
<polygon fill="#63b8ff" stroke="#63b8ff" points="535.3793,-46.193 541.3872,-54.9197 542.1326,-44.3512 535.3793,-46.193"/>
</g>
<!-- Node15&#45;&gt;Node11 -->
<g id="edge18" class="edge">
<title>Node15&#45;&gt;Node11</title>
<path fill="none" stroke="#63b8ff" d="M719.5376,-50.6501C698.6325,-40.823 671.0992,-27.88 652.5389,-19.155"/>
<polygon fill="#63b8ff" stroke="#63b8ff" points="718.0812,-53.8329 728.6202,-54.9197 721.0592,-47.4979 718.0812,-53.8329"/>
</g>
<!-- Node16 -->
<g id="node16" class="node">
<title>Node16</title>
<g id="a_node16"><a xlink:href="../../d1/d4e/latexdocvisitor_8cpp.html" target="_top" xlink:title=" ">
<polygon fill="#ffffff" stroke="#666666" points="806.5,-19 691.5,-19 691.5,0 806.5,0 806.5,-19"/>
<text text-anchor="middle" x="749" y="-7" font-family="Helvetica,sans-Serif" font-size="10.00" fill="#000000">src/latexdocvisitor.cpp</text>
</a>
</g>
</g>
<!-- Node15&#45;&gt;Node16 -->
<g id="edge19" class="edge">
<title>Node15&#45;&gt;Node16</title>
<path fill="none" stroke="#63b8ff" d="M749,-44.8553C749,-36.2036 749,-26.4195 749,-19.3408"/>
<polygon fill="#63b8ff" stroke="#63b8ff" points="745.5001,-44.9197 749,-54.9197 752.5001,-44.9198 745.5001,-44.9197"/>
</g>
<!-- Node15&#45;&gt;Node17 -->
<g id="edge20" class="edge">
<title>Node15&#45;&gt;Node17</title>
<path fill="none" stroke="#63b8ff" d="M779.2179,-50.6501C800.659,-40.823 828.8982,-27.88 847.9345,-19.155"/>
<polygon fill="#63b8ff" stroke="#63b8ff" points="777.5348,-47.5714 769.9024,-54.9197 780.4514,-53.9349 777.5348,-47.5714"/>
</g>
<!-- Node18 -->
<g id="node18" class="node">
<title>Node18</title>
<g id="a_node18"><a xlink:href="../../df/d2d/util_8cpp.html" target="_top" xlink:title=" ">
<polygon fill="#ffffff" stroke="#666666" points="996.5,-19 931.5,-19 931.5,0 996.5,0 996.5,-19"/>
<text text-anchor="middle" x="964" y="-7" font-family="Helvetica,sans-Serif" font-size="10.00" fill="#000000">src/util.cpp</text>
</a>
</g>
</g>
<!-- Node15&#45;&gt;Node18 -->
<g id="edge21" class="edge">
<title>Node15&#45;&gt;Node18</title>
<path fill="none" stroke="#63b8ff" d="M796.1929,-52.4274C837.0885,-41.9657 895.1978,-27.1006 931.1999,-17.8907"/>
<polygon fill="#63b8ff" stroke="#63b8ff" points="795.2707,-49.0505 786.4501,-54.9197 797.0056,-55.8321 795.2707,-49.0505"/>
</g>
<!-- Node20 -->
<g id="node20" class="node">
<title>Node20</title>
<g id="a_node20"><a xlink:href="../../d8/dde/mandocvisitor_8cpp.html" target="_top" xlink:title=" ">
<polygon fill="#ffffff" stroke="#666666" points="1476.5,-19 1363.5,-19 1363.5,0 1476.5,0 1476.5,-19"/>
<text text-anchor="middle" x="1420" y="-7" font-family="Helvetica,sans-Serif" font-size="10.00" fill="#000000">src/mandocvisitor.cpp</text>
</a>
</g>
</g>
<!-- Node19&#45;&gt;Node20 -->
<g id="edge24" class="edge">
<title>Node19&#45;&gt;Node20</title>
<path fill="none" stroke="#63b8ff" d="M1489.6897,-49.8467C1472.9002,-40.1264 1451.3399,-27.6442 1436.6769,-19.155"/>
<polygon fill="#63b8ff" stroke="#63b8ff" points="1488.0443,-52.9383 1498.4523,-54.9197 1491.5516,-46.8803 1488.0443,-52.9383"/>
</g>
<!-- Node21 -->
<g id="node21" class="node">
<title>Node21</title>
<g id="a_node21"><a xlink:href="../../d7/de7/mangen_8cpp.html" target="_top" xlink:title=" ">
<polygon fill="#ffffff" stroke="#666666" points="1581,-19 1495,-19 1495,0 1581,0 1581,-19"/>
<text text-anchor="middle" x="1538" y="-7" font-family="Helvetica,sans-Serif" font-size="10.00" fill="#000000">src/mangen.cpp</text>
</a>
</g>
</g>
<!-- Node19&#45;&gt;Node21 -->
<g id="edge25" class="edge">
<title>Node19&#45;&gt;Node21</title>
<path fill="none" stroke="#63b8ff" d="M1522.9746,-45.4304C1526.6506,-36.6398 1530.8588,-26.5768 1533.8847,-19.3408"/>
<polygon fill="#63b8ff" stroke="#63b8ff" points="1519.6354,-44.3436 1519.0063,-54.9197 1526.0934,-47.0443 1519.6354,-44.3436"/>
</g>
<!-- Node25 -->
<g id="node25" class="node">
<title>Node25</title>
<g id="a_node25"><a xlink:href="../../de/d9a/rtfdocvisitor_8cpp.html" target="_top" xlink:title=" ">
<polygon fill="#ffffff" stroke="#666666" points="1702.5,-19 1599.5,-19 1599.5,0 1702.5,0 1702.5,-19"/>
<text text-anchor="middle" x="1651" y="-7" font-family="Helvetica,sans-Serif" font-size="10.00" fill="#000000">src/rtfdocvisitor.cpp</text>
</a>
</g>
</g>
<!-- Node24&#45;&gt;Node25 -->
<g id="edge29" class="edge">
<title>Node24&#45;&gt;Node25</title>
<path fill="none" stroke="#63b8ff" d="M1643.9289,-44.8553C1645.6593,-36.2036 1647.6161,-26.4195 1649.0318,-19.3408"/>
<polygon fill="#63b8ff" stroke="#63b8ff" points="1640.4453,-44.4275 1641.9161,-54.9197 1647.3093,-45.8004 1640.4453,-44.4275"/>
</g>
<!-- Node26 -->
<g id="node26" class="node">
<title>Node26</title>
<g id="a_node26"><a xlink:href="../../d0/d9c/rtfgen_8cpp.html" target="_top" xlink:title=" ">
<polygon fill="#ffffff" stroke="#666666" points="1797.5,-19 1720.5,-19 1720.5,0 1797.5,0 1797.5,-19"/>
<text text-anchor="middle" x="1759" y="-7" font-family="Helvetica,sans-Serif" font-size="10.00" fill="#000000">src/rtfgen.cpp</text>
</a>
</g>
</g>
<!-- Node24&#45;&gt;Node26 -->
<g id="edge30" class="edge">
<title>Node24&#45;&gt;Node26</title>
<path fill="none" stroke="#63b8ff" d="M1669.9661,-50.6501C1691.2285,-40.823 1719.2324,-27.88 1738.11,-19.155"/>
<polygon fill="#63b8ff" stroke="#63b8ff" points="1668.3372,-47.5472 1660.7282,-54.9197 1671.274,-53.9013 1668.3372,-47.5472"/>
</g>
<!-- Node27&#45;&gt;Node18 -->
<g id="edge33" class="edge">
<title>Node27&#45;&gt;Node18</title>
<path fill="none" stroke="#63b8ff" d="M1335.4836,-54.8647C1188.1196,-35.5657 1148.0478,-43.2387 1005,-19 1002.2625,-18.5361 999.4343,-18.0007 996.6027,-17.4251"/>
<polygon fill="#63b8ff" stroke="#63b8ff" points="1335.4399,-58.3896 1345.8141,-56.2385 1336.3627,-51.4507 1335.4399,-58.3896"/>
</g>
<!-- Node28 -->
<g id="node28" class="node">
<title>Node28</title>
<g id="a_node28"><a xlink:href="../../d3/da6/textdocvisitor_8cpp.html" target="_top" xlink:title=" ">
<polygon fill="#ffffff" stroke="#666666" points="1345,-19 1235,-19 1235,0 1345,0 1345,-19"/>
<text text-anchor="middle" x="1290" y="-7" font-family="Helvetica,sans-Serif" font-size="10.00" fill="#000000">src/textdocvisitor.cpp</text>
</a>
</g>
</g>
<!-- Node27&#45;&gt;Node28 -->
<g id="edge32" class="edge">
<title>Node27&#45;&gt;Node28</title>
<path fill="none" stroke="#63b8ff" d="M1368.5365,-50.25C1349.6952,-40.4739 1325.196,-27.7621 1308.6079,-19.155"/>
<polygon fill="#63b8ff" stroke="#63b8ff" points="1367.0479,-53.4208 1377.5362,-54.9197 1370.2719,-47.2074 1367.0479,-53.4208"/>
</g>
<!-- Node30 -->
<g id="node30" class="node">
<title>Node30</title>
<g id="a_node30"><a xlink:href="../../dd/db6/xmldocvisitor_8cpp.html" target="_top" xlink:title=" ">
<polygon fill="#ffffff" stroke="#666666" points="1926,-19 1816,-19 1816,0 1926,0 1926,-19"/>
<text text-anchor="middle" x="1871" y="-7" font-family="Helvetica,sans-Serif" font-size="10.00" fill="#000000">src/xmldocvisitor.cpp</text>
</a>
</g>
</g>
<!-- Node29&#45;&gt;Node30 -->
<g id="edge35" class="edge">
<title>Node29&#45;&gt;Node30</title>
<path fill="none" stroke="#63b8ff" d="M1829.7323,-47.9699C1839.7454,-38.6356 1851.9219,-27.2847 1860.4435,-19.3408"/>
<polygon fill="#63b8ff" stroke="#63b8ff" points="1827.2051,-45.5408 1822.277,-54.9197 1831.9783,-50.6611 1827.2051,-45.5408"/>
</g>
<!-- Node31 -->
<g id="node31" class="node">
<title>Node31</title>
<g id="a_node31"><a xlink:href="../../d0/dc3/xmlgen_8cpp.html" target="_top" xlink:title=" ">
<polygon fill="#ffffff" stroke="#666666" points="2027.5,-19 1944.5,-19 1944.5,0 2027.5,0 2027.5,-19"/>
<text text-anchor="middle" x="1986" y="-7" font-family="Helvetica,sans-Serif" font-size="10.00" fill="#000000">src/xmlgen.cpp</text>
</a>
</g>
</g>
<!-- Node29&#45;&gt;Node31 -->
<g id="edge36" class="edge">
<title>Node29&#45;&gt;Node31</title>
<path fill="none" stroke="#63b8ff" d="M1852.1163,-51.8196C1883.6993,-41.8364 1927.0365,-28.1379 1955.7474,-19.0626"/>
<polygon fill="#63b8ff" stroke="#63b8ff" points="1850.7886,-48.5685 1842.3085,-54.9197 1852.8984,-55.243 1850.7886,-48.5685"/>
</g>
</g>
</svg>
        <g id="navigator" transform="translate(0 0)" fill="#404254">
                <rect fill="#f2f5e9" fill-opacity="0.5" stroke="#606060" stroke-width=".5" x="0" y="0" width="60" height="60"/>
                <use id="zoomplus" xlink:href="#zoomPlus" x="17" y="9" onmousedown="handleZoom(evt,'in')"/>
                <use id="zoomminus" xlink:href="#zoomMin" x="42" y="9" onmousedown="handleZoom(evt,'out')"/>
                <use id="reset" xlink:href="#resetDef" x="30" y="36" onmousedown="handleReset()"/>
                <g id="arrowUp" xlink:href="#dirArrow" transform="translate(30 24)" onmousedown="handlePan(0,-1)">
                  <use xlink:href="#rim" fill="#404040">
                        <set attributeName="fill" to="#808080" begin="arrowUp.mouseover" end="arrowUp.mouseout"/>
                  </use>
                  <path fill="none" stroke="white" stroke-width="1.5" d="M0,-3.0v7 M-2.5,-0.5L0,-3.0L2.5,-0.5"/>
                </g>
                <g id="arrowRight" xlink:href="#dirArrow" transform="rotate(90) translate(36 -43)" onmousedown="handlePan(1,0)">
                  <use xlink:href="#rim" fill="#404040">
                        <set attributeName="fill" to="#808080" begin="arrowRight.mouseover" end="arrowRight.mouseout"/>
                  </use>
                  <path fill="none" stroke="white" stroke-width="1.5" d="M0,-3.0v7 M-2.5,-0.5L0,-3.0L2.5,-0.5"/>
                </g>
                <g id="arrowDown" xlink:href="#dirArrow" transform="rotate(180) translate(-30 -48)" onmousedown="handlePan(0,1)">
                  <use xlink:href="#rim" fill="#404040">
                        <set attributeName="fill" to="#808080" begin="arrowDown.mouseover" end="arrowDown.mouseout"/>
                  </use>
                  <path fill="none" stroke="white" stroke-width="1.5" d="M0,-3.0v7 M-2.5,-0.5L0,-3.0L2.5,-0.5"/>
                </g>
                <g id="arrowLeft" xlink:href="#dirArrow" transform="rotate(270) translate(-36 17)" onmousedown="handlePan(-1,0)">
                  <use xlink:href="#rim" fill="#404040">
                        <set attributeName="fill" to="#808080" begin="arrowLeft.mouseover" end="arrowLeft.mouseout"/>
                  </use>
                  <path fill="none" stroke="white" stroke-width="1.5" d="M0,-3.0v7 M-2.5,-0.5L0,-3.0L2.5,-0.5"/>
                </g>
        </g>
        <svg viewBox="0 0 15 15" width="100%" height="30px" preserveAspectRatio="xMaxYMin meet">
         <g id="arrow_out" transform="scale(0.3 0.3)">
          <a xlink:href="docvisitor_8h__dep__incl_org.svg" target="_base">
           <rect id="button" ry="5" rx="5" y="6" x="6" height="38" width="38"
                fill="#f2f5e9" fill-opacity="0.5" stroke="#606060" stroke-width="1.0"/>
           <path id="arrow"
             d="M 11.500037,31.436501 C 11.940474,20.09759 22.043105,11.32322 32.158766,21.979434 L 37.068811,17.246167 C 37.068811,17.246167 37.088388,32 37.088388,32 L 22.160133,31.978069 C 22.160133,31.978069 26.997745,27.140456 26.997745,27.140456 C 18.528582,18.264221 13.291696,25.230495 11.500037,31.436501 z"
             style="fill:#404040;"/>
          </a>
         </g>
        </svg>
</svg>
