<?xml version="1.0" encoding="UTF-8" standalone="no"?>
<!DOCTYPE svg PUBLIC "-//W3C//DTD SVG 1.1//EN"
 "http://www.w3.org/Graphics/SVG/1.1/DTD/svg11.dtd">
<!-- Generated by graphviz version 2.43.0 (0)
 -->
<!-- Title: src/docvisitor.h Pages: 1 -->
<svg width="2189pt" height="192pt"
 viewBox="0.00 0.00 2189.00 192.00" xmlns="http://www.w3.org/2000/svg" xmlns:xlink="http://www.w3.org/1999/xlink">
<g id="graph0" class="graph" transform="scale(1 1) rotate(0) translate(4 188)">
<title>src/docvisitor.h</title>
<!-- Node1 -->
<g id="node1" class="node">
<title>Node1</title>
<g id="a_node1"><a xlink:title=" ">
<polygon fill="#999999" stroke="#666666" points="1405.5,-184 1315.5,-184 1315.5,-165 1405.5,-165 1405.5,-184"/>
<text text-anchor="middle" x="1360.5" y="-172" font-family="Helvetica,sans-Serif" font-size="10.00">src/docvisitor.h</text>
</a>
</g>
</g>
<!-- Node2 -->
<g id="node2" class="node">
<title>Node2</title>
<g id="a_node2"><a xlink:href="../../de/dcd/docbookvisitor_8h.html" target="_top" xlink:title=" ">
<polygon fill="white" stroke="#666666" points="390.5,-74 276.5,-74 276.5,-55 390.5,-55 390.5,-74"/>
<text text-anchor="middle" x="333.5" y="-62" font-family="Helvetica,sans-Serif" font-size="10.00">src/docbookvisitor.h</text>
</a>
</g>
</g>
<!-- Node1&#45;&gt;Node2 -->
<g id="edge1" class="edge">
<title>Node1&#45;&gt;Node2</title>
<path fill="none" stroke="#63b8ff" d="M1304.95,-168.82C1215.07,-161.16 1032.18,-145.15 877.5,-129 699.71,-110.44 489.66,-84.89 390.62,-72.63"/>
<polygon fill="#63b8ff" stroke="#63b8ff" points="1304.92,-172.33 1315.18,-169.7 1305.52,-165.36 1304.92,-172.33"/>
</g>
<!-- Node5 -->
<g id="node5" class="node">
<title>Node5</title>
<g id="a_node5"><a xlink:href="../../de/d2b/docnode_8h.html" target="_top" xlink:title=" ">
<polygon fill="white" stroke="#666666" points="1193.5,-129 1109.5,-129 1109.5,-110 1193.5,-110 1193.5,-129"/>
<text text-anchor="middle" x="1151.5" y="-117" font-family="Helvetica,sans-Serif" font-size="10.00">src/docnode.h</text>
</a>
</g>
</g>
<!-- Node1&#45;&gt;Node5 -->
<g id="edge4" class="edge">
<title>Node1&#45;&gt;Node5</title>
<path fill="none" stroke="#63b8ff" d="M1317.13,-162.5C1277.99,-152.58 1221.22,-138.18 1185.34,-129.08"/>
<polygon fill="#63b8ff" stroke="#63b8ff" points="1316.37,-165.92 1326.92,-164.98 1318.09,-159.13 1316.37,-165.92"/>
</g>
<!-- Node10 -->
<g id="node10" class="node">
<title>Node10</title>
<g id="a_node10"><a xlink:href="../../d0/d71/htmldocvisitor_8h.html" target="_top" xlink:title=" ">
<polygon fill="white" stroke="#666666" points="644,-74 531,-74 531,-55 644,-55 644,-74"/>
<text text-anchor="middle" x="587.5" y="-62" font-family="Helvetica,sans-Serif" font-size="10.00">src/htmldocvisitor.h</text>
</a>
</g>
</g>
<!-- Node1&#45;&gt;Node10 -->
<g id="edge38" class="edge">
<title>Node1&#45;&gt;Node10</title>
<path fill="none" stroke="#63b8ff" d="M1305.19,-166.92C1235.82,-158.58 1113.25,-143.52 1008.5,-129 876.34,-110.68 721.25,-86.63 641.27,-74.03"/>
<polygon fill="#63b8ff" stroke="#63b8ff" points="1305.1,-170.44 1315.45,-168.15 1305.93,-163.49 1305.1,-170.44"/>
</g>
<!-- Node15 -->
<g id="node15" class="node">
<title>Node15</title>
<g id="a_node15"><a xlink:href="../../d8/d99/latexdocvisitor_8h.html" target="_top" xlink:title=" ">
<polygon fill="white" stroke="#666666" points="866,-74 751,-74 751,-55 866,-55 866,-74"/>
<text text-anchor="middle" x="808.5" y="-62" font-family="Helvetica,sans-Serif" font-size="10.00">src/latexdocvisitor.h</text>
</a>
</g>
</g>
<!-- Node1&#45;&gt;Node15 -->
<g id="edge39" class="edge">
<title>Node1&#45;&gt;Node15</title>
<path fill="none" stroke="#63b8ff" d="M1305.15,-164.76C1252.42,-156.26 1170.88,-142.67 1100.5,-129 1008.32,-111.1 900.52,-86.77 845.27,-74.05"/>
<polygon fill="#63b8ff" stroke="#63b8ff" points="1304.87,-168.26 1315.3,-166.39 1305.98,-161.35 1304.87,-168.26"/>
</g>
<!-- Node19 -->
<g id="node19" class="node">
<title>Node19</title>
<g id="a_node19"><a xlink:href="../../d6/d6e/mandocvisitor_8h.html" target="_top" xlink:title=" ">
<polygon fill="white" stroke="#666666" points="1684.5,-74 1572.5,-74 1572.5,-55 1684.5,-55 1684.5,-74"/>
<text text-anchor="middle" x="1628.5" y="-62" font-family="Helvetica,sans-Serif" font-size="10.00">src/mandocvisitor.h</text>
</a>
</g>
</g>
<!-- Node1&#45;&gt;Node19 -->
<g id="edge40" class="edge">
<title>Node1&#45;&gt;Node19</title>
<path fill="none" stroke="#63b8ff" d="M1372.29,-156.77C1383.51,-142.14 1401.73,-121.48 1422.5,-110 1447.8,-96.01 1520.34,-82.34 1572.17,-73.92"/>
<polygon fill="#63b8ff" stroke="#63b8ff" points="1369.36,-154.84 1366.25,-164.96 1375,-158.99 1369.36,-154.84"/>
</g>
<!-- Node24 -->
<g id="node24" class="node">
<title>Node24</title>
<g id="a_node24"><a xlink:href="../../d1/da7/rtfdocvisitor_8h.html" target="_top" xlink:title=" ">
<polygon fill="white" stroke="#666666" points="1815,-74 1714,-74 1714,-55 1815,-55 1815,-74"/>
<text text-anchor="middle" x="1764.5" y="-62" font-family="Helvetica,sans-Serif" font-size="10.00">src/rtfdocvisitor.h</text>
</a>
</g>
</g>
<!-- Node1&#45;&gt;Node24 -->
<g id="edge41" class="edge">
<title>Node1&#45;&gt;Node24</title>
<path fill="none" stroke="#63b8ff" d="M1381.12,-158.95C1405.28,-142.17 1444.09,-116.09 1460.5,-110 1483.75,-101.37 1633.7,-81.79 1713.96,-71.73"/>
<polygon fill="#63b8ff" stroke="#63b8ff" points="1378.85,-156.27 1372.65,-164.87 1382.86,-162.01 1378.85,-156.27"/>
</g>
<!-- Node27 -->
<g id="node27" class="node">
<title>Node27</title>
<g id="a_node27"><a xlink:href="../../dd/d66/textdocvisitor_8h.html" target="_top" xlink:title=" ">
<polygon fill="white" stroke="#666666" points="1554.5,-74 1444.5,-74 1444.5,-55 1554.5,-55 1554.5,-74"/>
<text text-anchor="middle" x="1499.5" y="-62" font-family="Helvetica,sans-Serif" font-size="10.00">src/textdocvisitor.h</text>
</a>
</g>
</g>
<!-- Node1&#45;&gt;Node27 -->
<g id="edge42" class="edge">
<title>Node1&#45;&gt;Node27</title>
<path fill="none" stroke="#63b8ff" d="M1363.32,-154.93C1366.35,-140.94 1372.45,-122.15 1384.5,-110 1402.9,-91.46 1429.88,-80.48 1453.08,-74.07"/>
<polygon fill="#63b8ff" stroke="#63b8ff" points="1359.86,-154.44 1361.5,-164.91 1366.74,-155.7 1359.86,-154.44"/>
</g>
<!-- Node29 -->
<g id="node29" class="node">
<title>Node29</title>
<g id="a_node29"><a xlink:href="../../df/d2b/xmldocvisitor_8h.html" target="_top" xlink:title=" ">
<polygon fill="white" stroke="#666666" points="2004,-74 1895,-74 1895,-55 2004,-55 2004,-74"/>
<text text-anchor="middle" x="1949.5" y="-62" font-family="Helvetica,sans-Serif" font-size="10.00">src/xmldocvisitor.h</text>
</a>
</g>
</g>
<!-- Node1&#45;&gt;Node29 -->
<g id="edge43" class="edge">
<title>Node1&#45;&gt;Node29</title>
<path fill="none" stroke="#63b8ff" d="M1389.91,-160.8C1409.51,-152.18 1435.75,-140.32 1458.5,-129 1474.35,-121.11 1476.58,-115.19 1493.5,-110 1531.05,-98.49 1782.07,-78.26 1894.83,-69.61"/>
<polygon fill="#63b8ff" stroke="#63b8ff" points="1388.35,-157.66 1380.59,-164.88 1391.16,-164.07 1388.35,-157.66"/>
</g>
<!-- Node32 -->
<g id="node32" class="node">
<title>Node32</title>
<g id="a_node32"><a xlink:href="../../da/d39/docvisitor_8cpp.html" target="_top" xlink:title=" ">
<polygon fill="white" stroke="#666666" points="1604,-129 1503,-129 1503,-110 1604,-110 1604,-129"/>
<text text-anchor="middle" x="1553.5" y="-117" font-family="Helvetica,sans-Serif" font-size="10.00">src/docvisitor.cpp</text>
</a>
</g>
</g>
<!-- Node1&#45;&gt;Node32 -->
<g id="edge37" class="edge">
<title>Node1&#45;&gt;Node32</title>
<path fill="none" stroke="#63b8ff" d="M1401.25,-162.31C1437.36,-152.39 1489.33,-138.12 1522.25,-129.08"/>
<polygon fill="#63b8ff" stroke="#63b8ff" points="1400.22,-158.96 1391.51,-164.98 1402.08,-165.71 1400.22,-158.96"/>
</g>
<!-- Node3 -->
<g id="node3" class="node">
<title>Node3</title>
<g id="a_node3"><a xlink:href="../../d8/d29/docbookgen_8cpp.html" target="_top" xlink:title=" ">
<polygon fill="white" stroke="#666666" points="113,-19 0,-19 0,0 113,0 113,-19"/>
<text text-anchor="middle" x="56.5" y="-7" font-family="Helvetica,sans-Serif" font-size="10.00">src/docbookgen.cpp</text>
</a>
</g>
</g>
<!-- Node2&#45;&gt;Node3 -->
<g id="edge2" class="edge">
<title>Node2&#45;&gt;Node3</title>
<path fill="none" stroke="#63b8ff" d="M278.96,-53.07C227.03,-43.13 149.81,-28.35 101.35,-19.08"/>
<polygon fill="#63b8ff" stroke="#63b8ff" points="278.52,-56.54 289,-54.98 279.83,-49.67 278.52,-56.54"/>
</g>
<!-- Node4 -->
<g id="node4" class="node">
<title>Node4</title>
<g id="a_node4"><a xlink:href="../../dc/d05/docbookvisitor_8cpp.html" target="_top" xlink:title=" ">
<polygon fill="white" stroke="#666666" points="256,-19 131,-19 131,0 256,0 256,-19"/>
<text text-anchor="middle" x="193.5" y="-7" font-family="Helvetica,sans-Serif" font-size="10.00">src/docbookvisitor.cpp</text>
</a>
</g>
</g>
<!-- Node2&#45;&gt;Node4 -->
<g id="edge3" class="edge">
<title>Node2&#45;&gt;Node4</title>
<path fill="none" stroke="#63b8ff" d="M301.59,-51.42C275.62,-41.59 239.58,-27.95 216.4,-19.17"/>
<polygon fill="#63b8ff" stroke="#63b8ff" points="300.42,-54.72 311.01,-54.98 302.89,-48.17 300.42,-54.72"/>
</g>
<!-- Node5&#45;&gt;Node2 -->
<g id="edge5" class="edge">
<title>Node5&#45;&gt;Node2</title>
<path fill="none" stroke="#63b8ff" d="M1099.2,-115.11C953.28,-105.66 542.45,-79.04 390.74,-69.21"/>
<polygon fill="#63b8ff" stroke="#63b8ff" points="1099.04,-118.61 1109.24,-115.76 1099.49,-111.62 1099.04,-118.61"/>
</g>
<!-- Node6 -->
<g id="node6" class="node">
<title>Node6</title>
<g id="a_node6"><a xlink:href="../../d0/d2b/docnode_8cpp.html" target="_top" xlink:title=" ">
<polygon fill="white" stroke="#666666" points="1189,-19 1094,-19 1094,0 1189,0 1189,-19"/>
<text text-anchor="middle" x="1141.5" y="-7" font-family="Helvetica,sans-Serif" font-size="10.00">src/docnode.cpp</text>
</a>
</g>
</g>
<!-- Node5&#45;&gt;Node6 -->
<g id="edge6" class="edge">
<title>Node5&#45;&gt;Node6</title>
<path fill="none" stroke="#63b8ff" d="M1122.97,-104.95C1110.94,-97.61 1098.19,-87.29 1091.5,-74 1080.52,-52.19 1107.57,-30.69 1126.02,-19.16"/>
<polygon fill="#63b8ff" stroke="#63b8ff" points="1121.49,-108.13 1131.92,-109.98 1124.92,-102.03 1121.49,-108.13"/>
</g>
<!-- Node7 -->
<g id="node7" class="node">
<title>Node7</title>
<g id="a_node7"><a xlink:href="../../df/dc9/docparser__p_8h.html" target="_top" xlink:title="Private header shared between docparser.cpp and docnode.cpp.">
<polygon fill="white" stroke="#666666" points="1202.5,-74 1100.5,-74 1100.5,-55 1202.5,-55 1202.5,-74"/>
<text text-anchor="middle" x="1151.5" y="-62" font-family="Helvetica,sans-Serif" font-size="10.00">src/docparser_p.h</text>
</a>
</g>
</g>
<!-- Node5&#45;&gt;Node7 -->
<g id="edge7" class="edge">
<title>Node5&#45;&gt;Node7</title>
<path fill="none" stroke="#63b8ff" d="M1151.5,-99.66C1151.5,-90.93 1151.5,-80.99 1151.5,-74.09"/>
<polygon fill="#63b8ff" stroke="#63b8ff" points="1148,-99.75 1151.5,-109.75 1155,-99.75 1148,-99.75"/>
</g>
<!-- Node9 -->
<g id="node9" class="node">
<title>Node9</title>
<g id="a_node9"><a xlink:href="../../d9/d92/dotfilepatcher_8cpp.html" target="_top" xlink:title=" ">
<polygon fill="white" stroke="#666666" points="1044,-74 923,-74 923,-55 1044,-55 1044,-74"/>
<text text-anchor="middle" x="983.5" y="-62" font-family="Helvetica,sans-Serif" font-size="10.00">src/dotfilepatcher.cpp</text>
</a>
</g>
</g>
<!-- Node5&#45;&gt;Node9 -->
<g id="edge10" class="edge">
<title>Node5&#45;&gt;Node9</title>
<path fill="none" stroke="#63b8ff" d="M1114.82,-106.93C1083.44,-97.03 1038.99,-83.01 1010.7,-74.08"/>
<polygon fill="#63b8ff" stroke="#63b8ff" points="1113.92,-110.31 1124.51,-109.98 1116.02,-103.64 1113.92,-110.31"/>
</g>
<!-- Node5&#45;&gt;Node10 -->
<g id="edge11" class="edge">
<title>Node5&#45;&gt;Node10</title>
<path fill="none" stroke="#63b8ff" d="M1098.96,-113.56C992.88,-103.59 753.92,-81.14 644.34,-70.84"/>
<polygon fill="#63b8ff" stroke="#63b8ff" points="1098.82,-117.07 1109.11,-114.52 1099.48,-110.1 1098.82,-117.07"/>
</g>
<!-- Node14 -->
<g id="node14" class="node">
<title>Node14</title>
<g id="a_node14"><a xlink:href="../../d8/d6e/htmlgen_8cpp.html" target="_top" xlink:title=" ">
<polygon fill="white" stroke="#666666" points="618,-19 523,-19 523,0 618,0 618,-19"/>
<text text-anchor="middle" x="570.5" y="-7" font-family="Helvetica,sans-Serif" font-size="10.00">src/htmlgen.cpp</text>
</a>
</g>
</g>
<!-- Node5&#45;&gt;Node14 -->
<g id="edge16" class="edge">
<title>Node5&#45;&gt;Node14</title>
<path fill="none" stroke="#63b8ff" d="M1099.18,-116.95C1020.56,-113.71 867.71,-103.8 741.5,-74 684.17,-60.47 619.88,-33.08 589.01,-19.11"/>
<polygon fill="#63b8ff" stroke="#63b8ff" points="1099.18,-120.46 1109.31,-117.35 1099.46,-113.46 1099.18,-120.46"/>
</g>
<!-- Node5&#45;&gt;Node15 -->
<g id="edge17" class="edge">
<title>Node5&#45;&gt;Node15</title>
<path fill="none" stroke="#63b8ff" d="M1099.23,-110.42C1035.59,-100.59 928.59,-84.06 863.67,-74.02"/>
<polygon fill="#63b8ff" stroke="#63b8ff" points="1099.02,-113.93 1109.44,-112 1100.09,-107.02 1099.02,-113.93"/>
</g>
<!-- Node17 -->
<g id="node17" class="node">
<title>Node17</title>
<g id="a_node17"><a xlink:href="../../d4/d42/latexgen_8cpp.html" target="_top" xlink:title=" ">
<polygon fill="white" stroke="#666666" points="987,-19 890,-19 890,0 987,0 987,-19"/>
<text text-anchor="middle" x="938.5" y="-7" font-family="Helvetica,sans-Serif" font-size="10.00">src/latexgen.cpp</text>
</a>
</g>
</g>
<!-- Node5&#45;&gt;Node17 -->
<g id="edge22" class="edge">
<title>Node5&#45;&gt;Node17</title>
<path fill="none" stroke="#63b8ff" d="M1099.34,-116.28C1036.56,-112.39 936.65,-101.88 913.5,-74 899.72,-57.41 918.17,-32.31 929.99,-19.19"/>
<polygon fill="#63b8ff" stroke="#63b8ff" points="1099.28,-119.78 1109.46,-116.87 1099.68,-112.8 1099.28,-119.78"/>
</g>
<!-- Node5&#45;&gt;Node19 -->
<g id="edge23" class="edge">
<title>Node5&#45;&gt;Node19</title>
<path fill="none" stroke="#63b8ff" d="M1203.73,-113.24C1281.99,-105.27 1434.29,-89.42 1563.5,-74 1566.44,-73.65 1569.45,-73.28 1572.49,-72.91"/>
<polygon fill="#63b8ff" stroke="#63b8ff" points="1203.24,-109.77 1193.65,-114.26 1203.95,-116.73 1203.24,-109.77"/>
</g>
<!-- Node22 -->
<g id="node22" class="node">
<title>Node22</title>
<g id="a_node22"><a xlink:href="../../db/d33/msc_8cpp.html" target="_top" xlink:title=" ">
<polygon fill="white" stroke="#666666" points="1294.5,-74 1220.5,-74 1220.5,-55 1294.5,-55 1294.5,-74"/>
<text text-anchor="middle" x="1257.5" y="-62" font-family="Helvetica,sans-Serif" font-size="10.00">src/msc.cpp</text>
</a>
</g>
</g>
<!-- Node5&#45;&gt;Node22 -->
<g id="edge26" class="edge">
<title>Node5&#45;&gt;Node22</title>
<path fill="none" stroke="#63b8ff" d="M1177.5,-105.5C1197,-95.75 1223.15,-82.68 1240.16,-74.17"/>
<polygon fill="#63b8ff" stroke="#63b8ff" points="1175.91,-102.38 1168.53,-109.98 1179.04,-108.64 1175.91,-102.38"/>
</g>
<!-- Node23 -->
<g id="node23" class="node">
<title>Node23</title>
<g id="a_node23"><a xlink:href="../../de/dd0/perlmodgen_8cpp.html" target="_top" xlink:title=" ">
<polygon fill="white" stroke="#666666" points="1426,-74 1313,-74 1313,-55 1426,-55 1426,-74"/>
<text text-anchor="middle" x="1369.5" y="-62" font-family="Helvetica,sans-Serif" font-size="10.00">src/perlmodgen.cpp</text>
</a>
</g>
</g>
<!-- Node5&#45;&gt;Node23 -->
<g id="edge27" class="edge">
<title>Node5&#45;&gt;Node23</title>
<path fill="none" stroke="#63b8ff" d="M1196.48,-107.56C1237.31,-97.64 1296.7,-83.2 1334.2,-74.08"/>
<polygon fill="#63b8ff" stroke="#63b8ff" points="1195.42,-104.22 1186.53,-109.98 1197.07,-111.02 1195.42,-104.22"/>
</g>
<!-- Node5&#45;&gt;Node24 -->
<g id="edge28" class="edge">
<title>Node5&#45;&gt;Node24</title>
<path fill="none" stroke="#63b8ff" d="M1203.82,-114.85C1300.59,-107.97 1514.04,-92.1 1693.5,-74 1700.05,-73.34 1706.93,-72.59 1713.72,-71.81"/>
<polygon fill="#63b8ff" stroke="#63b8ff" points="1203.44,-111.37 1193.72,-115.57 1203.94,-118.36 1203.44,-111.37"/>
</g>
<!-- Node5&#45;&gt;Node27 -->
<g id="edge31" class="edge">
<title>Node5&#45;&gt;Node27</title>
<path fill="none" stroke="#63b8ff" d="M1203.81,-110.53C1268.54,-100.67 1378.27,-83.96 1444.31,-73.91"/>
<polygon fill="#63b8ff" stroke="#63b8ff" points="1203.18,-107.09 1193.82,-112.05 1204.24,-114.01 1203.18,-107.09"/>
</g>
<!-- Node5&#45;&gt;Node29 -->
<g id="edge34" class="edge">
<title>Node5&#45;&gt;Node29</title>
<path fill="none" stroke="#63b8ff" d="M1203.67,-115.07C1316.65,-107.63 1592.43,-89.44 1823.5,-74 1846.91,-72.44 1872.76,-70.69 1894.92,-69.2"/>
<polygon fill="#63b8ff" stroke="#63b8ff" points="1203.32,-111.58 1193.57,-115.73 1203.78,-118.57 1203.32,-111.58"/>
</g>
<!-- Node7&#45;&gt;Node6 -->
<g id="edge8" class="edge">
<title>Node7&#45;&gt;Node6</title>
<path fill="none" stroke="#63b8ff" d="M1147.95,-44.66C1146.3,-35.93 1144.42,-25.99 1143.12,-19.09"/>
<polygon fill="#63b8ff" stroke="#63b8ff" points="1144.56,-45.57 1149.85,-54.75 1151.43,-44.27 1144.56,-45.57"/>
</g>
<!-- Node8 -->
<g id="node8" class="node">
<title>Node8</title>
<g id="a_node8"><a xlink:href="../../da/d17/docparser_8cpp.html" target="_top" xlink:title=" ">
<polygon fill="white" stroke="#666666" points="1308,-19 1207,-19 1207,0 1308,0 1308,-19"/>
<text text-anchor="middle" x="1257.5" y="-7" font-family="Helvetica,sans-Serif" font-size="10.00">src/docparser.cpp</text>
</a>
</g>
</g>
<!-- Node7&#45;&gt;Node8 -->
<g id="edge9" class="edge">
<title>Node7&#45;&gt;Node8</title>
<path fill="none" stroke="#63b8ff" d="M1177.5,-50.5C1197,-40.75 1223.15,-27.68 1240.16,-19.17"/>
<polygon fill="#63b8ff" stroke="#63b8ff" points="1175.91,-47.38 1168.53,-54.98 1179.04,-53.64 1175.91,-47.38"/>
</g>
<!-- Node11 -->
<g id="node11" class="node">
<title>Node11</title>
<g id="a_node11"><a xlink:href="../../db/d12/context_8cpp.html" target="_top" xlink:title=" ">
<polygon fill="white" stroke="#666666" points="727,-19 636,-19 636,0 727,0 727,-19"/>
<text text-anchor="middle" x="681.5" y="-7" font-family="Helvetica,sans-Serif" font-size="10.00">src/context.cpp</text>
</a>
</g>
</g>
<!-- Node10&#45;&gt;Node11 -->
<g id="edge12" class="edge">
<title>Node10&#45;&gt;Node11</title>
<path fill="none" stroke="#63b8ff" d="M611.5,-49.97C628.69,-40.28 651.31,-27.52 666.12,-19.17"/>
<polygon fill="#63b8ff" stroke="#63b8ff" points="609.59,-47.02 602.6,-54.98 613.03,-53.12 609.59,-47.02"/>
</g>
<!-- Node12 -->
<g id="node12" class="node">
<title>Node12</title>
<g id="a_node12"><a xlink:href="../../db/d41/ftvhelp_8cpp.html" target="_top" xlink:title=" ">
<polygon fill="white" stroke="#666666" points="362.5,-19 274.5,-19 274.5,0 362.5,0 362.5,-19"/>
<text text-anchor="middle" x="318.5" y="-7" font-family="Helvetica,sans-Serif" font-size="10.00">src/ftvhelp.cpp</text>
</a>
</g>
</g>
<!-- Node10&#45;&gt;Node12 -->
<g id="edge13" class="edge">
<title>Node10&#45;&gt;Node12</title>
<path fill="none" stroke="#63b8ff" d="M534.22,-53C483.8,-43.07 409.02,-28.33 362.06,-19.08"/>
<polygon fill="#63b8ff" stroke="#63b8ff" points="533.79,-56.49 544.28,-54.98 535.15,-49.62 533.79,-56.49"/>
</g>
<!-- Node13 -->
<g id="node13" class="node">
<title>Node13</title>
<g id="a_node13"><a xlink:href="../../da/db0/htmldocvisitor_8cpp.html" target="_top" xlink:title=" ">
<polygon fill="white" stroke="#666666" points="504.5,-19 380.5,-19 380.5,0 504.5,0 504.5,-19"/>
<text text-anchor="middle" x="442.5" y="-7" font-family="Helvetica,sans-Serif" font-size="10.00">src/htmldocvisitor.cpp</text>
</a>
</g>
</g>
<!-- Node10&#45;&gt;Node13 -->
<g id="edge14" class="edge">
<title>Node10&#45;&gt;Node13</title>
<path fill="none" stroke="#63b8ff" d="M554.81,-51.55C527.88,-41.71 490.34,-27.98 466.22,-19.17"/>
<polygon fill="#63b8ff" stroke="#63b8ff" points="553.61,-54.84 564.2,-54.98 556.01,-48.26 553.61,-54.84"/>
</g>
<!-- Node10&#45;&gt;Node14 -->
<g id="edge15" class="edge">
<title>Node10&#45;&gt;Node14</title>
<path fill="none" stroke="#63b8ff" d="M581.55,-44.95C578.73,-36.15 575.49,-26.06 573.25,-19.09"/>
<polygon fill="#63b8ff" stroke="#63b8ff" points="578.31,-46.29 584.69,-54.75 584.97,-44.16 578.31,-46.29"/>
</g>
<!-- Node15&#45;&gt;Node11 -->
<g id="edge18" class="edge">
<title>Node15&#45;&gt;Node11</title>
<path fill="none" stroke="#63b8ff" d="M778.62,-51.03C755.13,-41.23 723.03,-27.83 702.28,-19.17"/>
<polygon fill="#63b8ff" stroke="#63b8ff" points="777.52,-54.36 788.1,-54.98 780.21,-47.9 777.52,-54.36"/>
</g>
<!-- Node16 -->
<g id="node16" class="node">
<title>Node16</title>
<g id="a_node16"><a xlink:href="../../d1/d4e/latexdocvisitor_8cpp.html" target="_top" xlink:title=" ">
<polygon fill="white" stroke="#666666" points="871.5,-19 745.5,-19 745.5,0 871.5,0 871.5,-19"/>
<text text-anchor="middle" x="808.5" y="-7" font-family="Helvetica,sans-Serif" font-size="10.00">src/latexdocvisitor.cpp</text>
</a>
</g>
</g>
<!-- Node15&#45;&gt;Node16 -->
<g id="edge19" class="edge">
<title>Node15&#45;&gt;Node16</title>
<path fill="none" stroke="#63b8ff" d="M808.5,-44.66C808.5,-35.93 808.5,-25.99 808.5,-19.09"/>
<polygon fill="#63b8ff" stroke="#63b8ff" points="805,-44.75 808.5,-54.75 812,-44.75 805,-44.75"/>
</g>
<!-- Node15&#45;&gt;Node17 -->
<g id="edge20" class="edge">
<title>Node15&#45;&gt;Node17</title>
<path fill="none" stroke="#63b8ff" d="M838.77,-51.16C862.84,-41.35 895.9,-27.87 917.23,-19.17"/>
<polygon fill="#63b8ff" stroke="#63b8ff" points="837.33,-47.97 829.39,-54.98 839.97,-54.45 837.33,-47.97"/>
</g>
<!-- Node18 -->
<g id="node18" class="node">
<title>Node18</title>
<g id="a_node18"><a xlink:href="../../df/d2d/util_8cpp.html" target="_top" xlink:title=" ">
<polygon fill="white" stroke="#666666" points="1075.5,-19 1005.5,-19 1005.5,0 1075.5,0 1075.5,-19"/>
<text text-anchor="middle" x="1040.5" y="-7" font-family="Helvetica,sans-Serif" font-size="10.00">src/util.cpp</text>
</a>
</g>
</g>
<!-- Node15&#45;&gt;Node18 -->
<g id="edge21" class="edge">
<title>Node15&#45;&gt;Node18</title>
<path fill="none" stroke="#63b8ff" d="M855.72,-52.71C900.03,-42.59 965.28,-27.68 1005.22,-18.56"/>
<polygon fill="#63b8ff" stroke="#63b8ff" points="854.74,-49.35 845.77,-54.98 856.3,-56.17 854.74,-49.35"/>
</g>
<!-- Node20 -->
<g id="node20" class="node">
<title>Node20</title>
<g id="a_node20"><a xlink:href="../../d8/dde/mandocvisitor_8cpp.html" target="_top" xlink:title=" ">
<polygon fill="white" stroke="#666666" points="1588,-19 1465,-19 1465,0 1588,0 1588,-19"/>
<text text-anchor="middle" x="1526.5" y="-7" font-family="Helvetica,sans-Serif" font-size="10.00">src/mandocvisitor.cpp</text>
</a>
</g>
</g>
<!-- Node19&#45;&gt;Node20 -->
<g id="edge24" class="edge">
<title>Node19&#45;&gt;Node20</title>
<path fill="none" stroke="#63b8ff" d="M1603.23,-50.37C1584.49,-40.63 1559.48,-27.64 1543.19,-19.17"/>
<polygon fill="#63b8ff" stroke="#63b8ff" points="1601.62,-53.48 1612.11,-54.98 1604.85,-47.27 1601.62,-53.48"/>
</g>
<!-- Node21 -->
<g id="node21" class="node">
<title>Node21</title>
<g id="a_node21"><a xlink:href="../../d7/de7/mangen_8cpp.html" target="_top" xlink:title=" ">
<polygon fill="white" stroke="#666666" points="1700.5,-19 1606.5,-19 1606.5,0 1700.5,0 1700.5,-19"/>
<text text-anchor="middle" x="1653.5" y="-7" font-family="Helvetica,sans-Serif" font-size="10.00">src/mangen.cpp</text>
</a>
</g>
</g>
<!-- Node19&#45;&gt;Node21 -->
<g id="edge25" class="edge">
<title>Node19&#45;&gt;Node21</title>
<path fill="none" stroke="#63b8ff" d="M1636.98,-45.53C1641.19,-36.6 1646.09,-26.22 1649.45,-19.09"/>
<polygon fill="#63b8ff" stroke="#63b8ff" points="1633.73,-44.21 1632.63,-54.75 1640.06,-47.2 1633.73,-44.21"/>
</g>
<!-- Node25 -->
<g id="node25" class="node">
<title>Node25</title>
<g id="a_node25"><a xlink:href="../../de/d9a/rtfdocvisitor_8cpp.html" target="_top" xlink:title=" ">
<polygon fill="white" stroke="#666666" points="1832,-19 1719,-19 1719,0 1832,0 1832,-19"/>
<text text-anchor="middle" x="1775.5" y="-7" font-family="Helvetica,sans-Serif" font-size="10.00">src/rtfdocvisitor.cpp</text>
</a>
</g>
</g>
<!-- Node24&#45;&gt;Node25 -->
<g id="edge29" class="edge">
<title>Node24&#45;&gt;Node25</title>
<path fill="none" stroke="#63b8ff" d="M1768.35,-44.95C1770.18,-36.15 1772.27,-26.06 1773.72,-19.09"/>
<polygon fill="#63b8ff" stroke="#63b8ff" points="1764.92,-44.25 1766.32,-54.75 1771.78,-45.67 1764.92,-44.25"/>
</g>
<!-- Node26 -->
<g id="node26" class="node">
<title>Node26</title>
<g id="a_node26"><a xlink:href="../../d0/d9c/rtfgen_8cpp.html" target="_top" xlink:title=" ">
<polygon fill="white" stroke="#666666" points="1933,-19 1850,-19 1850,0 1933,0 1933,-19"/>
<text text-anchor="middle" x="1891.5" y="-7" font-family="Helvetica,sans-Serif" font-size="10.00">src/rtfgen.cpp</text>
</a>
</g>
</g>
<!-- Node24&#45;&gt;Node26 -->
<g id="edge30" class="edge">
<title>Node24&#45;&gt;Node26</title>
<path fill="none" stroke="#63b8ff" d="M1794.38,-51.03C1817.87,-41.23 1849.97,-27.83 1870.72,-19.17"/>
<polygon fill="#63b8ff" stroke="#63b8ff" points="1792.79,-47.9 1784.9,-54.98 1795.48,-54.36 1792.79,-47.9"/>
</g>
<!-- Node27&#45;&gt;Node18 -->
<g id="edge33" class="edge">
<title>Node27&#45;&gt;Node18</title>
<path fill="none" stroke="#63b8ff" d="M1434.2,-55.01C1277.49,-37.05 1236.02,-41.38 1084.5,-19 1081.58,-18.57 1078.55,-18.08 1075.52,-17.55"/>
<polygon fill="#63b8ff" stroke="#63b8ff" points="1433.86,-58.49 1444.19,-56.16 1434.66,-51.54 1433.86,-58.49"/>
</g>
<!-- Node28 -->
<g id="node28" class="node">
<title>Node28</title>
<g id="a_node28"><a xlink:href="../../d3/da6/textdocvisitor_8cpp.html" target="_top" xlink:title=" ">
<polygon fill="white" stroke="#666666" points="1447,-19 1326,-19 1326,0 1447,0 1447,-19"/>
<text text-anchor="middle" x="1386.5" y="-7" font-family="Helvetica,sans-Serif" font-size="10.00">src/textdocvisitor.cpp</text>
</a>
</g>
</g>
<!-- Node27&#45;&gt;Node28 -->
<g id="edge32" class="edge">
<title>Node27&#45;&gt;Node28</title>
<path fill="none" stroke="#63b8ff" d="M1472.07,-50.63C1451.25,-40.87 1423.2,-27.71 1404.99,-19.17"/>
<polygon fill="#63b8ff" stroke="#63b8ff" points="1470.8,-53.91 1481.34,-54.98 1473.78,-47.57 1470.8,-53.91"/>
</g>
<!-- Node30 -->
<g id="node30" class="node">
<title>Node30</title>
<g id="a_node30"><a xlink:href="../../dd/db6/xmldocvisitor_8cpp.html" target="_top" xlink:title=" ">
<polygon fill="white" stroke="#666666" points="2071.5,-19 1951.5,-19 1951.5,0 2071.5,0 2071.5,-19"/>
<text text-anchor="middle" x="2011.5" y="-7" font-family="Helvetica,sans-Serif" font-size="10.00">src/xmldocvisitor.cpp</text>
</a>
</g>
</g>
<!-- Node29&#45;&gt;Node30 -->
<g id="edge35" class="edge">
<title>Node29&#45;&gt;Node30</title>
<path fill="none" stroke="#63b8ff" d="M1967.25,-48.32C1978.31,-38.87 1992.13,-27.06 2001.36,-19.17"/>
<polygon fill="#63b8ff" stroke="#63b8ff" points="1964.79,-45.83 1959.46,-54.98 1969.34,-51.15 1964.79,-45.83"/>
</g>
<!-- Node31 -->
<g id="node31" class="node">
<title>Node31</title>
<g id="a_node31"><a xlink:href="../../d0/dc3/xmlgen_8cpp.html" target="_top" xlink:title=" ">
<polygon fill="white" stroke="#666666" points="2181,-19 2090,-19 2090,0 2181,0 2181,-19"/>
<text text-anchor="middle" x="2135.5" y="-7" font-family="Helvetica,sans-Serif" font-size="10.00">src/xmlgen.cpp</text>
</a>
</g>
</g>
<!-- Node29&#45;&gt;Node31 -->
<g id="edge36" class="edge">
<title>Node29&#45;&gt;Node31</title>
<path fill="none" stroke="#63b8ff" d="M1989.21,-52.18C2024,-42.27 2073.79,-28.08 2105.38,-19.08"/>
<polygon fill="#63b8ff" stroke="#63b8ff" points="1988.04,-48.88 1979.38,-54.98 1989.96,-55.61 1988.04,-48.88"/>
</g>
</g>
</svg>
