<?xml version="1.0" encoding="UTF-8" standalone="no"?>
<!DOCTYPE svg PUBLIC "-//W3C//DTD SVG 1.1//EN"
 "http://www.w3.org/Graphics/SVG/1.1/DTD/svg11.dtd">
<!-- Generated by graphviz version 2.40.1 (20161225.0304)
 -->
<!-- Title: src/dotlegendgraph.h Pages: 1 -->
<!--zoomable 247 -->
<svg id="main" version="1.1" xmlns="http://www.w3.org/2000/svg" xmlns:xlink="http://www.w3.org/1999/xlink" xml:space="preserve" onload="init(evt)">
<style type="text/css"><![CDATA[
.edge:hover path { stroke: red; }
.edge:hover polygon { stroke: red; fill: red; }
]]></style>
<script type="text/javascript"><![CDATA[
var edges = document.getElementsByTagName('g');
if (edges && edges.length) {
  for (var i=0;i<edges.length;i++) {
    if (edges[i].id.substr(0,4)=='edge') {
      edges[i].setAttribute('class','edge');
    }
  }
}
]]></script>
        <defs>
                <circle id="rim" cx="0" cy="0" r="7"/>
                <circle id="rim2" cx="0" cy="0" r="3.5"/>
                <g id="zoomPlus">
                        <use xlink:href="#rim" fill="#404040">
                                <set attributeName="fill" to="#808080" begin="zoomplus.mouseover" end="zoomplus.mouseout"/>
                        </use>
                        <path d="M-4,0h8M0,-4v8" fill="none" stroke="white" stroke-width="1.5" pointer-events="none"/>
                </g>
                <g id="zoomMin">
                        <use xlink:href="#rim" fill="#404040">
                                <set attributeName="fill" to="#808080" begin="zoomminus.mouseover" end="zoomminus.mouseout"/>
                        </use>
                        <path d="M-4,0h8" fill="none" stroke="white" stroke-width="1.5" pointer-events="none"/>
                </g>
                <g id="dirArrow">
                        <path fill="none" stroke="white" stroke-width="1.5" d="M0,-3.0v7 M-2.5,-0.5L0,-3.0L2.5,-0.5"/>
                </g>
               <g id="resetDef">
                       <use xlink:href="#rim2" fill="#404040">
                               <set attributeName="fill" to="#808080" begin="reset.mouseover" end="reset.mouseout"/>
                       </use>
               </g>
        </defs>

<script type="text/javascript">
var viewWidth = 703;
var viewHeight = 247;
var sectionId = 'dynsection-0';
</script>
<script xlink:href="../../svgpan.js"/>
<svg id="graph" class="graph">
<g id="viewport">
<title>src/dotlegendgraph.h</title>
<!-- Node1 -->
<g id="node1" class="node">
<title>Node1</title>
<g id="a_node1"><a xlink:title=" ">
<polygon fill="#999999" stroke="#666666" points="305.5,-239 198.5,-239 198.5,-220 305.5,-220 305.5,-239"/>
<text text-anchor="middle" x="252" y="-227" font-family="Helvetica,sans-Serif" font-size="10.00" fill="#000000">src/dotlegendgraph.h</text>
</a>
</g>
</g>
<!-- Node2 -->
<g id="node2" class="node">
<title>Node2</title>
<g id="a_node2"><a xlink:href="../../d0/daa/dotgraph_8h.html" target="_top" xlink:title=" ">
<polygon fill="#ffffff" stroke="#666666" points="283,-184 221,-184 221,-165 283,-165 283,-184"/>
<text text-anchor="middle" x="252" y="-172" font-family="Helvetica,sans-Serif" font-size="10.00" fill="#000000">dotgraph.h</text>
</a>
</g>
</g>
<!-- Node1&#45;&gt;Node2 -->
<g id="edge1" class="edge">
<title>Node1&#45;&gt;Node2</title>
<path fill="none" stroke="#63b8ff" d="M252,-219.9197C252,-212.9083 252,-203.1442 252,-194.4652"/>
<polygon fill="#63b8ff" stroke="#63b8ff" points="255.5001,-194.3408 252,-184.3408 248.5001,-194.3409 255.5001,-194.3408"/>
</g>
<!-- Node3 -->
<g id="node3" class="node">
<title>Node3</title>
<g id="a_node3"><a xlink:title=" ">
<polygon fill="#e0e0e0" stroke="#999999" points="184,-129 130,-129 130,-110 184,-110 184,-129"/>
<text text-anchor="middle" x="157" y="-117" font-family="Helvetica,sans-Serif" font-size="10.00" fill="#000000">iostream</text>
</a>
</g>
</g>
<!-- Node2&#45;&gt;Node3 -->
<g id="edge2" class="edge">
<title>Node2&#45;&gt;Node3</title>
<path fill="none" stroke="#63b8ff" d="M235.4523,-164.9197C220.8298,-156.4541 199.2759,-143.9755 182.4585,-134.2391"/>
<polygon fill="#63b8ff" stroke="#63b8ff" points="184.0848,-131.1364 173.6769,-129.155 180.5775,-137.1944 184.0848,-131.1364"/>
</g>
<!-- Node4 -->
<g id="node4" class="node">
<title>Node4</title>
<g id="a_node4"><a xlink:title=" ">
<polygon fill="#e0e0e0" stroke="#999999" points="237.5,-129 202.5,-129 202.5,-110 237.5,-110 237.5,-129"/>
<text text-anchor="middle" x="220" y="-117" font-family="Helvetica,sans-Serif" font-size="10.00" fill="#000000">map</text>
</a>
</g>
</g>
<!-- Node2&#45;&gt;Node4 -->
<g id="edge3" class="edge">
<title>Node2&#45;&gt;Node4</title>
<path fill="none" stroke="#63b8ff" d="M246.426,-164.9197C242.12,-157.5188 236.0296,-147.0509 230.7807,-138.0294"/>
<polygon fill="#63b8ff" stroke="#63b8ff" points="233.7798,-136.2242 225.7256,-129.3408 227.7293,-139.7445 233.7798,-136.2242"/>
</g>
<!-- Node5 -->
<g id="node5" class="node">
<title>Node5</title>
<g id="a_node5"><a xlink:href="../../d7/d5c/qcstring_8h.html" target="_top" xlink:title=" ">
<polygon fill="#ffffff" stroke="#666666" points="314.5,-129 255.5,-129 255.5,-110 314.5,-110 314.5,-129"/>
<text text-anchor="middle" x="285" y="-117" font-family="Helvetica,sans-Serif" font-size="10.00" fill="#000000">qcstring.h</text>
</a>
</g>
</g>
<!-- Node2&#45;&gt;Node5 -->
<g id="edge4" class="edge">
<title>Node2&#45;&gt;Node5</title>
<path fill="none" stroke="#63b8ff" d="M257.7482,-164.9197C262.1887,-157.5188 268.4695,-147.0509 273.8824,-138.0294"/>
<polygon fill="#63b8ff" stroke="#63b8ff" points="276.9517,-139.7165 279.0955,-129.3408 270.9493,-136.115 276.9517,-139.7165"/>
</g>
<!-- Node15 -->
<g id="node15" class="node">
<title>Node15</title>
<g id="a_node15"><a xlink:href="../../df/d9c/dir_8h.html" target="_top" xlink:title=" ">
<polygon fill="#ffffff" stroke="#666666" points="587.5,-129 552.5,-129 552.5,-110 587.5,-110 587.5,-129"/>
<text text-anchor="middle" x="570" y="-117" font-family="Helvetica,sans-Serif" font-size="10.00" fill="#000000">dir.h</text>
</a>
</g>
</g>
<!-- Node2&#45;&gt;Node15 -->
<g id="edge16" class="edge">
<title>Node2&#45;&gt;Node15</title>
<path fill="none" stroke="#63b8ff" d="M283.0702,-169.1262C345.0103,-158.4133 482.9874,-134.5493 542.1681,-124.3137"/>
<polygon fill="#63b8ff" stroke="#63b8ff" points="543.0082,-127.7204 552.2654,-122.5673 541.8151,-120.8229 543.0082,-127.7204"/>
</g>
<!-- Node6 -->
<g id="node6" class="node">
<title>Node6</title>
<g id="a_node6"><a xlink:title=" ">
<polygon fill="#e0e0e0" stroke="#999999" points="420.5,-19 379.5,-19 379.5,0 420.5,0 420.5,-19"/>
<text text-anchor="middle" x="400" y="-7" font-family="Helvetica,sans-Serif" font-size="10.00" fill="#000000">string</text>
</a>
</g>
</g>
<!-- Node5&#45;&gt;Node6 -->
<g id="edge5" class="edge">
<title>Node5&#45;&gt;Node6</title>
<path fill="none" stroke="#63b8ff" d="M300.6407,-109.8908C313.9551,-101.3298 333.2176,-88.0186 348,-74 362.9248,-59.8463 377.4012,-41.3792 387.2732,-27.8339"/>
<polygon fill="#63b8ff" stroke="#63b8ff" points="390.3628,-29.5297 393.321,-19.3562 384.6642,-25.4644 390.3628,-29.5297"/>
</g>
<!-- Node7 -->
<g id="node7" class="node">
<title>Node7</title>
<g id="a_node7"><a xlink:title=" ">
<polygon fill="#e0e0e0" stroke="#999999" points="451,-74 395,-74 395,-55 451,-55 451,-74"/>
<text text-anchor="middle" x="423" y="-62" font-family="Helvetica,sans-Serif" font-size="10.00" fill="#000000">algorithm</text>
</a>
</g>
</g>
<!-- Node5&#45;&gt;Node7 -->
<g id="edge6" class="edge">
<title>Node5&#45;&gt;Node7</title>
<path fill="none" stroke="#63b8ff" d="M309.0378,-109.9197C331.2622,-101.0622 364.5093,-87.8115 389.3652,-77.9052"/>
<polygon fill="#63b8ff" stroke="#63b8ff" points="390.7811,-81.1087 398.7747,-74.155 388.1894,-74.6061 390.7811,-81.1087"/>
</g>
<!-- Node8 -->
<g id="node8" class="node">
<title>Node8</title>
<g id="a_node8"><a xlink:title=" ">
<polygon fill="#e0e0e0" stroke="#999999" points="515,-74 469,-74 469,-55 515,-55 515,-74"/>
<text text-anchor="middle" x="492" y="-62" font-family="Helvetica,sans-Serif" font-size="10.00" fill="#000000">cctype</text>
</a>
</g>
</g>
<!-- Node5&#45;&gt;Node8 -->
<g id="edge7" class="edge">
<title>Node5&#45;&gt;Node8</title>
<path fill="none" stroke="#63b8ff" d="M314.8088,-112.0802C347.7955,-103.7971 402.7598,-89.7828 459.1568,-74.169"/>
<polygon fill="#63b8ff" stroke="#63b8ff" points="460.2586,-77.4955 468.9551,-71.4439 458.3829,-70.7514 460.2586,-77.4955"/>
</g>
<!-- Node9 -->
<g id="node9" class="node">
<title>Node9</title>
<g id="a_node9"><a xlink:title=" ">
<polygon fill="#e0e0e0" stroke="#999999" points="46,-74 0,-74 0,-55 46,-55 46,-74"/>
<text text-anchor="middle" x="23" y="-62" font-family="Helvetica,sans-Serif" font-size="10.00" fill="#000000">cstring</text>
</a>
</g>
</g>
<!-- Node5&#45;&gt;Node9 -->
<g id="edge8" class="edge">
<title>Node5&#45;&gt;Node9</title>
<path fill="none" stroke="#63b8ff" d="M255.1688,-111.8637C252.4121,-111.212 249.6574,-110.5808 247,-110 165.2463,-92.133 141.1219,-94.1987 56.1609,-74.0901"/>
<polygon fill="#63b8ff" stroke="#63b8ff" points="56.884,-70.6644 46.3432,-71.733 55.2498,-77.4709 56.884,-70.6644"/>
</g>
<!-- Node10 -->
<g id="node10" class="node">
<title>Node10</title>
<g id="a_node10"><a xlink:title=" ">
<polygon fill="#e0e0e0" stroke="#999999" points="107.5,-74 64.5,-74 64.5,-55 107.5,-55 107.5,-74"/>
<text text-anchor="middle" x="86" y="-62" font-family="Helvetica,sans-Serif" font-size="10.00" fill="#000000">cstdio</text>
</a>
</g>
</g>
<!-- Node5&#45;&gt;Node10 -->
<g id="edge9" class="edge">
<title>Node5&#45;&gt;Node10</title>
<path fill="none" stroke="#63b8ff" d="M255.2776,-111.9174C223.354,-103.6815 170.9227,-89.892 117.269,-74.2914"/>
<polygon fill="#63b8ff" stroke="#63b8ff" points="118.176,-70.9101 107.5956,-71.4626 116.2112,-77.6287 118.176,-70.9101"/>
</g>
<!-- Node11 -->
<g id="node11" class="node">
<title>Node11</title>
<g id="a_node11"><a xlink:title=" ">
<polygon fill="#e0e0e0" stroke="#999999" points="170.5,-74 125.5,-74 125.5,-55 170.5,-55 170.5,-74"/>
<text text-anchor="middle" x="148" y="-62" font-family="Helvetica,sans-Serif" font-size="10.00" fill="#000000">cstdlib</text>
</a>
</g>
</g>
<!-- Node5&#45;&gt;Node11 -->
<g id="edge10" class="edge">
<title>Node5&#45;&gt;Node11</title>
<path fill="none" stroke="#63b8ff" d="M261.1364,-109.9197C238.667,-100.8992 204.8482,-87.3223 180.0371,-77.3616"/>
<polygon fill="#63b8ff" stroke="#63b8ff" points="181.2645,-74.0829 170.6804,-73.6053 178.6565,-80.5789 181.2645,-74.0829"/>
</g>
<!-- Node12 -->
<g id="node12" class="node">
<title>Node12</title>
<g id="a_node12"><a xlink:title=" ">
<polygon fill="#e0e0e0" stroke="#999999" points="308,-19 262,-19 262,0 308,0 308,-19"/>
<text text-anchor="middle" x="285" y="-7" font-family="Helvetica,sans-Serif" font-size="10.00" fill="#000000">cstdint</text>
</a>
</g>
</g>
<!-- Node5&#45;&gt;Node12 -->
<g id="edge11" class="edge">
<title>Node5&#45;&gt;Node12</title>
<path fill="none" stroke="#63b8ff" d="M260.2001,-109.8565C245.0312,-102.5098 226.885,-90.774 218,-74 206.9071,-53.0577 230.5592,-34.9269 252.7609,-23.268"/>
<polygon fill="#63b8ff" stroke="#63b8ff" points="254.3416,-26.391 261.7604,-18.8271 251.2439,-20.1136 254.3416,-26.391"/>
</g>
<!-- Node13 -->
<g id="node13" class="node">
<title>Node13</title>
<g id="a_node13"><a xlink:title=" ">
<polygon fill="#e0e0e0" stroke="#999999" points="279,-74 227,-74 227,-55 279,-55 279,-74"/>
<text text-anchor="middle" x="253" y="-62" font-family="Helvetica,sans-Serif" font-size="10.00" fill="#000000">ostream</text>
</a>
</g>
</g>
<!-- Node5&#45;&gt;Node13 -->
<g id="edge12" class="edge">
<title>Node5&#45;&gt;Node13</title>
<path fill="none" stroke="#63b8ff" d="M279.426,-109.9197C275.12,-102.5188 269.0296,-92.0509 263.7807,-83.0294"/>
<polygon fill="#63b8ff" stroke="#63b8ff" points="266.7798,-81.2242 258.7256,-74.3408 260.7293,-84.7445 266.7798,-81.2242"/>
</g>
<!-- Node14 -->
<g id="node14" class="node">
<title>Node14</title>
<g id="a_node14"><a xlink:href="../../db/d7c/utf8_8h.html" target="_top" xlink:title="Various UTF8 related helper functions.">
<polygon fill="#ffffff" stroke="#666666" points="338.5,-74 297.5,-74 297.5,-55 338.5,-55 338.5,-74"/>
<text text-anchor="middle" x="318" y="-62" font-family="Helvetica,sans-Serif" font-size="10.00" fill="#000000">utf8.h</text>
</a>
</g>
</g>
<!-- Node5&#45;&gt;Node14 -->
<g id="edge13" class="edge">
<title>Node5&#45;&gt;Node14</title>
<path fill="none" stroke="#63b8ff" d="M290.7482,-109.9197C295.1887,-102.5188 301.4695,-92.0509 306.8824,-83.0294"/>
<polygon fill="#63b8ff" stroke="#63b8ff" points="309.9517,-84.7165 312.0955,-74.3408 303.9493,-81.115 309.9517,-84.7165"/>
</g>
<!-- Node14&#45;&gt;Node6 -->
<g id="edge15" class="edge">
<title>Node14&#45;&gt;Node6</title>
<path fill="none" stroke="#63b8ff" d="M332.2833,-54.9197C344.6711,-46.6109 362.8222,-34.4363 377.2147,-24.7828"/>
<polygon fill="#63b8ff" stroke="#63b8ff" points="379.25,-27.6321 385.6052,-19.155 375.3507,-21.8187 379.25,-27.6321"/>
</g>
<!-- Node14&#45;&gt;Node12 -->
<g id="edge14" class="edge">
<title>Node14&#45;&gt;Node12</title>
<path fill="none" stroke="#63b8ff" d="M312.2518,-54.9197C307.8113,-47.5188 301.5305,-37.0509 296.1176,-28.0294"/>
<polygon fill="#63b8ff" stroke="#63b8ff" points="299.0507,-26.115 290.9045,-19.3408 293.0483,-29.7165 299.0507,-26.115"/>
</g>
<!-- Node15&#45;&gt;Node6 -->
<g id="edge17" class="edge">
<title>Node15&#45;&gt;Node6</title>
<path fill="none" stroke="#63b8ff" d="M565.4498,-109.7904C558.4306,-95.8011 543.6865,-70.0118 524,-55 496.1508,-33.7638 457.3969,-21.6719 430.6615,-15.3718"/>
<polygon fill="#63b8ff" stroke="#63b8ff" points="431.2244,-11.9117 420.7036,-13.1613 429.7074,-18.7453 431.2244,-11.9117"/>
</g>
<!-- Node16 -->
<g id="node16" class="node">
<title>Node16</title>
<g id="a_node16"><a xlink:title=" ">
<polygon fill="#e0e0e0" stroke="#999999" points="623,-74 571,-74 571,-55 623,-55 623,-74"/>
<text text-anchor="middle" x="597" y="-62" font-family="Helvetica,sans-Serif" font-size="10.00" fill="#000000">memory</text>
</a>
</g>
</g>
<!-- Node15&#45;&gt;Node16 -->
<g id="edge18" class="edge">
<title>Node15&#45;&gt;Node16</title>
<path fill="none" stroke="#63b8ff" d="M574.703,-109.9197C578.2597,-102.6746 583.2593,-92.4903 587.6231,-83.601"/>
<polygon fill="#63b8ff" stroke="#63b8ff" points="590.9041,-84.8599 592.169,-74.3408 584.6204,-81.7751 590.9041,-84.8599"/>
</g>
<!-- Node17 -->
<g id="node17" class="node">
<title>Node17</title>
<g id="a_node17"><a xlink:href="../../df/d45/fileinfo_8h.html" target="_top" xlink:title=" ">
<polygon fill="#ffffff" stroke="#666666" points="694.5,-74 641.5,-74 641.5,-55 694.5,-55 694.5,-74"/>
<text text-anchor="middle" x="668" y="-62" font-family="Helvetica,sans-Serif" font-size="10.00" fill="#000000">fileinfo.h</text>
</a>
</g>
</g>
<!-- Node15&#45;&gt;Node17 -->
<g id="edge19" class="edge">
<title>Node15&#45;&gt;Node17</title>
<path fill="none" stroke="#63b8ff" d="M587.0703,-109.9197C602.1545,-101.4541 624.389,-88.9755 641.7375,-79.2391"/>
<polygon fill="#63b8ff" stroke="#63b8ff" points="643.789,-82.1014 650.7965,-74.155 640.363,-75.9971 643.789,-82.1014"/>
</g>
<!-- Node17&#45;&gt;Node6 -->
<g id="edge20" class="edge">
<title>Node17&#45;&gt;Node6</title>
<path fill="none" stroke="#63b8ff" d="M641.311,-57.2527C638.1795,-56.463 635.0239,-55.6948 632,-55 560.1543,-38.4931 474.9279,-22.7526 430.4581,-14.8278"/>
<polygon fill="#63b8ff" stroke="#63b8ff" points="431.034,-11.3754 420.5766,-13.0762 429.8122,-18.268 431.034,-11.3754"/>
</g>
</g>
</svg>
        <g id="navigator" transform="translate(0 0)" fill="#404254">
                <rect fill="#f2f5e9" fill-opacity="0.5" stroke="#606060" stroke-width=".5" x="0" y="0" width="60" height="60"/>
                <use id="zoomplus" xlink:href="#zoomPlus" x="17" y="9" onmousedown="handleZoom(evt,'in')"/>
                <use id="zoomminus" xlink:href="#zoomMin" x="42" y="9" onmousedown="handleZoom(evt,'out')"/>
                <use id="reset" xlink:href="#resetDef" x="30" y="36" onmousedown="handleReset()"/>
                <g id="arrowUp" xlink:href="#dirArrow" transform="translate(30 24)" onmousedown="handlePan(0,-1)">
                  <use xlink:href="#rim" fill="#404040">
                        <set attributeName="fill" to="#808080" begin="arrowUp.mouseover" end="arrowUp.mouseout"/>
                  </use>
                  <path fill="none" stroke="white" stroke-width="1.5" d="M0,-3.0v7 M-2.5,-0.5L0,-3.0L2.5,-0.5"/>
                </g>
                <g id="arrowRight" xlink:href="#dirArrow" transform="rotate(90) translate(36 -43)" onmousedown="handlePan(1,0)">
                  <use xlink:href="#rim" fill="#404040">
                        <set attributeName="fill" to="#808080" begin="arrowRight.mouseover" end="arrowRight.mouseout"/>
                  </use>
                  <path fill="none" stroke="white" stroke-width="1.5" d="M0,-3.0v7 M-2.5,-0.5L0,-3.0L2.5,-0.5"/>
                </g>
                <g id="arrowDown" xlink:href="#dirArrow" transform="rotate(180) translate(-30 -48)" onmousedown="handlePan(0,1)">
                  <use xlink:href="#rim" fill="#404040">
                        <set attributeName="fill" to="#808080" begin="arrowDown.mouseover" end="arrowDown.mouseout"/>
                  </use>
                  <path fill="none" stroke="white" stroke-width="1.5" d="M0,-3.0v7 M-2.5,-0.5L0,-3.0L2.5,-0.5"/>
                </g>
                <g id="arrowLeft" xlink:href="#dirArrow" transform="rotate(270) translate(-36 17)" onmousedown="handlePan(-1,0)">
                  <use xlink:href="#rim" fill="#404040">
                        <set attributeName="fill" to="#808080" begin="arrowLeft.mouseover" end="arrowLeft.mouseout"/>
                  </use>
                  <path fill="none" stroke="white" stroke-width="1.5" d="M0,-3.0v7 M-2.5,-0.5L0,-3.0L2.5,-0.5"/>
                </g>
        </g>
        <svg viewBox="0 0 15 15" width="100%" height="30px" preserveAspectRatio="xMaxYMin meet">
         <g id="arrow_out" transform="scale(0.3 0.3)">
          <a xlink:href="dotlegendgraph_8h__incl_org.svg" target="_base">
           <rect id="button" ry="5" rx="5" y="6" x="6" height="38" width="38"
                fill="#f2f5e9" fill-opacity="0.5" stroke="#606060" stroke-width="1.0"/>
           <path id="arrow"
             d="M 11.500037,31.436501 C 11.940474,20.09759 22.043105,11.32322 32.158766,21.979434 L 37.068811,17.246167 C 37.068811,17.246167 37.088388,32 37.088388,32 L 22.160133,31.978069 C 22.160133,31.978069 26.997745,27.140456 26.997745,27.140456 C 18.528582,18.264221 13.291696,25.230495 11.500037,31.436501 z"
             style="fill:#404040;"/>
          </a>
         </g>
        </svg>
</svg>
