<?xml version="1.0" encoding="UTF-8" standalone="no"?>
<!DOCTYPE svg PUBLIC "-//W3C//DTD SVG 1.1//EN"
 "http://www.w3.org/Graphics/SVG/1.1/DTD/svg11.dtd">
<!-- Generated by graphviz version 2.40.1 (20161225.0304)
 -->
<!-- Title: ClassContext::Private Pages: 1 -->
<svg width="189pt" height="160pt"
 viewBox="0.00 0.00 188.50 160.00" xmlns="http://www.w3.org/2000/svg" xmlns:xlink="http://www.w3.org/1999/xlink">
<g id="graph0" class="graph" transform="scale(1 1) rotate(0) translate(4 156)">
<title>ClassContext::Private</title>
<!-- Node1 -->
<g id="node1" class="node">
<title>Node1</title>
<g id="a_node1"><a xlink:title=" ">
<polygon fill="#999999" stroke="#666666" points="119,-19 6,-19 6,0 119,0 119,-19"/>
<text text-anchor="middle" x="62.5" y="-7" font-family="Helvetica,sans-Serif" font-size="10.00" fill="#000000">ClassContext::Private</text>
</a>
</g>
</g>
<!-- Node2 -->
<g id="node2" class="node">
<title>Node2</title>
<g id="a_node2"><a xlink:href="../../d6/d49/class_definition_context.html" target="_top" xlink:title=" ">
<polygon fill="#ffffff" stroke="#666666" points="125,-86 0,-86 0,-56 125,-56 125,-86"/>
<text text-anchor="start" x="8" y="-74" font-family="Helvetica,sans-Serif" font-size="10.00" fill="#000000">DefinitionContext&lt;</text>
<text text-anchor="middle" x="62.5" y="-63" font-family="Helvetica,sans-Serif" font-size="10.00" fill="#000000"> ClassContext::Private &gt;</text>
</a>
</g>
</g>
<!-- Node2&#45;&gt;Node1 -->
<g id="edge1" class="edge">
<title>Node2&#45;&gt;Node1</title>
<path fill="none" stroke="#63b8ff" d="M62.5,-45.7849C62.5,-36.4858 62.5,-26.4883 62.5,-19.3469"/>
<polygon fill="#63b8ff" stroke="#63b8ff" points="59.0001,-45.7977 62.5,-55.7977 66.0001,-45.7978 59.0001,-45.7977"/>
</g>
<!-- Node3 -->
<g id="node3" class="node">
<title>Node3</title>
<g id="a_node3"><a xlink:href="../../d6/d49/class_definition_context.html" target="_top" xlink:title=" ">
<polygon fill="#ffffff" stroke="#666666" points="120.5,-152 4.5,-152 4.5,-133 120.5,-133 120.5,-152"/>
<text text-anchor="middle" x="62.5" y="-140" font-family="Helvetica,sans-Serif" font-size="10.00" fill="#000000">DefinitionContext&lt; T &gt;</text>
</a>
</g>
</g>
<!-- Node3&#45;&gt;Node2 -->
<g id="edge2" class="edge">
<title>Node3&#45;&gt;Node2</title>
<path fill="none" stroke="#ffa500" stroke-dasharray="5,2" d="M62.5,-122.5057C62.5,-111.0142 62.5,-96.8078 62.5,-86.2276"/>
<polygon fill="#ffa500" stroke="#ffa500" points="59.0001,-122.8572 62.5,-132.8572 66.0001,-122.8572 59.0001,-122.8572"/>
<text text-anchor="middle" x="121.5" y="-107" font-family="Helvetica,sans-Serif" font-size="10.00" fill="#000000"> &lt; ClassContext::Private &gt;</text>
</g>
</g>
</svg>
