<?xml version="1.0" encoding="UTF-8" standalone="no"?>
<!DOCTYPE svg PUBLIC "-//W3C//DTD SVG 1.1//EN"
 "http://www.w3.org/Graphics/SVG/1.1/DTD/svg11.dtd">
<!-- Generated by graphviz version 2.40.1 (20161225.0304)
 -->
<!-- Title: BodyInfo Pages: 1 -->
<svg width="176pt" height="149pt"
 viewBox="0.00 0.00 176.00 149.00" xmlns="http://www.w3.org/2000/svg" xmlns:xlink="http://www.w3.org/1999/xlink">
<g id="graph0" class="graph" transform="scale(1 1) rotate(0) translate(4 145)">
<title>BodyInfo</title>
<!-- Node1 -->
<g id="node1" class="node">
<title>Node1</title>
<g id="a_node1"><a xlink:title="Data associated with description found in the body.">
<polygon fill="#999999" stroke="#666666" points="120,-19 64,-19 64,0 120,0 120,-19"/>
<text text-anchor="middle" x="92" y="-7" font-family="Helvetica,sans-Serif" font-size="10.00" fill="#000000">BodyInfo</text>
</a>
</g>
</g>
<!-- Node2 -->
<g id="node2" class="node">
<title>Node2</title>
<g id="a_node2"><a xlink:href="../../de/db0/class_file_def.html" target="_top" xlink:title="A model of a file symbol.">
<polygon fill="#ffffff" stroke="#666666" points="116,-85 68,-85 68,-66 116,-66 116,-85"/>
<text text-anchor="middle" x="92" y="-73" font-family="Helvetica,sans-Serif" font-size="10.00" fill="#000000">FileDef</text>
</a>
</g>
</g>
<!-- Node2&#45;&gt;Node1 -->
<g id="edge1" class="edge">
<title>Node2&#45;&gt;Node1</title>
<path fill="none" stroke="#9a32cd" stroke-dasharray="5,2" d="M92,-55.732C92,-43.6966 92,-28.847 92,-19.2785"/>
<polygon fill="#9a32cd" stroke="#9a32cd" points="88.5001,-55.7614 92,-65.7615 95.5001,-55.7615 88.5001,-55.7614"/>
<text text-anchor="middle" x="108" y="-40" font-family="Helvetica,sans-Serif" font-size="10.00" fill="#000000"> fileDef</text>
</g>
<!-- Node3 -->
<g id="node3" class="node">
<title>Node3</title>
<g id="a_node3"><a xlink:href="../../d0/d46/class_definition_mutable.html" target="_top" xlink:title=" ">
<polygon fill="#ffffff" stroke="#666666" points="92,-141 0,-141 0,-122 92,-122 92,-141"/>
<text text-anchor="middle" x="46" y="-129" font-family="Helvetica,sans-Serif" font-size="10.00" fill="#000000">DefinitionMutable</text>
</a>
</g>
</g>
<!-- Node3&#45;&gt;Node2 -->
<g id="edge2" class="edge">
<title>Node3&#45;&gt;Node2</title>
<path fill="none" stroke="#63b8ff" d="M60.3747,-114.0004C68.1971,-104.4775 77.576,-93.0596 84.0792,-85.1427"/>
<polygon fill="#63b8ff" stroke="#63b8ff" points="57.6555,-111.7967 54.0126,-121.7455 63.0646,-116.2399 57.6555,-111.7967"/>
</g>
<!-- Node4 -->
<g id="node4" class="node">
<title>Node4</title>
<g id="a_node4"><a xlink:href="../../d5/dcc/class_definition.html" target="_top" xlink:title="The common base class of all entity definitions found in the sources.">
<polygon fill="#ffffff" stroke="#666666" points="168,-141 110,-141 110,-122 168,-122 168,-141"/>
<text text-anchor="middle" x="139" y="-129" font-family="Helvetica,sans-Serif" font-size="10.00" fill="#000000">Definition</text>
</a>
</g>
</g>
<!-- Node4&#45;&gt;Node2 -->
<g id="edge3" class="edge">
<title>Node4&#45;&gt;Node2</title>
<path fill="none" stroke="#63b8ff" d="M124.3128,-114.0004C116.3204,-104.4775 106.7375,-93.0596 100.093,-85.1427"/>
<polygon fill="#63b8ff" stroke="#63b8ff" points="121.7036,-116.3358 130.8132,-121.7455 127.0654,-111.8357 121.7036,-116.3358"/>
</g>
</g>
</svg>
