<?xml version="1.0" encoding="UTF-8" standalone="no"?>
<!DOCTYPE svg PUBLIC "-//W3C//DTD SVG 1.1//EN"
 "http://www.w3.org/Graphics/SVG/1.1/DTD/svg11.dtd">
<!-- Generated by graphviz version 2.40.1 (20161225.0304)
 -->
<!-- Title: src/dotattributes.h Pages: 1 -->
<svg width="851pt" height="192pt"
 viewBox="0.00 0.00 851.00 192.00" xmlns="http://www.w3.org/2000/svg" xmlns:xlink="http://www.w3.org/1999/xlink">
<g id="graph0" class="graph" transform="scale(1 1) rotate(0) translate(4 188)">
<title>src/dotattributes.h</title>
<!-- Node1 -->
<g id="node1" class="node">
<title>Node1</title>
<g id="a_node1"><a xlink:title=" ">
<polygon fill="#999999" stroke="#666666" points="168,-184 73,-184 73,-165 168,-165 168,-184"/>
<text text-anchor="middle" x="120.5" y="-172" font-family="Helvetica,sans-Serif" font-size="10.00" fill="#000000">src/dotattributes.h</text>
</a>
</g>
</g>
<!-- Node2 -->
<g id="node2" class="node">
<title>Node2</title>
<g id="a_node2"><a xlink:title=" ">
<polygon fill="#e0e0e0" stroke="#999999" points="35,-129 0,-129 0,-110 35,-110 35,-129"/>
<text text-anchor="middle" x="17.5" y="-117" font-family="Helvetica,sans-Serif" font-size="10.00" fill="#000000">map</text>
</a>
</g>
</g>
<!-- Node1&#45;&gt;Node2 -->
<g id="edge1" class="edge">
<title>Node1&#45;&gt;Node2</title>
<path fill="none" stroke="#63b8ff" d="M102.5588,-164.9197C86.46,-156.3233 62.6121,-143.589 44.2609,-133.7898"/>
<polygon fill="#63b8ff" stroke="#63b8ff" points="45.7054,-130.5935 35.2356,-128.9705 42.4082,-136.7683 45.7054,-130.5935"/>
</g>
<!-- Node3 -->
<g id="node3" class="node">
<title>Node3</title>
<g id="a_node3"><a xlink:title=" ">
<polygon fill="#e0e0e0" stroke="#999999" points="339,-19 298,-19 298,0 339,0 339,-19"/>
<text text-anchor="middle" x="318.5" y="-7" font-family="Helvetica,sans-Serif" font-size="10.00" fill="#000000">string</text>
</a>
</g>
</g>
<!-- Node1&#45;&gt;Node3 -->
<g id="edge2" class="edge">
<title>Node1&#45;&gt;Node3</title>
<path fill="none" stroke="#63b8ff" d="M112.1339,-164.9951C93.9551,-143.1674 54.6407,-88.7436 82.5,-55 108.1972,-23.8752 229.8309,-13.8082 287.7276,-10.747"/>
<polygon fill="#63b8ff" stroke="#63b8ff" points="287.9431,-14.2408 297.759,-10.2535 287.599,-7.2492 287.9431,-14.2408"/>
</g>
<!-- Node4 -->
<g id="node4" class="node">
<title>Node4</title>
<g id="a_node4"><a xlink:href="../../d1/d21/regex_8h.html" target="_top" xlink:title=" ">
<polygon fill="#ffffff" stroke="#666666" points="202,-129 153,-129 153,-110 202,-110 202,-129"/>
<text text-anchor="middle" x="177.5" y="-117" font-family="Helvetica,sans-Serif" font-size="10.00" fill="#000000">regex.h</text>
</a>
</g>
</g>
<!-- Node1&#45;&gt;Node4 -->
<g id="edge3" class="edge">
<title>Node1&#45;&gt;Node4</title>
<path fill="none" stroke="#63b8ff" d="M130.4286,-164.9197C138.5831,-157.0514 150.3303,-145.7164 160.0492,-136.3385"/>
<polygon fill="#63b8ff" stroke="#63b8ff" points="162.5354,-138.8032 167.3013,-129.3408 157.6748,-133.7659 162.5354,-138.8032"/>
</g>
<!-- Node8 -->
<g id="node8" class="node">
<title>Node8</title>
<g id="a_node8"><a xlink:href="../../d7/d5c/qcstring_8h.html" target="_top" xlink:title=" ">
<polygon fill="#ffffff" stroke="#666666" points="574,-129 515,-129 515,-110 574,-110 574,-129"/>
<text text-anchor="middle" x="544.5" y="-117" font-family="Helvetica,sans-Serif" font-size="10.00" fill="#000000">qcstring.h</text>
</a>
</g>
</g>
<!-- Node1&#45;&gt;Node8 -->
<g id="edge8" class="edge">
<title>Node1&#45;&gt;Node8</title>
<path fill="none" stroke="#63b8ff" d="M168.314,-168.2977C252.7764,-157.3415 426.8268,-134.7642 504.983,-124.626"/>
<polygon fill="#63b8ff" stroke="#63b8ff" points="505.4468,-128.0953 514.9135,-123.3379 504.5463,-121.1534 505.4468,-128.0953"/>
</g>
<!-- Node4&#45;&gt;Node3 -->
<g id="edge5" class="edge">
<title>Node4&#45;&gt;Node3</title>
<path fill="none" stroke="#63b8ff" d="M202.3764,-113.2476C224.8795,-106.5741 257.8637,-94.1431 280.5,-74 294.5633,-61.4857 304.8774,-42.4844 311.1829,-28.3429"/>
<polygon fill="#63b8ff" stroke="#63b8ff" points="314.4329,-29.643 315.0621,-19.0668 307.9749,-26.9422 314.4329,-29.643"/>
</g>
<!-- Node5 -->
<g id="node5" class="node">
<title>Node5</title>
<g id="a_node5"><a xlink:title=" ">
<polygon fill="#e0e0e0" stroke="#999999" points="271.5,-74 219.5,-74 219.5,-55 271.5,-55 271.5,-74"/>
<text text-anchor="middle" x="245.5" y="-62" font-family="Helvetica,sans-Serif" font-size="10.00" fill="#000000">memory</text>
</a>
</g>
</g>
<!-- Node4&#45;&gt;Node5 -->
<g id="edge4" class="edge">
<title>Node4&#45;&gt;Node5</title>
<path fill="none" stroke="#63b8ff" d="M189.3447,-109.9197C199.2655,-101.8956 213.6438,-90.2661 225.3674,-80.7837"/>
<polygon fill="#63b8ff" stroke="#63b8ff" points="227.7591,-83.3509 233.3332,-74.3408 223.357,-77.9083 227.7591,-83.3509"/>
</g>
<!-- Node6 -->
<g id="node6" class="node">
<title>Node6</title>
<g id="a_node6"><a xlink:title=" ">
<polygon fill="#e0e0e0" stroke="#999999" points="135.5,-74 91.5,-74 91.5,-55 135.5,-55 135.5,-74"/>
<text text-anchor="middle" x="113.5" y="-62" font-family="Helvetica,sans-Serif" font-size="10.00" fill="#000000">vector</text>
</a>
</g>
</g>
<!-- Node4&#45;&gt;Node6 -->
<g id="edge6" class="edge">
<title>Node4&#45;&gt;Node6</title>
<path fill="none" stroke="#63b8ff" d="M166.3521,-109.9197C157.1055,-101.9735 143.7447,-90.4916 132.7704,-81.0605"/>
<polygon fill="#63b8ff" stroke="#63b8ff" points="134.8166,-78.2041 124.9511,-74.3408 130.2542,-83.513 134.8166,-78.2041"/>
</g>
<!-- Node7 -->
<g id="node7" class="node">
<title>Node7</title>
<g id="a_node7"><a xlink:title=" ">
<polygon fill="#e0e0e0" stroke="#999999" points="201,-74 154,-74 154,-55 201,-55 201,-74"/>
<text text-anchor="middle" x="177.5" y="-62" font-family="Helvetica,sans-Serif" font-size="10.00" fill="#000000">iterator</text>
</a>
</g>
</g>
<!-- Node4&#45;&gt;Node7 -->
<g id="edge7" class="edge">
<title>Node4&#45;&gt;Node7</title>
<path fill="none" stroke="#63b8ff" d="M177.5,-109.9197C177.5,-102.9083 177.5,-93.1442 177.5,-84.4652"/>
<polygon fill="#63b8ff" stroke="#63b8ff" points="181.0001,-84.3408 177.5,-74.3408 174.0001,-84.3409 181.0001,-84.3408"/>
</g>
<!-- Node8&#45;&gt;Node3 -->
<g id="edge9" class="edge">
<title>Node8&#45;&gt;Node3</title>
<path fill="none" stroke="#63b8ff" d="M514.8969,-115.2105C468.5211,-108.0226 381.4536,-92.4987 356.5,-74 341.2092,-62.6646 330.977,-43.1893 325.0199,-28.5973"/>
<polygon fill="#63b8ff" stroke="#63b8ff" points="328.2168,-27.1543 321.4266,-19.0214 321.663,-29.6136 328.2168,-27.1543"/>
</g>
<!-- Node9 -->
<g id="node9" class="node">
<title>Node9</title>
<g id="a_node9"><a xlink:title=" ">
<polygon fill="#e0e0e0" stroke="#999999" points="653.5,-74 597.5,-74 597.5,-55 653.5,-55 653.5,-74"/>
<text text-anchor="middle" x="625.5" y="-62" font-family="Helvetica,sans-Serif" font-size="10.00" fill="#000000">algorithm</text>
</a>
</g>
</g>
<!-- Node8&#45;&gt;Node9 -->
<g id="edge10" class="edge">
<title>Node8&#45;&gt;Node9</title>
<path fill="none" stroke="#63b8ff" d="M558.6091,-109.9197C570.8458,-101.6109 588.7756,-89.4363 602.9926,-79.7828"/>
<polygon fill="#63b8ff" stroke="#63b8ff" points="604.9738,-82.6682 611.2808,-74.155 601.0416,-76.877 604.9738,-82.6682"/>
</g>
<!-- Node10 -->
<g id="node10" class="node">
<title>Node10</title>
<g id="a_node10"><a xlink:title=" ">
<polygon fill="#e0e0e0" stroke="#999999" points="717.5,-74 671.5,-74 671.5,-55 717.5,-55 717.5,-74"/>
<text text-anchor="middle" x="694.5" y="-62" font-family="Helvetica,sans-Serif" font-size="10.00" fill="#000000">cctype</text>
</a>
</g>
</g>
<!-- Node8&#45;&gt;Node10 -->
<g id="edge11" class="edge">
<title>Node8&#45;&gt;Node10</title>
<path fill="none" stroke="#63b8ff" d="M570.628,-109.9197C595.8958,-100.6549 634.2721,-86.5836 661.6078,-76.5605"/>
<polygon fill="#63b8ff" stroke="#63b8ff" points="662.9507,-79.796 671.1346,-73.0673 660.5409,-73.2239 662.9507,-79.796"/>
</g>
<!-- Node11 -->
<g id="node11" class="node">
<title>Node11</title>
<g id="a_node11"><a xlink:title=" ">
<polygon fill="#e0e0e0" stroke="#999999" points="781.5,-74 735.5,-74 735.5,-55 781.5,-55 781.5,-74"/>
<text text-anchor="middle" x="758.5" y="-62" font-family="Helvetica,sans-Serif" font-size="10.00" fill="#000000">cstring</text>
</a>
</g>
</g>
<!-- Node8&#45;&gt;Node11 -->
<g id="edge12" class="edge">
<title>Node8&#45;&gt;Node11</title>
<path fill="none" stroke="#63b8ff" d="M574.2359,-112.4873C608.4523,-104.3261 666.5479,-90.1893 725.5958,-74.1633"/>
<polygon fill="#63b8ff" stroke="#63b8ff" points="726.737,-77.4799 735.4623,-71.4699 724.8935,-70.727 726.737,-77.4799"/>
</g>
<!-- Node12 -->
<g id="node12" class="node">
<title>Node12</title>
<g id="a_node12"><a xlink:title=" ">
<polygon fill="#e0e0e0" stroke="#999999" points="843,-74 800,-74 800,-55 843,-55 843,-74"/>
<text text-anchor="middle" x="821.5" y="-62" font-family="Helvetica,sans-Serif" font-size="10.00" fill="#000000">cstdio</text>
</a>
</g>
</g>
<!-- Node8&#45;&gt;Node12 -->
<g id="edge13" class="edge">
<title>Node8&#45;&gt;Node12</title>
<path fill="none" stroke="#63b8ff" d="M574.269,-115.1219C618.9939,-108.3012 706.317,-94.0437 789.9889,-73.8846"/>
<polygon fill="#63b8ff" stroke="#63b8ff" points="791.0233,-77.2349 799.9075,-71.4624 789.3626,-70.4347 791.0233,-77.2349"/>
</g>
<!-- Node13 -->
<g id="node13" class="node">
<title>Node13</title>
<g id="a_node13"><a xlink:title=" ">
<polygon fill="#e0e0e0" stroke="#999999" points="411,-74 366,-74 366,-55 411,-55 411,-74"/>
<text text-anchor="middle" x="388.5" y="-62" font-family="Helvetica,sans-Serif" font-size="10.00" fill="#000000">cstdlib</text>
</a>
</g>
</g>
<!-- Node8&#45;&gt;Node13 -->
<g id="edge14" class="edge">
<title>Node8&#45;&gt;Node13</title>
<path fill="none" stroke="#63b8ff" d="M517.3269,-109.9197C490.4646,-100.449 449.357,-85.956 420.8305,-75.8986"/>
<polygon fill="#63b8ff" stroke="#63b8ff" points="421.9038,-72.5659 411.309,-72.5416 419.5762,-79.1676 421.9038,-72.5659"/>
</g>
<!-- Node14 -->
<g id="node14" class="node">
<title>Node14</title>
<g id="a_node14"><a xlink:title=" ">
<polygon fill="#e0e0e0" stroke="#999999" points="567.5,-19 521.5,-19 521.5,0 567.5,0 567.5,-19"/>
<text text-anchor="middle" x="544.5" y="-7" font-family="Helvetica,sans-Serif" font-size="10.00" fill="#000000">cstdint</text>
</a>
</g>
</g>
<!-- Node8&#45;&gt;Node14 -->
<g id="edge15" class="edge">
<title>Node8&#45;&gt;Node14</title>
<path fill="none" stroke="#63b8ff" d="M546.347,-109.8966C548.5494,-97.3065 551.7819,-74.5265 550.5,-55 549.9466,-46.5699 548.8223,-37.3176 547.695,-29.3703"/>
<polygon fill="#63b8ff" stroke="#63b8ff" points="551.1167,-28.5897 546.1586,-19.2266 544.1957,-29.638 551.1167,-28.5897"/>
</g>
<!-- Node15 -->
<g id="node15" class="node">
<title>Node15</title>
<g id="a_node15"><a xlink:title=" ">
<polygon fill="#e0e0e0" stroke="#999999" points="481.5,-74 429.5,-74 429.5,-55 481.5,-55 481.5,-74"/>
<text text-anchor="middle" x="455.5" y="-62" font-family="Helvetica,sans-Serif" font-size="10.00" fill="#000000">ostream</text>
</a>
</g>
</g>
<!-- Node8&#45;&gt;Node15 -->
<g id="edge16" class="edge">
<title>Node8&#45;&gt;Node15</title>
<path fill="none" stroke="#63b8ff" d="M528.9974,-109.9197C515.4253,-101.5325 495.4793,-89.2063 479.7894,-79.5103"/>
<polygon fill="#63b8ff" stroke="#63b8ff" points="481.4703,-76.4347 471.1236,-74.155 477.7904,-82.3894 481.4703,-76.4347"/>
</g>
<!-- Node16 -->
<g id="node16" class="node">
<title>Node16</title>
<g id="a_node16"><a xlink:href="../../db/d7c/utf8_8h.html" target="_top" xlink:title="Various UTF8 related helper functions.">
<polygon fill="#ffffff" stroke="#666666" points="541,-74 500,-74 500,-55 541,-55 541,-74"/>
<text text-anchor="middle" x="520.5" y="-62" font-family="Helvetica,sans-Serif" font-size="10.00" fill="#000000">utf8.h</text>
</a>
</g>
</g>
<!-- Node8&#45;&gt;Node16 -->
<g id="edge17" class="edge">
<title>Node8&#45;&gt;Node16</title>
<path fill="none" stroke="#63b8ff" d="M540.3195,-109.9197C537.158,-102.6746 532.7139,-92.4903 528.835,-83.601"/>
<polygon fill="#63b8ff" stroke="#63b8ff" points="532.0016,-82.1064 524.7942,-74.3408 525.5858,-84.9061 532.0016,-82.1064"/>
</g>
<!-- Node16&#45;&gt;Node3 -->
<g id="edge19" class="edge">
<title>Node16&#45;&gt;Node3</title>
<path fill="none" stroke="#63b8ff" d="M499.8829,-57.8279C496.747,-56.8547 493.5429,-55.8837 490.5,-55 441.3063,-40.7132 383.6657,-25.8417 349.168,-17.139"/>
<polygon fill="#63b8ff" stroke="#63b8ff" points="349.7914,-13.6869 339.2398,-14.6437 348.085,-20.4757 349.7914,-13.6869"/>
</g>
<!-- Node16&#45;&gt;Node14 -->
<g id="edge18" class="edge">
<title>Node16&#45;&gt;Node14</title>
<path fill="none" stroke="#63b8ff" d="M524.6805,-54.9197C527.842,-47.6746 532.2861,-37.4903 536.165,-28.601"/>
<polygon fill="#63b8ff" stroke="#63b8ff" points="539.4142,-29.9061 540.2058,-19.3408 532.9984,-27.1064 539.4142,-29.9061"/>
</g>
</g>
</svg>
