<?xml version="1.0" encoding="UTF-8" standalone="no"?>
<!DOCTYPE svg PUBLIC "-//W3C//DTD SVG 1.1//EN"
 "http://www.w3.org/Graphics/SVG/1.1/DTD/svg11.dtd">
<!-- Generated by graphviz version 2.43.0 (0)
 -->
<!-- Title: src/plantuml.h Pages: 1 -->
<svg width="1062pt" height="192pt"
 viewBox="0.00 0.00 1062.00 192.00" xmlns="http://www.w3.org/2000/svg" xmlns:xlink="http://www.w3.org/1999/xlink">
<g id="graph0" class="graph" transform="scale(1 1) rotate(0) translate(4 188)">
<title>src/plantuml.h</title>
<!-- Node1 -->
<g id="node1" class="node">
<title>Node1</title>
<g id="a_node1"><a xlink:title=" ">
<polygon fill="#999999" stroke="#666666" points="155.5,-184 69.5,-184 69.5,-165 155.5,-165 155.5,-184"/>
<text text-anchor="middle" x="112.5" y="-172" font-family="Helvetica,sans-Serif" font-size="10.00">src/plantuml.h</text>
</a>
</g>
</g>
<!-- Node2 -->
<g id="node2" class="node">
<title>Node2</title>
<g id="a_node2"><a xlink:title=" ">
<polygon fill="#e0e0e0" stroke="#999999" points="56.5,-74 18.5,-74 18.5,-55 56.5,-55 56.5,-74"/>
<text text-anchor="middle" x="37.5" y="-62" font-family="Helvetica,sans-Serif" font-size="10.00">map</text>
</a>
</g>
</g>
<!-- Node1&#45;&gt;Node2 -->
<g id="edge1" class="edge">
<title>Node1&#45;&gt;Node2</title>
<path fill="none" stroke="#63b8ff" d="M106.36,-164.66C93.88,-146.69 65.37,-105.64 49.22,-82.38"/>
<polygon fill="#63b8ff" stroke="#63b8ff" points="52.09,-80.38 43.51,-74.16 46.34,-84.37 52.09,-80.38"/>
</g>
<!-- Node3 -->
<g id="node3" class="node">
<title>Node3</title>
<g id="a_node3"><a xlink:title=" ">
<polygon fill="#e0e0e0" stroke="#999999" points="442.5,-19 398.5,-19 398.5,0 442.5,0 442.5,-19"/>
<text text-anchor="middle" x="420.5" y="-7" font-family="Helvetica,sans-Serif" font-size="10.00">string</text>
</a>
</g>
</g>
<!-- Node1&#45;&gt;Node3 -->
<g id="edge2" class="edge">
<title>Node1&#45;&gt;Node3</title>
<path fill="none" stroke="#63b8ff" d="M94.93,-164.94C56.85,-145.32 -27.01,-95.67 9.5,-55 34.69,-26.94 295.55,-14.96 388.13,-11.57"/>
<polygon fill="#63b8ff" stroke="#63b8ff" points="388.44,-15.06 398.31,-11.21 388.19,-8.06 388.44,-15.06"/>
</g>
<!-- Node4 -->
<g id="node4" class="node">
<title>Node4</title>
<g id="a_node4"><a xlink:href="../../d5/d75/containers_8h.html" target="_top" xlink:title=" ">
<polygon fill="white" stroke="#666666" points="211,-129 134,-129 134,-110 211,-110 211,-129"/>
<text text-anchor="middle" x="172.5" y="-117" font-family="Helvetica,sans-Serif" font-size="10.00">containers.h</text>
</a>
</g>
</g>
<!-- Node1&#45;&gt;Node4 -->
<g id="edge3" class="edge">
<title>Node1&#45;&gt;Node4</title>
<path fill="none" stroke="#63b8ff" d="M122.14,-164.98C131.01,-157.15 144.37,-145.34 155.11,-135.86"/>
<polygon fill="#63b8ff" stroke="#63b8ff" points="157.51,-138.41 162.68,-129.17 152.87,-133.17 157.51,-138.41"/>
</g>
<!-- Node10 -->
<g id="node10" class="node">
<title>Node10</title>
<g id="a_node10"><a xlink:href="../../d7/d5c/qcstring_8h.html" target="_top" xlink:title=" ">
<polygon fill="white" stroke="#666666" points="782,-129 717,-129 717,-110 782,-110 782,-129"/>
<text text-anchor="middle" x="749.5" y="-117" font-family="Helvetica,sans-Serif" font-size="10.00">qcstring.h</text>
</a>
</g>
</g>
<!-- Node1&#45;&gt;Node10 -->
<g id="edge11" class="edge">
<title>Node1&#45;&gt;Node10</title>
<path fill="none" stroke="#63b8ff" d="M155.78,-169.9C272.14,-160.22 590.69,-133.71 706.6,-124.07"/>
<polygon fill="#63b8ff" stroke="#63b8ff" points="707.17,-127.53 716.85,-123.22 706.59,-120.56 707.17,-127.53"/>
</g>
<!-- Node4&#45;&gt;Node2 -->
<g id="edge7" class="edge">
<title>Node4&#45;&gt;Node2</title>
<path fill="none" stroke="#63b8ff" d="M150.81,-109.98C127.78,-100.94 91.28,-86.61 65.95,-76.67"/>
<polygon fill="#63b8ff" stroke="#63b8ff" points="67.1,-73.36 56.52,-72.97 64.55,-79.88 67.1,-73.36"/>
</g>
<!-- Node4&#45;&gt;Node3 -->
<g id="edge5" class="edge">
<title>Node4&#45;&gt;Node3</title>
<path fill="none" stroke="#63b8ff" d="M168.03,-109.96C161.73,-96.59 152.37,-70.62 165.5,-55 193.59,-21.59 325.88,-13.26 388.06,-11.19"/>
<polygon fill="#63b8ff" stroke="#63b8ff" points="388.22,-14.68 398.11,-10.89 388.01,-7.69 388.22,-14.68"/>
</g>
<!-- Node5 -->
<g id="node5" class="node">
<title>Node5</title>
<g id="a_node5"><a xlink:title=" ">
<polygon fill="#e0e0e0" stroke="#999999" points="222,-74 175,-74 175,-55 222,-55 222,-74"/>
<text text-anchor="middle" x="198.5" y="-62" font-family="Helvetica,sans-Serif" font-size="10.00">vector</text>
</a>
</g>
</g>
<!-- Node4&#45;&gt;Node5 -->
<g id="edge4" class="edge">
<title>Node4&#45;&gt;Node5</title>
<path fill="none" stroke="#63b8ff" d="M176.79,-109.75C180.31,-102.57 185.41,-92.18 189.78,-83.27"/>
<polygon fill="#63b8ff" stroke="#63b8ff" points="193.02,-84.61 194.29,-74.09 186.74,-81.53 193.02,-84.61"/>
</g>
<!-- Node6 -->
<g id="node6" class="node">
<title>Node6</title>
<g id="a_node6"><a xlink:title=" ">
<polygon fill="#e0e0e0" stroke="#999999" points="272.5,-74 240.5,-74 240.5,-55 272.5,-55 272.5,-74"/>
<text text-anchor="middle" x="256.5" y="-62" font-family="Helvetica,sans-Serif" font-size="10.00">set</text>
</a>
</g>
</g>
<!-- Node4&#45;&gt;Node6 -->
<g id="edge6" class="edge">
<title>Node4&#45;&gt;Node6</title>
<path fill="none" stroke="#63b8ff" d="M185.99,-109.98C198.9,-101.84 218.6,-89.41 233.9,-79.76"/>
<polygon fill="#63b8ff" stroke="#63b8ff" points="236.17,-82.47 242.76,-74.17 232.43,-76.55 236.17,-82.47"/>
</g>
<!-- Node7 -->
<g id="node7" class="node">
<title>Node7</title>
<g id="a_node7"><a xlink:title=" ">
<polygon fill="#e0e0e0" stroke="#999999" points="376.5,-74 290.5,-74 290.5,-55 376.5,-55 376.5,-74"/>
<text text-anchor="middle" x="333.5" y="-62" font-family="Helvetica,sans-Serif" font-size="10.00">unordered_set</text>
</a>
</g>
</g>
<!-- Node4&#45;&gt;Node7 -->
<g id="edge8" class="edge">
<title>Node4&#45;&gt;Node7</title>
<path fill="none" stroke="#63b8ff" d="M198.37,-109.98C225.28,-101.13 267.62,-87.19 297.73,-77.28"/>
<polygon fill="#63b8ff" stroke="#63b8ff" points="299.02,-80.53 307.43,-74.08 296.84,-73.88 299.02,-80.53"/>
</g>
<!-- Node8 -->
<g id="node8" class="node">
<title>Node8</title>
<g id="a_node8"><a xlink:title=" ">
<polygon fill="#e0e0e0" stroke="#999999" points="488,-74 395,-74 395,-55 488,-55 488,-74"/>
<text text-anchor="middle" x="441.5" y="-62" font-family="Helvetica,sans-Serif" font-size="10.00">unordered_map</text>
</a>
</g>
</g>
<!-- Node4&#45;&gt;Node8 -->
<g id="edge9" class="edge">
<title>Node4&#45;&gt;Node8</title>
<path fill="none" stroke="#63b8ff" d="M211.04,-110.91C257.48,-101.76 335.78,-86.33 388.04,-76.03"/>
<polygon fill="#63b8ff" stroke="#63b8ff" points="388.99,-79.41 398.13,-74.05 387.64,-72.54 388.99,-79.41"/>
</g>
<!-- Node9 -->
<g id="node9" class="node">
<title>Node9</title>
<g id="a_node9"><a xlink:title=" ">
<polygon fill="#e0e0e0" stroke="#999999" points="118,-74 75,-74 75,-55 118,-55 118,-74"/>
<text text-anchor="middle" x="96.5" y="-62" font-family="Helvetica,sans-Serif" font-size="10.00">stack</text>
</a>
</g>
</g>
<!-- Node4&#45;&gt;Node9 -->
<g id="edge10" class="edge">
<title>Node4&#45;&gt;Node9</title>
<path fill="none" stroke="#63b8ff" d="M160.29,-109.98C148.72,-101.92 131.12,-89.65 117.34,-80.03"/>
<polygon fill="#63b8ff" stroke="#63b8ff" points="119.14,-77.02 108.93,-74.17 115.13,-82.76 119.14,-77.02"/>
</g>
<!-- Node10&#45;&gt;Node3 -->
<g id="edge12" class="edge">
<title>Node10&#45;&gt;Node3</title>
<path fill="none" stroke="#63b8ff" d="M716.92,-114.73C674.41,-109.13 598.17,-96.75 536.5,-74 518.02,-67.18 472.19,-40.97 443.98,-24.43"/>
<polygon fill="#63b8ff" stroke="#63b8ff" points="445.55,-21.29 435.16,-19.23 442,-27.32 445.55,-21.29"/>
</g>
<!-- Node11 -->
<g id="node11" class="node">
<title>Node11</title>
<g id="a_node11"><a xlink:title=" ">
<polygon fill="#e0e0e0" stroke="#999999" points="672.5,-74 608.5,-74 608.5,-55 672.5,-55 672.5,-74"/>
<text text-anchor="middle" x="640.5" y="-62" font-family="Helvetica,sans-Serif" font-size="10.00">algorithm</text>
</a>
</g>
</g>
<!-- Node10&#45;&gt;Node11 -->
<g id="edge13" class="edge">
<title>Node10&#45;&gt;Node11</title>
<path fill="none" stroke="#63b8ff" d="M731.99,-109.98C714.53,-101.5 687.49,-88.35 667.33,-78.54"/>
<polygon fill="#63b8ff" stroke="#63b8ff" points="668.85,-75.4 658.33,-74.17 665.79,-81.69 668.85,-75.4"/>
</g>
<!-- Node12 -->
<g id="node12" class="node">
<title>Node12</title>
<g id="a_node12"><a xlink:title=" ">
<polygon fill="#e0e0e0" stroke="#999999" points="740,-74 691,-74 691,-55 740,-55 740,-74"/>
<text text-anchor="middle" x="715.5" y="-62" font-family="Helvetica,sans-Serif" font-size="10.00">cctype</text>
</a>
</g>
</g>
<!-- Node10&#45;&gt;Node12 -->
<g id="edge14" class="edge">
<title>Node10&#45;&gt;Node12</title>
<path fill="none" stroke="#63b8ff" d="M743.88,-109.75C739.18,-102.42 732.33,-91.73 726.53,-82.7"/>
<polygon fill="#63b8ff" stroke="#63b8ff" points="729.35,-80.62 721.01,-74.09 723.46,-84.4 729.35,-80.62"/>
</g>
<!-- Node13 -->
<g id="node13" class="node">
<title>Node13</title>
<g id="a_node13"><a xlink:title=" ">
<polygon fill="#e0e0e0" stroke="#999999" points="808.5,-74 758.5,-74 758.5,-55 808.5,-55 808.5,-74"/>
<text text-anchor="middle" x="783.5" y="-62" font-family="Helvetica,sans-Serif" font-size="10.00">cstring</text>
</a>
</g>
</g>
<!-- Node10&#45;&gt;Node13 -->
<g id="edge15" class="edge">
<title>Node10&#45;&gt;Node13</title>
<path fill="none" stroke="#63b8ff" d="M755.11,-109.75C759.82,-102.42 766.67,-91.73 772.47,-82.7"/>
<polygon fill="#63b8ff" stroke="#63b8ff" points="775.54,-84.4 777.99,-74.09 769.64,-80.62 775.54,-84.4"/>
</g>
<!-- Node14 -->
<g id="node14" class="node">
<title>Node14</title>
<g id="a_node14"><a xlink:title=" ">
<polygon fill="#e0e0e0" stroke="#999999" points="872.5,-74 826.5,-74 826.5,-55 872.5,-55 872.5,-74"/>
<text text-anchor="middle" x="849.5" y="-62" font-family="Helvetica,sans-Serif" font-size="10.00">cstdio</text>
</a>
</g>
</g>
<!-- Node10&#45;&gt;Node14 -->
<g id="edge16" class="edge">
<title>Node10&#45;&gt;Node14</title>
<path fill="none" stroke="#63b8ff" d="M765.57,-109.98C781.36,-101.61 805.72,-88.7 824.13,-78.95"/>
<polygon fill="#63b8ff" stroke="#63b8ff" points="825.94,-81.95 833.14,-74.17 822.66,-75.76 825.94,-81.95"/>
</g>
<!-- Node15 -->
<g id="node15" class="node">
<title>Node15</title>
<g id="a_node15"><a xlink:title=" ">
<polygon fill="#e0e0e0" stroke="#999999" points="940,-74 891,-74 891,-55 940,-55 940,-74"/>
<text text-anchor="middle" x="915.5" y="-62" font-family="Helvetica,sans-Serif" font-size="10.00">cstdlib</text>
</a>
</g>
</g>
<!-- Node10&#45;&gt;Node15 -->
<g id="edge17" class="edge">
<title>Node10&#45;&gt;Node15</title>
<path fill="none" stroke="#63b8ff" d="M776.17,-109.98C804.7,-100.88 850.05,-86.4 881.21,-76.45"/>
<polygon fill="#63b8ff" stroke="#63b8ff" points="882.33,-79.76 890.79,-73.39 880.2,-73.1 882.33,-79.76"/>
</g>
<!-- Node16 -->
<g id="node16" class="node">
<title>Node16</title>
<g id="a_node16"><a xlink:title=" ">
<polygon fill="#e0e0e0" stroke="#999999" points="688.5,-19 638.5,-19 638.5,0 688.5,0 688.5,-19"/>
<text text-anchor="middle" x="663.5" y="-7" font-family="Helvetica,sans-Serif" font-size="10.00">cstdint</text>
</a>
</g>
</g>
<!-- Node10&#45;&gt;Node16 -->
<g id="edge18" class="edge">
<title>Node10&#45;&gt;Node16</title>
<path fill="none" stroke="#63b8ff" d="M782.1,-118.64C850.01,-117.87 996.6,-109.99 949.5,-55 917.62,-17.78 768.27,-11.44 698.98,-10.54"/>
<polygon fill="#63b8ff" stroke="#63b8ff" points="698.61,-7.03 688.57,-10.43 698.54,-14.03 698.61,-7.03"/>
</g>
<!-- Node17 -->
<g id="node17" class="node">
<title>Node17</title>
<g id="a_node17"><a xlink:title=" ">
<polygon fill="#e0e0e0" stroke="#999999" points="1054,-74 997,-74 997,-55 1054,-55 1054,-74"/>
<text text-anchor="middle" x="1025.5" y="-62" font-family="Helvetica,sans-Serif" font-size="10.00">ostream</text>
</a>
</g>
</g>
<!-- Node10&#45;&gt;Node17 -->
<g id="edge19" class="edge">
<title>Node10&#45;&gt;Node17</title>
<path fill="none" stroke="#63b8ff" d="M782.31,-112.3C827.43,-103.76 911.15,-87.87 982.5,-74 983.95,-73.72 985.42,-73.43 986.91,-73.14"/>
<polygon fill="#63b8ff" stroke="#63b8ff" points="987.68,-76.56 996.82,-71.2 986.34,-69.69 987.68,-76.56"/>
</g>
<!-- Node18 -->
<g id="node18" class="node">
<title>Node18</title>
<g id="a_node18"><a xlink:href="../../db/d7c/utf8_8h.html" target="_top" xlink:title="Various UTF8 related helper functions.">
<polygon fill="white" stroke="#666666" points="590,-74 545,-74 545,-55 590,-55 590,-74"/>
<text text-anchor="middle" x="567.5" y="-62" font-family="Helvetica,sans-Serif" font-size="10.00">utf8.h</text>
</a>
</g>
</g>
<!-- Node10&#45;&gt;Node18 -->
<g id="edge20" class="edge">
<title>Node10&#45;&gt;Node18</title>
<path fill="none" stroke="#63b8ff" d="M720.26,-109.98C687.38,-100.41 634.15,-84.91 600,-74.96"/>
<polygon fill="#63b8ff" stroke="#63b8ff" points="600.64,-71.5 590.06,-72.07 598.68,-78.23 600.64,-71.5"/>
</g>
<!-- Node18&#45;&gt;Node3 -->
<g id="edge22" class="edge">
<title>Node18&#45;&gt;Node3</title>
<path fill="none" stroke="#63b8ff" d="M544.85,-55.33C520.18,-46.44 480.51,-32.14 452.62,-22.08"/>
<polygon fill="#63b8ff" stroke="#63b8ff" points="453.52,-18.69 442.93,-18.59 451.15,-25.27 453.52,-18.69"/>
</g>
<!-- Node18&#45;&gt;Node16 -->
<g id="edge21" class="edge">
<title>Node18&#45;&gt;Node16</title>
<path fill="none" stroke="#63b8ff" d="M582.92,-54.98C597.95,-46.69 621.04,-33.94 638.66,-24.22"/>
<polygon fill="#63b8ff" stroke="#63b8ff" points="640.73,-27.07 647.79,-19.17 637.35,-20.94 640.73,-27.07"/>
</g>
</g>
</svg>
