<?xml version="1.0" encoding="UTF-8" standalone="no"?>
<!DOCTYPE svg PUBLIC "-//W3C//DTD SVG 1.1//EN"
 "http://www.w3.org/Graphics/SVG/1.1/DTD/svg11.dtd">
<!-- Generated by graphviz version 2.40.1 (20161225.0304)
 -->
<!-- Title: TemplateInstanceDef Pages: 1 -->
<svg width="142pt" height="149pt"
 viewBox="0.00 0.00 141.50 149.00" xmlns="http://www.w3.org/2000/svg" xmlns:xlink="http://www.w3.org/1999/xlink">
<g id="graph0" class="graph" transform="scale(1 1) rotate(0) translate(4 145)">
<title>TemplateInstanceDef</title>
<!-- Node1 -->
<g id="node1" class="node">
<title>Node1</title>
<g id="a_node1"><a xlink:title="Class that contains information about a template instance relation.">
<polygon fill="#999999" stroke="#666666" points="119.5,-19 9.5,-19 9.5,0 119.5,0 119.5,-19"/>
<text text-anchor="middle" x="64.5" y="-7" font-family="Helvetica,sans-Serif" font-size="10.00" fill="#000000">TemplateInstanceDef</text>
</a>
</g>
</g>
<!-- Node2 -->
<g id="node2" class="node">
<title>Node2</title>
<g id="a_node2"><a xlink:href="../../d9/d45/class_q_c_string.html" target="_top" xlink:title="This is an alternative implementation of QCString.">
<polygon fill="#ffffff" stroke="#666666" points="57,-85 0,-85 0,-66 57,-66 57,-85"/>
<text text-anchor="middle" x="28.5" y="-73" font-family="Helvetica,sans-Serif" font-size="10.00" fill="#000000">QCString</text>
</a>
</g>
</g>
<!-- Node2&#45;&gt;Node1 -->
<g id="edge1" class="edge">
<title>Node2&#45;&gt;Node1</title>
<path fill="none" stroke="#9a32cd" stroke-dasharray="5,2" d="M26.4585,-55.4452C26.6204,-49.2498 27.651,-42.5906 30.5,-37 34.2228,-29.6947 40.8558,-23.6588 47.2809,-19.1215"/>
<polygon fill="#9a32cd" stroke="#9a32cd" points="22.9757,-55.9236 26.9001,-65.7648 29.9693,-55.6243 22.9757,-55.9236"/>
<text text-anchor="middle" x="55.5" y="-40" font-family="Helvetica,sans-Serif" font-size="10.00" fill="#000000"> templSpec</text>
</g>
<!-- Node3 -->
<g id="node3" class="node">
<title>Node3</title>
<g id="a_node3"><a xlink:href="../../d1/dcf/class_class_def.html" target="_top" xlink:title="A abstract class representing of a compound symbol.">
<polygon fill="#ffffff" stroke="#666666" points="133.5,-85 75.5,-85 75.5,-66 133.5,-66 133.5,-85"/>
<text text-anchor="middle" x="104.5" y="-73" font-family="Helvetica,sans-Serif" font-size="10.00" fill="#000000">ClassDef</text>
</a>
</g>
</g>
<!-- Node3&#45;&gt;Node1 -->
<g id="edge2" class="edge">
<title>Node3&#45;&gt;Node1</title>
<path fill="none" stroke="#9a32cd" stroke-dasharray="5,2" d="M93.4037,-57.1911C85.9652,-44.9176 76.4621,-29.2375 70.4264,-19.2785"/>
<polygon fill="#9a32cd" stroke="#9a32cd" points="90.4216,-59.0236 98.5979,-65.7615 96.408,-55.3954 90.4216,-59.0236"/>
<text text-anchor="middle" x="109" y="-40" font-family="Helvetica,sans-Serif" font-size="10.00" fill="#000000"> classDef</text>
</g>
<!-- Node4 -->
<g id="node4" class="node">
<title>Node4</title>
<g id="a_node4"><a xlink:href="../../d5/dcc/class_definition.html" target="_top" xlink:title="The common base class of all entity definitions found in the sources.">
<polygon fill="#ffffff" stroke="#666666" points="133.5,-141 75.5,-141 75.5,-122 133.5,-122 133.5,-141"/>
<text text-anchor="middle" x="104.5" y="-129" font-family="Helvetica,sans-Serif" font-size="10.00" fill="#000000">Definition</text>
</a>
</g>
</g>
<!-- Node4&#45;&gt;Node3 -->
<g id="edge3" class="edge">
<title>Node4&#45;&gt;Node3</title>
<path fill="none" stroke="#63b8ff" d="M104.5,-111.6575C104.5,-102.655 104.5,-92.4199 104.5,-85.1427"/>
<polygon fill="#63b8ff" stroke="#63b8ff" points="101.0001,-111.7455 104.5,-121.7455 108.0001,-111.7456 101.0001,-111.7455"/>
</g>
</g>
</svg>
