<?xml version="1.0" encoding="UTF-8" standalone="no"?>
<!DOCTYPE svg PUBLIC "-//W3C//DTD SVG 1.1//EN"
 "http://www.w3.org/Graphics/SVG/1.1/DTD/svg11.dtd">
<!-- Generated by graphviz version 2.40.1 (20161225.0304)
 -->
<!-- Title: vhdl::parser::VhdlParserTokenManager Pages: 1 -->
<svg width="1004pt" height="359pt"
 viewBox="0.00 0.00 1004.00 359.00" xmlns="http://www.w3.org/2000/svg" xmlns:xlink="http://www.w3.org/1999/xlink">
<g id="graph0" class="graph" transform="scale(1 1) rotate(0) translate(4 355)">
<title>vhdl::parser::VhdlParserTokenManager</title>
<!-- Node1 -->
<g id="node1" class="node">
<title>Node1</title>
<g id="a_node1"><a xlink:title="Token Manager.">
<polygon fill="#999999" stroke="#666666" points="996,-270.5 874,-270.5 874,-240.5 996,-240.5 996,-270.5"/>
<text text-anchor="start" x="882" y="-258.5" font-family="Helvetica,sans-Serif" font-size="10.00" fill="#000000">vhdl::parser::VhdlParser</text>
<text text-anchor="middle" x="935" y="-247.5" font-family="Helvetica,sans-Serif" font-size="10.00" fill="#000000">TokenManager</text>
</a>
</g>
</g>
<!-- Node2 -->
<g id="node2" class="node">
<title>Node2</title>
<g id="a_node2"><a xlink:href="../../d3/d2c/classvhdl_1_1parser_1_1_token_manager.html" target="_top" xlink:title="An implementation for this interface is generated by JavaCCParser.">
<polygon fill="#ffffff" stroke="#666666" points="344,-351 206,-351 206,-332 344,-332 344,-351"/>
<text text-anchor="middle" x="275" y="-339" font-family="Helvetica,sans-Serif" font-size="10.00" fill="#000000">vhdl::parser::TokenManager</text>
</a>
</g>
</g>
<!-- Node2&#45;&gt;Node1 -->
<g id="edge1" class="edge">
<title>Node2&#45;&gt;Node1</title>
<path fill="none" stroke="#63b8ff" d="M354.5436,-332.8707C380.5205,-329.9821 409.4989,-326.6848 436,-323.5 622.8587,-301.0437 669.9563,-297.9284 856,-269.5 861.783,-268.6163 867.7949,-267.6458 873.8049,-266.6406"/>
<polygon fill="#63b8ff" stroke="#63b8ff" points="353.9238,-329.4178 344.3702,-333.9982 354.695,-336.3752 353.9238,-329.4178"/>
</g>
<!-- Node4 -->
<g id="node4" class="node">
<title>Node4</title>
<g id="a_node4"><a xlink:href="../../de/d32/classvhdl_1_1parser_1_1_vhdl_parser.html" target="_top" xlink:title=" ">
<polygon fill="#ffffff" stroke="#666666" points="576,-194 454,-194 454,-175 576,-175 576,-194"/>
<text text-anchor="middle" x="515" y="-182" font-family="Helvetica,sans-Serif" font-size="10.00" fill="#000000">vhdl::parser::VhdlParser</text>
</a>
</g>
</g>
<!-- Node2&#45;&gt;Node4 -->
<g id="edge4" class="edge">
<title>Node2&#45;&gt;Node4</title>
<path fill="none" stroke="#9a32cd" stroke-dasharray="5,2" d="M329.2121,-328.9907C334.278,-327.3351 339.2787,-325.5065 344,-323.5 352.6286,-319.8329 353.5303,-316.5207 362,-312.5 393.4916,-297.5505 407.7266,-306.8918 436,-286.5 471.7881,-260.6884 499.2782,-214.2003 510.0484,-194.1432"/>
<polygon fill="#9a32cd" stroke="#9a32cd" points="327.9937,-325.7029 319.4458,-331.9628 330.0317,-332.3997 327.9937,-325.7029"/>
<text text-anchor="middle" x="399" y="-315.5" font-family="Helvetica,sans-Serif" font-size="10.00" fill="#000000"> token_source</text>
</g>
<!-- Node3 -->
<g id="node3" class="node">
<title>Node3</title>
<g id="a_node3"><a xlink:href="../../d8/d73/classvhdl_1_1parser_1_1_token_parser.html" target="_top" xlink:title=" ">
<polygon fill="#ffffff" stroke="#666666" points="776.5,-265 647.5,-265 647.5,-246 776.5,-246 776.5,-265"/>
<text text-anchor="middle" x="712" y="-253" font-family="Helvetica,sans-Serif" font-size="10.00" fill="#000000">vhdl::parser::TokenParser</text>
</a>
</g>
</g>
<!-- Node3&#45;&gt;Node1 -->
<g id="edge2" class="edge">
<title>Node3&#45;&gt;Node1</title>
<path fill="none" stroke="#63b8ff" d="M786.7383,-255.5C815.0041,-255.5 846.819,-255.5 873.7093,-255.5"/>
<polygon fill="#63b8ff" stroke="#63b8ff" points="786.5009,-252.0001 776.5008,-255.5 786.5008,-259.0001 786.5009,-252.0001"/>
</g>
<!-- Node4&#45;&gt;Node3 -->
<g id="edge3" class="edge">
<title>Node4&#45;&gt;Node3</title>
<path fill="none" stroke="#9a32cd" stroke-dasharray="5,2" d="M545.6711,-198.1444C571.3648,-209.2866 609.1651,-225.013 643,-236.5 653.0006,-239.8952 663.9671,-243.1305 674.1555,-245.9377"/>
<polygon fill="#9a32cd" stroke="#9a32cd" points="547.015,-194.9122 536.4501,-194.1169 544.2132,-201.327 547.015,-194.9122"/>
<text text-anchor="middle" x="609.5" y="-232.5" font-family="Helvetica,sans-Serif" font-size="10.00" fill="#000000"> parser</text>
</g>
<!-- Node5 -->
<g id="node5" class="node">
<title>Node5</title>
<g id="a_node5"><a xlink:href="../../d2/d98/classvhdl_1_1parser_1_1_char_stream.html" target="_top" xlink:title="This class describes a character stream that maintains line and column number positions of the charac...">
<polygon fill="#ffffff" stroke="#666666" points="338,-314 212,-314 212,-295 338,-295 338,-314"/>
<text text-anchor="middle" x="275" y="-302" font-family="Helvetica,sans-Serif" font-size="10.00" fill="#000000">vhdl::parser::CharStream</text>
</a>
</g>
</g>
<!-- Node5&#45;&gt;Node4 -->
<g id="edge5" class="edge">
<title>Node5&#45;&gt;Node4</title>
<path fill="none" stroke="#9a32cd" stroke-dasharray="5,2" d="M314.3538,-291.7274C324.1273,-288.3053 334.5171,-284.4516 344,-280.5 386.0161,-262.9916 396.3654,-257.883 436,-235.5 459.5967,-222.1742 485.8086,-204.6862 501.3225,-194.0371"/>
<polygon fill="#9a32cd" stroke="#9a32cd" points="313.1636,-288.4355 304.8423,-294.9933 315.4369,-295.0561 313.1636,-288.4355"/>
<text text-anchor="middle" x="399" y="-274.5" font-family="Helvetica,sans-Serif" font-size="10.00" fill="#000000"> jj_input_stream</text>
</g>
<!-- Node6 -->
<g id="node6" class="node">
<title>Node6</title>
<g id="a_node6"><a xlink:href="../../d4/d89/class_reader_stream.html" target="_top" xlink:title=" ">
<polygon fill="#ffffff" stroke="#666666" points="97,-314 17,-314 17,-295 97,-295 97,-314"/>
<text text-anchor="middle" x="57" y="-302" font-family="Helvetica,sans-Serif" font-size="10.00" fill="#000000">ReaderStream</text>
</a>
</g>
</g>
<!-- Node6&#45;&gt;Node5 -->
<g id="edge6" class="edge">
<title>Node6&#45;&gt;Node5</title>
<path fill="none" stroke="#9a32cd" stroke-dasharray="5,2" d="M107.4154,-304.5C138.5155,-304.5 178.6684,-304.5 211.8739,-304.5"/>
<polygon fill="#9a32cd" stroke="#9a32cd" points="107.2386,-301.0001 97.2386,-304.5 107.2386,-308.0001 107.2386,-301.0001"/>
<text text-anchor="middle" x="160" y="-307.5" font-family="Helvetica,sans-Serif" font-size="10.00" fill="#000000"> inputStream</text>
</g>
<!-- Node7 -->
<g id="node7" class="node">
<title>Node7</title>
<g id="a_node7"><a xlink:href="../../dc/de7/classvhdl_1_1parser_1_1_token.html" target="_top" xlink:title="Describes the input token stream.">
<polygon fill="#ffffff" stroke="#666666" points="107.5,-212 6.5,-212 6.5,-193 107.5,-193 107.5,-212"/>
<text text-anchor="middle" x="57" y="-200" font-family="Helvetica,sans-Serif" font-size="10.00" fill="#000000">vhdl::parser::Token</text>
</a>
</g>
</g>
<!-- Node7&#45;&gt;Node4 -->
<g id="edge7" class="edge">
<title>Node7&#45;&gt;Node4</title>
<path fill="none" stroke="#9a32cd" stroke-dasharray="5,2" d="M117.9368,-200.6585C140.0077,-199.9865 165.1273,-199.2157 188,-198.5 257.335,-196.3303 274.6931,-196.4342 344,-193.5 380.3849,-191.9596 421.1034,-189.8326 453.6769,-188.0331"/>
<polygon fill="#9a32cd" stroke="#9a32cd" points="117.5901,-197.1673 107.7011,-200.9698 117.8029,-204.1641 117.5901,-197.1673"/>
<text text-anchor="middle" x="275" y="-245.5" font-family="Helvetica,sans-Serif" font-size="10.00" fill="#000000"> head</text>
<text text-anchor="middle" x="275" y="-234.5" font-family="Helvetica,sans-Serif" font-size="10.00" fill="#000000">jj_lastpos</text>
<text text-anchor="middle" x="275" y="-223.5" font-family="Helvetica,sans-Serif" font-size="10.00" fill="#000000">jj_nt</text>
<text text-anchor="middle" x="275" y="-212.5" font-family="Helvetica,sans-Serif" font-size="10.00" fill="#000000">jj_scanpos</text>
<text text-anchor="middle" x="275" y="-201.5" font-family="Helvetica,sans-Serif" font-size="10.00" fill="#000000">token</text>
</g>
<!-- Node7&#45;&gt;Node7 -->
<g id="edge8" class="edge">
<title>Node7&#45;&gt;Node7</title>
<path fill="none" stroke="#9a32cd" stroke-dasharray="5,2" d="M38.2161,-221.9133C39.6914,-226.5591 45.9527,-230 57,-230 75.1289,-230 80.3693,-220.7337 72.7212,-212.0828"/>
<polygon fill="#9a32cd" stroke="#9a32cd" points="41.6458,-222.6713 41.2788,-212.0828 34.9626,-220.5891 41.6458,-222.6713"/>
<text text-anchor="middle" x="57" y="-244" font-family="Helvetica,sans-Serif" font-size="10.00" fill="#000000"> next</text>
<text text-anchor="middle" x="57" y="-233" font-family="Helvetica,sans-Serif" font-size="10.00" fill="#000000">specialToken</text>
</g>
<!-- Node8 -->
<g id="node8" class="node">
<title>Node8</title>
<g id="a_node8"><a xlink:href="../../d8/da3/structvhdl_1_1parser_1_1_j_j_calls.html" target="_top" xlink:title=" ">
<polygon fill="#ffffff" stroke="#666666" points="328.5,-156 221.5,-156 221.5,-137 328.5,-137 328.5,-156"/>
<text text-anchor="middle" x="275" y="-144" font-family="Helvetica,sans-Serif" font-size="10.00" fill="#000000">vhdl::parser::JJCalls</text>
</a>
</g>
</g>
<!-- Node7&#45;&gt;Node8 -->
<g id="edge11" class="edge">
<title>Node7&#45;&gt;Node8</title>
<path fill="none" stroke="#9a32cd" stroke-dasharray="5,2" d="M104.2939,-190.3511C144.4093,-180.0462 201.1535,-165.4697 238.0135,-156.0011"/>
<polygon fill="#9a32cd" stroke="#9a32cd" points="103.2902,-186.9952 94.4755,-192.8733 105.0319,-193.7751 103.2902,-186.9952"/>
<text text-anchor="middle" x="160" y="-186.5" font-family="Helvetica,sans-Serif" font-size="10.00" fill="#000000"> first</text>
</g>
<!-- Node8&#45;&gt;Node4 -->
<g id="edge9" class="edge">
<title>Node8&#45;&gt;Node4</title>
<path fill="none" stroke="#9a32cd" stroke-dasharray="5,2" d="M338.4782,-156.5507C374.5183,-162.2571 419.3742,-169.3592 454.8498,-174.9762"/>
<polygon fill="#9a32cd" stroke="#9a32cd" points="338.9863,-153.0876 328.562,-154.9806 337.8915,-160.0015 338.9863,-153.0876"/>
<text text-anchor="middle" x="399" y="-174.5" font-family="Helvetica,sans-Serif" font-size="10.00" fill="#000000"> jj_2_rtns</text>
</g>
<!-- Node8&#45;&gt;Node8 -->
<g id="edge10" class="edge">
<title>Node8&#45;&gt;Node8</title>
<path fill="none" stroke="#9a32cd" stroke-dasharray="5,2" d="M253.8899,-165.5536C255.2997,-170.3804 262.3364,-174 275,-174 295.2617,-174 301.1186,-164.7337 292.5707,-156.0828"/>
<polygon fill="#9a32cd" stroke="#9a32cd" points="257.2071,-166.6753 257.4293,-156.0828 250.65,-164.2248 257.2071,-166.6753"/>
<text text-anchor="middle" x="275" y="-177" font-family="Helvetica,sans-Serif" font-size="10.00" fill="#000000"> next</text>
</g>
<!-- Node9 -->
<g id="node9" class="node">
<title>Node9</title>
<g id="a_node9"><a xlink:href="../../df/d0f/classvhdl_1_1parser_1_1_error_handler.html" target="_top" xlink:title=" ">
<polygon fill="#ffffff" stroke="#666666" points="339,-119 211,-119 211,-100 339,-100 339,-119"/>
<text text-anchor="middle" x="275" y="-107" font-family="Helvetica,sans-Serif" font-size="10.00" fill="#000000">vhdl::parser::ErrorHandler</text>
</a>
</g>
</g>
<!-- Node9&#45;&gt;Node4 -->
<g id="edge12" class="edge">
<title>Node9&#45;&gt;Node4</title>
<path fill="none" stroke="#9a32cd" stroke-dasharray="5,2" d="M340.095,-121.0245C369.7807,-127.1502 405.1176,-135.6758 436,-146.5 458.1187,-154.2525 482.2142,-166.4291 497.9038,-174.9016"/>
<polygon fill="#9a32cd" stroke="#9a32cd" points="340.7537,-117.587 330.2589,-119.0392 339.3687,-124.4486 340.7537,-117.587"/>
<text text-anchor="middle" x="399" y="-149.5" font-family="Helvetica,sans-Serif" font-size="10.00" fill="#000000"> errorHandler</text>
</g>
<!-- Node10 -->
<g id="node10" class="node">
<title>Node10</title>
<g id="a_node10"><a xlink:href="../../df/d4b/class_v_h_d_l_outline_parser.html" target="_top" xlink:title="VHDL parser using state&#45;based lexical scanning.">
<polygon fill="#ffffff" stroke="#666666" points="326.5,-82 223.5,-82 223.5,-63 326.5,-63 326.5,-82"/>
<text text-anchor="middle" x="275" y="-70" font-family="Helvetica,sans-Serif" font-size="10.00" fill="#000000">VHDLOutlineParser</text>
</a>
</g>
</g>
<!-- Node10&#45;&gt;Node4 -->
<g id="edge13" class="edge">
<title>Node10&#45;&gt;Node4</title>
<path fill="none" stroke="#9a32cd" stroke-dasharray="5,2" d="M336.572,-79.9005C367.7329,-85.4695 405.3468,-95.0789 436,-111.5 466.6176,-127.902 494.4476,-159.006 507.3778,-174.7897"/>
<polygon fill="#9a32cd" stroke="#9a32cd" points="337.1422,-76.4473 326.6986,-78.2308 335.9749,-83.3493 337.1422,-76.4473"/>
<text text-anchor="middle" x="399" y="-114.5" font-family="Helvetica,sans-Serif" font-size="10.00" fill="#000000"> m_outlineParser</text>
</g>
<!-- Node11 -->
<g id="node11" class="node">
<title>Node11</title>
<g id="a_node11"><a xlink:href="../../d5/d79/class_outline_parser_interface.html" target="_top" xlink:title="Abstract interface for outline parsers.">
<polygon fill="#ffffff" stroke="#666666" points="114,-89 0,-89 0,-70 114,-70 114,-89"/>
<text text-anchor="middle" x="57" y="-77" font-family="Helvetica,sans-Serif" font-size="10.00" fill="#000000">OutlineParserInterface</text>
</a>
</g>
</g>
<!-- Node11&#45;&gt;Node10 -->
<g id="edge14" class="edge">
<title>Node11&#45;&gt;Node10</title>
<path fill="none" stroke="#63b8ff" d="M124.412,-77.3354C156.2846,-76.312 193.7383,-75.1093 223.3198,-74.1595"/>
<polygon fill="#63b8ff" stroke="#63b8ff" points="124.1594,-73.8416 114.2769,-77.6608 124.3841,-80.838 124.1594,-73.8416"/>
</g>
<!-- Node12 -->
<g id="node12" class="node">
<title>Node12</title>
<g id="a_node12"><a xlink:href="../../d9/da2/structvhdl_1_1parser_1_1_vhdl_parser_1_1_shared_state.html" target="_top" xlink:title=" ">
<polygon fill="#ffffff" stroke="#666666" points="336,-37.5 214,-37.5 214,-7.5 336,-7.5 336,-37.5"/>
<text text-anchor="start" x="222" y="-25.5" font-family="Helvetica,sans-Serif" font-size="10.00" fill="#000000">vhdl::parser::VhdlParser</text>
<text text-anchor="middle" x="275" y="-14.5" font-family="Helvetica,sans-Serif" font-size="10.00" fill="#000000">::SharedState</text>
</a>
</g>
</g>
<!-- Node12&#45;&gt;Node4 -->
<g id="edge15" class="edge">
<title>Node12&#45;&gt;Node4</title>
<path fill="none" stroke="#9a32cd" stroke-dasharray="5,2" d="M346.2205,-33.5205C376.0298,-40.7105 409.7677,-52.4518 436,-71.5 474.7383,-99.6293 501.1658,-152.7763 510.8741,-174.6821"/>
<polygon fill="#9a32cd" stroke="#9a32cd" points="346.8063,-30.0643 336.2783,-31.2527 345.2495,-36.889 346.8063,-30.0643"/>
<text text-anchor="middle" x="399" y="-74.5" font-family="Helvetica,sans-Serif" font-size="10.00" fill="#000000"> m_sharedState</text>
</g>
<!-- Node13 -->
<g id="node13" class="node">
<title>Node13</title>
<g id="a_node13"><a xlink:href="../../d9/d45/class_q_c_string.html" target="_top" xlink:title="This is an alternative implementation of QCString.">
<polygon fill="#ffffff" stroke="#666666" points="85.5,-19 28.5,-19 28.5,0 85.5,0 85.5,-19"/>
<text text-anchor="middle" x="57" y="-7" font-family="Helvetica,sans-Serif" font-size="10.00" fill="#000000">QCString</text>
</a>
</g>
</g>
<!-- Node13&#45;&gt;Node12 -->
<g id="edge16" class="edge">
<title>Node13&#45;&gt;Node12</title>
<path fill="none" stroke="#9a32cd" stroke-dasharray="5,2" d="M95.8552,-11.4184C121.925,-12.7444 157.0308,-14.6048 188,-16.5 196.3115,-17.0086 205.0673,-17.5757 213.693,-18.1525"/>
<polygon fill="#9a32cd" stroke="#9a32cd" points="95.7925,-7.9109 85.6287,-10.9021 95.4395,-14.902 95.7925,-7.9109"/>
<text text-anchor="middle" x="160" y="-63.5" font-family="Helvetica,sans-Serif" font-size="10.00" fill="#000000"> compSpec</text>
<text text-anchor="middle" x="160" y="-52.5" font-family="Helvetica,sans-Serif" font-size="10.00" fill="#000000">confName</text>
<text text-anchor="middle" x="160" y="-41.5" font-family="Helvetica,sans-Serif" font-size="10.00" fill="#000000">currName</text>
<text text-anchor="middle" x="160" y="-30.5" font-family="Helvetica,sans-Serif" font-size="10.00" fill="#000000">genLabels</text>
<text text-anchor="middle" x="160" y="-19.5" font-family="Helvetica,sans-Serif" font-size="10.00" fill="#000000">lab</text>
</g>
<!-- Node14 -->
<g id="node14" class="node">
<title>Node14</title>
<g id="a_node14"><a xlink:href="../../d9/d04/classvhdl_1_1parser_1_1_token_manager_error_handler.html" target="_top" xlink:title=" ">
<polygon fill="#ffffff" stroke="#666666" points="781,-227.5 643,-227.5 643,-197.5 781,-197.5 781,-227.5"/>
<text text-anchor="start" x="651" y="-215.5" font-family="Helvetica,sans-Serif" font-size="10.00" fill="#000000">vhdl::parser::TokenManager</text>
<text text-anchor="middle" x="712" y="-204.5" font-family="Helvetica,sans-Serif" font-size="10.00" fill="#000000">ErrorHandler</text>
</a>
</g>
</g>
<!-- Node14&#45;&gt;Node1 -->
<g id="edge17" class="edge">
<title>Node14&#45;&gt;Node1</title>
<path fill="none" stroke="#9a32cd" stroke-dasharray="5,2" d="M790.9248,-227.7187C818.1642,-232.9711 848.2471,-238.7719 873.8477,-243.7083"/>
<polygon fill="#9a32cd" stroke="#9a32cd" points="791.5132,-224.2678 781.0314,-225.811 790.1878,-231.1411 791.5132,-224.2678"/>
<text text-anchor="middle" x="827.5" y="-242.5" font-family="Helvetica,sans-Serif" font-size="10.00" fill="#000000"> errorHandler</text>
</g>
</g>
</svg>
