<?xml version="1.0" encoding="UTF-8" standalone="no"?>
<!DOCTYPE svg PUBLIC "-//W3C//DTD SVG 1.1//EN"
 "http://www.w3.org/Graphics/SVG/1.1/DTD/svg11.dtd">
<!-- Generated by graphviz version 2.40.1 (20161225.0304)
 -->
<!-- Title: src/dotnode.h Pages: 1 -->
<svg width="2139pt" height="192pt"
 viewBox="0.00 0.00 2139.00 192.00" xmlns="http://www.w3.org/2000/svg" xmlns:xlink="http://www.w3.org/1999/xlink">
<g id="graph0" class="graph" transform="scale(1 1) rotate(0) translate(4 188)">
<title>src/dotnode.h</title>
<!-- Node1 -->
<g id="node1" class="node">
<title>Node1</title>
<g id="a_node1"><a xlink:title=" ">
<polygon fill="#999999" stroke="#666666" points="1543.5,-184 1467.5,-184 1467.5,-165 1543.5,-165 1543.5,-184"/>
<text text-anchor="middle" x="1505.5" y="-172" font-family="Helvetica,sans-Serif" font-size="10.00" fill="#000000">src/dotnode.h</text>
</a>
</g>
</g>
<!-- Node2 -->
<g id="node2" class="node">
<title>Node2</title>
<g id="a_node2"><a xlink:href="../../d4/dd5/dotcallgraph_8cpp.html" target="_top" xlink:title=" ">
<polygon fill="#ffffff" stroke="#666666" points="793.5,-74 689.5,-74 689.5,-55 793.5,-55 793.5,-74"/>
<text text-anchor="middle" x="741.5" y="-62" font-family="Helvetica,sans-Serif" font-size="10.00" fill="#000000">src/dotcallgraph.cpp</text>
</a>
</g>
</g>
<!-- Node1&#45;&gt;Node2 -->
<g id="edge1" class="edge">
<title>Node1&#45;&gt;Node2</title>
<path fill="none" stroke="#63b8ff" d="M1456.8835,-172.587C1334.1632,-167.4688 1014.2553,-152.2516 910.5,-129 854.2674,-116.3983 791.8177,-88.7223 760.9559,-74.0572"/>
<polygon fill="#63b8ff" stroke="#63b8ff" points="1456.9653,-176.0932 1467.1011,-173.0087 1457.254,-169.0992 1456.9653,-176.0932"/>
</g>
<!-- Node3 -->
<g id="node3" class="node">
<title>Node3</title>
<g id="a_node3"><a xlink:href="../../dc/dcf/dotcallgraph_8h.html" target="_top" xlink:title=" ">
<polygon fill="#ffffff" stroke="#666666" points="1165.5,-129 1071.5,-129 1071.5,-110 1165.5,-110 1165.5,-129"/>
<text text-anchor="middle" x="1118.5" y="-117" font-family="Helvetica,sans-Serif" font-size="10.00" fill="#000000">src/dotcallgraph.h</text>
</a>
</g>
</g>
<!-- Node1&#45;&gt;Node3 -->
<g id="edge2" class="edge">
<title>Node1&#45;&gt;Node3</title>
<path fill="none" stroke="#63b8ff" d="M1457.2549,-167.6435C1382.5215,-157.0224 1239.6829,-136.7224 1165.6322,-126.1984"/>
<polygon fill="#63b8ff" stroke="#63b8ff" points="1456.9408,-171.1339 1467.3338,-169.0759 1457.9258,-164.2036 1456.9408,-171.1339"/>
</g>
<!-- Node10 -->
<g id="node10" class="node">
<title>Node10</title>
<g id="a_node10"><a xlink:href="../../d4/dcd/dotclassgraph_8cpp.html" target="_top" xlink:title=" ">
<polygon fill="#ffffff" stroke="#666666" points="2131,-74 2018,-74 2018,-55 2131,-55 2131,-74"/>
<text text-anchor="middle" x="2074.5" y="-62" font-family="Helvetica,sans-Serif" font-size="10.00" fill="#000000">src/dotclassgraph.cpp</text>
</a>
</g>
</g>
<!-- Node1&#45;&gt;Node10 -->
<g id="edge10" class="edge">
<title>Node1&#45;&gt;Node10</title>
<path fill="none" stroke="#63b8ff" d="M1526.7248,-158.7443C1550.3685,-141.5211 1587.3827,-115.6156 1603.5,-110 1774.5664,-50.3972 1829.5815,-95.1074 2009.5,-74 2012.2185,-73.6811 2014.9985,-73.3385 2017.8047,-72.9794"/>
<polygon fill="#63b8ff" stroke="#63b8ff" points="1524.3817,-156.1224 1518.3893,-164.8598 1528.5225,-161.7664 1524.3817,-156.1224"/>
</g>
<!-- Node11 -->
<g id="node11" class="node">
<title>Node11</title>
<g id="a_node11"><a xlink:href="../../d5/d04/dotclassgraph_8h.html" target="_top" xlink:title=" ">
<polygon fill="#ffffff" stroke="#666666" points="1517.5,-129 1415.5,-129 1415.5,-110 1517.5,-110 1517.5,-129"/>
<text text-anchor="middle" x="1466.5" y="-117" font-family="Helvetica,sans-Serif" font-size="10.00" fill="#000000">src/dotclassgraph.h</text>
</a>
</g>
</g>
<!-- Node1&#45;&gt;Node11 -->
<g id="edge11" class="edge">
<title>Node1&#45;&gt;Node11</title>
<path fill="none" stroke="#63b8ff" d="M1492.7856,-156.5694C1486.3688,-147.5201 1478.8321,-136.8914 1473.478,-129.3408"/>
<polygon fill="#63b8ff" stroke="#63b8ff" points="1490.0673,-158.7869 1498.7067,-164.9197 1495.7775,-154.7379 1490.0673,-158.7869"/>
</g>
<!-- Node15 -->
<g id="node15" class="node">
<title>Node15</title>
<g id="a_node15"><a xlink:href="../../da/d45/dotdirdeps_8cpp.html" target="_top" xlink:title=" ">
<polygon fill="#ffffff" stroke="#666666" points="1709,-129 1612,-129 1612,-110 1709,-110 1709,-129"/>
<text text-anchor="middle" x="1660.5" y="-117" font-family="Helvetica,sans-Serif" font-size="10.00" fill="#000000">src/dotdirdeps.cpp</text>
</a>
</g>
</g>
<!-- Node1&#45;&gt;Node15 -->
<g id="edge21" class="edge">
<title>Node1&#45;&gt;Node15</title>
<path fill="none" stroke="#63b8ff" d="M1541.9689,-161.5594C1570.0376,-151.5996 1608.1965,-138.0593 1633.5509,-129.0626"/>
<polygon fill="#63b8ff" stroke="#63b8ff" points="1540.7528,-158.2771 1532.4989,-164.9197 1543.0937,-164.8741 1540.7528,-158.2771"/>
</g>
<!-- Node16 -->
<g id="node16" class="node">
<title>Node16</title>
<g id="a_node16"><a xlink:href="../../d2/de7/dotgfxhierarchytable_8h.html" target="_top" xlink:title=" ">
<polygon fill="#ffffff" stroke="#666666" points="369,-129 240,-129 240,-110 369,-110 369,-129"/>
<text text-anchor="middle" x="304.5" y="-117" font-family="Helvetica,sans-Serif" font-size="10.00" fill="#000000">src/dotgfxhierarchytable.h</text>
</a>
</g>
</g>
<!-- Node1&#45;&gt;Node16 -->
<g id="edge22" class="edge">
<title>Node1&#45;&gt;Node16</title>
<path fill="none" stroke="#63b8ff" d="M1457.0875,-172.2829C1268.628,-163.6524 583.8559,-132.2932 369.2669,-122.466"/>
<polygon fill="#63b8ff" stroke="#63b8ff" points="1457.0878,-175.7865 1467.2375,-172.7478 1457.4081,-168.7939 1457.0878,-175.7865"/>
</g>
<!-- Node21 -->
<g id="node21" class="node">
<title>Node21</title>
<g id="a_node21"><a xlink:href="../../de/d45/dotgraph_8cpp.html" target="_top" xlink:title=" ">
<polygon fill="#ffffff" stroke="#666666" points="1816,-129 1727,-129 1727,-110 1816,-110 1816,-129"/>
<text text-anchor="middle" x="1771.5" y="-117" font-family="Helvetica,sans-Serif" font-size="10.00" fill="#000000">src/dotgraph.cpp</text>
</a>
</g>
</g>
<!-- Node1&#45;&gt;Node21 -->
<g id="edge30" class="edge">
<title>Node1&#45;&gt;Node21</title>
<path fill="none" stroke="#63b8ff" d="M1553.6992,-164.534C1602.9597,-154.3486 1678.8447,-138.6581 1726.7972,-128.7431"/>
<polygon fill="#63b8ff" stroke="#63b8ff" points="1552.6955,-161.1674 1543.6113,-166.6198 1554.1129,-168.0224 1552.6955,-161.1674"/>
</g>
<!-- Node22 -->
<g id="node22" class="node">
<title>Node22</title>
<g id="a_node22"><a xlink:href="../../d7/d99/dotgroupcollaboration_8h.html" target="_top" xlink:title=" ">
<polygon fill="#ffffff" stroke="#666666" points="1053.5,-129 919.5,-129 919.5,-110 1053.5,-110 1053.5,-129"/>
<text text-anchor="middle" x="986.5" y="-117" font-family="Helvetica,sans-Serif" font-size="10.00" fill="#000000">src/dotgroupcollaboration.h</text>
</a>
</g>
</g>
<!-- Node1&#45;&gt;Node22 -->
<g id="edge31" class="edge">
<title>Node1&#45;&gt;Node22</title>
<path fill="none" stroke="#63b8ff" d="M1456.7986,-169.8515C1375.1895,-161.9828 1205.6751,-145.2991 1062.5,-129 1059.5934,-128.6691 1056.6251,-128.3249 1053.6272,-127.9722"/>
<polygon fill="#63b8ff" stroke="#63b8ff" points="1456.9596,-173.3831 1467.2489,-170.8573 1457.6302,-166.4153 1456.9596,-173.3831"/>
</g>
<!-- Node25 -->
<g id="node25" class="node">
<title>Node25</title>
<g id="a_node25"><a xlink:href="../../da/d57/dotincldepgraph_8cpp.html" target="_top" xlink:title=" ">
<polygon fill="#ffffff" stroke="#666666" points="1755.5,-74 1635.5,-74 1635.5,-55 1755.5,-55 1755.5,-74"/>
<text text-anchor="middle" x="1695.5" y="-62" font-family="Helvetica,sans-Serif" font-size="10.00" fill="#000000">src/dotincldepgraph.cpp</text>
</a>
</g>
</g>
<!-- Node1&#45;&gt;Node25 -->
<g id="edge38" class="edge">
<title>Node1&#45;&gt;Node25</title>
<path fill="none" stroke="#63b8ff" d="M1519.2957,-156.7592C1531.2397,-142.4351 1549.6766,-122.6479 1569.5,-110 1595.9691,-93.112 1629.5611,-81.3824 1655.4027,-74.0671"/>
<polygon fill="#63b8ff" stroke="#63b8ff" points="1516.3113,-154.8834 1512.7435,-164.8594 1521.7538,-159.2857 1516.3113,-154.8834"/>
</g>
<!-- Node26 -->
<g id="node26" class="node">
<title>Node26</title>
<g id="a_node26"><a xlink:href="../../dd/d8c/dotincldepgraph_8h.html" target="_top" xlink:title=" ">
<polygon fill="#ffffff" stroke="#666666" points="1397.5,-129 1287.5,-129 1287.5,-110 1397.5,-110 1397.5,-129"/>
<text text-anchor="middle" x="1342.5" y="-117" font-family="Helvetica,sans-Serif" font-size="10.00" fill="#000000">src/dotincldepgraph.h</text>
</a>
</g>
</g>
<!-- Node1&#45;&gt;Node26 -->
<g id="edge39" class="edge">
<title>Node1&#45;&gt;Node26</title>
<path fill="none" stroke="#63b8ff" d="M1467.535,-161.6897C1437.9822,-151.7179 1397.6195,-138.0986 1370.8401,-129.0626"/>
<polygon fill="#63b8ff" stroke="#63b8ff" points="1466.5134,-165.0388 1477.1076,-164.9197 1468.7514,-158.4062 1466.5134,-165.0388"/>
</g>
<!-- Node28 -->
<g id="node28" class="node">
<title>Node28</title>
<g id="a_node28"><a xlink:href="../../d4/d33/dotlegendgraph_8cpp.html" target="_top" xlink:title=" ">
<polygon fill="#ffffff" stroke="#666666" points="1952.5,-129 1834.5,-129 1834.5,-110 1952.5,-110 1952.5,-129"/>
<text text-anchor="middle" x="1893.5" y="-117" font-family="Helvetica,sans-Serif" font-size="10.00" fill="#000000">src/dotlegendgraph.cpp</text>
</a>
</g>
</g>
<!-- Node1&#45;&gt;Node28 -->
<g id="edge48" class="edge">
<title>Node1&#45;&gt;Node28</title>
<path fill="none" stroke="#63b8ff" d="M1553.7978,-167.6537C1624.926,-157.5711 1757.6996,-138.7501 1834.4982,-127.8637"/>
<polygon fill="#63b8ff" stroke="#63b8ff" points="1553.1746,-164.2069 1543.7648,-169.0759 1554.1571,-171.1376 1553.1746,-164.2069"/>
</g>
<!-- Node29 -->
<g id="node29" class="node">
<title>Node29</title>
<g id="a_node29"><a xlink:href="../../df/d58/dotnode_8cpp.html" target="_top" xlink:title=" ">
<polygon fill="#ffffff" stroke="#666666" points="2056.5,-129 1970.5,-129 1970.5,-110 2056.5,-110 2056.5,-129"/>
<text text-anchor="middle" x="2013.5" y="-117" font-family="Helvetica,sans-Serif" font-size="10.00" fill="#000000">src/dotnode.cpp</text>
</a>
</g>
</g>
<!-- Node1&#45;&gt;Node29 -->
<g id="edge49" class="edge">
<title>Node1&#45;&gt;Node29</title>
<path fill="none" stroke="#63b8ff" d="M1553.9505,-170.9664C1637.4176,-164.5888 1813.6122,-149.852 1961.5,-129 1964.4079,-128.59 1967.4014,-128.134 1970.4135,-127.65"/>
<polygon fill="#63b8ff" stroke="#63b8ff" points="1553.4662,-167.493 1543.7593,-171.7387 1553.9952,-174.473 1553.4662,-167.493"/>
</g>
<!-- Node3&#45;&gt;Node2 -->
<g id="edge5" class="edge">
<title>Node3&#45;&gt;Node2</title>
<path fill="none" stroke="#63b8ff" d="M1061.4791,-109.8805C945.5355,-92.1613 914.7602,-90.5122 802.5,-74 799.637,-73.5789 796.6993,-73.1409 793.7346,-72.6943"/>
<polygon fill="#63b8ff" stroke="#63b8ff" points="1061.0477,-113.3552 1071.4631,-111.4137 1062.1102,-106.4363 1061.0477,-113.3552"/>
</g>
<!-- Node4 -->
<g id="node4" class="node">
<title>Node4</title>
<g id="a_node4"><a xlink:href="../../db/d12/context_8cpp.html" target="_top" xlink:title=" ">
<polygon fill="#ffffff" stroke="#666666" points="708.5,-19 624.5,-19 624.5,0 708.5,0 708.5,-19"/>
<text text-anchor="middle" x="666.5" y="-7" font-family="Helvetica,sans-Serif" font-size="10.00" fill="#000000">src/context.cpp</text>
</a>
</g>
</g>
<!-- Node3&#45;&gt;Node4 -->
<g id="edge3" class="edge">
<title>Node3&#45;&gt;Node4</title>
<path fill="none" stroke="#63b8ff" d="M1068.4173,-107.4479C1036.9803,-99.304 995.8442,-87.5813 960.5,-74 942.5021,-67.0841 939.8325,-60.9727 921.5,-55 848.8114,-31.318 760.2127,-19.0241 708.8887,-13.4368"/>
<polygon fill="#63b8ff" stroke="#63b8ff" points="1067.7084,-110.8792 1078.2636,-109.9641 1069.4416,-104.0971 1067.7084,-110.8792"/>
</g>
<!-- Node5 -->
<g id="node5" class="node">
<title>Node5</title>
<g id="a_node5"><a xlink:href="../../d8/d29/docbookgen_8cpp.html" target="_top" xlink:title=" ">
<polygon fill="#ffffff" stroke="#666666" points="1285.5,-74 1181.5,-74 1181.5,-55 1285.5,-55 1285.5,-74"/>
<text text-anchor="middle" x="1233.5" y="-62" font-family="Helvetica,sans-Serif" font-size="10.00" fill="#000000">src/docbookgen.cpp</text>
</a>
</g>
</g>
<!-- Node3&#45;&gt;Node5 -->
<g id="edge4" class="edge">
<title>Node3&#45;&gt;Node5</title>
<path fill="none" stroke="#63b8ff" d="M1147.7369,-105.5171C1168.2502,-95.7064 1195.1513,-82.8407 1213.3122,-74.155"/>
<polygon fill="#63b8ff" stroke="#63b8ff" points="1146.0427,-102.4476 1138.5315,-109.9197 1149.0629,-108.7626 1146.0427,-102.4476"/>
</g>
<!-- Node6 -->
<g id="node6" class="node">
<title>Node6</title>
<g id="a_node6"><a xlink:href="../../d8/d6e/htmlgen_8cpp.html" target="_top" xlink:title=" ">
<polygon fill="#ffffff" stroke="#666666" points="1055.5,-74 969.5,-74 969.5,-55 1055.5,-55 1055.5,-74"/>
<text text-anchor="middle" x="1012.5" y="-62" font-family="Helvetica,sans-Serif" font-size="10.00" fill="#000000">src/htmlgen.cpp</text>
</a>
</g>
</g>
<!-- Node3&#45;&gt;Node6 -->
<g id="edge6" class="edge">
<title>Node3&#45;&gt;Node6</title>
<path fill="none" stroke="#63b8ff" d="M1091.0365,-105.25C1072.1952,-95.4739 1047.696,-82.7621 1031.1079,-74.155"/>
<polygon fill="#63b8ff" stroke="#63b8ff" points="1089.5479,-108.4208 1100.0362,-109.9197 1092.7719,-102.2074 1089.5479,-108.4208"/>
</g>
<!-- Node7 -->
<g id="node7" class="node">
<title>Node7</title>
<g id="a_node7"><a xlink:href="../../d4/d42/latexgen_8cpp.html" target="_top" xlink:title=" ">
<polygon fill="#ffffff" stroke="#666666" points="1163,-74 1074,-74 1074,-55 1163,-55 1163,-74"/>
<text text-anchor="middle" x="1118.5" y="-62" font-family="Helvetica,sans-Serif" font-size="10.00" fill="#000000">src/latexgen.cpp</text>
</a>
</g>
</g>
<!-- Node3&#45;&gt;Node7 -->
<g id="edge7" class="edge">
<title>Node3&#45;&gt;Node7</title>
<path fill="none" stroke="#63b8ff" d="M1118.5,-99.8553C1118.5,-91.2036 1118.5,-81.4195 1118.5,-74.3408"/>
<polygon fill="#63b8ff" stroke="#63b8ff" points="1115.0001,-99.9197 1118.5,-109.9197 1122.0001,-99.9198 1115.0001,-99.9197"/>
</g>
<!-- Node8 -->
<g id="node8" class="node">
<title>Node8</title>
<g id="a_node8"><a xlink:href="../../d0/d72/memberdef_8cpp.html" target="_top" xlink:title=" ">
<polygon fill="#ffffff" stroke="#666666" points="913,-74 812,-74 812,-55 913,-55 913,-74"/>
<text text-anchor="middle" x="862.5" y="-62" font-family="Helvetica,sans-Serif" font-size="10.00" fill="#000000">src/memberdef.cpp</text>
</a>
</g>
</g>
<!-- Node3&#45;&gt;Node8 -->
<g id="edge8" class="edge">
<title>Node3&#45;&gt;Node8</title>
<path fill="none" stroke="#63b8ff" d="M1064.248,-107.8443C1017.4966,-97.8001 950.8231,-83.4757 907.1152,-74.0853"/>
<polygon fill="#63b8ff" stroke="#63b8ff" points="1063.6884,-111.3039 1074.2005,-109.9825 1065.1588,-104.46 1063.6884,-111.3039"/>
</g>
<!-- Node9 -->
<g id="node9" class="node">
<title>Node9</title>
<g id="a_node9"><a xlink:href="../../d0/d9c/rtfgen_8cpp.html" target="_top" xlink:title=" ">
<polygon fill="#ffffff" stroke="#666666" points="1381,-74 1304,-74 1304,-55 1381,-55 1381,-74"/>
<text text-anchor="middle" x="1342.5" y="-62" font-family="Helvetica,sans-Serif" font-size="10.00" fill="#000000">src/rtfgen.cpp</text>
</a>
</g>
</g>
<!-- Node3&#45;&gt;Node9 -->
<g id="edge9" class="edge">
<title>Node3&#45;&gt;Node9</title>
<path fill="none" stroke="#63b8ff" d="M1167.0342,-107.5831C1208.0193,-97.5198 1265.9296,-83.3008 1303.8376,-73.993"/>
<polygon fill="#63b8ff" stroke="#63b8ff" points="1166.139,-104.1989 1157.2621,-109.9825 1167.8083,-110.997 1166.139,-104.1989"/>
</g>
<!-- Node11&#45;&gt;Node4 -->
<g id="edge13" class="edge">
<title>Node11&#45;&gt;Node4</title>
<path fill="none" stroke="#63b8ff" d="M1527.7608,-112.2013C1612.7211,-101.7849 1756.8303,-82.9297 1764.5,-74 1770.0021,-67.5941 1770.3462,-61.0935 1764.5,-55 1727.3097,-16.2366 905.5008,-10.4619 708.6107,-9.6339"/>
<polygon fill="#63b8ff" stroke="#63b8ff" points="1527.2084,-108.7427 1517.7061,-113.4285 1528.0565,-115.6911 1527.2084,-108.7427"/>
</g>
<!-- Node11&#45;&gt;Node5 -->
<g id="edge15" class="edge">
<title>Node11&#45;&gt;Node5</title>
<path fill="none" stroke="#63b8ff" d="M1416.3172,-107.6543C1373.8087,-97.6201 1313.6376,-83.4166 1274.1068,-74.0853"/>
<polygon fill="#63b8ff" stroke="#63b8ff" points="1415.6439,-111.0915 1426.1805,-109.9825 1417.2521,-104.2787 1415.6439,-111.0915"/>
</g>
<!-- Node11&#45;&gt;Node6 -->
<g id="edge17" class="edge">
<title>Node11&#45;&gt;Node6</title>
<path fill="none" stroke="#63b8ff" d="M1405.2845,-109.9045C1253.2334,-90.2748 1212.5341,-95.2824 1064.5,-74 1061.5932,-73.5821 1058.6006,-73.1202 1055.589,-72.6319"/>
<polygon fill="#63b8ff" stroke="#63b8ff" points="1405.0942,-113.4093 1415.4632,-111.2337 1406.0006,-106.4682 1405.0942,-113.4093"/>
</g>
<!-- Node11&#45;&gt;Node7 -->
<g id="edge18" class="edge">
<title>Node11&#45;&gt;Node7</title>
<path fill="none" stroke="#63b8ff" d="M1405.4191,-109.8392C1300.877,-93.5982 1273.179,-90.5986 1172.5,-74 1169.4945,-73.5045 1166.3966,-72.9844 1163.2764,-72.4537"/>
<polygon fill="#63b8ff" stroke="#63b8ff" points="1405.0198,-113.3191 1415.4393,-111.3998 1406.0971,-106.4025 1405.0198,-113.3191"/>
</g>
<!-- Node11&#45;&gt;Node9 -->
<g id="edge19" class="edge">
<title>Node11&#45;&gt;Node9</title>
<path fill="none" stroke="#63b8ff" d="M1435.5738,-105.7827C1413.3821,-95.9396 1384.0271,-82.9193 1364.2677,-74.155"/>
<polygon fill="#63b8ff" stroke="#63b8ff" points="1434.3406,-109.0645 1444.9008,-109.9197 1437.1788,-102.6657 1434.3406,-109.0645"/>
</g>
<!-- Node11&#45;&gt;Node10 -->
<g id="edge16" class="edge">
<title>Node11&#45;&gt;Node10</title>
<path fill="none" stroke="#63b8ff" d="M1527.8698,-113.7348C1541.569,-112.4771 1556.0278,-111.1724 1569.5,-110 1764.9703,-92.9895 1814.5508,-96.1988 2009.5,-74 2012.2195,-73.6903 2015.0004,-73.3552 2017.8073,-73.0022"/>
<polygon fill="#63b8ff" stroke="#63b8ff" points="1527.2073,-110.2809 1517.5709,-114.6844 1527.8501,-117.2514 1527.2073,-110.2809"/>
</g>
<!-- Node12 -->
<g id="node12" class="node">
<title>Node12</title>
<g id="a_node12"><a xlink:href="../../de/d89/classdef_8cpp.html" target="_top" xlink:title=" ">
<polygon fill="#ffffff" stroke="#666666" points="2000,-74 1911,-74 1911,-55 2000,-55 2000,-74"/>
<text text-anchor="middle" x="1955.5" y="-62" font-family="Helvetica,sans-Serif" font-size="10.00" fill="#000000">src/classdef.cpp</text>
</a>
</g>
</g>
<!-- Node11&#45;&gt;Node12 -->
<g id="edge12" class="edge">
<title>Node11&#45;&gt;Node12</title>
<path fill="none" stroke="#63b8ff" d="M1527.7786,-113.6663C1630.1614,-103.825 1831.7427,-84.0197 1902.5,-74 1905.1842,-73.6199 1907.9403,-73.204 1910.7177,-72.7653"/>
<polygon fill="#63b8ff" stroke="#63b8ff" points="1527.2102,-110.2047 1517.5904,-114.6442 1527.8791,-117.1726 1527.2102,-110.2047"/>
</g>
<!-- Node13 -->
<g id="node13" class="node">
<title>Node13</title>
<g id="a_node13"><a xlink:href="../../d3/d17/defgen_8cpp.html" target="_top" xlink:title=" ">
<polygon fill="#ffffff" stroke="#666666" points="1893,-74 1812,-74 1812,-55 1893,-55 1893,-74"/>
<text text-anchor="middle" x="1852.5" y="-62" font-family="Helvetica,sans-Serif" font-size="10.00" fill="#000000">src/defgen.cpp</text>
</a>
</g>
</g>
<!-- Node11&#45;&gt;Node13 -->
<g id="edge14" class="edge">
<title>Node11&#45;&gt;Node13</title>
<path fill="none" stroke="#63b8ff" d="M1527.9142,-111.701C1594.4372,-103.1031 1703.6428,-88.5523 1797.5,-74 1802.192,-73.2725 1807.1029,-72.4755 1811.9769,-71.6621"/>
<polygon fill="#63b8ff" stroke="#63b8ff" points="1527.0835,-108.279 1517.613,-113.0289 1527.9785,-115.2216 1527.0835,-108.279"/>
</g>
<!-- Node14 -->
<g id="node14" class="node">
<title>Node14</title>
<g id="a_node14"><a xlink:href="../../d0/dc3/xmlgen_8cpp.html" target="_top" xlink:title=" ">
<polygon fill="#ffffff" stroke="#666666" points="1617,-74 1534,-74 1534,-55 1617,-55 1617,-74"/>
<text text-anchor="middle" x="1575.5" y="-62" font-family="Helvetica,sans-Serif" font-size="10.00" fill="#000000">src/xmlgen.cpp</text>
</a>
</g>
</g>
<!-- Node11&#45;&gt;Node14 -->
<g id="edge20" class="edge">
<title>Node11&#45;&gt;Node14</title>
<path fill="none" stroke="#63b8ff" d="M1494.4758,-105.3838C1513.8851,-95.5901 1539.23,-82.8014 1556.3655,-74.155"/>
<polygon fill="#63b8ff" stroke="#63b8ff" points="1492.8375,-102.2901 1485.4864,-109.9197 1495.9909,-108.5396 1492.8375,-102.2901"/>
</g>
<!-- Node16&#45;&gt;Node4 -->
<g id="edge23" class="edge">
<title>Node16&#45;&gt;Node4</title>
<path fill="none" stroke="#63b8ff" d="M323.4924,-103.5318C342.3213,-88.5783 372.6034,-66.8158 402.5,-55 477.1122,-25.5115 571.0405,-15.1043 624.3762,-11.4525"/>
<polygon fill="#63b8ff" stroke="#63b8ff" points="321.2497,-100.8442 315.6898,-109.863 325.6604,-106.2799 321.2497,-100.8442"/>
</g>
<!-- Node16&#45;&gt;Node6 -->
<g id="edge28" class="edge">
<title>Node16&#45;&gt;Node6</title>
<path fill="none" stroke="#63b8ff" d="M379.6071,-114.7004C495.8368,-107.1061 726.2597,-91.386 921.5,-74 937.1636,-72.6052 954.3216,-70.8684 969.4756,-69.2628"/>
<polygon fill="#63b8ff" stroke="#63b8ff" points="379.1506,-111.2227 369.3994,-115.3657 379.6059,-118.2078 379.1506,-111.2227"/>
</g>
<!-- Node17 -->
<g id="node17" class="node">
<title>Node17</title>
<g id="a_node17"><a xlink:href="../../dc/d1e/context_8h.html" target="_top" xlink:title=" ">
<polygon fill="#ffffff" stroke="#666666" points="167.5,-74 93.5,-74 93.5,-55 167.5,-55 167.5,-74"/>
<text text-anchor="middle" x="130.5" y="-62" font-family="Helvetica,sans-Serif" font-size="10.00" fill="#000000">src/context.h</text>
</a>
</g>
</g>
<!-- Node16&#45;&gt;Node17 -->
<g id="edge24" class="edge">
<title>Node16&#45;&gt;Node17</title>
<path fill="none" stroke="#63b8ff" d="M264.3837,-106.8196C232.8007,-96.8364 189.4635,-83.1379 160.7526,-74.0626"/>
<polygon fill="#63b8ff" stroke="#63b8ff" points="263.6016,-110.243 274.1915,-109.9197 265.7114,-103.5685 263.6016,-110.243"/>
</g>
<!-- Node19 -->
<g id="node19" class="node">
<title>Node19</title>
<g id="a_node19"><a xlink:href="../../d4/d09/dotgfxhierarchytable_8cpp.html" target="_top" xlink:title=" ">
<polygon fill="#ffffff" stroke="#666666" points="325.5,-74 185.5,-74 185.5,-55 325.5,-55 325.5,-74"/>
<text text-anchor="middle" x="255.5" y="-62" font-family="Helvetica,sans-Serif" font-size="10.00" fill="#000000">src/dotgfxhierarchytable.cpp</text>
</a>
</g>
</g>
<!-- Node16&#45;&gt;Node19 -->
<g id="edge27" class="edge">
<title>Node16&#45;&gt;Node19</title>
<path fill="none" stroke="#63b8ff" d="M289.2771,-102.413C281.0579,-93.1874 271.2044,-82.1274 264.2673,-74.3408"/>
<polygon fill="#63b8ff" stroke="#63b8ff" points="286.6994,-104.7813 295.9649,-109.9197 291.9261,-100.1249 286.6994,-104.7813"/>
</g>
<!-- Node20 -->
<g id="node20" class="node">
<title>Node20</title>
<g id="a_node20"><a xlink:href="../../db/d14/index_8cpp.html" target="_top" xlink:title="This file contains functions for the various index pages.">
<polygon fill="#ffffff" stroke="#666666" points="75,-74 0,-74 0,-55 75,-55 75,-74"/>
<text text-anchor="middle" x="37.5" y="-62" font-family="Helvetica,sans-Serif" font-size="10.00" fill="#000000">src/index.cpp</text>
</a>
</g>
</g>
<!-- Node16&#45;&gt;Node20 -->
<g id="edge29" class="edge">
<title>Node16&#45;&gt;Node20</title>
<path fill="none" stroke="#63b8ff" d="M248.2364,-107.9101C196.2657,-97.2045 120.4907,-81.5955 75.3765,-72.3023"/>
<polygon fill="#63b8ff" stroke="#63b8ff" points="247.7964,-111.3929 258.297,-109.9825 249.2088,-104.5369 247.7964,-111.3929"/>
</g>
<!-- Node17&#45;&gt;Node4 -->
<g id="edge25" class="edge">
<title>Node17&#45;&gt;Node4</title>
<path fill="none" stroke="#63b8ff" d="M177.5416,-54.9956C348.7769,-29.9004 540.9503,-16.7866 624.3617,-11.831"/>
<polygon fill="#63b8ff" stroke="#63b8ff" points="176.9723,-51.5417 167.5939,-56.4707 177.9991,-58.466 176.9723,-51.5417"/>
</g>
<!-- Node18 -->
<g id="node18" class="node">
<title>Node18</title>
<g id="a_node18"><a xlink:href="../../dc/d98/doxygen_8cpp.html" target="_top" xlink:title=" ">
<polygon fill="#ffffff" stroke="#666666" points="175,-19 86,-19 86,0 175,0 175,-19"/>
<text text-anchor="middle" x="130.5" y="-7" font-family="Helvetica,sans-Serif" font-size="10.00" fill="#000000">src/doxygen.cpp</text>
</a>
</g>
</g>
<!-- Node17&#45;&gt;Node18 -->
<g id="edge26" class="edge">
<title>Node17&#45;&gt;Node18</title>
<path fill="none" stroke="#63b8ff" d="M130.5,-44.8553C130.5,-36.2036 130.5,-26.4195 130.5,-19.3408"/>
<polygon fill="#63b8ff" stroke="#63b8ff" points="127.0001,-44.9197 130.5,-54.9197 134.0001,-44.9198 127.0001,-44.9197"/>
</g>
<!-- Node22&#45;&gt;Node4 -->
<g id="edge32" class="edge">
<title>Node22&#45;&gt;Node4</title>
<path fill="none" stroke="#63b8ff" d="M909.1504,-116.1475C755.9478,-109.1313 427.1795,-92.049 410.5,-74 404.7688,-67.7982 405.0764,-61.4725 410.5,-55 437.2818,-23.0385 558.7382,-13.5115 624.2711,-10.6843"/>
<polygon fill="#63b8ff" stroke="#63b8ff" points="909.2781,-119.6568 919.4268,-116.6151 909.5963,-112.6641 909.2781,-119.6568"/>
</g>
<!-- Node22&#45;&gt;Node5 -->
<g id="edge33" class="edge">
<title>Node22&#45;&gt;Node5</title>
<path fill="none" stroke="#63b8ff" d="M1039.1287,-107.7811C1084.2221,-97.74 1148.3704,-83.456 1190.4533,-74.0853"/>
<polygon fill="#63b8ff" stroke="#63b8ff" points="1038.2423,-104.3926 1029.2421,-109.9825 1039.7638,-111.2253 1038.2423,-104.3926"/>
</g>
<!-- Node22&#45;&gt;Node6 -->
<g id="edge36" class="edge">
<title>Node22&#45;&gt;Node6</title>
<path fill="none" stroke="#63b8ff" d="M995.3794,-100.7166C999.5667,-91.8589 1004.3901,-81.6555 1007.848,-74.3408"/>
<polygon fill="#63b8ff" stroke="#63b8ff" points="992.1385,-99.3832 991.0289,-109.9197 998.467,-102.3748 992.1385,-99.3832"/>
</g>
<!-- Node22&#45;&gt;Node7 -->
<g id="edge37" class="edge">
<title>Node22&#45;&gt;Node7</title>
<path fill="none" stroke="#63b8ff" d="M1018.7877,-106.0468C1042.4835,-96.1735 1074.1051,-82.9979 1095.3279,-74.155"/>
<polygon fill="#63b8ff" stroke="#63b8ff" points="1017.3772,-102.8427 1009.4926,-109.9197 1020.0696,-109.3043 1017.3772,-102.8427"/>
</g>
<!-- Node23 -->
<g id="node23" class="node">
<title>Node23</title>
<g id="a_node23"><a xlink:href="../../d1/d86/dotgroupcollaboration_8cpp.html" target="_top" xlink:title=" ">
<polygon fill="#ffffff" stroke="#666666" points="671.5,-74 527.5,-74 527.5,-55 671.5,-55 671.5,-74"/>
<text text-anchor="middle" x="599.5" y="-62" font-family="Helvetica,sans-Serif" font-size="10.00" fill="#000000">src/dotgroupcollaboration.cpp</text>
</a>
</g>
</g>
<!-- Node22&#45;&gt;Node23 -->
<g id="edge34" class="edge">
<title>Node22&#45;&gt;Node23</title>
<path fill="none" stroke="#63b8ff" d="M909.3109,-108.53C838.3491,-98.445 734.2048,-83.6441 666.6206,-74.0391"/>
<polygon fill="#63b8ff" stroke="#63b8ff" points="909.1385,-112.0406 919.5316,-109.9825 910.1235,-105.1102 909.1385,-112.0406"/>
</g>
<!-- Node24 -->
<g id="node24" class="node">
<title>Node24</title>
<g id="a_node24"><a xlink:href="../../d6/d42/groupdef_8cpp.html" target="_top" xlink:title=" ">
<polygon fill="#ffffff" stroke="#666666" points="509,-74 420,-74 420,-55 509,-55 509,-74"/>
<text text-anchor="middle" x="464.5" y="-62" font-family="Helvetica,sans-Serif" font-size="10.00" fill="#000000">src/groupdef.cpp</text>
</a>
</g>
</g>
<!-- Node22&#45;&gt;Node24 -->
<g id="edge35" class="edge">
<title>Node22&#45;&gt;Node24</title>
<path fill="none" stroke="#63b8ff" d="M909.106,-113.8169C816.1248,-106.5645 655.5181,-92.6847 518.5,-74 515.4819,-73.5884 512.3745,-73.1313 509.2474,-72.6465"/>
<polygon fill="#63b8ff" stroke="#63b8ff" points="909.0325,-117.3216 919.273,-114.6045 909.5732,-110.3425 909.0325,-117.3216"/>
</g>
<!-- Node26&#45;&gt;Node4 -->
<g id="edge40" class="edge">
<title>Node26&#45;&gt;Node4</title>
<path fill="none" stroke="#63b8ff" d="M1366.5671,-103.8446C1384.6164,-90.2412 1403.927,-70.3635 1389.5,-55 1366.0663,-30.0452 859.4094,-14.6237 708.5292,-10.5724"/>
<polygon fill="#63b8ff" stroke="#63b8ff" points="1364.0777,-101.3205 1357.9611,-109.9714 1368.1375,-107.023 1364.0777,-101.3205"/>
</g>
<!-- Node26&#45;&gt;Node5 -->
<g id="edge41" class="edge">
<title>Node26&#45;&gt;Node5</title>
<path fill="none" stroke="#63b8ff" d="M1314.5242,-105.3838C1295.1149,-95.5901 1269.77,-82.8014 1252.6345,-74.155"/>
<polygon fill="#63b8ff" stroke="#63b8ff" points="1313.0091,-108.5396 1323.5136,-109.9197 1316.1625,-102.2901 1313.0091,-108.5396"/>
</g>
<!-- Node26&#45;&gt;Node6 -->
<g id="edge44" class="edge">
<title>Node26&#45;&gt;Node6</title>
<path fill="none" stroke="#63b8ff" d="M1277.1286,-109.1501C1220.7561,-100.1414 1137.1979,-86.5888 1064.5,-74 1061.6064,-73.4989 1058.6236,-72.9747 1055.6193,-72.4409"/>
<polygon fill="#63b8ff" stroke="#63b8ff" points="1276.9028,-112.6583 1287.3295,-110.7781 1278.0061,-105.7457 1276.9028,-112.6583"/>
</g>
<!-- Node26&#45;&gt;Node7 -->
<g id="edge45" class="edge">
<title>Node26&#45;&gt;Node7</title>
<path fill="none" stroke="#63b8ff" d="M1293.9967,-107.5907C1253.145,-97.5602 1195.462,-83.3969 1157.5383,-74.0853"/>
<polygon fill="#63b8ff" stroke="#63b8ff" points="1293.1917,-110.997 1303.7379,-109.9825 1294.861,-104.1989 1293.1917,-110.997"/>
</g>
<!-- Node26&#45;&gt;Node9 -->
<g id="edge46" class="edge">
<title>Node26&#45;&gt;Node9</title>
<path fill="none" stroke="#63b8ff" d="M1342.5,-99.8553C1342.5,-91.2036 1342.5,-81.4195 1342.5,-74.3408"/>
<polygon fill="#63b8ff" stroke="#63b8ff" points="1339.0001,-99.9197 1342.5,-109.9197 1346.0001,-99.9198 1339.0001,-99.9197"/>
</g>
<!-- Node26&#45;&gt;Node14 -->
<g id="edge47" class="edge">
<title>Node26&#45;&gt;Node14</title>
<path fill="none" stroke="#63b8ff" d="M1392.6828,-107.6543C1435.1913,-97.6201 1495.3624,-83.4166 1534.8932,-74.0853"/>
<polygon fill="#63b8ff" stroke="#63b8ff" points="1391.7479,-104.2787 1382.8195,-109.9825 1393.3561,-111.0915 1391.7479,-104.2787"/>
</g>
<!-- Node26&#45;&gt;Node25 -->
<g id="edge42" class="edge">
<title>Node26&#45;&gt;Node25</title>
<path fill="none" stroke="#63b8ff" d="M1407.8075,-109.3246C1472.9482,-99.1752 1572.1794,-83.7143 1635.4184,-73.8612"/>
<polygon fill="#63b8ff" stroke="#63b8ff" points="1406.9982,-105.9084 1397.6563,-110.9063 1408.0759,-112.8249 1406.9982,-105.9084"/>
</g>
<!-- Node27 -->
<g id="node27" class="node">
<title>Node27</title>
<g id="a_node27"><a xlink:href="../../d6/ddc/filedef_8cpp.html" target="_top" xlink:title=" ">
<polygon fill="#ffffff" stroke="#666666" points="1515.5,-74 1437.5,-74 1437.5,-55 1515.5,-55 1515.5,-74"/>
<text text-anchor="middle" x="1476.5" y="-62" font-family="Helvetica,sans-Serif" font-size="10.00" fill="#000000">src/filedef.cpp</text>
</a>
</g>
</g>
<!-- Node26&#45;&gt;Node27 -->
<g id="edge43" class="edge">
<title>Node26&#45;&gt;Node27</title>
<path fill="none" stroke="#63b8ff" d="M1375.2769,-106.0468C1399.3318,-96.1735 1431.4324,-82.9979 1452.9769,-74.155"/>
<polygon fill="#63b8ff" stroke="#63b8ff" points="1373.7631,-102.8847 1365.841,-109.9197 1376.4211,-109.3605 1373.7631,-102.8847"/>
</g>
</g>
</svg>
