<?xml version="1.0" encoding="UTF-8" standalone="no"?>
<!DOCTYPE svg PUBLIC "-//W3C//DTD SVG 1.1//EN"
 "http://www.w3.org/Graphics/SVG/1.1/DTD/svg11.dtd">
<!-- Generated by graphviz version 2.40.1 (20161225.0304)
 -->
<!-- Title: PageDefImpl Pages: 1 -->
<!--zoomable 647 -->
<svg id="main" version="1.1" xmlns="http://www.w3.org/2000/svg" xmlns:xlink="http://www.w3.org/1999/xlink" xml:space="preserve" onload="init(evt)">
<style type="text/css"><![CDATA[
.edge:hover path { stroke: red; }
.edge:hover polygon { stroke: red; fill: red; }
]]></style>
<script type="text/javascript"><![CDATA[
var edges = document.getElementsByTagName('g');
if (edges && edges.length) {
  for (var i=0;i<edges.length;i++) {
    if (edges[i].id.substr(0,4)=='edge') {
      edges[i].setAttribute('class','edge');
    }
  }
}
]]></script>
        <defs>
                <circle id="rim" cx="0" cy="0" r="7"/>
                <circle id="rim2" cx="0" cy="0" r="3.5"/>
                <g id="zoomPlus">
                        <use xlink:href="#rim" fill="#404040">
                                <set attributeName="fill" to="#808080" begin="zoomplus.mouseover" end="zoomplus.mouseout"/>
                        </use>
                        <path d="M-4,0h8M0,-4v8" fill="none" stroke="white" stroke-width="1.5" pointer-events="none"/>
                </g>
                <g id="zoomMin">
                        <use xlink:href="#rim" fill="#404040">
                                <set attributeName="fill" to="#808080" begin="zoomminus.mouseover" end="zoomminus.mouseout"/>
                        </use>
                        <path d="M-4,0h8" fill="none" stroke="white" stroke-width="1.5" pointer-events="none"/>
                </g>
                <g id="dirArrow">
                        <path fill="none" stroke="white" stroke-width="1.5" d="M0,-3.0v7 M-2.5,-0.5L0,-3.0L2.5,-0.5"/>
                </g>
               <g id="resetDef">
                       <use xlink:href="#rim2" fill="#404040">
                               <set attributeName="fill" to="#808080" begin="reset.mouseover" end="reset.mouseout"/>
                       </use>
               </g>
        </defs>

<script type="text/javascript">
var viewWidth = 932;
var viewHeight = 647;
var sectionId = 'dynsection-1';
</script>
<script xlink:href="../../svgpan.js"/>
<svg id="graph" class="graph">
<g id="viewport">
<title>PageDefImpl</title>
<!-- Node1 -->
<g id="node1" class="node">
<title>Node1</title>
<g id="a_node1"><a xlink:title=" ">
<polygon fill="#999999" stroke="#666666" points="757.3976,-19 683.3976,-19 683.3976,0 757.3976,0 757.3976,-19"/>
<text text-anchor="middle" x="720.3976" y="-7" font-family="Helvetica,sans-Serif" font-size="10.00" fill="#000000">PageDefImpl</text>
</a>
</g>
</g>
<!-- Node2 -->
<g id="node2" class="node">
<title>Node2</title>
<g id="a_node2"><a xlink:href="../../dd/d10/class_definition_mixin.html" target="_top" xlink:title=" ">
<polygon fill="#ffffff" stroke="#666666" points="413.8976,-85 276.8976,-85 276.8976,-66 413.8976,-66 413.8976,-85"/>
<text text-anchor="middle" x="345.3976" y="-73" font-family="Helvetica,sans-Serif" font-size="10.00" fill="#000000">DefinitionMixin&lt; PageDef &gt;</text>
</a>
</g>
</g>
<!-- Node2&#45;&gt;Node1 -->
<g id="edge1" class="edge">
<title>Node2&#45;&gt;Node1</title>
<path fill="none" stroke="#63b8ff" d="M409.8233,-64.1611C488.6949,-50.2797 619.6114,-27.2384 683.3066,-16.028"/>
<polygon fill="#63b8ff" stroke="#63b8ff" points="408.7673,-60.7931 399.5253,-65.9735 409.9807,-67.6871 408.7673,-60.7931"/>
</g>
<!-- Node3 -->
<g id="node3" class="node">
<title>Node3</title>
<g id="a_node3"><a xlink:href="../../dd/d41/class_page_def.html" target="_top" xlink:title="A model of a page symbol.">
<polygon fill="#ffffff" stroke="#666666" points="249.8976,-577.5 194.8976,-577.5 194.8976,-558.5 249.8976,-558.5 249.8976,-577.5"/>
<text text-anchor="middle" x="222.3976" y="-565.5" font-family="Helvetica,sans-Serif" font-size="10.00" fill="#000000">PageDef</text>
</a>
</g>
</g>
<!-- Node3&#45;&gt;Node2 -->
<g id="edge2" class="edge">
<title>Node3&#45;&gt;Node2</title>
<path fill="none" stroke="#63b8ff" d="M184.4311,-566.0917C135.5464,-562.8638 54.2719,-554.6404 32.3976,-535 -5.9642,-500.5559 .3976,-475.056 .3976,-423.5 .3976,-423.5 .3976,-423.5 .3976,-147 .3976,-119.0536 176.2118,-94.5704 276.8242,-82.8475"/>
<polygon fill="#63b8ff" stroke="#63b8ff" points="184.4351,-569.5985 194.6325,-566.724 184.8682,-562.6119 184.4351,-569.5985"/>
</g>
<!-- Node4 -->
<g id="node4" class="node">
<title>Node4</title>
<g id="a_node4"><a xlink:href="../../d0/d46/class_definition_mutable.html" target="_top" xlink:title=" ">
<polygon fill="#ffffff" stroke="#666666" points="480.3976,-639 388.3976,-639 388.3976,-620 480.3976,-620 480.3976,-639"/>
<text text-anchor="middle" x="434.3976" y="-627" font-family="Helvetica,sans-Serif" font-size="10.00" fill="#000000">DefinitionMutable</text>
</a>
</g>
</g>
<!-- Node4&#45;&gt;Node3 -->
<g id="edge3" class="edge">
<title>Node4&#45;&gt;Node3</title>
<path fill="none" stroke="#63b8ff" d="M381.5253,-617.5279C346.2826,-609.0615 299.1282,-596.7943 258.3976,-583 253.652,-581.3928 248.6418,-579.4614 243.9167,-577.5275"/>
<polygon fill="#63b8ff" stroke="#63b8ff" points="381.0578,-621.0143 391.5961,-619.9219 382.6767,-614.204 381.0578,-621.0143"/>
</g>
<!-- Node15 -->
<g id="node15" class="node">
<title>Node15</title>
<g id="a_node15"><a xlink:href="../../de/db0/class_file_def.html" target="_top" xlink:title="A model of a file symbol.">
<polygon fill="#ffffff" stroke="#666666" points="550.3976,-577.5 502.3976,-577.5 502.3976,-558.5 550.3976,-558.5 550.3976,-577.5"/>
<text text-anchor="middle" x="526.3976" y="-565.5" font-family="Helvetica,sans-Serif" font-size="10.00" fill="#000000">FileDef</text>
</a>
</g>
</g>
<!-- Node4&#45;&gt;Node15 -->
<g id="edge17" class="edge">
<title>Node4&#45;&gt;Node15</title>
<path fill="none" stroke="#63b8ff" d="M457.1567,-614.286C474.3594,-602.7864 497.4438,-587.355 512.1236,-577.5419"/>
<polygon fill="#63b8ff" stroke="#63b8ff" points="455.1411,-611.4234 448.7726,-619.8906 459.0313,-617.2429 455.1411,-611.4234"/>
</g>
<!-- Node5 -->
<g id="node5" class="node">
<title>Node5</title>
<g id="a_node5"><a xlink:href="../../d5/dcc/class_definition.html" target="_top" xlink:title="The common base class of all entity definitions found in the sources.">
<polygon fill="#ffffff" stroke="#666666" points="604.3976,-639 546.3976,-639 546.3976,-620 604.3976,-620 604.3976,-639"/>
<text text-anchor="middle" x="575.3976" y="-627" font-family="Helvetica,sans-Serif" font-size="10.00" fill="#000000">Definition</text>
</a>
</g>
</g>
<!-- Node5&#45;&gt;Node1 -->
<g id="edge28" class="edge">
<title>Node5&#45;&gt;Node1</title>
<path fill="none" stroke="#9a32cd" stroke-dasharray="5,2" d="M614.6427,-620.9298C657.5849,-610.3903 720.3976,-591.0365 720.3976,-568 720.3976,-568 720.3976,-568 720.3976,-75.5 720.3976,-55.5625 720.3976,-32.2372 720.3976,-19.34"/>
<polygon fill="#9a32cd" stroke="#9a32cd" points="613.6554,-617.5671 604.7405,-623.2921 615.2798,-624.376 613.6554,-617.5671"/>
<text text-anchor="middle" x="753.3976" y="-260" font-family="Helvetica,sans-Serif" font-size="10.00" fill="#000000"> m_pageScope</text>
</g>
<!-- Node5&#45;&gt;Node3 -->
<g id="edge4" class="edge">
<title>Node5&#45;&gt;Node3</title>
<path fill="none" stroke="#63b8ff" d="M536.12,-624.9784C463.2858,-616.3888 310.001,-597.2939 258.3976,-583 253.308,-581.5902 247.9778,-579.647 243.0262,-577.6263"/>
<polygon fill="#63b8ff" stroke="#63b8ff" points="535.921,-628.479 546.2607,-626.1677 536.7364,-621.5266 535.921,-628.479"/>
</g>
<!-- Node7 -->
<g id="node7" class="node">
<title>Node7</title>
<g id="a_node7"><a xlink:href="../../dd/d50/class_definition_impl_1_1_i_m_p_l.html" target="_top" xlink:title="Private data associated with a Symbol DefinitionImpl object.">
<polygon fill="#ffffff" stroke="#666666" points="435.3976,-305 329.3976,-305 329.3976,-286 435.3976,-286 435.3976,-305"/>
<text text-anchor="middle" x="382.3976" y="-293" font-family="Helvetica,sans-Serif" font-size="10.00" fill="#000000">DefinitionImpl::IMPL</text>
</a>
</g>
</g>
<!-- Node5&#45;&gt;Node7 -->
<g id="edge7" class="edge">
<title>Node5&#45;&gt;Node7</title>
<path fill="none" stroke="#9a32cd" stroke-dasharray="5,2" d="M589.5936,-611.5789C628.7929,-559.8447 730.6687,-408.509 653.3976,-323 639.0901,-307.1672 510.2348,-299.9899 435.4747,-297.1335"/>
<polygon fill="#9a32cd" stroke="#9a32cd" points="586.6003,-609.729 583.263,-619.7845 592.1426,-614.0049 586.6003,-609.729"/>
<text text-anchor="middle" x="680.3976" y="-521.5" font-family="Helvetica,sans-Serif" font-size="10.00" fill="#000000"> def</text>
<text text-anchor="middle" x="680.3976" y="-510.5" font-family="Helvetica,sans-Serif" font-size="10.00" fill="#000000">outerScope</text>
</g>
<!-- Node5&#45;&gt;Node15 -->
<g id="edge18" class="edge">
<title>Node5&#45;&gt;Node15</title>
<path fill="none" stroke="#63b8ff" d="M561.2525,-611.7465C552.4334,-600.6775 541.4205,-586.8552 534.1618,-577.7449"/>
<polygon fill="#63b8ff" stroke="#63b8ff" points="558.7725,-614.2505 567.7414,-619.8906 564.2473,-609.8885 558.7725,-614.2505"/>
</g>
<!-- Node6 -->
<g id="node6" class="node">
<title>Node6</title>
<g id="a_node6"><a xlink:href="../../d3/ddf/class_definition_impl.html" target="_top" xlink:title=" ">
<polygon fill="#ffffff" stroke="#666666" points="420.8976,-233.5 343.8976,-233.5 343.8976,-214.5 420.8976,-214.5 420.8976,-233.5"/>
<text text-anchor="middle" x="382.3976" y="-221.5" font-family="Helvetica,sans-Serif" font-size="10.00" fill="#000000">DefinitionImpl</text>
</a>
</g>
</g>
<!-- Node6&#45;&gt;Node2 -->
<g id="edge5" class="edge">
<title>Node6&#45;&gt;Node2</title>
<path fill="none" stroke="#9a32cd" stroke-dasharray="5,2" d="M386.7556,-204.1874C391.2062,-179.1868 395.4231,-135.5297 379.3976,-103 375.7742,-95.6449 369.1567,-89.6012 362.7164,-85.0715"/>
<polygon fill="#9a32cd" stroke="#9a32cd" points="383.2713,-203.7654 384.7661,-214.2543 390.1385,-205.1226 383.2713,-203.7654"/>
<text text-anchor="middle" x="408.8976" y="-144.5" font-family="Helvetica,sans-Serif" font-size="10.00" fill="#000000"> m_impl</text>
</g>
<!-- Node17 -->
<g id="node17" class="node">
<title>Node17</title>
<g id="a_node17"><a xlink:href="../../dd/d10/class_definition_mixin.html" target="_top" xlink:title=" ">
<polygon fill="#ffffff" stroke="#666666" points="357.3976,-156.5 235.3976,-156.5 235.3976,-137.5 357.3976,-137.5 357.3976,-156.5"/>
<text text-anchor="middle" x="296.3976" y="-144.5" font-family="Helvetica,sans-Serif" font-size="10.00" fill="#000000">DefinitionMixin&lt; Base &gt;</text>
</a>
</g>
</g>
<!-- Node6&#45;&gt;Node17 -->
<g id="edge23" class="edge">
<title>Node6&#45;&gt;Node17</title>
<path fill="none" stroke="#9a32cd" stroke-dasharray="5,2" d="M363.2706,-207.5653C357.2056,-202.3072 350.4935,-196.4391 344.3976,-191 331.2388,-179.259 316.2931,-165.4884 306.6246,-156.5218"/>
<polygon fill="#9a32cd" stroke="#9a32cd" points="361.1656,-210.372 371.0214,-214.2599 365.7413,-205.0745 361.1656,-210.372"/>
<text text-anchor="middle" x="361.8976" y="-183" font-family="Helvetica,sans-Serif" font-size="10.00" fill="#000000"> m_impl</text>
</g>
<!-- Node7&#45;&gt;Node6 -->
<g id="edge6" class="edge">
<title>Node7&#45;&gt;Node6</title>
<path fill="none" stroke="#9a32cd" stroke-dasharray="5,2" d="M382.3976,-275.5971C382.3976,-262.0428 382.3976,-244.6783 382.3976,-233.9488"/>
<polygon fill="#9a32cd" stroke="#9a32cd" points="378.8977,-275.8572 382.3976,-285.8572 385.8977,-275.8572 378.8977,-275.8572"/>
<text text-anchor="middle" x="399.8976" y="-260" font-family="Helvetica,sans-Serif" font-size="10.00" fill="#000000"> m_impl</text>
</g>
<!-- Node8 -->
<g id="node8" class="node">
<title>Node8</title>
<g id="a_node8"><a xlink:href="../../d1/df9/class_section_refs.html" target="_top" xlink:title="class that represents a list of constant references to sections.">
<polygon fill="#ffffff" stroke="#666666" points="145.8976,-433 74.8976,-433 74.8976,-414 145.8976,-414 145.8976,-433"/>
<text text-anchor="middle" x="110.3976" y="-421" font-family="Helvetica,sans-Serif" font-size="10.00" fill="#000000">SectionRefs</text>
</a>
</g>
</g>
<!-- Node8&#45;&gt;Node7 -->
<g id="edge8" class="edge">
<title>Node8&#45;&gt;Node7</title>
<path fill="none" stroke="#9a32cd" stroke-dasharray="5,2" d="M104.0406,-404.201C97.9609,-381.669 92.376,-344.726 112.3976,-323 126.7862,-307.3866 254.7677,-300.1266 329.2469,-297.1973"/>
<polygon fill="#9a32cd" stroke="#9a32cd" points="100.7433,-405.3917 106.9549,-413.9746 107.4514,-403.3914 100.7433,-405.3917"/>
<text text-anchor="middle" x="140.3976" y="-331.5" font-family="Helvetica,sans-Serif" font-size="10.00" fill="#000000"> sectionRefs</text>
</g>
<!-- Node9 -->
<g id="node9" class="node">
<title>Node9</title>
<g id="a_node9"><a xlink:href="../../d3/d3b/class_group_list.html" target="_top" xlink:title=" ">
<polygon fill="#ffffff" stroke="#666666" points="468.8976,-433 409.8976,-433 409.8976,-414 468.8976,-414 468.8976,-433"/>
<text text-anchor="middle" x="439.3976" y="-421" font-family="Helvetica,sans-Serif" font-size="10.00" fill="#000000">GroupList</text>
</a>
</g>
</g>
<!-- Node9&#45;&gt;Node7 -->
<g id="edge9" class="edge">
<title>Node9&#45;&gt;Node7</title>
<path fill="none" stroke="#9a32cd" stroke-dasharray="5,2" d="M432.1511,-404.5357C424.1997,-384.1364 410.7791,-350.8725 397.3976,-323 394.479,-316.9208 390.8685,-310.2788 387.9211,-305.0455"/>
<polygon fill="#9a32cd" stroke="#9a32cd" points="428.9132,-405.8669 435.7815,-413.9339 435.443,-403.3445 428.9132,-405.8669"/>
<text text-anchor="middle" x="438.3976" y="-331.5" font-family="Helvetica,sans-Serif" font-size="10.00" fill="#000000"> partOfGroups</text>
</g>
<!-- Node10 -->
<g id="node10" class="node">
<title>Node10</title>
<g id="a_node10"><a xlink:title=" ">
<polygon fill="#ffffff" stroke="#666666" points="484.3976,-583 388.3976,-583 388.3976,-553 484.3976,-553 484.3976,-583"/>
<text text-anchor="start" x="396.3976" y="-571" font-family="Helvetica,sans-Serif" font-size="10.00" fill="#000000">std::vector&lt; const</text>
<text text-anchor="middle" x="436.3976" y="-560" font-family="Helvetica,sans-Serif" font-size="10.00" fill="#000000"> GroupDef * &gt;</text>
</a>
</g>
</g>
<!-- Node10&#45;&gt;Node9 -->
<g id="edge10" class="edge">
<title>Node10&#45;&gt;Node9</title>
<path fill="none" stroke="#63b8ff" d="M436.922,-542.7429C437.5955,-510.3032 438.7324,-455.5399 439.1939,-433.314"/>
<polygon fill="#63b8ff" stroke="#63b8ff" points="433.4214,-542.7386 436.713,-552.8091 440.4199,-542.8839 433.4214,-542.7386"/>
</g>
<!-- Node11 -->
<g id="node11" class="node">
<title>Node11</title>
<g id="a_node11"><a xlink:href="../../d7/dd5/struct_doc_info.html" target="_top" xlink:title="Data associated with a detailed description.">
<polygon fill="#ffffff" stroke="#666666" points="391.8976,-433 340.8976,-433 340.8976,-414 391.8976,-414 391.8976,-433"/>
<text text-anchor="middle" x="366.3976" y="-421" font-family="Helvetica,sans-Serif" font-size="10.00" fill="#000000">DocInfo</text>
</a>
</g>
</g>
<!-- Node11&#45;&gt;Node7 -->
<g id="edge11" class="edge">
<title>Node11&#45;&gt;Node7</title>
<path fill="none" stroke="#9a32cd" stroke-dasharray="5,2" d="M355.6259,-405.0033C344.9777,-384.0999 332.0585,-349.5342 345.3976,-323 349.1362,-315.5632 355.9437,-309.6302 362.7095,-305.2065"/>
<polygon fill="#9a32cd" stroke="#9a32cd" points="352.5611,-406.6939 360.4008,-413.8206 358.7165,-403.3605 352.5611,-406.6939"/>
<text text-anchor="middle" x="371.3976" y="-337" font-family="Helvetica,sans-Serif" font-size="10.00" fill="#000000"> details</text>
<text text-anchor="middle" x="371.3976" y="-326" font-family="Helvetica,sans-Serif" font-size="10.00" fill="#000000">inbodyDocs</text>
</g>
<!-- Node12 -->
<g id="node12" class="node">
<title>Node12</title>
<g id="a_node12"><a xlink:href="../../d9/d45/class_q_c_string.html" target="_top" xlink:title="This is an alternative implementation of QCString.">
<polygon fill="#ffffff" stroke="#666666" points="324.8976,-577.5 267.8976,-577.5 267.8976,-558.5 324.8976,-558.5 324.8976,-577.5"/>
<text text-anchor="middle" x="296.3976" y="-565.5" font-family="Helvetica,sans-Serif" font-size="10.00" fill="#000000">QCString</text>
</a>
</g>
</g>
<!-- Node12&#45;&gt;Node1 -->
<g id="edge24" class="edge">
<title>Node12&#45;&gt;Node1</title>
<path fill="none" stroke="#9a32cd" stroke-dasharray="5,2" d="M263.3093,-554.7585C261.6529,-554.1523 260.0088,-553.5628 258.3976,-553 172.3978,-522.9615 127.8711,-550.2973 65.3976,-484 46.069,-463.4884 46.3976,-451.6837 46.3976,-423.5 46.3976,-423.5 46.3976,-423.5 46.3976,-75.5 46.3976,-43.2408 541.9037,-17.7797 683.2004,-11.1751"/>
<polygon fill="#9a32cd" stroke="#9a32cd" points="262.1988,-558.0804 272.7903,-558.3439 264.6749,-551.5329 262.1988,-558.0804"/>
<text text-anchor="middle" x="74.3976" y="-227" font-family="Helvetica,sans-Serif" font-size="10.00" fill="#000000"> m_fileName</text>
<text text-anchor="middle" x="74.3976" y="-216" font-family="Helvetica,sans-Serif" font-size="10.00" fill="#000000">m_title</text>
</g>
<!-- Node12&#45;&gt;Node7 -->
<g id="edge19" class="edge">
<title>Node12&#45;&gt;Node7</title>
<path fill="none" stroke="#9a32cd" stroke-dasharray="5,2" d="M266.3569,-553.6501C241.1352,-539.7586 206.821,-516.0903 191.3976,-484 168.1017,-435.5299 160.6763,-407.139 191.3976,-363 208.4248,-338.5361 286.6365,-316.8765 337.5466,-305.0324"/>
<polygon fill="#9a32cd" stroke="#9a32cd" points="265.0432,-556.9144 275.5198,-558.4925 268.314,-550.7256 265.0432,-556.9144"/>
<text text-anchor="middle" x="225.8976" y="-476" font-family="Helvetica,sans-Serif" font-size="10.00" fill="#000000"> briefSignatures</text>
<text text-anchor="middle" x="225.8976" y="-465" font-family="Helvetica,sans-Serif" font-size="10.00" fill="#000000">defFileExt</text>
<text text-anchor="middle" x="225.8976" y="-454" font-family="Helvetica,sans-Serif" font-size="10.00" fill="#000000">defFileName</text>
<text text-anchor="middle" x="225.8976" y="-443" font-family="Helvetica,sans-Serif" font-size="10.00" fill="#000000">docSignatures</text>
<text text-anchor="middle" x="225.8976" y="-432" font-family="Helvetica,sans-Serif" font-size="10.00" fill="#000000">id</text>
<text text-anchor="middle" x="225.8976" y="-421" font-family="Helvetica,sans-Serif" font-size="10.00" fill="#000000">localName</text>
<text text-anchor="middle" x="225.8976" y="-410" font-family="Helvetica,sans-Serif" font-size="10.00" fill="#000000">name</text>
<text text-anchor="middle" x="225.8976" y="-399" font-family="Helvetica,sans-Serif" font-size="10.00" fill="#000000">qualifiedName</text>
<text text-anchor="middle" x="225.8976" y="-388" font-family="Helvetica,sans-Serif" font-size="10.00" fill="#000000">ref</text>
<text text-anchor="middle" x="225.8976" y="-377" font-family="Helvetica,sans-Serif" font-size="10.00" fill="#000000">symbolName</text>
<text text-anchor="middle" x="225.8976" y="-366" font-family="Helvetica,sans-Serif" font-size="10.00" fill="#000000">...</text>
</g>
<!-- Node12&#45;&gt;Node11 -->
<g id="edge12" class="edge">
<title>Node12&#45;&gt;Node11</title>
<path fill="none" stroke="#9a32cd" stroke-dasharray="5,2" d="M315.053,-550.8481C319.535,-546.0447 324.0021,-540.5969 327.3976,-535 348.3526,-500.4595 360.1515,-453.0511 364.477,-433.0334"/>
<polygon fill="#9a32cd" stroke="#9a32cd" points="312.2674,-548.6847 307.6824,-558.236 317.2229,-553.6286 312.2674,-548.6847"/>
<text text-anchor="middle" x="352.8976" y="-521.5" font-family="Helvetica,sans-Serif" font-size="10.00" fill="#000000"> doc</text>
<text text-anchor="middle" x="352.8976" y="-510.5" font-family="Helvetica,sans-Serif" font-size="10.00" fill="#000000">file</text>
</g>
<!-- Node13 -->
<g id="node13" class="node">
<title>Node13</title>
<g id="a_node13"><a xlink:href="../../d0/da7/struct_brief_info.html" target="_top" xlink:title="Data associated with a brief description.">
<polygon fill="#ffffff" stroke="#666666" points="322.8976,-433 269.8976,-433 269.8976,-414 322.8976,-414 322.8976,-433"/>
<text text-anchor="middle" x="296.3976" y="-421" font-family="Helvetica,sans-Serif" font-size="10.00" fill="#000000">BriefInfo</text>
</a>
</g>
</g>
<!-- Node12&#45;&gt;Node13 -->
<g id="edge14" class="edge">
<title>Node12&#45;&gt;Node13</title>
<path fill="none" stroke="#9a32cd" stroke-dasharray="5,2" d="M296.3976,-547.8432C296.3976,-516.2876 296.3976,-456.4234 296.3976,-433.121"/>
<polygon fill="#9a32cd" stroke="#9a32cd" points="292.8977,-548.0679 296.3976,-558.0679 299.8977,-548.068 292.8977,-548.0679"/>
<text text-anchor="middle" x="309.8976" y="-527" font-family="Helvetica,sans-Serif" font-size="10.00" fill="#000000"> doc</text>
<text text-anchor="middle" x="309.8976" y="-516" font-family="Helvetica,sans-Serif" font-size="10.00" fill="#000000">file</text>
<text text-anchor="middle" x="309.8976" y="-505" font-family="Helvetica,sans-Serif" font-size="10.00" fill="#000000">tooltip</text>
</g>
<!-- Node13&#45;&gt;Node7 -->
<g id="edge13" class="edge">
<title>Node13&#45;&gt;Node7</title>
<path fill="none" stroke="#9a32cd" stroke-dasharray="5,2" d="M294.6455,-403.8014C293.7681,-381.7081 295.752,-345.9699 314.3976,-323 320.9787,-314.8926 330.3206,-309.1576 339.9794,-305.1068"/>
<polygon fill="#9a32cd" stroke="#9a32cd" points="291.1646,-404.2133 295.2921,-413.9711 298.1505,-403.7691 291.1646,-404.2133"/>
<text text-anchor="middle" x="325.3976" y="-331.5" font-family="Helvetica,sans-Serif" font-size="10.00" fill="#000000"> brief</text>
</g>
<!-- Node14 -->
<g id="node14" class="node">
<title>Node14</title>
<g id="a_node14"><a xlink:href="../../db/dab/struct_body_info.html" target="_top" xlink:title="Data associated with description found in the body.">
<polygon fill="#ffffff" stroke="#666666" points="543.3976,-433 487.3976,-433 487.3976,-414 543.3976,-414 543.3976,-433"/>
<text text-anchor="middle" x="515.3976" y="-421" font-family="Helvetica,sans-Serif" font-size="10.00" fill="#000000">BodyInfo</text>
</a>
</g>
</g>
<!-- Node14&#45;&gt;Node7 -->
<g id="edge15" class="edge">
<title>Node14&#45;&gt;Node7</title>
<path fill="none" stroke="#9a32cd" stroke-dasharray="5,2" d="M512.3243,-403.7965C507.7668,-381.1456 497.0559,-344.3522 473.3976,-323 466.1076,-316.4206 445.9318,-310.0158 426.4251,-305.0449"/>
<polygon fill="#9a32cd" stroke="#9a32cd" points="508.9301,-404.6981 514.1401,-413.9234 515.8202,-403.4626 508.9301,-404.6981"/>
<text text-anchor="middle" x="502.8976" y="-331.5" font-family="Helvetica,sans-Serif" font-size="10.00" fill="#000000"> body</text>
</g>
<!-- Node15&#45;&gt;Node14 -->
<g id="edge16" class="edge">
<title>Node15&#45;&gt;Node14</title>
<path fill="none" stroke="#9a32cd" stroke-dasharray="5,2" d="M524.8632,-547.8432C522.461,-516.2876 517.9039,-456.4234 516.13,-433.121"/>
<polygon fill="#9a32cd" stroke="#9a32cd" points="521.3925,-548.3625 525.6415,-558.0679 528.3723,-547.8311 521.3925,-548.3625"/>
<text text-anchor="middle" x="540.3976" y="-516" font-family="Helvetica,sans-Serif" font-size="10.00" fill="#000000"> fileDef</text>
</g>
<!-- Node16 -->
<g id="node16" class="node">
<title>Node16</title>
<g id="a_node16"><a xlink:href="../../d1/d7d/class_member_vector.html" target="_top" xlink:title="A vector of MemberDef object.">
<polygon fill="#ffffff" stroke="#666666" points="641.3976,-433 561.3976,-433 561.3976,-414 641.3976,-414 641.3976,-433"/>
<text text-anchor="middle" x="601.3976" y="-421" font-family="Helvetica,sans-Serif" font-size="10.00" fill="#000000">MemberVector</text>
</a>
</g>
</g>
<!-- Node16&#45;&gt;Node7 -->
<g id="edge20" class="edge">
<title>Node16&#45;&gt;Node7</title>
<path fill="none" stroke="#9a32cd" stroke-dasharray="5,2" d="M591.725,-405.0689C578.5926,-381.9868 552.8692,-343.0432 519.3976,-323 505.2968,-314.5563 467.7418,-307.3467 435.5114,-302.4305"/>
<polygon fill="#9a32cd" stroke="#9a32cd" points="588.687,-406.8081 596.5682,-413.8888 594.8228,-403.4387 588.687,-406.8081"/>
<text text-anchor="middle" x="598.3976" y="-337" font-family="Helvetica,sans-Serif" font-size="10.00" fill="#000000"> referencedByMembers</text>
<text text-anchor="middle" x="598.3976" y="-326" font-family="Helvetica,sans-Serif" font-size="10.00" fill="#000000">referencesMembers</text>
</g>
<!-- Node17&#45;&gt;Node2 -->
<g id="edge21" class="edge">
<title>Node17&#45;&gt;Node2</title>
<path fill="none" stroke="#ffa500" stroke-dasharray="5,2" d="M304.8183,-128.1605C308.7717,-120.1121 313.8375,-110.7962 319.3976,-103 323.9756,-96.5808 329.9746,-90.1372 335.0565,-85.1024"/>
<polygon fill="#ffa500" stroke="#ffa500" points="301.5307,-126.9276 300.4522,-137.4674 307.868,-129.9007 301.5307,-126.9276"/>
<text text-anchor="middle" x="349.3976" y="-106" font-family="Helvetica,sans-Serif" font-size="10.00" fill="#000000"> &lt; PageDef &gt;</text>
</g>
<!-- Node18 -->
<g id="node18" class="node">
<title>Node18</title>
<g id="a_node18"><a xlink:title=" ">
<polygon fill="#ffffff" stroke="#666666" points="315.8976,-233.5 276.8976,-233.5 276.8976,-214.5 315.8976,-214.5 315.8976,-233.5"/>
<text text-anchor="middle" x="296.3976" y="-221.5" font-family="Helvetica,sans-Serif" font-size="10.00" fill="#000000">Base</text>
</a>
</g>
</g>
<!-- Node18&#45;&gt;Node17 -->
<g id="edge22" class="edge">
<title>Node18&#45;&gt;Node17</title>
<path fill="none" stroke="#63b8ff" d="M296.3976,-203.8748C296.3976,-188.7682 296.3976,-168.731 296.3976,-156.9161"/>
<polygon fill="#63b8ff" stroke="#63b8ff" points="292.8977,-204.2479 296.3976,-214.2479 299.8977,-204.2479 292.8977,-204.2479"/>
</g>
<!-- Node19 -->
<g id="node19" class="node">
<title>Node19</title>
<g id="a_node19"><a xlink:href="../../d9/de6/class_page_linked_ref_map.html" target="_top" xlink:title=" ">
<polygon fill="#ffffff" stroke="#666666" points="850.3976,-85 748.3976,-85 748.3976,-66 850.3976,-66 850.3976,-85"/>
<text text-anchor="middle" x="799.3976" y="-73" font-family="Helvetica,sans-Serif" font-size="10.00" fill="#000000">PageLinkedRefMap</text>
</a>
</g>
</g>
<!-- Node19&#45;&gt;Node1 -->
<g id="edge25" class="edge">
<title>Node19&#45;&gt;Node1</title>
<path fill="none" stroke="#9a32cd" stroke-dasharray="5,2" d="M779.9824,-59.2797C764.8777,-46.6606 744.434,-29.581 731.8453,-19.0639"/>
<polygon fill="#9a32cd" stroke="#9a32cd" points="777.8226,-62.036 787.7409,-65.7615 782.3106,-56.664 777.8226,-62.036"/>
<text text-anchor="middle" x="794.8976" y="-40" font-family="Helvetica,sans-Serif" font-size="10.00" fill="#000000"> m_subPages</text>
</g>
<!-- Node20 -->
<g id="node20" class="node">
<title>Node20</title>
<g id="a_node20"><a xlink:href="../../d2/db7/class_linked_ref_map.html" target="_top" xlink:title=" ">
<polygon fill="#ffffff" stroke="#666666" points="865.8976,-162 752.8976,-162 752.8976,-132 865.8976,-132 865.8976,-162"/>
<text text-anchor="start" x="760.8976" y="-150" font-family="Helvetica,sans-Serif" font-size="10.00" fill="#000000">LinkedRefMap&lt; const</text>
<text text-anchor="middle" x="809.3976" y="-139" font-family="Helvetica,sans-Serif" font-size="10.00" fill="#000000"> PageDef &gt;</text>
</a>
</g>
</g>
<!-- Node20&#45;&gt;Node19 -->
<g id="edge26" class="edge">
<title>Node20&#45;&gt;Node19</title>
<path fill="none" stroke="#63b8ff" d="M805.8745,-121.8098C804.1027,-109.141 802.0589,-94.5285 800.7489,-85.1614"/>
<polygon fill="#63b8ff" stroke="#63b8ff" points="802.4254,-122.4179 807.2769,-131.8367 809.3579,-121.4483 802.4254,-122.4179"/>
</g>
<!-- Node21 -->
<g id="node21" class="node">
<title>Node21</title>
<g id="a_node21"><a xlink:href="../../d2/db7/class_linked_ref_map.html" target="_top" xlink:title="Container class representing a vector of objects with keys.">
<polygon fill="#ffffff" stroke="#666666" points="875.8976,-239 748.8976,-239 748.8976,-209 875.8976,-209 875.8976,-239"/>
<text text-anchor="start" x="756.8976" y="-227" font-family="Helvetica,sans-Serif" font-size="10.00" fill="#000000">LinkedRefMap&lt; T, Hash,</text>
<text text-anchor="middle" x="812.3976" y="-216" font-family="Helvetica,sans-Serif" font-size="10.00" fill="#000000"> KeyEqual, Map &gt;</text>
</a>
</g>
</g>
<!-- Node21&#45;&gt;Node20 -->
<g id="edge27" class="edge">
<title>Node21&#45;&gt;Node20</title>
<path fill="none" stroke="#ffa500" stroke-dasharray="5,2" d="M811.402,-198.4451C810.9338,-186.4291 810.3915,-172.5091 809.9891,-162.1811"/>
<polygon fill="#ffa500" stroke="#ffa500" points="807.9182,-198.9312 811.8049,-208.7873 814.9128,-198.6586 807.9182,-198.9312"/>
<text text-anchor="middle" x="853.8976" y="-183" font-family="Helvetica,sans-Serif" font-size="10.00" fill="#000000"> &lt; const PageDef &gt;</text>
</g>
<!-- Node22 -->
<g id="node22" class="node">
<title>Node22</title>
<g id="a_node22"><a xlink:href="../../da/d1d/class_local_toc.html" target="_top" xlink:title=" ">
<polygon fill="#ffffff" stroke="#666666" points="924.3976,-85 868.3976,-85 868.3976,-66 924.3976,-66 924.3976,-85"/>
<text text-anchor="middle" x="896.3976" y="-73" font-family="Helvetica,sans-Serif" font-size="10.00" fill="#000000">LocalToc</text>
</a>
</g>
</g>
<!-- Node22&#45;&gt;Node1 -->
<g id="edge29" class="edge">
<title>Node22&#45;&gt;Node1</title>
<path fill="none" stroke="#9a32cd" stroke-dasharray="5,2" d="M873.8495,-60.461C861.2106,-52.5735 844.9097,-43.274 829.3976,-37 806.2389,-27.6332 778.9889,-20.7582 757.5286,-16.2249"/>
<polygon fill="#9a32cd" stroke="#9a32cd" points="872.0314,-63.4527 882.3418,-65.8913 875.8025,-57.5553 872.0314,-63.4527"/>
<text text-anchor="middle" x="878.3976" y="-40" font-family="Helvetica,sans-Serif" font-size="10.00" fill="#000000"> m_localToc</text>
</g>
</g>
</svg>
        <g id="navigator" transform="translate(0 0)" fill="#404254">
                <rect fill="#f2f5e9" fill-opacity="0.5" stroke="#606060" stroke-width=".5" x="0" y="0" width="60" height="60"/>
                <use id="zoomplus" xlink:href="#zoomPlus" x="17" y="9" onmousedown="handleZoom(evt,'in')"/>
                <use id="zoomminus" xlink:href="#zoomMin" x="42" y="9" onmousedown="handleZoom(evt,'out')"/>
                <use id="reset" xlink:href="#resetDef" x="30" y="36" onmousedown="handleReset()"/>
                <g id="arrowUp" xlink:href="#dirArrow" transform="translate(30 24)" onmousedown="handlePan(0,-1)">
                  <use xlink:href="#rim" fill="#404040">
                        <set attributeName="fill" to="#808080" begin="arrowUp.mouseover" end="arrowUp.mouseout"/>
                  </use>
                  <path fill="none" stroke="white" stroke-width="1.5" d="M0,-3.0v7 M-2.5,-0.5L0,-3.0L2.5,-0.5"/>
                </g>
                <g id="arrowRight" xlink:href="#dirArrow" transform="rotate(90) translate(36 -43)" onmousedown="handlePan(1,0)">
                  <use xlink:href="#rim" fill="#404040">
                        <set attributeName="fill" to="#808080" begin="arrowRight.mouseover" end="arrowRight.mouseout"/>
                  </use>
                  <path fill="none" stroke="white" stroke-width="1.5" d="M0,-3.0v7 M-2.5,-0.5L0,-3.0L2.5,-0.5"/>
                </g>
                <g id="arrowDown" xlink:href="#dirArrow" transform="rotate(180) translate(-30 -48)" onmousedown="handlePan(0,1)">
                  <use xlink:href="#rim" fill="#404040">
                        <set attributeName="fill" to="#808080" begin="arrowDown.mouseover" end="arrowDown.mouseout"/>
                  </use>
                  <path fill="none" stroke="white" stroke-width="1.5" d="M0,-3.0v7 M-2.5,-0.5L0,-3.0L2.5,-0.5"/>
                </g>
                <g id="arrowLeft" xlink:href="#dirArrow" transform="rotate(270) translate(-36 17)" onmousedown="handlePan(-1,0)">
                  <use xlink:href="#rim" fill="#404040">
                        <set attributeName="fill" to="#808080" begin="arrowLeft.mouseover" end="arrowLeft.mouseout"/>
                  </use>
                  <path fill="none" stroke="white" stroke-width="1.5" d="M0,-3.0v7 M-2.5,-0.5L0,-3.0L2.5,-0.5"/>
                </g>
        </g>
        <svg viewBox="0 0 15 15" width="100%" height="30px" preserveAspectRatio="xMaxYMin meet">
         <g id="arrow_out" transform="scale(0.3 0.3)">
          <a xlink:href="class_page_def_impl__coll__graph_org.svg" target="_base">
           <rect id="button" ry="5" rx="5" y="6" x="6" height="38" width="38"
                fill="#f2f5e9" fill-opacity="0.5" stroke="#606060" stroke-width="1.0"/>
           <path id="arrow"
             d="M 11.500037,31.436501 C 11.940474,20.09759 22.043105,11.32322 32.158766,21.979434 L 37.068811,17.246167 C 37.068811,17.246167 37.088388,32 37.088388,32 L 22.160133,31.978069 C 22.160133,31.978069 26.997745,27.140456 26.997745,27.140456 C 18.528582,18.264221 13.291696,25.230495 11.500037,31.436501 z"
             style="fill:#404040;"/>
          </a>
         </g>
        </svg>
</svg>
