<?xml version="1.0" encoding="UTF-8" standalone="no"?>
<!DOCTYPE svg PUBLIC "-//W3C//DTD SVG 1.1//EN"
 "http://www.w3.org/Graphics/SVG/1.1/DTD/svg11.dtd">
<!-- Generated by graphviz version 2.40.1 (20161225.0304)
 -->
<!-- Title: src/searchindex.h Pages: 1 -->
<svg width="2735pt" height="137pt"
 viewBox="0.00 0.00 2735.00 137.00" xmlns="http://www.w3.org/2000/svg" xmlns:xlink="http://www.w3.org/1999/xlink">
<g id="graph0" class="graph" transform="scale(1 1) rotate(0) translate(4 133)">
<title>src/searchindex.h</title>
<!-- Node1 -->
<g id="node1" class="node">
<title>Node1</title>
<g id="a_node1"><a xlink:title="Web server based search engine.">
<polygon fill="#999999" stroke="#666666" points="1712.5,-129 1618.5,-129 1618.5,-110 1712.5,-110 1712.5,-129"/>
<text text-anchor="middle" x="1665.5" y="-117" font-family="Helvetica,sans-Serif" font-size="10.00" fill="#000000">src/searchindex.h</text>
</a>
</g>
</g>
<!-- Node2 -->
<g id="node2" class="node">
<title>Node2</title>
<g id="a_node2"><a xlink:href="../../de/d89/classdef_8cpp.html" target="_top" xlink:title=" ">
<polygon fill="#ffffff" stroke="#666666" points="89,-19 0,-19 0,0 89,0 89,-19"/>
<text text-anchor="middle" x="44.5" y="-7" font-family="Helvetica,sans-Serif" font-size="10.00" fill="#000000">src/classdef.cpp</text>
</a>
</g>
</g>
<!-- Node1&#45;&gt;Node2 -->
<g id="edge1" class="edge">
<title>Node1&#45;&gt;Node2</title>
<path fill="none" stroke="#63b8ff" d="M1608.4362,-118.4644C1395.7403,-114.4433 649.1968,-98.8441 412.5,-74 293.9658,-61.5584 155.9998,-33.747 87.566,-19.0397"/>
<polygon fill="#63b8ff" stroke="#63b8ff" points="1608.3881,-121.9641 1618.4522,-118.6527 1608.5197,-114.9653 1608.3881,-121.9641"/>
</g>
<!-- Node3 -->
<g id="node3" class="node">
<title>Node3</title>
<g id="a_node3"><a xlink:href="../../da/d1f/code_8l.html" target="_top" xlink:title=" ">
<polygon fill="#ffffff" stroke="#666666" points="166,-19 107,-19 107,0 166,0 166,-19"/>
<text text-anchor="middle" x="136.5" y="-7" font-family="Helvetica,sans-Serif" font-size="10.00" fill="#000000">src/code.l</text>
</a>
</g>
</g>
<!-- Node1&#45;&gt;Node3 -->
<g id="edge2" class="edge">
<title>Node1&#45;&gt;Node3</title>
<path fill="none" stroke="#63b8ff" d="M1607.9739,-118.5378C1450.7161,-115.5705 1000.4888,-104.8214 627.5,-74 425.8168,-57.3342 374.6007,-55.2326 175.5,-19 172.4833,-18.451 169.3514,-17.8101 166.2332,-17.1251"/>
<polygon fill="#63b8ff" stroke="#63b8ff" points="1608.2821,-122.044 1618.3454,-118.7301 1608.412,-115.0452 1608.2821,-122.044"/>
</g>
<!-- Node4 -->
<g id="node4" class="node">
<title>Node4</title>
<g id="a_node4"><a xlink:href="../../d8/d0a/conceptdef_8cpp.html" target="_top" xlink:title=" ">
<polygon fill="#ffffff" stroke="#666666" points="284.5,-19 184.5,-19 184.5,0 284.5,0 284.5,-19"/>
<text text-anchor="middle" x="234.5" y="-7" font-family="Helvetica,sans-Serif" font-size="10.00" fill="#000000">src/conceptdef.cpp</text>
</a>
</g>
</g>
<!-- Node1&#45;&gt;Node4 -->
<g id="edge3" class="edge">
<title>Node1&#45;&gt;Node4</title>
<path fill="none" stroke="#63b8ff" d="M1607.971,-117.5313C1419.0333,-110.5868 800.6317,-84.0568 293.5,-19 290.6186,-18.6304 287.6617,-18.2279 284.6803,-17.8043"/>
<polygon fill="#63b8ff" stroke="#63b8ff" points="1608.102,-121.0382 1618.2227,-117.9042 1608.3566,-114.0429 1608.102,-121.0382"/>
</g>
<!-- Node5 -->
<g id="node5" class="node">
<title>Node5</title>
<g id="a_node5"><a xlink:href="../../db/d12/context_8cpp.html" target="_top" xlink:title=" ">
<polygon fill="#ffffff" stroke="#666666" points="1986.5,-74 1902.5,-74 1902.5,-55 1986.5,-55 1986.5,-74"/>
<text text-anchor="middle" x="1944.5" y="-62" font-family="Helvetica,sans-Serif" font-size="10.00" fill="#000000">src/context.cpp</text>
</a>
</g>
</g>
<!-- Node1&#45;&gt;Node5 -->
<g id="edge4" class="edge">
<title>Node1&#45;&gt;Node5</title>
<path fill="none" stroke="#63b8ff" d="M1722.5035,-108.2628C1775.8718,-97.7421 1854.3811,-82.2654 1902.3236,-72.8143"/>
<polygon fill="#63b8ff" stroke="#63b8ff" points="1721.6473,-104.8641 1712.5131,-110.2322 1723.0012,-111.7319 1721.6473,-104.8641"/>
</g>
<!-- Node6 -->
<g id="node6" class="node">
<title>Node6</title>
<g id="a_node6"><a xlink:href="../../df/dc9/docparser__p_8h.html" target="_top" xlink:title="Private header shared between docparser.cpp and docnode.cpp.">
<polygon fill="#ffffff" stroke="#666666" points="2100,-74 2005,-74 2005,-55 2100,-55 2100,-74"/>
<text text-anchor="middle" x="2052.5" y="-62" font-family="Helvetica,sans-Serif" font-size="10.00" fill="#000000">src/docparser_p.h</text>
</a>
</g>
</g>
<!-- Node1&#45;&gt;Node6 -->
<g id="edge5" class="edge">
<title>Node1&#45;&gt;Node6</title>
<path fill="none" stroke="#63b8ff" d="M1722.7282,-112.1062C1788.5945,-103.4811 1899.9822,-88.5418 1995.5,-74 1998.5746,-73.5319 2001.7404,-73.0379 2004.9302,-72.5311"/>
<polygon fill="#63b8ff" stroke="#63b8ff" points="1722.0195,-108.669 1712.5573,-113.4352 1722.9265,-115.61 1722.0195,-108.669"/>
</g>
<!-- Node9 -->
<g id="node9" class="node">
<title>Node9</title>
<g id="a_node9"><a xlink:href="../../dc/d98/doxygen_8cpp.html" target="_top" xlink:title=" ">
<polygon fill="#ffffff" stroke="#666666" points="392,-19 303,-19 303,0 392,0 392,-19"/>
<text text-anchor="middle" x="347.5" y="-7" font-family="Helvetica,sans-Serif" font-size="10.00" fill="#000000">src/doxygen.cpp</text>
</a>
</g>
</g>
<!-- Node1&#45;&gt;Node9 -->
<g id="edge8" class="edge">
<title>Node1&#45;&gt;Node9</title>
<path fill="none" stroke="#63b8ff" d="M1608.0751,-116.3349C1496.0791,-109.9576 1240.6932,-94.4117 1026.5,-74 955.6516,-67.2484 938.3278,-61.9646 867.5,-55 660.7688,-34.6718 607.5913,-45.0267 401.5,-19 398.4779,-18.6184 395.3676,-18.1837 392.2384,-17.7152"/>
<polygon fill="#63b8ff" stroke="#63b8ff" points="1607.9573,-119.8338 1618.1393,-116.9053 1608.3534,-112.845 1607.9573,-119.8338"/>
</g>
<!-- Node10 -->
<g id="node10" class="node">
<title>Node10</title>
<g id="a_node10"><a xlink:href="../../d6/ddc/filedef_8cpp.html" target="_top" xlink:title=" ">
<polygon fill="#ffffff" stroke="#666666" points="488.5,-19 410.5,-19 410.5,0 488.5,0 488.5,-19"/>
<text text-anchor="middle" x="449.5" y="-7" font-family="Helvetica,sans-Serif" font-size="10.00" fill="#000000">src/filedef.cpp</text>
</a>
</g>
</g>
<!-- Node1&#45;&gt;Node10 -->
<g id="edge9" class="edge">
<title>Node1&#45;&gt;Node10</title>
<path fill="none" stroke="#63b8ff" d="M1608.295,-116.669C1509.4828,-111.3354 1300.5833,-98.1086 1125.5,-74 1081.1158,-67.8884 1070.932,-60.7538 1026.5,-55 792.7965,-24.736 731.1151,-49.9391 497.5,-19 494.6367,-18.6208 491.6873,-18.1747 488.7252,-17.6863"/>
<polygon fill="#63b8ff" stroke="#63b8ff" points="1608.1935,-120.1685 1618.3657,-117.2057 1608.5661,-113.1784 1608.1935,-120.1685"/>
</g>
<!-- Node11 -->
<g id="node11" class="node">
<title>Node11</title>
<g id="a_node11"><a xlink:href="../../d6/d42/groupdef_8cpp.html" target="_top" xlink:title=" ">
<polygon fill="#ffffff" stroke="#666666" points="596,-19 507,-19 507,0 596,0 596,-19"/>
<text text-anchor="middle" x="551.5" y="-7" font-family="Helvetica,sans-Serif" font-size="10.00" fill="#000000">src/groupdef.cpp</text>
</a>
</g>
</g>
<!-- Node1&#45;&gt;Node11 -->
<g id="edge10" class="edge">
<title>Node1&#45;&gt;Node11</title>
<path fill="none" stroke="#63b8ff" d="M1608.0304,-117.2284C1518.699,-112.9651 1341.4114,-101.5702 1193.5,-74 1162.6515,-68.2499 1156.4236,-60.3313 1125.5,-55 896.7668,-15.5655 834.8491,-47.5176 604.5,-19 601.8096,-18.6669 599.0486,-18.2874 596.2676,-17.8762"/>
<polygon fill="#63b8ff" stroke="#63b8ff" points="1608.0687,-120.7339 1618.2204,-117.7018 1608.3936,-113.7414 1608.0687,-120.7339"/>
</g>
<!-- Node12 -->
<g id="node12" class="node">
<title>Node12</title>
<g id="a_node12"><a xlink:href="../../d8/d6e/htmlgen_8cpp.html" target="_top" xlink:title=" ">
<polygon fill="#ffffff" stroke="#666666" points="2204.5,-74 2118.5,-74 2118.5,-55 2204.5,-55 2204.5,-74"/>
<text text-anchor="middle" x="2161.5" y="-62" font-family="Helvetica,sans-Serif" font-size="10.00" fill="#000000">src/htmlgen.cpp</text>
</a>
</g>
</g>
<!-- Node1&#45;&gt;Node12 -->
<g id="edge11" class="edge">
<title>Node1&#45;&gt;Node12</title>
<path fill="none" stroke="#63b8ff" d="M1722.8222,-115.0749C1807.5831,-108.2038 1971.2371,-93.6832 2109.5,-74 2112.4074,-73.5861 2115.4004,-73.1272 2118.4123,-72.6411"/>
<polygon fill="#63b8ff" stroke="#63b8ff" points="1722.3227,-111.6037 1712.6356,-115.8945 1722.8842,-118.5811 1722.3227,-111.6037"/>
</g>
<!-- Node13 -->
<g id="node13" class="node">
<title>Node13</title>
<g id="a_node13"><a xlink:href="../../d0/d72/memberdef_8cpp.html" target="_top" xlink:title=" ">
<polygon fill="#ffffff" stroke="#666666" points="715,-19 614,-19 614,0 715,0 715,-19"/>
<text text-anchor="middle" x="664.5" y="-7" font-family="Helvetica,sans-Serif" font-size="10.00" fill="#000000">src/memberdef.cpp</text>
</a>
</g>
</g>
<!-- Node1&#45;&gt;Node13 -->
<g id="edge12" class="edge">
<title>Node1&#45;&gt;Node13</title>
<path fill="none" stroke="#63b8ff" d="M1608.3681,-117.5604C1527.0532,-113.8411 1373.6908,-103.2706 1246.5,-74 1222.114,-68.388 1217.9715,-60.2265 1193.5,-55 989.0532,-11.3353 932.1328,-43.3665 724.5,-19 721.4624,-18.6435 718.343,-18.2459 715.1994,-17.821"/>
<polygon fill="#63b8ff" stroke="#63b8ff" points="1608.2546,-121.0587 1618.3986,-118.0009 1608.5618,-114.0654 1608.2546,-121.0587"/>
</g>
<!-- Node14 -->
<g id="node14" class="node">
<title>Node14</title>
<g id="a_node14"><a xlink:href="../../d7/d1c/namespacedef_8cpp.html" target="_top" xlink:title=" ">
<polygon fill="#ffffff" stroke="#666666" points="849.5,-19 733.5,-19 733.5,0 849.5,0 849.5,-19"/>
<text text-anchor="middle" x="791.5" y="-7" font-family="Helvetica,sans-Serif" font-size="10.00" fill="#000000">src/namespacedef.cpp</text>
</a>
</g>
</g>
<!-- Node1&#45;&gt;Node14 -->
<g id="edge13" class="edge">
<title>Node1&#45;&gt;Node14</title>
<path fill="none" stroke="#63b8ff" d="M1608.1584,-116.036C1535.8909,-110.8273 1408.2176,-98.817 1301.5,-74 1276.3102,-68.1422 1271.7798,-60.4561 1246.5,-55 1077.2129,-18.4628 1030.5075,-39.1623 858.5,-19 855.5829,-18.6581 852.5966,-18.2923 849.5824,-17.9107"/>
<polygon fill="#63b8ff" stroke="#63b8ff" points="1608.1891,-119.5467 1618.4097,-116.7559 1608.6795,-112.5639 1608.1891,-119.5467"/>
</g>
<!-- Node15 -->
<g id="node15" class="node">
<title>Node15</title>
<g id="a_node15"><a xlink:href="../../d2/db9/outputlist_8h.html" target="_top" xlink:title=" ">
<polygon fill="#ffffff" stroke="#666666" points="1392,-74 1311,-74 1311,-55 1392,-55 1392,-74"/>
<text text-anchor="middle" x="1351.5" y="-62" font-family="Helvetica,sans-Serif" font-size="10.00" fill="#000000">src/outputlist.h</text>
</a>
</g>
</g>
<!-- Node1&#45;&gt;Node15 -->
<g id="edge14" class="edge">
<title>Node1&#45;&gt;Node15</title>
<path fill="none" stroke="#63b8ff" d="M1608.4115,-109.5004C1545.9681,-98.5629 1447.4503,-81.3066 1392.3223,-71.6504"/>
<polygon fill="#63b8ff" stroke="#63b8ff" points="1608.0371,-112.9881 1618.491,-111.2659 1609.2449,-106.093 1608.0371,-112.9881"/>
</g>
<!-- Node25 -->
<g id="node25" class="node">
<title>Node25</title>
<g id="a_node25"><a xlink:href="../../d3/ded/pycode_8l.html" target="_top" xlink:title=" ">
<polygon fill="#ffffff" stroke="#666666" points="1907.5,-19 1837.5,-19 1837.5,0 1907.5,0 1907.5,-19"/>
<text text-anchor="middle" x="1872.5" y="-7" font-family="Helvetica,sans-Serif" font-size="10.00" fill="#000000">src/pycode.l</text>
</a>
</g>
</g>
<!-- Node1&#45;&gt;Node25 -->
<g id="edge39" class="edge">
<title>Node1&#45;&gt;Node25</title>
<path fill="none" stroke="#63b8ff" d="M1661.3842,-99.7041C1659.667,-85.5948 1660.0618,-67.0631 1670.5,-55 1671.8783,-53.4072 1779.5988,-29.7395 1837.1475,-17.1876"/>
<polygon fill="#63b8ff" stroke="#63b8ff" points="1657.9794,-100.5677 1663.0627,-109.8634 1664.8857,-99.4266 1657.9794,-100.5677"/>
</g>
<!-- Node26 -->
<g id="node26" class="node">
<title>Node26</title>
<g id="a_node26"><a xlink:href="../../d2/dda/sqlcode_8l.html" target="_top" xlink:title=" ">
<polygon fill="#ffffff" stroke="#666666" points="1997.5,-19 1925.5,-19 1925.5,0 1997.5,0 1997.5,-19"/>
<text text-anchor="middle" x="1961.5" y="-7" font-family="Helvetica,sans-Serif" font-size="10.00" fill="#000000">src/sqlcode.l</text>
</a>
</g>
</g>
<!-- Node1&#45;&gt;Node26 -->
<g id="edge41" class="edge">
<title>Node1&#45;&gt;Node26</title>
<path fill="none" stroke="#63b8ff" d="M1673.1068,-100.5118C1680.0637,-85.6933 1691.8216,-65.8579 1708.5,-55 1787.1254,-3.8139 1824.3645,-36.6925 1916.5,-19 1919.3229,-18.4579 1922.2418,-17.8804 1925.1738,-17.2882"/>
<polygon fill="#63b8ff" stroke="#63b8ff" points="1669.8466,-99.232 1669.0561,-109.7973 1676.2627,-102.031 1669.8466,-99.232"/>
</g>
<!-- Node27 -->
<g id="node27" class="node">
<title>Node27</title>
<g id="a_node27"><a xlink:href="../../df/d2d/util_8cpp.html" target="_top" xlink:title=" ">
<polygon fill="#ffffff" stroke="#666666" points="2081,-19 2016,-19 2016,0 2081,0 2081,-19"/>
<text text-anchor="middle" x="2048.5" y="-7" font-family="Helvetica,sans-Serif" font-size="10.00" fill="#000000">src/util.cpp</text>
</a>
</g>
</g>
<!-- Node1&#45;&gt;Node27 -->
<g id="edge42" class="edge">
<title>Node1&#45;&gt;Node27</title>
<path fill="none" stroke="#63b8ff" d="M1681.4218,-102.4252C1696.6039,-87.3044 1720.8938,-65.9784 1746.5,-55 1853.7191,-9.0311 1891.7271,-39.8872 2006.5,-19 2009.5891,-18.4378 2012.7951,-17.8044 2015.9965,-17.1382"/>
<polygon fill="#63b8ff" stroke="#63b8ff" points="1678.8258,-100.0742 1674.3539,-109.6791 1683.8394,-104.9593 1678.8258,-100.0742"/>
</g>
<!-- Node28 -->
<g id="node28" class="node">
<title>Node28</title>
<g id="a_node28"><a xlink:href="../../d5/d6a/vhdlcode_8l.html" target="_top" xlink:title=" ">
<polygon fill="#ffffff" stroke="#666666" points="2176,-19 2099,-19 2099,0 2176,0 2176,-19"/>
<text text-anchor="middle" x="2137.5" y="-7" font-family="Helvetica,sans-Serif" font-size="10.00" fill="#000000">src/vhdlcode.l</text>
</a>
</g>
</g>
<!-- Node1&#45;&gt;Node28 -->
<g id="edge43" class="edge">
<title>Node1&#45;&gt;Node28</title>
<path fill="none" stroke="#63b8ff" d="M1691.3955,-104.787C1723.3771,-86.723 1774.7644,-58.0853 1784.5,-55 1915.0394,-13.6302 1955.2737,-40.5834 2090.5,-19 2093.2128,-18.567 2096.0072,-18.0878 2098.8171,-17.5814"/>
<polygon fill="#63b8ff" stroke="#63b8ff" points="1689.5298,-101.8212 1682.5506,-109.7926 1692.9775,-107.9133 1689.5298,-101.8212"/>
</g>
<!-- Node29 -->
<g id="node29" class="node">
<title>Node29</title>
<g id="a_node29"><a xlink:href="../../de/dea/vhdldocgen_8cpp.html" target="_top" xlink:title=" ">
<polygon fill="#ffffff" stroke="#666666" points="2295,-19 2194,-19 2194,0 2295,0 2295,-19"/>
<text text-anchor="middle" x="2244.5" y="-7" font-family="Helvetica,sans-Serif" font-size="10.00" fill="#000000">src/vhdldocgen.cpp</text>
</a>
</g>
</g>
<!-- Node1&#45;&gt;Node29 -->
<g id="edge44" class="edge">
<title>Node1&#45;&gt;Node29</title>
<path fill="none" stroke="#63b8ff" d="M1700.4283,-106.4283C1723.5703,-97.6137 1754.5212,-85.53 1781.5,-74 1799.9679,-66.1074 1803.1247,-60.2873 1822.5,-55 1978.9057,-12.3187 2024.7275,-39.8961 2185.5,-19 2188.2779,-18.639 2191.1261,-18.2484 2193.9989,-17.8385"/>
<polygon fill="#63b8ff" stroke="#63b8ff" points="1699.1322,-103.1765 1691.0227,-109.9947 1701.614,-109.7218 1699.1322,-103.1765"/>
</g>
<!-- Node30 -->
<g id="node30" class="node">
<title>Node30</title>
<g id="a_node30"><a xlink:href="../../d1/d86/vhdljjparser_8cpp.html" target="_top" xlink:title=" ">
<polygon fill="#ffffff" stroke="#666666" points="2414,-19 2313,-19 2313,0 2414,0 2414,-19"/>
<text text-anchor="middle" x="2363.5" y="-7" font-family="Helvetica,sans-Serif" font-size="10.00" fill="#000000">src/vhdljjparser.cpp</text>
</a>
</g>
</g>
<!-- Node1&#45;&gt;Node30 -->
<g id="edge45" class="edge">
<title>Node1&#45;&gt;Node30</title>
<path fill="none" stroke="#63b8ff" d="M1711.0993,-107.2371C1741.2928,-98.757 1781.6097,-86.742 1816.5,-74 1836.5084,-66.6929 1839.8314,-60.1515 1860.5,-55 2052.6038,-7.1191 2107.9494,-42.7549 2304.5,-19 2307.178,-18.6763 2309.9206,-18.3204 2312.6871,-17.9422"/>
<polygon fill="#63b8ff" stroke="#63b8ff" points="1709.9652,-103.9197 1701.2703,-109.9735 1711.8426,-110.6632 1709.9652,-103.9197"/>
</g>
<!-- Node31 -->
<g id="node31" class="node">
<title>Node31</title>
<g id="a_node31"><a xlink:href="../../dc/dc1/xmlcode_8l.html" target="_top" xlink:title=" ">
<polygon fill="#ffffff" stroke="#666666" points="2507,-19 2432,-19 2432,0 2507,0 2507,-19"/>
<text text-anchor="middle" x="2469.5" y="-7" font-family="Helvetica,sans-Serif" font-size="10.00" fill="#000000">src/xmlcode.l</text>
</a>
</g>
</g>
<!-- Node1&#45;&gt;Node31 -->
<g id="edge46" class="edge">
<title>Node1&#45;&gt;Node31</title>
<path fill="none" stroke="#63b8ff" d="M1722.9466,-108.5602C1760.375,-100.694 1809.9756,-88.8664 1852.5,-74 1871.4586,-67.3721 1874.045,-59.9861 1893.5,-55 2122.2067,3.6145 2189.5734,-50.9495 2423.5,-19 2426.2471,-18.6248 2429.0759,-18.1817 2431.9162,-17.6953"/>
<polygon fill="#63b8ff" stroke="#63b8ff" points="1721.8127,-105.2206 1712.7286,-110.6731 1723.2302,-112.0755 1721.8127,-105.2206"/>
</g>
<!-- Node32 -->
<g id="node32" class="node">
<title>Node32</title>
<g id="a_node32"><a xlink:href="../../d7/d79/searchindex_8cpp.html" target="_top" xlink:title=" ">
<polygon fill="#ffffff" stroke="#666666" points="2326.5,-74 2222.5,-74 2222.5,-55 2326.5,-55 2326.5,-74"/>
<text text-anchor="middle" x="2274.5" y="-62" font-family="Helvetica,sans-Serif" font-size="10.00" fill="#000000">src/searchindex.cpp</text>
</a>
</g>
</g>
<!-- Node1&#45;&gt;Node32 -->
<g id="edge40" class="edge">
<title>Node1&#45;&gt;Node32</title>
<path fill="none" stroke="#63b8ff" d="M1722.698,-116.1054C1822.528,-109.8785 2034.9681,-95.286 2213.5,-74 2216.3735,-73.6574 2219.3194,-73.2814 2222.2905,-72.8828"/>
<polygon fill="#63b8ff" stroke="#63b8ff" points="1722.2934,-112.6237 1712.5288,-116.735 1722.726,-119.6103 1722.2934,-112.6237"/>
</g>
<!-- Node7 -->
<g id="node7" class="node">
<title>Node7</title>
<g id="a_node7"><a xlink:href="../../d0/d2b/docnode_8cpp.html" target="_top" xlink:title=" ">
<polygon fill="#ffffff" stroke="#666666" points="2614,-19 2525,-19 2525,0 2614,0 2614,-19"/>
<text text-anchor="middle" x="2569.5" y="-7" font-family="Helvetica,sans-Serif" font-size="10.00" fill="#000000">src/docnode.cpp</text>
</a>
</g>
</g>
<!-- Node6&#45;&gt;Node7 -->
<g id="edge6" class="edge">
<title>Node6&#45;&gt;Node7</title>
<path fill="none" stroke="#63b8ff" d="M2110.1832,-55.0151C2291.3766,-32.4416 2339.7555,-42.6092 2516.5,-19 2519.1871,-18.6411 2521.9455,-18.2415 2524.7246,-17.8152"/>
<polygon fill="#63b8ff" stroke="#63b8ff" points="2109.5284,-51.5699 2100.0454,-56.2948 2110.4051,-58.5148 2109.5284,-51.5699"/>
</g>
<!-- Node8 -->
<g id="node8" class="node">
<title>Node8</title>
<g id="a_node8"><a xlink:href="../../da/d17/docparser_8cpp.html" target="_top" xlink:title=" ">
<polygon fill="#ffffff" stroke="#666666" points="2727,-19 2632,-19 2632,0 2727,0 2727,-19"/>
<text text-anchor="middle" x="2679.5" y="-7" font-family="Helvetica,sans-Serif" font-size="10.00" fill="#000000">src/docparser.cpp</text>
</a>
</g>
</g>
<!-- Node6&#45;&gt;Node8 -->
<g id="edge7" class="edge">
<title>Node6&#45;&gt;Node8</title>
<path fill="none" stroke="#63b8ff" d="M2109.9946,-55.0638C2338.6341,-28.6473 2399.3348,-45.7986 2623.5,-19 2626.2416,-18.6722 2629.0534,-18.3025 2631.8872,-17.904"/>
<polygon fill="#63b8ff" stroke="#63b8ff" points="2109.5626,-51.5904 2100.0374,-56.2293 2110.3765,-58.5429 2109.5626,-51.5904"/>
</g>
<!-- Node15&#45;&gt;Node2 -->
<g id="edge15" class="edge">
<title>Node15&#45;&gt;Node2</title>
<path fill="none" stroke="#63b8ff" d="M1300.7605,-63.6157C1096.8716,-59.9141 336.7556,-44.6537 97.5,-19 94.8045,-18.711 92.0396,-18.3655 89.2556,-17.9802"/>
<polygon fill="#63b8ff" stroke="#63b8ff" points="1300.8239,-67.1173 1310.8854,-63.7983 1300.9501,-60.1184 1300.8239,-67.1173"/>
</g>
<!-- Node15&#45;&gt;Node3 -->
<g id="edge17" class="edge">
<title>Node15&#45;&gt;Node3</title>
<path fill="none" stroke="#63b8ff" d="M1300.9909,-63.8922C1105.4302,-61.33 397.9045,-50.0704 175.5,-19 172.4632,-18.5758 169.3182,-18.0167 166.1919,-17.3817"/>
<polygon fill="#63b8ff" stroke="#63b8ff" points="1300.9463,-67.3918 1310.9908,-64.0214 1301.0369,-60.3924 1300.9463,-67.3918"/>
</g>
<!-- Node15&#45;&gt;Node4 -->
<g id="edge18" class="edge">
<title>Node15&#45;&gt;Node4</title>
<path fill="none" stroke="#63b8ff" d="M1300.7849,-63.105C1117.8924,-57.9516 492.549,-39.2355 293.5,-19 290.6099,-18.7062 287.6462,-18.363 284.6596,-17.9848"/>
<polygon fill="#63b8ff" stroke="#63b8ff" points="1300.8354,-66.6077 1310.9297,-63.3897 1301.0318,-59.6105 1300.8354,-66.6077"/>
</g>
<!-- Node15&#45;&gt;Node9 -->
<g id="edge21" class="edge">
<title>Node15&#45;&gt;Node9</title>
<path fill="none" stroke="#63b8ff" d="M1300.6507,-62.9136C1129.9508,-57.4548 578.2114,-38.6961 401.5,-19 398.4727,-18.6626 395.3584,-18.2611 392.2263,-17.8168"/>
<polygon fill="#63b8ff" stroke="#63b8ff" points="1300.7582,-66.4187 1310.8646,-63.2388 1300.9811,-59.4222 1300.7582,-66.4187"/>
</g>
<!-- Node15&#45;&gt;Node10 -->
<g id="edge22" class="edge">
<title>Node15&#45;&gt;Node10</title>
<path fill="none" stroke="#63b8ff" d="M1300.9148,-62.2256C1129.5205,-54.461 576.9987,-28.9337 497.5,-19 494.634,-18.6419 491.6826,-18.2113 488.719,-17.7339"/>
<polygon fill="#63b8ff" stroke="#63b8ff" points="1300.7863,-65.7232 1310.9343,-62.6789 1301.1028,-58.7304 1300.7863,-65.7232"/>
</g>
<!-- Node15&#45;&gt;Node11 -->
<g id="edge24" class="edge">
<title>Node15&#45;&gt;Node11</title>
<path fill="none" stroke="#63b8ff" d="M1300.8192,-61.4522C1134.1564,-51.4247 613.1676,-20.0372 604.5,-19 601.8083,-18.6779 599.0463,-18.3069 596.2644,-17.9021"/>
<polygon fill="#63b8ff" stroke="#63b8ff" points="1300.6215,-64.9465 1310.8137,-62.0535 1301.0419,-57.9592 1300.6215,-64.9465"/>
</g>
<!-- Node15&#45;&gt;Node13 -->
<g id="edge26" class="edge">
<title>Node15&#45;&gt;Node13</title>
<path fill="none" stroke="#63b8ff" d="M1300.2825,-59.6451C1283.1855,-58.0834 1264.0273,-56.3971 1246.5,-55 1014.6842,-36.5216 955.5694,-45.2092 724.5,-19 721.461,-18.6553 718.3406,-18.2668 715.1962,-17.8488"/>
<polygon fill="#63b8ff" stroke="#63b8ff" points="1300.3497,-63.166 1310.6285,-60.5977 1300.9915,-56.1955 1300.3497,-63.166"/>
</g>
<!-- Node15&#45;&gt;Node14 -->
<g id="edge29" class="edge">
<title>Node15&#45;&gt;Node14</title>
<path fill="none" stroke="#63b8ff" d="M1300.7762,-56.0762C1297.9794,-55.6918 1295.2067,-55.3297 1292.5,-55 1100.3686,-31.5983 1050.8429,-40.5951 858.5,-19 855.5813,-18.6723 852.5936,-18.318 849.5784,-17.9454"/>
<polygon fill="#63b8ff" stroke="#63b8ff" points="1300.5346,-59.5776 1310.9331,-57.5476 1301.5382,-52.65 1300.5346,-59.5776"/>
</g>
<!-- Node16 -->
<g id="node16" class="node">
<title>Node16</title>
<g id="a_node16"><a xlink:href="../../d6/d10/classlist_8cpp.html" target="_top" xlink:title=" ">
<polygon fill="#ffffff" stroke="#666666" points="1287.5,-19 1199.5,-19 1199.5,0 1287.5,0 1287.5,-19"/>
<text text-anchor="middle" x="1243.5" y="-7" font-family="Helvetica,sans-Serif" font-size="10.00" fill="#000000">src/classlist.cpp</text>
</a>
</g>
</g>
<!-- Node15&#45;&gt;Node16 -->
<g id="edge16" class="edge">
<title>Node15&#45;&gt;Node16</title>
<path fill="none" stroke="#63b8ff" d="M1323.5183,-50.25C1304.3215,-40.4739 1279.3601,-27.7621 1262.459,-19.155"/>
<polygon fill="#63b8ff" stroke="#63b8ff" points="1322.1885,-53.5005 1332.6878,-54.9197 1325.3651,-47.2628 1322.1885,-53.5005"/>
</g>
<!-- Node17 -->
<g id="node17" class="node">
<title>Node17</title>
<g id="a_node17"><a xlink:href="../../d3/dea/definition_8cpp.html" target="_top" xlink:title=" ">
<polygon fill="#ffffff" stroke="#666666" points="1397,-19 1306,-19 1306,0 1397,0 1397,-19"/>
<text text-anchor="middle" x="1351.5" y="-7" font-family="Helvetica,sans-Serif" font-size="10.00" fill="#000000">src/definition.cpp</text>
</a>
</g>
</g>
<!-- Node15&#45;&gt;Node17 -->
<g id="edge19" class="edge">
<title>Node15&#45;&gt;Node17</title>
<path fill="none" stroke="#63b8ff" d="M1351.5,-44.8553C1351.5,-36.2036 1351.5,-26.4195 1351.5,-19.3408"/>
<polygon fill="#63b8ff" stroke="#63b8ff" points="1348.0001,-44.9197 1351.5,-54.9197 1355.0001,-44.9198 1348.0001,-44.9197"/>
</g>
<!-- Node18 -->
<g id="node18" class="node">
<title>Node18</title>
<g id="a_node18"><a xlink:href="../../d8/d52/dirdef_8cpp.html" target="_top" xlink:title=" ">
<polygon fill="#ffffff" stroke="#666666" points="1491.5,-19 1415.5,-19 1415.5,0 1491.5,0 1491.5,-19"/>
<text text-anchor="middle" x="1453.5" y="-7" font-family="Helvetica,sans-Serif" font-size="10.00" fill="#000000">src/dirdef.cpp</text>
</a>
</g>
</g>
<!-- Node15&#45;&gt;Node18 -->
<g id="edge20" class="edge">
<title>Node15&#45;&gt;Node18</title>
<path fill="none" stroke="#63b8ff" d="M1378.1759,-50.1159C1396.2726,-40.3579 1419.705,-27.7228 1435.5943,-19.155"/>
<polygon fill="#63b8ff" stroke="#63b8ff" points="1376.4078,-47.0929 1369.267,-54.9197 1379.7302,-53.2542 1376.4078,-47.0929"/>
</g>
<!-- Node19 -->
<g id="node19" class="node">
<title>Node19</title>
<g id="a_node19"><a xlink:href="../../d9/d5b/fortrancode_8l.html" target="_top" xlink:title=" ">
<polygon fill="#ffffff" stroke="#666666" points="1597,-19 1510,-19 1510,0 1597,0 1597,-19"/>
<text text-anchor="middle" x="1553.5" y="-7" font-family="Helvetica,sans-Serif" font-size="10.00" fill="#000000">src/fortrancode.l</text>
</a>
</g>
</g>
<!-- Node15&#45;&gt;Node19 -->
<g id="edge23" class="edge">
<title>Node15&#45;&gt;Node19</title>
<path fill="none" stroke="#63b8ff" d="M1396.6502,-52.2066C1433.4275,-42.193 1484.6153,-28.2557 1518.3792,-19.0626"/>
<polygon fill="#63b8ff" stroke="#63b8ff" points="1395.4149,-48.9155 1386.6857,-54.9197 1397.254,-55.6696 1395.4149,-48.9155"/>
</g>
<!-- Node20 -->
<g id="node20" class="node">
<title>Node20</title>
<g id="a_node20"><a xlink:href="../../db/d14/index_8cpp.html" target="_top" xlink:title="This file contains functions for the various index pages.">
<polygon fill="#ffffff" stroke="#666666" points="1690,-19 1615,-19 1615,0 1690,0 1690,-19"/>
<text text-anchor="middle" x="1652.5" y="-7" font-family="Helvetica,sans-Serif" font-size="10.00" fill="#000000">src/index.cpp</text>
</a>
</g>
</g>
<!-- Node15&#45;&gt;Node20 -->
<g id="edge25" class="edge">
<title>Node15&#45;&gt;Node20</title>
<path fill="none" stroke="#63b8ff" d="M1402.1832,-55.7618C1453.4949,-46.8352 1535.0984,-32.419 1605.5,-19 1608.5257,-18.4233 1611.6585,-17.8148 1614.8044,-17.1959"/>
<polygon fill="#63b8ff" stroke="#63b8ff" points="1401.2765,-52.3668 1392.023,-57.5265 1402.4744,-59.2636 1401.2765,-52.3668"/>
</g>
<!-- Node21 -->
<g id="node21" class="node">
<title>Node21</title>
<g id="a_node21"><a xlink:href="../../d6/d18/membergroup_8cpp.html" target="_top" xlink:title=" ">
<polygon fill="#ffffff" stroke="#666666" points="1819,-19 1708,-19 1708,0 1819,0 1819,-19"/>
<text text-anchor="middle" x="1763.5" y="-7" font-family="Helvetica,sans-Serif" font-size="10.00" fill="#000000">src/membergroup.cpp</text>
</a>
</g>
</g>
<!-- Node15&#45;&gt;Node21 -->
<g id="edge27" class="edge">
<title>Node15&#45;&gt;Node21</title>
<path fill="none" stroke="#63b8ff" d="M1402.0842,-58.1046C1469.6765,-49.5045 1593.17,-33.602 1698.5,-19 1701.5501,-18.5772 1704.6798,-18.1378 1707.8385,-17.6902"/>
<polygon fill="#63b8ff" stroke="#63b8ff" points="1401.6056,-54.6372 1392.1267,-59.3702 1402.4882,-61.5813 1401.6056,-54.6372"/>
</g>
<!-- Node22 -->
<g id="node22" class="node">
<title>Node22</title>
<g id="a_node22"><a xlink:href="../../d0/d14/memberlist_8cpp.html" target="_top" xlink:title=" ">
<polygon fill="#ffffff" stroke="#666666" points="967.5,-19 867.5,-19 867.5,0 967.5,0 967.5,-19"/>
<text text-anchor="middle" x="917.5" y="-7" font-family="Helvetica,sans-Serif" font-size="10.00" fill="#000000">src/memberlist.cpp</text>
</a>
</g>
</g>
<!-- Node15&#45;&gt;Node22 -->
<g id="edge28" class="edge">
<title>Node15&#45;&gt;Node22</title>
<path fill="none" stroke="#63b8ff" d="M1300.7632,-56.1764C1297.9698,-55.7662 1295.2013,-55.3711 1292.5,-55 1152.4627,-35.7595 1116.5373,-38.2405 976.5,-19 973.622,-18.6046 970.6678,-18.182 967.6885,-17.743"/>
<polygon fill="#63b8ff" stroke="#63b8ff" points="1300.5007,-59.6764 1310.9118,-57.7119 1301.548,-52.7552 1300.5007,-59.6764"/>
</g>
<!-- Node23 -->
<g id="node23" class="node">
<title>Node23</title>
<g id="a_node23"><a xlink:href="../../db/dd8/outputlist_8cpp.html" target="_top" xlink:title=" ">
<polygon fill="#ffffff" stroke="#666666" points="1077.5,-19 985.5,-19 985.5,0 1077.5,0 1077.5,-19"/>
<text text-anchor="middle" x="1031.5" y="-7" font-family="Helvetica,sans-Serif" font-size="10.00" fill="#000000">src/outputlist.cpp</text>
</a>
</g>
</g>
<!-- Node15&#45;&gt;Node23 -->
<g id="edge30" class="edge">
<title>Node15&#45;&gt;Node23</title>
<path fill="none" stroke="#63b8ff" d="M1300.7501,-55.8018C1247.4082,-46.6558 1161.0505,-31.8385 1086.5,-19 1083.6352,-18.5066 1080.6865,-17.9984 1077.7129,-17.4857"/>
<polygon fill="#63b8ff" stroke="#63b8ff" points="1300.1926,-59.2572 1310.6402,-57.4975 1301.3755,-52.3579 1300.1926,-59.2572"/>
</g>
<!-- Node24 -->
<g id="node24" class="node">
<title>Node24</title>
<g id="a_node24"><a xlink:href="../../d9/db4/pagedef_8cpp.html" target="_top" xlink:title=" ">
<polygon fill="#ffffff" stroke="#666666" points="1181.5,-19 1095.5,-19 1095.5,0 1181.5,0 1181.5,-19"/>
<text text-anchor="middle" x="1138.5" y="-7" font-family="Helvetica,sans-Serif" font-size="10.00" fill="#000000">src/pagedef.cpp</text>
</a>
</g>
</g>
<!-- Node15&#45;&gt;Node24 -->
<g id="edge31" class="edge">
<title>Node15&#45;&gt;Node24</title>
<path fill="none" stroke="#63b8ff" d="M1304.3875,-52.3348C1265.5728,-42.3122 1211.288,-28.295 1175.5333,-19.0626"/>
<polygon fill="#63b8ff" stroke="#63b8ff" points="1303.8407,-55.8084 1314.3982,-54.9197 1305.5909,-49.0307 1303.8407,-55.8084"/>
</g>
<!-- Node15&#45;&gt;Node25 -->
<g id="edge32" class="edge">
<title>Node15&#45;&gt;Node25</title>
<path fill="none" stroke="#63b8ff" d="M1402.2819,-61.5328C1489.5695,-56.012 1673.5319,-42.5342 1827.5,-19 1830.6572,-18.5174 1833.9264,-17.9537 1837.1956,-17.346"/>
<polygon fill="#63b8ff" stroke="#63b8ff" points="1401.8874,-58.0505 1392.1249,-62.1668 1402.3235,-65.0369 1401.8874,-58.0505"/>
</g>
<!-- Node15&#45;&gt;Node26 -->
<g id="edge33" class="edge">
<title>Node15&#45;&gt;Node26</title>
<path fill="none" stroke="#63b8ff" d="M1402.164,-62.591C1501.3454,-58.3751 1727.9142,-46.3855 1916.5,-19 1919.3447,-18.5869 1922.2791,-18.1021 1925.2219,-17.574"/>
<polygon fill="#63b8ff" stroke="#63b8ff" points="1401.9656,-59.0961 1392.1201,-63.0097 1402.2572,-66.09 1401.9656,-59.0961"/>
</g>
<!-- Node15&#45;&gt;Node27 -->
<g id="edge34" class="edge">
<title>Node15&#45;&gt;Node27</title>
<path fill="none" stroke="#63b8ff" d="M1402.5599,-63.6088C1513.1942,-61.0969 1783.0758,-51.8311 2006.5,-19 2009.4586,-18.5653 2012.518,-18.0344 2015.5745,-17.4482"/>
<polygon fill="#63b8ff" stroke="#63b8ff" points="1402.2787,-60.114 1392.3574,-63.8313 1402.4314,-67.1123 1402.2787,-60.114"/>
</g>
<!-- Node15&#45;&gt;Node28 -->
<g id="edge35" class="edge">
<title>Node15&#45;&gt;Node28</title>
<path fill="none" stroke="#63b8ff" d="M1402.1456,-63.7853C1522.1851,-61.5685 1833.223,-52.7577 2090.5,-19 2093.2238,-18.6426 2096.0264,-18.2195 2098.8422,-17.7535"/>
<polygon fill="#63b8ff" stroke="#63b8ff" points="1402.0788,-60.2858 1392.1425,-63.9628 1402.2031,-67.2847 1402.0788,-60.2858"/>
</g>
<!-- Node15&#45;&gt;Node29 -->
<g id="edge36" class="edge">
<title>Node15&#45;&gt;Node29</title>
<path fill="none" stroke="#63b8ff" d="M1402.5166,-63.5826C1533.1092,-60.8298 1890.0106,-50.7608 2185.5,-19 2188.182,-18.7117 2190.9279,-18.384 2193.6969,-18.0278"/>
<polygon fill="#63b8ff" stroke="#63b8ff" points="1402.3363,-60.0854 1392.4104,-63.7904 1402.4803,-67.084 1402.3363,-60.0854"/>
</g>
<!-- Node15&#45;&gt;Node30 -->
<g id="edge37" class="edge">
<title>Node15&#45;&gt;Node30</title>
<path fill="none" stroke="#63b8ff" d="M1402.2105,-64.0742C1544.7447,-62.4476 1960.9435,-54.7472 2304.5,-19 2307.183,-18.7208 2309.9296,-18.4004 2312.6992,-18.0499"/>
<polygon fill="#63b8ff" stroke="#63b8ff" points="1401.9905,-60.5763 1392.0293,-64.1852 1402.0669,-67.5759 1401.9905,-60.5763"/>
</g>
<!-- Node15&#45;&gt;Node31 -->
<g id="edge38" class="edge">
<title>Node15&#45;&gt;Node31</title>
<path fill="none" stroke="#63b8ff" d="M1402.2946,-63.4314C1586.9187,-59.3777 2222.0882,-43.9072 2423.5,-19 2426.2516,-18.6597 2429.0837,-18.2423 2431.9264,-17.7741"/>
<polygon fill="#63b8ff" stroke="#63b8ff" points="1401.9796,-59.9373 1392.0583,-63.6545 1402.1322,-66.9356 1401.9796,-59.9373"/>
</g>
</g>
</svg>
