<?xml version="1.0" encoding="UTF-8" standalone="no"?>
<!DOCTYPE svg PUBLIC "-//W3C//DTD SVG 1.1//EN"
 "http://www.w3.org/Graphics/SVG/1.1/DTD/svg11.dtd">
<!-- Generated by graphviz version 2.43.0 (0)
 -->
<!-- Title: DocbookGenerator Pages: 1 -->
<svg width="410pt" height="192pt"
 viewBox="0.00 0.00 409.50 192.00" xmlns="http://www.w3.org/2000/svg" xmlns:xlink="http://www.w3.org/1999/xlink">
<g id="graph0" class="graph" transform="scale(1 1) rotate(0) translate(4 188)">
<title>DocbookGenerator</title>
<!-- Node1 -->
<g id="node1" class="node">
<title>Node1</title>
<g id="a_node1"><a xlink:title=" ">
<polygon fill="#999999" stroke="#666666" points="174.5,-19 66.5,-19 66.5,0 174.5,0 174.5,-19"/>
<text text-anchor="middle" x="120.5" y="-7" font-family="Helvetica,sans-Serif" font-size="10.00">DocbookGenerator</text>
</a>
</g>
</g>
<!-- Node2 -->
<g id="node2" class="node">
<title>Node2</title>
<g id="a_node2"><a xlink:href="../../d3/d8e/class_output_generator.html" target="_top" xlink:title="Abstract output generator.">
<polygon fill="white" stroke="#666666" points="169.5,-85 71.5,-85 71.5,-66 169.5,-66 169.5,-85"/>
<text text-anchor="middle" x="120.5" y="-73" font-family="Helvetica,sans-Serif" font-size="10.00">OutputGenerator</text>
</a>
</g>
</g>
<!-- Node2&#45;&gt;Node1 -->
<g id="edge1" class="edge">
<title>Node2&#45;&gt;Node1</title>
<path fill="none" stroke="#63b8ff" d="M120.5,-55.58C120.5,-43.63 120.5,-28.72 120.5,-19.41"/>
<polygon fill="#63b8ff" stroke="#63b8ff" points="117,-55.87 120.5,-65.87 124,-55.87 117,-55.87"/>
</g>
<!-- Node3 -->
<g id="node3" class="node">
<title>Node3</title>
<g id="a_node3"><a xlink:href="../../d3/d30/class_text_stream.html" target="_top" xlink:title="Text streaming class that buffers data.">
<polygon fill="white" stroke="#666666" points="265.5,-184 193.5,-184 193.5,-165 265.5,-165 265.5,-184"/>
<text text-anchor="middle" x="229.5" y="-172" font-family="Helvetica,sans-Serif" font-size="10.00">TextStream</text>
</a>
</g>
</g>
<!-- Node3&#45;&gt;Node2 -->
<g id="edge2" class="edge">
<title>Node3&#45;&gt;Node2</title>
<path fill="none" stroke="#9a32cd" stroke-dasharray="5,2" d="M225.78,-155.01C221.74,-136.69 214.88,-110.33 207.5,-103 197.31,-92.87 183.37,-86.6 169.63,-82.72"/>
<polygon fill="#9a32cd" stroke="#9a32cd" points="222.38,-155.83 227.86,-164.9 229.23,-154.39 222.38,-155.83"/>
<text text-anchor="middle" x="235.5" y="-122.5" font-family="Helvetica,sans-Serif" font-size="10.00" fill="grey"> m_t</text>
</g>
<!-- Node5 -->
<g id="node5" class="node">
<title>Node5</title>
<g id="a_node5"><a xlink:href="../../d7/d80/class_docbook_code_generator.html" target="_top" xlink:title=" ">
<polygon fill="white" stroke="#666666" points="331,-85 198,-85 198,-66 331,-66 331,-85"/>
<text text-anchor="middle" x="264.5" y="-73" font-family="Helvetica,sans-Serif" font-size="10.00">DocbookCodeGenerator</text>
</a>
</g>
</g>
<!-- Node3&#45;&gt;Node5 -->
<g id="edge7" class="edge">
<title>Node3&#45;&gt;Node5</title>
<path fill="none" stroke="#9a32cd" stroke-dasharray="5,2" d="M246.12,-157.05C248.58,-153.92 250.84,-150.51 252.5,-147 262.27,-126.35 264.19,-98.96 264.5,-85.19"/>
<polygon fill="#9a32cd" stroke="#9a32cd" points="243.44,-154.8 239.43,-164.6 248.68,-159.44 243.44,-154.8"/>
<text text-anchor="middle" x="274.5" y="-122.5" font-family="Helvetica,sans-Serif" font-size="10.00" fill="grey"> m_t</text>
</g>
<!-- Node4 -->
<g id="node4" class="node">
<title>Node4</title>
<g id="a_node4"><a xlink:href="../../d9/d45/class_q_c_string.html" target="_top" xlink:title="This is an alternative implementation of QCString.">
<polygon fill="white" stroke="#666666" points="59,-184 0,-184 0,-165 59,-165 59,-184"/>
<text text-anchor="middle" x="29.5" y="-172" font-family="Helvetica,sans-Serif" font-size="10.00">QCString</text>
</a>
</g>
</g>
<!-- Node4&#45;&gt;Node1 -->
<g id="edge4" class="edge">
<title>Node4&#45;&gt;Node1</title>
<path fill="none" stroke="#9a32cd" stroke-dasharray="5,2" d="M20.95,-155.55C19.94,-152.74 19.06,-149.83 18.5,-147 11.44,-111.56 4.67,-95.52 25.5,-66 42.02,-42.59 71.8,-27.56 93.62,-19.13"/>
<polygon fill="#9a32cd" stroke="#9a32cd" points="17.81,-157.1 24.93,-164.94 24.25,-154.37 17.81,-157.1"/>
<text text-anchor="middle" x="44" y="-73" font-family="Helvetica,sans-Serif" font-size="10.00" fill="grey"> relPath</text>
</g>
<!-- Node4&#45;&gt;Node2 -->
<g id="edge3" class="edge">
<title>Node4&#45;&gt;Node2</title>
<path fill="none" stroke="#9a32cd" stroke-dasharray="5,2" d="M24.14,-154.67C20.96,-139.22 19.42,-117.59 30.5,-103 40.25,-90.16 55.92,-83.28 71.47,-79.68"/>
<polygon fill="#9a32cd" stroke="#9a32cd" points="20.81,-155.76 26.6,-164.64 27.6,-154.09 20.81,-155.76"/>
<text text-anchor="middle" x="60.5" y="-128" font-family="Helvetica,sans-Serif" font-size="10.00" fill="grey"> m_dir</text>
<text text-anchor="middle" x="60.5" y="-117" font-family="Helvetica,sans-Serif" font-size="10.00" fill="grey">m_fileName</text>
</g>
<!-- Node4&#45;&gt;Node5 -->
<g id="edge8" class="edge">
<title>Node4&#45;&gt;Node5</title>
<path fill="none" stroke="#9a32cd" stroke-dasharray="5,2" d="M68.54,-161.75C76.52,-158 84.35,-153.17 90.5,-147 105.55,-131.92 92.75,-116.16 109.5,-103 116.72,-97.33 159.14,-90.3 197.77,-84.91"/>
<polygon fill="#9a32cd" stroke="#9a32cd" points="67.06,-158.58 59.19,-165.67 69.77,-165.03 67.06,-158.58"/>
<text text-anchor="middle" x="156.5" y="-139" font-family="Helvetica,sans-Serif" font-size="10.00" fill="grey"> m_external</text>
<text text-anchor="middle" x="156.5" y="-128" font-family="Helvetica,sans-Serif" font-size="10.00" fill="grey">m_refId</text>
<text text-anchor="middle" x="156.5" y="-117" font-family="Helvetica,sans-Serif" font-size="10.00" fill="grey">m_relPath</text>
<text text-anchor="middle" x="156.5" y="-106" font-family="Helvetica,sans-Serif" font-size="10.00" fill="grey">m_sourceFileName</text>
</g>
<!-- Node5&#45;&gt;Node1 -->
<g id="edge5" class="edge">
<title>Node5&#45;&gt;Node1</title>
<path fill="none" stroke="#9a32cd" stroke-dasharray="5,2" d="M235.69,-61.69C207.31,-49.08 164.73,-30.16 140.07,-19.2"/>
<polygon fill="#9a32cd" stroke="#9a32cd" points="234.52,-65.01 245.08,-65.87 237.36,-58.61 234.52,-65.01"/>
<text text-anchor="middle" x="232" y="-40" font-family="Helvetica,sans-Serif" font-size="10.00" fill="grey"> m_codeGen</text>
</g>
<!-- Node6 -->
<g id="node6" class="node">
<title>Node6</title>
<g id="a_node6"><a xlink:href="../../d5/d9c/class_code_output_interface.html" target="_top" xlink:title="Output interface for code parser.">
<polygon fill="white" stroke="#666666" points="401.5,-184 283.5,-184 283.5,-165 401.5,-165 401.5,-184"/>
<text text-anchor="middle" x="342.5" y="-172" font-family="Helvetica,sans-Serif" font-size="10.00">CodeOutputInterface</text>
</a>
</g>
</g>
<!-- Node6&#45;&gt;Node5 -->
<g id="edge6" class="edge">
<title>Node6&#45;&gt;Node5</title>
<path fill="none" stroke="#63b8ff" d="M330.23,-156.08C319.81,-141.55 304.24,-120.48 289.5,-103 284.28,-96.81 278.03,-90.19 273.09,-85.11"/>
<polygon fill="#63b8ff" stroke="#63b8ff" points="327.63,-158.45 336.28,-164.57 333.33,-154.4 327.63,-158.45"/>
</g>
</g>
</svg>
