<?xml version="1.0" encoding="UTF-8" standalone="no"?>
<!DOCTYPE svg PUBLIC "-//W3C//DTD SVG 1.1//EN"
 "http://www.w3.org/Graphics/SVG/1.1/DTD/svg11.dtd">
<!-- Generated by graphviz version 2.40.1 (20161225.0304)
 -->
<!-- Title: Qhp::Private Pages: 1 -->
<svg width="245pt" height="258pt"
 viewBox="0.00 0.00 245.00 258.00" xmlns="http://www.w3.org/2000/svg" xmlns:xlink="http://www.w3.org/1999/xlink">
<g id="graph0" class="graph" transform="scale(1 1) rotate(0) translate(4 254)">
<title>Qhp::Private</title>
<!-- Node1 -->
<g id="node1" class="node">
<title>Node1</title>
<g id="a_node1"><a xlink:title=" ">
<polygon fill="#999999" stroke="#666666" points="92.5,-19 21.5,-19 21.5,0 92.5,0 92.5,-19"/>
<text text-anchor="middle" x="57" y="-7" font-family="Helvetica,sans-Serif" font-size="10.00" fill="#000000">Qhp::Private</text>
</a>
</g>
</g>
<!-- Node2 -->
<g id="node2" class="node">
<title>Node2</title>
<g id="a_node2"><a xlink:href="../../d3/d30/class_text_stream.html" target="_top" xlink:title="Text streaming class that buffers data.">
<polygon fill="#ffffff" stroke="#666666" points="68,-96 0,-96 0,-77 68,-77 68,-96"/>
<text text-anchor="middle" x="34" y="-84" font-family="Helvetica,sans-Serif" font-size="10.00" fill="#000000">TextStream</text>
</a>
</g>
</g>
<!-- Node2&#45;&gt;Node1 -->
<g id="edge1" class="edge">
<title>Node2&#45;&gt;Node1</title>
<path fill="none" stroke="#9a32cd" stroke-dasharray="5,2" d="M39.8791,-66.8177C44.4062,-51.6619 50.4743,-31.3469 54.038,-19.4161"/>
<polygon fill="#9a32cd" stroke="#9a32cd" points="36.4215,-66.1645 36.913,-76.7479 43.1287,-68.168 36.4215,-66.1645"/>
<text text-anchor="middle" x="61" y="-51" font-family="Helvetica,sans-Serif" font-size="10.00" fill="#000000"> doc</text>
<text text-anchor="middle" x="61" y="-40" font-family="Helvetica,sans-Serif" font-size="10.00" fill="#000000">index</text>
</g>
<!-- Node3 -->
<g id="node3" class="node">
<title>Node3</title>
<g id="a_node3"><a xlink:href="../../d7/dcb/class_qhp_section_tree.html" target="_top" xlink:title=" ">
<polygon fill="#ffffff" stroke="#666666" points="173.5,-96 86.5,-96 86.5,-77 173.5,-77 173.5,-96"/>
<text text-anchor="middle" x="130" y="-84" font-family="Helvetica,sans-Serif" font-size="10.00" fill="#000000">QhpSectionTree</text>
</a>
</g>
</g>
<!-- Node3&#45;&gt;Node1 -->
<g id="edge2" class="edge">
<title>Node3&#45;&gt;Node1</title>
<path fill="none" stroke="#9a32cd" stroke-dasharray="5,2" d="M113.7988,-69.411C99.2425,-54.0572 78.3708,-32.0418 66.401,-19.4161"/>
<polygon fill="#9a32cd" stroke="#9a32cd" points="111.3344,-71.8989 120.7545,-76.7479 116.4144,-67.0828 111.3344,-71.8989"/>
<text text-anchor="middle" x="129.5" y="-45.5" font-family="Helvetica,sans-Serif" font-size="10.00" fill="#000000"> sectionTree</text>
</g>
<!-- Node4 -->
<g id="node4" class="node">
<title>Node4</title>
<g id="a_node4"><a xlink:href="../../dd/d74/struct_qhp_section_tree_1_1_node.html" target="_top" xlink:title=" ">
<polygon fill="#ffffff" stroke="#666666" points="188,-173 72,-173 72,-154 188,-154 188,-173"/>
<text text-anchor="middle" x="130" y="-161" font-family="Helvetica,sans-Serif" font-size="10.00" fill="#000000">QhpSectionTree::Node</text>
</a>
</g>
</g>
<!-- Node4&#45;&gt;Node3 -->
<g id="edge3" class="edge">
<title>Node4&#45;&gt;Node3</title>
<path fill="none" stroke="#9a32cd" stroke-dasharray="5,2" d="M130,-143.3748C130,-128.2682 130,-108.231 130,-96.4161"/>
<polygon fill="#9a32cd" stroke="#9a32cd" points="126.5001,-143.7479 130,-153.7479 133.5001,-143.7479 126.5001,-143.7479"/>
<text text-anchor="middle" x="153.5" y="-128" font-family="Helvetica,sans-Serif" font-size="10.00" fill="#000000"> m_current</text>
<text text-anchor="middle" x="153.5" y="-117" font-family="Helvetica,sans-Serif" font-size="10.00" fill="#000000">m_root</text>
</g>
<!-- Node4&#45;&gt;Node4 -->
<g id="edge4" class="edge">
<title>Node4&#45;&gt;Node4</title>
<path fill="none" stroke="#9a32cd" stroke-dasharray="5,2" d="M198.4849,-168.6509C203.1585,-167.4667 206,-165.7498 206,-163.5 206,-159.9004 198.7258,-157.6647 188.3117,-156.7929"/>
<polygon fill="#9a32cd" stroke="#9a32cd" points="197.6675,-165.2352 188.3117,-170.2071 198.726,-172.1547 197.6675,-165.2352"/>
<text text-anchor="middle" x="221.5" y="-161" font-family="Helvetica,sans-Serif" font-size="10.00" fill="#000000"> parent</text>
</g>
<!-- Node5 -->
<g id="node5" class="node">
<title>Node5</title>
<g id="a_node5"><a xlink:href="../../d9/d45/class_q_c_string.html" target="_top" xlink:title="This is an alternative implementation of QCString.">
<polygon fill="#ffffff" stroke="#666666" points="158.5,-250 101.5,-250 101.5,-231 158.5,-231 158.5,-250"/>
<text text-anchor="middle" x="130" y="-238" font-family="Helvetica,sans-Serif" font-size="10.00" fill="#000000">QCString</text>
</a>
</g>
</g>
<!-- Node5&#45;&gt;Node4 -->
<g id="edge5" class="edge">
<title>Node5&#45;&gt;Node4</title>
<path fill="none" stroke="#9a32cd" stroke-dasharray="5,2" d="M130,-220.3748C130,-205.2682 130,-185.231 130,-173.4161"/>
<polygon fill="#9a32cd" stroke="#9a32cd" points="126.5001,-220.7479 130,-230.7479 133.5001,-220.7479 126.5001,-220.7479"/>
<text text-anchor="middle" x="138" y="-205" font-family="Helvetica,sans-Serif" font-size="10.00" fill="#000000"> ref</text>
<text text-anchor="middle" x="138" y="-194" font-family="Helvetica,sans-Serif" font-size="10.00" fill="#000000">title</text>
</g>
</g>
</svg>
