<?xml version="1.0" encoding="UTF-8" standalone="no"?>
<!DOCTYPE svg PUBLIC "-//W3C//DTD SVG 1.1//EN"
 "http://www.w3.org/Graphics/SVG/1.1/DTD/svg11.dtd">
<!-- Generated by graphviz version 2.40.1 (20161225.0304)
 -->
<!-- Title: ClassTreeContext::Private Pages: 1 -->
<svg width="738pt" height="160pt"
 viewBox="0.00 0.00 738.00 160.00" xmlns="http://www.w3.org/2000/svg" xmlns:xlink="http://www.w3.org/1999/xlink">
<g id="graph0" class="graph" transform="scale(1 1) rotate(0) translate(4 156)">
<title>ClassTreeContext::Private</title>
<!-- Node1 -->
<g id="node1" class="node">
<title>Node1</title>
<g id="a_node1"><a xlink:title=" ">
<polygon fill="#999999" stroke="#666666" points="730,-78.5 597,-78.5 597,-59.5 730,-59.5 730,-78.5"/>
<text text-anchor="middle" x="663.5" y="-66.5" font-family="Helvetica,sans-Serif" font-size="10.00" fill="#000000">ClassTreeContext::Private</text>
</a>
</g>
</g>
<!-- Node2 -->
<g id="node2" class="node">
<title>Node2</title>
<g id="a_node2"><a xlink:href="../../d7/dc1/class_cached_item.html" target="_top" xlink:title=" ">
<polygon fill="#ffffff" stroke="#666666" points="468.5,-148.5 328.5,-148.5 328.5,-107.5 468.5,-107.5 468.5,-148.5"/>
<text text-anchor="start" x="336.5" y="-136.5" font-family="Helvetica,sans-Serif" font-size="10.00" fill="#000000">CachedItem&lt; int, ClassTree</text>
<text text-anchor="start" x="336.5" y="-125.5" font-family="Helvetica,sans-Serif" font-size="10.00" fill="#000000">Context::Private, &amp;Private</text>
<text text-anchor="middle" x="398.5" y="-114.5" font-family="Helvetica,sans-Serif" font-size="10.00" fill="#000000">::createMaxDepth &gt;</text>
</a>
</g>
</g>
<!-- Node2&#45;&gt;Node1 -->
<g id="edge1" class="edge">
<title>Node2&#45;&gt;Node1</title>
<path fill="none" stroke="#9a32cd" stroke-dasharray="5,2" d="M478.6199,-110.162C525.3332,-99.7617 582.3993,-87.0564 620.6667,-78.5365"/>
<polygon fill="#9a32cd" stroke="#9a32cd" points="477.8198,-106.7543 468.8194,-112.344 479.3411,-113.5871 477.8198,-106.7543"/>
<text text-anchor="middle" x="538" y="-108" font-family="Helvetica,sans-Serif" font-size="10.00" fill="#000000"> m_maxDepth</text>
</g>
<!-- Node3 -->
<g id="node3" class="node">
<title>Node3</title>
<g id="a_node3"><a xlink:href="../../d7/dc1/class_cached_item.html" target="_top" xlink:title="Wrapper for data that needs to be cached.">
<polygon fill="#ffffff" stroke="#666666" points="128,-113 0,-113 0,-83 128,-83 128,-113"/>
<text text-anchor="start" x="8" y="-101" font-family="Helvetica,sans-Serif" font-size="10.00" fill="#000000">CachedItem&lt; T, TOwner,</text>
<text text-anchor="middle" x="64" y="-90" font-family="Helvetica,sans-Serif" font-size="10.00" fill="#000000"> creator &gt;</text>
</a>
</g>
</g>
<!-- Node3&#45;&gt;Node2 -->
<g id="edge2" class="edge">
<title>Node3&#45;&gt;Node2</title>
<path fill="none" stroke="#ffa500" stroke-dasharray="5,2" d="M138.0797,-104.6439C194.8011,-109.731 272.5186,-116.7012 328.2616,-121.7006"/>
<polygon fill="#ffa500" stroke="#ffa500" points="138.3719,-101.1562 128.0992,-103.7488 137.7465,-108.1282 138.3719,-101.1562"/>
<text text-anchor="start" x="156.5" y="-144" font-family="Helvetica,sans-Serif" font-size="10.00" fill="#000000"> &lt; int, ClassTreeContext</text>
<text text-anchor="start" x="156.5" y="-133" font-family="Helvetica,sans-Serif" font-size="10.00" fill="#000000">::Private, &amp;Private::createMax</text>
<text text-anchor="middle" x="223" y="-122" font-family="Helvetica,sans-Serif" font-size="10.00" fill="#000000">Depth &gt;</text>
</g>
<!-- Node4 -->
<g id="node4" class="node">
<title>Node4</title>
<g id="a_node4"><a xlink:href="../../d7/dc1/class_cached_item.html" target="_top" xlink:title=" ">
<polygon fill="#ffffff" stroke="#666666" points="468.5,-89.5 328.5,-89.5 328.5,-48.5 468.5,-48.5 468.5,-89.5"/>
<text text-anchor="start" x="336.5" y="-77.5" font-family="Helvetica,sans-Serif" font-size="10.00" fill="#000000">CachedItem&lt; int, ClassTree</text>
<text text-anchor="start" x="336.5" y="-66.5" font-family="Helvetica,sans-Serif" font-size="10.00" fill="#000000">Context::Private, &amp;Private</text>
<text text-anchor="middle" x="398.5" y="-55.5" font-family="Helvetica,sans-Serif" font-size="10.00" fill="#000000">::createPreferredDepth &gt;</text>
</a>
</g>
</g>
<!-- Node3&#45;&gt;Node4 -->
<g id="edge4" class="edge">
<title>Node3&#45;&gt;Node4</title>
<path fill="none" stroke="#ffa500" stroke-dasharray="5,2" d="M113.0796,-79.8565C123.7885,-76.6284 135.1623,-73.743 146,-72 207.03,-62.1846 277.43,-62.2714 328.3644,-64.3301"/>
<polygon fill="#ffa500" stroke="#ffa500" points="111.9469,-76.5437 103.4664,-82.8944 114.0563,-83.2184 111.9469,-76.5437"/>
<text text-anchor="start" x="146" y="-97" font-family="Helvetica,sans-Serif" font-size="10.00" fill="#000000"> &lt; int, ClassTreeContext</text>
<text text-anchor="start" x="146" y="-86" font-family="Helvetica,sans-Serif" font-size="10.00" fill="#000000">::Private, &amp;Private::createPreferred</text>
<text text-anchor="middle" x="223" y="-75" font-family="Helvetica,sans-Serif" font-size="10.00" fill="#000000">Depth &gt;</text>
</g>
<!-- Node4&#45;&gt;Node1 -->
<g id="edge3" class="edge">
<title>Node4&#45;&gt;Node1</title>
<path fill="none" stroke="#9a32cd" stroke-dasharray="5,2" d="M479.259,-69C516.9397,-69 561.2435,-69 596.962,-69"/>
<polygon fill="#9a32cd" stroke="#9a32cd" points="478.8194,-65.5001 468.8194,-69 478.8194,-72.5001 478.8194,-65.5001"/>
<text text-anchor="middle" x="538" y="-72" font-family="Helvetica,sans-Serif" font-size="10.00" fill="#000000"> m_preferredDepth</text>
</g>
<!-- Node5 -->
<g id="node5" class="node">
<title>Node5</title>
<g id="a_node5"><a xlink:href="../../d5/dbf/class_property_map.html" target="_top" xlink:title=" ">
<polygon fill="#ffffff" stroke="#666666" points="479,-30 318,-30 318,0 479,0 479,-30"/>
<text text-anchor="start" x="326" y="-18" font-family="Helvetica,sans-Serif" font-size="10.00" fill="#000000">PropertyMap&lt; ClassTreeContext</text>
<text text-anchor="middle" x="398.5" y="-7" font-family="Helvetica,sans-Serif" font-size="10.00" fill="#000000">::Private &gt;</text>
</a>
</g>
</g>
<!-- Node5&#45;&gt;Node1 -->
<g id="edge5" class="edge">
<title>Node5&#45;&gt;Node1</title>
<path fill="none" stroke="#9a32cd" stroke-dasharray="5,2" d="M482.24,-32.064C526.6626,-41.1162 579.5826,-51.8999 616.7381,-59.4712"/>
<polygon fill="#9a32cd" stroke="#9a32cd" points="482.8148,-28.6093 472.3173,-30.042 481.417,-35.4683 482.8148,-28.6093"/>
<text text-anchor="middle" x="538" y="-54" font-family="Helvetica,sans-Serif" font-size="10.00" fill="#000000"> s_inst</text>
</g>
<!-- Node6 -->
<g id="node6" class="node">
<title>Node6</title>
<g id="a_node6"><a xlink:href="../../d5/dbf/class_property_map.html" target="_top" xlink:title="Class representing a mapping of properties and the corresponding getter function.">
<polygon fill="#ffffff" stroke="#666666" points="112,-24.5 16,-24.5 16,-5.5 112,-5.5 112,-24.5"/>
<text text-anchor="middle" x="64" y="-12.5" font-family="Helvetica,sans-Serif" font-size="10.00" fill="#000000">PropertyMap&lt; T &gt;</text>
</a>
</g>
</g>
<!-- Node6&#45;&gt;Node5 -->
<g id="edge6" class="edge">
<title>Node6&#45;&gt;Node5</title>
<path fill="none" stroke="#ffa500" stroke-dasharray="5,2" d="M122.4031,-15C176.5506,-15 257.6063,-15 317.9025,-15"/>
<polygon fill="#ffa500" stroke="#ffa500" points="122.282,-11.5001 112.2819,-15 122.2819,-18.5001 122.282,-11.5001"/>
<text text-anchor="start" x="177" y="-29" font-family="Helvetica,sans-Serif" font-size="10.00" fill="#000000"> &lt; ClassTreeContext</text>
<text text-anchor="middle" x="223" y="-18" font-family="Helvetica,sans-Serif" font-size="10.00" fill="#000000">::Private &gt;</text>
</g>
</g>
</svg>
