<?xml version="1.0" encoding="UTF-8" standalone="no"?>
<!DOCTYPE svg PUBLIC "-//W3C//DTD SVG 1.1//EN"
 "http://www.w3.org/Graphics/SVG/1.1/DTD/svg11.dtd">
<!-- Generated by graphviz version 2.40.1 (20161225.0304)
 -->
<!-- Title: src/scanner.h Pages: 1 -->
<svg width="381pt" height="82pt"
 viewBox="0.00 0.00 381.00 82.00" xmlns="http://www.w3.org/2000/svg" xmlns:xlink="http://www.w3.org/1999/xlink">
<g id="graph0" class="graph" transform="scale(1 1) rotate(0) translate(4 78)">
<title>src/scanner.h</title>
<!-- Node1 -->
<g id="node1" class="node">
<title>Node1</title>
<g id="a_node1"><a xlink:title=" ">
<polygon fill="#999999" stroke="#666666" points="236.5,-74 160.5,-74 160.5,-55 236.5,-55 236.5,-74"/>
<text text-anchor="middle" x="198.5" y="-62" font-family="Helvetica,sans-Serif" font-size="10.00" fill="#000000">src/scanner.h</text>
</a>
</g>
</g>
<!-- Node2 -->
<g id="node2" class="node">
<title>Node2</title>
<g id="a_node2"><a xlink:href="../../dc/d98/doxygen_8cpp.html" target="_top" xlink:title=" ">
<polygon fill="#ffffff" stroke="#666666" points="89,-19 0,-19 0,0 89,0 89,-19"/>
<text text-anchor="middle" x="44.5" y="-7" font-family="Helvetica,sans-Serif" font-size="10.00" fill="#000000">src/doxygen.cpp</text>
</a>
</g>
</g>
<!-- Node1&#45;&gt;Node2 -->
<g id="edge1" class="edge">
<title>Node1&#45;&gt;Node2</title>
<path fill="none" stroke="#63b8ff" d="M161.9005,-51.4288C134.0479,-41.4814 96.3561,-28.02 71.2753,-19.0626"/>
<polygon fill="#63b8ff" stroke="#63b8ff" points="161.0806,-54.8524 171.6752,-54.9197 163.435,-48.2602 161.0806,-54.8524"/>
</g>
<!-- Node3 -->
<g id="node3" class="node">
<title>Node3</title>
<g id="a_node3"><a xlink:href="../../d4/d7d/lexscanner_8l.html" target="_top" xlink:title=" ">
<polygon fill="#ffffff" stroke="#666666" points="193.5,-19 107.5,-19 107.5,0 193.5,0 193.5,-19"/>
<text text-anchor="middle" x="150.5" y="-7" font-family="Helvetica,sans-Serif" font-size="10.00" fill="#000000">src/lexscanner.l</text>
</a>
</g>
</g>
<!-- Node1&#45;&gt;Node3 -->
<g id="edge2" class="edge">
<title>Node1&#45;&gt;Node3</title>
<path fill="none" stroke="#63b8ff" d="M183.3433,-47.1329C175.3416,-37.9643 165.8153,-27.0487 159.0884,-19.3408"/>
<polygon fill="#63b8ff" stroke="#63b8ff" points="180.9267,-49.6868 190.139,-54.9197 186.2007,-45.0841 180.9267,-49.6868"/>
</g>
<!-- Node4 -->
<g id="node4" class="node">
<title>Node4</title>
<g id="a_node4"><a xlink:href="../../d3/ded/pycode_8l.html" target="_top" xlink:title=" ">
<polygon fill="#ffffff" stroke="#666666" points="281.5,-19 211.5,-19 211.5,0 281.5,0 281.5,-19"/>
<text text-anchor="middle" x="246.5" y="-7" font-family="Helvetica,sans-Serif" font-size="10.00" fill="#000000">src/pycode.l</text>
</a>
</g>
</g>
<!-- Node1&#45;&gt;Node4 -->
<g id="edge3" class="edge">
<title>Node1&#45;&gt;Node4</title>
<path fill="none" stroke="#63b8ff" d="M213.6567,-47.1329C221.6584,-37.9643 231.1847,-27.0487 237.9116,-19.3408"/>
<polygon fill="#63b8ff" stroke="#63b8ff" points="210.7993,-45.0841 206.861,-54.9197 216.0733,-49.6868 210.7993,-45.0841"/>
</g>
<!-- Node5 -->
<g id="node5" class="node">
<title>Node5</title>
<g id="a_node5"><a xlink:href="../../da/d11/scanner_8l.html" target="_top" xlink:title=" ">
<polygon fill="#ffffff" stroke="#666666" points="373,-19 300,-19 300,0 373,0 373,-19"/>
<text text-anchor="middle" x="336.5" y="-7" font-family="Helvetica,sans-Serif" font-size="10.00" fill="#000000">src/scanner.l</text>
</a>
</g>
</g>
<!-- Node1&#45;&gt;Node5 -->
<g id="edge4" class="edge">
<title>Node1&#45;&gt;Node5</title>
<path fill="none" stroke="#63b8ff" d="M231.9255,-51.1783C256.7342,-41.2907 289.9885,-28.0372 312.2747,-19.155"/>
<polygon fill="#63b8ff" stroke="#63b8ff" points="230.5313,-47.9661 222.5378,-54.9197 233.123,-54.4687 230.5313,-47.9661"/>
</g>
</g>
</svg>
