<?xml version="1.0" encoding="UTF-8" standalone="no"?>
<!DOCTYPE svg PUBLIC "-//W3C//DTD SVG 1.1//EN"
 "http://www.w3.org/Graphics/SVG/1.1/DTD/svg11.dtd">
<!-- Generated by graphviz version 2.40.1 (20161225.0304)
 -->
<!-- Title: HtmlHelp::Private Pages: 1 -->
<svg width="298pt" height="247pt"
 viewBox="0.00 0.00 297.50 247.00" xmlns="http://www.w3.org/2000/svg" xmlns:xlink="http://www.w3.org/1999/xlink">
<g id="graph0" class="graph" transform="scale(1 1) rotate(0) translate(4 243)">
<title>HtmlHelp::Private</title>
<!-- Node1 -->
<g id="node1" class="node">
<title>Node1</title>
<g id="a_node1"><a xlink:title=" ">
<polygon fill="#999999" stroke="#666666" points="141,-19 46,-19 46,0 141,0 141,-19"/>
<text text-anchor="middle" x="93.5" y="-7" font-family="Helvetica,sans-Serif" font-size="10.00" fill="#000000">HtmlHelp::Private</text>
</a>
</g>
</g>
<!-- Node2 -->
<g id="node2" class="node">
<title>Node2</title>
<g id="a_node2"><a xlink:href="../../d9/d45/class_q_c_string.html" target="_top" xlink:title="This is an alternative implementation of QCString.">
<polygon fill="#ffffff" stroke="#666666" points="57,-96 0,-96 0,-77 57,-77 57,-96"/>
<text text-anchor="middle" x="28.5" y="-84" font-family="Helvetica,sans-Serif" font-size="10.00" fill="#000000">QCString</text>
</a>
</g>
</g>
<!-- Node2&#45;&gt;Node1 -->
<g id="edge1" class="edge">
<title>Node2&#45;&gt;Node1</title>
<path fill="none" stroke="#9a32cd" stroke-dasharray="5,2" d="M29.0188,-66.6514C30.1796,-56.8648 32.9967,-45.393 39.5,-37 45.6217,-29.0995 54.6363,-23.2756 63.5538,-19.0751"/>
<polygon fill="#9a32cd" stroke="#9a32cd" points="25.5203,-66.5083 28.3039,-76.7309 32.5027,-67.0036 25.5203,-66.5083"/>
<text text-anchor="middle" x="59.5" y="-51" font-family="Helvetica,sans-Serif" font-size="10.00" fill="#000000"> prevAnc</text>
<text text-anchor="middle" x="59.5" y="-40" font-family="Helvetica,sans-Serif" font-size="10.00" fill="#000000">prevFile</text>
</g>
<!-- Node3 -->
<g id="node3" class="node">
<title>Node3</title>
<g id="a_node3"><a xlink:href="../../df/d26/class_html_help_recoder.html" target="_top" xlink:title="Helper class to deal with recoding the UTF8 encoded text back to the native encoding specified by CHM...">
<polygon fill="#ffffff" stroke="#666666" points="141,-162 46,-162 46,-143 141,-143 141,-162"/>
<text text-anchor="middle" x="93.5" y="-150" font-family="Helvetica,sans-Serif" font-size="10.00" fill="#000000">HtmlHelpRecoder</text>
</a>
</g>
</g>
<!-- Node3&#45;&gt;Node1 -->
<g id="edge2" class="edge">
<title>Node3&#45;&gt;Node1</title>
<path fill="none" stroke="#9a32cd" stroke-dasharray="5,2" d="M93.5,-132.5524C93.5,-101.3244 93.5,-42.0816 93.5,-19.0211"/>
<polygon fill="#9a32cd" stroke="#9a32cd" points="90.0001,-132.671 93.5,-142.671 97.0001,-132.6711 90.0001,-132.671"/>
<text text-anchor="middle" x="111.5" y="-84" font-family="Helvetica,sans-Serif" font-size="10.00" fill="#000000"> recoder</text>
</g>
<!-- Node4 -->
<g id="node4" class="node">
<title>Node4</title>
<g id="a_node4"><a xlink:href="../../d0/d74/class_html_help_index.html" target="_top" xlink:title="A helper class for HtmlHelp that manages a two level index in alphabetical order.">
<polygon fill="#ffffff" stroke="#666666" points="229.5,-96 147.5,-96 147.5,-77 229.5,-77 229.5,-96"/>
<text text-anchor="middle" x="188.5" y="-84" font-family="Helvetica,sans-Serif" font-size="10.00" fill="#000000">HtmlHelpIndex</text>
</a>
</g>
</g>
<!-- Node3&#45;&gt;Node4 -->
<g id="edge6" class="edge">
<title>Node3&#45;&gt;Node4</title>
<path fill="none" stroke="#9a32cd" stroke-dasharray="5,2" d="M115.845,-136.9761C134.0976,-124.2954 159.3152,-106.7758 174.7338,-96.0639"/>
<polygon fill="#9a32cd" stroke="#9a32cd" points="113.7332,-134.1814 107.5176,-142.7615 117.7271,-139.9303 113.7332,-134.1814"/>
<text text-anchor="middle" x="172" y="-117" font-family="Helvetica,sans-Serif" font-size="10.00" fill="#000000"> m_recoder</text>
</g>
<!-- Node4&#45;&gt;Node1 -->
<g id="edge3" class="edge">
<title>Node4&#45;&gt;Node1</title>
<path fill="none" stroke="#9a32cd" stroke-dasharray="5,2" d="M168.6601,-70.4193C149.5597,-54.9379 121.3015,-32.0339 105.4341,-19.1729"/>
<polygon fill="#9a32cd" stroke="#9a32cd" points="166.4957,-73.1702 176.4682,-76.7479 170.9034,-67.7321 166.4957,-73.1702"/>
<text text-anchor="middle" x="166" y="-45.5" font-family="Helvetica,sans-Serif" font-size="10.00" fill="#000000"> index</text>
</g>
<!-- Node5 -->
<g id="node5" class="node">
<title>Node5</title>
<g id="a_node5"><a xlink:href="../../d0/d2c/class_linked_map.html" target="_top" xlink:title=" ">
<polygon fill="#ffffff" stroke="#666666" points="286,-162 159,-162 159,-143 286,-143 286,-162"/>
<text text-anchor="middle" x="222.5" y="-150" font-family="Helvetica,sans-Serif" font-size="10.00" fill="#000000">LinkedMap&lt; IndexField &gt;</text>
</a>
</g>
</g>
<!-- Node5&#45;&gt;Node4 -->
<g id="edge4" class="edge">
<title>Node5&#45;&gt;Node4</title>
<path fill="none" stroke="#9a32cd" stroke-dasharray="5,2" d="M212.8817,-133.8291C206.5873,-121.6107 198.6175,-106.1399 193.5374,-96.2785"/>
<polygon fill="#9a32cd" stroke="#9a32cd" points="209.7921,-135.4746 217.4832,-142.7615 216.015,-132.2688 209.7921,-135.4746"/>
<text text-anchor="middle" x="225.5" y="-117" font-family="Helvetica,sans-Serif" font-size="10.00" fill="#000000"> m_map</text>
</g>
<!-- Node6 -->
<g id="node6" class="node">
<title>Node6</title>
<g id="a_node6"><a xlink:href="../../d0/d2c/class_linked_map.html" target="_top" xlink:title="Container class representing a vector of objects with keys.">
<polygon fill="#ffffff" stroke="#666666" points="278,-239 167,-239 167,-209 278,-209 278,-239"/>
<text text-anchor="start" x="175" y="-227" font-family="Helvetica,sans-Serif" font-size="10.00" fill="#000000">LinkedMap&lt; T, Hash,</text>
<text text-anchor="middle" x="222.5" y="-216" font-family="Helvetica,sans-Serif" font-size="10.00" fill="#000000"> KeyEqual, Map &gt;</text>
</a>
</g>
</g>
<!-- Node6&#45;&gt;Node5 -->
<g id="edge5" class="edge">
<title>Node6&#45;&gt;Node5</title>
<path fill="none" stroke="#ffa500" stroke-dasharray="5,2" d="M222.5,-198.8098C222.5,-186.141 222.5,-171.5285 222.5,-162.1614"/>
<polygon fill="#ffa500" stroke="#ffa500" points="219.0001,-198.8367 222.5,-208.8367 226.0001,-198.8367 219.0001,-198.8367"/>
<text text-anchor="middle" x="256" y="-183" font-family="Helvetica,sans-Serif" font-size="10.00" fill="#000000"> &lt; IndexField &gt;</text>
</g>
</g>
</svg>
