<?xml version="1.0" encoding="UTF-8" standalone="no"?>
<!DOCTYPE svg PUBLIC "-//W3C//DTD SVG 1.1//EN"
 "http://www.w3.org/Graphics/SVG/1.1/DTD/svg11.dtd">
<!-- Generated by graphviz version 2.40.1 (20161225.0304)
 -->
<!-- Title: DocHRef Pages: 1 -->
<!--zoomable 436 -->
<svg id="main" version="1.1" xmlns="http://www.w3.org/2000/svg" xmlns:xlink="http://www.w3.org/1999/xlink" xml:space="preserve" onload="init(evt)">
<style type="text/css"><![CDATA[
.edge:hover path { stroke: red; }
.edge:hover polygon { stroke: red; fill: red; }
]]></style>
<script type="text/javascript"><![CDATA[
var edges = document.getElementsByTagName('g');
if (edges && edges.length) {
  for (var i=0;i<edges.length;i++) {
    if (edges[i].id.substr(0,4)=='edge') {
      edges[i].setAttribute('class','edge');
    }
  }
}
]]></script>
        <defs>
                <circle id="rim" cx="0" cy="0" r="7"/>
                <circle id="rim2" cx="0" cy="0" r="3.5"/>
                <g id="zoomPlus">
                        <use xlink:href="#rim" fill="#404040">
                                <set attributeName="fill" to="#808080" begin="zoomplus.mouseover" end="zoomplus.mouseout"/>
                        </use>
                        <path d="M-4,0h8M0,-4v8" fill="none" stroke="white" stroke-width="1.5" pointer-events="none"/>
                </g>
                <g id="zoomMin">
                        <use xlink:href="#rim" fill="#404040">
                                <set attributeName="fill" to="#808080" begin="zoomminus.mouseover" end="zoomminus.mouseout"/>
                        </use>
                        <path d="M-4,0h8" fill="none" stroke="white" stroke-width="1.5" pointer-events="none"/>
                </g>
                <g id="dirArrow">
                        <path fill="none" stroke="white" stroke-width="1.5" d="M0,-3.0v7 M-2.5,-0.5L0,-3.0L2.5,-0.5"/>
                </g>
               <g id="resetDef">
                       <use xlink:href="#rim2" fill="#404040">
                               <set attributeName="fill" to="#808080" begin="reset.mouseover" end="reset.mouseout"/>
                       </use>
               </g>
        </defs>

<script type="text/javascript">
var viewWidth = 1526;
var viewHeight = 436;
var sectionId = 'dynsection-1';
</script>
<script xlink:href="../../svgpan.js"/>
<svg id="graph" class="graph">
<g id="viewport">
<title>DocHRef</title>
<!-- Node1 -->
<g id="node1" class="node">
<title>Node1</title>
<g id="a_node1"><a xlink:title="Node representing a Hypertext reference.">
<polygon fill="#999999" stroke="#666666" points="1518,-179.5 1460,-179.5 1460,-160.5 1518,-160.5 1518,-179.5"/>
<text text-anchor="middle" x="1489" y="-167.5" font-family="Helvetica,sans-Serif" font-size="10.00" fill="#000000">DocHRef</text>
</a>
</g>
</g>
<!-- Node2 -->
<g id="node2" class="node">
<title>Node2</title>
<g id="a_node2"><a xlink:href="../../da/dfc/class_doc_compound_node.html" target="_top" xlink:title="Base class for nodes with children.">
<polygon fill="#ffffff" stroke="#666666" points="1423,-240.5 1318,-240.5 1318,-221.5 1423,-221.5 1423,-240.5"/>
<text text-anchor="middle" x="1370.5" y="-228.5" font-family="Helvetica,sans-Serif" font-size="10.00" fill="#000000">DocCompoundNode</text>
</a>
</g>
</g>
<!-- Node2&#45;&gt;Node1 -->
<g id="edge1" class="edge">
<title>Node2&#45;&gt;Node1</title>
<path fill="none" stroke="#63b8ff" d="M1397.9468,-216.8712C1420.127,-205.4536 1450.7574,-189.6861 1470.2233,-179.6656"/>
<polygon fill="#63b8ff" stroke="#63b8ff" points="1396.3048,-213.7799 1389.0156,-221.4688 1399.5087,-220.0037 1396.3048,-213.7799"/>
</g>
<!-- Node3 -->
<g id="node3" class="node">
<title>Node3</title>
<g id="a_node3"><a xlink:href="../../d9/d0e/class_doc_node.html" target="_top" xlink:title="Abstract node interface with type information.">
<polygon fill="#ffffff" stroke="#666666" points="1223,-287.5 1165,-287.5 1165,-268.5 1223,-268.5 1223,-287.5"/>
<text text-anchor="middle" x="1194" y="-275.5" font-family="Helvetica,sans-Serif" font-size="10.00" fill="#000000">DocNode</text>
</a>
</g>
</g>
<!-- Node3&#45;&gt;Node2 -->
<g id="edge2" class="edge">
<title>Node3&#45;&gt;Node2</title>
<path fill="none" stroke="#63b8ff" d="M1232.9601,-267.6254C1263.2947,-259.5476 1305.0678,-248.4239 1334.5965,-240.5607"/>
<polygon fill="#63b8ff" stroke="#63b8ff" points="1231.908,-264.2835 1223.1454,-270.2389 1233.7093,-271.0478 1231.908,-264.2835"/>
</g>
<!-- Node4 -->
<g id="node4" class="node">
<title>Node4</title>
<g id="a_node4"><a xlink:href="../../da/d02/class_doc_parser.html" target="_top" xlink:title=" ">
<polygon fill="#ffffff" stroke="#666666" points="1029.5,-298.5 966.5,-298.5 966.5,-279.5 1029.5,-279.5 1029.5,-298.5"/>
<text text-anchor="middle" x="998" y="-286.5" font-family="Helvetica,sans-Serif" font-size="10.00" fill="#000000">DocParser</text>
</a>
</g>
</g>
<!-- Node4&#45;&gt;Node3 -->
<g id="edge3" class="edge">
<title>Node4&#45;&gt;Node3</title>
<path fill="none" stroke="#9a32cd" stroke-dasharray="5,2" d="M1040.0771,-286.6385C1077.7313,-284.5253 1131.9413,-281.4829 1164.965,-279.6295"/>
<polygon fill="#9a32cd" stroke="#9a32cd" points="1039.7151,-283.1532 1029.927,-287.2082 1040.1074,-290.1422 1039.7151,-283.1532"/>
<text text-anchor="middle" x="1117" y="-286" font-family="Helvetica,sans-Serif" font-size="10.00" fill="#000000"> m_parser</text>
</g>
<!-- Node5 -->
<g id="node5" class="node">
<title>Node5</title>
<g id="a_node5"><a xlink:href="../../de/dad/class_i_doc_parser.html" target="_top" xlink:title="opaque parser interface">
<polygon fill="#ffffff" stroke="#666666" points="773,-372.5 707,-372.5 707,-353.5 773,-353.5 773,-372.5"/>
<text text-anchor="middle" x="740" y="-360.5" font-family="Helvetica,sans-Serif" font-size="10.00" fill="#000000">IDocParser</text>
</a>
</g>
</g>
<!-- Node5&#45;&gt;Node4 -->
<g id="edge4" class="edge">
<title>Node5&#45;&gt;Node4</title>
<path fill="none" stroke="#63b8ff" d="M783.3506,-356.9453C816.1175,-351.7561 861.9683,-343.177 901,-331 929.0294,-322.2554 959.9127,-308.0353 979.1335,-298.5999"/>
<polygon fill="#63b8ff" stroke="#63b8ff" points="782.5465,-353.5278 773.1969,-358.5112 783.6136,-360.446 782.5465,-353.5278"/>
</g>
<!-- Node6 -->
<g id="node6" class="node">
<title>Node6</title>
<g id="a_node6"><a xlink:href="../../d8/d7d/struct_doc_parser_context.html" target="_top" xlink:title="Parser&#39;s context to store all global variables.">
<polygon fill="#ffffff" stroke="#666666" points="789,-335.5 691,-335.5 691,-316.5 789,-316.5 789,-335.5"/>
<text text-anchor="middle" x="740" y="-323.5" font-family="Helvetica,sans-Serif" font-size="10.00" fill="#000000">DocParserContext</text>
</a>
</g>
</g>
<!-- Node6&#45;&gt;Node4 -->
<g id="edge5" class="edge">
<title>Node6&#45;&gt;Node4</title>
<path fill="none" stroke="#9a32cd" stroke-dasharray="5,2" d="M799.3448,-317.543C829.7457,-313.2054 867.3526,-307.8315 901,-303 922.7262,-299.8803 947.1869,-296.3497 966.1094,-293.6146"/>
<polygon fill="#9a32cd" stroke="#9a32cd" points="798.7328,-314.0948 789.3273,-318.972 799.7214,-321.0247 798.7328,-314.0948"/>
<text text-anchor="middle" x="854" y="-319" font-family="Helvetica,sans-Serif" font-size="10.00" fill="#000000"> context</text>
</g>
<!-- Node7 -->
<g id="node7" class="node">
<title>Node7</title>
<g id="a_node7"><a xlink:href="../../d5/dcc/class_definition.html" target="_top" xlink:title="The common base class of all entity definitions found in the sources.">
<polygon fill="#ffffff" stroke="#666666" points="265.5,-402.5 207.5,-402.5 207.5,-383.5 265.5,-383.5 265.5,-402.5"/>
<text text-anchor="middle" x="236.5" y="-390.5" font-family="Helvetica,sans-Serif" font-size="10.00" fill="#000000">Definition</text>
</a>
</g>
</g>
<!-- Node7&#45;&gt;Node6 -->
<g id="edge6" class="edge">
<title>Node7&#45;&gt;Node6</title>
<path fill="none" stroke="#9a32cd" stroke-dasharray="5,2" d="M275.7636,-392.9297C352.9403,-392.0022 529.3909,-385.9696 673,-352 681.3531,-350.0241 682.9985,-348.1072 691,-345 698.9099,-341.9284 707.5395,-338.581 715.3219,-335.5636"/>
<polygon fill="#9a32cd" stroke="#9a32cd" points="275.5117,-389.4319 265.5463,-393.0291 275.5799,-396.4316 275.5117,-389.4319"/>
<text text-anchor="middle" x="527.5" y="-385" font-family="Helvetica,sans-Serif" font-size="10.00" fill="#000000"> scope</text>
</g>
<!-- Node13 -->
<g id="node13" class="node">
<title>Node13</title>
<g id="a_node13"><a xlink:href="../../da/d09/class_member_def.html" target="_top" xlink:title="A model of a class/file/namespace member symbol.">
<polygon fill="#ffffff" stroke="#666666" points="561.5,-425.5 493.5,-425.5 493.5,-406.5 561.5,-406.5 561.5,-425.5"/>
<text text-anchor="middle" x="527.5" y="-413.5" font-family="Helvetica,sans-Serif" font-size="10.00" fill="#000000">MemberDef</text>
</a>
</g>
</g>
<!-- Node7&#45;&gt;Node13 -->
<g id="edge13" class="edge">
<title>Node7&#45;&gt;Node13</title>
<path fill="none" stroke="#63b8ff" d="M275.8707,-396.1118C333.294,-400.6504 439.0756,-409.0111 493.3748,-413.3028"/>
<polygon fill="#63b8ff" stroke="#63b8ff" points="275.9793,-392.6095 265.7346,-395.3106 275.4277,-399.5878 275.9793,-392.6095"/>
</g>
<!-- Node8 -->
<g id="node8" class="node">
<title>Node8</title>
<g id="a_node8"><a xlink:href="../../d9/d45/class_q_c_string.html" target="_top" xlink:title="This is an alternative implementation of QCString.">
<polygon fill="#ffffff" stroke="#666666" points="265,-179.5 208,-179.5 208,-160.5 265,-160.5 265,-179.5"/>
<text text-anchor="middle" x="236.5" y="-167.5" font-family="Helvetica,sans-Serif" font-size="10.00" fill="#000000">QCString</text>
</a>
</g>
</g>
<!-- Node8&#45;&gt;Node1 -->
<g id="edge24" class="edge">
<title>Node8&#45;&gt;Node1</title>
<path fill="none" stroke="#9a32cd" stroke-dasharray="5,2" d="M275.1305,-170C330.868,-170 437.085,-170 527.5,-170 527.5,-170 527.5,-170 1370.5,-170 1400.9479,-170 1435.7965,-170 1459.7809,-170"/>
<polygon fill="#9a32cd" stroke="#9a32cd" points="275.0007,-166.5001 265.0006,-170 275.0006,-173.5001 275.0007,-166.5001"/>
<text text-anchor="middle" x="998" y="-195" font-family="Helvetica,sans-Serif" font-size="10.00" fill="#000000"> m_file</text>
<text text-anchor="middle" x="998" y="-184" font-family="Helvetica,sans-Serif" font-size="10.00" fill="#000000">m_relPath</text>
<text text-anchor="middle" x="998" y="-173" font-family="Helvetica,sans-Serif" font-size="10.00" fill="#000000">m_url</text>
</g>
<!-- Node8&#45;&gt;Node6 -->
<g id="edge7" class="edge">
<title>Node8&#45;&gt;Node6</title>
<path fill="none" stroke="#9a32cd" stroke-dasharray="5,2" d="M275.0768,-175.9091C363.5352,-189.4921 573.9641,-222.0057 581,-225 637.3537,-248.9829 637.23,-278.6794 691,-308 696.8084,-311.1673 703.2886,-313.9919 709.5851,-316.4117"/>
<polygon fill="#9a32cd" stroke="#9a32cd" points="275.5786,-172.4452 265.1634,-174.3877 274.5167,-179.3642 275.5786,-172.4452"/>
<text text-anchor="middle" x="527.5" y="-294" font-family="Helvetica,sans-Serif" font-size="10.00" fill="#000000"> context</text>
<text text-anchor="middle" x="527.5" y="-283" font-family="Helvetica,sans-Serif" font-size="10.00" fill="#000000">exampleName</text>
<text text-anchor="middle" x="527.5" y="-272" font-family="Helvetica,sans-Serif" font-size="10.00" fill="#000000">fileName</text>
<text text-anchor="middle" x="527.5" y="-261" font-family="Helvetica,sans-Serif" font-size="10.00" fill="#000000">includeFileName</text>
<text text-anchor="middle" x="527.5" y="-250" font-family="Helvetica,sans-Serif" font-size="10.00" fill="#000000">includeFileText</text>
<text text-anchor="middle" x="527.5" y="-239" font-family="Helvetica,sans-Serif" font-size="10.00" fill="#000000">relPath</text>
<text text-anchor="middle" x="527.5" y="-228" font-family="Helvetica,sans-Serif" font-size="10.00" fill="#000000">searchUrl</text>
</g>
<!-- Node14 -->
<g id="node14" class="node">
<title>Node14</title>
<g id="a_node14"><a xlink:href="../../d6/df4/struct_token_info.html" target="_top" xlink:title="Data associated with a token used by the comment block parser.">
<polygon fill="#ffffff" stroke="#666666" points="557.5,-76.5 497.5,-76.5 497.5,-57.5 557.5,-57.5 557.5,-76.5"/>
<text text-anchor="middle" x="527.5" y="-64.5" font-family="Helvetica,sans-Serif" font-size="10.00" fill="#000000">TokenInfo</text>
</a>
</g>
</g>
<!-- Node8&#45;&gt;Node14 -->
<g id="edge15" class="edge">
<title>Node8&#45;&gt;Node14</title>
<path fill="none" stroke="#9a32cd" stroke-dasharray="5,2" d="M246.5577,-151.5985C261.0772,-127.1917 290.4535,-85.1962 329,-68 384.2341,-43.3591 457.027,-52.0332 497.3453,-59.9249"/>
<polygon fill="#9a32cd" stroke="#9a32cd" points="243.5125,-149.8731 241.5742,-160.2891 249.585,-153.3552 243.5125,-149.8731"/>
<text text-anchor="middle" x="392.5" y="-148" font-family="Helvetica,sans-Serif" font-size="10.00" fill="#000000"> attribsStr</text>
<text text-anchor="middle" x="392.5" y="-137" font-family="Helvetica,sans-Serif" font-size="10.00" fill="#000000">chars</text>
<text text-anchor="middle" x="392.5" y="-126" font-family="Helvetica,sans-Serif" font-size="10.00" fill="#000000">name</text>
<text text-anchor="middle" x="392.5" y="-115" font-family="Helvetica,sans-Serif" font-size="10.00" fill="#000000">sectionId</text>
<text text-anchor="middle" x="392.5" y="-104" font-family="Helvetica,sans-Serif" font-size="10.00" fill="#000000">simpleSectName</text>
<text text-anchor="middle" x="392.5" y="-93" font-family="Helvetica,sans-Serif" font-size="10.00" fill="#000000">simpleSectText</text>
<text text-anchor="middle" x="392.5" y="-82" font-family="Helvetica,sans-Serif" font-size="10.00" fill="#000000">text</text>
<text text-anchor="middle" x="392.5" y="-71" font-family="Helvetica,sans-Serif" font-size="10.00" fill="#000000">verb</text>
</g>
<!-- Node9 -->
<g id="node9" class="node">
<title>Node9</title>
<g id="a_node9"><a xlink:href="../../d9/d82/class_iterable_stack.html" target="_top" xlink:title=" ">
<polygon fill="#ffffff" stroke="#666666" points="581,-341 474,-341 474,-311 581,-311 581,-341"/>
<text text-anchor="start" x="482" y="-329" font-family="Helvetica,sans-Serif" font-size="10.00" fill="#000000">IterableStack&lt; const</text>
<text text-anchor="middle" x="527.5" y="-318" font-family="Helvetica,sans-Serif" font-size="10.00" fill="#000000"> DocNodeVariant * &gt;</text>
</a>
</g>
</g>
<!-- Node9&#45;&gt;Node6 -->
<g id="edge8" class="edge">
<title>Node9&#45;&gt;Node6</title>
<path fill="none" stroke="#9a32cd" stroke-dasharray="5,2" d="M591.2443,-326C623.1375,-326 661.1491,-326 690.7643,-326"/>
<polygon fill="#9a32cd" stroke="#9a32cd" points="591.1228,-322.5001 581.1227,-326 591.1227,-329.5001 591.1228,-322.5001"/>
<text text-anchor="middle" x="636" y="-340" font-family="Helvetica,sans-Serif" font-size="10.00" fill="#000000"> initialStyleStack</text>
<text text-anchor="middle" x="636" y="-329" font-family="Helvetica,sans-Serif" font-size="10.00" fill="#000000">styleStack</text>
</g>
<!-- Node10 -->
<g id="node10" class="node">
<title>Node10</title>
<g id="a_node10"><a xlink:title=" ">
<polygon fill="#ffffff" stroke="#666666" points="311,-347.5 162,-347.5 162,-306.5 311,-306.5 311,-347.5"/>
<text text-anchor="start" x="170" y="-335.5" font-family="Helvetica,sans-Serif" font-size="10.00" fill="#000000">std::stack&lt; const DocNode</text>
<text text-anchor="start" x="170" y="-324.5" font-family="Helvetica,sans-Serif" font-size="10.00" fill="#000000">Variant * , std::deque</text>
<text text-anchor="middle" x="236.5" y="-313.5" font-family="Helvetica,sans-Serif" font-size="10.00" fill="#000000">&lt;const DocNodeVariant * &gt; &#160;&gt;</text>
</a>
</g>
</g>
<!-- Node10&#45;&gt;Node9 -->
<g id="edge9" class="edge">
<title>Node10&#45;&gt;Node9</title>
<path fill="none" stroke="#63b8ff" d="M321.0765,-326.7094C370.3617,-326.54 431.0285,-326.3315 473.8016,-326.1845"/>
<polygon fill="#63b8ff" stroke="#63b8ff" points="321.0497,-323.2093 311.0618,-326.7438 321.0739,-330.2093 321.0497,-323.2093"/>
</g>
<!-- Node11 -->
<g id="node11" class="node">
<title>Node11</title>
<g id="a_node11"><a xlink:href="../../d9/d82/class_iterable_stack.html" target="_top" xlink:title=" ">
<polygon fill="#ffffff" stroke="#666666" points="309.5,-288.5 163.5,-288.5 163.5,-269.5 309.5,-269.5 309.5,-288.5"/>
<text text-anchor="middle" x="236.5" y="-276.5" font-family="Helvetica,sans-Serif" font-size="10.00" fill="#000000">IterableStack&lt; T, Container &gt;</text>
</a>
</g>
</g>
<!-- Node11&#45;&gt;Node9 -->
<g id="edge10" class="edge">
<title>Node11&#45;&gt;Node9</title>
<path fill="none" stroke="#ffa500" stroke-dasharray="5,2" d="M319.8198,-289.9074C360.9142,-295.6022 411.1631,-303.0364 456,-311 461.7445,-312.0203 467.7331,-313.1582 473.6926,-314.3386"/>
<polygon fill="#ffa500" stroke="#ffa500" points="320.2335,-286.4314 309.8496,-288.5349 319.2789,-293.366 320.2335,-286.4314"/>
<text text-anchor="middle" x="392.5" y="-314" font-family="Helvetica,sans-Serif" font-size="10.00" fill="#000000"> &lt; const DocNodeVariant * &gt;</text>
</g>
<!-- Node12 -->
<g id="node12" class="node">
<title>Node12</title>
<g id="a_node12"><a xlink:title=" ">
<polygon fill="#ffffff" stroke="#666666" points="110,-294 15,-294 15,-264 110,-264 110,-294"/>
<text text-anchor="start" x="23" y="-282" font-family="Helvetica,sans-Serif" font-size="10.00" fill="#000000">std::stack&lt; T, std</text>
<text text-anchor="middle" x="62.5" y="-271" font-family="Helvetica,sans-Serif" font-size="10.00" fill="#000000">::deque&lt; T &gt; &gt;</text>
</a>
</g>
</g>
<!-- Node12&#45;&gt;Node11 -->
<g id="edge11" class="edge">
<title>Node12&#45;&gt;Node11</title>
<path fill="none" stroke="#63b8ff" d="M120.308,-279C134.0418,-279 148.8734,-279 163.1969,-279"/>
<polygon fill="#63b8ff" stroke="#63b8ff" points="120.0463,-275.5001 110.0463,-279 120.0462,-282.5001 120.0463,-275.5001"/>
</g>
<!-- Node13&#45;&gt;Node6 -->
<g id="edge12" class="edge">
<title>Node13&#45;&gt;Node6</title>
<path fill="none" stroke="#9a32cd" stroke-dasharray="5,2" d="M571.9112,-419.2235C603.4005,-419.1379 644.8899,-413.9174 673,-391 690.0156,-377.1276 675.4523,-360.4998 691,-345 694.877,-341.1349 699.6283,-338.0379 704.6311,-335.5613"/>
<polygon fill="#9a32cd" stroke="#9a32cd" points="571.6994,-415.7201 561.6494,-419.0738 571.5973,-422.7194 571.6994,-415.7201"/>
<text text-anchor="middle" x="636" y="-420" font-family="Helvetica,sans-Serif" font-size="10.00" fill="#000000"> memberDef</text>
</g>
<!-- Node14&#45;&gt;Node6 -->
<g id="edge14" class="edge">
<title>Node14&#45;&gt;Node6</title>
<path fill="none" stroke="#9a32cd" stroke-dasharray="5,2" d="M554.5198,-81.7642C588.2748,-101.7597 644.994,-140.794 673,-191 698.6301,-236.9467 657.6854,-267.2798 691,-308 693.7546,-311.3669 697.1988,-314.104 700.9773,-316.3292"/>
<polygon fill="#9a32cd" stroke="#9a32cd" points="556.06,-78.6118 545.651,-76.6359 552.5559,-84.6717 556.06,-78.6118"/>
<text text-anchor="middle" x="636" y="-194" font-family="Helvetica,sans-Serif" font-size="10.00" fill="#000000"> token</text>
</g>
<!-- Node15 -->
<g id="node15" class="node">
<title>Node15</title>
<g id="a_node15"><a xlink:href="../../db/d4d/class_html_attrib_list.html" target="_top" xlink:title="Class representing a list of HTML attributes.">
<polygon fill="#ffffff" stroke="#666666" points="275,-26.5 198,-26.5 198,-7.5 275,-7.5 275,-26.5"/>
<text text-anchor="middle" x="236.5" y="-14.5" font-family="Helvetica,sans-Serif" font-size="10.00" fill="#000000">HtmlAttribList</text>
</a>
</g>
</g>
<!-- Node15&#45;&gt;Node1 -->
<g id="edge23" class="edge">
<title>Node15&#45;&gt;Node1</title>
<path fill="none" stroke="#9a32cd" stroke-dasharray="5,2" d="M285.3507,-12.4006C343.124,-7.366 442.2213,0 527.5,0 527.5,0 527.5,0 1370.5,0 1449.2887,0 1479.9963,-124.4106 1487.2269,-160.373"/>
<polygon fill="#9a32cd" stroke="#9a32cd" points="284.7094,-8.9436 275.0568,-13.3113 285.3263,-15.9164 284.7094,-8.9436"/>
<text text-anchor="middle" x="998" y="-3" font-family="Helvetica,sans-Serif" font-size="10.00" fill="#000000"> m_attribs</text>
</g>
<!-- Node15&#45;&gt;Node14 -->
<g id="edge16" class="edge">
<title>Node15&#45;&gt;Node14</title>
<path fill="none" stroke="#9a32cd" stroke-dasharray="5,2" d="M285.3279,-15.8763C330.3562,-15.9857 398.6951,-19.0712 456,-34 475.8449,-39.1699 496.9817,-49.611 511.0831,-57.3711"/>
<polygon fill="#9a32cd" stroke="#9a32cd" points="285.2375,-12.3764 275.246,-15.9007 285.2545,-19.3764 285.2375,-12.3764"/>
<text text-anchor="middle" x="392.5" y="-37" font-family="Helvetica,sans-Serif" font-size="10.00" fill="#000000"> attribs</text>
</g>
<!-- Node16 -->
<g id="node16" class="node">
<title>Node16</title>
<g id="a_node16"><a xlink:title=" ">
<polygon fill="#ffffff" stroke="#666666" points="125,-26.5 0,-26.5 0,-7.5 125,-7.5 125,-26.5"/>
<text text-anchor="middle" x="62.5" y="-14.5" font-family="Helvetica,sans-Serif" font-size="10.00" fill="#000000">std::vector&lt; HtmlAttrib &gt;</text>
</a>
</g>
</g>
<!-- Node16&#45;&gt;Node15 -->
<g id="edge17" class="edge">
<title>Node16&#45;&gt;Node15</title>
<path fill="none" stroke="#63b8ff" d="M135.3908,-17C156.8225,-17 179.4279,-17 197.8162,-17"/>
<polygon fill="#63b8ff" stroke="#63b8ff" points="135.318,-13.5001 125.318,-17 135.318,-20.5001 135.318,-13.5001"/>
</g>
<!-- Node17 -->
<g id="node17" class="node">
<title>Node17</title>
<g id="a_node17"><a xlink:href="../../d1/d7f/class_doc_tokenizer.html" target="_top" xlink:title=" ">
<polygon fill="#ffffff" stroke="#666666" points="778.5,-298.5 701.5,-298.5 701.5,-279.5 778.5,-279.5 778.5,-298.5"/>
<text text-anchor="middle" x="740" y="-286.5" font-family="Helvetica,sans-Serif" font-size="10.00" fill="#000000">DocTokenizer</text>
</a>
</g>
</g>
<!-- Node17&#45;&gt;Node4 -->
<g id="edge18" class="edge">
<title>Node17&#45;&gt;Node4</title>
<path fill="none" stroke="#9a32cd" stroke-dasharray="5,2" d="M788.6465,-289C840.7915,-289 922.0453,-289 966.4327,-289"/>
<polygon fill="#9a32cd" stroke="#9a32cd" points="788.6252,-285.5001 778.6252,-289 788.6252,-292.5001 788.6252,-285.5001"/>
<text text-anchor="middle" x="854" y="-292" font-family="Helvetica,sans-Serif" font-size="10.00" fill="#000000"> tokenizer</text>
</g>
<!-- Node18 -->
<g id="node18" class="node">
<title>Node18</title>
<g id="a_node18"><a xlink:href="../../d2/dc1/class_s_i_data_collection.html" target="_top" xlink:title=" ">
<polygon fill="#ffffff" stroke="#666666" points="785.5,-261.5 694.5,-261.5 694.5,-242.5 785.5,-242.5 785.5,-261.5"/>
<text text-anchor="middle" x="740" y="-249.5" font-family="Helvetica,sans-Serif" font-size="10.00" fill="#000000">SIDataCollection</text>
</a>
</g>
</g>
<!-- Node18&#45;&gt;Node4 -->
<g id="edge19" class="edge">
<title>Node18&#45;&gt;Node4</title>
<path fill="none" stroke="#9a32cd" stroke-dasharray="5,2" d="M796.0037,-259.4062C826.9744,-263.5638 866.1369,-268.9228 901,-274 922.7527,-277.1679 947.2132,-280.9519 966.129,-283.9268"/>
<polygon fill="#9a32cd" stroke="#9a32cd" points="796.2087,-255.9025 785.8326,-258.0444 795.2797,-262.8405 796.2087,-255.9025"/>
<text text-anchor="middle" x="854" y="-277" font-family="Helvetica,sans-Serif" font-size="10.00" fill="#000000"> searchData</text>
</g>
<!-- Node19 -->
<g id="node19" class="node">
<title>Node19</title>
<g id="a_node19"><a xlink:href="../../d9/dd3/struct_doc_node_list.html" target="_top" xlink:title=" ">
<polygon fill="#ffffff" stroke="#666666" points="1231,-240.5 1157,-240.5 1157,-221.5 1231,-221.5 1231,-240.5"/>
<text text-anchor="middle" x="1194" y="-228.5" font-family="Helvetica,sans-Serif" font-size="10.00" fill="#000000">DocNodeList</text>
</a>
</g>
</g>
<!-- Node19&#45;&gt;Node2 -->
<g id="edge20" class="edge">
<title>Node19&#45;&gt;Node2</title>
<path fill="none" stroke="#9a32cd" stroke-dasharray="5,2" d="M1241.1278,-231C1264.7589,-231 1293.4568,-231 1317.8141,-231"/>
<polygon fill="#9a32cd" stroke="#9a32cd" points="1241.0002,-227.5001 1231.0002,-231 1241.0001,-234.5001 1241.0002,-227.5001"/>
<text text-anchor="middle" x="1274.5" y="-234" font-family="Helvetica,sans-Serif" font-size="10.00" fill="#000000"> m_children</text>
</g>
<!-- Node20 -->
<g id="node20" class="node">
<title>Node20</title>
<g id="a_node20"><a xlink:href="../../d0/d08/class_grow_vector.html" target="_top" xlink:title=" ">
<polygon fill="#ffffff" stroke="#666666" points="1077,-240.5 919,-240.5 919,-221.5 1077,-221.5 1077,-240.5"/>
<text text-anchor="middle" x="998" y="-228.5" font-family="Helvetica,sans-Serif" font-size="10.00" fill="#000000">GrowVector&lt; DocNodeVariant &gt;</text>
</a>
</g>
</g>
<!-- Node20&#45;&gt;Node19 -->
<g id="edge21" class="edge">
<title>Node20&#45;&gt;Node19</title>
<path fill="none" stroke="#63b8ff" d="M1087.2267,-231C1111.7327,-231 1136.9763,-231 1156.7619,-231"/>
<polygon fill="#63b8ff" stroke="#63b8ff" points="1087.1558,-227.5001 1077.1557,-231 1087.1557,-234.5001 1087.1558,-227.5001"/>
</g>
<!-- Node21 -->
<g id="node21" class="node">
<title>Node21</title>
<g id="a_node21"><a xlink:href="../../d0/d08/class_grow_vector.html" target="_top" xlink:title="std::vector like container optimised for pushing elements to the back.">
<polygon fill="#ffffff" stroke="#666666" points="786,-224.5 694,-224.5 694,-205.5 786,-205.5 786,-224.5"/>
<text text-anchor="middle" x="740" y="-212.5" font-family="Helvetica,sans-Serif" font-size="10.00" fill="#000000">GrowVector&lt; T &gt;</text>
</a>
</g>
</g>
<!-- Node21&#45;&gt;Node20 -->
<g id="edge22" class="edge">
<title>Node21&#45;&gt;Node20</title>
<path fill="none" stroke="#ffa500" stroke-dasharray="5,2" d="M796.3708,-215.0464C827.2984,-215.4124 866.3035,-216.4291 901,-219 909.715,-219.6458 918.8491,-220.5173 927.8811,-221.4978"/>
<polygon fill="#ffa500" stroke="#ffa500" points="796.244,-211.5451 786.2099,-214.9459 796.1748,-218.5447 796.244,-211.5451"/>
<text text-anchor="middle" x="854" y="-222" font-family="Helvetica,sans-Serif" font-size="10.00" fill="#000000"> &lt; DocNodeVariant &gt;</text>
</g>
</g>
</svg>
        <g id="navigator" transform="translate(0 0)" fill="#404254">
                <rect fill="#f2f5e9" fill-opacity="0.5" stroke="#606060" stroke-width=".5" x="0" y="0" width="60" height="60"/>
                <use id="zoomplus" xlink:href="#zoomPlus" x="17" y="9" onmousedown="handleZoom(evt,'in')"/>
                <use id="zoomminus" xlink:href="#zoomMin" x="42" y="9" onmousedown="handleZoom(evt,'out')"/>
                <use id="reset" xlink:href="#resetDef" x="30" y="36" onmousedown="handleReset()"/>
                <g id="arrowUp" xlink:href="#dirArrow" transform="translate(30 24)" onmousedown="handlePan(0,-1)">
                  <use xlink:href="#rim" fill="#404040">
                        <set attributeName="fill" to="#808080" begin="arrowUp.mouseover" end="arrowUp.mouseout"/>
                  </use>
                  <path fill="none" stroke="white" stroke-width="1.5" d="M0,-3.0v7 M-2.5,-0.5L0,-3.0L2.5,-0.5"/>
                </g>
                <g id="arrowRight" xlink:href="#dirArrow" transform="rotate(90) translate(36 -43)" onmousedown="handlePan(1,0)">
                  <use xlink:href="#rim" fill="#404040">
                        <set attributeName="fill" to="#808080" begin="arrowRight.mouseover" end="arrowRight.mouseout"/>
                  </use>
                  <path fill="none" stroke="white" stroke-width="1.5" d="M0,-3.0v7 M-2.5,-0.5L0,-3.0L2.5,-0.5"/>
                </g>
                <g id="arrowDown" xlink:href="#dirArrow" transform="rotate(180) translate(-30 -48)" onmousedown="handlePan(0,1)">
                  <use xlink:href="#rim" fill="#404040">
                        <set attributeName="fill" to="#808080" begin="arrowDown.mouseover" end="arrowDown.mouseout"/>
                  </use>
                  <path fill="none" stroke="white" stroke-width="1.5" d="M0,-3.0v7 M-2.5,-0.5L0,-3.0L2.5,-0.5"/>
                </g>
                <g id="arrowLeft" xlink:href="#dirArrow" transform="rotate(270) translate(-36 17)" onmousedown="handlePan(-1,0)">
                  <use xlink:href="#rim" fill="#404040">
                        <set attributeName="fill" to="#808080" begin="arrowLeft.mouseover" end="arrowLeft.mouseout"/>
                  </use>
                  <path fill="none" stroke="white" stroke-width="1.5" d="M0,-3.0v7 M-2.5,-0.5L0,-3.0L2.5,-0.5"/>
                </g>
        </g>
        <svg viewBox="0 0 15 15" width="100%" height="30px" preserveAspectRatio="xMaxYMin meet">
         <g id="arrow_out" transform="scale(0.3 0.3)">
          <a xlink:href="class_doc_h_ref__coll__graph_org.svg" target="_base">
           <rect id="button" ry="5" rx="5" y="6" x="6" height="38" width="38"
                fill="#f2f5e9" fill-opacity="0.5" stroke="#606060" stroke-width="1.0"/>
           <path id="arrow"
             d="M 11.500037,31.436501 C 11.940474,20.09759 22.043105,11.32322 32.158766,21.979434 L 37.068811,17.246167 C 37.068811,17.246167 37.088388,32 37.088388,32 L 22.160133,31.978069 C 22.160133,31.978069 26.997745,27.140456 26.997745,27.140456 C 18.528582,18.264221 13.291696,25.230495 11.500037,31.436501 z"
             style="fill:#404040;"/>
          </a>
         </g>
        </svg>
</svg>
