<?xml version="1.0" encoding="UTF-8" standalone="no"?>
<!DOCTYPE svg PUBLIC "-//W3C//DTD SVG 1.1//EN"
 "http://www.w3.org/Graphics/SVG/1.1/DTD/svg11.dtd">
<!-- Generated by graphviz version 2.40.1 (20161225.0304)
 -->
<!-- Title: TextDocVisitor Pages: 1 -->
<svg width="156pt" height="93pt"
 viewBox="0.00 0.00 156.00 93.00" xmlns="http://www.w3.org/2000/svg" xmlns:xlink="http://www.w3.org/1999/xlink">
<g id="graph0" class="graph" transform="scale(1 1) rotate(0) translate(4 89)">
<title>TextDocVisitor</title>
<!-- Node1 -->
<g id="node1" class="node">
<title>Node1</title>
<g id="a_node1"><a xlink:title="Concrete visitor implementation for TEXT output.">
<polygon fill="#999999" stroke="#666666" points="113,-19 31,-19 31,0 113,0 113,-19"/>
<text text-anchor="middle" x="72" y="-7" font-family="Helvetica,sans-Serif" font-size="10.00" fill="#000000">TextDocVisitor</text>
</a>
</g>
</g>
<!-- Node2 -->
<g id="node2" class="node">
<title>Node2</title>
<g id="a_node2"><a xlink:href="../../d0/d78/class_doc_visitor.html" target="_top" xlink:title="Helper base class for functionality shared by all visitors.">
<polygon fill="#ffffff" stroke="#666666" points="62,-85 0,-85 0,-66 62,-66 62,-85"/>
<text text-anchor="middle" x="31" y="-73" font-family="Helvetica,sans-Serif" font-size="10.00" fill="#000000">DocVisitor</text>
</a>
</g>
</g>
<!-- Node2&#45;&gt;Node1 -->
<g id="edge1" class="edge">
<title>Node2&#45;&gt;Node1</title>
<path fill="none" stroke="#63b8ff" d="M42.3737,-57.1911C49.9982,-44.9176 59.7388,-29.2375 65.9255,-19.2785"/>
<polygon fill="#63b8ff" stroke="#63b8ff" points="39.3535,-55.4201 37.0497,-65.7615 45.2996,-59.114 39.3535,-55.4201"/>
</g>
<!-- Node3 -->
<g id="node3" class="node">
<title>Node3</title>
<g id="a_node3"><a xlink:href="../../d3/d30/class_text_stream.html" target="_top" xlink:title="Text streaming class that buffers data.">
<polygon fill="#ffffff" stroke="#666666" points="148,-85 80,-85 80,-66 148,-66 148,-85"/>
<text text-anchor="middle" x="114" y="-73" font-family="Helvetica,sans-Serif" font-size="10.00" fill="#000000">TextStream</text>
</a>
</g>
</g>
<!-- Node3&#45;&gt;Node1 -->
<g id="edge2" class="edge">
<title>Node3&#45;&gt;Node1</title>
<path fill="none" stroke="#9a32cd" stroke-dasharray="5,2" d="M102.3489,-57.1911C94.5385,-44.9176 84.5602,-29.2375 78.2227,-19.2785"/>
<polygon fill="#9a32cd" stroke="#9a32cd" points="99.4811,-59.2039 107.8028,-65.7615 105.3868,-55.4458 99.4811,-59.2039"/>
<text text-anchor="middle" x="105" y="-40" font-family="Helvetica,sans-Serif" font-size="10.00" fill="#000000"> m_t</text>
</g>
</g>
</svg>
