<?xml version="1.0" encoding="UTF-8" standalone="no"?>
<!DOCTYPE svg PUBLIC "-//W3C//DTD SVG 1.1//EN"
 "http://www.w3.org/Graphics/SVG/1.1/DTD/svg11.dtd">
<!-- Generated by graphviz version 2.40.1 (20161225.0304)
 -->
<!-- Title: TranslatorAdapter_1_8_15 Pages: 1 -->
<svg width="1998pt" height="729pt"
 viewBox="0.00 0.00 1998.00 729.00" xmlns="http://www.w3.org/2000/svg" xmlns:xlink="http://www.w3.org/1999/xlink">
<g id="graph0" class="graph" transform="scale(1 1) rotate(0) translate(4 725)">
<title>TranslatorAdapter_1_8_15</title>
<!-- Node1 -->
<g id="node1" class="node">
<title>Node1</title>
<g id="a_node1"><a xlink:title=" ">
<polygon fill="#999999" stroke="#666666" points="868,-185 737,-185 737,-166 868,-166 868,-185"/>
<text text-anchor="middle" x="802.5" y="-173" font-family="Helvetica,sans-Serif" font-size="10.00" fill="#000000">TranslatorAdapter_1_8_15</text>
</a>
</g>
</g>
<!-- Node7 -->
<g id="node7" class="node">
<title>Node7</title>
<g id="a_node7"><a xlink:href="../../de/d2f/class_translator_adapter__1__8__4.html" target="_top" xlink:title=" ">
<polygon fill="#ffffff" stroke="#666666" points="1035.5,-352 910.5,-352 910.5,-333 1035.5,-333 1035.5,-352"/>
<text text-anchor="middle" x="973" y="-340" font-family="Helvetica,sans-Serif" font-size="10.00" fill="#000000">TranslatorAdapter_1_8_4</text>
</a>
</g>
</g>
<!-- Node1&#45;&gt;Node7 -->
<g id="edge6" class="edge">
<title>Node1&#45;&gt;Node7</title>
<path fill="none" stroke="#63b8ff" d="M810.3337,-194.6537C824.3078,-226.3865 856.5854,-289.7089 904,-323.5 909.4639,-327.394 915.6929,-330.4906 922.121,-332.953"/>
<polygon fill="#63b8ff" stroke="#63b8ff" points="813.4414,-193.0185 806.3009,-185.1914 807.0019,-195.7631 813.4414,-193.0185"/>
</g>
<!-- Node34 -->
<g id="node34" class="node">
<title>Node34</title>
<g id="a_node34"><a xlink:href="../../dd/df6/class_translator_chinesetraditional.html" target="_top" xlink:title=" ">
<polygon fill="#ffffff" stroke="#666666" points="1042,-315 904,-315 904,-296 1042,-296 1042,-315"/>
<text text-anchor="middle" x="973" y="-303" font-family="Helvetica,sans-Serif" font-size="10.00" fill="#000000">TranslatorChinesetraditional</text>
</a>
</g>
</g>
<!-- Node1&#45;&gt;Node34 -->
<g id="edge33" class="edge">
<title>Node1&#45;&gt;Node34</title>
<path fill="none" stroke="#63b8ff" d="M814.1723,-193.6487C831.0204,-218.3715 864.5052,-262.3187 904,-286.5 910.358,-290.3928 917.5259,-293.5045 924.7749,-295.9875"/>
<polygon fill="#63b8ff" stroke="#63b8ff" points="817.0034,-191.5852 808.5519,-185.196 811.1744,-195.4611 817.0034,-191.5852"/>
</g>
<!-- Node35 -->
<g id="node35" class="node">
<title>Node35</title>
<g id="a_node35"><a xlink:href="../../d6/d07/class_translator_german.html" target="_top" xlink:title=" ">
<polygon fill="#ffffff" stroke="#666666" points="1020.5,-278 925.5,-278 925.5,-259 1020.5,-259 1020.5,-278"/>
<text text-anchor="middle" x="973" y="-266" font-family="Helvetica,sans-Serif" font-size="10.00" fill="#000000">TranslatorGerman</text>
</a>
</g>
</g>
<!-- Node1&#45;&gt;Node35 -->
<g id="edge34" class="edge">
<title>Node1&#45;&gt;Node35</title>
<path fill="none" stroke="#63b8ff" d="M820.6253,-191.8904C839.976,-208.5899 872.174,-234.1524 904,-249.5 911.8342,-253.2779 920.543,-256.4104 929.0625,-258.9679"/>
<polygon fill="#63b8ff" stroke="#63b8ff" points="822.7438,-189.0926 812.9216,-185.1208 818.1231,-194.3509 822.7438,-189.0926"/>
</g>
<!-- Node36 -->
<g id="node36" class="node">
<title>Node36</title>
<g id="a_node36"><a xlink:href="../../db/d5f/class_translator_hungarian.html" target="_top" xlink:title=" ">
<polygon fill="#ffffff" stroke="#666666" points="1025,-241 921,-241 921,-222 1025,-222 1025,-241"/>
<text text-anchor="middle" x="973" y="-229" font-family="Helvetica,sans-Serif" font-size="10.00" fill="#000000">TranslatorHungarian</text>
</a>
</g>
</g>
<!-- Node1&#45;&gt;Node36 -->
<g id="edge35" class="edge">
<title>Node1&#45;&gt;Node36</title>
<path fill="none" stroke="#63b8ff" d="M836.3448,-188.6153C855.9677,-196.0235 881.2262,-205.2267 904,-212.5 914.4157,-215.8265 925.824,-219.1111 936.3116,-221.9896"/>
<polygon fill="#63b8ff" stroke="#63b8ff" points="837.5117,-185.3146 826.9207,-185.0322 835.024,-191.8577 837.5117,-185.3146"/>
</g>
<!-- Node37 -->
<g id="node37" class="node">
<title>Node37</title>
<g id="a_node37"><a xlink:href="../../d2/df8/class_translator_italian.html" target="_top" xlink:title=" ">
<polygon fill="#ffffff" stroke="#666666" points="1016,-204 930,-204 930,-185 1016,-185 1016,-204"/>
<text text-anchor="middle" x="973" y="-192" font-family="Helvetica,sans-Serif" font-size="10.00" fill="#000000">TranslatorItalian</text>
</a>
</g>
</g>
<!-- Node1&#45;&gt;Node37 -->
<g id="edge36" class="edge">
<title>Node1&#45;&gt;Node37</title>
<path fill="none" stroke="#63b8ff" d="M878.6723,-183.9884C896.2261,-185.9446 914.2992,-187.9586 929.8689,-189.6936"/>
<polygon fill="#63b8ff" stroke="#63b8ff" points="878.7459,-180.475 868.4198,-182.8459 877.9706,-187.432 878.7459,-180.475"/>
</g>
<!-- Node38 -->
<g id="node38" class="node">
<title>Node38</title>
<g id="a_node38"><a xlink:href="../../d1/d6a/class_translator_japanese.html" target="_top" xlink:title=" ">
<polygon fill="#ffffff" stroke="#666666" points="1024,-167 922,-167 922,-148 1024,-148 1024,-167"/>
<text text-anchor="middle" x="973" y="-155" font-family="Helvetica,sans-Serif" font-size="10.00" fill="#000000">TranslatorJapanese</text>
</a>
</g>
</g>
<!-- Node1&#45;&gt;Node38 -->
<g id="edge37" class="edge">
<title>Node1&#45;&gt;Node38</title>
<path fill="none" stroke="#63b8ff" d="M878.4844,-167.4782C893.1388,-165.9311 908.1628,-164.345 921.7965,-162.9056"/>
<polygon fill="#63b8ff" stroke="#63b8ff" points="877.997,-164.0101 868.4198,-168.5407 878.732,-170.9714 877.997,-164.0101"/>
</g>
<!-- Node39 -->
<g id="node39" class="node">
<title>Node39</title>
<g id="a_node39"><a xlink:href="../../db/dcc/class_translator_korean.html" target="_top" xlink:title=" ">
<polygon fill="#ffffff" stroke="#666666" points="1018.5,-130 927.5,-130 927.5,-111 1018.5,-111 1018.5,-130"/>
<text text-anchor="middle" x="973" y="-118" font-family="Helvetica,sans-Serif" font-size="10.00" fill="#000000">TranslatorKorean</text>
</a>
</g>
</g>
<!-- Node1&#45;&gt;Node39 -->
<g id="edge38" class="edge">
<title>Node1&#45;&gt;Node39</title>
<path fill="none" stroke="#63b8ff" d="M836.308,-162.2681C855.9188,-154.8218 881.1775,-145.6192 904,-138.5 913.5729,-135.5139 923.9958,-132.6153 933.7723,-130.048"/>
<polygon fill="#63b8ff" stroke="#63b8ff" points="834.9785,-159.0293 826.8908,-165.8734 837.4812,-165.5666 834.9785,-159.0293"/>
</g>
<!-- Node40 -->
<g id="node40" class="node">
<title>Node40</title>
<g id="a_node40"><a xlink:href="../../da/d32/class_translator_romanian.html" target="_top" xlink:title=" ">
<polygon fill="#ffffff" stroke="#666666" points="1025,-93 921,-93 921,-74 1025,-74 1025,-93"/>
<text text-anchor="middle" x="973" y="-81" font-family="Helvetica,sans-Serif" font-size="10.00" fill="#000000">TranslatorRomanian</text>
</a>
</g>
</g>
<!-- Node1&#45;&gt;Node40 -->
<g id="edge39" class="edge">
<title>Node1&#45;&gt;Node40</title>
<path fill="none" stroke="#63b8ff" d="M820.5837,-159.0225C839.9003,-142.2519 872.0709,-116.6321 904,-101.5 911.048,-98.1598 918.8058,-95.3734 926.4973,-93.0707"/>
<polygon fill="#63b8ff" stroke="#63b8ff" points="818.0662,-156.5766 812.895,-165.8237 822.7041,-161.8197 818.0662,-156.5766"/>
</g>
<!-- Node41 -->
<g id="node41" class="node">
<title>Node41</title>
<g id="a_node41"><a xlink:href="../../d0/dab/class_translator_russian.html" target="_top" xlink:title=" ">
<polygon fill="#ffffff" stroke="#666666" points="1021,-56 925,-56 925,-37 1021,-37 1021,-56"/>
<text text-anchor="middle" x="973" y="-44" font-family="Helvetica,sans-Serif" font-size="10.00" fill="#000000">TranslatorRussian</text>
</a>
</g>
</g>
<!-- Node1&#45;&gt;Node41 -->
<g id="edge40" class="edge">
<title>Node1&#45;&gt;Node41</title>
<path fill="none" stroke="#63b8ff" d="M814.1263,-157.2756C830.9205,-132.4641 864.3426,-88.4137 904,-64.5 910.361,-60.6642 917.5306,-57.6377 924.7803,-55.2518"/>
<polygon fill="#63b8ff" stroke="#63b8ff" points="811.1133,-155.4868 808.5256,-165.7607 816.9555,-159.3429 811.1133,-155.4868"/>
</g>
<!-- Node42 -->
<g id="node42" class="node">
<title>Node42</title>
<g id="a_node42"><a xlink:href="../../d2/d53/class_translator_slovak.html" target="_top" xlink:title=" ">
<polygon fill="#ffffff" stroke="#666666" points="1018,-19 928,-19 928,0 1018,0 1018,-19"/>
<text text-anchor="middle" x="973" y="-7" font-family="Helvetica,sans-Serif" font-size="10.00" fill="#000000">TranslatorSlovak</text>
</a>
</g>
</g>
<!-- Node1&#45;&gt;Node42 -->
<g id="edge41" class="edge">
<title>Node1&#45;&gt;Node42</title>
<path fill="none" stroke="#63b8ff" d="M810.2839,-156.276C824.185,-124.44 856.358,-60.9698 904,-27.5 911.0911,-22.5183 919.4632,-18.9152 927.8857,-16.3092"/>
<polygon fill="#63b8ff" stroke="#63b8ff" points="806.9404,-155.197 806.2742,-165.7709 813.3889,-157.9203 806.9404,-155.197"/>
</g>
<!-- Node2 -->
<g id="node2" class="node">
<title>Node2</title>
<g id="a_node2"><a xlink:href="../../de/dde/class_translator_adapter__1__8__19.html" target="_top" xlink:title=" ">
<polygon fill="#ffffff" stroke="#666666" points="701,-185 570,-185 570,-166 701,-166 701,-185"/>
<text text-anchor="middle" x="635.5" y="-173" font-family="Helvetica,sans-Serif" font-size="10.00" fill="#000000">TranslatorAdapter_1_8_19</text>
</a>
</g>
</g>
<!-- Node2&#45;&gt;Node1 -->
<g id="edge1" class="edge">
<title>Node2&#45;&gt;Node1</title>
<path fill="none" stroke="#63b8ff" d="M711.0663,-175.5C719.6848,-175.5 728.4171,-175.5 736.8913,-175.5"/>
<polygon fill="#63b8ff" stroke="#63b8ff" points="711.0235,-172.0001 701.0235,-175.5 711.0235,-179.0001 711.0235,-172.0001"/>
</g>
<!-- Node3 -->
<g id="node3" class="node">
<title>Node3</title>
<g id="a_node3"><a xlink:href="../../d3/d2e/class_translator_adapter__1__9__2.html" target="_top" xlink:title=" ">
<polygon fill="#ffffff" stroke="#666666" points="534,-185 409,-185 409,-166 534,-166 534,-185"/>
<text text-anchor="middle" x="471.5" y="-173" font-family="Helvetica,sans-Serif" font-size="10.00" fill="#000000">TranslatorAdapter_1_9_2</text>
</a>
</g>
</g>
<!-- Node3&#45;&gt;Node2 -->
<g id="edge2" class="edge">
<title>Node3&#45;&gt;Node2</title>
<path fill="none" stroke="#63b8ff" d="M544.5745,-175.5C552.9557,-175.5 561.4628,-175.5 569.7399,-175.5"/>
<polygon fill="#63b8ff" stroke="#63b8ff" points="544.4377,-172.0001 534.4377,-175.5 544.4376,-179.0001 544.4377,-172.0001"/>
</g>
<!-- Node4 -->
<g id="node4" class="node">
<title>Node4</title>
<g id="a_node4"><a xlink:href="../../d0/d33/class_translator_adapter__1__9__4.html" target="_top" xlink:title=" ">
<polygon fill="#ffffff" stroke="#666666" points="373,-185 248,-185 248,-166 373,-166 373,-185"/>
<text text-anchor="middle" x="310.5" y="-173" font-family="Helvetica,sans-Serif" font-size="10.00" fill="#000000">TranslatorAdapter_1_9_4</text>
</a>
</g>
</g>
<!-- Node4&#45;&gt;Node3 -->
<g id="edge3" class="edge">
<title>Node4&#45;&gt;Node3</title>
<path fill="none" stroke="#63b8ff" d="M383.2184,-175.5C391.8129,-175.5 400.5268,-175.5 408.9633,-175.5"/>
<polygon fill="#63b8ff" stroke="#63b8ff" points="383.2078,-172.0001 373.2078,-175.5 383.2078,-179.0001 383.2078,-172.0001"/>
</g>
<!-- Node5 -->
<g id="node5" class="node">
<title>Node5</title>
<g id="a_node5"><a xlink:href="../../db/d6c/class_translator_adapter_base.html" target="_top" xlink:title="Base of the translator adapter tree.">
<polygon fill="#ffffff" stroke="#666666" points="212,-185 96,-185 96,-166 212,-166 212,-185"/>
<text text-anchor="middle" x="154" y="-173" font-family="Helvetica,sans-Serif" font-size="10.00" fill="#000000">TranslatorAdapterBase</text>
</a>
</g>
</g>
<!-- Node5&#45;&gt;Node4 -->
<g id="edge4" class="edge">
<title>Node5&#45;&gt;Node4</title>
<path fill="none" stroke="#63b8ff" d="M222.5047,-175.5C230.9767,-175.5 239.6034,-175.5 247.9794,-175.5"/>
<polygon fill="#63b8ff" stroke="#63b8ff" points="222.2749,-172.0001 212.2748,-175.5 222.2748,-179.0001 222.2749,-172.0001"/>
</g>
<!-- Node6 -->
<g id="node6" class="node">
<title>Node6</title>
<g id="a_node6"><a xlink:href="../../d8/dfb/class_translator.html" target="_top" xlink:title="Abstract base class for all translatable text fragments.">
<polygon fill="#ffffff" stroke="#666666" points="60,-185 0,-185 0,-166 60,-166 60,-185"/>
<text text-anchor="middle" x="30" y="-173" font-family="Helvetica,sans-Serif" font-size="10.00" fill="#000000">Translator</text>
</a>
</g>
</g>
<!-- Node6&#45;&gt;Node5 -->
<g id="edge5" class="edge">
<title>Node6&#45;&gt;Node5</title>
<path fill="none" stroke="#63b8ff" d="M70.2811,-175.5C78.379,-175.5 87.0427,-175.5 95.614,-175.5"/>
<polygon fill="#63b8ff" stroke="#63b8ff" points="70.017,-172.0001 60.0169,-175.5 70.0169,-179.0001 70.017,-172.0001"/>
</g>
<!-- Node8 -->
<g id="node8" class="node">
<title>Node8</title>
<g id="a_node8"><a xlink:href="../../d2/d75/class_translator_adapter__1__8__2.html" target="_top" xlink:title=" ">
<polygon fill="#ffffff" stroke="#666666" points="1203,-407 1078,-407 1078,-388 1203,-388 1203,-407"/>
<text text-anchor="middle" x="1140.5" y="-395" font-family="Helvetica,sans-Serif" font-size="10.00" fill="#000000">TranslatorAdapter_1_8_2</text>
</a>
</g>
</g>
<!-- Node7&#45;&gt;Node8 -->
<g id="edge7" class="edge">
<title>Node7&#45;&gt;Node8</title>
<path fill="none" stroke="#63b8ff" d="M1009.8041,-355.4728C1029.8999,-362.4667 1055.2552,-371.1462 1078,-378.5 1087.8198,-381.6749 1098.5557,-384.9935 1108.3156,-387.9524"/>
<polygon fill="#63b8ff" stroke="#63b8ff" points="1010.7017,-352.079 1000.1068,-352.0868 1008.394,-358.6877 1010.7017,-352.079"/>
</g>
<!-- Node31 -->
<g id="node31" class="node">
<title>Node31</title>
<g id="a_node31"><a xlink:href="../../d2/d07/class_translator_esperanto.html" target="_top" xlink:title=" ">
<polygon fill="#ffffff" stroke="#666666" points="1192.5,-370 1088.5,-370 1088.5,-351 1192.5,-351 1192.5,-370"/>
<text text-anchor="middle" x="1140.5" y="-358" font-family="Helvetica,sans-Serif" font-size="10.00" fill="#000000">TranslatorEsperanto</text>
</a>
</g>
</g>
<!-- Node7&#45;&gt;Node31 -->
<g id="edge30" class="edge">
<title>Node7&#45;&gt;Node31</title>
<path fill="none" stroke="#63b8ff" d="M1046.0854,-350.354C1060.2793,-351.8793 1074.8885,-353.4492 1088.2465,-354.8847"/>
<polygon fill="#63b8ff" stroke="#63b8ff" points="1046.1641,-346.8423 1035.8474,-349.2537 1045.4161,-353.8023 1046.1641,-346.8423"/>
</g>
<!-- Node32 -->
<g id="node32" class="node">
<title>Node32</title>
<g id="a_node32"><a xlink:href="../../d8/d83/class_translator_latvian.html" target="_top" xlink:title=" ">
<polygon fill="#ffffff" stroke="#666666" points="1186.5,-333 1094.5,-333 1094.5,-314 1186.5,-314 1186.5,-333"/>
<text text-anchor="middle" x="1140.5" y="-321" font-family="Helvetica,sans-Serif" font-size="10.00" fill="#000000">TranslatorLatvian</text>
</a>
</g>
</g>
<!-- Node7&#45;&gt;Node32 -->
<g id="edge31" class="edge">
<title>Node7&#45;&gt;Node32</title>
<path fill="none" stroke="#63b8ff" d="M1045.9699,-334.2228C1062.3808,-332.3613 1079.3532,-330.4361 1094.3099,-328.7395"/>
<polygon fill="#63b8ff" stroke="#63b8ff" points="1045.3891,-330.7662 1035.8474,-335.371 1046.1782,-337.7216 1045.3891,-330.7662"/>
</g>
<!-- Node33 -->
<g id="node33" class="node">
<title>Node33</title>
<g id="a_node33"><a xlink:href="../../d1/d56/class_translator_ukrainian.html" target="_top" xlink:title=" ">
<polygon fill="#ffffff" stroke="#666666" points="1191,-296 1090,-296 1090,-277 1191,-277 1191,-296"/>
<text text-anchor="middle" x="1140.5" y="-284" font-family="Helvetica,sans-Serif" font-size="10.00" fill="#000000">TranslatorUkrainian</text>
</a>
</g>
</g>
<!-- Node7&#45;&gt;Node33 -->
<g id="edge32" class="edge">
<title>Node7&#45;&gt;Node33</title>
<path fill="none" stroke="#63b8ff" d="M1023.2302,-330.0484C1029.6181,-328.063 1036.0112,-325.8723 1042,-323.5 1058.8201,-316.8371 1061.2192,-311.2612 1078,-304.5 1085.8552,-301.335 1094.4721,-298.4796 1102.7303,-296.024"/>
<polygon fill="#63b8ff" stroke="#63b8ff" points="1021.8535,-326.8055 1013.2552,-332.9958 1023.8371,-333.5186 1021.8535,-326.8055"/>
</g>
<!-- Node9 -->
<g id="node9" class="node">
<title>Node9</title>
<g id="a_node9"><a xlink:href="../../de/d49/class_translator_adapter__1__8__0.html" target="_top" xlink:title="Adapter class for languages that only contain translations up to version 1.8.0.">
<polygon fill="#ffffff" stroke="#666666" points="1364,-444 1239,-444 1239,-425 1364,-425 1364,-444"/>
<text text-anchor="middle" x="1301.5" y="-432" font-family="Helvetica,sans-Serif" font-size="10.00" fill="#000000">TranslatorAdapter_1_8_0</text>
</a>
</g>
</g>
<!-- Node8&#45;&gt;Node9 -->
<g id="edge8" class="edge">
<title>Node8&#45;&gt;Node9</title>
<path fill="none" stroke="#63b8ff" d="M1191.7953,-409.2884C1213.7748,-414.3396 1239.1145,-420.163 1259.8995,-424.9396"/>
<polygon fill="#63b8ff" stroke="#63b8ff" points="1192.4914,-405.8572 1181.9615,-407.0284 1190.9235,-412.6793 1192.4914,-405.8572"/>
</g>
<!-- Node29 -->
<g id="node29" class="node">
<title>Node29</title>
<g id="a_node29"><a xlink:href="../../d9/d82/class_translator_croatian.html" target="_top" xlink:title=" ">
<polygon fill="#ffffff" stroke="#666666" points="1350,-407 1253,-407 1253,-388 1350,-388 1350,-407"/>
<text text-anchor="middle" x="1301.5" y="-395" font-family="Helvetica,sans-Serif" font-size="10.00" fill="#000000">TranslatorCroatian</text>
</a>
</g>
</g>
<!-- Node8&#45;&gt;Node29 -->
<g id="edge28" class="edge">
<title>Node8&#45;&gt;Node29</title>
<path fill="none" stroke="#63b8ff" d="M1213.3743,-397.5C1226.774,-397.5 1240.4581,-397.5 1252.9234,-397.5"/>
<polygon fill="#63b8ff" stroke="#63b8ff" points="1213.2078,-394.0001 1203.2078,-397.5 1213.2078,-401.0001 1213.2078,-394.0001"/>
</g>
<!-- Node30 -->
<g id="node30" class="node">
<title>Node30</title>
<g id="a_node30"><a xlink:href="../../de/d82/class_translator_polish.html" target="_top" xlink:title=" ">
<polygon fill="#ffffff" stroke="#666666" points="1345,-370 1258,-370 1258,-351 1345,-351 1345,-370"/>
<text text-anchor="middle" x="1301.5" y="-358" font-family="Helvetica,sans-Serif" font-size="10.00" fill="#000000">TranslatorPolish</text>
</a>
</g>
</g>
<!-- Node8&#45;&gt;Node30 -->
<g id="edge29" class="edge">
<title>Node8&#45;&gt;Node30</title>
<path fill="none" stroke="#63b8ff" d="M1191.7953,-385.7116C1213.7748,-380.6604 1239.1145,-374.837 1259.8995,-370.0604"/>
<polygon fill="#63b8ff" stroke="#63b8ff" points="1190.9235,-382.3207 1181.9615,-387.9716 1192.4914,-389.1428 1190.9235,-382.3207"/>
</g>
<!-- Node10 -->
<g id="node10" class="node">
<title>Node10</title>
<g id="a_node10"><a xlink:href="../../da/d24/class_translator_adapter__1__7__5.html" target="_top" xlink:title="Adapter class for languages that only contain translations up to version 1.7.5.">
<polygon fill="#ffffff" stroke="#666666" points="1525,-518 1400,-518 1400,-499 1525,-499 1525,-518"/>
<text text-anchor="middle" x="1462.5" y="-506" font-family="Helvetica,sans-Serif" font-size="10.00" fill="#000000">TranslatorAdapter_1_7_5</text>
</a>
</g>
</g>
<!-- Node9&#45;&gt;Node10 -->
<g id="edge9" class="edge">
<title>Node9&#45;&gt;Node10</title>
<path fill="none" stroke="#63b8ff" d="M1324.8673,-449.4312C1344.3839,-461.435 1373.2385,-478.1164 1400,-489.5 1408.3489,-493.0514 1417.5832,-496.2386 1426.3343,-498.9425"/>
<polygon fill="#63b8ff" stroke="#63b8ff" points="1326.681,-446.4375 1316.3428,-444.1196 1322.9791,-452.3786 1326.681,-446.4375"/>
</g>
<!-- Node25 -->
<g id="node25" class="node">
<title>Node25</title>
<g id="a_node25"><a xlink:href="../../da/db8/class_translator_armenian.html" target="_top" xlink:title=" ">
<polygon fill="#ffffff" stroke="#666666" points="1513,-481 1412,-481 1412,-462 1513,-462 1513,-481"/>
<text text-anchor="middle" x="1462.5" y="-469" font-family="Helvetica,sans-Serif" font-size="10.00" fill="#000000">TranslatorArmenian</text>
</a>
</g>
</g>
<!-- Node9&#45;&gt;Node25 -->
<g id="edge24" class="edge">
<title>Node9&#45;&gt;Node25</title>
<path fill="none" stroke="#63b8ff" d="M1352.7953,-446.2884C1374.7748,-451.3396 1400.1145,-457.163 1420.8995,-461.9396"/>
<polygon fill="#63b8ff" stroke="#63b8ff" points="1353.4914,-442.8572 1342.9615,-444.0284 1351.9235,-449.6793 1353.4914,-442.8572"/>
</g>
<!-- Node26 -->
<g id="node26" class="node">
<title>Node26</title>
<g id="a_node26"><a xlink:href="../../d9/dc1/class_translator_catalan.html" target="_top" xlink:title=" ">
<polygon fill="#ffffff" stroke="#666666" points="1509.5,-444 1415.5,-444 1415.5,-425 1509.5,-425 1509.5,-444"/>
<text text-anchor="middle" x="1462.5" y="-432" font-family="Helvetica,sans-Serif" font-size="10.00" fill="#000000">TranslatorCatalan</text>
</a>
</g>
</g>
<!-- Node9&#45;&gt;Node26 -->
<g id="edge25" class="edge">
<title>Node9&#45;&gt;Node26</title>
<path fill="none" stroke="#63b8ff" d="M1374.2437,-434.5C1388.1346,-434.5 1402.3364,-434.5 1415.174,-434.5"/>
<polygon fill="#63b8ff" stroke="#63b8ff" points="1374.2078,-431.0001 1364.2078,-434.5 1374.2078,-438.0001 1374.2078,-431.0001"/>
</g>
<!-- Node27 -->
<g id="node27" class="node">
<title>Node27</title>
<g id="a_node27"><a xlink:href="../../d7/d21/class_translator_danish.html" target="_top" xlink:title=" ">
<polygon fill="#ffffff" stroke="#666666" points="1508,-407 1417,-407 1417,-388 1508,-388 1508,-407"/>
<text text-anchor="middle" x="1462.5" y="-395" font-family="Helvetica,sans-Serif" font-size="10.00" fill="#000000">TranslatorDanish</text>
</a>
</g>
</g>
<!-- Node9&#45;&gt;Node27 -->
<g id="edge26" class="edge">
<title>Node9&#45;&gt;Node27</title>
<path fill="none" stroke="#63b8ff" d="M1352.7953,-422.7116C1374.7748,-417.6604 1400.1145,-411.837 1420.8995,-407.0604"/>
<polygon fill="#63b8ff" stroke="#63b8ff" points="1351.9235,-419.3207 1342.9615,-424.9716 1353.4914,-426.1428 1351.9235,-419.3207"/>
</g>
<!-- Node28 -->
<g id="node28" class="node">
<title>Node28</title>
<g id="a_node28"><a xlink:href="../../df/dc8/class_translator_indonesian.html" target="_top" xlink:title=" ">
<polygon fill="#ffffff" stroke="#666666" points="1516,-370 1409,-370 1409,-351 1516,-351 1516,-370"/>
<text text-anchor="middle" x="1462.5" y="-358" font-family="Helvetica,sans-Serif" font-size="10.00" fill="#000000">TranslatorIndonesian</text>
</a>
</g>
</g>
<!-- Node9&#45;&gt;Node28 -->
<g id="edge27" class="edge">
<title>Node9&#45;&gt;Node28</title>
<path fill="none" stroke="#63b8ff" d="M1353.06,-421.1629C1356.8652,-419.4783 1360.5571,-417.5972 1364,-415.5 1383.5948,-403.5641 1380.318,-390.2914 1400,-378.5 1405.6181,-375.1342 1411.8987,-372.3696 1418.2532,-370.1065"/>
<polygon fill="#63b8ff" stroke="#63b8ff" points="1351.4623,-418.0307 1343.4448,-424.9568 1354.0315,-424.5422 1351.4623,-418.0307"/>
</g>
<!-- Node11 -->
<g id="node11" class="node">
<title>Node11</title>
<g id="a_node11"><a xlink:href="../../d3/da1/class_translator_adapter__1__6__0.html" target="_top" xlink:title="Adapter class for languages that only contain translations up to version 1.6.0.">
<polygon fill="#ffffff" stroke="#666666" points="1686,-555 1561,-555 1561,-536 1686,-536 1686,-555"/>
<text text-anchor="middle" x="1623.5" y="-543" font-family="Helvetica,sans-Serif" font-size="10.00" fill="#000000">TranslatorAdapter_1_6_0</text>
</a>
</g>
</g>
<!-- Node10&#45;&gt;Node11 -->
<g id="edge10" class="edge">
<title>Node10&#45;&gt;Node11</title>
<path fill="none" stroke="#63b8ff" d="M1513.7953,-520.2884C1535.7748,-525.3396 1561.1145,-531.163 1581.8995,-535.9396"/>
<polygon fill="#63b8ff" stroke="#63b8ff" points="1514.4914,-516.8572 1503.9615,-518.0284 1512.9235,-523.6793 1514.4914,-516.8572"/>
</g>
<!-- Node23 -->
<g id="node23" class="node">
<title>Node23</title>
<g id="a_node23"><a xlink:href="../../d5/d43/class_translator_persian.html" target="_top" xlink:title=" ">
<polygon fill="#ffffff" stroke="#666666" points="1670,-518 1577,-518 1577,-499 1670,-499 1670,-518"/>
<text text-anchor="middle" x="1623.5" y="-506" font-family="Helvetica,sans-Serif" font-size="10.00" fill="#000000">TranslatorPersian</text>
</a>
</g>
</g>
<!-- Node10&#45;&gt;Node23 -->
<g id="edge22" class="edge">
<title>Node10&#45;&gt;Node23</title>
<path fill="none" stroke="#63b8ff" d="M1535.349,-508.5C1549.3862,-508.5 1563.7365,-508.5 1576.6719,-508.5"/>
<polygon fill="#63b8ff" stroke="#63b8ff" points="1535.2078,-505.0001 1525.2078,-508.5 1535.2078,-512.0001 1535.2078,-505.0001"/>
</g>
<!-- Node24 -->
<g id="node24" class="node">
<title>Node24</title>
<g id="a_node24"><a xlink:href="../../dd/d80/class_translator_turkish.html" target="_top" xlink:title=" ">
<polygon fill="#ffffff" stroke="#666666" points="1669.5,-481 1577.5,-481 1577.5,-462 1669.5,-462 1669.5,-481"/>
<text text-anchor="middle" x="1623.5" y="-469" font-family="Helvetica,sans-Serif" font-size="10.00" fill="#000000">TranslatorTurkish</text>
</a>
</g>
</g>
<!-- Node10&#45;&gt;Node24 -->
<g id="edge23" class="edge">
<title>Node10&#45;&gt;Node24</title>
<path fill="none" stroke="#63b8ff" d="M1513.7953,-496.7116C1535.7748,-491.6604 1561.1145,-485.837 1581.8995,-481.0604"/>
<polygon fill="#63b8ff" stroke="#63b8ff" points="1512.9235,-493.3207 1503.9615,-498.9716 1514.4914,-500.1428 1512.9235,-493.3207"/>
</g>
<!-- Node12 -->
<g id="node12" class="node">
<title>Node12</title>
<g id="a_node12"><a xlink:href="../../d4/d2b/class_translator_adapter__1__4__6.html" target="_top" xlink:title="Adapter class for languages that only contain translations up to version 1.4.6.">
<polygon fill="#ffffff" stroke="#666666" points="1847,-666 1722,-666 1722,-647 1847,-647 1847,-666"/>
<text text-anchor="middle" x="1784.5" y="-654" font-family="Helvetica,sans-Serif" font-size="10.00" fill="#000000">TranslatorAdapter_1_4_6</text>
</a>
</g>
</g>
<!-- Node11&#45;&gt;Node12 -->
<g id="edge11" class="edge">
<title>Node11&#45;&gt;Node12</title>
<path fill="none" stroke="#63b8ff" d="M1637.4656,-563.0385C1655.041,-583.969 1687.1707,-618.6252 1722,-638.5 1727.8844,-641.8578 1734.4437,-644.6305 1741.0383,-646.9077"/>
<polygon fill="#63b8ff" stroke="#63b8ff" points="1640.1135,-560.748 1631.0609,-555.2434 1634.705,-565.1918 1640.1135,-560.748"/>
</g>
<!-- Node17 -->
<g id="node17" class="node">
<title>Node17</title>
<g id="a_node17"><a xlink:href="../../d3/d65/class_translator_afrikaans.html" target="_top" xlink:title=" ">
<polygon fill="#ffffff" stroke="#666666" points="1835,-629 1734,-629 1734,-610 1835,-610 1835,-629"/>
<text text-anchor="middle" x="1784.5" y="-617" font-family="Helvetica,sans-Serif" font-size="10.00" fill="#000000">TranslatorAfrikaans</text>
</a>
</g>
</g>
<!-- Node11&#45;&gt;Node17 -->
<g id="edge16" class="edge">
<title>Node11&#45;&gt;Node17</title>
<path fill="none" stroke="#63b8ff" d="M1646.8673,-560.4312C1666.3839,-572.435 1695.2385,-589.1164 1722,-600.5 1730.3489,-604.0514 1739.5832,-607.2386 1748.3343,-609.9425"/>
<polygon fill="#63b8ff" stroke="#63b8ff" points="1648.681,-557.4375 1638.3428,-555.1196 1644.9791,-563.3786 1648.681,-557.4375"/>
</g>
<!-- Node18 -->
<g id="node18" class="node">
<title>Node18</title>
<g id="a_node18"><a xlink:href="../../de/df7/class_translator_finnish.html" target="_top" xlink:title=" ">
<polygon fill="#ffffff" stroke="#666666" points="1830.5,-592 1738.5,-592 1738.5,-573 1830.5,-573 1830.5,-592"/>
<text text-anchor="middle" x="1784.5" y="-580" font-family="Helvetica,sans-Serif" font-size="10.00" fill="#000000">TranslatorFinnish</text>
</a>
</g>
</g>
<!-- Node11&#45;&gt;Node18 -->
<g id="edge17" class="edge">
<title>Node11&#45;&gt;Node18</title>
<path fill="none" stroke="#63b8ff" d="M1674.7953,-557.2884C1696.7748,-562.3396 1722.1145,-568.163 1742.8995,-572.9396"/>
<polygon fill="#63b8ff" stroke="#63b8ff" points="1675.4914,-553.8572 1664.9615,-555.0284 1673.9235,-560.6793 1675.4914,-553.8572"/>
</g>
<!-- Node19 -->
<g id="node19" class="node">
<title>Node19</title>
<g id="a_node19"><a xlink:href="../../d9/ddf/class_translator_macedonian.html" target="_top" xlink:title=" ">
<polygon fill="#ffffff" stroke="#666666" points="1841,-555 1728,-555 1728,-536 1841,-536 1841,-555"/>
<text text-anchor="middle" x="1784.5" y="-543" font-family="Helvetica,sans-Serif" font-size="10.00" fill="#000000">TranslatorMacedonian</text>
</a>
</g>
</g>
<!-- Node11&#45;&gt;Node19 -->
<g id="edge18" class="edge">
<title>Node11&#45;&gt;Node19</title>
<path fill="none" stroke="#63b8ff" d="M1696.3195,-545.5C1706.9493,-545.5 1717.7593,-545.5 1727.9992,-545.5"/>
<polygon fill="#63b8ff" stroke="#63b8ff" points="1696.2078,-542.0001 1686.2078,-545.5 1696.2078,-549.0001 1696.2078,-542.0001"/>
</g>
<!-- Node20 -->
<g id="node20" class="node">
<title>Node20</title>
<g id="a_node20"><a xlink:href="../../d5/d0a/class_translator_serbian.html" target="_top" xlink:title=" ">
<polygon fill="#ffffff" stroke="#666666" points="1831,-518 1738,-518 1738,-499 1831,-499 1831,-518"/>
<text text-anchor="middle" x="1784.5" y="-506" font-family="Helvetica,sans-Serif" font-size="10.00" fill="#000000">TranslatorSerbian</text>
</a>
</g>
</g>
<!-- Node11&#45;&gt;Node20 -->
<g id="edge19" class="edge">
<title>Node11&#45;&gt;Node20</title>
<path fill="none" stroke="#63b8ff" d="M1674.7953,-533.7116C1696.7748,-528.6604 1722.1145,-522.837 1742.8995,-518.0604"/>
<polygon fill="#63b8ff" stroke="#63b8ff" points="1673.9235,-530.3207 1664.9615,-535.9716 1675.4914,-537.1428 1673.9235,-530.3207"/>
</g>
<!-- Node21 -->
<g id="node21" class="node">
<title>Node21</title>
<g id="a_node21"><a xlink:href="../../dc/d03/class_translator_serbian_cyrillic.html" target="_top" xlink:title=" ">
<polygon fill="#ffffff" stroke="#666666" points="1846,-481 1723,-481 1723,-462 1846,-462 1846,-481"/>
<text text-anchor="middle" x="1784.5" y="-469" font-family="Helvetica,sans-Serif" font-size="10.00" fill="#000000">TranslatorSerbianCyrillic</text>
</a>
</g>
</g>
<!-- Node11&#45;&gt;Node21 -->
<g id="edge20" class="edge">
<title>Node11&#45;&gt;Node21</title>
<path fill="none" stroke="#63b8ff" d="M1675.06,-532.1629C1678.8652,-530.4783 1682.5571,-528.5972 1686,-526.5 1705.5948,-514.5641 1702.318,-501.2914 1722,-489.5 1727.6181,-486.1342 1733.8987,-483.3696 1740.2532,-481.1065"/>
<polygon fill="#63b8ff" stroke="#63b8ff" points="1673.4623,-529.0307 1665.4448,-535.9568 1676.0315,-535.5422 1673.4623,-529.0307"/>
</g>
<!-- Node22 -->
<g id="node22" class="node">
<title>Node22</title>
<g id="a_node22"><a xlink:href="../../df/d20/class_translator_vietnamese.html" target="_top" xlink:title=" ">
<polygon fill="#ffffff" stroke="#666666" points="1840.5,-444 1728.5,-444 1728.5,-425 1840.5,-425 1840.5,-444"/>
<text text-anchor="middle" x="1784.5" y="-432" font-family="Helvetica,sans-Serif" font-size="10.00" fill="#000000">TranslatorVietnamese</text>
</a>
</g>
</g>
<!-- Node11&#45;&gt;Node22 -->
<g id="edge21" class="edge">
<title>Node11&#45;&gt;Node22</title>
<path fill="none" stroke="#63b8ff" d="M1679.592,-531.1754C1681.8493,-529.7611 1683.9999,-528.2073 1686,-526.5 1713.8182,-502.7549 1694.0079,-476.0398 1722,-452.5 1726.0618,-449.0843 1730.7388,-446.316 1735.6682,-444.0726"/>
<polygon fill="#63b8ff" stroke="#63b8ff" points="1677.6812,-528.2252 1670.4485,-535.9673 1680.9306,-534.4254 1677.6812,-528.2252"/>
</g>
<!-- Node13 -->
<g id="node13" class="node">
<title>Node13</title>
<g id="a_node13"><a xlink:href="../../d3/de9/class_translator_arabic.html" target="_top" xlink:title=" ">
<polygon fill="#ffffff" stroke="#666666" points="1980.5,-721 1892.5,-721 1892.5,-702 1980.5,-702 1980.5,-721"/>
<text text-anchor="middle" x="1936.5" y="-709" font-family="Helvetica,sans-Serif" font-size="10.00" fill="#000000">TranslatorArabic</text>
</a>
</g>
</g>
<!-- Node12&#45;&gt;Node13 -->
<g id="edge12" class="edge">
<title>Node12&#45;&gt;Node13</title>
<path fill="none" stroke="#63b8ff" d="M1818.5002,-669.6044C1837.4304,-676.8165 1861.4568,-685.8323 1883,-693.5 1890.9399,-696.326 1899.5829,-699.2846 1907.5605,-701.9679"/>
<polygon fill="#63b8ff" stroke="#63b8ff" points="1819.6963,-666.3146 1809.1057,-666.014 1817.1973,-672.8534 1819.6963,-666.3146"/>
</g>
<!-- Node14 -->
<g id="node14" class="node">
<title>Node14</title>
<g id="a_node14"><a xlink:href="../../dc/d53/class_translator_lithuanian.html" target="_top" xlink:title=" ">
<polygon fill="#ffffff" stroke="#666666" points="1988.5,-684 1884.5,-684 1884.5,-665 1988.5,-665 1988.5,-684"/>
<text text-anchor="middle" x="1936.5" y="-672" font-family="Helvetica,sans-Serif" font-size="10.00" fill="#000000">TranslatorLithuanian</text>
</a>
</g>
</g>
<!-- Node12&#45;&gt;Node14 -->
<g id="edge13" class="edge">
<title>Node12&#45;&gt;Node14</title>
<path fill="none" stroke="#63b8ff" d="M1857.344,-665.1263C1866.3737,-666.1956 1875.4628,-667.2719 1884.1005,-668.2948"/>
<polygon fill="#63b8ff" stroke="#63b8ff" points="1857.544,-661.6256 1847.2018,-663.9252 1856.7208,-668.577 1857.544,-661.6256"/>
</g>
<!-- Node15 -->
<g id="node15" class="node">
<title>Node15</title>
<g id="a_node15"><a xlink:href="../../dd/d38/class_translator_norwegian.html" target="_top" xlink:title=" ">
<polygon fill="#ffffff" stroke="#666666" points="1990,-647 1883,-647 1883,-628 1990,-628 1990,-647"/>
<text text-anchor="middle" x="1936.5" y="-635" font-family="Helvetica,sans-Serif" font-size="10.00" fill="#000000">TranslatorNorwegian</text>
</a>
</g>
</g>
<!-- Node12&#45;&gt;Node15 -->
<g id="edge14" class="edge">
<title>Node12&#45;&gt;Node15</title>
<path fill="none" stroke="#63b8ff" d="M1857.2159,-647.4105C1865.7906,-646.3387 1874.4211,-645.2599 1882.6698,-644.2288"/>
<polygon fill="#63b8ff" stroke="#63b8ff" points="1856.6904,-643.9489 1847.2018,-648.6623 1857.5587,-650.8948 1856.6904,-643.9489"/>
</g>
<!-- Node16 -->
<g id="node16" class="node">
<title>Node16</title>
<g id="a_node16"><a xlink:href="../../dd/d0b/class_translator_slovene.html" target="_top" xlink:title=" ">
<polygon fill="#ffffff" stroke="#666666" points="1984,-610 1889,-610 1889,-591 1984,-591 1984,-610"/>
<text text-anchor="middle" x="1936.5" y="-598" font-family="Helvetica,sans-Serif" font-size="10.00" fill="#000000">TranslatorSlovene</text>
</a>
</g>
</g>
<!-- Node12&#45;&gt;Node16 -->
<g id="edge15" class="edge">
<title>Node12&#45;&gt;Node16</title>
<path fill="none" stroke="#63b8ff" d="M1832.8753,-643.7604C1837.6994,-642.1356 1842.4803,-640.3777 1847,-638.5 1863.9027,-631.4778 1866.2564,-625.8935 1883,-618.5 1889.9925,-615.4123 1897.6905,-612.5352 1905.0151,-610.0269"/>
<polygon fill="#63b8ff" stroke="#63b8ff" points="1831.4528,-640.5399 1822.9825,-646.9043 1833.5729,-647.2111 1831.4528,-640.5399"/>
</g>
</g>
</svg>
