<?xml version="1.0" encoding="UTF-8" standalone="no"?>
<!DOCTYPE svg PUBLIC "-//W3C//DTD SVG 1.1//EN"
 "http://www.w3.org/Graphics/SVG/1.1/DTD/svg11.dtd">
<!-- Generated by graphviz version 2.40.1 (20161225.0304)
 -->
<!-- Title: FileState Pages: 1 -->
<svg width="129pt" height="104pt"
 viewBox="0.00 0.00 129.00 104.00" xmlns="http://www.w3.org/2000/svg" xmlns:xlink="http://www.w3.org/1999/xlink">
<g id="graph0" class="graph" transform="scale(1 1) rotate(0) translate(4 100)">
<title>FileState</title>
<!-- Node1 -->
<g id="node1" class="node">
<title>Node1</title>
<g id="a_node1"><a xlink:title=" ">
<polygon fill="#999999" stroke="#666666" points="84,-19 28,-19 28,0 84,0 84,-19"/>
<text text-anchor="middle" x="56" y="-7" font-family="Helvetica,sans-Serif" font-size="10.00" fill="#000000">FileState</text>
</a>
</g>
</g>
<!-- Node2 -->
<g id="node2" class="node">
<title>Node2</title>
<g id="a_node2"><a xlink:href="../../d5/d64/class_buf_str.html" target="_top" xlink:title="Buffer used to store strings.">
<polygon fill="#ffffff" stroke="#666666" points="44,-96 0,-96 0,-77 44,-77 44,-96"/>
<text text-anchor="middle" x="22" y="-84" font-family="Helvetica,sans-Serif" font-size="10.00" fill="#000000">BufStr</text>
</a>
</g>
</g>
<!-- Node2&#45;&gt;Node1 -->
<g id="edge1" class="edge">
<title>Node2&#45;&gt;Node1</title>
<path fill="none" stroke="#9a32cd" stroke-dasharray="5,2" d="M19.7998,-66.7893C19.5725,-57.3421 20.5598,-46.1256 25,-37 28.4625,-29.8838 34.673,-23.8058 40.6306,-19.1875"/>
<polygon fill="#9a32cd" stroke="#9a32cd" points="16.3127,-67.0989 20.4903,-76.8353 23.2962,-66.6188 16.3127,-67.0989"/>
<text text-anchor="middle" x="47" y="-51" font-family="Helvetica,sans-Serif" font-size="10.00" fill="#000000"> fileBuf</text>
<text text-anchor="middle" x="47" y="-40" font-family="Helvetica,sans-Serif" font-size="10.00" fill="#000000">oldFileBuf</text>
</g>
<!-- Node3 -->
<g id="node3" class="node">
<title>Node3</title>
<g id="a_node3"><a xlink:href="../../d9/d45/class_q_c_string.html" target="_top" xlink:title="This is an alternative implementation of QCString.">
<polygon fill="#ffffff" stroke="#666666" points="119.5,-96 62.5,-96 62.5,-77 119.5,-77 119.5,-96"/>
<text text-anchor="middle" x="91" y="-84" font-family="Helvetica,sans-Serif" font-size="10.00" fill="#000000">QCString</text>
</a>
</g>
</g>
<!-- Node3&#45;&gt;Node1 -->
<g id="edge2" class="edge">
<title>Node3&#45;&gt;Node1</title>
<path fill="none" stroke="#9a32cd" stroke-dasharray="5,2" d="M82.7147,-67.5793C78.6353,-58.3354 73.6135,-47.0619 69,-37 66.2707,-31.0476 63.1354,-24.4095 60.6277,-19.1466"/>
<polygon fill="#9a32cd" stroke="#9a32cd" points="79.6193,-69.2352 86.8481,-76.9809 86.0274,-66.4179 79.6193,-69.2352"/>
<text text-anchor="middle" x="99.5" y="-45.5" font-family="Helvetica,sans-Serif" font-size="10.00" fill="#000000"> fileName</text>
</g>
</g>
</svg>
