<?xml version="1.0" encoding="UTF-8" standalone="no"?>
<!DOCTYPE svg PUBLIC "-//W3C//DTD SVG 1.1//EN"
 "http://www.w3.org/Graphics/SVG/1.1/DTD/svg11.dtd">
<!-- Generated by graphviz version 2.43.0 (0)
 -->
<!-- Title: /home/runner/work/doxygen/doxygen/src/growbuf.h Pages: 1 -->
<!--zoomable 236 -->
<svg id="main" version="1.1" xmlns="http://www.w3.org/2000/svg" xmlns:xlink="http://www.w3.org/1999/xlink" xml:space="preserve" onload="init(evt)">
<style type="text/css"><![CDATA[
.edge:hover path { stroke: red; }
.edge:hover polygon { stroke: red; fill: red; }
]]></style>
<script type="text/javascript"><![CDATA[
var edges = document.getElementsByTagName('g');
if (edges && edges.length) {
  for (var i=0;i<edges.length;i++) {
    if (edges[i].id.substr(0,4)=='edge') {
      edges[i].setAttribute('class','edge');
    }
  }
}
]]></script>
        <defs>
                <circle id="rim" cx="0" cy="0" r="7"/>
                <circle id="rim2" cx="0" cy="0" r="3.5"/>
                <g id="zoomPlus">
                        <use xlink:href="#rim" fill="#404040">
                                <set attributeName="fill" to="#808080" begin="zoomplus.mouseover" end="zoomplus.mouseout"/>
                        </use>
                        <path d="M-4,0h8M0,-4v8" fill="none" stroke="white" stroke-width="1.5" pointer-events="none"/>
                </g>
                <g id="zoomMin">
                        <use xlink:href="#rim" fill="#404040">
                                <set attributeName="fill" to="#808080" begin="zoomminus.mouseover" end="zoomminus.mouseout"/>
                        </use>
                        <path d="M-4,0h8" fill="none" stroke="white" stroke-width="1.5" pointer-events="none"/>
                </g>
                <g id="dirArrow">
                        <path fill="none" stroke="white" stroke-width="1.5" d="M0,-3.0v7 M-2.5,-0.5L0,-3.0L2.5,-0.5"/>
                </g>
               <g id="resetDef">
                       <use xlink:href="#rim2" fill="#404040">
                               <set attributeName="fill" to="#808080" begin="reset.mouseover" end="reset.mouseout"/>
                       </use>
               </g>
        </defs>

<script type="text/javascript">
var viewWidth = 4691;
var viewHeight = 236;
var sectionId = 'dynsection-1';
</script>
<script xlink:href="../../svgpan.js"/>
<svg id="graph" class="graph">
<g id="viewport">
<title>/home/runner/work/doxygen/doxygen/src/growbuf.h</title>
<!-- Node1 -->
<g id="node1" class="node">
<title>Node1</title>
<g id="a_node1"><a xlink:title=" ">
<polygon fill="#999999" stroke="#666666" points="1044,-228 890,-228 890,-198 1044,-198 1044,-228"/>
<text text-anchor="start" x="898" y="-216" font-family="Helvetica,sans-Serif" font-size="10.00">/home/runner/work/doxygen</text>
<text text-anchor="middle" x="967" y="-205" font-family="Helvetica,sans-Serif" font-size="10.00">/doxygen/src/growbuf.h</text>
</a>
</g>
</g>
<!-- Node2 -->
<g id="node2" class="node">
<title>Node2</title>
<g id="a_node2"><a xlink:href="../../d7/d14/datetime_8cpp.html" target="_top" xlink:title=" ">
<polygon fill="white" stroke="#666666" points="154,-162 0,-162 0,-132 154,-132 154,-162"/>
<text text-anchor="start" x="8" y="-150" font-family="Helvetica,sans-Serif" font-size="10.00">/home/runner/work/doxygen</text>
<text text-anchor="middle" x="77" y="-139" font-family="Helvetica,sans-Serif" font-size="10.00">/doxygen/src/datetime.cpp</text>
</a>
</g>
</g>
<!-- Node1&#45;&gt;Node2 -->
<g id="edge1" class="edge">
<title>Node1&#45;&gt;Node2</title>
<path fill="none" stroke="#63b8ff" d="M879.35,-209.4C731.33,-204.37 422.57,-191.13 163,-162 160.14,-161.68 157.24,-161.33 154.31,-160.96"/>
<polygon fill="#63b8ff" stroke="#63b8ff" points="879.62,-212.91 889.73,-209.75 879.85,-205.91 879.62,-212.91"/>
</g>
<!-- Node3 -->
<g id="node3" class="node">
<title>Node3</title>
<g id="a_node3"><a xlink:href="../../da/d0d/diagram_8cpp.html" target="_top" xlink:title=" ">
<polygon fill="white" stroke="#666666" points="326,-162 172,-162 172,-132 326,-132 326,-162"/>
<text text-anchor="start" x="180" y="-150" font-family="Helvetica,sans-Serif" font-size="10.00">/home/runner/work/doxygen</text>
<text text-anchor="middle" x="249" y="-139" font-family="Helvetica,sans-Serif" font-size="10.00">/doxygen/src/diagram.cpp</text>
</a>
</g>
</g>
<!-- Node1&#45;&gt;Node3 -->
<g id="edge2" class="edge">
<title>Node1&#45;&gt;Node3</title>
<path fill="none" stroke="#63b8ff" d="M879.9,-207.39C757.81,-200.4 528.97,-185.42 335,-162 332.15,-161.66 329.24,-161.28 326.31,-160.89"/>
<polygon fill="#63b8ff" stroke="#63b8ff" points="879.76,-210.88 889.94,-207.96 880.15,-203.9 879.76,-210.88"/>
</g>
<!-- Node4 -->
<g id="node4" class="node">
<title>Node4</title>
<g id="a_node4"><a xlink:href="../../d8/d29/docbookgen_8cpp.html" target="_top" xlink:title=" ">
<polygon fill="white" stroke="#666666" points="505.5,-162 344.5,-162 344.5,-132 505.5,-132 505.5,-162"/>
<text text-anchor="start" x="352.5" y="-150" font-family="Helvetica,sans-Serif" font-size="10.00">/home/runner/work/doxygen</text>
<text text-anchor="middle" x="425" y="-139" font-family="Helvetica,sans-Serif" font-size="10.00">/doxygen/src/docbookgen.cpp</text>
</a>
</g>
</g>
<!-- Node1&#45;&gt;Node4 -->
<g id="edge3" class="edge">
<title>Node1&#45;&gt;Node4</title>
<path fill="none" stroke="#63b8ff" d="M879.89,-203.59C788.58,-194.49 640.99,-178.99 514,-162 511.21,-161.63 508.37,-161.24 505.51,-160.83"/>
<polygon fill="#63b8ff" stroke="#63b8ff" points="879.62,-207.08 889.92,-204.58 880.32,-200.11 879.62,-207.08"/>
</g>
<!-- Node5 -->
<g id="node5" class="node">
<title>Node5</title>
<g id="a_node5"><a xlink:href="../../dc/d05/docbookvisitor_8cpp.html" target="_top" xlink:title=" ">
<polygon fill="white" stroke="#666666" points="696.5,-162 523.5,-162 523.5,-132 696.5,-132 696.5,-162"/>
<text text-anchor="start" x="531.5" y="-150" font-family="Helvetica,sans-Serif" font-size="10.00">/home/runner/work/doxygen</text>
<text text-anchor="middle" x="610" y="-139" font-family="Helvetica,sans-Serif" font-size="10.00">/doxygen/src/docbookvisitor.cpp</text>
</a>
</g>
</g>
<!-- Node1&#45;&gt;Node5 -->
<g id="edge4" class="edge">
<title>Node1&#45;&gt;Node5</title>
<path fill="none" stroke="#63b8ff" d="M879.99,-196.4C821.39,-185.9 744.76,-172.16 688.12,-162"/>
<polygon fill="#63b8ff" stroke="#63b8ff" points="879.52,-199.87 889.98,-198.19 880.75,-192.98 879.52,-199.87"/>
</g>
<!-- Node6 -->
<g id="node6" class="node">
<title>Node6</title>
<g id="a_node6"><a xlink:href="../../da/db0/htmldocvisitor_8cpp.html" target="_top" xlink:title=" ">
<polygon fill="white" stroke="#666666" points="887,-162 715,-162 715,-132 887,-132 887,-162"/>
<text text-anchor="start" x="723" y="-150" font-family="Helvetica,sans-Serif" font-size="10.00">/home/runner/work/doxygen</text>
<text text-anchor="middle" x="801" y="-139" font-family="Helvetica,sans-Serif" font-size="10.00">/doxygen/src/htmldocvisitor.cpp</text>
</a>
</g>
</g>
<!-- Node1&#45;&gt;Node6 -->
<g id="edge5" class="edge">
<title>Node1&#45;&gt;Node6</title>
<path fill="none" stroke="#63b8ff" d="M921.15,-194.32C894.73,-184.14 861.98,-171.51 837.34,-162.01"/>
<polygon fill="#63b8ff" stroke="#63b8ff" points="919.98,-197.62 930.57,-197.95 922.5,-191.09 919.98,-197.62"/>
</g>
<!-- Node7 -->
<g id="node7" class="node">
<title>Node7</title>
<g id="a_node7"><a xlink:href="../../d8/d6e/htmlgen_8cpp.html" target="_top" xlink:title=" ">
<polygon fill="white" stroke="#666666" points="1549,-96 1395,-96 1395,-66 1549,-66 1549,-96"/>
<text text-anchor="start" x="1403" y="-84" font-family="Helvetica,sans-Serif" font-size="10.00">/home/runner/work/doxygen</text>
<text text-anchor="middle" x="1472" y="-73" font-family="Helvetica,sans-Serif" font-size="10.00">/doxygen/src/htmlgen.cpp</text>
</a>
</g>
</g>
<!-- Node1&#45;&gt;Node7 -->
<g id="edge6" class="edge">
<title>Node1&#45;&gt;Node7</title>
<path fill="none" stroke="#63b8ff" d="M1031.22,-195.47C1131.45,-169.67 1323.3,-120.28 1417.32,-96.08"/>
<polygon fill="#63b8ff" stroke="#63b8ff" points="1030.34,-192.08 1021.52,-197.96 1032.08,-198.86 1030.34,-192.08"/>
</g>
<!-- Node8 -->
<g id="node8" class="node">
<title>Node8</title>
<g id="a_node8"><a xlink:href="../../de/d04/markdown_8cpp.html" target="_top" xlink:title=" ">
<polygon fill="white" stroke="#666666" points="470,-96 316,-96 316,-66 470,-66 470,-96"/>
<text text-anchor="start" x="324" y="-84" font-family="Helvetica,sans-Serif" font-size="10.00">/home/runner/work/doxygen</text>
<text text-anchor="middle" x="393" y="-73" font-family="Helvetica,sans-Serif" font-size="10.00">/doxygen/src/markdown.cpp</text>
</a>
</g>
</g>
<!-- Node1&#45;&gt;Node8 -->
<g id="edge7" class="edge">
<title>Node1&#45;&gt;Node8</title>
<path fill="none" stroke="#63b8ff" d="M953.67,-189.11C941.32,-170.24 921.1,-144.61 896,-132 812.89,-90.25 571.3,-107.48 479,-96 476.15,-95.65 473.25,-95.27 470.32,-94.87"/>
<polygon fill="#63b8ff" stroke="#63b8ff" points="950.81,-191.13 959.09,-197.74 956.74,-187.41 950.81,-191.13"/>
</g>
<!-- Node9 -->
<g id="node9" class="node">
<title>Node9</title>
<g id="a_node9"><a xlink:href="../../d2/d0c/markdown_8h.html" target="_top" xlink:title=" ">
<polygon fill="white" stroke="#666666" points="1097,-162 943,-162 943,-132 1097,-132 1097,-162"/>
<text text-anchor="start" x="951" y="-150" font-family="Helvetica,sans-Serif" font-size="10.00">/home/runner/work/doxygen</text>
<text text-anchor="middle" x="1020" y="-139" font-family="Helvetica,sans-Serif" font-size="10.00">/doxygen/src/markdown.h</text>
</a>
</g>
</g>
<!-- Node1&#45;&gt;Node9 -->
<g id="edge8" class="edge">
<title>Node1&#45;&gt;Node9</title>
<path fill="none" stroke="#63b8ff" d="M985.15,-190.09C992.8,-180.85 1001.48,-170.36 1008.27,-162.16"/>
<polygon fill="#63b8ff" stroke="#63b8ff" points="982.44,-187.86 978.76,-197.8 987.84,-192.33 982.44,-187.86"/>
</g>
<!-- Node15 -->
<g id="node15" class="node">
<title>Node15</title>
<g id="a_node15"><a xlink:href="../../d1/d86/vhdljjparser_8cpp.html" target="_top" xlink:title=" ">
<polygon fill="white" stroke="#666666" points="1204.5,-96 1045.5,-96 1045.5,-66 1204.5,-66 1204.5,-96"/>
<text text-anchor="start" x="1053.5" y="-84" font-family="Helvetica,sans-Serif" font-size="10.00">/home/runner/work/doxygen</text>
<text text-anchor="middle" x="1125" y="-73" font-family="Helvetica,sans-Serif" font-size="10.00">/doxygen/src/vhdljjparser.cpp</text>
</a>
</g>
</g>
<!-- Node1&#45;&gt;Node15 -->
<g id="edge42" class="edge">
<title>Node1&#45;&gt;Node15</title>
<path fill="none" stroke="#63b8ff" d="M1053.81,-195.5C1073.26,-188.12 1092.19,-177.45 1106,-162 1122.36,-143.69 1125.31,-113.87 1125.49,-96.27"/>
<polygon fill="#63b8ff" stroke="#63b8ff" points="1052.51,-192.25 1044.24,-198.87 1054.84,-198.85 1052.51,-192.25"/>
</g>
<!-- Node16 -->
<g id="node16" class="node">
<title>Node16</title>
<g id="a_node16"><a xlink:href="../../d7/d79/searchindex_8cpp.html" target="_top" xlink:title=" ">
<polygon fill="white" stroke="#666666" points="1728.5,-96 1567.5,-96 1567.5,-66 1728.5,-66 1728.5,-96"/>
<text text-anchor="start" x="1575.5" y="-84" font-family="Helvetica,sans-Serif" font-size="10.00">/home/runner/work/doxygen</text>
<text text-anchor="middle" x="1648" y="-73" font-family="Helvetica,sans-Serif" font-size="10.00">/doxygen/src/searchindex.cpp</text>
</a>
</g>
</g>
<!-- Node1&#45;&gt;Node16 -->
<g id="edge16" class="edge">
<title>Node1&#45;&gt;Node16</title>
<path fill="none" stroke="#63b8ff" d="M1052.33,-196.15C1104.76,-186.38 1173.28,-173.55 1234,-162 1353.92,-139.19 1493.27,-112.15 1575.85,-96.07"/>
<polygon fill="#63b8ff" stroke="#63b8ff" points="1051.59,-192.73 1042.4,-198 1052.88,-199.61 1051.59,-192.73"/>
</g>
<!-- Node17 -->
<g id="node17" class="node">
<title>Node17</title>
<g id="a_node17"><a xlink:href="../../de/d07/searchindex_8h.html" target="_top" xlink:title="Web server based search engine.">
<polygon fill="white" stroke="#666666" points="2852,-162 2698,-162 2698,-132 2852,-132 2852,-162"/>
<text text-anchor="start" x="2706" y="-150" font-family="Helvetica,sans-Serif" font-size="10.00">/home/runner/work/doxygen</text>
<text text-anchor="middle" x="2775" y="-139" font-family="Helvetica,sans-Serif" font-size="10.00">/doxygen/src/searchindex.h</text>
</a>
</g>
</g>
<!-- Node1&#45;&gt;Node17 -->
<g id="edge17" class="edge">
<title>Node1&#45;&gt;Node17</title>
<path fill="none" stroke="#63b8ff" d="M1054.37,-208.91C1363.83,-197.95 2404.92,-161.1 2697.77,-150.73"/>
<polygon fill="#63b8ff" stroke="#63b8ff" points="1053.98,-205.42 1044.11,-209.27 1054.23,-212.41 1053.98,-205.42"/>
</g>
<!-- Node32 -->
<g id="node32" class="node">
<title>Node32</title>
<g id="a_node32"><a xlink:href="../../df/d2d/util_8cpp.html" target="_top" xlink:title=" ">
<polygon fill="white" stroke="#666666" points="4683,-96 4529,-96 4529,-66 4683,-66 4683,-96"/>
<text text-anchor="start" x="4537" y="-84" font-family="Helvetica,sans-Serif" font-size="10.00">/home/runner/work/doxygen</text>
<text text-anchor="middle" x="4606" y="-73" font-family="Helvetica,sans-Serif" font-size="10.00">/doxygen/src/util.cpp</text>
</a>
</g>
</g>
<!-- Node1&#45;&gt;Node32 -->
<g id="edge41" class="edge">
<title>Node1&#45;&gt;Node32</title>
<path fill="none" stroke="#63b8ff" d="M1054.55,-210.76C1531.15,-203.75 3817.3,-166.91 4520,-96 4522.86,-95.71 4525.77,-95.39 4528.7,-95.04"/>
<polygon fill="#63b8ff" stroke="#63b8ff" points="1054.25,-207.26 1044.3,-210.91 1054.35,-214.26 1054.25,-207.26"/>
</g>
<!-- Node9&#45;&gt;Node8 -->
<g id="edge12" class="edge">
<title>Node9&#45;&gt;Node8</title>
<path fill="none" stroke="#63b8ff" d="M932.35,-132.4C931.23,-132.26 930.11,-132.13 929,-132 729.71,-108.73 678.18,-120.14 479,-96 476.15,-95.65 473.24,-95.28 470.31,-94.89"/>
<polygon fill="#63b8ff" stroke="#63b8ff" points="932.25,-135.91 942.61,-133.7 933.13,-128.97 932.25,-135.91"/>
</g>
<!-- Node10 -->
<g id="node10" class="node">
<title>Node10</title>
<g id="a_node10"><a xlink:href="../../d0/d2b/docnode_8cpp.html" target="_top" xlink:title=" ">
<polygon fill="white" stroke="#666666" points="1586,-30 1432,-30 1432,0 1586,0 1586,-30"/>
<text text-anchor="start" x="1440" y="-18" font-family="Helvetica,sans-Serif" font-size="10.00">/home/runner/work/doxygen</text>
<text text-anchor="middle" x="1509" y="-7" font-family="Helvetica,sans-Serif" font-size="10.00">/doxygen/src/docnode.cpp</text>
</a>
</g>
</g>
<!-- Node9&#45;&gt;Node10 -->
<g id="edge9" class="edge">
<title>Node9&#45;&gt;Node10</title>
<path fill="none" stroke="#63b8ff" d="M1017.86,-121.64C1017.72,-103.59 1020.85,-79.82 1036,-66 1064.62,-39.9 1305.36,-25.2 1431.92,-19.21"/>
<polygon fill="#63b8ff" stroke="#63b8ff" points="1014.36,-121.9 1018.27,-131.75 1021.36,-121.61 1014.36,-121.9"/>
</g>
<!-- Node11 -->
<g id="node11" class="node">
<title>Node11</title>
<g id="a_node11"><a xlink:href="../../dc/d98/doxygen_8cpp.html" target="_top" xlink:title=" ">
<polygon fill="white" stroke="#666666" points="1377,-96 1223,-96 1223,-66 1377,-66 1377,-96"/>
<text text-anchor="start" x="1231" y="-84" font-family="Helvetica,sans-Serif" font-size="10.00">/home/runner/work/doxygen</text>
<text text-anchor="middle" x="1300" y="-73" font-family="Helvetica,sans-Serif" font-size="10.00">/doxygen/src/doxygen.cpp</text>
</a>
</g>
</g>
<!-- Node9&#45;&gt;Node11 -->
<g id="edge10" class="edge">
<title>Node9&#45;&gt;Node11</title>
<path fill="none" stroke="#63b8ff" d="M1091.25,-129.71C1136.79,-119.31 1195.24,-105.95 1238.7,-96.01"/>
<polygon fill="#63b8ff" stroke="#63b8ff" points="1090.42,-126.31 1081.45,-131.95 1091.98,-133.14 1090.42,-126.31"/>
</g>
<!-- Node12 -->
<g id="node12" class="node">
<title>Node12</title>
<g id="a_node12"><a xlink:href="../../dd/d00/fortranscanner_8l.html" target="_top" xlink:title=" ">
<polygon fill="white" stroke="#666666" points="646,-96 488,-96 488,-66 646,-66 646,-96"/>
<text text-anchor="start" x="496" y="-84" font-family="Helvetica,sans-Serif" font-size="10.00">/home/runner/work/doxygen</text>
<text text-anchor="middle" x="567" y="-73" font-family="Helvetica,sans-Serif" font-size="10.00">/doxygen/src/fortranscanner.l</text>
</a>
</g>
</g>
<!-- Node9&#45;&gt;Node12 -->
<g id="edge11" class="edge">
<title>Node9&#45;&gt;Node12</title>
<path fill="none" stroke="#63b8ff" d="M932.34,-132.48C931.22,-132.32 930.11,-132.16 929,-132 807.41,-114.66 776.55,-113.65 655,-96 652.09,-95.58 649.13,-95.14 646.14,-94.69"/>
<polygon fill="#63b8ff" stroke="#63b8ff" points="932.17,-135.99 942.57,-133.97 933.18,-129.06 932.17,-135.99"/>
</g>
<!-- Node13 -->
<g id="node13" class="node">
<title>Node13</title>
<g id="a_node13"><a xlink:href="../../de/d2b/pyscanner_8l.html" target="_top" xlink:title=" ">
<polygon fill="white" stroke="#666666" points="818,-96 664,-96 664,-66 818,-66 818,-96"/>
<text text-anchor="start" x="672" y="-84" font-family="Helvetica,sans-Serif" font-size="10.00">/home/runner/work/doxygen</text>
<text text-anchor="middle" x="741" y="-73" font-family="Helvetica,sans-Serif" font-size="10.00">/doxygen/src/pyscanner.l</text>
</a>
</g>
</g>
<!-- Node9&#45;&gt;Node13 -->
<g id="edge13" class="edge">
<title>Node9&#45;&gt;Node13</title>
<path fill="none" stroke="#63b8ff" d="M949,-129.71C903.63,-119.31 845.39,-105.95 802.08,-96.01"/>
<polygon fill="#63b8ff" stroke="#63b8ff" points="948.24,-133.13 958.77,-131.95 949.81,-126.31 948.24,-133.13"/>
</g>
<!-- Node14 -->
<g id="node14" class="node">
<title>Node14</title>
<g id="a_node14"><a xlink:href="../../da/d11/scanner_8l.html" target="_top" xlink:title=" ">
<polygon fill="white" stroke="#666666" points="990,-96 836,-96 836,-66 990,-66 990,-96"/>
<text text-anchor="start" x="844" y="-84" font-family="Helvetica,sans-Serif" font-size="10.00">/home/runner/work/doxygen</text>
<text text-anchor="middle" x="913" y="-73" font-family="Helvetica,sans-Serif" font-size="10.00">/doxygen/src/scanner.l</text>
</a>
</g>
</g>
<!-- Node9&#45;&gt;Node14 -->
<g id="edge14" class="edge">
<title>Node9&#45;&gt;Node14</title>
<path fill="none" stroke="#63b8ff" d="M987.72,-126.69C971.21,-116.82 951.47,-105.01 936.43,-96.01"/>
<polygon fill="#63b8ff" stroke="#63b8ff" points="986.14,-129.83 996.52,-131.95 989.73,-123.82 986.14,-129.83"/>
</g>
<!-- Node9&#45;&gt;Node15 -->
<g id="edge15" class="edge">
<title>Node9&#45;&gt;Node15</title>
<path fill="none" stroke="#63b8ff" d="M1051.67,-126.69C1067.88,-116.82 1087.25,-105.01 1102.01,-96.01"/>
<polygon fill="#63b8ff" stroke="#63b8ff" points="1049.76,-123.76 1043.04,-131.95 1053.4,-129.74 1049.76,-123.76"/>
</g>
<!-- Node17&#45;&gt;Node7 -->
<g id="edge29" class="edge">
<title>Node17&#45;&gt;Node7</title>
<path fill="none" stroke="#63b8ff" d="M2687.72,-146.01C2487.48,-145.25 1979.84,-138.84 1558,-96 1555.14,-95.71 1552.23,-95.39 1549.3,-95.03"/>
<polygon fill="#63b8ff" stroke="#63b8ff" points="2687.87,-149.51 2697.88,-146.04 2687.89,-142.51 2687.87,-149.51"/>
</g>
<!-- Node17&#45;&gt;Node11 -->
<g id="edge25" class="edge">
<title>Node17&#45;&gt;Node11</title>
<path fill="none" stroke="#63b8ff" d="M2687.82,-146.65C2468.53,-147.46 1876.48,-144.56 1386,-96 1383.14,-95.72 1380.23,-95.4 1377.3,-95.05"/>
<polygon fill="#63b8ff" stroke="#63b8ff" points="2687.99,-150.15 2697.98,-146.61 2687.96,-143.15 2687.99,-150.15"/>
</g>
<!-- Node17&#45;&gt;Node15 -->
<g id="edge39" class="edge">
<title>Node17&#45;&gt;Node15</title>
<path fill="none" stroke="#63b8ff" d="M2687.47,-144.63C2402.53,-139.93 1503.32,-123.28 1214,-96 1210.89,-95.71 1207.71,-95.37 1204.51,-95.01"/>
<polygon fill="#63b8ff" stroke="#63b8ff" points="2687.69,-148.13 2697.75,-144.8 2687.8,-141.13 2687.69,-148.13"/>
</g>
<!-- Node17&#45;&gt;Node16 -->
<g id="edge34" class="edge">
<title>Node17&#45;&gt;Node16</title>
<path fill="none" stroke="#63b8ff" d="M2687.58,-144.91C2508.81,-142 2088.71,-131.63 1738,-96 1735.01,-95.7 1731.97,-95.36 1728.9,-95"/>
<polygon fill="#63b8ff" stroke="#63b8ff" points="2687.66,-148.42 2697.71,-145.07 2687.77,-141.42 2687.66,-148.42"/>
</g>
<!-- Node18 -->
<g id="node18" class="node">
<title>Node18</title>
<g id="a_node18"><a xlink:href="../../de/d89/classdef_8cpp.html" target="_top" xlink:title=" ">
<polygon fill="white" stroke="#666666" points="2421,-96 2267,-96 2267,-66 2421,-66 2421,-96"/>
<text text-anchor="start" x="2275" y="-84" font-family="Helvetica,sans-Serif" font-size="10.00">/home/runner/work/doxygen</text>
<text text-anchor="middle" x="2344" y="-73" font-family="Helvetica,sans-Serif" font-size="10.00">/doxygen/src/classdef.cpp</text>
</a>
</g>
</g>
<!-- Node17&#45;&gt;Node18 -->
<g id="edge18" class="edge">
<title>Node17&#45;&gt;Node18</title>
<path fill="none" stroke="#63b8ff" d="M2687.8,-133.79C2618.01,-123.92 2517.66,-109.49 2430,-96 2427.16,-95.56 2424.27,-95.11 2421.35,-94.66"/>
<polygon fill="#63b8ff" stroke="#63b8ff" points="2687.48,-137.28 2697.87,-135.21 2688.46,-130.35 2687.48,-137.28"/>
</g>
<!-- Node19 -->
<g id="node19" class="node">
<title>Node19</title>
<g id="a_node19"><a xlink:href="../../da/d1f/code_8l.html" target="_top" xlink:title=" ">
<polygon fill="white" stroke="#666666" points="2593,-96 2439,-96 2439,-66 2593,-66 2593,-96"/>
<text text-anchor="start" x="2447" y="-84" font-family="Helvetica,sans-Serif" font-size="10.00">/home/runner/work/doxygen</text>
<text text-anchor="middle" x="2516" y="-73" font-family="Helvetica,sans-Serif" font-size="10.00">/doxygen/src/code.l</text>
</a>
</g>
</g>
<!-- Node17&#45;&gt;Node19 -->
<g id="edge19" class="edge">
<title>Node17&#45;&gt;Node19</title>
<path fill="none" stroke="#63b8ff" d="M2708.3,-129.52C2666.29,-119.14 2612.65,-105.88 2572.71,-96.01"/>
<polygon fill="#63b8ff" stroke="#63b8ff" points="2707.61,-132.95 2718.16,-131.95 2709.29,-126.16 2707.61,-132.95"/>
</g>
<!-- Node20 -->
<g id="node20" class="node">
<title>Node20</title>
<g id="a_node20"><a xlink:href="../../d8/d0a/conceptdef_8cpp.html" target="_top" xlink:title=" ">
<polygon fill="white" stroke="#666666" points="2766.5,-96 2611.5,-96 2611.5,-66 2766.5,-66 2766.5,-96"/>
<text text-anchor="start" x="2619.5" y="-84" font-family="Helvetica,sans-Serif" font-size="10.00">/home/runner/work/doxygen</text>
<text text-anchor="middle" x="2689" y="-73" font-family="Helvetica,sans-Serif" font-size="10.00">/doxygen/src/conceptdef.cpp</text>
</a>
</g>
</g>
<!-- Node17&#45;&gt;Node20 -->
<g id="edge20" class="edge">
<title>Node17&#45;&gt;Node20</title>
<path fill="none" stroke="#63b8ff" d="M2747.79,-125.75C2734.86,-116.13 2719.71,-104.86 2708.03,-96.16"/>
<polygon fill="#63b8ff" stroke="#63b8ff" points="2745.8,-128.63 2755.91,-131.8 2749.98,-123.02 2745.8,-128.63"/>
</g>
<!-- Node21 -->
<g id="node21" class="node">
<title>Node21</title>
<g id="a_node21"><a xlink:href="../../db/d12/context_8cpp.html" target="_top" xlink:title=" ">
<polygon fill="white" stroke="#666666" points="2939,-96 2785,-96 2785,-66 2939,-66 2939,-96"/>
<text text-anchor="start" x="2793" y="-84" font-family="Helvetica,sans-Serif" font-size="10.00">/home/runner/work/doxygen</text>
<text text-anchor="middle" x="2862" y="-73" font-family="Helvetica,sans-Serif" font-size="10.00">/doxygen/src/context.cpp</text>
</a>
</g>
</g>
<!-- Node17&#45;&gt;Node21 -->
<g id="edge21" class="edge">
<title>Node17&#45;&gt;Node21</title>
<path fill="none" stroke="#63b8ff" d="M2802.52,-125.75C2815.61,-116.13 2830.93,-104.86 2842.75,-96.16"/>
<polygon fill="#63b8ff" stroke="#63b8ff" points="2800.29,-123.05 2794.31,-131.8 2804.44,-128.69 2800.29,-123.05"/>
</g>
<!-- Node22 -->
<g id="node22" class="node">
<title>Node22</title>
<g id="a_node22"><a xlink:href="../../df/dc9/docparser__p_8h.html" target="_top" xlink:title="Private header shared between docparser.cpp and docnode.cpp.">
<polygon fill="white" stroke="#666666" points="2249,-96 2095,-96 2095,-66 2249,-66 2249,-96"/>
<text text-anchor="start" x="2103" y="-84" font-family="Helvetica,sans-Serif" font-size="10.00">/home/runner/work/doxygen</text>
<text text-anchor="middle" x="2172" y="-73" font-family="Helvetica,sans-Serif" font-size="10.00">/doxygen/src/docparser_p.h</text>
</a>
</g>
</g>
<!-- Node17&#45;&gt;Node22 -->
<g id="edge22" class="edge">
<title>Node17&#45;&gt;Node22</title>
<path fill="none" stroke="#63b8ff" d="M2687.71,-139.3C2584.76,-130.99 2408.59,-115.52 2258,-96 2255.15,-95.63 2252.25,-95.24 2249.32,-94.83"/>
<polygon fill="#63b8ff" stroke="#63b8ff" points="2687.5,-142.79 2697.74,-140.1 2688.06,-135.82 2687.5,-142.79"/>
</g>
<!-- Node24 -->
<g id="node24" class="node">
<title>Node24</title>
<g id="a_node24"><a xlink:href="../../d6/ddc/filedef_8cpp.html" target="_top" xlink:title=" ">
<polygon fill="white" stroke="#666666" points="3111,-96 2957,-96 2957,-66 3111,-66 3111,-96"/>
<text text-anchor="start" x="2965" y="-84" font-family="Helvetica,sans-Serif" font-size="10.00">/home/runner/work/doxygen</text>
<text text-anchor="middle" x="3034" y="-73" font-family="Helvetica,sans-Serif" font-size="10.00">/doxygen/src/filedef.cpp</text>
</a>
</g>
</g>
<!-- Node17&#45;&gt;Node24 -->
<g id="edge26" class="edge">
<title>Node17&#45;&gt;Node24</title>
<path fill="none" stroke="#63b8ff" d="M2841.7,-129.52C2883.71,-119.14 2937.35,-105.88 2977.29,-96.01"/>
<polygon fill="#63b8ff" stroke="#63b8ff" points="2840.71,-126.16 2831.84,-131.95 2842.39,-132.95 2840.71,-126.16"/>
</g>
<!-- Node25 -->
<g id="node25" class="node">
<title>Node25</title>
<g id="a_node25"><a xlink:href="../../d9/d5b/fortrancode_8l.html" target="_top" xlink:title=" ">
<polygon fill="white" stroke="#666666" points="3283,-96 3129,-96 3129,-66 3283,-66 3283,-96"/>
<text text-anchor="start" x="3137" y="-84" font-family="Helvetica,sans-Serif" font-size="10.00">/home/runner/work/doxygen</text>
<text text-anchor="middle" x="3206" y="-73" font-family="Helvetica,sans-Serif" font-size="10.00">/doxygen/src/fortrancode.l</text>
</a>
</g>
</g>
<!-- Node17&#45;&gt;Node25 -->
<g id="edge27" class="edge">
<title>Node17&#45;&gt;Node25</title>
<path fill="none" stroke="#63b8ff" d="M2862.2,-133.79C2931.99,-123.92 3032.34,-109.49 3120,-96 3122.84,-95.56 3125.73,-95.11 3128.65,-94.66"/>
<polygon fill="#63b8ff" stroke="#63b8ff" points="2861.54,-130.35 2852.13,-135.21 2862.52,-137.28 2861.54,-130.35"/>
</g>
<!-- Node26 -->
<g id="node26" class="node">
<title>Node26</title>
<g id="a_node26"><a xlink:href="../../d6/d42/groupdef_8cpp.html" target="_top" xlink:title=" ">
<polygon fill="white" stroke="#666666" points="3455,-96 3301,-96 3301,-66 3455,-66 3455,-96"/>
<text text-anchor="start" x="3309" y="-84" font-family="Helvetica,sans-Serif" font-size="10.00">/home/runner/work/doxygen</text>
<text text-anchor="middle" x="3378" y="-73" font-family="Helvetica,sans-Serif" font-size="10.00">/doxygen/src/groupdef.cpp</text>
</a>
</g>
</g>
<!-- Node17&#45;&gt;Node26 -->
<g id="edge28" class="edge">
<title>Node17&#45;&gt;Node26</title>
<path fill="none" stroke="#63b8ff" d="M2862.29,-139.3C2965.24,-130.99 3141.41,-115.52 3292,-96 3294.85,-95.63 3297.75,-95.24 3300.68,-94.83"/>
<polygon fill="#63b8ff" stroke="#63b8ff" points="2861.94,-135.82 2852.26,-140.1 2862.5,-142.79 2861.94,-135.82"/>
</g>
<!-- Node27 -->
<g id="node27" class="node">
<title>Node27</title>
<g id="a_node27"><a xlink:href="../../d0/d7e/lexcode_8l.html" target="_top" xlink:title=" ">
<polygon fill="white" stroke="#666666" points="3627,-96 3473,-96 3473,-66 3627,-66 3627,-96"/>
<text text-anchor="start" x="3481" y="-84" font-family="Helvetica,sans-Serif" font-size="10.00">/home/runner/work/doxygen</text>
<text text-anchor="middle" x="3550" y="-73" font-family="Helvetica,sans-Serif" font-size="10.00">/doxygen/src/lexcode.l</text>
</a>
</g>
</g>
<!-- Node17&#45;&gt;Node27 -->
<g id="edge30" class="edge">
<title>Node17&#45;&gt;Node27</title>
<path fill="none" stroke="#63b8ff" d="M2862.57,-142.14C2993.66,-135.81 3248.58,-121.3 3464,-96 3466.85,-95.66 3469.76,-95.3 3472.69,-94.92"/>
<polygon fill="#63b8ff" stroke="#63b8ff" points="2862.01,-138.67 2852.19,-142.64 2862.35,-145.66 2862.01,-138.67"/>
</g>
<!-- Node28 -->
<g id="node28" class="node">
<title>Node28</title>
<g id="a_node28"><a xlink:href="../../d0/d72/memberdef_8cpp.html" target="_top" xlink:title=" ">
<polygon fill="white" stroke="#666666" points="3803,-96 3645,-96 3645,-66 3803,-66 3803,-96"/>
<text text-anchor="start" x="3653" y="-84" font-family="Helvetica,sans-Serif" font-size="10.00">/home/runner/work/doxygen</text>
<text text-anchor="middle" x="3724" y="-73" font-family="Helvetica,sans-Serif" font-size="10.00">/doxygen/src/memberdef.cpp</text>
</a>
</g>
</g>
<!-- Node17&#45;&gt;Node28 -->
<g id="edge31" class="edge">
<title>Node17&#45;&gt;Node28</title>
<path fill="none" stroke="#63b8ff" d="M2862.56,-143.8C3018.46,-139.24 3354.24,-126.52 3636,-96 3638.92,-95.68 3641.9,-95.34 3644.9,-94.97"/>
<polygon fill="#63b8ff" stroke="#63b8ff" points="2862,-140.31 2852.1,-144.1 2862.2,-147.31 2862,-140.31"/>
</g>
<!-- Node29 -->
<g id="node29" class="node">
<title>Node29</title>
<g id="a_node29"><a xlink:href="../../d7/d1c/namespacedef_8cpp.html" target="_top" xlink:title=" ">
<polygon fill="white" stroke="#666666" points="3994.5,-96 3821.5,-96 3821.5,-66 3994.5,-66 3994.5,-96"/>
<text text-anchor="start" x="3829.5" y="-84" font-family="Helvetica,sans-Serif" font-size="10.00">/home/runner/work/doxygen</text>
<text text-anchor="middle" x="3908" y="-73" font-family="Helvetica,sans-Serif" font-size="10.00">/doxygen/src/namespacedef.cpp</text>
</a>
</g>
</g>
<!-- Node17&#45;&gt;Node29 -->
<g id="edge32" class="edge">
<title>Node17&#45;&gt;Node29</title>
<path fill="none" stroke="#63b8ff" d="M2862.4,-144.63C3041.11,-141.22 3461.12,-129.96 3812,-96 3815.1,-95.7 3818.26,-95.37 3821.44,-95.02"/>
<polygon fill="#63b8ff" stroke="#63b8ff" points="2862.19,-141.14 2852.26,-144.83 2862.33,-148.14 2862.19,-141.14"/>
</g>
<!-- Node30 -->
<g id="node30" class="node">
<title>Node30</title>
<g id="a_node30"><a xlink:href="../../d3/ded/pycode_8l.html" target="_top" xlink:title=" ">
<polygon fill="white" stroke="#666666" points="4167,-96 4013,-96 4013,-66 4167,-66 4167,-96"/>
<text text-anchor="start" x="4021" y="-84" font-family="Helvetica,sans-Serif" font-size="10.00">/home/runner/work/doxygen</text>
<text text-anchor="middle" x="4090" y="-73" font-family="Helvetica,sans-Serif" font-size="10.00">/doxygen/src/pycode.l</text>
</a>
</g>
</g>
<!-- Node17&#45;&gt;Node30 -->
<g id="edge33" class="edge">
<title>Node17&#45;&gt;Node30</title>
<path fill="none" stroke="#63b8ff" d="M2862.4,-146.06C3064.1,-145.41 3577.47,-139.23 4004,-96 4006.86,-95.71 4009.77,-95.39 4012.7,-95.03"/>
<polygon fill="#63b8ff" stroke="#63b8ff" points="2862.15,-142.56 2852.16,-146.09 2862.17,-149.56 2862.15,-142.56"/>
</g>
<!-- Node31 -->
<g id="node31" class="node">
<title>Node31</title>
<g id="a_node31"><a xlink:href="../../d2/dda/sqlcode_8l.html" target="_top" xlink:title=" ">
<polygon fill="white" stroke="#666666" points="4339,-96 4185,-96 4185,-66 4339,-66 4339,-96"/>
<text text-anchor="start" x="4193" y="-84" font-family="Helvetica,sans-Serif" font-size="10.00">/home/runner/work/doxygen</text>
<text text-anchor="middle" x="4262" y="-73" font-family="Helvetica,sans-Serif" font-size="10.00">/doxygen/src/sqlcode.l</text>
</a>
</g>
</g>
<!-- Node17&#45;&gt;Node31 -->
<g id="edge35" class="edge">
<title>Node17&#45;&gt;Node31</title>
<path fill="none" stroke="#63b8ff" d="M2862.53,-146.69C3083.4,-147.6 3680.98,-144.93 4176,-96 4178.86,-95.72 4181.77,-95.4 4184.71,-95.05"/>
<polygon fill="#63b8ff" stroke="#63b8ff" points="2862.32,-143.19 2852.3,-146.64 2862.29,-150.19 2862.32,-143.19"/>
</g>
<!-- Node17&#45;&gt;Node32 -->
<g id="edge36" class="edge">
<title>Node17&#45;&gt;Node32</title>
<path fill="none" stroke="#63b8ff" d="M2862.26,-145.03C3168.45,-141.4 4192.97,-127.17 4520,-96 4522.86,-95.73 4525.77,-95.42 4528.71,-95.08"/>
<polygon fill="#63b8ff" stroke="#63b8ff" points="2862.07,-141.54 2852.11,-145.15 2862.15,-148.54 2862.07,-141.54"/>
</g>
<!-- Node33 -->
<g id="node33" class="node">
<title>Node33</title>
<g id="a_node33"><a xlink:href="../../d5/d6a/vhdlcode_8l.html" target="_top" xlink:title=" ">
<polygon fill="white" stroke="#666666" points="4511,-96 4357,-96 4357,-66 4511,-66 4511,-96"/>
<text text-anchor="start" x="4365" y="-84" font-family="Helvetica,sans-Serif" font-size="10.00">/home/runner/work/doxygen</text>
<text text-anchor="middle" x="4434" y="-73" font-family="Helvetica,sans-Serif" font-size="10.00">/doxygen/src/vhdlcode.l</text>
</a>
</g>
</g>
<!-- Node17&#45;&gt;Node33 -->
<g id="edge37" class="edge">
<title>Node17&#45;&gt;Node33</title>
<path fill="none" stroke="#63b8ff" d="M2862.72,-144.71C3149.31,-140.26 4056.36,-124.25 4348,-96 4350.86,-95.72 4353.77,-95.41 4356.71,-95.07"/>
<polygon fill="#63b8ff" stroke="#63b8ff" points="2862.32,-141.22 2852.38,-144.87 2862.43,-148.21 2862.32,-141.22"/>
</g>
<!-- Node34 -->
<g id="node34" class="node">
<title>Node34</title>
<g id="a_node34"><a xlink:href="../../de/dea/vhdldocgen_8cpp.html" target="_top" xlink:title=" ">
<polygon fill="white" stroke="#666666" points="1905,-96 1747,-96 1747,-66 1905,-66 1905,-96"/>
<text text-anchor="start" x="1755" y="-84" font-family="Helvetica,sans-Serif" font-size="10.00">/home/runner/work/doxygen</text>
<text text-anchor="middle" x="1826" y="-73" font-family="Helvetica,sans-Serif" font-size="10.00">/doxygen/src/vhdldocgen.cpp</text>
</a>
</g>
</g>
<!-- Node17&#45;&gt;Node34 -->
<g id="edge38" class="edge">
<title>Node17&#45;&gt;Node34</title>
<path fill="none" stroke="#63b8ff" d="M2687.44,-143.8C2531.54,-139.24 2195.76,-126.52 1914,-96 1911.08,-95.68 1908.1,-95.34 1905.1,-94.97"/>
<polygon fill="#63b8ff" stroke="#63b8ff" points="2687.8,-147.31 2697.9,-144.1 2688,-140.31 2687.8,-147.31"/>
</g>
<!-- Node35 -->
<g id="node35" class="node">
<title>Node35</title>
<g id="a_node35"><a xlink:href="../../dc/dc1/xmlcode_8l.html" target="_top" xlink:title=" ">
<polygon fill="white" stroke="#666666" points="2077,-96 1923,-96 1923,-66 2077,-66 2077,-96"/>
<text text-anchor="start" x="1931" y="-84" font-family="Helvetica,sans-Serif" font-size="10.00">/home/runner/work/doxygen</text>
<text text-anchor="middle" x="2000" y="-73" font-family="Helvetica,sans-Serif" font-size="10.00">/doxygen/src/xmlcode.l</text>
</a>
</g>
</g>
<!-- Node17&#45;&gt;Node35 -->
<g id="edge40" class="edge">
<title>Node17&#45;&gt;Node35</title>
<path fill="none" stroke="#63b8ff" d="M2687.43,-142.14C2556.34,-135.81 2301.42,-121.3 2086,-96 2083.15,-95.66 2080.24,-95.3 2077.31,-94.92"/>
<polygon fill="#63b8ff" stroke="#63b8ff" points="2687.65,-145.66 2697.81,-142.64 2687.99,-138.67 2687.65,-145.66"/>
</g>
<!-- Node22&#45;&gt;Node10 -->
<g id="edge23" class="edge">
<title>Node22&#45;&gt;Node10</title>
<path fill="none" stroke="#63b8ff" d="M2084.52,-65.88C1900.07,-43.23 1695.05,-28.08 1586.19,-20.84"/>
<polygon fill="#63b8ff" stroke="#63b8ff" points="2084.33,-69.38 2094.68,-67.13 2085.19,-62.43 2084.33,-69.38"/>
</g>
<!-- Node23 -->
<g id="node23" class="node">
<title>Node23</title>
<g id="a_node23"><a xlink:href="../../da/d17/docparser_8cpp.html" target="_top" xlink:title=" ">
<polygon fill="white" stroke="#666666" points="2249,-30 2095,-30 2095,0 2249,0 2249,-30"/>
<text text-anchor="start" x="2103" y="-18" font-family="Helvetica,sans-Serif" font-size="10.00">/home/runner/work/doxygen</text>
<text text-anchor="middle" x="2172" y="-7" font-family="Helvetica,sans-Serif" font-size="10.00">/doxygen/src/docparser.cpp</text>
</a>
</g>
</g>
<!-- Node22&#45;&gt;Node23 -->
<g id="edge24" class="edge">
<title>Node22&#45;&gt;Node23</title>
<path fill="none" stroke="#63b8ff" d="M2172,-55.54C2172,-46.96 2172,-37.61 2172,-30.16"/>
<polygon fill="#63b8ff" stroke="#63b8ff" points="2168.5,-55.8 2172,-65.8 2175.5,-55.8 2168.5,-55.8"/>
</g>
</g>
</svg>
        <g id="navigator" transform="translate(0 0)" fill="#404254">
                <rect fill="#f2f5e9" fill-opacity="0.5" stroke="#606060" stroke-width=".5" x="0" y="0" width="60" height="60"/>
                <use id="zoomplus" xlink:href="#zoomPlus" x="17" y="9" onmousedown="handleZoom(evt,'in')"/>
                <use id="zoomminus" xlink:href="#zoomMin" x="42" y="9" onmousedown="handleZoom(evt,'out')"/>
                <use id="reset" xlink:href="#resetDef" x="30" y="36" onmousedown="handleReset()"/>
                <g id="arrowUp" xlink:href="#dirArrow" transform="translate(30 24)" onmousedown="handlePan(0,-1)">
                  <use xlink:href="#rim" fill="#404040">
                        <set attributeName="fill" to="#808080" begin="arrowUp.mouseover" end="arrowUp.mouseout"/>
                  </use>
                  <path fill="none" stroke="white" stroke-width="1.5" d="M0,-3.0v7 M-2.5,-0.5L0,-3.0L2.5,-0.5"/>
                </g>
                <g id="arrowRight" xlink:href="#dirArrow" transform="rotate(90) translate(36 -43)" onmousedown="handlePan(1,0)">
                  <use xlink:href="#rim" fill="#404040">
                        <set attributeName="fill" to="#808080" begin="arrowRight.mouseover" end="arrowRight.mouseout"/>
                  </use>
                  <path fill="none" stroke="white" stroke-width="1.5" d="M0,-3.0v7 M-2.5,-0.5L0,-3.0L2.5,-0.5"/>
                </g>
                <g id="arrowDown" xlink:href="#dirArrow" transform="rotate(180) translate(-30 -48)" onmousedown="handlePan(0,1)">
                  <use xlink:href="#rim" fill="#404040">
                        <set attributeName="fill" to="#808080" begin="arrowDown.mouseover" end="arrowDown.mouseout"/>
                  </use>
                  <path fill="none" stroke="white" stroke-width="1.5" d="M0,-3.0v7 M-2.5,-0.5L0,-3.0L2.5,-0.5"/>
                </g>
                <g id="arrowLeft" xlink:href="#dirArrow" transform="rotate(270) translate(-36 17)" onmousedown="handlePan(-1,0)">
                  <use xlink:href="#rim" fill="#404040">
                        <set attributeName="fill" to="#808080" begin="arrowLeft.mouseover" end="arrowLeft.mouseout"/>
                  </use>
                  <path fill="none" stroke="white" stroke-width="1.5" d="M0,-3.0v7 M-2.5,-0.5L0,-3.0L2.5,-0.5"/>
                </g>
        </g>
        <svg viewBox="0 0 15 15" width="100%" height="30px" preserveAspectRatio="xMaxYMin meet">
         <g id="arrow_out" transform="scale(0.3 0.3)">
          <a xlink:href="growbuf_8h__dep__incl_org.svg" target="_base">
           <rect id="button" ry="5" rx="5" y="6" x="6" height="38" width="38"
                fill="#f2f5e9" fill-opacity="0.5" stroke="#606060" stroke-width="1.0"/>
           <path id="arrow"
             d="M 11.500037,31.436501 C 11.940474,20.09759 22.043105,11.32322 32.158766,21.979434 L 37.068811,17.246167 C 37.068811,17.246167 37.088388,32 37.088388,32 L 22.160133,31.978069 C 22.160133,31.978069 26.997745,27.140456 26.997745,27.140456 C 18.528582,18.264221 13.291696,25.230495 11.500037,31.436501 z"
             style="fill:#404040;"/>
          </a>
         </g>
        </svg>
</svg>
