<?xml version="1.0" encoding="UTF-8" standalone="no"?>
<!DOCTYPE svg PUBLIC "-//W3C//DTD SVG 1.1//EN"
 "http://www.w3.org/Graphics/SVG/1.1/DTD/svg11.dtd">
<!-- Generated by graphviz version 2.40.1 (20161225.0304)
 -->
<!-- Title: src/dir.cpp Pages: 1 -->
<svg width="222pt" height="192pt"
 viewBox="0.00 0.00 221.50 192.00" xmlns="http://www.w3.org/2000/svg" xmlns:xlink="http://www.w3.org/1999/xlink">
<g id="graph0" class="graph" transform="scale(1 1) rotate(0) translate(4 188)">
<title>src/dir.cpp</title>
<!-- Node1 -->
<g id="node1" class="node">
<title>Node1</title>
<g id="a_node1"><a xlink:title=" ">
<polygon fill="#999999" stroke="#666666" points="109,-184 47,-184 47,-165 109,-165 109,-184"/>
<text text-anchor="middle" x="78" y="-172" font-family="Helvetica,sans-Serif" font-size="10.00" fill="#000000">src/dir.cpp</text>
</a>
</g>
</g>
<!-- Node2 -->
<g id="node2" class="node">
<title>Node2</title>
<g id="a_node2"><a xlink:title=" ">
<polygon fill="#e0e0e0" stroke="#999999" points="80,-129 0,-129 0,-110 80,-110 80,-129"/>
<text text-anchor="middle" x="40" y="-117" font-family="Helvetica,sans-Serif" font-size="10.00" fill="#000000">filesystem.hpp</text>
</a>
</g>
</g>
<!-- Node1&#45;&gt;Node2 -->
<g id="edge1" class="edge">
<title>Node1&#45;&gt;Node2</title>
<path fill="none" stroke="#63b8ff" d="M71.3809,-164.9197C66.2137,-157.4409 58.8826,-146.8301 52.6056,-137.745"/>
<polygon fill="#63b8ff" stroke="#63b8ff" points="55.363,-135.5786 46.7991,-129.3408 49.6039,-139.5577 55.363,-135.5786"/>
</g>
<!-- Node3 -->
<g id="node3" class="node">
<title>Node3</title>
<g id="a_node3"><a xlink:href="../../df/d9c/dir_8h.html" target="_top" xlink:title=" ">
<polygon fill="#ffffff" stroke="#666666" points="133.5,-129 98.5,-129 98.5,-110 133.5,-110 133.5,-129"/>
<text text-anchor="middle" x="116" y="-117" font-family="Helvetica,sans-Serif" font-size="10.00" fill="#000000">dir.h</text>
</a>
</g>
</g>
<!-- Node1&#45;&gt;Node3 -->
<g id="edge2" class="edge">
<title>Node1&#45;&gt;Node3</title>
<path fill="none" stroke="#63b8ff" d="M84.6191,-164.9197C89.7863,-157.4409 97.1174,-146.8301 103.3944,-137.745"/>
<polygon fill="#63b8ff" stroke="#63b8ff" points="106.3961,-139.5577 109.2009,-129.3408 100.637,-135.5786 106.3961,-139.5577"/>
</g>
<!-- Node4 -->
<g id="node4" class="node">
<title>Node4</title>
<g id="a_node4"><a xlink:title=" ">
<polygon fill="#e0e0e0" stroke="#999999" points="144.5,-19 103.5,-19 103.5,0 144.5,0 144.5,-19"/>
<text text-anchor="middle" x="124" y="-7" font-family="Helvetica,sans-Serif" font-size="10.00" fill="#000000">string</text>
</a>
</g>
</g>
<!-- Node3&#45;&gt;Node4 -->
<g id="edge3" class="edge">
<title>Node3&#45;&gt;Node4</title>
<path fill="none" stroke="#63b8ff" d="M104.552,-109.8007C91.4845,-97.4787 72.9008,-75.3617 81,-55 85.4445,-43.8263 94.0792,-33.812 102.4519,-26.0421"/>
<polygon fill="#63b8ff" stroke="#63b8ff" points="104.9654,-28.4964 110.2538,-19.3158 100.3946,-23.1947 104.9654,-28.4964"/>
</g>
<!-- Node5 -->
<g id="node5" class="node">
<title>Node5</title>
<g id="a_node5"><a xlink:title=" ">
<polygon fill="#e0e0e0" stroke="#999999" points="142,-74 90,-74 90,-55 142,-55 142,-74"/>
<text text-anchor="middle" x="116" y="-62" font-family="Helvetica,sans-Serif" font-size="10.00" fill="#000000">memory</text>
</a>
</g>
</g>
<!-- Node3&#45;&gt;Node5 -->
<g id="edge4" class="edge">
<title>Node3&#45;&gt;Node5</title>
<path fill="none" stroke="#63b8ff" d="M116,-109.9197C116,-102.9083 116,-93.1442 116,-84.4652"/>
<polygon fill="#63b8ff" stroke="#63b8ff" points="119.5001,-84.3408 116,-74.3408 112.5001,-84.3409 119.5001,-84.3408"/>
</g>
<!-- Node6 -->
<g id="node6" class="node">
<title>Node6</title>
<g id="a_node6"><a xlink:href="../../df/d45/fileinfo_8h.html" target="_top" xlink:title=" ">
<polygon fill="#ffffff" stroke="#666666" points="213.5,-74 160.5,-74 160.5,-55 213.5,-55 213.5,-74"/>
<text text-anchor="middle" x="187" y="-62" font-family="Helvetica,sans-Serif" font-size="10.00" fill="#000000">fileinfo.h</text>
</a>
</g>
</g>
<!-- Node3&#45;&gt;Node6 -->
<g id="edge5" class="edge">
<title>Node3&#45;&gt;Node6</title>
<path fill="none" stroke="#63b8ff" d="M128.3673,-109.9197C138.8263,-101.8177 154.0303,-90.0399 166.3349,-80.5082"/>
<polygon fill="#63b8ff" stroke="#63b8ff" points="168.5343,-83.2318 174.2964,-74.3408 164.2475,-77.6979 168.5343,-83.2318"/>
</g>
<!-- Node6&#45;&gt;Node4 -->
<g id="edge6" class="edge">
<title>Node6&#45;&gt;Node4</title>
<path fill="none" stroke="#63b8ff" d="M176.0262,-54.9197C166.9242,-46.9735 153.7721,-35.4916 142.9693,-26.0605"/>
<polygon fill="#63b8ff" stroke="#63b8ff" points="145.1072,-23.2808 135.2722,-19.3408 140.5036,-28.5541 145.1072,-23.2808"/>
</g>
</g>
</svg>
