<?xml version="1.0" encoding="UTF-8" standalone="no"?>
<!DOCTYPE svg PUBLIC "-//W3C//DTD SVG 1.1//EN"
 "http://www.w3.org/Graphics/SVG/1.1/DTD/svg11.dtd">
<!-- Generated by graphviz version 2.43.0 (0)
 -->
<!-- Title: /home/runner/work/doxygen/doxygen/src/datetime.cpp Pages: 1 -->
<!--zoomable 533 -->
<svg id="main" version="1.1" xmlns="http://www.w3.org/2000/svg" xmlns:xlink="http://www.w3.org/1999/xlink" xml:space="preserve" onload="init(evt)">
<style type="text/css"><![CDATA[
.edge:hover path { stroke: red; }
.edge:hover polygon { stroke: red; fill: red; }
]]></style>
<script type="text/javascript"><![CDATA[
var edges = document.getElementsByTagName('g');
if (edges && edges.length) {
  for (var i=0;i<edges.length;i++) {
    if (edges[i].id.substr(0,4)=='edge') {
      edges[i].setAttribute('class','edge');
    }
  }
}
]]></script>
        <defs>
                <circle id="rim" cx="0" cy="0" r="7"/>
                <circle id="rim2" cx="0" cy="0" r="3.5"/>
                <g id="zoomPlus">
                        <use xlink:href="#rim" fill="#404040">
                                <set attributeName="fill" to="#808080" begin="zoomplus.mouseover" end="zoomplus.mouseout"/>
                        </use>
                        <path d="M-4,0h8M0,-4v8" fill="none" stroke="white" stroke-width="1.5" pointer-events="none"/>
                </g>
                <g id="zoomMin">
                        <use xlink:href="#rim" fill="#404040">
                                <set attributeName="fill" to="#808080" begin="zoomminus.mouseover" end="zoomminus.mouseout"/>
                        </use>
                        <path d="M-4,0h8" fill="none" stroke="white" stroke-width="1.5" pointer-events="none"/>
                </g>
                <g id="dirArrow">
                        <path fill="none" stroke="white" stroke-width="1.5" d="M0,-3.0v7 M-2.5,-0.5L0,-3.0L2.5,-0.5"/>
                </g>
               <g id="resetDef">
                       <use xlink:href="#rim2" fill="#404040">
                               <set attributeName="fill" to="#808080" begin="reset.mouseover" end="reset.mouseout"/>
                       </use>
               </g>
        </defs>

<script type="text/javascript">
var viewWidth = 1485;
var viewHeight = 533;
var sectionId = 'dynsection-0';
</script>
<script xlink:href="../../svgpan.js"/>
<svg id="graph" class="graph">
<g id="viewport">
<title>/home/runner/work/doxygen/doxygen/src/datetime.cpp</title>
<!-- Node1 -->
<g id="node1" class="node">
<title>Node1</title>
<g id="a_node1"><a xlink:title=" ">
<polygon fill="#999999" stroke="#666666" points="943.5,-525 789.5,-525 789.5,-495 943.5,-495 943.5,-525"/>
<text text-anchor="start" x="797.5" y="-513" font-family="Helvetica,sans-Serif" font-size="10.00">/home/runner/work/doxygen</text>
<text text-anchor="middle" x="866.5" y="-502" font-family="Helvetica,sans-Serif" font-size="10.00">/doxygen/src/datetime.cpp</text>
</a>
</g>
</g>
<!-- Node2 -->
<g id="node2" class="node">
<title>Node2</title>
<g id="a_node2"><a xlink:title=" ">
<polygon fill="#e0e0e0" stroke="#999999" points="49,-74 0,-74 0,-55 49,-55 49,-74"/>
<text text-anchor="middle" x="24.5" y="-62" font-family="Helvetica,sans-Serif" font-size="10.00">cstdlib</text>
</a>
</g>
</g>
<!-- Node1&#45;&gt;Node2 -->
<g id="edge1" class="edge">
<title>Node1&#45;&gt;Node2</title>
<path fill="none" stroke="#63b8ff" d="M789.38,-507.45C628.96,-503.6 264.25,-491.48 144.5,-459 83.21,-442.38 16.5,-459 16.5,-395.5 16.5,-395.5 16.5,-395.5 16.5,-173.5 16.5,-142.1 19.9,-105.71 22.27,-84.2"/>
<polygon fill="#63b8ff" stroke="#63b8ff" points="25.76,-84.5 23.42,-74.16 18.81,-83.7 25.76,-84.5"/>
</g>
<!-- Node3 -->
<g id="node3" class="node">
<title>Node3</title>
<g id="a_node3"><a xlink:title=" ">
<polygon fill="#e0e0e0" stroke="#999999" points="1333.5,-459 1283.5,-459 1283.5,-440 1333.5,-440 1333.5,-459"/>
<text text-anchor="middle" x="1308.5" y="-447" font-family="Helvetica,sans-Serif" font-size="10.00">chrono</text>
</a>
</g>
</g>
<!-- Node1&#45;&gt;Node3 -->
<g id="edge2" class="edge">
<title>Node1&#45;&gt;Node3</title>
<path fill="none" stroke="#63b8ff" d="M943.63,-502.4C1023.74,-494.9 1152.83,-481.01 1273.2,-459.03"/>
<polygon fill="#63b8ff" stroke="#63b8ff" points="1274.13,-462.42 1283.32,-457.16 1272.86,-455.54 1274.13,-462.42"/>
</g>
<!-- Node4 -->
<g id="node4" class="node">
<title>Node4</title>
<g id="a_node4"><a xlink:title=" ">
<polygon fill="#e0e0e0" stroke="#999999" points="844.5,-129 786.5,-129 786.5,-110 844.5,-110 844.5,-129"/>
<text text-anchor="middle" x="815.5" y="-117" font-family="Helvetica,sans-Serif" font-size="10.00">memory</text>
</a>
</g>
</g>
<!-- Node1&#45;&gt;Node4 -->
<g id="edge3" class="edge">
<title>Node1&#45;&gt;Node4</title>
<path fill="none" stroke="#63b8ff" d="M943.73,-507.68C1022.58,-501.73 1133.5,-478.61 1133.5,-395.5 1133.5,-395.5 1133.5,-395.5 1133.5,-228.5 1133.5,-170.22 939.58,-137.1 854.61,-125.39"/>
<polygon fill="#63b8ff" stroke="#63b8ff" points="854.94,-121.9 844.56,-124.03 854.01,-128.84 854.94,-121.9"/>
</g>
<!-- Node5 -->
<g id="node5" class="node">
<title>Node5</title>
<g id="a_node5"><a xlink:title=" ">
<polygon fill="#e0e0e0" stroke="#999999" points="1393.5,-459 1351.5,-459 1351.5,-440 1393.5,-440 1393.5,-459"/>
<text text-anchor="middle" x="1372.5" y="-447" font-family="Helvetica,sans-Serif" font-size="10.00">array</text>
</a>
</g>
</g>
<!-- Node1&#45;&gt;Node5 -->
<g id="edge4" class="edge">
<title>Node1&#45;&gt;Node5</title>
<path fill="none" stroke="#63b8ff" d="M943.77,-504.96C1036.31,-499.22 1196.01,-486.4 1341.31,-458.91"/>
<polygon fill="#63b8ff" stroke="#63b8ff" points="1342.14,-462.31 1351.3,-456.99 1340.82,-455.44 1342.14,-462.31"/>
</g>
<!-- Node6 -->
<g id="node6" class="node">
<title>Node6</title>
<g id="a_node6"><a xlink:title=" ">
<polygon fill="#e0e0e0" stroke="#999999" points="1477,-459 1412,-459 1412,-440 1477,-440 1477,-459"/>
<text text-anchor="middle" x="1444.5" y="-447" font-family="Helvetica,sans-Serif" font-size="10.00">functional</text>
</a>
</g>
</g>
<!-- Node1&#45;&gt;Node6 -->
<g id="edge5" class="edge">
<title>Node1&#45;&gt;Node6</title>
<path fill="none" stroke="#63b8ff" d="M943.59,-504.4C1045.96,-497.72 1232.53,-483.52 1401.47,-458.99"/>
<polygon fill="#63b8ff" stroke="#63b8ff" points="1402.16,-462.43 1411.54,-457.52 1401.14,-455.5 1402.16,-462.43"/>
</g>
<!-- Node7 -->
<g id="node7" class="node">
<title>Node7</title>
<g id="a_node7"><a xlink:href="../../d1/d21/regex_8h.html" target="_top" xlink:title=" ">
<polygon fill="white" stroke="#666666" points="1215,-184 1162,-184 1162,-165 1215,-165 1215,-184"/>
<text text-anchor="middle" x="1188.5" y="-172" font-family="Helvetica,sans-Serif" font-size="10.00">regex.h</text>
</a>
</g>
</g>
<!-- Node1&#45;&gt;Node7 -->
<g id="edge6" class="edge">
<title>Node1&#45;&gt;Node7</title>
<path fill="none" stroke="#63b8ff" d="M943.56,-503.77C1015.81,-497.4 1117.14,-484.2 1147.5,-459 1170.72,-439.73 1171.5,-425.67 1171.5,-395.5 1171.5,-395.5 1171.5,-395.5 1171.5,-283.5 1171.5,-251.8 1178.73,-215.51 1183.76,-194.09"/>
<polygon fill="#63b8ff" stroke="#63b8ff" points="1187.23,-194.65 1186.21,-184.11 1180.43,-192.99 1187.23,-194.65"/>
</g>
<!-- Node11 -->
<g id="node11" class="node">
<title>Node11</title>
<g id="a_node11"><a xlink:href="../../de/d1b/datetime_8h.html" target="_top" xlink:title=" ">
<polygon fill="white" stroke="#666666" points="403.5,-349 333.5,-349 333.5,-330 403.5,-330 403.5,-349"/>
<text text-anchor="middle" x="368.5" y="-337" font-family="Helvetica,sans-Serif" font-size="10.00">datetime.h</text>
</a>
</g>
</g>
<!-- Node1&#45;&gt;Node11 -->
<g id="edge11" class="edge">
<title>Node1&#45;&gt;Node11</title>
<path fill="none" stroke="#63b8ff" d="M789.33,-509.18C716.91,-506.78 606.94,-496.41 519.5,-459 489.84,-446.31 418.69,-385.05 385.76,-355.93"/>
<polygon fill="#63b8ff" stroke="#63b8ff" points="388.06,-353.29 378.26,-349.27 383.41,-358.53 388.06,-353.29"/>
</g>
<!-- Node21 -->
<g id="node21" class="node">
<title>Node21</title>
<g id="a_node21"><a xlink:href="../../db/d16/config_8h.html" target="_top" xlink:title=" ">
<polygon fill="white" stroke="#666666" points="502,-349 447,-349 447,-330 502,-330 502,-349"/>
<text text-anchor="middle" x="474.5" y="-337" font-family="Helvetica,sans-Serif" font-size="10.00">config.h</text>
</a>
</g>
</g>
<!-- Node1&#45;&gt;Node21 -->
<g id="edge25" class="edge">
<title>Node1&#45;&gt;Node21</title>
<path fill="none" stroke="#63b8ff" d="M789.45,-507.85C725.05,-504.28 632.18,-492.94 558.5,-459 524.13,-443.17 514.23,-435.66 493.5,-404 484.64,-390.46 479.78,-372.64 477.2,-359.32"/>
<polygon fill="#63b8ff" stroke="#63b8ff" points="480.64,-358.67 475.53,-349.38 473.73,-359.83 480.64,-358.67"/>
</g>
<!-- Node23 -->
<g id="node23" class="node">
<title>Node23</title>
<g id="a_node23"><a xlink:href="../../d2/de2/portable_8h.html" target="_top" xlink:title="Portable versions of functions that are platform dependent.">
<polygon fill="white" stroke="#666666" points="219.5,-459 153.5,-459 153.5,-440 219.5,-440 219.5,-459"/>
<text text-anchor="middle" x="186.5" y="-447" font-family="Helvetica,sans-Serif" font-size="10.00">portable.h</text>
</a>
</g>
</g>
<!-- Node1&#45;&gt;Node23 -->
<g id="edge27" class="edge">
<title>Node1&#45;&gt;Node23</title>
<path fill="none" stroke="#63b8ff" d="M789.49,-502.37C646.01,-490.03 342.17,-463.89 229.62,-454.21"/>
<polygon fill="#63b8ff" stroke="#63b8ff" points="229.91,-450.72 219.65,-453.35 229.31,-457.7 229.91,-450.72"/>
</g>
<!-- Node27 -->
<g id="node27" class="node">
<title>Node27</title>
<g id="a_node27"><a xlink:href="../../d8/dce/language_8h.html" target="_top" xlink:title=" ">
<polygon fill="white" stroke="#666666" points="638,-459 567,-459 567,-440 638,-440 638,-459"/>
<text text-anchor="middle" x="602.5" y="-447" font-family="Helvetica,sans-Serif" font-size="10.00">language.h</text>
</a>
</g>
</g>
<!-- Node1&#45;&gt;Node27 -->
<g id="edge32" class="edge">
<title>Node1&#45;&gt;Node27</title>
<path fill="none" stroke="#63b8ff" d="M803.27,-494.99C755.39,-484.38 690.77,-470.06 647.93,-460.57"/>
<polygon fill="#63b8ff" stroke="#63b8ff" points="648.58,-457.13 638.06,-458.38 647.07,-463.96 648.58,-457.13"/>
</g>
<!-- Node42 -->
<g id="node42" class="node">
<title>Node42</title>
<g id="a_node42"><a xlink:href="../../d2/d0d/message_8h.html" target="_top" xlink:title=" ">
<polygon fill="white" stroke="#666666" points="408.5,-459 338.5,-459 338.5,-440 408.5,-440 408.5,-459"/>
<text text-anchor="middle" x="373.5" y="-447" font-family="Helvetica,sans-Serif" font-size="10.00">message.h</text>
</a>
</g>
</g>
<!-- Node1&#45;&gt;Node42 -->
<g id="edge74" class="edge">
<title>Node1&#45;&gt;Node42</title>
<path fill="none" stroke="#63b8ff" d="M789.32,-501.72C700.61,-493.02 550.74,-477.33 422.5,-459 421.23,-458.82 419.93,-458.63 418.63,-458.43"/>
<polygon fill="#63b8ff" stroke="#63b8ff" points="418.95,-454.94 408.52,-456.84 417.86,-461.85 418.95,-454.94"/>
</g>
<!-- Node44 -->
<g id="node44" class="node">
<title>Node44</title>
<g id="a_node44"><a xlink:href="../../dd/d72/growbuf_8h.html" target="_top" xlink:title=" ">
<polygon fill="white" stroke="#666666" points="1265,-459 1200,-459 1200,-440 1265,-440 1265,-459"/>
<text text-anchor="middle" x="1232.5" y="-447" font-family="Helvetica,sans-Serif" font-size="10.00">growbuf.h</text>
</a>
</g>
</g>
<!-- Node1&#45;&gt;Node44 -->
<g id="edge77" class="edge">
<title>Node1&#45;&gt;Node44</title>
<path fill="none" stroke="#63b8ff" d="M943.61,-497.43C1008.27,-487.61 1103,-472.92 1185.5,-459 1186.96,-458.75 1188.44,-458.5 1189.93,-458.24"/>
<polygon fill="#63b8ff" stroke="#63b8ff" points="1190.66,-461.67 1199.9,-456.5 1189.45,-454.78 1190.66,-461.67"/>
</g>
<!-- Node7&#45;&gt;Node4 -->
<g id="edge7" class="edge">
<title>Node7&#45;&gt;Node4</title>
<path fill="none" stroke="#63b8ff" d="M1161.65,-167.65C1156.94,-166.7 1152.09,-165.78 1147.5,-165 1042.37,-147.08 917.48,-132 855.1,-124.88"/>
<polygon fill="#63b8ff" stroke="#63b8ff" points="855.25,-121.38 844.92,-123.73 854.46,-128.33 855.25,-121.38"/>
</g>
<!-- Node8 -->
<g id="node8" class="node">
<title>Node8</title>
<g id="a_node8"><a xlink:title=" ">
<polygon fill="#e0e0e0" stroke="#999999" points="859.5,-19 815.5,-19 815.5,0 859.5,0 859.5,-19"/>
<text text-anchor="middle" x="837.5" y="-7" font-family="Helvetica,sans-Serif" font-size="10.00">string</text>
</a>
</g>
</g>
<!-- Node7&#45;&gt;Node8 -->
<g id="edge8" class="edge">
<title>Node7&#45;&gt;Node8</title>
<path fill="none" stroke="#63b8ff" d="M1181.18,-164.89C1173.85,-156.11 1162.4,-141.97 1153.5,-129 1131.85,-97.45 1141.12,-76.55 1109.5,-55 1071,-28.76 933.68,-16.69 870.16,-12.42"/>
<polygon fill="#63b8ff" stroke="#63b8ff" points="870.12,-8.91 859.91,-11.75 869.67,-15.89 870.12,-8.91"/>
</g>
<!-- Node9 -->
<g id="node9" class="node">
<title>Node9</title>
<g id="a_node9"><a xlink:title=" ">
<polygon fill="#e0e0e0" stroke="#999999" points="768,-129 721,-129 721,-110 768,-110 768,-129"/>
<text text-anchor="middle" x="744.5" y="-117" font-family="Helvetica,sans-Serif" font-size="10.00">vector</text>
</a>
</g>
</g>
<!-- Node7&#45;&gt;Node9 -->
<g id="edge9" class="edge">
<title>Node7&#45;&gt;Node9</title>
<path fill="none" stroke="#63b8ff" d="M1161.77,-171.11C1085.82,-164.26 868.92,-144.13 778.12,-128.79"/>
<polygon fill="#63b8ff" stroke="#63b8ff" points="778.66,-125.33 768.2,-127.04 777.44,-132.23 778.66,-125.33"/>
</g>
<!-- Node10 -->
<g id="node10" class="node">
<title>Node10</title>
<g id="a_node10"><a xlink:title=" ">
<polygon fill="#e0e0e0" stroke="#999999" points="1215,-129 1162,-129 1162,-110 1215,-110 1215,-129"/>
<text text-anchor="middle" x="1188.5" y="-117" font-family="Helvetica,sans-Serif" font-size="10.00">iterator</text>
</a>
</g>
</g>
<!-- Node7&#45;&gt;Node10 -->
<g id="edge10" class="edge">
<title>Node7&#45;&gt;Node10</title>
<path fill="none" stroke="#63b8ff" d="M1188.5,-164.75C1188.5,-157.8 1188.5,-147.85 1188.5,-139.13"/>
<polygon fill="#63b8ff" stroke="#63b8ff" points="1192,-139.09 1188.5,-129.09 1185,-139.09 1192,-139.09"/>
</g>
<!-- Node12 -->
<g id="node12" class="node">
<title>Node12</title>
<g id="a_node12"><a xlink:title=" ">
<polygon fill="#e0e0e0" stroke="#999999" points="315.5,-294 271.5,-294 271.5,-275 315.5,-275 315.5,-294"/>
<text text-anchor="middle" x="293.5" y="-282" font-family="Helvetica,sans-Serif" font-size="10.00">ctime</text>
</a>
</g>
</g>
<!-- Node11&#45;&gt;Node12 -->
<g id="edge12" class="edge">
<title>Node11&#45;&gt;Node12</title>
<path fill="none" stroke="#63b8ff" d="M356.45,-329.98C345.04,-321.92 327.67,-309.65 314.07,-300.03"/>
<polygon fill="#63b8ff" stroke="#63b8ff" points="315.96,-297.08 305.77,-294.17 311.92,-302.8 315.96,-297.08"/>
</g>
<!-- Node13 -->
<g id="node13" class="node">
<title>Node13</title>
<g id="a_node13"><a xlink:href="../../d7/d5c/qcstring_8h.html" target="_top" xlink:title=" ">
<polygon fill="white" stroke="#666666" points="333,-129 268,-129 268,-110 333,-110 333,-129"/>
<text text-anchor="middle" x="300.5" y="-117" font-family="Helvetica,sans-Serif" font-size="10.00">qcstring.h</text>
</a>
</g>
</g>
<!-- Node11&#45;&gt;Node13 -->
<g id="edge13" class="edge">
<title>Node11&#45;&gt;Node13</title>
<path fill="none" stroke="#63b8ff" d="M365.57,-329.82C357.68,-306.39 335.45,-239.84 318.5,-184 313.92,-168.9 309.06,-151.68 305.55,-138.98"/>
<polygon fill="#63b8ff" stroke="#63b8ff" points="308.87,-137.87 302.85,-129.16 302.12,-139.73 308.87,-137.87"/>
</g>
<!-- Node13&#45;&gt;Node2 -->
<g id="edge19" class="edge">
<title>Node13&#45;&gt;Node2</title>
<path fill="none" stroke="#63b8ff" d="M267.76,-112.21C215.28,-102.14 112.81,-82.46 59.15,-72.15"/>
<polygon fill="#63b8ff" stroke="#63b8ff" points="59.58,-68.67 49.1,-70.22 58.26,-75.55 59.58,-68.67"/>
</g>
<!-- Node13&#45;&gt;Node8 -->
<g id="edge14" class="edge">
<title>Node13&#45;&gt;Node8</title>
<path fill="none" stroke="#63b8ff" d="M314.17,-109.81C339.28,-93.99 392.07,-61.55 412.5,-55 485.76,-31.53 719.22,-16.88 805.26,-12.17"/>
<polygon fill="#63b8ff" stroke="#63b8ff" points="805.67,-15.65 815.47,-11.62 805.29,-8.66 805.67,-15.65"/>
</g>
<!-- Node14 -->
<g id="node14" class="node">
<title>Node14</title>
<g id="a_node14"><a xlink:title=" ">
<polygon fill="#e0e0e0" stroke="#999999" points="552.5,-74 488.5,-74 488.5,-55 552.5,-55 552.5,-74"/>
<text text-anchor="middle" x="520.5" y="-62" font-family="Helvetica,sans-Serif" font-size="10.00">algorithm</text>
</a>
</g>
</g>
<!-- Node13&#45;&gt;Node14 -->
<g id="edge15" class="edge">
<title>Node13&#45;&gt;Node14</title>
<path fill="none" stroke="#63b8ff" d="M333.44,-110.57C372.08,-101.25 436.24,-85.8 478.45,-75.63"/>
<polygon fill="#63b8ff" stroke="#63b8ff" points="479.51,-78.97 488.41,-73.23 477.87,-72.17 479.51,-78.97"/>
</g>
<!-- Node15 -->
<g id="node15" class="node">
<title>Node15</title>
<g id="a_node15"><a xlink:title=" ">
<polygon fill="#e0e0e0" stroke="#999999" points="470,-74 421,-74 421,-55 470,-55 470,-74"/>
<text text-anchor="middle" x="445.5" y="-62" font-family="Helvetica,sans-Serif" font-size="10.00">cctype</text>
</a>
</g>
</g>
<!-- Node13&#45;&gt;Node15 -->
<g id="edge16" class="edge">
<title>Node13&#45;&gt;Node15</title>
<path fill="none" stroke="#63b8ff" d="M323.8,-109.98C347.75,-101.23 385.28,-87.51 412.33,-77.62"/>
<polygon fill="#63b8ff" stroke="#63b8ff" points="413.59,-80.89 421.78,-74.17 411.19,-74.32 413.59,-80.89"/>
</g>
<!-- Node16 -->
<g id="node16" class="node">
<title>Node16</title>
<g id="a_node16"><a xlink:title=" ">
<polygon fill="#e0e0e0" stroke="#999999" points="300.5,-74 250.5,-74 250.5,-55 300.5,-55 300.5,-74"/>
<text text-anchor="middle" x="275.5" y="-62" font-family="Helvetica,sans-Serif" font-size="10.00">cstring</text>
</a>
</g>
</g>
<!-- Node13&#45;&gt;Node16 -->
<g id="edge17" class="edge">
<title>Node13&#45;&gt;Node16</title>
<path fill="none" stroke="#63b8ff" d="M296.37,-109.75C292.99,-102.57 288.08,-92.18 283.88,-83.27"/>
<polygon fill="#63b8ff" stroke="#63b8ff" points="286.98,-81.64 279.55,-74.09 280.65,-84.63 286.98,-81.64"/>
</g>
<!-- Node17 -->
<g id="node17" class="node">
<title>Node17</title>
<g id="a_node17"><a xlink:title=" ">
<polygon fill="#e0e0e0" stroke="#999999" points="364.5,-74 318.5,-74 318.5,-55 364.5,-55 364.5,-74"/>
<text text-anchor="middle" x="341.5" y="-62" font-family="Helvetica,sans-Serif" font-size="10.00">cstdio</text>
</a>
</g>
</g>
<!-- Node13&#45;&gt;Node17 -->
<g id="edge18" class="edge">
<title>Node13&#45;&gt;Node17</title>
<path fill="none" stroke="#63b8ff" d="M307.27,-109.75C313.06,-102.26 321.56,-91.28 328.64,-82.13"/>
<polygon fill="#63b8ff" stroke="#63b8ff" points="331.51,-84.14 334.86,-74.09 325.97,-79.86 331.51,-84.14"/>
</g>
<!-- Node18 -->
<g id="node18" class="node">
<title>Node18</title>
<g id="a_node18"><a xlink:title=" ">
<polygon fill="#e0e0e0" stroke="#999999" points="171.5,-19 121.5,-19 121.5,0 171.5,0 171.5,-19"/>
<text text-anchor="middle" x="146.5" y="-7" font-family="Helvetica,sans-Serif" font-size="10.00">cstdint</text>
</a>
</g>
</g>
<!-- Node13&#45;&gt;Node18 -->
<g id="edge20" class="edge">
<title>Node13&#45;&gt;Node18</title>
<path fill="none" stroke="#63b8ff" d="M267.96,-116C217.2,-111.35 122.86,-99.45 102.5,-74 89.73,-58.04 107.76,-38.57 124.45,-25.43"/>
<polygon fill="#63b8ff" stroke="#63b8ff" points="126.93,-27.95 132.88,-19.19 122.76,-22.33 126.93,-27.95"/>
</g>
<!-- Node19 -->
<g id="node19" class="node">
<title>Node19</title>
<g id="a_node19"><a xlink:title=" ">
<polygon fill="#e0e0e0" stroke="#999999" points="169,-74 112,-74 112,-55 169,-55 169,-74"/>
<text text-anchor="middle" x="140.5" y="-62" font-family="Helvetica,sans-Serif" font-size="10.00">ostream</text>
</a>
</g>
</g>
<!-- Node13&#45;&gt;Node19 -->
<g id="edge21" class="edge">
<title>Node13&#45;&gt;Node19</title>
<path fill="none" stroke="#63b8ff" d="M274.79,-109.98C248.05,-101.13 205.97,-87.19 176.05,-77.28"/>
<polygon fill="#63b8ff" stroke="#63b8ff" points="177,-73.9 166.41,-74.08 174.8,-80.55 177,-73.9"/>
</g>
<!-- Node20 -->
<g id="node20" class="node">
<title>Node20</title>
<g id="a_node20"><a xlink:href="../../db/d7c/utf8_8h.html" target="_top" xlink:title="Various UTF8 related helper functions.">
<polygon fill="white" stroke="#666666" points="232,-74 187,-74 187,-55 232,-55 232,-74"/>
<text text-anchor="middle" x="209.5" y="-62" font-family="Helvetica,sans-Serif" font-size="10.00">utf8.h</text>
</a>
</g>
</g>
<!-- Node13&#45;&gt;Node20 -->
<g id="edge22" class="edge">
<title>Node13&#45;&gt;Node20</title>
<path fill="none" stroke="#63b8ff" d="M285.88,-109.98C271.64,-101.69 249.75,-88.94 233.05,-79.22"/>
<polygon fill="#63b8ff" stroke="#63b8ff" points="234.79,-76.18 224.39,-74.17 231.27,-82.23 234.79,-76.18"/>
</g>
<!-- Node20&#45;&gt;Node8 -->
<g id="edge24" class="edge">
<title>Node20&#45;&gt;Node8</title>
<path fill="none" stroke="#63b8ff" d="M232.11,-56.94C235.25,-56.19 238.44,-55.52 241.5,-55 454.61,-19.06 715.47,-12.14 805.31,-10.82"/>
<polygon fill="#63b8ff" stroke="#63b8ff" points="805.45,-14.31 815.4,-10.68 805.36,-7.31 805.45,-14.31"/>
</g>
<!-- Node20&#45;&gt;Node18 -->
<g id="edge23" class="edge">
<title>Node20&#45;&gt;Node18</title>
<path fill="none" stroke="#63b8ff" d="M199.38,-54.98C190.06,-47.15 176.03,-35.34 164.76,-25.86"/>
<polygon fill="#63b8ff" stroke="#63b8ff" points="166.71,-22.93 156.81,-19.17 162.21,-28.29 166.71,-22.93"/>
</g>
<!-- Node22 -->
<g id="node22" class="node">
<title>Node22</title>
<g id="a_node22"><a xlink:title=" ">
<polygon fill="#e0e0e0" stroke="#999999" points="459,-294 372,-294 372,-275 459,-275 459,-294"/>
<text text-anchor="middle" x="415.5" y="-282" font-family="Helvetica,sans-Serif" font-size="10.00">configvalues.h</text>
</a>
</g>
</g>
<!-- Node21&#45;&gt;Node22 -->
<g id="edge26" class="edge">
<title>Node21&#45;&gt;Node22</title>
<path fill="none" stroke="#63b8ff" d="M465.02,-329.98C456.3,-322.15 443.16,-310.34 432.6,-300.86"/>
<polygon fill="#63b8ff" stroke="#63b8ff" points="434.93,-298.25 425.15,-294.17 430.25,-303.46 434.93,-298.25"/>
</g>
<!-- Node23&#45;&gt;Node13 -->
<g id="edge31" class="edge">
<title>Node23&#45;&gt;Node13</title>
<path fill="none" stroke="#63b8ff" d="M153.38,-443.47C128.15,-437.95 94.33,-426.67 73.5,-404 53.57,-382.31 54.5,-369.96 54.5,-340.5 54.5,-340.5 54.5,-340.5 54.5,-228.5 54.5,-140.88 186.97,-123.7 257.49,-120.76"/>
<polygon fill="#63b8ff" stroke="#63b8ff" points="257.96,-124.24 267.83,-120.41 257.72,-117.25 257.96,-124.24"/>
</g>
<!-- Node24 -->
<g id="node24" class="node">
<title>Node24</title>
<g id="a_node24"><a xlink:title=" ">
<polygon fill="#e0e0e0" stroke="#999999" points="132.5,-404 82.5,-404 82.5,-385 132.5,-385 132.5,-404"/>
<text text-anchor="middle" x="107.5" y="-392" font-family="Helvetica,sans-Serif" font-size="10.00">stdio.h</text>
</a>
</g>
</g>
<!-- Node23&#45;&gt;Node24 -->
<g id="edge28" class="edge">
<title>Node23&#45;&gt;Node24</title>
<path fill="none" stroke="#63b8ff" d="M173.81,-439.98C161.67,-431.84 143.14,-419.41 128.75,-409.76"/>
<polygon fill="#63b8ff" stroke="#63b8ff" points="130.68,-406.84 120.42,-404.17 126.78,-412.65 130.68,-406.84"/>
</g>
<!-- Node25 -->
<g id="node25" class="node">
<title>Node25</title>
<g id="a_node25"><a xlink:title=" ">
<polygon fill="#e0e0e0" stroke="#999999" points="222.5,-404 150.5,-404 150.5,-385 222.5,-385 222.5,-404"/>
<text text-anchor="middle" x="186.5" y="-392" font-family="Helvetica,sans-Serif" font-size="10.00">sys/types.h</text>
</a>
</g>
</g>
<!-- Node23&#45;&gt;Node25 -->
<g id="edge29" class="edge">
<title>Node23&#45;&gt;Node25</title>
<path fill="none" stroke="#63b8ff" d="M186.5,-439.75C186.5,-432.8 186.5,-422.85 186.5,-414.13"/>
<polygon fill="#63b8ff" stroke="#63b8ff" points="190,-414.09 186.5,-404.09 183,-414.09 190,-414.09"/>
</g>
<!-- Node26 -->
<g id="node26" class="node">
<title>Node26</title>
<g id="a_node26"><a xlink:title=" ">
<polygon fill="#e0e0e0" stroke="#999999" points="294,-404 241,-404 241,-385 294,-385 294,-404"/>
<text text-anchor="middle" x="267.5" y="-392" font-family="Helvetica,sans-Serif" font-size="10.00">stdint.h</text>
</a>
</g>
</g>
<!-- Node23&#45;&gt;Node26 -->
<g id="edge30" class="edge">
<title>Node23&#45;&gt;Node26</title>
<path fill="none" stroke="#63b8ff" d="M199.51,-439.98C211.96,-431.84 230.96,-419.41 245.71,-409.76"/>
<polygon fill="#63b8ff" stroke="#63b8ff" points="247.8,-412.57 254.25,-404.17 243.96,-406.72 247.8,-412.57"/>
</g>
<!-- Node27&#45;&gt;Node22 -->
<g id="edge73" class="edge">
<title>Node27&#45;&gt;Node22</title>
<path fill="none" stroke="#63b8ff" d="M601.64,-439.97C599.99,-427.06 595.4,-402.23 583.5,-385 552.15,-339.62 492.78,-311.73 453.68,-297.43"/>
<polygon fill="#63b8ff" stroke="#63b8ff" points="454.8,-294.11 444.2,-294.09 452.47,-300.72 454.8,-294.11"/>
</g>
<!-- Node28 -->
<g id="node28" class="node">
<title>Node28</title>
<g id="a_node28"><a xlink:href="../../d9/df1/translator_8h.html" target="_top" xlink:title=" ">
<polygon fill="white" stroke="#666666" points="574.5,-404 502.5,-404 502.5,-385 574.5,-385 574.5,-404"/>
<text text-anchor="middle" x="538.5" y="-392" font-family="Helvetica,sans-Serif" font-size="10.00">translator.h</text>
</a>
</g>
</g>
<!-- Node27&#45;&gt;Node28 -->
<g id="edge33" class="edge">
<title>Node27&#45;&gt;Node28</title>
<path fill="none" stroke="#63b8ff" d="M592.22,-439.98C582.66,-432.07 568.22,-420.11 556.72,-410.58"/>
<polygon fill="#63b8ff" stroke="#63b8ff" points="558.9,-407.85 548.97,-404.17 554.44,-413.24 558.9,-407.85"/>
</g>
<!-- Node28&#45;&gt;Node11 -->
<g id="edge72" class="edge">
<title>Node28&#45;&gt;Node11</title>
<path fill="none" stroke="#63b8ff" d="M511.19,-384.98C482.65,-376.09 437.67,-362.07 405.86,-352.15"/>
<polygon fill="#63b8ff" stroke="#63b8ff" points="406.62,-348.72 396.03,-349.08 404.53,-355.4 406.62,-348.72"/>
</g>
<!-- Node28&#45;&gt;Node21 -->
<g id="edge71" class="edge">
<title>Node28&#45;&gt;Node21</title>
<path fill="none" stroke="#63b8ff" d="M528.22,-384.98C518.66,-377.07 504.22,-365.11 492.72,-355.58"/>
<polygon fill="#63b8ff" stroke="#63b8ff" points="494.9,-352.85 484.97,-349.17 490.44,-358.24 494.9,-352.85"/>
</g>
<!-- Node29 -->
<g id="node29" class="node">
<title>Node29</title>
<g id="a_node29"><a xlink:href="../../d1/da6/classdef_8h.html" target="_top" xlink:title=" ">
<polygon fill="white" stroke="#666666" points="696,-349 631,-349 631,-330 696,-330 696,-349"/>
<text text-anchor="middle" x="663.5" y="-337" font-family="Helvetica,sans-Serif" font-size="10.00">classdef.h</text>
</a>
</g>
</g>
<!-- Node28&#45;&gt;Node29 -->
<g id="edge34" class="edge">
<title>Node28&#45;&gt;Node29</title>
<path fill="none" stroke="#63b8ff" d="M558.58,-384.98C578.87,-376.38 610.46,-362.99 633.67,-353.15"/>
<polygon fill="#63b8ff" stroke="#63b8ff" points="635.21,-356.3 643.05,-349.17 632.48,-349.85 635.21,-356.3"/>
</g>
<!-- Node29&#45;&gt;Node9 -->
<g id="edge35" class="edge">
<title>Node29&#45;&gt;Node9</title>
<path fill="none" stroke="#63b8ff" d="M696.19,-335.04C779.85,-325.43 997.99,-295.32 1038.5,-239 1043.43,-232.15 1043.42,-226.86 1038.5,-220 1022.79,-198.1 852.03,-149.65 778.2,-129.53"/>
<polygon fill="#63b8ff" stroke="#63b8ff" points="779.02,-126.13 768.45,-126.89 777.18,-132.88 779.02,-126.13"/>
</g>
<!-- Node30 -->
<g id="node30" class="node">
<title>Node30</title>
<g id="a_node30"><a xlink:title=" ">
<polygon fill="#e0e0e0" stroke="#999999" points="749.5,-239 717.5,-239 717.5,-220 749.5,-220 749.5,-239"/>
<text text-anchor="middle" x="733.5" y="-227" font-family="Helvetica,sans-Serif" font-size="10.00">set</text>
</a>
</g>
</g>
<!-- Node29&#45;&gt;Node30 -->
<g id="edge36" class="edge">
<title>Node29&#45;&gt;Node30</title>
<path fill="none" stroke="#63b8ff" d="M676.48,-329.69C687.49,-321.59 702.98,-308.64 712.5,-294 721.4,-280.31 726.86,-262.5 729.97,-249.23"/>
<polygon fill="#63b8ff" stroke="#63b8ff" points="733.42,-249.84 732.06,-239.33 726.57,-248.4 733.42,-249.84"/>
</g>
<!-- Node31 -->
<g id="node31" class="node">
<title>Node31</title>
<g id="a_node31"><a xlink:href="../../d5/d75/containers_8h.html" target="_top" xlink:title=" ">
<polygon fill="white" stroke="#666666" points="865,-294 788,-294 788,-275 865,-275 865,-294"/>
<text text-anchor="middle" x="826.5" y="-282" font-family="Helvetica,sans-Serif" font-size="10.00">containers.h</text>
</a>
</g>
</g>
<!-- Node29&#45;&gt;Node31 -->
<g id="edge37" class="edge">
<title>Node29&#45;&gt;Node31</title>
<path fill="none" stroke="#63b8ff" d="M689.69,-329.98C716.94,-321.13 759.8,-307.19 790.28,-297.28"/>
<polygon fill="#63b8ff" stroke="#63b8ff" points="791.68,-300.5 800.11,-294.08 789.51,-293.85 791.68,-300.5"/>
</g>
<!-- Node36 -->
<g id="node36" class="node">
<title>Node36</title>
<g id="a_node36"><a xlink:href="../../df/da1/definition_8h.html" target="_top" xlink:title=" ">
<polygon fill="white" stroke="#666666" points="588,-294 517,-294 517,-275 588,-275 588,-294"/>
<text text-anchor="middle" x="552.5" y="-282" font-family="Helvetica,sans-Serif" font-size="10.00">definition.h</text>
</a>
</g>
</g>
<!-- Node29&#45;&gt;Node36 -->
<g id="edge45" class="edge">
<title>Node29&#45;&gt;Node36</title>
<path fill="none" stroke="#63b8ff" d="M645.67,-329.98C627.89,-321.5 600.35,-308.35 579.82,-298.54"/>
<polygon fill="#63b8ff" stroke="#63b8ff" points="581.19,-295.32 570.66,-294.17 578.17,-301.64 581.19,-295.32"/>
</g>
<!-- Node40 -->
<g id="node40" class="node">
<title>Node40</title>
<g id="a_node40"><a xlink:href="../../df/d9b/arguments_8h.html" target="_top" xlink:title=" ">
<polygon fill="white" stroke="#666666" points="425.5,-184 347.5,-184 347.5,-165 425.5,-165 425.5,-184"/>
<text text-anchor="middle" x="386.5" y="-172" font-family="Helvetica,sans-Serif" font-size="10.00">arguments.h</text>
</a>
</g>
</g>
<!-- Node29&#45;&gt;Node40 -->
<g id="edge62" class="edge">
<title>Node29&#45;&gt;Node40</title>
<path fill="none" stroke="#63b8ff" d="M630.79,-332.68C598.53,-326.12 548.4,-313.74 508.5,-294 471.77,-275.83 463.59,-267.86 434.5,-239 420.29,-224.9 406.79,-206.43 397.75,-193.05"/>
<polygon fill="#63b8ff" stroke="#63b8ff" points="400.44,-190.76 392.01,-184.33 394.59,-194.61 400.44,-190.76"/>
</g>
<!-- Node41 -->
<g id="node41" class="node">
<title>Node41</title>
<g id="a_node41"><a xlink:href="../../d9/d11/membergroup_8h.html" target="_top" xlink:title=" ">
<polygon fill="white" stroke="#666666" points="703,-294 608,-294 608,-275 703,-275 703,-294"/>
<text text-anchor="middle" x="655.5" y="-282" font-family="Helvetica,sans-Serif" font-size="10.00">membergroup.h</text>
</a>
</g>
</g>
<!-- Node29&#45;&gt;Node41 -->
<g id="edge65" class="edge">
<title>Node29&#45;&gt;Node41</title>
<path fill="none" stroke="#63b8ff" d="M662.18,-329.75C661.13,-322.8 659.63,-312.85 658.31,-304.13"/>
<polygon fill="#63b8ff" stroke="#63b8ff" points="661.75,-303.45 656.8,-294.09 654.83,-304.5 661.75,-303.45"/>
</g>
<!-- Node31&#45;&gt;Node8 -->
<g id="edge39" class="edge">
<title>Node31&#45;&gt;Node8</title>
<path fill="none" stroke="#63b8ff" d="M865.03,-282.53C909.57,-279.86 983.77,-270.56 1038.5,-239 1071.35,-220.05 1095.5,-213.42 1095.5,-175.5 1095.5,-175.5 1095.5,-175.5 1095.5,-118.5 1095.5,-21.94 939.82,-10.23 870.32,-9.81"/>
<polygon fill="#63b8ff" stroke="#63b8ff" points="869.94,-6.31 859.94,-9.83 869.95,-13.31 869.94,-6.31"/>
</g>
<!-- Node31&#45;&gt;Node9 -->
<g id="edge38" class="edge">
<title>Node31&#45;&gt;Node9</title>
<path fill="none" stroke="#63b8ff" d="M825.51,-274.84C822.85,-254.37 814.15,-201.94 791.5,-165 784.58,-153.7 774.06,-143.37 764.73,-135.52"/>
<polygon fill="#63b8ff" stroke="#63b8ff" points="766.63,-132.55 756.63,-129.04 762.25,-138.02 766.63,-132.55"/>
</g>
<!-- Node31&#45;&gt;Node30 -->
<g id="edge40" class="edge">
<title>Node31&#45;&gt;Node30</title>
<path fill="none" stroke="#63b8ff" d="M811.56,-274.98C797,-266.69 774.63,-253.94 757.57,-244.22"/>
<polygon fill="#63b8ff" stroke="#63b8ff" points="759.14,-241.08 748.71,-239.17 755.67,-247.16 759.14,-241.08"/>
</g>
<!-- Node32 -->
<g id="node32" class="node">
<title>Node32</title>
<g id="a_node32"><a xlink:title=" ">
<polygon fill="#e0e0e0" stroke="#999999" points="699.5,-239 661.5,-239 661.5,-220 699.5,-220 699.5,-239"/>
<text text-anchor="middle" x="680.5" y="-227" font-family="Helvetica,sans-Serif" font-size="10.00">map</text>
</a>
</g>
</g>
<!-- Node31&#45;&gt;Node32 -->
<g id="edge41" class="edge">
<title>Node31&#45;&gt;Node32</title>
<path fill="none" stroke="#63b8ff" d="M803.04,-274.98C777.49,-265.71 736.59,-250.86 709.15,-240.9"/>
<polygon fill="#63b8ff" stroke="#63b8ff" points="710.3,-237.59 699.7,-237.47 707.91,-244.17 710.3,-237.59"/>
</g>
<!-- Node33 -->
<g id="node33" class="node">
<title>Node33</title>
<g id="a_node33"><a xlink:title=" ">
<polygon fill="#e0e0e0" stroke="#999999" points="1029.5,-239 943.5,-239 943.5,-220 1029.5,-220 1029.5,-239"/>
<text text-anchor="middle" x="986.5" y="-227" font-family="Helvetica,sans-Serif" font-size="10.00">unordered_set</text>
</a>
</g>
</g>
<!-- Node31&#45;&gt;Node33 -->
<g id="edge42" class="edge">
<title>Node31&#45;&gt;Node33</title>
<path fill="none" stroke="#63b8ff" d="M852.21,-274.98C878.95,-266.13 921.03,-252.19 950.95,-242.28"/>
<polygon fill="#63b8ff" stroke="#63b8ff" points="952.2,-245.55 960.59,-239.08 950,-238.9 952.2,-245.55"/>
</g>
<!-- Node34 -->
<g id="node34" class="node">
<title>Node34</title>
<g id="a_node34"><a xlink:title=" ">
<polygon fill="#e0e0e0" stroke="#999999" points="691,-129 598,-129 598,-110 691,-110 691,-129"/>
<text text-anchor="middle" x="644.5" y="-117" font-family="Helvetica,sans-Serif" font-size="10.00">unordered_map</text>
</a>
</g>
</g>
<!-- Node31&#45;&gt;Node34 -->
<g id="edge43" class="edge">
<title>Node31&#45;&gt;Node34</title>
<path fill="none" stroke="#63b8ff" d="M817.35,-274.77C804.38,-262.44 779.84,-239.27 758.5,-220 724.96,-189.72 685.02,-155.2 662.43,-135.82"/>
<polygon fill="#63b8ff" stroke="#63b8ff" points="664.54,-133.02 654.66,-129.17 659.98,-138.34 664.54,-133.02"/>
</g>
<!-- Node35 -->
<g id="node35" class="node">
<title>Node35</title>
<g id="a_node35"><a xlink:title=" ">
<polygon fill="#e0e0e0" stroke="#999999" points="925,-239 882,-239 882,-220 925,-220 925,-239"/>
<text text-anchor="middle" x="903.5" y="-227" font-family="Helvetica,sans-Serif" font-size="10.00">stack</text>
</a>
</g>
</g>
<!-- Node31&#45;&gt;Node35 -->
<g id="edge44" class="edge">
<title>Node31&#45;&gt;Node35</title>
<path fill="none" stroke="#63b8ff" d="M838.87,-274.98C850.59,-266.92 868.42,-254.65 882.39,-245.03"/>
<polygon fill="#63b8ff" stroke="#63b8ff" points="884.65,-247.72 890.9,-239.17 880.68,-241.96 884.65,-247.72"/>
</g>
<!-- Node36&#45;&gt;Node9 -->
<g id="edge46" class="edge">
<title>Node36&#45;&gt;Node9</title>
<path fill="none" stroke="#63b8ff" d="M562.55,-274.97C593.25,-248.9 686.13,-170.06 726,-136.21"/>
<polygon fill="#63b8ff" stroke="#63b8ff" points="728.72,-138.48 734.08,-129.34 724.19,-133.15 728.72,-138.48"/>
</g>
<!-- Node37 -->
<g id="node37" class="node">
<title>Node37</title>
<g id="a_node37"><a xlink:href="../../d9/d49/types_8h.html" target="_top" xlink:title="This file contains a number of basic enums and types.">
<polygon fill="white" stroke="#666666" points="496,-239 443,-239 443,-220 496,-220 496,-239"/>
<text text-anchor="middle" x="469.5" y="-227" font-family="Helvetica,sans-Serif" font-size="10.00">types.h</text>
</a>
</g>
</g>
<!-- Node36&#45;&gt;Node37 -->
<g id="edge47" class="edge">
<title>Node36&#45;&gt;Node37</title>
<path fill="none" stroke="#63b8ff" d="M539.16,-274.98C526.41,-266.84 506.95,-254.41 491.83,-244.76"/>
<polygon fill="#63b8ff" stroke="#63b8ff" points="493.39,-241.6 483.08,-239.17 489.62,-247.5 493.39,-241.6"/>
</g>
<!-- Node38 -->
<g id="node38" class="node">
<title>Node38</title>
<g id="a_node38"><a xlink:href="../../d1/d02/reflist_8h.html" target="_top" xlink:title=" ">
<polygon fill="white" stroke="#666666" points="567,-239 514,-239 514,-220 567,-220 567,-239"/>
<text text-anchor="middle" x="540.5" y="-227" font-family="Helvetica,sans-Serif" font-size="10.00">reflist.h</text>
</a>
</g>
</g>
<!-- Node36&#45;&gt;Node38 -->
<g id="edge49" class="edge">
<title>Node36&#45;&gt;Node38</title>
<path fill="none" stroke="#63b8ff" d="M550.52,-274.75C548.93,-267.72 546.64,-257.62 544.65,-248.84"/>
<polygon fill="#63b8ff" stroke="#63b8ff" points="548.07,-248.07 542.44,-239.09 541.24,-249.62 548.07,-248.07"/>
</g>
<!-- Node37&#45;&gt;Node13 -->
<g id="edge48" class="edge">
<title>Node37&#45;&gt;Node13</title>
<path fill="none" stroke="#63b8ff" d="M442.78,-224.98C414.29,-220.05 369.14,-208.75 338.5,-184 323.85,-172.16 313.51,-153.05 307.36,-138.89"/>
<polygon fill="#63b8ff" stroke="#63b8ff" points="310.45,-137.19 303.46,-129.22 303.95,-139.8 310.45,-137.19"/>
</g>
<!-- Node38&#45;&gt;Node4 -->
<g id="edge52" class="edge">
<title>Node38&#45;&gt;Node4</title>
<path fill="none" stroke="#63b8ff" d="M563.21,-219.89C586.62,-211 624.16,-196.66 656.5,-184 701.21,-166.5 752.79,-145.8 784.78,-132.91"/>
<polygon fill="#63b8ff" stroke="#63b8ff" points="786.48,-136 794.45,-129.01 783.86,-129.51 786.48,-136"/>
</g>
<!-- Node38&#45;&gt;Node9 -->
<g id="edge50" class="edge">
<title>Node38&#45;&gt;Node9</title>
<path fill="none" stroke="#63b8ff" d="M556.85,-219.84C592.45,-201 677.17,-156.14 719.52,-133.73"/>
<polygon fill="#63b8ff" stroke="#63b8ff" points="721.16,-136.82 728.36,-129.05 717.88,-130.63 721.16,-136.82"/>
</g>
<!-- Node38&#45;&gt;Node13 -->
<g id="edge53" class="edge">
<title>Node38&#45;&gt;Node13</title>
<path fill="none" stroke="#63b8ff" d="M528.26,-219.95C509.02,-206.79 470.18,-181.37 434.5,-165 404.67,-151.31 369.39,-139.77 342.51,-131.87"/>
<polygon fill="#63b8ff" stroke="#63b8ff" points="343.24,-128.44 332.66,-129.03 341.29,-135.16 343.24,-128.44"/>
</g>
<!-- Node38&#45;&gt;Node34 -->
<g id="edge51" class="edge">
<title>Node38&#45;&gt;Node34</title>
<path fill="none" stroke="#63b8ff" d="M549.01,-219.66C566.54,-201.46 606.9,-159.55 629.12,-136.47"/>
<polygon fill="#63b8ff" stroke="#63b8ff" points="631.75,-138.79 636.16,-129.16 626.7,-133.93 631.75,-138.79"/>
</g>
<!-- Node39 -->
<g id="node39" class="node">
<title>Node39</title>
<g id="a_node39"><a xlink:href="../../da/de1/linkedmap_8h.html" target="_top" xlink:title=" ">
<polygon fill="white" stroke="#666666" points="559,-184 482,-184 482,-165 559,-165 559,-184"/>
<text text-anchor="middle" x="520.5" y="-172" font-family="Helvetica,sans-Serif" font-size="10.00">linkedmap.h</text>
</a>
</g>
</g>
<!-- Node38&#45;&gt;Node39 -->
<g id="edge54" class="edge">
<title>Node38&#45;&gt;Node39</title>
<path fill="none" stroke="#63b8ff" d="M537.2,-219.75C534.52,-212.65 530.65,-202.4 527.31,-193.56"/>
<polygon fill="#63b8ff" stroke="#63b8ff" points="530.55,-192.21 523.74,-184.09 524,-194.68 530.55,-192.21"/>
</g>
<!-- Node39&#45;&gt;Node4 -->
<g id="edge57" class="edge">
<title>Node39&#45;&gt;Node4</title>
<path fill="none" stroke="#63b8ff" d="M559.36,-167.38C607.86,-159.6 693.59,-145.41 776.64,-129.09"/>
<polygon fill="#63b8ff" stroke="#63b8ff" points="777.35,-132.52 786.48,-127.14 776,-125.65 777.35,-132.52"/>
</g>
<!-- Node39&#45;&gt;Node8 -->
<g id="edge58" class="edge">
<title>Node39&#45;&gt;Node8</title>
<path fill="none" stroke="#63b8ff" d="M528.18,-164.61C540.14,-151.23 564.44,-125.81 589.5,-110 661.12,-64.83 756.67,-33.49 805.63,-19.22"/>
<polygon fill="#63b8ff" stroke="#63b8ff" points="806.7,-22.56 815.35,-16.44 804.77,-15.83 806.7,-22.56"/>
</g>
<!-- Node39&#45;&gt;Node9 -->
<g id="edge56" class="edge">
<title>Node39&#45;&gt;Node9</title>
<path fill="none" stroke="#63b8ff" d="M556.49,-164.98C599.13,-154.9 669.6,-138.22 711.08,-128.41"/>
<polygon fill="#63b8ff" stroke="#63b8ff" points="712.04,-131.78 720.97,-126.07 710.43,-124.96 712.04,-131.78"/>
</g>
<!-- Node39&#45;&gt;Node13 -->
<g id="edge61" class="edge">
<title>Node39&#45;&gt;Node13</title>
<path fill="none" stroke="#63b8ff" d="M485.15,-164.98C446.44,-155.66 384.37,-140.71 343.02,-130.74"/>
<polygon fill="#63b8ff" stroke="#63b8ff" points="343.79,-127.33 333.25,-128.39 342.15,-134.13 343.79,-127.33"/>
</g>
<!-- Node39&#45;&gt;Node14 -->
<g id="edge59" class="edge">
<title>Node39&#45;&gt;Node14</title>
<path fill="none" stroke="#63b8ff" d="M520.5,-164.66C520.5,-147.17 520.5,-107.8 520.5,-84.27"/>
<polygon fill="#63b8ff" stroke="#63b8ff" points="524,-84.16 520.5,-74.16 517,-84.16 524,-84.16"/>
</g>
<!-- Node39&#45;&gt;Node15 -->
<g id="edge60" class="edge">
<title>Node39&#45;&gt;Node15</title>
<path fill="none" stroke="#63b8ff" d="M514.36,-164.66C501.88,-146.69 473.38,-105.64 457.22,-82.38"/>
<polygon fill="#63b8ff" stroke="#63b8ff" points="460.09,-80.38 451.51,-74.16 454.34,-84.37 460.09,-80.38"/>
</g>
<!-- Node39&#45;&gt;Node34 -->
<g id="edge55" class="edge">
<title>Node39&#45;&gt;Node34</title>
<path fill="none" stroke="#63b8ff" d="M540.42,-164.98C560.55,-156.38 591.88,-142.99 614.91,-133.15"/>
<polygon fill="#63b8ff" stroke="#63b8ff" points="616.4,-136.32 624.21,-129.17 613.64,-129.88 616.4,-136.32"/>
</g>
<!-- Node40&#45;&gt;Node9 -->
<g id="edge63" class="edge">
<title>Node40&#45;&gt;Node9</title>
<path fill="none" stroke="#63b8ff" d="M425.76,-168.58C485.3,-160.97 601.94,-145.49 700.5,-129 703.8,-128.45 707.23,-127.84 710.66,-127.21"/>
<polygon fill="#63b8ff" stroke="#63b8ff" points="711.61,-130.6 720.79,-125.31 710.32,-123.72 711.61,-130.6"/>
</g>
<!-- Node40&#45;&gt;Node13 -->
<g id="edge64" class="edge">
<title>Node40&#45;&gt;Node13</title>
<path fill="none" stroke="#63b8ff" d="M372.68,-164.98C359.35,-156.77 338.92,-144.18 323.19,-134.49"/>
<polygon fill="#63b8ff" stroke="#63b8ff" points="324.92,-131.44 314.57,-129.17 321.25,-137.4 324.92,-131.44"/>
</g>
<!-- Node41&#45;&gt;Node4 -->
<g id="edge68" class="edge">
<title>Node41&#45;&gt;Node4</title>
<path fill="none" stroke="#63b8ff" d="M691.04,-274.98C712.74,-268.25 739.81,-256.94 758.5,-239 787.76,-210.9 803.86,-164.71 810.98,-139.09"/>
<polygon fill="#63b8ff" stroke="#63b8ff" points="814.42,-139.75 813.56,-129.19 807.65,-137.98 814.42,-139.75"/>
</g>
<!-- Node41&#45;&gt;Node9 -->
<g id="edge66" class="edge">
<title>Node41&#45;&gt;Node9</title>
<path fill="none" stroke="#63b8ff" d="M651.99,-274.76C647.32,-261.59 640.92,-236.42 652.5,-220 679.96,-181.05 726.04,-222.95 753.5,-184 762.81,-170.8 758.68,-152.18 753.35,-138.51"/>
<polygon fill="#63b8ff" stroke="#63b8ff" points="756.48,-136.94 749.25,-129.2 750.08,-139.76 756.48,-136.94"/>
</g>
<!-- Node41&#45;&gt;Node32 -->
<g id="edge67" class="edge">
<title>Node41&#45;&gt;Node32</title>
<path fill="none" stroke="#63b8ff" d="M659.63,-274.75C663.01,-267.57 667.92,-257.18 672.12,-248.27"/>
<polygon fill="#63b8ff" stroke="#63b8ff" points="675.35,-249.63 676.45,-239.09 669.02,-246.64 675.35,-249.63"/>
</g>
<!-- Node41&#45;&gt;Node37 -->
<g id="edge69" class="edge">
<title>Node41&#45;&gt;Node37</title>
<path fill="none" stroke="#63b8ff" d="M625.62,-274.98C593.09,-265.72 541.06,-250.89 506.11,-240.93"/>
<polygon fill="#63b8ff" stroke="#63b8ff" points="506.87,-237.51 496.29,-238.13 504.95,-244.24 506.87,-237.51"/>
</g>
<!-- Node41&#45;&gt;Node38 -->
<g id="edge70" class="edge">
<title>Node41&#45;&gt;Node38</title>
<path fill="none" stroke="#63b8ff" d="M637.02,-274.98C618.52,-266.46 589.82,-253.23 568.52,-243.41"/>
<polygon fill="#63b8ff" stroke="#63b8ff" points="569.86,-240.18 559.31,-239.17 566.93,-246.53 569.86,-240.18"/>
</g>
<!-- Node42&#45;&gt;Node13 -->
<g id="edge76" class="edge">
<title>Node42&#45;&gt;Node13</title>
<path fill="none" stroke="#63b8ff" d="M364.18,-439.9C341.38,-418.16 283.15,-358.13 262.5,-294 244.59,-238.38 274.02,-170.04 290.51,-138.28"/>
<polygon fill="#63b8ff" stroke="#63b8ff" points="293.68,-139.79 295.34,-129.32 287.52,-136.47 293.68,-139.79"/>
</g>
<!-- Node43 -->
<g id="node43" class="node">
<title>Node43</title>
<g id="a_node43"><a xlink:title=" ">
<polygon fill="#e0e0e0" stroke="#999999" points="404,-404 351,-404 351,-385 404,-385 404,-404"/>
<text text-anchor="middle" x="377.5" y="-392" font-family="Helvetica,sans-Serif" font-size="10.00">cstdarg</text>
</a>
</g>
</g>
<!-- Node42&#45;&gt;Node43 -->
<g id="edge75" class="edge">
<title>Node42&#45;&gt;Node43</title>
<path fill="none" stroke="#63b8ff" d="M374.16,-439.75C374.68,-432.8 375.44,-422.85 376.09,-414.13"/>
<polygon fill="#63b8ff" stroke="#63b8ff" points="379.59,-414.32 376.85,-404.09 372.61,-413.8 379.59,-414.32"/>
</g>
<!-- Node44&#45;&gt;Node8 -->
<g id="edge81" class="edge">
<title>Node44&#45;&gt;Node8</title>
<path fill="none" stroke="#63b8ff" d="M1265.14,-441.43C1310.2,-431.4 1387.02,-413.24 1396.5,-404 1417.6,-383.44 1415.5,-369.96 1415.5,-340.5 1415.5,-340.5 1415.5,-340.5 1415.5,-118.5 1415.5,-62.57 991.98,-23.26 870,-13.09"/>
<polygon fill="#63b8ff" stroke="#63b8ff" points="870.06,-9.59 859.8,-12.25 869.48,-16.56 870.06,-9.59"/>
</g>
<!-- Node45 -->
<g id="node45" class="node">
<title>Node45</title>
<g id="a_node45"><a xlink:title=" ">
<polygon fill="#e0e0e0" stroke="#999999" points="1387,-404 1342,-404 1342,-385 1387,-385 1387,-404"/>
<text text-anchor="middle" x="1364.5" y="-392" font-family="Helvetica,sans-Serif" font-size="10.00">utility</text>
</a>
</g>
</g>
<!-- Node44&#45;&gt;Node45 -->
<g id="edge78" class="edge">
<title>Node44&#45;&gt;Node45</title>
<path fill="none" stroke="#63b8ff" d="M1253.71,-439.98C1275.23,-431.34 1308.78,-417.87 1333.33,-408.02"/>
<polygon fill="#63b8ff" stroke="#63b8ff" points="1334.93,-411.14 1342.91,-404.17 1332.32,-404.65 1334.93,-411.14"/>
</g>
<!-- Node46 -->
<g id="node46" class="node">
<title>Node46</title>
<g id="a_node46"><a xlink:title=" ">
<polygon fill="#e0e0e0" stroke="#999999" points="1253,-404 1200,-404 1200,-385 1253,-385 1253,-404"/>
<text text-anchor="middle" x="1226.5" y="-392" font-family="Helvetica,sans-Serif" font-size="10.00">stdlib.h</text>
</a>
</g>
</g>
<!-- Node44&#45;&gt;Node46 -->
<g id="edge79" class="edge">
<title>Node44&#45;&gt;Node46</title>
<path fill="none" stroke="#63b8ff" d="M1231.51,-439.75C1230.72,-432.8 1229.6,-422.85 1228.61,-414.13"/>
<polygon fill="#63b8ff" stroke="#63b8ff" points="1232.08,-413.63 1227.47,-404.09 1225.12,-414.42 1232.08,-413.63"/>
</g>
<!-- Node47 -->
<g id="node47" class="node">
<title>Node47</title>
<g id="a_node47"><a xlink:title=" ">
<polygon fill="#e0e0e0" stroke="#999999" points="1324,-404 1271,-404 1271,-385 1324,-385 1324,-404"/>
<text text-anchor="middle" x="1297.5" y="-392" font-family="Helvetica,sans-Serif" font-size="10.00">string.h</text>
</a>
</g>
</g>
<!-- Node44&#45;&gt;Node47 -->
<g id="edge80" class="edge">
<title>Node44&#45;&gt;Node47</title>
<path fill="none" stroke="#63b8ff" d="M1242.94,-439.98C1252.65,-432.07 1267.32,-420.11 1279,-410.58"/>
<polygon fill="#63b8ff" stroke="#63b8ff" points="1281.33,-413.2 1286.87,-404.17 1276.9,-407.78 1281.33,-413.2"/>
</g>
</g>
</svg>
        <g id="navigator" transform="translate(0 0)" fill="#404254">
                <rect fill="#f2f5e9" fill-opacity="0.5" stroke="#606060" stroke-width=".5" x="0" y="0" width="60" height="60"/>
                <use id="zoomplus" xlink:href="#zoomPlus" x="17" y="9" onmousedown="handleZoom(evt,'in')"/>
                <use id="zoomminus" xlink:href="#zoomMin" x="42" y="9" onmousedown="handleZoom(evt,'out')"/>
                <use id="reset" xlink:href="#resetDef" x="30" y="36" onmousedown="handleReset()"/>
                <g id="arrowUp" xlink:href="#dirArrow" transform="translate(30 24)" onmousedown="handlePan(0,-1)">
                  <use xlink:href="#rim" fill="#404040">
                        <set attributeName="fill" to="#808080" begin="arrowUp.mouseover" end="arrowUp.mouseout"/>
                  </use>
                  <path fill="none" stroke="white" stroke-width="1.5" d="M0,-3.0v7 M-2.5,-0.5L0,-3.0L2.5,-0.5"/>
                </g>
                <g id="arrowRight" xlink:href="#dirArrow" transform="rotate(90) translate(36 -43)" onmousedown="handlePan(1,0)">
                  <use xlink:href="#rim" fill="#404040">
                        <set attributeName="fill" to="#808080" begin="arrowRight.mouseover" end="arrowRight.mouseout"/>
                  </use>
                  <path fill="none" stroke="white" stroke-width="1.5" d="M0,-3.0v7 M-2.5,-0.5L0,-3.0L2.5,-0.5"/>
                </g>
                <g id="arrowDown" xlink:href="#dirArrow" transform="rotate(180) translate(-30 -48)" onmousedown="handlePan(0,1)">
                  <use xlink:href="#rim" fill="#404040">
                        <set attributeName="fill" to="#808080" begin="arrowDown.mouseover" end="arrowDown.mouseout"/>
                  </use>
                  <path fill="none" stroke="white" stroke-width="1.5" d="M0,-3.0v7 M-2.5,-0.5L0,-3.0L2.5,-0.5"/>
                </g>
                <g id="arrowLeft" xlink:href="#dirArrow" transform="rotate(270) translate(-36 17)" onmousedown="handlePan(-1,0)">
                  <use xlink:href="#rim" fill="#404040">
                        <set attributeName="fill" to="#808080" begin="arrowLeft.mouseover" end="arrowLeft.mouseout"/>
                  </use>
                  <path fill="none" stroke="white" stroke-width="1.5" d="M0,-3.0v7 M-2.5,-0.5L0,-3.0L2.5,-0.5"/>
                </g>
        </g>
        <svg viewBox="0 0 15 15" width="100%" height="30px" preserveAspectRatio="xMaxYMin meet">
         <g id="arrow_out" transform="scale(0.3 0.3)">
          <a xlink:href="datetime_8cpp__incl_org.svg" target="_base">
           <rect id="button" ry="5" rx="5" y="6" x="6" height="38" width="38"
                fill="#f2f5e9" fill-opacity="0.5" stroke="#606060" stroke-width="1.0"/>
           <path id="arrow"
             d="M 11.500037,31.436501 C 11.940474,20.09759 22.043105,11.32322 32.158766,21.979434 L 37.068811,17.246167 C 37.068811,17.246167 37.088388,32 37.088388,32 L 22.160133,31.978069 C 22.160133,31.978069 26.997745,27.140456 26.997745,27.140456 C 18.528582,18.264221 13.291696,25.230495 11.500037,31.436501 z"
             style="fill:#404040;"/>
          </a>
         </g>
        </svg>
</svg>
