<?xml version="1.0" encoding="UTF-8" standalone="no"?>
<!DOCTYPE svg PUBLIC "-//W3C//DTD SVG 1.1//EN"
 "http://www.w3.org/Graphics/SVG/1.1/DTD/svg11.dtd">
<!-- Generated by graphviz version 2.40.1 (20161225.0304)
 -->
<!-- Title: ConfigList Pages: 1 -->
<svg width="121pt" height="204pt"
 viewBox="0.00 0.00 121.00 204.00" xmlns="http://www.w3.org/2000/svg" xmlns:xlink="http://www.w3.org/1999/xlink">
<g id="graph0" class="graph" transform="scale(1 1) rotate(0) translate(4 200)">
<title>ConfigList</title>
<!-- Node1 -->
<g id="node1" class="node">
<title>Node1</title>
<g id="a_node1"><a xlink:title="Class representing a list type option.">
<polygon fill="#999999" stroke="#666666" points="67.5,-19 6.5,-19 6.5,0 67.5,0 67.5,-19"/>
<text text-anchor="middle" x="37" y="-7" font-family="Helvetica,sans-Serif" font-size="10.00" fill="#000000">ConfigList</text>
</a>
</g>
</g>
<!-- Node2 -->
<g id="node2" class="node">
<title>Node2</title>
<g id="a_node2"><a xlink:href="../../d2/dd3/class_config_option.html" target="_top" xlink:title="Abstract base class for any configuration option.">
<polygon fill="#ffffff" stroke="#666666" points="74,-75 0,-75 0,-56 74,-56 74,-75"/>
<text text-anchor="middle" x="37" y="-63" font-family="Helvetica,sans-Serif" font-size="10.00" fill="#000000">ConfigOption</text>
</a>
</g>
</g>
<!-- Node2&#45;&gt;Node1 -->
<g id="edge1" class="edge">
<title>Node2&#45;&gt;Node1</title>
<path fill="none" stroke="#63b8ff" d="M37,-45.6575C37,-36.655 37,-26.4199 37,-19.1427"/>
<polygon fill="#63b8ff" stroke="#63b8ff" points="33.5001,-45.7455 37,-55.7455 40.5001,-45.7456 33.5001,-45.7455"/>
</g>
<!-- Node3 -->
<g id="node3" class="node">
<title>Node3</title>
<g id="a_node3"><a xlink:href="../../d9/d45/class_q_c_string.html" target="_top" xlink:title="This is an alternative implementation of QCString.">
<polygon fill="#ffffff" stroke="#666666" points="65.5,-196 8.5,-196 8.5,-177 65.5,-177 65.5,-196"/>
<text text-anchor="middle" x="37" y="-184" font-family="Helvetica,sans-Serif" font-size="10.00" fill="#000000">QCString</text>
</a>
</g>
</g>
<!-- Node3&#45;&gt;Node2 -->
<g id="edge2" class="edge">
<title>Node3&#45;&gt;Node2</title>
<path fill="none" stroke="#9a32cd" stroke-dasharray="5,2" d="M37,-166.2681C37,-139.9155 37,-94.8924 37,-75.2006"/>
<polygon fill="#9a32cd" stroke="#9a32cd" points="33.5001,-166.598 37,-176.5981 40.5001,-166.5981 33.5001,-166.598"/>
<text text-anchor="middle" x="75" y="-151" font-family="Helvetica,sans-Serif" font-size="10.00" fill="#000000"> m_dependency</text>
<text text-anchor="middle" x="75" y="-140" font-family="Helvetica,sans-Serif" font-size="10.00" fill="#000000">m_doc</text>
<text text-anchor="middle" x="75" y="-129" font-family="Helvetica,sans-Serif" font-size="10.00" fill="#000000">m_encoding</text>
<text text-anchor="middle" x="75" y="-118" font-family="Helvetica,sans-Serif" font-size="10.00" fill="#000000">m_name</text>
<text text-anchor="middle" x="75" y="-107" font-family="Helvetica,sans-Serif" font-size="10.00" fill="#000000">m_spaces</text>
<text text-anchor="middle" x="75" y="-96" font-family="Helvetica,sans-Serif" font-size="10.00" fill="#000000">m_userComment</text>
</g>
</g>
</svg>
