<?xml version="1.0" encoding="UTF-8" standalone="no"?>
<!DOCTYPE svg PUBLIC "-//W3C//DTD SVG 1.1//EN"
 "http://www.w3.org/Graphics/SVG/1.1/DTD/svg11.dtd">
<!-- Generated by graphviz version 2.40.1 (20161225.0304)
 -->
<!-- Title: DocParserContext Pages: 1 -->
<!--zoomable 398 -->
<svg id="main" version="1.1" xmlns="http://www.w3.org/2000/svg" xmlns:xlink="http://www.w3.org/1999/xlink" xml:space="preserve" onload="init(evt)">
<style type="text/css"><![CDATA[
.edge:hover path { stroke: red; }
.edge:hover polygon { stroke: red; fill: red; }
]]></style>
<script type="text/javascript"><![CDATA[
var edges = document.getElementsByTagName('g');
if (edges && edges.length) {
  for (var i=0;i<edges.length;i++) {
    if (edges[i].id.substr(0,4)=='edge') {
      edges[i].setAttribute('class','edge');
    }
  }
}
]]></script>
        <defs>
                <circle id="rim" cx="0" cy="0" r="7"/>
                <circle id="rim2" cx="0" cy="0" r="3.5"/>
                <g id="zoomPlus">
                        <use xlink:href="#rim" fill="#404040">
                                <set attributeName="fill" to="#808080" begin="zoomplus.mouseover" end="zoomplus.mouseout"/>
                        </use>
                        <path d="M-4,0h8M0,-4v8" fill="none" stroke="white" stroke-width="1.5" pointer-events="none"/>
                </g>
                <g id="zoomMin">
                        <use xlink:href="#rim" fill="#404040">
                                <set attributeName="fill" to="#808080" begin="zoomminus.mouseover" end="zoomminus.mouseout"/>
                        </use>
                        <path d="M-4,0h8" fill="none" stroke="white" stroke-width="1.5" pointer-events="none"/>
                </g>
                <g id="dirArrow">
                        <path fill="none" stroke="white" stroke-width="1.5" d="M0,-3.0v7 M-2.5,-0.5L0,-3.0L2.5,-0.5"/>
                </g>
               <g id="resetDef">
                       <use xlink:href="#rim2" fill="#404040">
                               <set attributeName="fill" to="#808080" begin="reset.mouseover" end="reset.mouseout"/>
                       </use>
               </g>
        </defs>

<script type="text/javascript">
var viewWidth = 797;
var viewHeight = 398;
var sectionId = 'dynsection-0';
</script>
<script xlink:href="../../svgpan.js"/>
<svg id="graph" class="graph">
<g id="viewport">
<title>DocParserContext</title>
<!-- Node1 -->
<g id="node1" class="node">
<title>Node1</title>
<g id="a_node1"><a xlink:title="Parser&#39;s context to store all global variables.">
<polygon fill="#999999" stroke="#666666" points="789,-249.5 691,-249.5 691,-230.5 789,-230.5 789,-249.5"/>
<text text-anchor="middle" x="740" y="-237.5" font-family="Helvetica,sans-Serif" font-size="10.00" fill="#000000">DocParserContext</text>
</a>
</g>
</g>
<!-- Node2 -->
<g id="node2" class="node">
<title>Node2</title>
<g id="a_node2"><a xlink:href="../../d5/dcc/class_definition.html" target="_top" xlink:title="The common base class of all entity definitions found in the sources.">
<polygon fill="#ffffff" stroke="#666666" points="265.5,-382.5 207.5,-382.5 207.5,-363.5 265.5,-363.5 265.5,-382.5"/>
<text text-anchor="middle" x="236.5" y="-370.5" font-family="Helvetica,sans-Serif" font-size="10.00" fill="#000000">Definition</text>
</a>
</g>
</g>
<!-- Node2&#45;&gt;Node1 -->
<g id="edge1" class="edge">
<title>Node2&#45;&gt;Node1</title>
<path fill="none" stroke="#9a32cd" stroke-dasharray="5,2" d="M275.7469,-377.1297C340.3992,-382.7939 472.9053,-389.587 581,-364 624.2169,-353.7702 637.7018,-351.9515 673,-325 701.3756,-303.3342 724.5376,-267.007 734.5945,-249.7158"/>
<polygon fill="#9a32cd" stroke="#9a32cd" points="275.8737,-373.6267 265.5961,-376.1999 275.2352,-380.5975 275.8737,-373.6267"/>
<text text-anchor="middle" x="527.5" y="-382" font-family="Helvetica,sans-Serif" font-size="10.00" fill="#000000"> scope</text>
</g>
<!-- Node8 -->
<g id="node8" class="node">
<title>Node8</title>
<g id="a_node8"><a xlink:href="../../da/d09/class_member_def.html" target="_top" xlink:title="A model of a class/file/namespace member symbol.">
<polygon fill="#ffffff" stroke="#666666" points="561.5,-354.5 493.5,-354.5 493.5,-335.5 561.5,-335.5 561.5,-354.5"/>
<text text-anchor="middle" x="527.5" y="-342.5" font-family="Helvetica,sans-Serif" font-size="10.00" fill="#000000">MemberDef</text>
</a>
</g>
</g>
<!-- Node2&#45;&gt;Node8 -->
<g id="edge8" class="edge">
<title>Node2&#45;&gt;Node8</title>
<path fill="none" stroke="#63b8ff" d="M275.8707,-369.2118C333.294,-363.6865 439.0756,-353.5082 493.3748,-348.2835"/>
<polygon fill="#63b8ff" stroke="#63b8ff" points="275.3533,-365.7453 265.7346,-370.1871 276.0238,-372.7131 275.3533,-365.7453"/>
</g>
<!-- Node3 -->
<g id="node3" class="node">
<title>Node3</title>
<g id="a_node3"><a xlink:href="../../d9/d45/class_q_c_string.html" target="_top" xlink:title="This is an alternative implementation of QCString.">
<polygon fill="#ffffff" stroke="#666666" points="265,-203.5 208,-203.5 208,-184.5 265,-184.5 265,-203.5"/>
<text text-anchor="middle" x="236.5" y="-191.5" font-family="Helvetica,sans-Serif" font-size="10.00" fill="#000000">QCString</text>
</a>
</g>
</g>
<!-- Node3&#45;&gt;Node1 -->
<g id="edge2" class="edge">
<title>Node3&#45;&gt;Node1</title>
<path fill="none" stroke="#9a32cd" stroke-dasharray="5,2" d="M267.8048,-207.4522C285.4317,-214.3544 308.0505,-222.1109 329,-226 457.81,-249.9128 613.1297,-246.7375 690.7726,-243.0211"/>
<polygon fill="#9a32cd" stroke="#9a32cd" points="268.637,-204.0141 258.0536,-203.5227 266.0206,-210.5068 268.637,-204.0141"/>
<text text-anchor="middle" x="527.5" y="-314" font-family="Helvetica,sans-Serif" font-size="10.00" fill="#000000"> context</text>
<text text-anchor="middle" x="527.5" y="-303" font-family="Helvetica,sans-Serif" font-size="10.00" fill="#000000">exampleName</text>
<text text-anchor="middle" x="527.5" y="-292" font-family="Helvetica,sans-Serif" font-size="10.00" fill="#000000">fileName</text>
<text text-anchor="middle" x="527.5" y="-281" font-family="Helvetica,sans-Serif" font-size="10.00" fill="#000000">includeFileName</text>
<text text-anchor="middle" x="527.5" y="-270" font-family="Helvetica,sans-Serif" font-size="10.00" fill="#000000">includeFileText</text>
<text text-anchor="middle" x="527.5" y="-259" font-family="Helvetica,sans-Serif" font-size="10.00" fill="#000000">relPath</text>
<text text-anchor="middle" x="527.5" y="-248" font-family="Helvetica,sans-Serif" font-size="10.00" fill="#000000">searchUrl</text>
</g>
<!-- Node9 -->
<g id="node9" class="node">
<title>Node9</title>
<g id="a_node9"><a xlink:href="../../d6/df4/struct_token_info.html" target="_top" xlink:title="Data associated with a token used by the comment block parser.">
<polygon fill="#ffffff" stroke="#666666" points="557.5,-146.5 497.5,-146.5 497.5,-127.5 557.5,-127.5 557.5,-146.5"/>
<text text-anchor="middle" x="527.5" y="-134.5" font-family="Helvetica,sans-Serif" font-size="10.00" fill="#000000">TokenInfo</text>
</a>
</g>
</g>
<!-- Node3&#45;&gt;Node9 -->
<g id="edge10" class="edge">
<title>Node3&#45;&gt;Node9</title>
<path fill="none" stroke="#9a32cd" stroke-dasharray="5,2" d="M255.6592,-178.1032C273.4147,-164.4729 301.2051,-145.8336 329,-138 386.7159,-121.7335 457.6763,-127.1173 497.2136,-132.2353"/>
<polygon fill="#9a32cd" stroke="#9a32cd" points="253.4664,-175.3751 247.7929,-184.3228 257.808,-180.8661 253.4664,-175.3751"/>
<text text-anchor="middle" x="392.5" y="-218" font-family="Helvetica,sans-Serif" font-size="10.00" fill="#000000"> attribsStr</text>
<text text-anchor="middle" x="392.5" y="-207" font-family="Helvetica,sans-Serif" font-size="10.00" fill="#000000">chars</text>
<text text-anchor="middle" x="392.5" y="-196" font-family="Helvetica,sans-Serif" font-size="10.00" fill="#000000">name</text>
<text text-anchor="middle" x="392.5" y="-185" font-family="Helvetica,sans-Serif" font-size="10.00" fill="#000000">sectionId</text>
<text text-anchor="middle" x="392.5" y="-174" font-family="Helvetica,sans-Serif" font-size="10.00" fill="#000000">simpleSectName</text>
<text text-anchor="middle" x="392.5" y="-163" font-family="Helvetica,sans-Serif" font-size="10.00" fill="#000000">simpleSectText</text>
<text text-anchor="middle" x="392.5" y="-152" font-family="Helvetica,sans-Serif" font-size="10.00" fill="#000000">text</text>
<text text-anchor="middle" x="392.5" y="-141" font-family="Helvetica,sans-Serif" font-size="10.00" fill="#000000">verb</text>
</g>
<!-- Node4 -->
<g id="node4" class="node">
<title>Node4</title>
<g id="a_node4"><a xlink:href="../../d9/d82/class_iterable_stack.html" target="_top" xlink:title=" ">
<polygon fill="#ffffff" stroke="#666666" points="581,-78 474,-78 474,-48 581,-48 581,-78"/>
<text text-anchor="start" x="482" y="-66" font-family="Helvetica,sans-Serif" font-size="10.00" fill="#000000">IterableStack&lt; const</text>
<text text-anchor="middle" x="527.5" y="-55" font-family="Helvetica,sans-Serif" font-size="10.00" fill="#000000"> DocNodeVariant * &gt;</text>
</a>
</g>
</g>
<!-- Node4&#45;&gt;Node1 -->
<g id="edge3" class="edge">
<title>Node4&#45;&gt;Node1</title>
<path fill="none" stroke="#9a32cd" stroke-dasharray="5,2" d="M571.6784,-82.3823C602.2872,-97.2018 642.8029,-119.7012 673,-147 701.3423,-172.6221 724.8587,-212.1235 734.8454,-230.2729"/>
<polygon fill="#9a32cd" stroke="#9a32cd" points="573.0541,-79.1611 562.5195,-78.0329 570.0513,-85.4843 573.0541,-79.1611"/>
<text text-anchor="middle" x="636" y="-161" font-family="Helvetica,sans-Serif" font-size="10.00" fill="#000000"> initialStyleStack</text>
<text text-anchor="middle" x="636" y="-150" font-family="Helvetica,sans-Serif" font-size="10.00" fill="#000000">styleStack</text>
</g>
<!-- Node5 -->
<g id="node5" class="node">
<title>Node5</title>
<g id="a_node5"><a xlink:title=" ">
<polygon fill="#ffffff" stroke="#666666" points="311,-83.5 162,-83.5 162,-42.5 311,-42.5 311,-83.5"/>
<text text-anchor="start" x="170" y="-71.5" font-family="Helvetica,sans-Serif" font-size="10.00" fill="#000000">std::stack&lt; const DocNode</text>
<text text-anchor="start" x="170" y="-60.5" font-family="Helvetica,sans-Serif" font-size="10.00" fill="#000000">Variant * , std::deque</text>
<text text-anchor="middle" x="236.5" y="-49.5" font-family="Helvetica,sans-Serif" font-size="10.00" fill="#000000">&lt;const DocNodeVariant * &gt; &#160;&gt;</text>
</a>
</g>
</g>
<!-- Node5&#45;&gt;Node4 -->
<g id="edge4" class="edge">
<title>Node5&#45;&gt;Node4</title>
<path fill="none" stroke="#63b8ff" d="M321.0765,-63C370.3617,-63 431.0285,-63 473.8016,-63"/>
<polygon fill="#63b8ff" stroke="#63b8ff" points="321.0619,-59.5001 311.0618,-63 321.0618,-66.5001 321.0619,-59.5001"/>
</g>
<!-- Node6 -->
<g id="node6" class="node">
<title>Node6</title>
<g id="a_node6"><a xlink:href="../../d9/d82/class_iterable_stack.html" target="_top" xlink:title=" ">
<polygon fill="#ffffff" stroke="#666666" points="309.5,-24.5 163.5,-24.5 163.5,-5.5 309.5,-5.5 309.5,-24.5"/>
<text text-anchor="middle" x="236.5" y="-12.5" font-family="Helvetica,sans-Serif" font-size="10.00" fill="#000000">IterableStack&lt; T, Container &gt;</text>
</a>
</g>
</g>
<!-- Node6&#45;&gt;Node4 -->
<g id="edge5" class="edge">
<title>Node6&#45;&gt;Node4</title>
<path fill="none" stroke="#ffa500" stroke-dasharray="5,2" d="M316.9356,-25.9608C358.5432,-31.9169 410.1002,-39.7421 456,-48 461.7422,-49.0331 467.7293,-50.1792 473.688,-51.3644"/>
<polygon fill="#ffa500" stroke="#ffa500" points="317.2487,-22.4702 306.8553,-24.5265 316.2625,-29.4004 317.2487,-22.4702"/>
<text text-anchor="middle" x="392.5" y="-51" font-family="Helvetica,sans-Serif" font-size="10.00" fill="#000000"> &lt; const DocNodeVariant * &gt;</text>
</g>
<!-- Node7 -->
<g id="node7" class="node">
<title>Node7</title>
<g id="a_node7"><a xlink:title=" ">
<polygon fill="#ffffff" stroke="#666666" points="110,-30 15,-30 15,0 110,0 110,-30"/>
<text text-anchor="start" x="23" y="-18" font-family="Helvetica,sans-Serif" font-size="10.00" fill="#000000">std::stack&lt; T, std</text>
<text text-anchor="middle" x="62.5" y="-7" font-family="Helvetica,sans-Serif" font-size="10.00" fill="#000000">::deque&lt; T &gt; &gt;</text>
</a>
</g>
</g>
<!-- Node7&#45;&gt;Node6 -->
<g id="edge6" class="edge">
<title>Node7&#45;&gt;Node6</title>
<path fill="none" stroke="#63b8ff" d="M120.308,-15C134.0418,-15 148.8734,-15 163.1969,-15"/>
<polygon fill="#63b8ff" stroke="#63b8ff" points="120.0463,-11.5001 110.0463,-15 120.0462,-18.5001 120.0463,-11.5001"/>
</g>
<!-- Node8&#45;&gt;Node1 -->
<g id="edge7" class="edge">
<title>Node8&#45;&gt;Node1</title>
<path fill="none" stroke="#9a32cd" stroke-dasharray="5,2" d="M559.0211,-331.1714C566.2724,-327.904 573.9296,-324.3843 581,-321 632.6956,-296.2556 692.7098,-264.9738 722.0225,-249.5255"/>
<polygon fill="#9a32cd" stroke="#9a32cd" points="557.1806,-328.1601 549.4776,-335.4343 560.0356,-334.5515 557.1806,-328.1601"/>
<text text-anchor="middle" x="636" y="-313" font-family="Helvetica,sans-Serif" font-size="10.00" fill="#000000"> memberDef</text>
</g>
<!-- Node9&#45;&gt;Node1 -->
<g id="edge9" class="edge">
<title>Node9&#45;&gt;Node1</title>
<path fill="none" stroke="#9a32cd" stroke-dasharray="5,2" d="M556.3584,-150.9879C600.1783,-172.2276 682.3813,-212.0719 720.1279,-230.3679"/>
<polygon fill="#9a32cd" stroke="#9a32cd" points="557.6359,-147.7176 547.1106,-146.5054 554.5826,-154.0167 557.6359,-147.7176"/>
<text text-anchor="middle" x="636" y="-209" font-family="Helvetica,sans-Serif" font-size="10.00" fill="#000000"> token</text>
</g>
<!-- Node10 -->
<g id="node10" class="node">
<title>Node10</title>
<g id="a_node10"><a xlink:href="../../db/d4d/class_html_attrib_list.html" target="_top" xlink:title="Class representing a list of HTML attributes.">
<polygon fill="#ffffff" stroke="#666666" points="275,-120.5 198,-120.5 198,-101.5 275,-101.5 275,-120.5"/>
<text text-anchor="middle" x="236.5" y="-108.5" font-family="Helvetica,sans-Serif" font-size="10.00" fill="#000000">HtmlAttribList</text>
</a>
</g>
</g>
<!-- Node10&#45;&gt;Node9 -->
<g id="edge11" class="edge">
<title>Node10&#45;&gt;Node9</title>
<path fill="none" stroke="#9a32cd" stroke-dasharray="5,2" d="M285.1452,-102.6629C330.0477,-96.5581 398.3044,-91.3279 456,-104 476.4305,-108.4873 497.9794,-119.3982 512.0123,-127.4517"/>
<polygon fill="#9a32cd" stroke="#9a32cd" points="284.4985,-99.2196 275.0933,-104.0974 285.4875,-106.1494 284.4985,-99.2196"/>
<text text-anchor="middle" x="392.5" y="-107" font-family="Helvetica,sans-Serif" font-size="10.00" fill="#000000"> attribs</text>
</g>
<!-- Node11 -->
<g id="node11" class="node">
<title>Node11</title>
<g id="a_node11"><a xlink:title=" ">
<polygon fill="#ffffff" stroke="#666666" points="125,-120.5 0,-120.5 0,-101.5 125,-101.5 125,-120.5"/>
<text text-anchor="middle" x="62.5" y="-108.5" font-family="Helvetica,sans-Serif" font-size="10.00" fill="#000000">std::vector&lt; HtmlAttrib &gt;</text>
</a>
</g>
</g>
<!-- Node11&#45;&gt;Node10 -->
<g id="edge12" class="edge">
<title>Node11&#45;&gt;Node10</title>
<path fill="none" stroke="#63b8ff" d="M135.3908,-111C156.8225,-111 179.4279,-111 197.8162,-111"/>
<polygon fill="#63b8ff" stroke="#63b8ff" points="135.318,-107.5001 125.318,-111 135.318,-114.5001 135.318,-107.5001"/>
</g>
</g>
</svg>
        <g id="navigator" transform="translate(0 0)" fill="#404254">
                <rect fill="#f2f5e9" fill-opacity="0.5" stroke="#606060" stroke-width=".5" x="0" y="0" width="60" height="60"/>
                <use id="zoomplus" xlink:href="#zoomPlus" x="17" y="9" onmousedown="handleZoom(evt,'in')"/>
                <use id="zoomminus" xlink:href="#zoomMin" x="42" y="9" onmousedown="handleZoom(evt,'out')"/>
                <use id="reset" xlink:href="#resetDef" x="30" y="36" onmousedown="handleReset()"/>
                <g id="arrowUp" xlink:href="#dirArrow" transform="translate(30 24)" onmousedown="handlePan(0,-1)">
                  <use xlink:href="#rim" fill="#404040">
                        <set attributeName="fill" to="#808080" begin="arrowUp.mouseover" end="arrowUp.mouseout"/>
                  </use>
                  <path fill="none" stroke="white" stroke-width="1.5" d="M0,-3.0v7 M-2.5,-0.5L0,-3.0L2.5,-0.5"/>
                </g>
                <g id="arrowRight" xlink:href="#dirArrow" transform="rotate(90) translate(36 -43)" onmousedown="handlePan(1,0)">
                  <use xlink:href="#rim" fill="#404040">
                        <set attributeName="fill" to="#808080" begin="arrowRight.mouseover" end="arrowRight.mouseout"/>
                  </use>
                  <path fill="none" stroke="white" stroke-width="1.5" d="M0,-3.0v7 M-2.5,-0.5L0,-3.0L2.5,-0.5"/>
                </g>
                <g id="arrowDown" xlink:href="#dirArrow" transform="rotate(180) translate(-30 -48)" onmousedown="handlePan(0,1)">
                  <use xlink:href="#rim" fill="#404040">
                        <set attributeName="fill" to="#808080" begin="arrowDown.mouseover" end="arrowDown.mouseout"/>
                  </use>
                  <path fill="none" stroke="white" stroke-width="1.5" d="M0,-3.0v7 M-2.5,-0.5L0,-3.0L2.5,-0.5"/>
                </g>
                <g id="arrowLeft" xlink:href="#dirArrow" transform="rotate(270) translate(-36 17)" onmousedown="handlePan(-1,0)">
                  <use xlink:href="#rim" fill="#404040">
                        <set attributeName="fill" to="#808080" begin="arrowLeft.mouseover" end="arrowLeft.mouseout"/>
                  </use>
                  <path fill="none" stroke="white" stroke-width="1.5" d="M0,-3.0v7 M-2.5,-0.5L0,-3.0L2.5,-0.5"/>
                </g>
        </g>
        <svg viewBox="0 0 15 15" width="100%" height="30px" preserveAspectRatio="xMaxYMin meet">
         <g id="arrow_out" transform="scale(0.3 0.3)">
          <a xlink:href="struct_doc_parser_context__coll__graph_org.svg" target="_base">
           <rect id="button" ry="5" rx="5" y="6" x="6" height="38" width="38"
                fill="#f2f5e9" fill-opacity="0.5" stroke="#606060" stroke-width="1.0"/>
           <path id="arrow"
             d="M 11.500037,31.436501 C 11.940474,20.09759 22.043105,11.32322 32.158766,21.979434 L 37.068811,17.246167 C 37.068811,17.246167 37.088388,32 37.088388,32 L 22.160133,31.978069 C 22.160133,31.978069 26.997745,27.140456 26.997745,27.140456 C 18.528582,18.264221 13.291696,25.230495 11.500037,31.436501 z"
             style="fill:#404040;"/>
          </a>
         </g>
        </svg>
</svg>
