<?xml version="1.0" encoding="UTF-8" standalone="no"?>
<!DOCTYPE svg PUBLIC "-//W3C//DTD SVG 1.1//EN"
 "http://www.w3.org/Graphics/SVG/1.1/DTD/svg11.dtd">
<!-- Generated by graphviz version 2.40.1 (20161225.0304)
 -->
<!-- Title: TranslatorEsperanto Pages: 1 -->
<svg width="178pt" height="485pt"
 viewBox="0.00 0.00 177.50 485.00" xmlns="http://www.w3.org/2000/svg" xmlns:xlink="http://www.w3.org/1999/xlink">
<g id="graph0" class="graph" transform="scale(1 1) rotate(0) translate(4 481)">
<title>TranslatorEsperanto</title>
<!-- Node1 -->
<g id="node1" class="node">
<title>Node1</title>
<g id="a_node1"><a xlink:title=" ">
<polygon fill="#999999" stroke="#666666" points="117.5,-19 13.5,-19 13.5,0 117.5,0 117.5,-19"/>
<text text-anchor="middle" x="65.5" y="-7" font-family="Helvetica,sans-Serif" font-size="10.00" fill="#000000">TranslatorEsperanto</text>
</a>
</g>
</g>
<!-- Node2 -->
<g id="node2" class="node">
<title>Node2</title>
<g id="a_node2"><a xlink:href="../../de/d2f/class_translator_adapter__1__8__4.html" target="_top" xlink:title=" ">
<polygon fill="#ffffff" stroke="#666666" points="128,-75 3,-75 3,-56 128,-56 128,-75"/>
<text text-anchor="middle" x="65.5" y="-63" font-family="Helvetica,sans-Serif" font-size="10.00" fill="#000000">TranslatorAdapter_1_8_4</text>
</a>
</g>
</g>
<!-- Node2&#45;&gt;Node1 -->
<g id="edge1" class="edge">
<title>Node2&#45;&gt;Node1</title>
<path fill="none" stroke="#63b8ff" d="M65.5,-45.6575C65.5,-36.655 65.5,-26.4199 65.5,-19.1427"/>
<polygon fill="#63b8ff" stroke="#63b8ff" points="62.0001,-45.7455 65.5,-55.7455 69.0001,-45.7456 62.0001,-45.7455"/>
</g>
<!-- Node3 -->
<g id="node3" class="node">
<title>Node3</title>
<g id="a_node3"><a xlink:href="../../d4/d2e/class_translator_adapter__1__8__15.html" target="_top" xlink:title=" ">
<polygon fill="#ffffff" stroke="#666666" points="131,-131 0,-131 0,-112 131,-112 131,-131"/>
<text text-anchor="middle" x="65.5" y="-119" font-family="Helvetica,sans-Serif" font-size="10.00" fill="#000000">TranslatorAdapter_1_8_15</text>
</a>
</g>
</g>
<!-- Node3&#45;&gt;Node2 -->
<g id="edge2" class="edge">
<title>Node3&#45;&gt;Node2</title>
<path fill="none" stroke="#63b8ff" d="M65.5,-101.6575C65.5,-92.655 65.5,-82.4199 65.5,-75.1427"/>
<polygon fill="#63b8ff" stroke="#63b8ff" points="62.0001,-101.7455 65.5,-111.7455 69.0001,-101.7456 62.0001,-101.7455"/>
</g>
<!-- Node4 -->
<g id="node4" class="node">
<title>Node4</title>
<g id="a_node4"><a xlink:href="../../de/dde/class_translator_adapter__1__8__19.html" target="_top" xlink:title=" ">
<polygon fill="#ffffff" stroke="#666666" points="131,-187 0,-187 0,-168 131,-168 131,-187"/>
<text text-anchor="middle" x="65.5" y="-175" font-family="Helvetica,sans-Serif" font-size="10.00" fill="#000000">TranslatorAdapter_1_8_19</text>
</a>
</g>
</g>
<!-- Node4&#45;&gt;Node3 -->
<g id="edge3" class="edge">
<title>Node4&#45;&gt;Node3</title>
<path fill="none" stroke="#63b8ff" d="M65.5,-157.6575C65.5,-148.655 65.5,-138.4199 65.5,-131.1427"/>
<polygon fill="#63b8ff" stroke="#63b8ff" points="62.0001,-157.7455 65.5,-167.7455 69.0001,-157.7456 62.0001,-157.7455"/>
</g>
<!-- Node5 -->
<g id="node5" class="node">
<title>Node5</title>
<g id="a_node5"><a xlink:href="../../d3/d2e/class_translator_adapter__1__9__2.html" target="_top" xlink:title=" ">
<polygon fill="#ffffff" stroke="#666666" points="128,-243 3,-243 3,-224 128,-224 128,-243"/>
<text text-anchor="middle" x="65.5" y="-231" font-family="Helvetica,sans-Serif" font-size="10.00" fill="#000000">TranslatorAdapter_1_9_2</text>
</a>
</g>
</g>
<!-- Node5&#45;&gt;Node4 -->
<g id="edge4" class="edge">
<title>Node5&#45;&gt;Node4</title>
<path fill="none" stroke="#63b8ff" d="M65.5,-213.6575C65.5,-204.655 65.5,-194.4199 65.5,-187.1427"/>
<polygon fill="#63b8ff" stroke="#63b8ff" points="62.0001,-213.7455 65.5,-223.7455 69.0001,-213.7456 62.0001,-213.7455"/>
</g>
<!-- Node6 -->
<g id="node6" class="node">
<title>Node6</title>
<g id="a_node6"><a xlink:href="../../d0/d33/class_translator_adapter__1__9__4.html" target="_top" xlink:title=" ">
<polygon fill="#ffffff" stroke="#666666" points="128,-299 3,-299 3,-280 128,-280 128,-299"/>
<text text-anchor="middle" x="65.5" y="-287" font-family="Helvetica,sans-Serif" font-size="10.00" fill="#000000">TranslatorAdapter_1_9_4</text>
</a>
</g>
</g>
<!-- Node6&#45;&gt;Node5 -->
<g id="edge5" class="edge">
<title>Node6&#45;&gt;Node5</title>
<path fill="none" stroke="#63b8ff" d="M65.5,-269.6575C65.5,-260.655 65.5,-250.4199 65.5,-243.1427"/>
<polygon fill="#63b8ff" stroke="#63b8ff" points="62.0001,-269.7455 65.5,-279.7455 69.0001,-269.7456 62.0001,-269.7455"/>
</g>
<!-- Node7 -->
<g id="node7" class="node">
<title>Node7</title>
<g id="a_node7"><a xlink:href="../../db/d6c/class_translator_adapter_base.html" target="_top" xlink:title="Base of the translator adapter tree.">
<polygon fill="#ffffff" stroke="#666666" points="123.5,-355 7.5,-355 7.5,-336 123.5,-336 123.5,-355"/>
<text text-anchor="middle" x="65.5" y="-343" font-family="Helvetica,sans-Serif" font-size="10.00" fill="#000000">TranslatorAdapterBase</text>
</a>
</g>
</g>
<!-- Node7&#45;&gt;Node6 -->
<g id="edge6" class="edge">
<title>Node7&#45;&gt;Node6</title>
<path fill="none" stroke="#63b8ff" d="M65.5,-325.6575C65.5,-316.655 65.5,-306.4199 65.5,-299.1427"/>
<polygon fill="#63b8ff" stroke="#63b8ff" points="62.0001,-325.7455 65.5,-335.7455 69.0001,-325.7456 62.0001,-325.7455"/>
</g>
<!-- Node8 -->
<g id="node8" class="node">
<title>Node8</title>
<g id="a_node8"><a xlink:href="../../d8/dfb/class_translator.html" target="_top" xlink:title="Abstract base class for all translatable text fragments.">
<polygon fill="#ffffff" stroke="#666666" points="91.5,-477 31.5,-477 31.5,-458 91.5,-458 91.5,-477"/>
<text text-anchor="middle" x="61.5" y="-465" font-family="Helvetica,sans-Serif" font-size="10.00" fill="#000000">Translator</text>
</a>
</g>
</g>
<!-- Node8&#45;&gt;Node7 -->
<g id="edge7" class="edge">
<title>Node8&#45;&gt;Node7</title>
<path fill="none" stroke="#63b8ff" d="M62.1429,-447.8912C63.0138,-421.3282 64.5346,-374.9446 65.1876,-355.0287"/>
<polygon fill="#63b8ff" stroke="#63b8ff" points="58.6435,-447.8175 61.8139,-457.9269 65.6398,-448.047 58.6435,-447.8175"/>
</g>
<!-- Node9 -->
<g id="node9" class="node">
<title>Node9</title>
<g id="a_node9"><a xlink:href="../../d6/d78/class_translator_english.html" target="_top" xlink:title=" ">
<polygon fill="#ffffff" stroke="#666666" points="169.5,-421 77.5,-421 77.5,-402 169.5,-402 169.5,-421"/>
<text text-anchor="middle" x="123.5" y="-409" font-family="Helvetica,sans-Serif" font-size="10.00" fill="#000000">TranslatorEnglish</text>
</a>
</g>
</g>
<!-- Node8&#45;&gt;Node9 -->
<g id="edge9" class="edge">
<title>Node8&#45;&gt;Node9</title>
<path fill="none" stroke="#63b8ff" d="M79.9221,-450.8607C90.6481,-441.1727 103.7934,-429.2995 112.8242,-421.1427"/>
<polygon fill="#63b8ff" stroke="#63b8ff" points="77.3746,-448.4453 72.2996,-457.7455 82.0666,-453.64 77.3746,-448.4453"/>
</g>
<!-- Node9&#45;&gt;Node7 -->
<g id="edge8" class="edge">
<title>Node9&#45;&gt;Node7</title>
<path fill="none" stroke="#9a32cd" stroke-dasharray="5,2" d="M108.0413,-393.909C97.1669,-381.5347 83.0167,-365.4328 74.0932,-355.2785"/>
<polygon fill="#9a32cd" stroke="#9a32cd" points="105.7116,-396.5602 114.9419,-401.7615 110.9698,-391.9394 105.7116,-396.5602"/>
<text text-anchor="middle" x="114.5" y="-376" font-family="Helvetica,sans-Serif" font-size="10.00" fill="#000000"> english</text>
</g>
</g>
</svg>
