<?xml version="1.0" encoding="UTF-8" standalone="no"?>
<!DOCTYPE svg PUBLIC "-//W3C//DTD SVG 1.1//EN"
 "http://www.w3.org/Graphics/SVG/1.1/DTD/svg11.dtd">
<!-- Generated by graphviz version 2.40.1 (20161225.0304)
 -->
<!-- Title: src/translator.h Pages: 1 -->
<svg width="5140pt" height="137pt"
 viewBox="0.00 0.00 5140.00 137.00" xmlns="http://www.w3.org/2000/svg" xmlns:xlink="http://www.w3.org/1999/xlink">
<g id="graph0" class="graph" transform="scale(1 1) rotate(0) translate(4 133)">
<title>src/translator.h</title>
<!-- Node1 -->
<g id="node1" class="node">
<title>Node1</title>
<g id="a_node1"><a xlink:title=" ">
<polygon fill="#999999" stroke="#666666" points="174.5,-129 92.5,-129 92.5,-110 174.5,-110 174.5,-129"/>
<text text-anchor="middle" x="133.5" y="-117" font-family="Helvetica,sans-Serif" font-size="10.00" fill="#000000">src/translator.h</text>
</a>
</g>
</g>
<!-- Node2 -->
<g id="node2" class="node">
<title>Node2</title>
<g id="a_node2"><a xlink:href="../../d2/d48/language_8cpp.html" target="_top" xlink:title=" ">
<polygon fill="#ffffff" stroke="#666666" points="91,-19 0,-19 0,0 91,0 91,-19"/>
<text text-anchor="middle" x="45.5" y="-7" font-family="Helvetica,sans-Serif" font-size="10.00" fill="#000000">src/language.cpp</text>
</a>
</g>
</g>
<!-- Node1&#45;&gt;Node2 -->
<g id="edge1" class="edge">
<title>Node1&#45;&gt;Node2</title>
<path fill="none" stroke="#63b8ff" d="M102.257,-105.1193C88.9142,-97.5636 74.2102,-87.1197 64.5,-74 52.1384,-57.2979 47.7814,-32.639 46.274,-19.163"/>
<polygon fill="#63b8ff" stroke="#63b8ff" points="100.7279,-108.2703 111.1988,-109.8861 104.0209,-102.0932 100.7279,-108.2703"/>
</g>
<!-- Node3 -->
<g id="node3" class="node">
<title>Node3</title>
<g id="a_node3"><a xlink:href="../../d8/dce/language_8h.html" target="_top" xlink:title=" ">
<polygon fill="#ffffff" stroke="#666666" points="2533.5,-74 2453.5,-74 2453.5,-55 2533.5,-55 2533.5,-74"/>
<text text-anchor="middle" x="2493.5" y="-62" font-family="Helvetica,sans-Serif" font-size="10.00" fill="#000000">src/language.h</text>
</a>
</g>
</g>
<!-- Node1&#45;&gt;Node3 -->
<g id="edge2" class="edge">
<title>Node1&#45;&gt;Node3</title>
<path fill="none" stroke="#63b8ff" d="M184.9409,-118.3012C500.6637,-110.9432 2171.9099,-71.9947 2453.2714,-65.4375"/>
<polygon fill="#63b8ff" stroke="#63b8ff" points="184.6273,-114.8074 174.7116,-118.5396 184.7904,-121.8055 184.6273,-114.8074"/>
</g>
<!-- Node49 -->
<g id="node49" class="node">
<title>Node49</title>
<g id="a_node49"><a xlink:href="../../da/de6/translator__adapter_8h.html" target="_top" xlink:title=" ">
<polygon fill="#ffffff" stroke="#666666" points="193,-74 74,-74 74,-55 193,-55 193,-74"/>
<text text-anchor="middle" x="133.5" y="-62" font-family="Helvetica,sans-Serif" font-size="10.00" fill="#000000">src/translator_adapter.h</text>
</a>
</g>
</g>
<!-- Node1&#45;&gt;Node49 -->
<g id="edge49" class="edge">
<title>Node1&#45;&gt;Node49</title>
<path fill="none" stroke="#63b8ff" d="M133.5,-99.8553C133.5,-91.2036 133.5,-81.4195 133.5,-74.3408"/>
<polygon fill="#63b8ff" stroke="#63b8ff" points="130.0001,-99.9197 133.5,-109.9197 137.0001,-99.9198 130.0001,-99.9197"/>
</g>
<!-- Node3&#45;&gt;Node2 -->
<g id="edge27" class="edge">
<title>Node3&#45;&gt;Node2</title>
<path fill="none" stroke="#63b8ff" d="M2443.1998,-64.0037C2119.9853,-60.7533 341.0377,-41.9263 100.5,-19 97.4132,-18.7058 94.2387,-18.3367 91.0467,-17.916"/>
<polygon fill="#63b8ff" stroke="#63b8ff" points="2443.1756,-67.5035 2453.2103,-64.104 2443.2459,-60.5038 2443.1756,-67.5035"/>
</g>
<!-- Node4 -->
<g id="node4" class="node">
<title>Node4</title>
<g id="a_node4"><a xlink:href="../../d5/d0b/cite_8cpp.html" target="_top" xlink:title=" ">
<polygon fill="#ffffff" stroke="#666666" points="177.5,-19 109.5,-19 109.5,0 177.5,0 177.5,-19"/>
<text text-anchor="middle" x="143.5" y="-7" font-family="Helvetica,sans-Serif" font-size="10.00" fill="#000000">src/cite.cpp</text>
</a>
</g>
</g>
<!-- Node3&#45;&gt;Node4 -->
<g id="edge3" class="edge">
<title>Node3&#45;&gt;Node4</title>
<path fill="none" stroke="#63b8ff" d="M2443.0461,-64.0891C2126.3174,-61.4319 418.2938,-45.9365 187.5,-19 184.2399,-18.6195 180.8651,-18.1081 177.5012,-17.5191"/>
<polygon fill="#63b8ff" stroke="#63b8ff" points="2443.2667,-67.5909 2453.2957,-64.1746 2443.3253,-60.5912 2443.2667,-67.5909"/>
</g>
<!-- Node5 -->
<g id="node5" class="node">
<title>Node5</title>
<g id="a_node5"><a xlink:href="../../de/d89/classdef_8cpp.html" target="_top" xlink:title=" ">
<polygon fill="#ffffff" stroke="#666666" points="285,-19 196,-19 196,0 285,0 285,-19"/>
<text text-anchor="middle" x="240.5" y="-7" font-family="Helvetica,sans-Serif" font-size="10.00" fill="#000000">src/classdef.cpp</text>
</a>
</g>
</g>
<!-- Node3&#45;&gt;Node5 -->
<g id="edge4" class="edge">
<title>Node3&#45;&gt;Node5</title>
<path fill="none" stroke="#63b8ff" d="M2442.9718,-63.9304C2134.7368,-60.3922 513.5192,-40.8579 293.5,-19 290.8023,-18.732 288.0358,-18.4028 285.2505,-18.0297"/>
<polygon fill="#63b8ff" stroke="#63b8ff" points="2443.3388,-67.4347 2453.3783,-64.0494 2443.419,-60.4352 2443.3388,-67.4347"/>
</g>
<!-- Node6 -->
<g id="node6" class="node">
<title>Node6</title>
<g id="a_node6"><a xlink:href="../../d6/d10/classlist_8cpp.html" target="_top" xlink:title=" ">
<polygon fill="#ffffff" stroke="#666666" points="390.5,-19 302.5,-19 302.5,0 390.5,0 390.5,-19"/>
<text text-anchor="middle" x="346.5" y="-7" font-family="Helvetica,sans-Serif" font-size="10.00" fill="#000000">src/classlist.cpp</text>
</a>
</g>
</g>
<!-- Node3&#45;&gt;Node6 -->
<g id="edge5" class="edge">
<title>Node3&#45;&gt;Node6</title>
<path fill="none" stroke="#63b8ff" d="M2443.0312,-63.8745C2143.7966,-60.1034 608.3533,-39.8589 399.5,-19 396.6165,-18.712 393.6541,-18.3545 390.6743,-17.9484"/>
<polygon fill="#63b8ff" stroke="#63b8ff" points="2443.1069,-67.3757 2453.1501,-64.0017 2443.1949,-60.3762 2443.1069,-67.3757"/>
</g>
<!-- Node7 -->
<g id="node7" class="node">
<title>Node7</title>
<g id="a_node7"><a xlink:href="../../d7/d5f/commentscan_8l.html" target="_top" xlink:title=" ">
<polygon fill="#ffffff" stroke="#666666" points="508.5,-19 408.5,-19 408.5,0 508.5,0 508.5,-19"/>
<text text-anchor="middle" x="458.5" y="-7" font-family="Helvetica,sans-Serif" font-size="10.00" fill="#000000">src/commentscan.l</text>
</a>
</g>
</g>
<!-- Node3&#45;&gt;Node7 -->
<g id="edge6" class="edge">
<title>Node3&#45;&gt;Node7</title>
<path fill="none" stroke="#63b8ff" d="M2442.8899,-64.2724C2173.7028,-62.9194 907.6112,-54.73 517.5,-19 514.6071,-18.735 511.6412,-18.4144 508.6529,-18.0534"/>
<polygon fill="#63b8ff" stroke="#63b8ff" points="2443.1232,-67.7735 2453.1404,-64.323 2443.1579,-60.7736 2443.1232,-67.7735"/>
</g>
<!-- Node8 -->
<g id="node8" class="node">
<title>Node8</title>
<g id="a_node8"><a xlink:href="../../d8/d0a/conceptdef_8cpp.html" target="_top" xlink:title=" ">
<polygon fill="#ffffff" stroke="#666666" points="626.5,-19 526.5,-19 526.5,0 626.5,0 626.5,-19"/>
<text text-anchor="middle" x="576.5" y="-7" font-family="Helvetica,sans-Serif" font-size="10.00" fill="#000000">src/conceptdef.cpp</text>
</a>
</g>
</g>
<!-- Node3&#45;&gt;Node8 -->
<g id="edge7" class="edge">
<title>Node3&#45;&gt;Node8</title>
<path fill="none" stroke="#63b8ff" d="M2443.0655,-64.1694C2184.093,-62.3338 1001.7803,-52.2454 636.5,-19 633.2441,-18.7037 629.8969,-18.3398 626.5282,-17.9291"/>
<polygon fill="#63b8ff" stroke="#63b8ff" points="2443.2735,-67.6708 2453.2978,-64.241 2443.3225,-60.671 2443.2735,-67.6708"/>
</g>
<!-- Node9 -->
<g id="node9" class="node">
<title>Node9</title>
<g id="a_node9"><a xlink:href="../../d9/de3/configimpl_8l.html" target="_top" xlink:title=" ">
<polygon fill="#ffffff" stroke="#666666" points="728,-19 645,-19 645,0 728,0 728,-19"/>
<text text-anchor="middle" x="686.5" y="-7" font-family="Helvetica,sans-Serif" font-size="10.00" fill="#000000">src/configimpl.l</text>
</a>
</g>
</g>
<!-- Node3&#45;&gt;Node9 -->
<g id="edge8" class="edge">
<title>Node3&#45;&gt;Node9</title>
<path fill="none" stroke="#63b8ff" d="M2443.0017,-64.2712C2192.4494,-62.9712 1081.1496,-55.2284 737.5,-19 734.4547,-18.679 731.3187,-18.2756 728.1698,-17.8175"/>
<polygon fill="#63b8ff" stroke="#63b8ff" points="2443.2429,-67.7724 2453.2606,-64.3233 2443.2785,-60.7725 2443.2429,-67.7724"/>
</g>
<!-- Node10 -->
<g id="node10" class="node">
<title>Node10</title>
<g id="a_node10"><a xlink:href="../../db/d12/context_8cpp.html" target="_top" xlink:title=" ">
<polygon fill="#ffffff" stroke="#666666" points="830.5,-19 746.5,-19 746.5,0 830.5,0 830.5,-19"/>
<text text-anchor="middle" x="788.5" y="-7" font-family="Helvetica,sans-Serif" font-size="10.00" fill="#000000">src/context.cpp</text>
</a>
</g>
</g>
<!-- Node3&#45;&gt;Node10 -->
<g id="edge9" class="edge">
<title>Node3&#45;&gt;Node10</title>
<path fill="none" stroke="#63b8ff" d="M2443.2735,-64.1553C2202.2696,-62.3425 1162.8225,-52.6785 840.5,-19 837.3054,-18.6662 834.0123,-18.2461 830.7074,-17.7695"/>
<polygon fill="#63b8ff" stroke="#63b8ff" points="2443.4619,-67.6567 2453.4876,-64.231 2443.5139,-60.6569 2443.4619,-67.6567"/>
</g>
<!-- Node11 -->
<g id="node11" class="node">
<title>Node11</title>
<g id="a_node11"><a xlink:href="../../d3/dea/definition_8cpp.html" target="_top" xlink:title=" ">
<polygon fill="#ffffff" stroke="#666666" points="940,-19 849,-19 849,0 940,0 940,-19"/>
<text text-anchor="middle" x="894.5" y="-7" font-family="Helvetica,sans-Serif" font-size="10.00" fill="#000000">src/definition.cpp</text>
</a>
</g>
</g>
<!-- Node3&#45;&gt;Node11 -->
<g id="edge10" class="edge">
<title>Node3&#45;&gt;Node11</title>
<path fill="none" stroke="#63b8ff" d="M2443.2583,-63.9771C2212.0895,-61.4245 1249.241,-49.1501 949.5,-19 946.4148,-18.6897 943.2415,-18.3085 940.0503,-17.879"/>
<polygon fill="#63b8ff" stroke="#63b8ff" points="2443.3558,-67.4783 2453.3935,-64.088 2443.4324,-60.4787 2443.3558,-67.4783"/>
</g>
<!-- Node12 -->
<g id="node12" class="node">
<title>Node12</title>
<g id="a_node12"><a xlink:href="../../d8/d52/dirdef_8cpp.html" target="_top" xlink:title=" ">
<polygon fill="#ffffff" stroke="#666666" points="1034.5,-19 958.5,-19 958.5,0 1034.5,0 1034.5,-19"/>
<text text-anchor="middle" x="996.5" y="-7" font-family="Helvetica,sans-Serif" font-size="10.00" fill="#000000">src/dirdef.cpp</text>
</a>
</g>
</g>
<!-- Node3&#45;&gt;Node12 -->
<g id="edge11" class="edge">
<title>Node3&#45;&gt;Node12</title>
<path fill="none" stroke="#63b8ff" d="M2443.4376,-64.0589C2221.2921,-61.9282 1323.3306,-51.4379 1043.5,-19 1040.6057,-18.6645 1037.6243,-18.2432 1034.6337,-17.7657"/>
<polygon fill="#63b8ff" stroke="#63b8ff" points="2443.4673,-67.5593 2453.5,-64.1541 2443.5336,-60.5596 2443.4673,-67.5593"/>
</g>
<!-- Node13 -->
<g id="node13" class="node">
<title>Node13</title>
<g id="a_node13"><a xlink:href="../../d8/d29/docbookgen_8cpp.html" target="_top" xlink:title=" ">
<polygon fill="#ffffff" stroke="#666666" points="1156.5,-19 1052.5,-19 1052.5,0 1156.5,0 1156.5,-19"/>
<text text-anchor="middle" x="1104.5" y="-7" font-family="Helvetica,sans-Serif" font-size="10.00" fill="#000000">src/docbookgen.cpp</text>
</a>
</g>
</g>
<!-- Node3&#45;&gt;Node13 -->
<g id="edge12" class="edge">
<title>Node3&#45;&gt;Node13</title>
<path fill="none" stroke="#63b8ff" d="M2443.3335,-63.5718C2233.0088,-59.558 1421.4083,-42.8159 1166.5,-19 1163.2473,-18.6961 1159.9055,-18.333 1156.5402,-17.9287"/>
<polygon fill="#63b8ff" stroke="#63b8ff" points="2443.4012,-67.0736 2453.4659,-63.7642 2443.5342,-60.0749 2443.4012,-67.0736"/>
</g>
<!-- Node14 -->
<g id="node14" class="node">
<title>Node14</title>
<g id="a_node14"><a xlink:href="../../dc/d05/docbookvisitor_8cpp.html" target="_top" xlink:title=" ">
<polygon fill="#ffffff" stroke="#666666" points="1290,-19 1175,-19 1175,0 1290,0 1290,-19"/>
<text text-anchor="middle" x="1232.5" y="-7" font-family="Helvetica,sans-Serif" font-size="10.00" fill="#000000">src/docbookvisitor.cpp</text>
</a>
</g>
</g>
<!-- Node3&#45;&gt;Node14 -->
<g id="edge13" class="edge">
<title>Node3&#45;&gt;Node14</title>
<path fill="none" stroke="#63b8ff" d="M2443.2868,-63.2757C2246.4306,-58.3691 1526.9651,-39.4059 1299.5,-19 1296.4577,-18.7271 1293.3422,-18.4116 1290.1998,-18.065"/>
<polygon fill="#63b8ff" stroke="#63b8ff" points="2443.262,-66.7761 2453.3458,-63.5255 2443.4359,-59.7782 2443.262,-66.7761"/>
</g>
<!-- Node15 -->
<g id="node15" class="node">
<title>Node15</title>
<g id="a_node15"><a xlink:href="../../de/daa/dot_8cpp.html" target="_top" xlink:title=" ">
<polygon fill="#ffffff" stroke="#666666" points="1373,-19 1308,-19 1308,0 1373,0 1373,-19"/>
<text text-anchor="middle" x="1340.5" y="-7" font-family="Helvetica,sans-Serif" font-size="10.00" fill="#000000">src/dot.cpp</text>
</a>
</g>
</g>
<!-- Node3&#45;&gt;Node15 -->
<g id="edge14" class="edge">
<title>Node3&#45;&gt;Node15</title>
<path fill="none" stroke="#63b8ff" d="M2443.0457,-63.6508C2254.5549,-60.2892 1591.8034,-46.7234 1382.5,-19 1379.5355,-18.6073 1376.4721,-18.1055 1373.4129,-17.5381"/>
<polygon fill="#63b8ff" stroke="#63b8ff" points="2443.1611,-67.1533 2453.2214,-63.8306 2443.2848,-60.1544 2443.1611,-67.1533"/>
</g>
<!-- Node16 -->
<g id="node16" class="node">
<title>Node16</title>
<g id="a_node16"><a xlink:href="../../d4/d09/dotgfxhierarchytable_8cpp.html" target="_top" xlink:title=" ">
<polygon fill="#ffffff" stroke="#666666" points="1531.5,-19 1391.5,-19 1391.5,0 1531.5,0 1531.5,-19"/>
<text text-anchor="middle" x="1461.5" y="-7" font-family="Helvetica,sans-Serif" font-size="10.00" fill="#000000">src/dotgfxhierarchytable.cpp</text>
</a>
</g>
</g>
<!-- Node3&#45;&gt;Node16 -->
<g id="edge15" class="edge">
<title>Node3&#45;&gt;Node16</title>
<path fill="none" stroke="#63b8ff" d="M2443.3545,-63.3775C2301.4675,-59.9271 1885.1048,-47.9086 1540.5,-19 1537.6092,-18.7575 1534.6611,-18.4908 1531.6845,-18.2057"/>
<polygon fill="#63b8ff" stroke="#63b8ff" points="2443.4045,-66.8796 2453.4856,-63.6205 2443.5725,-59.8816 2443.4045,-66.8796"/>
</g>
<!-- Node17 -->
<g id="node17" class="node">
<title>Node17</title>
<g id="a_node17"><a xlink:href="../../d4/d33/dotlegendgraph_8cpp.html" target="_top" xlink:title=" ">
<polygon fill="#ffffff" stroke="#666666" points="1667.5,-19 1549.5,-19 1549.5,0 1667.5,0 1667.5,-19"/>
<text text-anchor="middle" x="1608.5" y="-7" font-family="Helvetica,sans-Serif" font-size="10.00" fill="#000000">src/dotlegendgraph.cpp</text>
</a>
</g>
</g>
<!-- Node3&#45;&gt;Node17 -->
<g id="edge16" class="edge">
<title>Node3&#45;&gt;Node17</title>
<path fill="none" stroke="#63b8ff" d="M2443.175,-63.1538C2315.0156,-59.4097 1965.9862,-47.2331 1676.5,-19 1673.6527,-18.7223 1670.7415,-18.4132 1667.8036,-18.081"/>
<polygon fill="#63b8ff" stroke="#63b8ff" points="2443.3571,-66.6604 2453.4537,-63.4498 2443.5586,-59.6633 2443.3571,-66.6604"/>
</g>
<!-- Node18 -->
<g id="node18" class="node">
<title>Node18</title>
<g id="a_node18"><a xlink:href="../../df/d58/dotnode_8cpp.html" target="_top" xlink:title=" ">
<polygon fill="#ffffff" stroke="#666666" points="1771.5,-19 1685.5,-19 1685.5,0 1771.5,0 1771.5,-19"/>
<text text-anchor="middle" x="1728.5" y="-7" font-family="Helvetica,sans-Serif" font-size="10.00" fill="#000000">src/dotnode.cpp</text>
</a>
</g>
</g>
<!-- Node3&#45;&gt;Node18 -->
<g id="edge17" class="edge">
<title>Node3&#45;&gt;Node18</title>
<path fill="none" stroke="#63b8ff" d="M2443.1407,-63.2459C2326.4361,-59.9115 2028.5779,-48.9403 1781.5,-19 1778.2519,-18.6064 1774.9014,-18.1429 1771.537,-17.6359"/>
<polygon fill="#63b8ff" stroke="#63b8ff" points="2443.1122,-66.7464 2453.2061,-63.5273 2443.3079,-59.7492 2443.1122,-66.7464"/>
</g>
<!-- Node19 -->
<g id="node19" class="node">
<title>Node19</title>
<g id="a_node19"><a xlink:href="../../dc/d98/doxygen_8cpp.html" target="_top" xlink:title=" ">
<polygon fill="#ffffff" stroke="#666666" points="1879,-19 1790,-19 1790,0 1879,0 1879,-19"/>
<text text-anchor="middle" x="1834.5" y="-7" font-family="Helvetica,sans-Serif" font-size="10.00" fill="#000000">src/doxygen.cpp</text>
</a>
</g>
</g>
<!-- Node3&#45;&gt;Node19 -->
<g id="edge18" class="edge">
<title>Node3&#45;&gt;Node19</title>
<path fill="none" stroke="#63b8ff" d="M2443.1641,-62.403C2339.2081,-57.7009 2093.3677,-44.6604 1888.5,-19 1885.4775,-18.6214 1882.367,-18.1891 1879.2375,-17.7223"/>
<polygon fill="#63b8ff" stroke="#63b8ff" points="2443.2192,-65.9089 2453.3653,-62.8582 2443.5313,-58.9158 2443.2192,-65.9089"/>
</g>
<!-- Node20 -->
<g id="node20" class="node">
<title>Node20</title>
<g id="a_node20"><a xlink:href="../../d6/ddc/filedef_8cpp.html" target="_top" xlink:title=" ">
<polygon fill="#ffffff" stroke="#666666" points="1975.5,-19 1897.5,-19 1897.5,0 1975.5,0 1975.5,-19"/>
<text text-anchor="middle" x="1936.5" y="-7" font-family="Helvetica,sans-Serif" font-size="10.00" fill="#000000">src/filedef.cpp</text>
</a>
</g>
</g>
<!-- Node3&#45;&gt;Node20 -->
<g id="edge19" class="edge">
<title>Node3&#45;&gt;Node20</title>
<path fill="none" stroke="#63b8ff" d="M2443.4252,-61.7172C2352.086,-56.2633 2152.4453,-42.5969 1985.5,-19 1982.3254,-18.5513 1979.0448,-18.0338 1975.7553,-17.4769"/>
<polygon fill="#63b8ff" stroke="#63b8ff" points="2443.3063,-65.2162 2453.4951,-62.3113 2443.7186,-58.2283 2443.3063,-65.2162"/>
</g>
<!-- Node21 -->
<g id="node21" class="node">
<title>Node21</title>
<g id="a_node21"><a xlink:href="../../dd/d00/fortranscanner_8l.html" target="_top" xlink:title=" ">
<polygon fill="#ffffff" stroke="#666666" points="2095,-19 1994,-19 1994,0 2095,0 2095,-19"/>
<text text-anchor="middle" x="2044.5" y="-7" font-family="Helvetica,sans-Serif" font-size="10.00" fill="#000000">src/fortranscanner.l</text>
</a>
</g>
</g>
<!-- Node3&#45;&gt;Node21 -->
<g id="edge20" class="edge">
<title>Node3&#45;&gt;Node21</title>
<path fill="none" stroke="#63b8ff" d="M2443.3967,-59.2971C2369.238,-51.4473 2225.9314,-35.708 2104.5,-19 2101.4701,-18.5831 2098.3567,-18.1388 2095.2176,-17.6785"/>
<polygon fill="#63b8ff" stroke="#63b8ff" points="2443.0804,-62.7831 2453.3925,-60.3517 2443.8149,-55.8217 2443.0804,-62.7831"/>
</g>
<!-- Node22 -->
<g id="node22" class="node">
<title>Node22</title>
<g id="a_node22"><a xlink:href="../../db/d41/ftvhelp_8cpp.html" target="_top" xlink:title=" ">
<polygon fill="#ffffff" stroke="#666666" points="2194,-19 2113,-19 2113,0 2194,0 2194,-19"/>
<text text-anchor="middle" x="2153.5" y="-7" font-family="Helvetica,sans-Serif" font-size="10.00" fill="#000000">src/ftvhelp.cpp</text>
</a>
</g>
</g>
<!-- Node3&#45;&gt;Node22 -->
<g id="edge21" class="edge">
<title>Node3&#45;&gt;Node22</title>
<path fill="none" stroke="#63b8ff" d="M2443.0985,-57.0943C2385.1873,-48.4686 2287.3443,-33.5388 2203.5,-19 2200.4529,-18.4716 2197.3044,-17.9102 2194.1392,-17.3345"/>
<polygon fill="#63b8ff" stroke="#63b8ff" points="2442.6804,-60.5705 2453.0862,-58.5783 2443.7093,-53.6465 2442.6804,-60.5705"/>
</g>
<!-- Node23 -->
<g id="node23" class="node">
<title>Node23</title>
<g id="a_node23"><a xlink:href="../../d6/d42/groupdef_8cpp.html" target="_top" xlink:title=" ">
<polygon fill="#ffffff" stroke="#666666" points="2301,-19 2212,-19 2212,0 2301,0 2301,-19"/>
<text text-anchor="middle" x="2256.5" y="-7" font-family="Helvetica,sans-Serif" font-size="10.00" fill="#000000">src/groupdef.cpp</text>
</a>
</g>
</g>
<!-- Node3&#45;&gt;Node23 -->
<g id="edge22" class="edge">
<title>Node3&#45;&gt;Node23</title>
<path fill="none" stroke="#63b8ff" d="M2443.5282,-52.9032C2400.1966,-42.8473 2338.2387,-28.4689 2297.6976,-19.0606"/>
<polygon fill="#63b8ff" stroke="#63b8ff" points="2442.7638,-56.3187 2453.2962,-55.17 2444.3463,-49.4999 2442.7638,-56.3187"/>
</g>
<!-- Node24 -->
<g id="node24" class="node">
<title>Node24</title>
<g id="a_node24"><a xlink:href="../../da/db0/htmldocvisitor_8cpp.html" target="_top" xlink:title=" ">
<polygon fill="#ffffff" stroke="#666666" points="2432,-19 2319,-19 2319,0 2432,0 2432,-19"/>
<text text-anchor="middle" x="2375.5" y="-7" font-family="Helvetica,sans-Serif" font-size="10.00" fill="#000000">src/htmldocvisitor.cpp</text>
</a>
</g>
</g>
<!-- Node3&#45;&gt;Node24 -->
<g id="edge23" class="edge">
<title>Node3&#45;&gt;Node24</title>
<path fill="none" stroke="#63b8ff" d="M2463.7857,-50.6501C2442.702,-40.823 2414.9334,-27.88 2396.2144,-19.155"/>
<polygon fill="#63b8ff" stroke="#63b8ff" points="2462.4035,-53.8674 2472.946,-54.9197 2465.3608,-47.5227 2462.4035,-53.8674"/>
</g>
<!-- Node25 -->
<g id="node25" class="node">
<title>Node25</title>
<g id="a_node25"><a xlink:href="../../d8/d6e/htmlgen_8cpp.html" target="_top" xlink:title=" ">
<polygon fill="#ffffff" stroke="#666666" points="2536.5,-19 2450.5,-19 2450.5,0 2536.5,0 2536.5,-19"/>
<text text-anchor="middle" x="2493.5" y="-7" font-family="Helvetica,sans-Serif" font-size="10.00" fill="#000000">src/htmlgen.cpp</text>
</a>
</g>
</g>
<!-- Node3&#45;&gt;Node25 -->
<g id="edge24" class="edge">
<title>Node3&#45;&gt;Node25</title>
<path fill="none" stroke="#63b8ff" d="M2493.5,-44.8553C2493.5,-36.2036 2493.5,-26.4195 2493.5,-19.3408"/>
<polygon fill="#63b8ff" stroke="#63b8ff" points="2490.0001,-44.9197 2493.5,-54.9197 2497.0001,-44.9198 2490.0001,-44.9197"/>
</g>
<!-- Node26 -->
<g id="node26" class="node">
<title>Node26</title>
<g id="a_node26"><a xlink:href="../../d3/d4b/htmlhelp_8cpp.html" target="_top" xlink:title=" ">
<polygon fill="#ffffff" stroke="#666666" points="2644,-19 2555,-19 2555,0 2644,0 2644,-19"/>
<text text-anchor="middle" x="2599.5" y="-7" font-family="Helvetica,sans-Serif" font-size="10.00" fill="#000000">src/htmlhelp.cpp</text>
</a>
</g>
</g>
<!-- Node3&#45;&gt;Node26 -->
<g id="edge25" class="edge">
<title>Node3&#45;&gt;Node26</title>
<path fill="none" stroke="#63b8ff" d="M2520.9635,-50.25C2539.8048,-40.4739 2564.304,-27.7621 2580.8921,-19.155"/>
<polygon fill="#63b8ff" stroke="#63b8ff" points="2519.2281,-47.2074 2511.9638,-54.9197 2522.4521,-53.4208 2519.2281,-47.2074"/>
</g>
<!-- Node27 -->
<g id="node27" class="node">
<title>Node27</title>
<g id="a_node27"><a xlink:href="../../db/d14/index_8cpp.html" target="_top" xlink:title="This file contains functions for the various index pages.">
<polygon fill="#ffffff" stroke="#666666" points="2737,-19 2662,-19 2662,0 2737,0 2737,-19"/>
<text text-anchor="middle" x="2699.5" y="-7" font-family="Helvetica,sans-Serif" font-size="10.00" fill="#000000">src/index.cpp</text>
</a>
</g>
</g>
<!-- Node3&#45;&gt;Node27 -->
<g id="edge26" class="edge">
<title>Node3&#45;&gt;Node27</title>
<path fill="none" stroke="#63b8ff" d="M2539.0642,-52.3348C2576.6033,-42.3122 2629.1041,-28.295 2663.6837,-19.0626"/>
<polygon fill="#63b8ff" stroke="#63b8ff" points="2538.1412,-48.9586 2529.3825,-54.9197 2539.9469,-55.7217 2538.1412,-48.9586"/>
</g>
<!-- Node28 -->
<g id="node28" class="node">
<title>Node28</title>
<g id="a_node28"><a xlink:href="../../d1/d4e/latexdocvisitor_8cpp.html" target="_top" xlink:title=" ">
<polygon fill="#ffffff" stroke="#666666" points="2870,-19 2755,-19 2755,0 2870,0 2870,-19"/>
<text text-anchor="middle" x="2812.5" y="-7" font-family="Helvetica,sans-Serif" font-size="10.00" fill="#000000">src/latexdocvisitor.cpp</text>
</a>
</g>
</g>
<!-- Node3&#45;&gt;Node28 -->
<g id="edge28" class="edge">
<title>Node3&#45;&gt;Node28</title>
<path fill="none" stroke="#63b8ff" d="M2543.6248,-55.8578C2601.7291,-45.8398 2697.1896,-29.3811 2757.3512,-19.0084"/>
<polygon fill="#63b8ff" stroke="#63b8ff" points="2542.8385,-52.4416 2533.5786,-57.5899 2544.0279,-59.3399 2542.8385,-52.4416"/>
</g>
<!-- Node29 -->
<g id="node29" class="node">
<title>Node29</title>
<g id="a_node29"><a xlink:href="../../d4/d42/latexgen_8cpp.html" target="_top" xlink:title=" ">
<polygon fill="#ffffff" stroke="#666666" points="2977,-19 2888,-19 2888,0 2977,0 2977,-19"/>
<text text-anchor="middle" x="2932.5" y="-7" font-family="Helvetica,sans-Serif" font-size="10.00" fill="#000000">src/latexgen.cpp</text>
</a>
</g>
</g>
<!-- Node3&#45;&gt;Node29 -->
<g id="edge29" class="edge">
<title>Node3&#45;&gt;Node29</title>
<path fill="none" stroke="#63b8ff" d="M2544.0077,-59.5236C2617.862,-52.0255 2759.5802,-36.7989 2879.5,-19 2882.274,-18.5883 2885.1257,-18.1426 2887.9988,-17.6765"/>
<polygon fill="#63b8ff" stroke="#63b8ff" points="2543.2119,-56.086 2533.6142,-60.5731 2543.9153,-63.0506 2543.2119,-56.086"/>
</g>
<!-- Node30 -->
<g id="node30" class="node">
<title>Node30</title>
<g id="a_node30"><a xlink:href="../../db/d16/layout_8cpp.html" target="_top" xlink:title=" ">
<polygon fill="#ffffff" stroke="#666666" points="3073.5,-19 2995.5,-19 2995.5,0 3073.5,0 3073.5,-19"/>
<text text-anchor="middle" x="3034.5" y="-7" font-family="Helvetica,sans-Serif" font-size="10.00" fill="#000000">src/layout.cpp</text>
</a>
</g>
</g>
<!-- Node3&#45;&gt;Node30 -->
<g id="edge30" class="edge">
<title>Node3&#45;&gt;Node30</title>
<path fill="none" stroke="#63b8ff" d="M2543.7283,-61.5852C2633.1067,-56.0158 2825.5033,-42.2977 2986.5,-19 2989.3585,-18.5863 2992.3044,-18.115 2995.2641,-17.6086"/>
<polygon fill="#63b8ff" stroke="#63b8ff" points="2543.3705,-58.1005 2533.6046,-62.2085 2543.8008,-65.0873 2543.3705,-58.1005"/>
</g>
<!-- Node31 -->
<g id="node31" class="node">
<title>Node31</title>
<g id="a_node31"><a xlink:href="../../d8/dde/mandocvisitor_8cpp.html" target="_top" xlink:title=" ">
<polygon fill="#ffffff" stroke="#666666" points="3205,-19 3092,-19 3092,0 3205,0 3205,-19"/>
<text text-anchor="middle" x="3148.5" y="-7" font-family="Helvetica,sans-Serif" font-size="10.00" fill="#000000">src/mandocvisitor.cpp</text>
</a>
</g>
</g>
<!-- Node3&#45;&gt;Node31 -->
<g id="edge31" class="edge">
<title>Node3&#45;&gt;Node31</title>
<path fill="none" stroke="#63b8ff" d="M2543.5706,-61.7479C2645.3049,-55.9101 2883.4156,-40.9935 3082.5,-19 3085.4917,-18.6695 3088.5564,-18.3081 3091.6486,-17.9256"/>
<polygon fill="#63b8ff" stroke="#63b8ff" points="2543.3633,-58.2539 2533.5786,-62.3172 2543.7615,-65.2426 2543.3633,-58.2539"/>
</g>
<!-- Node32 -->
<g id="node32" class="node">
<title>Node32</title>
<g id="a_node32"><a xlink:href="../../d7/de7/mangen_8cpp.html" target="_top" xlink:title=" ">
<polygon fill="#ffffff" stroke="#666666" points="3309.5,-19 3223.5,-19 3223.5,0 3309.5,0 3309.5,-19"/>
<text text-anchor="middle" x="3266.5" y="-7" font-family="Helvetica,sans-Serif" font-size="10.00" fill="#000000">src/mangen.cpp</text>
</a>
</g>
</g>
<!-- Node3&#45;&gt;Node32 -->
<g id="edge32" class="edge">
<title>Node3&#45;&gt;Node32</title>
<path fill="none" stroke="#63b8ff" d="M2543.6497,-63.365C2661.2402,-60.2615 2963.7461,-49.7094 3214.5,-19 3217.4149,-18.643 3220.4136,-18.2268 3223.4296,-17.7718"/>
<polygon fill="#63b8ff" stroke="#63b8ff" points="2543.421,-59.8696 2533.5145,-63.626 2543.6013,-66.8673 2543.421,-59.8696"/>
</g>
<!-- Node33 -->
<g id="node33" class="node">
<title>Node33</title>
<g id="a_node33"><a xlink:href="../../d0/d72/memberdef_8cpp.html" target="_top" xlink:title=" ">
<polygon fill="#ffffff" stroke="#666666" points="3429,-19 3328,-19 3328,0 3429,0 3429,-19"/>
<text text-anchor="middle" x="3378.5" y="-7" font-family="Helvetica,sans-Serif" font-size="10.00" fill="#000000">src/memberdef.cpp</text>
</a>
</g>
</g>
<!-- Node3&#45;&gt;Node33 -->
<g id="edge33" class="edge">
<title>Node3&#45;&gt;Node33</title>
<path fill="none" stroke="#63b8ff" d="M2543.8901,-63.5081C2673.0035,-60.5794 3026.1046,-50.1291 3318.5,-19 3321.5413,-18.6762 3324.6635,-18.3039 3327.8092,-17.8982"/>
<polygon fill="#63b8ff" stroke="#63b8ff" points="2543.4584,-60.0167 2533.5384,-63.7376 2543.6136,-67.015 2543.4584,-60.0167"/>
</g>
<!-- Node34 -->
<g id="node34" class="node">
<title>Node34</title>
<g id="a_node34"><a xlink:href="../../d6/d18/membergroup_8cpp.html" target="_top" xlink:title=" ">
<polygon fill="#ffffff" stroke="#666666" points="3558,-19 3447,-19 3447,0 3558,0 3558,-19"/>
<text text-anchor="middle" x="3502.5" y="-7" font-family="Helvetica,sans-Serif" font-size="10.00" fill="#000000">src/membergroup.cpp</text>
</a>
</g>
</g>
<!-- Node3&#45;&gt;Node34 -->
<g id="edge34" class="edge">
<title>Node3&#45;&gt;Node34</title>
<path fill="none" stroke="#63b8ff" d="M2543.763,-63.8345C2685.0442,-61.5857 3097.6163,-52.4232 3438.5,-19 3441.183,-18.7369 3443.9255,-18.4397 3446.6926,-18.117"/>
<polygon fill="#63b8ff" stroke="#63b8ff" points="2543.616,-60.3362 2533.6713,-63.9906 2543.7243,-67.3354 2543.616,-60.3362"/>
</g>
<!-- Node35 -->
<g id="node35" class="node">
<title>Node35</title>
<g id="a_node35"><a xlink:href="../../d0/d14/memberlist_8cpp.html" target="_top" xlink:title=" ">
<polygon fill="#ffffff" stroke="#666666" points="3676.5,-19 3576.5,-19 3576.5,0 3676.5,0 3676.5,-19"/>
<text text-anchor="middle" x="3626.5" y="-7" font-family="Helvetica,sans-Serif" font-size="10.00" fill="#000000">src/memberlist.cpp</text>
</a>
</g>
</g>
<!-- Node3&#45;&gt;Node35 -->
<g id="edge35" class="edge">
<title>Node3&#45;&gt;Node35</title>
<path fill="none" stroke="#63b8ff" d="M2543.7336,-63.1555C2727.7768,-58.1073 3364.9844,-39.5225 3567.5,-19 3570.3902,-18.7071 3573.354,-18.3646 3576.3407,-17.987"/>
<polygon fill="#63b8ff" stroke="#63b8ff" points="2543.4348,-59.6622 2533.5342,-63.4341 2543.626,-66.6596 2543.4348,-59.6622"/>
</g>
<!-- Node36 -->
<g id="node36" class="node">
<title>Node36</title>
<g id="a_node36"><a xlink:href="../../d7/d1c/namespacedef_8cpp.html" target="_top" xlink:title=" ">
<polygon fill="#ffffff" stroke="#666666" points="3810.5,-19 3694.5,-19 3694.5,0 3810.5,0 3810.5,-19"/>
<text text-anchor="middle" x="3752.5" y="-7" font-family="Helvetica,sans-Serif" font-size="10.00" fill="#000000">src/namespacedef.cpp</text>
</a>
</g>
</g>
<!-- Node3&#45;&gt;Node36 -->
<g id="edge36" class="edge">
<title>Node3&#45;&gt;Node36</title>
<path fill="none" stroke="#63b8ff" d="M2543.6291,-63.2741C2740.1555,-58.3616 3458.416,-39.379 3685.5,-19 3688.4253,-18.7375 3691.4182,-18.4356 3694.4377,-18.1046"/>
<polygon fill="#63b8ff" stroke="#63b8ff" points="2543.4966,-59.7763 2533.5869,-63.5243 2543.671,-66.7741 2543.4966,-59.7763"/>
</g>
<!-- Node37 -->
<g id="node37" class="node">
<title>Node37</title>
<g id="a_node37"><a xlink:href="../../d9/db4/pagedef_8cpp.html" target="_top" xlink:title=" ">
<polygon fill="#ffffff" stroke="#666666" points="3914.5,-19 3828.5,-19 3828.5,0 3914.5,0 3914.5,-19"/>
<text text-anchor="middle" x="3871.5" y="-7" font-family="Helvetica,sans-Serif" font-size="10.00" fill="#000000">src/pagedef.cpp</text>
</a>
</g>
</g>
<!-- Node3&#45;&gt;Node37 -->
<g id="edge37" class="edge">
<title>Node3&#45;&gt;Node37</title>
<path fill="none" stroke="#63b8ff" d="M2543.648,-63.7626C2753.8921,-60.5193 3565.151,-46.4483 3819.5,-19 3822.4198,-18.6849 3825.4221,-18.3002 3828.4407,-17.8681"/>
<polygon fill="#63b8ff" stroke="#63b8ff" points="2543.4647,-60.2649 2533.5195,-63.9176 2543.5719,-67.2641 2543.4647,-60.2649"/>
</g>
<!-- Node38 -->
<g id="node38" class="node">
<title>Node38</title>
<g id="a_node38"><a xlink:href="../../de/d2b/pyscanner_8l.html" target="_top" xlink:title=" ">
<polygon fill="#ffffff" stroke="#666666" points="4016,-19 3933,-19 3933,0 4016,0 4016,-19"/>
<text text-anchor="middle" x="3974.5" y="-7" font-family="Helvetica,sans-Serif" font-size="10.00" fill="#000000">src/pyscanner.l</text>
</a>
</g>
</g>
<!-- Node3&#45;&gt;Node38 -->
<g id="edge38" class="edge">
<title>Node3&#45;&gt;Node38</title>
<path fill="none" stroke="#63b8ff" d="M2543.9143,-63.927C2764.7183,-61.259 3647.7363,-48.8948 3923.5,-19 3926.5444,-18.67 3929.6797,-18.26 3932.828,-17.7972"/>
<polygon fill="#63b8ff" stroke="#63b8ff" points="2543.5617,-60.4309 2533.6043,-64.0504 2543.6454,-67.4304 2543.5617,-60.4309"/>
</g>
<!-- Node39 -->
<g id="node39" class="node">
<title>Node39</title>
<g id="a_node39"><a xlink:href="../../de/d9a/rtfdocvisitor_8cpp.html" target="_top" xlink:title=" ">
<polygon fill="#ffffff" stroke="#666666" points="4137,-19 4034,-19 4034,0 4137,0 4137,-19"/>
<text text-anchor="middle" x="4085.5" y="-7" font-family="Helvetica,sans-Serif" font-size="10.00" fill="#000000">src/rtfdocvisitor.cpp</text>
</a>
</g>
</g>
<!-- Node3&#45;&gt;Node39 -->
<g id="edge39" class="edge">
<title>Node3&#45;&gt;Node39</title>
<path fill="none" stroke="#63b8ff" d="M2543.7198,-63.8696C2773.7208,-60.8502 3728.0506,-46.851 4025.5,-19 4028.2301,-18.7444 4031.0246,-18.4427 4033.8422,-18.1069"/>
<polygon fill="#63b8ff" stroke="#63b8ff" points="2543.5868,-60.3709 2533.6332,-64.001 2543.678,-67.3703 2543.5868,-60.3709"/>
</g>
<!-- Node40 -->
<g id="node40" class="node">
<title>Node40</title>
<g id="a_node40"><a xlink:href="../../d0/d9c/rtfgen_8cpp.html" target="_top" xlink:title=" ">
<polygon fill="#ffffff" stroke="#666666" points="4232,-19 4155,-19 4155,0 4232,0 4232,-19"/>
<text text-anchor="middle" x="4193.5" y="-7" font-family="Helvetica,sans-Serif" font-size="10.00" fill="#000000">src/rtfgen.cpp</text>
</a>
</g>
</g>
<!-- Node3&#45;&gt;Node40 -->
<g id="edge40" class="edge">
<title>Node3&#45;&gt;Node40</title>
<path fill="none" stroke="#63b8ff" d="M2543.7403,-64.2816C2784.8083,-63.0555 3824.5072,-55.6973 4146.5,-19 4149.2295,-18.6889 4152.0363,-18.3002 4154.8551,-17.859"/>
<polygon fill="#63b8ff" stroke="#63b8ff" points="2543.5059,-60.7826 2533.5234,-64.3323 2543.5407,-67.7825 2543.5059,-60.7826"/>
</g>
<!-- Node41 -->
<g id="node41" class="node">
<title>Node41</title>
<g id="a_node41"><a xlink:href="../../da/d11/scanner_8l.html" target="_top" xlink:title=" ">
<polygon fill="#ffffff" stroke="#666666" points="4323,-19 4250,-19 4250,0 4323,0 4323,-19"/>
<text text-anchor="middle" x="4286.5" y="-7" font-family="Helvetica,sans-Serif" font-size="10.00" fill="#000000">src/scanner.l</text>
</a>
</g>
</g>
<!-- Node3&#45;&gt;Node41 -->
<g id="edge41" class="edge">
<title>Node3&#45;&gt;Node41</title>
<path fill="none" stroke="#63b8ff" d="M2543.7863,-64.4269C2793.2839,-63.8753 3899.8726,-59.1677 4241.5,-19 4244.1962,-18.683 4246.97,-18.2826 4249.7532,-17.8266"/>
<polygon fill="#63b8ff" stroke="#63b8ff" points="2543.5632,-60.9272 2533.5706,-64.4481 2543.5779,-67.9272 2543.5632,-60.9272"/>
</g>
<!-- Node42 -->
<g id="node42" class="node">
<title>Node42</title>
<g id="a_node42"><a xlink:href="../../d7/d79/searchindex_8cpp.html" target="_top" xlink:title=" ">
<polygon fill="#ffffff" stroke="#666666" points="4445.5,-19 4341.5,-19 4341.5,0 4445.5,0 4445.5,-19"/>
<text text-anchor="middle" x="4393.5" y="-7" font-family="Helvetica,sans-Serif" font-size="10.00" fill="#000000">src/searchindex.cpp</text>
</a>
</g>
</g>
<!-- Node3&#45;&gt;Node42 -->
<g id="edge42" class="edge">
<title>Node3&#45;&gt;Node42</title>
<path fill="none" stroke="#63b8ff" d="M2543.862,-64.1387C2801.168,-62.158 3970.9168,-51.4909 4332.5,-19 4335.3822,-18.741 4338.335,-18.431 4341.3115,-18.0835"/>
<polygon fill="#63b8ff" stroke="#63b8ff" points="2543.6657,-60.64 2533.6927,-64.2161 2543.719,-67.6398 2543.6657,-60.64"/>
</g>
<!-- Node43 -->
<g id="node43" class="node">
<title>Node43</title>
<g id="a_node43"><a xlink:href="../../d9/d2f/searchindex__js_8cpp.html" target="_top" xlink:title=" ">
<polygon fill="#ffffff" stroke="#666666" points="4581,-19 4464,-19 4464,0 4581,0 4581,-19"/>
<text text-anchor="middle" x="4522.5" y="-7" font-family="Helvetica,sans-Serif" font-size="10.00" fill="#000000">src/searchindex_js.cpp</text>
</a>
</g>
</g>
<!-- Node3&#45;&gt;Node43 -->
<g id="edge43" class="edge">
<title>Node3&#45;&gt;Node43</title>
<path fill="none" stroke="#63b8ff" d="M2543.7137,-64.1226C2810.7945,-61.9955 4067.0029,-50.4572 4454.5,-19 4457.5891,-18.7492 4460.7521,-18.4514 4463.9422,-18.1187"/>
<polygon fill="#63b8ff" stroke="#63b8ff" points="2543.5155,-60.624 2533.5434,-64.2029 2543.5708,-67.6238 2543.5155,-60.624"/>
</g>
<!-- Node44 -->
<g id="node44" class="node">
<title>Node44</title>
<g id="a_node44"><a xlink:href="../../df/d2d/util_8cpp.html" target="_top" xlink:title=" ">
<polygon fill="#ffffff" stroke="#666666" points="4664,-19 4599,-19 4599,0 4664,0 4664,-19"/>
<text text-anchor="middle" x="4631.5" y="-7" font-family="Helvetica,sans-Serif" font-size="10.00" fill="#000000">src/util.cpp</text>
</a>
</g>
</g>
<!-- Node3&#45;&gt;Node44 -->
<g id="edge44" class="edge">
<title>Node3&#45;&gt;Node44</title>
<path fill="none" stroke="#63b8ff" d="M2544.0582,-64.027C2843.8204,-61.1398 4381.939,-45.1415 4590.5,-19 4593.255,-18.6547 4596.0954,-18.2026 4598.9353,-17.683"/>
<polygon fill="#63b8ff" stroke="#63b8ff" points="2543.8873,-60.5284 2533.9214,-64.1242 2543.9545,-67.5281 2543.8873,-60.5284"/>
</g>
<!-- Node45 -->
<g id="node45" class="node">
<title>Node45</title>
<g id="a_node45"><a xlink:href="../../de/dea/vhdldocgen_8cpp.html" target="_top" xlink:title=" ">
<polygon fill="#ffffff" stroke="#666666" points="4783,-19 4682,-19 4682,0 4783,0 4783,-19"/>
<text text-anchor="middle" x="4732.5" y="-7" font-family="Helvetica,sans-Serif" font-size="10.00" fill="#000000">src/vhdldocgen.cpp</text>
</a>
</g>
</g>
<!-- Node3&#45;&gt;Node45 -->
<g id="edge45" class="edge">
<title>Node3&#45;&gt;Node45</title>
<path fill="none" stroke="#63b8ff" d="M2543.7702,-64.3996C2828.3967,-63.6874 4240.3388,-58.2026 4673.5,-19 4676.1865,-18.7569 4678.9359,-18.4651 4681.7077,-18.1372"/>
<polygon fill="#63b8ff" stroke="#63b8ff" points="2543.73,-60.8996 2533.7385,-64.4239 2543.747,-67.8996 2543.73,-60.8996"/>
</g>
<!-- Node46 -->
<g id="node46" class="node">
<title>Node46</title>
<g id="a_node46"><a xlink:href="../../d1/d86/vhdljjparser_8cpp.html" target="_top" xlink:title=" ">
<polygon fill="#ffffff" stroke="#666666" points="4902,-19 4801,-19 4801,0 4902,0 4902,-19"/>
<text text-anchor="middle" x="4851.5" y="-7" font-family="Helvetica,sans-Serif" font-size="10.00" fill="#000000">src/vhdljjparser.cpp</text>
</a>
</g>
</g>
<!-- Node3&#45;&gt;Node46 -->
<g id="edge46" class="edge">
<title>Node3&#45;&gt;Node46</title>
<path fill="none" stroke="#63b8ff" d="M2543.7843,-63.9276C2859.4503,-60.2785 4561.7764,-39.7557 4792.5,-19 4795.1866,-18.7583 4797.9362,-18.4677 4800.708,-18.1407"/>
<polygon fill="#63b8ff" stroke="#63b8ff" points="2543.5281,-60.4303 2533.5691,-64.0454 2543.6089,-67.4298 2543.5281,-60.4303"/>
</g>
<!-- Node47 -->
<g id="node47" class="node">
<title>Node47</title>
<g id="a_node47"><a xlink:href="../../dd/db6/xmldocvisitor_8cpp.html" target="_top" xlink:title=" ">
<polygon fill="#ffffff" stroke="#666666" points="5030.5,-19 4920.5,-19 4920.5,0 5030.5,0 5030.5,-19"/>
<text text-anchor="middle" x="4975.5" y="-7" font-family="Helvetica,sans-Serif" font-size="10.00" fill="#000000">src/xmldocvisitor.cpp</text>
</a>
</g>
</g>
<!-- Node3&#45;&gt;Node47 -->
<g id="edge47" class="edge">
<title>Node3&#45;&gt;Node47</title>
<path fill="none" stroke="#63b8ff" d="M2543.8203,-64.4354C2846.4795,-63.9133 4427.9469,-59.2703 4911.5,-19 4914.4105,-18.7576 4917.3899,-18.4665 4920.3943,-18.139"/>
<polygon fill="#63b8ff" stroke="#63b8ff" points="2543.5914,-60.9356 2533.5972,-64.4523 2543.603,-67.9356 2543.5914,-60.9356"/>
</g>
<!-- Node48 -->
<g id="node48" class="node">
<title>Node48</title>
<g id="a_node48"><a xlink:href="../../d0/dc3/xmlgen_8cpp.html" target="_top" xlink:title=" ">
<polygon fill="#ffffff" stroke="#666666" points="5132,-19 5049,-19 5049,0 5132,0 5132,-19"/>
<text text-anchor="middle" x="5090.5" y="-7" font-family="Helvetica,sans-Serif" font-size="10.00" fill="#000000">src/xmlgen.cpp</text>
</a>
</g>
</g>
<!-- Node3&#45;&gt;Node48 -->
<g id="edge48" class="edge">
<title>Node3&#45;&gt;Node48</title>
<path fill="none" stroke="#63b8ff" d="M2544.3105,-64.1007C2880.8501,-61.3884 4783.0594,-44.9932 5039.5,-19 5042.5466,-18.6912 5045.6835,-18.2968 5048.8331,-17.8451"/>
<polygon fill="#63b8ff" stroke="#63b8ff" points="2543.8767,-60.6039 2533.9052,-64.1842 2543.933,-67.6037 2543.8767,-60.6039"/>
</g>
<!-- Node49&#45;&gt;Node2 -->
<g id="edge50" class="edge">
<title>Node49&#45;&gt;Node2</title>
<path fill="none" stroke="#63b8ff" d="M109.6215,-49.5759C94.133,-39.8956 74.4049,-27.5656 60.948,-19.155"/>
<polygon fill="#63b8ff" stroke="#63b8ff" points="107.8366,-52.5877 118.1716,-54.9197 111.5466,-46.6517 107.8366,-52.5877"/>
</g>
</g>
</svg>
