<?xml version="1.0" encoding="UTF-8" standalone="no"?>
<!DOCTYPE svg PUBLIC "-//W3C//DTD SVG 1.1//EN"
 "http://www.w3.org/Graphics/SVG/1.1/DTD/svg11.dtd">
<!-- Generated by graphviz version 2.43.0 (0)
 -->
<!-- Title: src/translator.h Pages: 1 -->
<!--zoomable 137 -->
<svg id="main" version="1.1" xmlns="http://www.w3.org/2000/svg" xmlns:xlink="http://www.w3.org/1999/xlink" xml:space="preserve" onload="init(evt)">
<style type="text/css"><![CDATA[
.edge:hover path { stroke: red; }
.edge:hover polygon { stroke: red; fill: red; }
]]></style>
<script type="text/javascript"><![CDATA[
var edges = document.getElementsByTagName('g');
if (edges && edges.length) {
  for (var i=0;i<edges.length;i++) {
    if (edges[i].id.substr(0,4)=='edge') {
      edges[i].setAttribute('class','edge');
    }
  }
}
]]></script>
        <defs>
                <circle id="rim" cx="0" cy="0" r="7"/>
                <circle id="rim2" cx="0" cy="0" r="3.5"/>
                <g id="zoomPlus">
                        <use xlink:href="#rim" fill="#404040">
                                <set attributeName="fill" to="#808080" begin="zoomplus.mouseover" end="zoomplus.mouseout"/>
                        </use>
                        <path d="M-4,0h8M0,-4v8" fill="none" stroke="white" stroke-width="1.5" pointer-events="none"/>
                </g>
                <g id="zoomMin">
                        <use xlink:href="#rim" fill="#404040">
                                <set attributeName="fill" to="#808080" begin="zoomminus.mouseover" end="zoomminus.mouseout"/>
                        </use>
                        <path d="M-4,0h8" fill="none" stroke="white" stroke-width="1.5" pointer-events="none"/>
                </g>
                <g id="dirArrow">
                        <path fill="none" stroke="white" stroke-width="1.5" d="M0,-3.0v7 M-2.5,-0.5L0,-3.0L2.5,-0.5"/>
                </g>
               <g id="resetDef">
                       <use xlink:href="#rim2" fill="#404040">
                               <set attributeName="fill" to="#808080" begin="reset.mouseover" end="reset.mouseout"/>
                       </use>
               </g>
        </defs>

<script type="text/javascript">
var viewWidth = 5748;
var viewHeight = 137;
var sectionId = 'dynsection-1';
</script>
<script xlink:href="../../svgpan.js"/>
<svg id="graph" class="graph">
<g id="viewport">
<title>src/translator.h</title>
<!-- Node1 -->
<g id="node1" class="node">
<title>Node1</title>
<g id="a_node1"><a xlink:title=" ">
<polygon fill="#999999" stroke="#666666" points="188,-129 99,-129 99,-110 188,-110 188,-129"/>
<text text-anchor="middle" x="143.5" y="-117" font-family="Helvetica,sans-Serif" font-size="10.00">src/translator.h</text>
</a>
</g>
</g>
<!-- Node2 -->
<g id="node2" class="node">
<title>Node2</title>
<g id="a_node2"><a xlink:href="../../d2/d48/language_8cpp.html" target="_top" xlink:title=" ">
<polygon fill="white" stroke="#666666" points="99,-19 0,-19 0,0 99,0 99,-19"/>
<text text-anchor="middle" x="49.5" y="-7" font-family="Helvetica,sans-Serif" font-size="10.00">src/language.cpp</text>
</a>
</g>
</g>
<!-- Node1&#45;&gt;Node2 -->
<g id="edge1" class="edge">
<title>Node1&#45;&gt;Node2</title>
<path fill="none" stroke="#63b8ff" d="M110.63,-105.64C95.86,-98.36 79.35,-87.9 68.5,-74 55.61,-57.49 51.44,-32.36 50.11,-19.21"/>
<polygon fill="#63b8ff" stroke="#63b8ff" points="109.45,-108.95 120,-109.97 112.39,-102.6 109.45,-108.95"/>
</g>
<!-- Node3 -->
<g id="node3" class="node">
<title>Node3</title>
<g id="a_node3"><a xlink:href="../../d8/dce/language_8h.html" target="_top" xlink:title=" ">
<polygon fill="white" stroke="#666666" points="2819.5,-74 2731.5,-74 2731.5,-55 2819.5,-55 2819.5,-74"/>
<text text-anchor="middle" x="2775.5" y="-62" font-family="Helvetica,sans-Serif" font-size="10.00">src/language.h</text>
</a>
</g>
</g>
<!-- Node1&#45;&gt;Node3 -->
<g id="edge2" class="edge">
<title>Node1&#45;&gt;Node3</title>
<path fill="none" stroke="#63b8ff" d="M198.33,-117.4C544.16,-110.43 2418.65,-72.69 2731.28,-66.39"/>
<polygon fill="#63b8ff" stroke="#63b8ff" points="198.01,-113.9 188.08,-117.6 198.15,-120.9 198.01,-113.9"/>
</g>
<!-- Node51 -->
<g id="node51" class="node">
<title>Node51</title>
<g id="a_node51"><a xlink:href="../../da/de6/translator__adapter_8h.html" target="_top" xlink:title=" ">
<polygon fill="white" stroke="#666666" points="209.5,-74 77.5,-74 77.5,-55 209.5,-55 209.5,-74"/>
<text text-anchor="middle" x="143.5" y="-62" font-family="Helvetica,sans-Serif" font-size="10.00">src/translator_adapter.h</text>
</a>
</g>
</g>
<!-- Node1&#45;&gt;Node51 -->
<g id="edge51" class="edge">
<title>Node1&#45;&gt;Node51</title>
<path fill="none" stroke="#63b8ff" d="M143.5,-99.66C143.5,-90.93 143.5,-80.99 143.5,-74.09"/>
<polygon fill="#63b8ff" stroke="#63b8ff" points="140,-99.75 143.5,-109.75 147,-99.75 140,-99.75"/>
</g>
<!-- Node3&#45;&gt;Node2 -->
<g id="edge29" class="edge">
<title>Node3&#45;&gt;Node2</title>
<path fill="none" stroke="#63b8ff" d="M2720.99,-63.53C2389.64,-63.58 642.49,-61.75 108.5,-19 105.41,-18.75 102.23,-18.45 99.02,-18.1"/>
<polygon fill="#63b8ff" stroke="#63b8ff" points="2721.28,-67.03 2731.28,-63.53 2721.28,-60.03 2721.28,-67.03"/>
</g>
<!-- Node4 -->
<g id="node4" class="node">
<title>Node4</title>
<g id="a_node4"><a xlink:href="../../d5/d0b/cite_8cpp.html" target="_top" xlink:title=" ">
<polygon fill="white" stroke="#666666" points="189.5,-19 117.5,-19 117.5,0 189.5,0 189.5,-19"/>
<text text-anchor="middle" x="153.5" y="-7" font-family="Helvetica,sans-Serif" font-size="10.00">src/cite.cpp</text>
</a>
</g>
</g>
<!-- Node3&#45;&gt;Node4 -->
<g id="edge3" class="edge">
<title>Node3&#45;&gt;Node4</title>
<path fill="none" stroke="#63b8ff" d="M2721.27,-63.12C2373.01,-60.58 457.33,-45.49 198.5,-19 195.65,-18.71 192.72,-18.33 189.77,-17.9"/>
<polygon fill="#63b8ff" stroke="#63b8ff" points="2721.32,-66.62 2731.35,-63.19 2721.37,-59.62 2721.32,-66.62"/>
</g>
<!-- Node5 -->
<g id="node5" class="node">
<title>Node5</title>
<g id="a_node5"><a xlink:href="../../de/d89/classdef_8cpp.html" target="_top" xlink:title=" ">
<polygon fill="white" stroke="#666666" points="301.5,-19 207.5,-19 207.5,0 301.5,0 301.5,-19"/>
<text text-anchor="middle" x="254.5" y="-7" font-family="Helvetica,sans-Serif" font-size="10.00">src/classdef.cpp</text>
</a>
</g>
</g>
<!-- Node3&#45;&gt;Node5 -->
<g id="edge4" class="edge">
<title>Node3&#45;&gt;Node5</title>
<path fill="none" stroke="#63b8ff" d="M2721.15,-63.5C2405.18,-63.35 801.79,-60.54 310.5,-19 307.56,-18.75 304.54,-18.44 301.5,-18.1"/>
<polygon fill="#63b8ff" stroke="#63b8ff" points="2721.41,-67 2731.42,-63.5 2721.42,-60 2721.41,-67"/>
</g>
<!-- Node6 -->
<g id="node6" class="node">
<title>Node6</title>
<g id="a_node6"><a xlink:href="../../d6/d10/classlist_8cpp.html" target="_top" xlink:title=" ">
<polygon fill="white" stroke="#666666" points="413.5,-19 319.5,-19 319.5,0 413.5,0 413.5,-19"/>
<text text-anchor="middle" x="366.5" y="-7" font-family="Helvetica,sans-Serif" font-size="10.00">src/classlist.cpp</text>
</a>
</g>
</g>
<!-- Node3&#45;&gt;Node6 -->
<g id="edge5" class="edge">
<title>Node3&#45;&gt;Node6</title>
<path fill="none" stroke="#63b8ff" d="M2720.74,-63.43C2412.46,-62.86 890.82,-58.1 423.5,-19 420.31,-18.73 417.03,-18.4 413.72,-18.02"/>
<polygon fill="#63b8ff" stroke="#63b8ff" points="2721.18,-66.93 2731.19,-63.44 2721.19,-59.93 2721.18,-66.93"/>
</g>
<!-- Node7 -->
<g id="node7" class="node">
<title>Node7</title>
<g id="a_node7"><a xlink:href="../../d7/d5f/commentscan_8l.html" target="_top" xlink:title=" ">
<polygon fill="white" stroke="#666666" points="541,-19 432,-19 432,0 541,0 541,-19"/>
<text text-anchor="middle" x="486.5" y="-7" font-family="Helvetica,sans-Serif" font-size="10.00">src/commentscan.l</text>
</a>
</g>
</g>
<!-- Node3&#45;&gt;Node7 -->
<g id="edge6" class="edge">
<title>Node3&#45;&gt;Node7</title>
<path fill="none" stroke="#63b8ff" d="M2721.32,-63.24C2424.39,-61.7 991.67,-52.6 550.5,-19 547.48,-18.77 544.39,-18.49 541.27,-18.18"/>
<polygon fill="#63b8ff" stroke="#63b8ff" points="2721.39,-66.74 2731.4,-63.29 2721.42,-59.74 2721.39,-66.74"/>
</g>
<!-- Node8 -->
<g id="node8" class="node">
<title>Node8</title>
<g id="a_node8"><a xlink:href="../../d8/d0a/conceptdef_8cpp.html" target="_top" xlink:title=" ">
<polygon fill="white" stroke="#666666" points="666,-19 559,-19 559,0 666,0 666,-19"/>
<text text-anchor="middle" x="612.5" y="-7" font-family="Helvetica,sans-Serif" font-size="10.00">src/conceptdef.cpp</text>
</a>
</g>
</g>
<!-- Node3&#45;&gt;Node8 -->
<g id="edge7" class="edge">
<title>Node3&#45;&gt;Node8</title>
<path fill="none" stroke="#63b8ff" d="M2721.19,-63.18C2434.03,-61.37 1090.29,-51.27 675.5,-19 672.42,-18.76 669.26,-18.47 666.07,-18.15"/>
<polygon fill="#63b8ff" stroke="#63b8ff" points="2721.32,-66.68 2731.34,-63.24 2721.37,-59.68 2721.32,-66.68"/>
</g>
<!-- Node9 -->
<g id="node9" class="node">
<title>Node9</title>
<g id="a_node9"><a xlink:href="../../d9/de3/configimpl_8l.html" target="_top" xlink:title=" ">
<polygon fill="white" stroke="#666666" points="775,-19 684,-19 684,0 775,0 775,-19"/>
<text text-anchor="middle" x="729.5" y="-7" font-family="Helvetica,sans-Serif" font-size="10.00">src/configimpl.l</text>
</a>
</g>
</g>
<!-- Node3&#45;&gt;Node9 -->
<g id="edge8" class="edge">
<title>Node3&#45;&gt;Node9</title>
<path fill="none" stroke="#63b8ff" d="M2720.9,-63.25C2442.17,-61.81 1175.97,-53.48 784.5,-19 781.42,-18.73 778.25,-18.39 775.06,-18.01"/>
<polygon fill="#63b8ff" stroke="#63b8ff" points="2721.14,-66.75 2731.16,-63.3 2721.17,-59.75 2721.14,-66.75"/>
</g>
<!-- Node10 -->
<g id="node10" class="node">
<title>Node10</title>
<g id="a_node10"><a xlink:href="../../db/d12/context_8cpp.html" target="_top" xlink:title=" ">
<polygon fill="white" stroke="#666666" points="884,-19 793,-19 793,0 884,0 884,-19"/>
<text text-anchor="middle" x="838.5" y="-7" font-family="Helvetica,sans-Serif" font-size="10.00">src/context.cpp</text>
</a>
</g>
</g>
<!-- Node3&#45;&gt;Node10 -->
<g id="edge9" class="edge">
<title>Node3&#45;&gt;Node10</title>
<path fill="none" stroke="#63b8ff" d="M2720.88,-63.17C2451.45,-61.37 1262.14,-51.71 893.5,-19 890.42,-18.73 887.25,-18.39 884.06,-18.01"/>
<polygon fill="#63b8ff" stroke="#63b8ff" points="2721.16,-66.67 2731.18,-63.23 2721.21,-59.67 2721.16,-66.67"/>
</g>
<!-- Node11 -->
<g id="node11" class="node">
<title>Node11</title>
<g id="a_node11"><a xlink:href="../../d7/d14/datetime_8cpp.html" target="_top" xlink:title=" ">
<polygon fill="white" stroke="#666666" points="1000.5,-19 902.5,-19 902.5,0 1000.5,0 1000.5,-19"/>
<text text-anchor="middle" x="951.5" y="-7" font-family="Helvetica,sans-Serif" font-size="10.00">src/datetime.cpp</text>
</a>
</g>
</g>
<!-- Node3&#45;&gt;Node11 -->
<g id="edge10" class="edge">
<title>Node3&#45;&gt;Node11</title>
<path fill="none" stroke="#63b8ff" d="M2720.94,-63.01C2461.85,-60.55 1354.04,-48.48 1009.5,-19 1006.66,-18.76 1003.75,-18.47 1000.81,-18.14"/>
<polygon fill="#63b8ff" stroke="#63b8ff" points="2721.19,-66.51 2731.22,-63.11 2721.25,-59.51 2721.19,-66.51"/>
</g>
<!-- Node12 -->
<g id="node12" class="node">
<title>Node12</title>
<g id="a_node12"><a xlink:href="../../d3/dea/definition_8cpp.html" target="_top" xlink:title=" ">
<polygon fill="white" stroke="#666666" points="1118.5,-19 1018.5,-19 1018.5,0 1118.5,0 1118.5,-19"/>
<text text-anchor="middle" x="1068.5" y="-7" font-family="Helvetica,sans-Serif" font-size="10.00">src/definition.cpp</text>
</a>
</g>
</g>
<!-- Node3&#45;&gt;Node12 -->
<g id="edge11" class="edge">
<title>Node3&#45;&gt;Node12</title>
<path fill="none" stroke="#63b8ff" d="M2721,-62.88C2472.77,-59.93 1447.48,-46.28 1127.5,-19 1124.61,-18.75 1121.65,-18.46 1118.67,-18.13"/>
<polygon fill="#63b8ff" stroke="#63b8ff" points="2721.17,-66.38 2731.21,-63 2721.25,-59.38 2721.17,-66.38"/>
</g>
<!-- Node13 -->
<g id="node13" class="node">
<title>Node13</title>
<g id="a_node13"><a xlink:href="../../d8/d52/dirdef_8cpp.html" target="_top" xlink:title=" ">
<polygon fill="white" stroke="#666666" points="1218.5,-19 1136.5,-19 1136.5,0 1218.5,0 1218.5,-19"/>
<text text-anchor="middle" x="1177.5" y="-7" font-family="Helvetica,sans-Serif" font-size="10.00">src/dirdef.cpp</text>
</a>
</g>
</g>
<!-- Node3&#45;&gt;Node13 -->
<g id="edge12" class="edge">
<title>Node3&#45;&gt;Node13</title>
<path fill="none" stroke="#63b8ff" d="M2721.25,-62.93C2482.91,-60.29 1527.25,-48.06 1228.5,-19 1225.28,-18.69 1221.96,-18.29 1218.63,-17.85"/>
<polygon fill="#63b8ff" stroke="#63b8ff" points="2721.36,-66.43 2731.4,-63.04 2721.44,-59.44 2721.36,-66.43"/>
</g>
<!-- Node14 -->
<g id="node14" class="node">
<title>Node14</title>
<g id="a_node14"><a xlink:href="../../d8/d29/docbookgen_8cpp.html" target="_top" xlink:title=" ">
<polygon fill="white" stroke="#666666" points="1350,-19 1237,-19 1237,0 1350,0 1350,-19"/>
<text text-anchor="middle" x="1293.5" y="-7" font-family="Helvetica,sans-Serif" font-size="10.00">src/docbookgen.cpp</text>
</a>
</g>
</g>
<!-- Node3&#45;&gt;Node14 -->
<g id="edge13" class="edge">
<title>Node3&#45;&gt;Node14</title>
<path fill="none" stroke="#63b8ff" d="M2721.16,-63.68C2532.57,-63.9 1888.87,-61.31 1359.5,-19 1356.51,-18.76 1353.44,-18.48 1350.35,-18.18"/>
<polygon fill="#63b8ff" stroke="#63b8ff" points="2721.37,-67.18 2731.37,-63.66 2721.36,-60.18 2721.37,-67.18"/>
</g>
<!-- Node15 -->
<g id="node15" class="node">
<title>Node15</title>
<g id="a_node15"><a xlink:href="../../dc/d05/docbookvisitor_8cpp.html" target="_top" xlink:title=" ">
<polygon fill="white" stroke="#666666" points="1493,-19 1368,-19 1368,0 1493,0 1493,-19"/>
<text text-anchor="middle" x="1430.5" y="-7" font-family="Helvetica,sans-Serif" font-size="10.00">src/docbookvisitor.cpp</text>
</a>
</g>
</g>
<!-- Node3&#45;&gt;Node15 -->
<g id="edge14" class="edge">
<title>Node3&#45;&gt;Node15</title>
<path fill="none" stroke="#63b8ff" d="M2721.42,-63.21C2545.51,-61.9 1973.8,-55 1502.5,-19 1499.49,-18.77 1496.41,-18.51 1493.3,-18.22"/>
<polygon fill="#63b8ff" stroke="#63b8ff" points="2721.43,-66.71 2731.45,-63.28 2721.48,-59.71 2721.43,-66.71"/>
</g>
<!-- Node16 -->
<g id="node16" class="node">
<title>Node16</title>
<g id="a_node16"><a xlink:href="../../d0/d2b/docnode_8cpp.html" target="_top" xlink:title=" ">
<polygon fill="white" stroke="#666666" points="1606,-19 1511,-19 1511,0 1606,0 1606,-19"/>
<text text-anchor="middle" x="1558.5" y="-7" font-family="Helvetica,sans-Serif" font-size="10.00">src/docnode.cpp</text>
</a>
</g>
</g>
<!-- Node3&#45;&gt;Node16 -->
<g id="edge15" class="edge">
<title>Node3&#45;&gt;Node16</title>
<path fill="none" stroke="#63b8ff" d="M2720.96,-63.53C2554.73,-63.16 2039.86,-58.66 1615.5,-19 1612.41,-18.71 1609.24,-18.37 1606.04,-17.99"/>
<polygon fill="#63b8ff" stroke="#63b8ff" points="2721.4,-67.03 2731.4,-63.55 2721.41,-60.03 2721.4,-67.03"/>
</g>
<!-- Node17 -->
<g id="node17" class="node">
<title>Node17</title>
<g id="a_node17"><a xlink:href="../../de/daa/dot_8cpp.html" target="_top" xlink:title=" ">
<polygon fill="white" stroke="#666666" points="1694.5,-19 1624.5,-19 1624.5,0 1694.5,0 1694.5,-19"/>
<text text-anchor="middle" x="1659.5" y="-7" font-family="Helvetica,sans-Serif" font-size="10.00">src/dot.cpp</text>
</a>
</g>
</g>
<!-- Node3&#45;&gt;Node17 -->
<g id="edge16" class="edge">
<title>Node3&#45;&gt;Node17</title>
<path fill="none" stroke="#63b8ff" d="M2721.02,-64.1C2563.06,-65.23 2091.45,-64.27 1703.5,-19 1700.72,-18.68 1697.85,-18.27 1694.97,-17.82"/>
<polygon fill="#63b8ff" stroke="#63b8ff" points="2721.43,-67.6 2731.41,-64.02 2721.38,-60.6 2721.43,-67.6"/>
</g>
<!-- Node18 -->
<g id="node18" class="node">
<title>Node18</title>
<g id="a_node18"><a xlink:href="../../d4/d09/dotgfxhierarchytable_8cpp.html" target="_top" xlink:title=" ">
<polygon fill="white" stroke="#666666" points="1868.5,-19 1712.5,-19 1712.5,0 1868.5,0 1868.5,-19"/>
<text text-anchor="middle" x="1790.5" y="-7" font-family="Helvetica,sans-Serif" font-size="10.00">src/dotgfxhierarchytable.cpp</text>
</a>
</g>
</g>
<!-- Node3&#45;&gt;Node18 -->
<g id="edge17" class="edge">
<title>Node3&#45;&gt;Node18</title>
<path fill="none" stroke="#63b8ff" d="M2721.08,-61.69C2581.16,-56.83 2197.47,-42.3 1878.5,-19 1875.29,-18.77 1872.01,-18.51 1868.69,-18.24"/>
<polygon fill="#63b8ff" stroke="#63b8ff" points="2721.01,-65.19 2731.12,-62.03 2721.25,-58.19 2721.01,-65.19"/>
</g>
<!-- Node19 -->
<g id="node19" class="node">
<title>Node19</title>
<g id="a_node19"><a xlink:href="../../d4/d33/dotlegendgraph_8cpp.html" target="_top" xlink:title=" ">
<polygon fill="white" stroke="#666666" points="2018,-19 1887,-19 1887,0 2018,0 2018,-19"/>
<text text-anchor="middle" x="1952.5" y="-7" font-family="Helvetica,sans-Serif" font-size="10.00">src/dotlegendgraph.cpp</text>
</a>
</g>
</g>
<!-- Node3&#45;&gt;Node19 -->
<g id="edge18" class="edge">
<title>Node3&#45;&gt;Node19</title>
<path fill="none" stroke="#63b8ff" d="M2720.85,-61.25C2597.21,-55.94 2286.62,-41.37 2027.5,-19 2024.5,-18.74 2021.43,-18.46 2018.33,-18.16"/>
<polygon fill="#63b8ff" stroke="#63b8ff" points="2721.04,-64.76 2731.18,-61.69 2721.34,-57.77 2721.04,-64.76"/>
</g>
<!-- Node20 -->
<g id="node20" class="node">
<title>Node20</title>
<g id="a_node20"><a xlink:href="../../df/d58/dotnode_8cpp.html" target="_top" xlink:title=" ">
<polygon fill="white" stroke="#666666" points="2130.5,-19 2036.5,-19 2036.5,0 2130.5,0 2130.5,-19"/>
<text text-anchor="middle" x="2083.5" y="-7" font-family="Helvetica,sans-Serif" font-size="10.00">src/dotnode.cpp</text>
</a>
</g>
</g>
<!-- Node3&#45;&gt;Node20 -->
<g id="edge19" class="edge">
<title>Node3&#45;&gt;Node20</title>
<path fill="none" stroke="#63b8ff" d="M2721.26,-61.18C2611.29,-56.16 2354.25,-42.77 2139.5,-19 2136.57,-18.68 2133.55,-18.31 2130.52,-17.92"/>
<polygon fill="#63b8ff" stroke="#63b8ff" points="2721.29,-64.69 2731.44,-61.64 2721.61,-57.7 2721.29,-64.69"/>
</g>
<!-- Node21 -->
<g id="node21" class="node">
<title>Node21</title>
<g id="a_node21"><a xlink:href="../../dc/d98/doxygen_8cpp.html" target="_top" xlink:title=" ">
<polygon fill="white" stroke="#666666" points="2244.5,-19 2148.5,-19 2148.5,0 2244.5,0 2244.5,-19"/>
<text text-anchor="middle" x="2196.5" y="-7" font-family="Helvetica,sans-Serif" font-size="10.00">src/doxygen.cpp</text>
</a>
</g>
</g>
<!-- Node3&#45;&gt;Node21 -->
<g id="edge20" class="edge">
<title>Node3&#45;&gt;Node21</title>
<path fill="none" stroke="#63b8ff" d="M2721.18,-60C2626.18,-53.63 2423.73,-38.93 2253.5,-19 2250.62,-18.66 2247.66,-18.29 2244.67,-17.9"/>
<polygon fill="#63b8ff" stroke="#63b8ff" points="2721.2,-63.51 2731.41,-60.68 2721.66,-56.53 2721.2,-63.51"/>
</g>
<!-- Node22 -->
<g id="node22" class="node">
<title>Node22</title>
<g id="a_node22"><a xlink:href="../../d6/ddc/filedef_8cpp.html" target="_top" xlink:title=" ">
<polygon fill="white" stroke="#666666" points="2346.5,-19 2262.5,-19 2262.5,0 2346.5,0 2346.5,-19"/>
<text text-anchor="middle" x="2304.5" y="-7" font-family="Helvetica,sans-Serif" font-size="10.00">src/filedef.cpp</text>
</a>
</g>
</g>
<!-- Node3&#45;&gt;Node22 -->
<g id="edge21" class="edge">
<title>Node3&#45;&gt;Node22</title>
<path fill="none" stroke="#63b8ff" d="M2720.9,-58.76C2640.66,-51.56 2486.22,-36.8 2355.5,-19 2352.65,-18.61 2349.72,-18.19 2346.77,-17.74"/>
<polygon fill="#63b8ff" stroke="#63b8ff" points="2720.98,-62.28 2731.25,-59.69 2721.6,-55.31 2720.98,-62.28"/>
</g>
<!-- Node23 -->
<g id="node23" class="node">
<title>Node23</title>
<g id="a_node23"><a xlink:href="../../dd/d00/fortranscanner_8l.html" target="_top" xlink:title=" ">
<polygon fill="white" stroke="#666666" points="2474.5,-19 2364.5,-19 2364.5,0 2474.5,0 2474.5,-19"/>
<text text-anchor="middle" x="2419.5" y="-7" font-family="Helvetica,sans-Serif" font-size="10.00">src/fortranscanner.l</text>
</a>
</g>
</g>
<!-- Node3&#45;&gt;Node23 -->
<g id="edge22" class="edge">
<title>Node3&#45;&gt;Node23</title>
<path fill="none" stroke="#63b8ff" d="M2721.19,-55.41C2654.49,-45.48 2541.95,-28.73 2474.79,-18.73"/>
<polygon fill="#63b8ff" stroke="#63b8ff" points="2721.08,-58.94 2731.49,-56.95 2722.11,-52.01 2721.08,-58.94"/>
</g>
<!-- Node24 -->
<g id="node24" class="node">
<title>Node24</title>
<g id="a_node24"><a xlink:href="../../db/d41/ftvhelp_8cpp.html" target="_top" xlink:title=" ">
<polygon fill="white" stroke="#666666" points="2580.5,-19 2492.5,-19 2492.5,0 2580.5,0 2580.5,-19"/>
<text text-anchor="middle" x="2536.5" y="-7" font-family="Helvetica,sans-Serif" font-size="10.00">src/ftvhelp.cpp</text>
</a>
</g>
</g>
<!-- Node3&#45;&gt;Node24 -->
<g id="edge23" class="edge">
<title>Node3&#45;&gt;Node24</title>
<path fill="none" stroke="#63b8ff" d="M2727.32,-52.82C2682.53,-42.88 2616.66,-28.28 2575.2,-19.08"/>
<polygon fill="#63b8ff" stroke="#63b8ff" points="2726.58,-56.24 2737.1,-54.98 2728.1,-49.4 2726.58,-56.24"/>
</g>
<!-- Node25 -->
<g id="node25" class="node">
<title>Node25</title>
<g id="a_node25"><a xlink:href="../../d6/d42/groupdef_8cpp.html" target="_top" xlink:title=" ">
<polygon fill="white" stroke="#666666" points="2695,-19 2598,-19 2598,0 2695,0 2695,-19"/>
<text text-anchor="middle" x="2646.5" y="-7" font-family="Helvetica,sans-Serif" font-size="10.00">src/groupdef.cpp</text>
</a>
</g>
</g>
<!-- Node3&#45;&gt;Node25 -->
<g id="edge24" class="edge">
<title>Node3&#45;&gt;Node25</title>
<path fill="none" stroke="#63b8ff" d="M2745.46,-51.16C2721.58,-41.35 2688.78,-27.87 2667.6,-19.17"/>
<polygon fill="#63b8ff" stroke="#63b8ff" points="2744.19,-54.42 2754.77,-54.98 2746.85,-47.95 2744.19,-54.42"/>
</g>
<!-- Node26 -->
<g id="node26" class="node">
<title>Node26</title>
<g id="a_node26"><a xlink:href="../../da/db0/htmldocvisitor_8cpp.html" target="_top" xlink:title=" ">
<polygon fill="white" stroke="#666666" points="2837.5,-19 2713.5,-19 2713.5,0 2837.5,0 2837.5,-19"/>
<text text-anchor="middle" x="2775.5" y="-7" font-family="Helvetica,sans-Serif" font-size="10.00">src/htmldocvisitor.cpp</text>
</a>
</g>
</g>
<!-- Node3&#45;&gt;Node26 -->
<g id="edge25" class="edge">
<title>Node3&#45;&gt;Node26</title>
<path fill="none" stroke="#63b8ff" d="M2775.5,-44.66C2775.5,-35.93 2775.5,-25.99 2775.5,-19.09"/>
<polygon fill="#63b8ff" stroke="#63b8ff" points="2772,-44.75 2775.5,-54.75 2779,-44.75 2772,-44.75"/>
</g>
<!-- Node27 -->
<g id="node27" class="node">
<title>Node27</title>
<g id="a_node27"><a xlink:href="../../d8/d6e/htmlgen_8cpp.html" target="_top" xlink:title=" ">
<polygon fill="white" stroke="#666666" points="2951,-19 2856,-19 2856,0 2951,0 2951,-19"/>
<text text-anchor="middle" x="2903.5" y="-7" font-family="Helvetica,sans-Serif" font-size="10.00">src/htmlgen.cpp</text>
</a>
</g>
</g>
<!-- Node3&#45;&gt;Node27 -->
<g id="edge26" class="edge">
<title>Node3&#45;&gt;Node27</title>
<path fill="none" stroke="#63b8ff" d="M2805.62,-51.03C2829.29,-41.23 2861.65,-27.83 2882.56,-19.17"/>
<polygon fill="#63b8ff" stroke="#63b8ff" points="2803.97,-47.93 2796.07,-54.98 2806.64,-54.39 2803.97,-47.93"/>
</g>
<!-- Node28 -->
<g id="node28" class="node">
<title>Node28</title>
<g id="a_node28"><a xlink:href="../../d3/d4b/htmlhelp_8cpp.html" target="_top" xlink:title=" ">
<polygon fill="white" stroke="#666666" points="3067.5,-19 2969.5,-19 2969.5,0 3067.5,0 3067.5,-19"/>
<text text-anchor="middle" x="3018.5" y="-7" font-family="Helvetica,sans-Serif" font-size="10.00">src/htmlhelp.cpp</text>
</a>
</g>
</g>
<!-- Node3&#45;&gt;Node28 -->
<g id="edge27" class="edge">
<title>Node3&#45;&gt;Node28</title>
<path fill="none" stroke="#63b8ff" d="M2824.49,-52.82C2870.03,-42.88 2937,-28.28 2979.15,-19.08"/>
<polygon fill="#63b8ff" stroke="#63b8ff" points="2823.57,-49.43 2814.54,-54.98 2825.06,-56.27 2823.57,-49.43"/>
</g>
<!-- Node29 -->
<g id="node29" class="node">
<title>Node29</title>
<g id="a_node29"><a xlink:href="../../db/d14/index_8cpp.html" target="_top" xlink:title="This file contains functions for the various index pages.">
<polygon fill="white" stroke="#666666" points="3167,-19 3086,-19 3086,0 3167,0 3167,-19"/>
<text text-anchor="middle" x="3126.5" y="-7" font-family="Helvetica,sans-Serif" font-size="10.00">src/index.cpp</text>
</a>
</g>
</g>
<!-- Node3&#45;&gt;Node29 -->
<g id="edge28" class="edge">
<title>Node3&#45;&gt;Node29</title>
<path fill="none" stroke="#63b8ff" d="M2829.72,-55.84C2890.03,-47.24 2990.32,-32.69 3076.5,-19 3079.54,-18.52 3082.69,-18.01 3085.85,-17.49"/>
<polygon fill="#63b8ff" stroke="#63b8ff" points="2829.07,-52.4 2819.66,-57.28 2830.06,-59.33 2829.07,-52.4"/>
</g>
<!-- Node30 -->
<g id="node30" class="node">
<title>Node30</title>
<g id="a_node30"><a xlink:href="../../d1/d4e/latexdocvisitor_8cpp.html" target="_top" xlink:title=" ">
<polygon fill="white" stroke="#666666" points="3311.5,-19 3185.5,-19 3185.5,0 3311.5,0 3311.5,-19"/>
<text text-anchor="middle" x="3248.5" y="-7" font-family="Helvetica,sans-Serif" font-size="10.00">src/latexdocvisitor.cpp</text>
</a>
</g>
</g>
<!-- Node3&#45;&gt;Node30 -->
<g id="edge30" class="edge">
<title>Node3&#45;&gt;Node30</title>
<path fill="none" stroke="#63b8ff" d="M2829.68,-57.61C2906.74,-49.2 3052.46,-33.2 3176.5,-19 3179.38,-18.67 3182.32,-18.33 3185.29,-17.99"/>
<polygon fill="#63b8ff" stroke="#63b8ff" points="2829.28,-54.13 2819.72,-58.7 2830.04,-61.09 2829.28,-54.13"/>
</g>
<!-- Node31 -->
<g id="node31" class="node">
<title>Node31</title>
<g id="a_node31"><a xlink:href="../../d4/d42/latexgen_8cpp.html" target="_top" xlink:title=" ">
<polygon fill="white" stroke="#666666" points="3427,-19 3330,-19 3330,0 3427,0 3427,-19"/>
<text text-anchor="middle" x="3378.5" y="-7" font-family="Helvetica,sans-Serif" font-size="10.00">src/latexgen.cpp</text>
</a>
</g>
</g>
<!-- Node3&#45;&gt;Node31 -->
<g id="edge31" class="edge">
<title>Node3&#45;&gt;Node31</title>
<path fill="none" stroke="#63b8ff" d="M2830.02,-60.21C2928.26,-54.02 3141.45,-39.41 3320.5,-19 3323.53,-18.65 3326.65,-18.27 3329.8,-17.87"/>
<polygon fill="#63b8ff" stroke="#63b8ff" points="2829.51,-56.73 2819.75,-60.85 2829.94,-63.72 2829.51,-56.73"/>
</g>
<!-- Node32 -->
<g id="node32" class="node">
<title>Node32</title>
<g id="a_node32"><a xlink:href="../../db/d16/layout_8cpp.html" target="_top" xlink:title=" ">
<polygon fill="white" stroke="#666666" points="3530,-19 3445,-19 3445,0 3530,0 3530,-19"/>
<text text-anchor="middle" x="3487.5" y="-7" font-family="Helvetica,sans-Serif" font-size="10.00">src/layout.cpp</text>
</a>
</g>
</g>
<!-- Node3&#45;&gt;Node32 -->
<g id="edge32" class="edge">
<title>Node3&#45;&gt;Node32</title>
<path fill="none" stroke="#63b8ff" d="M2829.87,-61.64C2943.06,-57.38 3212.16,-45.18 3436.5,-19 3439.26,-18.68 3442.11,-18.31 3444.97,-17.91"/>
<polygon fill="#63b8ff" stroke="#63b8ff" points="2829.59,-58.15 2819.73,-62.02 2829.85,-65.15 2829.59,-58.15"/>
</g>
<!-- Node33 -->
<g id="node33" class="node">
<title>Node33</title>
<g id="a_node33"><a xlink:href="../../d8/dde/mandocvisitor_8cpp.html" target="_top" xlink:title=" ">
<polygon fill="white" stroke="#666666" points="3671,-19 3548,-19 3548,0 3671,0 3671,-19"/>
<text text-anchor="middle" x="3609.5" y="-7" font-family="Helvetica,sans-Serif" font-size="10.00">src/mandocvisitor.cpp</text>
</a>
</g>
</g>
<!-- Node3&#45;&gt;Node33 -->
<g id="edge33" class="edge">
<title>Node3&#45;&gt;Node33</title>
<path fill="none" stroke="#63b8ff" d="M2830.04,-61.5C2955.46,-56.64 3274.03,-42.83 3539.5,-19 3542.18,-18.76 3544.92,-18.5 3547.69,-18.22"/>
<polygon fill="#63b8ff" stroke="#63b8ff" points="2829.78,-58.01 2819.92,-61.89 2830.05,-65 2829.78,-58.01"/>
</g>
<!-- Node34 -->
<g id="node34" class="node">
<title>Node34</title>
<g id="a_node34"><a xlink:href="../../d7/de7/mangen_8cpp.html" target="_top" xlink:title=" ">
<polygon fill="white" stroke="#666666" points="3783.5,-19 3689.5,-19 3689.5,0 3783.5,0 3783.5,-19"/>
<text text-anchor="middle" x="3736.5" y="-7" font-family="Helvetica,sans-Serif" font-size="10.00">src/mangen.cpp</text>
</a>
</g>
</g>
<!-- Node3&#45;&gt;Node34 -->
<g id="edge34" class="edge">
<title>Node3&#45;&gt;Node34</title>
<path fill="none" stroke="#63b8ff" d="M2829.99,-62.75C2970.96,-60.38 3359.06,-51.21 3680.5,-19 3683.44,-18.71 3686.45,-18.36 3689.49,-17.99"/>
<polygon fill="#63b8ff" stroke="#63b8ff" points="2829.82,-59.25 2819.88,-62.91 2829.93,-66.25 2829.82,-59.25"/>
</g>
<!-- Node35 -->
<g id="node35" class="node">
<title>Node35</title>
<g id="a_node35"><a xlink:href="../../d0/d72/memberdef_8cpp.html" target="_top" xlink:title=" ">
<polygon fill="white" stroke="#666666" points="3911.5,-19 3801.5,-19 3801.5,0 3911.5,0 3911.5,-19"/>
<text text-anchor="middle" x="3856.5" y="-7" font-family="Helvetica,sans-Serif" font-size="10.00">src/memberdef.cpp</text>
</a>
</g>
</g>
<!-- Node3&#45;&gt;Node35 -->
<g id="edge35" class="edge">
<title>Node3&#45;&gt;Node35</title>
<path fill="none" stroke="#63b8ff" d="M2829.72,-62.81C2981.84,-60.52 3425.51,-51.34 3792.5,-19 3795.4,-18.74 3798.38,-18.45 3801.38,-18.14"/>
<polygon fill="#63b8ff" stroke="#63b8ff" points="2829.65,-59.31 2819.7,-62.96 2829.75,-66.31 2829.65,-59.31"/>
</g>
<!-- Node36 -->
<g id="node36" class="node">
<title>Node36</title>
<g id="a_node36"><a xlink:href="../../d6/d18/membergroup_8cpp.html" target="_top" xlink:title=" ">
<polygon fill="white" stroke="#666666" points="4053,-19 3930,-19 3930,0 4053,0 4053,-19"/>
<text text-anchor="middle" x="3991.5" y="-7" font-family="Helvetica,sans-Serif" font-size="10.00">src/membergroup.cpp</text>
</a>
</g>
</g>
<!-- Node3&#45;&gt;Node36 -->
<g id="edge36" class="edge">
<title>Node3&#45;&gt;Node36</title>
<path fill="none" stroke="#63b8ff" d="M2829.86,-62.94C2994.41,-60.9 3501.59,-52.16 3920.5,-19 3923.59,-18.76 3926.76,-18.48 3929.96,-18.17"/>
<polygon fill="#63b8ff" stroke="#63b8ff" points="2829.47,-59.44 2819.52,-63.06 2829.56,-66.44 2829.47,-59.44"/>
</g>
<!-- Node37 -->
<g id="node37" class="node">
<title>Node37</title>
<g id="a_node37"><a xlink:href="../../d0/d14/memberlist_8cpp.html" target="_top" xlink:title=" ">
<polygon fill="white" stroke="#666666" points="4181.5,-19 4071.5,-19 4071.5,0 4181.5,0 4181.5,-19"/>
<text text-anchor="middle" x="4126.5" y="-7" font-family="Helvetica,sans-Serif" font-size="10.00">src/memberlist.cpp</text>
</a>
</g>
</g>
<!-- Node3&#45;&gt;Node37 -->
<g id="edge37" class="edge">
<title>Node3&#45;&gt;Node37</title>
<path fill="none" stroke="#63b8ff" d="M2829.89,-63.51C3007.44,-63.15 3586.02,-58.78 4062.5,-19 4065.4,-18.76 4068.38,-18.48 4071.38,-18.17"/>
<polygon fill="#63b8ff" stroke="#63b8ff" points="2829.76,-60.01 2819.77,-63.53 2829.77,-67.01 2829.76,-60.01"/>
</g>
<!-- Node38 -->
<g id="node38" class="node">
<title>Node38</title>
<g id="a_node38"><a xlink:href="../../d7/d1c/namespacedef_8cpp.html" target="_top" xlink:title=" ">
<polygon fill="white" stroke="#666666" points="4325,-19 4200,-19 4200,0 4325,0 4325,-19"/>
<text text-anchor="middle" x="4262.5" y="-7" font-family="Helvetica,sans-Serif" font-size="10.00">src/namespacedef.cpp</text>
</a>
</g>
</g>
<!-- Node3&#45;&gt;Node38 -->
<g id="edge38" class="edge">
<title>Node3&#45;&gt;Node38</title>
<path fill="none" stroke="#63b8ff" d="M2829.78,-63.47C3018.19,-63.02 3661.29,-58.49 4190.5,-19 4193.51,-18.78 4196.59,-18.52 4199.7,-18.24"/>
<polygon fill="#63b8ff" stroke="#63b8ff" points="2829.58,-59.97 2819.59,-63.49 2829.59,-66.97 2829.58,-59.97"/>
</g>
<!-- Node39 -->
<g id="node39" class="node">
<title>Node39</title>
<g id="a_node39"><a xlink:href="../../d9/db4/pagedef_8cpp.html" target="_top" xlink:title=" ">
<polygon fill="white" stroke="#666666" points="4436,-19 4343,-19 4343,0 4436,0 4436,-19"/>
<text text-anchor="middle" x="4389.5" y="-7" font-family="Helvetica,sans-Serif" font-size="10.00">src/pagedef.cpp</text>
</a>
</g>
</g>
<!-- Node3&#45;&gt;Node39 -->
<g id="edge39" class="edge">
<title>Node3&#45;&gt;Node39</title>
<path fill="none" stroke="#63b8ff" d="M2829.76,-62.86C3069.26,-59.9 4033.1,-46.48 4334.5,-19 4337.19,-18.75 4339.96,-18.46 4342.74,-18.13"/>
<polygon fill="#63b8ff" stroke="#63b8ff" points="2829.52,-59.36 2819.57,-62.99 2829.61,-66.36 2829.52,-59.36"/>
</g>
<!-- Node40 -->
<g id="node40" class="node">
<title>Node40</title>
<g id="a_node40"><a xlink:href="../../de/d2b/pyscanner_8l.html" target="_top" xlink:title=" ">
<polygon fill="white" stroke="#666666" points="4543,-19 4454,-19 4454,0 4543,0 4543,-19"/>
<text text-anchor="middle" x="4498.5" y="-7" font-family="Helvetica,sans-Serif" font-size="10.00">src/pyscanner.l</text>
</a>
</g>
</g>
<!-- Node3&#45;&gt;Node40 -->
<g id="edge40" class="edge">
<title>Node3&#45;&gt;Node40</title>
<path fill="none" stroke="#63b8ff" d="M2829.91,-63.02C3080.04,-60.66 4121.13,-49.2 4445.5,-19 4448.19,-18.75 4450.95,-18.45 4453.73,-18.11"/>
<polygon fill="#63b8ff" stroke="#63b8ff" points="2829.59,-59.52 2819.63,-63.12 2829.66,-66.52 2829.59,-59.52"/>
</g>
<!-- Node41 -->
<g id="node41" class="node">
<title>Node41</title>
<g id="a_node41"><a xlink:href="../../de/d9a/rtfdocvisitor_8cpp.html" target="_top" xlink:title=" ">
<polygon fill="white" stroke="#666666" points="4674,-19 4561,-19 4561,0 4674,0 4674,-19"/>
<text text-anchor="middle" x="4617.5" y="-7" font-family="Helvetica,sans-Serif" font-size="10.00">src/rtfdocvisitor.cpp</text>
</a>
</g>
</g>
<!-- Node3&#45;&gt;Node41 -->
<g id="edge41" class="edge">
<title>Node3&#45;&gt;Node41</title>
<path fill="none" stroke="#63b8ff" d="M2829.96,-62.91C3089.83,-59.97 4205.41,-45.97 4552.5,-19 4555.22,-18.79 4558.01,-18.54 4560.82,-18.27"/>
<polygon fill="#63b8ff" stroke="#63b8ff" points="2829.62,-59.41 2819.66,-63.02 2829.69,-66.41 2829.62,-59.41"/>
</g>
<!-- Node42 -->
<g id="node42" class="node">
<title>Node42</title>
<g id="a_node42"><a xlink:href="../../d0/d9c/rtfgen_8cpp.html" target="_top" xlink:title=" ">
<polygon fill="white" stroke="#666666" points="4775,-19 4692,-19 4692,0 4775,0 4775,-19"/>
<text text-anchor="middle" x="4733.5" y="-7" font-family="Helvetica,sans-Serif" font-size="10.00">src/rtfgen.cpp</text>
</a>
</g>
</g>
<!-- Node3&#45;&gt;Node42 -->
<g id="edge42" class="edge">
<title>Node3&#45;&gt;Node42</title>
<path fill="none" stroke="#63b8ff" d="M2829.99,-63.3C3101.46,-62.13 4309.62,-54.95 4683.5,-19 4686.22,-18.74 4689.01,-18.42 4691.82,-18.05"/>
<polygon fill="#63b8ff" stroke="#63b8ff" points="2829.6,-59.8 2819.62,-63.34 2829.63,-66.8 2829.6,-59.8"/>
</g>
<!-- Node43 -->
<g id="node43" class="node">
<title>Node43</title>
<g id="a_node43"><a xlink:href="../../da/d11/scanner_8l.html" target="_top" xlink:title=" ">
<polygon fill="white" stroke="#666666" points="4870,-19 4793,-19 4793,0 4870,0 4870,-19"/>
<text text-anchor="middle" x="4831.5" y="-7" font-family="Helvetica,sans-Serif" font-size="10.00">src/scanner.l</text>
</a>
</g>
</g>
<!-- Node3&#45;&gt;Node43 -->
<g id="edge43" class="edge">
<title>Node3&#45;&gt;Node43</title>
<path fill="none" stroke="#63b8ff" d="M2830.16,-63.45C3110.56,-63.01 4389.75,-58.82 4784.5,-19 4787.22,-18.73 4790.02,-18.38 4792.84,-17.99"/>
<polygon fill="#63b8ff" stroke="#63b8ff" points="2829.83,-59.95 2819.84,-63.46 2829.84,-66.95 2829.83,-59.95"/>
</g>
<!-- Node44 -->
<g id="node44" class="node">
<title>Node44</title>
<g id="a_node44"><a xlink:href="../../d7/d79/searchindex_8cpp.html" target="_top" xlink:title=" ">
<polygon fill="white" stroke="#666666" points="5001,-19 4888,-19 4888,0 5001,0 5001,-19"/>
<text text-anchor="middle" x="4944.5" y="-7" font-family="Helvetica,sans-Serif" font-size="10.00">src/searchindex.cpp</text>
</a>
</g>
</g>
<!-- Node3&#45;&gt;Node44 -->
<g id="edge44" class="edge">
<title>Node3&#45;&gt;Node44</title>
<path fill="none" stroke="#63b8ff" d="M2829.92,-63.15C3117.6,-61.2 4463.85,-50.48 4879.5,-19 4882.22,-18.79 4885.01,-18.55 4887.82,-18.28"/>
<polygon fill="#63b8ff" stroke="#63b8ff" points="2829.71,-59.65 2819.74,-63.22 2829.76,-66.65 2829.71,-59.65"/>
</g>
<!-- Node45 -->
<g id="node45" class="node">
<title>Node45</title>
<g id="a_node45"><a xlink:href="../../d9/d2f/searchindex__js_8cpp.html" target="_top" xlink:title=" ">
<polygon fill="white" stroke="#666666" points="5146,-19 5019,-19 5019,0 5146,0 5146,-19"/>
<text text-anchor="middle" x="5082.5" y="-7" font-family="Helvetica,sans-Serif" font-size="10.00">src/searchindex_js.cpp</text>
</a>
</g>
</g>
<!-- Node3&#45;&gt;Node45 -->
<g id="edge45" class="edge">
<title>Node3&#45;&gt;Node45</title>
<path fill="none" stroke="#63b8ff" d="M2829.91,-63.14C3128.14,-61.05 4567.11,-49.51 5010.5,-19 5013.26,-18.81 5016.08,-18.59 5018.93,-18.35"/>
<polygon fill="#63b8ff" stroke="#63b8ff" points="2829.76,-59.64 2819.79,-63.21 2829.81,-66.64 2829.76,-59.64"/>
</g>
<!-- Node46 -->
<g id="node46" class="node">
<title>Node46</title>
<g id="a_node46"><a xlink:href="../../df/d2d/util_8cpp.html" target="_top" xlink:title=" ">
<polygon fill="white" stroke="#666666" points="5234.5,-19 5164.5,-19 5164.5,0 5234.5,0 5234.5,-19"/>
<text text-anchor="middle" x="5199.5" y="-7" font-family="Helvetica,sans-Serif" font-size="10.00">src/util.cpp</text>
</a>
</g>
</g>
<!-- Node3&#45;&gt;Node46 -->
<g id="edge46" class="edge">
<title>Node3&#45;&gt;Node46</title>
<path fill="none" stroke="#63b8ff" d="M2829.98,-63.76C3139.87,-65.02 4683.08,-68.67 5155.5,-19 5158.29,-18.71 5161.16,-18.33 5164.04,-17.89"/>
<polygon fill="#63b8ff" stroke="#63b8ff" points="2829.92,-60.26 2819.91,-63.71 2829.89,-67.26 2829.92,-60.26"/>
</g>
<!-- Node47 -->
<g id="node47" class="node">
<title>Node47</title>
<g id="a_node47"><a xlink:href="../../de/dea/vhdldocgen_8cpp.html" target="_top" xlink:title=" ">
<polygon fill="white" stroke="#666666" points="5362.5,-19 5252.5,-19 5252.5,0 5362.5,0 5362.5,-19"/>
<text text-anchor="middle" x="5307.5" y="-7" font-family="Helvetica,sans-Serif" font-size="10.00">src/vhdldocgen.cpp</text>
</a>
</g>
</g>
<!-- Node3&#45;&gt;Node47 -->
<g id="edge47" class="edge">
<title>Node3&#45;&gt;Node47</title>
<path fill="none" stroke="#63b8ff" d="M2829.9,-63.36C3146.19,-62.45 4751.24,-56.01 5243.5,-19 5246.41,-18.78 5249.38,-18.52 5252.38,-18.23"/>
<polygon fill="#63b8ff" stroke="#63b8ff" points="2829.62,-59.86 2819.63,-63.39 2829.64,-66.86 2829.62,-59.86"/>
</g>
<!-- Node48 -->
<g id="node48" class="node">
<title>Node48</title>
<g id="a_node48"><a xlink:href="../../d1/d86/vhdljjparser_8cpp.html" target="_top" xlink:title=" ">
<polygon fill="white" stroke="#666666" points="5492,-19 5381,-19 5381,0 5492,0 5492,-19"/>
<text text-anchor="middle" x="5436.5" y="-7" font-family="Helvetica,sans-Serif" font-size="10.00">src/vhdljjparser.cpp</text>
</a>
</g>
</g>
<!-- Node3&#45;&gt;Node48 -->
<g id="edge48" class="edge">
<title>Node3&#45;&gt;Node48</title>
<path fill="none" stroke="#63b8ff" d="M2830.12,-63.4C3156.49,-62.71 4852.3,-57.27 5371.5,-19 5374.56,-18.77 5377.71,-18.5 5380.87,-18.19"/>
<polygon fill="#63b8ff" stroke="#63b8ff" points="2829.97,-59.9 2819.97,-63.43 2829.98,-66.9 2829.97,-59.9"/>
</g>
<!-- Node49 -->
<g id="node49" class="node">
<title>Node49</title>
<g id="a_node49"><a xlink:href="../../dd/db6/xmldocvisitor_8cpp.html" target="_top" xlink:title=" ">
<polygon fill="white" stroke="#666666" points="5630.5,-19 5510.5,-19 5510.5,0 5630.5,0 5630.5,-19"/>
<text text-anchor="middle" x="5570.5" y="-7" font-family="Helvetica,sans-Serif" font-size="10.00">src/xmldocvisitor.cpp</text>
</a>
</g>
</g>
<!-- Node3&#45;&gt;Node49 -->
<g id="edge49" class="edge">
<title>Node3&#45;&gt;Node49</title>
<path fill="none" stroke="#63b8ff" d="M2830.13,-63.4C3165.99,-62.67 4954.69,-57.04 5501.5,-19 5504.39,-18.8 5507.34,-18.56 5510.33,-18.29"/>
<polygon fill="#63b8ff" stroke="#63b8ff" points="2829.7,-59.9 2819.7,-63.42 2829.71,-66.9 2829.7,-59.9"/>
</g>
<!-- Node50 -->
<g id="node50" class="node">
<title>Node50</title>
<g id="a_node50"><a xlink:href="../../d0/dc3/xmlgen_8cpp.html" target="_top" xlink:title=" ">
<polygon fill="white" stroke="#666666" points="5740,-19 5649,-19 5649,0 5740,0 5740,-19"/>
<text text-anchor="middle" x="5694.5" y="-7" font-family="Helvetica,sans-Serif" font-size="10.00">src/xmlgen.cpp</text>
</a>
</g>
</g>
<!-- Node3&#45;&gt;Node50 -->
<g id="edge50" class="edge">
<title>Node3&#45;&gt;Node50</title>
<path fill="none" stroke="#63b8ff" d="M2829.88,-63.68C3174.99,-64.66 5064.01,-67.71 5639.5,-19 5642.58,-18.74 5645.75,-18.41 5648.94,-18.04"/>
<polygon fill="#63b8ff" stroke="#63b8ff" points="2829.67,-60.18 2819.66,-63.65 2829.64,-67.18 2829.67,-60.18"/>
</g>
<!-- Node51&#45;&gt;Node2 -->
<g id="edge52" class="edge">
<title>Node51&#45;&gt;Node2</title>
<path fill="none" stroke="#63b8ff" d="M119.5,-49.97C102.31,-40.28 79.69,-27.52 64.88,-19.17"/>
<polygon fill="#63b8ff" stroke="#63b8ff" points="117.97,-53.12 128.4,-54.98 121.41,-47.02 117.97,-53.12"/>
</g>
</g>
</svg>
        <g id="navigator" transform="translate(0 0)" fill="#404254">
                <rect fill="#f2f5e9" fill-opacity="0.5" stroke="#606060" stroke-width=".5" x="0" y="0" width="60" height="60"/>
                <use id="zoomplus" xlink:href="#zoomPlus" x="17" y="9" onmousedown="handleZoom(evt,'in')"/>
                <use id="zoomminus" xlink:href="#zoomMin" x="42" y="9" onmousedown="handleZoom(evt,'out')"/>
                <use id="reset" xlink:href="#resetDef" x="30" y="36" onmousedown="handleReset()"/>
                <g id="arrowUp" xlink:href="#dirArrow" transform="translate(30 24)" onmousedown="handlePan(0,-1)">
                  <use xlink:href="#rim" fill="#404040">
                        <set attributeName="fill" to="#808080" begin="arrowUp.mouseover" end="arrowUp.mouseout"/>
                  </use>
                  <path fill="none" stroke="white" stroke-width="1.5" d="M0,-3.0v7 M-2.5,-0.5L0,-3.0L2.5,-0.5"/>
                </g>
                <g id="arrowRight" xlink:href="#dirArrow" transform="rotate(90) translate(36 -43)" onmousedown="handlePan(1,0)">
                  <use xlink:href="#rim" fill="#404040">
                        <set attributeName="fill" to="#808080" begin="arrowRight.mouseover" end="arrowRight.mouseout"/>
                  </use>
                  <path fill="none" stroke="white" stroke-width="1.5" d="M0,-3.0v7 M-2.5,-0.5L0,-3.0L2.5,-0.5"/>
                </g>
                <g id="arrowDown" xlink:href="#dirArrow" transform="rotate(180) translate(-30 -48)" onmousedown="handlePan(0,1)">
                  <use xlink:href="#rim" fill="#404040">
                        <set attributeName="fill" to="#808080" begin="arrowDown.mouseover" end="arrowDown.mouseout"/>
                  </use>
                  <path fill="none" stroke="white" stroke-width="1.5" d="M0,-3.0v7 M-2.5,-0.5L0,-3.0L2.5,-0.5"/>
                </g>
                <g id="arrowLeft" xlink:href="#dirArrow" transform="rotate(270) translate(-36 17)" onmousedown="handlePan(-1,0)">
                  <use xlink:href="#rim" fill="#404040">
                        <set attributeName="fill" to="#808080" begin="arrowLeft.mouseover" end="arrowLeft.mouseout"/>
                  </use>
                  <path fill="none" stroke="white" stroke-width="1.5" d="M0,-3.0v7 M-2.5,-0.5L0,-3.0L2.5,-0.5"/>
                </g>
        </g>
        <svg viewBox="0 0 15 15" width="100%" height="30px" preserveAspectRatio="xMaxYMin meet">
         <g id="arrow_out" transform="scale(0.3 0.3)">
          <a xlink:href="translator_8h__dep__incl_org.svg" target="_base">
           <rect id="button" ry="5" rx="5" y="6" x="6" height="38" width="38"
                fill="#f2f5e9" fill-opacity="0.5" stroke="#606060" stroke-width="1.0"/>
           <path id="arrow"
             d="M 11.500037,31.436501 C 11.940474,20.09759 22.043105,11.32322 32.158766,21.979434 L 37.068811,17.246167 C 37.068811,17.246167 37.088388,32 37.088388,32 L 22.160133,31.978069 C 22.160133,31.978069 26.997745,27.140456 26.997745,27.140456 C 18.528582,18.264221 13.291696,25.230495 11.500037,31.436501 z"
             style="fill:#404040;"/>
          </a>
         </g>
        </svg>
</svg>
