<?xml version="1.0" encoding="UTF-8" standalone="no"?>
<!DOCTYPE svg PUBLIC "-//W3C//DTD SVG 1.1//EN"
 "http://www.w3.org/Graphics/SVG/1.1/DTD/svg11.dtd">
<!-- Generated by graphviz version 2.40.1 (20161225.0304)
 -->
<!-- Title: HtmlHelpIndex Pages: 1 -->
<svg width="248pt" height="170pt"
 viewBox="0.00 0.00 248.00 170.00" xmlns="http://www.w3.org/2000/svg" xmlns:xlink="http://www.w3.org/1999/xlink">
<g id="graph0" class="graph" transform="scale(1 1) rotate(0) translate(4 166)">
<title>HtmlHelpIndex</title>
<!-- Node1 -->
<g id="node1" class="node">
<title>Node1</title>
<g id="a_node1"><a xlink:title="A helper class for HtmlHelp that manages a two level index in alphabetical order.">
<polygon fill="#999999" stroke="#666666" points="200.5,-19 118.5,-19 118.5,0 200.5,0 200.5,-19"/>
<text text-anchor="middle" x="159.5" y="-7" font-family="Helvetica,sans-Serif" font-size="10.00" fill="#000000">HtmlHelpIndex</text>
</a>
</g>
</g>
<!-- Node2 -->
<g id="node2" class="node">
<title>Node2</title>
<g id="a_node2"><a xlink:href="../../d0/d2c/class_linked_map.html" target="_top" xlink:title=" ">
<polygon fill="#ffffff" stroke="#666666" points="127,-85 0,-85 0,-66 127,-66 127,-85"/>
<text text-anchor="middle" x="63.5" y="-73" font-family="Helvetica,sans-Serif" font-size="10.00" fill="#000000">LinkedMap&lt; IndexField &gt;</text>
</a>
</g>
</g>
<!-- Node2&#45;&gt;Node1 -->
<g id="edge1" class="edge">
<title>Node2&#45;&gt;Node1</title>
<path fill="none" stroke="#9a32cd" stroke-dasharray="5,2" d="M86.0802,-59.9761C104.5249,-47.2954 130.008,-29.7758 145.5889,-19.0639"/>
<polygon fill="#9a32cd" stroke="#9a32cd" points="83.9227,-57.212 77.6651,-65.7615 87.8884,-62.9803 83.9227,-57.212"/>
<text text-anchor="middle" x="135.5" y="-40" font-family="Helvetica,sans-Serif" font-size="10.00" fill="#000000"> m_map</text>
</g>
<!-- Node3 -->
<g id="node3" class="node">
<title>Node3</title>
<g id="a_node3"><a xlink:href="../../d0/d2c/class_linked_map.html" target="_top" xlink:title="Container class representing a vector of objects with keys.">
<polygon fill="#ffffff" stroke="#666666" points="119,-162 8,-162 8,-132 119,-132 119,-162"/>
<text text-anchor="start" x="16" y="-150" font-family="Helvetica,sans-Serif" font-size="10.00" fill="#000000">LinkedMap&lt; T, Hash,</text>
<text text-anchor="middle" x="63.5" y="-139" font-family="Helvetica,sans-Serif" font-size="10.00" fill="#000000"> KeyEqual, Map &gt;</text>
</a>
</g>
</g>
<!-- Node3&#45;&gt;Node2 -->
<g id="edge2" class="edge">
<title>Node3&#45;&gt;Node2</title>
<path fill="none" stroke="#ffa500" stroke-dasharray="5,2" d="M63.5,-121.8098C63.5,-109.141 63.5,-94.5285 63.5,-85.1614"/>
<polygon fill="#ffa500" stroke="#ffa500" points="60.0001,-121.8367 63.5,-131.8367 67.0001,-121.8367 60.0001,-121.8367"/>
<text text-anchor="middle" x="97" y="-106" font-family="Helvetica,sans-Serif" font-size="10.00" fill="#000000"> &lt; IndexField &gt;</text>
</g>
<!-- Node4 -->
<g id="node4" class="node">
<title>Node4</title>
<g id="a_node4"><a xlink:href="../../df/d26/class_html_help_recoder.html" target="_top" xlink:title="Helper class to deal with recoding the UTF8 encoded text back to the native encoding specified by CHM...">
<polygon fill="#ffffff" stroke="#666666" points="240,-85 145,-85 145,-66 240,-66 240,-85"/>
<text text-anchor="middle" x="192.5" y="-73" font-family="Helvetica,sans-Serif" font-size="10.00" fill="#000000">HtmlHelpRecoder</text>
</a>
</g>
</g>
<!-- Node4&#45;&gt;Node1 -->
<g id="edge3" class="edge">
<title>Node4&#45;&gt;Node1</title>
<path fill="none" stroke="#9a32cd" stroke-dasharray="5,2" d="M182.9826,-56.4652C176.9024,-44.3049 169.2711,-29.0423 164.3892,-19.2785"/>
<polygon fill="#9a32cd" stroke="#9a32cd" points="180.028,-58.3825 187.6307,-65.7615 186.289,-55.2519 180.028,-58.3825"/>
<text text-anchor="middle" x="202" y="-40" font-family="Helvetica,sans-Serif" font-size="10.00" fill="#000000"> m_recoder</text>
</g>
</g>
</svg>
