<?xml version="1.0" encoding="UTF-8" standalone="no"?>
<!DOCTYPE svg PUBLIC "-//W3C//DTD SVG 1.1//EN"
 "http://www.w3.org/Graphics/SVG/1.1/DTD/svg11.dtd">
<!-- Generated by graphviz version 2.40.1 (20161225.0304)
 -->
<!-- Title: TemplateNodeCreator&lt; T &gt; Pages: 1 -->
<svg width="799pt" height="1004pt"
 viewBox="0.00 0.00 799.00 1004.00" xmlns="http://www.w3.org/2000/svg" xmlns:xlink="http://www.w3.org/1999/xlink">
<g id="graph0" class="graph" transform="scale(1 1) rotate(0) translate(4 1000)">
<title>TemplateNodeCreator&lt; T &gt;</title>
<!-- Node1 -->
<g id="node1" class="node">
<title>Node1</title>
<g id="a_node1"><a xlink:title="Helper class for creating template AST tag nodes and returning the template for a given node.">
<polygon fill="#999999" stroke="#666666" points="254,-504.5 117,-504.5 117,-485.5 254,-485.5 254,-504.5"/>
<text text-anchor="middle" x="185.5" y="-492.5" font-family="Helvetica,sans-Serif" font-size="10.00" fill="#000000">TemplateNodeCreator&lt; T &gt;</text>
</a>
</g>
</g>
<!-- Node3 -->
<g id="node3" class="node">
<title>Node3</title>
<g id="a_node3"><a xlink:href="../../d8/d78/class_template_node_creator.html" target="_top" xlink:title=" ">
<polygon fill="#ffffff" stroke="#666666" points="586,-990 463,-990 463,-960 586,-960 586,-990"/>
<text text-anchor="start" x="471" y="-978" font-family="Helvetica,sans-Serif" font-size="10.00" fill="#000000">TemplateNodeCreator</text>
<text text-anchor="middle" x="524.5" y="-967" font-family="Helvetica,sans-Serif" font-size="10.00" fill="#000000">&lt; TemplateNodeBlock &gt;</text>
</a>
</g>
</g>
<!-- Node1&#45;&gt;Node3 -->
<g id="edge2" class="edge">
<title>Node1&#45;&gt;Node3</title>
<path fill="none" stroke="#ffa500" stroke-dasharray="5,2" d="M186.439,-515.0777C190.5401,-593.5934 209.5676,-878.455 272,-938 322.2555,-985.9313 405.6342,-989.0374 462.7315,-984.2414"/>
<polygon fill="#ffa500" stroke="#ffa500" points="189.9142,-514.4894 185.9216,-504.6757 182.9228,-514.8372 189.9142,-514.4894"/>
<text text-anchor="middle" x="348" y="-988" font-family="Helvetica,sans-Serif" font-size="10.00" fill="#000000"> &lt; TemplateNodeBlock &gt;</text>
</g>
<!-- Node5 -->
<g id="node5" class="node">
<title>Node5</title>
<g id="a_node5"><a xlink:href="../../d8/d78/class_template_node_creator.html" target="_top" xlink:title=" ">
<polygon fill="#ffffff" stroke="#666666" points="607,-942 442,-942 442,-912 607,-912 607,-942"/>
<text text-anchor="start" x="450" y="-930" font-family="Helvetica,sans-Serif" font-size="10.00" fill="#000000">TemplateNodeCreator</text>
<text text-anchor="middle" x="524.5" y="-919" font-family="Helvetica,sans-Serif" font-size="10.00" fill="#000000">&lt; TemplateNodeCloseSubIndex &gt;</text>
</a>
</g>
</g>
<!-- Node1&#45;&gt;Node5 -->
<g id="edge4" class="edge">
<title>Node1&#45;&gt;Node5</title>
<path fill="none" stroke="#ffa500" stroke-dasharray="5,2" d="M186.9417,-514.7C192.6546,-587.0744 216.1705,-836.7775 272,-889 296.1192,-911.5609 377.6991,-920.7324 441.6813,-924.4578"/>
<polygon fill="#ffa500" stroke="#ffa500" points="190.4267,-514.3688 186.1754,-504.6643 183.447,-514.9017 190.4267,-514.3688"/>
<text text-anchor="middle" x="348" y="-926" font-family="Helvetica,sans-Serif" font-size="10.00" fill="#000000"> &lt; TemplateNodeCloseSubIndex &gt;</text>
</g>
<!-- Node7 -->
<g id="node7" class="node">
<title>Node7</title>
<g id="a_node7"><a xlink:href="../../d8/d78/class_template_node_creator.html" target="_top" xlink:title=" ">
<polygon fill="#ffffff" stroke="#666666" points="588.5,-894 460.5,-894 460.5,-864 588.5,-864 588.5,-894"/>
<text text-anchor="start" x="468.5" y="-882" font-family="Helvetica,sans-Serif" font-size="10.00" fill="#000000">TemplateNodeCreator</text>
<text text-anchor="middle" x="524.5" y="-871" font-family="Helvetica,sans-Serif" font-size="10.00" fill="#000000">&lt; TemplateNodeCreate &gt;</text>
</a>
</g>
</g>
<!-- Node1&#45;&gt;Node7 -->
<g id="edge6" class="edge">
<title>Node1&#45;&gt;Node7</title>
<path fill="none" stroke="#ffa500" stroke-dasharray="5,2" d="M187.5992,-514.8414C195.0732,-581.5581 222.6166,-796.1257 272,-841 298.8619,-865.4091 394.6699,-874.1395 460.2308,-877.2618"/>
<polygon fill="#ffa500" stroke="#ffa500" points="191.0685,-514.3691 186.5032,-504.8084 184.1099,-515.1294 191.0685,-514.3691"/>
<text text-anchor="middle" x="348" y="-877" font-family="Helvetica,sans-Serif" font-size="10.00" fill="#000000"> &lt; TemplateNodeCreate &gt;</text>
</g>
<!-- Node9 -->
<g id="node9" class="node">
<title>Node9</title>
<g id="a_node9"><a xlink:href="../../d8/d78/class_template_node_creator.html" target="_top" xlink:title=" ">
<polygon fill="#ffffff" stroke="#666666" points="586.5,-846 462.5,-846 462.5,-816 586.5,-816 586.5,-846"/>
<text text-anchor="start" x="470.5" y="-834" font-family="Helvetica,sans-Serif" font-size="10.00" fill="#000000">TemplateNodeCreator</text>
<text text-anchor="middle" x="524.5" y="-823" font-family="Helvetica,sans-Serif" font-size="10.00" fill="#000000">&lt; TemplateNodeCycle &gt;</text>
</a>
</g>
</g>
<!-- Node1&#45;&gt;Node9 -->
<g id="edge8" class="edge">
<title>Node1&#45;&gt;Node9</title>
<path fill="none" stroke="#ffa500" stroke-dasharray="5,2" d="M188.4534,-514.7075C197.8781,-574.8774 229.1499,-754.3935 272,-792 299.5874,-816.2115 397.0355,-825.4181 462.4867,-828.9016"/>
<polygon fill="#ffa500" stroke="#ffa500" points="191.8834,-513.9838 186.9061,-504.6309 184.9645,-515.0463 191.8834,-513.9838"/>
<text text-anchor="middle" x="348" y="-829" font-family="Helvetica,sans-Serif" font-size="10.00" fill="#000000"> &lt; TemplateNodeCycle &gt;</text>
</g>
<!-- Node11 -->
<g id="node11" class="node">
<title>Node11</title>
<g id="a_node11"><a xlink:href="../../d8/d78/class_template_node_creator.html" target="_top" xlink:title=" ">
<polygon fill="#ffffff" stroke="#666666" points="594,-798 455,-798 455,-768 594,-768 594,-798"/>
<text text-anchor="start" x="463" y="-786" font-family="Helvetica,sans-Serif" font-size="10.00" fill="#000000">TemplateNodeCreator</text>
<text text-anchor="middle" x="524.5" y="-775" font-family="Helvetica,sans-Serif" font-size="10.00" fill="#000000">&lt; TemplateNodeEncoding &gt;</text>
</a>
</g>
</g>
<!-- Node1&#45;&gt;Node11 -->
<g id="edge10" class="edge">
<title>Node1&#45;&gt;Node11</title>
<path fill="none" stroke="#ffa500" stroke-dasharray="5,2" d="M189.5949,-514.6178C201.1237,-567.9262 235.407,-713.4991 272,-744 299.0877,-766.5781 389.9312,-776.1545 454.8845,-780.1701"/>
<polygon fill="#ffa500" stroke="#ffa500" points="192.9929,-513.7696 187.4876,-504.7174 186.1463,-515.227 192.9929,-513.7696"/>
<text text-anchor="middle" x="348" y="-780" font-family="Helvetica,sans-Serif" font-size="10.00" fill="#000000"> &lt; TemplateNodeEncoding &gt;</text>
</g>
<!-- Node13 -->
<g id="node13" class="node">
<title>Node13</title>
<g id="a_node13"><a xlink:href="../../d8/d78/class_template_node_creator.html" target="_top" xlink:title=" ">
<polygon fill="#ffffff" stroke="#666666" points="589,-750 460,-750 460,-720 589,-720 589,-750"/>
<text text-anchor="start" x="468" y="-738" font-family="Helvetica,sans-Serif" font-size="10.00" fill="#000000">TemplateNodeCreator</text>
<text text-anchor="middle" x="524.5" y="-727" font-family="Helvetica,sans-Serif" font-size="10.00" fill="#000000">&lt; TemplateNodeExtend &gt;</text>
</a>
</g>
</g>
<!-- Node1&#45;&gt;Node13 -->
<g id="edge12" class="edge">
<title>Node1&#45;&gt;Node13</title>
<path fill="none" stroke="#ffa500" stroke-dasharray="5,2" d="M187.6978,-514.5344C193.414,-555.4345 212.6914,-650.0819 272,-696 300.5409,-718.097 394.845,-727.8606 459.76,-732.0416"/>
<polygon fill="#ffa500" stroke="#ffa500" points="191.1566,-513.9875 186.4232,-504.5088 184.2125,-514.8704 191.1566,-513.9875"/>
<text text-anchor="middle" x="348" y="-732" font-family="Helvetica,sans-Serif" font-size="10.00" fill="#000000"> &lt; TemplateNodeExtend &gt;</text>
</g>
<!-- Node15 -->
<g id="node15" class="node">
<title>Node15</title>
<g id="a_node15"><a xlink:href="../../d8/d78/class_template_node_creator.html" target="_top" xlink:title=" ">
<polygon fill="#ffffff" stroke="#666666" points="581,-702 468,-702 468,-672 581,-672 581,-702"/>
<text text-anchor="start" x="476" y="-690" font-family="Helvetica,sans-Serif" font-size="10.00" fill="#000000">TemplateNodeCreator</text>
<text text-anchor="middle" x="524.5" y="-679" font-family="Helvetica,sans-Serif" font-size="10.00" fill="#000000">&lt; TemplateNodeFor &gt;</text>
</a>
</g>
</g>
<!-- Node1&#45;&gt;Node15 -->
<g id="edge14" class="edge">
<title>Node1&#45;&gt;Node15</title>
<path fill="none" stroke="#ffa500" stroke-dasharray="5,2" d="M190.3167,-514.8189C199.704,-548.8347 223.8785,-617.8612 272,-651 302.862,-672.2531 403.2831,-681.1394 467.7981,-684.7215"/>
<polygon fill="#ffa500" stroke="#ffa500" points="193.5957,-513.5218 187.6868,-504.7277 186.8219,-515.2872 193.5957,-513.5218"/>
<text text-anchor="middle" x="348" y="-684" font-family="Helvetica,sans-Serif" font-size="10.00" fill="#000000"> &lt; TemplateNodeFor &gt;</text>
</g>
<!-- Node17 -->
<g id="node17" class="node">
<title>Node17</title>
<g id="a_node17"><a xlink:href="../../d8/d78/class_template_node_creator.html" target="_top" xlink:title=" ">
<polygon fill="#ffffff" stroke="#666666" points="581,-654 468,-654 468,-624 581,-624 581,-654"/>
<text text-anchor="start" x="476" y="-642" font-family="Helvetica,sans-Serif" font-size="10.00" fill="#000000">TemplateNodeCreator</text>
<text text-anchor="middle" x="524.5" y="-631" font-family="Helvetica,sans-Serif" font-size="10.00" fill="#000000">&lt; TemplateNodeIf &gt;</text>
</a>
</g>
</g>
<!-- Node1&#45;&gt;Node17 -->
<g id="edge16" class="edge">
<title>Node1&#45;&gt;Node17</title>
<path fill="none" stroke="#ffa500" stroke-dasharray="5,2" d="M195.9226,-513.4499C210.0086,-536.5346 237.3907,-575.409 272,-595 332.8931,-629.4693 414.2495,-638.1943 467.954,-639.7965"/>
<polygon fill="#ffa500" stroke="#ffa500" points="198.8127,-511.4605 190.7175,-504.6254 192.7834,-515.0169 198.8127,-511.4605"/>
<text text-anchor="middle" x="348" y="-639" font-family="Helvetica,sans-Serif" font-size="10.00" fill="#000000"> &lt; TemplateNodeIf &gt;</text>
</g>
<!-- Node19 -->
<g id="node19" class="node">
<title>Node19</title>
<g id="a_node19"><a xlink:href="../../d8/d78/class_template_node_creator.html" target="_top" xlink:title=" ">
<polygon fill="#ffffff" stroke="#666666" points="589.5,-606 459.5,-606 459.5,-576 589.5,-576 589.5,-606"/>
<text text-anchor="start" x="467.5" y="-594" font-family="Helvetica,sans-Serif" font-size="10.00" fill="#000000">TemplateNodeCreator</text>
<text text-anchor="middle" x="524.5" y="-583" font-family="Helvetica,sans-Serif" font-size="10.00" fill="#000000">&lt; TemplateNodeInclude &gt;</text>
</a>
</g>
</g>
<!-- Node1&#45;&gt;Node19 -->
<g id="edge18" class="edge">
<title>Node1&#45;&gt;Node19</title>
<path fill="none" stroke="#ffa500" stroke-dasharray="5,2" d="M207.4187,-510.5218C224.3074,-521.7563 248.6466,-536.4182 272,-545 333.3764,-567.5543 407.3589,-579.3663 459.3261,-585.3405"/>
<polygon fill="#ffa500" stroke="#ffa500" points="209.0922,-507.4271 198.8561,-504.6934 205.1533,-513.2137 209.0922,-507.4271"/>
<text text-anchor="middle" x="348" y="-583" font-family="Helvetica,sans-Serif" font-size="10.00" fill="#000000"> &lt; TemplateNodeInclude &gt;</text>
</g>
<!-- Node21 -->
<g id="node21" class="node">
<title>Node21</title>
<g id="a_node21"><a xlink:href="../../d8/d78/class_template_node_creator.html" target="_top" xlink:title=" ">
<polygon fill="#ffffff" stroke="#666666" points="597.5,-558 451.5,-558 451.5,-528 597.5,-528 597.5,-558"/>
<text text-anchor="start" x="459.5" y="-546" font-family="Helvetica,sans-Serif" font-size="10.00" fill="#000000">TemplateNodeCreator</text>
<text text-anchor="middle" x="524.5" y="-535" font-family="Helvetica,sans-Serif" font-size="10.00" fill="#000000">&lt; TemplateNodeIndexEntry &gt;</text>
</a>
</g>
</g>
<!-- Node1&#45;&gt;Node21 -->
<g id="edge20" class="edge">
<title>Node1&#45;&gt;Node21</title>
<path fill="none" stroke="#ffa500" stroke-dasharray="5,2" d="M248.4608,-506.2337C256.3776,-507.5532 264.3716,-508.8406 272,-510 332.3166,-519.1672 400.9779,-528.0404 451.46,-534.2727"/>
<polygon fill="#ffa500" stroke="#ffa500" points="248.951,-502.7669 238.5077,-504.5524 247.785,-509.6692 248.951,-502.7669"/>
<text text-anchor="middle" x="348" y="-533" font-family="Helvetica,sans-Serif" font-size="10.00" fill="#000000"> &lt; TemplateNodeIndexEntry &gt;</text>
</g>
<!-- Node23 -->
<g id="node23" class="node">
<title>Node23</title>
<g id="a_node23"><a xlink:href="../../d8/d78/class_template_node_creator.html" target="_top" xlink:title=" ">
<polygon fill="#ffffff" stroke="#666666" points="591.5,-510 457.5,-510 457.5,-480 591.5,-480 591.5,-510"/>
<text text-anchor="start" x="465.5" y="-498" font-family="Helvetica,sans-Serif" font-size="10.00" fill="#000000">TemplateNodeCreator</text>
<text text-anchor="middle" x="524.5" y="-487" font-family="Helvetica,sans-Serif" font-size="10.00" fill="#000000">&lt; TemplateNodeMarkers &gt;</text>
</a>
</g>
</g>
<!-- Node1&#45;&gt;Node23 -->
<g id="edge22" class="edge">
<title>Node1&#45;&gt;Node23</title>
<path fill="none" stroke="#ffa500" stroke-dasharray="5,2" d="M264.4177,-495C322.9677,-495 401.9359,-495 457.4454,-495"/>
<polygon fill="#ffa500" stroke="#ffa500" points="264.1017,-491.5001 254.1017,-495 264.1017,-498.5001 264.1017,-491.5001"/>
<text text-anchor="middle" x="348" y="-498" font-family="Helvetica,sans-Serif" font-size="10.00" fill="#000000"> &lt; TemplateNodeMarkers &gt;</text>
</g>
<!-- Node25 -->
<g id="node25" class="node">
<title>Node25</title>
<g id="a_node25"><a xlink:href="../../d8/d78/class_template_node_creator.html" target="_top" xlink:title=" ">
<polygon fill="#ffffff" stroke="#666666" points="583,-462 466,-462 466,-432 583,-432 583,-462"/>
<text text-anchor="start" x="474" y="-450" font-family="Helvetica,sans-Serif" font-size="10.00" fill="#000000">TemplateNodeCreator</text>
<text text-anchor="middle" x="524.5" y="-439" font-family="Helvetica,sans-Serif" font-size="10.00" fill="#000000">&lt; TemplateNodeMsg &gt;</text>
</a>
</g>
</g>
<!-- Node1&#45;&gt;Node25 -->
<g id="edge24" class="edge">
<title>Node1&#45;&gt;Node25</title>
<path fill="none" stroke="#ffa500" stroke-dasharray="5,2" d="M248.4608,-483.7663C256.3776,-482.4468 264.3716,-481.1594 272,-480 338.3264,-469.9195 414.7433,-460.1943 465.9821,-453.9453"/>
<polygon fill="#ffa500" stroke="#ffa500" points="247.785,-480.3308 238.5077,-485.4476 248.951,-487.2331 247.785,-480.3308"/>
<text text-anchor="middle" x="348" y="-483" font-family="Helvetica,sans-Serif" font-size="10.00" fill="#000000"> &lt; TemplateNodeMsg &gt;</text>
</g>
<!-- Node27 -->
<g id="node27" class="node">
<title>Node27</title>
<g id="a_node27"><a xlink:href="../../d8/d78/class_template_node_creator.html" target="_top" xlink:title=" ">
<polygon fill="#ffffff" stroke="#666666" points="606,-414 443,-414 443,-384 606,-384 606,-414"/>
<text text-anchor="start" x="451" y="-402" font-family="Helvetica,sans-Serif" font-size="10.00" fill="#000000">TemplateNodeCreator</text>
<text text-anchor="middle" x="524.5" y="-391" font-family="Helvetica,sans-Serif" font-size="10.00" fill="#000000">&lt; TemplateNodeOpenSubIndex &gt;</text>
</a>
</g>
</g>
<!-- Node1&#45;&gt;Node27 -->
<g id="edge26" class="edge">
<title>Node1&#45;&gt;Node27</title>
<path fill="none" stroke="#ffa500" stroke-dasharray="5,2" d="M207.4187,-479.4782C224.3074,-468.2437 248.6466,-453.5818 272,-445 327.1029,-424.7511 392.3664,-413.1606 442.7376,-406.6797"/>
<polygon fill="#ffa500" stroke="#ffa500" points="205.1533,-476.7863 198.8561,-485.3066 209.0922,-482.5729 205.1533,-476.7863"/>
<text text-anchor="middle" x="348" y="-448" font-family="Helvetica,sans-Serif" font-size="10.00" fill="#000000"> &lt; TemplateNodeOpenSubIndex &gt;</text>
</g>
<!-- Node29 -->
<g id="node29" class="node">
<title>Node29</title>
<g id="a_node29"><a xlink:href="../../d8/d78/class_template_node_creator.html" target="_top" xlink:title=" ">
<polygon fill="#ffffff" stroke="#666666" points="588,-366 461,-366 461,-336 588,-336 588,-366"/>
<text text-anchor="start" x="469" y="-354" font-family="Helvetica,sans-Serif" font-size="10.00" fill="#000000">TemplateNodeCreator</text>
<text text-anchor="middle" x="524.5" y="-343" font-family="Helvetica,sans-Serif" font-size="10.00" fill="#000000">&lt; TemplateNodeRange &gt;</text>
</a>
</g>
</g>
<!-- Node1&#45;&gt;Node29 -->
<g id="edge28" class="edge">
<title>Node1&#45;&gt;Node29</title>
<path fill="none" stroke="#ffa500" stroke-dasharray="5,2" d="M195.8935,-476.4984C209.9486,-453.3588 237.298,-414.4262 272,-395 331.7396,-361.5577 356.5817,-381.9154 424,-370 435.8905,-367.8985 448.5551,-365.5728 460.7436,-363.2904"/>
<polygon fill="#ffa500" stroke="#ffa500" points="192.7443,-474.9496 190.7011,-485.3456 198.7813,-478.4928 192.7443,-474.9496"/>
<text text-anchor="middle" x="348" y="-398" font-family="Helvetica,sans-Serif" font-size="10.00" fill="#000000"> &lt; TemplateNodeRange &gt;</text>
</g>
<!-- Node31 -->
<g id="node31" class="node">
<title>Node31</title>
<g id="a_node31"><a xlink:href="../../d8/d78/class_template_node_creator.html" target="_top" xlink:title=" ">
<polygon fill="#ffffff" stroke="#666666" points="589.5,-318 459.5,-318 459.5,-288 589.5,-288 589.5,-318"/>
<text text-anchor="start" x="467.5" y="-306" font-family="Helvetica,sans-Serif" font-size="10.00" fill="#000000">TemplateNodeCreator</text>
<text text-anchor="middle" x="524.5" y="-295" font-family="Helvetica,sans-Serif" font-size="10.00" fill="#000000">&lt; TemplateNodeRepeat &gt;</text>
</a>
</g>
</g>
<!-- Node1&#45;&gt;Node31 -->
<g id="edge30" class="edge">
<title>Node1&#45;&gt;Node31</title>
<path fill="none" stroke="#ffa500" stroke-dasharray="5,2" d="M191.5627,-475.5456C202.3152,-444.5784 227.8534,-384.6538 272,-356 329.2041,-318.8711 358.4166,-353.6996 424,-335 432.419,-332.5995 433.7782,-330.0073 442,-327 450.5454,-323.8743 459.7026,-320.8755 468.6948,-318.1206"/>
<polygon fill="#ffa500" stroke="#ffa500" points="188.1892,-474.5994 188.3698,-485.1927 194.8347,-476.7989 188.1892,-474.5994"/>
<text text-anchor="middle" x="348" y="-359" font-family="Helvetica,sans-Serif" font-size="10.00" fill="#000000"> &lt; TemplateNodeRepeat &gt;</text>
</g>
<!-- Node33 -->
<g id="node33" class="node">
<title>Node33</title>
<g id="a_node33"><a xlink:href="../../d8/d78/class_template_node_creator.html" target="_top" xlink:title=" ">
<polygon fill="#ffffff" stroke="#666666" points="594.5,-270 454.5,-270 454.5,-240 594.5,-240 594.5,-270"/>
<text text-anchor="start" x="462.5" y="-258" font-family="Helvetica,sans-Serif" font-size="10.00" fill="#000000">TemplateNodeCreator</text>
<text text-anchor="middle" x="524.5" y="-247" font-family="Helvetica,sans-Serif" font-size="10.00" fill="#000000">&lt; TemplateNodeResource &gt;</text>
</a>
</g>
</g>
<!-- Node1&#45;&gt;Node33 -->
<g id="edge32" class="edge">
<title>Node1&#45;&gt;Node33</title>
<path fill="none" stroke="#ffa500" stroke-dasharray="5,2" d="M189.0153,-475.4188C196.7722,-438.3992 219.0519,-358.4219 272,-320 327.2465,-279.9103 363.3937,-329.4044 424,-298 434.328,-292.6483 432.0696,-285.0578 442,-279 447.6031,-275.582 453.7172,-272.6299 460.0013,-270.0846"/>
<polygon fill="#ffa500" stroke="#ffa500" points="185.5409,-474.9491 187.0564,-485.435 192.4108,-476.2928 185.5409,-474.9491"/>
<text text-anchor="middle" x="348" y="-323" font-family="Helvetica,sans-Serif" font-size="10.00" fill="#000000"> &lt; TemplateNodeResource &gt;</text>
</g>
<!-- Node35 -->
<g id="node35" class="node">
<title>Node35</title>
<g id="a_node35"><a xlink:href="../../d8/d78/class_template_node_creator.html" target="_top" xlink:title=" ">
<polygon fill="#ffffff" stroke="#666666" points="581,-222 468,-222 468,-192 581,-192 581,-222"/>
<text text-anchor="start" x="476" y="-210" font-family="Helvetica,sans-Serif" font-size="10.00" fill="#000000">TemplateNodeCreator</text>
<text text-anchor="middle" x="524.5" y="-199" font-family="Helvetica,sans-Serif" font-size="10.00" fill="#000000">&lt; TemplateNodeSet &gt;</text>
</a>
</g>
</g>
<!-- Node1&#45;&gt;Node35 -->
<g id="edge34" class="edge">
<title>Node1&#45;&gt;Node35</title>
<path fill="none" stroke="#ffa500" stroke-dasharray="5,2" d="M187.3832,-475.1133C192.534,-432.6054 210.8503,-332.7315 272,-283 325.2928,-239.6584 365.6088,-291.1812 424,-255 435.3339,-247.9771 431.0348,-238.5856 442,-231 449.7284,-225.6535 458.6494,-221.4851 467.7079,-218.2386"/>
<polygon fill="#ffa500" stroke="#ffa500" points="183.9035,-474.737 186.2965,-485.058 190.8621,-475.4974 183.9035,-474.737"/>
<text text-anchor="middle" x="348" y="-286" font-family="Helvetica,sans-Serif" font-size="10.00" fill="#000000"> &lt; TemplateNodeSet &gt;</text>
</g>
<!-- Node37 -->
<g id="node37" class="node">
<title>Node37</title>
<g id="a_node37"><a xlink:href="../../d8/d78/class_template_node_creator.html" target="_top" xlink:title=" ">
<polygon fill="#ffffff" stroke="#666666" points="596.5,-174 452.5,-174 452.5,-144 596.5,-144 596.5,-174"/>
<text text-anchor="start" x="460.5" y="-162" font-family="Helvetica,sans-Serif" font-size="10.00" fill="#000000">TemplateNodeCreator</text>
<text text-anchor="middle" x="524.5" y="-151" font-family="Helvetica,sans-Serif" font-size="10.00" fill="#000000">&lt; TemplateNodeSpaceless &gt;</text>
</a>
</g>
</g>
<!-- Node1&#45;&gt;Node37 -->
<g id="edge36" class="edge">
<title>Node1&#45;&gt;Node37</title>
<path fill="none" stroke="#ffa500" stroke-dasharray="5,2" d="M189.5791,-475.4306C201.191,-421.5458 235.9227,-272.8202 272,-240 323.3539,-193.2824 364.7185,-240.1311 424,-204 434.4968,-197.6024 431.6682,-189.6608 442,-183 447.2656,-179.6053 453.024,-176.6785 458.9718,-174.1575"/>
<polygon fill="#ffa500" stroke="#ffa500" points="186.1127,-474.9049 187.4599,-485.4137 192.9602,-476.3585 186.1127,-474.9049"/>
<text text-anchor="middle" x="348" y="-243" font-family="Helvetica,sans-Serif" font-size="10.00" fill="#000000"> &lt; TemplateNodeSpaceless &gt;</text>
</g>
<!-- Node39 -->
<g id="node39" class="node">
<title>Node39</title>
<g id="a_node39"><a xlink:href="../../d8/d78/class_template_node_creator.html" target="_top" xlink:title=" ">
<polygon fill="#ffffff" stroke="#666666" points="591,-126 458,-126 458,-96 591,-96 591,-126"/>
<text text-anchor="start" x="466" y="-114" font-family="Helvetica,sans-Serif" font-size="10.00" fill="#000000">TemplateNodeCreator</text>
<text text-anchor="middle" x="524.5" y="-103" font-family="Helvetica,sans-Serif" font-size="10.00" fill="#000000">&lt; TemplateNodeTabbing &gt;</text>
</a>
</g>
</g>
<!-- Node1&#45;&gt;Node39 -->
<g id="edge38" class="edge">
<title>Node1&#45;&gt;Node39</title>
<path fill="none" stroke="#ffa500" stroke-dasharray="5,2" d="M188.635,-474.9884C198.5876,-413.8468 231.2289,-231.1003 272,-189 285.7447,-174.8072 395.3073,-144.4008 465.5226,-126.025"/>
<polygon fill="#ffa500" stroke="#ffa500" points="185.1212,-474.797 186.9973,-485.2244 192.0333,-475.9029 185.1212,-474.797"/>
<text text-anchor="middle" x="348" y="-192" font-family="Helvetica,sans-Serif" font-size="10.00" fill="#000000"> &lt; TemplateNodeTabbing &gt;</text>
</g>
<!-- Node41 -->
<g id="node41" class="node">
<title>Node41</title>
<g id="a_node41"><a xlink:href="../../d8/d78/class_template_node_creator.html" target="_top" xlink:title=" ">
<polygon fill="#ffffff" stroke="#666666" points="583.5,-78 465.5,-78 465.5,-48 583.5,-48 583.5,-78"/>
<text text-anchor="start" x="473.5" y="-66" font-family="Helvetica,sans-Serif" font-size="10.00" fill="#000000">TemplateNodeCreator</text>
<text text-anchor="middle" x="524.5" y="-55" font-family="Helvetica,sans-Serif" font-size="10.00" fill="#000000">&lt; TemplateNodeTree &gt;</text>
</a>
</g>
</g>
<!-- Node1&#45;&gt;Node41 -->
<g id="edge40" class="edge">
<title>Node1&#45;&gt;Node41</title>
<path fill="none" stroke="#ffa500" stroke-dasharray="5,2" d="M187.3996,-475.2663C194.4685,-405.9309 221.4794,-174.9254 272,-124 322.5802,-73.0145 407.9418,-61.8569 465.2388,-60.7056"/>
<polygon fill="#ffa500" stroke="#ffa500" points="183.9103,-474.9867 186.4038,-485.2839 190.8759,-475.6792 183.9103,-474.9867"/>
<text text-anchor="middle" x="348" y="-127" font-family="Helvetica,sans-Serif" font-size="10.00" fill="#000000"> &lt; TemplateNodeTree &gt;</text>
</g>
<!-- Node43 -->
<g id="node43" class="node">
<title>Node43</title>
<g id="a_node43"><a xlink:href="../../d8/d78/class_template_node_creator.html" target="_top" xlink:title=" ">
<polygon fill="#ffffff" stroke="#666666" points="584,-30 465,-30 465,0 584,0 584,-30"/>
<text text-anchor="start" x="473" y="-18" font-family="Helvetica,sans-Serif" font-size="10.00" fill="#000000">TemplateNodeCreator</text>
<text text-anchor="middle" x="524.5" y="-7" font-family="Helvetica,sans-Serif" font-size="10.00" fill="#000000">&lt; TemplateNodeWith &gt;</text>
</a>
</g>
</g>
<!-- Node1&#45;&gt;Node43 -->
<g id="edge42" class="edge">
<title>Node1&#45;&gt;Node43</title>
<path fill="none" stroke="#ffa500" stroke-dasharray="5,2" d="M186.3728,-475.251C190.2635,-396.823 208.7202,-108.7288 272,-49 323.0644,-.8011 407.8947,.6944 464.9766,-5.125"/>
<polygon fill="#ffa500" stroke="#ffa500" points="182.8764,-475.095 185.9009,-485.2489 189.8686,-475.4251 182.8764,-475.095"/>
<text text-anchor="middle" x="348" y="-52" font-family="Helvetica,sans-Serif" font-size="10.00" fill="#000000"> &lt; TemplateNodeWith &gt;</text>
</g>
<!-- Node2 -->
<g id="node2" class="node">
<title>Node2</title>
<g id="a_node2"><a xlink:href="../../d6/d53/class_template_node.html" target="_top" xlink:title="Base class of all nodes in a template&#39;s AST.">
<polygon fill="#ffffff" stroke="#666666" points="80,-504.5 0,-504.5 0,-485.5 80,-485.5 80,-504.5"/>
<text text-anchor="middle" x="40" y="-492.5" font-family="Helvetica,sans-Serif" font-size="10.00" fill="#000000">TemplateNode</text>
</a>
</g>
</g>
<!-- Node2&#45;&gt;Node1 -->
<g id="edge1" class="edge">
<title>Node2&#45;&gt;Node1</title>
<path fill="none" stroke="#63b8ff" d="M90.29,-495C98.8236,-495 107.8144,-495 116.7254,-495"/>
<polygon fill="#63b8ff" stroke="#63b8ff" points="90.1437,-491.5001 80.1437,-495 90.1436,-498.5001 90.1437,-491.5001"/>
</g>
<!-- Node4 -->
<g id="node4" class="node">
<title>Node4</title>
<g id="a_node4"><a xlink:href="../../d2/de0/class_template_node_block.html" target="_top" xlink:title="Class representing a &#39;block&#39; tag in a template.">
<polygon fill="#ffffff" stroke="#666666" points="770,-984.5 665,-984.5 665,-965.5 770,-965.5 770,-984.5"/>
<text text-anchor="middle" x="717.5" y="-972.5" font-family="Helvetica,sans-Serif" font-size="10.00" fill="#000000">TemplateNodeBlock</text>
</a>
</g>
</g>
<!-- Node3&#45;&gt;Node4 -->
<g id="edge3" class="edge">
<title>Node3&#45;&gt;Node4</title>
<path fill="none" stroke="#63b8ff" d="M596.3837,-975C619.1145,-975 643.7981,-975 664.9153,-975"/>
<polygon fill="#63b8ff" stroke="#63b8ff" points="596.0971,-971.5001 586.097,-975 596.097,-978.5001 596.0971,-971.5001"/>
</g>
<!-- Node6 -->
<g id="node6" class="node">
<title>Node6</title>
<g id="a_node6"><a xlink:href="../../dd/dff/class_template_node_close_sub_index.html" target="_top" xlink:title="Class representing an &#39;closesubindex&#39; tag in a template.">
<polygon fill="#ffffff" stroke="#666666" points="791,-936.5 644,-936.5 644,-917.5 791,-917.5 791,-936.5"/>
<text text-anchor="middle" x="717.5" y="-924.5" font-family="Helvetica,sans-Serif" font-size="10.00" fill="#000000">TemplateNodeCloseSubIndex</text>
</a>
</g>
</g>
<!-- Node5&#45;&gt;Node6 -->
<g id="edge5" class="edge">
<title>Node5&#45;&gt;Node6</title>
<path fill="none" stroke="#63b8ff" d="M617.2275,-927C626.1491,-927 635.1139,-927 643.816,-927"/>
<polygon fill="#63b8ff" stroke="#63b8ff" points="617.1893,-923.5001 607.1893,-927 617.1892,-930.5001 617.1893,-923.5001"/>
</g>
<!-- Node8 -->
<g id="node8" class="node">
<title>Node8</title>
<g id="a_node8"><a xlink:href="../../d5/dcd/class_template_node_create.html" target="_top" xlink:title="Class representing an &#39;create&#39; tag in a template.">
<polygon fill="#ffffff" stroke="#666666" points="772.5,-888.5 662.5,-888.5 662.5,-869.5 772.5,-869.5 772.5,-888.5"/>
<text text-anchor="middle" x="717.5" y="-876.5" font-family="Helvetica,sans-Serif" font-size="10.00" fill="#000000">TemplateNodeCreate</text>
</a>
</g>
</g>
<!-- Node7&#45;&gt;Node8 -->
<g id="edge7" class="edge">
<title>Node7&#45;&gt;Node8</title>
<path fill="none" stroke="#63b8ff" d="M598.9613,-879C620.0092,-879 642.535,-879 662.2363,-879"/>
<polygon fill="#63b8ff" stroke="#63b8ff" points="598.7662,-875.5001 588.7662,-879 598.7662,-882.5001 598.7662,-875.5001"/>
</g>
<!-- Node10 -->
<g id="node10" class="node">
<title>Node10</title>
<g id="a_node10"><a xlink:href="../../d3/d37/class_template_node_cycle.html" target="_top" xlink:title="Class representing an &#39;cycle&#39; tag in a template.">
<polygon fill="#ffffff" stroke="#666666" points="770.5,-840.5 664.5,-840.5 664.5,-821.5 770.5,-821.5 770.5,-840.5"/>
<text text-anchor="middle" x="717.5" y="-828.5" font-family="Helvetica,sans-Serif" font-size="10.00" fill="#000000">TemplateNodeCycle</text>
</a>
</g>
</g>
<!-- Node9&#45;&gt;Node10 -->
<g id="edge9" class="edge">
<title>Node9&#45;&gt;Node10</title>
<path fill="none" stroke="#63b8ff" d="M596.7641,-831C619.1494,-831 643.3951,-831 664.245,-831"/>
<polygon fill="#63b8ff" stroke="#63b8ff" points="596.6288,-827.5001 586.6288,-831 596.6287,-834.5001 596.6288,-827.5001"/>
</g>
<!-- Node12 -->
<g id="node12" class="node">
<title>Node12</title>
<g id="a_node12"><a xlink:href="../../d3/d38/class_template_node_encoding.html" target="_top" xlink:title="Class representing the &#39;encoding&#39; tag in a template.">
<polygon fill="#ffffff" stroke="#666666" points="778,-792.5 657,-792.5 657,-773.5 778,-773.5 778,-792.5"/>
<text text-anchor="middle" x="717.5" y="-780.5" font-family="Helvetica,sans-Serif" font-size="10.00" fill="#000000">TemplateNodeEncoding</text>
</a>
</g>
</g>
<!-- Node11&#45;&gt;Node12 -->
<g id="edge11" class="edge">
<title>Node11&#45;&gt;Node12</title>
<path fill="none" stroke="#63b8ff" d="M604.3983,-783C621.9365,-783 640.2291,-783 656.8639,-783"/>
<polygon fill="#63b8ff" stroke="#63b8ff" points="604.1775,-779.5001 594.1774,-783 604.1774,-786.5001 604.1775,-779.5001"/>
</g>
<!-- Node14 -->
<g id="node14" class="node">
<title>Node14</title>
<g id="a_node14"><a xlink:href="../../d0/d21/class_template_node_extend.html" target="_top" xlink:title="Class representing a &#39;extend&#39; tag in a template.">
<polygon fill="#ffffff" stroke="#666666" points="773,-744.5 662,-744.5 662,-725.5 773,-725.5 773,-744.5"/>
<text text-anchor="middle" x="717.5" y="-732.5" font-family="Helvetica,sans-Serif" font-size="10.00" fill="#000000">TemplateNodeExtend</text>
</a>
</g>
</g>
<!-- Node13&#45;&gt;Node14 -->
<g id="edge13" class="edge">
<title>Node13&#45;&gt;Node14</title>
<path fill="none" stroke="#63b8ff" d="M599.1258,-735C619.9542,-735 642.2176,-735 661.7518,-735"/>
<polygon fill="#63b8ff" stroke="#63b8ff" points="599.0346,-731.5001 589.0345,-735 599.0345,-738.5001 599.0346,-731.5001"/>
</g>
<!-- Node16 -->
<g id="node16" class="node">
<title>Node16</title>
<g id="a_node16"><a xlink:href="../../d5/da1/class_template_node_for.html" target="_top" xlink:title="Class representing a &#39;for&#39; tag in a template.">
<polygon fill="#ffffff" stroke="#666666" points="765,-696.5 670,-696.5 670,-677.5 765,-677.5 765,-696.5"/>
<text text-anchor="middle" x="717.5" y="-684.5" font-family="Helvetica,sans-Serif" font-size="10.00" fill="#000000">TemplateNodeFor</text>
</a>
</g>
</g>
<!-- Node15&#45;&gt;Node16 -->
<g id="edge15" class="edge">
<title>Node15&#45;&gt;Node16</title>
<path fill="none" stroke="#63b8ff" d="M591.2021,-687C617.0326,-687 646.0216,-687 669.7055,-687"/>
<polygon fill="#63b8ff" stroke="#63b8ff" points="591.1023,-683.5001 581.1023,-687 591.1023,-690.5001 591.1023,-683.5001"/>
</g>
<!-- Node18 -->
<g id="node18" class="node">
<title>Node18</title>
<g id="a_node18"><a xlink:href="../../d8/d38/class_template_node_if.html" target="_top" xlink:title="Class representing an &#39;if&#39; tag in a template.">
<polygon fill="#ffffff" stroke="#666666" points="760.5,-648.5 674.5,-648.5 674.5,-629.5 760.5,-629.5 760.5,-648.5"/>
<text text-anchor="middle" x="717.5" y="-636.5" font-family="Helvetica,sans-Serif" font-size="10.00" fill="#000000">TemplateNodeIf</text>
</a>
</g>
</g>
<!-- Node17&#45;&gt;Node18 -->
<g id="edge17" class="edge">
<title>Node17&#45;&gt;Node18</title>
<path fill="none" stroke="#63b8ff" d="M591.4488,-639C618.9532,-639 650.0025,-639 674.4029,-639"/>
<polygon fill="#63b8ff" stroke="#63b8ff" points="591.1023,-635.5001 581.1023,-639 591.1023,-642.5001 591.1023,-635.5001"/>
</g>
<!-- Node20 -->
<g id="node20" class="node">
<title>Node20</title>
<g id="a_node20"><a xlink:href="../../da/d4b/class_template_node_include.html" target="_top" xlink:title="Class representing an &#39;include&#39; tag in a template.">
<polygon fill="#ffffff" stroke="#666666" points="773.5,-600.5 661.5,-600.5 661.5,-581.5 773.5,-581.5 773.5,-600.5"/>
<text text-anchor="middle" x="717.5" y="-588.5" font-family="Helvetica,sans-Serif" font-size="10.00" fill="#000000">TemplateNodeInclude</text>
</a>
</g>
</g>
<!-- Node19&#45;&gt;Node20 -->
<g id="edge19" class="edge">
<title>Node19&#45;&gt;Node20</title>
<path fill="none" stroke="#63b8ff" d="M599.8317,-591C620.3383,-591 642.1864,-591 661.4197,-591"/>
<polygon fill="#63b8ff" stroke="#63b8ff" points="599.572,-587.5001 589.5719,-591 599.5719,-594.5001 599.572,-587.5001"/>
</g>
<!-- Node22 -->
<g id="node22" class="node">
<title>Node22</title>
<g id="a_node22"><a xlink:href="../../da/ddd/class_template_node_index_entry.html" target="_top" xlink:title="Class representing an &#39;indexentry&#39; tag in a template.">
<polygon fill="#ffffff" stroke="#666666" points="781.5,-552.5 653.5,-552.5 653.5,-533.5 781.5,-533.5 781.5,-552.5"/>
<text text-anchor="middle" x="717.5" y="-540.5" font-family="Helvetica,sans-Serif" font-size="10.00" fill="#000000">TemplateNodeIndexEntry</text>
</a>
</g>
</g>
<!-- Node21&#45;&gt;Node22 -->
<g id="edge21" class="edge">
<title>Node21&#45;&gt;Node22</title>
<path fill="none" stroke="#63b8ff" d="M608.1642,-543C623.3479,-543 638.9633,-543 653.4705,-543"/>
<polygon fill="#63b8ff" stroke="#63b8ff" points="607.7403,-539.5001 597.7402,-543 607.7402,-546.5001 607.7403,-539.5001"/>
</g>
<!-- Node24 -->
<g id="node24" class="node">
<title>Node24</title>
<g id="a_node24"><a xlink:href="../../d9/d8f/class_template_node_markers.html" target="_top" xlink:title="Class representing an &#39;markers&#39; tag in a template.">
<polygon fill="#ffffff" stroke="#666666" points="775.5,-504.5 659.5,-504.5 659.5,-485.5 775.5,-485.5 775.5,-504.5"/>
<text text-anchor="middle" x="717.5" y="-492.5" font-family="Helvetica,sans-Serif" font-size="10.00" fill="#000000">TemplateNodeMarkers</text>
</a>
</g>
</g>
<!-- Node23&#45;&gt;Node24 -->
<g id="edge23" class="edge">
<title>Node23&#45;&gt;Node24</title>
<path fill="none" stroke="#63b8ff" d="M601.9629,-495C621.1624,-495 641.4089,-495 659.4971,-495"/>
<polygon fill="#63b8ff" stroke="#63b8ff" points="601.7311,-491.5001 591.7311,-495 601.7311,-498.5001 601.7311,-491.5001"/>
</g>
<!-- Node26 -->
<g id="node26" class="node">
<title>Node26</title>
<g id="a_node26"><a xlink:href="../../d4/d50/class_template_node_msg.html" target="_top" xlink:title="Class representing an &#39;markers&#39; tag in a template.">
<polygon fill="#ffffff" stroke="#666666" points="767,-456.5 668,-456.5 668,-437.5 767,-437.5 767,-456.5"/>
<text text-anchor="middle" x="717.5" y="-444.5" font-family="Helvetica,sans-Serif" font-size="10.00" fill="#000000">TemplateNodeMsg</text>
</a>
</g>
</g>
<!-- Node25&#45;&gt;Node26 -->
<g id="edge25" class="edge">
<title>Node25&#45;&gt;Node26</title>
<path fill="none" stroke="#63b8ff" d="M593.2112,-447C617.8602,-447 645.1536,-447 667.8702,-447"/>
<polygon fill="#63b8ff" stroke="#63b8ff" points="593.1925,-443.5001 583.1924,-447 593.1924,-450.5001 593.1925,-443.5001"/>
</g>
<!-- Node28 -->
<g id="node28" class="node">
<title>Node28</title>
<g id="a_node28"><a xlink:href="../../d6/d20/class_template_node_open_sub_index.html" target="_top" xlink:title="Class representing an &#39;opensubindex&#39; tag in a template.">
<polygon fill="#ffffff" stroke="#666666" points="790,-408.5 645,-408.5 645,-389.5 790,-389.5 790,-408.5"/>
<text text-anchor="middle" x="717.5" y="-396.5" font-family="Helvetica,sans-Serif" font-size="10.00" fill="#000000">TemplateNodeOpenSubIndex</text>
</a>
</g>
</g>
<!-- Node27&#45;&gt;Node28 -->
<g id="edge27" class="edge">
<title>Node27&#45;&gt;Node28</title>
<path fill="none" stroke="#63b8ff" d="M616.0721,-399C625.7087,-399 635.411,-399 644.7933,-399"/>
<polygon fill="#63b8ff" stroke="#63b8ff" points="616.0697,-395.5001 606.0696,-399 616.0696,-402.5001 616.0697,-395.5001"/>
</g>
<!-- Node30 -->
<g id="node30" class="node">
<title>Node30</title>
<g id="a_node30"><a xlink:href="../../d6/d83/class_template_node_range.html" target="_top" xlink:title="Class representing a &#39;range&#39; tag in a template.">
<polygon fill="#ffffff" stroke="#666666" points="772,-360.5 663,-360.5 663,-341.5 772,-341.5 772,-360.5"/>
<text text-anchor="middle" x="717.5" y="-348.5" font-family="Helvetica,sans-Serif" font-size="10.00" fill="#000000">TemplateNodeRange</text>
</a>
</g>
</g>
<!-- Node29&#45;&gt;Node30 -->
<g id="edge29" class="edge">
<title>Node29&#45;&gt;Node30</title>
<path fill="none" stroke="#63b8ff" d="M598.294,-351C619.7657,-351 642.8275,-351 662.8914,-351"/>
<polygon fill="#63b8ff" stroke="#63b8ff" points="598.2303,-347.5001 588.2303,-351 598.2303,-354.5001 598.2303,-347.5001"/>
</g>
<!-- Node32 -->
<g id="node32" class="node">
<title>Node32</title>
<g id="a_node32"><a xlink:href="../../db/d54/class_template_node_repeat.html" target="_top" xlink:title="Class representing a &#39;for&#39; tag in a template.">
<polygon fill="#ffffff" stroke="#666666" points="773.5,-312.5 661.5,-312.5 661.5,-293.5 773.5,-293.5 773.5,-312.5"/>
<text text-anchor="middle" x="717.5" y="-300.5" font-family="Helvetica,sans-Serif" font-size="10.00" fill="#000000">TemplateNodeRepeat</text>
</a>
</g>
</g>
<!-- Node31&#45;&gt;Node32 -->
<g id="edge31" class="edge">
<title>Node31&#45;&gt;Node32</title>
<path fill="none" stroke="#63b8ff" d="M599.8317,-303C620.3383,-303 642.1864,-303 661.4197,-303"/>
<polygon fill="#63b8ff" stroke="#63b8ff" points="599.572,-299.5001 589.5719,-303 599.5719,-306.5001 599.572,-299.5001"/>
</g>
<!-- Node34 -->
<g id="node34" class="node">
<title>Node34</title>
<g id="a_node34"><a xlink:href="../../d8/d57/class_template_node_resource.html" target="_top" xlink:title="Class representing an &#39;markers&#39; tag in a template.">
<polygon fill="#ffffff" stroke="#666666" points="778.5,-264.5 656.5,-264.5 656.5,-245.5 778.5,-245.5 778.5,-264.5"/>
<text text-anchor="middle" x="717.5" y="-252.5" font-family="Helvetica,sans-Serif" font-size="10.00" fill="#000000">TemplateNodeResource</text>
</a>
</g>
</g>
<!-- Node33&#45;&gt;Node34 -->
<g id="edge33" class="edge">
<title>Node33&#45;&gt;Node34</title>
<path fill="none" stroke="#63b8ff" d="M604.7598,-255C621.9744,-255 639.899,-255 656.2565,-255"/>
<polygon fill="#63b8ff" stroke="#63b8ff" points="604.7234,-251.5001 594.7234,-255 604.7234,-258.5001 604.7234,-251.5001"/>
</g>
<!-- Node36 -->
<g id="node36" class="node">
<title>Node36</title>
<g id="a_node36"><a xlink:href="../../d3/d86/class_template_node_set.html" target="_top" xlink:title="Class representing an &#39;set&#39; tag in a template.">
<polygon fill="#ffffff" stroke="#666666" points="765,-216.5 670,-216.5 670,-197.5 765,-197.5 765,-216.5"/>
<text text-anchor="middle" x="717.5" y="-204.5" font-family="Helvetica,sans-Serif" font-size="10.00" fill="#000000">TemplateNodeSet</text>
</a>
</g>
</g>
<!-- Node35&#45;&gt;Node36 -->
<g id="edge35" class="edge">
<title>Node35&#45;&gt;Node36</title>
<path fill="none" stroke="#63b8ff" d="M591.2021,-207C617.0326,-207 646.0216,-207 669.7055,-207"/>
<polygon fill="#63b8ff" stroke="#63b8ff" points="591.1023,-203.5001 581.1023,-207 591.1023,-210.5001 591.1023,-203.5001"/>
</g>
<!-- Node38 -->
<g id="node38" class="node">
<title>Node38</title>
<g id="a_node38"><a xlink:href="../../df/dc6/class_template_node_spaceless.html" target="_top" xlink:title="Class representing an &#39;spaceless&#39; tag in a template.">
<polygon fill="#ffffff" stroke="#666666" points="780.5,-168.5 654.5,-168.5 654.5,-149.5 780.5,-149.5 780.5,-168.5"/>
<text text-anchor="middle" x="717.5" y="-156.5" font-family="Helvetica,sans-Serif" font-size="10.00" fill="#000000">TemplateNodeSpaceless</text>
</a>
</g>
</g>
<!-- Node37&#45;&gt;Node38 -->
<g id="edge37" class="edge">
<title>Node37&#45;&gt;Node38</title>
<path fill="none" stroke="#63b8ff" d="M606.9677,-159C622.8243,-159 639.1974,-159 654.3249,-159"/>
<polygon fill="#63b8ff" stroke="#63b8ff" points="606.6406,-155.5001 596.6405,-159 606.6405,-162.5001 606.6406,-155.5001"/>
</g>
<!-- Node40 -->
<g id="node40" class="node">
<title>Node40</title>
<g id="a_node40"><a xlink:href="../../da/da1/class_template_node_tabbing.html" target="_top" xlink:title="Class representing an &#39;tabbing&#39; tag in a template.">
<polygon fill="#ffffff" stroke="#666666" points="775,-120.5 660,-120.5 660,-101.5 775,-101.5 775,-120.5"/>
<text text-anchor="middle" x="717.5" y="-108.5" font-family="Helvetica,sans-Serif" font-size="10.00" fill="#000000">TemplateNodeTabbing</text>
</a>
</g>
</g>
<!-- Node39&#45;&gt;Node40 -->
<g id="edge39" class="edge">
<title>Node39&#45;&gt;Node40</title>
<path fill="none" stroke="#63b8ff" d="M601.2747,-111C620.79,-111 641.4295,-111 659.8137,-111"/>
<polygon fill="#63b8ff" stroke="#63b8ff" points="601.1899,-107.5001 591.1899,-111 601.1899,-114.5001 601.1899,-107.5001"/>
</g>
<!-- Node42 -->
<g id="node42" class="node">
<title>Node42</title>
<g id="a_node42"><a xlink:href="../../d8/d31/class_template_node_tree.html" target="_top" xlink:title="Class representing an &#39;tree&#39; tag in a template.">
<polygon fill="#ffffff" stroke="#666666" points="767.5,-72.5 667.5,-72.5 667.5,-53.5 767.5,-53.5 767.5,-72.5"/>
<text text-anchor="middle" x="717.5" y="-60.5" font-family="Helvetica,sans-Serif" font-size="10.00" fill="#000000">TemplateNodeTree</text>
</a>
</g>
</g>
<!-- Node41&#45;&gt;Node42 -->
<g id="edge41" class="edge">
<title>Node41&#45;&gt;Node42</title>
<path fill="none" stroke="#63b8ff" d="M593.9664,-63C618.282,-63 645.0886,-63 667.4986,-63"/>
<polygon fill="#63b8ff" stroke="#63b8ff" points="593.718,-59.5001 583.718,-63 593.7179,-66.5001 593.718,-59.5001"/>
</g>
<!-- Node44 -->
<g id="node44" class="node">
<title>Node44</title>
<g id="a_node44"><a xlink:href="../../d6/df7/class_template_node_with.html" target="_top" xlink:title="Class representing an &#39;with&#39; tag in a template.">
<polygon fill="#ffffff" stroke="#666666" points="768,-24.5 667,-24.5 667,-5.5 768,-5.5 768,-24.5"/>
<text text-anchor="middle" x="717.5" y="-12.5" font-family="Helvetica,sans-Serif" font-size="10.00" fill="#000000">TemplateNodeWith</text>
</a>
</g>
</g>
<!-- Node43&#45;&gt;Node44 -->
<g id="edge43" class="edge">
<title>Node43&#45;&gt;Node44</title>
<path fill="none" stroke="#63b8ff" d="M594.3508,-15C618.3164,-15 644.6615,-15 666.8127,-15"/>
<polygon fill="#63b8ff" stroke="#63b8ff" points="594.2447,-11.5001 584.2447,-15 594.2446,-18.5001 594.2447,-11.5001"/>
</g>
</g>
</svg>
