<?xml version="1.0" encoding="UTF-8" standalone="no"?>
<!DOCTYPE svg PUBLIC "-//W3C//DTD SVG 1.1//EN"
 "http://www.w3.org/Graphics/SVG/1.1/DTD/svg11.dtd">
<!-- Generated by graphviz version 2.40.1 (20161225.0304)
 -->
<!-- Title: TextGeneratorOLImpl Pages: 1 -->
<svg width="244pt" height="149pt"
 viewBox="0.00 0.00 244.00 149.00" xmlns="http://www.w3.org/2000/svg" xmlns:xlink="http://www.w3.org/1999/xlink">
<g id="graph0" class="graph" transform="scale(1 1) rotate(0) translate(4 145)">
<title>TextGeneratorOLImpl</title>
<!-- Node1 -->
<g id="node1" class="node">
<title>Node1</title>
<g id="a_node1"><a xlink:title="Implements TextGeneratorIntf for an OutputDocInterface stream.">
<polygon fill="#999999" stroke="#666666" points="141.5,-19 31.5,-19 31.5,0 141.5,0 141.5,-19"/>
<text text-anchor="middle" x="86.5" y="-7" font-family="Helvetica,sans-Serif" font-size="10.00" fill="#000000">TextGeneratorOLImpl</text>
</a>
</g>
</g>
<!-- Node2 -->
<g id="node2" class="node">
<title>Node2</title>
<g id="a_node2"><a xlink:href="../../d0/dcf/class_text_generator_intf.html" target="_top" xlink:title="Abstract interface for a hyperlinked text fragment.">
<polygon fill="#ffffff" stroke="#666666" points="93,-85 0,-85 0,-66 93,-66 93,-85"/>
<text text-anchor="middle" x="46.5" y="-73" font-family="Helvetica,sans-Serif" font-size="10.00" fill="#000000">TextGeneratorIntf</text>
</a>
</g>
</g>
<!-- Node2&#45;&gt;Node1 -->
<g id="edge1" class="edge">
<title>Node2&#45;&gt;Node1</title>
<path fill="none" stroke="#63b8ff" d="M57.5963,-57.1911C65.0348,-44.9176 74.5379,-29.2375 80.5736,-19.2785"/>
<polygon fill="#63b8ff" stroke="#63b8ff" points="54.592,-55.3954 52.4021,-65.7615 60.5784,-59.0236 54.592,-55.3954"/>
</g>
<!-- Node3 -->
<g id="node3" class="node">
<title>Node3</title>
<g id="a_node3"><a xlink:href="../../df/d27/class_base_output_doc_interface.html" target="_top" xlink:title="Base Interface used for generating output outside of the comment blocks.">
<polygon fill="#ffffff" stroke="#666666" points="236,-85 111,-85 111,-66 236,-66 236,-85"/>
<text text-anchor="middle" x="173.5" y="-73" font-family="Helvetica,sans-Serif" font-size="10.00" fill="#000000">BaseOutputDocInterface</text>
</a>
</g>
</g>
<!-- Node3&#45;&gt;Node1 -->
<g id="edge2" class="edge">
<title>Node3&#45;&gt;Node1</title>
<path fill="none" stroke="#9a32cd" stroke-dasharray="5,2" d="M152.5793,-59.6291C135.902,-46.9774 113.0988,-29.6784 99.107,-19.0639"/>
<polygon fill="#9a32cd" stroke="#9a32cd" points="150.5806,-62.506 160.6629,-65.7615 154.8113,-56.9291 150.5806,-62.506"/>
<text text-anchor="middle" x="148.5" y="-40" font-family="Helvetica,sans-Serif" font-size="10.00" fill="#000000"> m_od</text>
</g>
<!-- Node4 -->
<g id="node4" class="node">
<title>Node4</title>
<g id="a_node4"><a xlink:href="../../d5/d9c/class_code_output_interface.html" target="_top" xlink:title="Output interface for code parser.">
<polygon fill="#ffffff" stroke="#666666" points="227,-141 120,-141 120,-122 227,-122 227,-141"/>
<text text-anchor="middle" x="173.5" y="-129" font-family="Helvetica,sans-Serif" font-size="10.00" fill="#000000">CodeOutputInterface</text>
</a>
</g>
</g>
<!-- Node4&#45;&gt;Node3 -->
<g id="edge3" class="edge">
<title>Node4&#45;&gt;Node3</title>
<path fill="none" stroke="#63b8ff" d="M173.5,-111.6575C173.5,-102.655 173.5,-92.4199 173.5,-85.1427"/>
<polygon fill="#63b8ff" stroke="#63b8ff" points="170.0001,-111.7455 173.5,-121.7455 177.0001,-111.7456 170.0001,-111.7455"/>
</g>
</g>
</svg>
