<?xml version="1.0" encoding="UTF-8" standalone="no"?>
<!DOCTYPE svg PUBLIC "-//W3C//DTD SVG 1.1//EN"
 "http://www.w3.org/Graphics/SVG/1.1/DTD/svg11.dtd">
<!-- Generated by graphviz version 2.40.1 (20161225.0304)
 -->
<!-- Title: ClassDefAliasImpl Pages: 1 -->
<svg width="526pt" height="328pt"
 viewBox="0.00 0.00 525.50 328.00" xmlns="http://www.w3.org/2000/svg" xmlns:xlink="http://www.w3.org/1999/xlink">
<g id="graph0" class="graph" transform="scale(1 1) rotate(0) translate(4 324)">
<title>ClassDefAliasImpl</title>
<!-- Node1 -->
<g id="node1" class="node">
<title>Node1</title>
<g id="a_node1"><a xlink:title=" ">
<polygon fill="#999999" stroke="#666666" points="191,-19 93,-19 93,0 191,0 191,-19"/>
<text text-anchor="middle" x="142" y="-7" font-family="Helvetica,sans-Serif" font-size="10.00" fill="#000000">ClassDefAliasImpl</text>
</a>
</g>
</g>
<!-- Node2 -->
<g id="node2" class="node">
<title>Node2</title>
<g id="a_node2"><a xlink:href="../../d8/d83/class_definition_alias_mixin.html" target="_top" xlink:title=" ">
<polygon fill="#ffffff" stroke="#666666" points="193.5,-86 90.5,-86 90.5,-56 193.5,-56 193.5,-86"/>
<text text-anchor="start" x="98.5" y="-74" font-family="Helvetica,sans-Serif" font-size="10.00" fill="#000000">DefinitionAliasMixin</text>
<text text-anchor="middle" x="142" y="-63" font-family="Helvetica,sans-Serif" font-size="10.00" fill="#000000">&lt; ClassDef &gt;</text>
</a>
</g>
</g>
<!-- Node2&#45;&gt;Node1 -->
<g id="edge1" class="edge">
<title>Node2&#45;&gt;Node1</title>
<path fill="none" stroke="#63b8ff" d="M142,-45.7849C142,-36.4858 142,-26.4883 142,-19.3469"/>
<polygon fill="#63b8ff" stroke="#63b8ff" points="138.5001,-45.7977 142,-55.7977 145.5001,-45.7978 138.5001,-45.7977"/>
</g>
<!-- Node3 -->
<g id="node3" class="node">
<title>Node3</title>
<g id="a_node3"><a xlink:href="../../d1/dcf/class_class_def.html" target="_top" xlink:title="A abstract class representing of a compound symbol.">
<polygon fill="#ffffff" stroke="#666666" points="58,-201.5 0,-201.5 0,-182.5 58,-182.5 58,-201.5"/>
<text text-anchor="middle" x="29" y="-189.5" font-family="Helvetica,sans-Serif" font-size="10.00" fill="#000000">ClassDef</text>
</a>
</g>
</g>
<!-- Node3&#45;&gt;Node2 -->
<g id="edge2" class="edge">
<title>Node3&#45;&gt;Node2</title>
<path fill="none" stroke="#63b8ff" d="M33.0698,-172.2768C38.0322,-152.6962 48.1892,-122.9406 67,-104 74.3178,-96.6318 83.5607,-90.7824 93.0357,-86.1847"/>
<polygon fill="#63b8ff" stroke="#63b8ff" points="29.6128,-171.692 30.7735,-182.223 36.4334,-173.2667 29.6128,-171.692"/>
</g>
<!-- Node4 -->
<g id="node4" class="node">
<title>Node4</title>
<g id="a_node4"><a xlink:href="../../d5/dcc/class_definition.html" target="_top" xlink:title="The common base class of all entity definitions found in the sources.">
<polygon fill="#ffffff" stroke="#666666" points="127,-320 69,-320 69,-301 127,-301 127,-320"/>
<text text-anchor="middle" x="98" y="-308" font-family="Helvetica,sans-Serif" font-size="10.00" fill="#000000">Definition</text>
</a>
</g>
</g>
<!-- Node4&#45;&gt;Node2 -->
<g id="edge7" class="edge">
<title>Node4&#45;&gt;Node2</title>
<path fill="none" stroke="#9a32cd" stroke-dasharray="5,2" d="M98.0297,-290.9647C98.2377,-281.8324 98.7662,-270.8285 100,-261 108.2896,-194.9669 128.6925,-118.049 137.6566,-86.102"/>
<polygon fill="#9a32cd" stroke="#9a32cd" points="94.5299,-290.9297 97.909,-300.9712 101.5294,-291.0142 94.5299,-290.9297"/>
<text text-anchor="middle" x="134" y="-195" font-family="Helvetica,sans-Serif" font-size="10.00" fill="#000000"> m_alias</text>
<text text-anchor="middle" x="134" y="-184" font-family="Helvetica,sans-Serif" font-size="10.00" fill="#000000">m_scope</text>
</g>
<!-- Node4&#45;&gt;Node3 -->
<g id="edge3" class="edge">
<title>Node4&#45;&gt;Node3</title>
<path fill="none" stroke="#63b8ff" d="M76.8508,-294.0878C73.2674,-290.6818 69.8048,-286.9257 67,-283 48.0897,-256.5319 36.3173,-219.2257 31.5042,-201.749"/>
<polygon fill="#63b8ff" stroke="#63b8ff" points="74.8423,-296.9802 84.6795,-300.9146 79.4429,-291.7043 74.8423,-296.9802"/>
</g>
<!-- Node5 -->
<g id="node5" class="node">
<title>Node5</title>
<g id="a_node5"><a xlink:href="../../d0/d58/class_definition_alias_impl.html" target="_top" xlink:title=" ">
<polygon fill="#ffffff" stroke="#666666" points="219,-241.5 121,-241.5 121,-222.5 219,-222.5 219,-241.5"/>
<text text-anchor="middle" x="170" y="-229.5" font-family="Helvetica,sans-Serif" font-size="10.00" fill="#000000">DefinitionAliasImpl</text>
</a>
</g>
</g>
<!-- Node4&#45;&gt;Node5 -->
<g id="edge5" class="edge">
<title>Node4&#45;&gt;Node5</title>
<path fill="none" stroke="#9a32cd" stroke-dasharray="5,2" d="M101.2538,-290.5934C103.6866,-280.7917 107.8715,-269.3239 115,-261 122.3024,-252.4731 132.7487,-246.0882 142.5794,-241.5121"/>
<polygon fill="#9a32cd" stroke="#9a32cd" points="97.7625,-290.1972 99.1882,-300.6956 104.6206,-291.5995 97.7625,-290.1972"/>
<text text-anchor="middle" x="135" y="-275" font-family="Helvetica,sans-Serif" font-size="10.00" fill="#000000"> m_def</text>
<text text-anchor="middle" x="135" y="-264" font-family="Helvetica,sans-Serif" font-size="10.00" fill="#000000">m_scope</text>
</g>
<!-- Node7 -->
<g id="node7" class="node">
<title>Node7</title>
<g id="a_node7"><a xlink:href="../../d8/d83/class_definition_alias_mixin.html" target="_top" xlink:title=" ">
<polygon fill="#ffffff" stroke="#666666" points="374.5,-163 271.5,-163 271.5,-133 374.5,-133 374.5,-163"/>
<text text-anchor="start" x="279.5" y="-151" font-family="Helvetica,sans-Serif" font-size="10.00" fill="#000000">DefinitionAliasMixin</text>
<text text-anchor="middle" x="323" y="-140" font-family="Helvetica,sans-Serif" font-size="10.00" fill="#000000">&lt; Base &gt;</text>
</a>
</g>
</g>
<!-- Node4&#45;&gt;Node7 -->
<g id="edge12" class="edge">
<title>Node4&#45;&gt;Node7</title>
<path fill="none" stroke="#9a32cd" stroke-dasharray="5,2" d="M137.2616,-307.3113C177.811,-303.3929 237.797,-295.6594 257,-283 299.2558,-255.1434 315.3701,-191.9792 320.697,-163.0179"/>
<polygon fill="#9a32cd" stroke="#9a32cd" points="136.7879,-303.8401 127.1539,-308.2486 137.4343,-310.8102 136.7879,-303.8401"/>
<text text-anchor="middle" x="324" y="-235" font-family="Helvetica,sans-Serif" font-size="10.00" fill="#000000"> m_alias</text>
<text text-anchor="middle" x="324" y="-224" font-family="Helvetica,sans-Serif" font-size="10.00" fill="#000000">m_scope</text>
</g>
<!-- Node5&#45;&gt;Node2 -->
<g id="edge4" class="edge">
<title>Node5&#45;&gt;Node2</title>
<path fill="none" stroke="#9a32cd" stroke-dasharray="5,2" d="M165.8299,-212.365C165.1965,-209.2364 164.5662,-206.0324 164,-203 156.1115,-160.7495 148.1352,-110.6295 144.3177,-86.0785"/>
<polygon fill="#9a32cd" stroke="#9a32cd" points="162.4439,-213.2735 167.9059,-222.3519 169.2974,-211.8488 162.4439,-213.2735"/>
<text text-anchor="middle" x="174.5" y="-145.5" font-family="Helvetica,sans-Serif" font-size="10.00" fill="#000000"> m_impl</text>
</g>
<!-- Node5&#45;&gt;Node7 -->
<g id="edge11" class="edge">
<title>Node5&#45;&gt;Node7</title>
<path fill="none" stroke="#9a32cd" stroke-dasharray="5,2" d="M167.2536,-212.4007C166.9041,-201.8633 168.4691,-189.3555 176,-181 188.6958,-166.914 234.1696,-158.1979 271.2171,-153.2876"/>
<polygon fill="#9a32cd" stroke="#9a32cd" points="163.7716,-212.76 168.1411,-222.4119 170.7443,-212.1418 163.7716,-212.76"/>
<text text-anchor="middle" x="193.5" y="-189.5" font-family="Helvetica,sans-Serif" font-size="10.00" fill="#000000"> m_impl</text>
</g>
<!-- Node6 -->
<g id="node6" class="node">
<title>Node6</title>
<g id="a_node6"><a xlink:href="../../d9/d45/class_q_c_string.html" target="_top" xlink:title="This is an alternative implementation of QCString.">
<polygon fill="#ffffff" stroke="#666666" points="367.5,-320 310.5,-320 310.5,-301 367.5,-301 367.5,-320"/>
<text text-anchor="middle" x="339" y="-308" font-family="Helvetica,sans-Serif" font-size="10.00" fill="#000000">QCString</text>
</a>
</g>
</g>
<!-- Node6&#45;&gt;Node2 -->
<g id="edge8" class="edge">
<title>Node6&#45;&gt;Node2</title>
<path fill="none" stroke="#9a32cd" stroke-dasharray="5,2" d="M341.5682,-290.6035C342.9867,-270.575 341.7949,-240.0016 325,-221 305.7147,-199.1808 286.7396,-218.3607 262,-203 255.3892,-198.8954 185.183,-119.8622 155.3214,-86.0921"/>
<polygon fill="#9a32cd" stroke="#9a32cd" points="338.0653,-290.4614 340.5621,-300.7578 345.0311,-291.1517 338.0653,-290.4614"/>
<text text-anchor="middle" x="299.5" y="-189.5" font-family="Helvetica,sans-Serif" font-size="10.00" fill="#000000"> m_symbolName</text>
</g>
<!-- Node6&#45;&gt;Node5 -->
<g id="edge6" class="edge">
<title>Node6&#45;&gt;Node5</title>
<path fill="none" stroke="#9a32cd" stroke-dasharray="5,2" d="M299.9344,-301.7731C282.929,-297.263 263.0361,-291.0051 246,-283 221.5517,-271.512 196.0594,-252.7916 181.6908,-241.5103"/>
<polygon fill="#9a32cd" stroke="#9a32cd" points="299.5442,-305.2851 310.0982,-304.3554 301.268,-298.5007 299.5442,-305.2851"/>
<text text-anchor="middle" x="285.5" y="-275" font-family="Helvetica,sans-Serif" font-size="10.00" fill="#000000"> m_qualifiedName</text>
<text text-anchor="middle" x="285.5" y="-264" font-family="Helvetica,sans-Serif" font-size="10.00" fill="#000000">m_symbolName</text>
</g>
<!-- Node6&#45;&gt;Node7 -->
<g id="edge13" class="edge">
<title>Node6&#45;&gt;Node7</title>
<path fill="none" stroke="#9a32cd" stroke-dasharray="5,2" d="M349.9853,-291.7519C351.227,-288.9007 352.297,-285.9304 353,-283 359.4281,-256.2047 358.211,-248.0584 353,-221 348.9578,-200.0104 338.7019,-177.4942 331.3062,-163.1062"/>
<polygon fill="#9a32cd" stroke="#9a32cd" points="346.8182,-290.2581 345.3856,-300.7556 353.0519,-293.4427 346.8182,-290.2581"/>
<text text-anchor="middle" x="394.5" y="-229.5" font-family="Helvetica,sans-Serif" font-size="10.00" fill="#000000"> m_symbolName</text>
</g>
<!-- Node7&#45;&gt;Node2 -->
<g id="edge9" class="edge">
<title>Node7&#45;&gt;Node2</title>
<path fill="none" stroke="#ffa500" stroke-dasharray="5,2" d="M291.3003,-127.5511C277.97,-119.5115 262.0792,-110.6375 247,-104 230.0357,-96.5327 210.8523,-89.9865 193.5671,-84.7353"/>
<polygon fill="#ffa500" stroke="#ffa500" points="289.7262,-130.6918 300.0785,-132.946 293.3914,-124.7281 289.7262,-130.6918"/>
<text text-anchor="middle" x="300.5" y="-107" font-family="Helvetica,sans-Serif" font-size="10.00" fill="#000000"> &lt; ClassDef &gt;</text>
</g>
<!-- Node8 -->
<g id="node8" class="node">
<title>Node8</title>
<g id="a_node8"><a xlink:title=" ">
<polygon fill="#ffffff" stroke="#666666" points="517.5,-241.5 478.5,-241.5 478.5,-222.5 517.5,-222.5 517.5,-241.5"/>
<text text-anchor="middle" x="498" y="-229.5" font-family="Helvetica,sans-Serif" font-size="10.00" fill="#000000">Base</text>
</a>
</g>
</g>
<!-- Node8&#45;&gt;Node7 -->
<g id="edge10" class="edge">
<title>Node8&#45;&gt;Node7</title>
<path fill="none" stroke="#63b8ff" d="M471.2623,-217.6181C451.4755,-207.1243 423.7726,-192.7434 399,-181 386.1319,-174.8999 371.8506,-168.5827 359.1735,-163.1285"/>
<polygon fill="#63b8ff" stroke="#63b8ff" points="469.821,-220.8159 480.2924,-222.4287 473.1123,-214.6379 469.821,-220.8159"/>
</g>
</g>
</svg>
