<?xml version="1.0" encoding="UTF-8" standalone="no"?>
<!DOCTYPE svg PUBLIC "-//W3C//DTD SVG 1.1//EN"
 "http://www.w3.org/Graphics/SVG/1.1/DTD/svg11.dtd">
<!-- Generated by graphviz version 2.43.0 (0)
 -->
<!-- Title: src/emoji.h Pages: 1 -->
<svg width="1559pt" height="137pt"
 viewBox="0.00 0.00 1558.50 137.00" xmlns="http://www.w3.org/2000/svg" xmlns:xlink="http://www.w3.org/1999/xlink">
<g id="graph0" class="graph" transform="scale(1 1) rotate(0) translate(4 133)">
<title>src/emoji.h</title>
<!-- Node1 -->
<g id="node1" class="node">
<title>Node1</title>
<g id="a_node1"><a xlink:title=" ">
<polygon fill="#999999" stroke="#666666" points="782,-129 711,-129 711,-110 782,-110 782,-129"/>
<text text-anchor="middle" x="746.5" y="-117" font-family="Helvetica,sans-Serif" font-size="10.00">src/emoji.h</text>
</a>
</g>
</g>
<!-- Node2 -->
<g id="node2" class="node">
<title>Node2</title>
<g id="a_node2"><a xlink:href="../../dc/d05/docbookvisitor_8cpp.html" target="_top" xlink:title=" ">
<polygon fill="white" stroke="#666666" points="125,-74 0,-74 0,-55 125,-55 125,-74"/>
<text text-anchor="middle" x="62.5" y="-62" font-family="Helvetica,sans-Serif" font-size="10.00">src/docbookvisitor.cpp</text>
</a>
</g>
</g>
<!-- Node1&#45;&gt;Node2 -->
<g id="edge1" class="edge">
<title>Node1&#45;&gt;Node2</title>
<path fill="none" stroke="#63b8ff" d="M700.69,-115.87C598.8,-109.88 345.75,-94.14 134.5,-74 131.49,-73.71 128.42,-73.41 125.31,-73.08"/>
<polygon fill="#63b8ff" stroke="#63b8ff" points="700.74,-119.38 710.93,-116.47 701.15,-112.4 700.74,-119.38"/>
</g>
<!-- Node3 -->
<g id="node3" class="node">
<title>Node3</title>
<g id="a_node3"><a xlink:href="../../d0/d2b/docnode_8cpp.html" target="_top" xlink:title=" ">
<polygon fill="white" stroke="#666666" points="238,-74 143,-74 143,-55 238,-55 238,-74"/>
<text text-anchor="middle" x="190.5" y="-62" font-family="Helvetica,sans-Serif" font-size="10.00">src/docnode.cpp</text>
</a>
</g>
</g>
<!-- Node1&#45;&gt;Node3 -->
<g id="edge2" class="edge">
<title>Node1&#45;&gt;Node3</title>
<path fill="none" stroke="#63b8ff" d="M700.54,-115.31C612.48,-109.01 413.9,-93.81 247.5,-74 244.42,-73.63 241.25,-73.23 238.06,-72.81"/>
<polygon fill="#63b8ff" stroke="#63b8ff" points="700.5,-118.82 710.73,-116.04 701,-111.84 700.5,-118.82"/>
</g>
<!-- Node4 -->
<g id="node4" class="node">
<title>Node4</title>
<g id="a_node4"><a xlink:href="../../dc/d98/doxygen_8cpp.html" target="_top" xlink:title=" ">
<polygon fill="white" stroke="#666666" points="352.5,-74 256.5,-74 256.5,-55 352.5,-55 352.5,-74"/>
<text text-anchor="middle" x="304.5" y="-62" font-family="Helvetica,sans-Serif" font-size="10.00">src/doxygen.cpp</text>
</a>
</g>
</g>
<!-- Node1&#45;&gt;Node4 -->
<g id="edge3" class="edge">
<title>Node1&#45;&gt;Node4</title>
<path fill="none" stroke="#63b8ff" d="M700.78,-113.71C628.6,-106.03 483.89,-90.19 361.5,-74 358.62,-73.62 355.67,-73.22 352.69,-72.8"/>
<polygon fill="#63b8ff" stroke="#63b8ff" points="700.58,-117.21 710.89,-114.78 701.31,-110.25 700.58,-117.21"/>
</g>
<!-- Node5 -->
<g id="node5" class="node">
<title>Node5</title>
<g id="a_node5"><a xlink:href="../../d2/d38/emoji_8cpp.html" target="_top" xlink:title=" ">
<polygon fill="white" stroke="#666666" points="452.5,-74 370.5,-74 370.5,-55 452.5,-55 452.5,-74"/>
<text text-anchor="middle" x="411.5" y="-62" font-family="Helvetica,sans-Serif" font-size="10.00">src/emoji.cpp</text>
</a>
</g>
</g>
<!-- Node1&#45;&gt;Node5 -->
<g id="edge4" class="edge">
<title>Node1&#45;&gt;Node5</title>
<path fill="none" stroke="#63b8ff" d="M700.93,-111.58C644.63,-102.98 545.95,-87.77 461.5,-74 458.63,-73.53 455.67,-73.04 452.69,-72.55"/>
<polygon fill="#63b8ff" stroke="#63b8ff" points="700.52,-115.06 710.93,-113.1 701.57,-108.14 700.52,-115.06"/>
</g>
<!-- Node6 -->
<g id="node6" class="node">
<title>Node6</title>
<g id="a_node6"><a xlink:href="../../da/db0/htmldocvisitor_8cpp.html" target="_top" xlink:title=" ">
<polygon fill="white" stroke="#666666" points="594.5,-74 470.5,-74 470.5,-55 594.5,-55 594.5,-74"/>
<text text-anchor="middle" x="532.5" y="-62" font-family="Helvetica,sans-Serif" font-size="10.00">src/htmldocvisitor.cpp</text>
</a>
</g>
</g>
<!-- Node1&#45;&gt;Node6 -->
<g id="edge5" class="edge">
<title>Node1&#45;&gt;Node6</title>
<path fill="none" stroke="#63b8ff" d="M702.34,-107.56C662.26,-97.64 603.96,-83.2 567.15,-74.08"/>
<polygon fill="#63b8ff" stroke="#63b8ff" points="701.57,-110.98 712.12,-109.98 703.25,-104.18 701.57,-110.98"/>
</g>
<!-- Node7 -->
<g id="node7" class="node">
<title>Node7</title>
<g id="a_node7"><a xlink:href="../../d1/d4e/latexdocvisitor_8cpp.html" target="_top" xlink:title=" ">
<polygon fill="white" stroke="#666666" points="738.5,-74 612.5,-74 612.5,-55 738.5,-55 738.5,-74"/>
<text text-anchor="middle" x="675.5" y="-62" font-family="Helvetica,sans-Serif" font-size="10.00">src/latexdocvisitor.cpp</text>
</a>
</g>
</g>
<!-- Node1&#45;&gt;Node7 -->
<g id="edge6" class="edge">
<title>Node1&#45;&gt;Node7</title>
<path fill="none" stroke="#63b8ff" d="M726.91,-103.88C714.13,-94.34 697.89,-82.21 687.11,-74.17"/>
<polygon fill="#63b8ff" stroke="#63b8ff" points="724.99,-106.81 735.09,-109.98 729.17,-101.2 724.99,-106.81"/>
</g>
<!-- Node8 -->
<g id="node8" class="node">
<title>Node8</title>
<g id="a_node8"><a xlink:href="../../d8/dde/mandocvisitor_8cpp.html" target="_top" xlink:title=" ">
<polygon fill="white" stroke="#666666" points="880,-74 757,-74 757,-55 880,-55 880,-74"/>
<text text-anchor="middle" x="818.5" y="-62" font-family="Helvetica,sans-Serif" font-size="10.00">src/mandocvisitor.cpp</text>
</a>
</g>
</g>
<!-- Node1&#45;&gt;Node8 -->
<g id="edge7" class="edge">
<title>Node1&#45;&gt;Node8</title>
<path fill="none" stroke="#63b8ff" d="M766.37,-103.88C779.32,-94.34 795.8,-82.21 806.72,-74.17"/>
<polygon fill="#63b8ff" stroke="#63b8ff" points="764.05,-101.24 758.07,-109.98 768.2,-106.88 764.05,-101.24"/>
</g>
<!-- Node9 -->
<g id="node9" class="node">
<title>Node9</title>
<g id="a_node9"><a xlink:href="../../de/dd0/perlmodgen_8cpp.html" target="_top" xlink:title=" ">
<polygon fill="white" stroke="#666666" points="1011,-74 898,-74 898,-55 1011,-55 1011,-74"/>
<text text-anchor="middle" x="954.5" y="-62" font-family="Helvetica,sans-Serif" font-size="10.00">src/perlmodgen.cpp</text>
</a>
</g>
</g>
<!-- Node1&#45;&gt;Node9 -->
<g id="edge8" class="edge">
<title>Node1&#45;&gt;Node9</title>
<path fill="none" stroke="#63b8ff" d="M789.91,-107.44C828.85,-97.52 885.19,-83.16 920.82,-74.08"/>
<polygon fill="#63b8ff" stroke="#63b8ff" points="788.74,-104.12 779.92,-109.98 790.47,-110.91 788.74,-104.12"/>
</g>
<!-- Node10 -->
<g id="node10" class="node">
<title>Node10</title>
<g id="a_node10"><a xlink:href="../../db/d73/printdocvisitor_8h.html" target="_top" xlink:title=" ">
<polygon fill="white" stroke="#666666" points="1142,-74 1029,-74 1029,-55 1142,-55 1142,-74"/>
<text text-anchor="middle" x="1085.5" y="-62" font-family="Helvetica,sans-Serif" font-size="10.00">src/printdocvisitor.h</text>
</a>
</g>
</g>
<!-- Node1&#45;&gt;Node10 -->
<g id="edge9" class="edge">
<title>Node1&#45;&gt;Node10</title>
<path fill="none" stroke="#63b8ff" d="M792.39,-111.33C854.38,-101.63 964.69,-84.39 1030.88,-74.04"/>
<polygon fill="#63b8ff" stroke="#63b8ff" points="791.48,-107.93 782.14,-112.93 792.56,-114.84 791.48,-107.93"/>
</g>
<!-- Node12 -->
<g id="node12" class="node">
<title>Node12</title>
<g id="a_node12"><a xlink:href="../../de/d9a/rtfdocvisitor_8cpp.html" target="_top" xlink:title=" ">
<polygon fill="white" stroke="#666666" points="1273,-74 1160,-74 1160,-55 1273,-55 1273,-74"/>
<text text-anchor="middle" x="1216.5" y="-62" font-family="Helvetica,sans-Serif" font-size="10.00">src/rtfdocvisitor.cpp</text>
</a>
</g>
</g>
<!-- Node1&#45;&gt;Node12 -->
<g id="edge11" class="edge">
<title>Node1&#45;&gt;Node12</title>
<path fill="none" stroke="#63b8ff" d="M792.06,-113.8C867.06,-106 1021.21,-89.68 1151.5,-74 1154.21,-73.67 1156.99,-73.33 1159.79,-72.99"/>
<polygon fill="#63b8ff" stroke="#63b8ff" points="791.6,-110.33 782.01,-114.85 792.32,-117.29 791.6,-110.33"/>
</g>
<!-- Node13 -->
<g id="node13" class="node">
<title>Node13</title>
<g id="a_node13"><a xlink:href="../../d3/da6/textdocvisitor_8cpp.html" target="_top" xlink:title=" ">
<polygon fill="white" stroke="#666666" points="1412,-74 1291,-74 1291,-55 1412,-55 1412,-74"/>
<text text-anchor="middle" x="1351.5" y="-62" font-family="Helvetica,sans-Serif" font-size="10.00">src/textdocvisitor.cpp</text>
</a>
</g>
</g>
<!-- Node1&#45;&gt;Node13 -->
<g id="edge12" class="edge">
<title>Node1&#45;&gt;Node13</title>
<path fill="none" stroke="#63b8ff" d="M792.47,-115.3C885.22,-108.71 1101.39,-92.67 1282.5,-74 1285.26,-73.72 1288.08,-73.41 1290.93,-73.1"/>
<polygon fill="#63b8ff" stroke="#63b8ff" points="792.03,-111.82 782.3,-116.02 792.52,-118.81 792.03,-111.82"/>
</g>
<!-- Node14 -->
<g id="node14" class="node">
<title>Node14</title>
<g id="a_node14"><a xlink:href="../../dd/db6/xmldocvisitor_8cpp.html" target="_top" xlink:title=" ">
<polygon fill="white" stroke="#666666" points="1550.5,-74 1430.5,-74 1430.5,-55 1550.5,-55 1550.5,-74"/>
<text text-anchor="middle" x="1490.5" y="-62" font-family="Helvetica,sans-Serif" font-size="10.00">src/xmldocvisitor.cpp</text>
</a>
</g>
</g>
<!-- Node1&#45;&gt;Node14 -->
<g id="edge13" class="edge">
<title>Node1&#45;&gt;Node14</title>
<path fill="none" stroke="#63b8ff" d="M792.37,-116.38C901.53,-111.12 1185.29,-96.32 1421.5,-74 1424.38,-73.73 1427.33,-73.43 1430.31,-73.12"/>
<polygon fill="#63b8ff" stroke="#63b8ff" points="791.87,-112.9 782.05,-116.87 792.21,-119.89 791.87,-112.9"/>
</g>
<!-- Node11 -->
<g id="node11" class="node">
<title>Node11</title>
<g id="a_node11"><a xlink:href="../../da/d17/docparser_8cpp.html" target="_top" xlink:title=" ">
<polygon fill="white" stroke="#666666" points="1136,-19 1035,-19 1035,0 1136,0 1136,-19"/>
<text text-anchor="middle" x="1085.5" y="-7" font-family="Helvetica,sans-Serif" font-size="10.00">src/docparser.cpp</text>
</a>
</g>
</g>
<!-- Node10&#45;&gt;Node11 -->
<g id="edge10" class="edge">
<title>Node10&#45;&gt;Node11</title>
<path fill="none" stroke="#63b8ff" d="M1085.5,-44.66C1085.5,-35.93 1085.5,-25.99 1085.5,-19.09"/>
<polygon fill="#63b8ff" stroke="#63b8ff" points="1082,-44.75 1085.5,-54.75 1089,-44.75 1082,-44.75"/>
</g>
</g>
</svg>
