<?xml version="1.0" encoding="UTF-8" standalone="no"?>
<!DOCTYPE svg PUBLIC "-//W3C//DTD SVG 1.1//EN"
 "http://www.w3.org/Graphics/SVG/1.1/DTD/svg11.dtd">
<!-- Generated by graphviz version 2.43.0 (0)
 -->
<!-- Title: TranslatorAdapter_1_9_4 Pages: 1 -->
<!--zoomable 785 -->
<svg id="main" version="1.1" xmlns="http://www.w3.org/2000/svg" xmlns:xlink="http://www.w3.org/1999/xlink" xml:space="preserve" onload="init(evt)">
<style type="text/css"><![CDATA[
.edge:hover path { stroke: red; }
.edge:hover polygon { stroke: red; fill: red; }
]]></style>
<script type="text/javascript"><![CDATA[
var edges = document.getElementsByTagName('g');
if (edges && edges.length) {
  for (var i=0;i<edges.length;i++) {
    if (edges[i].id.substr(0,4)=='edge') {
      edges[i].setAttribute('class','edge');
    }
  }
}
]]></script>
        <defs>
                <circle id="rim" cx="0" cy="0" r="7"/>
                <circle id="rim2" cx="0" cy="0" r="3.5"/>
                <g id="zoomPlus">
                        <use xlink:href="#rim" fill="#404040">
                                <set attributeName="fill" to="#808080" begin="zoomplus.mouseover" end="zoomplus.mouseout"/>
                        </use>
                        <path d="M-4,0h8M0,-4v8" fill="none" stroke="white" stroke-width="1.5" pointer-events="none"/>
                </g>
                <g id="zoomMin">
                        <use xlink:href="#rim" fill="#404040">
                                <set attributeName="fill" to="#808080" begin="zoomminus.mouseover" end="zoomminus.mouseout"/>
                        </use>
                        <path d="M-4,0h8" fill="none" stroke="white" stroke-width="1.5" pointer-events="none"/>
                </g>
                <g id="dirArrow">
                        <path fill="none" stroke="white" stroke-width="1.5" d="M0,-3.0v7 M-2.5,-0.5L0,-3.0L2.5,-0.5"/>
                </g>
               <g id="resetDef">
                       <use xlink:href="#rim2" fill="#404040">
                               <set attributeName="fill" to="#808080" begin="reset.mouseover" end="reset.mouseout"/>
                       </use>
               </g>
        </defs>

<script type="text/javascript">
var viewWidth = 2148;
var viewHeight = 785;
var sectionId = 'dynsection-0';
</script>
<script xlink:href="../../svgpan.js"/>
<svg id="graph" class="graph">
<g id="viewport">
<title>TranslatorAdapter_1_9_4</title>
<!-- Node1 -->
<g id="node1" class="node">
<title>Node1</title>
<g id="a_node1"><a xlink:title=" ">
<polygon fill="#999999" stroke="#666666" points="401,-111 264,-111 264,-92 401,-92 401,-111"/>
<text text-anchor="middle" x="332.5" y="-99" font-family="Helvetica,sans-Serif" font-size="10.00">TranslatorAdapter_1_9_4</text>
</a>
</g>
</g>
<!-- Node4 -->
<g id="node4" class="node">
<title>Node4</title>
<g id="a_node4"><a xlink:href="../../d3/d2e/class_translator_adapter__1__9__2.html" target="_top" xlink:title=" ">
<polygon fill="white" stroke="#666666" points="574,-204 437,-204 437,-185 574,-185 574,-204"/>
<text text-anchor="middle" x="505.5" y="-192" font-family="Helvetica,sans-Serif" font-size="10.00">TranslatorAdapter_1_9_2</text>
</a>
</g>
</g>
<!-- Node1&#45;&gt;Node4 -->
<g id="edge3" class="edge">
<title>Node1&#45;&gt;Node4</title>
<path fill="none" stroke="#63b8ff" d="M351.79,-117.61C371.56,-134.26 404.59,-159.94 437,-175.5 444.79,-179.24 453.45,-182.37 461.9,-184.93"/>
<polygon fill="#63b8ff" stroke="#63b8ff" points="354.05,-114.93 344.18,-111.08 349.49,-120.25 354.05,-114.93"/>
</g>
<!-- Node45 -->
<g id="node45" class="node">
<title>Node45</title>
<g id="a_node45"><a xlink:href="../../da/dbb/class_translator_bulgarian.html" target="_top" xlink:title=" ">
<polygon fill="white" stroke="#666666" points="561,-167 450,-167 450,-148 561,-148 561,-167"/>
<text text-anchor="middle" x="505.5" y="-155" font-family="Helvetica,sans-Serif" font-size="10.00">TranslatorBulgarian</text>
</a>
</g>
</g>
<!-- Node1&#45;&gt;Node45 -->
<g id="edge44" class="edge">
<title>Node1&#45;&gt;Node45</title>
<path fill="none" stroke="#63b8ff" d="M368.45,-114.67C388.42,-122.03 413.98,-131.16 437,-138.5 447.32,-141.79 458.63,-145.09 468.98,-148"/>
<polygon fill="#63b8ff" stroke="#63b8ff" points="369.45,-111.31 358.85,-111.12 367.01,-117.87 369.45,-111.31"/>
</g>
<!-- Node46 -->
<g id="node46" class="node">
<title>Node46</title>
<g id="a_node46"><a xlink:href="../../d6/db6/class_translator_chinese.html" target="_top" xlink:title=" ">
<polygon fill="white" stroke="#666666" points="557.5,-130 453.5,-130 453.5,-111 557.5,-111 557.5,-130"/>
<text text-anchor="middle" x="505.5" y="-118" font-family="Helvetica,sans-Serif" font-size="10.00">TranslatorChinese</text>
</a>
</g>
</g>
<!-- Node1&#45;&gt;Node46 -->
<g id="edge45" class="edge">
<title>Node1&#45;&gt;Node46</title>
<path fill="none" stroke="#63b8ff" d="M411.41,-110.16C425.69,-111.74 440.26,-113.36 453.49,-114.83"/>
<polygon fill="#63b8ff" stroke="#63b8ff" points="411.41,-106.64 401.08,-109.01 410.64,-113.59 411.41,-106.64"/>
</g>
<!-- Node47 -->
<g id="node47" class="node">
<title>Node47</title>
<g id="a_node47"><a xlink:href="../../df/d75/class_translator_greek.html" target="_top" xlink:title=" ">
<polygon fill="white" stroke="#666666" points="552.5,-93 458.5,-93 458.5,-74 552.5,-74 552.5,-93"/>
<text text-anchor="middle" x="505.5" y="-81" font-family="Helvetica,sans-Serif" font-size="10.00">TranslatorGreek</text>
</a>
</g>
</g>
<!-- Node1&#45;&gt;Node47 -->
<g id="edge46" class="edge">
<title>Node1&#45;&gt;Node47</title>
<path fill="none" stroke="#63b8ff" d="M411.09,-93.33C427.28,-91.63 443.84,-89.89 458.44,-88.35"/>
<polygon fill="#63b8ff" stroke="#63b8ff" points="410.66,-89.86 401.08,-94.39 411.4,-96.82 410.66,-89.86"/>
</g>
<!-- Node48 -->
<g id="node48" class="node">
<title>Node48</title>
<g id="a_node48"><a xlink:href="../../d1/d8a/class_translator_hindi.html" target="_top" xlink:title=" ">
<polygon fill="white" stroke="#666666" points="550.5,-56 460.5,-56 460.5,-37 550.5,-37 550.5,-56"/>
<text text-anchor="middle" x="505.5" y="-44" font-family="Helvetica,sans-Serif" font-size="10.00">TranslatorHindi</text>
</a>
</g>
</g>
<!-- Node1&#45;&gt;Node48 -->
<g id="edge47" class="edge">
<title>Node1&#45;&gt;Node48</title>
<path fill="none" stroke="#63b8ff" d="M368.01,-88.35C388.02,-80.94 413.78,-71.73 437,-64.5 446.5,-61.54 456.83,-58.63 466.5,-56.04"/>
<polygon fill="#63b8ff" stroke="#63b8ff" points="366.55,-85.17 358.4,-91.94 368.99,-91.72 366.55,-85.17"/>
</g>
<!-- Node49 -->
<g id="node49" class="node">
<title>Node49</title>
<g id="a_node49"><a xlink:href="../../d5/d5c/class_translator_swedish.html" target="_top" xlink:title=" ">
<polygon fill="white" stroke="#666666" points="558,-19 453,-19 453,0 558,0 558,-19"/>
<text text-anchor="middle" x="505.5" y="-7" font-family="Helvetica,sans-Serif" font-size="10.00">TranslatorSwedish</text>
</a>
</g>
</g>
<!-- Node1&#45;&gt;Node49 -->
<g id="edge48" class="edge">
<title>Node1&#45;&gt;Node49</title>
<path fill="none" stroke="#63b8ff" d="M351.75,-85.3C371.48,-68.58 404.48,-42.83 437,-27.5 444.02,-24.19 451.75,-21.41 459.39,-19.1"/>
<polygon fill="#63b8ff" stroke="#63b8ff" points="349.43,-82.68 344.15,-91.86 354.01,-87.98 349.43,-82.68"/>
</g>
<!-- Node2 -->
<g id="node2" class="node">
<title>Node2</title>
<g id="a_node2"><a xlink:href="../../db/d6c/class_translator_adapter_base.html" target="_top" xlink:title="Base of the translator adapter tree.">
<polygon fill="white" stroke="#666666" points="228,-111 101,-111 101,-92 228,-92 228,-111"/>
<text text-anchor="middle" x="164.5" y="-99" font-family="Helvetica,sans-Serif" font-size="10.00">TranslatorAdapterBase</text>
</a>
</g>
</g>
<!-- Node2&#45;&gt;Node1 -->
<g id="edge1" class="edge">
<title>Node2&#45;&gt;Node1</title>
<path fill="none" stroke="#63b8ff" d="M238.49,-101.5C246.95,-101.5 255.56,-101.5 263.94,-101.5"/>
<polygon fill="#63b8ff" stroke="#63b8ff" points="238.26,-98 228.26,-101.5 238.26,-105 238.26,-98"/>
</g>
<!-- Node3 -->
<g id="node3" class="node">
<title>Node3</title>
<g id="a_node3"><a xlink:href="../../d8/dfb/class_translator.html" target="_top" xlink:title="Abstract base class for all translatable text fragments.">
<polygon fill="white" stroke="#666666" points="65,-111 0,-111 0,-92 65,-92 65,-111"/>
<text text-anchor="middle" x="32.5" y="-99" font-family="Helvetica,sans-Serif" font-size="10.00">Translator</text>
</a>
</g>
</g>
<!-- Node3&#45;&gt;Node2 -->
<g id="edge2" class="edge">
<title>Node3&#45;&gt;Node2</title>
<path fill="none" stroke="#63b8ff" d="M75.54,-101.5C83.6,-101.5 92.2,-101.5 100.75,-101.5"/>
<polygon fill="#63b8ff" stroke="#63b8ff" points="75.3,-98 65.3,-101.5 75.3,-105 75.3,-98"/>
</g>
<!-- Node5 -->
<g id="node5" class="node">
<title>Node5</title>
<g id="a_node5"><a xlink:href="../../de/dde/class_translator_adapter__1__8__19.html" target="_top" xlink:title=" ">
<polygon fill="white" stroke="#666666" points="753,-204 610,-204 610,-185 753,-185 753,-204"/>
<text text-anchor="middle" x="681.5" y="-192" font-family="Helvetica,sans-Serif" font-size="10.00">TranslatorAdapter_1_8_19</text>
</a>
</g>
</g>
<!-- Node4&#45;&gt;Node5 -->
<g id="edge4" class="edge">
<title>Node4&#45;&gt;Node5</title>
<path fill="none" stroke="#63b8ff" d="M584.47,-194.5C592.89,-194.5 601.42,-194.5 609.75,-194.5"/>
<polygon fill="#63b8ff" stroke="#63b8ff" points="584.27,-191 574.27,-194.5 584.27,-198 584.27,-191"/>
</g>
<!-- Node6 -->
<g id="node6" class="node">
<title>Node6</title>
<g id="a_node6"><a xlink:href="../../d4/d2e/class_translator_adapter__1__8__15.html" target="_top" xlink:title=" ">
<polygon fill="white" stroke="#666666" points="932,-241 789,-241 789,-222 932,-222 932,-241"/>
<text text-anchor="middle" x="860.5" y="-229" font-family="Helvetica,sans-Serif" font-size="10.00">TranslatorAdapter_1_8_15</text>
</a>
</g>
</g>
<!-- Node5&#45;&gt;Node6 -->
<g id="edge5" class="edge">
<title>Node5&#45;&gt;Node6</title>
<path fill="none" stroke="#63b8ff" d="M737.92,-206.08C762.3,-211.18 790.61,-217.1 813.77,-221.94"/>
<polygon fill="#63b8ff" stroke="#63b8ff" points="738.59,-202.65 728.08,-204.03 737.15,-209.5 738.59,-202.65"/>
</g>
<!-- Node43 -->
<g id="node43" class="node">
<title>Node43</title>
<g id="a_node43"><a xlink:href="../../da/d1a/class_translator_french.html" target="_top" xlink:title=" ">
<polygon fill="white" stroke="#666666" points="909,-204 812,-204 812,-185 909,-185 909,-204"/>
<text text-anchor="middle" x="860.5" y="-192" font-family="Helvetica,sans-Serif" font-size="10.00">TranslatorFrench</text>
</a>
</g>
</g>
<!-- Node5&#45;&gt;Node43 -->
<g id="edge42" class="edge">
<title>Node5&#45;&gt;Node43</title>
<path fill="none" stroke="#63b8ff" d="M763.48,-194.5C780.08,-194.5 797.03,-194.5 811.98,-194.5"/>
<polygon fill="#63b8ff" stroke="#63b8ff" points="763.22,-191 753.22,-194.5 763.22,-198 763.22,-191"/>
</g>
<!-- Node44 -->
<g id="node44" class="node">
<title>Node44</title>
<g id="a_node44"><a xlink:href="../../dc/d44/class_translator_spanish.html" target="_top" xlink:title=" ">
<polygon fill="white" stroke="#666666" points="912,-167 809,-167 809,-148 912,-148 912,-167"/>
<text text-anchor="middle" x="860.5" y="-155" font-family="Helvetica,sans-Serif" font-size="10.00">TranslatorSpanish</text>
</a>
</g>
</g>
<!-- Node5&#45;&gt;Node44 -->
<g id="edge43" class="edge">
<title>Node5&#45;&gt;Node44</title>
<path fill="none" stroke="#63b8ff" d="M737.92,-182.92C762.3,-177.82 790.61,-171.9 813.77,-167.06"/>
<polygon fill="#63b8ff" stroke="#63b8ff" points="737.15,-179.5 728.08,-184.97 738.59,-186.35 737.15,-179.5"/>
</g>
<!-- Node7 -->
<g id="node7" class="node">
<title>Node7</title>
<g id="a_node7"><a xlink:href="../../de/d2f/class_translator_adapter__1__8__4.html" target="_top" xlink:title=" ">
<polygon fill="white" stroke="#666666" points="1113.5,-408 976.5,-408 976.5,-389 1113.5,-389 1113.5,-408"/>
<text text-anchor="middle" x="1045" y="-396" font-family="Helvetica,sans-Serif" font-size="10.00">TranslatorAdapter_1_8_4</text>
</a>
</g>
</g>
<!-- Node6&#45;&gt;Node7 -->
<g id="edge6" class="edge">
<title>Node6&#45;&gt;Node7</title>
<path fill="none" stroke="#63b8ff" d="M869.89,-250.78C884.81,-282.7 919.04,-346.29 968,-379.5 973.74,-383.39 980.21,-386.49 986.89,-388.95"/>
<polygon fill="#63b8ff" stroke="#63b8ff" points="872.89,-248.93 865.58,-241.26 866.52,-251.81 872.89,-248.93"/>
</g>
<!-- Node34 -->
<g id="node34" class="node">
<title>Node34</title>
<g id="a_node34"><a xlink:href="../../dd/df6/class_translator_chinesetraditional.html" target="_top" xlink:title=" ">
<polygon fill="white" stroke="#666666" points="1122,-371 968,-371 968,-352 1122,-352 1122,-371"/>
<text text-anchor="middle" x="1045" y="-359" font-family="Helvetica,sans-Serif" font-size="10.00">TranslatorChinesetraditional</text>
</a>
</g>
</g>
<!-- Node6&#45;&gt;Node34 -->
<g id="edge33" class="edge">
<title>Node6&#45;&gt;Node34</title>
<path fill="none" stroke="#63b8ff" d="M873.88,-249.77C891.71,-274.63 927.03,-318.74 968,-342.5 974.71,-346.39 982.19,-349.49 989.78,-351.96"/>
<polygon fill="#63b8ff" stroke="#63b8ff" points="876.53,-247.45 867.93,-241.26 870.79,-251.46 876.53,-247.45"/>
</g>
<!-- Node35 -->
<g id="node35" class="node">
<title>Node35</title>
<g id="a_node35"><a xlink:href="../../d6/d07/class_translator_german.html" target="_top" xlink:title=" ">
<polygon fill="white" stroke="#666666" points="1097,-334 993,-334 993,-315 1097,-315 1097,-334"/>
<text text-anchor="middle" x="1045" y="-322" font-family="Helvetica,sans-Serif" font-size="10.00">TranslatorGerman</text>
</a>
</g>
</g>
<!-- Node6&#45;&gt;Node35 -->
<g id="edge34" class="edge">
<title>Node6&#45;&gt;Node35</title>
<path fill="none" stroke="#63b8ff" d="M880.32,-247.77C900.65,-264.56 934.63,-290.35 968,-305.5 976.42,-309.32 985.73,-312.46 994.86,-314.99"/>
<polygon fill="#63b8ff" stroke="#63b8ff" points="882.39,-244.94 872.48,-241.19 877.89,-250.3 882.39,-244.94"/>
</g>
<!-- Node36 -->
<g id="node36" class="node">
<title>Node36</title>
<g id="a_node36"><a xlink:href="../../db/d5f/class_translator_hungarian.html" target="_top" xlink:title=" ">
<polygon fill="white" stroke="#666666" points="1102.5,-297 987.5,-297 987.5,-278 1102.5,-278 1102.5,-297"/>
<text text-anchor="middle" x="1045" y="-285" font-family="Helvetica,sans-Serif" font-size="10.00">TranslatorHungarian</text>
</a>
</g>
</g>
<!-- Node6&#45;&gt;Node36 -->
<g id="edge35" class="edge">
<title>Node6&#45;&gt;Node36</title>
<path fill="none" stroke="#63b8ff" d="M896.72,-244.62C917.35,-252.09 943.98,-261.34 968,-268.5 979.21,-271.84 991.46,-275.08 1002.8,-277.91"/>
<polygon fill="#63b8ff" stroke="#63b8ff" points="897.71,-241.26 887.11,-241.12 895.31,-247.84 897.71,-241.26"/>
</g>
<!-- Node37 -->
<g id="node37" class="node">
<title>Node37</title>
<g id="a_node37"><a xlink:href="../../d2/df8/class_translator_italian.html" target="_top" xlink:title=" ">
<polygon fill="white" stroke="#666666" points="1092.5,-260 997.5,-260 997.5,-241 1092.5,-241 1092.5,-260"/>
<text text-anchor="middle" x="1045" y="-248" font-family="Helvetica,sans-Serif" font-size="10.00">TranslatorItalian</text>
</a>
</g>
</g>
<!-- Node6&#45;&gt;Node37 -->
<g id="edge36" class="edge">
<title>Node6&#45;&gt;Node37</title>
<path fill="none" stroke="#63b8ff" d="M942.15,-239.9C961.01,-241.86 980.48,-243.89 997.29,-245.64"/>
<polygon fill="#63b8ff" stroke="#63b8ff" points="942.37,-236.4 932.06,-238.85 941.64,-243.36 942.37,-236.4"/>
</g>
<!-- Node38 -->
<g id="node38" class="node">
<title>Node38</title>
<g id="a_node38"><a xlink:href="../../d1/d6a/class_translator_japanese.html" target="_top" xlink:title=" ">
<polygon fill="white" stroke="#666666" points="1099.5,-223 990.5,-223 990.5,-204 1099.5,-204 1099.5,-223"/>
<text text-anchor="middle" x="1045" y="-211" font-family="Helvetica,sans-Serif" font-size="10.00">TranslatorJapanese</text>
</a>
</g>
</g>
<!-- Node6&#45;&gt;Node38 -->
<g id="edge37" class="edge">
<title>Node6&#45;&gt;Node38</title>
<path fill="none" stroke="#63b8ff" d="M942.14,-223.55C958.45,-221.94 975.22,-220.28 990.33,-218.79"/>
<polygon fill="#63b8ff" stroke="#63b8ff" points="941.67,-220.08 932.06,-224.54 942.35,-227.04 941.67,-220.08"/>
</g>
<!-- Node39 -->
<g id="node39" class="node">
<title>Node39</title>
<g id="a_node39"><a xlink:href="../../db/dcc/class_translator_korean.html" target="_top" xlink:title=" ">
<polygon fill="white" stroke="#666666" points="1094,-186 996,-186 996,-167 1094,-167 1094,-186"/>
<text text-anchor="middle" x="1045" y="-174" font-family="Helvetica,sans-Serif" font-size="10.00">TranslatorKorean</text>
</a>
</g>
</g>
<!-- Node6&#45;&gt;Node39 -->
<g id="edge38" class="edge">
<title>Node6&#45;&gt;Node39</title>
<path fill="none" stroke="#63b8ff" d="M912.31,-219.12C919,-217.11 925.71,-214.89 932,-212.5 948.72,-206.14 951.18,-200.6 968,-194.5 976.92,-191.26 986.65,-188.45 996.07,-186.07"/>
<polygon fill="#63b8ff" stroke="#63b8ff" points="911.22,-215.79 902.58,-221.92 913.16,-222.52 911.22,-215.79"/>
</g>
<!-- Node40 -->
<g id="node40" class="node">
<title>Node40</title>
<g id="a_node40"><a xlink:href="../../da/d32/class_translator_romanian.html" target="_top" xlink:title=" ">
<polygon fill="white" stroke="#666666" points="1102,-149 988,-149 988,-130 1102,-130 1102,-149"/>
<text text-anchor="middle" x="1045" y="-137" font-family="Helvetica,sans-Serif" font-size="10.00">TranslatorRomanian</text>
</a>
</g>
</g>
<!-- Node6&#45;&gt;Node40 -->
<g id="edge39" class="edge">
<title>Node6&#45;&gt;Node40</title>
<path fill="none" stroke="#63b8ff" d="M923.5,-217.73C926.48,-216.17 929.33,-214.43 932,-212.5 955.65,-195.35 944.09,-174.28 968,-157.5 973.99,-153.29 980.84,-150.06 987.91,-147.58"/>
<polygon fill="#63b8ff" stroke="#63b8ff" points="921.96,-214.59 914.29,-221.9 924.84,-220.97 921.96,-214.59"/>
</g>
<!-- Node41 -->
<g id="node41" class="node">
<title>Node41</title>
<g id="a_node41"><a xlink:href="../../d0/dab/class_translator_russian.html" target="_top" xlink:title=" ">
<polygon fill="white" stroke="#666666" points="1096.5,-112 993.5,-112 993.5,-93 1096.5,-93 1096.5,-112"/>
<text text-anchor="middle" x="1045" y="-100" font-family="Helvetica,sans-Serif" font-size="10.00">TranslatorRussian</text>
</a>
</g>
</g>
<!-- Node6&#45;&gt;Node41 -->
<g id="edge40" class="edge">
<title>Node6&#45;&gt;Node41</title>
<path fill="none" stroke="#63b8ff" d="M926.38,-216.86C928.35,-215.53 930.24,-214.08 932,-212.5 964.7,-183.2 934.85,-149.29 968,-120.5 975.17,-114.28 984.1,-110.11 993.29,-107.34"/>
<polygon fill="#63b8ff" stroke="#63b8ff" points="924.25,-214.05 917.22,-221.97 927.66,-220.16 924.25,-214.05"/>
</g>
<!-- Node42 -->
<g id="node42" class="node">
<title>Node42</title>
<g id="a_node42"><a xlink:href="../../d2/d53/class_translator_slovak.html" target="_top" xlink:title=" ">
<polygon fill="white" stroke="#666666" points="1094,-75 996,-75 996,-56 1094,-56 1094,-75"/>
<text text-anchor="middle" x="1045" y="-63" font-family="Helvetica,sans-Serif" font-size="10.00">TranslatorSlovak</text>
</a>
</g>
</g>
<!-- Node6&#45;&gt;Node42 -->
<g id="edge41" class="edge">
<title>Node6&#45;&gt;Node42</title>
<path fill="none" stroke="#63b8ff" d="M927.37,-216.51C929,-215.27 930.55,-213.94 932,-212.5 974.28,-170.6 925.09,-124.75 968,-83.5 975.63,-76.17 985.66,-71.64 995.93,-68.88"/>
<polygon fill="#63b8ff" stroke="#63b8ff" points="925.32,-213.66 918.66,-221.9 929.01,-219.61 925.32,-213.66"/>
</g>
<!-- Node8 -->
<g id="node8" class="node">
<title>Node8</title>
<g id="a_node8"><a xlink:href="../../d2/d75/class_translator_adapter__1__8__2.html" target="_top" xlink:title=" ">
<polygon fill="white" stroke="#666666" points="1295,-463 1158,-463 1158,-444 1295,-444 1295,-463"/>
<text text-anchor="middle" x="1226.5" y="-451" font-family="Helvetica,sans-Serif" font-size="10.00">TranslatorAdapter_1_8_2</text>
</a>
</g>
</g>
<!-- Node7&#45;&gt;Node8 -->
<g id="edge7" class="edge">
<title>Node7&#45;&gt;Node8</title>
<path fill="none" stroke="#63b8ff" d="M1084.67,-411.32C1106.2,-418.35 1133.52,-427.12 1158,-434.5 1168.61,-437.7 1180.2,-441.02 1190.74,-443.98"/>
<polygon fill="#63b8ff" stroke="#63b8ff" points="1085.51,-407.91 1074.92,-408.12 1083.33,-414.56 1085.51,-407.91"/>
</g>
<!-- Node31 -->
<g id="node31" class="node">
<title>Node31</title>
<g id="a_node31"><a xlink:href="../../d2/d07/class_translator_esperanto.html" target="_top" xlink:title=" ">
<polygon fill="white" stroke="#666666" points="1283,-426 1170,-426 1170,-407 1283,-407 1283,-426"/>
<text text-anchor="middle" x="1226.5" y="-414" font-family="Helvetica,sans-Serif" font-size="10.00">TranslatorEsperanto</text>
</a>
</g>
</g>
<!-- Node7&#45;&gt;Node31 -->
<g id="edge30" class="edge">
<title>Node7&#45;&gt;Node31</title>
<path fill="none" stroke="#63b8ff" d="M1123.73,-406.3C1139.29,-407.85 1155.33,-409.46 1169.95,-410.93"/>
<polygon fill="#63b8ff" stroke="#63b8ff" points="1123.9,-402.79 1113.61,-405.28 1123.21,-409.76 1123.9,-402.79"/>
</g>
<!-- Node32 -->
<g id="node32" class="node">
<title>Node32</title>
<g id="a_node32"><a xlink:href="../../d8/d83/class_translator_latvian.html" target="_top" xlink:title=" ">
<polygon fill="white" stroke="#666666" points="1277,-389 1176,-389 1176,-370 1277,-370 1277,-389"/>
<text text-anchor="middle" x="1226.5" y="-377" font-family="Helvetica,sans-Serif" font-size="10.00">TranslatorLatvian</text>
</a>
</g>
</g>
<!-- Node7&#45;&gt;Node32 -->
<g id="edge31" class="edge">
<title>Node7&#45;&gt;Node32</title>
<path fill="none" stroke="#63b8ff" d="M1123.89,-390.26C1141.52,-388.39 1159.78,-386.46 1175.86,-384.75"/>
<polygon fill="#63b8ff" stroke="#63b8ff" points="1123.18,-386.81 1113.61,-391.34 1123.92,-393.77 1123.18,-386.81"/>
</g>
<!-- Node33 -->
<g id="node33" class="node">
<title>Node33</title>
<g id="a_node33"><a xlink:href="../../d1/d56/class_translator_ukrainian.html" target="_top" xlink:title=" ">
<polygon fill="white" stroke="#666666" points="1282.5,-352 1170.5,-352 1170.5,-333 1282.5,-333 1282.5,-352"/>
<text text-anchor="middle" x="1226.5" y="-340" font-family="Helvetica,sans-Serif" font-size="10.00">TranslatorUkrainian</text>
</a>
</g>
</g>
<!-- Node7&#45;&gt;Node33 -->
<g id="edge32" class="edge">
<title>Node7&#45;&gt;Node33</title>
<path fill="none" stroke="#63b8ff" d="M1101.94,-386.16C1108.77,-384.17 1115.6,-381.95 1122,-379.5 1138.9,-373.04 1141.15,-367.09 1158,-360.5 1166.13,-357.32 1175.03,-354.5 1183.62,-352.1"/>
<polygon fill="#63b8ff" stroke="#63b8ff" points="1100.68,-382.87 1091.96,-388.9 1102.54,-389.62 1100.68,-382.87"/>
</g>
<!-- Node9 -->
<g id="node9" class="node">
<title>Node9</title>
<g id="a_node9"><a xlink:href="../../de/d49/class_translator_adapter__1__8__0.html" target="_top" xlink:title="Adapter class for languages that only contain translations up to version 1.8.0.">
<polygon fill="white" stroke="#666666" points="1468,-500 1331,-500 1331,-481 1468,-481 1468,-500"/>
<text text-anchor="middle" x="1399.5" y="-488" font-family="Helvetica,sans-Serif" font-size="10.00">TranslatorAdapter_1_8_0</text>
</a>
</g>
</g>
<!-- Node8&#45;&gt;Node9 -->
<g id="edge8" class="edge">
<title>Node8&#45;&gt;Node9</title>
<path fill="none" stroke="#63b8ff" d="M1281.35,-465.15C1304.84,-470.23 1332.04,-476.12 1354.32,-480.94"/>
<polygon fill="#63b8ff" stroke="#63b8ff" points="1282.05,-461.72 1271.54,-463.03 1280.57,-468.56 1282.05,-461.72"/>
</g>
<!-- Node29 -->
<g id="node29" class="node">
<title>Node29</title>
<g id="a_node29"><a xlink:href="../../d9/d82/class_translator_croatian.html" target="_top" xlink:title=" ">
<polygon fill="white" stroke="#666666" points="1452.5,-463 1346.5,-463 1346.5,-444 1452.5,-444 1452.5,-463"/>
<text text-anchor="middle" x="1399.5" y="-451" font-family="Helvetica,sans-Serif" font-size="10.00">TranslatorCroatian</text>
</a>
</g>
</g>
<!-- Node8&#45;&gt;Node29 -->
<g id="edge28" class="edge">
<title>Node8&#45;&gt;Node29</title>
<path fill="none" stroke="#63b8ff" d="M1305.19,-453.5C1319.16,-453.5 1333.41,-453.5 1346.44,-453.5"/>
<polygon fill="#63b8ff" stroke="#63b8ff" points="1305.08,-450 1295.08,-453.5 1305.08,-457 1305.08,-450"/>
</g>
<!-- Node30 -->
<g id="node30" class="node">
<title>Node30</title>
<g id="a_node30"><a xlink:href="../../de/d82/class_translator_polish.html" target="_top" xlink:title=" ">
<polygon fill="white" stroke="#666666" points="1446.5,-426 1352.5,-426 1352.5,-407 1446.5,-407 1446.5,-426"/>
<text text-anchor="middle" x="1399.5" y="-414" font-family="Helvetica,sans-Serif" font-size="10.00">TranslatorPolish</text>
</a>
</g>
</g>
<!-- Node8&#45;&gt;Node30 -->
<g id="edge29" class="edge">
<title>Node8&#45;&gt;Node30</title>
<path fill="none" stroke="#63b8ff" d="M1281.35,-441.85C1304.84,-436.77 1332.04,-430.88 1354.32,-426.06"/>
<polygon fill="#63b8ff" stroke="#63b8ff" points="1280.57,-438.44 1271.54,-443.97 1282.05,-445.28 1280.57,-438.44"/>
</g>
<!-- Node10 -->
<g id="node10" class="node">
<title>Node10</title>
<g id="a_node10"><a xlink:href="../../da/d24/class_translator_adapter__1__7__5.html" target="_top" xlink:title="Adapter class for languages that only contain translations up to version 1.7.5.">
<polygon fill="white" stroke="#666666" points="1641,-574 1504,-574 1504,-555 1641,-555 1641,-574"/>
<text text-anchor="middle" x="1572.5" y="-562" font-family="Helvetica,sans-Serif" font-size="10.00">TranslatorAdapter_1_7_5</text>
</a>
</g>
</g>
<!-- Node9&#45;&gt;Node10 -->
<g id="edge9" class="edge">
<title>Node9&#45;&gt;Node10</title>
<path fill="none" stroke="#63b8ff" d="M1424.82,-505.34C1445.35,-517.4 1475.83,-534.2 1504,-545.5 1512.93,-549.08 1522.77,-552.26 1532.12,-554.95"/>
<polygon fill="#63b8ff" stroke="#63b8ff" points="1426.51,-502.27 1416.13,-500.17 1422.93,-508.29 1426.51,-502.27"/>
</g>
<!-- Node25 -->
<g id="node25" class="node">
<title>Node25</title>
<g id="a_node25"><a xlink:href="../../da/db8/class_translator_armenian.html" target="_top" xlink:title=" ">
<polygon fill="white" stroke="#666666" points="1628.5,-537 1516.5,-537 1516.5,-518 1628.5,-518 1628.5,-537"/>
<text text-anchor="middle" x="1572.5" y="-525" font-family="Helvetica,sans-Serif" font-size="10.00">TranslatorArmenian</text>
</a>
</g>
</g>
<!-- Node9&#45;&gt;Node25 -->
<g id="edge24" class="edge">
<title>Node9&#45;&gt;Node25</title>
<path fill="none" stroke="#63b8ff" d="M1454.35,-502.15C1477.84,-507.23 1505.04,-513.12 1527.32,-517.94"/>
<polygon fill="#63b8ff" stroke="#63b8ff" points="1455.05,-498.72 1444.54,-500.03 1453.57,-505.56 1455.05,-498.72"/>
</g>
<!-- Node26 -->
<g id="node26" class="node">
<title>Node26</title>
<g id="a_node26"><a xlink:href="../../d9/dc1/class_translator_catalan.html" target="_top" xlink:title=" ">
<polygon fill="white" stroke="#666666" points="1623.5,-500 1521.5,-500 1521.5,-481 1623.5,-481 1623.5,-500"/>
<text text-anchor="middle" x="1572.5" y="-488" font-family="Helvetica,sans-Serif" font-size="10.00">TranslatorCatalan</text>
</a>
</g>
</g>
<!-- Node9&#45;&gt;Node26 -->
<g id="edge25" class="edge">
<title>Node9&#45;&gt;Node26</title>
<path fill="none" stroke="#63b8ff" d="M1478.15,-490.5C1492.8,-490.5 1507.76,-490.5 1521.28,-490.5"/>
<polygon fill="#63b8ff" stroke="#63b8ff" points="1478.08,-487 1468.08,-490.5 1478.08,-494 1478.08,-487"/>
</g>
<!-- Node27 -->
<g id="node27" class="node">
<title>Node27</title>
<g id="a_node27"><a xlink:href="../../d7/d21/class_translator_danish.html" target="_top" xlink:title=" ">
<polygon fill="white" stroke="#666666" points="1621.5,-463 1523.5,-463 1523.5,-444 1621.5,-444 1621.5,-463"/>
<text text-anchor="middle" x="1572.5" y="-451" font-family="Helvetica,sans-Serif" font-size="10.00">TranslatorDanish</text>
</a>
</g>
</g>
<!-- Node9&#45;&gt;Node27 -->
<g id="edge26" class="edge">
<title>Node9&#45;&gt;Node27</title>
<path fill="none" stroke="#63b8ff" d="M1454.35,-478.85C1477.84,-473.77 1505.04,-467.88 1527.32,-463.06"/>
<polygon fill="#63b8ff" stroke="#63b8ff" points="1453.57,-475.44 1444.54,-480.97 1455.05,-482.28 1453.57,-475.44"/>
</g>
<!-- Node28 -->
<g id="node28" class="node">
<title>Node28</title>
<g id="a_node28"><a xlink:href="../../df/dc8/class_translator_indonesian.html" target="_top" xlink:title=" ">
<polygon fill="white" stroke="#666666" points="1631.5,-426 1513.5,-426 1513.5,-407 1631.5,-407 1631.5,-426"/>
<text text-anchor="middle" x="1572.5" y="-414" font-family="Helvetica,sans-Serif" font-size="10.00">TranslatorIndonesian</text>
</a>
</g>
</g>
<!-- Node9&#45;&gt;Node28 -->
<g id="edge27" class="edge">
<title>Node9&#45;&gt;Node28</title>
<path fill="none" stroke="#63b8ff" d="M1456.42,-477.32C1460.44,-475.6 1464.35,-473.67 1468,-471.5 1487.72,-459.77 1484.2,-446.1 1504,-434.5 1509.86,-431.07 1516.39,-428.28 1523.01,-426.01"/>
<polygon fill="#63b8ff" stroke="#63b8ff" points="1454.97,-474.13 1446.86,-480.95 1457.46,-480.67 1454.97,-474.13"/>
</g>
<!-- Node11 -->
<g id="node11" class="node">
<title>Node11</title>
<g id="a_node11"><a xlink:href="../../d3/da1/class_translator_adapter__1__6__0.html" target="_top" xlink:title="Adapter class for languages that only contain translations up to version 1.6.0.">
<polygon fill="white" stroke="#666666" points="1814,-611 1677,-611 1677,-592 1814,-592 1814,-611"/>
<text text-anchor="middle" x="1745.5" y="-599" font-family="Helvetica,sans-Serif" font-size="10.00">TranslatorAdapter_1_6_0</text>
</a>
</g>
</g>
<!-- Node10&#45;&gt;Node11 -->
<g id="edge10" class="edge">
<title>Node10&#45;&gt;Node11</title>
<path fill="none" stroke="#63b8ff" d="M1627.35,-576.15C1650.84,-581.23 1678.04,-587.12 1700.32,-591.94"/>
<polygon fill="#63b8ff" stroke="#63b8ff" points="1628.05,-572.72 1617.54,-574.03 1626.57,-579.56 1628.05,-572.72"/>
</g>
<!-- Node23 -->
<g id="node23" class="node">
<title>Node23</title>
<g id="a_node23"><a xlink:href="../../d5/d43/class_translator_persian.html" target="_top" xlink:title=" ">
<polygon fill="white" stroke="#666666" points="1796,-574 1695,-574 1695,-555 1796,-555 1796,-574"/>
<text text-anchor="middle" x="1745.5" y="-562" font-family="Helvetica,sans-Serif" font-size="10.00">TranslatorPersian</text>
</a>
</g>
</g>
<!-- Node10&#45;&gt;Node23 -->
<g id="edge22" class="edge">
<title>Node10&#45;&gt;Node23</title>
<path fill="none" stroke="#63b8ff" d="M1651.26,-564.5C1666.06,-564.5 1681.18,-564.5 1694.81,-564.5"/>
<polygon fill="#63b8ff" stroke="#63b8ff" points="1651.08,-561 1641.08,-564.5 1651.08,-568 1651.08,-561"/>
</g>
<!-- Node24 -->
<g id="node24" class="node">
<title>Node24</title>
<g id="a_node24"><a xlink:href="../../dd/d80/class_translator_turkish.html" target="_top" xlink:title=" ">
<polygon fill="white" stroke="#666666" points="1795,-537 1696,-537 1696,-518 1795,-518 1795,-537"/>
<text text-anchor="middle" x="1745.5" y="-525" font-family="Helvetica,sans-Serif" font-size="10.00">TranslatorTurkish</text>
</a>
</g>
</g>
<!-- Node10&#45;&gt;Node24 -->
<g id="edge23" class="edge">
<title>Node10&#45;&gt;Node24</title>
<path fill="none" stroke="#63b8ff" d="M1627.35,-552.85C1650.84,-547.77 1678.04,-541.88 1700.32,-537.06"/>
<polygon fill="#63b8ff" stroke="#63b8ff" points="1626.57,-549.44 1617.54,-554.97 1628.05,-556.28 1626.57,-549.44"/>
</g>
<!-- Node12 -->
<g id="node12" class="node">
<title>Node12</title>
<g id="a_node12"><a xlink:href="../../d4/d2b/class_translator_adapter__1__4__6.html" target="_top" xlink:title="Adapter class for languages that only contain translations up to version 1.4.6.">
<polygon fill="white" stroke="#666666" points="1987,-722 1850,-722 1850,-703 1987,-703 1987,-722"/>
<text text-anchor="middle" x="1918.5" y="-710" font-family="Helvetica,sans-Serif" font-size="10.00">TranslatorAdapter_1_4_6</text>
</a>
</g>
</g>
<!-- Node11&#45;&gt;Node12 -->
<g id="edge11" class="edge">
<title>Node11&#45;&gt;Node12</title>
<path fill="none" stroke="#63b8ff" d="M1761.39,-618.85C1780.06,-639.55 1814.04,-673.83 1850,-693.5 1856.94,-697.3 1864.71,-700.39 1872.44,-702.89"/>
<polygon fill="#63b8ff" stroke="#63b8ff" points="1763.82,-616.31 1754.57,-611.14 1758.57,-620.95 1763.82,-616.31"/>
</g>
<!-- Node17 -->
<g id="node17" class="node">
<title>Node17</title>
<g id="a_node17"><a xlink:href="../../d3/d65/class_translator_afrikaans.html" target="_top" xlink:title=" ">
<polygon fill="white" stroke="#666666" points="1973.5,-685 1863.5,-685 1863.5,-666 1973.5,-666 1973.5,-685"/>
<text text-anchor="middle" x="1918.5" y="-673" font-family="Helvetica,sans-Serif" font-size="10.00">TranslatorAfrikaans</text>
</a>
</g>
</g>
<!-- Node11&#45;&gt;Node17 -->
<g id="edge16" class="edge">
<title>Node11&#45;&gt;Node17</title>
<path fill="none" stroke="#63b8ff" d="M1770.82,-616.34C1791.35,-628.4 1821.83,-645.2 1850,-656.5 1858.93,-660.08 1868.77,-663.26 1878.12,-665.95"/>
<polygon fill="#63b8ff" stroke="#63b8ff" points="1772.51,-613.27 1762.13,-611.17 1768.93,-619.29 1772.51,-613.27"/>
</g>
<!-- Node18 -->
<g id="node18" class="node">
<title>Node18</title>
<g id="a_node18"><a xlink:href="../../de/df7/class_translator_finnish.html" target="_top" xlink:title=" ">
<polygon fill="white" stroke="#666666" points="1968,-648 1869,-648 1869,-629 1968,-629 1968,-648"/>
<text text-anchor="middle" x="1918.5" y="-636" font-family="Helvetica,sans-Serif" font-size="10.00">TranslatorFinnish</text>
</a>
</g>
</g>
<!-- Node11&#45;&gt;Node18 -->
<g id="edge17" class="edge">
<title>Node11&#45;&gt;Node18</title>
<path fill="none" stroke="#63b8ff" d="M1800.35,-613.15C1823.84,-618.23 1851.04,-624.12 1873.32,-628.94"/>
<polygon fill="#63b8ff" stroke="#63b8ff" points="1801.05,-609.72 1790.54,-611.03 1799.57,-616.56 1801.05,-609.72"/>
</g>
<!-- Node19 -->
<g id="node19" class="node">
<title>Node19</title>
<g id="a_node19"><a xlink:href="../../d9/ddf/class_translator_macedonian.html" target="_top" xlink:title=" ">
<polygon fill="white" stroke="#666666" points="1980.5,-611 1856.5,-611 1856.5,-592 1980.5,-592 1980.5,-611"/>
<text text-anchor="middle" x="1918.5" y="-599" font-family="Helvetica,sans-Serif" font-size="10.00">TranslatorMacedonian</text>
</a>
</g>
</g>
<!-- Node11&#45;&gt;Node19 -->
<g id="edge18" class="edge">
<title>Node11&#45;&gt;Node19</title>
<path fill="none" stroke="#63b8ff" d="M1824.28,-601.5C1835,-601.5 1845.88,-601.5 1856.24,-601.5"/>
<polygon fill="#63b8ff" stroke="#63b8ff" points="1824.08,-598 1814.08,-601.5 1824.08,-605 1824.08,-598"/>
</g>
<!-- Node20 -->
<g id="node20" class="node">
<title>Node20</title>
<g id="a_node20"><a xlink:href="../../d5/d0a/class_translator_serbian.html" target="_top" xlink:title=" ">
<polygon fill="white" stroke="#666666" points="1969,-574 1868,-574 1868,-555 1969,-555 1969,-574"/>
<text text-anchor="middle" x="1918.5" y="-562" font-family="Helvetica,sans-Serif" font-size="10.00">TranslatorSerbian</text>
</a>
</g>
</g>
<!-- Node11&#45;&gt;Node20 -->
<g id="edge19" class="edge">
<title>Node11&#45;&gt;Node20</title>
<path fill="none" stroke="#63b8ff" d="M1800.35,-589.85C1823.84,-584.77 1851.04,-578.88 1873.32,-574.06"/>
<polygon fill="#63b8ff" stroke="#63b8ff" points="1799.57,-586.44 1790.54,-591.97 1801.05,-593.28 1799.57,-586.44"/>
</g>
<!-- Node21 -->
<g id="node21" class="node">
<title>Node21</title>
<g id="a_node21"><a xlink:href="../../dc/d03/class_translator_serbian_cyrillic.html" target="_top" xlink:title=" ">
<polygon fill="white" stroke="#666666" points="1986,-537 1851,-537 1851,-518 1986,-518 1986,-537"/>
<text text-anchor="middle" x="1918.5" y="-525" font-family="Helvetica,sans-Serif" font-size="10.00">TranslatorSerbianCyrillic</text>
</a>
</g>
</g>
<!-- Node11&#45;&gt;Node21 -->
<g id="edge20" class="edge">
<title>Node11&#45;&gt;Node21</title>
<path fill="none" stroke="#63b8ff" d="M1802.42,-588.32C1806.44,-586.6 1810.35,-584.67 1814,-582.5 1833.72,-570.77 1830.2,-557.1 1850,-545.5 1855.86,-542.07 1862.39,-539.28 1869.01,-537.01"/>
<polygon fill="#63b8ff" stroke="#63b8ff" points="1800.97,-585.13 1792.86,-591.95 1803.46,-591.67 1800.97,-585.13"/>
</g>
<!-- Node22 -->
<g id="node22" class="node">
<title>Node22</title>
<g id="a_node22"><a xlink:href="../../df/d20/class_translator_vietnamese.html" target="_top" xlink:title=" ">
<polygon fill="white" stroke="#666666" points="1980,-500 1857,-500 1857,-481 1980,-481 1980,-500"/>
<text text-anchor="middle" x="1918.5" y="-488" font-family="Helvetica,sans-Serif" font-size="10.00">TranslatorVietnamese</text>
</a>
</g>
</g>
<!-- Node11&#45;&gt;Node22 -->
<g id="edge21" class="edge">
<title>Node11&#45;&gt;Node22</title>
<path fill="none" stroke="#63b8ff" d="M1807.48,-587.18C1809.77,-585.76 1811.96,-584.21 1814,-582.5 1842.06,-559.04 1821.78,-531.76 1850,-508.5 1854.12,-505.11 1858.81,-502.35 1863.77,-500.1"/>
<polygon fill="#63b8ff" stroke="#63b8ff" points="1805.48,-584.27 1798.21,-591.97 1808.7,-590.49 1805.48,-584.27"/>
</g>
<!-- Node13 -->
<g id="node13" class="node">
<title>Node13</title>
<g id="a_node13"><a xlink:href="../../d3/de9/class_translator_arabic.html" target="_top" xlink:title=" ">
<polygon fill="white" stroke="#666666" points="2129,-777 2034,-777 2034,-758 2129,-758 2129,-777"/>
<text text-anchor="middle" x="2081.5" y="-765" font-family="Helvetica,sans-Serif" font-size="10.00">TranslatorArabic</text>
</a>
</g>
</g>
<!-- Node12&#45;&gt;Node13 -->
<g id="edge12" class="edge">
<title>Node12&#45;&gt;Node13</title>
<path fill="none" stroke="#63b8ff" d="M1954.94,-725.57C1974.87,-732.81 2000.25,-741.88 2023,-749.5 2031.43,-752.33 2040.6,-755.26 2049.09,-757.92"/>
<polygon fill="#63b8ff" stroke="#63b8ff" points="1955.94,-722.2 1945.35,-722.06 1953.54,-728.78 1955.94,-722.2"/>
</g>
<!-- Node14 -->
<g id="node14" class="node">
<title>Node14</title>
<g id="a_node14"><a xlink:href="../../dc/d53/class_translator_lithuanian.html" target="_top" xlink:title=" ">
<polygon fill="white" stroke="#666666" points="2139.5,-740 2023.5,-740 2023.5,-721 2139.5,-721 2139.5,-740"/>
<text text-anchor="middle" x="2081.5" y="-728" font-family="Helvetica,sans-Serif" font-size="10.00">TranslatorLithuanian</text>
</a>
</g>
</g>
<!-- Node12&#45;&gt;Node14 -->
<g id="edge13" class="edge">
<title>Node12&#45;&gt;Node14</title>
<path fill="none" stroke="#63b8ff" d="M1997.53,-721.22C2006.27,-722.2 2015.05,-723.18 2023.46,-724.12"/>
<polygon fill="#63b8ff" stroke="#63b8ff" points="1997.64,-717.71 1987.31,-720.08 1996.86,-724.67 1997.64,-717.71"/>
</g>
<!-- Node15 -->
<g id="node15" class="node">
<title>Node15</title>
<g id="a_node15"><a xlink:href="../../dd/d38/class_translator_norwegian.html" target="_top" xlink:title=" ">
<polygon fill="white" stroke="#666666" points="2140,-703 2023,-703 2023,-684 2140,-684 2140,-703"/>
<text text-anchor="middle" x="2081.5" y="-691" font-family="Helvetica,sans-Serif" font-size="10.00">TranslatorNorwegian</text>
</a>
</g>
</g>
<!-- Node12&#45;&gt;Node15 -->
<g id="edge14" class="edge">
<title>Node12&#45;&gt;Node15</title>
<path fill="none" stroke="#63b8ff" d="M1997.38,-703.31C2006,-702.29 2014.66,-701.27 2022.96,-700.29"/>
<polygon fill="#63b8ff" stroke="#63b8ff" points="1996.83,-699.85 1987.31,-704.5 1997.65,-706.8 1996.83,-699.85"/>
</g>
<!-- Node16 -->
<g id="node16" class="node">
<title>Node16</title>
<g id="a_node16"><a xlink:href="../../dd/d0b/class_translator_slovene.html" target="_top" xlink:title=" ">
<polygon fill="white" stroke="#666666" points="2133.5,-666 2029.5,-666 2029.5,-647 2133.5,-647 2133.5,-666"/>
<text text-anchor="middle" x="2081.5" y="-654" font-family="Helvetica,sans-Serif" font-size="10.00">TranslatorSlovene</text>
</a>
</g>
</g>
<!-- Node12&#45;&gt;Node16 -->
<g id="edge15" class="edge">
<title>Node12&#45;&gt;Node16</title>
<path fill="none" stroke="#63b8ff" d="M1968.63,-699.99C1974.88,-698.01 1981.14,-695.84 1987,-693.5 2003.8,-686.79 2006.3,-681.45 2023,-674.5 2030.44,-671.4 2038.6,-668.54 2046.38,-666.05"/>
<polygon fill="#63b8ff" stroke="#63b8ff" points="1967.44,-696.69 1958.87,-702.93 1969.46,-703.4 1967.44,-696.69"/>
</g>
</g>
</svg>
        <g id="navigator" transform="translate(0 0)" fill="#404254">
                <rect fill="#f2f5e9" fill-opacity="0.5" stroke="#606060" stroke-width=".5" x="0" y="0" width="60" height="60"/>
                <use id="zoomplus" xlink:href="#zoomPlus" x="17" y="9" onmousedown="handleZoom(evt,'in')"/>
                <use id="zoomminus" xlink:href="#zoomMin" x="42" y="9" onmousedown="handleZoom(evt,'out')"/>
                <use id="reset" xlink:href="#resetDef" x="30" y="36" onmousedown="handleReset()"/>
                <g id="arrowUp" xlink:href="#dirArrow" transform="translate(30 24)" onmousedown="handlePan(0,-1)">
                  <use xlink:href="#rim" fill="#404040">
                        <set attributeName="fill" to="#808080" begin="arrowUp.mouseover" end="arrowUp.mouseout"/>
                  </use>
                  <path fill="none" stroke="white" stroke-width="1.5" d="M0,-3.0v7 M-2.5,-0.5L0,-3.0L2.5,-0.5"/>
                </g>
                <g id="arrowRight" xlink:href="#dirArrow" transform="rotate(90) translate(36 -43)" onmousedown="handlePan(1,0)">
                  <use xlink:href="#rim" fill="#404040">
                        <set attributeName="fill" to="#808080" begin="arrowRight.mouseover" end="arrowRight.mouseout"/>
                  </use>
                  <path fill="none" stroke="white" stroke-width="1.5" d="M0,-3.0v7 M-2.5,-0.5L0,-3.0L2.5,-0.5"/>
                </g>
                <g id="arrowDown" xlink:href="#dirArrow" transform="rotate(180) translate(-30 -48)" onmousedown="handlePan(0,1)">
                  <use xlink:href="#rim" fill="#404040">
                        <set attributeName="fill" to="#808080" begin="arrowDown.mouseover" end="arrowDown.mouseout"/>
                  </use>
                  <path fill="none" stroke="white" stroke-width="1.5" d="M0,-3.0v7 M-2.5,-0.5L0,-3.0L2.5,-0.5"/>
                </g>
                <g id="arrowLeft" xlink:href="#dirArrow" transform="rotate(270) translate(-36 17)" onmousedown="handlePan(-1,0)">
                  <use xlink:href="#rim" fill="#404040">
                        <set attributeName="fill" to="#808080" begin="arrowLeft.mouseover" end="arrowLeft.mouseout"/>
                  </use>
                  <path fill="none" stroke="white" stroke-width="1.5" d="M0,-3.0v7 M-2.5,-0.5L0,-3.0L2.5,-0.5"/>
                </g>
        </g>
        <svg viewBox="0 0 15 15" width="100%" height="30px" preserveAspectRatio="xMaxYMin meet">
         <g id="arrow_out" transform="scale(0.3 0.3)">
          <a xlink:href="class_translator_adapter__1__9__4__inherit__graph_org.svg" target="_base">
           <rect id="button" ry="5" rx="5" y="6" x="6" height="38" width="38"
                fill="#f2f5e9" fill-opacity="0.5" stroke="#606060" stroke-width="1.0"/>
           <path id="arrow"
             d="M 11.500037,31.436501 C 11.940474,20.09759 22.043105,11.32322 32.158766,21.979434 L 37.068811,17.246167 C 37.068811,17.246167 37.088388,32 37.088388,32 L 22.160133,31.978069 C 22.160133,31.978069 26.997745,27.140456 26.997745,27.140456 C 18.528582,18.264221 13.291696,25.230495 11.500037,31.436501 z"
             style="fill:#404040;"/>
          </a>
         </g>
        </svg>
</svg>
