<?xml version="1.0" encoding="UTF-8" standalone="no"?>
<!DOCTYPE svg PUBLIC "-//W3C//DTD SVG 1.1//EN"
 "http://www.w3.org/Graphics/SVG/1.1/DTD/svg11.dtd">
<!-- Generated by graphviz version 2.40.1 (20161225.0304)
 -->
<!-- Title: TranslatorAdapter_1_9_4 Pages: 1 -->
<!--zoomable 822 -->
<svg id="main" version="1.1" xmlns="http://www.w3.org/2000/svg" xmlns:xlink="http://www.w3.org/1999/xlink" xml:space="preserve" onload="init(evt)">
<style type="text/css"><![CDATA[
.edge:hover path { stroke: red; }
.edge:hover polygon { stroke: red; fill: red; }
]]></style>
<script type="text/javascript"><![CDATA[
var edges = document.getElementsByTagName('g');
if (edges && edges.length) {
  for (var i=0;i<edges.length;i++) {
    if (edges[i].id.substr(0,4)=='edge') {
      edges[i].setAttribute('class','edge');
    }
  }
}
]]></script>
        <defs>
                <circle id="rim" cx="0" cy="0" r="7"/>
                <circle id="rim2" cx="0" cy="0" r="3.5"/>
                <g id="zoomPlus">
                        <use xlink:href="#rim" fill="#404040">
                                <set attributeName="fill" to="#808080" begin="zoomplus.mouseover" end="zoomplus.mouseout"/>
                        </use>
                        <path d="M-4,0h8M0,-4v8" fill="none" stroke="white" stroke-width="1.5" pointer-events="none"/>
                </g>
                <g id="zoomMin">
                        <use xlink:href="#rim" fill="#404040">
                                <set attributeName="fill" to="#808080" begin="zoomminus.mouseover" end="zoomminus.mouseout"/>
                        </use>
                        <path d="M-4,0h8" fill="none" stroke="white" stroke-width="1.5" pointer-events="none"/>
                </g>
                <g id="dirArrow">
                        <path fill="none" stroke="white" stroke-width="1.5" d="M0,-3.0v7 M-2.5,-0.5L0,-3.0L2.5,-0.5"/>
                </g>
               <g id="resetDef">
                       <use xlink:href="#rim2" fill="#404040">
                               <set attributeName="fill" to="#808080" begin="reset.mouseover" end="reset.mouseout"/>
                       </use>
               </g>
        </defs>

<script type="text/javascript">
var viewWidth = 1998;
var viewHeight = 822;
var sectionId = 'dynsection-0';
</script>
<script xlink:href="../../svgpan.js"/>
<svg id="graph" class="graph">
<g id="viewport">
<title>TranslatorAdapter_1_9_4</title>
<!-- Node1 -->
<g id="node1" class="node">
<title>Node1</title>
<g id="a_node1"><a xlink:title=" ">
<polygon fill="#999999" stroke="#666666" points="373,-130 248,-130 248,-111 373,-111 373,-130"/>
<text text-anchor="middle" x="310.5" y="-118" font-family="Helvetica,sans-Serif" font-size="10.00" fill="#000000">TranslatorAdapter_1_9_4</text>
</a>
</g>
</g>
<!-- Node4 -->
<g id="node4" class="node">
<title>Node4</title>
<g id="a_node4"><a xlink:href="../../d3/d2e/class_translator_adapter__1__9__2.html" target="_top" xlink:title=" ">
<polygon fill="#ffffff" stroke="#666666" points="534,-241 409,-241 409,-222 534,-222 534,-241"/>
<text text-anchor="middle" x="471.5" y="-229" font-family="Helvetica,sans-Serif" font-size="10.00" fill="#000000">TranslatorAdapter_1_9_2</text>
</a>
</g>
</g>
<!-- Node1&#45;&gt;Node4 -->
<g id="edge3" class="edge">
<title>Node1&#45;&gt;Node4</title>
<path fill="none" stroke="#63b8ff" d="M324.5554,-137.758C342.2203,-158.3721 374.4392,-192.5644 409,-212.5 415.582,-216.2967 422.9997,-219.4074 430.3649,-221.9313"/>
<polygon fill="#63b8ff" stroke="#63b8ff" points="327.2242,-135.4935 318.1147,-130.0836 321.8623,-139.9936 327.2242,-135.4935"/>
</g>
<!-- Node45 -->
<g id="node45" class="node">
<title>Node45</title>
<g id="a_node45"><a xlink:href="../../da/dbb/class_translator_bulgarian.html" target="_top" xlink:title=" ">
<polygon fill="#ffffff" stroke="#666666" points="522,-204 421,-204 421,-185 522,-185 522,-204"/>
<text text-anchor="middle" x="471.5" y="-192" font-family="Helvetica,sans-Serif" font-size="10.00" fill="#000000">TranslatorBulgarian</text>
</a>
</g>
</g>
<!-- Node1&#45;&gt;Node45 -->
<g id="edge44" class="edge">
<title>Node1&#45;&gt;Node45</title>
<path fill="none" stroke="#63b8ff" d="M333.8673,-135.4312C353.3839,-147.435 382.2385,-164.1164 409,-175.5 417.3489,-179.0514 426.5832,-182.2386 435.3343,-184.9425"/>
<polygon fill="#63b8ff" stroke="#63b8ff" points="335.681,-132.4375 325.3428,-130.1196 331.9791,-138.3786 335.681,-132.4375"/>
</g>
<!-- Node46 -->
<g id="node46" class="node">
<title>Node46</title>
<g id="a_node46"><a xlink:href="../../d6/db6/class_translator_chinese.html" target="_top" xlink:title=" ">
<polygon fill="#ffffff" stroke="#666666" points="519.5,-167 423.5,-167 423.5,-148 519.5,-148 519.5,-167"/>
<text text-anchor="middle" x="471.5" y="-155" font-family="Helvetica,sans-Serif" font-size="10.00" fill="#000000">TranslatorChinese</text>
</a>
</g>
</g>
<!-- Node1&#45;&gt;Node46 -->
<g id="edge45" class="edge">
<title>Node1&#45;&gt;Node46</title>
<path fill="none" stroke="#63b8ff" d="M361.7953,-132.2884C383.7748,-137.3396 409.1145,-143.163 429.8995,-147.9396"/>
<polygon fill="#63b8ff" stroke="#63b8ff" points="362.4914,-128.8572 351.9615,-130.0284 360.9235,-135.6793 362.4914,-128.8572"/>
</g>
<!-- Node47 -->
<g id="node47" class="node">
<title>Node47</title>
<g id="a_node47"><a xlink:href="../../dd/d8a/class_translator_czech.html" target="_top" xlink:title=" ">
<polygon fill="#ffffff" stroke="#666666" points="516,-130 427,-130 427,-111 516,-111 516,-130"/>
<text text-anchor="middle" x="471.5" y="-118" font-family="Helvetica,sans-Serif" font-size="10.00" fill="#000000">TranslatorCzech</text>
</a>
</g>
</g>
<!-- Node1&#45;&gt;Node47 -->
<g id="edge46" class="edge">
<title>Node1&#45;&gt;Node47</title>
<path fill="none" stroke="#63b8ff" d="M383.3448,-120.5C398.1027,-120.5 413.2069,-120.5 426.6492,-120.5"/>
<polygon fill="#63b8ff" stroke="#63b8ff" points="383.2078,-117.0001 373.2078,-120.5 383.2078,-124.0001 383.2078,-117.0001"/>
</g>
<!-- Node48 -->
<g id="node48" class="node">
<title>Node48</title>
<g id="a_node48"><a xlink:href="../../df/d75/class_translator_greek.html" target="_top" xlink:title=" ">
<polygon fill="#ffffff" stroke="#666666" points="514.5,-93 428.5,-93 428.5,-74 514.5,-74 514.5,-93"/>
<text text-anchor="middle" x="471.5" y="-81" font-family="Helvetica,sans-Serif" font-size="10.00" fill="#000000">TranslatorGreek</text>
</a>
</g>
</g>
<!-- Node1&#45;&gt;Node48 -->
<g id="edge47" class="edge">
<title>Node1&#45;&gt;Node48</title>
<path fill="none" stroke="#63b8ff" d="M361.7953,-108.7116C383.7748,-103.6604 409.1145,-97.837 429.8995,-93.0604"/>
<polygon fill="#63b8ff" stroke="#63b8ff" points="360.9235,-105.3207 351.9615,-110.9716 362.4914,-112.1428 360.9235,-105.3207"/>
</g>
<!-- Node49 -->
<g id="node49" class="node">
<title>Node49</title>
<g id="a_node49"><a xlink:href="../../d1/d8a/class_translator_hindi.html" target="_top" xlink:title=" ">
<polygon fill="#ffffff" stroke="#666666" points="513,-56 430,-56 430,-37 513,-37 513,-56"/>
<text text-anchor="middle" x="471.5" y="-44" font-family="Helvetica,sans-Serif" font-size="10.00" fill="#000000">TranslatorHindi</text>
</a>
</g>
</g>
<!-- Node1&#45;&gt;Node49 -->
<g id="edge48" class="edge">
<title>Node1&#45;&gt;Node49</title>
<path fill="none" stroke="#63b8ff" d="M333.446,-105.3782C352.9173,-93.062 381.9256,-75.9049 409,-64.5 416.5965,-61.3 424.9427,-58.4614 432.9934,-56.0382"/>
<polygon fill="#63b8ff" stroke="#63b8ff" points="331.4851,-102.4778 324.9582,-110.8235 335.2649,-108.3696 331.4851,-102.4778"/>
</g>
<!-- Node50 -->
<g id="node50" class="node">
<title>Node50</title>
<g id="a_node50"><a xlink:href="../../d5/d5c/class_translator_swedish.html" target="_top" xlink:title=" ">
<polygon fill="#ffffff" stroke="#666666" points="520.5,-19 422.5,-19 422.5,0 520.5,0 520.5,-19"/>
<text text-anchor="middle" x="471.5" y="-7" font-family="Helvetica,sans-Serif" font-size="10.00" fill="#000000">TranslatorSwedish</text>
</a>
</g>
</g>
<!-- Node1&#45;&gt;Node50 -->
<g id="edge49" class="edge">
<title>Node1&#45;&gt;Node50</title>
<path fill="none" stroke="#63b8ff" d="M324.4656,-102.9615C342.041,-82.031 374.1707,-47.3748 409,-27.5 414.8844,-24.1422 421.4437,-21.3695 428.0383,-19.0923"/>
<polygon fill="#63b8ff" stroke="#63b8ff" points="321.705,-100.8082 318.0609,-110.7566 327.1135,-105.252 321.705,-100.8082"/>
</g>
<!-- Node2 -->
<g id="node2" class="node">
<title>Node2</title>
<g id="a_node2"><a xlink:href="../../db/d6c/class_translator_adapter_base.html" target="_top" xlink:title="Base of the translator adapter tree.">
<polygon fill="#ffffff" stroke="#666666" points="212,-130 96,-130 96,-111 212,-111 212,-130"/>
<text text-anchor="middle" x="154" y="-118" font-family="Helvetica,sans-Serif" font-size="10.00" fill="#000000">TranslatorAdapterBase</text>
</a>
</g>
</g>
<!-- Node2&#45;&gt;Node1 -->
<g id="edge1" class="edge">
<title>Node2&#45;&gt;Node1</title>
<path fill="none" stroke="#63b8ff" d="M222.5047,-120.5C230.9767,-120.5 239.6034,-120.5 247.9794,-120.5"/>
<polygon fill="#63b8ff" stroke="#63b8ff" points="222.2749,-117.0001 212.2748,-120.5 222.2748,-124.0001 222.2749,-117.0001"/>
</g>
<!-- Node3 -->
<g id="node3" class="node">
<title>Node3</title>
<g id="a_node3"><a xlink:href="../../d8/dfb/class_translator.html" target="_top" xlink:title="Abstract base class for all translatable text fragments.">
<polygon fill="#ffffff" stroke="#666666" points="60,-130 0,-130 0,-111 60,-111 60,-130"/>
<text text-anchor="middle" x="30" y="-118" font-family="Helvetica,sans-Serif" font-size="10.00" fill="#000000">Translator</text>
</a>
</g>
</g>
<!-- Node3&#45;&gt;Node2 -->
<g id="edge2" class="edge">
<title>Node3&#45;&gt;Node2</title>
<path fill="none" stroke="#63b8ff" d="M70.2811,-120.5C78.379,-120.5 87.0427,-120.5 95.614,-120.5"/>
<polygon fill="#63b8ff" stroke="#63b8ff" points="70.017,-117.0001 60.0169,-120.5 70.0169,-124.0001 70.017,-117.0001"/>
</g>
<!-- Node5 -->
<g id="node5" class="node">
<title>Node5</title>
<g id="a_node5"><a xlink:href="../../de/dde/class_translator_adapter__1__8__19.html" target="_top" xlink:title=" ">
<polygon fill="#ffffff" stroke="#666666" points="701,-241 570,-241 570,-222 701,-222 701,-241"/>
<text text-anchor="middle" x="635.5" y="-229" font-family="Helvetica,sans-Serif" font-size="10.00" fill="#000000">TranslatorAdapter_1_8_19</text>
</a>
</g>
</g>
<!-- Node4&#45;&gt;Node5 -->
<g id="edge4" class="edge">
<title>Node4&#45;&gt;Node5</title>
<path fill="none" stroke="#63b8ff" d="M544.5745,-231.5C552.9557,-231.5 561.4628,-231.5 569.7399,-231.5"/>
<polygon fill="#63b8ff" stroke="#63b8ff" points="544.4377,-228.0001 534.4377,-231.5 544.4376,-235.0001 544.4377,-228.0001"/>
</g>
<!-- Node6 -->
<g id="node6" class="node">
<title>Node6</title>
<g id="a_node6"><a xlink:href="../../d4/d2e/class_translator_adapter__1__8__15.html" target="_top" xlink:title=" ">
<polygon fill="#ffffff" stroke="#666666" points="868,-278 737,-278 737,-259 868,-259 868,-278"/>
<text text-anchor="middle" x="802.5" y="-266" font-family="Helvetica,sans-Serif" font-size="10.00" fill="#000000">TranslatorAdapter_1_8_15</text>
</a>
</g>
</g>
<!-- Node5&#45;&gt;Node6 -->
<g id="edge5" class="edge">
<title>Node5&#45;&gt;Node6</title>
<path fill="none" stroke="#63b8ff" d="M688.3991,-243.2201C711.2687,-248.2871 737.6925,-254.1415 759.3492,-258.9396"/>
<polygon fill="#63b8ff" stroke="#63b8ff" points="689.027,-239.7745 678.5066,-241.0284 687.5128,-246.6087 689.027,-239.7745"/>
</g>
<!-- Node43 -->
<g id="node43" class="node">
<title>Node43</title>
<g id="a_node43"><a xlink:href="../../da/d1a/class_translator_french.html" target="_top" xlink:title=" ">
<polygon fill="#ffffff" stroke="#666666" points="847.5,-241 757.5,-241 757.5,-222 847.5,-222 847.5,-241"/>
<text text-anchor="middle" x="802.5" y="-229" font-family="Helvetica,sans-Serif" font-size="10.00" fill="#000000">TranslatorFrench</text>
</a>
</g>
</g>
<!-- Node5&#45;&gt;Node43 -->
<g id="edge42" class="edge">
<title>Node5&#45;&gt;Node43</title>
<path fill="none" stroke="#63b8ff" d="M711.2711,-231.5C726.982,-231.5 743.0609,-231.5 757.2575,-231.5"/>
<polygon fill="#63b8ff" stroke="#63b8ff" points="711.0235,-228.0001 701.0235,-231.5 711.0235,-235.0001 711.0235,-228.0001"/>
</g>
<!-- Node44 -->
<g id="node44" class="node">
<title>Node44</title>
<g id="a_node44"><a xlink:href="../../dc/d44/class_translator_spanish.html" target="_top" xlink:title=" ">
<polygon fill="#ffffff" stroke="#666666" points="850,-204 755,-204 755,-185 850,-185 850,-204"/>
<text text-anchor="middle" x="802.5" y="-192" font-family="Helvetica,sans-Serif" font-size="10.00" fill="#000000">TranslatorSpanish</text>
</a>
</g>
</g>
<!-- Node5&#45;&gt;Node44 -->
<g id="edge43" class="edge">
<title>Node5&#45;&gt;Node44</title>
<path fill="none" stroke="#63b8ff" d="M688.3991,-219.7799C711.2687,-214.7129 737.6925,-208.8585 759.3492,-204.0604"/>
<polygon fill="#63b8ff" stroke="#63b8ff" points="687.5128,-216.3913 678.5066,-221.9716 689.027,-223.2255 687.5128,-216.3913"/>
</g>
<!-- Node7 -->
<g id="node7" class="node">
<title>Node7</title>
<g id="a_node7"><a xlink:href="../../de/d2f/class_translator_adapter__1__8__4.html" target="_top" xlink:title=" ">
<polygon fill="#ffffff" stroke="#666666" points="1035.5,-445 910.5,-445 910.5,-426 1035.5,-426 1035.5,-445"/>
<text text-anchor="middle" x="973" y="-433" font-family="Helvetica,sans-Serif" font-size="10.00" fill="#000000">TranslatorAdapter_1_8_4</text>
</a>
</g>
</g>
<!-- Node6&#45;&gt;Node7 -->
<g id="edge6" class="edge">
<title>Node6&#45;&gt;Node7</title>
<path fill="none" stroke="#63b8ff" d="M810.3337,-287.6537C824.3078,-319.3865 856.5854,-382.7089 904,-416.5 909.4639,-420.394 915.6929,-423.4906 922.121,-425.953"/>
<polygon fill="#63b8ff" stroke="#63b8ff" points="813.4414,-286.0185 806.3009,-278.1914 807.0019,-288.7631 813.4414,-286.0185"/>
</g>
<!-- Node34 -->
<g id="node34" class="node">
<title>Node34</title>
<g id="a_node34"><a xlink:href="../../dd/df6/class_translator_chinesetraditional.html" target="_top" xlink:title=" ">
<polygon fill="#ffffff" stroke="#666666" points="1042,-408 904,-408 904,-389 1042,-389 1042,-408"/>
<text text-anchor="middle" x="973" y="-396" font-family="Helvetica,sans-Serif" font-size="10.00" fill="#000000">TranslatorChinesetraditional</text>
</a>
</g>
</g>
<!-- Node6&#45;&gt;Node34 -->
<g id="edge33" class="edge">
<title>Node6&#45;&gt;Node34</title>
<path fill="none" stroke="#63b8ff" d="M814.1723,-286.6487C831.0204,-311.3715 864.5052,-355.3187 904,-379.5 910.358,-383.3928 917.5259,-386.5045 924.7749,-388.9875"/>
<polygon fill="#63b8ff" stroke="#63b8ff" points="817.0034,-284.5852 808.5519,-278.196 811.1744,-288.4611 817.0034,-284.5852"/>
</g>
<!-- Node35 -->
<g id="node35" class="node">
<title>Node35</title>
<g id="a_node35"><a xlink:href="../../d6/d07/class_translator_german.html" target="_top" xlink:title=" ">
<polygon fill="#ffffff" stroke="#666666" points="1020.5,-371 925.5,-371 925.5,-352 1020.5,-352 1020.5,-371"/>
<text text-anchor="middle" x="973" y="-359" font-family="Helvetica,sans-Serif" font-size="10.00" fill="#000000">TranslatorGerman</text>
</a>
</g>
</g>
<!-- Node6&#45;&gt;Node35 -->
<g id="edge34" class="edge">
<title>Node6&#45;&gt;Node35</title>
<path fill="none" stroke="#63b8ff" d="M820.6253,-284.8904C839.976,-301.5899 872.174,-327.1524 904,-342.5 911.8342,-346.2779 920.543,-349.4104 929.0625,-351.9679"/>
<polygon fill="#63b8ff" stroke="#63b8ff" points="822.7438,-282.0926 812.9216,-278.1208 818.1231,-287.3509 822.7438,-282.0926"/>
</g>
<!-- Node36 -->
<g id="node36" class="node">
<title>Node36</title>
<g id="a_node36"><a xlink:href="../../db/d5f/class_translator_hungarian.html" target="_top" xlink:title=" ">
<polygon fill="#ffffff" stroke="#666666" points="1025,-334 921,-334 921,-315 1025,-315 1025,-334"/>
<text text-anchor="middle" x="973" y="-322" font-family="Helvetica,sans-Serif" font-size="10.00" fill="#000000">TranslatorHungarian</text>
</a>
</g>
</g>
<!-- Node6&#45;&gt;Node36 -->
<g id="edge35" class="edge">
<title>Node6&#45;&gt;Node36</title>
<path fill="none" stroke="#63b8ff" d="M836.3448,-281.6153C855.9677,-289.0235 881.2262,-298.2267 904,-305.5 914.4157,-308.8265 925.824,-312.1111 936.3116,-314.9896"/>
<polygon fill="#63b8ff" stroke="#63b8ff" points="837.5117,-278.3146 826.9207,-278.0322 835.024,-284.8577 837.5117,-278.3146"/>
</g>
<!-- Node37 -->
<g id="node37" class="node">
<title>Node37</title>
<g id="a_node37"><a xlink:href="../../d2/df8/class_translator_italian.html" target="_top" xlink:title=" ">
<polygon fill="#ffffff" stroke="#666666" points="1016,-297 930,-297 930,-278 1016,-278 1016,-297"/>
<text text-anchor="middle" x="973" y="-285" font-family="Helvetica,sans-Serif" font-size="10.00" fill="#000000">TranslatorItalian</text>
</a>
</g>
</g>
<!-- Node6&#45;&gt;Node37 -->
<g id="edge36" class="edge">
<title>Node6&#45;&gt;Node37</title>
<path fill="none" stroke="#63b8ff" d="M878.6723,-276.9884C896.2261,-278.9446 914.2992,-280.9586 929.8689,-282.6936"/>
<polygon fill="#63b8ff" stroke="#63b8ff" points="878.7459,-273.475 868.4198,-275.8459 877.9706,-280.432 878.7459,-273.475"/>
</g>
<!-- Node38 -->
<g id="node38" class="node">
<title>Node38</title>
<g id="a_node38"><a xlink:href="../../d1/d6a/class_translator_japanese.html" target="_top" xlink:title=" ">
<polygon fill="#ffffff" stroke="#666666" points="1024,-260 922,-260 922,-241 1024,-241 1024,-260"/>
<text text-anchor="middle" x="973" y="-248" font-family="Helvetica,sans-Serif" font-size="10.00" fill="#000000">TranslatorJapanese</text>
</a>
</g>
</g>
<!-- Node6&#45;&gt;Node38 -->
<g id="edge37" class="edge">
<title>Node6&#45;&gt;Node38</title>
<path fill="none" stroke="#63b8ff" d="M878.4844,-260.4782C893.1388,-258.9311 908.1628,-257.345 921.7965,-255.9056"/>
<polygon fill="#63b8ff" stroke="#63b8ff" points="877.997,-257.0101 868.4198,-261.5407 878.732,-263.9714 877.997,-257.0101"/>
</g>
<!-- Node39 -->
<g id="node39" class="node">
<title>Node39</title>
<g id="a_node39"><a xlink:href="../../db/dcc/class_translator_korean.html" target="_top" xlink:title=" ">
<polygon fill="#ffffff" stroke="#666666" points="1018.5,-223 927.5,-223 927.5,-204 1018.5,-204 1018.5,-223"/>
<text text-anchor="middle" x="973" y="-211" font-family="Helvetica,sans-Serif" font-size="10.00" fill="#000000">TranslatorKorean</text>
</a>
</g>
</g>
<!-- Node6&#45;&gt;Node39 -->
<g id="edge38" class="edge">
<title>Node6&#45;&gt;Node39</title>
<path fill="none" stroke="#63b8ff" d="M849.6613,-255.9371C855.8878,-253.9537 862.1389,-251.7935 868,-249.5 884.6586,-242.9814 887.2545,-237.7919 904,-231.5 912.46,-228.3213 921.7058,-225.4918 930.6014,-223.0708"/>
<polygon fill="#63b8ff" stroke="#63b8ff" points="848.4976,-252.6329 839.9567,-258.9021 850.543,-259.3274 848.4976,-252.6329"/>
</g>
<!-- Node40 -->
<g id="node40" class="node">
<title>Node40</title>
<g id="a_node40"><a xlink:href="../../da/d32/class_translator_romanian.html" target="_top" xlink:title=" ">
<polygon fill="#ffffff" stroke="#666666" points="1025,-186 921,-186 921,-167 1025,-167 1025,-186"/>
<text text-anchor="middle" x="973" y="-174" font-family="Helvetica,sans-Serif" font-size="10.00" fill="#000000">TranslatorRomanian</text>
</a>
</g>
</g>
<!-- Node6&#45;&gt;Node40 -->
<g id="edge39" class="edge">
<title>Node6&#45;&gt;Node40</title>
<path fill="none" stroke="#63b8ff" d="M859.6378,-254.7381C862.5707,-253.1755 865.3821,-251.4361 868,-249.5 891.4895,-232.1283 880.2769,-211.5513 904,-194.5 909.1269,-190.815 914.9495,-187.8838 920.9872,-185.5524"/>
<polygon fill="#63b8ff" stroke="#63b8ff" points="858.1713,-251.56 850.5458,-258.9154 861.0939,-257.9208 858.1713,-251.56"/>
</g>
<!-- Node41 -->
<g id="node41" class="node">
<title>Node41</title>
<g id="a_node41"><a xlink:href="../../d0/dab/class_translator_russian.html" target="_top" xlink:title=" ">
<polygon fill="#ffffff" stroke="#666666" points="1021,-149 925,-149 925,-130 1021,-130 1021,-149"/>
<text text-anchor="middle" x="973" y="-137" font-family="Helvetica,sans-Serif" font-size="10.00" fill="#000000">TranslatorRussian</text>
</a>
</g>
</g>
<!-- Node6&#45;&gt;Node41 -->
<g id="edge40" class="edge">
<title>Node6&#45;&gt;Node41</title>
<path fill="none" stroke="#63b8ff" d="M862.4326,-253.8822C864.3938,-252.5465 866.2596,-251.0894 868,-249.5 900.4226,-219.8912 871.1786,-186.666 904,-157.5 909.9227,-152.237 917.1965,-148.4804 924.7758,-145.8061"/>
<polygon fill="#63b8ff" stroke="#63b8ff" points="860.3257,-251.051 853.3164,-258.9957 863.7503,-257.1561 860.3257,-251.051"/>
</g>
<!-- Node42 -->
<g id="node42" class="node">
<title>Node42</title>
<g id="a_node42"><a xlink:href="../../d2/d53/class_translator_slovak.html" target="_top" xlink:title=" ">
<polygon fill="#ffffff" stroke="#666666" points="1018,-112 928,-112 928,-93 1018,-93 1018,-112"/>
<text text-anchor="middle" x="973" y="-100" font-family="Helvetica,sans-Serif" font-size="10.00" fill="#000000">TranslatorSlovak</text>
</a>
</g>
</g>
<!-- Node6&#45;&gt;Node42 -->
<g id="edge41" class="edge">
<title>Node6&#45;&gt;Node42</title>
<path fill="none" stroke="#63b8ff" d="M863.3987,-253.5348C865.0225,-252.2938 866.5631,-250.9516 868,-249.5 909.875,-207.1964 861.5547,-162.2313 904,-120.5 910.5327,-114.0772 919.0541,-109.8635 927.8687,-107.1186"/>
<polygon fill="#63b8ff" stroke="#63b8ff" points="861.3392,-250.6933 854.6805,-258.9341 865.0249,-256.6444 861.3392,-250.6933"/>
</g>
<!-- Node8 -->
<g id="node8" class="node">
<title>Node8</title>
<g id="a_node8"><a xlink:href="../../d2/d75/class_translator_adapter__1__8__2.html" target="_top" xlink:title=" ">
<polygon fill="#ffffff" stroke="#666666" points="1203,-500 1078,-500 1078,-481 1203,-481 1203,-500"/>
<text text-anchor="middle" x="1140.5" y="-488" font-family="Helvetica,sans-Serif" font-size="10.00" fill="#000000">TranslatorAdapter_1_8_2</text>
</a>
</g>
</g>
<!-- Node7&#45;&gt;Node8 -->
<g id="edge7" class="edge">
<title>Node7&#45;&gt;Node8</title>
<path fill="none" stroke="#63b8ff" d="M1009.8041,-448.4728C1029.8999,-455.4667 1055.2552,-464.1462 1078,-471.5 1087.8198,-474.6749 1098.5557,-477.9935 1108.3156,-480.9524"/>
<polygon fill="#63b8ff" stroke="#63b8ff" points="1010.7017,-445.079 1000.1068,-445.0868 1008.394,-451.6877 1010.7017,-445.079"/>
</g>
<!-- Node31 -->
<g id="node31" class="node">
<title>Node31</title>
<g id="a_node31"><a xlink:href="../../d2/d07/class_translator_esperanto.html" target="_top" xlink:title=" ">
<polygon fill="#ffffff" stroke="#666666" points="1192.5,-463 1088.5,-463 1088.5,-444 1192.5,-444 1192.5,-463"/>
<text text-anchor="middle" x="1140.5" y="-451" font-family="Helvetica,sans-Serif" font-size="10.00" fill="#000000">TranslatorEsperanto</text>
</a>
</g>
</g>
<!-- Node7&#45;&gt;Node31 -->
<g id="edge30" class="edge">
<title>Node7&#45;&gt;Node31</title>
<path fill="none" stroke="#63b8ff" d="M1046.0854,-443.354C1060.2793,-444.8793 1074.8885,-446.4492 1088.2465,-447.8847"/>
<polygon fill="#63b8ff" stroke="#63b8ff" points="1046.1641,-439.8423 1035.8474,-442.2537 1045.4161,-446.8023 1046.1641,-439.8423"/>
</g>
<!-- Node32 -->
<g id="node32" class="node">
<title>Node32</title>
<g id="a_node32"><a xlink:href="../../d8/d83/class_translator_latvian.html" target="_top" xlink:title=" ">
<polygon fill="#ffffff" stroke="#666666" points="1186.5,-426 1094.5,-426 1094.5,-407 1186.5,-407 1186.5,-426"/>
<text text-anchor="middle" x="1140.5" y="-414" font-family="Helvetica,sans-Serif" font-size="10.00" fill="#000000">TranslatorLatvian</text>
</a>
</g>
</g>
<!-- Node7&#45;&gt;Node32 -->
<g id="edge31" class="edge">
<title>Node7&#45;&gt;Node32</title>
<path fill="none" stroke="#63b8ff" d="M1045.9699,-427.2228C1062.3808,-425.3613 1079.3532,-423.4361 1094.3099,-421.7395"/>
<polygon fill="#63b8ff" stroke="#63b8ff" points="1045.3891,-423.7662 1035.8474,-428.371 1046.1782,-430.7216 1045.3891,-423.7662"/>
</g>
<!-- Node33 -->
<g id="node33" class="node">
<title>Node33</title>
<g id="a_node33"><a xlink:href="../../d1/d56/class_translator_ukrainian.html" target="_top" xlink:title=" ">
<polygon fill="#ffffff" stroke="#666666" points="1191,-389 1090,-389 1090,-370 1191,-370 1191,-389"/>
<text text-anchor="middle" x="1140.5" y="-377" font-family="Helvetica,sans-Serif" font-size="10.00" fill="#000000">TranslatorUkrainian</text>
</a>
</g>
</g>
<!-- Node7&#45;&gt;Node33 -->
<g id="edge32" class="edge">
<title>Node7&#45;&gt;Node33</title>
<path fill="none" stroke="#63b8ff" d="M1023.2302,-423.0484C1029.6181,-421.063 1036.0112,-418.8723 1042,-416.5 1058.8201,-409.8371 1061.2192,-404.2612 1078,-397.5 1085.8552,-394.335 1094.4721,-391.4796 1102.7303,-389.024"/>
<polygon fill="#63b8ff" stroke="#63b8ff" points="1021.8535,-419.8055 1013.2552,-425.9958 1023.8371,-426.5186 1021.8535,-419.8055"/>
</g>
<!-- Node9 -->
<g id="node9" class="node">
<title>Node9</title>
<g id="a_node9"><a xlink:href="../../de/d49/class_translator_adapter__1__8__0.html" target="_top" xlink:title="Adapter class for languages that only contain translations up to version 1.8.0.">
<polygon fill="#ffffff" stroke="#666666" points="1364,-537 1239,-537 1239,-518 1364,-518 1364,-537"/>
<text text-anchor="middle" x="1301.5" y="-525" font-family="Helvetica,sans-Serif" font-size="10.00" fill="#000000">TranslatorAdapter_1_8_0</text>
</a>
</g>
</g>
<!-- Node8&#45;&gt;Node9 -->
<g id="edge8" class="edge">
<title>Node8&#45;&gt;Node9</title>
<path fill="none" stroke="#63b8ff" d="M1191.7953,-502.2884C1213.7748,-507.3396 1239.1145,-513.163 1259.8995,-517.9396"/>
<polygon fill="#63b8ff" stroke="#63b8ff" points="1192.4914,-498.8572 1181.9615,-500.0284 1190.9235,-505.6793 1192.4914,-498.8572"/>
</g>
<!-- Node29 -->
<g id="node29" class="node">
<title>Node29</title>
<g id="a_node29"><a xlink:href="../../d9/d82/class_translator_croatian.html" target="_top" xlink:title=" ">
<polygon fill="#ffffff" stroke="#666666" points="1350,-500 1253,-500 1253,-481 1350,-481 1350,-500"/>
<text text-anchor="middle" x="1301.5" y="-488" font-family="Helvetica,sans-Serif" font-size="10.00" fill="#000000">TranslatorCroatian</text>
</a>
</g>
</g>
<!-- Node8&#45;&gt;Node29 -->
<g id="edge28" class="edge">
<title>Node8&#45;&gt;Node29</title>
<path fill="none" stroke="#63b8ff" d="M1213.3743,-490.5C1226.774,-490.5 1240.4581,-490.5 1252.9234,-490.5"/>
<polygon fill="#63b8ff" stroke="#63b8ff" points="1213.2078,-487.0001 1203.2078,-490.5 1213.2078,-494.0001 1213.2078,-487.0001"/>
</g>
<!-- Node30 -->
<g id="node30" class="node">
<title>Node30</title>
<g id="a_node30"><a xlink:href="../../de/d82/class_translator_polish.html" target="_top" xlink:title=" ">
<polygon fill="#ffffff" stroke="#666666" points="1345,-463 1258,-463 1258,-444 1345,-444 1345,-463"/>
<text text-anchor="middle" x="1301.5" y="-451" font-family="Helvetica,sans-Serif" font-size="10.00" fill="#000000">TranslatorPolish</text>
</a>
</g>
</g>
<!-- Node8&#45;&gt;Node30 -->
<g id="edge29" class="edge">
<title>Node8&#45;&gt;Node30</title>
<path fill="none" stroke="#63b8ff" d="M1191.7953,-478.7116C1213.7748,-473.6604 1239.1145,-467.837 1259.8995,-463.0604"/>
<polygon fill="#63b8ff" stroke="#63b8ff" points="1190.9235,-475.3207 1181.9615,-480.9716 1192.4914,-482.1428 1190.9235,-475.3207"/>
</g>
<!-- Node10 -->
<g id="node10" class="node">
<title>Node10</title>
<g id="a_node10"><a xlink:href="../../da/d24/class_translator_adapter__1__7__5.html" target="_top" xlink:title="Adapter class for languages that only contain translations up to version 1.7.5.">
<polygon fill="#ffffff" stroke="#666666" points="1525,-611 1400,-611 1400,-592 1525,-592 1525,-611"/>
<text text-anchor="middle" x="1462.5" y="-599" font-family="Helvetica,sans-Serif" font-size="10.00" fill="#000000">TranslatorAdapter_1_7_5</text>
</a>
</g>
</g>
<!-- Node9&#45;&gt;Node10 -->
<g id="edge9" class="edge">
<title>Node9&#45;&gt;Node10</title>
<path fill="none" stroke="#63b8ff" d="M1324.8673,-542.4312C1344.3839,-554.435 1373.2385,-571.1164 1400,-582.5 1408.3489,-586.0514 1417.5832,-589.2386 1426.3343,-591.9425"/>
<polygon fill="#63b8ff" stroke="#63b8ff" points="1326.681,-539.4375 1316.3428,-537.1196 1322.9791,-545.3786 1326.681,-539.4375"/>
</g>
<!-- Node25 -->
<g id="node25" class="node">
<title>Node25</title>
<g id="a_node25"><a xlink:href="../../da/db8/class_translator_armenian.html" target="_top" xlink:title=" ">
<polygon fill="#ffffff" stroke="#666666" points="1513,-574 1412,-574 1412,-555 1513,-555 1513,-574"/>
<text text-anchor="middle" x="1462.5" y="-562" font-family="Helvetica,sans-Serif" font-size="10.00" fill="#000000">TranslatorArmenian</text>
</a>
</g>
</g>
<!-- Node9&#45;&gt;Node25 -->
<g id="edge24" class="edge">
<title>Node9&#45;&gt;Node25</title>
<path fill="none" stroke="#63b8ff" d="M1352.7953,-539.2884C1374.7748,-544.3396 1400.1145,-550.163 1420.8995,-554.9396"/>
<polygon fill="#63b8ff" stroke="#63b8ff" points="1353.4914,-535.8572 1342.9615,-537.0284 1351.9235,-542.6793 1353.4914,-535.8572"/>
</g>
<!-- Node26 -->
<g id="node26" class="node">
<title>Node26</title>
<g id="a_node26"><a xlink:href="../../d9/dc1/class_translator_catalan.html" target="_top" xlink:title=" ">
<polygon fill="#ffffff" stroke="#666666" points="1509.5,-537 1415.5,-537 1415.5,-518 1509.5,-518 1509.5,-537"/>
<text text-anchor="middle" x="1462.5" y="-525" font-family="Helvetica,sans-Serif" font-size="10.00" fill="#000000">TranslatorCatalan</text>
</a>
</g>
</g>
<!-- Node9&#45;&gt;Node26 -->
<g id="edge25" class="edge">
<title>Node9&#45;&gt;Node26</title>
<path fill="none" stroke="#63b8ff" d="M1374.2437,-527.5C1388.1346,-527.5 1402.3364,-527.5 1415.174,-527.5"/>
<polygon fill="#63b8ff" stroke="#63b8ff" points="1374.2078,-524.0001 1364.2078,-527.5 1374.2078,-531.0001 1374.2078,-524.0001"/>
</g>
<!-- Node27 -->
<g id="node27" class="node">
<title>Node27</title>
<g id="a_node27"><a xlink:href="../../d7/d21/class_translator_danish.html" target="_top" xlink:title=" ">
<polygon fill="#ffffff" stroke="#666666" points="1508,-500 1417,-500 1417,-481 1508,-481 1508,-500"/>
<text text-anchor="middle" x="1462.5" y="-488" font-family="Helvetica,sans-Serif" font-size="10.00" fill="#000000">TranslatorDanish</text>
</a>
</g>
</g>
<!-- Node9&#45;&gt;Node27 -->
<g id="edge26" class="edge">
<title>Node9&#45;&gt;Node27</title>
<path fill="none" stroke="#63b8ff" d="M1352.7953,-515.7116C1374.7748,-510.6604 1400.1145,-504.837 1420.8995,-500.0604"/>
<polygon fill="#63b8ff" stroke="#63b8ff" points="1351.9235,-512.3207 1342.9615,-517.9716 1353.4914,-519.1428 1351.9235,-512.3207"/>
</g>
<!-- Node28 -->
<g id="node28" class="node">
<title>Node28</title>
<g id="a_node28"><a xlink:href="../../df/dc8/class_translator_indonesian.html" target="_top" xlink:title=" ">
<polygon fill="#ffffff" stroke="#666666" points="1516,-463 1409,-463 1409,-444 1516,-444 1516,-463"/>
<text text-anchor="middle" x="1462.5" y="-451" font-family="Helvetica,sans-Serif" font-size="10.00" fill="#000000">TranslatorIndonesian</text>
</a>
</g>
</g>
<!-- Node9&#45;&gt;Node28 -->
<g id="edge27" class="edge">
<title>Node9&#45;&gt;Node28</title>
<path fill="none" stroke="#63b8ff" d="M1353.06,-514.1629C1356.8652,-512.4783 1360.5571,-510.5972 1364,-508.5 1383.5948,-496.5641 1380.318,-483.2914 1400,-471.5 1405.6181,-468.1342 1411.8987,-465.3696 1418.2532,-463.1065"/>
<polygon fill="#63b8ff" stroke="#63b8ff" points="1351.4623,-511.0307 1343.4448,-517.9568 1354.0315,-517.5422 1351.4623,-511.0307"/>
</g>
<!-- Node11 -->
<g id="node11" class="node">
<title>Node11</title>
<g id="a_node11"><a xlink:href="../../d3/da1/class_translator_adapter__1__6__0.html" target="_top" xlink:title="Adapter class for languages that only contain translations up to version 1.6.0.">
<polygon fill="#ffffff" stroke="#666666" points="1686,-648 1561,-648 1561,-629 1686,-629 1686,-648"/>
<text text-anchor="middle" x="1623.5" y="-636" font-family="Helvetica,sans-Serif" font-size="10.00" fill="#000000">TranslatorAdapter_1_6_0</text>
</a>
</g>
</g>
<!-- Node10&#45;&gt;Node11 -->
<g id="edge10" class="edge">
<title>Node10&#45;&gt;Node11</title>
<path fill="none" stroke="#63b8ff" d="M1513.7953,-613.2884C1535.7748,-618.3396 1561.1145,-624.163 1581.8995,-628.9396"/>
<polygon fill="#63b8ff" stroke="#63b8ff" points="1514.4914,-609.8572 1503.9615,-611.0284 1512.9235,-616.6793 1514.4914,-609.8572"/>
</g>
<!-- Node23 -->
<g id="node23" class="node">
<title>Node23</title>
<g id="a_node23"><a xlink:href="../../d5/d43/class_translator_persian.html" target="_top" xlink:title=" ">
<polygon fill="#ffffff" stroke="#666666" points="1670,-611 1577,-611 1577,-592 1670,-592 1670,-611"/>
<text text-anchor="middle" x="1623.5" y="-599" font-family="Helvetica,sans-Serif" font-size="10.00" fill="#000000">TranslatorPersian</text>
</a>
</g>
</g>
<!-- Node10&#45;&gt;Node23 -->
<g id="edge22" class="edge">
<title>Node10&#45;&gt;Node23</title>
<path fill="none" stroke="#63b8ff" d="M1535.349,-601.5C1549.3862,-601.5 1563.7365,-601.5 1576.6719,-601.5"/>
<polygon fill="#63b8ff" stroke="#63b8ff" points="1535.2078,-598.0001 1525.2078,-601.5 1535.2078,-605.0001 1535.2078,-598.0001"/>
</g>
<!-- Node24 -->
<g id="node24" class="node">
<title>Node24</title>
<g id="a_node24"><a xlink:href="../../dd/d80/class_translator_turkish.html" target="_top" xlink:title=" ">
<polygon fill="#ffffff" stroke="#666666" points="1669.5,-574 1577.5,-574 1577.5,-555 1669.5,-555 1669.5,-574"/>
<text text-anchor="middle" x="1623.5" y="-562" font-family="Helvetica,sans-Serif" font-size="10.00" fill="#000000">TranslatorTurkish</text>
</a>
</g>
</g>
<!-- Node10&#45;&gt;Node24 -->
<g id="edge23" class="edge">
<title>Node10&#45;&gt;Node24</title>
<path fill="none" stroke="#63b8ff" d="M1513.7953,-589.7116C1535.7748,-584.6604 1561.1145,-578.837 1581.8995,-574.0604"/>
<polygon fill="#63b8ff" stroke="#63b8ff" points="1512.9235,-586.3207 1503.9615,-591.9716 1514.4914,-593.1428 1512.9235,-586.3207"/>
</g>
<!-- Node12 -->
<g id="node12" class="node">
<title>Node12</title>
<g id="a_node12"><a xlink:href="../../d4/d2b/class_translator_adapter__1__4__6.html" target="_top" xlink:title="Adapter class for languages that only contain translations up to version 1.4.6.">
<polygon fill="#ffffff" stroke="#666666" points="1847,-759 1722,-759 1722,-740 1847,-740 1847,-759"/>
<text text-anchor="middle" x="1784.5" y="-747" font-family="Helvetica,sans-Serif" font-size="10.00" fill="#000000">TranslatorAdapter_1_4_6</text>
</a>
</g>
</g>
<!-- Node11&#45;&gt;Node12 -->
<g id="edge11" class="edge">
<title>Node11&#45;&gt;Node12</title>
<path fill="none" stroke="#63b8ff" d="M1637.5554,-655.758C1655.2203,-676.3721 1687.4392,-710.5644 1722,-730.5 1728.582,-734.2967 1735.9997,-737.4074 1743.3649,-739.9313"/>
<polygon fill="#63b8ff" stroke="#63b8ff" points="1640.2242,-653.4935 1631.1147,-648.0836 1634.8623,-657.9936 1640.2242,-653.4935"/>
</g>
<!-- Node17 -->
<g id="node17" class="node">
<title>Node17</title>
<g id="a_node17"><a xlink:href="../../d3/d65/class_translator_afrikaans.html" target="_top" xlink:title=" ">
<polygon fill="#ffffff" stroke="#666666" points="1835,-722 1734,-722 1734,-703 1835,-703 1835,-722"/>
<text text-anchor="middle" x="1784.5" y="-710" font-family="Helvetica,sans-Serif" font-size="10.00" fill="#000000">TranslatorAfrikaans</text>
</a>
</g>
</g>
<!-- Node11&#45;&gt;Node17 -->
<g id="edge16" class="edge">
<title>Node11&#45;&gt;Node17</title>
<path fill="none" stroke="#63b8ff" d="M1646.8673,-653.4312C1666.3839,-665.435 1695.2385,-682.1164 1722,-693.5 1730.3489,-697.0514 1739.5832,-700.2386 1748.3343,-702.9425"/>
<polygon fill="#63b8ff" stroke="#63b8ff" points="1648.681,-650.4375 1638.3428,-648.1196 1644.9791,-656.3786 1648.681,-650.4375"/>
</g>
<!-- Node18 -->
<g id="node18" class="node">
<title>Node18</title>
<g id="a_node18"><a xlink:href="../../de/df7/class_translator_finnish.html" target="_top" xlink:title=" ">
<polygon fill="#ffffff" stroke="#666666" points="1830.5,-685 1738.5,-685 1738.5,-666 1830.5,-666 1830.5,-685"/>
<text text-anchor="middle" x="1784.5" y="-673" font-family="Helvetica,sans-Serif" font-size="10.00" fill="#000000">TranslatorFinnish</text>
</a>
</g>
</g>
<!-- Node11&#45;&gt;Node18 -->
<g id="edge17" class="edge">
<title>Node11&#45;&gt;Node18</title>
<path fill="none" stroke="#63b8ff" d="M1674.7953,-650.2884C1696.7748,-655.3396 1722.1145,-661.163 1742.8995,-665.9396"/>
<polygon fill="#63b8ff" stroke="#63b8ff" points="1675.4914,-646.8572 1664.9615,-648.0284 1673.9235,-653.6793 1675.4914,-646.8572"/>
</g>
<!-- Node19 -->
<g id="node19" class="node">
<title>Node19</title>
<g id="a_node19"><a xlink:href="../../d9/ddf/class_translator_macedonian.html" target="_top" xlink:title=" ">
<polygon fill="#ffffff" stroke="#666666" points="1841,-648 1728,-648 1728,-629 1841,-629 1841,-648"/>
<text text-anchor="middle" x="1784.5" y="-636" font-family="Helvetica,sans-Serif" font-size="10.00" fill="#000000">TranslatorMacedonian</text>
</a>
</g>
</g>
<!-- Node11&#45;&gt;Node19 -->
<g id="edge18" class="edge">
<title>Node11&#45;&gt;Node19</title>
<path fill="none" stroke="#63b8ff" d="M1696.3195,-638.5C1706.9493,-638.5 1717.7593,-638.5 1727.9992,-638.5"/>
<polygon fill="#63b8ff" stroke="#63b8ff" points="1696.2078,-635.0001 1686.2078,-638.5 1696.2078,-642.0001 1696.2078,-635.0001"/>
</g>
<!-- Node20 -->
<g id="node20" class="node">
<title>Node20</title>
<g id="a_node20"><a xlink:href="../../d5/d0a/class_translator_serbian.html" target="_top" xlink:title=" ">
<polygon fill="#ffffff" stroke="#666666" points="1831,-611 1738,-611 1738,-592 1831,-592 1831,-611"/>
<text text-anchor="middle" x="1784.5" y="-599" font-family="Helvetica,sans-Serif" font-size="10.00" fill="#000000">TranslatorSerbian</text>
</a>
</g>
</g>
<!-- Node11&#45;&gt;Node20 -->
<g id="edge19" class="edge">
<title>Node11&#45;&gt;Node20</title>
<path fill="none" stroke="#63b8ff" d="M1674.7953,-626.7116C1696.7748,-621.6604 1722.1145,-615.837 1742.8995,-611.0604"/>
<polygon fill="#63b8ff" stroke="#63b8ff" points="1673.9235,-623.3207 1664.9615,-628.9716 1675.4914,-630.1428 1673.9235,-623.3207"/>
</g>
<!-- Node21 -->
<g id="node21" class="node">
<title>Node21</title>
<g id="a_node21"><a xlink:href="../../dc/d03/class_translator_serbian_cyrillic.html" target="_top" xlink:title=" ">
<polygon fill="#ffffff" stroke="#666666" points="1846,-574 1723,-574 1723,-555 1846,-555 1846,-574"/>
<text text-anchor="middle" x="1784.5" y="-562" font-family="Helvetica,sans-Serif" font-size="10.00" fill="#000000">TranslatorSerbianCyrillic</text>
</a>
</g>
</g>
<!-- Node11&#45;&gt;Node21 -->
<g id="edge20" class="edge">
<title>Node11&#45;&gt;Node21</title>
<path fill="none" stroke="#63b8ff" d="M1675.06,-625.1629C1678.8652,-623.4783 1682.5571,-621.5972 1686,-619.5 1705.5948,-607.5641 1702.318,-594.2914 1722,-582.5 1727.6181,-579.1342 1733.8987,-576.3696 1740.2532,-574.1065"/>
<polygon fill="#63b8ff" stroke="#63b8ff" points="1673.4623,-622.0307 1665.4448,-628.9568 1676.0315,-628.5422 1673.4623,-622.0307"/>
</g>
<!-- Node22 -->
<g id="node22" class="node">
<title>Node22</title>
<g id="a_node22"><a xlink:href="../../df/d20/class_translator_vietnamese.html" target="_top" xlink:title=" ">
<polygon fill="#ffffff" stroke="#666666" points="1840.5,-537 1728.5,-537 1728.5,-518 1840.5,-518 1840.5,-537"/>
<text text-anchor="middle" x="1784.5" y="-525" font-family="Helvetica,sans-Serif" font-size="10.00" fill="#000000">TranslatorVietnamese</text>
</a>
</g>
</g>
<!-- Node11&#45;&gt;Node22 -->
<g id="edge21" class="edge">
<title>Node11&#45;&gt;Node22</title>
<path fill="none" stroke="#63b8ff" d="M1679.592,-624.1754C1681.8493,-622.7611 1683.9999,-621.2073 1686,-619.5 1713.8182,-595.7549 1694.0079,-569.0398 1722,-545.5 1726.0618,-542.0843 1730.7388,-539.316 1735.6682,-537.0726"/>
<polygon fill="#63b8ff" stroke="#63b8ff" points="1677.6812,-621.2252 1670.4485,-628.9673 1680.9306,-627.4254 1677.6812,-621.2252"/>
</g>
<!-- Node13 -->
<g id="node13" class="node">
<title>Node13</title>
<g id="a_node13"><a xlink:href="../../d3/de9/class_translator_arabic.html" target="_top" xlink:title=" ">
<polygon fill="#ffffff" stroke="#666666" points="1980.5,-814 1892.5,-814 1892.5,-795 1980.5,-795 1980.5,-814"/>
<text text-anchor="middle" x="1936.5" y="-802" font-family="Helvetica,sans-Serif" font-size="10.00" fill="#000000">TranslatorArabic</text>
</a>
</g>
</g>
<!-- Node12&#45;&gt;Node13 -->
<g id="edge12" class="edge">
<title>Node12&#45;&gt;Node13</title>
<path fill="none" stroke="#63b8ff" d="M1820.0046,-762.5652C1838.7285,-769.4329 1862.0918,-777.9667 1883,-785.5 1891.6239,-788.6072 1901.0426,-791.9643 1909.5404,-794.9797"/>
<polygon fill="#63b8ff" stroke="#63b8ff" points="1820.9937,-759.2 1810.4001,-759.0394 1818.5813,-765.7712 1820.9937,-759.2"/>
</g>
<!-- Node14 -->
<g id="node14" class="node">
<title>Node14</title>
<g id="a_node14"><a xlink:href="../../dc/d53/class_translator_lithuanian.html" target="_top" xlink:title=" ">
<polygon fill="#ffffff" stroke="#666666" points="1988.5,-777 1884.5,-777 1884.5,-758 1988.5,-758 1988.5,-777"/>
<text text-anchor="middle" x="1936.5" y="-765" font-family="Helvetica,sans-Serif" font-size="10.00" fill="#000000">TranslatorLithuanian</text>
</a>
</g>
</g>
<!-- Node12&#45;&gt;Node14 -->
<g id="edge13" class="edge">
<title>Node12&#45;&gt;Node14</title>
<path fill="none" stroke="#63b8ff" d="M1857.344,-758.1263C1866.3737,-759.1956 1875.4628,-760.2719 1884.1005,-761.2948"/>
<polygon fill="#63b8ff" stroke="#63b8ff" points="1857.544,-754.6256 1847.2018,-756.9252 1856.7208,-761.577 1857.544,-754.6256"/>
</g>
<!-- Node15 -->
<g id="node15" class="node">
<title>Node15</title>
<g id="a_node15"><a xlink:href="../../dd/d38/class_translator_norwegian.html" target="_top" xlink:title=" ">
<polygon fill="#ffffff" stroke="#666666" points="1990,-740 1883,-740 1883,-721 1990,-721 1990,-740"/>
<text text-anchor="middle" x="1936.5" y="-728" font-family="Helvetica,sans-Serif" font-size="10.00" fill="#000000">TranslatorNorwegian</text>
</a>
</g>
</g>
<!-- Node12&#45;&gt;Node15 -->
<g id="edge14" class="edge">
<title>Node12&#45;&gt;Node15</title>
<path fill="none" stroke="#63b8ff" d="M1857.2159,-740.4105C1865.7906,-739.3387 1874.4211,-738.2599 1882.6698,-737.2288"/>
<polygon fill="#63b8ff" stroke="#63b8ff" points="1856.6904,-736.9489 1847.2018,-741.6623 1857.5587,-743.8948 1856.6904,-736.9489"/>
</g>
<!-- Node16 -->
<g id="node16" class="node">
<title>Node16</title>
<g id="a_node16"><a xlink:href="../../dd/d0b/class_translator_slovene.html" target="_top" xlink:title=" ">
<polygon fill="#ffffff" stroke="#666666" points="1984,-703 1889,-703 1889,-684 1984,-684 1984,-703"/>
<text text-anchor="middle" x="1936.5" y="-691" font-family="Helvetica,sans-Serif" font-size="10.00" fill="#000000">TranslatorSlovene</text>
</a>
</g>
</g>
<!-- Node12&#45;&gt;Node16 -->
<g id="edge15" class="edge">
<title>Node12&#45;&gt;Node16</title>
<path fill="none" stroke="#63b8ff" d="M1829.9587,-736.7962C1835.754,-734.8516 1841.5578,-732.7394 1847,-730.5 1863.7306,-723.6155 1866.3725,-718.6299 1883,-711.5 1890.1153,-708.4489 1897.9339,-705.5668 1905.3442,-703.0399"/>
<polygon fill="#63b8ff" stroke="#63b8ff" points="1828.7308,-733.5143 1820.2791,-739.9033 1830.8703,-740.1794 1828.7308,-733.5143"/>
</g>
</g>
</svg>
        <g id="navigator" transform="translate(0 0)" fill="#404254">
                <rect fill="#f2f5e9" fill-opacity="0.5" stroke="#606060" stroke-width=".5" x="0" y="0" width="60" height="60"/>
                <use id="zoomplus" xlink:href="#zoomPlus" x="17" y="9" onmousedown="handleZoom(evt,'in')"/>
                <use id="zoomminus" xlink:href="#zoomMin" x="42" y="9" onmousedown="handleZoom(evt,'out')"/>
                <use id="reset" xlink:href="#resetDef" x="30" y="36" onmousedown="handleReset()"/>
                <g id="arrowUp" xlink:href="#dirArrow" transform="translate(30 24)" onmousedown="handlePan(0,-1)">
                  <use xlink:href="#rim" fill="#404040">
                        <set attributeName="fill" to="#808080" begin="arrowUp.mouseover" end="arrowUp.mouseout"/>
                  </use>
                  <path fill="none" stroke="white" stroke-width="1.5" d="M0,-3.0v7 M-2.5,-0.5L0,-3.0L2.5,-0.5"/>
                </g>
                <g id="arrowRight" xlink:href="#dirArrow" transform="rotate(90) translate(36 -43)" onmousedown="handlePan(1,0)">
                  <use xlink:href="#rim" fill="#404040">
                        <set attributeName="fill" to="#808080" begin="arrowRight.mouseover" end="arrowRight.mouseout"/>
                  </use>
                  <path fill="none" stroke="white" stroke-width="1.5" d="M0,-3.0v7 M-2.5,-0.5L0,-3.0L2.5,-0.5"/>
                </g>
                <g id="arrowDown" xlink:href="#dirArrow" transform="rotate(180) translate(-30 -48)" onmousedown="handlePan(0,1)">
                  <use xlink:href="#rim" fill="#404040">
                        <set attributeName="fill" to="#808080" begin="arrowDown.mouseover" end="arrowDown.mouseout"/>
                  </use>
                  <path fill="none" stroke="white" stroke-width="1.5" d="M0,-3.0v7 M-2.5,-0.5L0,-3.0L2.5,-0.5"/>
                </g>
                <g id="arrowLeft" xlink:href="#dirArrow" transform="rotate(270) translate(-36 17)" onmousedown="handlePan(-1,0)">
                  <use xlink:href="#rim" fill="#404040">
                        <set attributeName="fill" to="#808080" begin="arrowLeft.mouseover" end="arrowLeft.mouseout"/>
                  </use>
                  <path fill="none" stroke="white" stroke-width="1.5" d="M0,-3.0v7 M-2.5,-0.5L0,-3.0L2.5,-0.5"/>
                </g>
        </g>
        <svg viewBox="0 0 15 15" width="100%" height="30px" preserveAspectRatio="xMaxYMin meet">
         <g id="arrow_out" transform="scale(0.3 0.3)">
          <a xlink:href="class_translator_adapter__1__9__4__inherit__graph_org.svg" target="_base">
           <rect id="button" ry="5" rx="5" y="6" x="6" height="38" width="38"
                fill="#f2f5e9" fill-opacity="0.5" stroke="#606060" stroke-width="1.0"/>
           <path id="arrow"
             d="M 11.500037,31.436501 C 11.940474,20.09759 22.043105,11.32322 32.158766,21.979434 L 37.068811,17.246167 C 37.068811,17.246167 37.088388,32 37.088388,32 L 22.160133,31.978069 C 22.160133,31.978069 26.997745,27.140456 26.997745,27.140456 C 18.528582,18.264221 13.291696,25.230495 11.500037,31.436501 z"
             style="fill:#404040;"/>
          </a>
         </g>
        </svg>
</svg>
