<?xml version="1.0" encoding="UTF-8" standalone="no"?>
<!DOCTYPE svg PUBLIC "-//W3C//DTD SVG 1.1//EN"
 "http://www.w3.org/Graphics/SVG/1.1/DTD/svg11.dtd">
<!-- Generated by graphviz version 2.40.1 (20161225.0304)
 -->
<!-- Title: DotDirDeps Pages: 1 -->
<svg width="299pt" height="203pt"
 viewBox="0.00 0.00 298.50 203.00" xmlns="http://www.w3.org/2000/svg" xmlns:xlink="http://www.w3.org/1999/xlink">
<g id="graph0" class="graph" transform="scale(1 1) rotate(0) translate(4 199)">
<title>DotDirDeps</title>
<!-- Node1 -->
<g id="node1" class="node">
<title>Node1</title>
<g id="a_node1"><a xlink:title="Representation of an directory dependency graph.">
<polygon fill="#999999" stroke="#666666" points="155.5,-19 87.5,-19 87.5,0 155.5,0 155.5,-19"/>
<text text-anchor="middle" x="121.5" y="-7" font-family="Helvetica,sans-Serif" font-size="10.00" fill="#000000">DotDirDeps</text>
</a>
</g>
</g>
<!-- Node2 -->
<g id="node2" class="node">
<title>Node2</title>
<g id="a_node2"><a xlink:href="../../d0/d32/class_dot_graph.html" target="_top" xlink:title="A dot graph.">
<polygon fill="#ffffff" stroke="#666666" points="105,-85 46,-85 46,-66 105,-66 105,-85"/>
<text text-anchor="middle" x="75.5" y="-73" font-family="Helvetica,sans-Serif" font-size="10.00" fill="#000000">DotGraph</text>
</a>
</g>
</g>
<!-- Node2&#45;&gt;Node1 -->
<g id="edge1" class="edge">
<title>Node2&#45;&gt;Node1</title>
<path fill="none" stroke="#63b8ff" d="M88.0099,-57.5511C96.6003,-45.2256 107.6755,-29.3352 114.6847,-19.2785"/>
<polygon fill="#63b8ff" stroke="#63b8ff" points="85.134,-55.5562 82.2875,-65.7615 90.8768,-59.5588 85.134,-55.5562"/>
</g>
<!-- Node3 -->
<g id="node3" class="node">
<title>Node3</title>
<g id="a_node3"><a xlink:href="../../d2/dc2/class_dir.html" target="_top" xlink:title="Class representing a directory in the file system.">
<polygon fill="#ffffff" stroke="#666666" points="29,-195 0,-195 0,-176 29,-176 29,-195"/>
<text text-anchor="middle" x="14.5" y="-183" font-family="Helvetica,sans-Serif" font-size="10.00" fill="#000000">Dir</text>
</a>
</g>
</g>
<!-- Node3&#45;&gt;Node2 -->
<g id="edge2" class="edge">
<title>Node3&#45;&gt;Node2</title>
<path fill="none" stroke="#9a32cd" stroke-dasharray="5,2" d="M18.3501,-165.8833C22.4809,-148.281 30.298,-122.32 43.5,-103 48.2114,-96.1053 55.0724,-89.8979 61.2343,-85.1328"/>
<polygon fill="#9a32cd" stroke="#9a32cd" points="14.8856,-165.3455 16.1937,-175.8593 21.7276,-166.8245 14.8856,-165.3455"/>
<text text-anchor="middle" x="57.5" y="-128" font-family="Helvetica,sans-Serif" font-size="10.00" fill="#000000"> m_dir</text>
</g>
<!-- Node4 -->
<g id="node4" class="node">
<title>Node4</title>
<g id="a_node4"><a xlink:href="../../d9/d45/class_q_c_string.html" target="_top" xlink:title="This is an alternative implementation of QCString.">
<polygon fill="#ffffff" stroke="#666666" points="104,-195 47,-195 47,-176 104,-176 104,-195"/>
<text text-anchor="middle" x="75.5" y="-183" font-family="Helvetica,sans-Serif" font-size="10.00" fill="#000000">QCString</text>
</a>
</g>
</g>
<!-- Node4&#45;&gt;Node2 -->
<g id="edge3" class="edge">
<title>Node4&#45;&gt;Node2</title>
<path fill="none" stroke="#9a32cd" stroke-dasharray="5,2" d="M75.5,-165.7265C75.5,-141.9502 75.5,-103.0098 75.5,-85.0828"/>
<polygon fill="#9a32cd" stroke="#9a32cd" points="72.0001,-165.7382 75.5,-175.7382 79.0001,-165.7383 72.0001,-165.7382"/>
<text text-anchor="middle" x="106" y="-150" font-family="Helvetica,sans-Serif" font-size="10.00" fill="#000000"> m_absPath</text>
<text text-anchor="middle" x="106" y="-139" font-family="Helvetica,sans-Serif" font-size="10.00" fill="#000000">m_baseName</text>
<text text-anchor="middle" x="106" y="-128" font-family="Helvetica,sans-Serif" font-size="10.00" fill="#000000">m_fileName</text>
<text text-anchor="middle" x="106" y="-117" font-family="Helvetica,sans-Serif" font-size="10.00" fill="#000000">m_relPath</text>
<text text-anchor="middle" x="106" y="-106" font-family="Helvetica,sans-Serif" font-size="10.00" fill="#000000">m_theGraph</text>
</g>
<!-- Node5 -->
<g id="node5" class="node">
<title>Node5</title>
<g id="a_node5"><a xlink:href="../../d4/dd4/class_dir_def.html" target="_top" xlink:title="A model of a directory symbol.">
<polygon fill="#ffffff" stroke="#666666" points="191,-85 146,-85 146,-66 191,-66 191,-85"/>
<text text-anchor="middle" x="168.5" y="-73" font-family="Helvetica,sans-Serif" font-size="10.00" fill="#000000">DirDef</text>
</a>
</g>
</g>
<!-- Node5&#45;&gt;Node1 -->
<g id="edge4" class="edge">
<title>Node5&#45;&gt;Node1</title>
<path fill="none" stroke="#9a32cd" stroke-dasharray="5,2" d="M155.7182,-57.5511C146.941,-45.2256 135.625,-29.3352 128.4635,-19.2785"/>
<polygon fill="#9a32cd" stroke="#9a32cd" points="152.9133,-59.646 161.565,-65.7615 158.6152,-55.5855 152.9133,-59.646"/>
<text text-anchor="middle" x="162.5" y="-40" font-family="Helvetica,sans-Serif" font-size="10.00" fill="#000000"> m_dir</text>
</g>
<!-- Node6 -->
<g id="node6" class="node">
<title>Node6</title>
<g id="a_node6"><a xlink:href="../../d0/d46/class_definition_mutable.html" target="_top" xlink:title=" ">
<polygon fill="#ffffff" stroke="#666666" points="214.5,-195 122.5,-195 122.5,-176 214.5,-176 214.5,-195"/>
<text text-anchor="middle" x="168.5" y="-183" font-family="Helvetica,sans-Serif" font-size="10.00" fill="#000000">DefinitionMutable</text>
</a>
</g>
</g>
<!-- Node6&#45;&gt;Node5 -->
<g id="edge5" class="edge">
<title>Node6&#45;&gt;Node5</title>
<path fill="none" stroke="#63b8ff" d="M168.5,-165.7265C168.5,-141.9502 168.5,-103.0098 168.5,-85.0828"/>
<polygon fill="#63b8ff" stroke="#63b8ff" points="165.0001,-165.7382 168.5,-175.7382 172.0001,-165.7383 165.0001,-165.7382"/>
</g>
<!-- Node7 -->
<g id="node7" class="node">
<title>Node7</title>
<g id="a_node7"><a xlink:href="../../d5/dcc/class_definition.html" target="_top" xlink:title="The common base class of all entity definitions found in the sources.">
<polygon fill="#ffffff" stroke="#666666" points="290.5,-195 232.5,-195 232.5,-176 290.5,-176 290.5,-195"/>
<text text-anchor="middle" x="261.5" y="-183" font-family="Helvetica,sans-Serif" font-size="10.00" fill="#000000">Definition</text>
</a>
</g>
</g>
<!-- Node7&#45;&gt;Node5 -->
<g id="edge6" class="edge">
<title>Node7&#45;&gt;Node5</title>
<path fill="none" stroke="#63b8ff" d="M246.653,-167.939C226.784,-144.4381 192.2383,-103.5776 176.6018,-85.0828"/>
<polygon fill="#63b8ff" stroke="#63b8ff" points="244.1177,-170.3614 253.2469,-175.7382 249.4633,-165.842 244.1177,-170.3614"/>
</g>
</g>
</svg>
