<?xml version="1.0" encoding="UTF-8" standalone="no"?>
<!DOCTYPE svg PUBLIC "-//W3C//DTD SVG 1.1//EN"
 "http://www.w3.org/Graphics/SVG/1.1/DTD/svg11.dtd">
<!-- Generated by graphviz version 2.43.0 (0)
 -->
<!-- Title: /home/runner/work/doxygen/doxygen/src/dispatcher.h Pages: 1 -->
<!--zoomable 236 -->
<svg id="main" version="1.1" xmlns="http://www.w3.org/2000/svg" xmlns:xlink="http://www.w3.org/1999/xlink" xml:space="preserve" onload="init(evt)">
<style type="text/css"><![CDATA[
.edge:hover path { stroke: red; }
.edge:hover polygon { stroke: red; fill: red; }
]]></style>
<script type="text/javascript"><![CDATA[
var edges = document.getElementsByTagName('g');
if (edges && edges.length) {
  for (var i=0;i<edges.length;i++) {
    if (edges[i].id.substr(0,4)=='edge') {
      edges[i].setAttribute('class','edge');
    }
  }
}
]]></script>
        <defs>
                <circle id="rim" cx="0" cy="0" r="7"/>
                <circle id="rim2" cx="0" cy="0" r="3.5"/>
                <g id="zoomPlus">
                        <use xlink:href="#rim" fill="#404040">
                                <set attributeName="fill" to="#808080" begin="zoomplus.mouseover" end="zoomplus.mouseout"/>
                        </use>
                        <path d="M-4,0h8M0,-4v8" fill="none" stroke="white" stroke-width="1.5" pointer-events="none"/>
                </g>
                <g id="zoomMin">
                        <use xlink:href="#rim" fill="#404040">
                                <set attributeName="fill" to="#808080" begin="zoomminus.mouseover" end="zoomminus.mouseout"/>
                        </use>
                        <path d="M-4,0h8" fill="none" stroke="white" stroke-width="1.5" pointer-events="none"/>
                </g>
                <g id="dirArrow">
                        <path fill="none" stroke="white" stroke-width="1.5" d="M0,-3.0v7 M-2.5,-0.5L0,-3.0L2.5,-0.5"/>
                </g>
               <g id="resetDef">
                       <use xlink:href="#rim2" fill="#404040">
                               <set attributeName="fill" to="#808080" begin="reset.mouseover" end="reset.mouseout"/>
                       </use>
               </g>
        </defs>

<script type="text/javascript">
var viewWidth = 5443;
var viewHeight = 236;
var sectionId = 'dynsection-1';
</script>
<script xlink:href="../../svgpan.js"/>
<svg id="graph" class="graph">
<g id="viewport">
<title>/home/runner/work/doxygen/doxygen/src/dispatcher.h</title>
<!-- Node1 -->
<g id="node1" class="node">
<title>Node1</title>
<g id="a_node1"><a xlink:title=" ">
<polygon fill="#999999" stroke="#666666" points="3126.5,-228 2972.5,-228 2972.5,-198 3126.5,-198 3126.5,-228"/>
<text text-anchor="start" x="2980.5" y="-216" font-family="Helvetica,sans-Serif" font-size="10.00">/home/runner/work/doxygen</text>
<text text-anchor="middle" x="3049.5" y="-205" font-family="Helvetica,sans-Serif" font-size="10.00">/doxygen/src/dispatcher.h</text>
</a>
</g>
</g>
<!-- Node2 -->
<g id="node2" class="node">
<title>Node2</title>
<g id="a_node2"><a xlink:href="../../d5/d61/indexlist_8h.html" target="_top" xlink:title=" ">
<polygon fill="white" stroke="#666666" points="4346.5,-162 4192.5,-162 4192.5,-132 4346.5,-132 4346.5,-162"/>
<text text-anchor="start" x="4200.5" y="-150" font-family="Helvetica,sans-Serif" font-size="10.00">/home/runner/work/doxygen</text>
<text text-anchor="middle" x="4269.5" y="-139" font-family="Helvetica,sans-Serif" font-size="10.00">/doxygen/src/indexlist.h</text>
</a>
</g>
</g>
<!-- Node1&#45;&gt;Node2 -->
<g id="edge1" class="edge">
<title>Node1&#45;&gt;Node2</title>
<path fill="none" stroke="#63b8ff" d="M3136.99,-207.41C3365.21,-195.44 3975.86,-163.4 4192.2,-152.05"/>
<polygon fill="#63b8ff" stroke="#63b8ff" points="3136.54,-203.93 3126.74,-207.95 3136.91,-210.92 3136.54,-203.93"/>
</g>
<!-- Node17 -->
<g id="node17" class="node">
<title>Node17</title>
<g id="a_node17"><a xlink:href="../../de/d07/searchindex_8h.html" target="_top" xlink:title="Web server based search engine.">
<polygon fill="white" stroke="#666666" points="1993.5,-162 1839.5,-162 1839.5,-132 1993.5,-132 1993.5,-162"/>
<text text-anchor="start" x="1847.5" y="-150" font-family="Helvetica,sans-Serif" font-size="10.00">/home/runner/work/doxygen</text>
<text text-anchor="middle" x="1916.5" y="-139" font-family="Helvetica,sans-Serif" font-size="10.00">/doxygen/src/searchindex.h</text>
</a>
</g>
</g>
<!-- Node1&#45;&gt;Node17 -->
<g id="edge16" class="edge">
<title>Node1&#45;&gt;Node17</title>
<path fill="none" stroke="#63b8ff" d="M2961.78,-207.05C2746.87,-194.91 2196.78,-163.83 1993.51,-152.35"/>
<polygon fill="#63b8ff" stroke="#63b8ff" points="2961.89,-210.56 2972.07,-207.63 2962.28,-203.57 2961.89,-210.56"/>
</g>
<!-- Node3 -->
<g id="node3" class="node">
<title>Node3</title>
<g id="a_node3"><a xlink:href="../../d3/dea/definition_8cpp.html" target="_top" xlink:title=" ">
<polygon fill="white" stroke="#666666" points="4346.5,-96 4192.5,-96 4192.5,-66 4346.5,-66 4346.5,-96"/>
<text text-anchor="start" x="4200.5" y="-84" font-family="Helvetica,sans-Serif" font-size="10.00">/home/runner/work/doxygen</text>
<text text-anchor="middle" x="4269.5" y="-73" font-family="Helvetica,sans-Serif" font-size="10.00">/doxygen/src/definition.cpp</text>
</a>
</g>
</g>
<!-- Node2&#45;&gt;Node3 -->
<g id="edge2" class="edge">
<title>Node2&#45;&gt;Node3</title>
<path fill="none" stroke="#63b8ff" d="M4269.5,-121.54C4269.5,-112.96 4269.5,-103.61 4269.5,-96.16"/>
<polygon fill="#63b8ff" stroke="#63b8ff" points="4266,-121.8 4269.5,-131.8 4273,-121.8 4266,-121.8"/>
</g>
<!-- Node4 -->
<g id="node4" class="node">
<title>Node4</title>
<g id="a_node4"><a xlink:href="../../da/d0d/diagram_8cpp.html" target="_top" xlink:title=" ">
<polygon fill="white" stroke="#666666" points="4518.5,-96 4364.5,-96 4364.5,-66 4518.5,-66 4518.5,-96"/>
<text text-anchor="start" x="4372.5" y="-84" font-family="Helvetica,sans-Serif" font-size="10.00">/home/runner/work/doxygen</text>
<text text-anchor="middle" x="4441.5" y="-73" font-family="Helvetica,sans-Serif" font-size="10.00">/doxygen/src/diagram.cpp</text>
</a>
</g>
</g>
<!-- Node2&#45;&gt;Node4 -->
<g id="edge3" class="edge">
<title>Node2&#45;&gt;Node4</title>
<path fill="none" stroke="#63b8ff" d="M4316.65,-128.46C4344.09,-118.25 4378.21,-105.55 4403.84,-96.01"/>
<polygon fill="#63b8ff" stroke="#63b8ff" points="4315.4,-125.19 4307.25,-131.95 4317.84,-131.75 4315.4,-125.19"/>
</g>
<!-- Node5 -->
<g id="node5" class="node">
<title>Node5</title>
<g id="a_node5"><a xlink:href="../../da/d17/docparser_8cpp.html" target="_top" xlink:title=" ">
<polygon fill="white" stroke="#666666" points="3785.5,-30 3631.5,-30 3631.5,0 3785.5,0 3785.5,-30"/>
<text text-anchor="start" x="3639.5" y="-18" font-family="Helvetica,sans-Serif" font-size="10.00">/home/runner/work/doxygen</text>
<text text-anchor="middle" x="3708.5" y="-7" font-family="Helvetica,sans-Serif" font-size="10.00">/doxygen/src/docparser.cpp</text>
</a>
</g>
</g>
<!-- Node2&#45;&gt;Node5 -->
<g id="edge4" class="edge">
<title>Node2&#45;&gt;Node5</title>
<path fill="none" stroke="#63b8ff" d="M4356.9,-144.59C4451.47,-140.16 4581.91,-123.84 4527.5,-66 4502.3,-39.22 3984.86,-23.11 3785.69,-17.88"/>
<polygon fill="#63b8ff" stroke="#63b8ff" points="4356.56,-141.1 4346.72,-145.03 4356.86,-148.09 4356.56,-141.1"/>
</g>
<!-- Node6 -->
<g id="node6" class="node">
<title>Node6</title>
<g id="a_node6"><a xlink:href="../../de/daa/dot_8cpp.html" target="_top" xlink:title=" ">
<polygon fill="white" stroke="#666666" points="4728.5,-96 4574.5,-96 4574.5,-66 4728.5,-66 4728.5,-96"/>
<text text-anchor="start" x="4582.5" y="-84" font-family="Helvetica,sans-Serif" font-size="10.00">/home/runner/work/doxygen</text>
<text text-anchor="middle" x="4651.5" y="-73" font-family="Helvetica,sans-Serif" font-size="10.00">/doxygen/src/dot.cpp</text>
</a>
</g>
</g>
<!-- Node2&#45;&gt;Node6 -->
<g id="edge5" class="edge">
<title>Node2&#45;&gt;Node6</title>
<path fill="none" stroke="#63b8ff" d="M4356.71,-131.39C4422.29,-120.4 4511.3,-105.49 4574.31,-94.93"/>
<polygon fill="#63b8ff" stroke="#63b8ff" points="4356.09,-127.94 4346.8,-133.05 4357.24,-134.85 4356.09,-127.94"/>
</g>
<!-- Node7 -->
<g id="node7" class="node">
<title>Node7</title>
<g id="a_node7"><a xlink:href="../../de/d45/dotgraph_8cpp.html" target="_top" xlink:title=" ">
<polygon fill="white" stroke="#666666" points="4900.5,-96 4746.5,-96 4746.5,-66 4900.5,-66 4900.5,-96"/>
<text text-anchor="start" x="4754.5" y="-84" font-family="Helvetica,sans-Serif" font-size="10.00">/home/runner/work/doxygen</text>
<text text-anchor="middle" x="4823.5" y="-73" font-family="Helvetica,sans-Serif" font-size="10.00">/doxygen/src/dotgraph.cpp</text>
</a>
</g>
</g>
<!-- Node2&#45;&gt;Node7 -->
<g id="edge6" class="edge">
<title>Node2&#45;&gt;Node7</title>
<path fill="none" stroke="#63b8ff" d="M4356.72,-138.13C4450.84,-129.29 4605.06,-113.84 4737.5,-96 4740.35,-95.62 4743.25,-95.21 4746.17,-94.79"/>
<polygon fill="#63b8ff" stroke="#63b8ff" points="4356.3,-134.65 4346.67,-139.07 4356.96,-141.62 4356.3,-134.65"/>
</g>
<!-- Node8 -->
<g id="node8" class="node">
<title>Node8</title>
<g id="a_node8"><a xlink:href="../../dc/d98/doxygen_8cpp.html" target="_top" xlink:title=" ">
<polygon fill="white" stroke="#666666" points="3292.5,-96 3138.5,-96 3138.5,-66 3292.5,-66 3292.5,-96"/>
<text text-anchor="start" x="3146.5" y="-84" font-family="Helvetica,sans-Serif" font-size="10.00">/home/runner/work/doxygen</text>
<text text-anchor="middle" x="3215.5" y="-73" font-family="Helvetica,sans-Serif" font-size="10.00">/doxygen/src/doxygen.cpp</text>
</a>
</g>
</g>
<!-- Node2&#45;&gt;Node8 -->
<g id="edge7" class="edge">
<title>Node2&#45;&gt;Node8</title>
<path fill="none" stroke="#63b8ff" d="M4182.28,-144.7C4012.33,-141.46 3625.15,-130.6 3301.5,-96 3298.64,-95.69 3295.73,-95.36 3292.8,-94.99"/>
<polygon fill="#63b8ff" stroke="#63b8ff" points="4182.35,-148.2 4192.42,-144.89 4182.48,-141.2 4182.35,-148.2"/>
</g>
<!-- Node9 -->
<g id="node9" class="node">
<title>Node9</title>
<g id="a_node9"><a xlink:href="../../d7/d5b/formula_8cpp.html" target="_top" xlink:title=" ">
<polygon fill="white" stroke="#666666" points="5072.5,-96 4918.5,-96 4918.5,-66 5072.5,-66 5072.5,-96"/>
<text text-anchor="start" x="4926.5" y="-84" font-family="Helvetica,sans-Serif" font-size="10.00">/home/runner/work/doxygen</text>
<text text-anchor="middle" x="4995.5" y="-73" font-family="Helvetica,sans-Serif" font-size="10.00">/doxygen/src/formula.cpp</text>
</a>
</g>
</g>
<!-- Node2&#45;&gt;Node9 -->
<g id="edge8" class="edge">
<title>Node2&#45;&gt;Node9</title>
<path fill="none" stroke="#63b8ff" d="M4356.69,-141.5C4480.07,-134.6 4712.54,-119.68 4909.5,-96 4912.35,-95.66 4915.26,-95.29 4918.19,-94.9"/>
<polygon fill="#63b8ff" stroke="#63b8ff" points="4356.34,-138.01 4346.55,-142.06 4356.72,-145 4356.34,-138.01"/>
</g>
<!-- Node10 -->
<g id="node10" class="node">
<title>Node10</title>
<g id="a_node10"><a xlink:href="../../da/db0/htmldocvisitor_8cpp.html" target="_top" xlink:title=" ">
<polygon fill="white" stroke="#666666" points="5262.5,-96 5090.5,-96 5090.5,-66 5262.5,-66 5262.5,-96"/>
<text text-anchor="start" x="5098.5" y="-84" font-family="Helvetica,sans-Serif" font-size="10.00">/home/runner/work/doxygen</text>
<text text-anchor="middle" x="5176.5" y="-73" font-family="Helvetica,sans-Serif" font-size="10.00">/doxygen/src/htmldocvisitor.cpp</text>
</a>
</g>
</g>
<!-- Node2&#45;&gt;Node10 -->
<g id="edge9" class="edge">
<title>Node2&#45;&gt;Node10</title>
<path fill="none" stroke="#63b8ff" d="M4356.65,-143.06C4505.55,-137.49 4818.36,-123.44 5081.5,-96 5084.4,-95.7 5087.35,-95.37 5090.33,-95.02"/>
<polygon fill="#63b8ff" stroke="#63b8ff" points="4356.51,-139.56 4346.65,-143.43 4356.77,-146.56 4356.51,-139.56"/>
</g>
<!-- Node11 -->
<g id="node11" class="node">
<title>Node11</title>
<g id="a_node11"><a xlink:href="../../d8/d6e/htmlgen_8cpp.html" target="_top" xlink:title=" ">
<polygon fill="white" stroke="#666666" points="3464.5,-96 3310.5,-96 3310.5,-66 3464.5,-66 3464.5,-96"/>
<text text-anchor="start" x="3318.5" y="-84" font-family="Helvetica,sans-Serif" font-size="10.00">/home/runner/work/doxygen</text>
<text text-anchor="middle" x="3387.5" y="-73" font-family="Helvetica,sans-Serif" font-size="10.00">/doxygen/src/htmlgen.cpp</text>
</a>
</g>
</g>
<!-- Node2&#45;&gt;Node11 -->
<g id="edge10" class="edge">
<title>Node2&#45;&gt;Node11</title>
<path fill="none" stroke="#63b8ff" d="M4182.15,-143.33C4035.38,-138.22 3730.15,-124.88 3473.5,-96 3470.64,-95.68 3467.74,-95.33 3464.81,-94.95"/>
<polygon fill="#63b8ff" stroke="#63b8ff" points="4182.32,-146.84 4192.44,-143.69 4182.56,-139.84 4182.32,-146.84"/>
</g>
<!-- Node12 -->
<g id="node12" class="node">
<title>Node12</title>
<g id="a_node12"><a xlink:href="../../db/d14/index_8cpp.html" target="_top" xlink:title="This file contains functions for the various index pages.">
<polygon fill="white" stroke="#666666" points="5434.5,-96 5280.5,-96 5280.5,-66 5434.5,-66 5434.5,-96"/>
<text text-anchor="start" x="5288.5" y="-84" font-family="Helvetica,sans-Serif" font-size="10.00">/home/runner/work/doxygen</text>
<text text-anchor="middle" x="5357.5" y="-73" font-family="Helvetica,sans-Serif" font-size="10.00">/doxygen/src/index.cpp</text>
</a>
</g>
</g>
<!-- Node2&#45;&gt;Node12 -->
<g id="edge11" class="edge">
<title>Node2&#45;&gt;Node12</title>
<path fill="none" stroke="#63b8ff" d="M4356.87,-144.91C4531.24,-142.02 4934.62,-131.71 5271.5,-96 5274.36,-95.7 5277.27,-95.36 5280.2,-95"/>
<polygon fill="#63b8ff" stroke="#63b8ff" points="4356.67,-141.42 4346.73,-145.08 4356.78,-148.41 4356.67,-141.42"/>
</g>
<!-- Node13 -->
<g id="node13" class="node">
<title>Node13</title>
<g id="a_node13"><a xlink:href="../../db/d33/msc_8cpp.html" target="_top" xlink:title=" ">
<polygon fill="white" stroke="#666666" points="3808.5,-96 3654.5,-96 3654.5,-66 3808.5,-66 3808.5,-96"/>
<text text-anchor="start" x="3662.5" y="-84" font-family="Helvetica,sans-Serif" font-size="10.00">/home/runner/work/doxygen</text>
<text text-anchor="middle" x="3731.5" y="-73" font-family="Helvetica,sans-Serif" font-size="10.00">/doxygen/src/msc.cpp</text>
</a>
</g>
</g>
<!-- Node2&#45;&gt;Node13 -->
<g id="edge12" class="edge">
<title>Node2&#45;&gt;Node13</title>
<path fill="none" stroke="#63b8ff" d="M4182.16,-137.68C4091,-128.68 3943.98,-113.28 3817.5,-96 3814.65,-95.61 3811.75,-95.2 3808.83,-94.78"/>
<polygon fill="#63b8ff" stroke="#63b8ff" points="4181.88,-141.17 4192.17,-138.66 4182.56,-134.2 4181.88,-141.17"/>
</g>
<!-- Node14 -->
<g id="node14" class="node">
<title>Node14</title>
<g id="a_node14"><a xlink:href="../../d7/d5b/plantuml_8cpp.html" target="_top" xlink:title=" ">
<polygon fill="white" stroke="#666666" points="3980.5,-96 3826.5,-96 3826.5,-66 3980.5,-66 3980.5,-96"/>
<text text-anchor="start" x="3834.5" y="-84" font-family="Helvetica,sans-Serif" font-size="10.00">/home/runner/work/doxygen</text>
<text text-anchor="middle" x="3903.5" y="-73" font-family="Helvetica,sans-Serif" font-size="10.00">/doxygen/src/plantuml.cpp</text>
</a>
</g>
</g>
<!-- Node2&#45;&gt;Node14 -->
<g id="edge13" class="edge">
<title>Node2&#45;&gt;Node14</title>
<path fill="none" stroke="#63b8ff" d="M4182.27,-130.75C4120.91,-120.02 4039.54,-105.79 3980.57,-95.48"/>
<polygon fill="#63b8ff" stroke="#63b8ff" points="4181.87,-134.23 4192.33,-132.51 4183.08,-127.34 4181.87,-134.23"/>
</g>
<!-- Node15 -->
<g id="node15" class="node">
<title>Node15</title>
<g id="a_node15"><a xlink:href="../../d9/d2f/searchindex__js_8cpp.html" target="_top" xlink:title=" ">
<polygon fill="white" stroke="#666666" points="4174,-96 3999,-96 3999,-66 4174,-66 4174,-96"/>
<text text-anchor="start" x="4007" y="-84" font-family="Helvetica,sans-Serif" font-size="10.00">/home/runner/work/doxygen</text>
<text text-anchor="middle" x="4086.5" y="-73" font-family="Helvetica,sans-Serif" font-size="10.00">/doxygen/src/searchindex_js.cpp</text>
</a>
</g>
</g>
<!-- Node2&#45;&gt;Node15 -->
<g id="edge14" class="edge">
<title>Node2&#45;&gt;Node15</title>
<path fill="none" stroke="#63b8ff" d="M4219.72,-128.59C4190.46,-118.36 4153.96,-105.59 4126.57,-96.01"/>
<polygon fill="#63b8ff" stroke="#63b8ff" points="4218.75,-131.96 4229.34,-131.95 4221.06,-125.35 4218.75,-131.96"/>
</g>
<!-- Node16 -->
<g id="node16" class="node">
<title>Node16</title>
<g id="a_node16"><a xlink:href="../../df/d2d/util_8cpp.html" target="_top" xlink:title=" ">
<polygon fill="white" stroke="#666666" points="3636.5,-96 3482.5,-96 3482.5,-66 3636.5,-66 3636.5,-96"/>
<text text-anchor="start" x="3490.5" y="-84" font-family="Helvetica,sans-Serif" font-size="10.00">/home/runner/work/doxygen</text>
<text text-anchor="middle" x="3559.5" y="-73" font-family="Helvetica,sans-Serif" font-size="10.00">/doxygen/src/util.cpp</text>
</a>
</g>
</g>
<!-- Node2&#45;&gt;Node16 -->
<g id="edge15" class="edge">
<title>Node2&#45;&gt;Node16</title>
<path fill="none" stroke="#63b8ff" d="M4182.15,-141.25C4061.27,-134.17 3836.3,-119.14 3645.5,-96 3642.65,-95.65 3639.74,-95.28 3636.81,-94.89"/>
<polygon fill="#63b8ff" stroke="#63b8ff" points="4182.26,-144.76 4192.45,-141.85 4182.67,-137.78 4182.26,-144.76"/>
</g>
<!-- Node17&#45;&gt;Node8 -->
<g id="edge24" class="edge">
<title>Node17&#45;&gt;Node8</title>
<path fill="none" stroke="#63b8ff" d="M2003.86,-145.99C2203.69,-145.19 2709.3,-138.71 3129.5,-96 3132.36,-95.71 3135.27,-95.38 3138.2,-95.03"/>
<polygon fill="#63b8ff" stroke="#63b8ff" points="2003.7,-142.49 1993.72,-146.03 2003.73,-149.49 2003.7,-142.49"/>
</g>
<!-- Node17&#45;&gt;Node11 -->
<g id="edge28" class="edge">
<title>Node17&#45;&gt;Node11</title>
<path fill="none" stroke="#63b8ff" d="M2003.83,-146.64C2222.8,-147.41 2812.73,-144.41 3301.5,-96 3304.36,-95.72 3307.27,-95.4 3310.2,-95.05"/>
<polygon fill="#63b8ff" stroke="#63b8ff" points="2003.69,-143.14 1993.68,-146.6 2003.67,-150.14 2003.69,-143.14"/>
</g>
<!-- Node17&#45;&gt;Node16 -->
<g id="edge35" class="edge">
<title>Node17&#45;&gt;Node16</title>
<path fill="none" stroke="#63b8ff" d="M2003.82,-144.68C2288.04,-140.16 3185,-124 3473.5,-96 3476.36,-95.72 3479.27,-95.41 3482.21,-95.07"/>
<polygon fill="#63b8ff" stroke="#63b8ff" points="2003.51,-141.19 1993.56,-144.85 2003.62,-148.19 2003.51,-141.19"/>
</g>
<!-- Node18 -->
<g id="node18" class="node">
<title>Node18</title>
<g id="a_node18"><a xlink:href="../../de/d89/classdef_8cpp.html" target="_top" xlink:title=" ">
<polygon fill="white" stroke="#666666" points="2948.5,-96 2794.5,-96 2794.5,-66 2948.5,-66 2948.5,-96"/>
<text text-anchor="start" x="2802.5" y="-84" font-family="Helvetica,sans-Serif" font-size="10.00">/home/runner/work/doxygen</text>
<text text-anchor="middle" x="2871.5" y="-73" font-family="Helvetica,sans-Serif" font-size="10.00">/doxygen/src/classdef.cpp</text>
</a>
</g>
</g>
<!-- Node17&#45;&gt;Node18 -->
<g id="edge17" class="edge">
<title>Node17&#45;&gt;Node18</title>
<path fill="none" stroke="#63b8ff" d="M2003.81,-143.98C2160.7,-139.67 2500.53,-127.31 2785.5,-96 2788.36,-95.69 2791.26,-95.34 2794.2,-94.97"/>
<polygon fill="#63b8ff" stroke="#63b8ff" points="2003.64,-140.48 1993.74,-144.25 2003.83,-147.48 2003.64,-140.48"/>
</g>
<!-- Node19 -->
<g id="node19" class="node">
<title>Node19</title>
<g id="a_node19"><a xlink:href="../../da/d1f/code_8l.html" target="_top" xlink:title=" ">
<polygon fill="white" stroke="#666666" points="3120.5,-96 2966.5,-96 2966.5,-66 3120.5,-66 3120.5,-96"/>
<text text-anchor="start" x="2974.5" y="-84" font-family="Helvetica,sans-Serif" font-size="10.00">/home/runner/work/doxygen</text>
<text text-anchor="middle" x="3043.5" y="-73" font-family="Helvetica,sans-Serif" font-size="10.00">/doxygen/src/code.l</text>
</a>
</g>
</g>
<!-- Node17&#45;&gt;Node19 -->
<g id="edge18" class="edge">
<title>Node17&#45;&gt;Node19</title>
<path fill="none" stroke="#63b8ff" d="M2003.94,-145.14C2183.25,-142.65 2605.34,-133 2957.5,-96 2960.36,-95.7 2963.27,-95.37 2966.2,-95.01"/>
<polygon fill="#63b8ff" stroke="#63b8ff" points="2003.73,-141.65 1993.78,-145.28 2003.83,-148.65 2003.73,-141.65"/>
</g>
<!-- Node20 -->
<g id="node20" class="node">
<title>Node20</title>
<g id="a_node20"><a xlink:href="../../d8/d0a/conceptdef_8cpp.html" target="_top" xlink:title=" ">
<polygon fill="white" stroke="#666666" points="155,-96 0,-96 0,-66 155,-66 155,-96"/>
<text text-anchor="start" x="8" y="-84" font-family="Helvetica,sans-Serif" font-size="10.00">/home/runner/work/doxygen</text>
<text text-anchor="middle" x="77.5" y="-73" font-family="Helvetica,sans-Serif" font-size="10.00">/doxygen/src/conceptdef.cpp</text>
</a>
</g>
</g>
<!-- Node17&#45;&gt;Node20 -->
<g id="edge19" class="edge">
<title>Node17&#45;&gt;Node20</title>
<path fill="none" stroke="#63b8ff" d="M1829.15,-145.02C1522.07,-141.35 492.97,-126.98 164.5,-96 161.45,-95.71 158.35,-95.38 155.22,-95.02"/>
<polygon fill="#63b8ff" stroke="#63b8ff" points="1829.29,-148.53 1839.33,-145.14 1829.38,-141.53 1829.29,-148.53"/>
</g>
<!-- Node21 -->
<g id="node21" class="node">
<title>Node21</title>
<g id="a_node21"><a xlink:href="../../db/d12/context_8cpp.html" target="_top" xlink:title=" ">
<polygon fill="white" stroke="#666666" points="327.5,-96 173.5,-96 173.5,-66 327.5,-66 327.5,-96"/>
<text text-anchor="start" x="181.5" y="-84" font-family="Helvetica,sans-Serif" font-size="10.00">/home/runner/work/doxygen</text>
<text text-anchor="middle" x="250.5" y="-73" font-family="Helvetica,sans-Serif" font-size="10.00">/doxygen/src/context.cpp</text>
</a>
</g>
</g>
<!-- Node17&#45;&gt;Node21 -->
<g id="edge20" class="edge">
<title>Node17&#45;&gt;Node21</title>
<path fill="none" stroke="#63b8ff" d="M1828.89,-144.73C1541.58,-140.31 629.6,-124.37 336.5,-96 333.64,-95.72 330.73,-95.41 327.79,-95.07"/>
<polygon fill="#63b8ff" stroke="#63b8ff" points="1829.2,-148.23 1839.25,-144.88 1829.31,-141.23 1829.2,-148.23"/>
</g>
<!-- Node22 -->
<g id="node22" class="node">
<title>Node22</title>
<g id="a_node22"><a xlink:href="../../df/dc9/docparser__p_8h.html" target="_top" xlink:title="Private header shared between docparser.cpp and docnode.cpp.">
<polygon fill="white" stroke="#666666" points="2776.5,-96 2622.5,-96 2622.5,-66 2776.5,-66 2776.5,-96"/>
<text text-anchor="start" x="2630.5" y="-84" font-family="Helvetica,sans-Serif" font-size="10.00">/home/runner/work/doxygen</text>
<text text-anchor="middle" x="2699.5" y="-73" font-family="Helvetica,sans-Serif" font-size="10.00">/doxygen/src/docparser_p.h</text>
</a>
</g>
</g>
<!-- Node17&#45;&gt;Node22 -->
<g id="edge21" class="edge">
<title>Node17&#45;&gt;Node22</title>
<path fill="none" stroke="#63b8ff" d="M2003.62,-142.27C2135.8,-136.03 2394.78,-121.6 2613.5,-96 2616.35,-95.67 2619.26,-95.3 2622.19,-94.92"/>
<polygon fill="#63b8ff" stroke="#63b8ff" points="2003.38,-138.77 1993.55,-142.74 2003.7,-145.77 2003.38,-138.77"/>
</g>
<!-- Node24 -->
<g id="node24" class="node">
<title>Node24</title>
<g id="a_node24"><a xlink:href="../../d6/ddc/filedef_8cpp.html" target="_top" xlink:title=" ">
<polygon fill="white" stroke="#666666" points="499.5,-96 345.5,-96 345.5,-66 499.5,-66 499.5,-96"/>
<text text-anchor="start" x="353.5" y="-84" font-family="Helvetica,sans-Serif" font-size="10.00">/home/runner/work/doxygen</text>
<text text-anchor="middle" x="422.5" y="-73" font-family="Helvetica,sans-Serif" font-size="10.00">/doxygen/src/filedef.cpp</text>
</a>
</g>
</g>
<!-- Node17&#45;&gt;Node24 -->
<g id="edge25" class="edge">
<title>Node17&#45;&gt;Node24</title>
<path fill="none" stroke="#63b8ff" d="M1828.93,-146.71C1607.28,-147.69 1006.29,-145.16 508.5,-96 505.64,-95.72 502.73,-95.4 499.79,-95.05"/>
<polygon fill="#63b8ff" stroke="#63b8ff" points="1829.21,-150.21 1839.2,-146.66 1829.18,-143.21 1829.21,-150.21"/>
</g>
<!-- Node25 -->
<g id="node25" class="node">
<title>Node25</title>
<g id="a_node25"><a xlink:href="../../d9/d5b/fortrancode_8l.html" target="_top" xlink:title=" ">
<polygon fill="white" stroke="#666666" points="671.5,-96 517.5,-96 517.5,-66 671.5,-66 671.5,-96"/>
<text text-anchor="start" x="525.5" y="-84" font-family="Helvetica,sans-Serif" font-size="10.00">/home/runner/work/doxygen</text>
<text text-anchor="middle" x="594.5" y="-73" font-family="Helvetica,sans-Serif" font-size="10.00">/doxygen/src/fortrancode.l</text>
</a>
</g>
</g>
<!-- Node17&#45;&gt;Node25 -->
<g id="edge26" class="edge">
<title>Node17&#45;&gt;Node25</title>
<path fill="none" stroke="#63b8ff" d="M1828.98,-146.09C1626.39,-145.5 1109.72,-139.46 680.5,-96 677.64,-95.71 674.73,-95.39 671.8,-95.04"/>
<polygon fill="#63b8ff" stroke="#63b8ff" points="1829.25,-149.59 1839.26,-146.11 1829.26,-142.59 1829.25,-149.59"/>
</g>
<!-- Node26 -->
<g id="node26" class="node">
<title>Node26</title>
<g id="a_node26"><a xlink:href="../../d6/d42/groupdef_8cpp.html" target="_top" xlink:title=" ">
<polygon fill="white" stroke="#666666" points="843.5,-96 689.5,-96 689.5,-66 843.5,-66 843.5,-96"/>
<text text-anchor="start" x="697.5" y="-84" font-family="Helvetica,sans-Serif" font-size="10.00">/home/runner/work/doxygen</text>
<text text-anchor="middle" x="766.5" y="-73" font-family="Helvetica,sans-Serif" font-size="10.00">/doxygen/src/groupdef.cpp</text>
</a>
</g>
</g>
<!-- Node17&#45;&gt;Node26 -->
<g id="edge27" class="edge">
<title>Node17&#45;&gt;Node26</title>
<path fill="none" stroke="#63b8ff" d="M1829.45,-145.28C1647.53,-143.03 1213.97,-133.79 852.5,-96 849.64,-95.7 846.73,-95.37 843.8,-95.01"/>
<polygon fill="#63b8ff" stroke="#63b8ff" points="1829.46,-148.78 1839.5,-145.4 1829.54,-141.78 1829.46,-148.78"/>
</g>
<!-- Node27 -->
<g id="node27" class="node">
<title>Node27</title>
<g id="a_node27"><a xlink:href="../../d0/d7e/lexcode_8l.html" target="_top" xlink:title=" ">
<polygon fill="white" stroke="#666666" points="1015.5,-96 861.5,-96 861.5,-66 1015.5,-66 1015.5,-96"/>
<text text-anchor="start" x="869.5" y="-84" font-family="Helvetica,sans-Serif" font-size="10.00">/home/runner/work/doxygen</text>
<text text-anchor="middle" x="938.5" y="-73" font-family="Helvetica,sans-Serif" font-size="10.00">/doxygen/src/lexcode.l</text>
</a>
</g>
</g>
<!-- Node17&#45;&gt;Node27 -->
<g id="edge29" class="edge">
<title>Node17&#45;&gt;Node27</title>
<path fill="none" stroke="#63b8ff" d="M1829.05,-144.15C1668.99,-140.1 1318.33,-128.06 1024.5,-96 1021.64,-95.69 1018.74,-95.35 1015.8,-94.98"/>
<polygon fill="#63b8ff" stroke="#63b8ff" points="1829.23,-147.66 1839.32,-144.41 1829.41,-140.66 1829.23,-147.66"/>
</g>
<!-- Node28 -->
<g id="node28" class="node">
<title>Node28</title>
<g id="a_node28"><a xlink:href="../../d0/d72/memberdef_8cpp.html" target="_top" xlink:title=" ">
<polygon fill="white" stroke="#666666" points="1191.5,-96 1033.5,-96 1033.5,-66 1191.5,-66 1191.5,-96"/>
<text text-anchor="start" x="1041.5" y="-84" font-family="Helvetica,sans-Serif" font-size="10.00">/home/runner/work/doxygen</text>
<text text-anchor="middle" x="1112.5" y="-73" font-family="Helvetica,sans-Serif" font-size="10.00">/doxygen/src/memberdef.cpp</text>
</a>
</g>
</g>
<!-- Node17&#45;&gt;Node28 -->
<g id="edge30" class="edge">
<title>Node17&#45;&gt;Node28</title>
<path fill="none" stroke="#63b8ff" d="M1829.19,-142.38C1694.11,-136.23 1426.44,-121.81 1200.5,-96 1197.58,-95.67 1194.61,-95.31 1191.61,-94.92"/>
<polygon fill="#63b8ff" stroke="#63b8ff" points="1829.33,-145.89 1839.48,-142.85 1829.64,-138.9 1829.33,-145.89"/>
</g>
<!-- Node29 -->
<g id="node29" class="node">
<title>Node29</title>
<g id="a_node29"><a xlink:href="../../d7/d1c/namespacedef_8cpp.html" target="_top" xlink:title=" ">
<polygon fill="white" stroke="#666666" points="1383,-96 1210,-96 1210,-66 1383,-66 1383,-96"/>
<text text-anchor="start" x="1218" y="-84" font-family="Helvetica,sans-Serif" font-size="10.00">/home/runner/work/doxygen</text>
<text text-anchor="middle" x="1296.5" y="-73" font-family="Helvetica,sans-Serif" font-size="10.00">/doxygen/src/namespacedef.cpp</text>
</a>
</g>
</g>
<!-- Node17&#45;&gt;Node29 -->
<g id="edge31" class="edge">
<title>Node17&#45;&gt;Node29</title>
<path fill="none" stroke="#63b8ff" d="M1828.98,-138.99C1724.82,-130.33 1545.72,-114.47 1392.5,-96 1389.41,-95.63 1386.26,-95.23 1383.08,-94.83"/>
<polygon fill="#63b8ff" stroke="#63b8ff" points="1828.87,-142.49 1839.13,-139.83 1829.45,-135.51 1828.87,-142.49"/>
</g>
<!-- Node30 -->
<g id="node30" class="node">
<title>Node30</title>
<g id="a_node30"><a xlink:href="../../d3/ded/pycode_8l.html" target="_top" xlink:title=" ">
<polygon fill="white" stroke="#666666" points="1555.5,-96 1401.5,-96 1401.5,-66 1555.5,-66 1555.5,-96"/>
<text text-anchor="start" x="1409.5" y="-84" font-family="Helvetica,sans-Serif" font-size="10.00">/home/runner/work/doxygen</text>
<text text-anchor="middle" x="1478.5" y="-73" font-family="Helvetica,sans-Serif" font-size="10.00">/doxygen/src/pycode.l</text>
</a>
</g>
</g>
<!-- Node17&#45;&gt;Node30 -->
<g id="edge32" class="edge">
<title>Node17&#45;&gt;Node30</title>
<path fill="none" stroke="#63b8ff" d="M1828.9,-134.06C1757.64,-124.23 1654.5,-109.72 1564.5,-96 1561.66,-95.57 1558.77,-95.12 1555.84,-94.67"/>
<polygon fill="#63b8ff" stroke="#63b8ff" points="1828.8,-137.58 1839.18,-135.48 1829.75,-130.64 1828.8,-137.58"/>
</g>
<!-- Node31 -->
<g id="node31" class="node">
<title>Node31</title>
<g id="a_node31"><a xlink:href="../../d7/d79/searchindex_8cpp.html" target="_top" xlink:title=" ">
<polygon fill="white" stroke="#666666" points="1735,-96 1574,-96 1574,-66 1735,-66 1735,-96"/>
<text text-anchor="start" x="1582" y="-84" font-family="Helvetica,sans-Serif" font-size="10.00">/home/runner/work/doxygen</text>
<text text-anchor="middle" x="1654.5" y="-73" font-family="Helvetica,sans-Serif" font-size="10.00">/doxygen/src/searchindex.cpp</text>
</a>
</g>
</g>
<!-- Node17&#45;&gt;Node31 -->
<g id="edge33" class="edge">
<title>Node17&#45;&gt;Node31</title>
<path fill="none" stroke="#63b8ff" d="M1849.02,-129.52C1806.53,-119.14 1752.27,-105.88 1711.86,-96.01"/>
<polygon fill="#63b8ff" stroke="#63b8ff" points="1848.46,-132.98 1859,-131.95 1850.12,-126.18 1848.46,-132.98"/>
</g>
<!-- Node32 -->
<g id="node32" class="node">
<title>Node32</title>
<g id="a_node32"><a xlink:href="../../d2/dda/sqlcode_8l.html" target="_top" xlink:title=" ">
<polygon fill="white" stroke="#666666" points="1907.5,-96 1753.5,-96 1753.5,-66 1907.5,-66 1907.5,-96"/>
<text text-anchor="start" x="1761.5" y="-84" font-family="Helvetica,sans-Serif" font-size="10.00">/home/runner/work/doxygen</text>
<text text-anchor="middle" x="1830.5" y="-73" font-family="Helvetica,sans-Serif" font-size="10.00">/doxygen/src/sqlcode.l</text>
</a>
</g>
</g>
<!-- Node17&#45;&gt;Node32 -->
<g id="edge34" class="edge">
<title>Node17&#45;&gt;Node32</title>
<path fill="none" stroke="#63b8ff" d="M1889.29,-125.75C1876.36,-116.13 1861.21,-104.86 1849.53,-96.16"/>
<polygon fill="#63b8ff" stroke="#63b8ff" points="1887.3,-128.63 1897.41,-131.8 1891.48,-123.02 1887.3,-128.63"/>
</g>
<!-- Node33 -->
<g id="node33" class="node">
<title>Node33</title>
<g id="a_node33"><a xlink:href="../../d5/d6a/vhdlcode_8l.html" target="_top" xlink:title=" ">
<polygon fill="white" stroke="#666666" points="2079.5,-96 1925.5,-96 1925.5,-66 2079.5,-66 2079.5,-96"/>
<text text-anchor="start" x="1933.5" y="-84" font-family="Helvetica,sans-Serif" font-size="10.00">/home/runner/work/doxygen</text>
<text text-anchor="middle" x="2002.5" y="-73" font-family="Helvetica,sans-Serif" font-size="10.00">/doxygen/src/vhdlcode.l</text>
</a>
</g>
</g>
<!-- Node17&#45;&gt;Node33 -->
<g id="edge36" class="edge">
<title>Node17&#45;&gt;Node33</title>
<path fill="none" stroke="#63b8ff" d="M1943.71,-125.75C1956.64,-116.13 1971.79,-104.86 1983.47,-96.16"/>
<polygon fill="#63b8ff" stroke="#63b8ff" points="1941.52,-123.02 1935.59,-131.8 1945.7,-128.63 1941.52,-123.02"/>
</g>
<!-- Node34 -->
<g id="node34" class="node">
<title>Node34</title>
<g id="a_node34"><a xlink:href="../../de/dea/vhdldocgen_8cpp.html" target="_top" xlink:title=" ">
<polygon fill="white" stroke="#666666" points="2255.5,-96 2097.5,-96 2097.5,-66 2255.5,-66 2255.5,-96"/>
<text text-anchor="start" x="2105.5" y="-84" font-family="Helvetica,sans-Serif" font-size="10.00">/home/runner/work/doxygen</text>
<text text-anchor="middle" x="2176.5" y="-73" font-family="Helvetica,sans-Serif" font-size="10.00">/doxygen/src/vhdldocgen.cpp</text>
</a>
</g>
</g>
<!-- Node17&#45;&gt;Node34 -->
<g id="edge37" class="edge">
<title>Node17&#45;&gt;Node34</title>
<path fill="none" stroke="#63b8ff" d="M1983.46,-129.52C2025.63,-119.14 2079.47,-105.88 2119.57,-96.01"/>
<polygon fill="#63b8ff" stroke="#63b8ff" points="1982.43,-126.17 1973.56,-131.95 1984.1,-132.96 1982.43,-126.17"/>
</g>
<!-- Node35 -->
<g id="node35" class="node">
<title>Node35</title>
<g id="a_node35"><a xlink:href="../../d1/d86/vhdljjparser_8cpp.html" target="_top" xlink:title=" ">
<polygon fill="white" stroke="#666666" points="2432,-96 2273,-96 2273,-66 2432,-66 2432,-96"/>
<text text-anchor="start" x="2281" y="-84" font-family="Helvetica,sans-Serif" font-size="10.00">/home/runner/work/doxygen</text>
<text text-anchor="middle" x="2352.5" y="-73" font-family="Helvetica,sans-Serif" font-size="10.00">/doxygen/src/vhdljjparser.cpp</text>
</a>
</g>
</g>
<!-- Node17&#45;&gt;Node35 -->
<g id="edge38" class="edge">
<title>Node17&#45;&gt;Node35</title>
<path fill="none" stroke="#63b8ff" d="M2003.77,-133.83C2074.18,-123.93 2175.77,-109.43 2264.5,-96 2267.25,-95.58 2270.05,-95.16 2272.88,-94.72"/>
<polygon fill="#63b8ff" stroke="#63b8ff" points="2003.02,-130.4 1993.61,-135.26 2004,-137.33 2003.02,-130.4"/>
</g>
<!-- Node36 -->
<g id="node36" class="node">
<title>Node36</title>
<g id="a_node36"><a xlink:href="../../dc/dc1/xmlcode_8l.html" target="_top" xlink:title=" ">
<polygon fill="white" stroke="#666666" points="2604.5,-96 2450.5,-96 2450.5,-66 2604.5,-66 2604.5,-96"/>
<text text-anchor="start" x="2458.5" y="-84" font-family="Helvetica,sans-Serif" font-size="10.00">/home/runner/work/doxygen</text>
<text text-anchor="middle" x="2527.5" y="-73" font-family="Helvetica,sans-Serif" font-size="10.00">/doxygen/src/xmlcode.l</text>
</a>
</g>
</g>
<!-- Node17&#45;&gt;Node36 -->
<g id="edge39" class="edge">
<title>Node17&#45;&gt;Node36</title>
<path fill="none" stroke="#63b8ff" d="M2004.07,-139.38C2108.28,-131.1 2287.42,-115.6 2440.5,-96 2443.69,-95.59 2446.94,-95.16 2450.22,-94.7"/>
<polygon fill="#63b8ff" stroke="#63b8ff" points="2003.61,-135.9 1993.92,-140.18 2004.16,-142.88 2003.61,-135.9"/>
</g>
<!-- Node22&#45;&gt;Node5 -->
<g id="edge23" class="edge">
<title>Node22&#45;&gt;Node5</title>
<path fill="none" stroke="#63b8ff" d="M2787.17,-65.9C3106.04,-31.95 3474.36,-20.81 3631.39,-17.38"/>
<polygon fill="#63b8ff" stroke="#63b8ff" points="2786.37,-62.47 2776.8,-67.01 2787.12,-69.43 2786.37,-62.47"/>
</g>
<!-- Node23 -->
<g id="node23" class="node">
<title>Node23</title>
<g id="a_node23"><a xlink:href="../../d0/d2b/docnode_8cpp.html" target="_top" xlink:title=" ">
<polygon fill="white" stroke="#666666" points="2776.5,-30 2622.5,-30 2622.5,0 2776.5,0 2776.5,-30"/>
<text text-anchor="start" x="2630.5" y="-18" font-family="Helvetica,sans-Serif" font-size="10.00">/home/runner/work/doxygen</text>
<text text-anchor="middle" x="2699.5" y="-7" font-family="Helvetica,sans-Serif" font-size="10.00">/doxygen/src/docnode.cpp</text>
</a>
</g>
</g>
<!-- Node22&#45;&gt;Node23 -->
<g id="edge22" class="edge">
<title>Node22&#45;&gt;Node23</title>
<path fill="none" stroke="#63b8ff" d="M2699.5,-55.54C2699.5,-46.96 2699.5,-37.61 2699.5,-30.16"/>
<polygon fill="#63b8ff" stroke="#63b8ff" points="2696,-55.8 2699.5,-65.8 2703,-55.8 2696,-55.8"/>
</g>
</g>
</svg>
        <g id="navigator" transform="translate(0 0)" fill="#404254">
                <rect fill="#f2f5e9" fill-opacity="0.5" stroke="#606060" stroke-width=".5" x="0" y="0" width="60" height="60"/>
                <use id="zoomplus" xlink:href="#zoomPlus" x="17" y="9" onmousedown="handleZoom(evt,'in')"/>
                <use id="zoomminus" xlink:href="#zoomMin" x="42" y="9" onmousedown="handleZoom(evt,'out')"/>
                <use id="reset" xlink:href="#resetDef" x="30" y="36" onmousedown="handleReset()"/>
                <g id="arrowUp" xlink:href="#dirArrow" transform="translate(30 24)" onmousedown="handlePan(0,-1)">
                  <use xlink:href="#rim" fill="#404040">
                        <set attributeName="fill" to="#808080" begin="arrowUp.mouseover" end="arrowUp.mouseout"/>
                  </use>
                  <path fill="none" stroke="white" stroke-width="1.5" d="M0,-3.0v7 M-2.5,-0.5L0,-3.0L2.5,-0.5"/>
                </g>
                <g id="arrowRight" xlink:href="#dirArrow" transform="rotate(90) translate(36 -43)" onmousedown="handlePan(1,0)">
                  <use xlink:href="#rim" fill="#404040">
                        <set attributeName="fill" to="#808080" begin="arrowRight.mouseover" end="arrowRight.mouseout"/>
                  </use>
                  <path fill="none" stroke="white" stroke-width="1.5" d="M0,-3.0v7 M-2.5,-0.5L0,-3.0L2.5,-0.5"/>
                </g>
                <g id="arrowDown" xlink:href="#dirArrow" transform="rotate(180) translate(-30 -48)" onmousedown="handlePan(0,1)">
                  <use xlink:href="#rim" fill="#404040">
                        <set attributeName="fill" to="#808080" begin="arrowDown.mouseover" end="arrowDown.mouseout"/>
                  </use>
                  <path fill="none" stroke="white" stroke-width="1.5" d="M0,-3.0v7 M-2.5,-0.5L0,-3.0L2.5,-0.5"/>
                </g>
                <g id="arrowLeft" xlink:href="#dirArrow" transform="rotate(270) translate(-36 17)" onmousedown="handlePan(-1,0)">
                  <use xlink:href="#rim" fill="#404040">
                        <set attributeName="fill" to="#808080" begin="arrowLeft.mouseover" end="arrowLeft.mouseout"/>
                  </use>
                  <path fill="none" stroke="white" stroke-width="1.5" d="M0,-3.0v7 M-2.5,-0.5L0,-3.0L2.5,-0.5"/>
                </g>
        </g>
        <svg viewBox="0 0 15 15" width="100%" height="30px" preserveAspectRatio="xMaxYMin meet">
         <g id="arrow_out" transform="scale(0.3 0.3)">
          <a xlink:href="dispatcher_8h__dep__incl_org.svg" target="_base">
           <rect id="button" ry="5" rx="5" y="6" x="6" height="38" width="38"
                fill="#f2f5e9" fill-opacity="0.5" stroke="#606060" stroke-width="1.0"/>
           <path id="arrow"
             d="M 11.500037,31.436501 C 11.940474,20.09759 22.043105,11.32322 32.158766,21.979434 L 37.068811,17.246167 C 37.068811,17.246167 37.088388,32 37.088388,32 L 22.160133,31.978069 C 22.160133,31.978069 26.997745,27.140456 26.997745,27.140456 C 18.528582,18.264221 13.291696,25.230495 11.500037,31.436501 z"
             style="fill:#404040;"/>
          </a>
         </g>
        </svg>
</svg>
