<?xml version="1.0" encoding="UTF-8" standalone="no"?>
<!DOCTYPE svg PUBLIC "-//W3C//DTD SVG 1.1//EN"
 "http://www.w3.org/Graphics/SVG/1.1/DTD/svg11.dtd">
<!-- Generated by graphviz version 2.40.1 (20161225.0304)
 -->
<!-- Title: src/dispatcher.h Pages: 1 -->
<svg width="3698pt" height="192pt"
 viewBox="0.00 0.00 3697.50 192.00" xmlns="http://www.w3.org/2000/svg" xmlns:xlink="http://www.w3.org/1999/xlink">
<g id="graph0" class="graph" transform="scale(1 1) rotate(0) translate(4 188)">
<title>src/dispatcher.h</title>
<!-- Node1 -->
<g id="node1" class="node">
<title>Node1</title>
<g id="a_node1"><a xlink:title=" ">
<polygon fill="#999999" stroke="#666666" points="1797,-184 1711,-184 1711,-165 1797,-165 1797,-184"/>
<text text-anchor="middle" x="1754" y="-172" font-family="Helvetica,sans-Serif" font-size="10.00" fill="#000000">src/dispatcher.h</text>
</a>
</g>
</g>
<!-- Node2 -->
<g id="node2" class="node">
<title>Node2</title>
<g id="a_node2"><a xlink:href="../../d5/d61/indexlist_8h.html" target="_top" xlink:title=" ">
<polygon fill="#ffffff" stroke="#666666" points="835.5,-74 758.5,-74 758.5,-55 835.5,-55 835.5,-74"/>
<text text-anchor="middle" x="797" y="-62" font-family="Helvetica,sans-Serif" font-size="10.00" fill="#000000">src/indexlist.h</text>
</a>
</g>
</g>
<!-- Node1&#45;&gt;Node2 -->
<g id="edge1" class="edge">
<title>Node1&#45;&gt;Node2</title>
<path fill="none" stroke="#63b8ff" d="M1700.5729,-168.359C1527.5586,-148.4723 985.1803,-86.1299 835.5605,-68.9322"/>
<polygon fill="#63b8ff" stroke="#63b8ff" points="1700.3729,-171.8589 1710.7072,-169.5238 1701.1723,-164.9047 1700.3729,-171.8589"/>
</g>
<!-- Node17 -->
<g id="node17" class="node">
<title>Node17</title>
<g id="a_node17"><a xlink:href="../../de/d07/searchindex_8h.html" target="_top" xlink:title="Web server based search engine.">
<polygon fill="#ffffff" stroke="#666666" points="2711,-129 2617,-129 2617,-110 2711,-110 2711,-129"/>
<text text-anchor="middle" x="2664" y="-117" font-family="Helvetica,sans-Serif" font-size="10.00" fill="#000000">src/searchindex.h</text>
</a>
</g>
</g>
<!-- Node1&#45;&gt;Node17 -->
<g id="edge16" class="edge">
<title>Node1&#45;&gt;Node17</title>
<path fill="none" stroke="#63b8ff" d="M1807.5733,-171.2621C1971.1611,-161.3749 2462.4258,-131.6831 2616.9421,-122.3442"/>
<polygon fill="#63b8ff" stroke="#63b8ff" points="1807.0496,-167.7872 1797.279,-171.8842 1807.472,-174.7745 1807.0496,-167.7872"/>
</g>
<!-- Node3 -->
<g id="node3" class="node">
<title>Node3</title>
<g id="a_node3"><a xlink:href="../../d3/dea/definition_8cpp.html" target="_top" xlink:title=" ">
<polygon fill="#ffffff" stroke="#666666" points="1465.5,-19 1374.5,-19 1374.5,0 1465.5,0 1465.5,-19"/>
<text text-anchor="middle" x="1420" y="-7" font-family="Helvetica,sans-Serif" font-size="10.00" fill="#000000">src/definition.cpp</text>
</a>
</g>
</g>
<!-- Node2&#45;&gt;Node3 -->
<g id="edge2" class="edge">
<title>Node2&#45;&gt;Node3</title>
<path fill="none" stroke="#63b8ff" d="M845.9342,-62.0854C944.4669,-56.8916 1173.7089,-43.1314 1365,-19 1368.0764,-18.6119 1371.2431,-18.1724 1374.4294,-17.7004"/>
<polygon fill="#63b8ff" stroke="#63b8ff" points="845.4964,-58.6034 835.6921,-62.6191 845.8608,-65.5939 845.4964,-58.6034"/>
</g>
<!-- Node4 -->
<g id="node4" class="node">
<title>Node4</title>
<g id="a_node4"><a xlink:href="../../da/d0d/diagram_8cpp.html" target="_top" xlink:title=" ">
<polygon fill="#ffffff" stroke="#666666" points="651,-19 565,-19 565,0 651,0 651,-19"/>
<text text-anchor="middle" x="608" y="-7" font-family="Helvetica,sans-Serif" font-size="10.00" fill="#000000">src/diagram.cpp</text>
</a>
</g>
</g>
<!-- Node2&#45;&gt;Node4 -->
<g id="edge3" class="edge">
<title>Node2&#45;&gt;Node4</title>
<path fill="none" stroke="#63b8ff" d="M754.3136,-52.078C719.936,-42.074 672.3165,-28.2165 640.8606,-19.0626"/>
<polygon fill="#63b8ff" stroke="#63b8ff" points="753.499,-55.4861 764.0787,-54.9197 755.455,-48.7649 753.499,-55.4861"/>
</g>
<!-- Node5 -->
<g id="node5" class="node">
<title>Node5</title>
<g id="a_node5"><a xlink:href="../../da/d17/docparser_8cpp.html" target="_top" xlink:title=" ">
<polygon fill="#ffffff" stroke="#666666" points="954.5,-19 859.5,-19 859.5,0 954.5,0 954.5,-19"/>
<text text-anchor="middle" x="907" y="-7" font-family="Helvetica,sans-Serif" font-size="10.00" fill="#000000">src/docparser.cpp</text>
</a>
</g>
</g>
<!-- Node2&#45;&gt;Node5 -->
<g id="edge4" class="edge">
<title>Node2&#45;&gt;Node5</title>
<path fill="none" stroke="#63b8ff" d="M825.2324,-50.3838C844.8198,-40.5901 870.3972,-27.8014 887.69,-19.155"/>
<polygon fill="#63b8ff" stroke="#63b8ff" points="823.5396,-47.317 816.1605,-54.9197 826.6701,-53.578 823.5396,-47.317"/>
</g>
<!-- Node6 -->
<g id="node6" class="node">
<title>Node6</title>
<g id="a_node6"><a xlink:href="../../de/daa/dot_8cpp.html" target="_top" xlink:title=" ">
<polygon fill="#ffffff" stroke="#666666" points="734.5,-19 669.5,-19 669.5,0 734.5,0 734.5,-19"/>
<text text-anchor="middle" x="702" y="-7" font-family="Helvetica,sans-Serif" font-size="10.00" fill="#000000">src/dot.cpp</text>
</a>
</g>
</g>
<!-- Node2&#45;&gt;Node6 -->
<g id="edge5" class="edge">
<title>Node2&#45;&gt;Node6</title>
<path fill="none" stroke="#63b8ff" d="M771.6897,-49.8467C754.9002,-40.1264 733.3399,-27.6442 718.6769,-19.155"/>
<polygon fill="#63b8ff" stroke="#63b8ff" points="770.0443,-52.9383 780.4523,-54.9197 773.5516,-46.8803 770.0443,-52.9383"/>
</g>
<!-- Node7 -->
<g id="node7" class="node">
<title>Node7</title>
<g id="a_node7"><a xlink:href="../../de/d45/dotgraph_8cpp.html" target="_top" xlink:title=" ">
<polygon fill="#ffffff" stroke="#666666" points="841.5,-19 752.5,-19 752.5,0 841.5,0 841.5,-19"/>
<text text-anchor="middle" x="797" y="-7" font-family="Helvetica,sans-Serif" font-size="10.00" fill="#000000">src/dotgraph.cpp</text>
</a>
</g>
</g>
<!-- Node2&#45;&gt;Node7 -->
<g id="edge6" class="edge">
<title>Node2&#45;&gt;Node7</title>
<path fill="none" stroke="#63b8ff" d="M797,-44.8553C797,-36.2036 797,-26.4195 797,-19.3408"/>
<polygon fill="#63b8ff" stroke="#63b8ff" points="793.5001,-44.9197 797,-54.9197 800.5001,-44.9198 793.5001,-44.9197"/>
</g>
<!-- Node8 -->
<g id="node8" class="node">
<title>Node8</title>
<g id="a_node8"><a xlink:href="../../dc/d98/doxygen_8cpp.html" target="_top" xlink:title=" ">
<polygon fill="#ffffff" stroke="#666666" points="1273.5,-19 1184.5,-19 1184.5,0 1273.5,0 1273.5,-19"/>
<text text-anchor="middle" x="1229" y="-7" font-family="Helvetica,sans-Serif" font-size="10.00" fill="#000000">src/doxygen.cpp</text>
</a>
</g>
</g>
<!-- Node2&#45;&gt;Node8 -->
<g id="edge7" class="edge">
<title>Node2&#45;&gt;Node8</title>
<path fill="none" stroke="#63b8ff" d="M845.8759,-59.4752C918.0238,-51.8636 1057.213,-36.4368 1175,-19 1178.0132,-18.5539 1181.1169,-18.0709 1184.2413,-17.5672"/>
<polygon fill="#63b8ff" stroke="#63b8ff" points="845.3079,-56.0155 835.7281,-60.5408 846.039,-62.9773 845.3079,-56.0155"/>
</g>
<!-- Node9 -->
<g id="node9" class="node">
<title>Node9</title>
<g id="a_node9"><a xlink:href="../../d7/d5b/formula_8cpp.html" target="_top" xlink:title=" ">
<polygon fill="#ffffff" stroke="#666666" points="84,-19 0,-19 0,0 84,0 84,-19"/>
<text text-anchor="middle" x="42" y="-7" font-family="Helvetica,sans-Serif" font-size="10.00" fill="#000000">src/formula.cpp</text>
</a>
</g>
</g>
<!-- Node2&#45;&gt;Node9 -->
<g id="edge8" class="edge">
<title>Node2&#45;&gt;Node9</title>
<path fill="none" stroke="#63b8ff" d="M748.0938,-63.3517C633.3095,-60.2182 337.8382,-49.6041 93,-19 90.1402,-18.6425 87.1984,-18.226 84.24,-17.7707"/>
<polygon fill="#63b8ff" stroke="#63b8ff" points="748.219,-66.8561 758.3086,-63.6236 748.4053,-59.8586 748.219,-66.8561"/>
</g>
<!-- Node10 -->
<g id="node10" class="node">
<title>Node10</title>
<g id="a_node10"><a xlink:href="../../da/db0/htmldocvisitor_8cpp.html" target="_top" xlink:title=" ">
<polygon fill="#ffffff" stroke="#666666" points="215.5,-19 102.5,-19 102.5,0 215.5,0 215.5,-19"/>
<text text-anchor="middle" x="159" y="-7" font-family="Helvetica,sans-Serif" font-size="10.00" fill="#000000">src/htmldocvisitor.cpp</text>
</a>
</g>
</g>
<!-- Node2&#45;&gt;Node10 -->
<g id="edge9" class="edge">
<title>Node2&#45;&gt;Node10</title>
<path fill="none" stroke="#63b8ff" d="M748.3543,-61.7222C649.417,-55.8333 417.7061,-40.8222 224,-19 221.2801,-18.6936 218.4989,-18.3611 215.6918,-18.0102"/>
<polygon fill="#63b8ff" stroke="#63b8ff" points="748.1628,-65.2169 758.3519,-62.313 748.5758,-58.2291 748.1628,-65.2169"/>
</g>
<!-- Node11 -->
<g id="node11" class="node">
<title>Node11</title>
<g id="a_node11"><a xlink:href="../../d8/d6e/htmlgen_8cpp.html" target="_top" xlink:title=" ">
<polygon fill="#ffffff" stroke="#666666" points="1059,-19 973,-19 973,0 1059,0 1059,-19"/>
<text text-anchor="middle" x="1016" y="-7" font-family="Helvetica,sans-Serif" font-size="10.00" fill="#000000">src/htmlgen.cpp</text>
</a>
</g>
</g>
<!-- Node2&#45;&gt;Node11 -->
<g id="edge10" class="edge">
<title>Node2&#45;&gt;Node11</title>
<path fill="none" stroke="#63b8ff" d="M844.9311,-52.4625C884.8724,-42.4316 941.0052,-28.3343 977.9235,-19.0626"/>
<polygon fill="#63b8ff" stroke="#63b8ff" points="843.9932,-49.0893 835.1469,-54.9197 845.6983,-55.8785 843.9932,-49.0893"/>
</g>
<!-- Node12 -->
<g id="node12" class="node">
<title>Node12</title>
<g id="a_node12"><a xlink:href="../../db/d14/index_8cpp.html" target="_top" xlink:title="This file contains functions for the various index pages.">
<polygon fill="#ffffff" stroke="#666666" points="1558.5,-19 1483.5,-19 1483.5,0 1558.5,0 1558.5,-19"/>
<text text-anchor="middle" x="1521" y="-7" font-family="Helvetica,sans-Serif" font-size="10.00" fill="#000000">src/index.cpp</text>
</a>
</g>
</g>
<!-- Node2&#45;&gt;Node12 -->
<g id="edge11" class="edge">
<title>Node2&#45;&gt;Node12</title>
<path fill="none" stroke="#63b8ff" d="M846.0068,-63.4277C957.8163,-60.4969 1240.152,-50.3517 1474,-19 1477.0528,-18.5907 1480.205,-18.1013 1483.364,-17.5634"/>
<polygon fill="#63b8ff" stroke="#63b8ff" points="845.6339,-59.936 835.7262,-63.6893 845.812,-66.9337 845.6339,-59.936"/>
</g>
<!-- Node13 -->
<g id="node13" class="node">
<title>Node13</title>
<g id="a_node13"><a xlink:href="../../db/d33/msc_8cpp.html" target="_top" xlink:title=" ">
<polygon fill="#ffffff" stroke="#666666" points="304.5,-19 233.5,-19 233.5,0 304.5,0 304.5,-19"/>
<text text-anchor="middle" x="269" y="-7" font-family="Helvetica,sans-Serif" font-size="10.00" fill="#000000">src/msc.cpp</text>
</a>
</g>
</g>
<!-- Node2&#45;&gt;Node13 -->
<g id="edge12" class="edge">
<title>Node2&#45;&gt;Node13</title>
<path fill="none" stroke="#63b8ff" d="M748.0488,-61.8283C660.4141,-56.6167 471.0993,-43.4103 313,-19 310.374,-18.5946 307.6695,-18.1292 304.9535,-17.6271"/>
<polygon fill="#63b8ff" stroke="#63b8ff" points="748.0353,-65.3335 758.2229,-62.4245 748.4448,-58.3455 748.0353,-65.3335"/>
</g>
<!-- Node14 -->
<g id="node14" class="node">
<title>Node14</title>
<g id="a_node14"><a xlink:href="../../d7/d5b/plantuml_8cpp.html" target="_top" xlink:title=" ">
<polygon fill="#ffffff" stroke="#666666" points="411.5,-19 322.5,-19 322.5,0 411.5,0 411.5,-19"/>
<text text-anchor="middle" x="367" y="-7" font-family="Helvetica,sans-Serif" font-size="10.00" fill="#000000">src/plantuml.cpp</text>
</a>
</g>
</g>
<!-- Node2&#45;&gt;Node14 -->
<g id="edge13" class="edge">
<title>Node2&#45;&gt;Node14</title>
<path fill="none" stroke="#63b8ff" d="M748.2464,-59.5179C676.2807,-51.9596 537.4489,-36.5988 420,-19 417.2266,-18.5844 414.3753,-18.1358 411.5025,-17.6675"/>
<polygon fill="#63b8ff" stroke="#63b8ff" points="748.059,-63.0173 758.3686,-60.5758 748.7866,-56.0552 748.059,-63.0173"/>
</g>
<!-- Node15 -->
<g id="node15" class="node">
<title>Node15</title>
<g id="a_node15"><a xlink:href="../../d9/d2f/searchindex__js_8cpp.html" target="_top" xlink:title=" ">
<polygon fill="#ffffff" stroke="#666666" points="546.5,-19 429.5,-19 429.5,0 546.5,0 546.5,-19"/>
<text text-anchor="middle" x="488" y="-7" font-family="Helvetica,sans-Serif" font-size="10.00" fill="#000000">src/searchindex_js.cpp</text>
</a>
</g>
</g>
<!-- Node2&#45;&gt;Node15 -->
<g id="edge14" class="edge">
<title>Node2&#45;&gt;Node15</title>
<path fill="none" stroke="#63b8ff" d="M748.4239,-55.8538C692.1775,-45.8423 599.8144,-29.4022 541.5398,-19.0297"/>
<polygon fill="#63b8ff" stroke="#63b8ff" points="748.0311,-59.3388 758.4897,-57.6454 749.2578,-52.4471 748.0311,-59.3388"/>
</g>
<!-- Node16 -->
<g id="node16" class="node">
<title>Node16</title>
<g id="a_node16"><a xlink:href="../../df/d2d/util_8cpp.html" target="_top" xlink:title=" ">
<polygon fill="#ffffff" stroke="#666666" points="1356.5,-19 1291.5,-19 1291.5,0 1356.5,0 1356.5,-19"/>
<text text-anchor="middle" x="1324" y="-7" font-family="Helvetica,sans-Serif" font-size="10.00" fill="#000000">src/util.cpp</text>
</a>
</g>
</g>
<!-- Node2&#45;&gt;Node16 -->
<g id="edge15" class="edge">
<title>Node2&#45;&gt;Node16</title>
<path fill="none" stroke="#63b8ff" d="M845.7435,-62.0111C933.4505,-57.0702 1123.4957,-44.2532 1282,-19 1284.9531,-18.5295 1288.0088,-17.9741 1291.0628,-17.3718"/>
<polygon fill="#63b8ff" stroke="#63b8ff" points="845.355,-58.5271 835.5639,-62.5749 845.7421,-65.5164 845.355,-58.5271"/>
</g>
<!-- Node17&#45;&gt;Node8 -->
<g id="edge24" class="edge">
<title>Node17&#45;&gt;Node8</title>
<path fill="none" stroke="#63b8ff" d="M2606.5859,-117.2345C2471.6674,-111.718 2123.9301,-96.3797 1834,-74 1588.1831,-55.0254 1526.1928,-52.9978 1282,-19 1279.315,-18.6262 1276.5581,-18.2151 1273.7802,-17.7801"/>
<polygon fill="#63b8ff" stroke="#63b8ff" points="2606.5585,-120.7361 2616.6926,-117.6456 2606.8431,-113.7419 2606.5585,-120.7361"/>
</g>
<!-- Node17&#45;&gt;Node11 -->
<g id="edge27" class="edge">
<title>Node17&#45;&gt;Node11</title>
<path fill="none" stroke="#63b8ff" d="M2606.753,-118.3297C2446.2887,-114.7779 1978.5592,-102.5675 1591,-74 1357.9062,-56.8183 1299.3493,-52.2486 1068,-19 1065.0932,-18.5822 1062.1005,-18.1205 1059.089,-17.6323"/>
<polygon fill="#63b8ff" stroke="#63b8ff" points="2606.7998,-121.8314 2616.874,-118.5512 2606.9531,-114.8331 2606.7998,-121.8314"/>
</g>
<!-- Node17&#45;&gt;Node16 -->
<g id="edge58" class="edge">
<title>Node17&#45;&gt;Node16</title>
<path fill="none" stroke="#63b8ff" d="M2606.5166,-115.1708C2359.1198,-96.5243 1396.1667,-23.7886 1365,-19 1362.2557,-18.5784 1359.4227,-18.0726 1356.5878,-17.5169"/>
<polygon fill="#63b8ff" stroke="#63b8ff" points="2606.4945,-118.679 2616.7293,-115.9405 2607.0206,-111.6988 2606.4945,-118.679"/>
</g>
<!-- Node18 -->
<g id="node18" class="node">
<title>Node18</title>
<g id="a_node18"><a xlink:href="../../de/d89/classdef_8cpp.html" target="_top" xlink:title=" ">
<polygon fill="#ffffff" stroke="#666666" points="3689.5,-19 3600.5,-19 3600.5,0 3689.5,0 3689.5,-19"/>
<text text-anchor="middle" x="3645" y="-7" font-family="Helvetica,sans-Serif" font-size="10.00" fill="#000000">src/classdef.cpp</text>
</a>
</g>
</g>
<!-- Node17&#45;&gt;Node18 -->
<g id="edge17" class="edge">
<title>Node17&#45;&gt;Node18</title>
<path fill="none" stroke="#63b8ff" d="M2721.3356,-115.5347C2818.5223,-108.5971 3021.7492,-93.155 3193,-74 3370.9008,-54.1011 3415.1963,-47.0196 3592,-19 3594.7698,-18.561 3597.6183,-18.0945 3600.489,-17.6129"/>
<polygon fill="#63b8ff" stroke="#63b8ff" points="2720.8678,-112.059 2711.141,-116.259 2721.3639,-119.0414 2720.8678,-112.059"/>
</g>
<!-- Node19 -->
<g id="node19" class="node">
<title>Node19</title>
<g id="a_node19"><a xlink:href="../../da/d1f/code_8l.html" target="_top" xlink:title=" ">
<polygon fill="#ffffff" stroke="#666666" points="1635.5,-19 1576.5,-19 1576.5,0 1635.5,0 1635.5,-19"/>
<text text-anchor="middle" x="1606" y="-7" font-family="Helvetica,sans-Serif" font-size="10.00" fill="#000000">src/code.l</text>
</a>
</g>
</g>
<!-- Node17&#45;&gt;Node19 -->
<g id="edge18" class="edge">
<title>Node17&#45;&gt;Node19</title>
<path fill="none" stroke="#63b8ff" d="M2606.6087,-112.6508C2501.8671,-100.2671 2272.6553,-73.7042 2079,-55 1886.3452,-36.3924 1836.0529,-49.9983 1645,-19 1641.9733,-18.5089 1638.8349,-17.906 1635.7127,-17.2442"/>
<polygon fill="#63b8ff" stroke="#63b8ff" points="2606.3102,-116.1399 2616.6523,-113.84 2607.1332,-109.1884 2606.3102,-116.1399"/>
</g>
<!-- Node20 -->
<g id="node20" class="node">
<title>Node20</title>
<g id="a_node20"><a xlink:href="../../d8/d0a/conceptdef_8cpp.html" target="_top" xlink:title=" ">
<polygon fill="#ffffff" stroke="#666666" points="1754,-19 1654,-19 1654,0 1754,0 1754,-19"/>
<text text-anchor="middle" x="1704" y="-7" font-family="Helvetica,sans-Serif" font-size="10.00" fill="#000000">src/conceptdef.cpp</text>
</a>
</g>
</g>
<!-- Node17&#45;&gt;Node20 -->
<g id="edge19" class="edge">
<title>Node17&#45;&gt;Node20</title>
<path fill="none" stroke="#63b8ff" d="M2606.6452,-112.1041C2560.7233,-105.1764 2495.1071,-93.0002 2440,-74 2422.1489,-67.8452 2420.2479,-59.8536 2402,-55 2127.1073,18.1165 2045.7942,-49.6504 1763,-19 1760.1119,-18.687 1757.1498,-18.3288 1754.1644,-17.939"/>
<polygon fill="#63b8ff" stroke="#63b8ff" points="2606.3102,-115.5924 2616.7134,-113.5865 2607.33,-108.6671 2606.3102,-115.5924"/>
</g>
<!-- Node21 -->
<g id="node21" class="node">
<title>Node21</title>
<g id="a_node21"><a xlink:href="../../db/d12/context_8cpp.html" target="_top" xlink:title=" ">
<polygon fill="#ffffff" stroke="#666666" points="2393,-74 2309,-74 2309,-55 2393,-55 2393,-74"/>
<text text-anchor="middle" x="2351" y="-62" font-family="Helvetica,sans-Serif" font-size="10.00" fill="#000000">src/context.cpp</text>
</a>
</g>
</g>
<!-- Node17&#45;&gt;Node21 -->
<g id="edge20" class="edge">
<title>Node17&#45;&gt;Node21</title>
<path fill="none" stroke="#63b8ff" d="M2606.83,-109.4542C2545.0852,-98.6044 2448.1801,-81.5764 2393.0577,-71.8903"/>
<polygon fill="#63b8ff" stroke="#63b8ff" points="2606.347,-112.9228 2616.8018,-111.2064 2607.5585,-106.0285 2606.347,-112.9228"/>
</g>
<!-- Node22 -->
<g id="node22" class="node">
<title>Node22</title>
<g id="a_node22"><a xlink:href="../../df/dc9/docparser__p_8h.html" target="_top" xlink:title="Private header shared between docparser.cpp and docnode.cpp.">
<polygon fill="#ffffff" stroke="#666666" points="1169.5,-74 1074.5,-74 1074.5,-55 1169.5,-55 1169.5,-74"/>
<text text-anchor="middle" x="1122" y="-62" font-family="Helvetica,sans-Serif" font-size="10.00" fill="#000000">src/docparser_p.h</text>
</a>
</g>
</g>
<!-- Node17&#45;&gt;Node22 -->
<g id="edge21" class="edge">
<title>Node17&#45;&gt;Node22</title>
<path fill="none" stroke="#63b8ff" d="M2606.7271,-118.3549C2415.9283,-114.3874 1784.4802,-100.0277 1263,-74 1231.8797,-72.4467 1196.9352,-70.0966 1169.6198,-68.1225"/>
<polygon fill="#63b8ff" stroke="#63b8ff" points="2606.7373,-121.8558 2616.8076,-118.5634 2606.8821,-114.8573 2606.7373,-121.8558"/>
</g>
<!-- Node24 -->
<g id="node24" class="node">
<title>Node24</title>
<g id="a_node24"><a xlink:href="../../d6/ddc/filedef_8cpp.html" target="_top" xlink:title=" ">
<polygon fill="#ffffff" stroke="#666666" points="2617,-19 2539,-19 2539,0 2617,0 2617,-19"/>
<text text-anchor="middle" x="2578" y="-7" font-family="Helvetica,sans-Serif" font-size="10.00" fill="#000000">src/filedef.cpp</text>
</a>
</g>
</g>
<!-- Node17&#45;&gt;Node24 -->
<g id="edge25" class="edge">
<title>Node17&#45;&gt;Node24</title>
<path fill="none" stroke="#63b8ff" d="M2650.028,-101.6288C2631.6171,-78.0801 2599.8882,-37.4965 2585.492,-19.0828"/>
<polygon fill="#63b8ff" stroke="#63b8ff" points="2647.4515,-104.0159 2656.3681,-109.7382 2652.9661,-99.7044 2647.4515,-104.0159"/>
</g>
<!-- Node25 -->
<g id="node25" class="node">
<title>Node25</title>
<g id="a_node25"><a xlink:href="../../d6/d42/groupdef_8cpp.html" target="_top" xlink:title=" ">
<polygon fill="#ffffff" stroke="#666666" points="2724.5,-19 2635.5,-19 2635.5,0 2724.5,0 2724.5,-19"/>
<text text-anchor="middle" x="2680" y="-7" font-family="Helvetica,sans-Serif" font-size="10.00" fill="#000000">src/groupdef.cpp</text>
</a>
</g>
</g>
<!-- Node17&#45;&gt;Node25 -->
<g id="edge26" class="edge">
<title>Node17&#45;&gt;Node25</title>
<path fill="none" stroke="#63b8ff" d="M2666.8761,-99.7265C2670.3345,-75.9502 2675.9986,-37.0098 2678.6061,-19.0828"/>
<polygon fill="#63b8ff" stroke="#63b8ff" points="2663.3958,-99.3385 2665.4199,-109.7382 2670.3229,-100.3462 2663.3958,-99.3385"/>
</g>
<!-- Node26 -->
<g id="node26" class="node">
<title>Node26</title>
<g id="a_node26"><a xlink:href="../../d0/d72/memberdef_8cpp.html" target="_top" xlink:title=" ">
<polygon fill="#ffffff" stroke="#666666" points="2843.5,-19 2742.5,-19 2742.5,0 2843.5,0 2843.5,-19"/>
<text text-anchor="middle" x="2793" y="-7" font-family="Helvetica,sans-Serif" font-size="10.00" fill="#000000">src/memberdef.cpp</text>
</a>
</g>
</g>
<!-- Node17&#45;&gt;Node26 -->
<g id="edge28" class="edge">
<title>Node17&#45;&gt;Node26</title>
<path fill="none" stroke="#63b8ff" d="M2678.9659,-102.0383C2691.0002,-88.4818 2708.6977,-69.599 2726,-55 2742.3345,-41.2176 2762.8919,-27.7613 2776.8989,-19.1026"/>
<polygon fill="#63b8ff" stroke="#63b8ff" points="2676.2089,-99.8741 2672.2588,-109.705 2681.4774,-104.4831 2676.2089,-99.8741"/>
</g>
<!-- Node27 -->
<g id="node27" class="node">
<title>Node27</title>
<g id="a_node27"><a xlink:href="../../d7/d1c/namespacedef_8cpp.html" target="_top" xlink:title=" ">
<polygon fill="#ffffff" stroke="#666666" points="2978,-19 2862,-19 2862,0 2978,0 2978,-19"/>
<text text-anchor="middle" x="2920" y="-7" font-family="Helvetica,sans-Serif" font-size="10.00" fill="#000000">src/namespacedef.cpp</text>
</a>
</g>
</g>
<!-- Node17&#45;&gt;Node27 -->
<g id="edge29" class="edge">
<title>Node17&#45;&gt;Node27</title>
<path fill="none" stroke="#63b8ff" d="M2684.4,-103.8167C2703.9254,-89.4343 2734.6655,-68.3939 2764,-55 2799.8002,-38.6539 2842.9064,-26.6117 2874.7257,-19.0367"/>
<polygon fill="#63b8ff" stroke="#63b8ff" points="2682.1732,-101.1116 2676.2634,-109.905 2686.367,-106.7163 2682.1732,-101.1116"/>
</g>
<!-- Node28 -->
<g id="node28" class="node">
<title>Node28</title>
<g id="a_node28"><a xlink:href="../../d2/db9/outputlist_8h.html" target="_top" xlink:title=" ">
<polygon fill="#ffffff" stroke="#666666" points="2530.5,-74 2449.5,-74 2449.5,-55 2530.5,-55 2530.5,-74"/>
<text text-anchor="middle" x="2490" y="-62" font-family="Helvetica,sans-Serif" font-size="10.00" fill="#000000">src/outputlist.h</text>
</a>
</g>
</g>
<!-- Node17&#45;&gt;Node28 -->
<g id="edge30" class="edge">
<title>Node17&#45;&gt;Node28</title>
<path fill="none" stroke="#63b8ff" d="M2623.8837,-106.8196C2592.3007,-96.8364 2548.9635,-83.1379 2520.2526,-74.0626"/>
<polygon fill="#63b8ff" stroke="#63b8ff" points="2623.1016,-110.243 2633.6915,-109.9197 2625.2114,-103.5685 2623.1016,-110.243"/>
</g>
<!-- Node36 -->
<g id="node36" class="node">
<title>Node36</title>
<g id="a_node36"><a xlink:href="../../d3/ded/pycode_8l.html" target="_top" xlink:title=" ">
<polygon fill="#ffffff" stroke="#666666" points="3066,-19 2996,-19 2996,0 3066,0 3066,-19"/>
<text text-anchor="middle" x="3031" y="-7" font-family="Helvetica,sans-Serif" font-size="10.00" fill="#000000">src/pycode.l</text>
</a>
</g>
</g>
<!-- Node17&#45;&gt;Node36 -->
<g id="edge55" class="edge">
<title>Node17&#45;&gt;Node36</title>
<path fill="none" stroke="#63b8ff" d="M2693.469,-105.6725C2733.5809,-86.8585 2800.5922,-55.4583 2802,-55 2881.6506,-29.0717 2904.9457,-35.84 2987,-19 2989.909,-18.403 2992.9239,-17.7739 2995.9492,-17.1354"/>
<polygon fill="#63b8ff" stroke="#63b8ff" points="2691.9551,-102.5166 2684.3881,-109.9322 2694.9279,-108.854 2691.9551,-102.5166"/>
</g>
<!-- Node37 -->
<g id="node37" class="node">
<title>Node37</title>
<g id="a_node37"><a xlink:href="../../d2/dda/sqlcode_8l.html" target="_top" xlink:title=" ">
<polygon fill="#ffffff" stroke="#666666" points="3156,-19 3084,-19 3084,0 3156,0 3156,-19"/>
<text text-anchor="middle" x="3120" y="-7" font-family="Helvetica,sans-Serif" font-size="10.00" fill="#000000">src/sqlcode.l</text>
</a>
</g>
</g>
<!-- Node17&#45;&gt;Node37 -->
<g id="edge57" class="edge">
<title>Node17&#45;&gt;Node37</title>
<path fill="none" stroke="#63b8ff" d="M2704.7004,-106.8217C2731.4551,-98.2086 2767.0994,-86.202 2798,-74 2817.056,-66.4752 2820.3584,-60.8275 2840,-55 2941.2984,-24.9454 2971.0449,-37.9202 3075,-19 3077.828,-18.4853 3080.7506,-17.9275 3083.6851,-17.3489"/>
<polygon fill="#63b8ff" stroke="#63b8ff" points="2703.3704,-103.5722 2694.9101,-109.9499 2705.501,-110.2401 2703.3704,-103.5722"/>
</g>
<!-- Node38 -->
<g id="node38" class="node">
<title>Node38</title>
<g id="a_node38"><a xlink:href="../../d5/d6a/vhdlcode_8l.html" target="_top" xlink:title=" ">
<polygon fill="#ffffff" stroke="#666666" points="3251.5,-19 3174.5,-19 3174.5,0 3251.5,0 3251.5,-19"/>
<text text-anchor="middle" x="3213" y="-7" font-family="Helvetica,sans-Serif" font-size="10.00" fill="#000000">src/vhdlcode.l</text>
</a>
</g>
</g>
<!-- Node17&#45;&gt;Node38 -->
<g id="edge59" class="edge">
<title>Node17&#45;&gt;Node38</title>
<path fill="none" stroke="#63b8ff" d="M2715.8947,-107.4777C2749.6145,-99.1899 2794.3315,-87.2992 2833,-74 2853.5294,-66.9394 2857.0321,-60.6262 2878,-55 3002.1631,-21.684 3038.0887,-39.4923 3165,-19 3168.0191,-18.5125 3171.1383,-17.9743 3174.2697,-17.4092"/>
<polygon fill="#63b8ff" stroke="#63b8ff" points="2714.6918,-104.1681 2705.8019,-109.9317 2716.3457,-110.97 2714.6918,-104.1681"/>
</g>
<!-- Node39 -->
<g id="node39" class="node">
<title>Node39</title>
<g id="a_node39"><a xlink:href="../../de/dea/vhdldocgen_8cpp.html" target="_top" xlink:title=" ">
<polygon fill="#ffffff" stroke="#666666" points="3370.5,-19 3269.5,-19 3269.5,0 3370.5,0 3370.5,-19"/>
<text text-anchor="middle" x="3320" y="-7" font-family="Helvetica,sans-Serif" font-size="10.00" fill="#000000">src/vhdldocgen.cpp</text>
</a>
</g>
</g>
<!-- Node17&#45;&gt;Node39 -->
<g id="edge60" class="edge">
<title>Node17&#45;&gt;Node39</title>
<path fill="none" stroke="#63b8ff" d="M2721.2307,-109.6364C2762.9634,-101.7754 2820.6131,-89.5233 2870,-74 2891.1019,-67.3673 2894.5561,-60.4261 2916,-55 3065.4554,-17.1821 3108.1714,-39.2617 3261,-19 3263.7769,-18.6318 3266.6244,-18.2357 3269.4967,-17.8215"/>
<polygon fill="#63b8ff" stroke="#63b8ff" points="2720.4388,-106.2235 2711.246,-111.4906 2721.717,-113.1058 2720.4388,-106.2235"/>
</g>
<!-- Node40 -->
<g id="node40" class="node">
<title>Node40</title>
<g id="a_node40"><a xlink:href="../../d1/d86/vhdljjparser_8cpp.html" target="_top" xlink:title=" ">
<polygon fill="#ffffff" stroke="#666666" points="3489.5,-19 3388.5,-19 3388.5,0 3489.5,0 3489.5,-19"/>
<text text-anchor="middle" x="3439" y="-7" font-family="Helvetica,sans-Serif" font-size="10.00" fill="#000000">src/vhdljjparser.cpp</text>
</a>
</g>
</g>
<!-- Node17&#45;&gt;Node40 -->
<g id="edge61" class="edge">
<title>Node17&#45;&gt;Node40</title>
<path fill="none" stroke="#63b8ff" d="M2721.3528,-112.7127C2771.2016,-105.8846 2844.9516,-93.5319 2907,-74 2926.5425,-67.8483 2929.1699,-60.1498 2949,-55 3135.0512,-6.6834 3189.1942,-42.2957 3380,-19 3382.6776,-18.6731 3385.4199,-18.3146 3388.1862,-17.9343"/>
<polygon fill="#63b8ff" stroke="#63b8ff" points="2720.8487,-109.2489 2711.402,-114.0458 2721.7783,-116.1869 2720.8487,-109.2489"/>
</g>
<!-- Node41 -->
<g id="node41" class="node">
<title>Node41</title>
<g id="a_node41"><a xlink:href="../../dc/dc1/xmlcode_8l.html" target="_top" xlink:title=" ">
<polygon fill="#ffffff" stroke="#666666" points="3582.5,-19 3507.5,-19 3507.5,0 3582.5,0 3582.5,-19"/>
<text text-anchor="middle" x="3545" y="-7" font-family="Helvetica,sans-Serif" font-size="10.00" fill="#000000">src/xmlcode.l</text>
</a>
</g>
</g>
<!-- Node17&#45;&gt;Node41 -->
<g id="edge62" class="edge">
<title>Node17&#45;&gt;Node41</title>
<path fill="none" stroke="#63b8ff" d="M2721.4701,-114.4193C2857.2792,-102.0135 3208.4665,-67.5963 3499,-19 3501.7346,-18.5426 3504.5542,-18.0391 3507.388,-17.5099"/>
<polygon fill="#63b8ff" stroke="#63b8ff" points="2720.9412,-110.9529 2711.2991,-115.344 2721.575,-117.9241 2720.9412,-110.9529"/>
</g>
<!-- Node42 -->
<g id="node42" class="node">
<title>Node42</title>
<g id="a_node42"><a xlink:href="../../d7/d79/searchindex_8cpp.html" target="_top" xlink:title=" ">
<polygon fill="#ffffff" stroke="#666666" points="3062,-74 2958,-74 2958,-55 3062,-55 3062,-74"/>
<text text-anchor="middle" x="3010" y="-62" font-family="Helvetica,sans-Serif" font-size="10.00" fill="#000000">src/searchindex.cpp</text>
</a>
</g>
</g>
<!-- Node17&#45;&gt;Node42 -->
<g id="edge56" class="edge">
<title>Node17&#45;&gt;Node42</title>
<path fill="none" stroke="#63b8ff" d="M2721.2286,-110.403C2787.1126,-99.9301 2894.3991,-82.8759 2957.9948,-72.7667"/>
<polygon fill="#63b8ff" stroke="#63b8ff" points="2720.3497,-106.9986 2711.0232,-112.0252 2721.4487,-113.9119 2720.3497,-106.9986"/>
</g>
<!-- Node22&#45;&gt;Node5 -->
<g id="edge23" class="edge">
<title>Node22&#45;&gt;Node5</title>
<path fill="none" stroke="#63b8ff" d="M1074.695,-52.3987C1035.4992,-42.3719 980.5483,-28.3147 944.3811,-19.0626"/>
<polygon fill="#63b8ff" stroke="#63b8ff" points="1073.9944,-55.8321 1084.5499,-54.9197 1075.7293,-49.0505 1073.9944,-55.8321"/>
</g>
<!-- Node23 -->
<g id="node23" class="node">
<title>Node23</title>
<g id="a_node23"><a xlink:href="../../d0/d2b/docnode_8cpp.html" target="_top" xlink:title=" ">
<polygon fill="#ffffff" stroke="#666666" points="1166.5,-19 1077.5,-19 1077.5,0 1166.5,0 1166.5,-19"/>
<text text-anchor="middle" x="1122" y="-7" font-family="Helvetica,sans-Serif" font-size="10.00" fill="#000000">src/docnode.cpp</text>
</a>
</g>
</g>
<!-- Node22&#45;&gt;Node23 -->
<g id="edge22" class="edge">
<title>Node22&#45;&gt;Node23</title>
<path fill="none" stroke="#63b8ff" d="M1122,-44.8553C1122,-36.2036 1122,-26.4195 1122,-19.3408"/>
<polygon fill="#63b8ff" stroke="#63b8ff" points="1118.5001,-44.9197 1122,-54.9197 1125.5001,-44.9198 1118.5001,-44.9197"/>
</g>
<!-- Node28&#45;&gt;Node3 -->
<g id="edge35" class="edge">
<title>Node28&#45;&gt;Node3</title>
<path fill="none" stroke="#63b8ff" d="M2439.2882,-58.4236C2427.0912,-57.1287 2414.0927,-55.8862 2402,-55 1990.3493,-24.8315 1884.4179,-62.8584 1474,-19 1471.2551,-18.7067 1468.4392,-18.3579 1465.6035,-17.97"/>
<polygon fill="#63b8ff" stroke="#63b8ff" points="2438.987,-61.9114 2449.3077,-59.5169 2439.7464,-54.9527 2438.987,-61.9114"/>
</g>
<!-- Node28&#45;&gt;Node8 -->
<g id="edge37" class="edge">
<title>Node28&#45;&gt;Node8</title>
<path fill="none" stroke="#63b8ff" d="M2439.2924,-58.3659C2427.0952,-57.0731 2414.0956,-55.8461 2402,-55 1905.1791,-20.248 1777.3052,-71.0722 1282,-19 1279.3039,-18.7166 1276.5386,-18.3754 1273.7542,-17.9933"/>
<polygon fill="#63b8ff" stroke="#63b8ff" points="2438.9908,-61.8537 2449.3118,-59.4604 2439.751,-54.8951 2438.9908,-61.8537"/>
</g>
<!-- Node28&#45;&gt;Node12 -->
<g id="edge41" class="edge">
<title>Node28&#45;&gt;Node12</title>
<path fill="none" stroke="#63b8ff" d="M2439.2854,-58.461C2427.0885,-57.1648 2414.0908,-55.9123 2402,-55 2031.5971,-27.0511 1935.6325,-64.7114 1567,-19 1564.2485,-18.6588 1561.4165,-18.2407 1558.5738,-17.772"/>
<polygon fill="#63b8ff" stroke="#63b8ff" points="2438.9845,-61.9489 2449.305,-59.5536 2439.7434,-54.9901 2438.9845,-61.9489"/>
</g>
<!-- Node28&#45;&gt;Node16 -->
<g id="edge50" class="edge">
<title>Node28&#45;&gt;Node16</title>
<path fill="none" stroke="#63b8ff" d="M2439.2908,-58.3882C2427.0937,-57.0946 2414.0945,-55.8616 2402,-55 1941.9993,-22.2296 1822.2034,-79.3295 1365,-19 1362.2473,-18.6368 1359.4085,-18.1721 1356.5697,-17.644"/>
<polygon fill="#63b8ff" stroke="#63b8ff" points="2438.9894,-61.876 2449.3102,-59.4823 2439.7493,-54.9174 2438.9894,-61.876"/>
</g>
<!-- Node28&#45;&gt;Node18 -->
<g id="edge31" class="edge">
<title>Node28&#45;&gt;Node18</title>
<path fill="none" stroke="#63b8ff" d="M2540.6401,-63.3258C2728.318,-58.8316 3384.0595,-41.8217 3592,-19 3594.6947,-18.7042 3597.4591,-18.3536 3600.2427,-17.9643"/>
<polygon fill="#63b8ff" stroke="#63b8ff" points="2540.4175,-59.8301 2530.5037,-63.5673 2540.5843,-66.8281 2540.4175,-59.8301"/>
</g>
<!-- Node28&#45;&gt;Node19 -->
<g id="edge33" class="edge">
<title>Node28&#45;&gt;Node19</title>
<path fill="none" stroke="#63b8ff" d="M2439.2825,-58.4995C2427.0857,-57.2018 2414.0887,-55.9391 2402,-55 2066.1871,-28.9124 1978.3757,-67.0781 1645,-19 1641.9651,-18.5623 1638.8214,-17.9945 1635.6959,-17.3541"/>
<polygon fill="#63b8ff" stroke="#63b8ff" points="2438.9818,-61.9873 2449.3021,-59.5914 2439.7402,-55.0285 2438.9818,-61.9873"/>
</g>
<!-- Node28&#45;&gt;Node20 -->
<g id="edge34" class="edge">
<title>Node28&#45;&gt;Node20</title>
<path fill="none" stroke="#63b8ff" d="M2438.942,-55.471C2437.6157,-55.3041 2436.2999,-55.1466 2435,-55 2137.7884,-21.4882 2060.3977,-50.8183 1763,-19 1760.1115,-18.691 1757.149,-18.3359 1754.1633,-17.9485"/>
<polygon fill="#63b8ff" stroke="#63b8ff" points="2438.841,-58.9909 2449.2292,-56.9088 2439.81,-52.0582 2438.841,-58.9909"/>
</g>
<!-- Node28&#45;&gt;Node24 -->
<g id="edge38" class="edge">
<title>Node28&#45;&gt;Node24</title>
<path fill="none" stroke="#63b8ff" d="M2513.8785,-49.5759C2529.367,-39.8956 2549.0951,-27.5656 2562.552,-19.155"/>
<polygon fill="#63b8ff" stroke="#63b8ff" points="2511.9534,-46.6517 2505.3284,-54.9197 2515.6634,-52.5877 2511.9534,-46.6517"/>
</g>
<!-- Node28&#45;&gt;Node25 -->
<g id="edge40" class="edge">
<title>Node28&#45;&gt;Node25</title>
<path fill="none" stroke="#63b8ff" d="M2532.9123,-52.078C2567.4717,-42.074 2615.3432,-28.2165 2646.9656,-19.0626"/>
<polygon fill="#63b8ff" stroke="#63b8ff" points="2531.7279,-48.7771 2523.0955,-54.9197 2533.6743,-55.5011 2531.7279,-48.7771"/>
</g>
<!-- Node28&#45;&gt;Node26 -->
<g id="edge42" class="edge">
<title>Node28&#45;&gt;Node26</title>
<path fill="none" stroke="#63b8ff" d="M2540.5976,-55.3156C2596.5967,-45.1508 2686.3218,-28.864 2742.3443,-18.6949"/>
<polygon fill="#63b8ff" stroke="#63b8ff" points="2539.7636,-51.9097 2530.5495,-57.1395 2541.0139,-58.7972 2539.7636,-51.9097"/>
</g>
<!-- Node28&#45;&gt;Node27 -->
<g id="edge45" class="edge">
<title>Node28&#45;&gt;Node27</title>
<path fill="none" stroke="#63b8ff" d="M2541.0546,-58.3077C2611.176,-49.7514 2741.2095,-33.701 2852,-19 2855.1905,-18.5766 2858.4644,-18.1369 2861.7686,-17.689"/>
<polygon fill="#63b8ff" stroke="#63b8ff" points="2540.243,-54.8806 2530.74,-59.5649 2541.09,-61.8292 2540.243,-54.8806"/>
</g>
<!-- Node29 -->
<g id="node29" class="node">
<title>Node29</title>
<g id="a_node29"><a xlink:href="../../d6/d10/classlist_8cpp.html" target="_top" xlink:title=" ">
<polygon fill="#ffffff" stroke="#666666" points="2074,-19 1986,-19 1986,0 2074,0 2074,-19"/>
<text text-anchor="middle" x="2030" y="-7" font-family="Helvetica,sans-Serif" font-size="10.00" fill="#000000">src/classlist.cpp</text>
</a>
</g>
</g>
<!-- Node28&#45;&gt;Node29 -->
<g id="edge32" class="edge">
<title>Node28&#45;&gt;Node29</title>
<path fill="none" stroke="#63b8ff" d="M2438.9314,-55.5556C2437.6082,-55.3636 2436.296,-55.178 2435,-55 2279.2018,-33.6038 2238.7297,-40.8886 2083,-19 2080.1303,-18.5967 2077.1785,-18.1517 2074.2064,-17.6811"/>
<polygon fill="#63b8ff" stroke="#63b8ff" points="2438.7867,-59.0742 2449.2016,-57.13 2439.8474,-52.155 2438.7867,-59.0742"/>
</g>
<!-- Node30 -->
<g id="node30" class="node">
<title>Node30</title>
<g id="a_node30"><a xlink:href="../../d8/d52/dirdef_8cpp.html" target="_top" xlink:title=" ">
<polygon fill="#ffffff" stroke="#666666" points="2168,-19 2092,-19 2092,0 2168,0 2168,-19"/>
<text text-anchor="middle" x="2130" y="-7" font-family="Helvetica,sans-Serif" font-size="10.00" fill="#000000">src/dirdef.cpp</text>
</a>
</g>
</g>
<!-- Node28&#45;&gt;Node30 -->
<g id="edge36" class="edge">
<title>Node28&#45;&gt;Node30</title>
<path fill="none" stroke="#63b8ff" d="M2439.4545,-55.7047C2437.9535,-55.4643 2436.466,-55.2288 2435,-55 2320.6076,-37.1446 2291.1274,-38.478 2177,-19 2174.1279,-18.5098 2171.1626,-17.9761 2168.1832,-17.4199"/>
<polygon fill="#63b8ff" stroke="#63b8ff" points="2439.041,-59.1836 2449.4755,-57.3472 2440.1733,-52.2758 2439.041,-59.1836"/>
</g>
<!-- Node31 -->
<g id="node31" class="node">
<title>Node31</title>
<g id="a_node31"><a xlink:href="../../d9/d5b/fortrancode_8l.html" target="_top" xlink:title=" ">
<polygon fill="#ffffff" stroke="#666666" points="2273.5,-19 2186.5,-19 2186.5,0 2273.5,0 2273.5,-19"/>
<text text-anchor="middle" x="2230" y="-7" font-family="Helvetica,sans-Serif" font-size="10.00" fill="#000000">src/fortrancode.l</text>
</a>
</g>
</g>
<!-- Node28&#45;&gt;Node31 -->
<g id="edge39" class="edge">
<title>Node28&#45;&gt;Node31</title>
<path fill="none" stroke="#63b8ff" d="M2439.4779,-53.8126C2391.3353,-43.6286 2319.5947,-28.4527 2273.8114,-18.7678"/>
<polygon fill="#63b8ff" stroke="#63b8ff" points="2438.8671,-57.2608 2449.375,-55.9063 2440.3159,-50.4124 2438.8671,-57.2608"/>
</g>
<!-- Node32 -->
<g id="node32" class="node">
<title>Node32</title>
<g id="a_node32"><a xlink:href="../../d6/d18/membergroup_8cpp.html" target="_top" xlink:title=" ">
<polygon fill="#ffffff" stroke="#666666" points="2402.5,-19 2291.5,-19 2291.5,0 2402.5,0 2402.5,-19"/>
<text text-anchor="middle" x="2347" y="-7" font-family="Helvetica,sans-Serif" font-size="10.00" fill="#000000">src/membergroup.cpp</text>
</a>
</g>
</g>
<!-- Node28&#45;&gt;Node32 -->
<g id="edge43" class="edge">
<title>Node28&#45;&gt;Node32</title>
<path fill="none" stroke="#63b8ff" d="M2455.7042,-51.3093C2429.9611,-41.4081 2395.2989,-28.0765 2372.1031,-19.155"/>
<polygon fill="#63b8ff" stroke="#63b8ff" points="2454.5014,-54.5966 2465.0913,-54.9197 2457.0143,-48.0632 2454.5014,-54.5966"/>
</g>
<!-- Node33 -->
<g id="node33" class="node">
<title>Node33</title>
<g id="a_node33"><a xlink:href="../../d0/d14/memberlist_8cpp.html" target="_top" xlink:title=" ">
<polygon fill="#ffffff" stroke="#666666" points="2521,-19 2421,-19 2421,0 2521,0 2521,-19"/>
<text text-anchor="middle" x="2471" y="-7" font-family="Helvetica,sans-Serif" font-size="10.00" fill="#000000">src/memberlist.cpp</text>
</a>
</g>
</g>
<!-- Node28&#45;&gt;Node33 -->
<g id="edge44" class="edge">
<title>Node28&#45;&gt;Node33</title>
<path fill="none" stroke="#63b8ff" d="M2483.4123,-45.4304C2480.3756,-36.6398 2476.8993,-26.5768 2474.3996,-19.3408"/>
<polygon fill="#63b8ff" stroke="#63b8ff" points="2480.117,-46.6107 2486.6905,-54.9197 2486.7334,-44.325 2480.117,-46.6107"/>
</g>
<!-- Node34 -->
<g id="node34" class="node">
<title>Node34</title>
<g id="a_node34"><a xlink:href="../../db/dd8/outputlist_8cpp.html" target="_top" xlink:title=" ">
<polygon fill="#ffffff" stroke="#666666" points="1864,-19 1772,-19 1772,0 1864,0 1864,-19"/>
<text text-anchor="middle" x="1818" y="-7" font-family="Helvetica,sans-Serif" font-size="10.00" fill="#000000">src/outputlist.cpp</text>
</a>
</g>
</g>
<!-- Node28&#45;&gt;Node34 -->
<g id="edge46" class="edge">
<title>Node28&#45;&gt;Node34</title>
<path fill="none" stroke="#63b8ff" d="M2438.9399,-55.4893C2437.6142,-55.317 2436.2991,-55.1534 2435,-55 2186.4362,-25.6574 2121.5638,-48.3426 1873,-19 1870.113,-18.6592 1867.1474,-18.2678 1864.1612,-17.8424"/>
<polygon fill="#63b8ff" stroke="#63b8ff" points="2438.8296,-59.0089 2449.2237,-56.9566 2439.8184,-52.0791 2438.8296,-59.0089"/>
</g>
<!-- Node35 -->
<g id="node35" class="node">
<title>Node35</title>
<g id="a_node35"><a xlink:href="../../d9/db4/pagedef_8cpp.html" target="_top" xlink:title=" ">
<polygon fill="#ffffff" stroke="#666666" points="1968,-19 1882,-19 1882,0 1968,0 1968,-19"/>
<text text-anchor="middle" x="1925" y="-7" font-family="Helvetica,sans-Serif" font-size="10.00" fill="#000000">src/pagedef.cpp</text>
</a>
</g>
</g>
<!-- Node28&#45;&gt;Node35 -->
<g id="edge47" class="edge">
<title>Node28&#45;&gt;Node35</title>
<path fill="none" stroke="#63b8ff" d="M2438.9368,-55.5146C2437.612,-55.3348 2436.298,-55.1628 2435,-55 2232.4031,-29.5961 2179.4718,-45.3822 1977,-19 1974.0879,-18.6206 1971.0913,-18.1875 1968.0769,-17.7203"/>
<polygon fill="#63b8ff" stroke="#63b8ff" points="2438.8135,-59.0339 2449.2157,-57.0228 2439.8297,-52.1081 2438.8135,-59.0339"/>
</g>
<!-- Node28&#45;&gt;Node36 -->
<g id="edge48" class="edge">
<title>Node28&#45;&gt;Node36</title>
<path fill="none" stroke="#63b8ff" d="M2541.0229,-61.8771C2631.3423,-56.7789 2825.1135,-43.793 2987,-19 2989.7809,-18.5741 2992.6499,-18.0801 2995.527,-17.5456"/>
<polygon fill="#63b8ff" stroke="#63b8ff" points="2540.5799,-58.3963 2530.7896,-62.4459 2540.9684,-65.3855 2540.5799,-58.3963"/>
</g>
<!-- Node28&#45;&gt;Node37 -->
<g id="edge49" class="edge">
<title>Node28&#45;&gt;Node37</title>
<path fill="none" stroke="#63b8ff" d="M2540.6227,-62.7861C2642.3332,-58.8533 2878.57,-47.2502 3075,-19 3077.8452,-18.5908 3080.7801,-18.1088 3083.7232,-17.5826"/>
<polygon fill="#63b8ff" stroke="#63b8ff" points="2540.487,-59.2887 2530.6266,-63.1645 2540.7518,-66.2836 2540.487,-59.2887"/>
</g>
<!-- Node28&#45;&gt;Node38 -->
<g id="edge51" class="edge">
<title>Node28&#45;&gt;Node38</title>
<path fill="none" stroke="#63b8ff" d="M2540.5527,-63.3035C2653.1521,-60.1554 2932.9563,-49.6551 3165,-19 3168.0318,-18.5995 3171.1602,-18.1237 3174.298,-17.6018"/>
<polygon fill="#63b8ff" stroke="#63b8ff" points="2540.4035,-59.8062 2530.5025,-63.5773 2540.5941,-66.8036 2540.4035,-59.8062"/>
</g>
<!-- Node28&#45;&gt;Node39 -->
<g id="edge52" class="edge">
<title>Node28&#45;&gt;Node39</title>
<path fill="none" stroke="#63b8ff" d="M2540.9603,-63.2666C2664.682,-59.8864 2990.6432,-48.6672 3261,-19 3263.6814,-18.7058 3266.4267,-18.3733 3269.1953,-18.0134"/>
<polygon fill="#63b8ff" stroke="#63b8ff" points="2540.5669,-59.7758 2530.6642,-63.5425 2540.7544,-66.7733 2540.5669,-59.7758"/>
</g>
<!-- Node28&#45;&gt;Node40 -->
<g id="edge53" class="edge">
<title>Node28&#45;&gt;Node40</title>
<path fill="none" stroke="#63b8ff" d="M2541.0887,-63.8269C2677.6016,-61.6094 3062.1036,-52.619 3380,-19 3382.6825,-18.7163 3385.4288,-18.3923 3388.1981,-18.039"/>
<polygon fill="#63b8ff" stroke="#63b8ff" points="2540.8736,-60.3297 2530.9299,-63.9867 2540.9837,-67.3289 2540.8736,-60.3297"/>
</g>
<!-- Node28&#45;&gt;Node41 -->
<g id="edge54" class="edge">
<title>Node28&#45;&gt;Node41</title>
<path fill="none" stroke="#63b8ff" d="M2540.7478,-63.2775C2718.2216,-58.8357 3310.4881,-42.5652 3499,-19 3501.7512,-18.6561 3504.583,-18.236 3507.4254,-17.7659"/>
<polygon fill="#63b8ff" stroke="#63b8ff" points="2540.5519,-59.7812 2530.6421,-63.5289 2540.726,-66.7791 2540.5519,-59.7812"/>
</g>
</g>
</svg>
