<?xml version="1.0" encoding="UTF-8" standalone="no"?>
<!DOCTYPE svg PUBLIC "-//W3C//DTD SVG 1.1//EN"
 "http://www.w3.org/Graphics/SVG/1.1/DTD/svg11.dtd">
<!-- Generated by graphviz version 2.40.1 (20161225.0304)
 -->
<!-- Title: PerlModGenerator Pages: 1 -->
<svg width="271pt" height="269pt"
 viewBox="0.00 0.00 270.50 269.00" xmlns="http://www.w3.org/2000/svg" xmlns:xlink="http://www.w3.org/1999/xlink">
<g id="graph0" class="graph" transform="scale(1 1) rotate(0) translate(4 265)">
<title>PerlModGenerator</title>
<!-- Node1 -->
<g id="node1" class="node">
<title>Node1</title>
<g id="a_node1"><a xlink:title=" ">
<polygon fill="#999999" stroke="#666666" points="148,-19 53,-19 53,0 148,0 148,-19"/>
<text text-anchor="middle" x="100.5" y="-7" font-family="Helvetica,sans-Serif" font-size="10.00" fill="#000000">PerlModGenerator</text>
</a>
</g>
</g>
<!-- Node2 -->
<g id="node2" class="node">
<title>Node2</title>
<g id="a_node2"><a xlink:href="../../d5/d6c/class_perl_mod_output.html" target="_top" xlink:title=" ">
<polygon fill="#ffffff" stroke="#666666" points="97.5,-195 15.5,-195 15.5,-176 97.5,-176 97.5,-195"/>
<text text-anchor="middle" x="56.5" y="-183" font-family="Helvetica,sans-Serif" font-size="10.00" fill="#000000">PerlModOutput</text>
</a>
</g>
</g>
<!-- Node2&#45;&gt;Node1 -->
<g id="edge1" class="edge">
<title>Node2&#45;&gt;Node1</title>
<path fill="none" stroke="#9a32cd" stroke-dasharray="5,2" d="M56.2066,-165.855C56.4623,-136.5593 59.6593,-80.241 78.5,-37 81.3818,-30.3859 86.2812,-24.0265 90.7258,-19.0921"/>
<polygon fill="#9a32cd" stroke="#9a32cd" points="52.7068,-166.0074 56.2305,-175.9991 59.7068,-165.9908 52.7068,-166.0074"/>
<text text-anchor="middle" x="100.5" y="-95" font-family="Helvetica,sans-Serif" font-size="10.00" fill="#000000"> m_output</text>
</g>
<!-- Node3 -->
<g id="node3" class="node">
<title>Node3</title>
<g id="a_node3"><a xlink:href="../../d4/de6/class_perl_mod_output_stream.html" target="_top" xlink:title=" ">
<polygon fill="#ffffff" stroke="#666666" points="113,-261 0,-261 0,-242 113,-242 113,-261"/>
<text text-anchor="middle" x="56.5" y="-249" font-family="Helvetica,sans-Serif" font-size="10.00" fill="#000000">PerlModOutputStream</text>
</a>
</g>
</g>
<!-- Node3&#45;&gt;Node2 -->
<g id="edge2" class="edge">
<title>Node3&#45;&gt;Node2</title>
<path fill="none" stroke="#9a32cd" stroke-dasharray="5,2" d="M56.5,-231.732C56.5,-219.6966 56.5,-204.847 56.5,-195.2785"/>
<polygon fill="#9a32cd" stroke="#9a32cd" points="53.0001,-231.7614 56.5,-241.7615 60.0001,-231.7615 53.0001,-231.7614"/>
<text text-anchor="middle" x="80" y="-216" font-family="Helvetica,sans-Serif" font-size="10.00" fill="#000000"> m_stream</text>
</g>
<!-- Node4 -->
<g id="node4" class="node">
<title>Node4</title>
<g id="a_node4"><a xlink:href="../../d9/d45/class_q_c_string.html" target="_top" xlink:title="This is an alternative implementation of QCString.">
<polygon fill="#ffffff" stroke="#666666" points="173,-195 116,-195 116,-176 173,-176 173,-195"/>
<text text-anchor="middle" x="144.5" y="-183" font-family="Helvetica,sans-Serif" font-size="10.00" fill="#000000">QCString</text>
</a>
</g>
</g>
<!-- Node4&#45;&gt;Node1 -->
<g id="edge3" class="edge">
<title>Node4&#45;&gt;Node1</title>
<path fill="none" stroke="#9a32cd" stroke-dasharray="5,2" d="M144.7934,-165.855C144.5377,-136.5593 141.3407,-80.241 122.5,-37 119.6182,-30.3859 114.7188,-24.0265 110.2742,-19.0921"/>
<polygon fill="#9a32cd" stroke="#9a32cd" points="141.2932,-165.9908 144.7695,-175.9991 148.2932,-166.0074 141.2932,-165.9908"/>
<text text-anchor="middle" x="203.5" y="-150" font-family="Helvetica,sans-Serif" font-size="10.00" fill="#000000"> pathDoxyDocsPM</text>
<text text-anchor="middle" x="203.5" y="-139" font-family="Helvetica,sans-Serif" font-size="10.00" fill="#000000">pathDoxyDocsTex</text>
<text text-anchor="middle" x="203.5" y="-128" font-family="Helvetica,sans-Serif" font-size="10.00" fill="#000000">pathDoxyFormatTex</text>
<text text-anchor="middle" x="203.5" y="-117" font-family="Helvetica,sans-Serif" font-size="10.00" fill="#000000">pathDoxyLatexDVI</text>
<text text-anchor="middle" x="203.5" y="-106" font-family="Helvetica,sans-Serif" font-size="10.00" fill="#000000">pathDoxyLatexPDF</text>
<text text-anchor="middle" x="203.5" y="-95" font-family="Helvetica,sans-Serif" font-size="10.00" fill="#000000">pathDoxyLatexPL</text>
<text text-anchor="middle" x="203.5" y="-84" font-family="Helvetica,sans-Serif" font-size="10.00" fill="#000000">pathDoxyLatexStructurePL</text>
<text text-anchor="middle" x="203.5" y="-73" font-family="Helvetica,sans-Serif" font-size="10.00" fill="#000000">pathDoxyLatexTex</text>
<text text-anchor="middle" x="203.5" y="-62" font-family="Helvetica,sans-Serif" font-size="10.00" fill="#000000">pathDoxyRules</text>
<text text-anchor="middle" x="203.5" y="-51" font-family="Helvetica,sans-Serif" font-size="10.00" fill="#000000">pathDoxyStructurePM</text>
<text text-anchor="middle" x="203.5" y="-40" font-family="Helvetica,sans-Serif" font-size="10.00" fill="#000000">...</text>
</g>
</g>
</svg>
