<?xml version="1.0" encoding="UTF-8" standalone="no"?>
<!DOCTYPE svg PUBLIC "-//W3C//DTD SVG 1.1//EN"
 "http://www.w3.org/Graphics/SVG/1.1/DTD/svg11.dtd">
<!-- Generated by graphviz version 2.43.0 (0)
 -->
<!-- Title: HtmlGenerator Pages: 1 -->
<svg width="374pt" height="184pt"
 viewBox="0.00 0.00 373.66 184.00" xmlns="http://www.w3.org/2000/svg" xmlns:xlink="http://www.w3.org/1999/xlink">
<g id="graph0" class="graph" transform="scale(1 1) rotate(0) translate(4 180)">
<title>HtmlGenerator</title>
<!-- Node1 -->
<g id="node1" class="node">
<title>Node1</title>
<g id="a_node1"><a xlink:title="Generator for HTML output.">
<polygon fill="#999999" stroke="#666666" points="164.16,-19 75.16,-19 75.16,0 164.16,0 164.16,-19"/>
<text text-anchor="middle" x="119.66" y="-7" font-family="Helvetica,sans-Serif" font-size="10.00">HtmlGenerator</text>
</a>
</g>
</g>
<!-- Node2 -->
<g id="node2" class="node">
<title>Node2</title>
<g id="a_node2"><a xlink:href="../../d3/d8e/class_output_generator.html" target="_top" xlink:title="Abstract output generator.">
<polygon fill="white" stroke="#666666" points="168.66,-92 70.66,-92 70.66,-73 168.66,-73 168.66,-92"/>
<text text-anchor="middle" x="119.66" y="-80" font-family="Helvetica,sans-Serif" font-size="10.00">OutputGenerator</text>
</a>
</g>
</g>
<!-- Node2&#45;&gt;Node1 -->
<g id="edge1" class="edge">
<title>Node2&#45;&gt;Node1</title>
<path fill="none" stroke="#63b8ff" d="M119.66,-62.73C119.66,-48.66 119.66,-30.06 119.66,-19.28"/>
<polygon fill="#63b8ff" stroke="#63b8ff" points="116.16,-62.79 119.66,-72.79 123.16,-62.79 116.16,-62.79"/>
</g>
<!-- Node3 -->
<g id="node3" class="node">
<title>Node3</title>
<g id="a_node3"><a xlink:href="../../d3/d30/class_text_stream.html" target="_top" xlink:title="Text streaming class that buffers data.">
<polygon fill="white" stroke="#666666" points="229.66,-176 157.66,-176 157.66,-157 229.66,-157 229.66,-176"/>
<text text-anchor="middle" x="193.66" y="-164" font-family="Helvetica,sans-Serif" font-size="10.00">TextStream</text>
</a>
</g>
</g>
<!-- Node3&#45;&gt;Node2 -->
<g id="edge2" class="edge">
<title>Node3&#45;&gt;Node2</title>
<path fill="none" stroke="#9a32cd" stroke-dasharray="5,2" d="M188.19,-147.23C184.62,-137.49 179.2,-125.74 171.66,-117 162.53,-106.43 149.27,-97.96 138.42,-92.18"/>
<polygon fill="#9a32cd" stroke="#9a32cd" points="184.89,-148.39 191.35,-156.79 191.53,-146.19 184.89,-148.39"/>
<text text-anchor="middle" x="195.66" y="-125.5" font-family="Helvetica,sans-Serif" font-size="10.00" fill="grey"> m_t</text>
</g>
<!-- Node5 -->
<g id="node5" class="node">
<title>Node5</title>
<g id="a_node5"><a xlink:href="../../da/db6/class_html_code_generator.html" target="_top" xlink:title="Generator for HTML code fragments.">
<polygon fill="white" stroke="#666666" points="300.66,-92 186.66,-92 186.66,-73 300.66,-73 300.66,-92"/>
<text text-anchor="middle" x="243.66" y="-80" font-family="Helvetica,sans-Serif" font-size="10.00">HtmlCodeGenerator</text>
</a>
</g>
</g>
<!-- Node3&#45;&gt;Node5 -->
<g id="edge7" class="edge">
<title>Node3&#45;&gt;Node5</title>
<path fill="none" stroke="#9a32cd" stroke-dasharray="5,2" d="M210.93,-149.75C214.08,-146.4 217.15,-142.73 219.66,-139 229.85,-123.84 237.27,-103.65 240.98,-92.27"/>
<polygon fill="#9a32cd" stroke="#9a32cd" points="208.34,-147.39 203.71,-156.92 213.27,-152.36 208.34,-147.39"/>
<text text-anchor="middle" x="242.66" y="-125.5" font-family="Helvetica,sans-Serif" font-size="10.00" fill="grey"> m_t</text>
</g>
<!-- Node4 -->
<g id="node4" class="node">
<title>Node4</title>
<g id="a_node4"><a xlink:href="../../d9/d45/class_q_c_string.html" target="_top" xlink:title="This is an alternative implementation of QCString.">
<polygon fill="white" stroke="#666666" points="65.16,-176 6.16,-176 6.16,-157 65.16,-157 65.16,-176"/>
<text text-anchor="middle" x="35.66" y="-164" font-family="Helvetica,sans-Serif" font-size="10.00">QCString</text>
</a>
</g>
</g>
<!-- Node4&#45;&gt;Node1 -->
<g id="edge4" class="edge">
<title>Node4&#45;&gt;Node1</title>
<path fill="none" stroke="#9a32cd" stroke-dasharray="5,2" d="M22.77,-148.45C8.76,-127.67 -9.6,-92.09 6.66,-66 22.37,-40.77 53.28,-26.68 78.81,-19.02"/>
<polygon fill="#9a32cd" stroke="#9a32cd" points="20.11,-150.76 28.76,-156.88 25.81,-146.7 20.11,-150.76"/>
<text text-anchor="middle" x="34.16" y="-91" font-family="Helvetica,sans-Serif" font-size="10.00" fill="grey"> m_lastFile</text>
<text text-anchor="middle" x="34.16" y="-80" font-family="Helvetica,sans-Serif" font-size="10.00" fill="grey">m_lastTitle</text>
<text text-anchor="middle" x="34.16" y="-69" font-family="Helvetica,sans-Serif" font-size="10.00" fill="grey">m_relPath</text>
</g>
<!-- Node4&#45;&gt;Node2 -->
<g id="edge3" class="edge">
<title>Node4&#45;&gt;Node2</title>
<path fill="none" stroke="#9a32cd" stroke-dasharray="5,2" d="M31.44,-146.86C30.31,-137.15 30.75,-125.56 36.66,-117 45.13,-104.72 58.92,-96.94 72.84,-92.01"/>
<polygon fill="#9a32cd" stroke="#9a32cd" points="28,-147.5 33.17,-156.75 34.89,-146.29 28,-147.5"/>
<text text-anchor="middle" x="66.66" y="-131" font-family="Helvetica,sans-Serif" font-size="10.00" fill="grey"> m_dir</text>
<text text-anchor="middle" x="66.66" y="-120" font-family="Helvetica,sans-Serif" font-size="10.00" fill="grey">m_fileName</text>
</g>
<!-- Node4&#45;&gt;Node5 -->
<g id="edge8" class="edge">
<title>Node4&#45;&gt;Node5</title>
<path fill="none" stroke="#9a32cd" stroke-dasharray="5,2" d="M71.75,-153C80.32,-149.19 89.15,-144.52 96.66,-139 107.06,-131.35 104.69,-123.83 115.66,-117 119.7,-114.48 172.32,-101.14 208.82,-92.08"/>
<polygon fill="#9a32cd" stroke="#9a32cd" points="70.16,-149.87 62.26,-156.93 72.84,-156.34 70.16,-149.87"/>
<text text-anchor="middle" x="141.66" y="-125.5" font-family="Helvetica,sans-Serif" font-size="10.00" fill="grey"> m_relPath</text>
</g>
<!-- Node5&#45;&gt;Node1 -->
<g id="edge5" class="edge">
<title>Node5&#45;&gt;Node1</title>
<path fill="none" stroke="#9a32cd" stroke-dasharray="5,2" d="M219.53,-67.68C194.35,-53.27 155.67,-31.12 134.6,-19.06"/>
<polygon fill="#9a32cd" stroke="#9a32cd" points="218.03,-70.86 228.45,-72.79 221.51,-64.79 218.03,-70.86"/>
<text text-anchor="middle" x="212.16" y="-40" font-family="Helvetica,sans-Serif" font-size="10.00" fill="grey"> m_codeGen</text>
</g>
<!-- Node6 -->
<g id="node6" class="node">
<title>Node6</title>
<g id="a_node6"><a xlink:href="../../d5/d9c/class_code_output_interface.html" target="_top" xlink:title="Output interface for code parser.">
<polygon fill="white" stroke="#666666" points="365.66,-176 247.66,-176 247.66,-157 365.66,-157 365.66,-176"/>
<text text-anchor="middle" x="306.66" y="-164" font-family="Helvetica,sans-Serif" font-size="10.00">CodeOutputInterface</text>
</a>
</g>
</g>
<!-- Node6&#45;&gt;Node5 -->
<g id="edge6" class="edge">
<title>Node6&#45;&gt;Node5</title>
<path fill="none" stroke="#63b8ff" d="M293.73,-148.67C280.55,-131.53 260.64,-105.61 250.35,-92.21"/>
<polygon fill="#63b8ff" stroke="#63b8ff" points="291.05,-150.93 299.91,-156.72 296.6,-146.66 291.05,-150.93"/>
</g>
</g>
</svg>
