<?xml version="1.0" encoding="UTF-8" standalone="no"?>
<!DOCTYPE svg PUBLIC "-//W3C//DTD SVG 1.1//EN"
 "http://www.w3.org/Graphics/SVG/1.1/DTD/svg11.dtd">
<!-- Generated by graphviz version 2.40.1 (20161225.0304)
 -->
<!-- Title: RefItem Pages: 1 -->
<svg width="209pt" height="250pt"
 viewBox="0.00 0.00 208.50 250.00" xmlns="http://www.w3.org/2000/svg" xmlns:xlink="http://www.w3.org/1999/xlink">
<g id="graph0" class="graph" transform="scale(1 1) rotate(0) translate(4 246)">
<title>RefItem</title>
<!-- Node1 -->
<g id="node1" class="node">
<title>Node1</title>
<g id="a_node1"><a xlink:title="This struct represents an item in the list of references.">
<polygon fill="#999999" stroke="#666666" points="126.5,-19 74.5,-19 74.5,0 126.5,0 126.5,-19"/>
<text text-anchor="middle" x="100.5" y="-7" font-family="Helvetica,sans-Serif" font-size="10.00" fill="#000000">RefItem</text>
</a>
</g>
</g>
<!-- Node2 -->
<g id="node2" class="node">
<title>Node2</title>
<g id="a_node2"><a xlink:href="../../d7/de8/class_ref_list.html" target="_top" xlink:title="List of cross&#45;referenced items.">
<polygon fill="#ffffff" stroke="#666666" points="124.5,-114 76.5,-114 76.5,-95 124.5,-95 124.5,-114"/>
<text text-anchor="middle" x="100.5" y="-102" font-family="Helvetica,sans-Serif" font-size="10.00" fill="#000000">RefList</text>
</a>
</g>
</g>
<!-- Node2&#45;&gt;Node1 -->
<g id="edge1" class="edge">
<title>Node2&#45;&gt;Node1</title>
<path fill="none" stroke="#9a32cd" stroke-dasharray="5,2" d="M100.5,-84.468C100.5,-64.397 100.5,-34.3572 100.5,-19.114"/>
<polygon fill="#9a32cd" stroke="#9a32cd" points="97.0001,-84.6911 100.5,-94.6911 104.0001,-84.6912 97.0001,-84.6911"/>
<text text-anchor="middle" x="115.5" y="-40" font-family="Helvetica,sans-Serif" font-size="10.00" fill="#000000"> m_list</text>
</g>
<!-- Node3 -->
<g id="node3" class="node">
<title>Node3</title>
<g id="a_node3"><a xlink:href="../../d9/d45/class_q_c_string.html" target="_top" xlink:title="This is an alternative implementation of QCString.">
<polygon fill="#ffffff" stroke="#666666" points="57,-242 0,-242 0,-223 57,-223 57,-242"/>
<text text-anchor="middle" x="28.5" y="-230" font-family="Helvetica,sans-Serif" font-size="10.00" fill="#000000">QCString</text>
</a>
</g>
</g>
<!-- Node3&#45;&gt;Node1 -->
<g id="edge3" class="edge">
<title>Node3&#45;&gt;Node1</title>
<path fill="none" stroke="#9a32cd" stroke-dasharray="5,2" d="M21.8363,-213.154C11.8774,-180.6889 -3.2253,-114.0814 21.5,-66 32.9897,-43.6568 57.8668,-28.1825 76.6552,-19.1503"/>
<polygon fill="#9a32cd" stroke="#9a32cd" points="18.5421,-214.3426 24.9515,-222.7789 25.202,-212.187 18.5421,-214.3426"/>
<text text-anchor="middle" x="44.5" y="-135" font-family="Helvetica,sans-Serif" font-size="10.00" fill="#000000"> m_anchor</text>
<text text-anchor="middle" x="44.5" y="-124" font-family="Helvetica,sans-Serif" font-size="10.00" fill="#000000">m_args</text>
<text text-anchor="middle" x="44.5" y="-113" font-family="Helvetica,sans-Serif" font-size="10.00" fill="#000000">m_group</text>
<text text-anchor="middle" x="44.5" y="-102" font-family="Helvetica,sans-Serif" font-size="10.00" fill="#000000">m_name</text>
<text text-anchor="middle" x="44.5" y="-91" font-family="Helvetica,sans-Serif" font-size="10.00" fill="#000000">m_prefix</text>
<text text-anchor="middle" x="44.5" y="-80" font-family="Helvetica,sans-Serif" font-size="10.00" fill="#000000">m_text</text>
<text text-anchor="middle" x="44.5" y="-69" font-family="Helvetica,sans-Serif" font-size="10.00" fill="#000000">m_title</text>
</g>
<!-- Node3&#45;&gt;Node2 -->
<g id="edge2" class="edge">
<title>Node3&#45;&gt;Node2</title>
<path fill="none" stroke="#9a32cd" stroke-dasharray="5,2" d="M38.9894,-213.8523C54.5209,-186.2407 83.0832,-135.4632 95.0255,-114.2324"/>
<polygon fill="#9a32cd" stroke="#9a32cd" points="35.7638,-212.4475 33.9117,-222.8792 41.8649,-215.8794 35.7638,-212.4475"/>
<text text-anchor="middle" x="95.5" y="-197" font-family="Helvetica,sans-Serif" font-size="10.00" fill="#000000"> m_fileName</text>
<text text-anchor="middle" x="95.5" y="-186" font-family="Helvetica,sans-Serif" font-size="10.00" fill="#000000">m_listName</text>
<text text-anchor="middle" x="95.5" y="-175" font-family="Helvetica,sans-Serif" font-size="10.00" fill="#000000">m_pageTitle</text>
<text text-anchor="middle" x="95.5" y="-164" font-family="Helvetica,sans-Serif" font-size="10.00" fill="#000000">m_secTitle</text>
</g>
<!-- Node4 -->
<g id="node4" class="node">
<title>Node4</title>
<g id="a_node4"><a xlink:href="../../d5/dcc/class_definition.html" target="_top" xlink:title="The common base class of all entity definitions found in the sources.">
<polygon fill="#ffffff" stroke="#666666" points="200.5,-114 142.5,-114 142.5,-95 200.5,-95 200.5,-114"/>
<text text-anchor="middle" x="171.5" y="-102" font-family="Helvetica,sans-Serif" font-size="10.00" fill="#000000">Definition</text>
</a>
</g>
</g>
<!-- Node4&#45;&gt;Node1 -->
<g id="edge4" class="edge">
<title>Node4&#45;&gt;Node1</title>
<path fill="none" stroke="#9a32cd" stroke-dasharray="5,2" d="M163.4316,-85.2971C156.8957,-71.0715 146.7736,-51.6888 134.5,-37 128.8532,-30.242 121.3429,-23.9621 114.8172,-19.1146"/>
<polygon fill="#9a32cd" stroke="#9a32cd" points="160.2983,-86.8664 167.5364,-94.6034 166.703,-84.0414 160.2983,-86.8664"/>
<text text-anchor="middle" x="163" y="-40" font-family="Helvetica,sans-Serif" font-size="10.00" fill="#000000"> m_scope</text>
</g>
</g>
</svg>
