<?xml version="1.0" encoding="UTF-8" standalone="no"?>
<!DOCTYPE svg PUBLIC "-//W3C//DTD SVG 1.1//EN"
 "http://www.w3.org/Graphics/SVG/1.1/DTD/svg11.dtd">
<!-- Generated by graphviz version 2.40.1 (20161225.0304)
 -->
<!-- Title: LookupInfo Pages: 1 -->
<svg width="243pt" height="160pt"
 viewBox="0.00 0.00 243.00 160.00" xmlns="http://www.w3.org/2000/svg" xmlns:xlink="http://www.w3.org/1999/xlink">
<g id="graph0" class="graph" transform="scale(1 1) rotate(0) translate(4 156)">
<title>LookupInfo</title>
<!-- Node1 -->
<g id="node1" class="node">
<title>Node1</title>
<g id="a_node1"><a xlink:title=" ">
<polygon fill="#999999" stroke="#666666" points="144.5,-19 79.5,-19 79.5,0 144.5,0 144.5,-19"/>
<text text-anchor="middle" x="112" y="-7" font-family="Helvetica,sans-Serif" font-size="10.00" fill="#000000">LookupInfo</text>
</a>
</g>
</g>
<!-- Node2 -->
<g id="node2" class="node">
<title>Node2</title>
<g id="a_node2"><a xlink:href="../../d5/dcc/class_definition.html" target="_top" xlink:title="The common base class of all entity definitions found in the sources.">
<polygon fill="#ffffff" stroke="#666666" points="58,-152 0,-152 0,-133 58,-133 58,-152"/>
<text text-anchor="middle" x="29" y="-140" font-family="Helvetica,sans-Serif" font-size="10.00" fill="#000000">Definition</text>
</a>
</g>
</g>
<!-- Node2&#45;&gt;Node1 -->
<g id="edge1" class="edge">
<title>Node2&#45;&gt;Node1</title>
<path fill="none" stroke="#9a32cd" stroke-dasharray="5,2" d="M23.3487,-122.8413C20.556,-109.2844 19.0857,-91.2165 26,-77 39.3652,-49.5195 69.9345,-29.9065 90.7821,-19.1344"/>
<polygon fill="#9a32cd" stroke="#9a32cd" points="19.9573,-123.7073 25.737,-132.5868 26.7561,-122.0411 19.9573,-123.7073"/>
<text text-anchor="middle" x="47.5" y="-84" font-family="Helvetica,sans-Serif" font-size="10.00" fill="#000000"> definition</text>
</g>
<!-- Node3 -->
<g id="node3" class="node">
<title>Node3</title>
<g id="a_node3"><a xlink:href="../../da/d09/class_member_def.html" target="_top" xlink:title="A model of a class/file/namespace member symbol.">
<polygon fill="#ffffff" stroke="#666666" points="146,-96 78,-96 78,-77 146,-77 146,-96"/>
<text text-anchor="middle" x="112" y="-84" font-family="Helvetica,sans-Serif" font-size="10.00" fill="#000000">MemberDef</text>
</a>
</g>
</g>
<!-- Node2&#45;&gt;Node3 -->
<g id="edge3" class="edge">
<title>Node2&#45;&gt;Node3</title>
<path fill="none" stroke="#63b8ff" d="M51.988,-126.99C66.6322,-117.1096 85.1444,-104.6194 97.7082,-96.1427"/>
<polygon fill="#63b8ff" stroke="#63b8ff" points="49.7896,-124.2511 43.4575,-132.7455 53.7047,-130.0539 49.7896,-124.2511"/>
</g>
<!-- Node3&#45;&gt;Node1 -->
<g id="edge2" class="edge">
<title>Node3&#45;&gt;Node1</title>
<path fill="none" stroke="#9a32cd" stroke-dasharray="5,2" d="M112,-66.3748C112,-51.2682 112,-31.231 112,-19.4161"/>
<polygon fill="#9a32cd" stroke="#9a32cd" points="108.5001,-66.7479 112,-76.7479 115.5001,-66.7479 108.5001,-66.7479"/>
<text text-anchor="middle" x="131" y="-45.5" font-family="Helvetica,sans-Serif" font-size="10.00" fill="#000000"> typeDef</text>
</g>
<!-- Node4 -->
<g id="node4" class="node">
<title>Node4</title>
<g id="a_node4"><a xlink:href="../../d9/d45/class_q_c_string.html" target="_top" xlink:title="This is an alternative implementation of QCString.">
<polygon fill="#ffffff" stroke="#666666" points="221.5,-96 164.5,-96 164.5,-77 221.5,-77 221.5,-96"/>
<text text-anchor="middle" x="193" y="-84" font-family="Helvetica,sans-Serif" font-size="10.00" fill="#000000">QCString</text>
</a>
</g>
</g>
<!-- Node4&#45;&gt;Node1 -->
<g id="edge4" class="edge">
<title>Node4&#45;&gt;Node1</title>
<path fill="none" stroke="#9a32cd" stroke-dasharray="5,2" d="M181.0921,-68.6315C173.9383,-58.6592 164.2532,-46.3923 154,-37 146.5449,-30.1709 137.2225,-23.8843 129.2556,-19.0507"/>
<polygon fill="#9a32cd" stroke="#9a32cd" points="178.3188,-70.7742 186.8941,-76.9963 184.0706,-66.7846 178.3188,-70.7742"/>
<text text-anchor="middle" x="204" y="-51" font-family="Helvetica,sans-Serif" font-size="10.00" fill="#000000"> resolvedType</text>
<text text-anchor="middle" x="204" y="-40" font-family="Helvetica,sans-Serif" font-size="10.00" fill="#000000">templSpec</text>
</g>
</g>
</svg>
