<?xml version="1.0" encoding="UTF-8" standalone="no"?>
<!DOCTYPE svg PUBLIC "-//W3C//DTD SVG 1.1//EN"
 "http://www.w3.org/Graphics/SVG/1.1/DTD/svg11.dtd">
<!-- Generated by graphviz version 2.40.1 (20161225.0304)
 -->
<!-- Title: MemberGroupInfoContext::Private Pages: 1 -->
<svg width="1199pt" height="506pt"
 viewBox="0.00 0.00 1199.00 505.50" xmlns="http://www.w3.org/2000/svg" xmlns:xlink="http://www.w3.org/1999/xlink">
<g id="graph0" class="graph" transform="scale(1 1) rotate(0) translate(4 501.5)">
<title>MemberGroupInfoContext::Private</title>
<!-- Node1 -->
<g id="node1" class="node">
<title>Node1</title>
<g id="a_node1"><a xlink:title=" ">
<polygon fill="#999999" stroke="#666666" points="1191,-280.5 1062,-280.5 1062,-250.5 1191,-250.5 1191,-280.5"/>
<text text-anchor="start" x="1070" y="-268.5" font-family="Helvetica,sans-Serif" font-size="10.00" fill="#000000">MemberGroupInfoContext</text>
<text text-anchor="middle" x="1126.5" y="-257.5" font-family="Helvetica,sans-Serif" font-size="10.00" fill="#000000">::Private</text>
</a>
</g>
</g>
<!-- Node2 -->
<g id="node2" class="node">
<title>Node2</title>
<g id="a_node2"><a xlink:href="../../d5/dcc/class_definition.html" target="_top" xlink:title="The common base class of all entity definitions found in the sources.">
<polygon fill="#ffffff" stroke="#666666" points="535,-485 477,-485 477,-466 535,-466 535,-485"/>
<text text-anchor="middle" x="506" y="-473" font-family="Helvetica,sans-Serif" font-size="10.00" fill="#000000">Definition</text>
</a>
</g>
</g>
<!-- Node2&#45;&gt;Node1 -->
<g id="edge1" class="edge">
<title>Node2&#45;&gt;Node1</title>
<path fill="none" stroke="#9a32cd" stroke-dasharray="5,2" d="M545.4003,-481.588C641.8767,-494.1907 893.063,-512.782 1044,-393.5 1083.2037,-362.5182 1109.4881,-307.5154 1120.561,-280.847"/>
<polygon fill="#9a32cd" stroke="#9a32cd" points="545.5963,-478.0826 535.216,-480.2035 544.6533,-485.0188 545.5963,-478.0826"/>
<text text-anchor="middle" x="854" y="-489.5" font-family="Helvetica,sans-Serif" font-size="10.00" fill="#000000"> m_def</text>
</g>
<!-- Node4 -->
<g id="node4" class="node">
<title>Node4</title>
<g id="a_node4"><a xlink:href="../../da/d32/class_member_group.html" target="_top" xlink:title="A class representing a group of members.">
<polygon fill="#ffffff" stroke="#666666" points="893,-420 815,-420 815,-401 893,-401 893,-420"/>
<text text-anchor="middle" x="854" y="-408" font-family="Helvetica,sans-Serif" font-size="10.00" fill="#000000">MemberGroup</text>
</a>
</g>
</g>
<!-- Node2&#45;&gt;Node4 -->
<g id="edge4" class="edge">
<title>Node2&#45;&gt;Node4</title>
<path fill="none" stroke="#9a32cd" stroke-dasharray="5,2" d="M545.1977,-469.2675C558.7541,-467.1168 574.0439,-464.6966 588,-462.5 659.0987,-451.3096 677.4925,-451.9545 748,-437.5 772.1845,-432.542 799.1412,-425.6569 819.8181,-420.0804"/>
<polygon fill="#9a32cd" stroke="#9a32cd" points="544.5474,-465.8268 535.2198,-470.8514 545.6449,-472.7403 544.5474,-465.8268"/>
<text text-anchor="middle" x="668" y="-465.5" font-family="Helvetica,sans-Serif" font-size="10.00" fill="#000000"> m_container</text>
</g>
<!-- Node3 -->
<g id="node3" class="node">
<title>Node3</title>
<g id="a_node3"><a xlink:href="../../d9/d45/class_q_c_string.html" target="_top" xlink:title="This is an alternative implementation of QCString.">
<polygon fill="#ffffff" stroke="#666666" points="534.5,-353 477.5,-353 477.5,-334 534.5,-334 534.5,-353"/>
<text text-anchor="middle" x="506" y="-341" font-family="Helvetica,sans-Serif" font-size="10.00" fill="#000000">QCString</text>
</a>
</g>
</g>
<!-- Node3&#45;&gt;Node1 -->
<g id="edge2" class="edge">
<title>Node3&#45;&gt;Node1</title>
<path fill="none" stroke="#9a32cd" stroke-dasharray="5,2" d="M544.7733,-340.8427C621.0833,-335.3552 796.0339,-321.5002 942,-300.5 982.0151,-294.743 1026.5528,-286.3514 1061.8435,-279.2282"/>
<polygon fill="#9a32cd" stroke="#9a32cd" points="544.3999,-337.3603 534.6735,-341.5613 544.8967,-344.3426 544.3999,-337.3603"/>
<text text-anchor="middle" x="854" y="-323.5" font-family="Helvetica,sans-Serif" font-size="10.00" fill="#000000"> m_relPath</text>
</g>
<!-- Node3&#45;&gt;Node4 -->
<g id="edge9" class="edge">
<title>Node3&#45;&gt;Node4</title>
<path fill="none" stroke="#9a32cd" stroke-dasharray="5,2" d="M544.7826,-343.9459C593.0628,-345.273 677.7366,-350.1479 748,-367.5 779.6194,-375.3086 814.2289,-390.7597 835.0208,-400.8566"/>
<polygon fill="#9a32cd" stroke="#9a32cd" points="544.8432,-340.4465 534.7628,-343.7076 544.6767,-347.4445 544.8432,-340.4465"/>
<text text-anchor="middle" x="668" y="-403.5" font-family="Helvetica,sans-Serif" font-size="10.00" fill="#000000"> doc</text>
<text text-anchor="middle" x="668" y="-392.5" font-family="Helvetica,sans-Serif" font-size="10.00" fill="#000000">fileName</text>
<text text-anchor="middle" x="668" y="-381.5" font-family="Helvetica,sans-Serif" font-size="10.00" fill="#000000">grpHeader</text>
<text text-anchor="middle" x="668" y="-370.5" font-family="Helvetica,sans-Serif" font-size="10.00" fill="#000000">m_docFile</text>
</g>
<!-- Node4&#45;&gt;Node1 -->
<g id="edge3" class="edge">
<title>Node4&#45;&gt;Node1</title>
<path fill="none" stroke="#9a32cd" stroke-dasharray="5,2" d="M902.8808,-398.5244C942.7307,-387.4397 999.4962,-368.5643 1044,-341.5 1071.7869,-324.6018 1098.4286,-297.4085 1113.5945,-280.543"/>
<polygon fill="#9a32cd" stroke="#9a32cd" points="901.8631,-395.1739 893.1316,-401.1749 903.6996,-401.9287 901.8631,-395.1739"/>
<text text-anchor="middle" x="1002" y="-381.5" font-family="Helvetica,sans-Serif" font-size="10.00" fill="#000000"> m_memberGroup</text>
</g>
<!-- Node5 -->
<g id="node5" class="node">
<title>Node5</title>
<g id="a_node5"><a xlink:href="../../dd/d13/class_member_list.html" target="_top" xlink:title="A list of MemberDef objects as shown in documentation sections.">
<polygon fill="#ffffff" stroke="#666666" points="540,-437 472,-437 472,-418 540,-418 540,-437"/>
<text text-anchor="middle" x="506" y="-425" font-family="Helvetica,sans-Serif" font-size="10.00" fill="#000000">MemberList</text>
</a>
</g>
</g>
<!-- Node5&#45;&gt;Node4 -->
<g id="edge5" class="edge">
<title>Node5&#45;&gt;Node4</title>
<path fill="none" stroke="#9a32cd" stroke-dasharray="5,2" d="M550.0372,-425.3488C618.5221,-422.0032 749.4596,-415.6069 814.8374,-412.4131"/>
<polygon fill="#9a32cd" stroke="#9a32cd" points="549.8186,-421.8552 540.0013,-425.839 550.1602,-428.8468 549.8186,-421.8552"/>
<text text-anchor="middle" x="668" y="-425.5" font-family="Helvetica,sans-Serif" font-size="10.00" fill="#000000"> inDeclSection</text>
</g>
<!-- Node6 -->
<g id="node6" class="node">
<title>Node6</title>
<g id="a_node6"><a xlink:href="../../d1/d7d/class_member_vector.html" target="_top" xlink:title="A vector of MemberDef object.">
<polygon fill="#ffffff" stroke="#666666" points="281,-452 201,-452 201,-433 281,-433 281,-452"/>
<text text-anchor="middle" x="241" y="-440" font-family="Helvetica,sans-Serif" font-size="10.00" fill="#000000">MemberVector</text>
</a>
</g>
</g>
<!-- Node6&#45;&gt;Node5 -->
<g id="edge6" class="edge">
<title>Node6&#45;&gt;Node5</title>
<path fill="none" stroke="#63b8ff" d="M291.4156,-439.6463C344.2668,-436.6547 425.8677,-432.0358 471.7102,-429.4409"/>
<polygon fill="#63b8ff" stroke="#63b8ff" points="291.034,-436.1622 281.2478,-440.2218 291.4296,-443.151 291.034,-436.1622"/>
</g>
<!-- Node7 -->
<g id="node7" class="node">
<title>Node7</title>
<g id="a_node7"><a xlink:href="../../d4/d15/class_member_group_ref_list.html" target="_top" xlink:title=" ">
<polygon fill="#ffffff" stroke="#666666" points="296,-415 186,-415 186,-396 296,-396 296,-415"/>
<text text-anchor="middle" x="241" y="-403" font-family="Helvetica,sans-Serif" font-size="10.00" fill="#000000">MemberGroupRefList</text>
</a>
</g>
</g>
<!-- Node7&#45;&gt;Node5 -->
<g id="edge7" class="edge">
<title>Node7&#45;&gt;Node5</title>
<path fill="none" stroke="#9a32cd" stroke-dasharray="5,2" d="M306.4165,-408.2672C341.3583,-410.0391 385.075,-412.7244 424,-416.5 439.7262,-418.0254 457.0775,-420.2708 471.7537,-422.3359"/>
<polygon fill="#9a32cd" stroke="#9a32cd" points="306.4991,-404.7671 296.3385,-407.7691 306.1534,-411.7586 306.4991,-404.7671"/>
<text text-anchor="middle" x="369" y="-419.5" font-family="Helvetica,sans-Serif" font-size="10.00" fill="#000000"> m_memberGroupRefList</text>
</g>
<!-- Node8 -->
<g id="node8" class="node">
<title>Node8</title>
<g id="a_node8"><a xlink:title=" ">
<polygon fill="#ffffff" stroke="#666666" points="149,-415 0,-415 0,-396 149,-396 149,-415"/>
<text text-anchor="middle" x="74.5" y="-403" font-family="Helvetica,sans-Serif" font-size="10.00" fill="#000000">std::vector&lt; MemberGroup * &gt;</text>
</a>
</g>
</g>
<!-- Node8&#45;&gt;Node7 -->
<g id="edge8" class="edge">
<title>Node8&#45;&gt;Node7</title>
<path fill="none" stroke="#63b8ff" d="M159.5563,-405.5C168.4992,-405.5 177.4143,-405.5 185.8885,-405.5"/>
<polygon fill="#63b8ff" stroke="#63b8ff" points="159.4697,-402.0001 149.4697,-405.5 159.4697,-409.0001 159.4697,-402.0001"/>
</g>
<!-- Node9 -->
<g id="node9" class="node">
<title>Node9</title>
<g id="a_node9"><a xlink:href="../../d7/dc1/class_cached_item.html" target="_top" xlink:title=" ">
<polygon fill="#ffffff" stroke="#666666" points="933.5,-221 774.5,-221 774.5,-180 933.5,-180 933.5,-221"/>
<text text-anchor="start" x="782.5" y="-209" font-family="Helvetica,sans-Serif" font-size="10.00" fill="#000000">CachedItem&lt; TemplateVariant,</text>
<text text-anchor="start" x="782.5" y="-198" font-family="Helvetica,sans-Serif" font-size="10.00" fill="#000000"> MemberGroupInfoContext</text>
<text text-anchor="middle" x="854" y="-187" font-family="Helvetica,sans-Serif" font-size="10.00" fill="#000000">::Private,&amp;Private::createDocs &gt;</text>
</a>
</g>
</g>
<!-- Node9&#45;&gt;Node1 -->
<g id="edge10" class="edge">
<title>Node9&#45;&gt;Node1</title>
<path fill="none" stroke="#9a32cd" stroke-dasharray="5,2" d="M943.3799,-221.82C982.577,-231.1697 1027.6676,-241.9253 1063.2968,-250.424"/>
<polygon fill="#9a32cd" stroke="#9a32cd" points="944.09,-218.3912 933.5508,-219.4754 942.4658,-225.2002 944.09,-218.3912"/>
<text text-anchor="middle" x="1002" y="-246.5" font-family="Helvetica,sans-Serif" font-size="10.00" fill="#000000"> m_docs</text>
</g>
<!-- Node10 -->
<g id="node10" class="node">
<title>Node10</title>
<g id="a_node10"><a xlink:href="../../d1/dba/class_template_variant.html" target="_top" xlink:title="Variant type which can hold one value of a fixed set of types.">
<polygon fill="#ffffff" stroke="#666666" points="550,-277 462,-277 462,-258 550,-258 550,-277"/>
<text text-anchor="middle" x="506" y="-265" font-family="Helvetica,sans-Serif" font-size="10.00" fill="#000000">TemplateVariant</text>
</a>
</g>
</g>
<!-- Node10&#45;&gt;Node9 -->
<g id="edge11" class="edge">
<title>Node10&#45;&gt;Node9</title>
<path fill="none" stroke="#9a32cd" stroke-dasharray="5,2" d="M560.2337,-266.3052C620.9734,-264.3145 715.2085,-259.0827 748,-245.5 757.621,-241.5149 756.9199,-235.5987 766,-230.5 772.0519,-227.1017 778.5535,-223.9987 785.183,-221.1875"/>
<polygon fill="#9a32cd" stroke="#9a32cd" points="559.9342,-262.8127 550.0468,-266.6191 560.1499,-269.8094 559.9342,-262.8127"/>
<text text-anchor="middle" x="668" y="-267.5" font-family="Helvetica,sans-Serif" font-size="10.00" fill="#000000"> m_item</text>
</g>
<!-- Node12 -->
<g id="node12" class="node">
<title>Node12</title>
<g id="a_node12"><a xlink:href="../../d7/dc1/class_cached_item.html" target="_top" xlink:title=" ">
<polygon fill="#ffffff" stroke="#666666" points="942,-162 766,-162 766,-121 942,-121 942,-162"/>
<text text-anchor="start" x="774" y="-150" font-family="Helvetica,sans-Serif" font-size="10.00" fill="#000000">CachedItem&lt; TemplateVariant,</text>
<text text-anchor="start" x="774" y="-139" font-family="Helvetica,sans-Serif" font-size="10.00" fill="#000000"> MemberGroupInfoContext</text>
<text text-anchor="middle" x="854" y="-128" font-family="Helvetica,sans-Serif" font-size="10.00" fill="#000000">::Private,&amp;Private::createMembers &gt;</text>
</a>
</g>
</g>
<!-- Node10&#45;&gt;Node12 -->
<g id="edge14" class="edge">
<title>Node10&#45;&gt;Node12</title>
<path fill="none" stroke="#9a32cd" stroke-dasharray="5,2" d="M515.2168,-249.0099C528.008,-225.5481 553.5192,-185.923 588,-167.5 603.5516,-159.1908 694.4111,-151.5828 765.6678,-146.7726"/>
<polygon fill="#9a32cd" stroke="#9a32cd" points="512.0649,-247.4841 510.5245,-257.9664 518.2655,-250.7326 512.0649,-247.4841"/>
<text text-anchor="middle" x="668" y="-170.5" font-family="Helvetica,sans-Serif" font-size="10.00" fill="#000000"> m_item</text>
</g>
<!-- Node13 -->
<g id="node13" class="node">
<title>Node13</title>
<g id="a_node13"><a xlink:href="../../d7/dc1/class_cached_item.html" target="_top" xlink:title=" ">
<polygon fill="#ffffff" stroke="#666666" points="935,-291.5 773,-291.5 773,-239.5 935,-239.5 935,-291.5"/>
<text text-anchor="start" x="781" y="-279.5" font-family="Helvetica,sans-Serif" font-size="10.00" fill="#000000">CachedItem&lt; TemplateVariant,</text>
<text text-anchor="start" x="781" y="-268.5" font-family="Helvetica,sans-Serif" font-size="10.00" fill="#000000"> MemberGroupInfoContext</text>
<text text-anchor="start" x="781" y="-257.5" font-family="Helvetica,sans-Serif" font-size="10.00" fill="#000000">::Private,&amp;Private::createMember</text>
<text text-anchor="middle" x="854" y="-246.5" font-family="Helvetica,sans-Serif" font-size="10.00" fill="#000000">Groups &gt;</text>
</a>
</g>
</g>
<!-- Node10&#45;&gt;Node13 -->
<g id="edge17" class="edge">
<title>Node10&#45;&gt;Node13</title>
<path fill="none" stroke="#9a32cd" stroke-dasharray="5,2" d="M560.062,-276.5464C569.3553,-277.7759 578.9372,-278.8404 588,-279.5 658.9235,-284.662 677.0421,-284.1656 748,-279.5 756.0573,-278.9702 764.437,-278.2162 772.7969,-277.3296"/>
<polygon fill="#9a32cd" stroke="#9a32cd" points="560.5174,-273.0761 550.1293,-275.1589 559.5489,-280.0088 560.5174,-273.0761"/>
<text text-anchor="middle" x="668" y="-285.5" font-family="Helvetica,sans-Serif" font-size="10.00" fill="#000000"> m_item</text>
</g>
<!-- Node11 -->
<g id="node11" class="node">
<title>Node11</title>
<g id="a_node11"><a xlink:href="../../d7/dc1/class_cached_item.html" target="_top" xlink:title="Wrapper for data that needs to be cached.">
<polygon fill="#ffffff" stroke="#666666" points="570,-125.5 442,-125.5 442,-95.5 570,-95.5 570,-125.5"/>
<text text-anchor="start" x="450" y="-113.5" font-family="Helvetica,sans-Serif" font-size="10.00" fill="#000000">CachedItem&lt; T, TOwner,</text>
<text text-anchor="middle" x="506" y="-102.5" font-family="Helvetica,sans-Serif" font-size="10.00" fill="#000000"> creator &gt;</text>
</a>
</g>
</g>
<!-- Node11&#45;&gt;Node9 -->
<g id="edge12" class="edge">
<title>Node11&#45;&gt;Node9</title>
<path fill="none" stroke="#ffa500" stroke-dasharray="5,2" d="M580.0663,-101.4852C641.3263,-95.6881 722.2912,-92.3824 748,-111.5 769.9995,-127.8593 746.9313,-150.8025 766,-170.5 769.3681,-173.9791 773.1553,-177.0548 777.2171,-179.7739"/>
<polygon fill="#ffa500" stroke="#ffa500" points="579.6403,-98.0102 570.0314,-102.4731 580.3262,-104.9765 579.6403,-98.0102"/>
<text text-anchor="start" x="596.5" y="-136.5" font-family="Helvetica,sans-Serif" font-size="10.00" fill="#000000"> &lt; TemplateVariant,</text>
<text text-anchor="start" x="596.5" y="-125.5" font-family="Helvetica,sans-Serif" font-size="10.00" fill="#000000"> MemberGroupInfoContext</text>
<text text-anchor="middle" x="668" y="-114.5" font-family="Helvetica,sans-Serif" font-size="10.00" fill="#000000">::Private,&amp;Private::createDocs &gt;</text>
</g>
<!-- Node11&#45;&gt;Node12 -->
<g id="edge15" class="edge">
<title>Node11&#45;&gt;Node12</title>
<path fill="none" stroke="#ffa500" stroke-dasharray="5,2" d="M529.9735,-88.8193C545.3481,-76.4225 566.4144,-62.0687 588,-55.5 656.0309,-34.7976 681.92,-29.228 748,-55.5 758.2254,-59.5654 757.6615,-65.3198 766,-72.5 785.7135,-89.4752 808.9003,-107.5846 826.523,-120.9898"/>
<polygon fill="#ffa500" stroke="#ffa500" points="527.4776,-86.3439 522.0505,-95.4433 531.9675,-91.7144 527.4776,-86.3439"/>
<text text-anchor="start" x="588" y="-80.5" font-family="Helvetica,sans-Serif" font-size="10.00" fill="#000000"> &lt; TemplateVariant,</text>
<text text-anchor="start" x="588" y="-69.5" font-family="Helvetica,sans-Serif" font-size="10.00" fill="#000000"> MemberGroupInfoContext</text>
<text text-anchor="middle" x="668" y="-58.5" font-family="Helvetica,sans-Serif" font-size="10.00" fill="#000000">::Private,&amp;Private::createMembers &gt;</text>
</g>
<!-- Node11&#45;&gt;Node13 -->
<g id="edge18" class="edge">
<title>Node11&#45;&gt;Node13</title>
<path fill="none" stroke="#ffa500" stroke-dasharray="5,2" d="M526.0082,-132.8512C541.3401,-148.4129 563.8999,-168.1607 588,-178.5 653.8101,-206.7334 688.6886,-157.372 748,-197.5 761.8372,-206.8618 753.4951,-219.4213 766,-230.5 769.692,-233.7709 773.7272,-236.7559 777.9744,-239.477"/>
<polygon fill="#ffa500" stroke="#ffa500" points="528.5261,-130.42 519.0872,-125.6077 523.4649,-135.2558 528.5261,-130.42"/>
<text text-anchor="start" x="595" y="-233.5" font-family="Helvetica,sans-Serif" font-size="10.00" fill="#000000"> &lt; TemplateVariant,</text>
<text text-anchor="start" x="595" y="-222.5" font-family="Helvetica,sans-Serif" font-size="10.00" fill="#000000"> MemberGroupInfoContext</text>
<text text-anchor="start" x="595" y="-211.5" font-family="Helvetica,sans-Serif" font-size="10.00" fill="#000000">::Private,&amp;Private::createMember</text>
<text text-anchor="middle" x="668" y="-200.5" font-family="Helvetica,sans-Serif" font-size="10.00" fill="#000000">Groups &gt;</text>
</g>
<!-- Node12&#45;&gt;Node1 -->
<g id="edge13" class="edge">
<title>Node12&#45;&gt;Node1</title>
<path fill="none" stroke="#9a32cd" stroke-dasharray="5,2" d="M932.3364,-165.3156C967.3845,-177.2374 1008.6744,-193.0696 1044,-211.5 1066.0065,-222.9814 1089.5511,-238.7806 1105.8314,-250.3229"/>
<polygon fill="#9a32cd" stroke="#9a32cd" points="933.2207,-161.9206 922.6267,-162.0578 930.994,-168.557 933.2207,-161.9206"/>
<text text-anchor="middle" x="1002" y="-214.5" font-family="Helvetica,sans-Serif" font-size="10.00" fill="#000000"> m_members</text>
</g>
<!-- Node13&#45;&gt;Node1 -->
<g id="edge16" class="edge">
<title>Node13&#45;&gt;Node1</title>
<path fill="none" stroke="#9a32cd" stroke-dasharray="5,2" d="M945.1302,-265.5C983.3531,-265.5 1026.9165,-265.5 1061.7675,-265.5"/>
<polygon fill="#9a32cd" stroke="#9a32cd" points="945.0212,-262.0001 935.0212,-265.5 945.0212,-269.0001 945.0212,-262.0001"/>
<text text-anchor="middle" x="1002" y="-268.5" font-family="Helvetica,sans-Serif" font-size="10.00" fill="#000000"> m_memberGroups</text>
</g>
<!-- Node14 -->
<g id="node14" class="node">
<title>Node14</title>
<g id="a_node14"><a xlink:href="../../d5/dbf/class_property_map.html" target="_top" xlink:title=" ">
<polygon fill="#ffffff" stroke="#666666" points="925.5,-63.5 782.5,-63.5 782.5,-33.5 925.5,-33.5 925.5,-63.5"/>
<text text-anchor="start" x="790.5" y="-51.5" font-family="Helvetica,sans-Serif" font-size="10.00" fill="#000000">PropertyMap&lt; MemberGroup</text>
<text text-anchor="middle" x="854" y="-40.5" font-family="Helvetica,sans-Serif" font-size="10.00" fill="#000000">InfoContext::Private &gt;</text>
</a>
</g>
</g>
<!-- Node14&#45;&gt;Node1 -->
<g id="edge19" class="edge">
<title>Node14&#45;&gt;Node1</title>
<path fill="none" stroke="#9a32cd" stroke-dasharray="5,2" d="M896.3615,-68.0629C936.8936,-88.022 998.4281,-121.6626 1044,-161.5 1075.0593,-188.651 1103.0189,-228.6793 1117.0285,-250.3025"/>
<polygon fill="#9a32cd" stroke="#9a32cd" points="897.8132,-64.8771 887.2895,-63.6514 894.752,-71.1722 897.8132,-64.8771"/>
<text text-anchor="middle" x="1002" y="-164.5" font-family="Helvetica,sans-Serif" font-size="10.00" fill="#000000"> s_inst</text>
</g>
<!-- Node15 -->
<g id="node15" class="node">
<title>Node15</title>
<g id="a_node15"><a xlink:href="../../d5/dbf/class_property_map.html" target="_top" xlink:title="Class representing a mapping of properties and the corresponding getter function.">
<polygon fill="#ffffff" stroke="#666666" points="554,-19 458,-19 458,0 554,0 554,-19"/>
<text text-anchor="middle" x="506" y="-7" font-family="Helvetica,sans-Serif" font-size="10.00" fill="#000000">PropertyMap&lt; T &gt;</text>
</a>
</g>
</g>
<!-- Node15&#45;&gt;Node14 -->
<g id="edge20" class="edge">
<title>Node15&#45;&gt;Node14</title>
<path fill="none" stroke="#ffa500" stroke-dasharray="5,2" d="M564.3179,-5.1281C613.627,-2.6434 685.9473,-1.8547 748,-12.5 772.3272,-16.6734 798.6049,-25.5659 818.9106,-33.4682"/>
<polygon fill="#ffa500" stroke="#ffa500" points="563.9523,-1.6427 554.1571,-5.6806 564.3324,-8.6324 563.9523,-1.6427"/>
<text text-anchor="start" x="605.5" y="-26.5" font-family="Helvetica,sans-Serif" font-size="10.00" fill="#000000"> &lt; MemberGroupInfoContext</text>
<text text-anchor="middle" x="668" y="-15.5" font-family="Helvetica,sans-Serif" font-size="10.00" fill="#000000">::Private &gt;</text>
</g>
</g>
</svg>
