<?xml version="1.0" encoding="UTF-8" standalone="no"?>
<!DOCTYPE svg PUBLIC "-//W3C//DTD SVG 1.1//EN"
 "http://www.w3.org/Graphics/SVG/1.1/DTD/svg11.dtd">
<!-- Generated by graphviz version 2.43.0 (0)
 -->
<!-- Title: src/htmlattrib.h Pages: 1 -->
<svg width="2193pt" height="192pt"
 viewBox="0.00 0.00 2193.00 192.00" xmlns="http://www.w3.org/2000/svg" xmlns:xlink="http://www.w3.org/1999/xlink">
<g id="graph0" class="graph" transform="scale(1 1) rotate(0) translate(4 188)">
<title>src/htmlattrib.h</title>
<!-- Node1 -->
<g id="node1" class="node">
<title>Node1</title>
<g id="a_node1"><a xlink:title=" ">
<polygon fill="#999999" stroke="#666666" points="345.5,-184 253.5,-184 253.5,-165 345.5,-165 345.5,-184"/>
<text text-anchor="middle" x="299.5" y="-172" font-family="Helvetica,sans-Serif" font-size="10.00">src/htmlattrib.h</text>
</a>
</g>
</g>
<!-- Node2 -->
<g id="node2" class="node">
<title>Node2</title>
<g id="a_node2"><a xlink:href="../../de/d2b/docnode_8h.html" target="_top" xlink:title=" ">
<polygon fill="white" stroke="#666666" points="998.5,-129 914.5,-129 914.5,-110 998.5,-110 998.5,-129"/>
<text text-anchor="middle" x="956.5" y="-117" font-family="Helvetica,sans-Serif" font-size="10.00">src/docnode.h</text>
</a>
</g>
</g>
<!-- Node1&#45;&gt;Node2 -->
<g id="edge1" class="edge">
<title>Node1&#45;&gt;Node2</title>
<path fill="none" stroke="#63b8ff" d="M355.77,-168.96C484.86,-158.55 799.95,-133.13 914.22,-123.91"/>
<polygon fill="#63b8ff" stroke="#63b8ff" points="355.39,-165.48 345.7,-169.77 355.95,-172.46 355.39,-165.48"/>
</g>
<!-- Node16 -->
<g id="node16" class="node">
<title>Node16</title>
<g id="a_node16"><a xlink:href="../../d1/d4e/latexdocvisitor_8cpp.html" target="_top" xlink:title=" ">
<polygon fill="white" stroke="#666666" points="362.5,-19 236.5,-19 236.5,0 362.5,0 362.5,-19"/>
<text text-anchor="middle" x="299.5" y="-7" font-family="Helvetica,sans-Serif" font-size="10.00">src/latexdocvisitor.cpp</text>
</a>
</g>
</g>
<!-- Node1&#45;&gt;Node16 -->
<g id="edge40" class="edge">
<title>Node1&#45;&gt;Node16</title>
<path fill="none" stroke="#63b8ff" d="M299.5,-154.37C299.5,-119.03 299.5,-44.79 299.5,-19.31"/>
<polygon fill="#63b8ff" stroke="#63b8ff" points="296,-154.74 299.5,-164.74 303,-154.74 296,-154.74"/>
</g>
<!-- Node32 -->
<g id="node32" class="node">
<title>Node32</title>
<g id="a_node32"><a xlink:href="../../d0/d0c/doctokenizer_8h.html" target="_top" xlink:title=" ">
<polygon fill="white" stroke="#666666" points="247.5,-129 143.5,-129 143.5,-110 247.5,-110 247.5,-129"/>
<text text-anchor="middle" x="195.5" y="-117" font-family="Helvetica,sans-Serif" font-size="10.00">src/doctokenizer.h</text>
</a>
</g>
</g>
<!-- Node1&#45;&gt;Node32 -->
<g id="edge36" class="edge">
<title>Node1&#45;&gt;Node32</title>
<path fill="none" stroke="#63b8ff" d="M273.73,-160.37C254.63,-150.63 229.13,-137.64 212.51,-129.17"/>
<polygon fill="#63b8ff" stroke="#63b8ff" points="272.29,-163.56 282.79,-164.98 275.47,-157.33 272.29,-163.56"/>
</g>
<!-- Node3 -->
<g id="node3" class="node">
<title>Node3</title>
<g id="a_node3"><a xlink:href="../../de/dcd/docbookvisitor_8h.html" target="_top" xlink:title=" ">
<polygon fill="white" stroke="#666666" points="2042.5,-74 1928.5,-74 1928.5,-55 2042.5,-55 2042.5,-74"/>
<text text-anchor="middle" x="1985.5" y="-62" font-family="Helvetica,sans-Serif" font-size="10.00">src/docbookvisitor.h</text>
</a>
</g>
</g>
<!-- Node2&#45;&gt;Node3 -->
<g id="edge2" class="edge">
<title>Node2&#45;&gt;Node3</title>
<path fill="none" stroke="#63b8ff" d="M1008.7,-116.5C1148.98,-111.01 1545.78,-94.72 1875.5,-74 1892.7,-72.92 1911.41,-71.55 1928.43,-70.22"/>
<polygon fill="#63b8ff" stroke="#63b8ff" points="1008.52,-113 998.66,-116.89 1008.79,-120 1008.52,-113"/>
</g>
<!-- Node6 -->
<g id="node6" class="node">
<title>Node6</title>
<g id="a_node6"><a xlink:href="../../d0/d2b/docnode_8cpp.html" target="_top" xlink:title=" ">
<polygon fill="white" stroke="#666666" points="218,-19 123,-19 123,0 218,0 218,-19"/>
<text text-anchor="middle" x="170.5" y="-7" font-family="Helvetica,sans-Serif" font-size="10.00">src/docnode.cpp</text>
</a>
</g>
</g>
<!-- Node2&#45;&gt;Node6 -->
<g id="edge5" class="edge">
<title>Node2&#45;&gt;Node6</title>
<path fill="none" stroke="#63b8ff" d="M904.03,-115.84C813.95,-110.82 624.22,-98.18 465.5,-74 369.69,-59.4 258.3,-32.74 203.88,-19.08"/>
<polygon fill="#63b8ff" stroke="#63b8ff" points="904.08,-119.35 914.26,-116.41 904.46,-112.36 904.08,-119.35"/>
</g>
<!-- Node7 -->
<g id="node7" class="node">
<title>Node7</title>
<g id="a_node7"><a xlink:href="../../df/dc9/docparser__p_8h.html" target="_top" xlink:title="Private header shared between docparser.cpp and docnode.cpp.">
<polygon fill="white" stroke="#666666" points="221.5,-74 119.5,-74 119.5,-55 221.5,-55 221.5,-74"/>
<text text-anchor="middle" x="170.5" y="-62" font-family="Helvetica,sans-Serif" font-size="10.00">src/docparser_p.h</text>
</a>
</g>
</g>
<!-- Node2&#45;&gt;Node7 -->
<g id="edge6" class="edge">
<title>Node2&#45;&gt;Node7</title>
<path fill="none" stroke="#63b8ff" d="M903.96,-114.96C760.53,-105.29 363.57,-78.52 221.72,-68.95"/>
<polygon fill="#63b8ff" stroke="#63b8ff" points="904.03,-118.47 914.24,-115.65 904.5,-111.49 904.03,-118.47"/>
</g>
<!-- Node9 -->
<g id="node9" class="node">
<title>Node9</title>
<g id="a_node9"><a xlink:href="../../d9/d92/dotfilepatcher_8cpp.html" target="_top" xlink:title=" ">
<polygon fill="white" stroke="#666666" points="1866,-74 1745,-74 1745,-55 1866,-55 1866,-74"/>
<text text-anchor="middle" x="1805.5" y="-62" font-family="Helvetica,sans-Serif" font-size="10.00">src/dotfilepatcher.cpp</text>
</a>
</g>
</g>
<!-- Node2&#45;&gt;Node9 -->
<g id="edge9" class="edge">
<title>Node2&#45;&gt;Node9</title>
<path fill="none" stroke="#63b8ff" d="M1008.97,-116.7C1134.72,-112.11 1463.19,-98.6 1736.5,-74 1739.26,-73.75 1742.09,-73.48 1744.94,-73.19"/>
<polygon fill="#63b8ff" stroke="#63b8ff" points="1008.71,-113.2 998.85,-117.06 1008.97,-120.2 1008.71,-113.2"/>
</g>
<!-- Node10 -->
<g id="node10" class="node">
<title>Node10</title>
<g id="a_node10"><a xlink:href="../../d0/d71/htmldocvisitor_8h.html" target="_top" xlink:title=" ">
<polygon fill="white" stroke="#666666" points="901,-74 788,-74 788,-55 901,-55 901,-74"/>
<text text-anchor="middle" x="844.5" y="-62" font-family="Helvetica,sans-Serif" font-size="10.00">src/htmldocvisitor.h</text>
</a>
</g>
</g>
<!-- Node2&#45;&gt;Node10 -->
<g id="edge10" class="edge">
<title>Node2&#45;&gt;Node10</title>
<path fill="none" stroke="#63b8ff" d="M929.31,-105.63C908.68,-95.87 880.88,-82.71 862.82,-74.17"/>
<polygon fill="#63b8ff" stroke="#63b8ff" points="927.97,-108.87 938.51,-109.98 930.96,-102.54 927.97,-108.87"/>
</g>
<!-- Node14 -->
<g id="node14" class="node">
<title>Node14</title>
<g id="a_node14"><a xlink:href="../../d8/d6e/htmlgen_8cpp.html" target="_top" xlink:title=" ">
<polygon fill="white" stroke="#666666" points="1177,-19 1082,-19 1082,0 1177,0 1177,-19"/>
<text text-anchor="middle" x="1129.5" y="-7" font-family="Helvetica,sans-Serif" font-size="10.00">src/htmlgen.cpp</text>
</a>
</g>
</g>
<!-- Node2&#45;&gt;Node14 -->
<g id="edge15" class="edge">
<title>Node2&#45;&gt;Node14</title>
<path fill="none" stroke="#63b8ff" d="M1008.59,-112.48C1055.11,-105.91 1118.21,-93.61 1133.5,-74 1145.86,-58.15 1138.62,-32.74 1133.41,-19.38"/>
<polygon fill="#63b8ff" stroke="#63b8ff" points="1008.08,-109.02 998.65,-113.84 1009.03,-115.95 1008.08,-109.02"/>
</g>
<!-- Node15 -->
<g id="node15" class="node">
<title>Node15</title>
<g id="a_node15"><a xlink:href="../../d8/d99/latexdocvisitor_8h.html" target="_top" xlink:title=" ">
<polygon fill="white" stroke="#666666" points="718,-74 603,-74 603,-55 718,-55 718,-74"/>
<text text-anchor="middle" x="660.5" y="-62" font-family="Helvetica,sans-Serif" font-size="10.00">src/latexdocvisitor.h</text>
</a>
</g>
</g>
<!-- Node2&#45;&gt;Node15 -->
<g id="edge16" class="edge">
<title>Node2&#45;&gt;Node15</title>
<path fill="none" stroke="#63b8ff" d="M904.42,-109.18C848.92,-99.24 761.8,-83.64 708.08,-74.02"/>
<polygon fill="#63b8ff" stroke="#63b8ff" points="903.94,-112.65 914.4,-110.96 905.18,-105.75 903.94,-112.65"/>
</g>
<!-- Node17 -->
<g id="node17" class="node">
<title>Node17</title>
<g id="a_node17"><a xlink:href="../../d4/d42/latexgen_8cpp.html" target="_top" xlink:title=" ">
<polygon fill="white" stroke="#666666" points="706,-19 609,-19 609,0 706,0 706,-19"/>
<text text-anchor="middle" x="657.5" y="-7" font-family="Helvetica,sans-Serif" font-size="10.00">src/latexgen.cpp</text>
</a>
</g>
</g>
<!-- Node2&#45;&gt;Node17 -->
<g id="edge21" class="edge">
<title>Node2&#45;&gt;Node17</title>
<path fill="none" stroke="#63b8ff" d="M904.47,-108.91C868.43,-101.44 819.72,-89.71 778.5,-74 737.71,-58.45 693.05,-32.45 671.15,-19.05"/>
<polygon fill="#63b8ff" stroke="#63b8ff" points="903.78,-112.34 914.28,-110.9 905.17,-105.48 903.78,-112.34"/>
</g>
<!-- Node19 -->
<g id="node19" class="node">
<title>Node19</title>
<g id="a_node19"><a xlink:href="../../d6/d6e/mandocvisitor_8h.html" target="_top" xlink:title=" ">
<polygon fill="white" stroke="#666666" points="1298.5,-74 1186.5,-74 1186.5,-55 1298.5,-55 1298.5,-74"/>
<text text-anchor="middle" x="1242.5" y="-62" font-family="Helvetica,sans-Serif" font-size="10.00">src/mandocvisitor.h</text>
</a>
</g>
</g>
<!-- Node2&#45;&gt;Node19 -->
<g id="edge22" class="edge">
<title>Node2&#45;&gt;Node19</title>
<path fill="none" stroke="#63b8ff" d="M1008.69,-108.83C1062.32,-98.89 1145.01,-83.57 1196.33,-74.06"/>
<polygon fill="#63b8ff" stroke="#63b8ff" points="1007.9,-105.42 998.7,-110.68 1009.17,-112.3 1007.9,-105.42"/>
</g>
<!-- Node22 -->
<g id="node22" class="node">
<title>Node22</title>
<g id="a_node22"><a xlink:href="../../db/d33/msc_8cpp.html" target="_top" xlink:title=" ">
<polygon fill="white" stroke="#666666" points="993.5,-74 919.5,-74 919.5,-55 993.5,-55 993.5,-74"/>
<text text-anchor="middle" x="956.5" y="-62" font-family="Helvetica,sans-Serif" font-size="10.00">src/msc.cpp</text>
</a>
</g>
</g>
<!-- Node2&#45;&gt;Node22 -->
<g id="edge25" class="edge">
<title>Node2&#45;&gt;Node22</title>
<path fill="none" stroke="#63b8ff" d="M956.5,-99.66C956.5,-90.93 956.5,-80.99 956.5,-74.09"/>
<polygon fill="#63b8ff" stroke="#63b8ff" points="953,-99.75 956.5,-109.75 960,-99.75 953,-99.75"/>
</g>
<!-- Node23 -->
<g id="node23" class="node">
<title>Node23</title>
<g id="a_node23"><a xlink:href="../../de/dd0/perlmodgen_8cpp.html" target="_top" xlink:title=" ">
<polygon fill="white" stroke="#666666" points="1125,-74 1012,-74 1012,-55 1125,-55 1125,-74"/>
<text text-anchor="middle" x="1068.5" y="-62" font-family="Helvetica,sans-Serif" font-size="10.00">src/perlmodgen.cpp</text>
</a>
</g>
</g>
<!-- Node2&#45;&gt;Node23 -->
<g id="edge26" class="edge">
<title>Node2&#45;&gt;Node23</title>
<path fill="none" stroke="#63b8ff" d="M983.69,-105.63C1004.32,-95.87 1032.12,-82.71 1050.18,-74.17"/>
<polygon fill="#63b8ff" stroke="#63b8ff" points="982.04,-102.54 974.49,-109.98 985.03,-108.87 982.04,-102.54"/>
</g>
<!-- Node24 -->
<g id="node24" class="node">
<title>Node24</title>
<g id="a_node24"><a xlink:href="../../d1/da7/rtfdocvisitor_8h.html" target="_top" xlink:title=" ">
<polygon fill="white" stroke="#666666" points="1556,-74 1455,-74 1455,-55 1556,-55 1556,-74"/>
<text text-anchor="middle" x="1505.5" y="-62" font-family="Helvetica,sans-Serif" font-size="10.00">src/rtfdocvisitor.h</text>
</a>
</g>
</g>
<!-- Node2&#45;&gt;Node24 -->
<g id="edge27" class="edge">
<title>Node2&#45;&gt;Node24</title>
<path fill="none" stroke="#63b8ff" d="M1008.75,-113.46C1114.14,-103.28 1351,-80.42 1454.96,-70.38"/>
<polygon fill="#63b8ff" stroke="#63b8ff" points="1008.28,-109.98 998.67,-114.43 1008.96,-116.95 1008.28,-109.98"/>
</g>
<!-- Node27 -->
<g id="node27" class="node">
<title>Node27</title>
<g id="a_node27"><a xlink:href="../../dd/d66/textdocvisitor_8h.html" target="_top" xlink:title=" ">
<polygon fill="white" stroke="#666666" points="584.5,-74 474.5,-74 474.5,-55 584.5,-55 584.5,-74"/>
<text text-anchor="middle" x="529.5" y="-62" font-family="Helvetica,sans-Serif" font-size="10.00">src/textdocvisitor.h</text>
</a>
</g>
</g>
<!-- Node2&#45;&gt;Node27 -->
<g id="edge30" class="edge">
<title>Node2&#45;&gt;Node27</title>
<path fill="none" stroke="#63b8ff" d="M904.32,-112.27C833.78,-103.81 704.1,-88.12 593.5,-74 590.61,-73.63 587.65,-73.25 584.65,-72.86"/>
<polygon fill="#63b8ff" stroke="#63b8ff" points="903.94,-115.75 914.29,-113.46 904.77,-108.8 903.94,-115.75"/>
</g>
<!-- Node29 -->
<g id="node29" class="node">
<title>Node29</title>
<g id="a_node29"><a xlink:href="../../df/d2b/xmldocvisitor_8h.html" target="_top" xlink:title=" ">
<polygon fill="white" stroke="#666666" points="1727,-74 1618,-74 1618,-55 1727,-55 1727,-74"/>
<text text-anchor="middle" x="1672.5" y="-62" font-family="Helvetica,sans-Serif" font-size="10.00">src/xmldocvisitor.h</text>
</a>
</g>
</g>
<!-- Node2&#45;&gt;Node29 -->
<g id="edge33" class="edge">
<title>Node2&#45;&gt;Node29</title>
<path fill="none" stroke="#63b8ff" d="M1008.55,-114.79C1113.64,-107.27 1358.7,-89.63 1564.5,-74 1581.85,-72.68 1600.76,-71.21 1617.84,-69.86"/>
<polygon fill="#63b8ff" stroke="#63b8ff" points="1008.25,-111.3 998.52,-115.5 1008.75,-118.28 1008.25,-111.3"/>
</g>
<!-- Node4 -->
<g id="node4" class="node">
<title>Node4</title>
<g id="a_node4"><a xlink:href="../../d8/d29/docbookgen_8cpp.html" target="_top" xlink:title=" ">
<polygon fill="white" stroke="#666666" points="2042,-19 1929,-19 1929,0 2042,0 2042,-19"/>
<text text-anchor="middle" x="1985.5" y="-7" font-family="Helvetica,sans-Serif" font-size="10.00">src/docbookgen.cpp</text>
</a>
</g>
</g>
<!-- Node3&#45;&gt;Node4 -->
<g id="edge3" class="edge">
<title>Node3&#45;&gt;Node4</title>
<path fill="none" stroke="#63b8ff" d="M1985.5,-44.66C1985.5,-35.93 1985.5,-25.99 1985.5,-19.09"/>
<polygon fill="#63b8ff" stroke="#63b8ff" points="1982,-44.75 1985.5,-54.75 1989,-44.75 1982,-44.75"/>
</g>
<!-- Node5 -->
<g id="node5" class="node">
<title>Node5</title>
<g id="a_node5"><a xlink:href="../../dc/d05/docbookvisitor_8cpp.html" target="_top" xlink:title=" ">
<polygon fill="white" stroke="#666666" points="2185,-19 2060,-19 2060,0 2185,0 2185,-19"/>
<text text-anchor="middle" x="2122.5" y="-7" font-family="Helvetica,sans-Serif" font-size="10.00">src/docbookvisitor.cpp</text>
</a>
</g>
</g>
<!-- Node3&#45;&gt;Node5 -->
<g id="edge4" class="edge">
<title>Node3&#45;&gt;Node5</title>
<path fill="none" stroke="#63b8ff" d="M2017.06,-51.29C2042.45,-41.47 2077.5,-27.91 2100.09,-19.17"/>
<polygon fill="#63b8ff" stroke="#63b8ff" points="2015.58,-48.11 2007.51,-54.98 2018.1,-54.64 2015.58,-48.11"/>
</g>
<!-- Node7&#45;&gt;Node6 -->
<g id="edge7" class="edge">
<title>Node7&#45;&gt;Node6</title>
<path fill="none" stroke="#63b8ff" d="M170.5,-44.66C170.5,-35.93 170.5,-25.99 170.5,-19.09"/>
<polygon fill="#63b8ff" stroke="#63b8ff" points="167,-44.75 170.5,-54.75 174,-44.75 167,-44.75"/>
</g>
<!-- Node8 -->
<g id="node8" class="node">
<title>Node8</title>
<g id="a_node8"><a xlink:href="../../da/d17/docparser_8cpp.html" target="_top" xlink:title=" ">
<polygon fill="white" stroke="#666666" points="105,-19 4,-19 4,0 105,0 105,-19"/>
<text text-anchor="middle" x="54.5" y="-7" font-family="Helvetica,sans-Serif" font-size="10.00">src/docparser.cpp</text>
</a>
</g>
</g>
<!-- Node7&#45;&gt;Node8 -->
<g id="edge8" class="edge">
<title>Node7&#45;&gt;Node8</title>
<path fill="none" stroke="#63b8ff" d="M142.63,-50.77C121.23,-40.99 92.26,-27.75 73.48,-19.17"/>
<polygon fill="#63b8ff" stroke="#63b8ff" points="141.31,-54.01 151.86,-54.98 144.22,-47.65 141.31,-54.01"/>
</g>
<!-- Node11 -->
<g id="node11" class="node">
<title>Node11</title>
<g id="a_node11"><a xlink:href="../../db/d12/context_8cpp.html" target="_top" xlink:title=" ">
<polygon fill="white" stroke="#666666" points="815,-19 724,-19 724,0 815,0 815,-19"/>
<text text-anchor="middle" x="769.5" y="-7" font-family="Helvetica,sans-Serif" font-size="10.00">src/context.cpp</text>
</a>
</g>
</g>
<!-- Node10&#45;&gt;Node11 -->
<g id="edge11" class="edge">
<title>Node10&#45;&gt;Node11</title>
<path fill="none" stroke="#63b8ff" d="M824.19,-49.15C810.64,-39.57 793.26,-27.29 781.77,-19.17"/>
<polygon fill="#63b8ff" stroke="#63b8ff" points="822.26,-52.07 832.45,-54.98 826.3,-46.36 822.26,-52.07"/>
</g>
<!-- Node12 -->
<g id="node12" class="node">
<title>Node12</title>
<g id="a_node12"><a xlink:href="../../db/d41/ftvhelp_8cpp.html" target="_top" xlink:title=" ">
<polygon fill="white" stroke="#666666" points="1063.5,-19 975.5,-19 975.5,0 1063.5,0 1063.5,-19"/>
<text text-anchor="middle" x="1019.5" y="-7" font-family="Helvetica,sans-Serif" font-size="10.00">src/ftvhelp.cpp</text>
</a>
</g>
</g>
<!-- Node10&#45;&gt;Node12 -->
<g id="edge12" class="edge">
<title>Node10&#45;&gt;Node12</title>
<path fill="none" stroke="#63b8ff" d="M882.29,-52.06C915,-42.15 961.57,-28.04 991.16,-19.08"/>
<polygon fill="#63b8ff" stroke="#63b8ff" points="881.17,-48.74 872.62,-54.98 883.2,-55.44 881.17,-48.74"/>
</g>
<!-- Node13 -->
<g id="node13" class="node">
<title>Node13</title>
<g id="a_node13"><a xlink:href="../../da/db0/htmldocvisitor_8cpp.html" target="_top" xlink:title=" ">
<polygon fill="white" stroke="#666666" points="957.5,-19 833.5,-19 833.5,0 957.5,0 957.5,-19"/>
<text text-anchor="middle" x="895.5" y="-7" font-family="Helvetica,sans-Serif" font-size="10.00">src/htmldocvisitor.cpp</text>
</a>
</g>
</g>
<!-- Node10&#45;&gt;Node13 -->
<g id="edge13" class="edge">
<title>Node10&#45;&gt;Node13</title>
<path fill="none" stroke="#63b8ff" d="M859.88,-47.52C868.87,-38.18 879.86,-26.75 887.24,-19.09"/>
<polygon fill="#63b8ff" stroke="#63b8ff" points="857.33,-45.12 852.92,-54.75 862.38,-49.97 857.33,-45.12"/>
</g>
<!-- Node10&#45;&gt;Node14 -->
<g id="edge14" class="edge">
<title>Node10&#45;&gt;Node14</title>
<path fill="none" stroke="#63b8ff" d="M900.28,-53.13C953.71,-43.19 1033.39,-28.37 1083.35,-19.08"/>
<polygon fill="#63b8ff" stroke="#63b8ff" points="899.48,-49.72 890.29,-54.98 900.76,-56.6 899.48,-49.72"/>
</g>
<!-- Node15&#45;&gt;Node11 -->
<g id="edge17" class="edge">
<title>Node15&#45;&gt;Node11</title>
<path fill="none" stroke="#63b8ff" d="M687.23,-50.5C707.29,-40.75 734.18,-27.68 751.67,-19.17"/>
<polygon fill="#63b8ff" stroke="#63b8ff" points="685.48,-47.46 678.01,-54.98 688.54,-53.76 685.48,-47.46"/>
</g>
<!-- Node15&#45;&gt;Node16 -->
<g id="edge18" class="edge">
<title>Node15&#45;&gt;Node16</title>
<path fill="none" stroke="#63b8ff" d="M592.74,-53.55C524.91,-43.59 421.65,-28.43 357.49,-19.01"/>
<polygon fill="#63b8ff" stroke="#63b8ff" points="592.5,-57.05 602.9,-55.04 593.51,-50.13 592.5,-57.05"/>
</g>
<!-- Node15&#45;&gt;Node17 -->
<g id="edge19" class="edge">
<title>Node15&#45;&gt;Node17</title>
<path fill="none" stroke="#63b8ff" d="M659.43,-44.66C658.94,-35.93 658.38,-25.99 657.99,-19.09"/>
<polygon fill="#63b8ff" stroke="#63b8ff" points="655.94,-44.96 660,-54.75 662.93,-44.57 655.94,-44.96"/>
</g>
<!-- Node18 -->
<g id="node18" class="node">
<title>Node18</title>
<g id="a_node18"><a xlink:href="../../df/d2d/util_8cpp.html" target="_top" xlink:title=" ">
<polygon fill="white" stroke="#666666" points="590.5,-19 520.5,-19 520.5,0 590.5,0 590.5,-19"/>
<text text-anchor="middle" x="555.5" y="-7" font-family="Helvetica,sans-Serif" font-size="10.00">src/util.cpp</text>
</a>
</g>
</g>
<!-- Node15&#45;&gt;Node18 -->
<g id="edge20" class="edge">
<title>Node15&#45;&gt;Node18</title>
<path fill="none" stroke="#63b8ff" d="M634.48,-50.37C615.2,-40.63 589.45,-27.64 572.68,-19.17"/>
<polygon fill="#63b8ff" stroke="#63b8ff" points="633.13,-53.6 643.63,-54.98 636.28,-47.35 633.13,-53.6"/>
</g>
<!-- Node20 -->
<g id="node20" class="node">
<title>Node20</title>
<g id="a_node20"><a xlink:href="../../d8/dde/mandocvisitor_8cpp.html" target="_top" xlink:title=" ">
<polygon fill="white" stroke="#666666" points="1431,-19 1308,-19 1308,0 1431,0 1431,-19"/>
<text text-anchor="middle" x="1369.5" y="-7" font-family="Helvetica,sans-Serif" font-size="10.00">src/mandocvisitor.cpp</text>
</a>
</g>
</g>
<!-- Node19&#45;&gt;Node20 -->
<g id="edge23" class="edge">
<title>Node19&#45;&gt;Node20</title>
<path fill="none" stroke="#63b8ff" d="M1272.38,-51.03C1295.87,-41.23 1327.97,-27.83 1348.72,-19.17"/>
<polygon fill="#63b8ff" stroke="#63b8ff" points="1270.79,-47.9 1262.9,-54.98 1273.48,-54.36 1270.79,-47.9"/>
</g>
<!-- Node21 -->
<g id="node21" class="node">
<title>Node21</title>
<g id="a_node21"><a xlink:href="../../d7/de7/mangen_8cpp.html" target="_top" xlink:title=" ">
<polygon fill="white" stroke="#666666" points="1289.5,-19 1195.5,-19 1195.5,0 1289.5,0 1289.5,-19"/>
<text text-anchor="middle" x="1242.5" y="-7" font-family="Helvetica,sans-Serif" font-size="10.00">src/mangen.cpp</text>
</a>
</g>
</g>
<!-- Node19&#45;&gt;Node21 -->
<g id="edge24" class="edge">
<title>Node19&#45;&gt;Node21</title>
<path fill="none" stroke="#63b8ff" d="M1242.5,-44.66C1242.5,-35.93 1242.5,-25.99 1242.5,-19.09"/>
<polygon fill="#63b8ff" stroke="#63b8ff" points="1239,-44.75 1242.5,-54.75 1246,-44.75 1239,-44.75"/>
</g>
<!-- Node25 -->
<g id="node25" class="node">
<title>Node25</title>
<g id="a_node25"><a xlink:href="../../de/d9a/rtfdocvisitor_8cpp.html" target="_top" xlink:title=" ">
<polygon fill="white" stroke="#666666" points="1562,-19 1449,-19 1449,0 1562,0 1562,-19"/>
<text text-anchor="middle" x="1505.5" y="-7" font-family="Helvetica,sans-Serif" font-size="10.00">src/rtfdocvisitor.cpp</text>
</a>
</g>
</g>
<!-- Node24&#45;&gt;Node25 -->
<g id="edge28" class="edge">
<title>Node24&#45;&gt;Node25</title>
<path fill="none" stroke="#63b8ff" d="M1505.5,-44.66C1505.5,-35.93 1505.5,-25.99 1505.5,-19.09"/>
<polygon fill="#63b8ff" stroke="#63b8ff" points="1502,-44.75 1505.5,-54.75 1509,-44.75 1502,-44.75"/>
</g>
<!-- Node26 -->
<g id="node26" class="node">
<title>Node26</title>
<g id="a_node26"><a xlink:href="../../d0/d9c/rtfgen_8cpp.html" target="_top" xlink:title=" ">
<polygon fill="white" stroke="#666666" points="1663,-19 1580,-19 1580,0 1663,0 1663,-19"/>
<text text-anchor="middle" x="1621.5" y="-7" font-family="Helvetica,sans-Serif" font-size="10.00">src/rtfgen.cpp</text>
</a>
</g>
</g>
<!-- Node24&#45;&gt;Node26 -->
<g id="edge29" class="edge">
<title>Node24&#45;&gt;Node26</title>
<path fill="none" stroke="#63b8ff" d="M1533.37,-50.77C1554.77,-40.99 1583.74,-27.75 1602.52,-19.17"/>
<polygon fill="#63b8ff" stroke="#63b8ff" points="1531.78,-47.65 1524.14,-54.98 1534.69,-54.01 1531.78,-47.65"/>
</g>
<!-- Node27&#45;&gt;Node18 -->
<g id="edge32" class="edge">
<title>Node27&#45;&gt;Node18</title>
<path fill="none" stroke="#63b8ff" d="M538.32,-45.53C542.7,-36.6 547.79,-26.22 551.29,-19.09"/>
<polygon fill="#63b8ff" stroke="#63b8ff" points="535.06,-44.23 533.79,-54.75 541.34,-47.31 535.06,-44.23"/>
</g>
<!-- Node28 -->
<g id="node28" class="node">
<title>Node28</title>
<g id="a_node28"><a xlink:href="../../d3/da6/textdocvisitor_8cpp.html" target="_top" xlink:title=" ">
<polygon fill="white" stroke="#666666" points="502,-19 381,-19 381,0 502,0 502,-19"/>
<text text-anchor="middle" x="441.5" y="-7" font-family="Helvetica,sans-Serif" font-size="10.00">src/textdocvisitor.cpp</text>
</a>
</g>
</g>
<!-- Node27&#45;&gt;Node28 -->
<g id="edge31" class="edge">
<title>Node27&#45;&gt;Node28</title>
<path fill="none" stroke="#63b8ff" d="M506.58,-49.7C490.55,-40.04 469.63,-27.44 455.9,-19.17"/>
<polygon fill="#63b8ff" stroke="#63b8ff" points="504.99,-52.82 515.36,-54.98 508.6,-46.83 504.99,-52.82"/>
</g>
<!-- Node30 -->
<g id="node30" class="node">
<title>Node30</title>
<g id="a_node30"><a xlink:href="../../dd/db6/xmldocvisitor_8cpp.html" target="_top" xlink:title=" ">
<polygon fill="white" stroke="#666666" points="1801.5,-19 1681.5,-19 1681.5,0 1801.5,0 1801.5,-19"/>
<text text-anchor="middle" x="1741.5" y="-7" font-family="Helvetica,sans-Serif" font-size="10.00">src/xmldocvisitor.cpp</text>
</a>
</g>
</g>
<!-- Node29&#45;&gt;Node30 -->
<g id="edge34" class="edge">
<title>Node29&#45;&gt;Node30</title>
<path fill="none" stroke="#63b8ff" d="M1691.54,-48.88C1703.96,-39.34 1719.74,-27.21 1730.21,-19.17"/>
<polygon fill="#63b8ff" stroke="#63b8ff" points="1689.38,-46.12 1683.59,-54.98 1693.65,-51.67 1689.38,-46.12"/>
</g>
<!-- Node31 -->
<g id="node31" class="node">
<title>Node31</title>
<g id="a_node31"><a xlink:href="../../d0/dc3/xmlgen_8cpp.html" target="_top" xlink:title=" ">
<polygon fill="white" stroke="#666666" points="1911,-19 1820,-19 1820,0 1911,0 1911,-19"/>
<text text-anchor="middle" x="1865.5" y="-7" font-family="Helvetica,sans-Serif" font-size="10.00">src/xmlgen.cpp</text>
</a>
</g>
</g>
<!-- Node29&#45;&gt;Node31 -->
<g id="edge35" class="edge">
<title>Node29&#45;&gt;Node31</title>
<path fill="none" stroke="#63b8ff" d="M1713.25,-52.31C1749.36,-42.39 1801.33,-28.12 1834.25,-19.08"/>
<polygon fill="#63b8ff" stroke="#63b8ff" points="1712.22,-48.96 1703.51,-54.98 1714.08,-55.71 1712.22,-48.96"/>
</g>
<!-- Node32&#45;&gt;Node6 -->
<g id="edge37" class="edge">
<title>Node32&#45;&gt;Node6</title>
<path fill="none" stroke="#63b8ff" d="M213.55,-102.86C225.97,-90.11 238.84,-71.57 230.5,-55 222.1,-38.32 204.17,-26.32 190.08,-19.02"/>
<polygon fill="#63b8ff" stroke="#63b8ff" points="210.9,-100.55 206.07,-109.98 215.73,-105.62 210.9,-100.55"/>
</g>
<!-- Node32&#45;&gt;Node7 -->
<g id="edge38" class="edge">
<title>Node32&#45;&gt;Node7</title>
<path fill="none" stroke="#63b8ff" d="M187.02,-100.53C182.81,-91.6 177.91,-81.22 174.55,-74.09"/>
<polygon fill="#63b8ff" stroke="#63b8ff" points="183.94,-102.2 191.37,-109.75 190.27,-99.21 183.94,-102.2"/>
</g>
<!-- Node33 -->
<g id="node33" class="node">
<title>Node33</title>
<g id="a_node33"><a xlink:href="../../d1/d39/doctokenizer_8l.html" target="_top" xlink:title=" ">
<polygon fill="white" stroke="#666666" points="101,-74 0,-74 0,-55 101,-55 101,-74"/>
<text text-anchor="middle" x="50.5" y="-62" font-family="Helvetica,sans-Serif" font-size="10.00">src/doctokenizer.l</text>
</a>
</g>
</g>
<!-- Node32&#45;&gt;Node33 -->
<g id="edge39" class="edge">
<title>Node32&#45;&gt;Node33</title>
<path fill="none" stroke="#63b8ff" d="M162.81,-106.55C135.88,-96.71 98.34,-82.98 74.22,-74.17"/>
<polygon fill="#63b8ff" stroke="#63b8ff" points="161.61,-109.84 172.2,-109.98 164.01,-103.26 161.61,-109.84"/>
</g>
</g>
</svg>
