<?xml version="1.0" encoding="UTF-8" standalone="no"?>
<!DOCTYPE svg PUBLIC "-//W3C//DTD SVG 1.1//EN"
 "http://www.w3.org/Graphics/SVG/1.1/DTD/svg11.dtd">
<!-- Generated by graphviz version 2.40.1 (20161225.0304)
 -->
<!-- Title: ConstExpressionParser Pages: 1 -->
<svg width="152pt" height="236pt"
 viewBox="0.00 0.00 152.00 236.00" xmlns="http://www.w3.org/2000/svg" xmlns:xlink="http://www.w3.org/1999/xlink">
<g id="graph0" class="graph" transform="scale(1 1) rotate(0) translate(4 232)">
<title>ConstExpressionParser</title>
<!-- Node1 -->
<g id="node1" class="node">
<title>Node1</title>
<g id="a_node1"><a xlink:title=" ">
<polygon fill="#999999" stroke="#666666" points="120,-19 0,-19 0,0 120,0 120,-19"/>
<text text-anchor="middle" x="60" y="-7" font-family="Helvetica,sans-Serif" font-size="10.00" fill="#000000">ConstExpressionParser</text>
</a>
</g>
</g>
<!-- Node2 -->
<g id="node2" class="node">
<title>Node2</title>
<g id="a_node2"><a xlink:href="../../d7/dc3/struct_const_expression_parser_1_1_private.html" target="_top" xlink:title=" ">
<polygon fill="#ffffff" stroke="#666666" points="120,-96 0,-96 0,-66 120,-66 120,-96"/>
<text text-anchor="start" x="8" y="-84" font-family="Helvetica,sans-Serif" font-size="10.00" fill="#000000">ConstExpressionParser</text>
<text text-anchor="middle" x="60" y="-73" font-family="Helvetica,sans-Serif" font-size="10.00" fill="#000000">::Private</text>
</a>
</g>
</g>
<!-- Node2&#45;&gt;Node1 -->
<g id="edge1" class="edge">
<title>Node2&#45;&gt;Node1</title>
<path fill="none" stroke="#9a32cd" stroke-dasharray="5,2" d="M60,-55.8098C60,-43.141 60,-28.5285 60,-19.1614"/>
<polygon fill="#9a32cd" stroke="#9a32cd" points="56.5001,-55.8367 60,-65.8367 63.5001,-55.8367 56.5001,-55.8367"/>
<text text-anchor="middle" x="64.5" y="-40" font-family="Helvetica,sans-Serif" font-size="10.00" fill="#000000"> p</text>
</g>
<!-- Node3 -->
<g id="node3" class="node">
<title>Node3</title>
<g id="a_node3"><a xlink:href="../../d3/d1e/structconstexp_y_y__state.html" target="_top" xlink:title=" ">
<polygon fill="#ffffff" stroke="#666666" points="108.5,-162 11.5,-162 11.5,-143 108.5,-143 108.5,-162"/>
<text text-anchor="middle" x="60" y="-150" font-family="Helvetica,sans-Serif" font-size="10.00" fill="#000000">constexpYY_state</text>
</a>
</g>
</g>
<!-- Node3&#45;&gt;Node2 -->
<g id="edge2" class="edge">
<title>Node3&#45;&gt;Node2</title>
<path fill="none" stroke="#9a32cd" stroke-dasharray="5,2" d="M60,-132.5057C60,-121.0142 60,-106.8078 60,-96.2276"/>
<polygon fill="#9a32cd" stroke="#9a32cd" points="56.5001,-132.8572 60,-142.8572 63.5001,-132.8572 56.5001,-132.8572"/>
<text text-anchor="middle" x="102" y="-117" font-family="Helvetica,sans-Serif" font-size="10.00" fill="#000000"> constexpYY_extra</text>
</g>
<!-- Node4 -->
<g id="node4" class="node">
<title>Node4</title>
<g id="a_node4"><a xlink:href="../../d2/d75/class_c_p_p_value.html" target="_top" xlink:title="A class representing a C&#45;preprocessor value.">
<polygon fill="#ffffff" stroke="#666666" points="91,-228 29,-228 29,-209 91,-209 91,-228"/>
<text text-anchor="middle" x="60" y="-216" font-family="Helvetica,sans-Serif" font-size="10.00" fill="#000000">CPPValue</text>
</a>
</g>
</g>
<!-- Node4&#45;&gt;Node3 -->
<g id="edge3" class="edge">
<title>Node4&#45;&gt;Node3</title>
<path fill="none" stroke="#9a32cd" stroke-dasharray="5,2" d="M60,-198.732C60,-186.6966 60,-171.847 60,-162.2785"/>
<polygon fill="#9a32cd" stroke="#9a32cd" points="56.5001,-198.7614 60,-208.7615 63.5001,-198.7615 56.5001,-198.7614"/>
<text text-anchor="middle" x="86" y="-183" font-family="Helvetica,sans-Serif" font-size="10.00" fill="#000000"> resultValue</text>
</g>
</g>
</svg>
