<?xml version="1.0" encoding="UTF-8" standalone="no"?>
<!DOCTYPE svg PUBLIC "-//W3C//DTD SVG 1.1//EN"
 "http://www.w3.org/Graphics/SVG/1.1/DTD/svg11.dtd">
<!-- Generated by graphviz version 2.40.1 (20161225.0304)
 -->
<!-- Title: vhdl::parser::VhdlParser Pages: 1 -->
<!--zoomable 359 -->
<svg id="main" version="1.1" xmlns="http://www.w3.org/2000/svg" xmlns:xlink="http://www.w3.org/1999/xlink" xml:space="preserve" onload="init(evt)">
<style type="text/css"><![CDATA[
.edge:hover path { stroke: red; }
.edge:hover polygon { stroke: red; fill: red; }
]]></style>
<script type="text/javascript"><![CDATA[
var edges = document.getElementsByTagName('g');
if (edges && edges.length) {
  for (var i=0;i<edges.length;i++) {
    if (edges[i].id.substr(0,4)=='edge') {
      edges[i].setAttribute('class','edge');
    }
  }
}
]]></script>
        <defs>
                <circle id="rim" cx="0" cy="0" r="7"/>
                <circle id="rim2" cx="0" cy="0" r="3.5"/>
                <g id="zoomPlus">
                        <use xlink:href="#rim" fill="#404040">
                                <set attributeName="fill" to="#808080" begin="zoomplus.mouseover" end="zoomplus.mouseout"/>
                        </use>
                        <path d="M-4,0h8M0,-4v8" fill="none" stroke="white" stroke-width="1.5" pointer-events="none"/>
                </g>
                <g id="zoomMin">
                        <use xlink:href="#rim" fill="#404040">
                                <set attributeName="fill" to="#808080" begin="zoomminus.mouseover" end="zoomminus.mouseout"/>
                        </use>
                        <path d="M-4,0h8" fill="none" stroke="white" stroke-width="1.5" pointer-events="none"/>
                </g>
                <g id="dirArrow">
                        <path fill="none" stroke="white" stroke-width="1.5" d="M0,-3.0v7 M-2.5,-0.5L0,-3.0L2.5,-0.5"/>
                </g>
               <g id="resetDef">
                       <use xlink:href="#rim2" fill="#404040">
                               <set attributeName="fill" to="#808080" begin="reset.mouseover" end="reset.mouseout"/>
                       </use>
               </g>
        </defs>

<script type="text/javascript">
var viewWidth = 584;
var viewHeight = 359;
var sectionId = 'dynsection-0';
</script>
<script xlink:href="../../svgpan.js"/>
<svg id="graph" class="graph">
<g id="viewport">
<title>vhdl::parser::VhdlParser</title>
<!-- Node1 -->
<g id="node1" class="node">
<title>Node1</title>
<g id="a_node1"><a xlink:title=" ">
<polygon fill="#999999" stroke="#666666" points="576,-156 454,-156 454,-137 576,-137 576,-156"/>
<text text-anchor="middle" x="515" y="-144" font-family="Helvetica,sans-Serif" font-size="10.00" fill="#000000">vhdl::parser::VhdlParser</text>
</a>
</g>
</g>
<!-- Node2 -->
<g id="node2" class="node">
<title>Node2</title>
<g id="a_node2"><a xlink:href="../../d3/d2c/classvhdl_1_1parser_1_1_token_manager.html" target="_top" xlink:title="An implementation for this interface is generated by JavaCCParser.">
<polygon fill="#ffffff" stroke="#666666" points="344,-351 206,-351 206,-332 344,-332 344,-351"/>
<text text-anchor="middle" x="275" y="-339" font-family="Helvetica,sans-Serif" font-size="10.00" fill="#000000">vhdl::parser::TokenManager</text>
</a>
</g>
</g>
<!-- Node2&#45;&gt;Node1 -->
<g id="edge1" class="edge">
<title>Node2&#45;&gt;Node1</title>
<path fill="none" stroke="#9a32cd" stroke-dasharray="5,2" d="M352.8315,-329.4779C381.5266,-321.8849 412.6872,-309.5395 436,-289.5 480.5231,-251.2283 504.6961,-181.3523 512.3186,-156.005"/>
<polygon fill="#9a32cd" stroke="#9a32cd" points="351.6623,-326.1619 342.8015,-331.9702 353.3504,-332.9553 351.6623,-326.1619"/>
<text text-anchor="middle" x="399" y="-329.5" font-family="Helvetica,sans-Serif" font-size="10.00" fill="#000000"> token_source</text>
</g>
<!-- Node3 -->
<g id="node3" class="node">
<title>Node3</title>
<g id="a_node3"><a xlink:href="../../d2/d98/classvhdl_1_1parser_1_1_char_stream.html" target="_top" xlink:title="This class describes a character stream that maintains line and column number positions of the charac...">
<polygon fill="#ffffff" stroke="#666666" points="338,-314 212,-314 212,-295 338,-295 338,-314"/>
<text text-anchor="middle" x="275" y="-302" font-family="Helvetica,sans-Serif" font-size="10.00" fill="#000000">vhdl::parser::CharStream</text>
</a>
</g>
</g>
<!-- Node3&#45;&gt;Node1 -->
<g id="edge2" class="edge">
<title>Node3&#45;&gt;Node1</title>
<path fill="none" stroke="#9a32cd" stroke-dasharray="5,2" d="M319.6369,-291.9203C353.7947,-280.8177 400.8526,-262.2127 436,-235.5 467.4174,-211.6221 495.93,-173.8321 508.3836,-156.1813"/>
<polygon fill="#9a32cd" stroke="#9a32cd" points="318.4034,-288.6394 309.9224,-294.9894 320.5123,-295.3142 318.4034,-288.6394"/>
<text text-anchor="middle" x="399" y="-277.5" font-family="Helvetica,sans-Serif" font-size="10.00" fill="#000000"> jj_input_stream</text>
</g>
<!-- Node4 -->
<g id="node4" class="node">
<title>Node4</title>
<g id="a_node4"><a xlink:href="../../d4/d89/class_reader_stream.html" target="_top" xlink:title=" ">
<polygon fill="#ffffff" stroke="#666666" points="97,-314 17,-314 17,-295 97,-295 97,-314"/>
<text text-anchor="middle" x="57" y="-302" font-family="Helvetica,sans-Serif" font-size="10.00" fill="#000000">ReaderStream</text>
</a>
</g>
</g>
<!-- Node4&#45;&gt;Node3 -->
<g id="edge3" class="edge">
<title>Node4&#45;&gt;Node3</title>
<path fill="none" stroke="#9a32cd" stroke-dasharray="5,2" d="M107.4154,-304.5C138.5155,-304.5 178.6684,-304.5 211.8739,-304.5"/>
<polygon fill="#9a32cd" stroke="#9a32cd" points="107.2386,-301.0001 97.2386,-304.5 107.2386,-308.0001 107.2386,-301.0001"/>
<text text-anchor="middle" x="160" y="-307.5" font-family="Helvetica,sans-Serif" font-size="10.00" fill="#000000"> inputStream</text>
</g>
<!-- Node5 -->
<g id="node5" class="node">
<title>Node5</title>
<g id="a_node5"><a xlink:href="../../dc/de7/classvhdl_1_1parser_1_1_token.html" target="_top" xlink:title="Describes the input token stream.">
<polygon fill="#ffffff" stroke="#666666" points="107.5,-212 6.5,-212 6.5,-193 107.5,-193 107.5,-212"/>
<text text-anchor="middle" x="57" y="-200" font-family="Helvetica,sans-Serif" font-size="10.00" fill="#000000">vhdl::parser::Token</text>
</a>
</g>
</g>
<!-- Node5&#45;&gt;Node1 -->
<g id="edge4" class="edge">
<title>Node5&#45;&gt;Node1</title>
<path fill="none" stroke="#9a32cd" stroke-dasharray="5,2" d="M117.7771,-205.1075C176.1345,-206.6 266.5957,-206.259 344,-194.5 396.4345,-186.5344 455.6022,-167.6046 488.7857,-156.0395"/>
<polygon fill="#9a32cd" stroke="#9a32cd" points="117.7173,-201.6045 107.6225,-204.8209 117.5198,-208.6017 117.7173,-201.6045"/>
<text text-anchor="middle" x="275" y="-251.5" font-family="Helvetica,sans-Serif" font-size="10.00" fill="#000000"> head</text>
<text text-anchor="middle" x="275" y="-240.5" font-family="Helvetica,sans-Serif" font-size="10.00" fill="#000000">jj_lastpos</text>
<text text-anchor="middle" x="275" y="-229.5" font-family="Helvetica,sans-Serif" font-size="10.00" fill="#000000">jj_nt</text>
<text text-anchor="middle" x="275" y="-218.5" font-family="Helvetica,sans-Serif" font-size="10.00" fill="#000000">jj_scanpos</text>
<text text-anchor="middle" x="275" y="-207.5" font-family="Helvetica,sans-Serif" font-size="10.00" fill="#000000">token</text>
</g>
<!-- Node5&#45;&gt;Node5 -->
<g id="edge5" class="edge">
<title>Node5&#45;&gt;Node5</title>
<path fill="none" stroke="#9a32cd" stroke-dasharray="5,2" d="M38.2161,-221.9133C39.6914,-226.5591 45.9527,-230 57,-230 75.1289,-230 80.3693,-220.7337 72.7212,-212.0828"/>
<polygon fill="#9a32cd" stroke="#9a32cd" points="41.6458,-222.6713 41.2788,-212.0828 34.9626,-220.5891 41.6458,-222.6713"/>
<text text-anchor="middle" x="57" y="-244" font-family="Helvetica,sans-Serif" font-size="10.00" fill="#000000"> next</text>
<text text-anchor="middle" x="57" y="-233" font-family="Helvetica,sans-Serif" font-size="10.00" fill="#000000">specialToken</text>
</g>
<!-- Node6 -->
<g id="node6" class="node">
<title>Node6</title>
<g id="a_node6"><a xlink:href="../../d8/da3/structvhdl_1_1parser_1_1_j_j_calls.html" target="_top" xlink:title=" ">
<polygon fill="#ffffff" stroke="#666666" points="328.5,-156 221.5,-156 221.5,-137 328.5,-137 328.5,-156"/>
<text text-anchor="middle" x="275" y="-144" font-family="Helvetica,sans-Serif" font-size="10.00" fill="#000000">vhdl::parser::JJCalls</text>
</a>
</g>
</g>
<!-- Node5&#45;&gt;Node6 -->
<g id="edge8" class="edge">
<title>Node5&#45;&gt;Node6</title>
<path fill="none" stroke="#9a32cd" stroke-dasharray="5,2" d="M104.2939,-190.3511C144.4093,-180.0462 201.1535,-165.4697 238.0135,-156.0011"/>
<polygon fill="#9a32cd" stroke="#9a32cd" points="103.2902,-186.9952 94.4755,-192.8733 105.0319,-193.7751 103.2902,-186.9952"/>
<text text-anchor="middle" x="160" y="-185.5" font-family="Helvetica,sans-Serif" font-size="10.00" fill="#000000"> first</text>
</g>
<!-- Node6&#45;&gt;Node1 -->
<g id="edge6" class="edge">
<title>Node6&#45;&gt;Node1</title>
<path fill="none" stroke="#9a32cd" stroke-dasharray="5,2" d="M338.8622,-146.5C374.545,-146.5 418.7768,-146.5 453.9887,-146.5"/>
<polygon fill="#9a32cd" stroke="#9a32cd" points="338.562,-143.0001 328.562,-146.5 338.5619,-150.0001 338.562,-143.0001"/>
<text text-anchor="middle" x="399" y="-149.5" font-family="Helvetica,sans-Serif" font-size="10.00" fill="#000000"> jj_2_rtns</text>
</g>
<!-- Node6&#45;&gt;Node6 -->
<g id="edge7" class="edge">
<title>Node6&#45;&gt;Node6</title>
<path fill="none" stroke="#9a32cd" stroke-dasharray="5,2" d="M253.8899,-165.5536C255.2997,-170.3804 262.3364,-174 275,-174 295.2617,-174 301.1186,-164.7337 292.5707,-156.0828"/>
<polygon fill="#9a32cd" stroke="#9a32cd" points="257.2071,-166.6753 257.4293,-156.0828 250.65,-164.2248 257.2071,-166.6753"/>
<text text-anchor="middle" x="275" y="-177" font-family="Helvetica,sans-Serif" font-size="10.00" fill="#000000"> next</text>
</g>
<!-- Node7 -->
<g id="node7" class="node">
<title>Node7</title>
<g id="a_node7"><a xlink:href="../../df/d0f/classvhdl_1_1parser_1_1_error_handler.html" target="_top" xlink:title=" ">
<polygon fill="#ffffff" stroke="#666666" points="339,-119 211,-119 211,-100 339,-100 339,-119"/>
<text text-anchor="middle" x="275" y="-107" font-family="Helvetica,sans-Serif" font-size="10.00" fill="#000000">vhdl::parser::ErrorHandler</text>
</a>
</g>
</g>
<!-- Node7&#45;&gt;Node1 -->
<g id="edge9" class="edge">
<title>Node7&#45;&gt;Node1</title>
<path fill="none" stroke="#9a32cd" stroke-dasharray="5,2" d="M349.5961,-118.8739C376.8335,-122.5124 407.8546,-126.9082 436,-131.5 446.0581,-133.1409 456.8037,-135.0657 467.0269,-136.9791"/>
<polygon fill="#9a32cd" stroke="#9a32cd" points="349.7293,-115.361 339.3563,-117.5176 348.8101,-122.3004 349.7293,-115.361"/>
<text text-anchor="middle" x="399" y="-134.5" font-family="Helvetica,sans-Serif" font-size="10.00" fill="#000000"> errorHandler</text>
</g>
<!-- Node8 -->
<g id="node8" class="node">
<title>Node8</title>
<g id="a_node8"><a xlink:href="../../df/d4b/class_v_h_d_l_outline_parser.html" target="_top" xlink:title="VHDL parser using state&#45;based lexical scanning.">
<polygon fill="#ffffff" stroke="#666666" points="326.5,-82 223.5,-82 223.5,-63 326.5,-63 326.5,-82"/>
<text text-anchor="middle" x="275" y="-70" font-family="Helvetica,sans-Serif" font-size="10.00" fill="#000000">VHDLOutlineParser</text>
</a>
</g>
</g>
<!-- Node8&#45;&gt;Node1 -->
<g id="edge10" class="edge">
<title>Node8&#45;&gt;Node1</title>
<path fill="none" stroke="#9a32cd" stroke-dasharray="5,2" d="M336.7907,-81.0503C367.2087,-86.289 404.1043,-94.2013 436,-105.5 459.1591,-113.7038 484.0251,-127.533 499.5439,-136.8351"/>
<polygon fill="#9a32cd" stroke="#9a32cd" points="337.1793,-77.5669 326.74,-79.3752 336.0285,-84.4716 337.1793,-77.5669"/>
<text text-anchor="middle" x="399" y="-108.5" font-family="Helvetica,sans-Serif" font-size="10.00" fill="#000000"> m_outlineParser</text>
</g>
<!-- Node9 -->
<g id="node9" class="node">
<title>Node9</title>
<g id="a_node9"><a xlink:href="../../d5/d79/class_outline_parser_interface.html" target="_top" xlink:title="Abstract interface for outline parsers.">
<polygon fill="#ffffff" stroke="#666666" points="114,-89 0,-89 0,-70 114,-70 114,-89"/>
<text text-anchor="middle" x="57" y="-77" font-family="Helvetica,sans-Serif" font-size="10.00" fill="#000000">OutlineParserInterface</text>
</a>
</g>
</g>
<!-- Node9&#45;&gt;Node8 -->
<g id="edge11" class="edge">
<title>Node9&#45;&gt;Node8</title>
<path fill="none" stroke="#63b8ff" d="M124.412,-77.3354C156.2846,-76.312 193.7383,-75.1093 223.3198,-74.1595"/>
<polygon fill="#63b8ff" stroke="#63b8ff" points="124.1594,-73.8416 114.2769,-77.6608 124.3841,-80.838 124.1594,-73.8416"/>
</g>
<!-- Node10 -->
<g id="node10" class="node">
<title>Node10</title>
<g id="a_node10"><a xlink:href="../../d9/da2/structvhdl_1_1parser_1_1_vhdl_parser_1_1_shared_state.html" target="_top" xlink:title=" ">
<polygon fill="#ffffff" stroke="#666666" points="336,-37.5 214,-37.5 214,-7.5 336,-7.5 336,-37.5"/>
<text text-anchor="start" x="222" y="-25.5" font-family="Helvetica,sans-Serif" font-size="10.00" fill="#000000">vhdl::parser::VhdlParser</text>
<text text-anchor="middle" x="275" y="-14.5" font-family="Helvetica,sans-Serif" font-size="10.00" fill="#000000">::SharedState</text>
</a>
</g>
</g>
<!-- Node10&#45;&gt;Node1 -->
<g id="edge12" class="edge">
<title>Node10&#45;&gt;Node1</title>
<path fill="none" stroke="#9a32cd" stroke-dasharray="5,2" d="M345.9965,-35.9307C375.1735,-43.3741 408.4953,-54.4622 436,-70.5 466.7443,-88.4268 494.7263,-120.7161 507.5768,-136.8197"/>
<polygon fill="#9a32cd" stroke="#9a32cd" points="346.8211,-32.5293 336.275,-33.5442 345.1522,-39.3274 346.8211,-32.5293"/>
<text text-anchor="middle" x="399" y="-73.5" font-family="Helvetica,sans-Serif" font-size="10.00" fill="#000000"> m_sharedState</text>
</g>
<!-- Node11 -->
<g id="node11" class="node">
<title>Node11</title>
<g id="a_node11"><a xlink:href="../../d9/d45/class_q_c_string.html" target="_top" xlink:title="This is an alternative implementation of QCString.">
<polygon fill="#ffffff" stroke="#666666" points="85.5,-19 28.5,-19 28.5,0 85.5,0 85.5,-19"/>
<text text-anchor="middle" x="57" y="-7" font-family="Helvetica,sans-Serif" font-size="10.00" fill="#000000">QCString</text>
</a>
</g>
</g>
<!-- Node11&#45;&gt;Node10 -->
<g id="edge13" class="edge">
<title>Node11&#45;&gt;Node10</title>
<path fill="none" stroke="#9a32cd" stroke-dasharray="5,2" d="M95.8653,-10.9282C121.9394,-11.973 157.0461,-13.5464 188,-15.5 196.3176,-16.0249 205.0769,-16.6474 213.7043,-17.3013"/>
<polygon fill="#9a32cd" stroke="#9a32cd" points="95.7665,-7.4218 85.6369,-10.5269 95.492,-14.4164 95.7665,-7.4218"/>
<text text-anchor="middle" x="160" y="-62.5" font-family="Helvetica,sans-Serif" font-size="10.00" fill="#000000"> compSpec</text>
<text text-anchor="middle" x="160" y="-51.5" font-family="Helvetica,sans-Serif" font-size="10.00" fill="#000000">confName</text>
<text text-anchor="middle" x="160" y="-40.5" font-family="Helvetica,sans-Serif" font-size="10.00" fill="#000000">currName</text>
<text text-anchor="middle" x="160" y="-29.5" font-family="Helvetica,sans-Serif" font-size="10.00" fill="#000000">genLabels</text>
<text text-anchor="middle" x="160" y="-18.5" font-family="Helvetica,sans-Serif" font-size="10.00" fill="#000000">lab</text>
</g>
</g>
</svg>
        <g id="navigator" transform="translate(0 0)" fill="#404254">
                <rect fill="#f2f5e9" fill-opacity="0.5" stroke="#606060" stroke-width=".5" x="0" y="0" width="60" height="60"/>
                <use id="zoomplus" xlink:href="#zoomPlus" x="17" y="9" onmousedown="handleZoom(evt,'in')"/>
                <use id="zoomminus" xlink:href="#zoomMin" x="42" y="9" onmousedown="handleZoom(evt,'out')"/>
                <use id="reset" xlink:href="#resetDef" x="30" y="36" onmousedown="handleReset()"/>
                <g id="arrowUp" xlink:href="#dirArrow" transform="translate(30 24)" onmousedown="handlePan(0,-1)">
                  <use xlink:href="#rim" fill="#404040">
                        <set attributeName="fill" to="#808080" begin="arrowUp.mouseover" end="arrowUp.mouseout"/>
                  </use>
                  <path fill="none" stroke="white" stroke-width="1.5" d="M0,-3.0v7 M-2.5,-0.5L0,-3.0L2.5,-0.5"/>
                </g>
                <g id="arrowRight" xlink:href="#dirArrow" transform="rotate(90) translate(36 -43)" onmousedown="handlePan(1,0)">
                  <use xlink:href="#rim" fill="#404040">
                        <set attributeName="fill" to="#808080" begin="arrowRight.mouseover" end="arrowRight.mouseout"/>
                  </use>
                  <path fill="none" stroke="white" stroke-width="1.5" d="M0,-3.0v7 M-2.5,-0.5L0,-3.0L2.5,-0.5"/>
                </g>
                <g id="arrowDown" xlink:href="#dirArrow" transform="rotate(180) translate(-30 -48)" onmousedown="handlePan(0,1)">
                  <use xlink:href="#rim" fill="#404040">
                        <set attributeName="fill" to="#808080" begin="arrowDown.mouseover" end="arrowDown.mouseout"/>
                  </use>
                  <path fill="none" stroke="white" stroke-width="1.5" d="M0,-3.0v7 M-2.5,-0.5L0,-3.0L2.5,-0.5"/>
                </g>
                <g id="arrowLeft" xlink:href="#dirArrow" transform="rotate(270) translate(-36 17)" onmousedown="handlePan(-1,0)">
                  <use xlink:href="#rim" fill="#404040">
                        <set attributeName="fill" to="#808080" begin="arrowLeft.mouseover" end="arrowLeft.mouseout"/>
                  </use>
                  <path fill="none" stroke="white" stroke-width="1.5" d="M0,-3.0v7 M-2.5,-0.5L0,-3.0L2.5,-0.5"/>
                </g>
        </g>
        <svg viewBox="0 0 15 15" width="100%" height="30px" preserveAspectRatio="xMaxYMin meet">
         <g id="arrow_out" transform="scale(0.3 0.3)">
          <a xlink:href="classvhdl_1_1parser_1_1_vhdl_parser__coll__graph_org.svg" target="_base">
           <rect id="button" ry="5" rx="5" y="6" x="6" height="38" width="38"
                fill="#f2f5e9" fill-opacity="0.5" stroke="#606060" stroke-width="1.0"/>
           <path id="arrow"
             d="M 11.500037,31.436501 C 11.940474,20.09759 22.043105,11.32322 32.158766,21.979434 L 37.068811,17.246167 C 37.068811,17.246167 37.088388,32 37.088388,32 L 22.160133,31.978069 C 22.160133,31.978069 26.997745,27.140456 26.997745,27.140456 C 18.528582,18.264221 13.291696,25.230495 11.500037,31.436501 z"
             style="fill:#404040;"/>
          </a>
         </g>
        </svg>
</svg>
