<?xml version="1.0" encoding="UTF-8" standalone="no"?>
<!DOCTYPE svg PUBLIC "-//W3C//DTD SVG 1.1//EN"
 "http://www.w3.org/Graphics/SVG/1.1/DTD/svg11.dtd">
<!-- Generated by graphviz version 2.40.1 (20161225.0304)
 -->
<!-- Title: src/symbolresolver.cpp Pages: 1 -->
<!--zoomable 687 -->
<svg id="main" version="1.1" xmlns="http://www.w3.org/2000/svg" xmlns:xlink="http://www.w3.org/1999/xlink" xml:space="preserve" onload="init(evt)">
<style type="text/css"><![CDATA[
.edge:hover path { stroke: red; }
.edge:hover polygon { stroke: red; fill: red; }
]]></style>
<script type="text/javascript"><![CDATA[
var edges = document.getElementsByTagName('g');
if (edges && edges.length) {
  for (var i=0;i<edges.length;i++) {
    if (edges[i].id.substr(0,4)=='edge') {
      edges[i].setAttribute('class','edge');
    }
  }
}
]]></script>
        <defs>
                <circle id="rim" cx="0" cy="0" r="7"/>
                <circle id="rim2" cx="0" cy="0" r="3.5"/>
                <g id="zoomPlus">
                        <use xlink:href="#rim" fill="#404040">
                                <set attributeName="fill" to="#808080" begin="zoomplus.mouseover" end="zoomplus.mouseout"/>
                        </use>
                        <path d="M-4,0h8M0,-4v8" fill="none" stroke="white" stroke-width="1.5" pointer-events="none"/>
                </g>
                <g id="zoomMin">
                        <use xlink:href="#rim" fill="#404040">
                                <set attributeName="fill" to="#808080" begin="zoomminus.mouseover" end="zoomminus.mouseout"/>
                        </use>
                        <path d="M-4,0h8" fill="none" stroke="white" stroke-width="1.5" pointer-events="none"/>
                </g>
                <g id="dirArrow">
                        <path fill="none" stroke="white" stroke-width="1.5" d="M0,-3.0v7 M-2.5,-0.5L0,-3.0L2.5,-0.5"/>
                </g>
               <g id="resetDef">
                       <use xlink:href="#rim2" fill="#404040">
                               <set attributeName="fill" to="#808080" begin="reset.mouseover" end="reset.mouseout"/>
                       </use>
               </g>
        </defs>

<script type="text/javascript">
var viewWidth = 2626;
var viewHeight = 687;
var sectionId = 'dynsection-0';
</script>
<script xlink:href="../../svgpan.js"/>
<svg id="graph" class="graph">
<g id="viewport">
<title>src/symbolresolver.cpp</title>
<!-- Node1 -->
<g id="node1" class="node">
<title>Node1</title>
<g id="a_node1"><a xlink:title=" ">
<polygon fill="#999999" stroke="#666666" points="1675.1066,-679 1557.1066,-679 1557.1066,-660 1675.1066,-660 1675.1066,-679"/>
<text text-anchor="middle" x="1616.1066" y="-667" font-family="Helvetica,sans-Serif" font-size="10.00" fill="#000000">src/symbolresolver.cpp</text>
</a>
</g>
</g>
<!-- Node2 -->
<g id="node2" class="node">
<title>Node2</title>
<g id="a_node2"><a xlink:title=" ">
<polygon fill="#e0e0e0" stroke="#999999" points="469.6066,-129 386.6066,-129 386.6066,-110 469.6066,-110 469.6066,-129"/>
<text text-anchor="middle" x="428.1066" y="-117" font-family="Helvetica,sans-Serif" font-size="10.00" fill="#000000">unordered_map</text>
</a>
</g>
</g>
<!-- Node1&#45;&gt;Node2 -->
<g id="edge1" class="edge">
<title>Node1&#45;&gt;Node2</title>
<path fill="none" stroke="#63b8ff" d="M1557.0925,-668.4417C1356.6315,-664.6377 702.7396,-650.4603 494.1066,-624 358.8102,-606.8408 194.1066,-695.8802 194.1066,-559.5 194.1066,-559.5 194.1066,-559.5 194.1066,-284.5 194.1066,-235.2088 334.5386,-163.2654 397.8215,-133.3478"/>
<polygon fill="#63b8ff" stroke="#63b8ff" points="399.3574,-136.4934 406.9279,-129.0814 396.3876,-130.1546 399.3574,-136.4934"/>
</g>
<!-- Node3 -->
<g id="node3" class="node">
<title>Node3</title>
<g id="a_node3"><a xlink:title=" ">
<polygon fill="#e0e0e0" stroke="#999999" points="1378.6066,-19 1337.6066,-19 1337.6066,0 1378.6066,0 1378.6066,-19"/>
<text text-anchor="middle" x="1358.1066" y="-7" font-family="Helvetica,sans-Serif" font-size="10.00" fill="#000000">string</text>
</a>
</g>
</g>
<!-- Node1&#45;&gt;Node3 -->
<g id="edge2" class="edge">
<title>Node1&#45;&gt;Node3</title>
<path fill="none" stroke="#63b8ff" d="M1675.1102,-668.4601C1874.3918,-664.176 2510.1066,-643.8957 2510.1066,-559.5 2510.1066,-559.5 2510.1066,-559.5 2510.1066,-119.5 2510.1066,31.6257 1983.6494,-68.26 1833.1066,-55 1638.7294,-37.879 1584.6071,-56.554 1388.9617,-18.7216"/>
<polygon fill="#63b8ff" stroke="#63b8ff" points="1389.4171,-15.2444 1378.9308,-16.7568 1388.0715,-22.1138 1389.4171,-15.2444"/>
</g>
<!-- Node4 -->
<g id="node4" class="node">
<title>Node4</title>
<g id="a_node4"><a xlink:title=" ">
<polygon fill="#e0e0e0" stroke="#999999" points="787.1066,-129 743.1066,-129 743.1066,-110 787.1066,-110 787.1066,-129"/>
<text text-anchor="middle" x="765.1066" y="-117" font-family="Helvetica,sans-Serif" font-size="10.00" fill="#000000">vector</text>
</a>
</g>
</g>
<!-- Node1&#45;&gt;Node4 -->
<g id="edge3" class="edge">
<title>Node1&#45;&gt;Node4</title>
<path fill="none" stroke="#63b8ff" d="M1556.9353,-667.6683C1301.7356,-659.3862 308.1066,-623.0585 308.1066,-559.5 308.1066,-559.5 308.1066,-559.5 308.1066,-394.5 308.1066,-195.96 628.6855,-137.0848 732.8433,-123.1955"/>
<polygon fill="#63b8ff" stroke="#63b8ff" points="733.5905,-126.6285 743.0645,-121.8858 732.7007,-119.6853 733.5905,-126.6285"/>
</g>
<!-- Node5 -->
<g id="node5" class="node">
<title>Node5</title>
<g id="a_node5"><a xlink:href="../../d9/db2/symbolresolver_8h.html" target="_top" xlink:title=" ">
<polygon fill="#ffffff" stroke="#666666" points="1821.6066,-404 1730.6066,-404 1730.6066,-385 1821.6066,-385 1821.6066,-404"/>
<text text-anchor="middle" x="1776.1066" y="-392" font-family="Helvetica,sans-Serif" font-size="10.00" fill="#000000">symbolresolver.h</text>
</a>
</g>
</g>
<!-- Node1&#45;&gt;Node5 -->
<g id="edge4" class="edge">
<title>Node1&#45;&gt;Node5</title>
<path fill="none" stroke="#63b8ff" d="M1625.2851,-659.8634C1641.3361,-642.6584 1674.9059,-605.0691 1697.1066,-569 1729.8382,-515.8217 1757.0558,-446.7726 1769.2385,-413.7451"/>
<polygon fill="#63b8ff" stroke="#63b8ff" points="1772.6537,-414.5945 1772.7798,-404.0004 1766.0747,-412.2036 1772.6537,-414.5945"/>
</g>
<!-- Node28 -->
<g id="node28" class="node">
<title>Node28</title>
<g id="a_node28"><a xlink:href="../../d8/d3c/util_8h.html" target="_top" xlink:title="A bunch of utility functions.">
<polygon fill="#ffffff" stroke="#666666" points="1635.1066,-624 1597.1066,-624 1597.1066,-605 1635.1066,-605 1635.1066,-624"/>
<text text-anchor="middle" x="1616.1066" y="-612" font-family="Helvetica,sans-Serif" font-size="10.00" fill="#000000">util.h</text>
</a>
</g>
</g>
<!-- Node1&#45;&gt;Node28 -->
<g id="edge55" class="edge">
<title>Node1&#45;&gt;Node28</title>
<path fill="none" stroke="#63b8ff" d="M1616.1066,-659.9197C1616.1066,-652.9083 1616.1066,-643.1442 1616.1066,-634.4652"/>
<polygon fill="#63b8ff" stroke="#63b8ff" points="1619.6067,-634.3408 1616.1066,-624.3408 1612.6067,-634.3409 1619.6067,-634.3408"/>
</g>
<!-- Node49 -->
<g id="node49" class="node">
<title>Node49</title>
<g id="a_node49"><a xlink:href="../../d1/da1/doxygen_8h.html" target="_top" xlink:title=" ">
<polygon fill="#ffffff" stroke="#666666" points="685.1066,-514 623.1066,-514 623.1066,-495 685.1066,-495 685.1066,-514"/>
<text text-anchor="middle" x="654.1066" y="-502" font-family="Helvetica,sans-Serif" font-size="10.00" fill="#000000">doxygen.h</text>
</a>
</g>
</g>
<!-- Node1&#45;&gt;Node49 -->
<g id="edge120" class="edge">
<title>Node1&#45;&gt;Node49</title>
<path fill="none" stroke="#63b8ff" d="M1560.5792,-659.9761C1385.5448,-629.9546 847.8943,-537.738 695.0329,-511.5196"/>
<polygon fill="#63b8ff" stroke="#63b8ff" points="695.5623,-508.0594 685.1145,-509.8184 694.3789,-514.9586 695.5623,-508.0594"/>
</g>
<!-- Node57 -->
<g id="node57" class="node">
<title>Node57</title>
<g id="a_node57"><a xlink:href="../../d7/d97/namespacedef_8h.html" target="_top" xlink:title=" ">
<polygon fill="#ffffff" stroke="#666666" points="1409.6066,-569 1320.6066,-569 1320.6066,-550 1409.6066,-550 1409.6066,-569"/>
<text text-anchor="middle" x="1365.1066" y="-557" font-family="Helvetica,sans-Serif" font-size="10.00" fill="#000000">namespacedef.h</text>
</a>
</g>
</g>
<!-- Node1&#45;&gt;Node57 -->
<g id="edge149" class="edge">
<title>Node1&#45;&gt;Node57</title>
<path fill="none" stroke="#63b8ff" d="M1594.2711,-659.9306C1549.6754,-640.3867 1447.9994,-595.8275 1396.3952,-573.2122"/>
<polygon fill="#63b8ff" stroke="#63b8ff" points="1397.6343,-569.9339 1387.0704,-569.1256 1394.8245,-576.3452 1397.6343,-569.9339"/>
</g>
<!-- Node58 -->
<g id="node58" class="node">
<title>Node58</title>
<g id="a_node58"><a xlink:href="../../db/d16/config_8h.html" target="_top" xlink:title=" ">
<polygon fill="#ffffff" stroke="#666666" points="2596.6066,-624 2545.6066,-624 2545.6066,-605 2596.6066,-605 2596.6066,-624"/>
<text text-anchor="middle" x="2571.1066" y="-612" font-family="Helvetica,sans-Serif" font-size="10.00" fill="#000000">config.h</text>
</a>
</g>
</g>
<!-- Node1&#45;&gt;Node58 -->
<g id="edge155" class="edge">
<title>Node1&#45;&gt;Node58</title>
<path fill="none" stroke="#63b8ff" d="M1675.406,-667.6874C1849.7864,-662.1735 2358.9809,-644.7077 2524.1066,-624 2527.7926,-623.5377 2531.6217,-622.948 2535.4321,-622.2892"/>
<polygon fill="#63b8ff" stroke="#63b8ff" points="2536.1808,-625.7099 2545.363,-620.4244 2534.8888,-618.8301 2536.1808,-625.7099"/>
</g>
<!-- Node60 -->
<g id="node60" class="node">
<title>Node60</title>
<g id="a_node60"><a xlink:href="../../d8/d65/defargs_8h.html" target="_top" xlink:title=" ">
<polygon fill="#ffffff" stroke="#666666" points="2247.6066,-294 2190.6066,-294 2190.6066,-275 2247.6066,-275 2247.6066,-294"/>
<text text-anchor="middle" x="2219.1066" y="-282" font-family="Helvetica,sans-Serif" font-size="10.00" fill="#000000">defargs.h</text>
</a>
</g>
</g>
<!-- Node1&#45;&gt;Node60 -->
<g id="edge157" class="edge">
<title>Node1&#45;&gt;Node60</title>
<path fill="none" stroke="#63b8ff" d="M1675.2985,-664.8915C1827.228,-652.2728 2219.1066,-614.4035 2219.1066,-559.5 2219.1066,-559.5 2219.1066,-559.5 2219.1066,-394.5 2219.1066,-362.9508 2219.1066,-326.3117 2219.1066,-304.2905"/>
<polygon fill="#63b8ff" stroke="#63b8ff" points="2222.6067,-304.2116 2219.1066,-294.2116 2215.6067,-304.2117 2222.6067,-304.2116"/>
</g>
<!-- Node6 -->
<g id="node6" class="node">
<title>Node6</title>
<g id="a_node6"><a xlink:title=" ">
<polygon fill="#e0e0e0" stroke="#999999" points="1891.1066,-129 1839.1066,-129 1839.1066,-110 1891.1066,-110 1891.1066,-129"/>
<text text-anchor="middle" x="1865.1066" y="-117" font-family="Helvetica,sans-Serif" font-size="10.00" fill="#000000">memory</text>
</a>
</g>
</g>
<!-- Node5&#45;&gt;Node6 -->
<g id="edge5" class="edge">
<title>Node5&#45;&gt;Node6</title>
<path fill="none" stroke="#63b8ff" d="M1821.8433,-389.241C1876.3909,-380.2475 1965.3066,-356.3528 2006.1066,-294 2037.4989,-246.0246 2039.853,-211.3497 2006.1066,-165 1993.6515,-147.8933 1938.9643,-133.9812 1901.4748,-126.2235"/>
<polygon fill="#63b8ff" stroke="#63b8ff" points="1901.8997,-122.739 1891.4063,-124.2011 1900.5212,-129.6019 1901.8997,-122.739"/>
</g>
<!-- Node7 -->
<g id="node7" class="node">
<title>Node7</title>
<g id="a_node7"><a xlink:href="../../d7/d5c/qcstring_8h.html" target="_top" xlink:title=" ">
<polygon fill="#ffffff" stroke="#666666" points="1292.6066,-129 1233.6066,-129 1233.6066,-110 1292.6066,-110 1292.6066,-129"/>
<text text-anchor="middle" x="1263.1066" y="-117" font-family="Helvetica,sans-Serif" font-size="10.00" fill="#000000">qcstring.h</text>
</a>
</g>
</g>
<!-- Node5&#45;&gt;Node7 -->
<g id="edge6" class="edge">
<title>Node5&#45;&gt;Node7</title>
<path fill="none" stroke="#63b8ff" d="M1768.8782,-384.9107C1751.8766,-362.9054 1707.1484,-308.1339 1659.1066,-275 1608.8069,-240.3088 1591.0237,-239.4714 1533.1066,-220 1468.5306,-198.29 1447.785,-208.2166 1384.1066,-184 1348.7492,-170.5537 1310.6648,-148.9484 1286.8621,-134.494"/>
<polygon fill="#63b8ff" stroke="#63b8ff" points="1288.5292,-131.4103 1278.178,-129.1516 1284.8614,-137.3725 1288.5292,-131.4103"/>
</g>
<!-- Node16 -->
<g id="node16" class="node">
<title>Node16</title>
<g id="a_node16"><a xlink:href="../../d1/da6/classdef_8h.html" target="_top" xlink:title=" ">
<polygon fill="#ffffff" stroke="#666666" points="1123.1066,-349 1061.1066,-349 1061.1066,-330 1123.1066,-330 1123.1066,-349"/>
<text text-anchor="middle" x="1092.1066" y="-337" font-family="Helvetica,sans-Serif" font-size="10.00" fill="#000000">classdef.h</text>
</a>
</g>
</g>
<!-- Node5&#45;&gt;Node16 -->
<g id="edge18" class="edge">
<title>Node5&#45;&gt;Node16</title>
<path fill="none" stroke="#63b8ff" d="M1730.4319,-390.8273C1604.6313,-380.7118 1254.4407,-352.5532 1133.6765,-342.8426"/>
<polygon fill="#63b8ff" stroke="#63b8ff" points="1133.63,-339.3277 1123.3816,-342.0148 1133.0688,-346.3051 1133.63,-339.3277"/>
</g>
<!-- Node7&#45;&gt;Node3 -->
<g id="edge7" class="edge">
<title>Node7&#45;&gt;Node3</title>
<path fill="none" stroke="#63b8ff" d="M1271.5372,-109.7382C1287.6337,-91.1002 1322.9358,-50.224 1343.1354,-26.835"/>
<polygon fill="#63b8ff" stroke="#63b8ff" points="1345.9432,-28.9388 1349.8305,-19.0828 1340.6454,-24.3634 1345.9432,-28.9388"/>
</g>
<!-- Node8 -->
<g id="node8" class="node">
<title>Node8</title>
<g id="a_node8"><a xlink:title=" ">
<polygon fill="#e0e0e0" stroke="#999999" points="526.1066,-74 470.1066,-74 470.1066,-55 526.1066,-55 526.1066,-74"/>
<text text-anchor="middle" x="498.1066" y="-62" font-family="Helvetica,sans-Serif" font-size="10.00" fill="#000000">algorithm</text>
</a>
</g>
</g>
<!-- Node7&#45;&gt;Node8 -->
<g id="edge8" class="edge">
<title>Node7&#45;&gt;Node8</title>
<path fill="none" stroke="#63b8ff" d="M1233.5864,-117.3776C1114.6164,-108.8242 670.3236,-76.8816 536.4937,-67.2599"/>
<polygon fill="#63b8ff" stroke="#63b8ff" points="536.5418,-63.7544 526.3165,-66.5282 536.0398,-70.7363 536.5418,-63.7544"/>
</g>
<!-- Node9 -->
<g id="node9" class="node">
<title>Node9</title>
<g id="a_node9"><a xlink:title=" ">
<polygon fill="#e0e0e0" stroke="#999999" points="1083.1066,-74 1037.1066,-74 1037.1066,-55 1083.1066,-55 1083.1066,-74"/>
<text text-anchor="middle" x="1060.1066" y="-62" font-family="Helvetica,sans-Serif" font-size="10.00" fill="#000000">cctype</text>
</a>
</g>
</g>
<!-- Node7&#45;&gt;Node9 -->
<g id="edge9" class="edge">
<title>Node7&#45;&gt;Node9</title>
<path fill="none" stroke="#63b8ff" d="M1233.3803,-111.865C1201.1492,-103.5265 1147.9548,-89.5913 1093.0583,-74.2129"/>
<polygon fill="#63b8ff" stroke="#63b8ff" points="1093.73,-70.7661 1083.1559,-71.4282 1091.8349,-77.5047 1093.73,-70.7661"/>
</g>
<!-- Node10 -->
<g id="node10" class="node">
<title>Node10</title>
<g id="a_node10"><a xlink:title=" ">
<polygon fill="#e0e0e0" stroke="#999999" points="1147.1066,-74 1101.1066,-74 1101.1066,-55 1147.1066,-55 1147.1066,-74"/>
<text text-anchor="middle" x="1124.1066" y="-62" font-family="Helvetica,sans-Serif" font-size="10.00" fill="#000000">cstring</text>
</a>
</g>
</g>
<!-- Node7&#45;&gt;Node10 -->
<g id="edge10" class="edge">
<title>Node7&#45;&gt;Node10</title>
<path fill="none" stroke="#63b8ff" d="M1238.8946,-109.9197C1216.0972,-100.8992 1181.7847,-87.3223 1156.6114,-77.3616"/>
<polygon fill="#63b8ff" stroke="#63b8ff" points="1157.7044,-74.0301 1147.1181,-73.6053 1155.1289,-80.5391 1157.7044,-74.0301"/>
</g>
<!-- Node11 -->
<g id="node11" class="node">
<title>Node11</title>
<g id="a_node11"><a xlink:title=" ">
<polygon fill="#e0e0e0" stroke="#999999" points="1517.6066,-74 1474.6066,-74 1474.6066,-55 1517.6066,-55 1517.6066,-74"/>
<text text-anchor="middle" x="1496.1066" y="-62" font-family="Helvetica,sans-Serif" font-size="10.00" fill="#000000">cstdio</text>
</a>
</g>
</g>
<!-- Node7&#45;&gt;Node11 -->
<g id="edge11" class="edge">
<title>Node7&#45;&gt;Node11</title>
<path fill="none" stroke="#63b8ff" d="M1292.6162,-112.5342C1336.6953,-102.1293 1419.3756,-82.6125 1464.5928,-71.9389"/>
<polygon fill="#63b8ff" stroke="#63b8ff" points="1465.513,-75.3179 1474.4414,-69.6141 1463.9048,-68.5052 1465.513,-75.3179"/>
</g>
<!-- Node12 -->
<g id="node12" class="node">
<title>Node12</title>
<g id="a_node12"><a xlink:title=" ">
<polygon fill="#e0e0e0" stroke="#999999" points="1210.6066,-74 1165.6066,-74 1165.6066,-55 1210.6066,-55 1210.6066,-74"/>
<text text-anchor="middle" x="1188.1066" y="-62" font-family="Helvetica,sans-Serif" font-size="10.00" fill="#000000">cstdlib</text>
</a>
</g>
</g>
<!-- Node7&#45;&gt;Node12 -->
<g id="edge12" class="edge">
<title>Node7&#45;&gt;Node12</title>
<path fill="none" stroke="#63b8ff" d="M1250.0426,-109.9197C1238.9261,-101.7677 1222.7353,-89.8944 1209.6955,-80.3319"/>
<polygon fill="#63b8ff" stroke="#63b8ff" points="1211.4064,-77.2463 1201.2725,-74.155 1207.2668,-82.8911 1211.4064,-77.2463"/>
</g>
<!-- Node13 -->
<g id="node13" class="node">
<title>Node13</title>
<g id="a_node13"><a xlink:title=" ">
<polygon fill="#e0e0e0" stroke="#999999" points="1443.1066,-19 1397.1066,-19 1397.1066,0 1443.1066,0 1443.1066,-19"/>
<text text-anchor="middle" x="1420.1066" y="-7" font-family="Helvetica,sans-Serif" font-size="10.00" fill="#000000">cstdint</text>
</a>
</g>
</g>
<!-- Node7&#45;&gt;Node13 -->
<g id="edge13" class="edge">
<title>Node7&#45;&gt;Node13</title>
<path fill="none" stroke="#63b8ff" d="M1292.828,-114.9523C1320.138,-109.4244 1360.3256,-97.7165 1387.1066,-74 1400.6137,-62.0385 1409.3447,-43.232 1414.4112,-29.0063"/>
<polygon fill="#63b8ff" stroke="#63b8ff" points="1417.8326,-29.802 1417.5898,-19.2099 1411.1744,-27.6416 1417.8326,-29.802"/>
</g>
<!-- Node14 -->
<g id="node14" class="node">
<title>Node14</title>
<g id="a_node14"><a xlink:title=" ">
<polygon fill="#e0e0e0" stroke="#999999" points="1281.1066,-74 1229.1066,-74 1229.1066,-55 1281.1066,-55 1281.1066,-74"/>
<text text-anchor="middle" x="1255.1066" y="-62" font-family="Helvetica,sans-Serif" font-size="10.00" fill="#000000">ostream</text>
</a>
</g>
</g>
<!-- Node7&#45;&gt;Node14 -->
<g id="edge14" class="edge">
<title>Node7&#45;&gt;Node14</title>
<path fill="none" stroke="#63b8ff" d="M1261.7131,-109.9197C1260.6933,-102.9083 1259.273,-93.1442 1258.0106,-84.4652"/>
<polygon fill="#63b8ff" stroke="#63b8ff" points="1261.441,-83.7329 1256.538,-74.3408 1254.5139,-84.7405 1261.441,-83.7329"/>
</g>
<!-- Node15 -->
<g id="node15" class="node">
<title>Node15</title>
<g id="a_node15"><a xlink:href="../../db/d7c/utf8_8h.html" target="_top" xlink:title="Various UTF8 related helper functions.">
<polygon fill="#ffffff" stroke="#666666" points="1378.6066,-74 1337.6066,-74 1337.6066,-55 1378.6066,-55 1378.6066,-74"/>
<text text-anchor="middle" x="1358.1066" y="-62" font-family="Helvetica,sans-Serif" font-size="10.00" fill="#000000">utf8.h</text>
</a>
</g>
</g>
<!-- Node7&#45;&gt;Node15 -->
<g id="edge15" class="edge">
<title>Node7&#45;&gt;Node15</title>
<path fill="none" stroke="#63b8ff" d="M1279.6543,-109.9197C1294.2768,-101.4541 1315.8306,-88.9755 1332.6481,-79.2391"/>
<polygon fill="#63b8ff" stroke="#63b8ff" points="1334.5291,-82.1944 1341.4297,-74.155 1331.0218,-76.1364 1334.5291,-82.1944"/>
</g>
<!-- Node15&#45;&gt;Node3 -->
<g id="edge17" class="edge">
<title>Node15&#45;&gt;Node3</title>
<path fill="none" stroke="#63b8ff" d="M1358.1066,-54.9197C1358.1066,-47.9083 1358.1066,-38.1442 1358.1066,-29.4652"/>
<polygon fill="#63b8ff" stroke="#63b8ff" points="1361.6067,-29.3408 1358.1066,-19.3408 1354.6067,-29.3409 1361.6067,-29.3408"/>
</g>
<!-- Node15&#45;&gt;Node13 -->
<g id="edge16" class="edge">
<title>Node15&#45;&gt;Node13</title>
<path fill="none" stroke="#63b8ff" d="M1368.9062,-54.9197C1377.8638,-46.9735 1390.807,-35.4916 1401.4384,-26.0605"/>
<polygon fill="#63b8ff" stroke="#63b8ff" points="1403.8552,-28.5953 1409.0133,-19.3408 1399.2099,-23.3587 1403.8552,-28.5953"/>
</g>
<!-- Node16&#45;&gt;Node4 -->
<g id="edge19" class="edge">
<title>Node16&#45;&gt;Node4</title>
<path fill="none" stroke="#63b8ff" d="M1082.5359,-329.9934C1068.2642,-316.2568 1040.0759,-290.7794 1012.1066,-275 971.3296,-251.9949 955.2409,-259.4131 913.1066,-239 871.2599,-218.7262 859.918,-213.66 824.1066,-184 807.0405,-169.8653 790.2482,-150.8712 778.9695,-137.1594"/>
<polygon fill="#63b8ff" stroke="#63b8ff" points="781.4067,-134.6058 772.4065,-129.0158 775.9563,-138.9983 781.4067,-134.6058"/>
</g>
<!-- Node17 -->
<g id="node17" class="node">
<title>Node17</title>
<g id="a_node17"><a xlink:title=" ">
<polygon fill="#e0e0e0" stroke="#999999" points="1412.1066,-239 1382.1066,-239 1382.1066,-220 1412.1066,-220 1412.1066,-239"/>
<text text-anchor="middle" x="1397.1066" y="-227" font-family="Helvetica,sans-Serif" font-size="10.00" fill="#000000">set</text>
</a>
</g>
</g>
<!-- Node16&#45;&gt;Node17 -->
<g id="edge20" class="edge">
<title>Node16&#45;&gt;Node17</title>
<path fill="none" stroke="#63b8ff" d="M1119.7395,-329.9612C1168.6605,-312.9998 1273.8925,-276.1831 1372.3918,-239.1877"/>
<polygon fill="#63b8ff" stroke="#63b8ff" points="1373.7754,-242.4067 1381.9009,-235.6076 1371.3089,-235.8556 1373.7754,-242.4067"/>
</g>
<!-- Node18 -->
<g id="node18" class="node">
<title>Node18</title>
<g id="a_node18"><a xlink:href="../../d5/d75/containers_8h.html" target="_top" xlink:title=" ">
<polygon fill="#ffffff" stroke="#666666" points="1398.1066,-294 1328.1066,-294 1328.1066,-275 1398.1066,-275 1398.1066,-294"/>
<text text-anchor="middle" x="1363.1066" y="-282" font-family="Helvetica,sans-Serif" font-size="10.00" fill="#000000">containers.h</text>
</a>
</g>
</g>
<!-- Node16&#45;&gt;Node18 -->
<g id="edge21" class="edge">
<title>Node16&#45;&gt;Node18</title>
<path fill="none" stroke="#63b8ff" d="M1123.1937,-333.1908C1170.966,-323.4953 1262.6736,-304.8831 1317.8281,-293.6894"/>
<polygon fill="#63b8ff" stroke="#63b8ff" points="1318.5784,-297.1085 1327.6824,-291.6894 1317.186,-290.2484 1318.5784,-297.1085"/>
</g>
<!-- Node22 -->
<g id="node22" class="node">
<title>Node22</title>
<g id="a_node22"><a xlink:href="../../df/da1/definition_8h.html" target="_top" xlink:title=" ">
<polygon fill="#ffffff" stroke="#666666" points="1124.1066,-294 1060.1066,-294 1060.1066,-275 1124.1066,-275 1124.1066,-294"/>
<text text-anchor="middle" x="1092.1066" y="-282" font-family="Helvetica,sans-Serif" font-size="10.00" fill="#000000">definition.h</text>
</a>
</g>
</g>
<!-- Node16&#45;&gt;Node22 -->
<g id="edge29" class="edge">
<title>Node16&#45;&gt;Node22</title>
<path fill="none" stroke="#63b8ff" d="M1092.1066,-329.9197C1092.1066,-322.9083 1092.1066,-313.1442 1092.1066,-304.4652"/>
<polygon fill="#63b8ff" stroke="#63b8ff" points="1095.6067,-304.3408 1092.1066,-294.3408 1088.6067,-304.3409 1095.6067,-304.3408"/>
</g>
<!-- Node26 -->
<g id="node26" class="node">
<title>Node26</title>
<g id="a_node26"><a xlink:href="../../df/d9b/arguments_8h.html" target="_top" xlink:title=" ">
<polygon fill="#ffffff" stroke="#666666" points="1003.6066,-294 932.6066,-294 932.6066,-275 1003.6066,-275 1003.6066,-294"/>
<text text-anchor="middle" x="968.1066" y="-282" font-family="Helvetica,sans-Serif" font-size="10.00" fill="#000000">arguments.h</text>
</a>
</g>
</g>
<!-- Node16&#45;&gt;Node26 -->
<g id="edge46" class="edge">
<title>Node16&#45;&gt;Node26</title>
<path fill="none" stroke="#63b8ff" d="M1070.5074,-329.9197C1050.8028,-321.1798 1021.4549,-308.1625 999.2225,-298.3014"/>
<polygon fill="#63b8ff" stroke="#63b8ff" points="1000.4345,-295.0102 989.8743,-294.155 997.5963,-301.409 1000.4345,-295.0102"/>
</g>
<!-- Node27 -->
<g id="node27" class="node">
<title>Node27</title>
<g id="a_node27"><a xlink:href="../../d9/d11/membergroup_8h.html" target="_top" xlink:title=" ">
<polygon fill="#ffffff" stroke="#666666" points="914.1066,-294 830.1066,-294 830.1066,-275 914.1066,-275 914.1066,-294"/>
<text text-anchor="middle" x="872.1066" y="-282" font-family="Helvetica,sans-Serif" font-size="10.00" fill="#000000">membergroup.h</text>
</a>
</g>
</g>
<!-- Node16&#45;&gt;Node27 -->
<g id="edge49" class="edge">
<title>Node16&#45;&gt;Node27</title>
<path fill="none" stroke="#63b8ff" d="M1061.0526,-331.7365C1024.4285,-322.5805 963.127,-307.2551 920.3127,-296.5515"/>
<polygon fill="#63b8ff" stroke="#63b8ff" points="920.9446,-293.1019 910.3943,-294.0719 919.2468,-299.8929 920.9446,-293.1019"/>
</g>
<!-- Node18&#45;&gt;Node2 -->
<g id="edge27" class="edge">
<title>Node18&#45;&gt;Node2</title>
<path fill="none" stroke="#63b8ff" d="M1327.9734,-281.655C1256.6721,-275.6535 1089.9649,-260.4617 951.1066,-239 827.4958,-219.8949 797.0026,-212.0355 675.1066,-184 603.3817,-167.5036 520.7775,-145.2688 471.588,-131.6815"/>
<polygon fill="#63b8ff" stroke="#63b8ff" points="472.4832,-128.2977 461.9118,-129.0011 470.6145,-135.0437 472.4832,-128.2977"/>
</g>
<!-- Node18&#45;&gt;Node3 -->
<g id="edge23" class="edge">
<title>Node18&#45;&gt;Node3</title>
<path fill="none" stroke="#63b8ff" d="M1398.1217,-280.1411C1442.9447,-273.7591 1516.7827,-260.2675 1533.1066,-239 1538.2482,-232.3013 1535.9766,-227.9418 1533.1066,-220 1501.8716,-133.5697 1417.9722,-57.605 1378.7929,-25.611"/>
<polygon fill="#63b8ff" stroke="#63b8ff" points="1380.7012,-22.6546 1370.713,-19.1209 1376.3175,-28.112 1380.7012,-22.6546"/>
</g>
<!-- Node18&#45;&gt;Node4 -->
<g id="edge22" class="edge">
<title>Node18&#45;&gt;Node4</title>
<path fill="none" stroke="#63b8ff" d="M1327.8919,-274.9468C1214.3559,-244.1421 861.7737,-148.4437 796.8514,-130.1951"/>
<polygon fill="#63b8ff" stroke="#63b8ff" points="797.7432,-126.8097 787.1653,-127.4077 795.8074,-133.5367 797.7432,-126.8097"/>
</g>
<!-- Node18&#45;&gt;Node17 -->
<g id="edge24" class="edge">
<title>Node18&#45;&gt;Node17</title>
<path fill="none" stroke="#63b8ff" d="M1369.0289,-274.9197C1373.6041,-267.5188 1380.0751,-257.0509 1385.6521,-248.0294"/>
<polygon fill="#63b8ff" stroke="#63b8ff" points="1388.742,-249.6872 1391.0232,-239.3408 1382.7878,-246.0064 1388.742,-249.6872"/>
</g>
<!-- Node19 -->
<g id="node19" class="node">
<title>Node19</title>
<g id="a_node19"><a xlink:title=" ">
<polygon fill="#e0e0e0" stroke="#999999" points="789.6066,-239 754.6066,-239 754.6066,-220 789.6066,-220 789.6066,-239"/>
<text text-anchor="middle" x="772.1066" y="-227" font-family="Helvetica,sans-Serif" font-size="10.00" fill="#000000">map</text>
</a>
</g>
</g>
<!-- Node18&#45;&gt;Node19 -->
<g id="edge25" class="edge">
<title>Node18&#45;&gt;Node19</title>
<path fill="none" stroke="#63b8ff" d="M1327.9067,-281.2242C1220.232,-271.2037 896.7371,-241.0984 799.8327,-232.0803"/>
<polygon fill="#63b8ff" stroke="#63b8ff" points="799.945,-228.5757 789.6637,-231.1339 799.2963,-235.5456 799.945,-228.5757"/>
</g>
<!-- Node20 -->
<g id="node20" class="node">
<title>Node20</title>
<g id="a_node20"><a xlink:title=" ">
<polygon fill="#e0e0e0" stroke="#999999" points="1364.1066,-239 1286.1066,-239 1286.1066,-220 1364.1066,-220 1364.1066,-239"/>
<text text-anchor="middle" x="1325.1066" y="-227" font-family="Helvetica,sans-Serif" font-size="10.00" fill="#000000">unordered_set</text>
</a>
</g>
</g>
<!-- Node18&#45;&gt;Node20 -->
<g id="edge26" class="edge">
<title>Node18&#45;&gt;Node20</title>
<path fill="none" stroke="#63b8ff" d="M1356.4875,-274.9197C1351.3203,-267.4409 1343.9892,-256.8301 1337.7122,-247.745"/>
<polygon fill="#63b8ff" stroke="#63b8ff" points="1340.4696,-245.5786 1331.9057,-239.3408 1334.7105,-249.5577 1340.4696,-245.5786"/>
</g>
<!-- Node21 -->
<g id="node21" class="node">
<title>Node21</title>
<g id="a_node21"><a xlink:title=" ">
<polygon fill="#e0e0e0" stroke="#999999" points="1735.6066,-239 1694.6066,-239 1694.6066,-220 1735.6066,-220 1735.6066,-239"/>
<text text-anchor="middle" x="1715.1066" y="-227" font-family="Helvetica,sans-Serif" font-size="10.00" fill="#000000">stack</text>
</a>
</g>
</g>
<!-- Node18&#45;&gt;Node21 -->
<g id="edge28" class="edge">
<title>Node18&#45;&gt;Node21</title>
<path fill="none" stroke="#63b8ff" d="M1398.1446,-279.0253C1466.9996,-268.2667 1618.9233,-244.5286 1684.2523,-234.321"/>
<polygon fill="#63b8ff" stroke="#63b8ff" points="1684.9888,-237.7485 1694.3285,-232.7466 1683.9081,-230.8324 1684.9888,-237.7485"/>
</g>
<!-- Node22&#45;&gt;Node4 -->
<g id="edge30" class="edge">
<title>Node22&#45;&gt;Node4</title>
<path fill="none" stroke="#63b8ff" d="M1059.8473,-276.6493C1030.669,-268.9564 986.9186,-255.9299 951.1066,-239 887.0814,-208.7325 818.7253,-160.0178 785.541,-135.1708"/>
<polygon fill="#63b8ff" stroke="#63b8ff" points="787.6054,-132.3439 777.5156,-129.1117 783.3875,-137.9305 787.6054,-132.3439"/>
</g>
<!-- Node23 -->
<g id="node23" class="node">
<title>Node23</title>
<g id="a_node23"><a xlink:href="../../d9/d49/types_8h.html" target="_top" xlink:title="This file contains a number of basic enums and types.">
<polygon fill="#ffffff" stroke="#666666" points="1267.6066,-239 1218.6066,-239 1218.6066,-220 1267.6066,-220 1267.6066,-239"/>
<text text-anchor="middle" x="1243.1066" y="-227" font-family="Helvetica,sans-Serif" font-size="10.00" fill="#000000">types.h</text>
</a>
</g>
</g>
<!-- Node22&#45;&gt;Node23 -->
<g id="edge31" class="edge">
<title>Node22&#45;&gt;Node23</title>
<path fill="none" stroke="#63b8ff" d="M1118.4088,-274.9197C1143.544,-265.7645 1181.5646,-251.9159 1209.0135,-241.918"/>
<polygon fill="#63b8ff" stroke="#63b8ff" points="1210.4062,-245.1358 1218.6044,-238.4246 1208.0105,-238.5585 1210.4062,-245.1358"/>
</g>
<!-- Node24 -->
<g id="node24" class="node">
<title>Node24</title>
<g id="a_node24"><a xlink:href="../../d1/d02/reflist_8h.html" target="_top" xlink:title=" ">
<polygon fill="#ffffff" stroke="#666666" points="1009.6066,-239 960.6066,-239 960.6066,-220 1009.6066,-220 1009.6066,-239"/>
<text text-anchor="middle" x="985.1066" y="-227" font-family="Helvetica,sans-Serif" font-size="10.00" fill="#000000">reflist.h</text>
</a>
</g>
</g>
<!-- Node22&#45;&gt;Node24 -->
<g id="edge33" class="edge">
<title>Node22&#45;&gt;Node24</title>
<path fill="none" stroke="#63b8ff" d="M1073.4686,-274.9197C1056.7704,-266.3365 1032.0468,-253.6281 1012.9948,-243.8351"/>
<polygon fill="#63b8ff" stroke="#63b8ff" points="1014.3839,-240.6138 1003.89,-239.155 1011.1838,-246.8395 1014.3839,-240.6138"/>
</g>
<!-- Node23&#45;&gt;Node7 -->
<g id="edge32" class="edge">
<title>Node23&#45;&gt;Node7</title>
<path fill="none" stroke="#63b8ff" d="M1244.8815,-219.7382C1248.1662,-201.6724 1255.2497,-162.713 1259.5543,-139.0376"/>
<polygon fill="#63b8ff" stroke="#63b8ff" points="1263.0189,-139.5477 1261.3643,-129.0828 1256.1318,-138.2954 1263.0189,-139.5477"/>
</g>
<!-- Node24&#45;&gt;Node2 -->
<g id="edge35" class="edge">
<title>Node24&#45;&gt;Node2</title>
<path fill="none" stroke="#63b8ff" d="M960.3899,-223.2926C955.6577,-222.1572 950.736,-221.0123 946.1066,-220 776.176,-182.8405 573.3478,-145.5145 479.9125,-128.7126"/>
<polygon fill="#63b8ff" stroke="#63b8ff" points="480.3344,-125.2325 469.8733,-126.9106 479.0976,-132.1224 480.3344,-125.2325"/>
</g>
<!-- Node24&#45;&gt;Node4 -->
<g id="edge34" class="edge">
<title>Node24&#45;&gt;Node4</title>
<path fill="none" stroke="#63b8ff" d="M973.565,-219.8511C956.7508,-206.1686 924.1338,-181.0152 893.1066,-165 861.8393,-148.8609 823.5417,-136.0793 797.0282,-128.2234"/>
<polygon fill="#63b8ff" stroke="#63b8ff" points="797.7155,-124.7787 787.1366,-125.359 795.7684,-131.5025 797.7155,-124.7787"/>
</g>
<!-- Node24&#45;&gt;Node6 -->
<g id="edge36" class="edge">
<title>Node24&#45;&gt;Node6</title>
<path fill="none" stroke="#63b8ff" d="M1009.892,-228.275C1126.0113,-222.4824 1613.3777,-197.556 1680.1066,-184 1736.0167,-172.6419 1798.0799,-148.4786 1834.232,-133.1658"/>
<polygon fill="#63b8ff" stroke="#63b8ff" points="1835.9036,-136.2573 1843.715,-129.0995 1833.1449,-129.8238 1835.9036,-136.2573"/>
</g>
<!-- Node24&#45;&gt;Node7 -->
<g id="edge37" class="edge">
<title>Node24&#45;&gt;Node7</title>
<path fill="none" stroke="#63b8ff" d="M1009.6483,-219.9332C1032.7895,-210.8585 1068.4064,-196.7521 1099.1066,-184 1118.778,-175.829 1123.3651,-173.0002 1143.1066,-165 1171.2374,-153.5999 1203.4107,-141.4481 1227.3578,-132.5729"/>
<polygon fill="#63b8ff" stroke="#63b8ff" points="1228.5876,-135.8499 1236.7554,-129.1016 1226.1621,-129.2835 1228.5876,-135.8499"/>
</g>
<!-- Node25 -->
<g id="node25" class="node">
<title>Node25</title>
<g id="a_node25"><a xlink:href="../../da/de1/linkedmap_8h.html" target="_top" xlink:title=" ">
<polygon fill="#ffffff" stroke="#666666" points="1090.6066,-184 1021.6066,-184 1021.6066,-165 1090.6066,-165 1090.6066,-184"/>
<text text-anchor="middle" x="1056.1066" y="-172" font-family="Helvetica,sans-Serif" font-size="10.00" fill="#000000">linkedmap.h</text>
</a>
</g>
</g>
<!-- Node24&#45;&gt;Node25 -->
<g id="edge38" class="edge">
<title>Node24&#45;&gt;Node25</title>
<path fill="none" stroke="#63b8ff" d="M997.4738,-219.9197C1007.9329,-211.8177 1023.1369,-200.0399 1035.4415,-190.5082"/>
<polygon fill="#63b8ff" stroke="#63b8ff" points="1037.6409,-193.2318 1043.403,-184.3408 1033.354,-187.6979 1037.6409,-193.2318"/>
</g>
<!-- Node25&#45;&gt;Node2 -->
<g id="edge39" class="edge">
<title>Node25&#45;&gt;Node2</title>
<path fill="none" stroke="#63b8ff" d="M1021.448,-171.4646C916.9045,-162.3087 604.2517,-134.9267 479.9233,-124.0381"/>
<polygon fill="#63b8ff" stroke="#63b8ff" points="480.1603,-120.5455 469.893,-123.1596 479.5495,-127.5188 480.1603,-120.5455"/>
</g>
<!-- Node25&#45;&gt;Node3 -->
<g id="edge42" class="edge">
<title>Node25&#45;&gt;Node3</title>
<path fill="none" stroke="#63b8ff" d="M1048.8879,-164.7935C1033.2759,-142.5417 999.9654,-87.2874 1028.1066,-55 1047.659,-32.5667 1249.0795,-16.7947 1327.2924,-11.4735"/>
<polygon fill="#63b8ff" stroke="#63b8ff" points="1327.7349,-14.9518 1337.4791,-10.7924 1327.2678,-7.9674 1327.7349,-14.9518"/>
</g>
<!-- Node25&#45;&gt;Node4 -->
<g id="edge40" class="edge">
<title>Node25&#45;&gt;Node4</title>
<path fill="none" stroke="#63b8ff" d="M1021.5777,-167.7802C1016.7195,-166.8422 1011.788,-165.8939 1007.1066,-165 931.9199,-150.6434 843.5229,-134.1112 797.1757,-125.4698"/>
<polygon fill="#63b8ff" stroke="#63b8ff" points="797.6087,-121.9903 787.1367,-123.5989 796.3262,-128.8719 797.6087,-121.9903"/>
</g>
<!-- Node25&#45;&gt;Node6 -->
<g id="edge41" class="edge">
<title>Node25&#45;&gt;Node6</title>
<path fill="none" stroke="#63b8ff" d="M1090.6095,-172.1543C1222.4537,-163.1909 1693.7814,-131.1476 1828.7522,-121.9716"/>
<polygon fill="#63b8ff" stroke="#63b8ff" points="1829.2247,-125.4476 1838.9642,-121.2773 1828.7498,-118.4637 1829.2247,-125.4476"/>
</g>
<!-- Node25&#45;&gt;Node7 -->
<g id="edge45" class="edge">
<title>Node25&#45;&gt;Node7</title>
<path fill="none" stroke="#63b8ff" d="M1090.7537,-165.2942C1127.415,-155.5533 1185.1699,-140.2078 1223.582,-130.0017"/>
<polygon fill="#63b8ff" stroke="#63b8ff" points="1224.6216,-133.347 1233.3875,-127.3964 1222.824,-126.5817 1224.6216,-133.347"/>
</g>
<!-- Node25&#45;&gt;Node8 -->
<g id="edge43" class="edge">
<title>Node25&#45;&gt;Node8</title>
<path fill="none" stroke="#63b8ff" d="M1021.8461,-164.9343C972.3291,-151.3531 877.7386,-126.3218 796.1066,-110 703.3458,-91.4531 593.0165,-76.4141 536.1698,-69.1753"/>
<polygon fill="#63b8ff" stroke="#63b8ff" points="536.5537,-65.6961 526.1939,-67.9154 535.6765,-72.6409 536.5537,-65.6961"/>
</g>
<!-- Node25&#45;&gt;Node9 -->
<g id="edge44" class="edge">
<title>Node25&#45;&gt;Node9</title>
<path fill="none" stroke="#63b8ff" d="M1056.4616,-164.7382C1057.1155,-146.7541 1058.5224,-108.0652 1059.3844,-84.3599"/>
<polygon fill="#63b8ff" stroke="#63b8ff" points="1062.8923,-84.2034 1059.7581,-74.0828 1055.8969,-83.949 1062.8923,-84.2034"/>
</g>
<!-- Node26&#45;&gt;Node4 -->
<g id="edge47" class="edge">
<title>Node26&#45;&gt;Node4</title>
<path fill="none" stroke="#63b8ff" d="M932.4417,-276.3066C906.0578,-269.1703 870.0126,-257.0934 842.1066,-239 813.6228,-220.532 807.1833,-212.7337 789.1066,-184 780.3584,-170.0944 774.084,-152.5191 770.1498,-139.2277"/>
<polygon fill="#63b8ff" stroke="#63b8ff" points="773.4286,-137.9523 767.3924,-129.2451 766.6813,-139.8161 773.4286,-137.9523"/>
</g>
<!-- Node26&#45;&gt;Node7 -->
<g id="edge48" class="edge">
<title>Node26&#45;&gt;Node7</title>
<path fill="none" stroke="#63b8ff" d="M1003.9084,-277.752C1037.1239,-270.7032 1087.4155,-257.9968 1128.1066,-239 1167.5361,-220.5922 1176.8301,-213.1849 1209.1066,-184 1224.746,-169.8586 1239.9203,-151.1531 1250.1799,-137.5292"/>
<polygon fill="#63b8ff" stroke="#63b8ff" points="1253.0496,-139.5348 1256.1677,-129.4092 1247.4157,-135.3803 1253.0496,-139.5348"/>
</g>
<!-- Node27&#45;&gt;Node4 -->
<g id="edge50" class="edge">
<title>Node27&#45;&gt;Node4</title>
<path fill="none" stroke="#63b8ff" d="M830.0173,-274.9453C797.0822,-266.516 755.2181,-253.3635 745.1066,-239 723.7272,-208.6305 741.3521,-163.3085 754.3487,-138.1056"/>
<polygon fill="#63b8ff" stroke="#63b8ff" points="757.4805,-139.6727 759.1777,-129.2146 751.3292,-136.3317 757.4805,-139.6727"/>
</g>
<!-- Node27&#45;&gt;Node6 -->
<g id="edge52" class="edge">
<title>Node27&#45;&gt;Node6</title>
<path fill="none" stroke="#63b8ff" d="M914.3443,-276.2109C917.3033,-275.76 920.2458,-275.3495 923.1066,-275 1192.6855,-242.0687 1264.6757,-280.2561 1533.1066,-239 1632.2978,-223.7549 1658.9978,-221.444 1752.1066,-184 1785.2624,-170.6663 1820.5936,-149.18 1842.7493,-134.7095"/>
<polygon fill="#63b8ff" stroke="#63b8ff" points="1844.7121,-137.6076 1851.1166,-129.1676 1840.8467,-131.7716 1844.7121,-137.6076"/>
</g>
<!-- Node27&#45;&gt;Node19 -->
<g id="edge51" class="edge">
<title>Node27&#45;&gt;Node19</title>
<path fill="none" stroke="#63b8ff" d="M854.6879,-274.9197C839.2959,-266.4541 816.6076,-253.9755 798.905,-244.2391"/>
<polygon fill="#63b8ff" stroke="#63b8ff" points="800.1101,-240.9075 789.6612,-239.155 796.7366,-247.041 800.1101,-240.9075"/>
</g>
<!-- Node27&#45;&gt;Node23 -->
<g id="edge53" class="edge">
<title>Node27&#45;&gt;Node23</title>
<path fill="none" stroke="#63b8ff" d="M914.3829,-276.4805C917.3327,-275.9654 920.2626,-275.4669 923.1066,-275 1026.5821,-258.0142 1149.5003,-241.5821 1208.3409,-233.946"/>
<polygon fill="#63b8ff" stroke="#63b8ff" points="1209.0942,-237.3778 1218.5628,-232.6244 1208.1966,-230.4356 1209.0942,-237.3778"/>
</g>
<!-- Node27&#45;&gt;Node24 -->
<g id="edge54" class="edge">
<title>Node27&#45;&gt;Node24</title>
<path fill="none" stroke="#63b8ff" d="M891.7897,-274.9197C909.5853,-266.2581 936.0118,-253.3957 956.2043,-243.5675"/>
<polygon fill="#63b8ff" stroke="#63b8ff" points="957.8101,-246.6785 965.2699,-239.155 954.7466,-240.3844 957.8101,-246.6785"/>
</g>
<!-- Node28&#45;&gt;Node2 -->
<g id="edge57" class="edge">
<title>Node28&#45;&gt;Node2</title>
<path fill="none" stroke="#63b8ff" d="M1597.0225,-614.3811C1446.7433,-613.3711 458.3808,-605.3572 408.1066,-569 383.3217,-551.0761 384.1066,-535.0869 384.1066,-504.5 384.1066,-504.5 384.1066,-504.5 384.1066,-229.5 384.1066,-195.2537 402.7189,-159.0235 415.733,-137.8764"/>
<polygon fill="#63b8ff" stroke="#63b8ff" points="418.7901,-139.5926 421.2316,-129.2829 412.8938,-135.8198 418.7901,-139.5926"/>
</g>
<!-- Node28&#45;&gt;Node6 -->
<g id="edge56" class="edge">
<title>Node28&#45;&gt;Node6</title>
<path fill="none" stroke="#63b8ff" d="M1635.263,-613.5113C1700.7867,-609.9113 1915.3641,-596.2614 1978.1066,-569 2049.4874,-537.9853 2106.1066,-527.3276 2106.1066,-449.5 2106.1066,-449.5 2106.1066,-449.5 2106.1066,-284.5 2106.1066,-220.5861 2077.8205,-202.5587 2026.1066,-165 1988.9407,-138.0072 1936.2549,-127.0006 1901.4061,-122.53"/>
<polygon fill="#63b8ff" stroke="#63b8ff" points="1901.5381,-119.0218 1891.2005,-121.342 1900.7287,-125.9749 1901.5381,-119.0218"/>
</g>
<!-- Node28&#45;&gt;Node8 -->
<g id="edge58" class="edge">
<title>Node28&#45;&gt;Node8</title>
<path fill="none" stroke="#63b8ff" d="M1596.8681,-613.7726C1443.2915,-607.8438 422.1066,-566.1052 422.1066,-504.5 422.1066,-504.5 422.1066,-504.5 422.1066,-449.5 422.1066,-368.7614 498.1066,-365.2386 498.1066,-284.5 498.1066,-284.5 498.1066,-284.5 498.1066,-174.5 498.1066,-142.9508 498.1066,-106.3117 498.1066,-84.2905"/>
<polygon fill="#63b8ff" stroke="#63b8ff" points="501.6067,-84.2116 498.1066,-74.2116 494.6067,-84.2117 501.6067,-84.2116"/>
</g>
<!-- Node28&#45;&gt;Node18 -->
<g id="edge71" class="edge">
<title>Node28&#45;&gt;Node18</title>
<path fill="none" stroke="#63b8ff" d="M1620.2896,-604.6004C1625.1205,-591.69 1631.6185,-568.5641 1625.1066,-550 1583.659,-431.842 1545.5722,-409.8348 1449.1066,-330 1433.4422,-317.0362 1413.4943,-306.2038 1396.7546,-298.3647"/>
<polygon fill="#63b8ff" stroke="#63b8ff" points="1397.8798,-295.0323 1387.326,-294.1015 1394.9959,-301.4107 1397.8798,-295.0323"/>
</g>
<!-- Node28&#45;&gt;Node23 -->
<g id="edge62" class="edge">
<title>Node28&#45;&gt;Node23</title>
<path fill="none" stroke="#63b8ff" d="M1596.9132,-607.6401C1580.6346,-600.6782 1558.3452,-588.1701 1548.1066,-569 1520.1738,-516.7007 1604.5449,-494.8815 1582.1066,-440 1556.1782,-376.582 1524.6573,-376.2466 1474.1066,-330 1445.6814,-303.9951 1441.301,-292.7478 1407.1066,-275 1356.5969,-248.7841 1336.8866,-254.3772 1277.5012,-239.0106"/>
<polygon fill="#63b8ff" stroke="#63b8ff" points="1278.1844,-235.5701 1267.6187,-236.3563 1276.3685,-242.3305 1278.1844,-235.5701"/>
</g>
<!-- Node29 -->
<g id="node29" class="node">
<title>Node29</title>
<g id="a_node29"><a xlink:title=" ">
<polygon fill="#e0e0e0" stroke="#999999" points="1616.6066,-569 1557.6066,-569 1557.6066,-550 1616.6066,-550 1616.6066,-569"/>
<text text-anchor="middle" x="1587.1066" y="-557" font-family="Helvetica,sans-Serif" font-size="10.00" fill="#000000">functional</text>
</a>
</g>
</g>
<!-- Node28&#45;&gt;Node29 -->
<g id="edge59" class="edge">
<title>Node28&#45;&gt;Node29</title>
<path fill="none" stroke="#63b8ff" d="M1611.0552,-604.9197C1607.1939,-597.5967 1601.7494,-587.2709 1597.0271,-578.3147"/>
<polygon fill="#63b8ff" stroke="#63b8ff" points="1600.0555,-576.5541 1592.2954,-569.3408 1593.8635,-579.819 1600.0555,-576.5541"/>
</g>
<!-- Node30 -->
<g id="node30" class="node">
<title>Node30</title>
<g id="a_node30"><a xlink:title=" ">
<polygon fill="#e0e0e0" stroke="#999999" points="2146.1066,-184 2096.1066,-184 2096.1066,-165 2146.1066,-165 2146.1066,-184"/>
<text text-anchor="middle" x="2121.1066" y="-172" font-family="Helvetica,sans-Serif" font-size="10.00" fill="#000000">fstream</text>
</a>
</g>
</g>
<!-- Node28&#45;&gt;Node30 -->
<g id="edge60" class="edge">
<title>Node28&#45;&gt;Node30</title>
<path fill="none" stroke="#63b8ff" d="M1635.2623,-614.2439C1723.2207,-612.8755 2085.5467,-605.0687 2119.1066,-569 2219.2212,-461.4012 2152.9037,-257.0018 2128.8267,-193.6848"/>
<polygon fill="#63b8ff" stroke="#63b8ff" points="2132.0061,-192.204 2125.1126,-184.1585 2125.4842,-194.7468 2132.0061,-192.204"/>
</g>
<!-- Node31 -->
<g id="node31" class="node">
<title>Node31</title>
<g id="a_node31"><a xlink:title=" ">
<polygon fill="#e0e0e0" stroke="#999999" points="85.6066,-129 36.6066,-129 36.6066,-110 85.6066,-110 85.6066,-129"/>
<text text-anchor="middle" x="61.1066" y="-117" font-family="Helvetica,sans-Serif" font-size="10.00" fill="#000000">ctype.h</text>
</a>
</g>
</g>
<!-- Node28&#45;&gt;Node31 -->
<g id="edge61" class="edge">
<title>Node28&#45;&gt;Node31</title>
<path fill="none" stroke="#63b8ff" d="M1597.0282,-614.2039C1450.8039,-611.8806 510.1616,-595.9584 387.1066,-569 314.2198,-553.0322 232.1066,-579.1154 232.1066,-504.5 232.1066,-504.5 232.1066,-504.5 232.1066,-449.5 232.1066,-315.8864 120.2299,-182.519 77.461,-136.4162"/>
<polygon fill="#63b8ff" stroke="#63b8ff" points="79.9488,-133.9528 70.5439,-129.0745 74.854,-138.7531 79.9488,-133.9528"/>
</g>
<!-- Node32 -->
<g id="node32" class="node">
<title>Node32</title>
<g id="a_node32"><a xlink:href="../../de/d9c/docparser_8h.html" target="_top" xlink:title=" ">
<polygon fill="#ffffff" stroke="#666666" points="1926.1066,-239 1858.1066,-239 1858.1066,-220 1926.1066,-220 1926.1066,-239"/>
<text text-anchor="middle" x="1892.1066" y="-227" font-family="Helvetica,sans-Serif" font-size="10.00" fill="#000000">docparser.h</text>
</a>
</g>
</g>
<!-- Node28&#45;&gt;Node32 -->
<g id="edge63" class="edge">
<title>Node28&#45;&gt;Node32</title>
<path fill="none" stroke="#63b8ff" d="M1635.4622,-608.2478C1694.4711,-588.9117 1868.1066,-529.86 1868.1066,-504.5 1868.1066,-504.5 1868.1066,-504.5 1868.1066,-339.5 1868.1066,-307.0605 1878.1931,-270.451 1885.2883,-248.7117"/>
<polygon fill="#63b8ff" stroke="#63b8ff" points="1888.665,-249.6526 1888.5653,-239.0583 1882.0365,-247.4025 1888.665,-249.6526"/>
</g>
<!-- Node36 -->
<g id="node36" class="node">
<title>Node36</title>
<g id="a_node36"><a xlink:href="../../df/d06/outputgen_8h.html" target="_top" xlink:title=" ">
<polygon fill="#ffffff" stroke="#666666" points="1964.1066,-294 1896.1066,-294 1896.1066,-275 1964.1066,-275 1964.1066,-294"/>
<text text-anchor="middle" x="1930.1066" y="-282" font-family="Helvetica,sans-Serif" font-size="10.00" fill="#000000">outputgen.h</text>
</a>
</g>
</g>
<!-- Node28&#45;&gt;Node36 -->
<g id="edge72" class="edge">
<title>Node28&#45;&gt;Node36</title>
<path fill="none" stroke="#63b8ff" d="M1635.3629,-609.3352C1641.3441,-607.8256 1647.976,-606.2478 1654.1066,-605 1738.8577,-587.7504 2030.1066,-590.9888 2030.1066,-504.5 2030.1066,-504.5 2030.1066,-504.5 2030.1066,-394.5 2030.1066,-351.2294 1987.2162,-317.4558 1957.6139,-299.2989"/>
<polygon fill="#63b8ff" stroke="#63b8ff" points="1959.308,-296.2347 1948.9158,-294.1721 1955.7535,-302.2651 1959.308,-296.2347"/>
</g>
<!-- Node43 -->
<g id="node43" class="node">
<title>Node43</title>
<g id="a_node43"><a xlink:href="../../d1/d21/regex_8h.html" target="_top" xlink:title=" ">
<polygon fill="#ffffff" stroke="#666666" points="1580.6066,-184 1531.6066,-184 1531.6066,-165 1580.6066,-165 1580.6066,-184"/>
<text text-anchor="middle" x="1556.1066" y="-172" font-family="Helvetica,sans-Serif" font-size="10.00" fill="#000000">regex.h</text>
</a>
</g>
</g>
<!-- Node28&#45;&gt;Node43 -->
<g id="edge95" class="edge">
<title>Node28&#45;&gt;Node43</title>
<path fill="none" stroke="#63b8ff" d="M1627.1703,-604.8074C1646.2002,-586.9993 1683.1066,-546.9855 1683.1066,-504.5 1683.1066,-504.5 1683.1066,-504.5 1683.1066,-339.5 1683.1066,-272.5177 1616.5701,-216.056 1579.8174,-189.9777"/>
<polygon fill="#63b8ff" stroke="#63b8ff" points="1581.3926,-186.8123 1571.1739,-184.0143 1577.4174,-192.574 1581.3926,-186.8123"/>
</g>
<!-- Node44 -->
<g id="node44" class="node">
<title>Node44</title>
<g id="a_node44"><a xlink:href="../../da/df1/conceptdef_8h.html" target="_top" xlink:title=" ">
<polygon fill="#ffffff" stroke="#666666" points="1500.6066,-569 1427.6066,-569 1427.6066,-550 1500.6066,-550 1500.6066,-569"/>
<text text-anchor="middle" x="1464.1066" y="-557" font-family="Helvetica,sans-Serif" font-size="10.00" fill="#000000">conceptdef.h</text>
</a>
</g>
</g>
<!-- Node28&#45;&gt;Node44 -->
<g id="edge100" class="edge">
<title>Node28&#45;&gt;Node44</title>
<path fill="none" stroke="#63b8ff" d="M1596.8557,-607.5342C1572.6687,-598.7823 1530.6655,-583.5838 1500.3757,-572.6237"/>
<polygon fill="#63b8ff" stroke="#63b8ff" points="1501.1894,-569.1961 1490.5952,-569.0847 1498.8076,-575.7784 1501.1894,-569.1961"/>
</g>
<!-- Node32&#45;&gt;Node6 -->
<g id="edge65" class="edge">
<title>Node32&#45;&gt;Node6</title>
<path fill="none" stroke="#63b8ff" d="M1895.1317,-219.6214C1898.5738,-206.7337 1903.0025,-183.6322 1897.1066,-165 1893.8971,-154.8576 1887.5247,-145.0191 1881.3056,-137.1009"/>
<polygon fill="#63b8ff" stroke="#63b8ff" points="1883.8909,-134.7371 1874.7744,-129.3389 1878.5348,-139.244 1883.8909,-134.7371"/>
</g>
<!-- Node32&#45;&gt;Node7 -->
<g id="edge66" class="edge">
<title>Node32&#45;&gt;Node7</title>
<path fill="none" stroke="#63b8ff" d="M1857.8223,-225.4374C1843.4,-223.7392 1826.4395,-221.7563 1811.1066,-220 1668.0393,-203.6128 1629.576,-215.7038 1489.1066,-184 1463.8792,-178.3062 1458.8413,-172.5522 1434.1066,-165 1389.3143,-151.3236 1337.2281,-137.8003 1302.4202,-129.0978"/>
<polygon fill="#63b8ff" stroke="#63b8ff" points="1303.1901,-125.6827 1292.641,-126.6661 1301.5009,-132.4758 1303.1901,-125.6827"/>
</g>
<!-- Node33 -->
<g id="node33" class="node">
<title>Node33</title>
<g id="a_node33"><a xlink:title=" ">
<polygon fill="#e0e0e0" stroke="#999999" points="1888.1066,-184 1842.1066,-184 1842.1066,-165 1888.1066,-165 1888.1066,-184"/>
<text text-anchor="middle" x="1865.1066" y="-172" font-family="Helvetica,sans-Serif" font-size="10.00" fill="#000000">stdio.h</text>
</a>
</g>
</g>
<!-- Node32&#45;&gt;Node33 -->
<g id="edge64" class="edge">
<title>Node32&#45;&gt;Node33</title>
<path fill="none" stroke="#63b8ff" d="M1887.4035,-219.9197C1883.8469,-212.6746 1878.8473,-202.4903 1874.4835,-193.601"/>
<polygon fill="#63b8ff" stroke="#63b8ff" points="1877.4862,-191.7751 1869.9375,-184.3408 1871.2025,-194.8599 1877.4862,-191.7751"/>
</g>
<!-- Node34 -->
<g id="node34" class="node">
<title>Node34</title>
<g id="a_node34"><a xlink:href="../../d7/d50/growvector_8h.html" target="_top" xlink:title=" ">
<polygon fill="#ffffff" stroke="#666666" points="1671.6066,-184 1598.6066,-184 1598.6066,-165 1671.6066,-165 1671.6066,-184"/>
<text text-anchor="middle" x="1635.1066" y="-172" font-family="Helvetica,sans-Serif" font-size="10.00" fill="#000000">growvector.h</text>
</a>
</g>
</g>
<!-- Node32&#45;&gt;Node34 -->
<g id="edge67" class="edge">
<title>Node32&#45;&gt;Node34</title>
<path fill="none" stroke="#63b8ff" d="M1857.979,-222.1964C1812.7588,-212.519 1732.7882,-195.4046 1681.9437,-184.5235"/>
<polygon fill="#63b8ff" stroke="#63b8ff" points="1682.3818,-181.0381 1671.8708,-182.3678 1680.9169,-187.8831 1682.3818,-181.0381"/>
</g>
<!-- Node34&#45;&gt;Node4 -->
<g id="edge68" class="edge">
<title>Node34&#45;&gt;Node4</title>
<path fill="none" stroke="#63b8ff" d="M1598.5313,-166.4358C1595.3536,-165.8904 1592.1794,-165.3999 1589.1066,-165 1431.9148,-144.5434 930.8246,-125.4562 797.7926,-120.655"/>
<polygon fill="#63b8ff" stroke="#63b8ff" points="797.5807,-117.1452 787.4615,-120.2842 797.3295,-124.1407 797.5807,-117.1452"/>
</g>
<!-- Node34&#45;&gt;Node6 -->
<g id="edge69" class="edge">
<title>Node34&#45;&gt;Node6</title>
<path fill="none" stroke="#63b8ff" d="M1671.8051,-165.7243C1715.0134,-155.3919 1786.3066,-138.3435 1829.1779,-128.0916"/>
<polygon fill="#63b8ff" stroke="#63b8ff" points="1829.9999,-131.4938 1838.9117,-125.764 1828.3718,-124.6858 1829.9999,-131.4938"/>
</g>
<!-- Node35 -->
<g id="node35" class="node">
<title>Node35</title>
<g id="a_node35"><a xlink:title=" ">
<polygon fill="#e0e0e0" stroke="#999999" points="1642.6066,-129 1595.6066,-129 1595.6066,-110 1642.6066,-110 1642.6066,-129"/>
<text text-anchor="middle" x="1619.1066" y="-117" font-family="Helvetica,sans-Serif" font-size="10.00" fill="#000000">iterator</text>
</a>
</g>
</g>
<!-- Node34&#45;&gt;Node35 -->
<g id="edge70" class="edge">
<title>Node34&#45;&gt;Node35</title>
<path fill="none" stroke="#63b8ff" d="M1632.3196,-164.9197C1630.2573,-157.8304 1627.3762,-147.9269 1624.8306,-139.1763"/>
<polygon fill="#63b8ff" stroke="#63b8ff" points="1628.1234,-137.9651 1621.9694,-129.3408 1621.4021,-139.9205 1628.1234,-137.9651"/>
</g>
<!-- Node36&#45;&gt;Node6 -->
<g id="edge73" class="edge">
<title>Node36&#45;&gt;Node6</title>
<path fill="none" stroke="#63b8ff" d="M1932.4545,-274.7931C1935.1643,-262.0911 1938.8023,-239.1902 1935.1066,-220 1930.1279,-194.1476 1927.8921,-186.7836 1913.1066,-165 1905.6254,-153.9779 1895.0668,-143.6012 1885.7566,-135.5487"/>
<polygon fill="#63b8ff" stroke="#63b8ff" points="1887.9345,-132.8078 1878.0049,-129.1127 1883.4629,-138.1935 1887.9345,-132.8078"/>
</g>
<!-- Node36&#45;&gt;Node21 -->
<g id="edge74" class="edge">
<title>Node36&#45;&gt;Node21</title>
<path fill="none" stroke="#63b8ff" d="M1895.8342,-276.7797C1860.5299,-268.6709 1803.7196,-255.1907 1745.4515,-238.9563"/>
<polygon fill="#63b8ff" stroke="#63b8ff" points="1746.284,-235.5547 1735.7101,-236.2198 1744.3909,-242.2939 1746.284,-235.5547"/>
</g>
<!-- Node36&#45;&gt;Node23 -->
<g id="edge77" class="edge">
<title>Node36&#45;&gt;Node23</title>
<path fill="none" stroke="#63b8ff" d="M1895.7146,-283.0266C1781.7501,-278.0033 1416.356,-260.735 1277.8229,-238.7041"/>
<polygon fill="#63b8ff" stroke="#63b8ff" points="1278.2959,-235.2347 1267.8562,-237.0413 1277.1439,-242.1393 1278.2959,-235.2347"/>
</g>
<!-- Node36&#45;&gt;Node30 -->
<g id="edge76" class="edge">
<title>Node36&#45;&gt;Node30</title>
<path fill="none" stroke="#63b8ff" d="M1946.7225,-274.9306C1980.164,-255.6711 2055.786,-212.1192 2095.5589,-189.2133"/>
<polygon fill="#63b8ff" stroke="#63b8ff" points="2097.4742,-192.1493 2104.3931,-184.1256 2093.9807,-186.0833 2097.4742,-192.1493"/>
</g>
<!-- Node36&#45;&gt;Node32 -->
<g id="edge94" class="edge">
<title>Node36&#45;&gt;Node32</title>
<path fill="none" stroke="#63b8ff" d="M1923.4875,-274.9197C1918.3203,-267.4409 1910.9892,-256.8301 1904.7122,-247.745"/>
<polygon fill="#63b8ff" stroke="#63b8ff" points="1907.4696,-245.5786 1898.9057,-239.3408 1901.7105,-249.5577 1907.4696,-245.5786"/>
</g>
<!-- Node37 -->
<g id="node37" class="node">
<title>Node37</title>
<g id="a_node37"><a xlink:title=" ">
<polygon fill="#e0e0e0" stroke="#999999" points="2218.1066,-184 2164.1066,-184 2164.1066,-165 2218.1066,-165 2218.1066,-184"/>
<text text-anchor="middle" x="2191.1066" y="-172" font-family="Helvetica,sans-Serif" font-size="10.00" fill="#000000">iostream</text>
</a>
</g>
</g>
<!-- Node36&#45;&gt;Node37 -->
<g id="edge75" class="edge">
<title>Node36&#45;&gt;Node37</title>
<path fill="none" stroke="#63b8ff" d="M1953.3153,-274.9905C1975.5998,-265.8383 2010.1957,-251.5739 2040.1066,-239 2081.4855,-221.6052 2129.0879,-201.2072 2159.6038,-188.0811"/>
<polygon fill="#63b8ff" stroke="#63b8ff" points="2161.0799,-191.2563 2168.8816,-184.0879 2158.3125,-184.8265 2161.0799,-191.2563"/>
</g>
<!-- Node38 -->
<g id="node38" class="node">
<title>Node38</title>
<g id="a_node38"><a xlink:href="../../d1/db5/index_8h.html" target="_top" xlink:title=" ">
<polygon fill="#ffffff" stroke="#666666" points="1802.1066,-239 1754.1066,-239 1754.1066,-220 1802.1066,-220 1802.1066,-239"/>
<text text-anchor="middle" x="1778.1066" y="-227" font-family="Helvetica,sans-Serif" font-size="10.00" fill="#000000">index.h</text>
</a>
</g>
</g>
<!-- Node36&#45;&gt;Node38 -->
<g id="edge78" class="edge">
<title>Node36&#45;&gt;Node38</title>
<path fill="none" stroke="#63b8ff" d="M1903.6302,-274.9197C1878.177,-265.7097 1839.5973,-251.7499 1811.9303,-241.7388"/>
<polygon fill="#63b8ff" stroke="#63b8ff" points="1812.8697,-238.3567 1802.2754,-238.2453 1810.4879,-244.9391 1812.8697,-238.3567"/>
</g>
<!-- Node39 -->
<g id="node39" class="node">
<title>Node39</title>
<g id="a_node39"><a xlink:href="../../d1/d2a/section_8h.html" target="_top" xlink:title=" ">
<polygon fill="#ffffff" stroke="#666666" points="1524.1066,-239 1468.1066,-239 1468.1066,-220 1524.1066,-220 1524.1066,-239"/>
<text text-anchor="middle" x="1496.1066" y="-227" font-family="Helvetica,sans-Serif" font-size="10.00" fill="#000000">section.h</text>
</a>
</g>
</g>
<!-- Node36&#45;&gt;Node39 -->
<g id="edge80" class="edge">
<title>Node36&#45;&gt;Node39</title>
<path fill="none" stroke="#63b8ff" d="M1896.0513,-280.1842C1816.3328,-270.0817 1618.0318,-244.9514 1534.3395,-234.3452"/>
<polygon fill="#63b8ff" stroke="#63b8ff" points="1534.6089,-230.8514 1524.2481,-233.0663 1533.7287,-237.7959 1534.6089,-230.8514"/>
</g>
<!-- Node40 -->
<g id="node40" class="node">
<title>Node40</title>
<g id="a_node40"><a xlink:href="../../d4/d7d/textstream_8h.html" target="_top" xlink:title=" ">
<polygon fill="#ffffff" stroke="#666666" points="2297.6066,-239 2226.6066,-239 2226.6066,-220 2297.6066,-220 2297.6066,-239"/>
<text text-anchor="middle" x="2262.1066" y="-227" font-family="Helvetica,sans-Serif" font-size="10.00" fill="#000000">textstream.h</text>
</a>
</g>
</g>
<!-- Node36&#45;&gt;Node40 -->
<g id="edge85" class="edge">
<title>Node36&#45;&gt;Node40</title>
<path fill="none" stroke="#63b8ff" d="M1964.386,-278.8212C2024.5835,-268.8487 2149.2797,-248.1912 2216.6131,-237.0366"/>
<polygon fill="#63b8ff" stroke="#63b8ff" points="2217.2193,-240.4839 2226.5128,-235.3966 2216.0752,-233.5781 2217.2193,-240.4839"/>
</g>
<!-- Node38&#45;&gt;Node7 -->
<g id="edge79" class="edge">
<title>Node38&#45;&gt;Node7</title>
<path fill="none" stroke="#63b8ff" d="M1754.0687,-222.3019C1750.741,-221.4468 1747.3519,-220.6489 1744.1066,-220 1615.452,-194.274 1578.9606,-213.4481 1451.1066,-184 1395.1666,-171.1156 1332.5396,-147.7389 1295.5397,-132.9475"/>
<polygon fill="#63b8ff" stroke="#63b8ff" points="1296.3934,-129.5177 1285.8103,-129.0191 1293.7726,-136.0086 1296.3934,-129.5177"/>
</g>
<!-- Node39&#45;&gt;Node2 -->
<g id="edge82" class="edge">
<title>Node39&#45;&gt;Node2</title>
<path fill="none" stroke="#63b8ff" d="M1468.0006,-225.6816C1453.9339,-223.8363 1436.636,-221.6664 1421.1066,-220 1239.6676,-200.531 1193.6955,-202.0173 1012.1066,-184 815.3427,-164.4771 581.7214,-137.5386 479.8738,-125.6081"/>
<polygon fill="#63b8ff" stroke="#63b8ff" points="480.1932,-122.1216 469.8536,-124.4329 479.3778,-129.074 480.1932,-122.1216"/>
</g>
<!-- Node39&#45;&gt;Node3 -->
<g id="edge81" class="edge">
<title>Node39&#45;&gt;Node3</title>
<path fill="none" stroke="#63b8ff" d="M1524.1669,-221.3264C1525.8361,-220.8699 1527.4922,-220.4246 1529.1066,-220 1598.182,-201.8336 1697.2656,-234.3325 1680.1066,-165 1661.678,-90.5377 1619.0441,-81.6315 1547.1066,-55 1482.0777,-30.926 1459.9404,-37.3182 1388.6097,-18.9056"/>
<polygon fill="#63b8ff" stroke="#63b8ff" points="1389.2596,-15.4568 1378.6961,-16.2705 1387.4614,-22.2219 1389.2596,-15.4568"/>
</g>
<!-- Node39&#45;&gt;Node7 -->
<g id="edge83" class="edge">
<title>Node39&#45;&gt;Node7</title>
<path fill="none" stroke="#63b8ff" d="M1468.0626,-223.0355C1428.8095,-213.7238 1359.7481,-196.3049 1337.1066,-184 1314.3649,-171.6406 1292.5617,-151.2445 1278.5877,-136.6975"/>
<polygon fill="#63b8ff" stroke="#63b8ff" points="1281.0609,-134.2179 1271.6736,-129.3058 1275.9487,-138.9998 1281.0609,-134.2179"/>
</g>
<!-- Node39&#45;&gt;Node25 -->
<g id="edge84" class="edge">
<title>Node39&#45;&gt;Node25</title>
<path fill="none" stroke="#63b8ff" d="M1467.7233,-222.641C1463.1853,-221.6713 1458.5289,-220.7506 1454.1066,-220 1326.8326,-198.3965 1174.8806,-184.2003 1100.9513,-178.0275"/>
<polygon fill="#63b8ff" stroke="#63b8ff" points="1100.8761,-174.5094 1090.6221,-177.175 1100.3003,-181.4857 1100.8761,-174.5094"/>
</g>
<!-- Node40&#45;&gt;Node3 -->
<g id="edge86" class="edge">
<title>Node40&#45;&gt;Node3</title>
<path fill="none" stroke="#63b8ff" d="M2297.8539,-225.6741C2345.8155,-219.0447 2422.0406,-202.3689 2395.1066,-165 2349.9084,-102.2909 2305.6319,-126.4695 2230.1066,-110 1865.5798,-30.5093 1758.3411,-95.2618 1388.5196,-18.6596"/>
<polygon fill="#63b8ff" stroke="#63b8ff" points="1389.1245,-15.2105 1378.6196,-16.5884 1387.6909,-22.0621 1389.1245,-15.2105"/>
</g>
<!-- Node40&#45;&gt;Node7 -->
<g id="edge93" class="edge">
<title>Node40&#45;&gt;Node7</title>
<path fill="none" stroke="#63b8ff" d="M2226.1853,-228.8557C2097.292,-226.3007 1658.507,-215.4419 1522.1066,-184 1500.5521,-179.0314 1497.2314,-171.5596 1476.1066,-165 1416.8894,-146.6122 1346.1414,-133.1122 1302.9312,-125.7829"/>
<polygon fill="#63b8ff" stroke="#63b8ff" points="1303.2661,-122.2904 1292.8263,-124.0965 1302.1137,-129.1949 1303.2661,-122.2904"/>
</g>
<!-- Node40&#45;&gt;Node11 -->
<g id="edge90" class="edge">
<title>Node40&#45;&gt;Node11</title>
<path fill="none" stroke="#63b8ff" d="M2297.7334,-223.1174C2340.5968,-213.9554 2403.6852,-194.8193 2377.1066,-165 2319.3394,-100.1893 1679.2799,-71.5616 1528.0107,-65.6742"/>
<polygon fill="#63b8ff" stroke="#63b8ff" points="1528.1056,-62.1753 1517.9788,-65.2894 1527.8373,-69.1702 1528.1056,-62.1753"/>
</g>
<!-- Node40&#45;&gt;Node13 -->
<g id="edge89" class="edge">
<title>Node40&#45;&gt;Node13</title>
<path fill="none" stroke="#63b8ff" d="M2297.788,-223.8754C2344.685,-215.9627 2423.9439,-200.6392 2448.1066,-184 2502.9123,-146.2591 2570.181,-103.0125 2524.1066,-55 2486.1154,-15.4108 1633.9818,-10.2422 1453.5008,-9.591"/>
<polygon fill="#63b8ff" stroke="#63b8ff" points="1453.3053,-6.0904 1443.2935,-9.5565 1453.2816,-13.0903 1453.3053,-6.0904"/>
</g>
<!-- Node40&#45;&gt;Node30 -->
<g id="edge91" class="edge">
<title>Node40&#45;&gt;Node30</title>
<path fill="none" stroke="#63b8ff" d="M2237.5463,-219.9197C2214.8387,-211.0622 2180.8689,-197.8115 2155.4725,-187.9052"/>
<polygon fill="#63b8ff" stroke="#63b8ff" points="2156.4468,-184.5284 2145.8586,-184.155 2153.903,-191.0498 2156.4468,-184.5284"/>
</g>
<!-- Node40&#45;&gt;Node37 -->
<g id="edge87" class="edge">
<title>Node40&#45;&gt;Node37</title>
<path fill="none" stroke="#63b8ff" d="M2249.7393,-219.9197C2239.2803,-211.8177 2224.0763,-200.0399 2211.7717,-190.5082"/>
<polygon fill="#63b8ff" stroke="#63b8ff" points="2213.8591,-187.6979 2203.8102,-184.3408 2209.5723,-193.2318 2213.8591,-187.6979"/>
</g>
<!-- Node41 -->
<g id="node41" class="node">
<title>Node41</title>
<g id="a_node41"><a xlink:title=" ">
<polygon fill="#e0e0e0" stroke="#999999" points="2288.1066,-184 2236.1066,-184 2236.1066,-165 2288.1066,-165 2288.1066,-184"/>
<text text-anchor="middle" x="2262.1066" y="-172" font-family="Helvetica,sans-Serif" font-size="10.00" fill="#000000">sstream</text>
</a>
</g>
</g>
<!-- Node40&#45;&gt;Node41 -->
<g id="edge88" class="edge">
<title>Node40&#45;&gt;Node41</title>
<path fill="none" stroke="#63b8ff" d="M2262.1066,-219.9197C2262.1066,-212.9083 2262.1066,-203.1442 2262.1066,-194.4652"/>
<polygon fill="#63b8ff" stroke="#63b8ff" points="2265.6067,-194.3408 2262.1066,-184.3408 2258.6067,-194.3409 2265.6067,-194.3408"/>
</g>
<!-- Node42 -->
<g id="node42" class="node">
<title>Node42</title>
<g id="a_node42"><a xlink:title=" ">
<polygon fill="#e0e0e0" stroke="#999999" points="2368.1066,-184 2306.1066,-184 2306.1066,-165 2368.1066,-165 2368.1066,-184"/>
<text text-anchor="middle" x="2337.1066" y="-172" font-family="Helvetica,sans-Serif" font-size="10.00" fill="#000000">type_traits</text>
</a>
</g>
</g>
<!-- Node40&#45;&gt;Node42 -->
<g id="edge92" class="edge">
<title>Node40&#45;&gt;Node42</title>
<path fill="none" stroke="#63b8ff" d="M2275.1706,-219.9197C2286.2871,-211.7677 2302.4779,-199.8944 2315.5176,-190.3319"/>
<polygon fill="#63b8ff" stroke="#63b8ff" points="2317.9464,-192.8911 2323.9406,-184.155 2313.8068,-187.2463 2317.9464,-192.8911"/>
</g>
<!-- Node43&#45;&gt;Node3 -->
<g id="edge97" class="edge">
<title>Node43&#45;&gt;Node3</title>
<path fill="none" stroke="#63b8ff" d="M1556.7247,-164.8889C1557.6152,-142.3519 1556.5184,-85.6935 1526.1066,-55 1483.6714,-12.1718 1452.209,-34.1467 1388.7523,-18.8463"/>
<polygon fill="#63b8ff" stroke="#63b8ff" points="1389.2844,-15.3663 1378.721,-16.1814 1387.4871,-22.1317 1389.2844,-15.3663"/>
</g>
<!-- Node43&#45;&gt;Node4 -->
<g id="edge98" class="edge">
<title>Node43&#45;&gt;Node4</title>
<path fill="none" stroke="#63b8ff" d="M1531.5661,-172.7936C1416.2886,-164.7781 928.6832,-130.8739 797.6416,-121.7622"/>
<polygon fill="#63b8ff" stroke="#63b8ff" points="797.6702,-118.2559 787.4515,-121.0537 797.1846,-125.239 797.6702,-118.2559"/>
</g>
<!-- Node43&#45;&gt;Node6 -->
<g id="edge96" class="edge">
<title>Node43&#45;&gt;Node6</title>
<path fill="none" stroke="#63b8ff" d="M1580.8924,-167.0281C1583.652,-166.2967 1586.4313,-165.6034 1589.1066,-165 1674.3785,-145.7665 1776.187,-131.0856 1829.1204,-124.064"/>
<polygon fill="#63b8ff" stroke="#63b8ff" points="1829.5764,-127.5342 1839.036,-122.7627 1828.6655,-120.5937 1829.5764,-127.5342"/>
</g>
<!-- Node43&#45;&gt;Node35 -->
<g id="edge99" class="edge">
<title>Node43&#45;&gt;Node35</title>
<path fill="none" stroke="#63b8ff" d="M1567.0803,-164.9197C1576.1824,-156.9735 1589.3344,-145.4916 1600.1373,-136.0605"/>
<polygon fill="#63b8ff" stroke="#63b8ff" points="1602.603,-138.5541 1607.8344,-129.3408 1597.9994,-133.2808 1602.603,-138.5541"/>
</g>
<!-- Node44&#45;&gt;Node22 -->
<g id="edge101" class="edge">
<title>Node44&#45;&gt;Node22</title>
<path fill="none" stroke="#63b8ff" d="M1459.3267,-549.9351C1440.6939,-513.7828 1368.9472,-384.7581 1268.1066,-330 1225.7697,-307.0104 1171.345,-295.2597 1134.301,-289.5189"/>
<polygon fill="#63b8ff" stroke="#63b8ff" points="1134.7407,-286.046 1124.338,-288.0547 1133.7228,-292.9716 1134.7407,-286.046"/>
</g>
<!-- Node45 -->
<g id="node45" class="node">
<title>Node45</title>
<g id="a_node45"><a xlink:href="../../d4/d3a/filedef_8h.html" target="_top" xlink:title=" ">
<polygon fill="#ffffff" stroke="#666666" points="1416.6066,-514 1365.6066,-514 1365.6066,-495 1416.6066,-495 1416.6066,-514"/>
<text text-anchor="middle" x="1391.1066" y="-502" font-family="Helvetica,sans-Serif" font-size="10.00" fill="#000000">filedef.h</text>
</a>
</g>
</g>
<!-- Node44&#45;&gt;Node45 -->
<g id="edge102" class="edge">
<title>Node44&#45;&gt;Node45</title>
<path fill="none" stroke="#63b8ff" d="M1451.391,-549.9197C1440.6373,-541.8177 1425.005,-530.0399 1412.3538,-520.5082"/>
<polygon fill="#63b8ff" stroke="#63b8ff" points="1414.2611,-517.563 1404.1681,-514.3408 1410.0488,-523.1538 1414.2611,-517.563"/>
</g>
<!-- Node45&#45;&gt;Node17 -->
<g id="edge103" class="edge">
<title>Node45&#45;&gt;Node17</title>
<path fill="none" stroke="#63b8ff" d="M1403.7401,-494.9668C1414.0763,-486.5507 1428.367,-473.4055 1437.1066,-459 1450.3776,-437.1254 1450.286,-429.2986 1454.1066,-404 1457.1437,-383.8897 1450.5032,-334.7834 1449.1066,-330 1440.1639,-299.3708 1421.6367,-267.1524 1409.2868,-247.6908"/>
<polygon fill="#63b8ff" stroke="#63b8ff" points="1412.1708,-245.7054 1403.7893,-239.2245 1406.2999,-249.5176 1412.1708,-245.7054"/>
</g>
<!-- Node45&#45;&gt;Node18 -->
<g id="edge119" class="edge">
<title>Node45&#45;&gt;Node18</title>
<path fill="none" stroke="#63b8ff" d="M1397.7509,-494.8083C1415.6828,-467.347 1461.7095,-387.2987 1431.1066,-330 1423.7664,-316.2567 1410.2325,-305.9374 1397.1601,-298.6311"/>
<polygon fill="#63b8ff" stroke="#63b8ff" points="1398.7582,-295.5172 1388.2655,-294.0491 1395.5525,-301.7401 1398.7582,-295.5172"/>
</g>
<!-- Node45&#45;&gt;Node22 -->
<g id="edge104" class="edge">
<title>Node45&#45;&gt;Node22</title>
<path fill="none" stroke="#63b8ff" d="M1385.6205,-494.9116C1368.3502,-465.5903 1312.0156,-376.3121 1241.1066,-330 1208.6557,-308.8057 1165.847,-297.0822 1134.4446,-290.8676"/>
<polygon fill="#63b8ff" stroke="#63b8ff" points="1134.7366,-287.3617 1124.2638,-288.9655 1133.4509,-294.2426 1134.7366,-287.3617"/>
</g>
<!-- Node46 -->
<g id="node46" class="node">
<title>Node46</title>
<g id="a_node46"><a xlink:href="../../dd/d78/memberlist_8h.html" target="_top" xlink:title=" ">
<polygon fill="#ffffff" stroke="#666666" points="962.6066,-459 889.6066,-459 889.6066,-440 962.6066,-440 962.6066,-459"/>
<text text-anchor="middle" x="926.1066" y="-447" font-family="Helvetica,sans-Serif" font-size="10.00" fill="#000000">memberlist.h</text>
</a>
</g>
</g>
<!-- Node45&#45;&gt;Node46 -->
<g id="edge105" class="edge">
<title>Node45&#45;&gt;Node46</title>
<path fill="none" stroke="#63b8ff" d="M1365.4438,-501.4646C1290.31,-492.5778 1070.0072,-466.5205 972.9448,-455.04"/>
<polygon fill="#63b8ff" stroke="#63b8ff" points="973.1805,-451.5436 962.8386,-453.8446 972.3582,-458.4951 973.1805,-451.5436"/>
</g>
<!-- Node46&#45;&gt;Node4 -->
<g id="edge106" class="edge">
<title>Node46&#45;&gt;Node4</title>
<path fill="none" stroke="#63b8ff" d="M889.4163,-447.0106C792.3312,-439.4241 536.1066,-412.4881 536.1066,-339.5 536.1066,-339.5 536.1066,-339.5 536.1066,-229.5 536.1066,-185.1974 573.1511,-186.0994 612.1066,-165 650.9661,-143.9526 700.7836,-131.4713 732.8272,-125.0512"/>
<polygon fill="#63b8ff" stroke="#63b8ff" points="733.811,-128.4263 742.9712,-123.1028 732.4905,-121.552 733.811,-128.4263"/>
</g>
<!-- Node46&#45;&gt;Node8 -->
<g id="edge107" class="edge">
<title>Node46&#45;&gt;Node8</title>
<path fill="none" stroke="#63b8ff" d="M889.5229,-447.9346C810.736,-444.0611 627.7299,-432.221 573.1066,-404 454.9065,-342.9322 418.5414,-307.9137 370.1066,-184 363.1804,-166.2804 367.2949,-122.4136 377.1066,-110 397.036,-84.7855 432.5322,-73.5427 459.9429,-68.5305"/>
<polygon fill="#63b8ff" stroke="#63b8ff" points="460.6927,-71.9547 470.0031,-66.8984 459.5717,-65.045 460.6927,-71.9547"/>
</g>
<!-- Node46&#45;&gt;Node23 -->
<g id="edge117" class="edge">
<title>Node46&#45;&gt;Node23</title>
<path fill="none" stroke="#63b8ff" d="M962.975,-446.5475C1021.9519,-441.1675 1134.0423,-428.0428 1165.1066,-404 1215.5244,-364.9783 1234.1984,-286.2431 1240.3783,-249.3818"/>
<polygon fill="#63b8ff" stroke="#63b8ff" points="1243.8563,-249.7925 1241.9165,-239.3768 1236.9375,-248.7288 1243.8563,-249.7925"/>
</g>
<!-- Node46&#45;&gt;Node25 -->
<g id="edge116" class="edge">
<title>Node46&#45;&gt;Node25</title>
<path fill="none" stroke="#63b8ff" d="M962.6901,-443.7323C1011.2645,-433.8875 1095.2025,-408.7579 1132.1066,-349 1165.5592,-294.831 1105.6076,-223.3554 1073.8993,-191.3077"/>
<polygon fill="#63b8ff" stroke="#63b8ff" points="1076.1023,-188.5649 1066.5205,-184.0439 1071.1916,-193.5535 1076.1023,-188.5649"/>
</g>
<!-- Node46&#45;&gt;Node27 -->
<g id="edge118" class="edge">
<title>Node46&#45;&gt;Node27</title>
<path fill="none" stroke="#63b8ff" d="M922.8904,-439.6726C914.1658,-413.0142 889.9335,-338.9712 878.3842,-303.6816"/>
<polygon fill="#63b8ff" stroke="#63b8ff" points="881.6752,-302.4845 875.2383,-294.0692 875.0224,-304.6618 881.6752,-302.4845"/>
</g>
<!-- Node47 -->
<g id="node47" class="node">
<title>Node47</title>
<g id="a_node47"><a xlink:href="../../d4/d46/memberdef_8h.html" target="_top" xlink:title=" ">
<polygon fill="#ffffff" stroke="#666666" points="1018.1066,-404 944.1066,-404 944.1066,-385 1018.1066,-385 1018.1066,-404"/>
<text text-anchor="middle" x="981.1066" y="-392" font-family="Helvetica,sans-Serif" font-size="10.00" fill="#000000">memberdef.h</text>
</a>
</g>
</g>
<!-- Node46&#45;&gt;Node47 -->
<g id="edge108" class="edge">
<title>Node46&#45;&gt;Node47</title>
<path fill="none" stroke="#63b8ff" d="M935.6869,-439.9197C943.4773,-432.1293 954.6661,-420.9405 963.989,-411.6176"/>
<polygon fill="#63b8ff" stroke="#63b8ff" points="966.6695,-413.8868 971.2658,-404.3408 961.7198,-408.937 966.6695,-413.8868"/>
</g>
<!-- Node47&#45;&gt;Node4 -->
<g id="edge109" class="edge">
<title>Node47&#45;&gt;Node4</title>
<path fill="none" stroke="#63b8ff" d="M943.8437,-391.4603C868.0772,-384.9016 701.7809,-368.4332 685.1066,-349 630.7308,-285.6272 683.8989,-238.7265 723.1066,-165 728.8443,-154.2108 737.7674,-144.0321 745.9158,-136.0491"/>
<polygon fill="#63b8ff" stroke="#63b8ff" points="748.4257,-138.4945 753.3616,-129.1197 743.6568,-133.3702 748.4257,-138.4945"/>
</g>
<!-- Node47&#45;&gt;Node6 -->
<g id="edge110" class="edge">
<title>Node47&#45;&gt;Node6</title>
<path fill="none" stroke="#63b8ff" d="M1018.3506,-393.6136C1190.9979,-389.1291 1907.8171,-366.2383 1973.1066,-294 1999.9332,-264.3183 2042.1492,-304.0774 1933.1066,-165 1922.9947,-152.1029 1908.1855,-141.5891 1894.9668,-133.9299"/>
<polygon fill="#63b8ff" stroke="#63b8ff" points="1896.5973,-130.8323 1886.1468,-129.0893 1893.2294,-136.9689 1896.5973,-130.8323"/>
</g>
<!-- Node47&#45;&gt;Node16 -->
<g id="edge115" class="edge">
<title>Node47&#45;&gt;Node16</title>
<path fill="none" stroke="#63b8ff" d="M1000.4413,-384.9197C1017.8429,-376.2973 1043.646,-363.512 1063.4462,-353.7011"/>
<polygon fill="#63b8ff" stroke="#63b8ff" points="1065.2146,-356.731 1072.621,-349.155 1062.1067,-350.4588 1065.2146,-356.731"/>
</g>
<!-- Node47&#45;&gt;Node22 -->
<g id="edge113" class="edge">
<title>Node47&#45;&gt;Node22</title>
<path fill="none" stroke="#63b8ff" d="M974.5027,-384.8499C966.1929,-371.3892 954.3476,-346.7484 966.1066,-330 976.0983,-315.7686 1017.4063,-302.6388 1050.0375,-294.1792"/>
<polygon fill="#63b8ff" stroke="#63b8ff" points="1051.0005,-297.546 1059.8416,-291.7077 1049.2894,-290.7584 1051.0005,-297.546"/>
</g>
<!-- Node47&#45;&gt;Node23 -->
<g id="edge112" class="edge">
<title>Node47&#45;&gt;Node23</title>
<path fill="none" stroke="#63b8ff" d="M1018.1355,-388.9744C1050.1789,-382.9292 1096.7905,-371.0169 1132.1066,-349 1175.3358,-322.0499 1212.6252,-273.9612 1230.9736,-247.7544"/>
<polygon fill="#63b8ff" stroke="#63b8ff" points="1234.0904,-249.3975 1236.8525,-239.169 1228.3147,-245.4425 1234.0904,-249.3975"/>
</g>
<!-- Node47&#45;&gt;Node26 -->
<g id="edge114" class="edge">
<title>Node47&#45;&gt;Node26</title>
<path fill="none" stroke="#63b8ff" d="M965.3334,-384.7158C954.0088,-376.6877 939.6377,-364.19 933.1066,-349 925.9386,-332.3287 937.5823,-314.2414 949.3232,-301.4748"/>
<polygon fill="#63b8ff" stroke="#63b8ff" points="951.9129,-303.8342 956.4788,-294.2737 946.9475,-298.9001 951.9129,-303.8342"/>
</g>
<!-- Node48 -->
<g id="node48" class="node">
<title>Node48</title>
<g id="a_node48"><a xlink:title=" ">
<polygon fill="#e0e0e0" stroke="#999999" points="1043.1066,-349 975.1066,-349 975.1066,-330 1043.1066,-330 1043.1066,-349"/>
<text text-anchor="middle" x="1009.1066" y="-337" font-family="Helvetica,sans-Serif" font-size="10.00" fill="#000000">sys/types.h</text>
</a>
</g>
</g>
<!-- Node47&#45;&gt;Node48 -->
<g id="edge111" class="edge">
<title>Node47&#45;&gt;Node48</title>
<path fill="none" stroke="#63b8ff" d="M985.9838,-384.9197C989.7119,-377.5967 994.9687,-367.2709 999.5282,-358.3147"/>
<polygon fill="#63b8ff" stroke="#63b8ff" points="1002.6789,-359.8404 1004.0967,-349.3408 996.4408,-356.6646 1002.6789,-359.8404"/>
</g>
<!-- Node49&#45;&gt;Node18 -->
<g id="edge121" class="edge">
<title>Node49&#45;&gt;Node18</title>
<path fill="none" stroke="#63b8ff" d="M685.1963,-503.7414C769.9089,-500.6281 1010.4079,-484.7614 1189.1066,-404 1250.7662,-376.1334 1313.9972,-326.3 1344.4572,-300.6834"/>
<polygon fill="#63b8ff" stroke="#63b8ff" points="1346.8017,-303.284 1352.1509,-294.1387 1342.2662,-297.9522 1346.8017,-303.284"/>
</g>
<!-- Node49&#45;&gt;Node27 -->
<g id="edge122" class="edge">
<title>Node49&#45;&gt;Node27</title>
<path fill="none" stroke="#63b8ff" d="M662.7126,-494.7067C686.6394,-467.6345 756.3294,-389.8327 819.1066,-330 829.6682,-319.9337 842.0088,-309.2795 852.1234,-300.8133"/>
<polygon fill="#63b8ff" stroke="#63b8ff" points="854.543,-303.3537 860.0082,-294.2772 850.0757,-297.9645 854.543,-303.3537"/>
</g>
<!-- Node49&#45;&gt;Node46 -->
<g id="edge129" class="edge">
<title>Node49&#45;&gt;Node46</title>
<path fill="none" stroke="#63b8ff" d="M685.3084,-498.1908C732.8629,-488.575 823.7929,-470.1884 879.2886,-458.9669"/>
<polygon fill="#63b8ff" stroke="#63b8ff" points="880.1122,-462.3713 889.2201,-456.9587 878.7247,-455.5101 880.1122,-462.3713"/>
</g>
<!-- Node50 -->
<g id="node50" class="node">
<title>Node50</title>
<g id="a_node50"><a xlink:href="../../d6/d15/dirdef_8h.html" target="_top" xlink:title=" ">
<polygon fill="#ffffff" stroke="#666666" points="743.6066,-349 694.6066,-349 694.6066,-330 743.6066,-330 743.6066,-349"/>
<text text-anchor="middle" x="719.1066" y="-337" font-family="Helvetica,sans-Serif" font-size="10.00" fill="#000000">dirdef.h</text>
</a>
</g>
</g>
<!-- Node49&#45;&gt;Node50 -->
<g id="edge123" class="edge">
<title>Node49&#45;&gt;Node50</title>
<path fill="none" stroke="#63b8ff" d="M657.978,-494.6726C668.4798,-468.0142 697.6483,-393.9712 711.5502,-358.6816"/>
<polygon fill="#63b8ff" stroke="#63b8ff" points="714.928,-359.6561 715.3369,-349.0692 708.4152,-357.0904 714.928,-359.6561"/>
</g>
<!-- Node51 -->
<g id="node51" class="node">
<title>Node51</title>
<g id="a_node51"><a xlink:href="../../df/d67/define_8h.html" target="_top" xlink:title=" ">
<polygon fill="#ffffff" stroke="#666666" points="615.6066,-349 564.6066,-349 564.6066,-330 615.6066,-330 615.6066,-349"/>
<text text-anchor="middle" x="590.1066" y="-337" font-family="Helvetica,sans-Serif" font-size="10.00" fill="#000000">define.h</text>
</a>
</g>
</g>
<!-- Node49&#45;&gt;Node51 -->
<g id="edge130" class="edge">
<title>Node49&#45;&gt;Node51</title>
<path fill="none" stroke="#63b8ff" d="M650.2948,-494.6726C639.9545,-468.0142 611.2348,-393.9712 597.5467,-358.6816"/>
<polygon fill="#63b8ff" stroke="#63b8ff" points="600.6977,-357.1267 593.8183,-349.0692 594.1715,-359.6581 600.6977,-357.1267"/>
</g>
<!-- Node52 -->
<g id="node52" class="node">
<title>Node52</title>
<g id="a_node52"><a xlink:href="../../d3/d26/cache_8h.html" target="_top" xlink:title=" ">
<polygon fill="#ffffff" stroke="#666666" points="186.6066,-184 135.6066,-184 135.6066,-165 186.6066,-165 186.6066,-184"/>
<text text-anchor="middle" x="161.1066" y="-172" font-family="Helvetica,sans-Serif" font-size="10.00" fill="#000000">cache.h</text>
</a>
</g>
</g>
<!-- Node49&#45;&gt;Node52 -->
<g id="edge137" class="edge">
<title>Node49&#45;&gt;Node52</title>
<path fill="none" stroke="#63b8ff" d="M623.0377,-495.2468C597.2722,-487.0915 559.9948,-474.166 529.1066,-459 376.6679,-384.1529 226.3496,-240.2949 177.5324,-191.3112"/>
<polygon fill="#63b8ff" stroke="#63b8ff" points="179.8612,-188.6886 170.3402,-184.0408 174.8847,-193.6115 179.8612,-188.6886"/>
</g>
<!-- Node56 -->
<g id="node56" class="node">
<title>Node56</title>
<g id="a_node56"><a xlink:href="../../d7/ddd/symbolmap_8h.html" target="_top" xlink:title=" ">
<polygon fill="#ffffff" stroke="#666666" points="279.6066,-184 204.6066,-184 204.6066,-165 279.6066,-165 279.6066,-184"/>
<text text-anchor="middle" x="242.1066" y="-172" font-family="Helvetica,sans-Serif" font-size="10.00" fill="#000000">symbolmap.h</text>
</a>
</g>
</g>
<!-- Node49&#45;&gt;Node56 -->
<g id="edge143" class="edge">
<title>Node49&#45;&gt;Node56</title>
<path fill="none" stroke="#63b8ff" d="M634.0783,-494.958C580.4161,-468.6948 430.7925,-390.8225 332.1066,-294 299.5367,-262.0451 269.2845,-217.6712 253.5074,-192.9721"/>
<polygon fill="#63b8ff" stroke="#63b8ff" points="256.3072,-190.8499 248.0181,-184.2513 250.3831,-194.5788 256.3072,-190.8499"/>
</g>
<!-- Node50&#45;&gt;Node4 -->
<g id="edge124" class="edge">
<title>Node50&#45;&gt;Node4</title>
<path fill="none" stroke="#63b8ff" d="M717.7242,-329.7622C716.493,-320.5666 714.7847,-306.3785 714.1066,-294 710.9331,-236.0686 712.1042,-218.6844 734.1066,-165 738.1529,-155.1274 744.5644,-145.2136 750.5093,-137.1716"/>
<polygon fill="#63b8ff" stroke="#63b8ff" points="753.2755,-139.3159 756.6429,-129.2704 747.746,-135.0234 753.2755,-139.3159"/>
</g>
<!-- Node50&#45;&gt;Node7 -->
<g id="edge126" class="edge">
<title>Node50&#45;&gt;Node7</title>
<path fill="none" stroke="#63b8ff" d="M730.4674,-329.9505C748.4318,-315.4259 785.069,-288.0916 821.1066,-275 934.4789,-233.8144 977.4213,-282.0298 1090.1066,-239 1122.9402,-226.4622 1204.2626,-165.173 1242.5503,-135.5677"/>
<polygon fill="#63b8ff" stroke="#63b8ff" points="1245.129,-137.9967 1250.8818,-129.0997 1240.8364,-132.4673 1245.129,-137.9967"/>
</g>
<!-- Node50&#45;&gt;Node19 -->
<g id="edge125" class="edge">
<title>Node50&#45;&gt;Node19</title>
<path fill="none" stroke="#63b8ff" d="M723.81,-329.7382C732.5932,-311.5089 751.6263,-272.0062 763.0009,-248.3986"/>
<polygon fill="#63b8ff" stroke="#63b8ff" points="766.3018,-249.6109 767.4894,-239.0828 759.9956,-246.5724 766.3018,-249.6109"/>
</g>
<!-- Node50&#45;&gt;Node22 -->
<g id="edge128" class="edge">
<title>Node50&#45;&gt;Node22</title>
<path fill="none" stroke="#63b8ff" d="M743.869,-335.8487C806.4682,-326.6183 971.6165,-302.2666 1049.8538,-290.7303"/>
<polygon fill="#63b8ff" stroke="#63b8ff" points="1050.4667,-294.1779 1059.8492,-289.2565 1049.4456,-287.2527 1050.4667,-294.1779"/>
</g>
<!-- Node50&#45;&gt;Node25 -->
<g id="edge127" class="edge">
<title>Node50&#45;&gt;Node25</title>
<path fill="none" stroke="#63b8ff" d="M717.9038,-329.698C715.6909,-306.7484 713.7524,-249.2632 745.1066,-220 764.2435,-202.1393 929.4199,-185.4905 1010.9564,-178.2715"/>
<polygon fill="#63b8ff" stroke="#63b8ff" points="1011.7553,-181.715 1021.4122,-177.3569 1011.1453,-174.7417 1011.7553,-181.715"/>
</g>
<!-- Node51&#45;&gt;Node2 -->
<g id="edge134" class="edge">
<title>Node51&#45;&gt;Node2</title>
<path fill="none" stroke="#63b8ff" d="M578.0181,-329.9913C550.3801,-307.6018 482.1834,-248.56 446.1066,-184 438.3087,-170.0455 433.6947,-152.4738 431.0939,-139.1963"/>
<polygon fill="#63b8ff" stroke="#63b8ff" points="434.5216,-138.4777 429.3572,-129.2268 427.6254,-139.6791 434.5216,-138.4777"/>
</g>
<!-- Node51&#45;&gt;Node3 -->
<g id="edge133" class="edge">
<title>Node51&#45;&gt;Node3</title>
<path fill="none" stroke="#63b8ff" d="M564.5053,-338.3682C435.7647,-331.8166 -128.6641,-292.4052 27.1066,-110 128.5095,8.7412 218.766,-70.8529 374.1066,-55 748.1665,-16.8263 1205.5201,-10.6617 1327.1828,-9.682"/>
<polygon fill="#63b8ff" stroke="#63b8ff" points="1327.2961,-13.1813 1337.2696,-9.6067 1327.2438,-6.1815 1327.2961,-13.1813"/>
</g>
<!-- Node51&#45;&gt;Node4 -->
<g id="edge131" class="edge">
<title>Node51&#45;&gt;Node4</title>
<path fill="none" stroke="#63b8ff" d="M589.0638,-329.8634C587.175,-309.0993 584.5431,-258.8717 598.1066,-220 607.895,-191.9473 612.5015,-183.0434 636.1066,-165 664.8823,-143.0043 705.1576,-131.0675 733.0168,-125.0113"/>
<polygon fill="#63b8ff" stroke="#63b8ff" points="733.9367,-128.3958 743.0364,-122.9694 732.5388,-121.5368 733.9367,-128.3958"/>
</g>
<!-- Node51&#45;&gt;Node6 -->
<g id="edge132" class="edge">
<title>Node51&#45;&gt;Node6</title>
<path fill="none" stroke="#63b8ff" d="M615.8814,-336.5718C634.9731,-334.4883 661.6354,-331.7576 685.1066,-330 810.2752,-320.6269 1715.8003,-320.6807 1811.1066,-239 1837.1593,-216.672 1818.1527,-195.8815 1833.1066,-165 1837.8666,-155.17 1844.6661,-145.1454 1850.7742,-137.0165"/>
<polygon fill="#63b8ff" stroke="#63b8ff" points="1853.6073,-139.0752 1857.0015,-129.0388 1848.0893,-134.7679 1853.6073,-139.0752"/>
</g>
<!-- Node51&#45;&gt;Node7 -->
<g id="edge135" class="edge">
<title>Node51&#45;&gt;Node7</title>
<path fill="none" stroke="#63b8ff" d="M613.6998,-329.9741C649.2302,-315.978 718.8429,-289.9075 780.1066,-275 884.0544,-249.706 915.74,-270.0808 1018.1066,-239 1073.0872,-222.3067 1083.4456,-209.1529 1135.1066,-184 1169.8244,-167.0965 1209.4837,-146.9864 1235.3378,-133.7679"/>
<polygon fill="#63b8ff" stroke="#63b8ff" points="1237.2258,-136.7334 1244.5316,-129.0602 1234.0354,-130.5027 1237.2258,-136.7334"/>
</g>
<!-- Node51&#45;&gt;Node18 -->
<g id="edge136" class="edge">
<title>Node51&#45;&gt;Node18</title>
<path fill="none" stroke="#63b8ff" d="M615.8909,-336.6918C634.9873,-334.6679 661.6513,-331.9593 685.1066,-330 923.1362,-310.1169 1208.7512,-293.2238 1317.7911,-287.0283"/>
<polygon fill="#63b8ff" stroke="#63b8ff" points="1317.9985,-290.5223 1327.7846,-286.4624 1317.6027,-283.5334 1317.9985,-290.5223"/>
</g>
<!-- Node52&#45;&gt;Node2 -->
<g id="edge139" class="edge">
<title>Node52&#45;&gt;Node2</title>
<path fill="none" stroke="#63b8ff" d="M186.6697,-167.1222C189.5081,-166.3732 192.3633,-165.65 195.1066,-165 256.9431,-150.3479 328.8143,-136.8402 376.201,-128.4134"/>
<polygon fill="#63b8ff" stroke="#63b8ff" points="376.9848,-131.8292 386.223,-126.6421 375.7664,-124.936 376.9848,-131.8292"/>
</g>
<!-- Node52&#45;&gt;Node31 -->
<g id="edge142" class="edge">
<title>Node52&#45;&gt;Node31</title>
<path fill="none" stroke="#63b8ff" d="M143.6879,-164.9197C128.2959,-156.4541 105.6076,-143.9755 87.905,-134.2391"/>
<polygon fill="#63b8ff" stroke="#63b8ff" points="89.1101,-130.9075 78.6612,-129.155 85.7366,-137.041 89.1101,-130.9075"/>
</g>
<!-- Node53 -->
<g id="node53" class="node">
<title>Node53</title>
<g id="a_node53"><a xlink:title=" ">
<polygon fill="#e0e0e0" stroke="#999999" points="195.6066,-129 166.6066,-129 166.6066,-110 195.6066,-110 195.6066,-129"/>
<text text-anchor="middle" x="181.1066" y="-117" font-family="Helvetica,sans-Serif" font-size="10.00" fill="#000000">list</text>
</a>
</g>
</g>
<!-- Node52&#45;&gt;Node53 -->
<g id="edge138" class="edge">
<title>Node52&#45;&gt;Node53</title>
<path fill="none" stroke="#63b8ff" d="M164.5903,-164.9197C167.1966,-157.7525 170.8488,-147.7089 174.0563,-138.8882"/>
<polygon fill="#63b8ff" stroke="#63b8ff" points="177.3999,-139.9349 177.5281,-129.3408 170.8213,-137.5426 177.3999,-139.9349"/>
</g>
<!-- Node54 -->
<g id="node54" class="node">
<title>Node54</title>
<g id="a_node54"><a xlink:title=" ">
<polygon fill="#e0e0e0" stroke="#999999" points="148.1066,-129 104.1066,-129 104.1066,-110 148.1066,-110 148.1066,-129"/>
<text text-anchor="middle" x="126.1066" y="-117" font-family="Helvetica,sans-Serif" font-size="10.00" fill="#000000">mutex</text>
</a>
</g>
</g>
<!-- Node52&#45;&gt;Node54 -->
<g id="edge140" class="edge">
<title>Node52&#45;&gt;Node54</title>
<path fill="none" stroke="#63b8ff" d="M155.0101,-164.9197C150.3004,-157.5188 143.6389,-147.0509 137.898,-138.0294"/>
<polygon fill="#63b8ff" stroke="#63b8ff" points="140.6906,-135.8984 132.3689,-129.3408 134.7849,-139.6565 140.6906,-135.8984"/>
</g>
<!-- Node55 -->
<g id="node55" class="node">
<title>Node55</title>
<g id="a_node55"><a xlink:title=" ">
<polygon fill="#e0e0e0" stroke="#999999" points="254.1066,-129 214.1066,-129 214.1066,-110 254.1066,-110 254.1066,-129"/>
<text text-anchor="middle" x="234.1066" y="-117" font-family="Helvetica,sans-Serif" font-size="10.00" fill="#000000">utility</text>
</a>
</g>
</g>
<!-- Node52&#45;&gt;Node55 -->
<g id="edge141" class="edge">
<title>Node52&#45;&gt;Node55</title>
<path fill="none" stroke="#63b8ff" d="M173.8222,-164.9197C184.5759,-156.8177 200.2081,-145.0399 212.8594,-135.5082"/>
<polygon fill="#63b8ff" stroke="#63b8ff" points="215.1644,-138.1538 221.0451,-129.3408 210.9521,-132.563 215.1644,-138.1538"/>
</g>
<!-- Node56&#45;&gt;Node2 -->
<g id="edge145" class="edge">
<title>Node56&#45;&gt;Node2</title>
<path fill="none" stroke="#63b8ff" d="M274.5053,-164.9197C305.4825,-155.7598 352.3479,-141.9018 386.163,-131.9027"/>
<polygon fill="#63b8ff" stroke="#63b8ff" points="387.1706,-135.2546 395.7676,-129.0626 385.1856,-128.5419 387.1706,-135.2546"/>
</g>
<!-- Node56&#45;&gt;Node3 -->
<g id="edge147" class="edge">
<title>Node56&#45;&gt;Node3</title>
<path fill="none" stroke="#63b8ff" d="M249.1875,-164.8292C259.8584,-150.8882 281.356,-125.1585 305.1066,-110 367.0769,-70.4484 388.981,-69.232 461.1066,-55 632.2083,-21.2379 1189.1727,-11.738 1327.0283,-9.8779"/>
<polygon fill="#63b8ff" stroke="#63b8ff" points="1327.3369,-13.3743 1337.29,-9.7433 1327.245,-6.3749 1327.3369,-13.3743"/>
</g>
<!-- Node56&#45;&gt;Node4 -->
<g id="edge146" class="edge">
<title>Node56&#45;&gt;Node4</title>
<path fill="none" stroke="#63b8ff" d="M279.7195,-170.5445C377.9488,-160.2145 640.935,-132.5582 732.8542,-122.8917"/>
<polygon fill="#63b8ff" stroke="#63b8ff" points="733.3681,-126.3571 742.9472,-121.8303 732.6359,-119.3955 733.3681,-126.3571"/>
</g>
<!-- Node56&#45;&gt;Node8 -->
<g id="edge144" class="edge">
<title>Node56&#45;&gt;Node8</title>
<path fill="none" stroke="#63b8ff" d="M254.6561,-164.9379C273.2845,-151.1323 309.7573,-125.5697 344.1066,-110 382.1409,-92.7599 428.3895,-80.1174 460.2185,-72.5945"/>
<polygon fill="#63b8ff" stroke="#63b8ff" points="461.0607,-75.9922 470.0172,-70.3325 459.4862,-69.1716 461.0607,-75.9922"/>
</g>
<!-- Node56&#45;&gt;Node55 -->
<g id="edge148" class="edge">
<title>Node56&#45;&gt;Node55</title>
<path fill="none" stroke="#63b8ff" d="M240.7131,-164.9197C239.6933,-157.9083 238.273,-148.1442 237.0106,-139.4652"/>
<polygon fill="#63b8ff" stroke="#63b8ff" points="240.441,-138.7329 235.538,-129.3408 233.5139,-139.7405 240.441,-138.7329"/>
</g>
<!-- Node57&#45;&gt;Node17 -->
<g id="edge150" class="edge">
<title>Node57&#45;&gt;Node17</title>
<path fill="none" stroke="#63b8ff" d="M1395.6474,-549.993C1452.5566,-531.3542 1569.1066,-488.4296 1569.1066,-449.5 1569.1066,-449.5 1569.1066,-449.5 1569.1066,-394.5 1569.1066,-313.7597 1469.1855,-260.2441 1421.6615,-239.3573"/>
<polygon fill="#63b8ff" stroke="#63b8ff" points="1422.9421,-236.0985 1412.3704,-235.3975 1420.1975,-242.538 1422.9421,-236.0985"/>
</g>
<!-- Node57&#45;&gt;Node22 -->
<g id="edge151" class="edge">
<title>Node57&#45;&gt;Node22</title>
<path fill="none" stroke="#63b8ff" d="M1355.3904,-549.7126C1315.0055,-509.0318 1160.1345,-353.0263 1108.7691,-301.2846"/>
<polygon fill="#63b8ff" stroke="#63b8ff" points="1111.2355,-298.8011 1101.7064,-294.1701 1106.2677,-303.7328 1111.2355,-298.8011"/>
</g>
<!-- Node57&#45;&gt;Node25 -->
<g id="edge153" class="edge">
<title>Node57&#45;&gt;Node25</title>
<path fill="none" stroke="#63b8ff" d="M1381.0768,-549.9894C1394.0733,-541.6809 1412.2974,-528.6749 1425.1066,-514 1499.8494,-428.3704 1572.8784,-373.4677 1516.1066,-275 1513.0605,-269.7167 1426.887,-221.9439 1421.1066,-220 1362.6393,-200.3382 1184.5475,-184.4396 1100.6796,-177.822"/>
<polygon fill="#63b8ff" stroke="#63b8ff" points="1100.9347,-174.3313 1090.6927,-177.0428 1100.3901,-181.3101 1100.9347,-174.3313"/>
</g>
<!-- Node57&#45;&gt;Node27 -->
<g id="edge154" class="edge">
<title>Node57&#45;&gt;Node27</title>
<path fill="none" stroke="#63b8ff" d="M1320.2071,-554.9661C1191.949,-541.4156 833.1066,-499.0742 833.1066,-449.5 833.1066,-449.5 833.1066,-449.5 833.1066,-394.5 833.1066,-360.7408 849.6264,-324.3306 861.1627,-303.02"/>
<polygon fill="#63b8ff" stroke="#63b8ff" points="864.3275,-304.5327 866.1833,-294.1017 858.2277,-301.0987 864.3275,-304.5327"/>
</g>
<!-- Node57&#45;&gt;Node45 -->
<g id="edge152" class="edge">
<title>Node57&#45;&gt;Node45</title>
<path fill="none" stroke="#63b8ff" d="M1369.6354,-549.9197C1373.0604,-542.6746 1377.8748,-532.4903 1382.077,-523.601"/>
<polygon fill="#63b8ff" stroke="#63b8ff" points="1385.345,-524.8774 1386.4546,-514.3408 1379.0164,-521.8857 1385.345,-524.8774"/>
</g>
<!-- Node59 -->
<g id="node59" class="node">
<title>Node59</title>
<g id="a_node59"><a xlink:title=" ">
<polygon fill="#e0e0e0" stroke="#999999" points="2618.1066,-569 2538.1066,-569 2538.1066,-550 2618.1066,-550 2618.1066,-569"/>
<text text-anchor="middle" x="2578.1066" y="-557" font-family="Helvetica,sans-Serif" font-size="10.00" fill="#000000">configvalues.h</text>
</a>
</g>
</g>
<!-- Node58&#45;&gt;Node59 -->
<g id="edge156" class="edge">
<title>Node58&#45;&gt;Node59</title>
<path fill="none" stroke="#63b8ff" d="M2572.3259,-604.9197C2573.2183,-597.9083 2574.461,-588.1442 2575.5656,-579.4652"/>
<polygon fill="#63b8ff" stroke="#63b8ff" points="2579.0635,-579.7027 2576.8541,-569.3408 2572.1195,-578.8189 2579.0635,-579.7027"/>
</g>
<!-- Node60&#45;&gt;Node6 -->
<g id="edge159" class="edge">
<title>Node60&#45;&gt;Node6</title>
<path fill="none" stroke="#63b8ff" d="M2247.7036,-276.3486C2304.6254,-258.805 2422.846,-214.9844 2377.1066,-165 2345.0807,-130.0019 2013.0077,-121.7522 1901.4383,-119.9617"/>
<polygon fill="#63b8ff" stroke="#63b8ff" points="1901.3993,-116.4607 1891.3471,-119.8079 1901.2926,-123.4599 1901.3993,-116.4607"/>
</g>
<!-- Node60&#45;&gt;Node23 -->
<g id="edge158" class="edge">
<title>Node60&#45;&gt;Node23</title>
<path fill="none" stroke="#63b8ff" d="M2190.4297,-283.2962C2043.7844,-277.1182 1380.9183,-248.9198 1277.9066,-238.359"/>
<polygon fill="#63b8ff" stroke="#63b8ff" points="1278.2021,-234.8688 1267.8458,-237.1038 1277.3355,-241.815 1278.2021,-234.8688"/>
</g>
</g>
</svg>
        <g id="navigator" transform="translate(0 0)" fill="#404254">
                <rect fill="#f2f5e9" fill-opacity="0.5" stroke="#606060" stroke-width=".5" x="0" y="0" width="60" height="60"/>
                <use id="zoomplus" xlink:href="#zoomPlus" x="17" y="9" onmousedown="handleZoom(evt,'in')"/>
                <use id="zoomminus" xlink:href="#zoomMin" x="42" y="9" onmousedown="handleZoom(evt,'out')"/>
                <use id="reset" xlink:href="#resetDef" x="30" y="36" onmousedown="handleReset()"/>
                <g id="arrowUp" xlink:href="#dirArrow" transform="translate(30 24)" onmousedown="handlePan(0,-1)">
                  <use xlink:href="#rim" fill="#404040">
                        <set attributeName="fill" to="#808080" begin="arrowUp.mouseover" end="arrowUp.mouseout"/>
                  </use>
                  <path fill="none" stroke="white" stroke-width="1.5" d="M0,-3.0v7 M-2.5,-0.5L0,-3.0L2.5,-0.5"/>
                </g>
                <g id="arrowRight" xlink:href="#dirArrow" transform="rotate(90) translate(36 -43)" onmousedown="handlePan(1,0)">
                  <use xlink:href="#rim" fill="#404040">
                        <set attributeName="fill" to="#808080" begin="arrowRight.mouseover" end="arrowRight.mouseout"/>
                  </use>
                  <path fill="none" stroke="white" stroke-width="1.5" d="M0,-3.0v7 M-2.5,-0.5L0,-3.0L2.5,-0.5"/>
                </g>
                <g id="arrowDown" xlink:href="#dirArrow" transform="rotate(180) translate(-30 -48)" onmousedown="handlePan(0,1)">
                  <use xlink:href="#rim" fill="#404040">
                        <set attributeName="fill" to="#808080" begin="arrowDown.mouseover" end="arrowDown.mouseout"/>
                  </use>
                  <path fill="none" stroke="white" stroke-width="1.5" d="M0,-3.0v7 M-2.5,-0.5L0,-3.0L2.5,-0.5"/>
                </g>
                <g id="arrowLeft" xlink:href="#dirArrow" transform="rotate(270) translate(-36 17)" onmousedown="handlePan(-1,0)">
                  <use xlink:href="#rim" fill="#404040">
                        <set attributeName="fill" to="#808080" begin="arrowLeft.mouseover" end="arrowLeft.mouseout"/>
                  </use>
                  <path fill="none" stroke="white" stroke-width="1.5" d="M0,-3.0v7 M-2.5,-0.5L0,-3.0L2.5,-0.5"/>
                </g>
        </g>
        <svg viewBox="0 0 15 15" width="100%" height="30px" preserveAspectRatio="xMaxYMin meet">
         <g id="arrow_out" transform="scale(0.3 0.3)">
          <a xlink:href="symbolresolver_8cpp__incl_org.svg" target="_base">
           <rect id="button" ry="5" rx="5" y="6" x="6" height="38" width="38"
                fill="#f2f5e9" fill-opacity="0.5" stroke="#606060" stroke-width="1.0"/>
           <path id="arrow"
             d="M 11.500037,31.436501 C 11.940474,20.09759 22.043105,11.32322 32.158766,21.979434 L 37.068811,17.246167 C 37.068811,17.246167 37.088388,32 37.088388,32 L 22.160133,31.978069 C 22.160133,31.978069 26.997745,27.140456 26.997745,27.140456 C 18.528582,18.264221 13.291696,25.230495 11.500037,31.436501 z"
             style="fill:#404040;"/>
          </a>
         </g>
        </svg>
</svg>
