<?xml version="1.0" encoding="UTF-8" standalone="no"?>
<!DOCTYPE svg PUBLIC "-//W3C//DTD SVG 1.1//EN"
 "http://www.w3.org/Graphics/SVG/1.1/DTD/svg11.dtd">
<!-- Generated by graphviz version 2.40.1 (20161225.0304)
 -->
<!-- Title: src/symbolresolver.cpp Pages: 1 -->
<svg width="2635pt" height="687pt"
 viewBox="0.00 0.00 2634.50 687.00" xmlns="http://www.w3.org/2000/svg" xmlns:xlink="http://www.w3.org/1999/xlink">
<g id="graph0" class="graph" transform="scale(1 1) rotate(0) translate(4 683)">
<title>src/symbolresolver.cpp</title>
<!-- Node1 -->
<g id="node1" class="node">
<title>Node1</title>
<g id="a_node1"><a xlink:title=" ">
<polygon fill="#999999" stroke="#666666" points="1716.5,-679 1598.5,-679 1598.5,-660 1716.5,-660 1716.5,-679"/>
<text text-anchor="middle" x="1657.5" y="-667" font-family="Helvetica,sans-Serif" font-size="10.00" fill="#000000">src/symbolresolver.cpp</text>
</a>
</g>
</g>
<!-- Node2 -->
<g id="node2" class="node">
<title>Node2</title>
<g id="a_node2"><a xlink:title=" ">
<polygon fill="#e0e0e0" stroke="#999999" points="509,-129 426,-129 426,-110 509,-110 509,-129"/>
<text text-anchor="middle" x="467.5" y="-117" font-family="Helvetica,sans-Serif" font-size="10.00" fill="#000000">unordered_map</text>
</a>
</g>
</g>
<!-- Node1&#45;&gt;Node2 -->
<g id="edge1" class="edge">
<title>Node1&#45;&gt;Node2</title>
<path fill="none" stroke="#63b8ff" d="M1598.0911,-668.2854C1320.5971,-662.2298 165.5,-632.6305 165.5,-559.5 165.5,-559.5 165.5,-559.5 165.5,-339.5 165.5,-217.0462 329.7173,-155.5599 415.9626,-131.7119"/>
<polygon fill="#63b8ff" stroke="#63b8ff" points="417.0801,-135.0357 425.8253,-129.0548 415.259,-128.2767 417.0801,-135.0357"/>
</g>
<!-- Node3 -->
<g id="node3" class="node">
<title>Node3</title>
<g id="a_node3"><a xlink:title=" ">
<polygon fill="#e0e0e0" stroke="#999999" points="1408,-19 1367,-19 1367,0 1408,0 1408,-19"/>
<text text-anchor="middle" x="1387.5" y="-7" font-family="Helvetica,sans-Serif" font-size="10.00" fill="#000000">string</text>
</a>
</g>
</g>
<!-- Node1&#45;&gt;Node3 -->
<g id="edge2" class="edge">
<title>Node1&#45;&gt;Node3</title>
<path fill="none" stroke="#63b8ff" d="M1716.68,-668.1721C1911.2044,-663.0318 2518.5,-640.4981 2518.5,-559.5 2518.5,-559.5 2518.5,-559.5 2518.5,-119.5 2518.5,24.2757 2344.1533,-72.9304 2201.5,-55 1879.6377,-14.5445 1795.8489,-45.0283 1472.5,-19 1454.4093,-17.5438 1434.2171,-15.3125 1418.0539,-13.3782"/>
<polygon fill="#63b8ff" stroke="#63b8ff" points="1418.4271,-9.8979 1408.0768,-12.1612 1417.5794,-16.8464 1418.4271,-9.8979"/>
</g>
<!-- Node4 -->
<g id="node4" class="node">
<title>Node4</title>
<g id="a_node4"><a xlink:title=" ">
<polygon fill="#e0e0e0" stroke="#999999" points="837.5,-129 793.5,-129 793.5,-110 837.5,-110 837.5,-129"/>
<text text-anchor="middle" x="815.5" y="-117" font-family="Helvetica,sans-Serif" font-size="10.00" fill="#000000">vector</text>
</a>
</g>
</g>
<!-- Node1&#45;&gt;Node4 -->
<g id="edge3" class="edge">
<title>Node1&#45;&gt;Node4</title>
<path fill="none" stroke="#63b8ff" d="M1598.1268,-666.7392C1350.5259,-654.6831 408.6464,-603.2247 313.5,-514 138.3765,-349.7759 486.2227,-192.5042 542.5,-165 584.5332,-144.4573 720.5863,-128.8395 783.299,-122.5409"/>
<polygon fill="#63b8ff" stroke="#63b8ff" points="783.8066,-126.0079 793.4142,-121.5421 783.1187,-119.0417 783.8066,-126.0079"/>
</g>
<!-- Node5 -->
<g id="node5" class="node">
<title>Node5</title>
<g id="a_node5"><a xlink:href="../../d9/db2/symbolresolver_8h.html" target="_top" xlink:title=" ">
<polygon fill="#ffffff" stroke="#666666" points="1902,-404 1811,-404 1811,-385 1902,-385 1902,-404"/>
<text text-anchor="middle" x="1856.5" y="-392" font-family="Helvetica,sans-Serif" font-size="10.00" fill="#000000">symbolresolver.h</text>
</a>
</g>
</g>
<!-- Node1&#45;&gt;Node5 -->
<g id="edge4" class="edge">
<title>Node1&#45;&gt;Node5</title>
<path fill="none" stroke="#63b8ff" d="M1716.5153,-664.6731C1823.895,-654.5345 2044.4149,-627.0065 2090.5,-569 2151.4641,-492.2655 1986.7848,-431.884 1902.585,-406.9384"/>
<polygon fill="#63b8ff" stroke="#63b8ff" points="1903.3159,-403.506 1892.7363,-404.0732 1901.3605,-410.2273 1903.3159,-403.506"/>
</g>
<!-- Node28 -->
<g id="node28" class="node">
<title>Node28</title>
<g id="a_node28"><a xlink:href="../../d8/d3c/util_8h.html" target="_top" xlink:title="A bunch of utility functions.">
<polygon fill="#ffffff" stroke="#666666" points="1676.5,-624 1638.5,-624 1638.5,-605 1676.5,-605 1676.5,-624"/>
<text text-anchor="middle" x="1657.5" y="-612" font-family="Helvetica,sans-Serif" font-size="10.00" fill="#000000">util.h</text>
</a>
</g>
</g>
<!-- Node1&#45;&gt;Node28 -->
<g id="edge55" class="edge">
<title>Node1&#45;&gt;Node28</title>
<path fill="none" stroke="#63b8ff" d="M1657.5,-659.9197C1657.5,-652.9083 1657.5,-643.1442 1657.5,-634.4652"/>
<polygon fill="#63b8ff" stroke="#63b8ff" points="1661.0001,-634.3408 1657.5,-624.3408 1654.0001,-634.3409 1661.0001,-634.3408"/>
</g>
<!-- Node50 -->
<g id="node50" class="node">
<title>Node50</title>
<g id="a_node50"><a xlink:href="../../d1/da1/doxygen_8h.html" target="_top" xlink:title=" ">
<polygon fill="#ffffff" stroke="#666666" points="633.5,-514 571.5,-514 571.5,-495 633.5,-495 633.5,-514"/>
<text text-anchor="middle" x="602.5" y="-502" font-family="Helvetica,sans-Serif" font-size="10.00" fill="#000000">doxygen.h</text>
</a>
</g>
</g>
<!-- Node1&#45;&gt;Node50 -->
<g id="edge121" class="edge">
<title>Node1&#45;&gt;Node50</title>
<path fill="none" stroke="#63b8ff" d="M1598.1375,-660.2158C1406.4159,-630.2309 806.7797,-536.449 643.7612,-510.9532"/>
<polygon fill="#63b8ff" stroke="#63b8ff" points="644.0846,-507.4613 633.6638,-509.374 643.0029,-514.3772 644.0846,-507.4613"/>
</g>
<!-- Node58 -->
<g id="node58" class="node">
<title>Node58</title>
<g id="a_node58"><a xlink:href="../../d7/d97/namespacedef_8h.html" target="_top" xlink:title=" ">
<polygon fill="#ffffff" stroke="#666666" points="1319,-569 1230,-569 1230,-550 1319,-550 1319,-569"/>
<text text-anchor="middle" x="1274.5" y="-557" font-family="Helvetica,sans-Serif" font-size="10.00" fill="#000000">namespacedef.h</text>
</a>
</g>
</g>
<!-- Node1&#45;&gt;Node58 -->
<g id="edge150" class="edge">
<title>Node1&#45;&gt;Node58</title>
<path fill="none" stroke="#63b8ff" d="M1624.1813,-659.9306C1554.7725,-639.996 1394.748,-594.036 1317.6138,-571.8825"/>
<polygon fill="#63b8ff" stroke="#63b8ff" points="1318.3189,-568.4436 1307.7412,-569.0471 1316.3865,-575.1716 1318.3189,-568.4436"/>
</g>
<!-- Node59 -->
<g id="node59" class="node">
<title>Node59</title>
<g id="a_node59"><a xlink:href="../../db/d16/config_8h.html" target="_top" xlink:title=" ">
<polygon fill="#ffffff" stroke="#666666" points="2605,-624 2554,-624 2554,-605 2605,-605 2605,-624"/>
<text text-anchor="middle" x="2579.5" y="-612" font-family="Helvetica,sans-Serif" font-size="10.00" fill="#000000">config.h</text>
</a>
</g>
</g>
<!-- Node1&#45;&gt;Node59 -->
<g id="edge156" class="edge">
<title>Node1&#45;&gt;Node59</title>
<path fill="none" stroke="#63b8ff" d="M1716.7531,-667.5602C1886.7547,-661.8135 2374.0394,-644.0236 2532.5,-624 2536.1856,-623.5343 2540.0144,-622.9422 2543.8246,-622.2821"/>
<polygon fill="#63b8ff" stroke="#63b8ff" points="2544.574,-625.7026 2553.7553,-620.4155 2543.2809,-618.8231 2544.574,-625.7026"/>
</g>
<!-- Node61 -->
<g id="node61" class="node">
<title>Node61</title>
<g id="a_node61"><a xlink:href="../../d8/d65/defargs_8h.html" target="_top" xlink:title=" ">
<polygon fill="#ffffff" stroke="#666666" points="2238,-294 2181,-294 2181,-275 2238,-275 2238,-294"/>
<text text-anchor="middle" x="2209.5" y="-282" font-family="Helvetica,sans-Serif" font-size="10.00" fill="#000000">defargs.h</text>
</a>
</g>
</g>
<!-- Node1&#45;&gt;Node61 -->
<g id="edge158" class="edge">
<title>Node1&#45;&gt;Node61</title>
<path fill="none" stroke="#63b8ff" d="M1716.8012,-665.8924C1788.7256,-660.6292 1913.2812,-648.6544 2017.5,-624 2101.4212,-604.1473 2200.5,-645.7374 2200.5,-559.5 2200.5,-559.5 2200.5,-559.5 2200.5,-394.5 2200.5,-362.8454 2204.248,-326.2369 2206.9066,-304.2507"/>
<polygon fill="#63b8ff" stroke="#63b8ff" points="2210.3967,-304.5485 2208.172,-294.1899 2203.4514,-303.6749 2210.3967,-304.5485"/>
</g>
<!-- Node6 -->
<g id="node6" class="node">
<title>Node6</title>
<g id="a_node6"><a xlink:title=" ">
<polygon fill="#e0e0e0" stroke="#999999" points="1861.5,-129 1809.5,-129 1809.5,-110 1861.5,-110 1861.5,-129"/>
<text text-anchor="middle" x="1835.5" y="-117" font-family="Helvetica,sans-Serif" font-size="10.00" fill="#000000">memory</text>
</a>
</g>
</g>
<!-- Node5&#45;&gt;Node6 -->
<g id="edge5" class="edge">
<title>Node5&#45;&gt;Node6</title>
<path fill="none" stroke="#63b8ff" d="M1872.6438,-384.7497C1897.2242,-368.9807 1943.5904,-335.4248 1966.5,-294 1994.3304,-243.6777 2010.3476,-211.4887 1976.5,-165 1964.045,-147.8933 1909.3577,-133.9812 1871.8682,-126.2235"/>
<polygon fill="#63b8ff" stroke="#63b8ff" points="1872.2932,-122.739 1861.7997,-124.2011 1870.9146,-129.6019 1872.2932,-122.739"/>
</g>
<!-- Node7 -->
<g id="node7" class="node">
<title>Node7</title>
<g id="a_node7"><a xlink:href="../../d7/d5c/qcstring_8h.html" target="_top" xlink:title=" ">
<polygon fill="#ffffff" stroke="#666666" points="1328,-129 1269,-129 1269,-110 1328,-110 1328,-129"/>
<text text-anchor="middle" x="1298.5" y="-117" font-family="Helvetica,sans-Serif" font-size="10.00" fill="#000000">qcstring.h</text>
</a>
</g>
</g>
<!-- Node5&#45;&gt;Node7 -->
<g id="edge6" class="edge">
<title>Node5&#45;&gt;Node7</title>
<path fill="none" stroke="#63b8ff" d="M1847.3872,-384.7691C1826.5585,-362.938 1773.1873,-309.2879 1720.5,-275 1671.6659,-243.2196 1657.2516,-236.9271 1601.5,-220 1503.3361,-190.1958 1466.6021,-227.0864 1373.5,-184 1360.7277,-178.0892 1333.5679,-153.3088 1315.6784,-136.2434"/>
<polygon fill="#63b8ff" stroke="#63b8ff" points="1317.828,-133.4545 1308.1962,-129.0409 1312.9733,-138.4976 1317.828,-133.4545"/>
</g>
<!-- Node16 -->
<g id="node16" class="node">
<title>Node16</title>
<g id="a_node16"><a xlink:href="../../d1/da6/classdef_8h.html" target="_top" xlink:title=" ">
<polygon fill="#ffffff" stroke="#666666" points="1123.5,-349 1061.5,-349 1061.5,-330 1123.5,-330 1123.5,-349"/>
<text text-anchor="middle" x="1092.5" y="-337" font-family="Helvetica,sans-Serif" font-size="10.00" fill="#000000">classdef.h</text>
</a>
</g>
</g>
<!-- Node5&#45;&gt;Node16 -->
<g id="edge18" class="edge">
<title>Node5&#45;&gt;Node16</title>
<path fill="none" stroke="#63b8ff" d="M1810.9963,-391.2242C1673.6902,-381.3396 1264.9037,-351.9113 1133.5988,-342.4587"/>
<polygon fill="#63b8ff" stroke="#63b8ff" points="1133.778,-338.9626 1123.5525,-341.7355 1133.2753,-345.9445 1133.778,-338.9626"/>
</g>
<!-- Node7&#45;&gt;Node3 -->
<g id="edge7" class="edge">
<title>Node7&#45;&gt;Node3</title>
<path fill="none" stroke="#63b8ff" d="M1311.2461,-109.9755C1322.2224,-101.367 1338.0562,-87.9403 1349.5,-74 1361.0657,-59.9112 1371.3642,-41.9004 1378.3126,-28.4936"/>
<polygon fill="#63b8ff" stroke="#63b8ff" points="1381.5795,-29.7873 1382.9386,-19.28 1375.3237,-26.6464 1381.5795,-29.7873"/>
</g>
<!-- Node8 -->
<g id="node8" class="node">
<title>Node8</title>
<g id="a_node8"><a xlink:title=" ">
<polygon fill="#e0e0e0" stroke="#999999" points="425.5,-74 369.5,-74 369.5,-55 425.5,-55 425.5,-74"/>
<text text-anchor="middle" x="397.5" y="-62" font-family="Helvetica,sans-Serif" font-size="10.00" fill="#000000">algorithm</text>
</a>
</g>
</g>
<!-- Node7&#45;&gt;Node8 -->
<g id="edge8" class="edge">
<title>Node7&#45;&gt;Node8</title>
<path fill="none" stroke="#63b8ff" d="M1268.7787,-117.6857C1134.7487,-109.5041 586.5889,-76.0426 435.958,-66.8476"/>
<polygon fill="#63b8ff" stroke="#63b8ff" points="436.0054,-63.3441 425.8107,-66.2282 435.5789,-70.3311 436.0054,-63.3441"/>
</g>
<!-- Node9 -->
<g id="node9" class="node">
<title>Node9</title>
<g id="a_node9"><a xlink:title=" ">
<polygon fill="#e0e0e0" stroke="#999999" points="1142.5,-74 1096.5,-74 1096.5,-55 1142.5,-55 1142.5,-74"/>
<text text-anchor="middle" x="1119.5" y="-62" font-family="Helvetica,sans-Serif" font-size="10.00" fill="#000000">cctype</text>
</a>
</g>
</g>
<!-- Node7&#45;&gt;Node9 -->
<g id="edge9" class="edge">
<title>Node7&#45;&gt;Node9</title>
<path fill="none" stroke="#63b8ff" d="M1268.9418,-110.4179C1236.8155,-100.5467 1185.619,-84.8159 1152.281,-74.5724"/>
<polygon fill="#63b8ff" stroke="#63b8ff" points="1153.1359,-71.1736 1142.5489,-71.5821 1151.0799,-77.8649 1153.1359,-71.1736"/>
</g>
<!-- Node10 -->
<g id="node10" class="node">
<title>Node10</title>
<g id="a_node10"><a xlink:title=" ">
<polygon fill="#e0e0e0" stroke="#999999" points="1206.5,-74 1160.5,-74 1160.5,-55 1206.5,-55 1206.5,-74"/>
<text text-anchor="middle" x="1183.5" y="-62" font-family="Helvetica,sans-Serif" font-size="10.00" fill="#000000">cstring</text>
</a>
</g>
</g>
<!-- Node7&#45;&gt;Node10 -->
<g id="edge10" class="edge">
<title>Node7&#45;&gt;Node10</title>
<path fill="none" stroke="#63b8ff" d="M1278.4685,-109.9197C1260.3579,-101.2581 1233.4637,-88.3957 1212.9138,-78.5675"/>
<polygon fill="#63b8ff" stroke="#63b8ff" points="1214.2192,-75.3122 1203.6878,-74.155 1211.199,-81.6271 1214.2192,-75.3122"/>
</g>
<!-- Node11 -->
<g id="node11" class="node">
<title>Node11</title>
<g id="a_node11"><a xlink:title=" ">
<polygon fill="#e0e0e0" stroke="#999999" points="1995,-74 1952,-74 1952,-55 1995,-55 1995,-74"/>
<text text-anchor="middle" x="1973.5" y="-62" font-family="Helvetica,sans-Serif" font-size="10.00" fill="#000000">cstdio</text>
</a>
</g>
</g>
<!-- Node7&#45;&gt;Node11 -->
<g id="edge11" class="edge">
<title>Node7&#45;&gt;Node11</title>
<path fill="none" stroke="#63b8ff" d="M1328.3749,-117.0658C1439.3538,-108.023 1827.3765,-76.4064 1941.6217,-67.0975"/>
<polygon fill="#63b8ff" stroke="#63b8ff" points="1942.1219,-70.5684 1951.8046,-66.2678 1941.5533,-63.5916 1942.1219,-70.5684"/>
</g>
<!-- Node12 -->
<g id="node12" class="node">
<title>Node12</title>
<g id="a_node12"><a xlink:title=" ">
<polygon fill="#e0e0e0" stroke="#999999" points="1270,-74 1225,-74 1225,-55 1270,-55 1270,-74"/>
<text text-anchor="middle" x="1247.5" y="-62" font-family="Helvetica,sans-Serif" font-size="10.00" fill="#000000">cstdlib</text>
</a>
</g>
</g>
<!-- Node7&#45;&gt;Node12 -->
<g id="edge12" class="edge">
<title>Node7&#45;&gt;Node12</title>
<path fill="none" stroke="#63b8ff" d="M1289.6165,-109.9197C1282.4648,-102.2072 1272.2247,-91.1639 1263.6325,-81.8978"/>
<polygon fill="#63b8ff" stroke="#63b8ff" points="1265.991,-79.2937 1256.6251,-74.3408 1260.8581,-84.0533 1265.991,-79.2937"/>
</g>
<!-- Node13 -->
<g id="node13" class="node">
<title>Node13</title>
<g id="a_node13"><a xlink:title=" ">
<polygon fill="#e0e0e0" stroke="#999999" points="1527.5,-19 1481.5,-19 1481.5,0 1527.5,0 1527.5,-19"/>
<text text-anchor="middle" x="1504.5" y="-7" font-family="Helvetica,sans-Serif" font-size="10.00" fill="#000000">cstdint</text>
</a>
</g>
</g>
<!-- Node7&#45;&gt;Node13 -->
<g id="edge13" class="edge">
<title>Node7&#45;&gt;Node13</title>
<path fill="none" stroke="#63b8ff" d="M1328.3175,-115.8047C1374.9429,-109.4507 1462.1056,-95.0733 1484.5,-74 1496.6267,-62.5887 1501.4537,-43.9856 1503.348,-29.6834"/>
<polygon fill="#63b8ff" stroke="#63b8ff" points="1506.8676,-29.6395 1504.322,-19.355 1499.8985,-28.9822 1506.8676,-29.6395"/>
</g>
<!-- Node14 -->
<g id="node14" class="node">
<title>Node14</title>
<g id="a_node14"><a xlink:title=" ">
<polygon fill="#e0e0e0" stroke="#999999" points="1340.5,-74 1288.5,-74 1288.5,-55 1340.5,-55 1340.5,-74"/>
<text text-anchor="middle" x="1314.5" y="-62" font-family="Helvetica,sans-Serif" font-size="10.00" fill="#000000">ostream</text>
</a>
</g>
</g>
<!-- Node7&#45;&gt;Node14 -->
<g id="edge14" class="edge">
<title>Node7&#45;&gt;Node14</title>
<path fill="none" stroke="#63b8ff" d="M1301.287,-109.9197C1303.3493,-102.8304 1306.2303,-92.9269 1308.776,-84.1763"/>
<polygon fill="#63b8ff" stroke="#63b8ff" points="1312.2045,-84.9205 1311.6372,-74.3408 1305.4832,-82.9651 1312.2045,-84.9205"/>
</g>
<!-- Node15 -->
<g id="node15" class="node">
<title>Node15</title>
<g id="a_node15"><a xlink:href="../../db/d7c/utf8_8h.html" target="_top" xlink:title="Various UTF8 related helper functions.">
<polygon fill="#ffffff" stroke="#666666" points="1476,-74 1435,-74 1435,-55 1476,-55 1476,-74"/>
<text text-anchor="middle" x="1455.5" y="-62" font-family="Helvetica,sans-Serif" font-size="10.00" fill="#000000">utf8.h</text>
</a>
</g>
</g>
<!-- Node7&#45;&gt;Node15 -->
<g id="edge15" class="edge">
<title>Node7&#45;&gt;Node15</title>
<path fill="none" stroke="#63b8ff" d="M1325.8473,-109.9197C1353.6677,-100.1737 1396.6703,-85.1091 1425.4332,-75.033"/>
<polygon fill="#63b8ff" stroke="#63b8ff" points="1426.6845,-78.3032 1434.9649,-71.6938 1424.3701,-71.6969 1426.6845,-78.3032"/>
</g>
<!-- Node15&#45;&gt;Node3 -->
<g id="edge17" class="edge">
<title>Node15&#45;&gt;Node3</title>
<path fill="none" stroke="#63b8ff" d="M1443.6553,-54.9197C1433.7345,-46.8956 1419.3562,-35.2661 1407.6326,-25.7837"/>
<polygon fill="#63b8ff" stroke="#63b8ff" points="1409.643,-22.9083 1399.6668,-19.3408 1405.2409,-28.3509 1409.643,-22.9083"/>
</g>
<!-- Node15&#45;&gt;Node13 -->
<g id="edge16" class="edge">
<title>Node15&#45;&gt;Node13</title>
<path fill="none" stroke="#63b8ff" d="M1464.0351,-54.9197C1470.9063,-47.2072 1480.7449,-36.1639 1489.0001,-26.8978"/>
<polygon fill="#63b8ff" stroke="#63b8ff" points="1491.6939,-29.1357 1495.7327,-19.3408 1486.4673,-24.4792 1491.6939,-29.1357"/>
</g>
<!-- Node16&#45;&gt;Node4 -->
<g id="edge19" class="edge">
<title>Node16&#45;&gt;Node4</title>
<path fill="none" stroke="#63b8ff" d="M1089.9552,-329.8215C1085.8159,-315.8709 1076.3441,-290.1294 1059.5,-275 1026.2176,-245.1058 1005.2743,-259.479 965.5,-239 926.156,-218.7425 917.0263,-211.6813 882.5,-184 863.9663,-169.1407 844.6062,-150.0573 831.491,-136.5129"/>
<polygon fill="#63b8ff" stroke="#63b8ff" points="833.9862,-134.058 824.5441,-129.252 828.9283,-138.8972 833.9862,-134.058"/>
</g>
<!-- Node17 -->
<g id="node17" class="node">
<title>Node17</title>
<g id="a_node17"><a xlink:title=" ">
<polygon fill="#e0e0e0" stroke="#999999" points="1391.5,-239 1361.5,-239 1361.5,-220 1391.5,-220 1391.5,-239"/>
<text text-anchor="middle" x="1376.5" y="-227" font-family="Helvetica,sans-Serif" font-size="10.00" fill="#000000">set</text>
</a>
</g>
</g>
<!-- Node16&#45;&gt;Node17 -->
<g id="edge20" class="edge">
<title>Node16&#45;&gt;Node17</title>
<path fill="none" stroke="#63b8ff" d="M1117.6251,-329.8654C1162.5152,-312.6351 1259.6839,-275.2634 1351.8012,-239.2536"/>
<polygon fill="#63b8ff" stroke="#63b8ff" points="1353.2339,-242.4515 1361.2719,-235.5492 1350.684,-235.9324 1353.2339,-242.4515"/>
</g>
<!-- Node18 -->
<g id="node18" class="node">
<title>Node18</title>
<g id="a_node18"><a xlink:href="../../d5/d75/containers_8h.html" target="_top" xlink:title=" ">
<polygon fill="#ffffff" stroke="#666666" points="1187.5,-294 1117.5,-294 1117.5,-275 1187.5,-275 1187.5,-294"/>
<text text-anchor="middle" x="1152.5" y="-282" font-family="Helvetica,sans-Serif" font-size="10.00" fill="#000000">containers.h</text>
</a>
</g>
</g>
<!-- Node16&#45;&gt;Node18 -->
<g id="edge21" class="edge">
<title>Node16&#45;&gt;Node18</title>
<path fill="none" stroke="#63b8ff" d="M1102.9512,-329.9197C1111.5349,-322.0514 1123.9003,-310.7164 1134.1307,-301.3385"/>
<polygon fill="#63b8ff" stroke="#63b8ff" points="1136.758,-303.6782 1141.7645,-294.3408 1132.0279,-298.5181 1136.758,-303.6782"/>
</g>
<!-- Node22 -->
<g id="node22" class="node">
<title>Node22</title>
<g id="a_node22"><a xlink:href="../../df/da1/definition_8h.html" target="_top" xlink:title=" ">
<polygon fill="#ffffff" stroke="#666666" points="1348.5,-294 1284.5,-294 1284.5,-275 1348.5,-275 1348.5,-294"/>
<text text-anchor="middle" x="1316.5" y="-282" font-family="Helvetica,sans-Serif" font-size="10.00" fill="#000000">definition.h</text>
</a>
</g>
</g>
<!-- Node16&#45;&gt;Node22 -->
<g id="edge29" class="edge">
<title>Node16&#45;&gt;Node22</title>
<path fill="none" stroke="#63b8ff" d="M1123.6462,-331.8525C1162.9033,-322.2135 1230.5377,-305.6068 1274.3802,-294.8419"/>
<polygon fill="#63b8ff" stroke="#63b8ff" points="1275.2908,-298.2224 1284.1677,-292.4387 1273.6215,-291.4243 1275.2908,-298.2224"/>
</g>
<!-- Node26 -->
<g id="node26" class="node">
<title>Node26</title>
<g id="a_node26"><a xlink:href="../../df/d9b/arguments_8h.html" target="_top" xlink:title=" ">
<polygon fill="#ffffff" stroke="#666666" points="1051,-294 980,-294 980,-275 1051,-275 1051,-294"/>
<text text-anchor="middle" x="1015.5" y="-282" font-family="Helvetica,sans-Serif" font-size="10.00" fill="#000000">arguments.h</text>
</a>
</g>
</g>
<!-- Node16&#45;&gt;Node26 -->
<g id="edge46" class="edge">
<title>Node16&#45;&gt;Node26</title>
<path fill="none" stroke="#63b8ff" d="M1079.0876,-329.9197C1067.565,-321.6893 1050.732,-309.6657 1037.2794,-300.0567"/>
<polygon fill="#63b8ff" stroke="#63b8ff" points="1039.1887,-297.1194 1029.017,-294.155 1035.12,-302.8155 1039.1887,-297.1194"/>
</g>
<!-- Node27 -->
<g id="node27" class="node">
<title>Node27</title>
<g id="a_node27"><a xlink:href="../../d9/d11/membergroup_8h.html" target="_top" xlink:title=" ">
<polygon fill="#ffffff" stroke="#666666" points="961.5,-294 877.5,-294 877.5,-275 961.5,-275 961.5,-294"/>
<text text-anchor="middle" x="919.5" y="-282" font-family="Helvetica,sans-Serif" font-size="10.00" fill="#000000">membergroup.h</text>
</a>
</g>
</g>
<!-- Node16&#45;&gt;Node27 -->
<g id="edge49" class="edge">
<title>Node16&#45;&gt;Node27</title>
<path fill="none" stroke="#63b8ff" d="M1062.3657,-329.9197C1033.8009,-320.8384 990.711,-307.1393 959.3246,-297.161"/>
<polygon fill="#63b8ff" stroke="#63b8ff" points="960.1691,-293.7569 949.5787,-294.0626 958.0483,-300.4279 960.1691,-293.7569"/>
</g>
<!-- Node18&#45;&gt;Node2 -->
<g id="edge27" class="edge">
<title>Node18&#45;&gt;Node2</title>
<path fill="none" stroke="#63b8ff" d="M1117.337,-277.1041C1009.2259,-254.3594 688.3506,-186.8082 677.5,-184 616.6554,-168.253 547.1276,-146.0527 505.307,-132.2322"/>
<polygon fill="#63b8ff" stroke="#63b8ff" points="506.3953,-128.9057 495.8019,-129.0775 504.1903,-135.5493 506.3953,-128.9057"/>
</g>
<!-- Node18&#45;&gt;Node3 -->
<g id="edge23" class="edge">
<title>Node18&#45;&gt;Node3</title>
<path fill="none" stroke="#63b8ff" d="M1144.355,-274.888C1116.3539,-240.6619 1028.9156,-123.1397 1087.5,-55 1104.9358,-34.7204 1283.4889,-17.9833 1356.5709,-11.9297"/>
<polygon fill="#63b8ff" stroke="#63b8ff" points="1357.2735,-15.3841 1366.9559,-11.0829 1356.7045,-8.4073 1357.2735,-15.3841"/>
</g>
<!-- Node18&#45;&gt;Node4 -->
<g id="edge22" class="edge">
<title>Node18&#45;&gt;Node4</title>
<path fill="none" stroke="#63b8ff" d="M1117.231,-276.5124C1086.4258,-268.8891 1040.9122,-256.0444 1003.5,-239 961.5288,-219.8786 954.4359,-208.7225 915.5,-184 889.184,-167.2905 859.149,-147.8707 838.9215,-134.7406"/>
<polygon fill="#63b8ff" stroke="#63b8ff" points="840.6591,-131.6957 830.3666,-129.1828 836.8456,-137.5657 840.6591,-131.6957"/>
</g>
<!-- Node18&#45;&gt;Node17 -->
<g id="edge24" class="edge">
<title>Node18&#45;&gt;Node17</title>
<path fill="none" stroke="#63b8ff" d="M1187.6134,-278.2041C1225.9246,-270.9655 1289.1379,-257.9432 1351.7549,-238.8718"/>
<polygon fill="#63b8ff" stroke="#63b8ff" points="1352.8736,-242.1894 1361.39,-235.8868 1350.8021,-235.5029 1352.8736,-242.1894"/>
</g>
<!-- Node19 -->
<g id="node19" class="node">
<title>Node19</title>
<g id="a_node19"><a xlink:title=" ">
<polygon fill="#e0e0e0" stroke="#999999" points="837,-239 802,-239 802,-220 837,-220 837,-239"/>
<text text-anchor="middle" x="819.5" y="-227" font-family="Helvetica,sans-Serif" font-size="10.00" fill="#000000">map</text>
</a>
</g>
</g>
<!-- Node18&#45;&gt;Node19 -->
<g id="edge25" class="edge">
<title>Node18&#45;&gt;Node19</title>
<path fill="none" stroke="#63b8ff" d="M1117.4926,-278.718C1051.0161,-267.7384 907.7608,-244.0776 847.312,-234.0936"/>
<polygon fill="#63b8ff" stroke="#63b8ff" points="847.7905,-230.6253 837.3538,-232.4488 846.6498,-237.5317 847.7905,-230.6253"/>
</g>
<!-- Node20 -->
<g id="node20" class="node">
<title>Node20</title>
<g id="a_node20"><a xlink:title=" ">
<polygon fill="#e0e0e0" stroke="#999999" points="1343.5,-239 1265.5,-239 1265.5,-220 1343.5,-220 1343.5,-239"/>
<text text-anchor="middle" x="1304.5" y="-227" font-family="Helvetica,sans-Serif" font-size="10.00" fill="#000000">unordered_set</text>
</a>
</g>
</g>
<!-- Node18&#45;&gt;Node20 -->
<g id="edge26" class="edge">
<title>Node18&#45;&gt;Node20</title>
<path fill="none" stroke="#63b8ff" d="M1178.9764,-274.9197C1203.7478,-265.9564 1240.9519,-252.4944 1268.43,-242.5516"/>
<polygon fill="#63b8ff" stroke="#63b8ff" points="1269.86,-245.7564 1278.0725,-239.0626 1267.4782,-239.174 1269.86,-245.7564"/>
</g>
<!-- Node21 -->
<g id="node21" class="node">
<title>Node21</title>
<g id="a_node21"><a xlink:title=" ">
<polygon fill="#e0e0e0" stroke="#999999" points="1451,-239 1410,-239 1410,-220 1451,-220 1451,-239"/>
<text text-anchor="middle" x="1430.5" y="-227" font-family="Helvetica,sans-Serif" font-size="10.00" fill="#000000">stack</text>
</a>
</g>
</g>
<!-- Node18&#45;&gt;Node21 -->
<g id="edge28" class="edge">
<title>Node18&#45;&gt;Node21</title>
<path fill="none" stroke="#63b8ff" d="M1187.5915,-278.0908C1246.9003,-267.255 1363.445,-245.9465 1399.7126,-238.6042"/>
<polygon fill="#63b8ff" stroke="#63b8ff" points="1400.9102,-241.9258 1409.94,-236.3839 1399.4251,-235.0852 1400.9102,-241.9258"/>
</g>
<!-- Node22&#45;&gt;Node4 -->
<g id="edge30" class="edge">
<title>Node22&#45;&gt;Node4</title>
<path fill="none" stroke="#63b8ff" d="M1284.4618,-283.1534C1231.4095,-280.0828 1122.6248,-270.2021 1036.5,-239 1025.2128,-234.9108 953.6385,-190.4291 943.5,-184 930.7993,-175.9461 928.6135,-172.3627 915.5,-165 893.3462,-152.5615 867.173,-140.7485 847.161,-132.2777"/>
<polygon fill="#63b8ff" stroke="#63b8ff" points="848.4529,-129.0243 837.8765,-128.3997 845.7549,-135.4835 848.4529,-129.0243"/>
</g>
<!-- Node23 -->
<g id="node23" class="node">
<title>Node23</title>
<g id="a_node23"><a xlink:href="../../d9/d49/types_8h.html" target="_top" xlink:title="This file contains a number of basic enums and types.">
<polygon fill="#ffffff" stroke="#666666" points="1518,-239 1469,-239 1469,-220 1518,-220 1518,-239"/>
<text text-anchor="middle" x="1493.5" y="-227" font-family="Helvetica,sans-Serif" font-size="10.00" fill="#000000">types.h</text>
</a>
</g>
</g>
<!-- Node22&#45;&gt;Node23 -->
<g id="edge31" class="edge">
<title>Node22&#45;&gt;Node23</title>
<path fill="none" stroke="#63b8ff" d="M1347.331,-274.9197C1378.5225,-265.2275 1426.6419,-250.2751 1459.0652,-240.2001"/>
<polygon fill="#63b8ff" stroke="#63b8ff" points="1460.4883,-243.423 1468.9993,-237.1132 1458.4111,-236.7383 1460.4883,-243.423"/>
</g>
<!-- Node24 -->
<g id="node24" class="node">
<title>Node24</title>
<g id="a_node24"><a xlink:href="../../d1/d02/reflist_8h.html" target="_top" xlink:title=" ">
<polygon fill="#ffffff" stroke="#666666" points="1095,-239 1046,-239 1046,-220 1095,-220 1095,-239"/>
<text text-anchor="middle" x="1070.5" y="-227" font-family="Helvetica,sans-Serif" font-size="10.00" fill="#000000">reflist.h</text>
</a>
</g>
</g>
<!-- Node22&#45;&gt;Node24 -->
<g id="edge33" class="edge">
<title>Node22&#45;&gt;Node24</title>
<path fill="none" stroke="#63b8ff" d="M1284.3398,-277.3097C1237.9903,-266.947 1152.7579,-247.891 1105.0909,-237.2337"/>
<polygon fill="#63b8ff" stroke="#63b8ff" points="1105.7578,-233.7965 1095.2351,-235.0302 1104.2304,-240.6279 1105.7578,-233.7965"/>
</g>
<!-- Node23&#45;&gt;Node7 -->
<g id="edge32" class="edge">
<title>Node23&#45;&gt;Node7</title>
<path fill="none" stroke="#63b8ff" d="M1468.6484,-222.4329C1465.5724,-221.5945 1462.4673,-220.7656 1459.5,-220 1392.2771,-202.6553 1354.232,-235.3408 1307.5,-184 1296.6904,-172.1243 1295.105,-153.5721 1295.8358,-139.4073"/>
<polygon fill="#63b8ff" stroke="#63b8ff" points="1299.344,-139.4809 1296.7865,-129.1994 1292.3742,-138.8317 1299.344,-139.4809"/>
</g>
<!-- Node24&#45;&gt;Node2 -->
<g id="edge35" class="edge">
<title>Node24&#45;&gt;Node2</title>
<path fill="none" stroke="#63b8ff" d="M1045.7303,-226.4298C993.4144,-219.8135 867.8865,-203.242 763.5,-184 725.0046,-176.904 715.7393,-173.3667 677.5,-165 623.52,-153.1893 561.7005,-139.8132 519.1857,-130.6373"/>
<polygon fill="#63b8ff" stroke="#63b8ff" points="519.8601,-127.2023 509.3468,-128.5144 518.3837,-134.0449 519.8601,-127.2023"/>
</g>
<!-- Node24&#45;&gt;Node4 -->
<g id="edge34" class="edge">
<title>Node24&#45;&gt;Node4</title>
<path fill="none" stroke="#63b8ff" d="M1053.1714,-219.7995C1029.0329,-206.4963 983.7171,-182.276 943.5,-165 911.3611,-151.1942 873.4992,-138.1134 847.3326,-129.5513"/>
<polygon fill="#63b8ff" stroke="#63b8ff" points="848.1632,-126.1414 837.5712,-126.3894 846.006,-132.8007 848.1632,-126.1414"/>
</g>
<!-- Node24&#45;&gt;Node6 -->
<g id="edge36" class="edge">
<title>Node24&#45;&gt;Node6</title>
<path fill="none" stroke="#63b8ff" d="M1095.0314,-228.1869C1202.6412,-222.3602 1630.1616,-198.4921 1688.5,-184 1690.0173,-183.6231 1761.6914,-152.058 1804.3831,-133.2307"/>
<polygon fill="#63b8ff" stroke="#63b8ff" points="1806.0481,-136.3217 1813.7851,-129.0837 1803.2231,-129.917 1806.0481,-136.3217"/>
</g>
<!-- Node24&#45;&gt;Node7 -->
<g id="edge37" class="edge">
<title>Node24&#45;&gt;Node7</title>
<path fill="none" stroke="#63b8ff" d="M1074.7716,-219.9836C1081.6607,-205.7558 1096.5979,-179.1067 1117.5,-165 1140.3463,-149.5811 1212.7681,-134.5605 1258.781,-126.2189"/>
<polygon fill="#63b8ff" stroke="#63b8ff" points="1259.5048,-129.6451 1268.7349,-124.4435 1258.2757,-122.7538 1259.5048,-129.6451"/>
</g>
<!-- Node25 -->
<g id="node25" class="node">
<title>Node25</title>
<g id="a_node25"><a xlink:href="../../da/de1/linkedmap_8h.html" target="_top" xlink:title=" ">
<polygon fill="#ffffff" stroke="#666666" points="1065,-184 996,-184 996,-165 1065,-165 1065,-184"/>
<text text-anchor="middle" x="1030.5" y="-172" font-family="Helvetica,sans-Serif" font-size="10.00" fill="#000000">linkedmap.h</text>
</a>
</g>
</g>
<!-- Node24&#45;&gt;Node25 -->
<g id="edge38" class="edge">
<title>Node24&#45;&gt;Node25</title>
<path fill="none" stroke="#63b8ff" d="M1063.5325,-219.9197C1058.0367,-212.363 1050.2154,-201.6087 1043.563,-192.4616"/>
<polygon fill="#63b8ff" stroke="#63b8ff" points="1046.3693,-190.3696 1037.657,-184.3408 1040.7081,-194.4868 1046.3693,-190.3696"/>
</g>
<!-- Node25&#45;&gt;Node2 -->
<g id="edge39" class="edge">
<title>Node25&#45;&gt;Node2</title>
<path fill="none" stroke="#63b8ff" d="M995.7067,-171.101C900.0404,-161.7553 632.6447,-135.6331 519.3154,-124.5619"/>
<polygon fill="#63b8ff" stroke="#63b8ff" points="519.4548,-121.0589 509.1618,-123.57 518.7741,-128.0258 519.4548,-121.0589"/>
</g>
<!-- Node25&#45;&gt;Node3 -->
<g id="edge42" class="edge">
<title>Node25&#45;&gt;Node3</title>
<path fill="none" stroke="#63b8ff" d="M1029.0946,-164.6986C1026.4143,-141.7503 1023.3466,-84.2675 1054.5,-55 1076.382,-34.4427 1278.3253,-17.5302 1356.6537,-11.6897"/>
<polygon fill="#63b8ff" stroke="#63b8ff" points="1357.1377,-15.1637 1366.8541,-10.9399 1356.6244,-8.1825 1357.1377,-15.1637"/>
</g>
<!-- Node25&#45;&gt;Node4 -->
<g id="edge40" class="edge">
<title>Node25&#45;&gt;Node4</title>
<path fill="none" stroke="#63b8ff" d="M995.9565,-165.6633C955.0078,-155.188 887.3178,-137.872 847.511,-127.6888"/>
<polygon fill="#63b8ff" stroke="#63b8ff" points="848.3409,-124.2885 837.7854,-125.2009 846.606,-131.0701 848.3409,-124.2885"/>
</g>
<!-- Node25&#45;&gt;Node6 -->
<g id="edge41" class="edge">
<title>Node25&#45;&gt;Node6</title>
<path fill="none" stroke="#63b8ff" d="M1065.0898,-172.1367C1196.5033,-163.1582 1664.1561,-131.2067 1798.9143,-121.9996"/>
<polygon fill="#63b8ff" stroke="#63b8ff" points="1799.3787,-125.4762 1809.1169,-121.3026 1798.9015,-118.4924 1799.3787,-125.4762"/>
</g>
<!-- Node25&#45;&gt;Node7 -->
<g id="edge45" class="edge">
<title>Node25&#45;&gt;Node7</title>
<path fill="none" stroke="#63b8ff" d="M1065.2616,-167.3661C1115.0531,-157.1477 1206.4341,-138.3941 1258.8143,-127.6444"/>
<polygon fill="#63b8ff" stroke="#63b8ff" points="1259.6543,-131.0451 1268.7465,-125.6061 1258.247,-124.188 1259.6543,-131.0451"/>
</g>
<!-- Node25&#45;&gt;Node8 -->
<g id="edge43" class="edge">
<title>Node25&#45;&gt;Node8</title>
<path fill="none" stroke="#63b8ff" d="M1008.619,-164.9226C974.6367,-150.4891 906.8002,-123.4258 846.5,-110 697.1283,-76.7426 514.3258,-67.7475 436.0508,-65.3517"/>
<polygon fill="#63b8ff" stroke="#63b8ff" points="435.8101,-61.8434 425.714,-65.0556 435.6096,-68.8406 435.8101,-61.8434"/>
</g>
<!-- Node25&#45;&gt;Node9 -->
<g id="edge44" class="edge">
<title>Node25&#45;&gt;Node9</title>
<path fill="none" stroke="#63b8ff" d="M1038.3982,-164.7382C1053.4119,-146.1819 1086.2608,-105.5822 1105.2246,-82.1438"/>
<polygon fill="#63b8ff" stroke="#63b8ff" points="1108.1776,-84.0584 1111.7466,-74.0828 1102.7357,-79.6554 1108.1776,-84.0584"/>
</g>
<!-- Node26&#45;&gt;Node4 -->
<g id="edge47" class="edge">
<title>Node26&#45;&gt;Node4</title>
<path fill="none" stroke="#63b8ff" d="M979.9569,-276.616C953.4688,-269.6107 917.2368,-257.5617 889.5,-239 862.0449,-220.6268 856.6833,-212.2151 839.5,-184 830.9549,-169.9688 824.6654,-152.4028 820.6737,-139.1469"/>
<polygon fill="#63b8ff" stroke="#63b8ff" points="823.9497,-137.8692 817.862,-129.198 817.2136,-139.773 823.9497,-137.8692"/>
</g>
<!-- Node26&#45;&gt;Node7 -->
<g id="edge48" class="edge">
<title>Node26&#45;&gt;Node7</title>
<path fill="none" stroke="#63b8ff" d="M1051.1651,-279.5275C1084.9594,-273.6597 1136.2436,-261.6864 1175.5,-239 1222.2827,-211.9641 1264.5511,-163.2036 1285.1941,-137.1081"/>
<polygon fill="#63b8ff" stroke="#63b8ff" points="1287.9726,-139.2365 1291.341,-129.1914 1282.4436,-134.9435 1287.9726,-139.2365"/>
</g>
<!-- Node27&#45;&gt;Node4 -->
<g id="edge50" class="edge">
<title>Node27&#45;&gt;Node4</title>
<path fill="none" stroke="#63b8ff" d="M877.4107,-274.9453C844.4756,-266.516 802.6115,-253.3635 792.5,-239 771.0269,-208.4973 790.1144,-163.2258 804.0278,-138.0671"/>
<polygon fill="#63b8ff" stroke="#63b8ff" points="807.1868,-139.5971 809.188,-129.193 801.1355,-136.0783 807.1868,-139.5971"/>
</g>
<!-- Node27&#45;&gt;Node6 -->
<g id="edge52" class="edge">
<title>Node27&#45;&gt;Node6</title>
<path fill="none" stroke="#63b8ff" d="M961.7369,-276.2045C964.6961,-275.7551 967.6389,-275.3467 970.5,-275 1249.361,-241.2118 1328.6683,-305.8425 1601.5,-239 1685.7628,-218.356 1773.9748,-162.4311 1813.762,-135.0403"/>
<polygon fill="#63b8ff" stroke="#63b8ff" points="1815.9526,-137.7798 1822.1534,-129.1891 1811.9488,-132.0378 1815.9526,-137.7798"/>
</g>
<!-- Node27&#45;&gt;Node19 -->
<g id="edge51" class="edge">
<title>Node27&#45;&gt;Node19</title>
<path fill="none" stroke="#63b8ff" d="M902.0813,-274.9197C886.6893,-266.4541 864.001,-253.9755 846.2984,-244.2391"/>
<polygon fill="#63b8ff" stroke="#63b8ff" points="847.5035,-240.9075 837.0546,-239.155 844.13,-247.041 847.5035,-240.9075"/>
</g>
<!-- Node27&#45;&gt;Node23 -->
<g id="edge53" class="edge">
<title>Node27&#45;&gt;Node23</title>
<path fill="none" stroke="#63b8ff" d="M961.7437,-276.2586C964.7013,-275.7964 967.6418,-275.3703 970.5,-275 1183.3444,-247.4275 1243.032,-275.6273 1458.693,-238.7755"/>
<polygon fill="#63b8ff" stroke="#63b8ff" points="1459.4945,-242.1888 1468.7484,-237.0298 1458.2971,-235.292 1459.4945,-242.1888"/>
</g>
<!-- Node27&#45;&gt;Node24 -->
<g id="edge54" class="edge">
<title>Node27&#45;&gt;Node24</title>
<path fill="none" stroke="#63b8ff" d="M945.8022,-274.9197C970.9374,-265.7645 1008.958,-251.9159 1036.4069,-241.918"/>
<polygon fill="#63b8ff" stroke="#63b8ff" points="1037.7996,-245.1358 1045.9979,-238.4246 1035.4039,-238.5585 1037.7996,-245.1358"/>
</g>
<!-- Node28&#45;&gt;Node2 -->
<g id="edge57" class="edge">
<title>Node28&#45;&gt;Node2</title>
<path fill="none" stroke="#63b8ff" d="M1638.2405,-614.4415C1479.8425,-613.8863 396.4978,-608.644 341.5,-569 316.6875,-551.1144 317.5,-535.0869 317.5,-504.5 317.5,-504.5 317.5,-504.5 317.5,-339.5 317.5,-249.0846 405.0579,-168.4084 446.3825,-135.3669"/>
<polygon fill="#63b8ff" stroke="#63b8ff" points="448.7327,-137.9721 454.4509,-129.0528 444.4186,-132.4594 448.7327,-137.9721"/>
</g>
<!-- Node28&#45;&gt;Node6 -->
<g id="edge56" class="edge">
<title>Node28&#45;&gt;Node6</title>
<path fill="none" stroke="#63b8ff" d="M1676.7227,-613.6036C1716.2061,-611.1171 1808.5209,-601.9512 1877.5,-569 1912.2632,-552.3937 1924.1646,-546.7219 1944.5,-514 2027.277,-380.8026 2103.9799,-279.2 1996.5,-165 1979.4887,-146.9251 1913.433,-132.7046 1871.4,-125.2482"/>
<polygon fill="#63b8ff" stroke="#63b8ff" points="1871.9836,-121.7972 1861.5337,-123.5433 1870.7917,-128.695 1871.9836,-121.7972"/>
</g>
<!-- Node28&#45;&gt;Node8 -->
<g id="edge58" class="edge">
<title>Node28&#45;&gt;Node8</title>
<path fill="none" stroke="#63b8ff" d="M1638.3393,-613.9226C1477.2997,-608.9485 355.5,-571.8806 355.5,-504.5 355.5,-504.5 355.5,-504.5 355.5,-449.5 355.5,-353.543 392.766,-334.3548 403.5,-239 404.4446,-230.6086 403.6628,-228.4429 403.5,-220 402.5618,-171.3538 399.9743,-114.195 398.5223,-84.5757"/>
<polygon fill="#63b8ff" stroke="#63b8ff" points="402.0046,-84.1337 398.0106,-74.3205 395.0133,-84.4826 402.0046,-84.1337"/>
</g>
<!-- Node28&#45;&gt;Node18 -->
<g id="edge72" class="edge">
<title>Node28&#45;&gt;Node18</title>
<path fill="none" stroke="#63b8ff" d="M1638.3544,-607.8072C1616.4756,-599.8327 1579.899,-585.4962 1550.5,-569 1470.7651,-524.2595 1243.6544,-353.5572 1173.4423,-300.3998"/>
<polygon fill="#63b8ff" stroke="#63b8ff" points="1175.4022,-297.4936 1165.3183,-294.2433 1171.1744,-303.0726 1175.4022,-297.4936"/>
</g>
<!-- Node28&#45;&gt;Node23 -->
<g id="edge63" class="edge">
<title>Node28&#45;&gt;Node23</title>
<path fill="none" stroke="#63b8ff" d="M1665.1563,-604.8388C1678.9375,-586.445 1706.5,-544.64 1706.5,-504.5 1706.5,-504.5 1706.5,-504.5 1706.5,-339.5 1706.5,-299.8617 1588.5764,-258.3108 1528.2148,-239.6385"/>
<polygon fill="#63b8ff" stroke="#63b8ff" points="1528.9367,-236.1997 1518.3507,-236.6324 1526.896,-242.8956 1528.9367,-236.1997"/>
</g>
<!-- Node29 -->
<g id="node29" class="node">
<title>Node29</title>
<g id="a_node29"><a xlink:title=" ">
<polygon fill="#e0e0e0" stroke="#999999" points="1619,-569 1560,-569 1560,-550 1619,-550 1619,-569"/>
<text text-anchor="middle" x="1589.5" y="-557" font-family="Helvetica,sans-Serif" font-size="10.00" fill="#000000">functional</text>
</a>
</g>
</g>
<!-- Node28&#45;&gt;Node29 -->
<g id="edge59" class="edge">
<title>Node28&#45;&gt;Node29</title>
<path fill="none" stroke="#63b8ff" d="M1645.6553,-604.9197C1635.7345,-596.8956 1621.3562,-585.2661 1609.6326,-575.7837"/>
<polygon fill="#63b8ff" stroke="#63b8ff" points="1611.643,-572.9083 1601.6668,-569.3408 1607.2409,-578.3509 1611.643,-572.9083"/>
</g>
<!-- Node30 -->
<g id="node30" class="node">
<title>Node30</title>
<g id="a_node30"><a xlink:title=" ">
<polygon fill="#e0e0e0" stroke="#999999" points="2116.5,-184 2066.5,-184 2066.5,-165 2116.5,-165 2116.5,-184"/>
<text text-anchor="middle" x="2091.5" y="-172" font-family="Helvetica,sans-Serif" font-size="10.00" fill="#000000">fstream</text>
</a>
</g>
</g>
<!-- Node28&#45;&gt;Node30 -->
<g id="edge60" class="edge">
<title>Node28&#45;&gt;Node30</title>
<path fill="none" stroke="#63b8ff" d="M1676.5503,-613.5561C1755.6712,-609.4943 2055.8396,-592.6336 2090.5,-569 2139.9354,-535.2919 2152.5,-509.3339 2152.5,-449.5 2152.5,-449.5 2152.5,-449.5 2152.5,-284.5 2152.5,-247.8419 2126.2698,-211.9602 2108.2101,-191.5999"/>
<polygon fill="#63b8ff" stroke="#63b8ff" points="2110.6527,-189.0857 2101.3007,-184.1067 2105.5066,-193.831 2110.6527,-189.0857"/>
</g>
<!-- Node31 -->
<g id="node31" class="node">
<title>Node31</title>
<g id="a_node31"><a xlink:title=" ">
<polygon fill="#e0e0e0" stroke="#999999" points="1678,-569 1637,-569 1637,-550 1678,-550 1678,-569"/>
<text text-anchor="middle" x="1657.5" y="-557" font-family="Helvetica,sans-Serif" font-size="10.00" fill="#000000">ctime</text>
</a>
</g>
</g>
<!-- Node28&#45;&gt;Node31 -->
<g id="edge61" class="edge">
<title>Node28&#45;&gt;Node31</title>
<path fill="none" stroke="#63b8ff" d="M1657.5,-604.9197C1657.5,-597.9083 1657.5,-588.1442 1657.5,-579.4652"/>
<polygon fill="#63b8ff" stroke="#63b8ff" points="1661.0001,-579.3408 1657.5,-569.3408 1654.0001,-579.3409 1661.0001,-579.3408"/>
</g>
<!-- Node32 -->
<g id="node32" class="node">
<title>Node32</title>
<g id="a_node32"><a xlink:title=" ">
<polygon fill="#e0e0e0" stroke="#999999" points="49,-129 0,-129 0,-110 49,-110 49,-129"/>
<text text-anchor="middle" x="24.5" y="-117" font-family="Helvetica,sans-Serif" font-size="10.00" fill="#000000">ctype.h</text>
</a>
</g>
</g>
<!-- Node28&#45;&gt;Node32 -->
<g id="edge62" class="edge">
<title>Node28&#45;&gt;Node32</title>
<path fill="none" stroke="#63b8ff" d="M1638.2534,-614.3479C1478.7783,-613.0263 380.6022,-602.7166 320.5,-569 142.2216,-468.9879 52.4804,-211.646 30.1486,-138.9101"/>
<polygon fill="#63b8ff" stroke="#63b8ff" points="33.4657,-137.7865 27.2395,-129.2142 26.761,-139.7982 33.4657,-137.7865"/>
</g>
<!-- Node33 -->
<g id="node33" class="node">
<title>Node33</title>
<g id="a_node33"><a xlink:href="../../de/d9c/docparser_8h.html" target="_top" xlink:title=" ">
<polygon fill="#ffffff" stroke="#666666" points="1896.5,-239 1828.5,-239 1828.5,-220 1896.5,-220 1896.5,-239"/>
<text text-anchor="middle" x="1862.5" y="-227" font-family="Helvetica,sans-Serif" font-size="10.00" fill="#000000">docparser.h</text>
</a>
</g>
</g>
<!-- Node28&#45;&gt;Node33 -->
<g id="edge64" class="edge">
<title>Node28&#45;&gt;Node33</title>
<path fill="none" stroke="#63b8ff" d="M1676.8746,-610.5322C1699.3951,-604.9648 1736.3009,-592.7397 1758.5,-569 1779.3911,-546.6591 1782.5,-535.0869 1782.5,-504.5 1782.5,-504.5 1782.5,-504.5 1782.5,-394.5 1782.5,-335.6445 1824.2221,-275.7442 1847.4056,-247.0029"/>
<polygon fill="#63b8ff" stroke="#63b8ff" points="1850.2529,-249.0523 1853.9386,-239.1192 1844.863,-244.5858 1850.2529,-249.0523"/>
</g>
<!-- Node37 -->
<g id="node37" class="node">
<title>Node37</title>
<g id="a_node37"><a xlink:href="../../df/d06/outputgen_8h.html" target="_top" xlink:title=" ">
<polygon fill="#ffffff" stroke="#666666" points="1919.5,-294 1851.5,-294 1851.5,-275 1919.5,-275 1919.5,-294"/>
<text text-anchor="middle" x="1885.5" y="-282" font-family="Helvetica,sans-Serif" font-size="10.00" fill="#000000">outputgen.h</text>
</a>
</g>
</g>
<!-- Node28&#45;&gt;Node37 -->
<g id="edge73" class="edge">
<title>Node28&#45;&gt;Node37</title>
<path fill="none" stroke="#63b8ff" d="M1676.6968,-611.0856C1738.8374,-599.4949 1930.5,-559.3033 1930.5,-504.5 1930.5,-504.5 1930.5,-504.5 1930.5,-394.5 1930.5,-360.1453 1911.4646,-323.9477 1898.1548,-302.8367"/>
<polygon fill="#63b8ff" stroke="#63b8ff" points="1900.9413,-300.7033 1892.5313,-294.2595 1895.0873,-304.5414 1900.9413,-300.7033"/>
</g>
<!-- Node44 -->
<g id="node44" class="node">
<title>Node44</title>
<g id="a_node44"><a xlink:href="../../d1/d21/regex_8h.html" target="_top" xlink:title=" ">
<polygon fill="#ffffff" stroke="#666666" points="1589,-184 1540,-184 1540,-165 1589,-165 1589,-184"/>
<text text-anchor="middle" x="1564.5" y="-172" font-family="Helvetica,sans-Serif" font-size="10.00" fill="#000000">regex.h</text>
</a>
</g>
</g>
<!-- Node28&#45;&gt;Node44 -->
<g id="edge96" class="edge">
<title>Node28&#45;&gt;Node44</title>
<path fill="none" stroke="#63b8ff" d="M1673.0539,-604.7574C1698.0781,-587.7385 1744.5,-550.0313 1744.5,-504.5 1744.5,-504.5 1744.5,-504.5 1744.5,-339.5 1744.5,-286.387 1776.4285,-261.6738 1743.5,-220 1704.0081,-170.0197 1665.8214,-198.2788 1599.3532,-184.1654"/>
<polygon fill="#63b8ff" stroke="#63b8ff" points="1599.8784,-180.6921 1589.3377,-181.7613 1598.2445,-187.4988 1599.8784,-180.6921"/>
</g>
<!-- Node45 -->
<g id="node45" class="node">
<title>Node45</title>
<g id="a_node45"><a xlink:href="../../da/df1/conceptdef_8h.html" target="_top" xlink:title=" ">
<polygon fill="#ffffff" stroke="#666666" points="1503,-569 1430,-569 1430,-550 1503,-550 1503,-569"/>
<text text-anchor="middle" x="1466.5" y="-557" font-family="Helvetica,sans-Serif" font-size="10.00" fill="#000000">conceptdef.h</text>
</a>
</g>
</g>
<!-- Node28&#45;&gt;Node45 -->
<g id="edge101" class="edge">
<title>Node28&#45;&gt;Node45</title>
<path fill="none" stroke="#63b8ff" d="M1638.4879,-609.0253C1608.6517,-600.4337 1550.0703,-583.5647 1509.6286,-571.9192"/>
<polygon fill="#63b8ff" stroke="#63b8ff" points="1510.3443,-568.4832 1499.7662,-569.0793 1508.4073,-575.2098 1510.3443,-568.4832"/>
</g>
<!-- Node33&#45;&gt;Node6 -->
<g id="edge66" class="edge">
<title>Node33&#45;&gt;Node6</title>
<path fill="none" stroke="#63b8ff" d="M1865.5251,-219.6214C1868.9672,-206.7337 1873.3959,-183.6322 1867.5,-165 1864.2906,-154.8576 1857.9182,-145.0191 1851.6991,-137.1009"/>
<polygon fill="#63b8ff" stroke="#63b8ff" points="1854.2843,-134.7371 1845.1678,-129.3389 1848.9282,-139.244 1854.2843,-134.7371"/>
</g>
<!-- Node33&#45;&gt;Node7 -->
<g id="edge67" class="edge">
<title>Node33&#45;&gt;Node7</title>
<path fill="none" stroke="#63b8ff" d="M1828.29,-226.8723C1744.1893,-220.2143 1529.1338,-201.9336 1459.5,-184 1438.0792,-178.4833 1434.007,-173.2914 1413.5,-165 1386.45,-154.0631 1355.7137,-141.9167 1332.8265,-132.9265"/>
<polygon fill="#63b8ff" stroke="#63b8ff" points="1333.8064,-129.5512 1323.2189,-129.1568 1331.2496,-136.0676 1333.8064,-129.5512"/>
</g>
<!-- Node34 -->
<g id="node34" class="node">
<title>Node34</title>
<g id="a_node34"><a xlink:title=" ">
<polygon fill="#e0e0e0" stroke="#999999" points="1858.5,-184 1812.5,-184 1812.5,-165 1858.5,-165 1858.5,-184"/>
<text text-anchor="middle" x="1835.5" y="-172" font-family="Helvetica,sans-Serif" font-size="10.00" fill="#000000">stdio.h</text>
</a>
</g>
</g>
<!-- Node33&#45;&gt;Node34 -->
<g id="edge65" class="edge">
<title>Node33&#45;&gt;Node34</title>
<path fill="none" stroke="#63b8ff" d="M1857.797,-219.9197C1854.2403,-212.6746 1849.2407,-202.4903 1844.8769,-193.601"/>
<polygon fill="#63b8ff" stroke="#63b8ff" points="1847.8796,-191.7751 1840.331,-184.3408 1841.5959,-194.8599 1847.8796,-191.7751"/>
</g>
<!-- Node35 -->
<g id="node35" class="node">
<title>Node35</title>
<g id="a_node35"><a xlink:href="../../d7/d50/growvector_8h.html" target="_top" xlink:title=" ">
<polygon fill="#ffffff" stroke="#666666" points="1680,-184 1607,-184 1607,-165 1680,-165 1680,-184"/>
<text text-anchor="middle" x="1643.5" y="-172" font-family="Helvetica,sans-Serif" font-size="10.00" fill="#000000">growvector.h</text>
</a>
</g>
</g>
<!-- Node33&#45;&gt;Node35 -->
<g id="edge68" class="edge">
<title>Node33&#45;&gt;Node35</title>
<path fill="none" stroke="#63b8ff" d="M1828.2813,-220.9063C1791.0504,-211.556 1731.3151,-196.554 1689.8844,-186.149"/>
<polygon fill="#63b8ff" stroke="#63b8ff" points="1690.5837,-182.7161 1680.0324,-183.6748 1688.8786,-189.5052 1690.5837,-182.7161"/>
</g>
<!-- Node35&#45;&gt;Node4 -->
<g id="edge69" class="edge">
<title>Node35&#45;&gt;Node4</title>
<path fill="none" stroke="#63b8ff" d="M1606.9234,-166.4457C1603.746,-165.8981 1600.5723,-165.4044 1597.5,-165 1308.4412,-126.948 955.0928,-120.7191 847.8569,-119.6995"/>
<polygon fill="#63b8ff" stroke="#63b8ff" points="847.7216,-116.1983 837.6917,-119.6118 847.6611,-123.1981 847.7216,-116.1983"/>
</g>
<!-- Node35&#45;&gt;Node6 -->
<g id="edge70" class="edge">
<title>Node35&#45;&gt;Node6</title>
<path fill="none" stroke="#63b8ff" d="M1676.9438,-164.9197C1711.1694,-155.1155 1764.184,-139.9291 1799.3586,-129.853"/>
<polygon fill="#63b8ff" stroke="#63b8ff" points="1800.5689,-133.1472 1809.2183,-127.0286 1798.6411,-126.4178 1800.5689,-133.1472"/>
</g>
<!-- Node36 -->
<g id="node36" class="node">
<title>Node36</title>
<g id="a_node36"><a xlink:title=" ">
<polygon fill="#e0e0e0" stroke="#999999" points="1627,-129 1580,-129 1580,-110 1627,-110 1627,-129"/>
<text text-anchor="middle" x="1603.5" y="-117" font-family="Helvetica,sans-Serif" font-size="10.00" fill="#000000">iterator</text>
</a>
</g>
</g>
<!-- Node35&#45;&gt;Node36 -->
<g id="edge71" class="edge">
<title>Node35&#45;&gt;Node36</title>
<path fill="none" stroke="#63b8ff" d="M1636.5325,-164.9197C1631.0367,-157.363 1623.2154,-146.6087 1616.563,-137.4616"/>
<polygon fill="#63b8ff" stroke="#63b8ff" points="1619.3693,-135.3696 1610.657,-129.3408 1613.7081,-139.4868 1619.3693,-135.3696"/>
</g>
<!-- Node37&#45;&gt;Node6 -->
<g id="edge74" class="edge">
<title>Node37&#45;&gt;Node6</title>
<path fill="none" stroke="#63b8ff" d="M1891.1939,-274.7798C1896.0854,-265.8283 1902.768,-252.0044 1905.5,-239 1907.2361,-230.7359 1907.0969,-228.2921 1905.5,-220 1900.5213,-194.1476 1898.2855,-186.7836 1883.5,-165 1876.0188,-153.9779 1865.4602,-143.6012 1856.15,-135.5487"/>
<polygon fill="#63b8ff" stroke="#63b8ff" points="1858.3279,-132.8078 1848.3983,-129.1127 1853.8563,-138.1935 1858.3279,-132.8078"/>
</g>
<!-- Node37&#45;&gt;Node21 -->
<g id="edge75" class="edge">
<title>Node37&#45;&gt;Node21</title>
<path fill="none" stroke="#63b8ff" d="M1851.4306,-283.2887C1780.2543,-280.241 1610.622,-270.2769 1461.0846,-238.9745"/>
<polygon fill="#63b8ff" stroke="#63b8ff" points="1461.7751,-235.5431 1451.2652,-236.8817 1460.3159,-242.3894 1461.7751,-235.5431"/>
</g>
<!-- Node37&#45;&gt;Node23 -->
<g id="edge78" class="edge">
<title>Node37&#45;&gt;Node23</title>
<path fill="none" stroke="#63b8ff" d="M1851.4206,-281.8383C1789.145,-276.6158 1652.6999,-263.5168 1528.3547,-238.9003"/>
<polygon fill="#63b8ff" stroke="#63b8ff" points="1528.7745,-235.4148 1518.2808,-236.875 1527.3947,-242.2774 1528.7745,-235.4148"/>
</g>
<!-- Node37&#45;&gt;Node30 -->
<g id="edge77" class="edge">
<title>Node37&#45;&gt;Node30</title>
<path fill="none" stroke="#63b8ff" d="M1903.4208,-274.9306C1939.6408,-255.5899 2021.7386,-211.7512 2064.4869,-188.9245"/>
<polygon fill="#63b8ff" stroke="#63b8ff" points="2066.3014,-191.9233 2073.474,-184.1256 2063.0042,-185.7485 2066.3014,-191.9233"/>
</g>
<!-- Node37&#45;&gt;Node33 -->
<g id="edge95" class="edge">
<title>Node37&#45;&gt;Node33</title>
<path fill="none" stroke="#63b8ff" d="M1881.4937,-274.9197C1878.4639,-267.6746 1874.205,-257.4903 1870.4877,-248.601"/>
<polygon fill="#63b8ff" stroke="#63b8ff" points="1873.7024,-247.2163 1866.6153,-239.3408 1867.2443,-249.917 1873.7024,-247.2163"/>
</g>
<!-- Node38 -->
<g id="node38" class="node">
<title>Node38</title>
<g id="a_node38"><a xlink:title=" ">
<polygon fill="#e0e0e0" stroke="#999999" points="2188.5,-184 2134.5,-184 2134.5,-165 2188.5,-165 2188.5,-184"/>
<text text-anchor="middle" x="2161.5" y="-172" font-family="Helvetica,sans-Serif" font-size="10.00" fill="#000000">iostream</text>
</a>
</g>
</g>
<!-- Node37&#45;&gt;Node38 -->
<g id="edge76" class="edge">
<title>Node37&#45;&gt;Node38</title>
<path fill="none" stroke="#63b8ff" d="M1910.6467,-274.8417C1934.368,-265.7022 1970.9026,-251.5521 2002.5,-239 2046.406,-221.5583 2096.9342,-200.9728 2129.0291,-187.8325"/>
<polygon fill="#63b8ff" stroke="#63b8ff" points="2130.4436,-191.0354 2138.37,-184.0053 2127.7896,-184.558 2130.4436,-191.0354"/>
</g>
<!-- Node39 -->
<g id="node39" class="node">
<title>Node39</title>
<g id="a_node39"><a xlink:href="../../d1/db5/index_8h.html" target="_top" xlink:title=" ">
<polygon fill="#ffffff" stroke="#666666" points="1734.5,-239 1686.5,-239 1686.5,-220 1734.5,-220 1734.5,-239"/>
<text text-anchor="middle" x="1710.5" y="-227" font-family="Helvetica,sans-Serif" font-size="10.00" fill="#000000">index.h</text>
</a>
</g>
</g>
<!-- Node37&#45;&gt;Node39 -->
<g id="edge79" class="edge">
<title>Node37&#45;&gt;Node39</title>
<path fill="none" stroke="#63b8ff" d="M1855.0173,-274.9197C1824.1783,-265.2275 1776.6026,-250.2751 1744.5457,-240.2001"/>
<polygon fill="#63b8ff" stroke="#63b8ff" points="1745.3132,-236.7726 1734.7238,-237.1132 1743.2144,-243.4505 1745.3132,-236.7726"/>
</g>
<!-- Node40 -->
<g id="node40" class="node">
<title>Node40</title>
<g id="a_node40"><a xlink:href="../../d1/d2a/section_8h.html" target="_top" xlink:title=" ">
<polygon fill="#ffffff" stroke="#666666" points="1592.5,-239 1536.5,-239 1536.5,-220 1592.5,-220 1592.5,-239"/>
<text text-anchor="middle" x="1564.5" y="-227" font-family="Helvetica,sans-Serif" font-size="10.00" fill="#000000">section.h</text>
</a>
</g>
</g>
<!-- Node37&#45;&gt;Node40 -->
<g id="edge81" class="edge">
<title>Node37&#45;&gt;Node40</title>
<path fill="none" stroke="#63b8ff" d="M1851.4513,-278.6661C1791.0775,-268.3217 1665.6942,-246.8386 1602.5631,-236.0217"/>
<polygon fill="#63b8ff" stroke="#63b8ff" points="1603.0678,-232.5573 1592.6203,-234.3181 1601.8856,-239.4567 1603.0678,-232.5573"/>
</g>
<!-- Node41 -->
<g id="node41" class="node">
<title>Node41</title>
<g id="a_node41"><a xlink:href="../../d4/d7d/textstream_8h.html" target="_top" xlink:title=" ">
<polygon fill="#ffffff" stroke="#666666" points="2268,-239 2197,-239 2197,-220 2268,-220 2268,-239"/>
<text text-anchor="middle" x="2232.5" y="-227" font-family="Helvetica,sans-Serif" font-size="10.00" fill="#000000">textstream.h</text>
</a>
</g>
</g>
<!-- Node37&#45;&gt;Node41 -->
<g id="edge86" class="edge">
<title>Node37&#45;&gt;Node41</title>
<path fill="none" stroke="#63b8ff" d="M1919.7214,-279.0759C1982.6267,-269.1053 2116.6283,-247.8658 2187.0708,-236.7006"/>
<polygon fill="#63b8ff" stroke="#63b8ff" points="2187.658,-240.1513 2196.9868,-235.1289 2186.5621,-233.2376 2187.658,-240.1513"/>
</g>
<!-- Node39&#45;&gt;Node7 -->
<g id="edge80" class="edge">
<title>Node39&#45;&gt;Node7</title>
<path fill="none" stroke="#63b8ff" d="M1686.4607,-223.095C1681.8459,-221.9778 1677.0377,-220.8902 1672.5,-220 1561.9108,-198.305 1528.7316,-218.6702 1421.5,-184 1384.6375,-172.0816 1345.5954,-149.7164 1321.6302,-134.7125"/>
<polygon fill="#63b8ff" stroke="#63b8ff" points="1323.2389,-131.5876 1312.9239,-129.1684 1319.4788,-137.492 1323.2389,-131.5876"/>
</g>
<!-- Node40&#45;&gt;Node2 -->
<g id="edge83" class="edge">
<title>Node40&#45;&gt;Node2</title>
<path fill="none" stroke="#63b8ff" d="M1536.3931,-221.8796C1533.0759,-221.1569 1529.7246,-220.5064 1526.5,-220 1288.8797,-182.6827 1225.9457,-206.8416 986.5,-184 814.8715,-167.6277 612.314,-140.0578 519.1318,-126.9087"/>
<polygon fill="#63b8ff" stroke="#63b8ff" points="519.5126,-123.4278 509.1208,-125.4921 518.5318,-130.3588 519.5126,-123.4278"/>
</g>
<!-- Node40&#45;&gt;Node3 -->
<g id="edge82" class="edge">
<title>Node40&#45;&gt;Node3</title>
<path fill="none" stroke="#63b8ff" d="M1556.0259,-219.9605C1548.5219,-211.1307 1537.6756,-197.3839 1530.5,-184 1501.7386,-130.3542 1525.4249,-100.0582 1484.5,-55 1466.8742,-35.594 1439.2559,-23.7648 1417.9898,-17.0516"/>
<polygon fill="#63b8ff" stroke="#63b8ff" points="1418.713,-13.6162 1408.1319,-14.1562 1416.7403,-20.3325 1418.713,-13.6162"/>
</g>
<!-- Node40&#45;&gt;Node7 -->
<g id="edge84" class="edge">
<title>Node40&#45;&gt;Node7</title>
<path fill="none" stroke="#63b8ff" d="M1536.3146,-222.2916C1533.0115,-221.4949 1529.685,-220.7144 1526.5,-220 1446.4685,-202.0483 1414.6101,-228.1713 1345.5,-184 1328.2362,-172.9659 1315.2346,-153.1579 1307.3315,-138.3939"/>
<polygon fill="#63b8ff" stroke="#63b8ff" points="1310.3028,-136.5117 1302.6849,-129.1483 1304.0482,-139.6551 1310.3028,-136.5117"/>
</g>
<!-- Node40&#45;&gt;Node25 -->
<g id="edge85" class="edge">
<title>Node40&#45;&gt;Node25</title>
<path fill="none" stroke="#63b8ff" d="M1536.3801,-221.9591C1533.0653,-221.2221 1529.718,-220.5465 1526.5,-220 1361.4276,-191.9652 1162.3104,-180.3095 1075.0843,-176.2941"/>
<polygon fill="#63b8ff" stroke="#63b8ff" points="1075.1584,-172.794 1065.0114,-175.8417 1074.8443,-179.7869 1075.1584,-172.794"/>
</g>
<!-- Node41&#45;&gt;Node3 -->
<g id="edge87" class="edge">
<title>Node41&#45;&gt;Node3</title>
<path fill="none" stroke="#63b8ff" d="M2268.2856,-226.2109C2314.4386,-220.3276 2386.3452,-204.6545 2364.5,-165 2267.5821,10.9307 1672.556,-36.9526 1472.5,-19 1454.4234,-17.3779 1434.2318,-15.1391 1418.0655,-13.2423"/>
<polygon fill="#63b8ff" stroke="#63b8ff" points="1418.4293,-9.761 1408.0858,-12.0552 1417.6023,-16.712 1418.4293,-9.761"/>
</g>
<!-- Node41&#45;&gt;Node7 -->
<g id="edge94" class="edge">
<title>Node41&#45;&gt;Node7</title>
<path fill="none" stroke="#63b8ff" d="M2196.8285,-228.163C2072.8041,-223.362 1660.8464,-206.0994 1530.5,-184 1493.444,-177.7174 1393.9891,-148.4403 1338.0714,-131.5697"/>
<polygon fill="#63b8ff" stroke="#63b8ff" points="1338.747,-128.1175 1328.1619,-128.5723 1336.7203,-134.8177 1338.747,-128.1175"/>
</g>
<!-- Node41&#45;&gt;Node11 -->
<g id="edge91" class="edge">
<title>Node41&#45;&gt;Node11</title>
<path fill="none" stroke="#63b8ff" d="M2268.1616,-223.5413C2310.2538,-214.9405 2371.6664,-196.5176 2347.5,-165 2305.2212,-109.8603 2087.4141,-78.2456 2005.0762,-68.1123"/>
<polygon fill="#63b8ff" stroke="#63b8ff" points="2005.4032,-64.6265 1995.056,-66.9035 2004.5647,-71.5761 2005.4032,-64.6265"/>
</g>
<!-- Node41&#45;&gt;Node13 -->
<g id="edge90" class="edge">
<title>Node41&#45;&gt;Node13</title>
<path fill="none" stroke="#63b8ff" d="M2268.2819,-225.932C2316.9793,-220.2527 2400.1815,-207.3398 2418.5,-184 2453.898,-138.8991 2458.0201,-96.5364 2418.5,-55 2387.5545,-22.4756 1698.575,-11.913 1537.8198,-9.887"/>
<polygon fill="#63b8ff" stroke="#63b8ff" points="1537.6323,-6.3845 1527.5898,-9.7607 1537.5458,-13.3839 1537.6323,-6.3845"/>
</g>
<!-- Node41&#45;&gt;Node30 -->
<g id="edge92" class="edge">
<title>Node41&#45;&gt;Node30</title>
<path fill="none" stroke="#63b8ff" d="M2207.9397,-219.9197C2185.2321,-211.0622 2151.2623,-197.8115 2125.8659,-187.9052"/>
<polygon fill="#63b8ff" stroke="#63b8ff" points="2126.8402,-184.5284 2116.252,-184.155 2124.2964,-191.0498 2126.8402,-184.5284"/>
</g>
<!-- Node41&#45;&gt;Node38 -->
<g id="edge88" class="edge">
<title>Node41&#45;&gt;Node38</title>
<path fill="none" stroke="#63b8ff" d="M2220.1327,-219.9197C2209.6737,-211.8177 2194.4697,-200.0399 2182.1651,-190.5082"/>
<polygon fill="#63b8ff" stroke="#63b8ff" points="2184.2525,-187.6979 2174.2036,-184.3408 2179.9657,-193.2318 2184.2525,-187.6979"/>
</g>
<!-- Node42 -->
<g id="node42" class="node">
<title>Node42</title>
<g id="a_node42"><a xlink:title=" ">
<polygon fill="#e0e0e0" stroke="#999999" points="2258.5,-184 2206.5,-184 2206.5,-165 2258.5,-165 2258.5,-184"/>
<text text-anchor="middle" x="2232.5" y="-172" font-family="Helvetica,sans-Serif" font-size="10.00" fill="#000000">sstream</text>
</a>
</g>
</g>
<!-- Node41&#45;&gt;Node42 -->
<g id="edge89" class="edge">
<title>Node41&#45;&gt;Node42</title>
<path fill="none" stroke="#63b8ff" d="M2232.5,-219.9197C2232.5,-212.9083 2232.5,-203.1442 2232.5,-194.4652"/>
<polygon fill="#63b8ff" stroke="#63b8ff" points="2236.0001,-194.3408 2232.5,-184.3408 2229.0001,-194.3409 2236.0001,-194.3408"/>
</g>
<!-- Node43 -->
<g id="node43" class="node">
<title>Node43</title>
<g id="a_node43"><a xlink:title=" ">
<polygon fill="#e0e0e0" stroke="#999999" points="2338.5,-184 2276.5,-184 2276.5,-165 2338.5,-165 2338.5,-184"/>
<text text-anchor="middle" x="2307.5" y="-172" font-family="Helvetica,sans-Serif" font-size="10.00" fill="#000000">type_traits</text>
</a>
</g>
</g>
<!-- Node41&#45;&gt;Node43 -->
<g id="edge93" class="edge">
<title>Node41&#45;&gt;Node43</title>
<path fill="none" stroke="#63b8ff" d="M2245.564,-219.9197C2256.6805,-211.7677 2272.8713,-199.8944 2285.911,-190.3319"/>
<polygon fill="#63b8ff" stroke="#63b8ff" points="2288.3398,-192.8911 2294.3341,-184.155 2284.2002,-187.2463 2288.3398,-192.8911"/>
</g>
<!-- Node44&#45;&gt;Node3 -->
<g id="edge98" class="edge">
<title>Node44&#45;&gt;Node3</title>
<path fill="none" stroke="#63b8ff" d="M1546.914,-164.9967C1518.6635,-149.0796 1462.5899,-114.7351 1425.5,-74 1413.0886,-60.3688 1402.7649,-42.0414 1396.0257,-28.4068"/>
<polygon fill="#63b8ff" stroke="#63b8ff" points="1399.0384,-26.5909 1391.5957,-19.0506 1392.7118,-29.5865 1399.0384,-26.5909"/>
</g>
<!-- Node44&#45;&gt;Node4 -->
<g id="edge99" class="edge">
<title>Node44&#45;&gt;Node4</title>
<path fill="none" stroke="#63b8ff" d="M1539.5794,-172.6701C1427.8491,-164.4656 973.0633,-131.0701 847.6575,-121.8614"/>
<polygon fill="#63b8ff" stroke="#63b8ff" points="847.7779,-118.3609 837.5484,-121.119 847.2652,-125.3421 847.7779,-118.3609"/>
</g>
<!-- Node44&#45;&gt;Node6 -->
<g id="edge97" class="edge">
<title>Node44&#45;&gt;Node6</title>
<path fill="none" stroke="#63b8ff" d="M1589.3018,-167.0969C1592.0584,-166.3526 1594.8327,-165.6375 1597.5,-165 1668.4419,-148.0449 1752.4634,-133.185 1799.3044,-125.3598"/>
<polygon fill="#63b8ff" stroke="#63b8ff" points="1799.9795,-128.7957 1809.2724,-123.7072 1798.8346,-121.89 1799.9795,-128.7957"/>
</g>
<!-- Node44&#45;&gt;Node36 -->
<g id="edge100" class="edge">
<title>Node44&#45;&gt;Node36</title>
<path fill="none" stroke="#63b8ff" d="M1571.2933,-164.9197C1576.5965,-157.4409 1584.1204,-146.8301 1590.5627,-137.745"/>
<polygon fill="#63b8ff" stroke="#63b8ff" points="1593.5927,-139.5227 1596.522,-129.3408 1587.8826,-135.4737 1593.5927,-139.5227"/>
</g>
<!-- Node45&#45;&gt;Node22 -->
<g id="edge102" class="edge">
<title>Node45&#45;&gt;Node22</title>
<path fill="none" stroke="#63b8ff" d="M1470.4839,-549.9819C1477.9944,-531.1489 1493.5,-487.6483 1493.5,-449.5 1493.5,-449.5 1493.5,-449.5 1493.5,-394.5 1493.5,-331.2417 1410.9355,-303.0808 1358.5868,-291.5834"/>
<polygon fill="#63b8ff" stroke="#63b8ff" points="1359.056,-288.1062 1348.5534,-289.5006 1357.6332,-294.9601 1359.056,-288.1062"/>
</g>
<!-- Node46 -->
<g id="node46" class="node">
<title>Node46</title>
<g id="a_node46"><a xlink:href="../../d4/d3a/filedef_8h.html" target="_top" xlink:title=" ">
<polygon fill="#ffffff" stroke="#666666" points="1348,-514 1297,-514 1297,-495 1348,-495 1348,-514"/>
<text text-anchor="middle" x="1322.5" y="-502" font-family="Helvetica,sans-Serif" font-size="10.00" fill="#000000">filedef.h</text>
</a>
</g>
</g>
<!-- Node45&#45;&gt;Node46 -->
<g id="edge103" class="edge">
<title>Node45&#45;&gt;Node46</title>
<path fill="none" stroke="#63b8ff" d="M1441.4171,-549.9197C1418.1238,-541.023 1383.2266,-527.6942 1357.2534,-517.7739"/>
<polygon fill="#63b8ff" stroke="#63b8ff" points="1358.3692,-514.4535 1347.7786,-514.155 1355.8716,-520.9928 1358.3692,-514.4535"/>
</g>
<!-- Node46&#45;&gt;Node17 -->
<g id="edge104" class="edge">
<title>Node46&#45;&gt;Node17</title>
<path fill="none" stroke="#63b8ff" d="M1325.5778,-494.8113C1328.4139,-485.6503 1332.6089,-471.4857 1335.5,-459 1353.3218,-382.0335 1367.8021,-289.0148 1373.6757,-249.1672"/>
<polygon fill="#63b8ff" stroke="#63b8ff" points="1377.1508,-249.5914 1375.1291,-239.1912 1370.2239,-248.5821 1377.1508,-249.5914"/>
</g>
<!-- Node46&#45;&gt;Node18 -->
<g id="edge120" class="edge">
<title>Node46&#45;&gt;Node18</title>
<path fill="none" stroke="#63b8ff" d="M1314.976,-494.763C1288.645,-460.6876 1200.3903,-346.4757 1166.1966,-302.225"/>
<polygon fill="#63b8ff" stroke="#63b8ff" points="1168.8212,-299.8973 1159.9372,-294.1245 1163.2822,-304.1775 1168.8212,-299.8973"/>
</g>
<!-- Node46&#45;&gt;Node22 -->
<g id="edge105" class="edge">
<title>Node46&#45;&gt;Node22</title>
<path fill="none" stroke="#63b8ff" d="M1322.2344,-494.763C1321.3187,-461.1856 1318.2808,-349.7967 1317.0375,-304.2094"/>
<polygon fill="#63b8ff" stroke="#63b8ff" points="1320.5339,-304.0254 1316.7625,-294.1245 1313.5365,-304.2163 1320.5339,-304.0254"/>
</g>
<!-- Node47 -->
<g id="node47" class="node">
<title>Node47</title>
<g id="a_node47"><a xlink:href="../../dd/d78/memberlist_8h.html" target="_top" xlink:title=" ">
<polygon fill="#ffffff" stroke="#666666" points="889,-459 816,-459 816,-440 889,-440 889,-459"/>
<text text-anchor="middle" x="852.5" y="-447" font-family="Helvetica,sans-Serif" font-size="10.00" fill="#000000">memberlist.h</text>
</a>
</g>
</g>
<!-- Node46&#45;&gt;Node47 -->
<g id="edge106" class="edge">
<title>Node46&#45;&gt;Node47</title>
<path fill="none" stroke="#63b8ff" d="M1296.897,-501.5039C1221.1187,-492.6362 997.1523,-466.4274 899.2228,-454.9676"/>
<polygon fill="#63b8ff" stroke="#63b8ff" points="899.3723,-451.4613 889.0332,-453.7752 898.5586,-458.4138 899.3723,-451.4613"/>
</g>
<!-- Node47&#45;&gt;Node4 -->
<g id="edge107" class="edge">
<title>Node47&#45;&gt;Node4</title>
<path fill="none" stroke="#63b8ff" d="M815.7703,-442.8564C742.0671,-428.6986 580.4475,-393.2097 548.5,-349 518.2135,-307.0889 317.9214,-433.531 562.5,-165 591.6286,-133.0187 721.7246,-123.3821 783.1656,-120.5881"/>
<polygon fill="#63b8ff" stroke="#63b8ff" points="783.6093,-124.0726 793.4534,-120.1555 783.3151,-117.0788 783.6093,-124.0726"/>
</g>
<!-- Node47&#45;&gt;Node8 -->
<g id="edge108" class="edge">
<title>Node47&#45;&gt;Node8</title>
<path fill="none" stroke="#63b8ff" d="M815.887,-445.4584C725.0583,-434.6985 492.8662,-402.4725 439.5,-349 384.7949,-294.1859 396.1129,-260.4078 383.5,-184 378.1434,-151.5503 378.6096,-142.5233 383.5,-110 384.833,-101.135 387.5498,-91.6138 390.2384,-83.584"/>
<polygon fill="#63b8ff" stroke="#63b8ff" points="393.5697,-84.6625 393.6378,-74.0679 386.9777,-82.3076 393.5697,-84.6625"/>
</g>
<!-- Node47&#45;&gt;Node23 -->
<g id="edge118" class="edge">
<title>Node47&#45;&gt;Node23</title>
<path fill="none" stroke="#63b8ff" d="M889.3525,-443.4123C935.8087,-435.4983 1018.0013,-420.6993 1087.5,-404 1259.2871,-362.7226 1339.924,-414.1028 1469.5,-294 1482.0691,-282.3498 1488.0877,-263.5058 1490.9504,-249.1869"/>
<polygon fill="#63b8ff" stroke="#63b8ff" points="1494.4048,-249.7499 1492.5807,-239.3133 1487.4983,-248.6095 1494.4048,-249.7499"/>
</g>
<!-- Node47&#45;&gt;Node25 -->
<g id="edge117" class="edge">
<title>Node47&#45;&gt;Node25</title>
<path fill="none" stroke="#63b8ff" d="M835.6187,-439.7912C810.6141,-424.3094 764.7285,-391.4017 746.5,-349 728.8814,-308.0169 715.1483,-276.593 777.5,-220 807.3948,-192.8663 921.4053,-181.359 985.702,-176.9434"/>
<polygon fill="#63b8ff" stroke="#63b8ff" points="986.2056,-180.418 995.9548,-176.2704 985.747,-173.433 986.2056,-180.418"/>
</g>
<!-- Node47&#45;&gt;Node27 -->
<g id="edge119" class="edge">
<title>Node47&#45;&gt;Node27</title>
<path fill="none" stroke="#63b8ff" d="M855.506,-439.7165C861.9567,-419.084 877.9713,-369.7422 895.5,-330 899.4971,-320.9375 904.5354,-311.1875 908.9625,-303.0466"/>
<polygon fill="#63b8ff" stroke="#63b8ff" points="912.153,-304.5106 913.9484,-294.069 906.0334,-301.1119 912.153,-304.5106"/>
</g>
<!-- Node48 -->
<g id="node48" class="node">
<title>Node48</title>
<g id="a_node48"><a xlink:href="../../d4/d46/memberdef_8h.html" target="_top" xlink:title=" ">
<polygon fill="#ffffff" stroke="#666666" points="1078.5,-404 1004.5,-404 1004.5,-385 1078.5,-385 1078.5,-404"/>
<text text-anchor="middle" x="1041.5" y="-392" font-family="Helvetica,sans-Serif" font-size="10.00" fill="#000000">memberdef.h</text>
</a>
</g>
</g>
<!-- Node47&#45;&gt;Node48 -->
<g id="edge109" class="edge">
<title>Node47&#45;&gt;Node48</title>
<path fill="none" stroke="#63b8ff" d="M885.4213,-439.9197C916.8981,-430.7598 964.5194,-416.9018 998.8799,-406.9027"/>
<polygon fill="#63b8ff" stroke="#63b8ff" points="1000.0157,-410.2174 1008.6394,-404.0626 998.0598,-403.4962 1000.0157,-410.2174"/>
</g>
<!-- Node48&#45;&gt;Node4 -->
<g id="edge110" class="edge">
<title>Node48&#45;&gt;Node4</title>
<path fill="none" stroke="#63b8ff" d="M1004.3624,-391.4508C928.8508,-384.874 763.1143,-368.3733 746.5,-349 720.8803,-319.1258 585.4176,-550.603 773.5,-165 778.7857,-154.1633 787.5015,-144.0887 795.6273,-136.1883"/>
<polygon fill="#63b8ff" stroke="#63b8ff" points="798.104,-138.6659 803.106,-129.3261 793.3714,-133.5081 798.104,-138.6659"/>
</g>
<!-- Node48&#45;&gt;Node6 -->
<g id="edge111" class="edge">
<title>Node48&#45;&gt;Node6</title>
<path fill="none" stroke="#63b8ff" d="M1078.5068,-393.154C1239.1887,-386.9374 1870.8829,-358.514 1928.5,-294 1967.4011,-250.4423 1938.3967,-211.8272 1903.5,-165 1893.7761,-151.9516 1879.1372,-141.4698 1865.9298,-133.8704"/>
<polygon fill="#63b8ff" stroke="#63b8ff" points="1867.5513,-130.7683 1857.0928,-129.0738 1864.2119,-136.9204 1867.5513,-130.7683"/>
</g>
<!-- Node48&#45;&gt;Node16 -->
<g id="edge116" class="edge">
<title>Node48&#45;&gt;Node16</title>
<path fill="none" stroke="#63b8ff" d="M1050.3835,-384.9197C1057.5352,-377.2072 1067.7753,-366.1639 1076.3675,-356.8978"/>
<polygon fill="#63b8ff" stroke="#63b8ff" points="1079.1419,-359.0533 1083.3749,-349.3408 1074.009,-354.2937 1079.1419,-359.0533"/>
</g>
<!-- Node48&#45;&gt;Node22 -->
<g id="edge114" class="edge">
<title>Node48&#45;&gt;Node22</title>
<path fill="none" stroke="#63b8ff" d="M1065.4234,-384.9306C1114.4864,-365.3055 1226.6087,-320.4565 1282.922,-297.9312"/>
<polygon fill="#63b8ff" stroke="#63b8ff" points="1284.4512,-301.0892 1292.4361,-294.1256 1281.8514,-294.5899 1284.4512,-301.0892"/>
</g>
<!-- Node48&#45;&gt;Node23 -->
<g id="edge113" class="edge">
<title>Node48&#45;&gt;Node23</title>
<path fill="none" stroke="#63b8ff" d="M1077.662,-384.9169C1137.0296,-368.7606 1258.4555,-333.9292 1357.5,-294 1395.8742,-278.5297 1438.8038,-257.5229 1465.975,-243.7459"/>
<polygon fill="#63b8ff" stroke="#63b8ff" points="1467.5779,-246.8573 1474.8952,-239.1952 1464.3969,-240.6219 1467.5779,-246.8573"/>
</g>
<!-- Node48&#45;&gt;Node26 -->
<g id="edge115" class="edge">
<title>Node48&#45;&gt;Node26</title>
<path fill="none" stroke="#63b8ff" d="M1012.3185,-384.9845C995.6971,-377.8921 976.2873,-366.3851 966.5,-349 956.4542,-331.1556 973.6909,-312.7424 990.423,-300.1812"/>
<polygon fill="#63b8ff" stroke="#63b8ff" points="992.8023,-302.7875 998.9796,-294.1799 988.7828,-297.0565 992.8023,-302.7875"/>
</g>
<!-- Node49 -->
<g id="node49" class="node">
<title>Node49</title>
<g id="a_node49"><a xlink:title=" ">
<polygon fill="#e0e0e0" stroke="#999999" points="1043.5,-349 975.5,-349 975.5,-330 1043.5,-330 1043.5,-349"/>
<text text-anchor="middle" x="1009.5" y="-337" font-family="Helvetica,sans-Serif" font-size="10.00" fill="#000000">sys/types.h</text>
</a>
</g>
</g>
<!-- Node48&#45;&gt;Node49 -->
<g id="edge112" class="edge">
<title>Node48&#45;&gt;Node49</title>
<path fill="none" stroke="#63b8ff" d="M1035.926,-384.9197C1031.62,-377.5188 1025.5296,-367.0509 1020.2807,-358.0294"/>
<polygon fill="#63b8ff" stroke="#63b8ff" points="1023.2798,-356.2242 1015.2256,-349.3408 1017.2293,-359.7445 1023.2798,-356.2242"/>
</g>
<!-- Node50&#45;&gt;Node18 -->
<g id="edge122" class="edge">
<title>Node50&#45;&gt;Node18</title>
<path fill="none" stroke="#63b8ff" d="M633.8154,-501.0639C728.7416,-490.1826 1011.4281,-454.2125 1087.5,-404 1113.8593,-386.6011 1117.5467,-376.8196 1132.5,-349 1140.1322,-334.8009 1145.3355,-317.2473 1148.5172,-304.039"/>
<polygon fill="#63b8ff" stroke="#63b8ff" points="1151.9653,-304.6568 1150.7234,-294.135 1145.1328,-303.1348 1151.9653,-304.6568"/>
</g>
<!-- Node50&#45;&gt;Node27 -->
<g id="edge123" class="edge">
<title>Node50&#45;&gt;Node27</title>
<path fill="none" stroke="#63b8ff" d="M618.8781,-494.8877C634.0147,-485.8966 657.0371,-471.9478 676.5,-459 760.675,-403.0019 857.3349,-331.2733 898.8268,-300.1119"/>
<polygon fill="#63b8ff" stroke="#63b8ff" points="900.9326,-302.9076 906.819,-294.0984 896.7239,-297.3141 900.9326,-302.9076"/>
</g>
<!-- Node50&#45;&gt;Node47 -->
<g id="edge130" class="edge">
<title>Node50&#45;&gt;Node47</title>
<path fill="none" stroke="#63b8ff" d="M633.6572,-497.6454C676.8841,-488.1355 755.3955,-470.863 805.6889,-459.7984"/>
<polygon fill="#63b8ff" stroke="#63b8ff" points="806.6466,-463.1715 815.661,-457.6046 805.1425,-456.335 806.6466,-463.1715"/>
</g>
<!-- Node51 -->
<g id="node51" class="node">
<title>Node51</title>
<g id="a_node51"><a xlink:href="../../d6/d15/dirdef_8h.html" target="_top" xlink:title=" ">
<polygon fill="#ffffff" stroke="#666666" points="805,-349 756,-349 756,-330 805,-330 805,-349"/>
<text text-anchor="middle" x="780.5" y="-337" font-family="Helvetica,sans-Serif" font-size="10.00" fill="#000000">dirdef.h</text>
</a>
</g>
</g>
<!-- Node50&#45;&gt;Node51 -->
<g id="edge124" class="edge">
<title>Node50&#45;&gt;Node51</title>
<path fill="none" stroke="#63b8ff" d="M612.8394,-494.9157C642.0875,-467.8037 725.679,-390.3172 762.5997,-356.093"/>
<polygon fill="#63b8ff" stroke="#63b8ff" points="765.1776,-358.4758 770.132,-349.1107 760.4188,-353.3421 765.1776,-358.4758"/>
</g>
<!-- Node52 -->
<g id="node52" class="node">
<title>Node52</title>
<g id="a_node52"><a xlink:href="../../df/d67/define_8h.html" target="_top" xlink:title=" ">
<polygon fill="#ffffff" stroke="#666666" points="609,-349 558,-349 558,-330 609,-330 609,-349"/>
<text text-anchor="middle" x="583.5" y="-337" font-family="Helvetica,sans-Serif" font-size="10.00" fill="#000000">define.h</text>
</a>
</g>
</g>
<!-- Node50&#45;&gt;Node52 -->
<g id="edge131" class="edge">
<title>Node50&#45;&gt;Node52</title>
<path fill="none" stroke="#63b8ff" d="M601.3684,-494.6726C598.3118,-468.1291 589.8458,-394.6086 585.7616,-359.1401"/>
<polygon fill="#63b8ff" stroke="#63b8ff" points="589.223,-358.6031 584.6019,-349.0692 582.2689,-359.404 589.223,-358.6031"/>
</g>
<!-- Node53 -->
<g id="node53" class="node">
<title>Node53</title>
<g id="a_node53"><a xlink:href="../../d3/d26/cache_8h.html" target="_top" xlink:title=" ">
<polygon fill="#ffffff" stroke="#666666" points="162,-184 111,-184 111,-165 162,-165 162,-184"/>
<text text-anchor="middle" x="136.5" y="-172" font-family="Helvetica,sans-Serif" font-size="10.00" fill="#000000">cache.h</text>
</a>
</g>
</g>
<!-- Node50&#45;&gt;Node53 -->
<g id="edge138" class="edge">
<title>Node50&#45;&gt;Node53</title>
<path fill="none" stroke="#63b8ff" d="M571.3827,-496.9455C543.2906,-489.4521 501.3035,-476.5519 467.5,-459 326.3694,-385.7205 194.1903,-241.3974 151.1279,-191.7532"/>
<polygon fill="#63b8ff" stroke="#63b8ff" points="153.7381,-189.4205 144.5645,-184.1199 148.4304,-193.9843 153.7381,-189.4205"/>
</g>
<!-- Node57 -->
<g id="node57" class="node">
<title>Node57</title>
<g id="a_node57"><a xlink:href="../../d7/ddd/symbolmap_8h.html" target="_top" xlink:title=" ">
<polygon fill="#ffffff" stroke="#666666" points="255,-184 180,-184 180,-165 255,-165 255,-184"/>
<text text-anchor="middle" x="217.5" y="-172" font-family="Helvetica,sans-Serif" font-size="10.00" fill="#000000">symbolmap.h</text>
</a>
</g>
</g>
<!-- Node50&#45;&gt;Node57 -->
<g id="edge144" class="edge">
<title>Node50&#45;&gt;Node57</title>
<path fill="none" stroke="#63b8ff" d="M578.9821,-494.9789C542.1923,-479.4004 469.8294,-445.9552 417.5,-404 334.6971,-337.6127 258.7352,-234.1608 229.8321,-192.6426"/>
<polygon fill="#63b8ff" stroke="#63b8ff" points="232.6572,-190.574 224.0992,-184.328 226.8943,-194.5475 232.6572,-190.574"/>
</g>
<!-- Node51&#45;&gt;Node4 -->
<g id="edge125" class="edge">
<title>Node51&#45;&gt;Node4</title>
<path fill="none" stroke="#63b8ff" d="M777.4626,-329.8585C774.7567,-320.7309 771.0001,-306.5889 769.5,-294 764.3854,-251.0786 771.0073,-194.407 782.5,-165 786.4649,-154.8547 793.2463,-144.906 799.6342,-136.9114"/>
<polygon fill="#63b8ff" stroke="#63b8ff" points="802.4688,-138.9801 806.2594,-129.0865 797.1264,-134.4568 802.4688,-138.9801"/>
</g>
<!-- Node51&#45;&gt;Node7 -->
<g id="edge127" class="edge">
<title>Node51&#45;&gt;Node7</title>
<path fill="none" stroke="#63b8ff" d="M790.0419,-329.9151C805.1931,-315.3433 836.3444,-287.9468 868.5,-275 980.3925,-229.9489 1025.7434,-284.3872 1137.5,-239 1153.2414,-232.607 1238.6123,-166.4625 1278.2537,-135.4219"/>
<polygon fill="#63b8ff" stroke="#63b8ff" points="1280.7046,-137.9477 1286.4133,-129.0224 1276.3847,-132.4397 1280.7046,-137.9477"/>
</g>
<!-- Node51&#45;&gt;Node19 -->
<g id="edge126" class="edge">
<title>Node51&#45;&gt;Node19</title>
<path fill="none" stroke="#63b8ff" d="M783.961,-329.7382C790.3951,-311.5906 804.3042,-272.36 812.6866,-248.7172"/>
<polygon fill="#63b8ff" stroke="#63b8ff" points="816.0595,-249.6776 816.1025,-239.0828 809.4619,-247.3384 816.0595,-249.6776"/>
</g>
<!-- Node51&#45;&gt;Node22 -->
<g id="edge129" class="edge">
<title>Node51&#45;&gt;Node22</title>
<path fill="none" stroke="#63b8ff" d="M805.009,-337.1397C872.9401,-330.5746 1069.3818,-311.4333 1232.5,-294 1245.9725,-292.5601 1260.6522,-290.9233 1273.9163,-289.4188"/>
<polygon fill="#63b8ff" stroke="#63b8ff" points="1274.6609,-292.8567 1284.2003,-288.2469 1273.8683,-285.9017 1274.6609,-292.8567"/>
</g>
<!-- Node51&#45;&gt;Node25 -->
<g id="edge128" class="edge">
<title>Node51&#45;&gt;Node25</title>
<path fill="none" stroke="#63b8ff" d="M778.0815,-329.9399C773.0342,-307.5129 764.069,-251.0752 792.5,-220 817.8672,-192.2735 923.75,-181.0862 985.408,-176.8573"/>
<polygon fill="#63b8ff" stroke="#63b8ff" points="985.8893,-180.3334 995.6408,-176.1913 985.4346,-173.3482 985.8893,-180.3334"/>
</g>
<!-- Node52&#45;&gt;Node2 -->
<g id="edge135" class="edge">
<title>Node52&#45;&gt;Node2</title>
<path fill="none" stroke="#63b8ff" d="M578.3659,-329.763C560.5115,-295.901 500.9308,-182.9032 477.2886,-138.0647"/>
<polygon fill="#63b8ff" stroke="#63b8ff" points="480.3349,-136.3378 472.5748,-129.1245 474.1429,-139.6027 480.3349,-136.3378"/>
</g>
<!-- Node52&#45;&gt;Node3 -->
<g id="edge134" class="edge">
<title>Node52&#45;&gt;Node3</title>
<path fill="none" stroke="#63b8ff" d="M557.6805,-337.4447C440.072,-327.1352 -33.7053,-274.8463 96.5,-110 161.9148,-27.1816 222.9714,-69.5514 327.5,-55 534.168,-26.2298 1205.2664,-12.7459 1356.8732,-10.0253"/>
<polygon fill="#63b8ff" stroke="#63b8ff" points="1356.9413,-13.5247 1366.8776,-9.8479 1356.8171,-6.5258 1356.9413,-13.5247"/>
</g>
<!-- Node52&#45;&gt;Node4 -->
<g id="edge132" class="edge">
<title>Node52&#45;&gt;Node4</title>
<path fill="none" stroke="#63b8ff" d="M581.2454,-329.8412C573.7988,-296.869 551.675,-189.4479 573.5,-165 600.8375,-134.377 723.3502,-124.0935 782.8556,-120.8666"/>
<polygon fill="#63b8ff" stroke="#63b8ff" points="783.3861,-124.3443 793.1962,-120.3429 783.0319,-117.3533 783.3861,-124.3443"/>
</g>
<!-- Node52&#45;&gt;Node6 -->
<g id="edge133" class="edge">
<title>Node52&#45;&gt;Node6</title>
<path fill="none" stroke="#63b8ff" d="M609.2311,-337.8374C718.087,-330.7702 1137.8512,-303.1675 1196.5,-294 1232.1791,-288.423 1239.8285,-280.6249 1275.5,-275 1378.5341,-258.753 1651.7493,-288.6166 1743.5,-239 1754.5048,-233.0488 1800.3606,-169.3712 1822.8925,-137.483"/>
<polygon fill="#63b8ff" stroke="#63b8ff" points="1825.9314,-139.2465 1828.8273,-129.0552 1820.208,-135.2162 1825.9314,-139.2465"/>
</g>
<!-- Node52&#45;&gt;Node7 -->
<g id="edge136" class="edge">
<title>Node52&#45;&gt;Node7</title>
<path fill="none" stroke="#63b8ff" d="M609.3236,-331.6608C654.1448,-318.3083 749.4159,-291.0433 831.5,-275 951.1787,-251.6089 989.5468,-282.4142 1103.5,-239 1130.8586,-228.5768 1187.412,-180.0906 1212.5,-165 1231.1338,-153.7916 1252.7743,-142.35 1269.6855,-133.7441"/>
<polygon fill="#63b8ff" stroke="#63b8ff" points="1271.6847,-136.6559 1279.0376,-129.0279 1268.5327,-130.4056 1271.6847,-136.6559"/>
</g>
<!-- Node52&#45;&gt;Node18 -->
<g id="edge137" class="edge">
<title>Node52&#45;&gt;Node18</title>
<path fill="none" stroke="#63b8ff" d="M609.0472,-337.1169C680.3304,-330.4547 887.4589,-311.0094 1059.5,-294 1074.9849,-292.469 1091.9153,-290.7523 1107.0366,-289.2038"/>
<polygon fill="#63b8ff" stroke="#63b8ff" points="1107.586,-292.6659 1117.1762,-288.1629 1106.8711,-285.7024 1107.586,-292.6659"/>
</g>
<!-- Node53&#45;&gt;Node2 -->
<g id="edge140" class="edge">
<title>Node53&#45;&gt;Node2</title>
<path fill="none" stroke="#63b8ff" d="M162.0375,-167.0089C164.8806,-166.2811 167.744,-165.5939 170.5,-165 255.6463,-146.6522 356.0708,-132.8822 415.6201,-125.5238"/>
<polygon fill="#63b8ff" stroke="#63b8ff" points="416.3907,-128.9558 425.8921,-124.2681 415.5413,-122.0075 416.3907,-128.9558"/>
</g>
<!-- Node53&#45;&gt;Node32 -->
<g id="edge143" class="edge">
<title>Node53&#45;&gt;Node32</title>
<path fill="none" stroke="#63b8ff" d="M116.9911,-164.9197C99.353,-156.2581 73.1603,-143.3957 53.1465,-133.5675"/>
<polygon fill="#63b8ff" stroke="#63b8ff" points="54.68,-130.4213 44.1611,-129.155 51.5945,-136.7046 54.68,-130.4213"/>
</g>
<!-- Node54 -->
<g id="node54" class="node">
<title>Node54</title>
<g id="a_node54"><a xlink:title=" ">
<polygon fill="#e0e0e0" stroke="#999999" points="197,-129 168,-129 168,-110 197,-110 197,-129"/>
<text text-anchor="middle" x="182.5" y="-117" font-family="Helvetica,sans-Serif" font-size="10.00" fill="#000000">list</text>
</a>
</g>
</g>
<!-- Node53&#45;&gt;Node54 -->
<g id="edge139" class="edge">
<title>Node53&#45;&gt;Node54</title>
<path fill="none" stroke="#63b8ff" d="M144.5126,-164.9197C150.8979,-157.2851 160.013,-146.3867 167.7138,-137.1792"/>
<polygon fill="#63b8ff" stroke="#63b8ff" points="170.5387,-139.2571 174.2695,-129.3408 165.1691,-134.7662 170.5387,-139.2571"/>
</g>
<!-- Node55 -->
<g id="node55" class="node">
<title>Node55</title>
<g id="a_node55"><a xlink:title=" ">
<polygon fill="#e0e0e0" stroke="#999999" points="149.5,-129 105.5,-129 105.5,-110 149.5,-110 149.5,-129"/>
<text text-anchor="middle" x="127.5" y="-117" font-family="Helvetica,sans-Serif" font-size="10.00" fill="#000000">mutex</text>
</a>
</g>
</g>
<!-- Node53&#45;&gt;Node55 -->
<g id="edge141" class="edge">
<title>Node53&#45;&gt;Node55</title>
<path fill="none" stroke="#63b8ff" d="M134.9323,-164.9197C133.785,-157.9083 132.1872,-148.1442 130.767,-139.4652"/>
<polygon fill="#63b8ff" stroke="#63b8ff" points="134.1793,-138.6443 129.1103,-129.3408 127.2712,-139.7748 134.1793,-138.6443"/>
</g>
<!-- Node56 -->
<g id="node56" class="node">
<title>Node56</title>
<g id="a_node56"><a xlink:title=" ">
<polygon fill="#e0e0e0" stroke="#999999" points="255.5,-129 215.5,-129 215.5,-110 255.5,-110 255.5,-129"/>
<text text-anchor="middle" x="235.5" y="-117" font-family="Helvetica,sans-Serif" font-size="10.00" fill="#000000">utility</text>
</a>
</g>
</g>
<!-- Node53&#45;&gt;Node56 -->
<g id="edge142" class="edge">
<title>Node53&#45;&gt;Node56</title>
<path fill="none" stroke="#63b8ff" d="M153.7445,-164.9197C168.9826,-156.4541 191.444,-143.9755 208.9696,-134.2391"/>
<polygon fill="#63b8ff" stroke="#63b8ff" points="211.0791,-137.0711 218.121,-129.155 207.6796,-130.9519 211.0791,-137.0711"/>
</g>
<!-- Node57&#45;&gt;Node2 -->
<g id="edge146" class="edge">
<title>Node57&#45;&gt;Node2</title>
<path fill="none" stroke="#63b8ff" d="M255.1982,-166.2064C297.987,-156.7929 368.0357,-141.3821 415.8802,-130.8564"/>
<polygon fill="#63b8ff" stroke="#63b8ff" points="416.7204,-134.2553 425.7348,-128.6883 415.2163,-127.4188 416.7204,-134.2553"/>
</g>
<!-- Node57&#45;&gt;Node3 -->
<g id="edge148" class="edge">
<title>Node57&#45;&gt;Node3</title>
<path fill="none" stroke="#63b8ff" d="M227.3884,-164.7559C254.3345,-138.4538 329.1315,-67.1737 360.5,-55 455.343,-18.1928 1195.9469,-10.8569 1356.7567,-9.6928"/>
<polygon fill="#63b8ff" stroke="#63b8ff" points="1356.933,-13.1918 1366.9084,-9.622 1356.8842,-6.1919 1356.933,-13.1918"/>
</g>
<!-- Node57&#45;&gt;Node4 -->
<g id="edge147" class="edge">
<title>Node57&#45;&gt;Node4</title>
<path fill="none" stroke="#63b8ff" d="M255.3612,-171.0178C364.9631,-160.9373 681.1957,-131.8524 783.2992,-122.4616"/>
<polygon fill="#63b8ff" stroke="#63b8ff" points="783.6787,-125.9416 793.3161,-121.5403 783.0375,-118.971 783.6787,-125.9416"/>
</g>
<!-- Node57&#45;&gt;Node8 -->
<g id="edge145" class="edge">
<title>Node57&#45;&gt;Node8</title>
<path fill="none" stroke="#63b8ff" d="M235.1419,-164.8368C251.4616,-155.8107 276.3217,-141.8389 297.5,-129 324.3101,-112.7469 354.4756,-93.0972 374.5968,-79.7896"/>
<polygon fill="#63b8ff" stroke="#63b8ff" points="376.6891,-82.6018 383.0867,-74.1566 372.819,-76.7689 376.6891,-82.6018"/>
</g>
<!-- Node57&#45;&gt;Node56 -->
<g id="edge149" class="edge">
<title>Node57&#45;&gt;Node56</title>
<path fill="none" stroke="#63b8ff" d="M220.6354,-164.9197C222.981,-157.7525 226.268,-147.7089 229.1548,-138.8882"/>
<polygon fill="#63b8ff" stroke="#63b8ff" points="232.4953,-139.9335 232.2794,-129.3408 225.8425,-137.7561 232.4953,-139.9335"/>
</g>
<!-- Node58&#45;&gt;Node17 -->
<g id="edge151" class="edge">
<title>Node58&#45;&gt;Node17</title>
<path fill="none" stroke="#63b8ff" d="M1319.2416,-552.3701C1372.8409,-540.985 1455.5,-513.1148 1455.5,-449.5 1455.5,-449.5 1455.5,-449.5 1455.5,-339.5 1455.5,-299.9227 1421.3445,-264.8338 1397.9502,-245.4419"/>
<polygon fill="#63b8ff" stroke="#63b8ff" points="1399.9033,-242.5229 1389.9013,-239.0285 1395.541,-247.9976 1399.9033,-242.5229"/>
</g>
<!-- Node58&#45;&gt;Node22 -->
<g id="edge152" class="edge">
<title>Node58&#45;&gt;Node22</title>
<path fill="none" stroke="#63b8ff" d="M1267.1563,-549.7888C1253.9375,-531.3117 1227.5,-489.3734 1227.5,-449.5 1227.5,-449.5 1227.5,-449.5 1227.5,-394.5 1227.5,-353.2285 1265.8327,-318.7509 1292.184,-299.9256"/>
<polygon fill="#63b8ff" stroke="#63b8ff" points="1294.3264,-302.7003 1300.5886,-294.1542 1290.3638,-296.9298 1294.3264,-302.7003"/>
</g>
<!-- Node58&#45;&gt;Node25 -->
<g id="edge154" class="edge">
<title>Node58&#45;&gt;Node25</title>
<path fill="none" stroke="#63b8ff" d="M1229.8865,-558.6613C1083.2315,-555.628 621.9946,-543.7938 562.5,-514 528.8142,-497.1307 507.5,-487.1737 507.5,-449.5 507.5,-449.5 507.5,-449.5 507.5,-339.5 507.5,-239.6005 858.9327,-192.6094 985.639,-178.9136"/>
<polygon fill="#63b8ff" stroke="#63b8ff" points="986.2049,-182.3733 995.7795,-177.837 985.4658,-175.4124 986.2049,-182.3733"/>
</g>
<!-- Node58&#45;&gt;Node27 -->
<g id="edge155" class="edge">
<title>Node58&#45;&gt;Node27</title>
<path fill="none" stroke="#63b8ff" d="M1247.9239,-549.8597C1194.8647,-529.5853 1074.1561,-478.2019 995.5,-404 964.0624,-374.3426 939.9651,-329.0714 927.95,-303.6115"/>
<polygon fill="#63b8ff" stroke="#63b8ff" points="931.034,-301.94 923.6843,-294.309 924.6711,-304.8578 931.034,-301.94"/>
</g>
<!-- Node58&#45;&gt;Node46 -->
<g id="edge153" class="edge">
<title>Node58&#45;&gt;Node46</title>
<path fill="none" stroke="#63b8ff" d="M1282.861,-549.9197C1289.5919,-542.2072 1299.2297,-531.1639 1307.3164,-521.8978"/>
<polygon fill="#63b8ff" stroke="#63b8ff" points="1309.9733,-524.1765 1313.9116,-514.3408 1304.6993,-519.5737 1309.9733,-524.1765"/>
</g>
<!-- Node60 -->
<g id="node60" class="node">
<title>Node60</title>
<g id="a_node60"><a xlink:title=" ">
<polygon fill="#e0e0e0" stroke="#999999" points="2626.5,-569 2546.5,-569 2546.5,-550 2626.5,-550 2626.5,-569"/>
<text text-anchor="middle" x="2586.5" y="-557" font-family="Helvetica,sans-Serif" font-size="10.00" fill="#000000">configvalues.h</text>
</a>
</g>
</g>
<!-- Node59&#45;&gt;Node60 -->
<g id="edge157" class="edge">
<title>Node59&#45;&gt;Node60</title>
<path fill="none" stroke="#63b8ff" d="M2580.7193,-604.9197C2581.6117,-597.9083 2582.8544,-588.1442 2583.959,-579.4652"/>
<polygon fill="#63b8ff" stroke="#63b8ff" points="2587.4569,-579.7027 2585.2475,-569.3408 2580.5129,-578.8189 2587.4569,-579.7027"/>
</g>
<!-- Node61&#45;&gt;Node6 -->
<g id="edge160" class="edge">
<title>Node61&#45;&gt;Node6</title>
<path fill="none" stroke="#63b8ff" d="M2236.7713,-274.9972C2287.8344,-255.8303 2389.1137,-210.4758 2347.5,-165 2315.4741,-130.0019 1983.4011,-121.7522 1871.8317,-119.9617"/>
<polygon fill="#63b8ff" stroke="#63b8ff" points="1871.7927,-116.4607 1861.7405,-119.8079 1871.686,-123.4599 1871.7927,-116.4607"/>
</g>
<!-- Node61&#45;&gt;Node23 -->
<g id="edge159" class="edge">
<title>Node61&#45;&gt;Node23</title>
<path fill="none" stroke="#63b8ff" d="M2180.8501,-283.3759C2070.9332,-278.9441 1675.4547,-261.8762 1528.3995,-238.7271"/>
<polygon fill="#63b8ff" stroke="#63b8ff" points="1528.6849,-235.2269 1518.2481,-237.05 1527.5438,-242.1333 1528.6849,-235.2269"/>
</g>
</g>
</svg>
