<?xml version="1.0" encoding="UTF-8" standalone="no"?>
<!DOCTYPE svg PUBLIC "-//W3C//DTD SVG 1.1//EN"
 "http://www.w3.org/Graphics/SVG/1.1/DTD/svg11.dtd">
<!-- Generated by graphviz version 2.40.1 (20161225.0304)
 -->
<!-- Title: src/dotgfxhierarchytable.h Pages: 1 -->
<svg width="508pt" height="137pt"
 viewBox="0.00 0.00 507.50 137.00" xmlns="http://www.w3.org/2000/svg" xmlns:xlink="http://www.w3.org/1999/xlink">
<g id="graph0" class="graph" transform="scale(1 1) rotate(0) translate(4 133)">
<title>src/dotgfxhierarchytable.h</title>
<!-- Node1 -->
<g id="node1" class="node">
<title>Node1</title>
<g id="a_node1"><a xlink:title=" ">
<polygon fill="#999999" stroke="#666666" points="296.5,-129 167.5,-129 167.5,-110 296.5,-110 296.5,-129"/>
<text text-anchor="middle" x="232" y="-117" font-family="Helvetica,sans-Serif" font-size="10.00" fill="#000000">src/dotgfxhierarchytable.h</text>
</a>
</g>
</g>
<!-- Node2 -->
<g id="node2" class="node">
<title>Node2</title>
<g id="a_node2"><a xlink:href="../../db/d12/context_8cpp.html" target="_top" xlink:title=" ">
<polygon fill="#ffffff" stroke="#666666" points="84,-19 0,-19 0,0 84,0 84,-19"/>
<text text-anchor="middle" x="42" y="-7" font-family="Helvetica,sans-Serif" font-size="10.00" fill="#000000">src/context.cpp</text>
</a>
</g>
</g>
<!-- Node1&#45;&gt;Node2 -->
<g id="edge1" class="edge">
<title>Node1&#45;&gt;Node2</title>
<path fill="none" stroke="#63b8ff" d="M162.0922,-108.0422C121.5569,-100.0647 75.6893,-88.3064 61,-74 45.9469,-59.3394 42.6689,-33.4074 42.0493,-19.3025"/>
<polygon fill="#63b8ff" stroke="#63b8ff" points="161.5098,-111.4942 171.9897,-109.9377 162.8265,-104.6191 161.5098,-111.4942"/>
</g>
<!-- Node3 -->
<g id="node3" class="node">
<title>Node3</title>
<g id="a_node3"><a xlink:href="../../dc/d1e/context_8h.html" target="_top" xlink:title=" ">
<polygon fill="#ffffff" stroke="#666666" points="144,-74 70,-74 70,-55 144,-55 144,-74"/>
<text text-anchor="middle" x="107" y="-62" font-family="Helvetica,sans-Serif" font-size="10.00" fill="#000000">src/context.h</text>
</a>
</g>
</g>
<!-- Node1&#45;&gt;Node3 -->
<g id="edge2" class="edge">
<title>Node1&#45;&gt;Node3</title>
<path fill="none" stroke="#63b8ff" d="M200.8244,-105.7827C178.4537,-95.9396 148.862,-82.9193 128.9432,-74.155"/>
<polygon fill="#63b8ff" stroke="#63b8ff" points="199.6639,-109.0959 210.2267,-109.9197 202.4831,-102.6887 199.6639,-109.0959"/>
</g>
<!-- Node5 -->
<g id="node5" class="node">
<title>Node5</title>
<g id="a_node5"><a xlink:href="../../d4/d09/dotgfxhierarchytable_8cpp.html" target="_top" xlink:title=" ">
<polygon fill="#ffffff" stroke="#666666" points="302,-74 162,-74 162,-55 302,-55 302,-74"/>
<text text-anchor="middle" x="232" y="-62" font-family="Helvetica,sans-Serif" font-size="10.00" fill="#000000">src/dotgfxhierarchytable.cpp</text>
</a>
</g>
</g>
<!-- Node1&#45;&gt;Node5 -->
<g id="edge5" class="edge">
<title>Node1&#45;&gt;Node5</title>
<path fill="none" stroke="#63b8ff" d="M232,-99.8553C232,-91.2036 232,-81.4195 232,-74.3408"/>
<polygon fill="#63b8ff" stroke="#63b8ff" points="228.5001,-99.9197 232,-109.9197 235.5001,-99.9198 228.5001,-99.9197"/>
</g>
<!-- Node6 -->
<g id="node6" class="node">
<title>Node6</title>
<g id="a_node6"><a xlink:href="../../d8/d6e/htmlgen_8cpp.html" target="_top" xlink:title=" ">
<polygon fill="#ffffff" stroke="#666666" points="406,-74 320,-74 320,-55 406,-55 406,-74"/>
<text text-anchor="middle" x="363" y="-62" font-family="Helvetica,sans-Serif" font-size="10.00" fill="#000000">src/htmlgen.cpp</text>
</a>
</g>
</g>
<!-- Node1&#45;&gt;Node6 -->
<g id="edge6" class="edge">
<title>Node1&#45;&gt;Node6</title>
<path fill="none" stroke="#63b8ff" d="M264.0431,-106.0468C287.5594,-96.1735 318.9414,-82.9979 340.0035,-74.155"/>
<polygon fill="#63b8ff" stroke="#63b8ff" points="262.6839,-102.8214 254.8185,-109.9197 265.3937,-109.2757 262.6839,-102.8214"/>
</g>
<!-- Node7 -->
<g id="node7" class="node">
<title>Node7</title>
<g id="a_node7"><a xlink:href="../../db/d14/index_8cpp.html" target="_top" xlink:title="This file contains functions for the various index pages.">
<polygon fill="#ffffff" stroke="#666666" points="499.5,-74 424.5,-74 424.5,-55 499.5,-55 499.5,-74"/>
<text text-anchor="middle" x="462" y="-62" font-family="Helvetica,sans-Serif" font-size="10.00" fill="#000000">src/index.cpp</text>
</a>
</g>
</g>
<!-- Node1&#45;&gt;Node7 -->
<g id="edge7" class="edge">
<title>Node1&#45;&gt;Node7</title>
<path fill="none" stroke="#63b8ff" d="M281.7219,-107.61C324.5053,-97.3792 385.3117,-82.8385 424.2119,-73.5363"/>
<polygon fill="#63b8ff" stroke="#63b8ff" points="280.7121,-104.2527 271.8004,-109.9825 282.3402,-111.0607 280.7121,-104.2527"/>
</g>
<!-- Node3&#45;&gt;Node2 -->
<g id="edge3" class="edge">
<title>Node3&#45;&gt;Node2</title>
<path fill="none" stroke="#63b8ff" d="M87.7913,-48.2465C76.6991,-38.8608 63.1112,-27.3633 53.6301,-19.3408"/>
<polygon fill="#63b8ff" stroke="#63b8ff" points="85.7832,-51.1321 95.6779,-54.9197 90.3048,-45.7884 85.7832,-51.1321"/>
</g>
<!-- Node4 -->
<g id="node4" class="node">
<title>Node4</title>
<g id="a_node4"><a xlink:href="../../dc/d98/doxygen_8cpp.html" target="_top" xlink:title=" ">
<polygon fill="#ffffff" stroke="#666666" points="190.5,-19 101.5,-19 101.5,0 190.5,0 190.5,-19"/>
<text text-anchor="middle" x="146" y="-7" font-family="Helvetica,sans-Serif" font-size="10.00" fill="#000000">src/doxygen.cpp</text>
</a>
</g>
</g>
<!-- Node3&#45;&gt;Node4 -->
<g id="edge4" class="edge">
<title>Node3&#45;&gt;Node4</title>
<path fill="none" stroke="#63b8ff" d="M119.7144,-46.5694C126.1312,-37.5201 133.6679,-26.8914 139.022,-19.3408"/>
<polygon fill="#63b8ff" stroke="#63b8ff" points="116.7225,-44.7379 113.7933,-54.9197 122.4327,-48.7869 116.7225,-44.7379"/>
</g>
</g>
</svg>
