<?xml version="1.0" encoding="UTF-8" standalone="no"?>
<!DOCTYPE svg PUBLIC "-//W3C//DTD SVG 1.1//EN"
 "http://www.w3.org/Graphics/SVG/1.1/DTD/svg11.dtd">
<!-- Generated by graphviz version 2.40.1 (20161225.0304)
 -->
<!-- Title: src/classlist.h Pages: 1 -->
<!--zoomable 82 -->
<svg id="main" version="1.1" xmlns="http://www.w3.org/2000/svg" xmlns:xlink="http://www.w3.org/1999/xlink" xml:space="preserve" onload="init(evt)">
<style type="text/css"><![CDATA[
.edge:hover path { stroke: red; }
.edge:hover polygon { stroke: red; fill: red; }
]]></style>
<script type="text/javascript"><![CDATA[
var edges = document.getElementsByTagName('g');
if (edges && edges.length) {
  for (var i=0;i<edges.length;i++) {
    if (edges[i].id.substr(0,4)=='edge') {
      edges[i].setAttribute('class','edge');
    }
  }
}
]]></script>
        <defs>
                <circle id="rim" cx="0" cy="0" r="7"/>
                <circle id="rim2" cx="0" cy="0" r="3.5"/>
                <g id="zoomPlus">
                        <use xlink:href="#rim" fill="#404040">
                                <set attributeName="fill" to="#808080" begin="zoomplus.mouseover" end="zoomplus.mouseout"/>
                        </use>
                        <path d="M-4,0h8M0,-4v8" fill="none" stroke="white" stroke-width="1.5" pointer-events="none"/>
                </g>
                <g id="zoomMin">
                        <use xlink:href="#rim" fill="#404040">
                                <set attributeName="fill" to="#808080" begin="zoomminus.mouseover" end="zoomminus.mouseout"/>
                        </use>
                        <path d="M-4,0h8" fill="none" stroke="white" stroke-width="1.5" pointer-events="none"/>
                </g>
                <g id="dirArrow">
                        <path fill="none" stroke="white" stroke-width="1.5" d="M0,-3.0v7 M-2.5,-0.5L0,-3.0L2.5,-0.5"/>
                </g>
               <g id="resetDef">
                       <use xlink:href="#rim2" fill="#404040">
                               <set attributeName="fill" to="#808080" begin="reset.mouseover" end="reset.mouseout"/>
                       </use>
               </g>
        </defs>

<script type="text/javascript">
var viewWidth = 2634;
var viewHeight = 82;
var sectionId = 'dynsection-1';
</script>
<script xlink:href="../../svgpan.js"/>
<svg id="graph" class="graph">
<g id="viewport">
<title>src/classlist.h</title>
<!-- Node1 -->
<g id="node1" class="node">
<title>Node1</title>
<g id="a_node1"><a xlink:title=" ">
<polygon fill="#999999" stroke="#666666" points="1388,-74 1311,-74 1311,-55 1388,-55 1388,-74"/>
<text text-anchor="middle" x="1349.5" y="-62" font-family="Helvetica,sans-Serif" font-size="10.00" fill="#000000">src/classlist.h</text>
</a>
</g>
</g>
<!-- Node2 -->
<g id="node2" class="node">
<title>Node2</title>
<g id="a_node2"><a xlink:href="../../de/d89/classdef_8cpp.html" target="_top" xlink:title=" ">
<polygon fill="#ffffff" stroke="#666666" points="89,-19 0,-19 0,0 89,0 89,-19"/>
<text text-anchor="middle" x="44.5" y="-7" font-family="Helvetica,sans-Serif" font-size="10.00" fill="#000000">src/classdef.cpp</text>
</a>
</g>
</g>
<!-- Node1&#45;&gt;Node2 -->
<g id="edge1" class="edge">
<title>Node1&#45;&gt;Node2</title>
<path fill="none" stroke="#63b8ff" d="M1300.5614,-63.6451C1099.5903,-59.9915 337.0518,-44.6925 97.5,-19 94.8045,-18.7109 92.0396,-18.3654 89.2556,-17.98"/>
<polygon fill="#63b8ff" stroke="#63b8ff" points="1300.742,-67.1488 1310.8036,-63.83 1300.8684,-60.1499 1300.742,-67.1488"/>
</g>
<!-- Node3 -->
<g id="node3" class="node">
<title>Node3</title>
<g id="a_node3"><a xlink:href="../../d6/d10/classlist_8cpp.html" target="_top" xlink:title=" ">
<polygon fill="#ffffff" stroke="#666666" points="194.5,-19 106.5,-19 106.5,0 194.5,0 194.5,-19"/>
<text text-anchor="middle" x="150.5" y="-7" font-family="Helvetica,sans-Serif" font-size="10.00" fill="#000000">src/classlist.cpp</text>
</a>
</g>
</g>
<!-- Node1&#45;&gt;Node3 -->
<g id="edge2" class="edge">
<title>Node1&#45;&gt;Node3</title>
<path fill="none" stroke="#63b8ff" d="M1300.7168,-63.4592C1110.8784,-59.2698 421.2049,-42.719 203.5,-19 200.6192,-18.6861 197.6588,-18.309 194.6805,-17.8885"/>
<polygon fill="#63b8ff" stroke="#63b8ff" points="1300.8668,-66.9632 1310.9412,-63.6835 1301.0204,-59.9649 1300.8668,-66.9632"/>
</g>
<!-- Node4 -->
<g id="node4" class="node">
<title>Node4</title>
<g id="a_node4"><a xlink:href="../../da/d1f/code_8l.html" target="_top" xlink:title=" ">
<polygon fill="#ffffff" stroke="#666666" points="272,-19 213,-19 213,0 272,0 272,-19"/>
<text text-anchor="middle" x="242.5" y="-7" font-family="Helvetica,sans-Serif" font-size="10.00" fill="#000000">src/code.l</text>
</a>
</g>
</g>
<!-- Node1&#45;&gt;Node4 -->
<g id="edge3" class="edge">
<title>Node1&#45;&gt;Node4</title>
<path fill="none" stroke="#63b8ff" d="M1300.7126,-63.6939C1119.1003,-60.4952 482.3664,-47.4615 281.5,-19 278.464,-18.5698 275.3196,-18.0069 272.1936,-17.3695"/>
<polygon fill="#63b8ff" stroke="#63b8ff" points="1300.7088,-67.1942 1310.7683,-63.8691 1300.8308,-60.1953 1300.7088,-67.1942"/>
</g>
<!-- Node5 -->
<g id="node5" class="node">
<title>Node5</title>
<g id="a_node5"><a xlink:href="../../db/d12/context_8cpp.html" target="_top" xlink:title=" ">
<polygon fill="#ffffff" stroke="#666666" points="374.5,-19 290.5,-19 290.5,0 374.5,0 374.5,-19"/>
<text text-anchor="middle" x="332.5" y="-7" font-family="Helvetica,sans-Serif" font-size="10.00" fill="#000000">src/context.cpp</text>
</a>
</g>
</g>
<!-- Node1&#45;&gt;Node5 -->
<g id="edge4" class="edge">
<title>Node1&#45;&gt;Node5</title>
<path fill="none" stroke="#63b8ff" d="M1300.7097,-63.0883C1130.5794,-58.0272 564.1074,-39.9745 383.5,-19 380.6372,-18.6675 377.6932,-18.2697 374.733,-17.8282"/>
<polygon fill="#63b8ff" stroke="#63b8ff" points="1300.7682,-66.5915 1310.8675,-63.389 1300.9754,-59.5946 1300.7682,-66.5915"/>
</g>
<!-- Node6 -->
<g id="node6" class="node">
<title>Node6</title>
<g id="a_node6"><a xlink:href="../../d3/d17/defgen_8cpp.html" target="_top" xlink:title=" ">
<polygon fill="#ffffff" stroke="#666666" points="474,-19 393,-19 393,0 474,0 474,-19"/>
<text text-anchor="middle" x="433.5" y="-7" font-family="Helvetica,sans-Serif" font-size="10.00" fill="#000000">src/defgen.cpp</text>
</a>
</g>
</g>
<!-- Node1&#45;&gt;Node6 -->
<g id="edge5" class="edge">
<title>Node1&#45;&gt;Node6</title>
<path fill="none" stroke="#63b8ff" d="M1300.3144,-62.7931C1141.5084,-57.1438 643.4931,-38.3125 483.5,-19 480.4297,-18.6294 477.2644,-18.1826 474.0874,-17.6872"/>
<polygon fill="#63b8ff" stroke="#63b8ff" points="1300.598,-66.3052 1310.7156,-63.1614 1300.8458,-59.3096 1300.598,-66.3052"/>
</g>
<!-- Node7 -->
<g id="node7" class="node">
<title>Node7</title>
<g id="a_node7"><a xlink:href="../../da/d0d/diagram_8cpp.html" target="_top" xlink:title=" ">
<polygon fill="#ffffff" stroke="#666666" points="578.5,-19 492.5,-19 492.5,0 578.5,0 578.5,-19"/>
<text text-anchor="middle" x="535.5" y="-7" font-family="Helvetica,sans-Serif" font-size="10.00" fill="#000000">src/diagram.cpp</text>
</a>
</g>
</g>
<!-- Node1&#45;&gt;Node7 -->
<g id="edge6" class="edge">
<title>Node1&#45;&gt;Node7</title>
<path fill="none" stroke="#63b8ff" d="M1300.8375,-63.6352C1179.8123,-61.0417 855.6557,-51.3803 587.5,-19 584.5845,-18.6479 581.5853,-18.2355 578.569,-17.7832"/>
<polygon fill="#63b8ff" stroke="#63b8ff" points="1300.8249,-67.1356 1310.8955,-63.8444 1300.9705,-60.1371 1300.8249,-67.1356"/>
</g>
<!-- Node8 -->
<g id="node8" class="node">
<title>Node8</title>
<g id="a_node8"><a xlink:href="../../d8/d29/docbookgen_8cpp.html" target="_top" xlink:title=" ">
<polygon fill="#ffffff" stroke="#666666" points="700.5,-19 596.5,-19 596.5,0 700.5,0 700.5,-19"/>
<text text-anchor="middle" x="648.5" y="-7" font-family="Helvetica,sans-Serif" font-size="10.00" fill="#000000">src/docbookgen.cpp</text>
</a>
</g>
</g>
<!-- Node1&#45;&gt;Node8 -->
<g id="edge7" class="edge">
<title>Node1&#45;&gt;Node8</title>
<path fill="none" stroke="#63b8ff" d="M1300.6136,-62.4195C1193.345,-57.5487 929.3586,-43.8914 709.5,-19 706.6245,-18.6745 703.6771,-18.3119 700.7048,-17.9238"/>
<polygon fill="#63b8ff" stroke="#63b8ff" points="1300.6539,-65.9247 1310.8009,-62.8769 1300.968,-58.9318 1300.6539,-65.9247"/>
</g>
<!-- Node9 -->
<g id="node9" class="node">
<title>Node9</title>
<g id="a_node9"><a xlink:href="../../da/d17/docparser_8cpp.html" target="_top" xlink:title=" ">
<polygon fill="#ffffff" stroke="#666666" points="814,-19 719,-19 719,0 814,0 814,-19"/>
<text text-anchor="middle" x="766.5" y="-7" font-family="Helvetica,sans-Serif" font-size="10.00" fill="#000000">src/docparser.cpp</text>
</a>
</g>
</g>
<!-- Node1&#45;&gt;Node9 -->
<g id="edge8" class="edge">
<title>Node1&#45;&gt;Node9</title>
<path fill="none" stroke="#63b8ff" d="M1300.541,-61.5591C1207.4078,-55.6782 998.406,-41.1054 823.5,-19 820.4145,-18.61 817.2405,-18.1752 814.0446,-17.7121"/>
<polygon fill="#63b8ff" stroke="#63b8ff" points="1300.585,-65.0687 1310.7841,-62.2003 1301.0223,-58.0823 1300.585,-65.0687"/>
</g>
<!-- Node10 -->
<g id="node10" class="node">
<title>Node10</title>
<g id="a_node10"><a xlink:href="../../d4/d09/dotgfxhierarchytable_8cpp.html" target="_top" xlink:title=" ">
<polygon fill="#ffffff" stroke="#666666" points="972.5,-19 832.5,-19 832.5,0 972.5,0 972.5,-19"/>
<text text-anchor="middle" x="902.5" y="-7" font-family="Helvetica,sans-Serif" font-size="10.00" fill="#000000">src/dotgfxhierarchytable.cpp</text>
</a>
</g>
</g>
<!-- Node1&#45;&gt;Node10 -->
<g id="edge9" class="edge">
<title>Node1&#45;&gt;Node10</title>
<path fill="none" stroke="#63b8ff" d="M1300.3989,-58.4585C1220.9866,-48.6874 1064.0729,-29.3803 972.8182,-18.1521"/>
<polygon fill="#63b8ff" stroke="#63b8ff" points="1300.261,-61.9678 1310.6136,-59.7153 1301.1159,-55.0202 1300.261,-61.9678"/>
</g>
<!-- Node11 -->
<g id="node11" class="node">
<title>Node11</title>
<g id="a_node11"><a xlink:href="../../d1/d86/dotgroupcollaboration_8cpp.html" target="_top" xlink:title=" ">
<polygon fill="#ffffff" stroke="#666666" points="1134.5,-19 990.5,-19 990.5,0 1134.5,0 1134.5,-19"/>
<text text-anchor="middle" x="1062.5" y="-7" font-family="Helvetica,sans-Serif" font-size="10.00" fill="#000000">src/dotgroupcollaboration.cpp</text>
</a>
</g>
</g>
<!-- Node1&#45;&gt;Node11 -->
<g id="edge10" class="edge">
<title>Node1&#45;&gt;Node11</title>
<path fill="none" stroke="#63b8ff" d="M1300.7102,-55.15C1248.1606,-45.0795 1164.9937,-29.1417 1112.123,-19.0096"/>
<polygon fill="#63b8ff" stroke="#63b8ff" points="1300.3138,-58.6377 1310.7939,-57.0825 1301.6314,-51.7628 1300.3138,-58.6377"/>
</g>
<!-- Node12 -->
<g id="node12" class="node">
<title>Node12</title>
<g id="a_node12"><a xlink:href="../../dc/d98/doxygen_8cpp.html" target="_top" xlink:title=" ">
<polygon fill="#ffffff" stroke="#666666" points="1242,-19 1153,-19 1153,0 1242,0 1242,-19"/>
<text text-anchor="middle" x="1197.5" y="-7" font-family="Helvetica,sans-Serif" font-size="10.00" fill="#000000">src/doxygen.cpp</text>
</a>
</g>
</g>
<!-- Node1&#45;&gt;Node12 -->
<g id="edge11" class="edge">
<title>Node1&#45;&gt;Node12</title>
<path fill="none" stroke="#63b8ff" d="M1313.3758,-51.4288C1285.8849,-41.4814 1248.6826,-28.02 1223.9275,-19.0626"/>
<polygon fill="#63b8ff" stroke="#63b8ff" points="1312.4294,-54.8083 1323.0236,-54.9197 1314.8112,-48.226 1312.4294,-54.8083"/>
</g>
<!-- Node13 -->
<g id="node13" class="node">
<title>Node13</title>
<g id="a_node13"><a xlink:href="../../d6/ddc/filedef_8cpp.html" target="_top" xlink:title=" ">
<polygon fill="#ffffff" stroke="#666666" points="1338.5,-19 1260.5,-19 1260.5,0 1338.5,0 1338.5,-19"/>
<text text-anchor="middle" x="1299.5" y="-7" font-family="Helvetica,sans-Serif" font-size="10.00" fill="#000000">src/filedef.cpp</text>
</a>
</g>
</g>
<!-- Node1&#45;&gt;Node13 -->
<g id="edge12" class="edge">
<title>Node1&#45;&gt;Node13</title>
<path fill="none" stroke="#63b8ff" d="M1333.9664,-47.413C1325.5795,-38.1874 1315.5249,-27.1274 1308.4462,-19.3408"/>
<polygon fill="#63b8ff" stroke="#63b8ff" points="1331.4741,-49.8747 1340.7907,-54.9197 1336.6537,-45.1659 1331.4741,-49.8747"/>
</g>
<!-- Node14 -->
<g id="node14" class="node">
<title>Node14</title>
<g id="a_node14"><a xlink:href="../../d9/d5b/fortrancode_8l.html" target="_top" xlink:title=" ">
<polygon fill="#ffffff" stroke="#666666" points="1444,-19 1357,-19 1357,0 1444,0 1444,-19"/>
<text text-anchor="middle" x="1400.5" y="-7" font-family="Helvetica,sans-Serif" font-size="10.00" fill="#000000">src/fortrancode.l</text>
</a>
</g>
</g>
<!-- Node1&#45;&gt;Node14 -->
<g id="edge13" class="edge">
<title>Node1&#45;&gt;Node14</title>
<path fill="none" stroke="#63b8ff" d="M1365.3443,-47.413C1373.8989,-38.1874 1384.1546,-27.1274 1391.3749,-19.3408"/>
<polygon fill="#63b8ff" stroke="#63b8ff" points="1362.6165,-45.2072 1358.3835,-54.9197 1367.7494,-49.9668 1362.6165,-45.2072"/>
</g>
<!-- Node15 -->
<g id="node15" class="node">
<title>Node15</title>
<g id="a_node15"><a xlink:href="../../d6/d42/groupdef_8cpp.html" target="_top" xlink:title=" ">
<polygon fill="#ffffff" stroke="#666666" points="1551,-19 1462,-19 1462,0 1551,0 1551,-19"/>
<text text-anchor="middle" x="1506.5" y="-7" font-family="Helvetica,sans-Serif" font-size="10.00" fill="#000000">src/groupdef.cpp</text>
</a>
</g>
</g>
<!-- Node1&#45;&gt;Node15 -->
<g id="edge14" class="edge">
<title>Node1&#45;&gt;Node15</title>
<path fill="none" stroke="#63b8ff" d="M1386.4394,-51.5594C1414.8703,-41.5996 1453.5216,-28.0593 1479.2031,-19.0626"/>
<polygon fill="#63b8ff" stroke="#63b8ff" points="1385.1278,-48.3103 1376.8473,-54.9197 1387.4422,-54.9167 1385.1278,-48.3103"/>
</g>
<!-- Node16 -->
<g id="node16" class="node">
<title>Node16</title>
<g id="a_node16"><a xlink:href="../../db/d14/index_8cpp.html" target="_top" xlink:title="This file contains functions for the various index pages.">
<polygon fill="#ffffff" stroke="#666666" points="1644,-19 1569,-19 1569,0 1644,0 1644,-19"/>
<text text-anchor="middle" x="1606.5" y="-7" font-family="Helvetica,sans-Serif" font-size="10.00" fill="#000000">src/index.cpp</text>
</a>
</g>
</g>
<!-- Node1&#45;&gt;Node16 -->
<g id="edge15" class="edge">
<title>Node1&#45;&gt;Node16</title>
<path fill="none" stroke="#63b8ff" d="M1398.1006,-54.0991C1447.6432,-43.4966 1523.4558,-27.2721 1568.6888,-17.5919"/>
<polygon fill="#63b8ff" stroke="#63b8ff" points="1397.2999,-50.6911 1388.2538,-56.2064 1398.7648,-57.5361 1397.2999,-50.6911"/>
</g>
<!-- Node17 -->
<g id="node17" class="node">
<title>Node17</title>
<g id="a_node17"><a xlink:href="../../d4/d42/latexgen_8cpp.html" target="_top" xlink:title=" ">
<polygon fill="#ffffff" stroke="#666666" points="1751,-19 1662,-19 1662,0 1751,0 1751,-19"/>
<text text-anchor="middle" x="1706.5" y="-7" font-family="Helvetica,sans-Serif" font-size="10.00" fill="#000000">src/latexgen.cpp</text>
</a>
</g>
</g>
<!-- Node1&#45;&gt;Node17 -->
<g id="edge16" class="edge">
<title>Node1&#45;&gt;Node17</title>
<path fill="none" stroke="#63b8ff" d="M1398.3978,-57.6236C1458.5216,-49.0667 1563.6492,-33.7735 1653.5,-19 1656.2673,-18.545 1659.1138,-18.0662 1661.983,-17.5754"/>
<polygon fill="#63b8ff" stroke="#63b8ff" points="1397.8352,-54.1683 1388.4267,-59.0397 1398.8195,-61.0988 1397.8352,-54.1683"/>
</g>
<!-- Node18 -->
<g id="node18" class="node">
<title>Node18</title>
<g id="a_node18"><a xlink:href="../../d7/d1c/namespacedef_8cpp.html" target="_top" xlink:title=" ">
<polygon fill="#ffffff" stroke="#666666" points="1884.5,-19 1768.5,-19 1768.5,0 1884.5,0 1884.5,-19"/>
<text text-anchor="middle" x="1826.5" y="-7" font-family="Helvetica,sans-Serif" font-size="10.00" fill="#000000">src/namespacedef.cpp</text>
</a>
</g>
</g>
<!-- Node1&#45;&gt;Node18 -->
<g id="edge17" class="edge">
<title>Node1&#45;&gt;Node18</title>
<path fill="none" stroke="#63b8ff" d="M1398.4349,-59.6055C1475.5214,-51.7774 1629.9086,-35.6227 1760.5,-19 1763.0264,-18.6784 1765.6061,-18.3419 1768.2111,-17.9955"/>
<polygon fill="#63b8ff" stroke="#63b8ff" points="1397.6776,-56.1642 1388.0812,-60.654 1398.383,-63.1286 1397.6776,-56.1642"/>
</g>
<!-- Node19 -->
<g id="node19" class="node">
<title>Node19</title>
<g id="a_node19"><a xlink:href="../../de/dd0/perlmodgen_8cpp.html" target="_top" xlink:title=" ">
<polygon fill="#ffffff" stroke="#666666" points="2004.5,-19 1902.5,-19 1902.5,0 2004.5,0 2004.5,-19"/>
<text text-anchor="middle" x="1953.5" y="-7" font-family="Helvetica,sans-Serif" font-size="10.00" fill="#000000">src/perlmodgen.cpp</text>
</a>
</g>
</g>
<!-- Node1&#45;&gt;Node19 -->
<g id="edge18" class="edge">
<title>Node1&#45;&gt;Node19</title>
<path fill="none" stroke="#63b8ff" d="M1398.3921,-61.6212C1493.8098,-55.7354 1711.4394,-40.9966 1893.5,-19 1896.4317,-18.6458 1899.4398,-18.2554 1902.4726,-17.841"/>
<polygon fill="#63b8ff" stroke="#63b8ff" points="1397.9524,-58.1415 1388.1848,-62.2458 1398.3799,-65.1284 1397.9524,-58.1415"/>
</g>
<!-- Node20 -->
<g id="node20" class="node">
<title>Node20</title>
<g id="a_node20"><a xlink:href="../../d3/ded/pycode_8l.html" target="_top" xlink:title=" ">
<polygon fill="#ffffff" stroke="#666666" points="2092.5,-19 2022.5,-19 2022.5,0 2092.5,0 2092.5,-19"/>
<text text-anchor="middle" x="2057.5" y="-7" font-family="Helvetica,sans-Serif" font-size="10.00" fill="#000000">src/pycode.l</text>
</a>
</g>
</g>
<!-- Node1&#45;&gt;Node20 -->
<g id="edge19" class="edge">
<title>Node1&#45;&gt;Node20</title>
<path fill="none" stroke="#63b8ff" d="M1398.3944,-63.5598C1508.6588,-60.9139 1784.9054,-51.3378 2013.5,-19 2016.2856,-18.6059 2019.1579,-18.1348 2022.0374,-17.6162"/>
<polygon fill="#63b8ff" stroke="#63b8ff" points="1398.1652,-60.0641 1388.249,-63.7948 1398.3274,-67.0622 1398.1652,-60.0641"/>
</g>
<!-- Node21 -->
<g id="node21" class="node">
<title>Node21</title>
<g id="a_node21"><a xlink:href="../../d0/d9c/rtfgen_8cpp.html" target="_top" xlink:title=" ">
<polygon fill="#ffffff" stroke="#666666" points="2188,-19 2111,-19 2111,0 2188,0 2188,-19"/>
<text text-anchor="middle" x="2149.5" y="-7" font-family="Helvetica,sans-Serif" font-size="10.00" fill="#000000">src/rtfgen.cpp</text>
</a>
</g>
</g>
<!-- Node1&#45;&gt;Node21 -->
<g id="edge20" class="edge">
<title>Node1&#45;&gt;Node21</title>
<path fill="none" stroke="#63b8ff" d="M1398.3443,-63.8236C1518.465,-61.6657 1837.6867,-52.93 2101.5,-19 2104.5332,-18.6099 2107.6625,-18.1416 2110.801,-17.6249"/>
<polygon fill="#63b8ff" stroke="#63b8ff" points="1397.9574,-60.3297 1388.0192,-64.0015 1398.0781,-67.3286 1397.9574,-60.3297"/>
</g>
<!-- Node22 -->
<g id="node22" class="node">
<title>Node22</title>
<g id="a_node22"><a xlink:href="../../d9/d2f/searchindex__js_8cpp.html" target="_top" xlink:title=" ">
<polygon fill="#ffffff" stroke="#666666" points="2323,-19 2206,-19 2206,0 2323,0 2323,-19"/>
<text text-anchor="middle" x="2264.5" y="-7" font-family="Helvetica,sans-Serif" font-size="10.00" fill="#000000">src/searchindex_js.cpp</text>
</a>
</g>
</g>
<!-- Node1&#45;&gt;Node22 -->
<g id="edge21" class="edge">
<title>Node1&#45;&gt;Node22</title>
<path fill="none" stroke="#63b8ff" d="M1398.0767,-63.3768C1528.0074,-60.0518 1894.2614,-48.5766 2197.5,-19 2200.1893,-18.7377 2202.9363,-18.4458 2205.7087,-18.1319"/>
<polygon fill="#63b8ff" stroke="#63b8ff" points="1397.9553,-59.8787 1388.0466,-63.6292 1398.1315,-66.8764 1397.9553,-59.8787"/>
</g>
<!-- Node23 -->
<g id="node23" class="node">
<title>Node23</title>
<g id="a_node23"><a xlink:href="../../df/d2d/util_8cpp.html" target="_top" xlink:title=" ">
<polygon fill="#ffffff" stroke="#666666" points="2406,-19 2341,-19 2341,0 2406,0 2406,-19"/>
<text text-anchor="middle" x="2373.5" y="-7" font-family="Helvetica,sans-Serif" font-size="10.00" fill="#000000">src/util.cpp</text>
</a>
</g>
</g>
<!-- Node1&#45;&gt;Node23 -->
<g id="edge22" class="edge">
<title>Node1&#45;&gt;Node23</title>
<path fill="none" stroke="#63b8ff" d="M1398.0497,-63.4197C1569.8943,-59.4136 2148.8165,-44.318 2332.5,-19 2335.2505,-18.6209 2338.0879,-18.145 2340.9256,-17.6094"/>
<polygon fill="#63b8ff" stroke="#63b8ff" points="1397.951,-59.9209 1388.0346,-63.6513 1398.1129,-66.919 1397.951,-59.9209"/>
</g>
<!-- Node24 -->
<g id="node24" class="node">
<title>Node24</title>
<g id="a_node24"><a xlink:href="../../de/dea/vhdldocgen_8cpp.html" target="_top" xlink:title=" ">
<polygon fill="#ffffff" stroke="#666666" points="2525,-19 2424,-19 2424,0 2525,0 2525,-19"/>
<text text-anchor="middle" x="2474.5" y="-7" font-family="Helvetica,sans-Serif" font-size="10.00" fill="#000000">src/vhdldocgen.cpp</text>
</a>
</g>
</g>
<!-- Node1&#45;&gt;Node24 -->
<g id="edge23" class="edge">
<title>Node1&#45;&gt;Node24</title>
<path fill="none" stroke="#63b8ff" d="M1398.1341,-63.1816C1579.1856,-58.1556 2214.0414,-39.4477 2415.5,-19 2418.1837,-18.7276 2420.9309,-18.4126 2423.7009,-18.0663"/>
<polygon fill="#63b8ff" stroke="#63b8ff" points="1398.009,-59.6836 1388.1096,-63.4587 1398.2026,-66.6809 1398.009,-59.6836"/>
</g>
<!-- Node25 -->
<g id="node25" class="node">
<title>Node25</title>
<g id="a_node25"><a xlink:href="../../d0/dc3/xmlgen_8cpp.html" target="_top" xlink:title=" ">
<polygon fill="#ffffff" stroke="#666666" points="2626,-19 2543,-19 2543,0 2626,0 2626,-19"/>
<text text-anchor="middle" x="2584.5" y="-7" font-family="Helvetica,sans-Serif" font-size="10.00" fill="#000000">src/xmlgen.cpp</text>
</a>
</g>
</g>
<!-- Node1&#45;&gt;Node25 -->
<g id="edge24" class="edge">
<title>Node1&#45;&gt;Node25</title>
<path fill="none" stroke="#63b8ff" d="M1398.3548,-63.5986C1592.3803,-59.8679 2308.8975,-44.6181 2534.5,-19 2537.2216,-18.6909 2540.0173,-18.3174 2542.8292,-17.8996"/>
<polygon fill="#63b8ff" stroke="#63b8ff" points="1398.1136,-60.1025 1388.1822,-63.7928 1398.2472,-67.1012 1398.1136,-60.1025"/>
</g>
</g>
</svg>
        <g id="navigator" transform="translate(0 0)" fill="#404254">
                <rect fill="#f2f5e9" fill-opacity="0.5" stroke="#606060" stroke-width=".5" x="0" y="0" width="60" height="60"/>
                <use id="zoomplus" xlink:href="#zoomPlus" x="17" y="9" onmousedown="handleZoom(evt,'in')"/>
                <use id="zoomminus" xlink:href="#zoomMin" x="42" y="9" onmousedown="handleZoom(evt,'out')"/>
                <use id="reset" xlink:href="#resetDef" x="30" y="36" onmousedown="handleReset()"/>
                <g id="arrowUp" xlink:href="#dirArrow" transform="translate(30 24)" onmousedown="handlePan(0,-1)">
                  <use xlink:href="#rim" fill="#404040">
                        <set attributeName="fill" to="#808080" begin="arrowUp.mouseover" end="arrowUp.mouseout"/>
                  </use>
                  <path fill="none" stroke="white" stroke-width="1.5" d="M0,-3.0v7 M-2.5,-0.5L0,-3.0L2.5,-0.5"/>
                </g>
                <g id="arrowRight" xlink:href="#dirArrow" transform="rotate(90) translate(36 -43)" onmousedown="handlePan(1,0)">
                  <use xlink:href="#rim" fill="#404040">
                        <set attributeName="fill" to="#808080" begin="arrowRight.mouseover" end="arrowRight.mouseout"/>
                  </use>
                  <path fill="none" stroke="white" stroke-width="1.5" d="M0,-3.0v7 M-2.5,-0.5L0,-3.0L2.5,-0.5"/>
                </g>
                <g id="arrowDown" xlink:href="#dirArrow" transform="rotate(180) translate(-30 -48)" onmousedown="handlePan(0,1)">
                  <use xlink:href="#rim" fill="#404040">
                        <set attributeName="fill" to="#808080" begin="arrowDown.mouseover" end="arrowDown.mouseout"/>
                  </use>
                  <path fill="none" stroke="white" stroke-width="1.5" d="M0,-3.0v7 M-2.5,-0.5L0,-3.0L2.5,-0.5"/>
                </g>
                <g id="arrowLeft" xlink:href="#dirArrow" transform="rotate(270) translate(-36 17)" onmousedown="handlePan(-1,0)">
                  <use xlink:href="#rim" fill="#404040">
                        <set attributeName="fill" to="#808080" begin="arrowLeft.mouseover" end="arrowLeft.mouseout"/>
                  </use>
                  <path fill="none" stroke="white" stroke-width="1.5" d="M0,-3.0v7 M-2.5,-0.5L0,-3.0L2.5,-0.5"/>
                </g>
        </g>
        <svg viewBox="0 0 15 15" width="100%" height="30px" preserveAspectRatio="xMaxYMin meet">
         <g id="arrow_out" transform="scale(0.3 0.3)">
          <a xlink:href="classlist_8h__dep__incl_org.svg" target="_base">
           <rect id="button" ry="5" rx="5" y="6" x="6" height="38" width="38"
                fill="#f2f5e9" fill-opacity="0.5" stroke="#606060" stroke-width="1.0"/>
           <path id="arrow"
             d="M 11.500037,31.436501 C 11.940474,20.09759 22.043105,11.32322 32.158766,21.979434 L 37.068811,17.246167 C 37.068811,17.246167 37.088388,32 37.088388,32 L 22.160133,31.978069 C 22.160133,31.978069 26.997745,27.140456 26.997745,27.140456 C 18.528582,18.264221 13.291696,25.230495 11.500037,31.436501 z"
             style="fill:#404040;"/>
          </a>
         </g>
        </svg>
</svg>
