<?xml version="1.0" encoding="UTF-8" standalone="no"?>
<!DOCTYPE svg PUBLIC "-//W3C//DTD SVG 1.1//EN"
 "http://www.w3.org/Graphics/SVG/1.1/DTD/svg11.dtd">
<!-- Generated by graphviz version 2.40.1 (20161225.0304)
 -->
<!-- Title: src/threadpool.h Pages: 1 -->
<svg width="625pt" height="82pt"
 viewBox="0.00 0.00 624.50 82.00" xmlns="http://www.w3.org/2000/svg" xmlns:xlink="http://www.w3.org/1999/xlink">
<g id="graph0" class="graph" transform="scale(1 1) rotate(0) translate(4 78)">
<title>src/threadpool.h</title>
<!-- Node1 -->
<g id="node1" class="node">
<title>Node1</title>
<g id="a_node1"><a xlink:title=" ">
<polygon fill="#999999" stroke="#666666" points="375.5,-74 289.5,-74 289.5,-55 375.5,-55 375.5,-74"/>
<text text-anchor="middle" x="332.5" y="-62" font-family="Helvetica,sans-Serif" font-size="10.00" fill="#000000">src/threadpool.h</text>
</a>
</g>
</g>
<!-- Node2 -->
<g id="node2" class="node">
<title>Node2</title>
<g id="a_node2"><a xlink:title=" ">
<polygon fill="#e0e0e0" stroke="#999999" points="95,-19 0,-19 0,0 95,0 95,-19"/>
<text text-anchor="middle" x="47.5" y="-7" font-family="Helvetica,sans-Serif" font-size="10.00" fill="#000000">condition_variable</text>
</a>
</g>
</g>
<!-- Node1&#45;&gt;Node2 -->
<g id="edge1" class="edge">
<title>Node1&#45;&gt;Node2</title>
<path fill="none" stroke="#63b8ff" d="M289.2146,-56.1467C239.9589,-46.6412 159.3071,-31.0768 104.8517,-20.5679"/>
<polygon fill="#63b8ff" stroke="#63b8ff" points="105.4841,-17.1254 95.0021,-18.6671 104.1577,-23.9986 105.4841,-17.1254"/>
</g>
<!-- Node3 -->
<g id="node3" class="node">
<title>Node3</title>
<g id="a_node3"><a xlink:title=" ">
<polygon fill="#e0e0e0" stroke="#999999" points="156,-19 113,-19 113,0 156,0 156,-19"/>
<text text-anchor="middle" x="134.5" y="-7" font-family="Helvetica,sans-Serif" font-size="10.00" fill="#000000">deque</text>
</a>
</g>
</g>
<!-- Node1&#45;&gt;Node3 -->
<g id="edge2" class="edge">
<title>Node1&#45;&gt;Node3</title>
<path fill="none" stroke="#63b8ff" d="M295.3386,-54.9166C263.2782,-46.5416 215.5166,-33.8112 165.7419,-19.2883"/>
<polygon fill="#63b8ff" stroke="#63b8ff" points="166.6776,-15.9154 156.0967,-16.4587 164.707,-22.6323 166.6776,-15.9154"/>
</g>
<!-- Node4 -->
<g id="node4" class="node">
<title>Node4</title>
<g id="a_node4"><a xlink:title=" ">
<polygon fill="#e0e0e0" stroke="#999999" points="233,-19 174,-19 174,0 233,0 233,-19"/>
<text text-anchor="middle" x="203.5" y="-7" font-family="Helvetica,sans-Serif" font-size="10.00" fill="#000000">functional</text>
</a>
</g>
</g>
<!-- Node1&#45;&gt;Node4 -->
<g id="edge3" class="edge">
<title>Node1&#45;&gt;Node4</title>
<path fill="none" stroke="#63b8ff" d="M310.0299,-54.9197C289.4388,-46.1406 258.7254,-33.0457 235.5599,-23.1689"/>
<polygon fill="#63b8ff" stroke="#63b8ff" points="236.7169,-19.8575 226.1454,-19.155 233.9715,-26.2966 236.7169,-19.8575"/>
</g>
<!-- Node5 -->
<g id="node5" class="node">
<title>Node5</title>
<g id="a_node5"><a xlink:title=" ">
<polygon fill="#e0e0e0" stroke="#999999" points="292,-19 251,-19 251,0 292,0 292,-19"/>
<text text-anchor="middle" x="271.5" y="-7" font-family="Helvetica,sans-Serif" font-size="10.00" fill="#000000">future</text>
</a>
</g>
</g>
<!-- Node1&#45;&gt;Node5 -->
<g id="edge4" class="edge">
<title>Node1&#45;&gt;Node5</title>
<path fill="none" stroke="#63b8ff" d="M321.8746,-54.9197C313.0615,-46.9735 300.327,-35.4916 289.8671,-26.0605"/>
<polygon fill="#63b8ff" stroke="#63b8ff" points="292.185,-23.4378 282.4144,-19.3408 287.4975,-28.6367 292.185,-23.4378"/>
</g>
<!-- Node6 -->
<g id="node6" class="node">
<title>Node6</title>
<g id="a_node6"><a xlink:title=" ">
<polygon fill="#e0e0e0" stroke="#999999" points="354.5,-19 310.5,-19 310.5,0 354.5,0 354.5,-19"/>
<text text-anchor="middle" x="332.5" y="-7" font-family="Helvetica,sans-Serif" font-size="10.00" fill="#000000">mutex</text>
</a>
</g>
</g>
<!-- Node1&#45;&gt;Node6 -->
<g id="edge5" class="edge">
<title>Node1&#45;&gt;Node6</title>
<path fill="none" stroke="#63b8ff" d="M332.5,-54.9197C332.5,-47.9083 332.5,-38.1442 332.5,-29.4652"/>
<polygon fill="#63b8ff" stroke="#63b8ff" points="336.0001,-29.3408 332.5,-19.3408 329.0001,-29.3409 336.0001,-29.3408"/>
</g>
<!-- Node7 -->
<g id="node7" class="node">
<title>Node7</title>
<g id="a_node7"><a xlink:title=" ">
<polygon fill="#e0e0e0" stroke="#999999" points="416.5,-19 372.5,-19 372.5,0 416.5,0 416.5,-19"/>
<text text-anchor="middle" x="394.5" y="-7" font-family="Helvetica,sans-Serif" font-size="10.00" fill="#000000">thread</text>
</a>
</g>
</g>
<!-- Node1&#45;&gt;Node7 -->
<g id="edge6" class="edge">
<title>Node1&#45;&gt;Node7</title>
<path fill="none" stroke="#63b8ff" d="M343.2996,-54.9197C352.2572,-46.9735 365.2004,-35.4916 375.8318,-26.0605"/>
<polygon fill="#63b8ff" stroke="#63b8ff" points="378.2486,-28.5953 383.4067,-19.3408 373.6033,-23.3587 378.2486,-28.5953"/>
</g>
<!-- Node8 -->
<g id="node8" class="node">
<title>Node8</title>
<g id="a_node8"><a xlink:title=" ">
<polygon fill="#e0e0e0" stroke="#999999" points="496.5,-19 434.5,-19 434.5,0 496.5,0 496.5,-19"/>
<text text-anchor="middle" x="465.5" y="-7" font-family="Helvetica,sans-Serif" font-size="10.00" fill="#000000">type_traits</text>
</a>
</g>
</g>
<!-- Node1&#45;&gt;Node8 -->
<g id="edge7" class="edge">
<title>Node1&#45;&gt;Node8</title>
<path fill="none" stroke="#63b8ff" d="M355.6668,-54.9197C376.9912,-46.1014 408.8451,-32.9287 432.7654,-23.0369"/>
<polygon fill="#63b8ff" stroke="#63b8ff" points="434.2489,-26.2109 442.1524,-19.155 431.5738,-19.7422 434.2489,-26.2109"/>
</g>
<!-- Node9 -->
<g id="node9" class="node">
<title>Node9</title>
<g id="a_node9"><a xlink:title=" ">
<polygon fill="#e0e0e0" stroke="#999999" points="554.5,-19 514.5,-19 514.5,0 554.5,0 554.5,-19"/>
<text text-anchor="middle" x="534.5" y="-7" font-family="Helvetica,sans-Serif" font-size="10.00" fill="#000000">utility</text>
</a>
</g>
</g>
<!-- Node1&#45;&gt;Node9 -->
<g id="edge8" class="edge">
<title>Node1&#45;&gt;Node9</title>
<path fill="none" stroke="#63b8ff" d="M371.5034,-54.9457C404.5567,-46.6922 453.4138,-34.1265 504.388,-19.2106"/>
<polygon fill="#63b8ff" stroke="#63b8ff" points="505.6646,-22.4833 514.2665,-16.298 503.6848,-15.7691 505.6646,-22.4833"/>
</g>
<!-- Node10 -->
<g id="node10" class="node">
<title>Node10</title>
<g id="a_node10"><a xlink:title=" ">
<polygon fill="#e0e0e0" stroke="#999999" points="616.5,-19 572.5,-19 572.5,0 616.5,0 616.5,-19"/>
<text text-anchor="middle" x="594.5" y="-7" font-family="Helvetica,sans-Serif" font-size="10.00" fill="#000000">vector</text>
</a>
</g>
</g>
<!-- Node1&#45;&gt;Node10 -->
<g id="edge9" class="edge">
<title>Node1&#45;&gt;Node10</title>
<path fill="none" stroke="#63b8ff" d="M375.7941,-57.3442C420.3374,-49.6777 491.8899,-36.5198 562.3011,-19.1104"/>
<polygon fill="#63b8ff" stroke="#63b8ff" points="563.3753,-22.4496 572.2259,-16.6258 561.6753,-15.6592 563.3753,-22.4496"/>
</g>
</g>
</svg>
