<?xml version="1.0" encoding="UTF-8" standalone="no"?>
<!DOCTYPE svg PUBLIC "-//W3C//DTD SVG 1.1//EN"
 "http://www.w3.org/Graphics/SVG/1.1/DTD/svg11.dtd">
<!-- Generated by graphviz version 2.40.1 (20161225.0304)
 -->
<!-- Title: TemplateNodeCreator&lt; T &gt; Pages: 1 -->
<svg width="244pt" height="93pt"
 viewBox="0.00 0.00 244.00 93.00" xmlns="http://www.w3.org/2000/svg" xmlns:xlink="http://www.w3.org/1999/xlink">
<g id="graph0" class="graph" transform="scale(1 1) rotate(0) translate(4 89)">
<title>TemplateNodeCreator&lt; T &gt;</title>
<!-- Node1 -->
<g id="node1" class="node">
<title>Node1</title>
<g id="a_node1"><a xlink:title="Helper class for creating template AST tag nodes and returning the template for a given node.">
<polygon fill="#999999" stroke="#666666" points="182.5,-19 45.5,-19 45.5,0 182.5,0 182.5,-19"/>
<text text-anchor="middle" x="114" y="-7" font-family="Helvetica,sans-Serif" font-size="10.00" fill="#000000">TemplateNodeCreator&lt; T &gt;</text>
</a>
</g>
</g>
<!-- Node2 -->
<g id="node2" class="node">
<title>Node2</title>
<g id="a_node2"><a xlink:href="../../d6/d53/class_template_node.html" target="_top" xlink:title="Base class of all nodes in a template&#39;s AST.">
<polygon fill="#ffffff" stroke="#666666" points="80,-85 0,-85 0,-66 80,-66 80,-85"/>
<text text-anchor="middle" x="40" y="-73" font-family="Helvetica,sans-Serif" font-size="10.00" fill="#000000">TemplateNode</text>
</a>
</g>
</g>
<!-- Node2&#45;&gt;Node1 -->
<g id="edge1" class="edge">
<title>Node2&#45;&gt;Node1</title>
<path fill="none" stroke="#63b8ff" d="M58.5332,-58.9704C72.5503,-46.4686 91.3227,-29.7257 103.0362,-19.2785"/>
<polygon fill="#63b8ff" stroke="#63b8ff" points="56.0523,-56.4932 50.919,-65.7615 60.7116,-61.7173 56.0523,-56.4932"/>
</g>
<!-- Node2&#45;&gt;Node2 -->
<g id="edge2" class="edge">
<title>Node2&#45;&gt;Node2</title>
<path fill="none" stroke="#9a32cd" stroke-dasharray="5,2" d="M90.2648,-80.3206C95.0048,-79.3334 98,-77.7266 98,-75.5 98,-71.9375 90.3323,-69.9614 80.1186,-69.5718"/>
<polygon fill="#9a32cd" stroke="#9a32cd" points="89.6797,-76.8636 80.1186,-81.4282 90.4394,-83.8222 89.6797,-76.8636"/>
<text text-anchor="middle" x="120" y="-73" font-family="Helvetica,sans-Serif" font-size="10.00" fill="#000000"> m_parent</text>
</g>
<!-- Node3 -->
<g id="node3" class="node">
<title>Node3</title>
<g id="a_node3"><a xlink:href="../../d9/d45/class_q_c_string.html" target="_top" xlink:title="This is an alternative implementation of QCString.">
<polygon fill="#ffffff" stroke="#666666" points="217.5,-85 160.5,-85 160.5,-66 217.5,-66 217.5,-85"/>
<text text-anchor="middle" x="189" y="-73" font-family="Helvetica,sans-Serif" font-size="10.00" fill="#000000">QCString</text>
</a>
</g>
</g>
<!-- Node3&#45;&gt;Node1 -->
<g id="edge3" class="edge">
<title>Node3&#45;&gt;Node1</title>
<path fill="none" stroke="#9a32cd" stroke-dasharray="5,2" d="M170.2163,-58.9704C156.0098,-46.4686 136.9838,-29.7257 125.1119,-19.2785"/>
<polygon fill="#9a32cd" stroke="#9a32cd" points="168.1141,-61.7827 177.9335,-65.7615 172.7385,-56.5277 168.1141,-61.7827"/>
<text text-anchor="middle" x="195.5" y="-40" font-family="Helvetica,sans-Serif" font-size="10.00" fill="#000000"> m_templateName</text>
</g>
</g>
</svg>
