<?xml version="1.0" encoding="UTF-8" standalone="no"?>
<!DOCTYPE svg PUBLIC "-//W3C//DTD SVG 1.1//EN"
 "http://www.w3.org/Graphics/SVG/1.1/DTD/svg11.dtd">
<!-- Generated by graphviz version 2.43.0 (0)
 -->
<!-- Title: src/namespacedef.h Pages: 1 -->
<svg width="3552pt" height="82pt"
 viewBox="0.00 0.00 3551.50 82.00" xmlns="http://www.w3.org/2000/svg" xmlns:xlink="http://www.w3.org/1999/xlink">
<g id="graph0" class="graph" transform="scale(1 1) rotate(0) translate(4 78)">
<title>src/namespacedef.h</title>
<!-- Node1 -->
<g id="node1" class="node">
<title>Node1</title>
<g id="a_node1"><a xlink:title=" ">
<polygon fill="#999999" stroke="#666666" points="1795,-74 1681,-74 1681,-55 1795,-55 1795,-74"/>
<text text-anchor="middle" x="1738" y="-62" font-family="Helvetica,sans-Serif" font-size="10.00">src/namespacedef.h</text>
</a>
</g>
</g>
<!-- Node2 -->
<g id="node2" class="node">
<title>Node2</title>
<g id="a_node2"><a xlink:href="../../de/d89/classdef_8cpp.html" target="_top" xlink:title=" ">
<polygon fill="white" stroke="#666666" points="94,-19 0,-19 0,0 94,0 94,-19"/>
<text text-anchor="middle" x="47" y="-7" font-family="Helvetica,sans-Serif" font-size="10.00">src/classdef.cpp</text>
</a>
</g>
</g>
<!-- Node1&#45;&gt;Node2 -->
<g id="edge1" class="edge">
<title>Node1&#45;&gt;Node2</title>
<path fill="none" stroke="#63b8ff" d="M1670.58,-62.78C1402.95,-59.73 414.9,-46.81 103,-19 100.06,-18.74 97.04,-18.42 94,-18.06"/>
<polygon fill="#63b8ff" stroke="#63b8ff" points="1670.88,-66.28 1680.92,-62.89 1670.96,-59.28 1670.88,-66.28"/>
</g>
<!-- Node3 -->
<g id="node3" class="node">
<title>Node3</title>
<g id="a_node3"><a xlink:href="../../da/d1f/code_8l.html" target="_top" xlink:title=" ">
<polygon fill="white" stroke="#666666" points="175.5,-19 112.5,-19 112.5,0 175.5,0 175.5,-19"/>
<text text-anchor="middle" x="144" y="-7" font-family="Helvetica,sans-Serif" font-size="10.00">src/code.l</text>
</a>
</g>
</g>
<!-- Node1&#45;&gt;Node3 -->
<g id="edge2" class="edge">
<title>Node1&#45;&gt;Node3</title>
<path fill="none" stroke="#63b8ff" d="M1670.85,-63.19C1411.94,-61.76 478.38,-54.2 184,-19 181.32,-18.68 178.56,-18.27 175.79,-17.8"/>
<polygon fill="#63b8ff" stroke="#63b8ff" points="1670.84,-66.69 1680.86,-63.25 1670.88,-59.69 1670.84,-66.69"/>
</g>
<!-- Node4 -->
<g id="node4" class="node">
<title>Node4</title>
<g id="a_node4"><a xlink:href="../../d8/d0a/conceptdef_8cpp.html" target="_top" xlink:title=" ">
<polygon fill="white" stroke="#666666" points="300.5,-19 193.5,-19 193.5,0 300.5,0 300.5,-19"/>
<text text-anchor="middle" x="247" y="-7" font-family="Helvetica,sans-Serif" font-size="10.00">src/conceptdef.cpp</text>
</a>
</g>
</g>
<!-- Node1&#45;&gt;Node4 -->
<g id="edge3" class="edge">
<title>Node1&#45;&gt;Node4</title>
<path fill="none" stroke="#63b8ff" d="M1670.69,-63.91C1465.83,-64.63 831.96,-62.87 309,-19 306.29,-18.77 303.52,-18.51 300.73,-18.22"/>
<polygon fill="#63b8ff" stroke="#63b8ff" points="1670.71,-67.41 1680.7,-63.87 1670.69,-60.41 1670.71,-67.41"/>
</g>
<!-- Node5 -->
<g id="node5" class="node">
<title>Node5</title>
<g id="a_node5"><a xlink:href="../../db/d12/context_8cpp.html" target="_top" xlink:title=" ">
<polygon fill="white" stroke="#666666" points="409.5,-19 318.5,-19 318.5,0 409.5,0 409.5,-19"/>
<text text-anchor="middle" x="364" y="-7" font-family="Helvetica,sans-Serif" font-size="10.00">src/context.cpp</text>
</a>
</g>
</g>
<!-- Node1&#45;&gt;Node5 -->
<g id="edge4" class="edge">
<title>Node1&#45;&gt;Node5</title>
<path fill="none" stroke="#63b8ff" d="M1670.9,-64.06C1476.65,-65.09 897.2,-63.86 419,-19 415.92,-18.71 412.75,-18.36 409.57,-17.97"/>
<polygon fill="#63b8ff" stroke="#63b8ff" points="1670.98,-67.56 1680.96,-64.01 1670.94,-60.56 1670.98,-67.56"/>
</g>
<!-- Node6 -->
<g id="node6" class="node">
<title>Node6</title>
<g id="a_node6"><a xlink:href="../../d3/d17/defgen_8cpp.html" target="_top" xlink:title=" ">
<polygon fill="white" stroke="#666666" points="516,-19 428,-19 428,0 516,0 516,-19"/>
<text text-anchor="middle" x="472" y="-7" font-family="Helvetica,sans-Serif" font-size="10.00">src/defgen.cpp</text>
</a>
</g>
</g>
<!-- Node1&#45;&gt;Node6 -->
<g id="edge5" class="edge">
<title>Node1&#45;&gt;Node6</title>
<path fill="none" stroke="#63b8ff" d="M1670.94,-63.91C1487.2,-64.42 960.34,-61.73 525,-19 522.12,-18.72 519.17,-18.38 516.19,-18"/>
<polygon fill="#63b8ff" stroke="#63b8ff" points="1671.01,-67.41 1680.99,-63.88 1670.98,-60.41 1671.01,-67.41"/>
</g>
<!-- Node7 -->
<g id="node7" class="node">
<title>Node7</title>
<g id="a_node7"><a xlink:href="../../d3/dea/definition_8cpp.html" target="_top" xlink:title=" ">
<polygon fill="white" stroke="#666666" points="634,-19 534,-19 534,0 634,0 634,-19"/>
<text text-anchor="middle" x="584" y="-7" font-family="Helvetica,sans-Serif" font-size="10.00">src/definition.cpp</text>
</a>
</g>
</g>
<!-- Node1&#45;&gt;Node7 -->
<g id="edge6" class="edge">
<title>Node1&#45;&gt;Node7</title>
<path fill="none" stroke="#63b8ff" d="M1670.72,-63.16C1499.08,-61.78 1031.04,-54.74 643,-19 640.11,-18.73 637.15,-18.42 634.17,-18.08"/>
<polygon fill="#63b8ff" stroke="#63b8ff" points="1670.84,-66.66 1680.87,-63.24 1670.89,-59.66 1670.84,-66.66"/>
</g>
<!-- Node8 -->
<g id="node8" class="node">
<title>Node8</title>
<g id="a_node8"><a xlink:href="../../d8/d29/docbookgen_8cpp.html" target="_top" xlink:title=" ">
<polygon fill="white" stroke="#666666" points="765.5,-19 652.5,-19 652.5,0 765.5,0 765.5,-19"/>
<text text-anchor="middle" x="709" y="-7" font-family="Helvetica,sans-Serif" font-size="10.00">src/docbookgen.cpp</text>
</a>
</g>
</g>
<!-- Node1&#45;&gt;Node8 -->
<g id="edge7" class="edge">
<title>Node1&#45;&gt;Node8</title>
<path fill="none" stroke="#63b8ff" d="M1670.38,-62.33C1512.93,-59.18 1109.66,-48.64 774,-19 771.28,-18.76 768.5,-18.49 765.69,-18.2"/>
<polygon fill="#63b8ff" stroke="#63b8ff" points="1670.78,-65.84 1680.84,-62.53 1670.92,-58.84 1670.78,-65.84"/>
</g>
<!-- Node9 -->
<g id="node9" class="node">
<title>Node9</title>
<g id="a_node9"><a xlink:href="../../d0/d2b/docnode_8cpp.html" target="_top" xlink:title=" ">
<polygon fill="white" stroke="#666666" points="878.5,-19 783.5,-19 783.5,0 878.5,0 878.5,-19"/>
<text text-anchor="middle" x="831" y="-7" font-family="Helvetica,sans-Serif" font-size="10.00">src/docnode.cpp</text>
</a>
</g>
</g>
<!-- Node1&#45;&gt;Node9 -->
<g id="edge8" class="edge">
<title>Node1&#45;&gt;Node9</title>
<path fill="none" stroke="#63b8ff" d="M1670.82,-62.23C1526.82,-59.02 1177.88,-48.61 887,-19 884.26,-18.72 881.45,-18.4 878.62,-18.05"/>
<polygon fill="#63b8ff" stroke="#63b8ff" points="1670.76,-65.73 1680.83,-62.45 1670.91,-58.73 1670.76,-65.73"/>
</g>
<!-- Node10 -->
<g id="node10" class="node">
<title>Node10</title>
<g id="a_node10"><a xlink:href="../../da/d17/docparser_8cpp.html" target="_top" xlink:title=" ">
<polygon fill="white" stroke="#666666" points="997.5,-19 896.5,-19 896.5,0 997.5,0 997.5,-19"/>
<text text-anchor="middle" x="947" y="-7" font-family="Helvetica,sans-Serif" font-size="10.00">src/docparser.cpp</text>
</a>
</g>
</g>
<!-- Node1&#45;&gt;Node10 -->
<g id="edge9" class="edge">
<title>Node1&#45;&gt;Node10</title>
<path fill="none" stroke="#63b8ff" d="M1670.4,-61.19C1541.25,-56.38 1250.56,-43.63 1007,-19 1003.96,-18.69 1000.85,-18.35 997.7,-17.97"/>
<polygon fill="#63b8ff" stroke="#63b8ff" points="1670.41,-64.69 1680.54,-61.57 1670.67,-57.7 1670.41,-64.69"/>
</g>
<!-- Node11 -->
<g id="node11" class="node">
<title>Node11</title>
<g id="a_node11"><a xlink:href="../../d7/d8f/docsets_8cpp.html" target="_top" xlink:title=" ">
<polygon fill="white" stroke="#666666" points="1108,-19 1016,-19 1016,0 1108,0 1108,-19"/>
<text text-anchor="middle" x="1062" y="-7" font-family="Helvetica,sans-Serif" font-size="10.00">src/docsets.cpp</text>
</a>
</g>
</g>
<!-- Node1&#45;&gt;Node11 -->
<g id="edge10" class="edge">
<title>Node1&#45;&gt;Node11</title>
<path fill="none" stroke="#63b8ff" d="M1670.6,-60.48C1556.41,-54.96 1317.76,-41.67 1117,-19 1114.12,-18.67 1111.16,-18.31 1108.18,-17.92"/>
<polygon fill="#63b8ff" stroke="#63b8ff" points="1670.76,-63.99 1680.92,-60.97 1671.1,-57 1670.76,-63.99"/>
</g>
<!-- Node12 -->
<g id="node12" class="node">
<title>Node12</title>
<g id="a_node12"><a xlink:href="../../d1/d86/dotgroupcollaboration_8cpp.html" target="_top" xlink:title=" ">
<polygon fill="white" stroke="#666666" points="1287.5,-19 1126.5,-19 1126.5,0 1287.5,0 1287.5,-19"/>
<text text-anchor="middle" x="1207" y="-7" font-family="Helvetica,sans-Serif" font-size="10.00">src/dotgroupcollaboration.cpp</text>
</a>
</g>
</g>
<!-- Node1&#45;&gt;Node12 -->
<g id="edge11" class="edge">
<title>Node1&#45;&gt;Node12</title>
<path fill="none" stroke="#63b8ff" d="M1670.89,-56.8C1573.35,-47.07 1392.67,-29.03 1287.91,-18.58"/>
<polygon fill="#63b8ff" stroke="#63b8ff" points="1670.62,-60.29 1680.92,-57.8 1671.32,-53.33 1670.62,-60.29"/>
</g>
<!-- Node13 -->
<g id="node13" class="node">
<title>Node13</title>
<g id="a_node13"><a xlink:href="../../dc/d98/doxygen_8cpp.html" target="_top" xlink:title=" ">
<polygon fill="white" stroke="#666666" points="1402,-19 1306,-19 1306,0 1402,0 1402,-19"/>
<text text-anchor="middle" x="1354" y="-7" font-family="Helvetica,sans-Serif" font-size="10.00">src/doxygen.cpp</text>
</a>
</g>
</g>
<!-- Node1&#45;&gt;Node13 -->
<g id="edge12" class="edge">
<title>Node1&#45;&gt;Node13</title>
<path fill="none" stroke="#63b8ff" d="M1670.68,-54.59C1604.54,-45.79 1500.78,-31.8 1411,-19 1408.13,-18.59 1405.17,-18.16 1402.2,-17.73"/>
<polygon fill="#63b8ff" stroke="#63b8ff" points="1670.59,-58.11 1680.96,-55.96 1671.51,-51.17 1670.59,-58.11"/>
</g>
<!-- Node14 -->
<g id="node14" class="node">
<title>Node14</title>
<g id="a_node14"><a xlink:href="../../d6/ddc/filedef_8cpp.html" target="_top" xlink:title=" ">
<polygon fill="white" stroke="#666666" points="1504,-19 1420,-19 1420,0 1504,0 1504,-19"/>
<text text-anchor="middle" x="1462" y="-7" font-family="Helvetica,sans-Serif" font-size="10.00">src/filedef.cpp</text>
</a>
</g>
</g>
<!-- Node1&#45;&gt;Node14 -->
<g id="edge13" class="edge">
<title>Node1&#45;&gt;Node14</title>
<path fill="none" stroke="#63b8ff" d="M1683.83,-53.1C1631.27,-43.01 1552.58,-27.89 1504.42,-18.65"/>
<polygon fill="#63b8ff" stroke="#63b8ff" points="1683.18,-56.54 1693.66,-54.98 1684.5,-49.66 1683.18,-56.54"/>
</g>
<!-- Node15 -->
<g id="node15" class="node">
<title>Node15</title>
<g id="a_node15"><a xlink:href="../../d9/d5b/fortrancode_8l.html" target="_top" xlink:title=" ">
<polygon fill="white" stroke="#666666" points="1618,-19 1522,-19 1522,0 1618,0 1618,-19"/>
<text text-anchor="middle" x="1570" y="-7" font-family="Helvetica,sans-Serif" font-size="10.00">src/fortrancode.l</text>
</a>
</g>
</g>
<!-- Node1&#45;&gt;Node15 -->
<g id="edge14" class="edge">
<title>Node1&#45;&gt;Node15</title>
<path fill="none" stroke="#63b8ff" d="M1701.32,-51.93C1669.94,-42.03 1625.49,-28.01 1597.2,-19.08"/>
<polygon fill="#63b8ff" stroke="#63b8ff" points="1700.42,-55.31 1711.01,-54.98 1702.52,-48.64 1700.42,-55.31"/>
</g>
<!-- Node16 -->
<g id="node16" class="node">
<title>Node16</title>
<g id="a_node16"><a xlink:href="../../d6/d42/groupdef_8cpp.html" target="_top" xlink:title=" ">
<polygon fill="white" stroke="#666666" points="1733.5,-19 1636.5,-19 1636.5,0 1733.5,0 1733.5,-19"/>
<text text-anchor="middle" x="1685" y="-7" font-family="Helvetica,sans-Serif" font-size="10.00">src/groupdef.cpp</text>
</a>
</g>
</g>
<!-- Node1&#45;&gt;Node16 -->
<g id="edge15" class="edge">
<title>Node1&#45;&gt;Node16</title>
<path fill="none" stroke="#63b8ff" d="M1722.02,-47.52C1712.68,-38.18 1701.25,-26.75 1693.59,-19.09"/>
<polygon fill="#63b8ff" stroke="#63b8ff" points="1719.7,-50.15 1729.25,-54.75 1724.65,-45.2 1719.7,-50.15"/>
</g>
<!-- Node17 -->
<g id="node17" class="node">
<title>Node17</title>
<g id="a_node17"><a xlink:href="../../db/d14/index_8cpp.html" target="_top" xlink:title="This file contains functions for the various index pages.">
<polygon fill="white" stroke="#666666" points="1832.5,-19 1751.5,-19 1751.5,0 1832.5,0 1832.5,-19"/>
<text text-anchor="middle" x="1792" y="-7" font-family="Helvetica,sans-Serif" font-size="10.00">src/index.cpp</text>
</a>
</g>
</g>
<!-- Node1&#45;&gt;Node17 -->
<g id="edge16" class="edge">
<title>Node1&#45;&gt;Node17</title>
<path fill="none" stroke="#63b8ff" d="M1754.28,-47.52C1763.8,-38.18 1775.44,-26.75 1783.25,-19.09"/>
<polygon fill="#63b8ff" stroke="#63b8ff" points="1751.6,-45.25 1746.92,-54.75 1756.51,-50.24 1751.6,-45.25"/>
</g>
<!-- Node18 -->
<g id="node18" class="node">
<title>Node18</title>
<g id="a_node18"><a xlink:href="../../d4/d42/latexgen_8cpp.html" target="_top" xlink:title=" ">
<polygon fill="white" stroke="#666666" points="1947.5,-19 1850.5,-19 1850.5,0 1947.5,0 1947.5,-19"/>
<text text-anchor="middle" x="1899" y="-7" font-family="Helvetica,sans-Serif" font-size="10.00">src/latexgen.cpp</text>
</a>
</g>
</g>
<!-- Node1&#45;&gt;Node18 -->
<g id="edge17" class="edge">
<title>Node1&#45;&gt;Node18</title>
<path fill="none" stroke="#63b8ff" d="M1773.55,-51.8C1803.59,-41.91 1845.94,-27.97 1872.93,-19.08"/>
<polygon fill="#63b8ff" stroke="#63b8ff" points="1772.27,-48.53 1763.87,-54.98 1774.46,-55.18 1772.27,-48.53"/>
</g>
<!-- Node19 -->
<g id="node19" class="node">
<title>Node19</title>
<g id="a_node19"><a xlink:href="../../d0/d72/memberdef_8cpp.html" target="_top" xlink:title=" ">
<polygon fill="white" stroke="#666666" points="2076,-19 1966,-19 1966,0 2076,0 2076,-19"/>
<text text-anchor="middle" x="2021" y="-7" font-family="Helvetica,sans-Serif" font-size="10.00">src/memberdef.cpp</text>
</a>
</g>
</g>
<!-- Node1&#45;&gt;Node19 -->
<g id="edge18" class="edge">
<title>Node1&#45;&gt;Node19</title>
<path fill="none" stroke="#63b8ff" d="M1793.39,-53.13C1846.44,-43.19 1925.57,-28.37 1975.17,-19.08"/>
<polygon fill="#63b8ff" stroke="#63b8ff" points="1792.65,-49.7 1783.47,-54.98 1793.94,-56.58 1792.65,-49.7"/>
</g>
<!-- Node20 -->
<g id="node20" class="node">
<title>Node20</title>
<g id="a_node20"><a xlink:href="../../d6/d18/membergroup_8cpp.html" target="_top" xlink:title=" ">
<polygon fill="white" stroke="#666666" points="2217.5,-19 2094.5,-19 2094.5,0 2217.5,0 2217.5,-19"/>
<text text-anchor="middle" x="2156" y="-7" font-family="Helvetica,sans-Serif" font-size="10.00">src/membergroup.cpp</text>
</a>
</g>
</g>
<!-- Node1&#45;&gt;Node20 -->
<g id="edge19" class="edge">
<title>Node1&#45;&gt;Node20</title>
<path fill="none" stroke="#63b8ff" d="M1805.19,-54.98C1885.01,-44.86 2017.05,-28.12 2094.36,-18.32"/>
<polygon fill="#63b8ff" stroke="#63b8ff" points="1804.72,-51.51 1795.24,-56.24 1805.61,-58.46 1804.72,-51.51"/>
</g>
<!-- Node21 -->
<g id="node21" class="node">
<title>Node21</title>
<g id="a_node21"><a xlink:href="../../d0/d14/memberlist_8cpp.html" target="_top" xlink:title=" ">
<polygon fill="white" stroke="#666666" points="2346,-19 2236,-19 2236,0 2346,0 2346,-19"/>
<text text-anchor="middle" x="2291" y="-7" font-family="Helvetica,sans-Serif" font-size="10.00">src/memberlist.cpp</text>
</a>
</g>
</g>
<!-- Node1&#45;&gt;Node21 -->
<g id="edge20" class="edge">
<title>Node1&#45;&gt;Node21</title>
<path fill="none" stroke="#63b8ff" d="M1805.27,-58.26C1899.63,-50.71 2076.6,-35.82 2227,-19 2229.9,-18.68 2232.86,-18.33 2235.86,-17.97"/>
<polygon fill="#63b8ff" stroke="#63b8ff" points="1804.98,-54.77 1795.29,-59.06 1805.54,-61.75 1804.98,-54.77"/>
</g>
<!-- Node22 -->
<g id="node22" class="node">
<title>Node22</title>
<g id="a_node22"><a xlink:href="../../d7/d1c/namespacedef_8cpp.html" target="_top" xlink:title=" ">
<polygon fill="white" stroke="#666666" points="2489.5,-19 2364.5,-19 2364.5,0 2489.5,0 2489.5,-19"/>
<text text-anchor="middle" x="2427" y="-7" font-family="Helvetica,sans-Serif" font-size="10.00">src/namespacedef.cpp</text>
</a>
</g>
</g>
<!-- Node1&#45;&gt;Node22 -->
<g id="edge21" class="edge">
<title>Node1&#45;&gt;Node22</title>
<path fill="none" stroke="#63b8ff" d="M1805.33,-59.65C1918.83,-52.93 2155.42,-37.97 2355,-19 2358.01,-18.71 2361.08,-18.41 2364.19,-18.09"/>
<polygon fill="#63b8ff" stroke="#63b8ff" points="1804.84,-56.17 1795.07,-60.25 1805.25,-63.16 1804.84,-56.17"/>
</g>
<!-- Node23 -->
<g id="node23" class="node">
<title>Node23</title>
<g id="a_node23"><a xlink:href="../../d9/db4/pagedef_8cpp.html" target="_top" xlink:title=" ">
<polygon fill="white" stroke="#666666" points="2600.5,-19 2507.5,-19 2507.5,0 2600.5,0 2600.5,-19"/>
<text text-anchor="middle" x="2554" y="-7" font-family="Helvetica,sans-Serif" font-size="10.00">src/pagedef.cpp</text>
</a>
</g>
</g>
<!-- Node1&#45;&gt;Node23 -->
<g id="edge22" class="edge">
<title>Node1&#45;&gt;Node23</title>
<path fill="none" stroke="#63b8ff" d="M1805.47,-61.7C1938.47,-57.69 2243.76,-46.12 2499,-19 2501.69,-18.71 2504.45,-18.39 2507.23,-18.04"/>
<polygon fill="#63b8ff" stroke="#63b8ff" points="1805.32,-58.21 1795.43,-62 1805.53,-65.2 1805.32,-58.21"/>
</g>
<!-- Node24 -->
<g id="node24" class="node">
<title>Node24</title>
<g id="a_node24"><a xlink:href="../../de/dd0/perlmodgen_8cpp.html" target="_top" xlink:title=" ">
<polygon fill="white" stroke="#666666" points="2731.5,-19 2618.5,-19 2618.5,0 2731.5,0 2731.5,-19"/>
<text text-anchor="middle" x="2675" y="-7" font-family="Helvetica,sans-Serif" font-size="10.00">src/perlmodgen.cpp</text>
</a>
</g>
</g>
<!-- Node1&#45;&gt;Node24 -->
<g id="edge23" class="edge">
<title>Node1&#45;&gt;Node24</title>
<path fill="none" stroke="#63b8ff" d="M1805.43,-61.87C1952.04,-57.94 2310.72,-46.16 2610,-19 2612.72,-18.75 2615.5,-18.48 2618.31,-18.18"/>
<polygon fill="#63b8ff" stroke="#63b8ff" points="1805.15,-58.38 1795.24,-62.14 1805.33,-65.38 1805.15,-58.38"/>
</g>
<!-- Node25 -->
<g id="node25" class="node">
<title>Node25</title>
<g id="a_node25"><a xlink:href="../../d3/ded/pycode_8l.html" target="_top" xlink:title=" ">
<polygon fill="white" stroke="#666666" points="2824.5,-19 2749.5,-19 2749.5,0 2824.5,0 2824.5,-19"/>
<text text-anchor="middle" x="2787" y="-7" font-family="Helvetica,sans-Serif" font-size="10.00">src/pycode.l</text>
</a>
</g>
</g>
<!-- Node1&#45;&gt;Node25 -->
<g id="edge24" class="edge">
<title>Node1&#45;&gt;Node25</title>
<path fill="none" stroke="#63b8ff" d="M1805.33,-63.72C1967.13,-63.55 2390.43,-58.97 2741,-19 2743.74,-18.69 2746.57,-18.31 2749.41,-17.88"/>
<polygon fill="#63b8ff" stroke="#63b8ff" points="1805.05,-60.22 1795.05,-63.73 1805.05,-67.22 1805.05,-60.22"/>
</g>
<!-- Node26 -->
<g id="node26" class="node">
<title>Node26</title>
<g id="a_node26"><a xlink:href="../../d0/d9c/rtfgen_8cpp.html" target="_top" xlink:title=" ">
<polygon fill="white" stroke="#666666" points="2925.5,-19 2842.5,-19 2842.5,0 2925.5,0 2925.5,-19"/>
<text text-anchor="middle" x="2884" y="-7" font-family="Helvetica,sans-Serif" font-size="10.00">src/rtfgen.cpp</text>
</a>
</g>
</g>
<!-- Node1&#45;&gt;Node26 -->
<g id="edge25" class="edge">
<title>Node1&#45;&gt;Node26</title>
<path fill="none" stroke="#63b8ff" d="M1805.4,-63.75C1977.33,-63.75 2446.09,-59.68 2834,-19 2836.71,-18.72 2839.51,-18.37 2842.31,-18"/>
<polygon fill="#63b8ff" stroke="#63b8ff" points="1805.24,-60.25 1795.24,-63.75 1805.23,-67.25 1805.24,-60.25"/>
</g>
<!-- Node27 -->
<g id="node27" class="node">
<title>Node27</title>
<g id="a_node27"><a xlink:href="../../d9/d2f/searchindex__js_8cpp.html" target="_top" xlink:title=" ">
<polygon fill="white" stroke="#666666" points="3070.5,-19 2943.5,-19 2943.5,0 3070.5,0 3070.5,-19"/>
<text text-anchor="middle" x="3007" y="-7" font-family="Helvetica,sans-Serif" font-size="10.00">src/searchindex_js.cpp</text>
</a>
</g>
</g>
<!-- Node1&#45;&gt;Node27 -->
<g id="edge26" class="edge">
<title>Node1&#45;&gt;Node27</title>
<path fill="none" stroke="#63b8ff" d="M1805.33,-62.89C1987.55,-60.84 2505.6,-52.27 2935,-19 2937.76,-18.79 2940.58,-18.55 2943.42,-18.29"/>
<polygon fill="#63b8ff" stroke="#63b8ff" points="1805.06,-59.39 1795.1,-63 1805.13,-66.39 1805.06,-59.39"/>
</g>
<!-- Node28 -->
<g id="node28" class="node">
<title>Node28</title>
<g id="a_node28"><a xlink:href="../../d2/d99/symbolresolver_8cpp.html" target="_top" xlink:title=" ">
<polygon fill="white" stroke="#666666" points="3217.5,-19 3088.5,-19 3088.5,0 3217.5,0 3217.5,-19"/>
<text text-anchor="middle" x="3153" y="-7" font-family="Helvetica,sans-Serif" font-size="10.00">src/symbolresolver.cpp</text>
</a>
</g>
</g>
<!-- Node1&#45;&gt;Node28 -->
<g id="edge27" class="edge">
<title>Node1&#45;&gt;Node28</title>
<path fill="none" stroke="#63b8ff" d="M1805.5,-63.23C2002.24,-62.04 2592.12,-55.43 3080,-19 3082.67,-18.8 3085.4,-18.58 3088.15,-18.33"/>
<polygon fill="#63b8ff" stroke="#63b8ff" points="1805.3,-59.74 1795.32,-63.29 1805.34,-66.74 1805.3,-59.74"/>
</g>
<!-- Node29 -->
<g id="node29" class="node">
<title>Node29</title>
<g id="a_node29"><a xlink:href="../../df/d2d/util_8cpp.html" target="_top" xlink:title=" ">
<polygon fill="white" stroke="#666666" points="3306,-19 3236,-19 3236,0 3306,0 3306,-19"/>
<text text-anchor="middle" x="3271" y="-7" font-family="Helvetica,sans-Serif" font-size="10.00">src/util.cpp</text>
</a>
</g>
</g>
<!-- Node1&#45;&gt;Node29 -->
<g id="edge28" class="edge">
<title>Node1&#45;&gt;Node29</title>
<path fill="none" stroke="#63b8ff" d="M1805.23,-62.93C2057.23,-60.57 2945.73,-50.17 3227,-19 3229.78,-18.69 3232.65,-18.3 3235.53,-17.86"/>
<polygon fill="#63b8ff" stroke="#63b8ff" points="1805.09,-59.43 1795.12,-63.02 1805.15,-66.43 1805.09,-59.43"/>
</g>
<!-- Node30 -->
<g id="node30" class="node">
<title>Node30</title>
<g id="a_node30"><a xlink:href="../../de/dea/vhdldocgen_8cpp.html" target="_top" xlink:title=" ">
<polygon fill="white" stroke="#666666" points="3434,-19 3324,-19 3324,0 3434,0 3434,-19"/>
<text text-anchor="middle" x="3379" y="-7" font-family="Helvetica,sans-Serif" font-size="10.00">src/vhdldocgen.cpp</text>
</a>
</g>
</g>
<!-- Node1&#45;&gt;Node30 -->
<g id="edge29" class="edge">
<title>Node1&#45;&gt;Node30</title>
<path fill="none" stroke="#63b8ff" d="M1805.05,-64.09C2023.07,-65.49 2731.48,-65.86 3315,-19 3317.9,-18.77 3320.88,-18.49 3323.88,-18.19"/>
<polygon fill="#63b8ff" stroke="#63b8ff" points="1805.07,-60.59 1795.04,-64.03 1805.02,-67.59 1805.07,-60.59"/>
</g>
<!-- Node31 -->
<g id="node31" class="node">
<title>Node31</title>
<g id="a_node31"><a xlink:href="../../d0/dc3/xmlgen_8cpp.html" target="_top" xlink:title=" ">
<polygon fill="white" stroke="#666666" points="3543.5,-19 3452.5,-19 3452.5,0 3543.5,0 3543.5,-19"/>
<text text-anchor="middle" x="3498" y="-7" font-family="Helvetica,sans-Serif" font-size="10.00">src/xmlgen.cpp</text>
</a>
</g>
</g>
<!-- Node1&#45;&gt;Node31 -->
<g id="edge30" class="edge">
<title>Node1&#45;&gt;Node31</title>
<path fill="none" stroke="#63b8ff" d="M1805.57,-62.89C2080.61,-60.21 3116.7,-48.35 3443,-19 3446.08,-18.72 3449.25,-18.38 3452.44,-18"/>
<polygon fill="#63b8ff" stroke="#63b8ff" points="1805.31,-59.39 1795.35,-62.98 1805.38,-66.39 1805.31,-59.39"/>
</g>
</g>
</svg>
