<?xml version="1.0" encoding="UTF-8" standalone="no"?>
<!DOCTYPE svg PUBLIC "-//W3C//DTD SVG 1.1//EN"
 "http://www.w3.org/Graphics/SVG/1.1/DTD/svg11.dtd">
<!-- Generated by graphviz version 2.40.1 (20161225.0304)
 -->
<!-- Title: sqlcodeYY_state Pages: 1 -->
<svg width="494pt" height="174pt"
 viewBox="0.00 0.00 493.50 174.00" xmlns="http://www.w3.org/2000/svg" xmlns:xlink="http://www.w3.org/1999/xlink">
<g id="graph0" class="graph" transform="scale(1 1) rotate(0) translate(4 170)">
<title>sqlcodeYY_state</title>
<!-- Node1 -->
<g id="node1" class="node">
<title>Node1</title>
<g id="a_node1"><a xlink:title=" ">
<polygon fill="#999999" stroke="#666666" points="286,-19 195,-19 195,0 286,0 286,-19"/>
<text text-anchor="middle" x="240.5" y="-7" font-family="Helvetica,sans-Serif" font-size="10.00" fill="#000000">sqlcodeYY_state</text>
</a>
</g>
</g>
<!-- Node2 -->
<g id="node2" class="node">
<title>Node2</title>
<g id="a_node2"><a xlink:href="../../d5/d9c/class_code_output_interface.html" target="_top" xlink:title="Output interface for code parser.">
<polygon fill="#ffffff" stroke="#666666" points="107,-108.5 0,-108.5 0,-89.5 107,-89.5 107,-108.5"/>
<text text-anchor="middle" x="53.5" y="-96.5" font-family="Helvetica,sans-Serif" font-size="10.00" fill="#000000">CodeOutputInterface</text>
</a>
</g>
</g>
<!-- Node2&#45;&gt;Node1 -->
<g id="edge1" class="edge">
<title>Node2&#45;&gt;Node1</title>
<path fill="none" stroke="#9a32cd" stroke-dasharray="5,2" d="M69.2522,-82.2919C83.4547,-68.1955 105.5757,-48.5234 128.5,-37 149.1619,-26.6139 173.9779,-20.0018 194.9938,-15.8725"/>
<polygon fill="#9a32cd" stroke="#9a32cd" points="66.7236,-79.8716 62.2218,-89.4625 71.722,-84.7722 66.7236,-79.8716"/>
<text text-anchor="middle" x="141" y="-51" font-family="Helvetica,sans-Serif" font-size="10.00" fill="#000000"> code</text>
</g>
<!-- Node3 -->
<g id="node3" class="node">
<title>Node3</title>
<g id="a_node3"><a xlink:href="../../d9/d45/class_q_c_string.html" target="_top" xlink:title="This is an alternative implementation of QCString.">
<polygon fill="#ffffff" stroke="#666666" points="182,-108.5 125,-108.5 125,-89.5 182,-89.5 182,-108.5"/>
<text text-anchor="middle" x="153.5" y="-96.5" font-family="Helvetica,sans-Serif" font-size="10.00" fill="#000000">QCString</text>
</a>
</g>
</g>
<!-- Node3&#45;&gt;Node1 -->
<g id="edge2" class="edge">
<title>Node3&#45;&gt;Node1</title>
<path fill="none" stroke="#9a32cd" stroke-dasharray="5,2" d="M155.1496,-79.2329C157.2291,-65.8384 161.9213,-48.5408 172.5,-37 179.9001,-28.9269 190.0023,-23.1744 200.1561,-19.0944"/>
<polygon fill="#9a32cd" stroke="#9a32cd" points="151.6515,-79.0108 153.9456,-89.3543 158.6024,-79.8378 151.6515,-79.0108"/>
<text text-anchor="middle" x="204.5" y="-62" font-family="Helvetica,sans-Serif" font-size="10.00" fill="#000000"> classScope</text>
<text text-anchor="middle" x="204.5" y="-51" font-family="Helvetica,sans-Serif" font-size="10.00" fill="#000000">exampleName</text>
<text text-anchor="middle" x="204.5" y="-40" font-family="Helvetica,sans-Serif" font-size="10.00" fill="#000000">fileName</text>
</g>
<!-- Node4 -->
<g id="node4" class="node">
<title>Node4</title>
<g id="a_node4"><a xlink:href="../../d5/dcc/class_definition.html" target="_top" xlink:title="The common base class of all entity definitions found in the sources.">
<polygon fill="#ffffff" stroke="#666666" points="359.5,-166 301.5,-166 301.5,-147 359.5,-147 359.5,-166"/>
<text text-anchor="middle" x="330.5" y="-154" font-family="Helvetica,sans-Serif" font-size="10.00" fill="#000000">Definition</text>
</a>
</g>
</g>
<!-- Node4&#45;&gt;Node1 -->
<g id="edge3" class="edge">
<title>Node4&#45;&gt;Node1</title>
<path fill="none" stroke="#9a32cd" stroke-dasharray="5,2" d="M354.6772,-140.9576C388.377,-117.4213 442.1754,-71.7969 412.5,-37 404.3566,-27.4511 334.4531,-18.723 286.3087,-13.7662"/>
<polygon fill="#9a32cd" stroke="#9a32cd" points="352.5053,-138.2017 346.1982,-146.7147 356.4375,-143.993 352.5053,-138.2017"/>
<text text-anchor="middle" x="448" y="-102" font-family="Helvetica,sans-Serif" font-size="10.00" fill="#000000"> currentDefinition</text>
<text text-anchor="middle" x="448" y="-91" font-family="Helvetica,sans-Serif" font-size="10.00" fill="#000000">searchCtx</text>
</g>
<!-- Node5 -->
<g id="node5" class="node">
<title>Node5</title>
<g id="a_node5"><a xlink:href="../../de/db0/class_file_def.html" target="_top" xlink:title="A model of a file symbol.">
<polygon fill="#ffffff" stroke="#666666" points="264.5,-108.5 216.5,-108.5 216.5,-89.5 264.5,-89.5 264.5,-108.5"/>
<text text-anchor="middle" x="240.5" y="-96.5" font-family="Helvetica,sans-Serif" font-size="10.00" fill="#000000">FileDef</text>
</a>
</g>
</g>
<!-- Node4&#45;&gt;Node5 -->
<g id="edge6" class="edge">
<title>Node4&#45;&gt;Node5</title>
<path fill="none" stroke="#63b8ff" d="M306.7833,-141.3477C290.5497,-130.9762 269.515,-117.5373 255.5418,-108.61"/>
<polygon fill="#63b8ff" stroke="#63b8ff" points="304.9214,-144.3114 315.2327,-146.7459 308.6901,-138.4125 304.9214,-144.3114"/>
</g>
<!-- Node7 -->
<g id="node7" class="node">
<title>Node7</title>
<g id="a_node7"><a xlink:href="../../da/d09/class_member_def.html" target="_top" xlink:title="A model of a class/file/namespace member symbol.">
<polygon fill="#ffffff" stroke="#666666" points="362.5,-108.5 294.5,-108.5 294.5,-89.5 362.5,-89.5 362.5,-108.5"/>
<text text-anchor="middle" x="328.5" y="-96.5" font-family="Helvetica,sans-Serif" font-size="10.00" fill="#000000">MemberDef</text>
</a>
</g>
</g>
<!-- Node4&#45;&gt;Node7 -->
<g id="edge8" class="edge">
<title>Node4&#45;&gt;Node7</title>
<path fill="none" stroke="#63b8ff" d="M329.8065,-136.5608C329.4772,-127.0933 329.0988,-116.2148 328.8343,-108.61"/>
<polygon fill="#63b8ff" stroke="#63b8ff" points="326.3151,-136.8737 330.1607,-146.7459 333.3109,-136.6303 326.3151,-136.8737"/>
</g>
<!-- Node5&#45;&gt;Node1 -->
<g id="edge4" class="edge">
<title>Node5&#45;&gt;Node1</title>
<path fill="none" stroke="#9a32cd" stroke-dasharray="5,2" d="M240.5,-79.3299C240.5,-60.6298 240.5,-33.3002 240.5,-19.0092"/>
<polygon fill="#9a32cd" stroke="#9a32cd" points="237.0001,-79.4219 240.5,-89.4219 244.0001,-79.422 237.0001,-79.4219"/>
<text text-anchor="middle" x="272.5" y="-51" font-family="Helvetica,sans-Serif" font-size="10.00" fill="#000000"> sourceFileDef</text>
</g>
<!-- Node6 -->
<g id="node6" class="node">
<title>Node6</title>
<g id="a_node6"><a xlink:href="../../d0/d46/class_definition_mutable.html" target="_top" xlink:title=" ">
<polygon fill="#ffffff" stroke="#666666" points="283.5,-166 191.5,-166 191.5,-147 283.5,-147 283.5,-166"/>
<text text-anchor="middle" x="237.5" y="-154" font-family="Helvetica,sans-Serif" font-size="10.00" fill="#000000">DefinitionMutable</text>
</a>
</g>
</g>
<!-- Node6&#45;&gt;Node5 -->
<g id="edge5" class="edge">
<title>Node6&#45;&gt;Node5</title>
<path fill="none" stroke="#63b8ff" d="M238.5403,-136.5608C239.0343,-127.0933 239.6018,-116.2148 239.9986,-108.61"/>
<polygon fill="#63b8ff" stroke="#63b8ff" points="235.0348,-136.5771 238.0089,-146.7459 242.0253,-136.9419 235.0348,-136.5771"/>
</g>
<!-- Node7&#45;&gt;Node1 -->
<g id="edge7" class="edge">
<title>Node7&#45;&gt;Node1</title>
<path fill="none" stroke="#9a32cd" stroke-dasharray="5,2" d="M325.3929,-79.2326C322.3657,-65.8379 316.5323,-48.5404 305.5,-37 297.7949,-28.9401 287.3544,-23.1354 277.0968,-19.0011"/>
<polygon fill="#9a32cd" stroke="#9a32cd" points="322.0124,-80.1895 327.3284,-89.3541 328.8878,-78.8747 322.0124,-80.1895"/>
<text text-anchor="middle" x="366" y="-51" font-family="Helvetica,sans-Serif" font-size="10.00" fill="#000000"> currentMemberDef</text>
</g>
</g>
</svg>
