<?xml version="1.0" encoding="UTF-8" standalone="no"?>
<!DOCTYPE svg PUBLIC "-//W3C//DTD SVG 1.1//EN"
 "http://www.w3.org/Graphics/SVG/1.1/DTD/svg11.dtd">
<!-- Generated by graphviz version 2.40.1 (20161225.0304)
 -->
<!-- Title: ExpressionParser Pages: 1 -->
<svg width="298pt" height="159pt"
 viewBox="0.00 0.00 298.00 159.00" xmlns="http://www.w3.org/2000/svg" xmlns:xlink="http://www.w3.org/1999/xlink">
<g id="graph0" class="graph" transform="scale(1 1) rotate(0) translate(4 155)">
<title>ExpressionParser</title>
<!-- Node1 -->
<g id="node1" class="node">
<title>Node1</title>
<g id="a_node1"><a xlink:title="Recursive decent parser for Django style template expressions.">
<polygon fill="#999999" stroke="#666666" points="195.5,-19 101.5,-19 101.5,0 195.5,0 195.5,-19"/>
<text text-anchor="middle" x="148.5" y="-7" font-family="Helvetica,sans-Serif" font-size="10.00" fill="#000000">ExpressionParser</text>
</a>
</g>
</g>
<!-- Node2 -->
<g id="node2" class="node">
<title>Node2</title>
<g id="a_node2"><a xlink:href="../../da/d25/class_template_parser.html" target="_top" xlink:title="Parser for templates.">
<polygon fill="#ffffff" stroke="#666666" points="124.5,-85 38.5,-85 38.5,-66 124.5,-66 124.5,-85"/>
<text text-anchor="middle" x="81.5" y="-73" font-family="Helvetica,sans-Serif" font-size="10.00" fill="#000000">TemplateParser</text>
</a>
</g>
</g>
<!-- Node2&#45;&gt;Node1 -->
<g id="edge1" class="edge">
<title>Node2&#45;&gt;Node1</title>
<path fill="none" stroke="#9a32cd" stroke-dasharray="5,2" d="M98.637,-58.6187C111.2884,-46.1562 128.067,-29.6281 138.5734,-19.2785"/>
<polygon fill="#9a32cd" stroke="#9a32cd" points="96.0539,-56.2503 91.3861,-65.7615 100.9663,-61.2372 96.0539,-56.2503"/>
<text text-anchor="middle" x="141.5" y="-40" font-family="Helvetica,sans-Serif" font-size="10.00" fill="#000000"> m_parser</text>
</g>
<!-- Node3 -->
<g id="node3" class="node">
<title>Node3</title>
<g id="a_node3"><a xlink:href="../../d0/d1d/class_template_engine.html" target="_top" xlink:title="Engine to create templates and template contexts.">
<polygon fill="#ffffff" stroke="#666666" points="87,-151 0,-151 0,-132 87,-132 87,-151"/>
<text text-anchor="middle" x="43.5" y="-139" font-family="Helvetica,sans-Serif" font-size="10.00" fill="#000000">TemplateEngine</text>
</a>
</g>
</g>
<!-- Node3&#45;&gt;Node2 -->
<g id="edge2" class="edge">
<title>Node3&#45;&gt;Node2</title>
<path fill="none" stroke="#9a32cd" stroke-dasharray="5,2" d="M40.7157,-121.4125C40.7052,-115.2154 41.6121,-108.5635 44.5,-103 48.4086,-95.4703 55.424,-89.4613 62.3032,-85.0046"/>
<polygon fill="#9a32cd" stroke="#9a32cd" points="37.2526,-122.0344 41.4957,-131.7425 44.2328,-121.5073 37.2526,-122.0344"/>
<text text-anchor="middle" x="67.5" y="-106" font-family="Helvetica,sans-Serif" font-size="10.00" fill="#000000"> m_engine</text>
</g>
<!-- Node4 -->
<g id="node4" class="node">
<title>Node4</title>
<g id="a_node4"><a xlink:href="../../d9/d45/class_q_c_string.html" target="_top" xlink:title="This is an alternative implementation of QCString.">
<polygon fill="#ffffff" stroke="#666666" points="203,-151 146,-151 146,-132 203,-132 203,-151"/>
<text text-anchor="middle" x="174.5" y="-139" font-family="Helvetica,sans-Serif" font-size="10.00" fill="#000000">QCString</text>
</a>
</g>
</g>
<!-- Node4&#45;&gt;Node2 -->
<g id="edge3" class="edge">
<title>Node4&#45;&gt;Node2</title>
<path fill="none" stroke="#9a32cd" stroke-dasharray="5,2" d="M136.2697,-129.3725C126.954,-125.3625 117.4052,-120.2774 109.5,-114 99.5326,-106.0851 91.4246,-93.7605 86.546,-85.1959"/>
<polygon fill="#9a32cd" stroke="#9a32cd" points="135.2291,-132.7252 145.8147,-133.1672 137.8152,-126.2204 135.2291,-132.7252"/>
<text text-anchor="middle" x="150" y="-106" font-family="Helvetica,sans-Serif" font-size="10.00" fill="#000000"> m_templateName</text>
</g>
<!-- Node5 -->
<g id="node5" class="node">
<title>Node5</title>
<g id="a_node5"><a xlink:href="../../d3/d2a/class_expression_parser_1_1_expr_token.html" target="_top" xlink:title="Class representing a token within an expression.">
<polygon fill="#ffffff" stroke="#666666" points="290,-85 143,-85 143,-66 290,-66 290,-85"/>
<text text-anchor="middle" x="216.5" y="-73" font-family="Helvetica,sans-Serif" font-size="10.00" fill="#000000">ExpressionParser::ExprToken</text>
</a>
</g>
</g>
<!-- Node4&#45;&gt;Node5 -->
<g id="edge5" class="edge">
<title>Node4&#45;&gt;Node5</title>
<path fill="none" stroke="#9a32cd" stroke-dasharray="5,2" d="M188.029,-123.4881C190.2505,-120.3649 192.4836,-117.1185 194.5,-114 200.6864,-104.4323 207.0728,-93.0594 211.3603,-85.1664"/>
<polygon fill="#9a32cd" stroke="#9a32cd" points="185.0622,-121.616 181.9883,-131.7552 190.7141,-125.7459 185.0622,-121.616"/>
<text text-anchor="middle" x="207" y="-106" font-family="Helvetica,sans-Serif" font-size="10.00" fill="#000000"> id</text>
</g>
<!-- Node5&#45;&gt;Node1 -->
<g id="edge4" class="edge">
<title>Node5&#45;&gt;Node1</title>
<path fill="none" stroke="#9a32cd" stroke-dasharray="5,2" d="M199.1072,-58.6187C186.267,-46.1562 169.238,-29.6281 158.5748,-19.2785"/>
<polygon fill="#9a32cd" stroke="#9a32cd" points="196.8529,-61.3082 206.4664,-65.7615 201.7282,-56.2851 196.8529,-61.3082"/>
<text text-anchor="middle" x="216.5" y="-40" font-family="Helvetica,sans-Serif" font-size="10.00" fill="#000000"> m_curToken</text>
</g>
</g>
</svg>
