<?xml version="1.0" encoding="UTF-8" standalone="no"?>
<!DOCTYPE svg PUBLIC "-//W3C//DTD SVG 1.1//EN"
 "http://www.w3.org/Graphics/SVG/1.1/DTD/svg11.dtd">
<!-- Generated by graphviz version 2.40.1 (20161225.0304)
 -->
<!-- Title: GroupDef Pages: 1 -->
<svg width="176pt" height="192pt"
 viewBox="0.00 0.00 176.00 192.00" xmlns="http://www.w3.org/2000/svg" xmlns:xlink="http://www.w3.org/1999/xlink">
<g id="graph0" class="graph" transform="scale(1 1) rotate(0) translate(4 188)">
<title>GroupDef</title>
<!-- Node1 -->
<g id="node1" class="node">
<title>Node1</title>
<g id="a_node1"><a xlink:title="A model of a group of symbols.">
<polygon fill="#999999" stroke="#666666" points="121.5,-129 62.5,-129 62.5,-110 121.5,-110 121.5,-129"/>
<text text-anchor="middle" x="92" y="-117" font-family="Helvetica,sans-Serif" font-size="10.00" fill="#000000">GroupDef</text>
</a>
</g>
</g>
<!-- Node4 -->
<g id="node4" class="node">
<title>Node4</title>
<g id="a_node4"><a xlink:href="../../dd/d10/class_definition_mixin.html" target="_top" xlink:title=" ">
<polygon fill="#ffffff" stroke="#666666" points="162.5,-74 21.5,-74 21.5,-55 162.5,-55 162.5,-74"/>
<text text-anchor="middle" x="92" y="-62" font-family="Helvetica,sans-Serif" font-size="10.00" fill="#000000">DefinitionMixin&lt; GroupDef &gt;</text>
</a>
</g>
</g>
<!-- Node1&#45;&gt;Node4 -->
<g id="edge3" class="edge">
<title>Node1&#45;&gt;Node4</title>
<path fill="none" stroke="#63b8ff" d="M92,-99.8553C92,-91.2036 92,-81.4195 92,-74.3408"/>
<polygon fill="#63b8ff" stroke="#63b8ff" points="88.5001,-99.9197 92,-109.9197 95.5001,-99.9198 88.5001,-99.9197"/>
</g>
<!-- Node2 -->
<g id="node2" class="node">
<title>Node2</title>
<g id="a_node2"><a xlink:href="../../d0/d46/class_definition_mutable.html" target="_top" xlink:title=" ">
<polygon fill="#ffffff" stroke="#666666" points="92,-184 0,-184 0,-165 92,-165 92,-184"/>
<text text-anchor="middle" x="46" y="-172" font-family="Helvetica,sans-Serif" font-size="10.00" fill="#000000">DefinitionMutable</text>
</a>
</g>
</g>
<!-- Node2&#45;&gt;Node1 -->
<g id="edge1" class="edge">
<title>Node2&#45;&gt;Node1</title>
<path fill="none" stroke="#63b8ff" d="M60.5252,-157.1329C68.1935,-147.9643 77.3229,-137.0487 83.7695,-129.3408"/>
<polygon fill="#63b8ff" stroke="#63b8ff" points="57.7434,-155.0035 54.0126,-164.9197 63.113,-159.4944 57.7434,-155.0035"/>
</g>
<!-- Node3 -->
<g id="node3" class="node">
<title>Node3</title>
<g id="a_node3"><a xlink:href="../../d5/dcc/class_definition.html" target="_top" xlink:title="The common base class of all entity definitions found in the sources.">
<polygon fill="#ffffff" stroke="#666666" points="168,-184 110,-184 110,-165 168,-165 168,-184"/>
<text text-anchor="middle" x="139" y="-172" font-family="Helvetica,sans-Serif" font-size="10.00" fill="#000000">Definition</text>
</a>
</g>
</g>
<!-- Node3&#45;&gt;Node1 -->
<g id="edge2" class="edge">
<title>Node3&#45;&gt;Node1</title>
<path fill="none" stroke="#63b8ff" d="M124.159,-157.1329C116.3241,-147.9643 106.9962,-137.0487 100.4094,-129.3408"/>
<polygon fill="#63b8ff" stroke="#63b8ff" points="121.6558,-159.5912 130.8132,-164.9197 126.9775,-155.0436 121.6558,-159.5912"/>
</g>
<!-- Node5 -->
<g id="node5" class="node">
<title>Node5</title>
<g id="a_node5"><a xlink:href="../../db/d22/class_group_def_impl.html" target="_top" xlink:title=" ">
<polygon fill="#ffffff" stroke="#666666" points="130.5,-19 53.5,-19 53.5,0 130.5,0 130.5,-19"/>
<text text-anchor="middle" x="92" y="-7" font-family="Helvetica,sans-Serif" font-size="10.00" fill="#000000">GroupDefImpl</text>
</a>
</g>
</g>
<!-- Node4&#45;&gt;Node5 -->
<g id="edge4" class="edge">
<title>Node4&#45;&gt;Node5</title>
<path fill="none" stroke="#63b8ff" d="M92,-44.8553C92,-36.2036 92,-26.4195 92,-19.3408"/>
<polygon fill="#63b8ff" stroke="#63b8ff" points="88.5001,-44.9197 92,-54.9197 95.5001,-44.9198 88.5001,-44.9197"/>
</g>
</g>
</svg>
