<?xml version="1.0" encoding="UTF-8" standalone="no"?>
<!DOCTYPE svg PUBLIC "-//W3C//DTD SVG 1.1//EN"
 "http://www.w3.org/Graphics/SVG/1.1/DTD/svg11.dtd">
<!-- Generated by graphviz version 2.40.1 (20161225.0304)
 -->
<!-- Title: src/docparser.h Pages: 1 -->
<svg width="721pt" height="192pt"
 viewBox="0.00 0.00 720.50 192.00" xmlns="http://www.w3.org/2000/svg" xmlns:xlink="http://www.w3.org/1999/xlink">
<g id="graph0" class="graph" transform="scale(1 1) rotate(0) translate(4 188)">
<title>src/docparser.h</title>
<!-- Node1 -->
<g id="node1" class="node">
<title>Node1</title>
<g id="a_node1"><a xlink:title=" ">
<polygon fill="#999999" stroke="#666666" points="433,-184 349,-184 349,-165 433,-165 433,-184"/>
<text text-anchor="middle" x="391" y="-172" font-family="Helvetica,sans-Serif" font-size="10.00" fill="#000000">src/docparser.h</text>
</a>
</g>
</g>
<!-- Node2 -->
<g id="node2" class="node">
<title>Node2</title>
<g id="a_node2"><a xlink:title=" ">
<polygon fill="#e0e0e0" stroke="#999999" points="289,-129 243,-129 243,-110 289,-110 289,-129"/>
<text text-anchor="middle" x="266" y="-117" font-family="Helvetica,sans-Serif" font-size="10.00" fill="#000000">stdio.h</text>
</a>
</g>
</g>
<!-- Node1&#45;&gt;Node2 -->
<g id="edge1" class="edge">
<title>Node1&#45;&gt;Node2</title>
<path fill="none" stroke="#63b8ff" d="M369.2267,-164.9197C349.3631,-156.1798 319.7785,-143.1625 297.3668,-133.3014"/>
<polygon fill="#63b8ff" stroke="#63b8ff" points="298.506,-129.9789 287.9432,-129.155 295.6868,-136.3861 298.506,-129.9789"/>
</g>
<!-- Node3 -->
<g id="node3" class="node">
<title>Node3</title>
<g id="a_node3"><a xlink:title=" ">
<polygon fill="#e0e0e0" stroke="#999999" points="585,-74 533,-74 533,-55 585,-55 585,-74"/>
<text text-anchor="middle" x="559" y="-62" font-family="Helvetica,sans-Serif" font-size="10.00" fill="#000000">memory</text>
</a>
</g>
</g>
<!-- Node1&#45;&gt;Node3 -->
<g id="edge2" class="edge">
<title>Node1&#45;&gt;Node3</title>
<path fill="none" stroke="#63b8ff" d="M405.615,-164.9306C434.7813,-145.8337 500.4253,-102.8525 535.6364,-79.7976"/>
<polygon fill="#63b8ff" stroke="#63b8ff" points="537.8502,-82.5316 544.2991,-74.1256 534.0157,-76.6753 537.8502,-82.5316"/>
</g>
<!-- Node4 -->
<g id="node4" class="node">
<title>Node4</title>
<g id="a_node4"><a xlink:href="../../d7/d5c/qcstring_8h.html" target="_top" xlink:title=" ">
<polygon fill="#ffffff" stroke="#666666" points="366.5,-129 307.5,-129 307.5,-110 366.5,-110 366.5,-129"/>
<text text-anchor="middle" x="337" y="-117" font-family="Helvetica,sans-Serif" font-size="10.00" fill="#000000">qcstring.h</text>
</a>
</g>
</g>
<!-- Node1&#45;&gt;Node4 -->
<g id="edge3" class="edge">
<title>Node1&#45;&gt;Node4</title>
<path fill="none" stroke="#63b8ff" d="M381.5939,-164.9197C373.9451,-157.1293 362.9597,-145.9405 353.8064,-136.6176"/>
<polygon fill="#63b8ff" stroke="#63b8ff" points="356.1653,-134.0244 346.6619,-129.3408 351.1704,-138.9286 356.1653,-134.0244"/>
</g>
<!-- Node14 -->
<g id="node14" class="node">
<title>Node14</title>
<g id="a_node14"><a xlink:href="../../d7/d50/growvector_8h.html" target="_top" xlink:title=" ">
<polygon fill="#ffffff" stroke="#666666" points="628.5,-129 555.5,-129 555.5,-110 628.5,-110 628.5,-129"/>
<text text-anchor="middle" x="592" y="-117" font-family="Helvetica,sans-Serif" font-size="10.00" fill="#000000">growvector.h</text>
</a>
</g>
</g>
<!-- Node1&#45;&gt;Node14 -->
<g id="edge15" class="edge">
<title>Node1&#45;&gt;Node14</title>
<path fill="none" stroke="#63b8ff" d="M426.0115,-164.9197C459.6305,-155.7205 510.5668,-141.7827 547.1436,-131.7741"/>
<polygon fill="#63b8ff" stroke="#63b8ff" points="548.3314,-135.0779 557.0531,-129.0626 546.4839,-128.3261 548.3314,-135.0779"/>
</g>
<!-- Node5 -->
<g id="node5" class="node">
<title>Node5</title>
<g id="a_node5"><a xlink:title=" ">
<polygon fill="#e0e0e0" stroke="#999999" points="500.5,-19 459.5,-19 459.5,0 500.5,0 500.5,-19"/>
<text text-anchor="middle" x="480" y="-7" font-family="Helvetica,sans-Serif" font-size="10.00" fill="#000000">string</text>
</a>
</g>
</g>
<!-- Node4&#45;&gt;Node5 -->
<g id="edge4" class="edge">
<title>Node4&#45;&gt;Node5</title>
<path fill="none" stroke="#63b8ff" d="M366.7418,-114.6719C405.9821,-107.6253 471.7586,-93.2394 486,-74 495.4908,-61.1783 492.6223,-42.7635 488.1769,-28.8898"/>
<polygon fill="#63b8ff" stroke="#63b8ff" points="491.3956,-27.5023 484.6486,-19.3335 484.8289,-29.9268 491.3956,-27.5023"/>
</g>
<!-- Node6 -->
<g id="node6" class="node">
<title>Node6</title>
<g id="a_node6"><a xlink:title=" ">
<polygon fill="#e0e0e0" stroke="#999999" points="56,-74 0,-74 0,-55 56,-55 56,-74"/>
<text text-anchor="middle" x="28" y="-62" font-family="Helvetica,sans-Serif" font-size="10.00" fill="#000000">algorithm</text>
</a>
</g>
</g>
<!-- Node4&#45;&gt;Node6 -->
<g id="edge5" class="edge">
<title>Node4&#45;&gt;Node6</title>
<path fill="none" stroke="#63b8ff" d="M307.2478,-111.9747C304.1333,-111.2702 301.0075,-110.5975 298,-110 198.3357,-90.1998 169.3858,-94.7471 66.1097,-74.0609"/>
<polygon fill="#63b8ff" stroke="#63b8ff" points="66.7126,-70.6119 56.2156,-72.0482 65.3172,-77.4714 66.7126,-70.6119"/>
</g>
<!-- Node7 -->
<g id="node7" class="node">
<title>Node7</title>
<g id="a_node7"><a xlink:title=" ">
<polygon fill="#e0e0e0" stroke="#999999" points="120,-74 74,-74 74,-55 120,-55 120,-74"/>
<text text-anchor="middle" x="97" y="-62" font-family="Helvetica,sans-Serif" font-size="10.00" fill="#000000">cctype</text>
</a>
</g>
</g>
<!-- Node4&#45;&gt;Node7 -->
<g id="edge6" class="edge">
<title>Node4&#45;&gt;Node7</title>
<path fill="none" stroke="#63b8ff" d="M307.2106,-112.1493C304.1033,-111.4108 300.9894,-110.6823 298,-110 226.2001,-93.6115 205.1328,-92.9689 129.9622,-74.0921"/>
<polygon fill="#63b8ff" stroke="#63b8ff" points="130.5657,-70.6344 120.012,-71.5673 128.844,-77.4193 130.5657,-70.6344"/>
</g>
<!-- Node8 -->
<g id="node8" class="node">
<title>Node8</title>
<g id="a_node8"><a xlink:title=" ">
<polygon fill="#e0e0e0" stroke="#999999" points="184,-74 138,-74 138,-55 184,-55 184,-74"/>
<text text-anchor="middle" x="161" y="-62" font-family="Helvetica,sans-Serif" font-size="10.00" fill="#000000">cstring</text>
</a>
</g>
</g>
<!-- Node4&#45;&gt;Node8 -->
<g id="edge7" class="edge">
<title>Node4&#45;&gt;Node8</title>
<path fill="none" stroke="#63b8ff" d="M307.144,-110.17C275.8164,-100.3801 226.6943,-85.0295 194.175,-74.8672"/>
<polygon fill="#63b8ff" stroke="#63b8ff" points="194.8325,-71.4058 184.2437,-71.7637 192.7446,-78.0872 194.8325,-71.4058"/>
</g>
<!-- Node9 -->
<g id="node9" class="node">
<title>Node9</title>
<g id="a_node9"><a xlink:title=" ">
<polygon fill="#e0e0e0" stroke="#999999" points="245.5,-74 202.5,-74 202.5,-55 245.5,-55 245.5,-74"/>
<text text-anchor="middle" x="224" y="-62" font-family="Helvetica,sans-Serif" font-size="10.00" fill="#000000">cstdio</text>
</a>
</g>
</g>
<!-- Node4&#45;&gt;Node9 -->
<g id="edge8" class="edge">
<title>Node4&#45;&gt;Node9</title>
<path fill="none" stroke="#63b8ff" d="M317.3169,-109.9197C299.5213,-101.2581 273.0948,-88.3957 252.9023,-78.5675"/>
<polygon fill="#63b8ff" stroke="#63b8ff" points="254.36,-75.3844 243.8367,-74.155 251.2964,-81.6785 254.36,-75.3844"/>
</g>
<!-- Node10 -->
<g id="node10" class="node">
<title>Node10</title>
<g id="a_node10"><a xlink:title=" ">
<polygon fill="#e0e0e0" stroke="#999999" points="308.5,-74 263.5,-74 263.5,-55 308.5,-55 308.5,-74"/>
<text text-anchor="middle" x="286" y="-62" font-family="Helvetica,sans-Serif" font-size="10.00" fill="#000000">cstdlib</text>
</a>
</g>
</g>
<!-- Node4&#45;&gt;Node10 -->
<g id="edge9" class="edge">
<title>Node4&#45;&gt;Node10</title>
<path fill="none" stroke="#63b8ff" d="M328.1165,-109.9197C320.9648,-102.2072 310.7247,-91.1639 302.1325,-81.8978"/>
<polygon fill="#63b8ff" stroke="#63b8ff" points="304.491,-79.2937 295.1251,-74.3408 299.3581,-84.0533 304.491,-79.2937"/>
</g>
<!-- Node11 -->
<g id="node11" class="node">
<title>Node11</title>
<g id="a_node11"><a xlink:title=" ">
<polygon fill="#e0e0e0" stroke="#999999" points="413,-19 367,-19 367,0 413,0 413,-19"/>
<text text-anchor="middle" x="390" y="-7" font-family="Helvetica,sans-Serif" font-size="10.00" fill="#000000">cstdint</text>
</a>
</g>
</g>
<!-- Node4&#45;&gt;Node11 -->
<g id="edge10" class="edge">
<title>Node4&#45;&gt;Node11</title>
<path fill="none" stroke="#63b8ff" d="M338.7124,-109.9228C341.2716,-96.9691 346.8033,-73.3724 356,-55 360.9272,-45.1569 368.0218,-35.2469 374.457,-27.1998"/>
<polygon fill="#63b8ff" stroke="#63b8ff" points="377.3348,-29.2135 381.0472,-19.2903 371.9569,-24.7326 377.3348,-29.2135"/>
</g>
<!-- Node12 -->
<g id="node12" class="node">
<title>Node12</title>
<g id="a_node12"><a xlink:title=" ">
<polygon fill="#e0e0e0" stroke="#999999" points="417,-74 365,-74 365,-55 417,-55 417,-74"/>
<text text-anchor="middle" x="391" y="-62" font-family="Helvetica,sans-Serif" font-size="10.00" fill="#000000">ostream</text>
</a>
</g>
</g>
<!-- Node4&#45;&gt;Node12 -->
<g id="edge11" class="edge">
<title>Node4&#45;&gt;Node12</title>
<path fill="none" stroke="#63b8ff" d="M346.4061,-109.9197C354.0549,-102.1293 365.0403,-90.9405 374.1936,-81.6176"/>
<polygon fill="#63b8ff" stroke="#63b8ff" points="376.8296,-83.9286 381.3381,-74.3408 371.8347,-79.0244 376.8296,-83.9286"/>
</g>
<!-- Node13 -->
<g id="node13" class="node">
<title>Node13</title>
<g id="a_node13"><a xlink:href="../../db/d7c/utf8_8h.html" target="_top" xlink:title="Various UTF8 related helper functions.">
<polygon fill="#ffffff" stroke="#666666" points="476.5,-74 435.5,-74 435.5,-55 476.5,-55 476.5,-74"/>
<text text-anchor="middle" x="456" y="-62" font-family="Helvetica,sans-Serif" font-size="10.00" fill="#000000">utf8.h</text>
</a>
</g>
</g>
<!-- Node4&#45;&gt;Node13 -->
<g id="edge12" class="edge">
<title>Node4&#45;&gt;Node13</title>
<path fill="none" stroke="#63b8ff" d="M357.7282,-109.9197C376.5535,-101.219 404.5505,-88.2792 425.8513,-78.4343"/>
<polygon fill="#63b8ff" stroke="#63b8ff" points="427.5011,-81.5276 435.11,-74.155 424.5643,-75.1734 427.5011,-81.5276"/>
</g>
<!-- Node13&#45;&gt;Node5 -->
<g id="edge14" class="edge">
<title>Node13&#45;&gt;Node5</title>
<path fill="none" stroke="#63b8ff" d="M460.1805,-54.9197C463.342,-47.6746 467.7861,-37.4903 471.665,-28.601"/>
<polygon fill="#63b8ff" stroke="#63b8ff" points="474.9142,-29.9061 475.7058,-19.3408 468.4984,-27.1064 474.9142,-29.9061"/>
</g>
<!-- Node13&#45;&gt;Node11 -->
<g id="edge13" class="edge">
<title>Node13&#45;&gt;Node11</title>
<path fill="none" stroke="#63b8ff" d="M444.5037,-54.9197C434.8747,-46.8956 420.9193,-35.2661 409.5405,-25.7837"/>
<polygon fill="#63b8ff" stroke="#63b8ff" points="411.7319,-23.0539 401.809,-19.3408 407.2506,-28.4315 411.7319,-23.0539"/>
</g>
<!-- Node14&#45;&gt;Node3 -->
<g id="edge17" class="edge">
<title>Node14&#45;&gt;Node3</title>
<path fill="none" stroke="#63b8ff" d="M586.2518,-109.9197C581.8113,-102.5188 575.5305,-92.0509 570.1176,-83.0294"/>
<polygon fill="#63b8ff" stroke="#63b8ff" points="573.0507,-81.115 564.9045,-74.3408 567.0483,-84.7165 573.0507,-81.115"/>
</g>
<!-- Node15 -->
<g id="node15" class="node">
<title>Node15</title>
<g id="a_node15"><a xlink:title=" ">
<polygon fill="#e0e0e0" stroke="#999999" points="647,-74 603,-74 603,-55 647,-55 647,-74"/>
<text text-anchor="middle" x="625" y="-62" font-family="Helvetica,sans-Serif" font-size="10.00" fill="#000000">vector</text>
</a>
</g>
</g>
<!-- Node14&#45;&gt;Node15 -->
<g id="edge16" class="edge">
<title>Node14&#45;&gt;Node15</title>
<path fill="none" stroke="#63b8ff" d="M597.7482,-109.9197C602.1887,-102.5188 608.4695,-92.0509 613.8824,-83.0294"/>
<polygon fill="#63b8ff" stroke="#63b8ff" points="616.9517,-84.7165 619.0955,-74.3408 610.9493,-81.115 616.9517,-84.7165"/>
</g>
<!-- Node16 -->
<g id="node16" class="node">
<title>Node16</title>
<g id="a_node16"><a xlink:title=" ">
<polygon fill="#e0e0e0" stroke="#999999" points="712.5,-74 665.5,-74 665.5,-55 712.5,-55 712.5,-74"/>
<text text-anchor="middle" x="689" y="-62" font-family="Helvetica,sans-Serif" font-size="10.00" fill="#000000">iterator</text>
</a>
</g>
</g>
<!-- Node14&#45;&gt;Node16 -->
<g id="edge18" class="edge">
<title>Node14&#45;&gt;Node16</title>
<path fill="none" stroke="#63b8ff" d="M608.8961,-109.9197C623.8264,-101.4541 645.834,-88.9755 663.0055,-79.2391"/>
<polygon fill="#63b8ff" stroke="#63b8ff" points="664.9995,-82.1321 671.972,-74.155 661.5467,-76.0428 664.9995,-82.1321"/>
</g>
</g>
</svg>
