<?xml version="1.0" encoding="UTF-8" standalone="no"?>
<!DOCTYPE svg PUBLIC "-//W3C//DTD SVG 1.1//EN"
 "http://www.w3.org/Graphics/SVG/1.1/DTD/svg11.dtd">
<!-- Generated by graphviz version 2.40.1 (20161225.0304)
 -->
<!-- Title: FileTreeContext::Private Pages: 1 -->
<!--zoomable 160 -->
<svg id="main" version="1.1" xmlns="http://www.w3.org/2000/svg" xmlns:xlink="http://www.w3.org/1999/xlink" xml:space="preserve" onload="init(evt)">
<style type="text/css"><![CDATA[
.edge:hover path { stroke: red; }
.edge:hover polygon { stroke: red; fill: red; }
]]></style>
<script type="text/javascript"><![CDATA[
var edges = document.getElementsByTagName('g');
if (edges && edges.length) {
  for (var i=0;i<edges.length;i++) {
    if (edges[i].id.substr(0,4)=='edge') {
      edges[i].setAttribute('class','edge');
    }
  }
}
]]></script>
        <defs>
                <circle id="rim" cx="0" cy="0" r="7"/>
                <circle id="rim2" cx="0" cy="0" r="3.5"/>
                <g id="zoomPlus">
                        <use xlink:href="#rim" fill="#404040">
                                <set attributeName="fill" to="#808080" begin="zoomplus.mouseover" end="zoomplus.mouseout"/>
                        </use>
                        <path d="M-4,0h8M0,-4v8" fill="none" stroke="white" stroke-width="1.5" pointer-events="none"/>
                </g>
                <g id="zoomMin">
                        <use xlink:href="#rim" fill="#404040">
                                <set attributeName="fill" to="#808080" begin="zoomminus.mouseover" end="zoomminus.mouseout"/>
                        </use>
                        <path d="M-4,0h8" fill="none" stroke="white" stroke-width="1.5" pointer-events="none"/>
                </g>
                <g id="dirArrow">
                        <path fill="none" stroke="white" stroke-width="1.5" d="M0,-3.0v7 M-2.5,-0.5L0,-3.0L2.5,-0.5"/>
                </g>
               <g id="resetDef">
                       <use xlink:href="#rim2" fill="#404040">
                               <set attributeName="fill" to="#808080" begin="reset.mouseover" end="reset.mouseout"/>
                       </use>
               </g>
        </defs>

<script type="text/javascript">
var viewWidth = 718;
var viewHeight = 160;
var sectionId = 'dynsection-0';
</script>
<script xlink:href="../../svgpan.js"/>
<svg id="graph" class="graph">
<g id="viewport">
<title>FileTreeContext::Private</title>
<!-- Node1 -->
<g id="node1" class="node">
<title>Node1</title>
<g id="a_node1"><a xlink:title=" ">
<polygon fill="#999999" stroke="#666666" points="710,-78.5 587,-78.5 587,-59.5 710,-59.5 710,-78.5"/>
<text text-anchor="middle" x="648.5" y="-66.5" font-family="Helvetica,sans-Serif" font-size="10.00" fill="#000000">FileTreeContext::Private</text>
</a>
</g>
</g>
<!-- Node2 -->
<g id="node2" class="node">
<title>Node2</title>
<g id="a_node2"><a xlink:href="../../d7/dc1/class_cached_item.html" target="_top" xlink:title=" ">
<polygon fill="#ffffff" stroke="#666666" points="459,-148.5 328,-148.5 328,-107.5 459,-107.5 459,-148.5"/>
<text text-anchor="start" x="336" y="-136.5" font-family="Helvetica,sans-Serif" font-size="10.00" fill="#000000">CachedItem&lt; int, FileTree</text>
<text text-anchor="start" x="336" y="-125.5" font-family="Helvetica,sans-Serif" font-size="10.00" fill="#000000">Context::Private, &amp;Private</text>
<text text-anchor="middle" x="393.5" y="-114.5" font-family="Helvetica,sans-Serif" font-size="10.00" fill="#000000">::createMaxDepth &gt;</text>
</a>
</g>
</g>
<!-- Node2&#45;&gt;Node1 -->
<g id="edge1" class="edge">
<title>Node2&#45;&gt;Node1</title>
<path fill="none" stroke="#9a32cd" stroke-dasharray="5,2" d="M468.9561,-110.5415C514.2464,-100.0626 570.1134,-87.1365 607.386,-78.5126"/>
<polygon fill="#9a32cd" stroke="#9a32cd" points="468.1225,-107.1419 459.1688,-112.806 469.7004,-113.9617 468.1225,-107.1419"/>
<text text-anchor="middle" x="528" y="-108" font-family="Helvetica,sans-Serif" font-size="10.00" fill="#000000"> m_maxDepth</text>
</g>
<!-- Node3 -->
<g id="node3" class="node">
<title>Node3</title>
<g id="a_node3"><a xlink:href="../../d7/dc1/class_cached_item.html" target="_top" xlink:title="Wrapper for data that needs to be cached.">
<polygon fill="#ffffff" stroke="#666666" points="128,-113 0,-113 0,-83 128,-83 128,-113"/>
<text text-anchor="start" x="8" y="-101" font-family="Helvetica,sans-Serif" font-size="10.00" fill="#000000">CachedItem&lt; T, TOwner,</text>
<text text-anchor="middle" x="64" y="-90" font-family="Helvetica,sans-Serif" font-size="10.00" fill="#000000"> creator &gt;</text>
</a>
</g>
</g>
<!-- Node3&#45;&gt;Node2 -->
<g id="edge2" class="edge">
<title>Node3&#45;&gt;Node2</title>
<path fill="none" stroke="#ffa500" stroke-dasharray="5,2" d="M138.3443,-104.7688C195.3432,-109.9584 273.2552,-117.0521 327.9404,-122.031"/>
<polygon fill="#ffa500" stroke="#ffa500" points="138.5893,-101.2767 128.3131,-103.8555 137.9545,-108.2479 138.5893,-101.2767"/>
<text text-anchor="start" x="156.5" y="-144" font-family="Helvetica,sans-Serif" font-size="10.00" fill="#000000"> &lt; int, FileTreeContext</text>
<text text-anchor="start" x="156.5" y="-133" font-family="Helvetica,sans-Serif" font-size="10.00" fill="#000000">::Private, &amp;Private::createMax</text>
<text text-anchor="middle" x="223" y="-122" font-family="Helvetica,sans-Serif" font-size="10.00" fill="#000000">Depth &gt;</text>
</g>
<!-- Node4 -->
<g id="node4" class="node">
<title>Node4</title>
<g id="a_node4"><a xlink:href="../../d7/dc1/class_cached_item.html" target="_top" xlink:title=" ">
<polygon fill="#ffffff" stroke="#666666" points="459,-89.5 328,-89.5 328,-48.5 459,-48.5 459,-89.5"/>
<text text-anchor="start" x="336" y="-77.5" font-family="Helvetica,sans-Serif" font-size="10.00" fill="#000000">CachedItem&lt; int, FileTree</text>
<text text-anchor="start" x="336" y="-66.5" font-family="Helvetica,sans-Serif" font-size="10.00" fill="#000000">Context::Private, &amp;Private</text>
<text text-anchor="middle" x="393.5" y="-55.5" font-family="Helvetica,sans-Serif" font-size="10.00" fill="#000000">::createPreferredDepth &gt;</text>
</a>
</g>
</g>
<!-- Node3&#45;&gt;Node4 -->
<g id="edge4" class="edge">
<title>Node3&#45;&gt;Node4</title>
<path fill="none" stroke="#ffa500" stroke-dasharray="5,2" d="M113.08,-79.8584C123.7888,-76.6302 135.1626,-73.7443 146,-72 207.0933,-62.1669 277.7672,-62.4468 327.9132,-64.5739"/>
<polygon fill="#ffa500" stroke="#ffa500" points="111.9473,-76.5457 103.4668,-82.8964 114.0566,-83.2203 111.9473,-76.5457"/>
<text text-anchor="start" x="146" y="-97" font-family="Helvetica,sans-Serif" font-size="10.00" fill="#000000"> &lt; int, FileTreeContext</text>
<text text-anchor="start" x="146" y="-86" font-family="Helvetica,sans-Serif" font-size="10.00" fill="#000000">::Private, &amp;Private::createPreferred</text>
<text text-anchor="middle" x="223" y="-75" font-family="Helvetica,sans-Serif" font-size="10.00" fill="#000000">Depth &gt;</text>
</g>
<!-- Node4&#45;&gt;Node1 -->
<g id="edge3" class="edge">
<title>Node4&#45;&gt;Node1</title>
<path fill="none" stroke="#9a32cd" stroke-dasharray="5,2" d="M469.5434,-69C507.0455,-69 551.6843,-69 586.9977,-69"/>
<polygon fill="#9a32cd" stroke="#9a32cd" points="469.1689,-65.5001 459.1688,-69 469.1688,-72.5001 469.1689,-65.5001"/>
<text text-anchor="middle" x="528" y="-72" font-family="Helvetica,sans-Serif" font-size="10.00" fill="#000000"> m_preferredDepth</text>
</g>
<!-- Node5 -->
<g id="node5" class="node">
<title>Node5</title>
<g id="a_node5"><a xlink:href="../../d5/dbf/class_property_map.html" target="_top" xlink:title=" ">
<polygon fill="#ffffff" stroke="#666666" points="469,-30 318,-30 318,0 469,0 469,-30"/>
<text text-anchor="start" x="326" y="-18" font-family="Helvetica,sans-Serif" font-size="10.00" fill="#000000">PropertyMap&lt; FileTreeContext</text>
<text text-anchor="middle" x="393.5" y="-7" font-family="Helvetica,sans-Serif" font-size="10.00" fill="#000000">::Private &gt;</text>
</a>
</g>
</g>
<!-- Node5&#45;&gt;Node1 -->
<g id="edge5" class="edge">
<title>Node5&#45;&gt;Node1</title>
<path fill="none" stroke="#9a32cd" stroke-dasharray="5,2" d="M474.3495,-32.1211C517.0402,-41.1614 567.8244,-51.9158 603.5027,-59.4712"/>
<polygon fill="#9a32cd" stroke="#9a32cd" points="475.0399,-28.6897 464.5317,-30.042 473.5896,-35.5379 475.0399,-28.6897"/>
<text text-anchor="middle" x="528" y="-54" font-family="Helvetica,sans-Serif" font-size="10.00" fill="#000000"> s_inst</text>
</g>
<!-- Node6 -->
<g id="node6" class="node">
<title>Node6</title>
<g id="a_node6"><a xlink:href="../../d5/dbf/class_property_map.html" target="_top" xlink:title="Class representing a mapping of properties and the corresponding getter function.">
<polygon fill="#ffffff" stroke="#666666" points="112,-24.5 16,-24.5 16,-5.5 112,-5.5 112,-24.5"/>
<text text-anchor="middle" x="64" y="-12.5" font-family="Helvetica,sans-Serif" font-size="10.00" fill="#000000">PropertyMap&lt; T &gt;</text>
</a>
</g>
</g>
<!-- Node6&#45;&gt;Node5 -->
<g id="edge6" class="edge">
<title>Node6&#45;&gt;Node5</title>
<path fill="none" stroke="#ffa500" stroke-dasharray="5,2" d="M122.4506,-15C176.9444,-15 258.5159,-15 317.9339,-15"/>
<polygon fill="#ffa500" stroke="#ffa500" points="122.265,-11.5001 112.265,-15 122.265,-18.5001 122.265,-11.5001"/>
<text text-anchor="start" x="179" y="-29" font-family="Helvetica,sans-Serif" font-size="10.00" fill="#000000"> &lt; FileTreeContext::</text>
<text text-anchor="middle" x="223" y="-18" font-family="Helvetica,sans-Serif" font-size="10.00" fill="#000000">Private &gt;</text>
</g>
</g>
</svg>
        <g id="navigator" transform="translate(0 0)" fill="#404254">
                <rect fill="#f2f5e9" fill-opacity="0.5" stroke="#606060" stroke-width=".5" x="0" y="0" width="60" height="60"/>
                <use id="zoomplus" xlink:href="#zoomPlus" x="17" y="9" onmousedown="handleZoom(evt,'in')"/>
                <use id="zoomminus" xlink:href="#zoomMin" x="42" y="9" onmousedown="handleZoom(evt,'out')"/>
                <use id="reset" xlink:href="#resetDef" x="30" y="36" onmousedown="handleReset()"/>
                <g id="arrowUp" xlink:href="#dirArrow" transform="translate(30 24)" onmousedown="handlePan(0,-1)">
                  <use xlink:href="#rim" fill="#404040">
                        <set attributeName="fill" to="#808080" begin="arrowUp.mouseover" end="arrowUp.mouseout"/>
                  </use>
                  <path fill="none" stroke="white" stroke-width="1.5" d="M0,-3.0v7 M-2.5,-0.5L0,-3.0L2.5,-0.5"/>
                </g>
                <g id="arrowRight" xlink:href="#dirArrow" transform="rotate(90) translate(36 -43)" onmousedown="handlePan(1,0)">
                  <use xlink:href="#rim" fill="#404040">
                        <set attributeName="fill" to="#808080" begin="arrowRight.mouseover" end="arrowRight.mouseout"/>
                  </use>
                  <path fill="none" stroke="white" stroke-width="1.5" d="M0,-3.0v7 M-2.5,-0.5L0,-3.0L2.5,-0.5"/>
                </g>
                <g id="arrowDown" xlink:href="#dirArrow" transform="rotate(180) translate(-30 -48)" onmousedown="handlePan(0,1)">
                  <use xlink:href="#rim" fill="#404040">
                        <set attributeName="fill" to="#808080" begin="arrowDown.mouseover" end="arrowDown.mouseout"/>
                  </use>
                  <path fill="none" stroke="white" stroke-width="1.5" d="M0,-3.0v7 M-2.5,-0.5L0,-3.0L2.5,-0.5"/>
                </g>
                <g id="arrowLeft" xlink:href="#dirArrow" transform="rotate(270) translate(-36 17)" onmousedown="handlePan(-1,0)">
                  <use xlink:href="#rim" fill="#404040">
                        <set attributeName="fill" to="#808080" begin="arrowLeft.mouseover" end="arrowLeft.mouseout"/>
                  </use>
                  <path fill="none" stroke="white" stroke-width="1.5" d="M0,-3.0v7 M-2.5,-0.5L0,-3.0L2.5,-0.5"/>
                </g>
        </g>
        <svg viewBox="0 0 15 15" width="100%" height="30px" preserveAspectRatio="xMaxYMin meet">
         <g id="arrow_out" transform="scale(0.3 0.3)">
          <a xlink:href="class_file_tree_context_1_1_private__coll__graph_org.svg" target="_base">
           <rect id="button" ry="5" rx="5" y="6" x="6" height="38" width="38"
                fill="#f2f5e9" fill-opacity="0.5" stroke="#606060" stroke-width="1.0"/>
           <path id="arrow"
             d="M 11.500037,31.436501 C 11.940474,20.09759 22.043105,11.32322 32.158766,21.979434 L 37.068811,17.246167 C 37.068811,17.246167 37.088388,32 37.088388,32 L 22.160133,31.978069 C 22.160133,31.978069 26.997745,27.140456 26.997745,27.140456 C 18.528582,18.264221 13.291696,25.230495 11.500037,31.436501 z"
             style="fill:#404040;"/>
          </a>
         </g>
        </svg>
</svg>
