<?xml version="1.0" encoding="UTF-8" standalone="no"?>
<!DOCTYPE svg PUBLIC "-//W3C//DTD SVG 1.1//EN"
 "http://www.w3.org/Graphics/SVG/1.1/DTD/svg11.dtd">
<!-- Generated by graphviz version 2.40.1 (20161225.0304)
 -->
<!-- Title: DefinitionMixin&lt; Base &gt; Pages: 1 -->
<!--zoomable 332 -->
<svg id="main" version="1.1" xmlns="http://www.w3.org/2000/svg" xmlns:xlink="http://www.w3.org/1999/xlink" xml:space="preserve" onload="init(evt)">
<style type="text/css"><![CDATA[
.edge:hover path { stroke: red; }
.edge:hover polygon { stroke: red; fill: red; }
]]></style>
<script type="text/javascript"><![CDATA[
var edges = document.getElementsByTagName('g');
if (edges && edges.length) {
  for (var i=0;i<edges.length;i++) {
    if (edges[i].id.substr(0,4)=='edge') {
      edges[i].setAttribute('class','edge');
    }
  }
}
]]></script>
        <defs>
                <circle id="rim" cx="0" cy="0" r="7"/>
                <circle id="rim2" cx="0" cy="0" r="3.5"/>
                <g id="zoomPlus">
                        <use xlink:href="#rim" fill="#404040">
                                <set attributeName="fill" to="#808080" begin="zoomplus.mouseover" end="zoomplus.mouseout"/>
                        </use>
                        <path d="M-4,0h8M0,-4v8" fill="none" stroke="white" stroke-width="1.5" pointer-events="none"/>
                </g>
                <g id="zoomMin">
                        <use xlink:href="#rim" fill="#404040">
                                <set attributeName="fill" to="#808080" begin="zoomminus.mouseover" end="zoomminus.mouseout"/>
                        </use>
                        <path d="M-4,0h8" fill="none" stroke="white" stroke-width="1.5" pointer-events="none"/>
                </g>
                <g id="dirArrow">
                        <path fill="none" stroke="white" stroke-width="1.5" d="M0,-3.0v7 M-2.5,-0.5L0,-3.0L2.5,-0.5"/>
                </g>
               <g id="resetDef">
                       <use xlink:href="#rim2" fill="#404040">
                               <set attributeName="fill" to="#808080" begin="reset.mouseover" end="reset.mouseout"/>
                       </use>
               </g>
        </defs>

<script type="text/javascript">
var viewWidth = 650;
var viewHeight = 332;
var sectionId = 'dynsection-0';
</script>
<script xlink:href="../../svgpan.js"/>
<svg id="graph" class="graph">
<g id="viewport">
<title>DefinitionMixin&lt; Base &gt;</title>
<!-- Node1 -->
<g id="node1" class="node">
<title>Node1</title>
<g id="a_node1"><a xlink:title=" ">
<polygon fill="#999999" stroke="#666666" points="198,-171 76,-171 76,-152 198,-152 198,-171"/>
<text text-anchor="middle" x="137" y="-159" font-family="Helvetica,sans-Serif" font-size="10.00" fill="#000000">DefinitionMixin&lt; Base &gt;</text>
</a>
</g>
</g>
<!-- Node3 -->
<g id="node3" class="node">
<title>Node3</title>
<g id="a_node3"><a xlink:href="../../dd/d10/class_definition_mixin.html" target="_top" xlink:title=" ">
<polygon fill="#ffffff" stroke="#666666" points="495,-323.5 364,-323.5 364,-293.5 495,-293.5 495,-323.5"/>
<text text-anchor="start" x="372" y="-311.5" font-family="Helvetica,sans-Serif" font-size="10.00" fill="#000000">DefinitionMixin&lt; ClassDef</text>
<text text-anchor="middle" x="429.5" y="-300.5" font-family="Helvetica,sans-Serif" font-size="10.00" fill="#000000">Mutable &gt;</text>
</a>
</g>
</g>
<!-- Node1&#45;&gt;Node3 -->
<g id="edge2" class="edge">
<title>Node1&#45;&gt;Node3</title>
<path fill="none" stroke="#ffa500" stroke-dasharray="5,2" d="M145.1559,-180.4738C156.9375,-205.4346 181.1905,-248.6816 216,-270.5 260.1816,-298.1929 319.0483,-307.0437 363.7786,-309.3345"/>
<polygon fill="#ffa500" stroke="#ffa500" points="148.3157,-178.9668 141.0014,-171.3019 141.9393,-181.8551 148.3157,-178.9668"/>
<text text-anchor="middle" x="278" y="-309.5" font-family="Helvetica,sans-Serif" font-size="10.00" fill="#000000"> &lt; ClassDefMutable &gt;</text>
</g>
<!-- Node5 -->
<g id="node5" class="node">
<title>Node5</title>
<g id="a_node5"><a xlink:href="../../dd/d10/class_definition_mixin.html" target="_top" xlink:title=" ">
<polygon fill="#ffffff" stroke="#666666" points="493,-275.5 366,-275.5 366,-245.5 493,-245.5 493,-275.5"/>
<text text-anchor="start" x="374" y="-263.5" font-family="Helvetica,sans-Serif" font-size="10.00" fill="#000000">DefinitionMixin&lt; Concept</text>
<text text-anchor="middle" x="429.5" y="-252.5" font-family="Helvetica,sans-Serif" font-size="10.00" fill="#000000">DefMutable &gt;</text>
</a>
</g>
</g>
<!-- Node1&#45;&gt;Node5 -->
<g id="edge4" class="edge">
<title>Node1&#45;&gt;Node5</title>
<path fill="none" stroke="#ffa500" stroke-dasharray="5,2" d="M153.5036,-178.8957C168.4068,-193.4867 191.6742,-213.6333 216,-224.5 263.5338,-245.7342 322.1255,-254.5295 365.8972,-258.1299"/>
<polygon fill="#ffa500" stroke="#ffa500" points="155.6558,-176.0952 146.131,-171.4554 150.6835,-181.0223 155.6558,-176.0952"/>
<text text-anchor="middle" x="278" y="-258.5" font-family="Helvetica,sans-Serif" font-size="10.00" fill="#000000"> &lt; ConceptDefMutable &gt;</text>
</g>
<!-- Node7 -->
<g id="node7" class="node">
<title>Node7</title>
<g id="a_node7"><a xlink:href="../../dd/d10/class_definition_mixin.html" target="_top" xlink:title=" ">
<polygon fill="#ffffff" stroke="#666666" points="493.5,-227 365.5,-227 365.5,-208 493.5,-208 493.5,-227"/>
<text text-anchor="middle" x="429.5" y="-215" font-family="Helvetica,sans-Serif" font-size="10.00" fill="#000000">DefinitionMixin&lt; DirDef &gt;</text>
</a>
</g>
</g>
<!-- Node1&#45;&gt;Node7 -->
<g id="edge6" class="edge">
<title>Node1&#45;&gt;Node7</title>
<path fill="none" stroke="#ffa500" stroke-dasharray="5,2" d="M169.4968,-174.7544C183.5869,-180.0451 200.4012,-185.7569 216,-189.5 265.4379,-201.3633 322.6034,-208.5242 365.3333,-212.6308"/>
<polygon fill="#ffa500" stroke="#ffa500" points="170.3646,-171.338 159.7748,-171.0105 167.8489,-177.8704 170.3646,-171.338"/>
<text text-anchor="middle" x="278" y="-212.5" font-family="Helvetica,sans-Serif" font-size="10.00" fill="#000000"> &lt; DirDef &gt;</text>
</g>
<!-- Node9 -->
<g id="node9" class="node">
<title>Node9</title>
<g id="a_node9"><a xlink:href="../../dd/d10/class_definition_mixin.html" target="_top" xlink:title=" ">
<polygon fill="#ffffff" stroke="#666666" points="495,-190 364,-190 364,-171 495,-171 495,-190"/>
<text text-anchor="middle" x="429.5" y="-178" font-family="Helvetica,sans-Serif" font-size="10.00" fill="#000000">DefinitionMixin&lt; FileDef &gt;</text>
</a>
</g>
</g>
<!-- Node1&#45;&gt;Node9 -->
<g id="edge8" class="edge">
<title>Node1&#45;&gt;Node9</title>
<path fill="none" stroke="#ffa500" stroke-dasharray="5,2" d="M208.5188,-166.1457C255.968,-169.2278 317.7681,-173.2422 363.9448,-176.2417"/>
<polygon fill="#ffa500" stroke="#ffa500" points="208.5235,-162.6387 198.3176,-165.483 208.0697,-169.624 208.5235,-162.6387"/>
<text text-anchor="middle" x="278" y="-177.5" font-family="Helvetica,sans-Serif" font-size="10.00" fill="#000000"> &lt; FileDef &gt;</text>
</g>
<!-- Node11 -->
<g id="node11" class="node">
<title>Node11</title>
<g id="a_node11"><a xlink:href="../../dd/d10/class_definition_mixin.html" target="_top" xlink:title=" ">
<polygon fill="#ffffff" stroke="#666666" points="500,-153 359,-153 359,-134 500,-134 500,-153"/>
<text text-anchor="middle" x="429.5" y="-141" font-family="Helvetica,sans-Serif" font-size="10.00" fill="#000000">DefinitionMixin&lt; GroupDef &gt;</text>
</a>
</g>
</g>
<!-- Node1&#45;&gt;Node11 -->
<g id="edge10" class="edge">
<title>Node1&#45;&gt;Node11</title>
<path fill="none" stroke="#ffa500" stroke-dasharray="5,2" d="M189.8936,-150.1483C198.5798,-148.6617 207.5144,-147.3586 216,-146.5 263.3925,-141.7044 317.0001,-140.9673 358.6427,-141.4226"/>
<polygon fill="#ffa500" stroke="#ffa500" points="189.0713,-146.7401 179.8527,-151.9619 190.3156,-153.6286 189.0713,-146.7401"/>
<text text-anchor="middle" x="278" y="-149.5" font-family="Helvetica,sans-Serif" font-size="10.00" fill="#000000"> &lt; GroupDef &gt;</text>
</g>
<!-- Node13 -->
<g id="node13" class="node">
<title>Node13</title>
<g id="a_node13"><a xlink:href="../../dd/d10/class_definition_mixin.html" target="_top" xlink:title=" ">
<polygon fill="#ffffff" stroke="#666666" points="500,-115.5 359,-115.5 359,-85.5 500,-85.5 500,-115.5"/>
<text text-anchor="start" x="367" y="-103.5" font-family="Helvetica,sans-Serif" font-size="10.00" fill="#000000">DefinitionMixin&lt; MemberDef</text>
<text text-anchor="middle" x="429.5" y="-92.5" font-family="Helvetica,sans-Serif" font-size="10.00" fill="#000000">Mutable &gt;</text>
</a>
</g>
</g>
<!-- Node1&#45;&gt;Node13 -->
<g id="edge12" class="edge">
<title>Node1&#45;&gt;Node13</title>
<path fill="none" stroke="#ffa500" stroke-dasharray="5,2" d="M163.8006,-147.2462C178.7612,-139.9048 197.9688,-131.4731 216,-126.5 262.6146,-113.6434 316.7016,-107.1408 358.7727,-103.8537"/>
<polygon fill="#ffa500" stroke="#ffa500" points="161.9914,-144.2386 154.6377,-151.8658 165.1427,-150.4892 161.9914,-144.2386"/>
<text text-anchor="middle" x="278" y="-129.5" font-family="Helvetica,sans-Serif" font-size="10.00" fill="#000000"> &lt; MemberDefMutable &gt;</text>
</g>
<!-- Node15 -->
<g id="node15" class="node">
<title>Node15</title>
<g id="a_node15"><a xlink:href="../../dd/d10/class_definition_mixin.html" target="_top" xlink:title=" ">
<polygon fill="#ffffff" stroke="#666666" points="501,-67.5 358,-67.5 358,-37.5 501,-37.5 501,-67.5"/>
<text text-anchor="start" x="366" y="-55.5" font-family="Helvetica,sans-Serif" font-size="10.00" fill="#000000">DefinitionMixin&lt; Namespace</text>
<text text-anchor="middle" x="429.5" y="-44.5" font-family="Helvetica,sans-Serif" font-size="10.00" fill="#000000">DefMutable &gt;</text>
</a>
</g>
</g>
<!-- Node1&#45;&gt;Node15 -->
<g id="edge14" class="edge">
<title>Node1&#45;&gt;Node15</title>
<path fill="none" stroke="#ffa500" stroke-dasharray="5,2" d="M151.7864,-143.7416C166.3733,-127.4708 190.1817,-104.0633 216,-91.5 260.2147,-69.985 314.8315,-60.2706 357.7554,-55.9167"/>
<polygon fill="#ffa500" stroke="#ffa500" points="148.9572,-141.6613 145.0372,-151.5043 154.2398,-146.2542 148.9572,-141.6613"/>
<text text-anchor="middle" x="278" y="-94.5" font-family="Helvetica,sans-Serif" font-size="10.00" fill="#000000"> &lt; NamespaceDefMutable &gt;</text>
</g>
<!-- Node17 -->
<g id="node17" class="node">
<title>Node17</title>
<g id="a_node17"><a xlink:href="../../dd/d10/class_definition_mixin.html" target="_top" xlink:title=" ">
<polygon fill="#ffffff" stroke="#666666" points="498,-19 361,-19 361,0 498,0 498,-19"/>
<text text-anchor="middle" x="429.5" y="-7" font-family="Helvetica,sans-Serif" font-size="10.00" fill="#000000">DefinitionMixin&lt; PageDef &gt;</text>
</a>
</g>
</g>
<!-- Node1&#45;&gt;Node17 -->
<g id="edge16" class="edge">
<title>Node1&#45;&gt;Node17</title>
<path fill="none" stroke="#ffa500" stroke-dasharray="5,2" d="M144.0156,-142.4476C154.9617,-115.6163 178.7888,-67.3188 216,-43.5 258.8337,-16.0822 316.1371,-8.1635 360.5925,-6.7834"/>
<polygon fill="#ffa500" stroke="#ffa500" points="140.7057,-141.302 140.3362,-151.8904 147.2281,-143.8435 140.7057,-141.302"/>
<text text-anchor="middle" x="278" y="-46.5" font-family="Helvetica,sans-Serif" font-size="10.00" fill="#000000"> &lt; PageDef &gt;</text>
</g>
<!-- Node2 -->
<g id="node2" class="node">
<title>Node2</title>
<g id="a_node2"><a xlink:title=" ">
<polygon fill="#ffffff" stroke="#666666" points="39,-171 0,-171 0,-152 39,-152 39,-171"/>
<text text-anchor="middle" x="19.5" y="-159" font-family="Helvetica,sans-Serif" font-size="10.00" fill="#000000">Base</text>
</a>
</g>
</g>
<!-- Node2&#45;&gt;Node1 -->
<g id="edge1" class="edge">
<title>Node2&#45;&gt;Node1</title>
<path fill="none" stroke="#63b8ff" d="M49.2747,-161.5C57.4615,-161.5 66.6497,-161.5 75.9155,-161.5"/>
<polygon fill="#63b8ff" stroke="#63b8ff" points="49.1669,-158.0001 39.1669,-161.5 49.1668,-165.0001 49.1669,-158.0001"/>
</g>
<!-- Node4 -->
<g id="node4" class="node">
<title>Node4</title>
<g id="a_node4"><a xlink:href="../../d1/d25/class_class_def_impl.html" target="_top" xlink:title="Implementation of the ClassDef interface.">
<polygon fill="#ffffff" stroke="#666666" points="628.5,-318 551.5,-318 551.5,-299 628.5,-299 628.5,-318"/>
<text text-anchor="middle" x="590" y="-306" font-family="Helvetica,sans-Serif" font-size="10.00" fill="#000000">ClassDefImpl</text>
</a>
</g>
</g>
<!-- Node3&#45;&gt;Node4 -->
<g id="edge3" class="edge">
<title>Node3&#45;&gt;Node4</title>
<path fill="none" stroke="#63b8ff" d="M505.5945,-308.5C521.4315,-308.5 537.4848,-308.5 551.2785,-308.5"/>
<polygon fill="#63b8ff" stroke="#63b8ff" points="505.2446,-305.0001 495.2446,-308.5 505.2446,-312.0001 505.2446,-305.0001"/>
</g>
<!-- Node6 -->
<g id="node6" class="node">
<title>Node6</title>
<g id="a_node6"><a xlink:href="../../d8/d72/class_concept_def_impl.html" target="_top" xlink:title=" ">
<polygon fill="#ffffff" stroke="#666666" points="634,-270 546,-270 546,-251 634,-251 634,-270"/>
<text text-anchor="middle" x="590" y="-258" font-family="Helvetica,sans-Serif" font-size="10.00" fill="#000000">ConceptDefImpl</text>
</a>
</g>
</g>
<!-- Node5&#45;&gt;Node6 -->
<g id="edge5" class="edge">
<title>Node5&#45;&gt;Node6</title>
<path fill="none" stroke="#63b8ff" d="M503.737,-260.5C518.0381,-260.5 532.5952,-260.5 545.5781,-260.5"/>
<polygon fill="#63b8ff" stroke="#63b8ff" points="503.3951,-257.0001 493.395,-260.5 503.395,-264.0001 503.3951,-257.0001"/>
</g>
<!-- Node8 -->
<g id="node8" class="node">
<title>Node8</title>
<g id="a_node8"><a xlink:href="../../d8/db7/class_dir_def_impl.html" target="_top" xlink:title=" ">
<polygon fill="#ffffff" stroke="#666666" points="622,-227 558,-227 558,-208 622,-208 622,-227"/>
<text text-anchor="middle" x="590" y="-215" font-family="Helvetica,sans-Serif" font-size="10.00" fill="#000000">DirDefImpl</text>
</a>
</g>
</g>
<!-- Node7&#45;&gt;Node8 -->
<g id="edge7" class="edge">
<title>Node7&#45;&gt;Node8</title>
<path fill="none" stroke="#63b8ff" d="M503.9918,-217.5C522.912,-217.5 542.2613,-217.5 557.8039,-217.5"/>
<polygon fill="#63b8ff" stroke="#63b8ff" points="503.8567,-214.0001 493.8567,-217.5 503.8567,-221.0001 503.8567,-214.0001"/>
</g>
<!-- Node10 -->
<g id="node10" class="node">
<title>Node10</title>
<g id="a_node10"><a xlink:href="../../d5/d14/class_file_def_impl.html" target="_top" xlink:title=" ">
<polygon fill="#ffffff" stroke="#666666" points="623.5,-190 556.5,-190 556.5,-171 623.5,-171 623.5,-190"/>
<text text-anchor="middle" x="590" y="-178" font-family="Helvetica,sans-Serif" font-size="10.00" fill="#000000">FileDefImpl</text>
</a>
</g>
</g>
<!-- Node9&#45;&gt;Node10 -->
<g id="edge9" class="edge">
<title>Node9&#45;&gt;Node10</title>
<path fill="none" stroke="#63b8ff" d="M505.6398,-180.5C523.3927,-180.5 541.4145,-180.5 556.2179,-180.5"/>
<polygon fill="#63b8ff" stroke="#63b8ff" points="505.2446,-177.0001 495.2446,-180.5 505.2446,-184.0001 505.2446,-177.0001"/>
</g>
<!-- Node12 -->
<g id="node12" class="node">
<title>Node12</title>
<g id="a_node12"><a xlink:href="../../db/d22/class_group_def_impl.html" target="_top" xlink:title=" ">
<polygon fill="#ffffff" stroke="#666666" points="628.5,-153 551.5,-153 551.5,-134 628.5,-134 628.5,-153"/>
<text text-anchor="middle" x="590" y="-141" font-family="Helvetica,sans-Serif" font-size="10.00" fill="#000000">GroupDefImpl</text>
</a>
</g>
</g>
<!-- Node11&#45;&gt;Node12 -->
<g id="edge11" class="edge">
<title>Node11&#45;&gt;Node12</title>
<path fill="none" stroke="#63b8ff" d="M510.6431,-143.5C524.7841,-143.5 538.8882,-143.5 551.1986,-143.5"/>
<polygon fill="#63b8ff" stroke="#63b8ff" points="510.3649,-140.0001 500.3648,-143.5 510.3648,-147.0001 510.3649,-140.0001"/>
</g>
<!-- Node14 -->
<g id="node14" class="node">
<title>Node14</title>
<g id="a_node14"><a xlink:href="../../d7/d7e/class_member_def_impl.html" target="_top" xlink:title=" ">
<polygon fill="#ffffff" stroke="#666666" points="633,-110 547,-110 547,-91 633,-91 633,-110"/>
<text text-anchor="middle" x="590" y="-98" font-family="Helvetica,sans-Serif" font-size="10.00" fill="#000000">MemberDefImpl</text>
</a>
</g>
</g>
<!-- Node13&#45;&gt;Node14 -->
<g id="edge13" class="edge">
<title>Node13&#45;&gt;Node14</title>
<path fill="none" stroke="#63b8ff" d="M510.3976,-100.5C522.931,-100.5 535.4434,-100.5 546.7118,-100.5"/>
<polygon fill="#63b8ff" stroke="#63b8ff" points="510.3649,-97.0001 500.3648,-100.5 510.3648,-104.0001 510.3649,-97.0001"/>
</g>
<!-- Node16 -->
<g id="node16" class="node">
<title>Node16</title>
<g id="a_node16"><a xlink:href="../../d5/dfa/class_namespace_def_impl.html" target="_top" xlink:title=" ">
<polygon fill="#ffffff" stroke="#666666" points="642,-62 538,-62 538,-43 642,-43 642,-62"/>
<text text-anchor="middle" x="590" y="-50" font-family="Helvetica,sans-Serif" font-size="10.00" fill="#000000">NamespaceDefImpl</text>
</a>
</g>
</g>
<!-- Node15&#45;&gt;Node16 -->
<g id="edge15" class="edge">
<title>Node15&#45;&gt;Node16</title>
<path fill="none" stroke="#63b8ff" d="M511.4695,-52.5C520.4873,-52.5 529.4762,-52.5 537.9803,-52.5"/>
<polygon fill="#63b8ff" stroke="#63b8ff" points="511.3001,-49.0001 501.3001,-52.5 511.3,-56.0001 511.3001,-49.0001"/>
</g>
<!-- Node18 -->
<g id="node18" class="node">
<title>Node18</title>
<g id="a_node18"><a xlink:href="../../dd/de8/class_page_def_impl.html" target="_top" xlink:title=" ">
<polygon fill="#ffffff" stroke="#666666" points="627,-19 553,-19 553,0 627,0 627,-19"/>
<text text-anchor="middle" x="590" y="-7" font-family="Helvetica,sans-Serif" font-size="10.00" fill="#000000">PageDefImpl</text>
</a>
</g>
</g>
<!-- Node17&#45;&gt;Node18 -->
<g id="edge17" class="edge">
<title>Node17&#45;&gt;Node18</title>
<path fill="none" stroke="#63b8ff" d="M508.1964,-9.5C523.7182,-9.5 539.3175,-9.5 552.6704,-9.5"/>
<polygon fill="#63b8ff" stroke="#63b8ff" points="508.032,-6.0001 498.032,-9.5 508.032,-13.0001 508.032,-6.0001"/>
</g>
</g>
</svg>
        <g id="navigator" transform="translate(0 0)" fill="#404254">
                <rect fill="#f2f5e9" fill-opacity="0.5" stroke="#606060" stroke-width=".5" x="0" y="0" width="60" height="60"/>
                <use id="zoomplus" xlink:href="#zoomPlus" x="17" y="9" onmousedown="handleZoom(evt,'in')"/>
                <use id="zoomminus" xlink:href="#zoomMin" x="42" y="9" onmousedown="handleZoom(evt,'out')"/>
                <use id="reset" xlink:href="#resetDef" x="30" y="36" onmousedown="handleReset()"/>
                <g id="arrowUp" xlink:href="#dirArrow" transform="translate(30 24)" onmousedown="handlePan(0,-1)">
                  <use xlink:href="#rim" fill="#404040">
                        <set attributeName="fill" to="#808080" begin="arrowUp.mouseover" end="arrowUp.mouseout"/>
                  </use>
                  <path fill="none" stroke="white" stroke-width="1.5" d="M0,-3.0v7 M-2.5,-0.5L0,-3.0L2.5,-0.5"/>
                </g>
                <g id="arrowRight" xlink:href="#dirArrow" transform="rotate(90) translate(36 -43)" onmousedown="handlePan(1,0)">
                  <use xlink:href="#rim" fill="#404040">
                        <set attributeName="fill" to="#808080" begin="arrowRight.mouseover" end="arrowRight.mouseout"/>
                  </use>
                  <path fill="none" stroke="white" stroke-width="1.5" d="M0,-3.0v7 M-2.5,-0.5L0,-3.0L2.5,-0.5"/>
                </g>
                <g id="arrowDown" xlink:href="#dirArrow" transform="rotate(180) translate(-30 -48)" onmousedown="handlePan(0,1)">
                  <use xlink:href="#rim" fill="#404040">
                        <set attributeName="fill" to="#808080" begin="arrowDown.mouseover" end="arrowDown.mouseout"/>
                  </use>
                  <path fill="none" stroke="white" stroke-width="1.5" d="M0,-3.0v7 M-2.5,-0.5L0,-3.0L2.5,-0.5"/>
                </g>
                <g id="arrowLeft" xlink:href="#dirArrow" transform="rotate(270) translate(-36 17)" onmousedown="handlePan(-1,0)">
                  <use xlink:href="#rim" fill="#404040">
                        <set attributeName="fill" to="#808080" begin="arrowLeft.mouseover" end="arrowLeft.mouseout"/>
                  </use>
                  <path fill="none" stroke="white" stroke-width="1.5" d="M0,-3.0v7 M-2.5,-0.5L0,-3.0L2.5,-0.5"/>
                </g>
        </g>
        <svg viewBox="0 0 15 15" width="100%" height="30px" preserveAspectRatio="xMaxYMin meet">
         <g id="arrow_out" transform="scale(0.3 0.3)">
          <a xlink:href="class_definition_mixin__inherit__graph_org.svg" target="_base">
           <rect id="button" ry="5" rx="5" y="6" x="6" height="38" width="38"
                fill="#f2f5e9" fill-opacity="0.5" stroke="#606060" stroke-width="1.0"/>
           <path id="arrow"
             d="M 11.500037,31.436501 C 11.940474,20.09759 22.043105,11.32322 32.158766,21.979434 L 37.068811,17.246167 C 37.068811,17.246167 37.088388,32 37.088388,32 L 22.160133,31.978069 C 22.160133,31.978069 26.997745,27.140456 26.997745,27.140456 C 18.528582,18.264221 13.291696,25.230495 11.500037,31.436501 z"
             style="fill:#404040;"/>
          </a>
         </g>
        </svg>
</svg>
