<?xml version="1.0" encoding="UTF-8" standalone="no"?>
<!DOCTYPE svg PUBLIC "-//W3C//DTD SVG 1.1//EN"
 "http://www.w3.org/Graphics/SVG/1.1/DTD/svg11.dtd">
<!-- Generated by graphviz version 2.40.1 (20161225.0304)
 -->
<!-- Title: VHDLCodeParser::Private Pages: 1 -->
<!--zoomable 295 -->
<svg id="main" version="1.1" xmlns="http://www.w3.org/2000/svg" xmlns:xlink="http://www.w3.org/1999/xlink" xml:space="preserve" onload="init(evt)">
<style type="text/css"><![CDATA[
.edge:hover path { stroke: red; }
.edge:hover polygon { stroke: red; fill: red; }
]]></style>
<script type="text/javascript"><![CDATA[
var edges = document.getElementsByTagName('g');
if (edges && edges.length) {
  for (var i=0;i<edges.length;i++) {
    if (edges[i].id.substr(0,4)=='edge') {
      edges[i].setAttribute('class','edge');
    }
  }
}
]]></script>
        <defs>
                <circle id="rim" cx="0" cy="0" r="7"/>
                <circle id="rim2" cx="0" cy="0" r="3.5"/>
                <g id="zoomPlus">
                        <use xlink:href="#rim" fill="#404040">
                                <set attributeName="fill" to="#808080" begin="zoomplus.mouseover" end="zoomplus.mouseout"/>
                        </use>
                        <path d="M-4,0h8M0,-4v8" fill="none" stroke="white" stroke-width="1.5" pointer-events="none"/>
                </g>
                <g id="zoomMin">
                        <use xlink:href="#rim" fill="#404040">
                                <set attributeName="fill" to="#808080" begin="zoomminus.mouseover" end="zoomminus.mouseout"/>
                        </use>
                        <path d="M-4,0h8" fill="none" stroke="white" stroke-width="1.5" pointer-events="none"/>
                </g>
                <g id="dirArrow">
                        <path fill="none" stroke="white" stroke-width="1.5" d="M0,-3.0v7 M-2.5,-0.5L0,-3.0L2.5,-0.5"/>
                </g>
               <g id="resetDef">
                       <use xlink:href="#rim2" fill="#404040">
                               <set attributeName="fill" to="#808080" begin="reset.mouseover" end="reset.mouseout"/>
                       </use>
               </g>
        </defs>

<script type="text/javascript">
var viewWidth = 584;
var viewHeight = 295;
var sectionId = 'dynsection-0';
</script>
<script xlink:href="../../svgpan.js"/>
<svg id="graph" class="graph">
<g id="viewport">
<title>VHDLCodeParser::Private</title>
<!-- Node1 -->
<g id="node1" class="node">
<title>Node1</title>
<g id="a_node1"><a xlink:title=" ">
<polygon fill="#999999" stroke="#666666" points="329.5,-19 197.5,-19 197.5,0 329.5,0 329.5,-19"/>
<text text-anchor="middle" x="263.5" y="-7" font-family="Helvetica,sans-Serif" font-size="10.00" fill="#000000">VHDLCodeParser::Private</text>
</a>
</g>
</g>
<!-- Node2 -->
<g id="node2" class="node">
<title>Node2</title>
<g id="a_node2"><a xlink:href="../../db/d50/structvhdlcode_y_y__state.html" target="_top" xlink:title=" ">
<polygon fill="#ffffff" stroke="#666666" points="311.5,-85 215.5,-85 215.5,-66 311.5,-66 311.5,-85"/>
<text text-anchor="middle" x="263.5" y="-73" font-family="Helvetica,sans-Serif" font-size="10.00" fill="#000000">vhdlcodeYY_state</text>
</a>
</g>
</g>
<!-- Node2&#45;&gt;Node1 -->
<g id="edge1" class="edge">
<title>Node2&#45;&gt;Node1</title>
<path fill="none" stroke="#9a32cd" stroke-dasharray="5,2" d="M263.5,-55.732C263.5,-43.6966 263.5,-28.847 263.5,-19.2785"/>
<polygon fill="#9a32cd" stroke="#9a32cd" points="260.0001,-55.7614 263.5,-65.7615 267.0001,-55.7615 260.0001,-55.7614"/>
<text text-anchor="middle" x="276" y="-40" font-family="Helvetica,sans-Serif" font-size="10.00" fill="#000000"> state</text>
</g>
<!-- Node3 -->
<g id="node3" class="node">
<title>Node3</title>
<g id="a_node3"><a xlink:href="../../d9/d45/class_q_c_string.html" target="_top" xlink:title="This is an alternative implementation of QCString.">
<polygon fill="#ffffff" stroke="#666666" points="57,-229.5 0,-229.5 0,-210.5 57,-210.5 57,-229.5"/>
<text text-anchor="middle" x="28.5" y="-217.5" font-family="Helvetica,sans-Serif" font-size="10.00" fill="#000000">QCString</text>
</a>
</g>
</g>
<!-- Node3&#45;&gt;Node2 -->
<g id="edge2" class="edge">
<title>Node3&#45;&gt;Node2</title>
<path fill="none" stroke="#9a32cd" stroke-dasharray="5,2" d="M21.7217,-200.6057C14.0948,-174.8694 5.6441,-129.5939 29.5,-103 41.6888,-89.4122 150.6459,-81.4031 215.499,-77.7991"/>
<polygon fill="#9a32cd" stroke="#9a32cd" points="18.4537,-201.8765 24.8433,-210.3277 25.1185,-199.7365 18.4537,-201.8765"/>
<text text-anchor="middle" x="63" y="-183" font-family="Helvetica,sans-Serif" font-size="10.00" fill="#000000"> PortMapComp</text>
<text text-anchor="middle" x="63" y="-172" font-family="Helvetica,sans-Serif" font-size="10.00" fill="#000000">currClass</text>
<text text-anchor="middle" x="63" y="-161" font-family="Helvetica,sans-Serif" font-size="10.00" fill="#000000">exampleFile</text>
<text text-anchor="middle" x="63" y="-150" font-family="Helvetica,sans-Serif" font-size="10.00" fill="#000000">exampleName</text>
<text text-anchor="middle" x="63" y="-139" font-family="Helvetica,sans-Serif" font-size="10.00" fill="#000000">fileName</text>
<text text-anchor="middle" x="63" y="-128" font-family="Helvetica,sans-Serif" font-size="10.00" fill="#000000">funcProto</text>
<text text-anchor="middle" x="63" y="-117" font-family="Helvetica,sans-Serif" font-size="10.00" fill="#000000">prevString</text>
<text text-anchor="middle" x="63" y="-106" font-family="Helvetica,sans-Serif" font-size="10.00" fill="#000000">tempComp</text>
</g>
<!-- Node4 -->
<g id="node4" class="node">
<title>Node4</title>
<g id="a_node4"><a xlink:href="../../da/d09/class_member_def.html" target="_top" xlink:title="A model of a class/file/namespace member symbol.">
<polygon fill="#ffffff" stroke="#666666" points="271.5,-229.5 203.5,-229.5 203.5,-210.5 271.5,-210.5 271.5,-229.5"/>
<text text-anchor="middle" x="237.5" y="-217.5" font-family="Helvetica,sans-Serif" font-size="10.00" fill="#000000">MemberDef</text>
</a>
</g>
</g>
<!-- Node4&#45;&gt;Node2 -->
<g id="edge3" class="edge">
<title>Node4&#45;&gt;Node2</title>
<path fill="none" stroke="#9a32cd" stroke-dasharray="5,2" d="M218.0035,-203.1294C214.938,-199.4658 212.2182,-195.3669 210.5,-191 196.1802,-154.6047 190.1878,-136.423 210.5,-103 215.3453,-95.0272 223.3344,-89.2614 231.6578,-85.1362"/>
<polygon fill="#9a32cd" stroke="#9a32cd" points="215.5485,-205.6256 225.0121,-210.3892 220.5846,-200.7638 215.5485,-205.6256"/>
<text text-anchor="middle" x="253" y="-150" font-family="Helvetica,sans-Serif" font-size="10.00" fill="#000000"> currentMemberDef</text>
<text text-anchor="middle" x="253" y="-139" font-family="Helvetica,sans-Serif" font-size="10.00" fill="#000000">vhdlMember</text>
</g>
<!-- Node5 -->
<g id="node5" class="node">
<title>Node5</title>
<g id="a_node5"><a xlink:href="../../d5/dcc/class_definition.html" target="_top" xlink:title="The common base class of all entity definitions found in the sources.">
<polygon fill="#ffffff" stroke="#666666" points="253.5,-287 195.5,-287 195.5,-268 253.5,-268 253.5,-287"/>
<text text-anchor="middle" x="224.5" y="-275" font-family="Helvetica,sans-Serif" font-size="10.00" fill="#000000">Definition</text>
</a>
</g>
</g>
<!-- Node5&#45;&gt;Node2 -->
<g id="edge6" class="edge">
<title>Node5&#45;&gt;Node2</title>
<path fill="none" stroke="#9a32cd" stroke-dasharray="5,2" d="M185.2374,-271.0408C161.8554,-264.9553 133.9938,-253.2701 119.5,-231 114.1665,-222.8049 116.5961,-218.3366 119.5,-209 136.4888,-154.3788 147.6146,-138.4599 192.5,-103 202.4575,-95.1335 214.9313,-89.2996 226.6338,-85.0802"/>
<polygon fill="#9a32cd" stroke="#9a32cd" points="184.7309,-274.5168 195.2657,-273.3907 186.328,-267.7014 184.7309,-274.5168"/>
<text text-anchor="middle" x="157" y="-223" font-family="Helvetica,sans-Serif" font-size="10.00" fill="#000000"> currentDefinition</text>
<text text-anchor="middle" x="157" y="-212" font-family="Helvetica,sans-Serif" font-size="10.00" fill="#000000">searchCtx</text>
</g>
<!-- Node5&#45;&gt;Node4 -->
<g id="edge4" class="edge">
<title>Node5&#45;&gt;Node4</title>
<path fill="none" stroke="#63b8ff" d="M228.9383,-257.869C231.0949,-248.3302 233.5893,-237.2974 235.3273,-229.61"/>
<polygon fill="#63b8ff" stroke="#63b8ff" points="225.4967,-257.2202 226.7053,-267.7459 232.3244,-258.7639 225.4967,-257.2202"/>
</g>
<!-- Node7 -->
<g id="node7" class="node">
<title>Node7</title>
<g id="a_node7"><a xlink:href="../../de/db0/class_file_def.html" target="_top" xlink:title="A model of a file symbol.">
<polygon fill="#ffffff" stroke="#666666" points="337.5,-229.5 289.5,-229.5 289.5,-210.5 337.5,-210.5 337.5,-229.5"/>
<text text-anchor="middle" x="313.5" y="-217.5" font-family="Helvetica,sans-Serif" font-size="10.00" fill="#000000">FileDef</text>
</a>
</g>
</g>
<!-- Node5&#45;&gt;Node7 -->
<g id="edge9" class="edge">
<title>Node5&#45;&gt;Node7</title>
<path fill="none" stroke="#63b8ff" d="M248.4003,-262.0588C264.391,-251.7277 284.9354,-238.4547 298.6253,-229.61"/>
<polygon fill="#63b8ff" stroke="#63b8ff" points="246.0978,-259.3794 239.5976,-267.7459 249.8965,-265.2591 246.0978,-259.3794"/>
</g>
<!-- Node6 -->
<g id="node6" class="node">
<title>Node6</title>
<g id="a_node6"><a xlink:href="../../d5/d9c/class_code_output_interface.html" target="_top" xlink:title="Output interface for code parser.">
<polygon fill="#ffffff" stroke="#666666" points="463,-229.5 356,-229.5 356,-210.5 463,-210.5 463,-229.5"/>
<text text-anchor="middle" x="409.5" y="-217.5" font-family="Helvetica,sans-Serif" font-size="10.00" fill="#000000">CodeOutputInterface</text>
</a>
</g>
</g>
<!-- Node6&#45;&gt;Node2 -->
<g id="edge5" class="edge">
<title>Node6&#45;&gt;Node2</title>
<path fill="none" stroke="#9a32cd" stroke-dasharray="5,2" d="M410.6492,-200.052C410.9917,-174.0271 407.4351,-128.7816 381.5,-103 371.5049,-93.064 339.6429,-85.9951 311.5446,-81.5142"/>
<polygon fill="#9a32cd" stroke="#9a32cd" points="407.1455,-200.1035 410.3009,-210.2175 414.1413,-200.3432 407.1455,-200.1035"/>
<text text-anchor="middle" x="423" y="-144.5" font-family="Helvetica,sans-Serif" font-size="10.00" fill="#000000"> code</text>
</g>
<!-- Node7&#45;&gt;Node2 -->
<g id="edge7" class="edge">
<title>Node7&#45;&gt;Node2</title>
<path fill="none" stroke="#9a32cd" stroke-dasharray="5,2" d="M314.5007,-200.3705C314.8791,-175.9961 312.6359,-133.8687 295.5,-103 291.5181,-95.8269 284.8953,-89.6666 278.7047,-85.0059"/>
<polygon fill="#9a32cd" stroke="#9a32cd" points="310.9983,-200.3918 314.1725,-210.5 317.9946,-200.6186 310.9983,-200.3918"/>
<text text-anchor="middle" x="345.5" y="-144.5" font-family="Helvetica,sans-Serif" font-size="10.00" fill="#000000"> sourceFileDef</text>
</g>
<!-- Node8 -->
<g id="node8" class="node">
<title>Node8</title>
<g id="a_node8"><a xlink:href="../../d0/d46/class_definition_mutable.html" target="_top" xlink:title=" ">
<polygon fill="#ffffff" stroke="#666666" points="363.5,-287 271.5,-287 271.5,-268 363.5,-268 363.5,-287"/>
<text text-anchor="middle" x="317.5" y="-275" font-family="Helvetica,sans-Serif" font-size="10.00" fill="#000000">DefinitionMutable</text>
</a>
</g>
</g>
<!-- Node8&#45;&gt;Node7 -->
<g id="edge8" class="edge">
<title>Node8&#45;&gt;Node7</title>
<path fill="none" stroke="#63b8ff" d="M316.1129,-257.5608C315.4543,-248.0933 314.6976,-237.2148 314.1685,-229.61"/>
<polygon fill="#63b8ff" stroke="#63b8ff" points="312.6358,-258.0129 316.8215,-267.7459 319.619,-257.5271 312.6358,-258.0129"/>
</g>
<!-- Node9 -->
<g id="node9" class="node">
<title>Node9</title>
<g id="a_node9"><a xlink:href="../../d5/dae/class_tooltip_manager.html" target="_top" xlink:title="Class that manages the tooltips for a source file.">
<polygon fill="#ffffff" stroke="#666666" points="564,-229.5 481,-229.5 481,-210.5 564,-210.5 564,-229.5"/>
<text text-anchor="middle" x="522.5" y="-217.5" font-family="Helvetica,sans-Serif" font-size="10.00" fill="#000000">TooltipManager</text>
</a>
</g>
</g>
<!-- Node9&#45;&gt;Node2 -->
<g id="edge10" class="edge">
<title>Node9&#45;&gt;Node2</title>
<path fill="none" stroke="#9a32cd" stroke-dasharray="5,2" d="M514.8192,-201.0762C502.9398,-174.4322 477.4468,-126.4953 439.5,-103 418.6619,-90.0978 356.1602,-82.6304 311.5742,-78.8139"/>
<polygon fill="#9a32cd" stroke="#9a32cd" points="511.6788,-202.6345 518.8276,-210.4541 518.1155,-199.8832 511.6788,-202.6345"/>
<text text-anchor="middle" x="542" y="-144.5" font-family="Helvetica,sans-Serif" font-size="10.00" fill="#000000"> tooltipManager</text>
</g>
</g>
</svg>
        <g id="navigator" transform="translate(0 0)" fill="#404254">
                <rect fill="#f2f5e9" fill-opacity="0.5" stroke="#606060" stroke-width=".5" x="0" y="0" width="60" height="60"/>
                <use id="zoomplus" xlink:href="#zoomPlus" x="17" y="9" onmousedown="handleZoom(evt,'in')"/>
                <use id="zoomminus" xlink:href="#zoomMin" x="42" y="9" onmousedown="handleZoom(evt,'out')"/>
                <use id="reset" xlink:href="#resetDef" x="30" y="36" onmousedown="handleReset()"/>
                <g id="arrowUp" xlink:href="#dirArrow" transform="translate(30 24)" onmousedown="handlePan(0,-1)">
                  <use xlink:href="#rim" fill="#404040">
                        <set attributeName="fill" to="#808080" begin="arrowUp.mouseover" end="arrowUp.mouseout"/>
                  </use>
                  <path fill="none" stroke="white" stroke-width="1.5" d="M0,-3.0v7 M-2.5,-0.5L0,-3.0L2.5,-0.5"/>
                </g>
                <g id="arrowRight" xlink:href="#dirArrow" transform="rotate(90) translate(36 -43)" onmousedown="handlePan(1,0)">
                  <use xlink:href="#rim" fill="#404040">
                        <set attributeName="fill" to="#808080" begin="arrowRight.mouseover" end="arrowRight.mouseout"/>
                  </use>
                  <path fill="none" stroke="white" stroke-width="1.5" d="M0,-3.0v7 M-2.5,-0.5L0,-3.0L2.5,-0.5"/>
                </g>
                <g id="arrowDown" xlink:href="#dirArrow" transform="rotate(180) translate(-30 -48)" onmousedown="handlePan(0,1)">
                  <use xlink:href="#rim" fill="#404040">
                        <set attributeName="fill" to="#808080" begin="arrowDown.mouseover" end="arrowDown.mouseout"/>
                  </use>
                  <path fill="none" stroke="white" stroke-width="1.5" d="M0,-3.0v7 M-2.5,-0.5L0,-3.0L2.5,-0.5"/>
                </g>
                <g id="arrowLeft" xlink:href="#dirArrow" transform="rotate(270) translate(-36 17)" onmousedown="handlePan(-1,0)">
                  <use xlink:href="#rim" fill="#404040">
                        <set attributeName="fill" to="#808080" begin="arrowLeft.mouseover" end="arrowLeft.mouseout"/>
                  </use>
                  <path fill="none" stroke="white" stroke-width="1.5" d="M0,-3.0v7 M-2.5,-0.5L0,-3.0L2.5,-0.5"/>
                </g>
        </g>
        <svg viewBox="0 0 15 15" width="100%" height="30px" preserveAspectRatio="xMaxYMin meet">
         <g id="arrow_out" transform="scale(0.3 0.3)">
          <a xlink:href="struct_v_h_d_l_code_parser_1_1_private__coll__graph_org.svg" target="_base">
           <rect id="button" ry="5" rx="5" y="6" x="6" height="38" width="38"
                fill="#f2f5e9" fill-opacity="0.5" stroke="#606060" stroke-width="1.0"/>
           <path id="arrow"
             d="M 11.500037,31.436501 C 11.940474,20.09759 22.043105,11.32322 32.158766,21.979434 L 37.068811,17.246167 C 37.068811,17.246167 37.088388,32 37.088388,32 L 22.160133,31.978069 C 22.160133,31.978069 26.997745,27.140456 26.997745,27.140456 C 18.528582,18.264221 13.291696,25.230495 11.500037,31.436501 z"
             style="fill:#404040;"/>
          </a>
         </g>
        </svg>
</svg>
