<?xml version="1.0" encoding="UTF-8" standalone="no"?>
<!DOCTYPE svg PUBLIC "-//W3C//DTD SVG 1.1//EN"
 "http://www.w3.org/Graphics/SVG/1.1/DTD/svg11.dtd">
<!-- Generated by graphviz version 2.40.1 (20161225.0304)
 -->
<!-- Title: TextGeneratorXMLImpl Pages: 1 -->
<svg width="188pt" height="93pt"
 viewBox="0.00 0.00 187.50 93.00" xmlns="http://www.w3.org/2000/svg" xmlns:xlink="http://www.w3.org/1999/xlink">
<g id="graph0" class="graph" transform="scale(1 1) rotate(0) translate(4 89)">
<title>TextGeneratorXMLImpl</title>
<!-- Node1 -->
<g id="node1" class="node">
<title>Node1</title>
<g id="a_node1"><a xlink:title="Implements TextGeneratorIntf for an XML stream.">
<polygon fill="#999999" stroke="#666666" points="154.5,-19 36.5,-19 36.5,0 154.5,0 154.5,-19"/>
<text text-anchor="middle" x="95.5" y="-7" font-family="Helvetica,sans-Serif" font-size="10.00" fill="#000000">TextGeneratorXMLImpl</text>
</a>
</g>
</g>
<!-- Node2 -->
<g id="node2" class="node">
<title>Node2</title>
<g id="a_node2"><a xlink:href="../../d0/dcf/class_text_generator_intf.html" target="_top" xlink:title="Abstract interface for a hyperlinked text fragment.">
<polygon fill="#ffffff" stroke="#666666" points="93,-85 0,-85 0,-66 93,-66 93,-85"/>
<text text-anchor="middle" x="46.5" y="-73" font-family="Helvetica,sans-Serif" font-size="10.00" fill="#000000">TextGeneratorIntf</text>
</a>
</g>
</g>
<!-- Node2&#45;&gt;Node1 -->
<g id="edge1" class="edge">
<title>Node2&#45;&gt;Node1</title>
<path fill="none" stroke="#63b8ff" d="M59.8257,-57.5511C68.9764,-45.2256 80.7739,-29.3352 88.2402,-19.2785"/>
<polygon fill="#63b8ff" stroke="#63b8ff" points="56.881,-55.646 53.7301,-65.7615 62.5014,-59.8187 56.881,-55.646"/>
</g>
<!-- Node3 -->
<g id="node3" class="node">
<title>Node3</title>
<g id="a_node3"><a xlink:href="../../d3/d30/class_text_stream.html" target="_top" xlink:title="Text streaming class that buffers data.">
<polygon fill="#ffffff" stroke="#666666" points="179.5,-85 111.5,-85 111.5,-66 179.5,-66 179.5,-85"/>
<text text-anchor="middle" x="145.5" y="-73" font-family="Helvetica,sans-Serif" font-size="10.00" fill="#000000">TextStream</text>
</a>
</g>
</g>
<!-- Node3&#45;&gt;Node1 -->
<g id="edge2" class="edge">
<title>Node3&#45;&gt;Node1</title>
<path fill="none" stroke="#9a32cd" stroke-dasharray="5,2" d="M131.9023,-57.5511C122.5648,-45.2256 110.5266,-29.3352 102.9079,-19.2785"/>
<polygon fill="#9a32cd" stroke="#9a32cd" points="129.2939,-59.904 138.1223,-65.7615 134.8735,-55.677 129.2939,-59.904"/>
<text text-anchor="middle" x="132.5" y="-40" font-family="Helvetica,sans-Serif" font-size="10.00" fill="#000000"> m_t</text>
</g>
</g>
</svg>
