<?xml version="1.0" encoding="UTF-8" standalone="no"?>
<!DOCTYPE svg PUBLIC "-//W3C//DTD SVG 1.1//EN"
 "http://www.w3.org/Graphics/SVG/1.1/DTD/svg11.dtd">
<!-- Generated by graphviz version 2.40.1 (20161225.0304)
 -->
<!-- Title: PageContext::Private Pages: 1 -->
<svg width="184pt" height="160pt"
 viewBox="0.00 0.00 184.00 160.00" xmlns="http://www.w3.org/2000/svg" xmlns:xlink="http://www.w3.org/1999/xlink">
<g id="graph0" class="graph" transform="scale(1 1) rotate(0) translate(4 156)">
<title>PageContext::Private</title>
<!-- Node1 -->
<g id="node1" class="node">
<title>Node1</title>
<g id="a_node1"><a xlink:title=" ">
<polygon fill="#999999" stroke="#666666" points="116,-19 6,-19 6,0 116,0 116,-19"/>
<text text-anchor="middle" x="61" y="-7" font-family="Helvetica,sans-Serif" font-size="10.00" fill="#000000">PageContext::Private</text>
</a>
</g>
</g>
<!-- Node2 -->
<g id="node2" class="node">
<title>Node2</title>
<g id="a_node2"><a xlink:href="../../d6/d49/class_definition_context.html" target="_top" xlink:title=" ">
<polygon fill="#ffffff" stroke="#666666" points="122,-86 0,-86 0,-56 122,-56 122,-86"/>
<text text-anchor="start" x="8" y="-74" font-family="Helvetica,sans-Serif" font-size="10.00" fill="#000000">DefinitionContext&lt;</text>
<text text-anchor="middle" x="61" y="-63" font-family="Helvetica,sans-Serif" font-size="10.00" fill="#000000"> PageContext::Private &gt;</text>
</a>
</g>
</g>
<!-- Node2&#45;&gt;Node1 -->
<g id="edge1" class="edge">
<title>Node2&#45;&gt;Node1</title>
<path fill="none" stroke="#63b8ff" d="M61,-45.7849C61,-36.4858 61,-26.4883 61,-19.3469"/>
<polygon fill="#63b8ff" stroke="#63b8ff" points="57.5001,-45.7977 61,-55.7977 64.5001,-45.7978 57.5001,-45.7977"/>
</g>
<!-- Node3 -->
<g id="node3" class="node">
<title>Node3</title>
<g id="a_node3"><a xlink:href="../../d6/d49/class_definition_context.html" target="_top" xlink:title=" ">
<polygon fill="#ffffff" stroke="#666666" points="119,-152 3,-152 3,-133 119,-133 119,-152"/>
<text text-anchor="middle" x="61" y="-140" font-family="Helvetica,sans-Serif" font-size="10.00" fill="#000000">DefinitionContext&lt; T &gt;</text>
</a>
</g>
</g>
<!-- Node3&#45;&gt;Node2 -->
<g id="edge2" class="edge">
<title>Node3&#45;&gt;Node2</title>
<path fill="none" stroke="#ffa500" stroke-dasharray="5,2" d="M61,-122.5057C61,-111.0142 61,-96.8078 61,-86.2276"/>
<polygon fill="#ffa500" stroke="#ffa500" points="57.5001,-122.8572 61,-132.8572 64.5001,-122.8572 57.5001,-122.8572"/>
<text text-anchor="middle" x="118.5" y="-107" font-family="Helvetica,sans-Serif" font-size="10.00" fill="#000000"> &lt; PageContext::Private &gt;</text>
</g>
</g>
</svg>
