<?xml version="1.0" encoding="UTF-8" standalone="no"?>
<!DOCTYPE svg PUBLIC "-//W3C//DTD SVG 1.1//EN"
 "http://www.w3.org/Graphics/SVG/1.1/DTD/svg11.dtd">
<!-- Generated by graphviz version 2.40.1 (20161225.0304)
 -->
<!-- Title: DefinitionAliasMixin&lt; Base &gt; Pages: 1 -->
<!--zoomable 182 -->
<svg id="main" version="1.1" xmlns="http://www.w3.org/2000/svg" xmlns:xlink="http://www.w3.org/1999/xlink" xml:space="preserve" onload="init(evt)">
<style type="text/css"><![CDATA[
.edge:hover path { stroke: red; }
.edge:hover polygon { stroke: red; fill: red; }
]]></style>
<script type="text/javascript"><![CDATA[
var edges = document.getElementsByTagName('g');
if (edges && edges.length) {
  for (var i=0;i<edges.length;i++) {
    if (edges[i].id.substr(0,4)=='edge') {
      edges[i].setAttribute('class','edge');
    }
  }
}
]]></script>
        <defs>
                <circle id="rim" cx="0" cy="0" r="7"/>
                <circle id="rim2" cx="0" cy="0" r="3.5"/>
                <g id="zoomPlus">
                        <use xlink:href="#rim" fill="#404040">
                                <set attributeName="fill" to="#808080" begin="zoomplus.mouseover" end="zoomplus.mouseout"/>
                        </use>
                        <path d="M-4,0h8M0,-4v8" fill="none" stroke="white" stroke-width="1.5" pointer-events="none"/>
                </g>
                <g id="zoomMin">
                        <use xlink:href="#rim" fill="#404040">
                                <set attributeName="fill" to="#808080" begin="zoomminus.mouseover" end="zoomminus.mouseout"/>
                        </use>
                        <path d="M-4,0h8" fill="none" stroke="white" stroke-width="1.5" pointer-events="none"/>
                </g>
                <g id="dirArrow">
                        <path fill="none" stroke="white" stroke-width="1.5" d="M0,-3.0v7 M-2.5,-0.5L0,-3.0L2.5,-0.5"/>
                </g>
               <g id="resetDef">
                       <use xlink:href="#rim2" fill="#404040">
                               <set attributeName="fill" to="#808080" begin="reset.mouseover" end="reset.mouseout"/>
                       </use>
               </g>
        </defs>

<script type="text/javascript">
var viewWidth = 578;
var viewHeight = 182;
var sectionId = 'dynsection-0';
</script>
<script xlink:href="../../svgpan.js"/>
<svg id="graph" class="graph">
<g id="viewport">
<title>DefinitionAliasMixin&lt; Base &gt;</title>
<!-- Node1 -->
<g id="node1" class="node">
<title>Node1</title>
<g id="a_node1"><a xlink:title=" ">
<polygon fill="#999999" stroke="#666666" points="179,-102 76,-102 76,-72 179,-72 179,-102"/>
<text text-anchor="start" x="84" y="-90" font-family="Helvetica,sans-Serif" font-size="10.00" fill="#000000">DefinitionAliasMixin</text>
<text text-anchor="middle" x="127.5" y="-79" font-family="Helvetica,sans-Serif" font-size="10.00" fill="#000000">&lt; Base &gt;</text>
</a>
</g>
</g>
<!-- Node3 -->
<g id="node3" class="node">
<title>Node3</title>
<g id="a_node3"><a xlink:href="../../d8/d83/class_definition_alias_mixin.html" target="_top" xlink:title=" ">
<polygon fill="#ffffff" stroke="#666666" points="408,-174 305,-174 305,-144 408,-144 408,-174"/>
<text text-anchor="start" x="313" y="-162" font-family="Helvetica,sans-Serif" font-size="10.00" fill="#000000">DefinitionAliasMixin</text>
<text text-anchor="middle" x="356.5" y="-151" font-family="Helvetica,sans-Serif" font-size="10.00" fill="#000000">&lt; ClassDef &gt;</text>
</a>
</g>
</g>
<!-- Node1&#45;&gt;Node3 -->
<g id="edge2" class="edge">
<title>Node1&#45;&gt;Node3</title>
<path fill="none" stroke="#ffa500" stroke-dasharray="5,2" d="M167.4629,-106.1979C177.0167,-110.4027 187.2696,-114.6063 197,-118 232.3652,-130.3345 273.3024,-140.7815 304.8484,-148.0429"/>
<polygon fill="#ffa500" stroke="#ffa500" points="168.7429,-102.9359 158.1875,-102.0226 165.8695,-109.319 168.7429,-102.9359"/>
<text text-anchor="middle" x="242" y="-145" font-family="Helvetica,sans-Serif" font-size="10.00" fill="#000000"> &lt; ClassDef &gt;</text>
</g>
<!-- Node5 -->
<g id="node5" class="node">
<title>Node5</title>
<g id="a_node5"><a xlink:href="../../d8/d83/class_definition_alias_mixin.html" target="_top" xlink:title=" ">
<polygon fill="#ffffff" stroke="#666666" points="408,-126 305,-126 305,-96 408,-96 408,-126"/>
<text text-anchor="start" x="313" y="-114" font-family="Helvetica,sans-Serif" font-size="10.00" fill="#000000">DefinitionAliasMixin</text>
<text text-anchor="middle" x="356.5" y="-103" font-family="Helvetica,sans-Serif" font-size="10.00" fill="#000000">&lt; ConceptDef &gt;</text>
</a>
</g>
</g>
<!-- Node1&#45;&gt;Node5 -->
<g id="edge4" class="edge">
<title>Node1&#45;&gt;Node5</title>
<path fill="none" stroke="#ffa500" stroke-dasharray="5,2" d="M189.5713,-93.5053C225.6045,-97.2817 270.4727,-101.984 304.6146,-105.5622"/>
<polygon fill="#ffa500" stroke="#ffa500" points="189.488,-89.9775 179.1776,-92.416 188.7583,-96.9393 189.488,-89.9775"/>
<text text-anchor="middle" x="242" y="-106" font-family="Helvetica,sans-Serif" font-size="10.00" fill="#000000"> &lt; ConceptDef &gt;</text>
</g>
<!-- Node7 -->
<g id="node7" class="node">
<title>Node7</title>
<g id="a_node7"><a xlink:href="../../d8/d83/class_definition_alias_mixin.html" target="_top" xlink:title=" ">
<polygon fill="#ffffff" stroke="#666666" points="408,-78 305,-78 305,-48 408,-48 408,-78"/>
<text text-anchor="start" x="313" y="-66" font-family="Helvetica,sans-Serif" font-size="10.00" fill="#000000">DefinitionAliasMixin</text>
<text text-anchor="middle" x="356.5" y="-55" font-family="Helvetica,sans-Serif" font-size="10.00" fill="#000000">&lt; MemberDef &gt;</text>
</a>
</g>
</g>
<!-- Node1&#45;&gt;Node7 -->
<g id="edge6" class="edge">
<title>Node1&#45;&gt;Node7</title>
<path fill="none" stroke="#ffa500" stroke-dasharray="5,2" d="M189.2629,-79.8431C191.8765,-79.5553 194.4641,-79.2731 197,-79 232.9709,-75.1258 273.5397,-71.0603 304.7607,-67.9969"/>
<polygon fill="#ffa500" stroke="#ffa500" points="188.6575,-76.3888 179.1066,-80.9747 189.4327,-83.3458 188.6575,-76.3888"/>
<text text-anchor="middle" x="242" y="-82" font-family="Helvetica,sans-Serif" font-size="10.00" fill="#000000"> &lt; MemberDef &gt;</text>
</g>
<!-- Node9 -->
<g id="node9" class="node">
<title>Node9</title>
<g id="a_node9"><a xlink:href="../../d8/d83/class_definition_alias_mixin.html" target="_top" xlink:title=" ">
<polygon fill="#ffffff" stroke="#666666" points="408,-30 305,-30 305,0 408,0 408,-30"/>
<text text-anchor="start" x="313" y="-18" font-family="Helvetica,sans-Serif" font-size="10.00" fill="#000000">DefinitionAliasMixin</text>
<text text-anchor="middle" x="356.5" y="-7" font-family="Helvetica,sans-Serif" font-size="10.00" fill="#000000">&lt; NamespaceDef &gt;</text>
</a>
</g>
</g>
<!-- Node1&#45;&gt;Node9 -->
<g id="edge8" class="edge">
<title>Node1&#45;&gt;Node9</title>
<path fill="none" stroke="#ffa500" stroke-dasharray="5,2" d="M167.4629,-67.8021C177.0167,-63.5973 187.2696,-59.3937 197,-56 232.3652,-43.6655 273.3024,-33.2185 304.8484,-25.9571"/>
<polygon fill="#ffa500" stroke="#ffa500" points="165.8695,-64.681 158.1875,-71.9774 168.7429,-71.0641 165.8695,-64.681"/>
<text text-anchor="middle" x="242" y="-59" font-family="Helvetica,sans-Serif" font-size="10.00" fill="#000000"> &lt; NamespaceDef &gt;</text>
</g>
<!-- Node2 -->
<g id="node2" class="node">
<title>Node2</title>
<g id="a_node2"><a xlink:title=" ">
<polygon fill="#ffffff" stroke="#666666" points="39,-96.5 0,-96.5 0,-77.5 39,-77.5 39,-96.5"/>
<text text-anchor="middle" x="19.5" y="-84.5" font-family="Helvetica,sans-Serif" font-size="10.00" fill="#000000">Base</text>
</a>
</g>
</g>
<!-- Node2&#45;&gt;Node1 -->
<g id="edge1" class="edge">
<title>Node2&#45;&gt;Node1</title>
<path fill="none" stroke="#63b8ff" d="M49.2215,-87C57.433,-87 66.5904,-87 75.6661,-87"/>
<polygon fill="#63b8ff" stroke="#63b8ff" points="49.058,-83.5001 39.058,-87 49.058,-90.5001 49.058,-83.5001"/>
</g>
<!-- Node4 -->
<g id="node4" class="node">
<title>Node4</title>
<g id="a_node4"><a xlink:href="../../d0/d2b/class_class_def_alias_impl.html" target="_top" xlink:title=" ">
<polygon fill="#ffffff" stroke="#666666" points="556.5,-168.5 458.5,-168.5 458.5,-149.5 556.5,-149.5 556.5,-168.5"/>
<text text-anchor="middle" x="507.5" y="-156.5" font-family="Helvetica,sans-Serif" font-size="10.00" fill="#000000">ClassDefAliasImpl</text>
</a>
</g>
</g>
<!-- Node3&#45;&gt;Node4 -->
<g id="edge3" class="edge">
<title>Node3&#45;&gt;Node4</title>
<path fill="none" stroke="#63b8ff" d="M418.1641,-159C431.5915,-159 445.6235,-159 458.482,-159"/>
<polygon fill="#63b8ff" stroke="#63b8ff" points="418.0433,-155.5001 408.0433,-159 418.0433,-162.5001 418.0433,-155.5001"/>
</g>
<!-- Node6 -->
<g id="node6" class="node">
<title>Node6</title>
<g id="a_node6"><a xlink:href="../../dd/df3/class_concept_def_alias_impl.html" target="_top" xlink:title=" ">
<polygon fill="#ffffff" stroke="#666666" points="562.5,-120.5 452.5,-120.5 452.5,-101.5 562.5,-101.5 562.5,-120.5"/>
<text text-anchor="middle" x="507.5" y="-108.5" font-family="Helvetica,sans-Serif" font-size="10.00" fill="#000000">ConceptDefAliasImpl</text>
</a>
</g>
</g>
<!-- Node5&#45;&gt;Node6 -->
<g id="edge5" class="edge">
<title>Node5&#45;&gt;Node6</title>
<path fill="none" stroke="#63b8ff" d="M418.255,-111C429.5372,-111 441.243,-111 452.3187,-111"/>
<polygon fill="#63b8ff" stroke="#63b8ff" points="418.0433,-107.5001 408.0433,-111 418.0433,-114.5001 418.0433,-107.5001"/>
</g>
<!-- Node8 -->
<g id="node8" class="node">
<title>Node8</title>
<g id="a_node8"><a xlink:href="../../d7/d70/class_member_def_alias_impl.html" target="_top" xlink:title=" ">
<polygon fill="#ffffff" stroke="#666666" points="561.5,-72.5 453.5,-72.5 453.5,-53.5 561.5,-53.5 561.5,-72.5"/>
<text text-anchor="middle" x="507.5" y="-60.5" font-family="Helvetica,sans-Serif" font-size="10.00" fill="#000000">MemberDefAliasImpl</text>
</a>
</g>
</g>
<!-- Node7&#45;&gt;Node8 -->
<g id="edge7" class="edge">
<title>Node7&#45;&gt;Node8</title>
<path fill="none" stroke="#63b8ff" d="M418.1496,-63C429.8171,-63 441.9415,-63 453.3563,-63"/>
<polygon fill="#63b8ff" stroke="#63b8ff" points="418.0433,-59.5001 408.0433,-63 418.0433,-66.5001 418.0433,-59.5001"/>
</g>
<!-- Node10 -->
<g id="node10" class="node">
<title>Node10</title>
<g id="a_node10"><a xlink:href="../../d2/d9c/class_namespace_def_alias_impl.html" target="_top" xlink:title=" ">
<polygon fill="#ffffff" stroke="#666666" points="570,-24.5 445,-24.5 445,-5.5 570,-5.5 570,-24.5"/>
<text text-anchor="middle" x="507.5" y="-12.5" font-family="Helvetica,sans-Serif" font-size="10.00" fill="#000000">NamespaceDefAliasImpl</text>
</a>
</g>
</g>
<!-- Node9&#45;&gt;Node10 -->
<g id="edge9" class="edge">
<title>Node9&#45;&gt;Node10</title>
<path fill="none" stroke="#63b8ff" d="M418.2426,-15C427.058,-15 436.1323,-15 444.9627,-15"/>
<polygon fill="#63b8ff" stroke="#63b8ff" points="418.0433,-11.5001 408.0433,-15 418.0433,-18.5001 418.0433,-11.5001"/>
</g>
</g>
</svg>
        <g id="navigator" transform="translate(0 0)" fill="#404254">
                <rect fill="#f2f5e9" fill-opacity="0.5" stroke="#606060" stroke-width=".5" x="0" y="0" width="60" height="60"/>
                <use id="zoomplus" xlink:href="#zoomPlus" x="17" y="9" onmousedown="handleZoom(evt,'in')"/>
                <use id="zoomminus" xlink:href="#zoomMin" x="42" y="9" onmousedown="handleZoom(evt,'out')"/>
                <use id="reset" xlink:href="#resetDef" x="30" y="36" onmousedown="handleReset()"/>
                <g id="arrowUp" xlink:href="#dirArrow" transform="translate(30 24)" onmousedown="handlePan(0,-1)">
                  <use xlink:href="#rim" fill="#404040">
                        <set attributeName="fill" to="#808080" begin="arrowUp.mouseover" end="arrowUp.mouseout"/>
                  </use>
                  <path fill="none" stroke="white" stroke-width="1.5" d="M0,-3.0v7 M-2.5,-0.5L0,-3.0L2.5,-0.5"/>
                </g>
                <g id="arrowRight" xlink:href="#dirArrow" transform="rotate(90) translate(36 -43)" onmousedown="handlePan(1,0)">
                  <use xlink:href="#rim" fill="#404040">
                        <set attributeName="fill" to="#808080" begin="arrowRight.mouseover" end="arrowRight.mouseout"/>
                  </use>
                  <path fill="none" stroke="white" stroke-width="1.5" d="M0,-3.0v7 M-2.5,-0.5L0,-3.0L2.5,-0.5"/>
                </g>
                <g id="arrowDown" xlink:href="#dirArrow" transform="rotate(180) translate(-30 -48)" onmousedown="handlePan(0,1)">
                  <use xlink:href="#rim" fill="#404040">
                        <set attributeName="fill" to="#808080" begin="arrowDown.mouseover" end="arrowDown.mouseout"/>
                  </use>
                  <path fill="none" stroke="white" stroke-width="1.5" d="M0,-3.0v7 M-2.5,-0.5L0,-3.0L2.5,-0.5"/>
                </g>
                <g id="arrowLeft" xlink:href="#dirArrow" transform="rotate(270) translate(-36 17)" onmousedown="handlePan(-1,0)">
                  <use xlink:href="#rim" fill="#404040">
                        <set attributeName="fill" to="#808080" begin="arrowLeft.mouseover" end="arrowLeft.mouseout"/>
                  </use>
                  <path fill="none" stroke="white" stroke-width="1.5" d="M0,-3.0v7 M-2.5,-0.5L0,-3.0L2.5,-0.5"/>
                </g>
        </g>
        <svg viewBox="0 0 15 15" width="100%" height="30px" preserveAspectRatio="xMaxYMin meet">
         <g id="arrow_out" transform="scale(0.3 0.3)">
          <a xlink:href="class_definition_alias_mixin__inherit__graph_org.svg" target="_base">
           <rect id="button" ry="5" rx="5" y="6" x="6" height="38" width="38"
                fill="#f2f5e9" fill-opacity="0.5" stroke="#606060" stroke-width="1.0"/>
           <path id="arrow"
             d="M 11.500037,31.436501 C 11.940474,20.09759 22.043105,11.32322 32.158766,21.979434 L 37.068811,17.246167 C 37.068811,17.246167 37.088388,32 37.088388,32 L 22.160133,31.978069 C 22.160133,31.978069 26.997745,27.140456 26.997745,27.140456 C 18.528582,18.264221 13.291696,25.230495 11.500037,31.436501 z"
             style="fill:#404040;"/>
          </a>
         </g>
        </svg>
</svg>
