<?xml version="1.0" encoding="UTF-8" standalone="no"?>
<!DOCTYPE svg PUBLIC "-//W3C//DTD SVG 1.1//EN"
 "http://www.w3.org/Graphics/SVG/1.1/DTD/svg11.dtd">
<!-- Generated by graphviz version 2.40.1 (20161225.0304)
 -->
<!-- Title: DocInclude Pages: 1 -->
<!--zoomable 340 -->
<svg id="main" version="1.1" xmlns="http://www.w3.org/2000/svg" xmlns:xlink="http://www.w3.org/1999/xlink" xml:space="preserve" onload="init(evt)">
<style type="text/css"><![CDATA[
.edge:hover path { stroke: red; }
.edge:hover polygon { stroke: red; fill: red; }
]]></style>
<script type="text/javascript"><![CDATA[
var edges = document.getElementsByTagName('g');
if (edges && edges.length) {
  for (var i=0;i<edges.length;i++) {
    if (edges[i].id.substr(0,4)=='edge') {
      edges[i].setAttribute('class','edge');
    }
  }
}
]]></script>
        <defs>
                <circle id="rim" cx="0" cy="0" r="7"/>
                <circle id="rim2" cx="0" cy="0" r="3.5"/>
                <g id="zoomPlus">
                        <use xlink:href="#rim" fill="#404040">
                                <set attributeName="fill" to="#808080" begin="zoomplus.mouseover" end="zoomplus.mouseout"/>
                        </use>
                        <path d="M-4,0h8M0,-4v8" fill="none" stroke="white" stroke-width="1.5" pointer-events="none"/>
                </g>
                <g id="zoomMin">
                        <use xlink:href="#rim" fill="#404040">
                                <set attributeName="fill" to="#808080" begin="zoomminus.mouseover" end="zoomminus.mouseout"/>
                        </use>
                        <path d="M-4,0h8" fill="none" stroke="white" stroke-width="1.5" pointer-events="none"/>
                </g>
                <g id="dirArrow">
                        <path fill="none" stroke="white" stroke-width="1.5" d="M0,-3.0v7 M-2.5,-0.5L0,-3.0L2.5,-0.5"/>
                </g>
               <g id="resetDef">
                       <use xlink:href="#rim2" fill="#404040">
                               <set attributeName="fill" to="#808080" begin="reset.mouseover" end="reset.mouseout"/>
                       </use>
               </g>
        </defs>

<script type="text/javascript">
var viewWidth = 1204;
var viewHeight = 340;
var sectionId = 'dynsection-1';
</script>
<script xlink:href="../../svgpan.js"/>
<svg id="graph" class="graph">
<g id="viewport">
<title>DocInclude</title>
<!-- Node1 -->
<g id="node1" class="node">
<title>Node1</title>
<g id="a_node1"><a xlink:title="Node representing an included text block from file.">
<polygon fill="#999999" stroke="#666666" points="1196,-34.5 1130,-34.5 1130,-15.5 1196,-15.5 1196,-34.5"/>
<text text-anchor="middle" x="1163" y="-22.5" font-family="Helvetica,sans-Serif" font-size="10.00" fill="#000000">DocInclude</text>
</a>
</g>
</g>
<!-- Node2 -->
<g id="node2" class="node">
<title>Node2</title>
<g id="a_node2"><a xlink:href="../../d9/d0e/class_doc_node.html" target="_top" xlink:title="Abstract node interface with type information.">
<polygon fill="#ffffff" stroke="#666666" points="1093,-85.5 1035,-85.5 1035,-66.5 1093,-66.5 1093,-85.5"/>
<text text-anchor="middle" x="1064" y="-73.5" font-family="Helvetica,sans-Serif" font-size="10.00" fill="#000000">DocNode</text>
</a>
</g>
</g>
<!-- Node2&#45;&gt;Node1 -->
<g id="edge1" class="edge">
<title>Node2&#45;&gt;Node1</title>
<path fill="none" stroke="#63b8ff" d="M1091.9633,-61.5947C1108.7693,-52.937 1129.6897,-42.1599 1144.4624,-34.5497"/>
<polygon fill="#63b8ff" stroke="#63b8ff" points="1089.908,-58.7163 1082.6211,-66.4073 1093.1138,-64.9391 1089.908,-58.7163"/>
</g>
<!-- Node3 -->
<g id="node3" class="node">
<title>Node3</title>
<g id="a_node3"><a xlink:href="../../da/d02/class_doc_parser.html" target="_top" xlink:title=" ">
<polygon fill="#ffffff" stroke="#666666" points="955,-124.5 892,-124.5 892,-105.5 955,-105.5 955,-124.5"/>
<text text-anchor="middle" x="923.5" y="-112.5" font-family="Helvetica,sans-Serif" font-size="10.00" fill="#000000">DocParser</text>
</a>
</g>
</g>
<!-- Node3&#45;&gt;Node2 -->
<g id="edge2" class="edge">
<title>Node3&#45;&gt;Node2</title>
<path fill="none" stroke="#9a32cd" stroke-dasharray="5,2" d="M964.6886,-103.5669C987.2485,-97.3047 1014.6627,-89.695 1034.9682,-84.0586"/>
<polygon fill="#9a32cd" stroke="#9a32cd" points="963.7305,-100.2004 955.0309,-106.2476 965.6028,-106.9454 963.7305,-100.2004"/>
<text text-anchor="middle" x="995" y="-103" font-family="Helvetica,sans-Serif" font-size="10.00" fill="#000000"> m_parser</text>
</g>
<!-- Node4 -->
<g id="node4" class="node">
<title>Node4</title>
<g id="a_node4"><a xlink:href="../../de/dad/class_i_doc_parser.html" target="_top" xlink:title="opaque parser interface">
<polygon fill="#ffffff" stroke="#666666" points="773,-87.5 707,-87.5 707,-68.5 773,-68.5 773,-87.5"/>
<text text-anchor="middle" x="740" y="-75.5" font-family="Helvetica,sans-Serif" font-size="10.00" fill="#000000">IDocParser</text>
</a>
</g>
</g>
<!-- Node4&#45;&gt;Node3 -->
<g id="edge3" class="edge">
<title>Node4&#45;&gt;Node3</title>
<path fill="none" stroke="#63b8ff" d="M783.1456,-86.6997C816.433,-93.4116 861.7203,-102.5431 891.7446,-108.597"/>
<polygon fill="#63b8ff" stroke="#63b8ff" points="783.725,-83.2461 773.2305,-84.7004 782.3414,-90.108 783.725,-83.2461"/>
</g>
<!-- Node5 -->
<g id="node5" class="node">
<title>Node5</title>
<g id="a_node5"><a xlink:href="../../d8/d7d/struct_doc_parser_context.html" target="_top" xlink:title="Parser&#39;s context to store all global variables.">
<polygon fill="#ffffff" stroke="#666666" points="789,-214.5 691,-214.5 691,-195.5 789,-195.5 789,-214.5"/>
<text text-anchor="middle" x="740" y="-202.5" font-family="Helvetica,sans-Serif" font-size="10.00" fill="#000000">DocParserContext</text>
</a>
</g>
</g>
<!-- Node5&#45;&gt;Node3 -->
<g id="edge4" class="edge">
<title>Node5&#45;&gt;Node3</title>
<path fill="none" stroke="#9a32cd" stroke-dasharray="5,2" d="M787.487,-192.5538C813.9689,-184.512 846.9616,-172.6175 874,-157 889.4197,-148.0934 904.6613,-134.1823 914.0709,-124.8367"/>
<polygon fill="#9a32cd" stroke="#9a32cd" points="786.2829,-189.2598 777.6824,-195.447 788.2641,-195.9736 786.2829,-189.2598"/>
<text text-anchor="middle" x="840.5" y="-188" font-family="Helvetica,sans-Serif" font-size="10.00" fill="#000000"> context</text>
</g>
<!-- Node6 -->
<g id="node6" class="node">
<title>Node6</title>
<g id="a_node6"><a xlink:href="../../d5/dcc/class_definition.html" target="_top" xlink:title="The common base class of all entity definitions found in the sources.">
<polygon fill="#ffffff" stroke="#666666" points="265.5,-330.5 207.5,-330.5 207.5,-311.5 265.5,-311.5 265.5,-330.5"/>
<text text-anchor="middle" x="236.5" y="-318.5" font-family="Helvetica,sans-Serif" font-size="10.00" fill="#000000">Definition</text>
</a>
</g>
</g>
<!-- Node6&#45;&gt;Node5 -->
<g id="edge5" class="edge">
<title>Node6&#45;&gt;Node5</title>
<path fill="none" stroke="#9a32cd" stroke-dasharray="5,2" d="M276.0444,-323.5588C340.5964,-326.8357 472.3158,-329.7512 581,-308 623.1716,-299.5601 636.8316,-301.2708 673,-278 699.9081,-260.6873 723.0842,-229.9959 733.7468,-214.506"/>
<polygon fill="#9a32cd" stroke="#9a32cd" points="276.0775,-320.0556 265.9036,-323.0124 275.7008,-327.0455 276.0775,-320.0556"/>
<text text-anchor="middle" x="527.5" y="-324" font-family="Helvetica,sans-Serif" font-size="10.00" fill="#000000"> scope</text>
</g>
<!-- Node12 -->
<g id="node12" class="node">
<title>Node12</title>
<g id="a_node12"><a xlink:href="../../da/d09/class_member_def.html" target="_top" xlink:title="A model of a class/file/namespace member symbol.">
<polygon fill="#ffffff" stroke="#666666" points="561.5,-298.5 493.5,-298.5 493.5,-279.5 561.5,-279.5 561.5,-298.5"/>
<text text-anchor="middle" x="527.5" y="-286.5" font-family="Helvetica,sans-Serif" font-size="10.00" fill="#000000">MemberDef</text>
</a>
</g>
</g>
<!-- Node6&#45;&gt;Node12 -->
<g id="edge12" class="edge">
<title>Node6&#45;&gt;Node12</title>
<path fill="none" stroke="#63b8ff" d="M275.8707,-316.6706C333.294,-310.356 439.0756,-298.7236 493.3748,-292.7526"/>
<polygon fill="#63b8ff" stroke="#63b8ff" points="275.292,-313.213 265.7346,-317.7852 276.0572,-320.1711 275.292,-313.213"/>
</g>
<!-- Node7 -->
<g id="node7" class="node">
<title>Node7</title>
<g id="a_node7"><a xlink:href="../../d9/d45/class_q_c_string.html" target="_top" xlink:title="This is an alternative implementation of QCString.">
<polygon fill="#ffffff" stroke="#666666" points="265,-42.5 208,-42.5 208,-23.5 265,-23.5 265,-42.5"/>
<text text-anchor="middle" x="236.5" y="-30.5" font-family="Helvetica,sans-Serif" font-size="10.00" fill="#000000">QCString</text>
</a>
</g>
</g>
<!-- Node7&#45;&gt;Node1 -->
<g id="edge19" class="edge">
<title>Node7&#45;&gt;Node1</title>
<path fill="none" stroke="#9a32cd" stroke-dasharray="5,2" d="M275.0029,-25.022C291.5608,-21.8256 311.1706,-18.3508 329,-16 416.7489,-4.4304 438.9916,0 527.5,0 527.5,0 527.5,0 1064,0 1090.236,0 1119.2253,-8.3557 1139.0155,-15.4058"/>
<polygon fill="#9a32cd" stroke="#9a32cd" points="274.2674,-21.5995 265.1309,-26.9637 275.6184,-28.4679 274.2674,-21.5995"/>
<text text-anchor="middle" x="840.5" y="-47" font-family="Helvetica,sans-Serif" font-size="10.00" fill="#000000"> m_blockId</text>
<text text-anchor="middle" x="840.5" y="-36" font-family="Helvetica,sans-Serif" font-size="10.00" fill="#000000">m_context</text>
<text text-anchor="middle" x="840.5" y="-25" font-family="Helvetica,sans-Serif" font-size="10.00" fill="#000000">m_exampleFile</text>
<text text-anchor="middle" x="840.5" y="-14" font-family="Helvetica,sans-Serif" font-size="10.00" fill="#000000">m_file</text>
<text text-anchor="middle" x="840.5" y="-3" font-family="Helvetica,sans-Serif" font-size="10.00" fill="#000000">m_text</text>
</g>
<!-- Node7&#45;&gt;Node5 -->
<g id="edge6" class="edge">
<title>Node7&#45;&gt;Node5</title>
<path fill="none" stroke="#9a32cd" stroke-dasharray="5,2" d="M248.9618,-50.821C264.8407,-71.9241 294.4144,-106.1983 329,-122 431.2944,-168.7371 471.3926,-119.8066 581,-145 632.7579,-156.8966 690.3384,-181.7267 719.9652,-195.4211"/>
<polygon fill="#9a32cd" stroke="#9a32cd" points="251.7411,-48.692 243.0203,-42.6755 246.0857,-52.8172 251.7411,-48.692"/>
<text text-anchor="middle" x="527.5" y="-214" font-family="Helvetica,sans-Serif" font-size="10.00" fill="#000000"> context</text>
<text text-anchor="middle" x="527.5" y="-203" font-family="Helvetica,sans-Serif" font-size="10.00" fill="#000000">exampleName</text>
<text text-anchor="middle" x="527.5" y="-192" font-family="Helvetica,sans-Serif" font-size="10.00" fill="#000000">fileName</text>
<text text-anchor="middle" x="527.5" y="-181" font-family="Helvetica,sans-Serif" font-size="10.00" fill="#000000">includeFileName</text>
<text text-anchor="middle" x="527.5" y="-170" font-family="Helvetica,sans-Serif" font-size="10.00" fill="#000000">includeFileText</text>
<text text-anchor="middle" x="527.5" y="-159" font-family="Helvetica,sans-Serif" font-size="10.00" fill="#000000">relPath</text>
<text text-anchor="middle" x="527.5" y="-148" font-family="Helvetica,sans-Serif" font-size="10.00" fill="#000000">searchUrl</text>
</g>
<!-- Node13 -->
<g id="node13" class="node">
<title>Node13</title>
<g id="a_node13"><a xlink:href="../../d6/df4/struct_token_info.html" target="_top" xlink:title="Data associated with a token used by the comment block parser.">
<polygon fill="#ffffff" stroke="#666666" points="557.5,-99.5 497.5,-99.5 497.5,-80.5 557.5,-80.5 557.5,-99.5"/>
<text text-anchor="middle" x="527.5" y="-87.5" font-family="Helvetica,sans-Serif" font-size="10.00" fill="#000000">TokenInfo</text>
</a>
</g>
</g>
<!-- Node7&#45;&gt;Node13 -->
<g id="edge14" class="edge">
<title>Node7&#45;&gt;Node13</title>
<path fill="none" stroke="#9a32cd" stroke-dasharray="5,2" d="M275.1062,-25.8132C319.9659,-19.114 395.5555,-12.9926 456,-34 482.5104,-43.2137 506.7221,-66.6883 519.0151,-80.1378"/>
<polygon fill="#9a32cd" stroke="#9a32cd" points="274.536,-22.3597 265.2042,-27.3766 275.6277,-29.2741 274.536,-22.3597"/>
<text text-anchor="middle" x="392.5" y="-114" font-family="Helvetica,sans-Serif" font-size="10.00" fill="#000000"> attribsStr</text>
<text text-anchor="middle" x="392.5" y="-103" font-family="Helvetica,sans-Serif" font-size="10.00" fill="#000000">chars</text>
<text text-anchor="middle" x="392.5" y="-92" font-family="Helvetica,sans-Serif" font-size="10.00" fill="#000000">name</text>
<text text-anchor="middle" x="392.5" y="-81" font-family="Helvetica,sans-Serif" font-size="10.00" fill="#000000">sectionId</text>
<text text-anchor="middle" x="392.5" y="-70" font-family="Helvetica,sans-Serif" font-size="10.00" fill="#000000">simpleSectName</text>
<text text-anchor="middle" x="392.5" y="-59" font-family="Helvetica,sans-Serif" font-size="10.00" fill="#000000">simpleSectText</text>
<text text-anchor="middle" x="392.5" y="-48" font-family="Helvetica,sans-Serif" font-size="10.00" fill="#000000">text</text>
<text text-anchor="middle" x="392.5" y="-37" font-family="Helvetica,sans-Serif" font-size="10.00" fill="#000000">verb</text>
</g>
<!-- Node8 -->
<g id="node8" class="node">
<title>Node8</title>
<g id="a_node8"><a xlink:href="../../d9/d82/class_iterable_stack.html" target="_top" xlink:title=" ">
<polygon fill="#ffffff" stroke="#666666" points="581,-261 474,-261 474,-231 581,-231 581,-261"/>
<text text-anchor="start" x="482" y="-249" font-family="Helvetica,sans-Serif" font-size="10.00" fill="#000000">IterableStack&lt; const</text>
<text text-anchor="middle" x="527.5" y="-238" font-family="Helvetica,sans-Serif" font-size="10.00" fill="#000000"> DocNodeVariant * &gt;</text>
</a>
</g>
</g>
<!-- Node8&#45;&gt;Node5 -->
<g id="edge7" class="edge">
<title>Node8&#45;&gt;Node5</title>
<path fill="none" stroke="#9a32cd" stroke-dasharray="5,2" d="M564.1024,-226.6119C575.0428,-221.6505 587.257,-216.9021 599,-214 628.8848,-206.6144 663.355,-204.3072 690.7325,-203.8742"/>
<polygon fill="#9a32cd" stroke="#9a32cd" points="562.4018,-223.5445 554.8599,-230.9857 565.3961,-229.8718 562.4018,-223.5445"/>
<text text-anchor="middle" x="636" y="-228" font-family="Helvetica,sans-Serif" font-size="10.00" fill="#000000"> initialStyleStack</text>
<text text-anchor="middle" x="636" y="-217" font-family="Helvetica,sans-Serif" font-size="10.00" fill="#000000">styleStack</text>
</g>
<!-- Node9 -->
<g id="node9" class="node">
<title>Node9</title>
<g id="a_node9"><a xlink:title=" ">
<polygon fill="#ffffff" stroke="#666666" points="311,-241.5 162,-241.5 162,-200.5 311,-200.5 311,-241.5"/>
<text text-anchor="start" x="170" y="-229.5" font-family="Helvetica,sans-Serif" font-size="10.00" fill="#000000">std::stack&lt; const DocNode</text>
<text text-anchor="start" x="170" y="-218.5" font-family="Helvetica,sans-Serif" font-size="10.00" fill="#000000">Variant * , std::deque</text>
<text text-anchor="middle" x="236.5" y="-207.5" font-family="Helvetica,sans-Serif" font-size="10.00" fill="#000000">&lt;const DocNodeVariant * &gt; &#160;&gt;</text>
</a>
</g>
</g>
<!-- Node9&#45;&gt;Node8 -->
<g id="edge8" class="edge">
<title>Node9&#45;&gt;Node8</title>
<path fill="none" stroke="#63b8ff" d="M321.0765,-228.266C370.3617,-232.5001 431.0285,-237.7121 473.8016,-241.3867"/>
<polygon fill="#63b8ff" stroke="#63b8ff" points="321.3248,-224.7745 311.0618,-227.4057 320.7255,-231.7489 321.3248,-224.7745"/>
</g>
<!-- Node10 -->
<g id="node10" class="node">
<title>Node10</title>
<g id="a_node10"><a xlink:href="../../d9/d82/class_iterable_stack.html" target="_top" xlink:title=" ">
<polygon fill="#ffffff" stroke="#666666" points="309.5,-278.5 163.5,-278.5 163.5,-259.5 309.5,-259.5 309.5,-278.5"/>
<text text-anchor="middle" x="236.5" y="-266.5" font-family="Helvetica,sans-Serif" font-size="10.00" fill="#000000">IterableStack&lt; T, Container &gt;</text>
</a>
</g>
</g>
<!-- Node10&#45;&gt;Node8 -->
<g id="edge9" class="edge">
<title>Node10&#45;&gt;Node8</title>
<path fill="none" stroke="#ffa500" stroke-dasharray="5,2" d="M319.6087,-262.4313C369.1144,-258.5185 430.508,-253.666 473.7014,-250.2521"/>
<polygon fill="#ffa500" stroke="#ffa500" points="319.2491,-258.9487 309.556,-263.2258 319.8007,-265.9269 319.2491,-258.9487"/>
<text text-anchor="middle" x="392.5" y="-264" font-family="Helvetica,sans-Serif" font-size="10.00" fill="#000000"> &lt; const DocNodeVariant * &gt;</text>
</g>
<!-- Node11 -->
<g id="node11" class="node">
<title>Node11</title>
<g id="a_node11"><a xlink:title=" ">
<polygon fill="#ffffff" stroke="#666666" points="110,-284 15,-284 15,-254 110,-254 110,-284"/>
<text text-anchor="start" x="23" y="-272" font-family="Helvetica,sans-Serif" font-size="10.00" fill="#000000">std::stack&lt; T, std</text>
<text text-anchor="middle" x="62.5" y="-261" font-family="Helvetica,sans-Serif" font-size="10.00" fill="#000000">::deque&lt; T &gt; &gt;</text>
</a>
</g>
</g>
<!-- Node11&#45;&gt;Node10 -->
<g id="edge10" class="edge">
<title>Node11&#45;&gt;Node10</title>
<path fill="none" stroke="#63b8ff" d="M120.308,-269C134.0418,-269 148.8734,-269 163.1969,-269"/>
<polygon fill="#63b8ff" stroke="#63b8ff" points="120.0463,-265.5001 110.0463,-269 120.0462,-272.5001 120.0463,-265.5001"/>
</g>
<!-- Node12&#45;&gt;Node5 -->
<g id="edge11" class="edge">
<title>Node12&#45;&gt;Node5</title>
<path fill="none" stroke="#9a32cd" stroke-dasharray="5,2" d="M563.9048,-276.1414C569.63,-274.0989 575.4789,-272.0005 581,-270 621.9844,-255.1499 632.7427,-252.7212 673,-236 689.2157,-229.2647 707.2638,-220.8601 720.539,-214.5018"/>
<polygon fill="#9a32cd" stroke="#9a32cd" points="562.7152,-272.8496 554.4664,-279.4986 565.0611,-279.4448 562.7152,-272.8496"/>
<text text-anchor="middle" x="636" y="-266" font-family="Helvetica,sans-Serif" font-size="10.00" fill="#000000"> memberDef</text>
</g>
<!-- Node13&#45;&gt;Node5 -->
<g id="edge13" class="edge">
<title>Node13&#45;&gt;Node5</title>
<path fill="none" stroke="#9a32cd" stroke-dasharray="5,2" d="M567.7771,-84.9076C599.968,-83.1559 644.3034,-86.2675 673,-111 694.0891,-129.1759 674.6467,-148.4682 691,-171 698.5416,-181.3909 710.2736,-189.6927 720.3672,-195.4913"/>
<polygon fill="#9a32cd" stroke="#9a32cd" points="567.5107,-81.4176 557.7875,-85.6259 568.0128,-88.3996 567.5107,-81.4176"/>
<text text-anchor="middle" x="636" y="-114" font-family="Helvetica,sans-Serif" font-size="10.00" fill="#000000"> token</text>
</g>
<!-- Node14 -->
<g id="node14" class="node">
<title>Node14</title>
<g id="a_node14"><a xlink:href="../../db/d4d/class_html_attrib_list.html" target="_top" xlink:title="Class representing a list of HTML attributes.">
<polygon fill="#ffffff" stroke="#666666" points="275,-178.5 198,-178.5 198,-159.5 275,-159.5 275,-178.5"/>
<text text-anchor="middle" x="236.5" y="-166.5" font-family="Helvetica,sans-Serif" font-size="10.00" fill="#000000">HtmlAttribList</text>
</a>
</g>
</g>
<!-- Node14&#45;&gt;Node13 -->
<g id="edge15" class="edge">
<title>Node14&#45;&gt;Node13</title>
<path fill="none" stroke="#9a32cd" stroke-dasharray="5,2" d="M285.2956,-164.99C330.8566,-159.9726 400.0382,-149.0509 456,-126 464.8902,-122.3381 465.5846,-118.6504 474,-114 483.5337,-108.7316 494.4442,-103.6745 503.915,-99.5724"/>
<polygon fill="#9a32cd" stroke="#9a32cd" points="284.6772,-161.5355 275.096,-166.0579 285.4062,-168.4974 284.6772,-161.5355"/>
<text text-anchor="middle" x="392.5" y="-161" font-family="Helvetica,sans-Serif" font-size="10.00" fill="#000000"> attribs</text>
</g>
<!-- Node15 -->
<g id="node15" class="node">
<title>Node15</title>
<g id="a_node15"><a xlink:title=" ">
<polygon fill="#ffffff" stroke="#666666" points="125,-178.5 0,-178.5 0,-159.5 125,-159.5 125,-178.5"/>
<text text-anchor="middle" x="62.5" y="-166.5" font-family="Helvetica,sans-Serif" font-size="10.00" fill="#000000">std::vector&lt; HtmlAttrib &gt;</text>
</a>
</g>
</g>
<!-- Node15&#45;&gt;Node14 -->
<g id="edge16" class="edge">
<title>Node15&#45;&gt;Node14</title>
<path fill="none" stroke="#63b8ff" d="M135.3908,-169C156.8225,-169 179.4279,-169 197.8162,-169"/>
<polygon fill="#63b8ff" stroke="#63b8ff" points="135.318,-165.5001 125.318,-169 135.318,-172.5001 135.318,-165.5001"/>
</g>
<!-- Node16 -->
<g id="node16" class="node">
<title>Node16</title>
<g id="a_node16"><a xlink:href="../../d1/d7f/class_doc_tokenizer.html" target="_top" xlink:title=" ">
<polygon fill="#ffffff" stroke="#666666" points="778.5,-161.5 701.5,-161.5 701.5,-142.5 778.5,-142.5 778.5,-161.5"/>
<text text-anchor="middle" x="740" y="-149.5" font-family="Helvetica,sans-Serif" font-size="10.00" fill="#000000">DocTokenizer</text>
</a>
</g>
</g>
<!-- Node16&#45;&gt;Node3 -->
<g id="edge17" class="edge">
<title>Node16&#45;&gt;Node3</title>
<path fill="none" stroke="#9a32cd" stroke-dasharray="5,2" d="M788.8514,-145.5566C814.3807,-141.7927 846.0479,-136.5 874,-130 880.6472,-128.4543 887.7103,-126.5043 894.3565,-124.5263"/>
<polygon fill="#9a32cd" stroke="#9a32cd" points="788.0726,-142.1327 778.6747,-147.0245 789.0719,-149.061 788.0726,-142.1327"/>
<text text-anchor="middle" x="840.5" y="-145" font-family="Helvetica,sans-Serif" font-size="10.00" fill="#000000"> tokenizer</text>
</g>
<!-- Node17 -->
<g id="node17" class="node">
<title>Node17</title>
<g id="a_node17"><a xlink:href="../../d2/dc1/class_s_i_data_collection.html" target="_top" xlink:title=" ">
<polygon fill="#ffffff" stroke="#666666" points="785.5,-124.5 694.5,-124.5 694.5,-105.5 785.5,-105.5 785.5,-124.5"/>
<text text-anchor="middle" x="740" y="-112.5" font-family="Helvetica,sans-Serif" font-size="10.00" fill="#000000">SIDataCollection</text>
</a>
</g>
</g>
<!-- Node17&#45;&gt;Node3 -->
<g id="edge18" class="edge">
<title>Node17&#45;&gt;Node3</title>
<path fill="none" stroke="#9a32cd" stroke-dasharray="5,2" d="M796.1948,-115C827.5732,-115 865.5153,-115 891.7716,-115"/>
<polygon fill="#9a32cd" stroke="#9a32cd" points="795.8315,-111.5001 785.8314,-115 795.8314,-118.5001 795.8315,-111.5001"/>
<text text-anchor="middle" x="840.5" y="-118" font-family="Helvetica,sans-Serif" font-size="10.00" fill="#000000"> searchData</text>
</g>
</g>
</svg>
        <g id="navigator" transform="translate(0 0)" fill="#404254">
                <rect fill="#f2f5e9" fill-opacity="0.5" stroke="#606060" stroke-width=".5" x="0" y="0" width="60" height="60"/>
                <use id="zoomplus" xlink:href="#zoomPlus" x="17" y="9" onmousedown="handleZoom(evt,'in')"/>
                <use id="zoomminus" xlink:href="#zoomMin" x="42" y="9" onmousedown="handleZoom(evt,'out')"/>
                <use id="reset" xlink:href="#resetDef" x="30" y="36" onmousedown="handleReset()"/>
                <g id="arrowUp" xlink:href="#dirArrow" transform="translate(30 24)" onmousedown="handlePan(0,-1)">
                  <use xlink:href="#rim" fill="#404040">
                        <set attributeName="fill" to="#808080" begin="arrowUp.mouseover" end="arrowUp.mouseout"/>
                  </use>
                  <path fill="none" stroke="white" stroke-width="1.5" d="M0,-3.0v7 M-2.5,-0.5L0,-3.0L2.5,-0.5"/>
                </g>
                <g id="arrowRight" xlink:href="#dirArrow" transform="rotate(90) translate(36 -43)" onmousedown="handlePan(1,0)">
                  <use xlink:href="#rim" fill="#404040">
                        <set attributeName="fill" to="#808080" begin="arrowRight.mouseover" end="arrowRight.mouseout"/>
                  </use>
                  <path fill="none" stroke="white" stroke-width="1.5" d="M0,-3.0v7 M-2.5,-0.5L0,-3.0L2.5,-0.5"/>
                </g>
                <g id="arrowDown" xlink:href="#dirArrow" transform="rotate(180) translate(-30 -48)" onmousedown="handlePan(0,1)">
                  <use xlink:href="#rim" fill="#404040">
                        <set attributeName="fill" to="#808080" begin="arrowDown.mouseover" end="arrowDown.mouseout"/>
                  </use>
                  <path fill="none" stroke="white" stroke-width="1.5" d="M0,-3.0v7 M-2.5,-0.5L0,-3.0L2.5,-0.5"/>
                </g>
                <g id="arrowLeft" xlink:href="#dirArrow" transform="rotate(270) translate(-36 17)" onmousedown="handlePan(-1,0)">
                  <use xlink:href="#rim" fill="#404040">
                        <set attributeName="fill" to="#808080" begin="arrowLeft.mouseover" end="arrowLeft.mouseout"/>
                  </use>
                  <path fill="none" stroke="white" stroke-width="1.5" d="M0,-3.0v7 M-2.5,-0.5L0,-3.0L2.5,-0.5"/>
                </g>
        </g>
        <svg viewBox="0 0 15 15" width="100%" height="30px" preserveAspectRatio="xMaxYMin meet">
         <g id="arrow_out" transform="scale(0.3 0.3)">
          <a xlink:href="class_doc_include__coll__graph_org.svg" target="_base">
           <rect id="button" ry="5" rx="5" y="6" x="6" height="38" width="38"
                fill="#f2f5e9" fill-opacity="0.5" stroke="#606060" stroke-width="1.0"/>
           <path id="arrow"
             d="M 11.500037,31.436501 C 11.940474,20.09759 22.043105,11.32322 32.158766,21.979434 L 37.068811,17.246167 C 37.068811,17.246167 37.088388,32 37.088388,32 L 22.160133,31.978069 C 22.160133,31.978069 26.997745,27.140456 26.997745,27.140456 C 18.528582,18.264221 13.291696,25.230495 11.500037,31.436501 z"
             style="fill:#404040;"/>
          </a>
         </g>
        </svg>
</svg>
