<?xml version="1.0" encoding="UTF-8" standalone="no"?>
<!DOCTYPE svg PUBLIC "-//W3C//DTD SVG 1.1//EN"
 "http://www.w3.org/Graphics/SVG/1.1/DTD/svg11.dtd">
<!-- Generated by graphviz version 2.43.0 (0)
 -->
<!-- Title: src/language.h Pages: 1 -->
<!--zoomable 82 -->
<svg id="main" version="1.1" xmlns="http://www.w3.org/2000/svg" xmlns:xlink="http://www.w3.org/1999/xlink" xml:space="preserve" onload="init(evt)">
<style type="text/css"><![CDATA[
.edge:hover path { stroke: red; }
.edge:hover polygon { stroke: red; fill: red; }
]]></style>
<script type="text/javascript"><![CDATA[
var edges = document.getElementsByTagName('g');
if (edges && edges.length) {
  for (var i=0;i<edges.length;i++) {
    if (edges[i].id.substr(0,4)=='edge') {
      edges[i].setAttribute('class','edge');
    }
  }
}
]]></script>
        <defs>
                <circle id="rim" cx="0" cy="0" r="7"/>
                <circle id="rim2" cx="0" cy="0" r="3.5"/>
                <g id="zoomPlus">
                        <use xlink:href="#rim" fill="#404040">
                                <set attributeName="fill" to="#808080" begin="zoomplus.mouseover" end="zoomplus.mouseout"/>
                        </use>
                        <path d="M-4,0h8M0,-4v8" fill="none" stroke="white" stroke-width="1.5" pointer-events="none"/>
                </g>
                <g id="zoomMin">
                        <use xlink:href="#rim" fill="#404040">
                                <set attributeName="fill" to="#808080" begin="zoomminus.mouseover" end="zoomminus.mouseout"/>
                        </use>
                        <path d="M-4,0h8" fill="none" stroke="white" stroke-width="1.5" pointer-events="none"/>
                </g>
                <g id="dirArrow">
                        <path fill="none" stroke="white" stroke-width="1.5" d="M0,-3.0v7 M-2.5,-0.5L0,-3.0L2.5,-0.5"/>
                </g>
               <g id="resetDef">
                       <use xlink:href="#rim2" fill="#404040">
                               <set attributeName="fill" to="#808080" begin="reset.mouseover" end="reset.mouseout"/>
                       </use>
               </g>
        </defs>

<script type="text/javascript">
var viewWidth = 5632;
var viewHeight = 82;
var sectionId = 'dynsection-1';
</script>
<script xlink:href="../../svgpan.js"/>
<svg id="graph" class="graph">
<g id="viewport">
<title>src/language.h</title>
<!-- Node1 -->
<g id="node1" class="node">
<title>Node1</title>
<g id="a_node1"><a xlink:title=" ">
<polygon fill="#999999" stroke="#666666" points="2829,-74 2741,-74 2741,-55 2829,-55 2829,-74"/>
<text text-anchor="middle" x="2785" y="-62" font-family="Helvetica,sans-Serif" font-size="10.00">src/language.h</text>
</a>
</g>
</g>
<!-- Node2 -->
<g id="node2" class="node">
<title>Node2</title>
<g id="a_node2"><a xlink:href="../../d5/d0b/cite_8cpp.html" target="_top" xlink:title=" ">
<polygon fill="white" stroke="#666666" points="72,-19 0,-19 0,0 72,0 72,-19"/>
<text text-anchor="middle" x="36" y="-7" font-family="Helvetica,sans-Serif" font-size="10.00">src/cite.cpp</text>
</a>
</g>
</g>
<!-- Node1&#45;&gt;Node2 -->
<g id="edge1" class="edge">
<title>Node1&#45;&gt;Node2</title>
<path fill="none" stroke="#63b8ff" d="M2730.67,-63.16C2372.24,-60.86 353.24,-46.75 81,-19 78.15,-18.71 75.22,-18.33 72.27,-17.9"/>
<polygon fill="#63b8ff" stroke="#63b8ff" points="2730.77,-66.66 2740.79,-63.23 2730.81,-59.66 2730.77,-66.66"/>
</g>
<!-- Node3 -->
<g id="node3" class="node">
<title>Node3</title>
<g id="a_node3"><a xlink:href="../../de/d89/classdef_8cpp.html" target="_top" xlink:title=" ">
<polygon fill="white" stroke="#666666" points="184,-19 90,-19 90,0 184,0 184,-19"/>
<text text-anchor="middle" x="137" y="-7" font-family="Helvetica,sans-Serif" font-size="10.00">src/classdef.cpp</text>
</a>
</g>
</g>
<!-- Node1&#45;&gt;Node3 -->
<g id="edge2" class="edge">
<title>Node1&#45;&gt;Node3</title>
<path fill="none" stroke="#63b8ff" d="M2730.46,-63.56C2404.52,-63.74 710.98,-62.56 193,-19 190.16,-18.76 187.24,-18.47 184.3,-18.13"/>
<polygon fill="#63b8ff" stroke="#63b8ff" points="2730.59,-67.06 2740.59,-63.55 2730.58,-60.06 2730.59,-67.06"/>
</g>
<!-- Node4 -->
<g id="node4" class="node">
<title>Node4</title>
<g id="a_node4"><a xlink:href="../../d6/d10/classlist_8cpp.html" target="_top" xlink:title=" ">
<polygon fill="white" stroke="#666666" points="296,-19 202,-19 202,0 296,0 296,-19"/>
<text text-anchor="middle" x="249" y="-7" font-family="Helvetica,sans-Serif" font-size="10.00">src/classlist.cpp</text>
</a>
</g>
</g>
<!-- Node1&#45;&gt;Node4 -->
<g id="edge3" class="edge">
<title>Node1&#45;&gt;Node4</title>
<path fill="none" stroke="#63b8ff" d="M2730.32,-63.51C2412.43,-63.4 799.28,-60.76 305,-19 302.06,-18.75 299.04,-18.44 296,-18.1"/>
<polygon fill="#63b8ff" stroke="#63b8ff" points="2730.65,-67.01 2740.65,-63.51 2730.65,-60.01 2730.65,-67.01"/>
</g>
<!-- Node5 -->
<g id="node5" class="node">
<title>Node5</title>
<g id="a_node5"><a xlink:href="../../d7/d5f/commentscan_8l.html" target="_top" xlink:title=" ">
<polygon fill="white" stroke="#666666" points="423.5,-19 314.5,-19 314.5,0 423.5,0 423.5,-19"/>
<text text-anchor="middle" x="369" y="-7" font-family="Helvetica,sans-Serif" font-size="10.00">src/commentscan.l</text>
</a>
</g>
</g>
<!-- Node1&#45;&gt;Node5 -->
<g id="edge4" class="edge">
<title>Node1&#45;&gt;Node5</title>
<path fill="none" stroke="#63b8ff" d="M2730.22,-63.32C2421.86,-62.19 899.78,-54.86 432,-19 429.25,-18.79 426.43,-18.54 423.59,-18.26"/>
<polygon fill="#63b8ff" stroke="#63b8ff" points="2730.66,-66.82 2740.67,-63.36 2730.69,-59.82 2730.66,-66.82"/>
</g>
<!-- Node6 -->
<g id="node6" class="node">
<title>Node6</title>
<g id="a_node6"><a xlink:href="../../d8/d0a/conceptdef_8cpp.html" target="_top" xlink:title=" ">
<polygon fill="white" stroke="#666666" points="548.5,-19 441.5,-19 441.5,0 548.5,0 548.5,-19"/>
<text text-anchor="middle" x="495" y="-7" font-family="Helvetica,sans-Serif" font-size="10.00">src/conceptdef.cpp</text>
</a>
</g>
</g>
<!-- Node1&#45;&gt;Node6 -->
<g id="edge5" class="edge">
<title>Node1&#45;&gt;Node6</title>
<path fill="none" stroke="#63b8ff" d="M2730.75,-63.27C2433.4,-61.9 998.7,-53.57 557,-19 554.29,-18.79 551.52,-18.54 548.73,-18.25"/>
<polygon fill="#63b8ff" stroke="#63b8ff" points="2730.83,-66.77 2740.84,-63.32 2730.86,-59.77 2730.83,-66.77"/>
</g>
<!-- Node7 -->
<g id="node7" class="node">
<title>Node7</title>
<g id="a_node7"><a xlink:href="../../d9/de3/configimpl_8l.html" target="_top" xlink:title=" ">
<polygon fill="white" stroke="#666666" points="657.5,-19 566.5,-19 566.5,0 657.5,0 657.5,-19"/>
<text text-anchor="middle" x="612" y="-7" font-family="Helvetica,sans-Serif" font-size="10.00">src/configimpl.l</text>
</a>
</g>
</g>
<!-- Node1&#45;&gt;Node7 -->
<g id="edge6" class="edge">
<title>Node1&#45;&gt;Node7</title>
<path fill="none" stroke="#63b8ff" d="M2730.65,-63.35C2441.83,-62.43 1084.39,-56.15 666,-19 663.26,-18.76 660.45,-18.46 657.61,-18.12"/>
<polygon fill="#63b8ff" stroke="#63b8ff" points="2730.85,-66.86 2740.86,-63.39 2730.88,-59.86 2730.85,-66.86"/>
</g>
<!-- Node8 -->
<g id="node8" class="node">
<title>Node8</title>
<g id="a_node8"><a xlink:href="../../db/d12/context_8cpp.html" target="_top" xlink:title=" ">
<polygon fill="white" stroke="#666666" points="766.5,-19 675.5,-19 675.5,0 766.5,0 766.5,-19"/>
<text text-anchor="middle" x="721" y="-7" font-family="Helvetica,sans-Serif" font-size="10.00">src/context.cpp</text>
</a>
</g>
</g>
<!-- Node1&#45;&gt;Node8 -->
<g id="edge7" class="edge">
<title>Node1&#45;&gt;Node8</title>
<path fill="none" stroke="#63b8ff" d="M2730.36,-63.26C2450.04,-61.88 1171.23,-53.77 776,-19 772.92,-18.73 769.75,-18.39 766.56,-18.01"/>
<polygon fill="#63b8ff" stroke="#63b8ff" points="2730.66,-66.76 2740.67,-63.31 2730.69,-59.76 2730.66,-66.76"/>
</g>
<!-- Node9 -->
<g id="node9" class="node">
<title>Node9</title>
<g id="a_node9"><a xlink:href="../../d3/dea/definition_8cpp.html" target="_top" xlink:title=" ">
<polygon fill="white" stroke="#666666" points="885,-19 785,-19 785,0 885,0 885,-19"/>
<text text-anchor="middle" x="835" y="-7" font-family="Helvetica,sans-Serif" font-size="10.00">src/definition.cpp</text>
</a>
</g>
</g>
<!-- Node1&#45;&gt;Node9 -->
<g id="edge8" class="edge">
<title>Node1&#45;&gt;Node9</title>
<path fill="none" stroke="#63b8ff" d="M2730.57,-63.1C2460.74,-60.98 1264.77,-49.96 894,-19 891.11,-18.76 888.15,-18.47 885.17,-18.14"/>
<polygon fill="#63b8ff" stroke="#63b8ff" points="2730.86,-66.6 2740.88,-63.18 2730.91,-59.6 2730.86,-66.6"/>
</g>
<!-- Node10 -->
<g id="node10" class="node">
<title>Node10</title>
<g id="a_node10"><a xlink:href="../../d8/d52/dirdef_8cpp.html" target="_top" xlink:title=" ">
<polygon fill="white" stroke="#666666" points="985,-19 903,-19 903,0 985,0 985,-19"/>
<text text-anchor="middle" x="944" y="-7" font-family="Helvetica,sans-Serif" font-size="10.00">src/dirdef.cpp</text>
</a>
</g>
</g>
<!-- Node1&#45;&gt;Node10 -->
<g id="edge9" class="edge">
<title>Node1&#45;&gt;Node10</title>
<path fill="none" stroke="#63b8ff" d="M2730.51,-63.2C2469.29,-61.61 1343.44,-52.87 994,-19 991.11,-18.72 988.13,-18.37 985.14,-17.97"/>
<polygon fill="#63b8ff" stroke="#63b8ff" points="2730.85,-66.7 2740.87,-63.26 2730.89,-59.7 2730.85,-66.7"/>
</g>
<!-- Node11 -->
<g id="node11" class="node">
<title>Node11</title>
<g id="a_node11"><a xlink:href="../../d8/d29/docbookgen_8cpp.html" target="_top" xlink:title=" ">
<polygon fill="white" stroke="#666666" points="1116.5,-19 1003.5,-19 1003.5,0 1116.5,0 1116.5,-19"/>
<text text-anchor="middle" x="1060" y="-7" font-family="Helvetica,sans-Serif" font-size="10.00">src/docbookgen.cpp</text>
</a>
</g>
</g>
<!-- Node1&#45;&gt;Node11 -->
<g id="edge10" class="edge">
<title>Node1&#45;&gt;Node11</title>
<path fill="none" stroke="#63b8ff" d="M2730.52,-62.8C2481.24,-59.46 1447.66,-44.35 1125,-19 1122.28,-18.79 1119.49,-18.54 1116.68,-18.26"/>
<polygon fill="#63b8ff" stroke="#63b8ff" points="2730.73,-66.3 2740.77,-62.93 2730.82,-59.3 2730.73,-66.3"/>
</g>
<!-- Node12 -->
<g id="node12" class="node">
<title>Node12</title>
<g id="a_node12"><a xlink:href="../../dc/d05/docbookvisitor_8cpp.html" target="_top" xlink:title=" ">
<polygon fill="white" stroke="#666666" points="1259.5,-19 1134.5,-19 1134.5,0 1259.5,0 1259.5,-19"/>
<text text-anchor="middle" x="1197" y="-7" font-family="Helvetica,sans-Serif" font-size="10.00">src/docbookvisitor.cpp</text>
</a>
</g>
</g>
<!-- Node1&#45;&gt;Node12 -->
<g id="edge11" class="edge">
<title>Node1&#45;&gt;Node12</title>
<path fill="none" stroke="#63b8ff" d="M2730.79,-63.67C2534.03,-63.9 1839.13,-61.48 1268,-19 1265.28,-18.8 1262.5,-18.57 1259.69,-18.31"/>
<polygon fill="#63b8ff" stroke="#63b8ff" points="2730.87,-67.17 2740.87,-63.65 2730.86,-60.17 2730.87,-67.17"/>
</g>
<!-- Node13 -->
<g id="node13" class="node">
<title>Node13</title>
<g id="a_node13"><a xlink:href="../../d0/d2b/docnode_8cpp.html" target="_top" xlink:title=" ">
<polygon fill="white" stroke="#666666" points="1372.5,-19 1277.5,-19 1277.5,0 1372.5,0 1372.5,-19"/>
<text text-anchor="middle" x="1325" y="-7" font-family="Helvetica,sans-Serif" font-size="10.00">src/docnode.cpp</text>
</a>
</g>
</g>
<!-- Node1&#45;&gt;Node13 -->
<g id="edge12" class="edge">
<title>Node1&#45;&gt;Node13</title>
<path fill="none" stroke="#63b8ff" d="M2730.81,-64.04C2543.44,-65.45 1905.77,-66.2 1382,-19 1378.91,-18.72 1375.73,-18.39 1372.54,-18.01"/>
<polygon fill="#63b8ff" stroke="#63b8ff" points="2730.98,-67.54 2740.95,-63.96 2730.92,-60.54 2730.98,-67.54"/>
</g>
<!-- Node14 -->
<g id="node14" class="node">
<title>Node14</title>
<g id="a_node14"><a xlink:href="../../de/daa/dot_8cpp.html" target="_top" xlink:title=" ">
<polygon fill="white" stroke="#666666" points="1461,-19 1391,-19 1391,0 1461,0 1461,-19"/>
<text text-anchor="middle" x="1426" y="-7" font-family="Helvetica,sans-Serif" font-size="10.00">src/dot.cpp</text>
</a>
</g>
</g>
<!-- Node1&#45;&gt;Node14 -->
<g id="edge13" class="edge">
<title>Node1&#45;&gt;Node14</title>
<path fill="none" stroke="#63b8ff" d="M2730.63,-62.8C2515.09,-59.84 1720.27,-47.23 1470,-19 1467.22,-18.69 1464.35,-18.29 1461.47,-17.85"/>
<polygon fill="#63b8ff" stroke="#63b8ff" points="2730.7,-66.3 2740.75,-62.94 2730.8,-59.3 2730.7,-66.3"/>
</g>
<!-- Node15 -->
<g id="node15" class="node">
<title>Node15</title>
<g id="a_node15"><a xlink:href="../../d4/d09/dotgfxhierarchytable_8cpp.html" target="_top" xlink:title=" ">
<polygon fill="white" stroke="#666666" points="1635,-19 1479,-19 1479,0 1635,0 1635,-19"/>
<text text-anchor="middle" x="1557" y="-7" font-family="Helvetica,sans-Serif" font-size="10.00">src/dotgfxhierarchytable.cpp</text>
</a>
</g>
</g>
<!-- Node1&#45;&gt;Node15 -->
<g id="edge14" class="edge">
<title>Node1&#45;&gt;Node15</title>
<path fill="none" stroke="#63b8ff" d="M2730.58,-62.51C2566.38,-59.26 2061.54,-47.52 1644,-19 1641.12,-18.8 1638.19,-18.59 1635.24,-18.36"/>
<polygon fill="#63b8ff" stroke="#63b8ff" points="2730.83,-66.01 2740.9,-62.71 2730.97,-59.01 2730.83,-66.01"/>
</g>
<!-- Node16 -->
<g id="node16" class="node">
<title>Node16</title>
<g id="a_node16"><a xlink:href="../../d4/d33/dotlegendgraph_8cpp.html" target="_top" xlink:title=" ">
<polygon fill="white" stroke="#666666" points="1784.5,-19 1653.5,-19 1653.5,0 1784.5,0 1784.5,-19"/>
<text text-anchor="middle" x="1719" y="-7" font-family="Helvetica,sans-Serif" font-size="10.00">src/dotlegendgraph.cpp</text>
</a>
</g>
</g>
<!-- Node1&#45;&gt;Node16 -->
<g id="edge15" class="edge">
<title>Node1&#45;&gt;Node16</title>
<path fill="none" stroke="#63b8ff" d="M2730.7,-62.36C2581.15,-58.93 2150.7,-47.19 1794,-19 1791,-18.76 1787.93,-18.5 1784.83,-18.22"/>
<polygon fill="#63b8ff" stroke="#63b8ff" points="2730.9,-65.86 2740.98,-62.59 2731.06,-58.87 2730.9,-65.86"/>
</g>
<!-- Node17 -->
<g id="node17" class="node">
<title>Node17</title>
<g id="a_node17"><a xlink:href="../../df/d58/dotnode_8cpp.html" target="_top" xlink:title=" ">
<polygon fill="white" stroke="#666666" points="1897,-19 1803,-19 1803,0 1897,0 1897,-19"/>
<text text-anchor="middle" x="1850" y="-7" font-family="Helvetica,sans-Serif" font-size="10.00">src/dotnode.cpp</text>
</a>
</g>
</g>
<!-- Node1&#45;&gt;Node17 -->
<g id="edge16" class="edge">
<title>Node1&#45;&gt;Node17</title>
<path fill="none" stroke="#63b8ff" d="M2730.68,-62.64C2592.62,-60.04 2217.15,-50.41 1906,-19 1903.06,-18.7 1900.05,-18.36 1897.01,-17.98"/>
<polygon fill="#63b8ff" stroke="#63b8ff" points="2730.92,-66.14 2740.98,-62.83 2731.05,-59.14 2730.92,-66.14"/>
</g>
<!-- Node18 -->
<g id="node18" class="node">
<title>Node18</title>
<g id="a_node18"><a xlink:href="../../dc/d98/doxygen_8cpp.html" target="_top" xlink:title=" ">
<polygon fill="white" stroke="#666666" points="2011,-19 1915,-19 1915,0 2011,0 2011,-19"/>
<text text-anchor="middle" x="1963" y="-7" font-family="Helvetica,sans-Serif" font-size="10.00">src/doxygen.cpp</text>
</a>
</g>
</g>
<!-- Node1&#45;&gt;Node18 -->
<g id="edge17" class="edge">
<title>Node1&#45;&gt;Node18</title>
<path fill="none" stroke="#63b8ff" d="M2730.8,-62.02C2605.42,-58.24 2285.79,-46.49 2020,-19 2017.11,-18.7 2014.15,-18.36 2011.16,-17.99"/>
<polygon fill="#63b8ff" stroke="#63b8ff" points="2730.81,-65.52 2740.91,-62.32 2731.01,-58.53 2730.81,-65.52"/>
</g>
<!-- Node19 -->
<g id="node19" class="node">
<title>Node19</title>
<g id="a_node19"><a xlink:href="../../d6/ddc/filedef_8cpp.html" target="_top" xlink:title=" ">
<polygon fill="white" stroke="#666666" points="2113,-19 2029,-19 2029,0 2113,0 2113,-19"/>
<text text-anchor="middle" x="2071" y="-7" font-family="Helvetica,sans-Serif" font-size="10.00">src/filedef.cpp</text>
</a>
</g>
</g>
<!-- Node1&#45;&gt;Node19 -->
<g id="edge18" class="edge">
<title>Node1&#45;&gt;Node19</title>
<path fill="none" stroke="#63b8ff" d="M2730.47,-61.65C2616.93,-57.41 2347.01,-45.24 2122,-19 2119.15,-18.67 2116.21,-18.28 2113.26,-17.87"/>
<polygon fill="#63b8ff" stroke="#63b8ff" points="2730.51,-65.16 2740.64,-62.03 2730.77,-58.16 2730.51,-65.16"/>
</g>
<!-- Node20 -->
<g id="node20" class="node">
<title>Node20</title>
<g id="a_node20"><a xlink:href="../../dd/d00/fortranscanner_8l.html" target="_top" xlink:title=" ">
<polygon fill="white" stroke="#666666" points="2241,-19 2131,-19 2131,0 2241,0 2241,-19"/>
<text text-anchor="middle" x="2186" y="-7" font-family="Helvetica,sans-Serif" font-size="10.00">src/fortranscanner.l</text>
</a>
</g>
</g>
<!-- Node1&#45;&gt;Node20 -->
<g id="edge19" class="edge">
<title>Node1&#45;&gt;Node20</title>
<path fill="none" stroke="#63b8ff" d="M2730.77,-59.87C2634.05,-53.21 2425.46,-37.94 2250,-19 2247.1,-18.69 2244.13,-18.35 2241.14,-18"/>
<polygon fill="#63b8ff" stroke="#63b8ff" points="2730.68,-63.37 2740.89,-60.57 2731.15,-56.39 2730.68,-63.37"/>
</g>
<!-- Node21 -->
<g id="node21" class="node">
<title>Node21</title>
<g id="a_node21"><a xlink:href="../../db/d41/ftvhelp_8cpp.html" target="_top" xlink:title=" ">
<polygon fill="white" stroke="#666666" points="2347,-19 2259,-19 2259,0 2347,0 2347,-19"/>
<text text-anchor="middle" x="2303" y="-7" font-family="Helvetica,sans-Serif" font-size="10.00">src/ftvhelp.cpp</text>
</a>
</g>
</g>
<!-- Node1&#45;&gt;Node21 -->
<g id="edge20" class="edge">
<title>Node1&#45;&gt;Node21</title>
<path fill="none" stroke="#63b8ff" d="M2730.91,-58.93C2649.29,-51.81 2489.84,-36.98 2355,-19 2352.46,-18.66 2349.86,-18.3 2347.23,-17.91"/>
<polygon fill="#63b8ff" stroke="#63b8ff" points="2730.68,-62.43 2740.95,-59.8 2731.29,-55.45 2730.68,-62.43"/>
</g>
<!-- Node22 -->
<g id="node22" class="node">
<title>Node22</title>
<g id="a_node22"><a xlink:href="../../d6/d42/groupdef_8cpp.html" target="_top" xlink:title=" ">
<polygon fill="white" stroke="#666666" points="2461.5,-19 2364.5,-19 2364.5,0 2461.5,0 2461.5,-19"/>
<text text-anchor="middle" x="2413" y="-7" font-family="Helvetica,sans-Serif" font-size="10.00">src/groupdef.cpp</text>
</a>
</g>
</g>
<!-- Node1&#45;&gt;Node22 -->
<g id="edge21" class="edge">
<title>Node1&#45;&gt;Node22</title>
<path fill="none" stroke="#63b8ff" d="M2730.75,-55.89C2668.15,-47.09 2562.11,-32.13 2471,-19 2467.98,-18.56 2464.87,-18.11 2461.73,-17.66"/>
<polygon fill="#63b8ff" stroke="#63b8ff" points="2730.4,-59.38 2740.79,-57.3 2731.37,-52.44 2730.4,-59.38"/>
</g>
<!-- Node23 -->
<g id="node23" class="node">
<title>Node23</title>
<g id="a_node23"><a xlink:href="../../da/db0/htmldocvisitor_8cpp.html" target="_top" xlink:title=" ">
<polygon fill="white" stroke="#666666" points="2604,-19 2480,-19 2480,0 2604,0 2604,-19"/>
<text text-anchor="middle" x="2542" y="-7" font-family="Helvetica,sans-Serif" font-size="10.00">src/htmldocvisitor.cpp</text>
</a>
</g>
</g>
<!-- Node1&#45;&gt;Node23 -->
<g id="edge22" class="edge">
<title>Node1&#45;&gt;Node23</title>
<path fill="none" stroke="#63b8ff" d="M2736.01,-52.82C2690.47,-42.88 2623.5,-28.28 2581.35,-19.08"/>
<polygon fill="#63b8ff" stroke="#63b8ff" points="2735.44,-56.27 2745.96,-54.98 2736.93,-49.43 2735.44,-56.27"/>
</g>
<!-- Node24 -->
<g id="node24" class="node">
<title>Node24</title>
<g id="a_node24"><a xlink:href="../../d8/d6e/htmlgen_8cpp.html" target="_top" xlink:title=" ">
<polygon fill="white" stroke="#666666" points="2717.5,-19 2622.5,-19 2622.5,0 2717.5,0 2717.5,-19"/>
<text text-anchor="middle" x="2670" y="-7" font-family="Helvetica,sans-Serif" font-size="10.00">src/htmlgen.cpp</text>
</a>
</g>
</g>
<!-- Node1&#45;&gt;Node24 -->
<g id="edge23" class="edge">
<title>Node1&#45;&gt;Node24</title>
<path fill="none" stroke="#63b8ff" d="M2757.37,-50.77C2736.16,-40.99 2707.44,-27.75 2688.81,-19.17"/>
<polygon fill="#63b8ff" stroke="#63b8ff" points="2755.98,-53.98 2766.52,-54.98 2758.91,-47.62 2755.98,-53.98"/>
</g>
<!-- Node25 -->
<g id="node25" class="node">
<title>Node25</title>
<g id="a_node25"><a xlink:href="../../d3/d4b/htmlhelp_8cpp.html" target="_top" xlink:title=" ">
<polygon fill="white" stroke="#666666" points="2834,-19 2736,-19 2736,0 2834,0 2834,-19"/>
<text text-anchor="middle" x="2785" y="-7" font-family="Helvetica,sans-Serif" font-size="10.00">src/htmlhelp.cpp</text>
</a>
</g>
</g>
<!-- Node1&#45;&gt;Node25 -->
<g id="edge24" class="edge">
<title>Node1&#45;&gt;Node25</title>
<path fill="none" stroke="#63b8ff" d="M2785,-44.66C2785,-35.93 2785,-25.99 2785,-19.09"/>
<polygon fill="#63b8ff" stroke="#63b8ff" points="2781.5,-44.75 2785,-54.75 2788.5,-44.75 2781.5,-44.75"/>
</g>
<!-- Node26 -->
<g id="node26" class="node">
<title>Node26</title>
<g id="a_node26"><a xlink:href="../../db/d14/index_8cpp.html" target="_top" xlink:title="This file contains functions for the various index pages.">
<polygon fill="white" stroke="#666666" points="2933.5,-19 2852.5,-19 2852.5,0 2933.5,0 2933.5,-19"/>
<text text-anchor="middle" x="2893" y="-7" font-family="Helvetica,sans-Serif" font-size="10.00">src/index.cpp</text>
</a>
</g>
</g>
<!-- Node1&#45;&gt;Node26 -->
<g id="edge25" class="edge">
<title>Node1&#45;&gt;Node26</title>
<path fill="none" stroke="#63b8ff" d="M2811.49,-50.5C2831.36,-40.75 2858,-27.68 2875.33,-19.17"/>
<polygon fill="#63b8ff" stroke="#63b8ff" points="2809.79,-47.44 2802.35,-54.98 2812.87,-53.72 2809.79,-47.44"/>
</g>
<!-- Node27 -->
<g id="node27" class="node">
<title>Node27</title>
<g id="a_node27"><a xlink:href="../../d2/d48/language_8cpp.html" target="_top" xlink:title=" ">
<polygon fill="white" stroke="#666666" points="3050.5,-19 2951.5,-19 2951.5,0 3050.5,0 3050.5,-19"/>
<text text-anchor="middle" x="3001" y="-7" font-family="Helvetica,sans-Serif" font-size="10.00">src/language.cpp</text>
</a>
</g>
</g>
<!-- Node1&#45;&gt;Node27 -->
<g id="edge26" class="edge">
<title>Node1&#45;&gt;Node27</title>
<path fill="none" stroke="#63b8ff" d="M2829.57,-52.56C2870.02,-42.64 2928.87,-28.2 2966.02,-19.08"/>
<polygon fill="#63b8ff" stroke="#63b8ff" points="2828.58,-49.2 2819.7,-54.98 2830.25,-56 2828.58,-49.2"/>
</g>
<!-- Node28 -->
<g id="node28" class="node">
<title>Node28</title>
<g id="a_node28"><a xlink:href="../../d1/d4e/latexdocvisitor_8cpp.html" target="_top" xlink:title=" ">
<polygon fill="white" stroke="#666666" points="3195,-19 3069,-19 3069,0 3195,0 3195,-19"/>
<text text-anchor="middle" x="3132" y="-7" font-family="Helvetica,sans-Serif" font-size="10.00">src/latexdocvisitor.cpp</text>
</a>
</g>
</g>
<!-- Node1&#45;&gt;Node28 -->
<g id="edge27" class="edge">
<title>Node1&#45;&gt;Node28</title>
<path fill="none" stroke="#63b8ff" d="M2839.28,-55.21C2903.83,-45.35 3011.01,-28.98 3076.22,-19.02"/>
<polygon fill="#63b8ff" stroke="#63b8ff" points="2838.66,-51.76 2829.3,-56.73 2839.71,-58.68 2838.66,-51.76"/>
</g>
<!-- Node29 -->
<g id="node29" class="node">
<title>Node29</title>
<g id="a_node29"><a xlink:href="../../d4/d42/latexgen_8cpp.html" target="_top" xlink:title=" ">
<polygon fill="white" stroke="#666666" points="3310.5,-19 3213.5,-19 3213.5,0 3310.5,0 3310.5,-19"/>
<text text-anchor="middle" x="3262" y="-7" font-family="Helvetica,sans-Serif" font-size="10.00">src/latexgen.cpp</text>
</a>
</g>
</g>
<!-- Node1&#45;&gt;Node29 -->
<g id="edge28" class="edge">
<title>Node1&#45;&gt;Node29</title>
<path fill="none" stroke="#63b8ff" d="M2839.42,-58.42C2919.42,-50.79 3073.42,-35.5 3204,-19 3207.03,-18.62 3210.14,-18.21 3213.28,-17.78"/>
<polygon fill="#63b8ff" stroke="#63b8ff" points="2838.73,-54.97 2829.1,-59.4 2839.39,-61.94 2838.73,-54.97"/>
</g>
<!-- Node30 -->
<g id="node30" class="node">
<title>Node30</title>
<g id="a_node30"><a xlink:href="../../db/d16/layout_8cpp.html" target="_top" xlink:title=" ">
<polygon fill="white" stroke="#666666" points="3413.5,-19 3328.5,-19 3328.5,0 3413.5,0 3413.5,-19"/>
<text text-anchor="middle" x="3371" y="-7" font-family="Helvetica,sans-Serif" font-size="10.00">src/layout.cpp</text>
</a>
</g>
</g>
<!-- Node1&#45;&gt;Node30 -->
<g id="edge29" class="edge">
<title>Node1&#45;&gt;Node30</title>
<path fill="none" stroke="#63b8ff" d="M2839.3,-60.46C2936.12,-54.72 3144.88,-40.84 3320,-19 3322.76,-18.66 3325.6,-18.27 3328.46,-17.86"/>
<polygon fill="#63b8ff" stroke="#63b8ff" points="2838.94,-56.98 2829.17,-61.06 2839.35,-63.97 2838.94,-56.98"/>
</g>
<!-- Node31 -->
<g id="node31" class="node">
<title>Node31</title>
<g id="a_node31"><a xlink:href="../../d8/dde/mandocvisitor_8cpp.html" target="_top" xlink:title=" ">
<polygon fill="white" stroke="#666666" points="3554.5,-19 3431.5,-19 3431.5,0 3554.5,0 3554.5,-19"/>
<text text-anchor="middle" x="3493" y="-7" font-family="Helvetica,sans-Serif" font-size="10.00">src/mandocvisitor.cpp</text>
</a>
</g>
</g>
<!-- Node1&#45;&gt;Node31 -->
<g id="edge30" class="edge">
<title>Node1&#45;&gt;Node31</title>
<path fill="none" stroke="#63b8ff" d="M2839.35,-60.65C2949.57,-54.66 3207.24,-39.61 3423,-19 3425.68,-18.74 3428.42,-18.47 3431.18,-18.18"/>
<polygon fill="#63b8ff" stroke="#63b8ff" points="2838.95,-57.17 2829.15,-61.2 2839.33,-64.16 2838.95,-57.17"/>
</g>
<!-- Node32 -->
<g id="node32" class="node">
<title>Node32</title>
<g id="a_node32"><a xlink:href="../../d7/de7/mangen_8cpp.html" target="_top" xlink:title=" ">
<polygon fill="white" stroke="#666666" points="3667,-19 3573,-19 3573,0 3667,0 3667,-19"/>
<text text-anchor="middle" x="3620" y="-7" font-family="Helvetica,sans-Serif" font-size="10.00">src/mangen.cpp</text>
</a>
</g>
</g>
<!-- Node1&#45;&gt;Node32 -->
<g id="edge31" class="edge">
<title>Node1&#45;&gt;Node32</title>
<path fill="none" stroke="#63b8ff" d="M2839.28,-62.15C2966.3,-58.6 3292.73,-47.27 3564,-19 3566.93,-18.69 3569.95,-18.34 3572.99,-17.96"/>
<polygon fill="#63b8ff" stroke="#63b8ff" points="2838.94,-58.65 2829.04,-62.43 2839.13,-65.65 2838.94,-58.65"/>
</g>
<!-- Node33 -->
<g id="node33" class="node">
<title>Node33</title>
<g id="a_node33"><a xlink:href="../../d0/d72/memberdef_8cpp.html" target="_top" xlink:title=" ">
<polygon fill="white" stroke="#666666" points="3795,-19 3685,-19 3685,0 3795,0 3795,-19"/>
<text text-anchor="middle" x="3740" y="-7" font-family="Helvetica,sans-Serif" font-size="10.00">src/memberdef.cpp</text>
</a>
</g>
</g>
<!-- Node1&#45;&gt;Node33 -->
<g id="edge32" class="edge">
<title>Node1&#45;&gt;Node33</title>
<path fill="none" stroke="#63b8ff" d="M2839.53,-62.34C2978.99,-59.02 3359.94,-47.83 3676,-19 3678.9,-18.74 3681.88,-18.44 3684.87,-18.11"/>
<polygon fill="#63b8ff" stroke="#63b8ff" points="2839.04,-58.85 2829.13,-62.58 2839.21,-65.84 2839.04,-58.85"/>
</g>
<!-- Node34 -->
<g id="node34" class="node">
<title>Node34</title>
<g id="a_node34"><a xlink:href="../../d6/d18/membergroup_8cpp.html" target="_top" xlink:title=" ">
<polygon fill="white" stroke="#666666" points="3936.5,-19 3813.5,-19 3813.5,0 3936.5,0 3936.5,-19"/>
<text text-anchor="middle" x="3875" y="-7" font-family="Helvetica,sans-Serif" font-size="10.00">src/membergroup.cpp</text>
</a>
</g>
</g>
<!-- Node1&#45;&gt;Node34 -->
<g id="edge33" class="edge">
<title>Node1&#45;&gt;Node34</title>
<path fill="none" stroke="#63b8ff" d="M2839.31,-62.57C2991.68,-59.65 3436.08,-49.01 3804,-19 3807.09,-18.75 3810.26,-18.46 3813.46,-18.16"/>
<polygon fill="#63b8ff" stroke="#63b8ff" points="2839.2,-59.07 2829.27,-62.76 2839.34,-66.07 2839.2,-59.07"/>
</g>
<!-- Node35 -->
<g id="node35" class="node">
<title>Node35</title>
<g id="a_node35"><a xlink:href="../../d0/d14/memberlist_8cpp.html" target="_top" xlink:title=" ">
<polygon fill="white" stroke="#666666" points="4065,-19 3955,-19 3955,0 4065,0 4065,-19"/>
<text text-anchor="middle" x="4010" y="-7" font-family="Helvetica,sans-Serif" font-size="10.00">src/memberlist.cpp</text>
</a>
</g>
</g>
<!-- Node1&#45;&gt;Node35 -->
<g id="edge34" class="edge">
<title>Node1&#45;&gt;Node35</title>
<path fill="none" stroke="#63b8ff" d="M2839.56,-63.22C3005.86,-61.99 3520.97,-55.29 3946,-19 3948.9,-18.75 3951.88,-18.47 3954.88,-18.15"/>
<polygon fill="#63b8ff" stroke="#63b8ff" points="2839.09,-59.73 2829.11,-63.3 2839.14,-66.73 2839.09,-59.73"/>
</g>
<!-- Node36 -->
<g id="node36" class="node">
<title>Node36</title>
<g id="a_node36"><a xlink:href="../../d7/d1c/namespacedef_8cpp.html" target="_top" xlink:title=" ">
<polygon fill="white" stroke="#666666" points="4208.5,-19 4083.5,-19 4083.5,0 4208.5,0 4208.5,-19"/>
<text text-anchor="middle" x="4146" y="-7" font-family="Helvetica,sans-Serif" font-size="10.00">src/namespacedef.cpp</text>
</a>
</g>
</g>
<!-- Node1&#45;&gt;Node36 -->
<g id="edge35" class="edge">
<title>Node1&#45;&gt;Node36</title>
<path fill="none" stroke="#63b8ff" d="M2839.15,-63.24C3016.55,-62.04 3596.23,-55.39 4074,-19 4077.01,-18.77 4080.09,-18.51 4083.2,-18.22"/>
<polygon fill="#63b8ff" stroke="#63b8ff" points="2839.01,-59.74 2829.03,-63.3 2839.06,-66.74 2839.01,-59.74"/>
</g>
<!-- Node37 -->
<g id="node37" class="node">
<title>Node37</title>
<g id="a_node37"><a xlink:href="../../d9/db4/pagedef_8cpp.html" target="_top" xlink:title=" ">
<polygon fill="white" stroke="#666666" points="4319.5,-19 4226.5,-19 4226.5,0 4319.5,0 4319.5,-19"/>
<text text-anchor="middle" x="4273" y="-7" font-family="Helvetica,sans-Serif" font-size="10.00">src/pagedef.cpp</text>
</a>
</g>
</g>
<!-- Node1&#45;&gt;Node37 -->
<g id="edge36" class="edge">
<title>Node1&#45;&gt;Node37</title>
<path fill="none" stroke="#63b8ff" d="M2839.29,-62.7C3066.6,-59.23 3942.78,-44.44 4218,-19 4220.69,-18.75 4223.46,-18.45 4226.24,-18.12"/>
<polygon fill="#63b8ff" stroke="#63b8ff" points="2839.22,-59.2 2829.28,-62.86 2839.33,-66.2 2839.22,-59.2"/>
</g>
<!-- Node38 -->
<g id="node38" class="node">
<title>Node38</title>
<g id="a_node38"><a xlink:href="../../de/d2b/pyscanner_8l.html" target="_top" xlink:title=" ">
<polygon fill="white" stroke="#666666" points="4426.5,-19 4337.5,-19 4337.5,0 4426.5,0 4426.5,-19"/>
<text text-anchor="middle" x="4382" y="-7" font-family="Helvetica,sans-Serif" font-size="10.00">src/pyscanner.l</text>
</a>
</g>
</g>
<!-- Node1&#45;&gt;Node38 -->
<g id="edge37" class="edge">
<title>Node1&#45;&gt;Node38</title>
<path fill="none" stroke="#63b8ff" d="M2839.14,-62.89C3077,-60.05 4030.74,-47.09 4329,-19 4331.69,-18.75 4334.45,-18.44 4337.23,-18.1"/>
<polygon fill="#63b8ff" stroke="#63b8ff" points="2838.97,-59.39 2829.01,-63.01 2839.05,-66.39 2838.97,-59.39"/>
</g>
<!-- Node39 -->
<g id="node39" class="node">
<title>Node39</title>
<g id="a_node39"><a xlink:href="../../de/d9a/rtfdocvisitor_8cpp.html" target="_top" xlink:title=" ">
<polygon fill="white" stroke="#666666" points="4557.5,-19 4444.5,-19 4444.5,0 4557.5,0 4557.5,-19"/>
<text text-anchor="middle" x="4501" y="-7" font-family="Helvetica,sans-Serif" font-size="10.00">src/rtfdocvisitor.cpp</text>
</a>
</g>
</g>
<!-- Node1&#45;&gt;Node39 -->
<g id="edge38" class="edge">
<title>Node1&#45;&gt;Node39</title>
<path fill="none" stroke="#63b8ff" d="M2839.59,-62.79C3088.24,-59.42 4115.27,-44.23 4436,-19 4438.72,-18.79 4441.51,-18.54 4444.32,-18.26"/>
<polygon fill="#63b8ff" stroke="#63b8ff" points="2839.31,-59.29 2829.36,-62.92 2839.41,-66.29 2839.31,-59.29"/>
</g>
<!-- Node40 -->
<g id="node40" class="node">
<title>Node40</title>
<g id="a_node40"><a xlink:href="../../d0/d9c/rtfgen_8cpp.html" target="_top" xlink:title=" ">
<polygon fill="white" stroke="#666666" points="4658.5,-19 4575.5,-19 4575.5,0 4658.5,0 4658.5,-19"/>
<text text-anchor="middle" x="4617" y="-7" font-family="Helvetica,sans-Serif" font-size="10.00">src/rtfgen.cpp</text>
</a>
</g>
</g>
<!-- Node1&#45;&gt;Node40 -->
<g id="edge39" class="edge">
<title>Node1&#45;&gt;Node40</title>
<path fill="none" stroke="#63b8ff" d="M2839.64,-63.19C3100.35,-61.56 4219.51,-52.7 4567,-19 4569.72,-18.74 4572.51,-18.41 4575.32,-18.05"/>
<polygon fill="#63b8ff" stroke="#63b8ff" points="2839.28,-59.69 2829.3,-63.26 2839.32,-66.69 2839.28,-59.69"/>
</g>
<!-- Node41 -->
<g id="node41" class="node">
<title>Node41</title>
<g id="a_node41"><a xlink:href="../../da/d11/scanner_8l.html" target="_top" xlink:title=" ">
<polygon fill="white" stroke="#666666" points="4753.5,-19 4676.5,-19 4676.5,0 4753.5,0 4753.5,-19"/>
<text text-anchor="middle" x="4715" y="-7" font-family="Helvetica,sans-Serif" font-size="10.00">src/scanner.l</text>
</a>
</g>
</g>
<!-- Node1&#45;&gt;Node41 -->
<g id="edge40" class="edge">
<title>Node1&#45;&gt;Node41</title>
<path fill="none" stroke="#63b8ff" d="M2839.66,-63.35C3109.33,-62.46 4299.61,-56.44 4668,-19 4670.72,-18.72 4673.52,-18.38 4676.34,-17.98"/>
<polygon fill="#63b8ff" stroke="#63b8ff" points="2839.34,-59.86 2829.35,-63.39 2839.37,-66.86 2839.34,-59.86"/>
</g>
<!-- Node42 -->
<g id="node42" class="node">
<title>Node42</title>
<g id="a_node42"><a xlink:href="../../d7/d79/searchindex_8cpp.html" target="_top" xlink:title=" ">
<polygon fill="white" stroke="#666666" points="4884.5,-19 4771.5,-19 4771.5,0 4884.5,0 4884.5,-19"/>
<text text-anchor="middle" x="4828" y="-7" font-family="Helvetica,sans-Serif" font-size="10.00">src/searchindex.cpp</text>
</a>
</g>
</g>
<!-- Node1&#45;&gt;Node42 -->
<g id="edge41" class="edge">
<title>Node1&#45;&gt;Node42</title>
<path fill="none" stroke="#63b8ff" d="M2839.23,-63.07C3116.07,-60.75 4373.71,-48.75 4763,-19 4765.72,-18.79 4768.51,-18.55 4771.32,-18.28"/>
<polygon fill="#63b8ff" stroke="#63b8ff" points="2839.01,-59.57 2829.04,-63.15 2839.07,-66.57 2839.01,-59.57"/>
</g>
<!-- Node43 -->
<g id="node43" class="node">
<title>Node43</title>
<g id="a_node43"><a xlink:href="../../d9/d2f/searchindex__js_8cpp.html" target="_top" xlink:title=" ">
<polygon fill="white" stroke="#666666" points="5029.5,-19 4902.5,-19 4902.5,0 5029.5,0 5029.5,-19"/>
<text text-anchor="middle" x="4966" y="-7" font-family="Helvetica,sans-Serif" font-size="10.00">src/searchindex_js.cpp</text>
</a>
</g>
</g>
<!-- Node1&#45;&gt;Node43 -->
<g id="edge42" class="edge">
<title>Node1&#45;&gt;Node43</title>
<path fill="none" stroke="#63b8ff" d="M2839.54,-63.06C3127.88,-60.64 4477.17,-47.93 4894,-19 4896.76,-18.81 4899.58,-18.59 4902.43,-18.34"/>
<polygon fill="#63b8ff" stroke="#63b8ff" points="2839.31,-59.56 2829.34,-63.15 2839.37,-66.56 2839.31,-59.56"/>
</g>
<!-- Node44 -->
<g id="node44" class="node">
<title>Node44</title>
<g id="a_node44"><a xlink:href="../../df/d2d/util_8cpp.html" target="_top" xlink:title=" ">
<polygon fill="white" stroke="#666666" points="5118,-19 5048,-19 5048,0 5118,0 5118,-19"/>
<text text-anchor="middle" x="5083" y="-7" font-family="Helvetica,sans-Serif" font-size="10.00">src/util.cpp</text>
</a>
</g>
</g>
<!-- Node1&#45;&gt;Node44 -->
<g id="edge43" class="edge">
<title>Node1&#45;&gt;Node44</title>
<path fill="none" stroke="#63b8ff" d="M2839.44,-63.69C3139.37,-64.54 4593.03,-66.13 5039,-19 5041.79,-18.71 5044.66,-18.33 5047.54,-17.89"/>
<polygon fill="#63b8ff" stroke="#63b8ff" points="2839.27,-60.19 2829.26,-63.66 2839.25,-67.19 2839.27,-60.19"/>
</g>
<!-- Node45 -->
<g id="node45" class="node">
<title>Node45</title>
<g id="a_node45"><a xlink:href="../../de/dea/vhdldocgen_8cpp.html" target="_top" xlink:title=" ">
<polygon fill="white" stroke="#666666" points="5246,-19 5136,-19 5136,0 5246,0 5246,-19"/>
<text text-anchor="middle" x="5191" y="-7" font-family="Helvetica,sans-Serif" font-size="10.00">src/vhdldocgen.cpp</text>
</a>
</g>
</g>
<!-- Node1&#45;&gt;Node45 -->
<g id="edge44" class="edge">
<title>Node1&#45;&gt;Node45</title>
<path fill="none" stroke="#63b8ff" d="M2839.52,-63.3C3146.43,-62.06 4661.37,-54.23 5127,-19 5129.91,-18.78 5132.88,-18.52 5135.88,-18.22"/>
<polygon fill="#63b8ff" stroke="#63b8ff" points="2839.1,-59.8 2829.12,-63.34 2839.13,-66.8 2839.1,-59.8"/>
</g>
<!-- Node46 -->
<g id="node46" class="node">
<title>Node46</title>
<g id="a_node46"><a xlink:href="../../d1/d86/vhdljjparser_8cpp.html" target="_top" xlink:title=" ">
<polygon fill="white" stroke="#666666" points="5375.5,-19 5264.5,-19 5264.5,0 5375.5,0 5375.5,-19"/>
<text text-anchor="middle" x="5320" y="-7" font-family="Helvetica,sans-Serif" font-size="10.00">src/vhdljjparser.cpp</text>
</a>
</g>
</g>
<!-- Node1&#45;&gt;Node46 -->
<g id="edge45" class="edge">
<title>Node1&#45;&gt;Node46</title>
<path fill="none" stroke="#63b8ff" d="M2839.45,-63.35C3155.99,-62.35 4762.31,-55.54 5255,-19 5258.06,-18.77 5261.21,-18.5 5264.37,-18.19"/>
<polygon fill="#63b8ff" stroke="#63b8ff" points="2839.15,-59.85 2829.16,-63.38 2839.17,-66.85 2839.15,-59.85"/>
</g>
<!-- Node47 -->
<g id="node47" class="node">
<title>Node47</title>
<g id="a_node47"><a xlink:href="../../dd/db6/xmldocvisitor_8cpp.html" target="_top" xlink:title=" ">
<polygon fill="white" stroke="#666666" points="5514,-19 5394,-19 5394,0 5514,0 5514,-19"/>
<text text-anchor="middle" x="5454" y="-7" font-family="Helvetica,sans-Serif" font-size="10.00">src/xmldocvisitor.cpp</text>
</a>
</g>
</g>
<!-- Node1&#45;&gt;Node47 -->
<g id="edge46" class="edge">
<title>Node1&#45;&gt;Node47</title>
<path fill="none" stroke="#63b8ff" d="M2839.17,-63.35C3164.73,-62.35 4864.58,-55.41 5385,-19 5387.89,-18.8 5390.84,-18.56 5393.83,-18.29"/>
<polygon fill="#63b8ff" stroke="#63b8ff" points="2839.05,-59.85 2829.06,-63.38 2839.07,-66.85 2839.05,-59.85"/>
</g>
<!-- Node48 -->
<g id="node48" class="node">
<title>Node48</title>
<g id="a_node48"><a xlink:href="../../d0/dc3/xmlgen_8cpp.html" target="_top" xlink:title=" ">
<polygon fill="white" stroke="#666666" points="5623.5,-19 5532.5,-19 5532.5,0 5623.5,0 5623.5,-19"/>
<text text-anchor="middle" x="5578" y="-7" font-family="Helvetica,sans-Serif" font-size="10.00">src/xmlgen.cpp</text>
</a>
</g>
</g>
<!-- Node1&#45;&gt;Node48 -->
<g id="edge47" class="edge">
<title>Node1&#45;&gt;Node48</title>
<path fill="none" stroke="#63b8ff" d="M2839.88,-63.63C3177.34,-64.31 4974.43,-65.63 5523,-19 5526.08,-18.74 5529.25,-18.41 5532.44,-18.03"/>
<polygon fill="#63b8ff" stroke="#63b8ff" points="2839.42,-60.13 2829.41,-63.61 2839.4,-67.13 2839.42,-60.13"/>
</g>
</g>
</svg>
        <g id="navigator" transform="translate(0 0)" fill="#404254">
                <rect fill="#f2f5e9" fill-opacity="0.5" stroke="#606060" stroke-width=".5" x="0" y="0" width="60" height="60"/>
                <use id="zoomplus" xlink:href="#zoomPlus" x="17" y="9" onmousedown="handleZoom(evt,'in')"/>
                <use id="zoomminus" xlink:href="#zoomMin" x="42" y="9" onmousedown="handleZoom(evt,'out')"/>
                <use id="reset" xlink:href="#resetDef" x="30" y="36" onmousedown="handleReset()"/>
                <g id="arrowUp" xlink:href="#dirArrow" transform="translate(30 24)" onmousedown="handlePan(0,-1)">
                  <use xlink:href="#rim" fill="#404040">
                        <set attributeName="fill" to="#808080" begin="arrowUp.mouseover" end="arrowUp.mouseout"/>
                  </use>
                  <path fill="none" stroke="white" stroke-width="1.5" d="M0,-3.0v7 M-2.5,-0.5L0,-3.0L2.5,-0.5"/>
                </g>
                <g id="arrowRight" xlink:href="#dirArrow" transform="rotate(90) translate(36 -43)" onmousedown="handlePan(1,0)">
                  <use xlink:href="#rim" fill="#404040">
                        <set attributeName="fill" to="#808080" begin="arrowRight.mouseover" end="arrowRight.mouseout"/>
                  </use>
                  <path fill="none" stroke="white" stroke-width="1.5" d="M0,-3.0v7 M-2.5,-0.5L0,-3.0L2.5,-0.5"/>
                </g>
                <g id="arrowDown" xlink:href="#dirArrow" transform="rotate(180) translate(-30 -48)" onmousedown="handlePan(0,1)">
                  <use xlink:href="#rim" fill="#404040">
                        <set attributeName="fill" to="#808080" begin="arrowDown.mouseover" end="arrowDown.mouseout"/>
                  </use>
                  <path fill="none" stroke="white" stroke-width="1.5" d="M0,-3.0v7 M-2.5,-0.5L0,-3.0L2.5,-0.5"/>
                </g>
                <g id="arrowLeft" xlink:href="#dirArrow" transform="rotate(270) translate(-36 17)" onmousedown="handlePan(-1,0)">
                  <use xlink:href="#rim" fill="#404040">
                        <set attributeName="fill" to="#808080" begin="arrowLeft.mouseover" end="arrowLeft.mouseout"/>
                  </use>
                  <path fill="none" stroke="white" stroke-width="1.5" d="M0,-3.0v7 M-2.5,-0.5L0,-3.0L2.5,-0.5"/>
                </g>
        </g>
        <svg viewBox="0 0 15 15" width="100%" height="30px" preserveAspectRatio="xMaxYMin meet">
         <g id="arrow_out" transform="scale(0.3 0.3)">
          <a xlink:href="language_8h__dep__incl_org.svg" target="_base">
           <rect id="button" ry="5" rx="5" y="6" x="6" height="38" width="38"
                fill="#f2f5e9" fill-opacity="0.5" stroke="#606060" stroke-width="1.0"/>
           <path id="arrow"
             d="M 11.500037,31.436501 C 11.940474,20.09759 22.043105,11.32322 32.158766,21.979434 L 37.068811,17.246167 C 37.068811,17.246167 37.088388,32 37.088388,32 L 22.160133,31.978069 C 22.160133,31.978069 26.997745,27.140456 26.997745,27.140456 C 18.528582,18.264221 13.291696,25.230495 11.500037,31.436501 z"
             style="fill:#404040;"/>
          </a>
         </g>
        </svg>
</svg>
