<?xml version="1.0" encoding="UTF-8" standalone="no"?>
<!DOCTYPE svg PUBLIC "-//W3C//DTD SVG 1.1//EN"
 "http://www.w3.org/Graphics/SVG/1.1/DTD/svg11.dtd">
<!-- Generated by graphviz version 2.40.1 (20161225.0304)
 -->
<!-- Title: lexcodeYY_state Pages: 1 -->
<svg width="621pt" height="218pt"
 viewBox="0.00 0.00 620.50 218.00" xmlns="http://www.w3.org/2000/svg" xmlns:xlink="http://www.w3.org/1999/xlink">
<g id="graph0" class="graph" transform="scale(1 1) rotate(0) translate(4 214)">
<title>lexcodeYY_state</title>
<!-- Node1 -->
<g id="node1" class="node">
<title>Node1</title>
<g id="a_node1"><a xlink:title=" ">
<polygon fill="#999999" stroke="#666666" points="344,-19 253,-19 253,0 344,0 344,-19"/>
<text text-anchor="middle" x="298.5" y="-7" font-family="Helvetica,sans-Serif" font-size="10.00" fill="#000000">lexcodeYY_state</text>
</a>
</g>
</g>
<!-- Node2 -->
<g id="node2" class="node">
<title>Node2</title>
<g id="a_node2"><a xlink:href="../../d5/d9c/class_code_output_interface.html" target="_top" xlink:title="Output interface for code parser.">
<polygon fill="#ffffff" stroke="#666666" points="107,-152.5 0,-152.5 0,-133.5 107,-133.5 107,-152.5"/>
<text text-anchor="middle" x="53.5" y="-140.5" font-family="Helvetica,sans-Serif" font-size="10.00" fill="#000000">CodeOutputInterface</text>
</a>
</g>
</g>
<!-- Node2&#45;&gt;Node1 -->
<g id="edge1" class="edge">
<title>Node2&#45;&gt;Node1</title>
<path fill="none" stroke="#9a32cd" stroke-dasharray="5,2" d="M61.396,-124.1513C72.6731,-99.7486 95.8216,-57.8825 129.5,-37 149.5847,-24.5464 209.9134,-16.9542 252.7477,-12.9887"/>
<polygon fill="#9a32cd" stroke="#9a32cd" points="58.137,-122.8671 57.2937,-133.4284 64.539,-125.6981 58.137,-122.8671"/>
<text text-anchor="middle" x="142" y="-73" font-family="Helvetica,sans-Serif" font-size="10.00" fill="#000000"> code</text>
</g>
<!-- Node3 -->
<g id="node3" class="node">
<title>Node3</title>
<g id="a_node3"><a xlink:href="../../d0/d53/class_c_code_parser.html" target="_top" xlink:title=" ">
<polygon fill="#ffffff" stroke="#666666" points="201.5,-152.5 125.5,-152.5 125.5,-133.5 201.5,-133.5 201.5,-152.5"/>
<text text-anchor="middle" x="163.5" y="-140.5" font-family="Helvetica,sans-Serif" font-size="10.00" fill="#000000">CCodeParser</text>
</a>
</g>
</g>
<!-- Node3&#45;&gt;Node1 -->
<g id="edge2" class="edge">
<title>Node3&#45;&gt;Node1</title>
<path fill="none" stroke="#9a32cd" stroke-dasharray="5,2" d="M159.8078,-123.448C156.5714,-99.8733 155.2349,-60.4978 176.5,-37 186.771,-25.6506 222.7378,-18.4609 252.979,-14.2916"/>
<polygon fill="#9a32cd" stroke="#9a32cd" points="156.3549,-124.0208 161.4063,-133.3339 163.2652,-122.9034 156.3549,-124.0208"/>
<text text-anchor="middle" x="205.5" y="-73" font-family="Helvetica,sans-Serif" font-size="10.00" fill="#000000"> ccodeParser</text>
</g>
<!-- Node4 -->
<g id="node4" class="node">
<title>Node4</title>
<g id="a_node4"><a xlink:href="../../d4/d65/class_code_parser_interface.html" target="_top" xlink:title="Abstract interface for code parsers.">
<polygon fill="#ffffff" stroke="#666666" points="217,-210 110,-210 110,-191 217,-191 217,-210"/>
<text text-anchor="middle" x="163.5" y="-198" font-family="Helvetica,sans-Serif" font-size="10.00" fill="#000000">CodeParserInterface</text>
</a>
</g>
</g>
<!-- Node4&#45;&gt;Node3 -->
<g id="edge3" class="edge">
<title>Node4&#45;&gt;Node3</title>
<path fill="none" stroke="#63b8ff" d="M163.5,-180.5608C163.5,-171.0933 163.5,-160.2148 163.5,-152.61"/>
<polygon fill="#63b8ff" stroke="#63b8ff" points="160.0001,-180.7459 163.5,-190.7459 167.0001,-180.7459 160.0001,-180.7459"/>
</g>
<!-- Node5 -->
<g id="node5" class="node">
<title>Node5</title>
<g id="a_node5"><a xlink:href="../../d9/d45/class_q_c_string.html" target="_top" xlink:title="This is an alternative implementation of QCString.">
<polygon fill="#ffffff" stroke="#666666" points="277,-152.5 220,-152.5 220,-133.5 277,-133.5 277,-152.5"/>
<text text-anchor="middle" x="248.5" y="-140.5" font-family="Helvetica,sans-Serif" font-size="10.00" fill="#000000">QCString</text>
</a>
</g>
</g>
<!-- Node5&#45;&gt;Node1 -->
<g id="edge4" class="edge">
<title>Node5&#45;&gt;Node1</title>
<path fill="none" stroke="#9a32cd" stroke-dasharray="5,2" d="M242.9629,-123.6447C237.7077,-101.1412 232.7237,-63.6821 248.5,-37 253.1892,-29.0692 261.0701,-23.2714 269.2049,-19.1034"/>
<polygon fill="#9a32cd" stroke="#9a32cd" points="239.5868,-124.5696 245.4747,-133.3777 246.3648,-122.8204 239.5868,-124.5696"/>
<text text-anchor="middle" x="288" y="-106" font-family="Helvetica,sans-Serif" font-size="10.00" fill="#000000"> CCodeBuffer</text>
<text text-anchor="middle" x="288" y="-95" font-family="Helvetica,sans-Serif" font-size="10.00" fill="#000000">classScope</text>
<text text-anchor="middle" x="288" y="-84" font-family="Helvetica,sans-Serif" font-size="10.00" fill="#000000">delimiter</text>
<text text-anchor="middle" x="288" y="-73" font-family="Helvetica,sans-Serif" font-size="10.00" fill="#000000">docBlockName</text>
<text text-anchor="middle" x="288" y="-62" font-family="Helvetica,sans-Serif" font-size="10.00" fill="#000000">exampleName</text>
<text text-anchor="middle" x="288" y="-51" font-family="Helvetica,sans-Serif" font-size="10.00" fill="#000000">fileName</text>
<text text-anchor="middle" x="288" y="-40" font-family="Helvetica,sans-Serif" font-size="10.00" fill="#000000">rulesPatternBuffer</text>
</g>
<!-- Node6 -->
<g id="node6" class="node">
<title>Node6</title>
<g id="a_node6"><a xlink:href="../../d5/dcc/class_definition.html" target="_top" xlink:title="The common base class of all entity definitions found in the sources.">
<polygon fill="#ffffff" stroke="#666666" points="478.5,-210 420.5,-210 420.5,-191 478.5,-191 478.5,-210"/>
<text text-anchor="middle" x="449.5" y="-198" font-family="Helvetica,sans-Serif" font-size="10.00" fill="#000000">Definition</text>
</a>
</g>
</g>
<!-- Node6&#45;&gt;Node1 -->
<g id="edge5" class="edge">
<title>Node6&#45;&gt;Node1</title>
<path fill="none" stroke="#9a32cd" stroke-dasharray="5,2" d="M450.6523,-180.4675C452.445,-141.5426 453.9827,-57.6921 435.5,-37 423.5007,-23.5663 379.3232,-16.4643 344.337,-12.8686"/>
<polygon fill="#9a32cd" stroke="#9a32cd" points="447.1507,-180.4109 450.1329,-190.5773 454.1415,-180.7701 447.1507,-180.4109"/>
<text text-anchor="middle" x="490" y="-146" font-family="Helvetica,sans-Serif" font-size="10.00" fill="#000000"> currentDefinition</text>
<text text-anchor="middle" x="490" y="-135" font-family="Helvetica,sans-Serif" font-size="10.00" fill="#000000">searchCtx</text>
</g>
<!-- Node7 -->
<g id="node7" class="node">
<title>Node7</title>
<g id="a_node7"><a xlink:href="../../de/db0/class_file_def.html" target="_top" xlink:title="A model of a file symbol.">
<polygon fill="#ffffff" stroke="#666666" points="590.5,-152.5 542.5,-152.5 542.5,-133.5 590.5,-133.5 590.5,-152.5"/>
<text text-anchor="middle" x="566.5" y="-140.5" font-family="Helvetica,sans-Serif" font-size="10.00" fill="#000000">FileDef</text>
</a>
</g>
</g>
<!-- Node6&#45;&gt;Node7 -->
<g id="edge8" class="edge">
<title>Node6&#45;&gt;Node7</title>
<path fill="none" stroke="#63b8ff" d="M478.3132,-186.3397C499.6298,-175.8635 528.1017,-161.871 546.8529,-152.6556"/>
<polygon fill="#63b8ff" stroke="#63b8ff" points="476.5142,-183.3239 469.0832,-190.8758 479.6017,-189.6062 476.5142,-183.3239"/>
</g>
<!-- Node9 -->
<g id="node9" class="node">
<title>Node9</title>
<g id="a_node9"><a xlink:href="../../da/d09/class_member_def.html" target="_top" xlink:title="A model of a class/file/namespace member symbol.">
<polygon fill="#ffffff" stroke="#666666" points="398.5,-152.5 330.5,-152.5 330.5,-133.5 398.5,-133.5 398.5,-152.5"/>
<text text-anchor="middle" x="364.5" y="-140.5" font-family="Helvetica,sans-Serif" font-size="10.00" fill="#000000">MemberDef</text>
</a>
</g>
</g>
<!-- Node6&#45;&gt;Node9 -->
<g id="edge10" class="edge">
<title>Node6&#45;&gt;Node9</title>
<path fill="none" stroke="#63b8ff" d="M426.6739,-185.0588C411.4019,-174.7277 391.7808,-161.4547 378.7061,-152.61"/>
<polygon fill="#63b8ff" stroke="#63b8ff" points="424.837,-188.0418 435.0809,-190.7459 428.7592,-182.2438 424.837,-188.0418"/>
</g>
<!-- Node7&#45;&gt;Node1 -->
<g id="edge6" class="edge">
<title>Node7&#45;&gt;Node1</title>
<path fill="none" stroke="#9a32cd" stroke-dasharray="5,2" d="M554.7213,-125.1082C537.7017,-100.8433 503.8121,-58.1126 463.5,-37 443.3049,-26.4232 385.8216,-18.4764 344.382,-13.9118"/>
<polygon fill="#9a32cd" stroke="#9a32cd" points="551.8672,-127.1352 560.3965,-133.4203 557.6483,-123.1881 551.8672,-127.1352"/>
<text text-anchor="middle" x="576.5" y="-73" font-family="Helvetica,sans-Serif" font-size="10.00" fill="#000000"> sourceFileDef</text>
</g>
<!-- Node8 -->
<g id="node8" class="node">
<title>Node8</title>
<g id="a_node8"><a xlink:href="../../d0/d46/class_definition_mutable.html" target="_top" xlink:title=" ">
<polygon fill="#ffffff" stroke="#666666" points="612.5,-210 520.5,-210 520.5,-191 612.5,-191 612.5,-210"/>
<text text-anchor="middle" x="566.5" y="-198" font-family="Helvetica,sans-Serif" font-size="10.00" fill="#000000">DefinitionMutable</text>
</a>
</g>
</g>
<!-- Node8&#45;&gt;Node7 -->
<g id="edge7" class="edge">
<title>Node8&#45;&gt;Node7</title>
<path fill="none" stroke="#63b8ff" d="M566.5,-180.5608C566.5,-171.0933 566.5,-160.2148 566.5,-152.61"/>
<polygon fill="#63b8ff" stroke="#63b8ff" points="563.0001,-180.7459 566.5,-190.7459 570.0001,-180.7459 563.0001,-180.7459"/>
</g>
<!-- Node9&#45;&gt;Node1 -->
<g id="edge9" class="edge">
<title>Node9&#45;&gt;Node1</title>
<path fill="none" stroke="#9a32cd" stroke-dasharray="5,2" d="M354.7981,-124.0037C353.2684,-120.7076 351.7737,-117.2838 350.5,-114 337.584,-80.7009 346.202,-67.4284 327.5,-37 323.2855,-30.143 316.9361,-23.8538 311.2518,-19.0257"/>
<polygon fill="#9a32cd" stroke="#9a32cd" points="351.775,-125.7895 359.3067,-133.241 358.0657,-122.7191 351.775,-125.7895"/>
<text text-anchor="middle" x="393" y="-73" font-family="Helvetica,sans-Serif" font-size="10.00" fill="#000000"> currentMemberDef</text>
</g>
</g>
</svg>
