<?xml version="1.0" encoding="UTF-8" standalone="no"?>
<!DOCTYPE svg PUBLIC "-//W3C//DTD SVG 1.1//EN"
 "http://www.w3.org/Graphics/SVG/1.1/DTD/svg11.dtd">
<!-- Generated by graphviz version 2.40.1 (20161225.0304)
 -->
<!-- Title: SearchIndexExternal Pages: 1 -->
<svg width="168pt" height="214pt"
 viewBox="0.00 0.00 167.50 214.00" xmlns="http://www.w3.org/2000/svg" xmlns:xlink="http://www.w3.org/1999/xlink">
<g id="graph0" class="graph" transform="scale(1 1) rotate(0) translate(4 210)">
<title>SearchIndexExternal</title>
<!-- Node1 -->
<g id="node1" class="node">
<title>Node1</title>
<g id="a_node1"><a xlink:title="Writes search index that should be used with an externally provided search engine,...">
<polygon fill="#999999" stroke="#666666" points="119,-19 12,-19 12,0 119,0 119,-19"/>
<text text-anchor="middle" x="65.5" y="-7" font-family="Helvetica,sans-Serif" font-size="10.00" fill="#000000">SearchIndexExternal</text>
</a>
</g>
</g>
<!-- Node2 -->
<g id="node2" class="node">
<title>Node2</title>
<g id="a_node2"><a xlink:href="../../d4/d7c/struct_search_index_external_1_1_search_doc_entry.html" target="_top" xlink:title=" ">
<polygon fill="#ffffff" stroke="#666666" points="119,-96 12,-96 12,-66 119,-66 119,-96"/>
<text text-anchor="start" x="20" y="-84" font-family="Helvetica,sans-Serif" font-size="10.00" fill="#000000">SearchIndexExternal</text>
<text text-anchor="middle" x="65.5" y="-73" font-family="Helvetica,sans-Serif" font-size="10.00" fill="#000000">::SearchDocEntry</text>
</a>
</g>
</g>
<!-- Node2&#45;&gt;Node1 -->
<g id="edge1" class="edge">
<title>Node2&#45;&gt;Node1</title>
<path fill="none" stroke="#9a32cd" stroke-dasharray="5,2" d="M65.5,-55.8098C65.5,-43.141 65.5,-28.5285 65.5,-19.1614"/>
<polygon fill="#9a32cd" stroke="#9a32cd" points="62.0001,-55.8367 65.5,-65.8367 69.0001,-55.8367 62.0001,-55.8367"/>
<text text-anchor="middle" x="89" y="-40" font-family="Helvetica,sans-Serif" font-size="10.00" fill="#000000"> m_current</text>
</g>
<!-- Node3 -->
<g id="node3" class="node">
<title>Node3</title>
<g id="a_node3"><a xlink:href="../../d9/d45/class_q_c_string.html" target="_top" xlink:title="This is an alternative implementation of QCString.">
<polygon fill="#ffffff" stroke="#666666" points="57,-206 0,-206 0,-187 57,-187 57,-206"/>
<text text-anchor="middle" x="28.5" y="-194" font-family="Helvetica,sans-Serif" font-size="10.00" fill="#000000">QCString</text>
</a>
</g>
</g>
<!-- Node3&#45;&gt;Node2 -->
<g id="edge2" class="edge">
<title>Node3&#45;&gt;Node2</title>
<path fill="none" stroke="#9a32cd" stroke-dasharray="5,2" d="M34.7344,-177.0386C42.0339,-154.2522 53.9704,-116.9909 60.626,-96.2147"/>
<polygon fill="#9a32cd" stroke="#9a32cd" points="31.3723,-176.0615 31.6546,-186.6525 38.0386,-178.197 31.3723,-176.0615"/>
<text text-anchor="middle" x="67" y="-161" font-family="Helvetica,sans-Serif" font-size="10.00" fill="#000000"> args</text>
<text text-anchor="middle" x="67" y="-150" font-family="Helvetica,sans-Serif" font-size="10.00" fill="#000000">extId</text>
<text text-anchor="middle" x="67" y="-139" font-family="Helvetica,sans-Serif" font-size="10.00" fill="#000000">name</text>
<text text-anchor="middle" x="67" y="-128" font-family="Helvetica,sans-Serif" font-size="10.00" fill="#000000">type</text>
<text text-anchor="middle" x="67" y="-117" font-family="Helvetica,sans-Serif" font-size="10.00" fill="#000000">url</text>
</g>
<!-- Node4 -->
<g id="node4" class="node">
<title>Node4</title>
<g id="a_node4"><a xlink:href="../../d8/d33/class_grow_buf.html" target="_top" xlink:title="Class representing a string buffer optimised for growing.">
<polygon fill="#ffffff" stroke="#666666" points="130,-206 75,-206 75,-187 130,-187 130,-206"/>
<text text-anchor="middle" x="102.5" y="-194" font-family="Helvetica,sans-Serif" font-size="10.00" fill="#000000">GrowBuf</text>
</a>
</g>
</g>
<!-- Node4&#45;&gt;Node2 -->
<g id="edge3" class="edge">
<title>Node4&#45;&gt;Node2</title>
<path fill="none" stroke="#9a32cd" stroke-dasharray="5,2" d="M98.2338,-176.8637C94.3347,-159.9704 88.0377,-135.0662 80.5,-114 78.3798,-108.0746 75.6272,-101.7431 73.0598,-96.2268"/>
<polygon fill="#9a32cd" stroke="#9a32cd" points="94.8336,-177.6966 100.4387,-186.6873 101.6637,-176.1635 94.8336,-177.6966"/>
<text text-anchor="middle" x="127.5" y="-144.5" font-family="Helvetica,sans-Serif" font-size="10.00" fill="#000000"> importantText</text>
<text text-anchor="middle" x="127.5" y="-133.5" font-family="Helvetica,sans-Serif" font-size="10.00" fill="#000000">normalText</text>
</g>
</g>
</svg>
