<?xml version="1.0" encoding="UTF-8" standalone="no"?>
<!DOCTYPE svg PUBLIC "-//W3C//DTD SVG 1.1//EN"
 "http://www.w3.org/Graphics/SVG/1.1/DTD/svg11.dtd">
<!-- Generated by graphviz version 2.43.0 (0)
 -->
<!-- Title: TranslatorAdapter_1_9_5 Pages: 1 -->
<svg width="2321pt" height="748pt"
 viewBox="0.00 0.00 2321.00 748.00" xmlns="http://www.w3.org/2000/svg" xmlns:xlink="http://www.w3.org/1999/xlink">
<g id="graph0" class="graph" transform="scale(1 1) rotate(0) translate(4 744)">
<title>TranslatorAdapter_1_9_5</title>
<!-- Node1 -->
<g id="node1" class="node">
<title>Node1</title>
<g id="a_node1"><a xlink:title=" ">
<polygon fill="#999999" stroke="#666666" points="401,-92 264,-92 264,-73 401,-73 401,-92"/>
<text text-anchor="middle" x="332.5" y="-80" font-family="Helvetica,sans-Serif" font-size="10.00">TranslatorAdapter_1_9_5</text>
</a>
</g>
</g>
<!-- Node4 -->
<g id="node4" class="node">
<title>Node4</title>
<g id="a_node4"><a xlink:href="../../d0/d33/class_translator_adapter__1__9__4.html" target="_top" xlink:title=" ">
<polygon fill="white" stroke="#666666" points="574,-111 437,-111 437,-92 574,-92 574,-111"/>
<text text-anchor="middle" x="505.5" y="-99" font-family="Helvetica,sans-Serif" font-size="10.00">TranslatorAdapter_1_9_4</text>
</a>
</g>
</g>
<!-- Node1&#45;&gt;Node4 -->
<g id="edge3" class="edge">
<title>Node1&#45;&gt;Node4</title>
<path fill="none" stroke="#63b8ff" d="M411.1,-91.12C419.69,-92.08 428.39,-93.04 436.85,-93.98"/>
<polygon fill="#63b8ff" stroke="#63b8ff" points="411.41,-87.64 401.08,-90.01 410.64,-94.59 411.41,-87.64"/>
</g>
<!-- Node49 -->
<g id="node49" class="node">
<title>Node49</title>
<g id="a_node49"><a xlink:href="../../da/d1a/class_translator_french.html" target="_top" xlink:title=" ">
<polygon fill="white" stroke="#666666" points="554,-74 457,-74 457,-55 554,-55 554,-74"/>
<text text-anchor="middle" x="505.5" y="-62" font-family="Helvetica,sans-Serif" font-size="10.00">TranslatorFrench</text>
</a>
</g>
</g>
<!-- Node1&#45;&gt;Node49 -->
<g id="edge48" class="edge">
<title>Node1&#45;&gt;Node49</title>
<path fill="none" stroke="#63b8ff" d="M411.24,-74.32C426.81,-72.68 442.72,-71 456.9,-69.51"/>
<polygon fill="#63b8ff" stroke="#63b8ff" points="410.66,-70.86 401.08,-75.39 411.4,-77.82 410.66,-70.86"/>
</g>
<!-- Node2 -->
<g id="node2" class="node">
<title>Node2</title>
<g id="a_node2"><a xlink:href="../../db/d6c/class_translator_adapter_base.html" target="_top" xlink:title="Base of the translator adapter tree.">
<polygon fill="white" stroke="#666666" points="228,-92 101,-92 101,-73 228,-73 228,-92"/>
<text text-anchor="middle" x="164.5" y="-80" font-family="Helvetica,sans-Serif" font-size="10.00">TranslatorAdapterBase</text>
</a>
</g>
</g>
<!-- Node2&#45;&gt;Node1 -->
<g id="edge1" class="edge">
<title>Node2&#45;&gt;Node1</title>
<path fill="none" stroke="#63b8ff" d="M238.49,-82.5C246.95,-82.5 255.56,-82.5 263.94,-82.5"/>
<polygon fill="#63b8ff" stroke="#63b8ff" points="238.26,-79 228.26,-82.5 238.26,-86 238.26,-79"/>
</g>
<!-- Node3 -->
<g id="node3" class="node">
<title>Node3</title>
<g id="a_node3"><a xlink:href="../../d8/dfb/class_translator.html" target="_top" xlink:title="Abstract base class for all translatable text fragments.">
<polygon fill="white" stroke="#666666" points="65,-92 0,-92 0,-73 65,-73 65,-92"/>
<text text-anchor="middle" x="32.5" y="-80" font-family="Helvetica,sans-Serif" font-size="10.00">Translator</text>
</a>
</g>
</g>
<!-- Node3&#45;&gt;Node2 -->
<g id="edge2" class="edge">
<title>Node3&#45;&gt;Node2</title>
<path fill="none" stroke="#63b8ff" d="M75.54,-82.5C83.6,-82.5 92.2,-82.5 100.75,-82.5"/>
<polygon fill="#63b8ff" stroke="#63b8ff" points="75.3,-79 65.3,-82.5 75.3,-86 75.3,-79"/>
</g>
<!-- Node5 -->
<g id="node5" class="node">
<title>Node5</title>
<g id="a_node5"><a xlink:href="../../d3/d2e/class_translator_adapter__1__9__2.html" target="_top" xlink:title=" ">
<polygon fill="white" stroke="#666666" points="747,-204 610,-204 610,-185 747,-185 747,-204"/>
<text text-anchor="middle" x="678.5" y="-192" font-family="Helvetica,sans-Serif" font-size="10.00">TranslatorAdapter_1_9_2</text>
</a>
</g>
</g>
<!-- Node4&#45;&gt;Node5 -->
<g id="edge4" class="edge">
<title>Node4&#45;&gt;Node5</title>
<path fill="none" stroke="#63b8ff" d="M524.79,-117.61C544.56,-134.26 577.59,-159.94 610,-175.5 617.79,-179.24 626.45,-182.37 634.9,-184.93"/>
<polygon fill="#63b8ff" stroke="#63b8ff" points="527.05,-114.93 517.18,-111.08 522.49,-120.25 527.05,-114.93"/>
</g>
<!-- Node44 -->
<g id="node44" class="node">
<title>Node44</title>
<g id="a_node44"><a xlink:href="../../da/dbb/class_translator_bulgarian.html" target="_top" xlink:title=" ">
<polygon fill="white" stroke="#666666" points="734,-167 623,-167 623,-148 734,-148 734,-167"/>
<text text-anchor="middle" x="678.5" y="-155" font-family="Helvetica,sans-Serif" font-size="10.00">TranslatorBulgarian</text>
</a>
</g>
</g>
<!-- Node4&#45;&gt;Node44 -->
<g id="edge43" class="edge">
<title>Node4&#45;&gt;Node44</title>
<path fill="none" stroke="#63b8ff" d="M541.45,-114.67C561.42,-122.03 586.98,-131.16 610,-138.5 620.32,-141.79 631.63,-145.09 641.98,-148"/>
<polygon fill="#63b8ff" stroke="#63b8ff" points="542.45,-111.31 531.85,-111.12 540.01,-117.87 542.45,-111.31"/>
</g>
<!-- Node45 -->
<g id="node45" class="node">
<title>Node45</title>
<g id="a_node45"><a xlink:href="../../d6/db6/class_translator_chinese.html" target="_top" xlink:title=" ">
<polygon fill="white" stroke="#666666" points="730.5,-130 626.5,-130 626.5,-111 730.5,-111 730.5,-130"/>
<text text-anchor="middle" x="678.5" y="-118" font-family="Helvetica,sans-Serif" font-size="10.00">TranslatorChinese</text>
</a>
</g>
</g>
<!-- Node4&#45;&gt;Node45 -->
<g id="edge44" class="edge">
<title>Node4&#45;&gt;Node45</title>
<path fill="none" stroke="#63b8ff" d="M584.41,-110.16C598.69,-111.74 613.26,-113.36 626.49,-114.83"/>
<polygon fill="#63b8ff" stroke="#63b8ff" points="584.41,-106.64 574.08,-109.01 583.64,-113.59 584.41,-106.64"/>
</g>
<!-- Node46 -->
<g id="node46" class="node">
<title>Node46</title>
<g id="a_node46"><a xlink:href="../../df/d75/class_translator_greek.html" target="_top" xlink:title=" ">
<polygon fill="white" stroke="#666666" points="725.5,-93 631.5,-93 631.5,-74 725.5,-74 725.5,-93"/>
<text text-anchor="middle" x="678.5" y="-81" font-family="Helvetica,sans-Serif" font-size="10.00">TranslatorGreek</text>
</a>
</g>
</g>
<!-- Node4&#45;&gt;Node46 -->
<g id="edge45" class="edge">
<title>Node4&#45;&gt;Node46</title>
<path fill="none" stroke="#63b8ff" d="M584.09,-93.33C600.28,-91.63 616.84,-89.89 631.44,-88.35"/>
<polygon fill="#63b8ff" stroke="#63b8ff" points="583.66,-89.86 574.08,-94.39 584.4,-96.82 583.66,-89.86"/>
</g>
<!-- Node47 -->
<g id="node47" class="node">
<title>Node47</title>
<g id="a_node47"><a xlink:href="../../d1/d8a/class_translator_hindi.html" target="_top" xlink:title=" ">
<polygon fill="white" stroke="#666666" points="723.5,-56 633.5,-56 633.5,-37 723.5,-37 723.5,-56"/>
<text text-anchor="middle" x="678.5" y="-44" font-family="Helvetica,sans-Serif" font-size="10.00">TranslatorHindi</text>
</a>
</g>
</g>
<!-- Node4&#45;&gt;Node47 -->
<g id="edge46" class="edge">
<title>Node4&#45;&gt;Node47</title>
<path fill="none" stroke="#63b8ff" d="M555.11,-89.01C561.52,-87.02 567.96,-84.83 574,-82.5 590.68,-76.05 593.27,-70.84 610,-64.5 618.39,-61.32 627.57,-58.48 636.39,-56.04"/>
<polygon fill="#63b8ff" stroke="#63b8ff" points="553.7,-85.78 545.11,-91.99 555.69,-92.49 553.7,-85.78"/>
</g>
<!-- Node48 -->
<g id="node48" class="node">
<title>Node48</title>
<g id="a_node48"><a xlink:href="../../d5/d5c/class_translator_swedish.html" target="_top" xlink:title=" ">
<polygon fill="white" stroke="#666666" points="731,-19 626,-19 626,0 731,0 731,-19"/>
<text text-anchor="middle" x="678.5" y="-7" font-family="Helvetica,sans-Serif" font-size="10.00">TranslatorSwedish</text>
</a>
</g>
</g>
<!-- Node4&#45;&gt;Node48 -->
<g id="edge47" class="edge">
<title>Node4&#45;&gt;Node48</title>
<path fill="none" stroke="#63b8ff" d="M565.54,-87.76C568.51,-86.19 571.35,-84.44 574,-82.5 597.56,-65.22 586.32,-44.62 610,-27.5 614.82,-24.02 620.26,-21.21 625.92,-18.95"/>
<polygon fill="#63b8ff" stroke="#63b8ff" points="564,-84.61 556.36,-91.94 566.91,-90.98 564,-84.61"/>
</g>
<!-- Node6 -->
<g id="node6" class="node">
<title>Node6</title>
<g id="a_node6"><a xlink:href="../../de/dde/class_translator_adapter__1__8__19.html" target="_top" xlink:title=" ">
<polygon fill="white" stroke="#666666" points="926,-204 783,-204 783,-185 926,-185 926,-204"/>
<text text-anchor="middle" x="854.5" y="-192" font-family="Helvetica,sans-Serif" font-size="10.00">TranslatorAdapter_1_8_19</text>
</a>
</g>
</g>
<!-- Node5&#45;&gt;Node6 -->
<g id="edge5" class="edge">
<title>Node5&#45;&gt;Node6</title>
<path fill="none" stroke="#63b8ff" d="M757.47,-194.5C765.89,-194.5 774.42,-194.5 782.75,-194.5"/>
<polygon fill="#63b8ff" stroke="#63b8ff" points="757.27,-191 747.27,-194.5 757.27,-198 757.27,-191"/>
</g>
<!-- Node7 -->
<g id="node7" class="node">
<title>Node7</title>
<g id="a_node7"><a xlink:href="../../d4/d2e/class_translator_adapter__1__8__15.html" target="_top" xlink:title=" ">
<polygon fill="white" stroke="#666666" points="1105,-204 962,-204 962,-185 1105,-185 1105,-204"/>
<text text-anchor="middle" x="1033.5" y="-192" font-family="Helvetica,sans-Serif" font-size="10.00">TranslatorAdapter_1_8_15</text>
</a>
</g>
</g>
<!-- Node6&#45;&gt;Node7 -->
<g id="edge6" class="edge">
<title>Node6&#45;&gt;Node7</title>
<path fill="none" stroke="#63b8ff" d="M936.49,-194.5C944.97,-194.5 953.54,-194.5 961.89,-194.5"/>
<polygon fill="#63b8ff" stroke="#63b8ff" points="936.22,-191 926.22,-194.5 936.22,-198 936.22,-191"/>
</g>
<!-- Node8 -->
<g id="node8" class="node">
<title>Node8</title>
<g id="a_node8"><a xlink:href="../../de/d2f/class_translator_adapter__1__8__4.html" target="_top" xlink:title=" ">
<polygon fill="white" stroke="#666666" points="1286.5,-371 1149.5,-371 1149.5,-352 1286.5,-352 1286.5,-371"/>
<text text-anchor="middle" x="1218" y="-359" font-family="Helvetica,sans-Serif" font-size="10.00">TranslatorAdapter_1_8_4</text>
</a>
</g>
</g>
<!-- Node7&#45;&gt;Node8 -->
<g id="edge7" class="edge">
<title>Node7&#45;&gt;Node8</title>
<path fill="none" stroke="#63b8ff" d="M1042.89,-213.78C1057.81,-245.7 1092.04,-309.29 1141,-342.5 1146.74,-346.39 1153.21,-349.49 1159.89,-351.95"/>
<polygon fill="#63b8ff" stroke="#63b8ff" points="1045.89,-211.93 1038.58,-204.26 1039.52,-214.81 1045.89,-211.93"/>
</g>
<!-- Node35 -->
<g id="node35" class="node">
<title>Node35</title>
<g id="a_node35"><a xlink:href="../../dd/df6/class_translator_chinesetraditional.html" target="_top" xlink:title=" ">
<polygon fill="white" stroke="#666666" points="1295,-334 1141,-334 1141,-315 1295,-315 1295,-334"/>
<text text-anchor="middle" x="1218" y="-322" font-family="Helvetica,sans-Serif" font-size="10.00">TranslatorChinesetraditional</text>
</a>
</g>
</g>
<!-- Node7&#45;&gt;Node35 -->
<g id="edge34" class="edge">
<title>Node7&#45;&gt;Node35</title>
<path fill="none" stroke="#63b8ff" d="M1046.88,-212.77C1064.71,-237.63 1100.03,-281.74 1141,-305.5 1147.71,-309.39 1155.19,-312.49 1162.78,-314.96"/>
<polygon fill="#63b8ff" stroke="#63b8ff" points="1049.53,-210.45 1040.93,-204.26 1043.79,-214.46 1049.53,-210.45"/>
</g>
<!-- Node36 -->
<g id="node36" class="node">
<title>Node36</title>
<g id="a_node36"><a xlink:href="../../d6/d07/class_translator_german.html" target="_top" xlink:title=" ">
<polygon fill="white" stroke="#666666" points="1270,-297 1166,-297 1166,-278 1270,-278 1270,-297"/>
<text text-anchor="middle" x="1218" y="-285" font-family="Helvetica,sans-Serif" font-size="10.00">TranslatorGerman</text>
</a>
</g>
</g>
<!-- Node7&#45;&gt;Node36 -->
<g id="edge35" class="edge">
<title>Node7&#45;&gt;Node36</title>
<path fill="none" stroke="#63b8ff" d="M1053.32,-210.77C1073.65,-227.56 1107.63,-253.35 1141,-268.5 1149.42,-272.32 1158.73,-275.46 1167.86,-277.99"/>
<polygon fill="#63b8ff" stroke="#63b8ff" points="1055.39,-207.94 1045.48,-204.19 1050.89,-213.3 1055.39,-207.94"/>
</g>
<!-- Node37 -->
<g id="node37" class="node">
<title>Node37</title>
<g id="a_node37"><a xlink:href="../../db/d5f/class_translator_hungarian.html" target="_top" xlink:title=" ">
<polygon fill="white" stroke="#666666" points="1275.5,-260 1160.5,-260 1160.5,-241 1275.5,-241 1275.5,-260"/>
<text text-anchor="middle" x="1218" y="-248" font-family="Helvetica,sans-Serif" font-size="10.00">TranslatorHungarian</text>
</a>
</g>
</g>
<!-- Node7&#45;&gt;Node37 -->
<g id="edge36" class="edge">
<title>Node7&#45;&gt;Node37</title>
<path fill="none" stroke="#63b8ff" d="M1069.72,-207.62C1090.35,-215.09 1116.98,-224.34 1141,-231.5 1152.21,-234.84 1164.46,-238.08 1175.8,-240.91"/>
<polygon fill="#63b8ff" stroke="#63b8ff" points="1070.71,-204.26 1060.11,-204.12 1068.31,-210.84 1070.71,-204.26"/>
</g>
<!-- Node38 -->
<g id="node38" class="node">
<title>Node38</title>
<g id="a_node38"><a xlink:href="../../d2/df8/class_translator_italian.html" target="_top" xlink:title=" ">
<polygon fill="white" stroke="#666666" points="1265.5,-223 1170.5,-223 1170.5,-204 1265.5,-204 1265.5,-223"/>
<text text-anchor="middle" x="1218" y="-211" font-family="Helvetica,sans-Serif" font-size="10.00">TranslatorItalian</text>
</a>
</g>
</g>
<!-- Node7&#45;&gt;Node38 -->
<g id="edge37" class="edge">
<title>Node7&#45;&gt;Node38</title>
<path fill="none" stroke="#63b8ff" d="M1115.15,-202.9C1134.01,-204.86 1153.48,-206.89 1170.29,-208.64"/>
<polygon fill="#63b8ff" stroke="#63b8ff" points="1115.37,-199.4 1105.06,-201.85 1114.64,-206.36 1115.37,-199.4"/>
</g>
<!-- Node39 -->
<g id="node39" class="node">
<title>Node39</title>
<g id="a_node39"><a xlink:href="../../d1/d6a/class_translator_japanese.html" target="_top" xlink:title=" ">
<polygon fill="white" stroke="#666666" points="1272.5,-186 1163.5,-186 1163.5,-167 1272.5,-167 1272.5,-186"/>
<text text-anchor="middle" x="1218" y="-174" font-family="Helvetica,sans-Serif" font-size="10.00">TranslatorJapanese</text>
</a>
</g>
</g>
<!-- Node7&#45;&gt;Node39 -->
<g id="edge38" class="edge">
<title>Node7&#45;&gt;Node39</title>
<path fill="none" stroke="#63b8ff" d="M1115.14,-186.55C1131.45,-184.94 1148.22,-183.28 1163.33,-181.79"/>
<polygon fill="#63b8ff" stroke="#63b8ff" points="1114.67,-183.08 1105.06,-187.54 1115.35,-190.04 1114.67,-183.08"/>
</g>
<!-- Node40 -->
<g id="node40" class="node">
<title>Node40</title>
<g id="a_node40"><a xlink:href="../../db/dcc/class_translator_korean.html" target="_top" xlink:title=" ">
<polygon fill="white" stroke="#666666" points="1267,-149 1169,-149 1169,-130 1267,-130 1267,-149"/>
<text text-anchor="middle" x="1218" y="-137" font-family="Helvetica,sans-Serif" font-size="10.00">TranslatorKorean</text>
</a>
</g>
</g>
<!-- Node7&#45;&gt;Node40 -->
<g id="edge39" class="edge">
<title>Node7&#45;&gt;Node40</title>
<path fill="none" stroke="#63b8ff" d="M1069.27,-181.41C1089.94,-173.89 1116.78,-164.56 1141,-157.5 1151.41,-154.47 1162.74,-151.57 1173.39,-149.02"/>
<polygon fill="#63b8ff" stroke="#63b8ff" points="1067.84,-178.21 1059.66,-184.95 1070.25,-184.78 1067.84,-178.21"/>
</g>
<!-- Node41 -->
<g id="node41" class="node">
<title>Node41</title>
<g id="a_node41"><a xlink:href="../../da/d32/class_translator_romanian.html" target="_top" xlink:title=" ">
<polygon fill="white" stroke="#666666" points="1275,-112 1161,-112 1161,-93 1275,-93 1275,-112"/>
<text text-anchor="middle" x="1218" y="-100" font-family="Helvetica,sans-Serif" font-size="10.00">TranslatorRomanian</text>
</a>
</g>
</g>
<!-- Node7&#45;&gt;Node41 -->
<g id="edge40" class="edge">
<title>Node7&#45;&gt;Node41</title>
<path fill="none" stroke="#63b8ff" d="M1053.28,-178.14C1073.58,-161.29 1107.54,-135.44 1141,-120.5 1148.55,-117.13 1156.82,-114.34 1165.04,-112.05"/>
<polygon fill="#63b8ff" stroke="#63b8ff" points="1050.83,-175.63 1045.46,-184.76 1055.35,-180.97 1050.83,-175.63"/>
</g>
<!-- Node42 -->
<g id="node42" class="node">
<title>Node42</title>
<g id="a_node42"><a xlink:href="../../d0/dab/class_translator_russian.html" target="_top" xlink:title=" ">
<polygon fill="white" stroke="#666666" points="1269.5,-75 1166.5,-75 1166.5,-56 1269.5,-56 1269.5,-75"/>
<text text-anchor="middle" x="1218" y="-63" font-family="Helvetica,sans-Serif" font-size="10.00">TranslatorRussian</text>
</a>
</g>
</g>
<!-- Node7&#45;&gt;Node42 -->
<g id="edge41" class="edge">
<title>Node7&#45;&gt;Node42</title>
<path fill="none" stroke="#63b8ff" d="M1046.84,-176.16C1064.62,-151.21 1099.88,-107.01 1141,-83.5 1148.77,-79.06 1157.58,-75.71 1166.39,-73.19"/>
<polygon fill="#63b8ff" stroke="#63b8ff" points="1043.74,-174.49 1040.9,-184.69 1049.49,-178.48 1043.74,-174.49"/>
</g>
<!-- Node43 -->
<g id="node43" class="node">
<title>Node43</title>
<g id="a_node43"><a xlink:href="../../d2/d53/class_translator_slovak.html" target="_top" xlink:title=" ">
<polygon fill="white" stroke="#666666" points="1267,-38 1169,-38 1169,-19 1267,-19 1267,-38"/>
<text text-anchor="middle" x="1218" y="-26" font-family="Helvetica,sans-Serif" font-size="10.00">TranslatorSlovak</text>
</a>
</g>
</g>
<!-- Node7&#45;&gt;Node43 -->
<g id="edge42" class="edge">
<title>Node7&#45;&gt;Node43</title>
<path fill="none" stroke="#63b8ff" d="M1042.66,-175.57C1057.4,-143.69 1091.62,-79.55 1141,-46.5 1149.23,-40.99 1158.94,-37.17 1168.63,-34.5"/>
<polygon fill="#63b8ff" stroke="#63b8ff" points="1039.46,-174.15 1038.56,-184.7 1045.84,-177.01 1039.46,-174.15"/>
</g>
<!-- Node9 -->
<g id="node9" class="node">
<title>Node9</title>
<g id="a_node9"><a xlink:href="../../d2/d75/class_translator_adapter__1__8__2.html" target="_top" xlink:title=" ">
<polygon fill="white" stroke="#666666" points="1468,-426 1331,-426 1331,-407 1468,-407 1468,-426"/>
<text text-anchor="middle" x="1399.5" y="-414" font-family="Helvetica,sans-Serif" font-size="10.00">TranslatorAdapter_1_8_2</text>
</a>
</g>
</g>
<!-- Node8&#45;&gt;Node9 -->
<g id="edge8" class="edge">
<title>Node8&#45;&gt;Node9</title>
<path fill="none" stroke="#63b8ff" d="M1257.67,-374.32C1279.2,-381.35 1306.52,-390.12 1331,-397.5 1341.61,-400.7 1353.2,-404.02 1363.74,-406.98"/>
<polygon fill="#63b8ff" stroke="#63b8ff" points="1258.51,-370.91 1247.92,-371.12 1256.33,-377.56 1258.51,-370.91"/>
</g>
<!-- Node32 -->
<g id="node32" class="node">
<title>Node32</title>
<g id="a_node32"><a xlink:href="../../d2/d07/class_translator_esperanto.html" target="_top" xlink:title=" ">
<polygon fill="white" stroke="#666666" points="1456,-389 1343,-389 1343,-370 1456,-370 1456,-389"/>
<text text-anchor="middle" x="1399.5" y="-377" font-family="Helvetica,sans-Serif" font-size="10.00">TranslatorEsperanto</text>
</a>
</g>
</g>
<!-- Node8&#45;&gt;Node32 -->
<g id="edge31" class="edge">
<title>Node8&#45;&gt;Node32</title>
<path fill="none" stroke="#63b8ff" d="M1296.73,-369.3C1312.29,-370.85 1328.33,-372.46 1342.95,-373.93"/>
<polygon fill="#63b8ff" stroke="#63b8ff" points="1296.9,-365.79 1286.61,-368.28 1296.21,-372.76 1296.9,-365.79"/>
</g>
<!-- Node33 -->
<g id="node33" class="node">
<title>Node33</title>
<g id="a_node33"><a xlink:href="../../d8/d83/class_translator_latvian.html" target="_top" xlink:title=" ">
<polygon fill="white" stroke="#666666" points="1450,-352 1349,-352 1349,-333 1450,-333 1450,-352"/>
<text text-anchor="middle" x="1399.5" y="-340" font-family="Helvetica,sans-Serif" font-size="10.00">TranslatorLatvian</text>
</a>
</g>
</g>
<!-- Node8&#45;&gt;Node33 -->
<g id="edge32" class="edge">
<title>Node8&#45;&gt;Node33</title>
<path fill="none" stroke="#63b8ff" d="M1296.89,-353.26C1314.52,-351.39 1332.78,-349.46 1348.86,-347.75"/>
<polygon fill="#63b8ff" stroke="#63b8ff" points="1296.18,-349.81 1286.61,-354.34 1296.92,-356.77 1296.18,-349.81"/>
</g>
<!-- Node34 -->
<g id="node34" class="node">
<title>Node34</title>
<g id="a_node34"><a xlink:href="../../d1/d56/class_translator_ukrainian.html" target="_top" xlink:title=" ">
<polygon fill="white" stroke="#666666" points="1455.5,-315 1343.5,-315 1343.5,-296 1455.5,-296 1455.5,-315"/>
<text text-anchor="middle" x="1399.5" y="-303" font-family="Helvetica,sans-Serif" font-size="10.00">TranslatorUkrainian</text>
</a>
</g>
</g>
<!-- Node8&#45;&gt;Node34 -->
<g id="edge33" class="edge">
<title>Node8&#45;&gt;Node34</title>
<path fill="none" stroke="#63b8ff" d="M1274.94,-349.16C1281.77,-347.17 1288.6,-344.95 1295,-342.5 1311.9,-336.04 1314.15,-330.09 1331,-323.5 1339.13,-320.32 1348.03,-317.5 1356.62,-315.1"/>
<polygon fill="#63b8ff" stroke="#63b8ff" points="1273.68,-345.87 1264.96,-351.9 1275.54,-352.62 1273.68,-345.87"/>
</g>
<!-- Node10 -->
<g id="node10" class="node">
<title>Node10</title>
<g id="a_node10"><a xlink:href="../../de/d49/class_translator_adapter__1__8__0.html" target="_top" xlink:title="Adapter class for languages that only contain translations up to version 1.8.0.">
<polygon fill="white" stroke="#666666" points="1641,-463 1504,-463 1504,-444 1641,-444 1641,-463"/>
<text text-anchor="middle" x="1572.5" y="-451" font-family="Helvetica,sans-Serif" font-size="10.00">TranslatorAdapter_1_8_0</text>
</a>
</g>
</g>
<!-- Node9&#45;&gt;Node10 -->
<g id="edge9" class="edge">
<title>Node9&#45;&gt;Node10</title>
<path fill="none" stroke="#63b8ff" d="M1454.35,-428.15C1477.84,-433.23 1505.04,-439.12 1527.32,-443.94"/>
<polygon fill="#63b8ff" stroke="#63b8ff" points="1455.05,-424.72 1444.54,-426.03 1453.57,-431.56 1455.05,-424.72"/>
</g>
<!-- Node30 -->
<g id="node30" class="node">
<title>Node30</title>
<g id="a_node30"><a xlink:href="../../d9/d82/class_translator_croatian.html" target="_top" xlink:title=" ">
<polygon fill="white" stroke="#666666" points="1625.5,-426 1519.5,-426 1519.5,-407 1625.5,-407 1625.5,-426"/>
<text text-anchor="middle" x="1572.5" y="-414" font-family="Helvetica,sans-Serif" font-size="10.00">TranslatorCroatian</text>
</a>
</g>
</g>
<!-- Node9&#45;&gt;Node30 -->
<g id="edge29" class="edge">
<title>Node9&#45;&gt;Node30</title>
<path fill="none" stroke="#63b8ff" d="M1478.19,-416.5C1492.16,-416.5 1506.41,-416.5 1519.44,-416.5"/>
<polygon fill="#63b8ff" stroke="#63b8ff" points="1478.08,-413 1468.08,-416.5 1478.08,-420 1478.08,-413"/>
</g>
<!-- Node31 -->
<g id="node31" class="node">
<title>Node31</title>
<g id="a_node31"><a xlink:href="../../de/d82/class_translator_polish.html" target="_top" xlink:title=" ">
<polygon fill="white" stroke="#666666" points="1619.5,-389 1525.5,-389 1525.5,-370 1619.5,-370 1619.5,-389"/>
<text text-anchor="middle" x="1572.5" y="-377" font-family="Helvetica,sans-Serif" font-size="10.00">TranslatorPolish</text>
</a>
</g>
</g>
<!-- Node9&#45;&gt;Node31 -->
<g id="edge30" class="edge">
<title>Node9&#45;&gt;Node31</title>
<path fill="none" stroke="#63b8ff" d="M1454.35,-404.85C1477.84,-399.77 1505.04,-393.88 1527.32,-389.06"/>
<polygon fill="#63b8ff" stroke="#63b8ff" points="1453.57,-401.44 1444.54,-406.97 1455.05,-408.28 1453.57,-401.44"/>
</g>
<!-- Node11 -->
<g id="node11" class="node">
<title>Node11</title>
<g id="a_node11"><a xlink:href="../../da/d24/class_translator_adapter__1__7__5.html" target="_top" xlink:title="Adapter class for languages that only contain translations up to version 1.7.5.">
<polygon fill="white" stroke="#666666" points="1814,-537 1677,-537 1677,-518 1814,-518 1814,-537"/>
<text text-anchor="middle" x="1745.5" y="-525" font-family="Helvetica,sans-Serif" font-size="10.00">TranslatorAdapter_1_7_5</text>
</a>
</g>
</g>
<!-- Node10&#45;&gt;Node11 -->
<g id="edge10" class="edge">
<title>Node10&#45;&gt;Node11</title>
<path fill="none" stroke="#63b8ff" d="M1597.82,-468.34C1618.35,-480.4 1648.83,-497.2 1677,-508.5 1685.93,-512.08 1695.77,-515.26 1705.12,-517.95"/>
<polygon fill="#63b8ff" stroke="#63b8ff" points="1599.51,-465.27 1589.13,-463.17 1595.93,-471.29 1599.51,-465.27"/>
</g>
<!-- Node26 -->
<g id="node26" class="node">
<title>Node26</title>
<g id="a_node26"><a xlink:href="../../da/db8/class_translator_armenian.html" target="_top" xlink:title=" ">
<polygon fill="white" stroke="#666666" points="1801.5,-500 1689.5,-500 1689.5,-481 1801.5,-481 1801.5,-500"/>
<text text-anchor="middle" x="1745.5" y="-488" font-family="Helvetica,sans-Serif" font-size="10.00">TranslatorArmenian</text>
</a>
</g>
</g>
<!-- Node10&#45;&gt;Node26 -->
<g id="edge25" class="edge">
<title>Node10&#45;&gt;Node26</title>
<path fill="none" stroke="#63b8ff" d="M1627.35,-465.15C1650.84,-470.23 1678.04,-476.12 1700.32,-480.94"/>
<polygon fill="#63b8ff" stroke="#63b8ff" points="1628.05,-461.72 1617.54,-463.03 1626.57,-468.56 1628.05,-461.72"/>
</g>
<!-- Node27 -->
<g id="node27" class="node">
<title>Node27</title>
<g id="a_node27"><a xlink:href="../../d9/dc1/class_translator_catalan.html" target="_top" xlink:title=" ">
<polygon fill="white" stroke="#666666" points="1796.5,-463 1694.5,-463 1694.5,-444 1796.5,-444 1796.5,-463"/>
<text text-anchor="middle" x="1745.5" y="-451" font-family="Helvetica,sans-Serif" font-size="10.00">TranslatorCatalan</text>
</a>
</g>
</g>
<!-- Node10&#45;&gt;Node27 -->
<g id="edge26" class="edge">
<title>Node10&#45;&gt;Node27</title>
<path fill="none" stroke="#63b8ff" d="M1651.15,-453.5C1665.8,-453.5 1680.76,-453.5 1694.28,-453.5"/>
<polygon fill="#63b8ff" stroke="#63b8ff" points="1651.08,-450 1641.08,-453.5 1651.08,-457 1651.08,-450"/>
</g>
<!-- Node28 -->
<g id="node28" class="node">
<title>Node28</title>
<g id="a_node28"><a xlink:href="../../d7/d21/class_translator_danish.html" target="_top" xlink:title=" ">
<polygon fill="white" stroke="#666666" points="1794.5,-426 1696.5,-426 1696.5,-407 1794.5,-407 1794.5,-426"/>
<text text-anchor="middle" x="1745.5" y="-414" font-family="Helvetica,sans-Serif" font-size="10.00">TranslatorDanish</text>
</a>
</g>
</g>
<!-- Node10&#45;&gt;Node28 -->
<g id="edge27" class="edge">
<title>Node10&#45;&gt;Node28</title>
<path fill="none" stroke="#63b8ff" d="M1627.35,-441.85C1650.84,-436.77 1678.04,-430.88 1700.32,-426.06"/>
<polygon fill="#63b8ff" stroke="#63b8ff" points="1626.57,-438.44 1617.54,-443.97 1628.05,-445.28 1626.57,-438.44"/>
</g>
<!-- Node29 -->
<g id="node29" class="node">
<title>Node29</title>
<g id="a_node29"><a xlink:href="../../df/dc8/class_translator_indonesian.html" target="_top" xlink:title=" ">
<polygon fill="white" stroke="#666666" points="1804.5,-389 1686.5,-389 1686.5,-370 1804.5,-370 1804.5,-389"/>
<text text-anchor="middle" x="1745.5" y="-377" font-family="Helvetica,sans-Serif" font-size="10.00">TranslatorIndonesian</text>
</a>
</g>
</g>
<!-- Node10&#45;&gt;Node29 -->
<g id="edge28" class="edge">
<title>Node10&#45;&gt;Node29</title>
<path fill="none" stroke="#63b8ff" d="M1629.42,-440.32C1633.44,-438.6 1637.35,-436.67 1641,-434.5 1660.72,-422.77 1657.2,-409.1 1677,-397.5 1682.86,-394.07 1689.39,-391.28 1696.01,-389.01"/>
<polygon fill="#63b8ff" stroke="#63b8ff" points="1627.97,-437.13 1619.86,-443.95 1630.46,-443.67 1627.97,-437.13"/>
</g>
<!-- Node12 -->
<g id="node12" class="node">
<title>Node12</title>
<g id="a_node12"><a xlink:href="../../d3/da1/class_translator_adapter__1__6__0.html" target="_top" xlink:title="Adapter class for languages that only contain translations up to version 1.6.0.">
<polygon fill="white" stroke="#666666" points="1987,-574 1850,-574 1850,-555 1987,-555 1987,-574"/>
<text text-anchor="middle" x="1918.5" y="-562" font-family="Helvetica,sans-Serif" font-size="10.00">TranslatorAdapter_1_6_0</text>
</a>
</g>
</g>
<!-- Node11&#45;&gt;Node12 -->
<g id="edge11" class="edge">
<title>Node11&#45;&gt;Node12</title>
<path fill="none" stroke="#63b8ff" d="M1800.35,-539.15C1823.84,-544.23 1851.04,-550.12 1873.32,-554.94"/>
<polygon fill="#63b8ff" stroke="#63b8ff" points="1801.05,-535.72 1790.54,-537.03 1799.57,-542.56 1801.05,-535.72"/>
</g>
<!-- Node24 -->
<g id="node24" class="node">
<title>Node24</title>
<g id="a_node24"><a xlink:href="../../d5/d43/class_translator_persian.html" target="_top" xlink:title=" ">
<polygon fill="white" stroke="#666666" points="1969,-537 1868,-537 1868,-518 1969,-518 1969,-537"/>
<text text-anchor="middle" x="1918.5" y="-525" font-family="Helvetica,sans-Serif" font-size="10.00">TranslatorPersian</text>
</a>
</g>
</g>
<!-- Node11&#45;&gt;Node24 -->
<g id="edge23" class="edge">
<title>Node11&#45;&gt;Node24</title>
<path fill="none" stroke="#63b8ff" d="M1824.26,-527.5C1839.06,-527.5 1854.18,-527.5 1867.81,-527.5"/>
<polygon fill="#63b8ff" stroke="#63b8ff" points="1824.08,-524 1814.08,-527.5 1824.08,-531 1824.08,-524"/>
</g>
<!-- Node25 -->
<g id="node25" class="node">
<title>Node25</title>
<g id="a_node25"><a xlink:href="../../dd/d80/class_translator_turkish.html" target="_top" xlink:title=" ">
<polygon fill="white" stroke="#666666" points="1968,-500 1869,-500 1869,-481 1968,-481 1968,-500"/>
<text text-anchor="middle" x="1918.5" y="-488" font-family="Helvetica,sans-Serif" font-size="10.00">TranslatorTurkish</text>
</a>
</g>
</g>
<!-- Node11&#45;&gt;Node25 -->
<g id="edge24" class="edge">
<title>Node11&#45;&gt;Node25</title>
<path fill="none" stroke="#63b8ff" d="M1800.35,-515.85C1823.84,-510.77 1851.04,-504.88 1873.32,-500.06"/>
<polygon fill="#63b8ff" stroke="#63b8ff" points="1799.57,-512.44 1790.54,-517.97 1801.05,-519.28 1799.57,-512.44"/>
</g>
<!-- Node13 -->
<g id="node13" class="node">
<title>Node13</title>
<g id="a_node13"><a xlink:href="../../d4/d2b/class_translator_adapter__1__4__6.html" target="_top" xlink:title="Adapter class for languages that only contain translations up to version 1.4.6.">
<polygon fill="white" stroke="#666666" points="2160,-685 2023,-685 2023,-666 2160,-666 2160,-685"/>
<text text-anchor="middle" x="2091.5" y="-673" font-family="Helvetica,sans-Serif" font-size="10.00">TranslatorAdapter_1_4_6</text>
</a>
</g>
</g>
<!-- Node12&#45;&gt;Node13 -->
<g id="edge12" class="edge">
<title>Node12&#45;&gt;Node13</title>
<path fill="none" stroke="#63b8ff" d="M1934.39,-581.85C1953.06,-602.55 1987.04,-636.83 2023,-656.5 2029.94,-660.3 2037.71,-663.39 2045.44,-665.89"/>
<polygon fill="#63b8ff" stroke="#63b8ff" points="1936.82,-579.31 1927.57,-574.14 1931.57,-583.95 1936.82,-579.31"/>
</g>
<!-- Node18 -->
<g id="node18" class="node">
<title>Node18</title>
<g id="a_node18"><a xlink:href="../../d3/d65/class_translator_afrikaans.html" target="_top" xlink:title=" ">
<polygon fill="white" stroke="#666666" points="2146.5,-648 2036.5,-648 2036.5,-629 2146.5,-629 2146.5,-648"/>
<text text-anchor="middle" x="2091.5" y="-636" font-family="Helvetica,sans-Serif" font-size="10.00">TranslatorAfrikaans</text>
</a>
</g>
</g>
<!-- Node12&#45;&gt;Node18 -->
<g id="edge17" class="edge">
<title>Node12&#45;&gt;Node18</title>
<path fill="none" stroke="#63b8ff" d="M1943.82,-579.34C1964.35,-591.4 1994.83,-608.2 2023,-619.5 2031.93,-623.08 2041.77,-626.26 2051.12,-628.95"/>
<polygon fill="#63b8ff" stroke="#63b8ff" points="1945.51,-576.27 1935.13,-574.17 1941.93,-582.29 1945.51,-576.27"/>
</g>
<!-- Node19 -->
<g id="node19" class="node">
<title>Node19</title>
<g id="a_node19"><a xlink:href="../../de/df7/class_translator_finnish.html" target="_top" xlink:title=" ">
<polygon fill="white" stroke="#666666" points="2141,-611 2042,-611 2042,-592 2141,-592 2141,-611"/>
<text text-anchor="middle" x="2091.5" y="-599" font-family="Helvetica,sans-Serif" font-size="10.00">TranslatorFinnish</text>
</a>
</g>
</g>
<!-- Node12&#45;&gt;Node19 -->
<g id="edge18" class="edge">
<title>Node12&#45;&gt;Node19</title>
<path fill="none" stroke="#63b8ff" d="M1973.35,-576.15C1996.84,-581.23 2024.04,-587.12 2046.32,-591.94"/>
<polygon fill="#63b8ff" stroke="#63b8ff" points="1974.05,-572.72 1963.54,-574.03 1972.57,-579.56 1974.05,-572.72"/>
</g>
<!-- Node20 -->
<g id="node20" class="node">
<title>Node20</title>
<g id="a_node20"><a xlink:href="../../d9/ddf/class_translator_macedonian.html" target="_top" xlink:title=" ">
<polygon fill="white" stroke="#666666" points="2153.5,-574 2029.5,-574 2029.5,-555 2153.5,-555 2153.5,-574"/>
<text text-anchor="middle" x="2091.5" y="-562" font-family="Helvetica,sans-Serif" font-size="10.00">TranslatorMacedonian</text>
</a>
</g>
</g>
<!-- Node12&#45;&gt;Node20 -->
<g id="edge19" class="edge">
<title>Node12&#45;&gt;Node20</title>
<path fill="none" stroke="#63b8ff" d="M1997.28,-564.5C2008,-564.5 2018.88,-564.5 2029.24,-564.5"/>
<polygon fill="#63b8ff" stroke="#63b8ff" points="1997.08,-561 1987.08,-564.5 1997.08,-568 1997.08,-561"/>
</g>
<!-- Node21 -->
<g id="node21" class="node">
<title>Node21</title>
<g id="a_node21"><a xlink:href="../../d5/d0a/class_translator_serbian.html" target="_top" xlink:title=" ">
<polygon fill="white" stroke="#666666" points="2142,-537 2041,-537 2041,-518 2142,-518 2142,-537"/>
<text text-anchor="middle" x="2091.5" y="-525" font-family="Helvetica,sans-Serif" font-size="10.00">TranslatorSerbian</text>
</a>
</g>
</g>
<!-- Node12&#45;&gt;Node21 -->
<g id="edge20" class="edge">
<title>Node12&#45;&gt;Node21</title>
<path fill="none" stroke="#63b8ff" d="M1973.35,-552.85C1996.84,-547.77 2024.04,-541.88 2046.32,-537.06"/>
<polygon fill="#63b8ff" stroke="#63b8ff" points="1972.57,-549.44 1963.54,-554.97 1974.05,-556.28 1972.57,-549.44"/>
</g>
<!-- Node22 -->
<g id="node22" class="node">
<title>Node22</title>
<g id="a_node22"><a xlink:href="../../dc/d03/class_translator_serbian_cyrillic.html" target="_top" xlink:title=" ">
<polygon fill="white" stroke="#666666" points="2159,-500 2024,-500 2024,-481 2159,-481 2159,-500"/>
<text text-anchor="middle" x="2091.5" y="-488" font-family="Helvetica,sans-Serif" font-size="10.00">TranslatorSerbianCyrillic</text>
</a>
</g>
</g>
<!-- Node12&#45;&gt;Node22 -->
<g id="edge21" class="edge">
<title>Node12&#45;&gt;Node22</title>
<path fill="none" stroke="#63b8ff" d="M1975.42,-551.32C1979.44,-549.6 1983.35,-547.67 1987,-545.5 2006.72,-533.77 2003.2,-520.1 2023,-508.5 2028.86,-505.07 2035.39,-502.28 2042.01,-500.01"/>
<polygon fill="#63b8ff" stroke="#63b8ff" points="1973.97,-548.13 1965.86,-554.95 1976.46,-554.67 1973.97,-548.13"/>
</g>
<!-- Node23 -->
<g id="node23" class="node">
<title>Node23</title>
<g id="a_node23"><a xlink:href="../../df/d20/class_translator_vietnamese.html" target="_top" xlink:title=" ">
<polygon fill="white" stroke="#666666" points="2153,-463 2030,-463 2030,-444 2153,-444 2153,-463"/>
<text text-anchor="middle" x="2091.5" y="-451" font-family="Helvetica,sans-Serif" font-size="10.00">TranslatorVietnamese</text>
</a>
</g>
</g>
<!-- Node12&#45;&gt;Node23 -->
<g id="edge22" class="edge">
<title>Node12&#45;&gt;Node23</title>
<path fill="none" stroke="#63b8ff" d="M1980.48,-550.18C1982.77,-548.76 1984.96,-547.21 1987,-545.5 2015.06,-522.04 1994.78,-494.76 2023,-471.5 2027.12,-468.11 2031.81,-465.35 2036.77,-463.1"/>
<polygon fill="#63b8ff" stroke="#63b8ff" points="1978.48,-547.27 1971.21,-554.97 1981.7,-553.49 1978.48,-547.27"/>
</g>
<!-- Node14 -->
<g id="node14" class="node">
<title>Node14</title>
<g id="a_node14"><a xlink:href="../../d3/de9/class_translator_arabic.html" target="_top" xlink:title=" ">
<polygon fill="white" stroke="#666666" points="2302,-740 2207,-740 2207,-721 2302,-721 2302,-740"/>
<text text-anchor="middle" x="2254.5" y="-728" font-family="Helvetica,sans-Serif" font-size="10.00">TranslatorArabic</text>
</a>
</g>
</g>
<!-- Node13&#45;&gt;Node14 -->
<g id="edge13" class="edge">
<title>Node13&#45;&gt;Node14</title>
<path fill="none" stroke="#63b8ff" d="M2127.94,-688.57C2147.87,-695.81 2173.25,-704.88 2196,-712.5 2204.43,-715.33 2213.6,-718.26 2222.09,-720.92"/>
<polygon fill="#63b8ff" stroke="#63b8ff" points="2128.94,-685.2 2118.35,-685.06 2126.54,-691.78 2128.94,-685.2"/>
</g>
<!-- Node15 -->
<g id="node15" class="node">
<title>Node15</title>
<g id="a_node15"><a xlink:href="../../dc/d53/class_translator_lithuanian.html" target="_top" xlink:title=" ">
<polygon fill="white" stroke="#666666" points="2312.5,-703 2196.5,-703 2196.5,-684 2312.5,-684 2312.5,-703"/>
<text text-anchor="middle" x="2254.5" y="-691" font-family="Helvetica,sans-Serif" font-size="10.00">TranslatorLithuanian</text>
</a>
</g>
</g>
<!-- Node13&#45;&gt;Node15 -->
<g id="edge14" class="edge">
<title>Node13&#45;&gt;Node15</title>
<path fill="none" stroke="#63b8ff" d="M2170.53,-684.22C2179.27,-685.2 2188.05,-686.18 2196.46,-687.12"/>
<polygon fill="#63b8ff" stroke="#63b8ff" points="2170.64,-680.71 2160.31,-683.08 2169.86,-687.67 2170.64,-680.71"/>
</g>
<!-- Node16 -->
<g id="node16" class="node">
<title>Node16</title>
<g id="a_node16"><a xlink:href="../../dd/d38/class_translator_norwegian.html" target="_top" xlink:title=" ">
<polygon fill="white" stroke="#666666" points="2313,-666 2196,-666 2196,-647 2313,-647 2313,-666"/>
<text text-anchor="middle" x="2254.5" y="-654" font-family="Helvetica,sans-Serif" font-size="10.00">TranslatorNorwegian</text>
</a>
</g>
</g>
<!-- Node13&#45;&gt;Node16 -->
<g id="edge15" class="edge">
<title>Node13&#45;&gt;Node16</title>
<path fill="none" stroke="#63b8ff" d="M2170.38,-666.31C2179,-665.29 2187.66,-664.27 2195.96,-663.29"/>
<polygon fill="#63b8ff" stroke="#63b8ff" points="2169.83,-662.85 2160.31,-667.5 2170.65,-669.8 2169.83,-662.85"/>
</g>
<!-- Node17 -->
<g id="node17" class="node">
<title>Node17</title>
<g id="a_node17"><a xlink:href="../../dd/d0b/class_translator_slovene.html" target="_top" xlink:title=" ">
<polygon fill="white" stroke="#666666" points="2306.5,-629 2202.5,-629 2202.5,-610 2306.5,-610 2306.5,-629"/>
<text text-anchor="middle" x="2254.5" y="-617" font-family="Helvetica,sans-Serif" font-size="10.00">TranslatorSlovene</text>
</a>
</g>
</g>
<!-- Node13&#45;&gt;Node17 -->
<g id="edge16" class="edge">
<title>Node13&#45;&gt;Node17</title>
<path fill="none" stroke="#63b8ff" d="M2141.63,-662.99C2147.88,-661.01 2154.14,-658.84 2160,-656.5 2176.8,-649.79 2179.3,-644.45 2196,-637.5 2203.44,-634.4 2211.6,-631.54 2219.38,-629.05"/>
<polygon fill="#63b8ff" stroke="#63b8ff" points="2140.44,-659.69 2131.87,-665.93 2142.46,-666.4 2140.44,-659.69"/>
</g>
</g>
</svg>
