<?xml version="1.0" encoding="UTF-8" standalone="no"?>
<!DOCTYPE svg PUBLIC "-//W3C//DTD SVG 1.1//EN"
 "http://www.w3.org/Graphics/SVG/1.1/DTD/svg11.dtd">
<!-- Generated by graphviz version 2.40.1 (20161225.0304)
 -->
<!-- Title: DocbookCodeGenerator Pages: 1 -->
<svg width="311pt" height="126pt"
 viewBox="0.00 0.00 310.50 126.00" xmlns="http://www.w3.org/2000/svg" xmlns:xlink="http://www.w3.org/1999/xlink">
<g id="graph0" class="graph" transform="scale(1 1) rotate(0) translate(4 122)">
<title>DocbookCodeGenerator</title>
<!-- Node1 -->
<g id="node1" class="node">
<title>Node1</title>
<g id="a_node1"><a xlink:title=" ">
<polygon fill="#999999" stroke="#666666" points="220.5,-19 98.5,-19 98.5,0 220.5,0 220.5,-19"/>
<text text-anchor="middle" x="159.5" y="-7" font-family="Helvetica,sans-Serif" font-size="10.00" fill="#000000">DocbookCodeGenerator</text>
</a>
</g>
</g>
<!-- Node2 -->
<g id="node2" class="node">
<title>Node2</title>
<g id="a_node2"><a xlink:href="../../d5/d9c/class_code_output_interface.html" target="_top" xlink:title="Output interface for code parser.">
<polygon fill="#ffffff" stroke="#666666" points="107,-118 0,-118 0,-99 107,-99 107,-118"/>
<text text-anchor="middle" x="53.5" y="-106" font-family="Helvetica,sans-Serif" font-size="10.00" fill="#000000">CodeOutputInterface</text>
</a>
</g>
</g>
<!-- Node2&#45;&gt;Node1 -->
<g id="edge1" class="edge">
<title>Node2&#45;&gt;Node1</title>
<path fill="none" stroke="#63b8ff" d="M71.5595,-91.6331C93.9564,-70.7152 131.3674,-35.7747 149.3032,-19.0234"/>
<polygon fill="#63b8ff" stroke="#63b8ff" points="68.9705,-89.262 64.0512,-98.6456 73.7485,-94.3778 68.9705,-89.262"/>
</g>
<!-- Node3 -->
<g id="node3" class="node">
<title>Node3</title>
<g id="a_node3"><a xlink:href="../../d3/d30/class_text_stream.html" target="_top" xlink:title="Text streaming class that buffers data.">
<polygon fill="#ffffff" stroke="#666666" points="193.5,-118 125.5,-118 125.5,-99 193.5,-99 193.5,-118"/>
<text text-anchor="middle" x="159.5" y="-106" font-family="Helvetica,sans-Serif" font-size="10.00" fill="#000000">TextStream</text>
</a>
</g>
</g>
<!-- Node3&#45;&gt;Node1 -->
<g id="edge2" class="edge">
<title>Node3&#45;&gt;Node1</title>
<path fill="none" stroke="#9a32cd" stroke-dasharray="5,2" d="M159.5,-88.5112C159.5,-67.3861 159.5,-34.9666 159.5,-19.0234"/>
<polygon fill="#9a32cd" stroke="#9a32cd" points="156.0001,-88.6455 159.5,-98.6456 163.0001,-88.6456 156.0001,-88.6455"/>
<text text-anchor="middle" x="169.5" y="-56.5" font-family="Helvetica,sans-Serif" font-size="10.00" fill="#000000"> m_t</text>
</g>
<!-- Node4 -->
<g id="node4" class="node">
<title>Node4</title>
<g id="a_node4"><a xlink:href="../../d9/d45/class_q_c_string.html" target="_top" xlink:title="This is an alternative implementation of QCString.">
<polygon fill="#ffffff" stroke="#666666" points="269,-118 212,-118 212,-99 269,-99 269,-118"/>
<text text-anchor="middle" x="240.5" y="-106" font-family="Helvetica,sans-Serif" font-size="10.00" fill="#000000">QCString</text>
</a>
</g>
</g>
<!-- Node4&#45;&gt;Node1 -->
<g id="edge3" class="edge">
<title>Node4&#45;&gt;Node1</title>
<path fill="none" stroke="#9a32cd" stroke-dasharray="5,2" d="M226.524,-90.5178C215.1164,-75.9504 198.4906,-54.9687 183.5,-37 178.4663,-30.9664 172.6782,-24.3258 168.0474,-19.0818"/>
<polygon fill="#9a32cd" stroke="#9a32cd" points="223.9791,-92.9456 232.8913,-98.6748 229.497,-88.6384 223.9791,-92.9456"/>
<text text-anchor="middle" x="260" y="-73" font-family="Helvetica,sans-Serif" font-size="10.00" fill="#000000"> m_external</text>
<text text-anchor="middle" x="260" y="-62" font-family="Helvetica,sans-Serif" font-size="10.00" fill="#000000">m_refId</text>
<text text-anchor="middle" x="260" y="-51" font-family="Helvetica,sans-Serif" font-size="10.00" fill="#000000">m_relPath</text>
<text text-anchor="middle" x="260" y="-40" font-family="Helvetica,sans-Serif" font-size="10.00" fill="#000000">m_sourceFileName</text>
</g>
</g>
</svg>
