<?xml version="1.0" encoding="UTF-8" standalone="no"?>
<!DOCTYPE svg PUBLIC "-//W3C//DTD SVG 1.1//EN"
 "http://www.w3.org/Graphics/SVG/1.1/DTD/svg11.dtd">
<!-- Generated by graphviz version 2.40.1 (20161225.0304)
 -->
<!-- Title: src/portable.h Pages: 1 -->
<!--zoomable 82 -->
<svg id="main" version="1.1" xmlns="http://www.w3.org/2000/svg" xmlns:xlink="http://www.w3.org/1999/xlink" xml:space="preserve" onload="init(evt)">
<style type="text/css"><![CDATA[
.edge:hover path { stroke: red; }
.edge:hover polygon { stroke: red; fill: red; }
]]></style>
<script type="text/javascript"><![CDATA[
var edges = document.getElementsByTagName('g');
if (edges && edges.length) {
  for (var i=0;i<edges.length;i++) {
    if (edges[i].id.substr(0,4)=='edge') {
      edges[i].setAttribute('class','edge');
    }
  }
}
]]></script>
        <defs>
                <circle id="rim" cx="0" cy="0" r="7"/>
                <circle id="rim2" cx="0" cy="0" r="3.5"/>
                <g id="zoomPlus">
                        <use xlink:href="#rim" fill="#404040">
                                <set attributeName="fill" to="#808080" begin="zoomplus.mouseover" end="zoomplus.mouseout"/>
                        </use>
                        <path d="M-4,0h8M0,-4v8" fill="none" stroke="white" stroke-width="1.5" pointer-events="none"/>
                </g>
                <g id="zoomMin">
                        <use xlink:href="#rim" fill="#404040">
                                <set attributeName="fill" to="#808080" begin="zoomminus.mouseover" end="zoomminus.mouseout"/>
                        </use>
                        <path d="M-4,0h8" fill="none" stroke="white" stroke-width="1.5" pointer-events="none"/>
                </g>
                <g id="dirArrow">
                        <path fill="none" stroke="white" stroke-width="1.5" d="M0,-3.0v7 M-2.5,-0.5L0,-3.0L2.5,-0.5"/>
                </g>
               <g id="resetDef">
                       <use xlink:href="#rim2" fill="#404040">
                               <set attributeName="fill" to="#808080" begin="reset.mouseover" end="reset.mouseout"/>
                       </use>
               </g>
        </defs>

<script type="text/javascript">
var viewWidth = 2726;
var viewHeight = 82;
var sectionId = 'dynsection-1';
</script>
<script xlink:href="../../svgpan.js"/>
<svg id="graph" class="graph">
<g id="viewport">
<title>src/portable.h</title>
<!-- Node1 -->
<g id="node1" class="node">
<title>Node1</title>
<g id="a_node1"><a xlink:title="Portable versions of functions that are platform dependent.">
<polygon fill="#999999" stroke="#666666" points="1389,-74 1313,-74 1313,-55 1389,-55 1389,-74"/>
<text text-anchor="middle" x="1351" y="-62" font-family="Helvetica,sans-Serif" font-size="10.00" fill="#000000">src/portable.h</text>
</a>
</g>
</g>
<!-- Node2 -->
<g id="node2" class="node">
<title>Node2</title>
<g id="a_node2"><a xlink:href="../../d5/d0b/cite_8cpp.html" target="_top" xlink:title=" ">
<polygon fill="#ffffff" stroke="#666666" points="68,-19 0,-19 0,0 68,0 68,-19"/>
<text text-anchor="middle" x="34" y="-7" font-family="Helvetica,sans-Serif" font-size="10.00" fill="#000000">src/cite.cpp</text>
</a>
</g>
</g>
<!-- Node1&#45;&gt;Node2 -->
<g id="edge1" class="edge">
<title>Node1&#45;&gt;Node2</title>
<path fill="none" stroke="#63b8ff" d="M1302.8248,-63.9511C1100.766,-61.468 320.853,-50.0299 77,-19 74.118,-18.6333 71.1442,-18.1661 68.1693,-17.6364"/>
<polygon fill="#63b8ff" stroke="#63b8ff" points="1302.7927,-67.4508 1312.8345,-64.0725 1302.8777,-60.4514 1302.7927,-67.4508"/>
</g>
<!-- Node3 -->
<g id="node3" class="node">
<title>Node3</title>
<g id="a_node3"><a xlink:href="../../d9/de3/configimpl_8l.html" target="_top" xlink:title=" ">
<polygon fill="#ffffff" stroke="#666666" points="169.5,-19 86.5,-19 86.5,0 169.5,0 169.5,-19"/>
<text text-anchor="middle" x="128" y="-7" font-family="Helvetica,sans-Serif" font-size="10.00" fill="#000000">src/configimpl.l</text>
</a>
</g>
</g>
<!-- Node1&#45;&gt;Node3 -->
<g id="edge2" class="edge">
<title>Node1&#45;&gt;Node3</title>
<path fill="none" stroke="#63b8ff" d="M1302.6837,-63.5622C1110.7963,-59.6922 402.1711,-43.9835 179,-19 175.9568,-18.6593 172.8224,-18.2416 169.6746,-17.7732"/>
<polygon fill="#63b8ff" stroke="#63b8ff" points="1302.676,-67.0626 1312.7441,-63.7637 1302.8163,-60.064 1302.676,-67.0626"/>
</g>
<!-- Node4 -->
<g id="node4" class="node">
<title>Node4</title>
<g id="a_node4"><a xlink:href="../../db/d12/context_8cpp.html" target="_top" xlink:title=" ">
<polygon fill="#ffffff" stroke="#666666" points="272,-19 188,-19 188,0 272,0 272,-19"/>
<text text-anchor="middle" x="230" y="-7" font-family="Helvetica,sans-Serif" font-size="10.00" fill="#000000">src/context.cpp</text>
</a>
</g>
</g>
<!-- Node1&#45;&gt;Node4 -->
<g id="edge3" class="edge">
<title>Node1&#45;&gt;Node4</title>
<path fill="none" stroke="#63b8ff" d="M1302.7764,-63.3587C1121.8054,-58.9344 483.1747,-42.0112 281,-19 278.1364,-18.6741 275.1919,-18.2812 272.2313,-17.8432"/>
<polygon fill="#63b8ff" stroke="#63b8ff" points="1302.7097,-66.858 1312.7918,-63.6022 1302.8799,-59.8601 1302.7097,-66.858"/>
</g>
<!-- Node5 -->
<g id="node5" class="node">
<title>Node5</title>
<g id="a_node5"><a xlink:href="../../d3/dea/definition_8cpp.html" target="_top" xlink:title=" ">
<polygon fill="#ffffff" stroke="#666666" points="381.5,-19 290.5,-19 290.5,0 381.5,0 381.5,-19"/>
<text text-anchor="middle" x="336" y="-7" font-family="Helvetica,sans-Serif" font-size="10.00" fill="#000000">src/definition.cpp</text>
</a>
</g>
</g>
<!-- Node1&#45;&gt;Node5 -->
<g id="edge4" class="edge">
<title>Node1&#45;&gt;Node5</title>
<path fill="none" stroke="#63b8ff" d="M1302.7561,-63.0271C1133.8811,-57.7445 569.8762,-38.999 390,-19 387.2564,-18.695 384.4414,-18.3371 381.6065,-17.9424"/>
<polygon fill="#63b8ff" stroke="#63b8ff" points="1302.7325,-66.528 1312.8366,-63.3411 1302.9505,-59.5314 1302.7325,-66.528"/>
</g>
<!-- Node6 -->
<g id="node6" class="node">
<title>Node6</title>
<g id="a_node6"><a xlink:href="../../d1/df5/dia_8cpp.html" target="_top" xlink:title=" ">
<polygon fill="#ffffff" stroke="#666666" points="464.5,-19 399.5,-19 399.5,0 464.5,0 464.5,-19"/>
<text text-anchor="middle" x="432" y="-7" font-family="Helvetica,sans-Serif" font-size="10.00" fill="#000000">src/dia.cpp</text>
</a>
</g>
</g>
<!-- Node1&#45;&gt;Node6 -->
<g id="edge5" class="edge">
<title>Node1&#45;&gt;Node6</title>
<path fill="none" stroke="#63b8ff" d="M1302.2573,-63.0677C1142.5538,-58.2024 636.0327,-41.3617 474,-19 471.0377,-18.5912 467.9758,-18.0782 464.9176,-17.5036"/>
<polygon fill="#63b8ff" stroke="#63b8ff" points="1302.6068,-66.5798 1312.7082,-63.384 1302.8187,-59.583 1302.6068,-66.5798"/>
</g>
<!-- Node7 -->
<g id="node7" class="node">
<title>Node7</title>
<g id="a_node7"><a xlink:href="../../da/d0d/diagram_8cpp.html" target="_top" xlink:title=" ">
<polygon fill="#ffffff" stroke="#666666" points="569,-19 483,-19 483,0 569,0 569,-19"/>
<text text-anchor="middle" x="526" y="-7" font-family="Helvetica,sans-Serif" font-size="10.00" fill="#000000">src/diagram.cpp</text>
</a>
</g>
</g>
<!-- Node1&#45;&gt;Node7 -->
<g id="edge6" class="edge">
<title>Node1&#45;&gt;Node7</title>
<path fill="none" stroke="#63b8ff" d="M1302.5095,-63.6966C1180.4309,-61.2296 850.6754,-51.8089 578,-19 575.0843,-18.6492 572.0851,-18.2376 569.0687,-17.786"/>
<polygon fill="#63b8ff" stroke="#63b8ff" points="1302.5813,-67.1986 1312.6479,-63.895 1302.7183,-60.2 1302.5813,-67.1986"/>
</g>
<!-- Node8 -->
<g id="node8" class="node">
<title>Node8</title>
<g id="a_node8"><a xlink:href="../../da/d17/docparser_8cpp.html" target="_top" xlink:title=" ">
<polygon fill="#ffffff" stroke="#666666" points="682.5,-19 587.5,-19 587.5,0 682.5,0 682.5,-19"/>
<text text-anchor="middle" x="635" y="-7" font-family="Helvetica,sans-Serif" font-size="10.00" fill="#000000">src/docparser.cpp</text>
</a>
</g>
</g>
<!-- Node1&#45;&gt;Node8 -->
<g id="edge7" class="edge">
<title>Node1&#45;&gt;Node8</title>
<path fill="none" stroke="#63b8ff" d="M1302.9713,-62.7688C1194.0105,-58.4949 919.8484,-45.7902 692,-19 688.9113,-18.6368 685.7347,-18.2223 682.537,-17.7742"/>
<polygon fill="#63b8ff" stroke="#63b8ff" points="1302.8653,-66.2672 1312.9931,-63.1562 1303.1358,-59.2724 1302.8653,-66.2672"/>
</g>
<!-- Node9 -->
<g id="node9" class="node">
<title>Node9</title>
<g id="a_node9"><a xlink:href="../../d1/d39/doctokenizer_8l.html" target="_top" xlink:title=" ">
<polygon fill="#ffffff" stroke="#666666" points="795,-19 701,-19 701,0 795,0 795,-19"/>
<text text-anchor="middle" x="748" y="-7" font-family="Helvetica,sans-Serif" font-size="10.00" fill="#000000">src/doctokenizer.l</text>
</a>
</g>
</g>
<!-- Node1&#45;&gt;Node9 -->
<g id="edge8" class="edge">
<title>Node1&#45;&gt;Node9</title>
<path fill="none" stroke="#63b8ff" d="M1302.5306,-61.8568C1206.9233,-56.3365 987.394,-42.1406 804,-19 801.0649,-18.6297 798.0487,-18.2156 795.0107,-17.7733"/>
<polygon fill="#63b8ff" stroke="#63b8ff" points="1302.5684,-65.3646 1312.7519,-62.4411 1302.9679,-58.376 1302.5684,-65.3646"/>
</g>
<!-- Node10 -->
<g id="node10" class="node">
<title>Node10</title>
<g id="a_node10"><a xlink:href="../../de/daa/dot_8cpp.html" target="_top" xlink:title=" ">
<polygon fill="#ffffff" stroke="#666666" points="878.5,-19 813.5,-19 813.5,0 878.5,0 878.5,-19"/>
<text text-anchor="middle" x="846" y="-7" font-family="Helvetica,sans-Serif" font-size="10.00" fill="#000000">src/dot.cpp</text>
</a>
</g>
</g>
<!-- Node1&#45;&gt;Node10 -->
<g id="edge9" class="edge">
<title>Node1&#45;&gt;Node10</title>
<path fill="none" stroke="#63b8ff" d="M1302.9331,-61.7548C1218.5416,-56.495 1038.4058,-43.3036 888,-19 885.0479,-18.523 881.993,-17.9631 878.9394,-17.3579"/>
<polygon fill="#63b8ff" stroke="#63b8ff" points="1302.7883,-65.2524 1312.984,-62.3717 1303.2173,-58.2655 1302.7883,-65.2524"/>
</g>
<!-- Node11 -->
<g id="node11" class="node">
<title>Node11</title>
<g id="a_node11"><a xlink:href="../../d1/dfe/dotrunner_8cpp.html" target="_top" xlink:title=" ">
<polygon fill="#ffffff" stroke="#666666" points="989,-19 897,-19 897,0 989,0 989,-19"/>
<text text-anchor="middle" x="943" y="-7" font-family="Helvetica,sans-Serif" font-size="10.00" fill="#000000">src/dotrunner.cpp</text>
</a>
</g>
</g>
<!-- Node1&#45;&gt;Node11 -->
<g id="edge10" class="edge">
<title>Node1&#45;&gt;Node11</title>
<path fill="none" stroke="#63b8ff" d="M1302.7979,-58.9504C1234.7487,-50.9649 1106.6806,-35.3826 998,-19 995.1255,-18.5667 992.1694,-18.1045 989.1902,-17.6261"/>
<polygon fill="#63b8ff" stroke="#63b8ff" points="1302.4537,-62.4339 1312.7926,-60.1192 1303.2668,-55.4813 1302.4537,-62.4339"/>
</g>
<!-- Node12 -->
<g id="node12" class="node">
<title>Node12</title>
<g id="a_node12"><a xlink:href="../../dc/d98/doxygen_8cpp.html" target="_top" xlink:title=" ">
<polygon fill="#ffffff" stroke="#666666" points="1096.5,-19 1007.5,-19 1007.5,0 1096.5,0 1096.5,-19"/>
<text text-anchor="middle" x="1052" y="-7" font-family="Helvetica,sans-Serif" font-size="10.00" fill="#000000">src/doxygen.cpp</text>
</a>
</g>
</g>
<!-- Node1&#45;&gt;Node12 -->
<g id="edge11" class="edge">
<title>Node1&#45;&gt;Node12</title>
<path fill="none" stroke="#63b8ff" d="M1302.9891,-55.6686C1246.0419,-45.1933 1151.877,-27.872 1096.5094,-17.6874"/>
<polygon fill="#63b8ff" stroke="#63b8ff" points="1302.3595,-59.1114 1312.8277,-57.4783 1303.626,-52.2269 1302.3595,-59.1114"/>
</g>
<!-- Node13 -->
<g id="node13" class="node">
<title>Node13</title>
<g id="a_node13"><a xlink:href="../../d6/ddc/filedef_8cpp.html" target="_top" xlink:title=" ">
<polygon fill="#ffffff" stroke="#666666" points="1193,-19 1115,-19 1115,0 1193,0 1193,-19"/>
<text text-anchor="middle" x="1154" y="-7" font-family="Helvetica,sans-Serif" font-size="10.00" fill="#000000">src/filedef.cpp</text>
</a>
</g>
</g>
<!-- Node1&#45;&gt;Node13 -->
<g id="edge12" class="edge">
<title>Node1&#45;&gt;Node13</title>
<path fill="none" stroke="#63b8ff" d="M1306.9674,-52.2066C1271.1004,-42.193 1221.1797,-28.2557 1188.2515,-19.0626"/>
<polygon fill="#63b8ff" stroke="#63b8ff" points="1306.1124,-55.6017 1316.6852,-54.9197 1307.9947,-48.8595 1306.1124,-55.6017"/>
</g>
<!-- Node14 -->
<g id="node14" class="node">
<title>Node14</title>
<g id="a_node14"><a xlink:href="../../d7/d5b/formula_8cpp.html" target="_top" xlink:title=" ">
<polygon fill="#ffffff" stroke="#666666" points="1295,-19 1211,-19 1211,0 1295,0 1295,-19"/>
<text text-anchor="middle" x="1253" y="-7" font-family="Helvetica,sans-Serif" font-size="10.00" fill="#000000">src/formula.cpp</text>
</a>
</g>
</g>
<!-- Node1&#45;&gt;Node14 -->
<g id="edge13" class="edge">
<title>Node1&#45;&gt;Node14</title>
<path fill="none" stroke="#63b8ff" d="M1324.8904,-49.8467C1307.5707,-40.1264 1285.3296,-27.6442 1270.2035,-19.155"/>
<polygon fill="#63b8ff" stroke="#63b8ff" points="1323.4962,-53.0777 1333.9297,-54.9197 1326.9222,-46.9733 1323.4962,-53.0777"/>
</g>
<!-- Node15 -->
<g id="node15" class="node">
<title>Node15</title>
<g id="a_node15"><a xlink:href="../../d9/db7/htags_8cpp.html" target="_top" xlink:title=" ">
<polygon fill="#ffffff" stroke="#666666" points="1389,-19 1313,-19 1313,0 1389,0 1389,-19"/>
<text text-anchor="middle" x="1351" y="-7" font-family="Helvetica,sans-Serif" font-size="10.00" fill="#000000">src/htags.cpp</text>
</a>
</g>
</g>
<!-- Node1&#45;&gt;Node15 -->
<g id="edge14" class="edge">
<title>Node1&#45;&gt;Node15</title>
<path fill="none" stroke="#63b8ff" d="M1351,-44.8553C1351,-36.2036 1351,-26.4195 1351,-19.3408"/>
<polygon fill="#63b8ff" stroke="#63b8ff" points="1347.5001,-44.9197 1351,-54.9197 1354.5001,-44.9198 1347.5001,-44.9197"/>
</g>
<!-- Node16 -->
<g id="node16" class="node">
<title>Node16</title>
<g id="a_node16"><a xlink:href="../../d3/d4b/htmlhelp_8cpp.html" target="_top" xlink:title=" ">
<polygon fill="#ffffff" stroke="#666666" points="1496.5,-19 1407.5,-19 1407.5,0 1496.5,0 1496.5,-19"/>
<text text-anchor="middle" x="1452" y="-7" font-family="Helvetica,sans-Serif" font-size="10.00" fill="#000000">src/htmlhelp.cpp</text>
</a>
</g>
</g>
<!-- Node1&#45;&gt;Node16 -->
<g id="edge15" class="edge">
<title>Node1&#45;&gt;Node16</title>
<path fill="none" stroke="#63b8ff" d="M1377.4144,-50.1159C1395.3337,-40.3579 1418.5363,-27.7228 1434.2699,-19.155"/>
<polygon fill="#63b8ff" stroke="#63b8ff" points="1375.7013,-47.0635 1368.5929,-54.9197 1379.049,-53.2111 1375.7013,-47.0635"/>
</g>
<!-- Node17 -->
<g id="node17" class="node">
<title>Node17</title>
<g id="a_node17"><a xlink:href="../../d4/d42/latexgen_8cpp.html" target="_top" xlink:title=" ">
<polygon fill="#ffffff" stroke="#666666" points="1603.5,-19 1514.5,-19 1514.5,0 1603.5,0 1603.5,-19"/>
<text text-anchor="middle" x="1559" y="-7" font-family="Helvetica,sans-Serif" font-size="10.00" fill="#000000">src/latexgen.cpp</text>
</a>
</g>
</g>
<!-- Node1&#45;&gt;Node17 -->
<g id="edge16" class="edge">
<title>Node1&#45;&gt;Node17</title>
<path fill="none" stroke="#63b8ff" d="M1397.0066,-52.3348C1434.9102,-42.3122 1487.9206,-28.295 1522.836,-19.0626"/>
<polygon fill="#63b8ff" stroke="#63b8ff" points="1396.0038,-48.9796 1387.2308,-54.9197 1397.7933,-55.747 1396.0038,-48.9796"/>
</g>
<!-- Node18 -->
<g id="node18" class="node">
<title>Node18</title>
<g id="a_node18"><a xlink:href="../../de/d04/markdown_8cpp.html" target="_top" xlink:title=" ">
<polygon fill="#ffffff" stroke="#666666" points="1718.5,-19 1621.5,-19 1621.5,0 1718.5,0 1718.5,-19"/>
<text text-anchor="middle" x="1670" y="-7" font-family="Helvetica,sans-Serif" font-size="10.00" fill="#000000">src/markdown.cpp</text>
</a>
</g>
</g>
<!-- Node1&#45;&gt;Node18 -->
<g id="edge17" class="edge">
<title>Node1&#45;&gt;Node18</title>
<path fill="none" stroke="#63b8ff" d="M1399.1393,-56.2001C1459.1495,-45.8535 1561.1397,-28.269 1621.3752,-17.8836"/>
<polygon fill="#63b8ff" stroke="#63b8ff" points="1398.4219,-52.7721 1389.162,-57.9203 1399.6113,-59.6703 1398.4219,-52.7721"/>
</g>
<!-- Node19 -->
<g id="node19" class="node">
<title>Node19</title>
<g id="a_node19"><a xlink:href="../../d8/d6a/message_8cpp.html" target="_top" xlink:title=" ">
<polygon fill="#ffffff" stroke="#666666" points="1829,-19 1737,-19 1737,0 1829,0 1829,-19"/>
<text text-anchor="middle" x="1783" y="-7" font-family="Helvetica,sans-Serif" font-size="10.00" fill="#000000">src/message.cpp</text>
</a>
</g>
</g>
<!-- Node1&#45;&gt;Node19 -->
<g id="edge18" class="edge">
<title>Node1&#45;&gt;Node19</title>
<path fill="none" stroke="#63b8ff" d="M1399.1695,-59.4809C1470.9521,-51.8216 1610.1852,-36.273 1728,-19 1730.8763,-18.5783 1733.8337,-18.125 1736.8138,-17.6532"/>
<polygon fill="#63b8ff" stroke="#63b8ff" points="1398.6528,-56.016 1389.0786,-60.5529 1399.3924,-62.9768 1398.6528,-56.016"/>
</g>
<!-- Node20 -->
<g id="node20" class="node">
<title>Node20</title>
<g id="a_node20"><a xlink:href="../../db/d33/msc_8cpp.html" target="_top" xlink:title=" ">
<polygon fill="#ffffff" stroke="#666666" points="1918.5,-19 1847.5,-19 1847.5,0 1918.5,0 1918.5,-19"/>
<text text-anchor="middle" x="1883" y="-7" font-family="Helvetica,sans-Serif" font-size="10.00" fill="#000000">src/msc.cpp</text>
</a>
</g>
</g>
<!-- Node1&#45;&gt;Node20 -->
<g id="edge19" class="edge">
<title>Node1&#45;&gt;Node20</title>
<path fill="none" stroke="#63b8ff" d="M1399.2425,-61.8357C1486.9555,-56.5826 1678.2614,-43.2414 1838,-19 1840.9998,-18.5448 1844.1006,-18.0153 1847.2063,-17.4438"/>
<polygon fill="#63b8ff" stroke="#63b8ff" points="1398.8447,-58.353 1389.0684,-62.4364 1399.2573,-65.3408 1398.8447,-58.353"/>
</g>
<!-- Node21 -->
<g id="node21" class="node">
<title>Node21</title>
<g id="a_node21"><a xlink:href="../../d0/d17/outputgen_8cpp.html" target="_top" xlink:title=" ">
<polygon fill="#ffffff" stroke="#666666" points="2031.5,-19 1936.5,-19 1936.5,0 2031.5,0 2031.5,-19"/>
<text text-anchor="middle" x="1984" y="-7" font-family="Helvetica,sans-Serif" font-size="10.00" fill="#000000">src/outputgen.cpp</text>
</a>
</g>
</g>
<!-- Node1&#45;&gt;Node21 -->
<g id="edge20" class="edge">
<title>Node1&#45;&gt;Node21</title>
<path fill="none" stroke="#63b8ff" d="M1399.2931,-62.1532C1498.585,-57.0064 1732.7265,-43.2135 1928,-19 1930.7401,-18.6602 1933.5508,-18.2811 1936.3837,-17.8754"/>
<polygon fill="#63b8ff" stroke="#63b8ff" points="1399.0735,-58.6597 1389.2658,-62.6672 1399.4319,-65.6506 1399.0735,-58.6597"/>
</g>
<!-- Node22 -->
<g id="node22" class="node">
<title>Node22</title>
<g id="a_node22"><a xlink:href="../../d7/d5b/plantuml_8cpp.html" target="_top" xlink:title=" ">
<polygon fill="#ffffff" stroke="#666666" points="2138.5,-19 2049.5,-19 2049.5,0 2138.5,0 2138.5,-19"/>
<text text-anchor="middle" x="2094" y="-7" font-family="Helvetica,sans-Serif" font-size="10.00" fill="#000000">src/plantuml.cpp</text>
</a>
</g>
</g>
<!-- Node1&#45;&gt;Node22 -->
<g id="edge21" class="edge">
<title>Node1&#45;&gt;Node22</title>
<path fill="none" stroke="#63b8ff" d="M1399.3266,-63.1666C1512.0886,-59.6516 1801.2177,-48.3031 2041,-19 2043.6909,-18.6712 2046.4523,-18.2949 2049.2336,-17.8862"/>
<polygon fill="#63b8ff" stroke="#63b8ff" points="1399.1768,-59.6695 1389.2883,-63.4733 1399.3906,-66.6662 1399.1768,-59.6695"/>
</g>
<!-- Node23 -->
<g id="node23" class="node">
<title>Node23</title>
<g id="a_node23"><a xlink:href="../../d0/d1c/portable_8cpp.html" target="_top" xlink:title=" ">
<polygon fill="#ffffff" stroke="#666666" points="2243,-19 2157,-19 2157,0 2243,0 2243,-19"/>
<text text-anchor="middle" x="2200" y="-7" font-family="Helvetica,sans-Serif" font-size="10.00" fill="#000000">src/portable.cpp</text>
</a>
</g>
</g>
<!-- Node1&#45;&gt;Node23 -->
<g id="edge22" class="edge">
<title>Node1&#45;&gt;Node23</title>
<path fill="none" stroke="#63b8ff" d="M1399.6571,-63.8143C1524.4381,-61.603 1865.8547,-52.6956 2148,-19 2150.916,-18.6518 2153.9155,-18.2421 2156.932,-17.7919"/>
<polygon fill="#63b8ff" stroke="#63b8ff" points="1399.2443,-60.3208 1389.3055,-63.9911 1399.3638,-67.3198 1399.2443,-60.3208"/>
</g>
<!-- Node24 -->
<g id="node24" class="node">
<title>Node24</title>
<g id="a_node24"><a xlink:href="../../d0/da7/pre_8l.html" target="_top" xlink:title=" ">
<polygon fill="#ffffff" stroke="#666666" points="2313,-19 2261,-19 2261,0 2313,0 2313,-19"/>
<text text-anchor="middle" x="2287" y="-7" font-family="Helvetica,sans-Serif" font-size="10.00" fill="#000000">src/pre.l</text>
</a>
</g>
</g>
<!-- Node1&#45;&gt;Node24 -->
<g id="edge23" class="edge">
<title>Node1&#45;&gt;Node24</title>
<path fill="none" stroke="#63b8ff" d="M1399.2372,-63.4291C1561.3049,-59.6171 2085.4149,-45.4989 2252,-19 2254.8603,-18.545 2257.8228,-17.9468 2260.7583,-17.2715"/>
<polygon fill="#63b8ff" stroke="#63b8ff" points="1399.0091,-59.9333 1389.0933,-63.6653 1399.1721,-66.9314 1399.0091,-59.9333"/>
</g>
<!-- Node25 -->
<g id="node25" class="node">
<title>Node25</title>
<g id="a_node25"><a xlink:href="../../d0/d9c/rtfgen_8cpp.html" target="_top" xlink:title=" ">
<polygon fill="#ffffff" stroke="#666666" points="2408.5,-19 2331.5,-19 2331.5,0 2408.5,0 2408.5,-19"/>
<text text-anchor="middle" x="2370" y="-7" font-family="Helvetica,sans-Serif" font-size="10.00" fill="#000000">src/rtfgen.cpp</text>
</a>
</g>
</g>
<!-- Node1&#45;&gt;Node25 -->
<g id="edge24" class="edge">
<title>Node1&#45;&gt;Node25</title>
<path fill="none" stroke="#63b8ff" d="M1399.1847,-63.1912C1569.1582,-58.4261 2140.2707,-41.1171 2322,-19 2325.0358,-18.6305 2328.167,-18.1771 2331.3067,-17.6707"/>
<polygon fill="#63b8ff" stroke="#63b8ff" points="1398.9417,-59.6965 1389.0431,-63.4739 1399.1368,-66.6938 1398.9417,-59.6965"/>
</g>
<!-- Node26 -->
<g id="node26" class="node">
<title>Node26</title>
<g id="a_node26"><a xlink:href="../../df/d54/template_8cpp.html" target="_top" xlink:title=" ">
<polygon fill="#ffffff" stroke="#666666" points="2515.5,-19 2426.5,-19 2426.5,0 2515.5,0 2515.5,-19"/>
<text text-anchor="middle" x="2471" y="-7" font-family="Helvetica,sans-Serif" font-size="10.00" fill="#000000">src/template.cpp</text>
</a>
</g>
</g>
<!-- Node1&#45;&gt;Node26 -->
<g id="edge25" class="edge">
<title>Node1&#45;&gt;Node26</title>
<path fill="none" stroke="#63b8ff" d="M1399.3534,-63.3053C1580.1637,-58.7029 2216.416,-41.262 2418,-19 2420.6945,-18.7024 2423.4587,-18.3504 2426.2422,-17.96"/>
<polygon fill="#63b8ff" stroke="#63b8ff" points="1399.0054,-59.8129 1389.0972,-63.565 1399.1826,-66.8106 1399.0054,-59.8129"/>
</g>
<!-- Node27 -->
<g id="node27" class="node">
<title>Node27</title>
<g id="a_node27"><a xlink:href="../../df/d2d/util_8cpp.html" target="_top" xlink:title=" ">
<polygon fill="#ffffff" stroke="#666666" points="2598.5,-19 2533.5,-19 2533.5,0 2598.5,0 2598.5,-19"/>
<text text-anchor="middle" x="2566" y="-7" font-family="Helvetica,sans-Serif" font-size="10.00" fill="#000000">src/util.cpp</text>
</a>
</g>
</g>
<!-- Node1&#45;&gt;Node27 -->
<g id="edge26" class="edge">
<title>Node1&#45;&gt;Node27</title>
<path fill="none" stroke="#63b8ff" d="M1399.1125,-63.8481C1590.9882,-61.0606 2301.9211,-48.8941 2525,-19 2527.7519,-18.6312 2530.5902,-18.1626 2533.4287,-17.6319"/>
<polygon fill="#63b8ff" stroke="#63b8ff" points="1399.0037,-60.3492 1389.055,-63.9925 1399.1043,-67.3485 1399.0037,-60.3492"/>
</g>
<!-- Node28 -->
<g id="node28" class="node">
<title>Node28</title>
<g id="a_node28"><a xlink:href="../../de/dea/vhdldocgen_8cpp.html" target="_top" xlink:title=" ">
<polygon fill="#ffffff" stroke="#666666" points="2717.5,-19 2616.5,-19 2616.5,0 2717.5,0 2717.5,-19"/>
<text text-anchor="middle" x="2667" y="-7" font-family="Helvetica,sans-Serif" font-size="10.00" fill="#000000">src/vhdldocgen.cpp</text>
</a>
</g>
</g>
<!-- Node1&#45;&gt;Node28 -->
<g id="edge27" class="edge">
<title>Node1&#45;&gt;Node28</title>
<path fill="none" stroke="#63b8ff" d="M1399.4532,-63.5474C1600.1508,-59.4778 2367.0052,-42.6725 2608,-19 2610.6846,-18.7363 2613.4324,-18.4282 2616.203,-18.0874"/>
<polygon fill="#63b8ff" stroke="#63b8ff" points="1399.1576,-60.0525 1389.2302,-63.7536 1399.2988,-67.0511 1399.1576,-60.0525"/>
</g>
</g>
</svg>
        <g id="navigator" transform="translate(0 0)" fill="#404254">
                <rect fill="#f2f5e9" fill-opacity="0.5" stroke="#606060" stroke-width=".5" x="0" y="0" width="60" height="60"/>
                <use id="zoomplus" xlink:href="#zoomPlus" x="17" y="9" onmousedown="handleZoom(evt,'in')"/>
                <use id="zoomminus" xlink:href="#zoomMin" x="42" y="9" onmousedown="handleZoom(evt,'out')"/>
                <use id="reset" xlink:href="#resetDef" x="30" y="36" onmousedown="handleReset()"/>
                <g id="arrowUp" xlink:href="#dirArrow" transform="translate(30 24)" onmousedown="handlePan(0,-1)">
                  <use xlink:href="#rim" fill="#404040">
                        <set attributeName="fill" to="#808080" begin="arrowUp.mouseover" end="arrowUp.mouseout"/>
                  </use>
                  <path fill="none" stroke="white" stroke-width="1.5" d="M0,-3.0v7 M-2.5,-0.5L0,-3.0L2.5,-0.5"/>
                </g>
                <g id="arrowRight" xlink:href="#dirArrow" transform="rotate(90) translate(36 -43)" onmousedown="handlePan(1,0)">
                  <use xlink:href="#rim" fill="#404040">
                        <set attributeName="fill" to="#808080" begin="arrowRight.mouseover" end="arrowRight.mouseout"/>
                  </use>
                  <path fill="none" stroke="white" stroke-width="1.5" d="M0,-3.0v7 M-2.5,-0.5L0,-3.0L2.5,-0.5"/>
                </g>
                <g id="arrowDown" xlink:href="#dirArrow" transform="rotate(180) translate(-30 -48)" onmousedown="handlePan(0,1)">
                  <use xlink:href="#rim" fill="#404040">
                        <set attributeName="fill" to="#808080" begin="arrowDown.mouseover" end="arrowDown.mouseout"/>
                  </use>
                  <path fill="none" stroke="white" stroke-width="1.5" d="M0,-3.0v7 M-2.5,-0.5L0,-3.0L2.5,-0.5"/>
                </g>
                <g id="arrowLeft" xlink:href="#dirArrow" transform="rotate(270) translate(-36 17)" onmousedown="handlePan(-1,0)">
                  <use xlink:href="#rim" fill="#404040">
                        <set attributeName="fill" to="#808080" begin="arrowLeft.mouseover" end="arrowLeft.mouseout"/>
                  </use>
                  <path fill="none" stroke="white" stroke-width="1.5" d="M0,-3.0v7 M-2.5,-0.5L0,-3.0L2.5,-0.5"/>
                </g>
        </g>
        <svg viewBox="0 0 15 15" width="100%" height="30px" preserveAspectRatio="xMaxYMin meet">
         <g id="arrow_out" transform="scale(0.3 0.3)">
          <a xlink:href="portable_8h__dep__incl_org.svg" target="_base">
           <rect id="button" ry="5" rx="5" y="6" x="6" height="38" width="38"
                fill="#f2f5e9" fill-opacity="0.5" stroke="#606060" stroke-width="1.0"/>
           <path id="arrow"
             d="M 11.500037,31.436501 C 11.940474,20.09759 22.043105,11.32322 32.158766,21.979434 L 37.068811,17.246167 C 37.068811,17.246167 37.088388,32 37.088388,32 L 22.160133,31.978069 C 22.160133,31.978069 26.997745,27.140456 26.997745,27.140456 C 18.528582,18.264221 13.291696,25.230495 11.500037,31.436501 z"
             style="fill:#404040;"/>
          </a>
         </g>
        </svg>
</svg>
