<?xml version="1.0" encoding="UTF-8" standalone="no"?>
<!DOCTYPE svg PUBLIC "-//W3C//DTD SVG 1.1//EN"
 "http://www.w3.org/Graphics/SVG/1.1/DTD/svg11.dtd">
<!-- Generated by graphviz version 2.40.1 (20161225.0304)
 -->
<!-- Title: TemplateImpl Pages: 1 -->
<svg width="164pt" height="82pt"
 viewBox="0.00 0.00 163.50 82.00" xmlns="http://www.w3.org/2000/svg" xmlns:xlink="http://www.w3.org/1999/xlink">
<g id="graph0" class="graph" transform="scale(1 1) rotate(0) translate(4 78)">
<title>TemplateImpl</title>
<!-- Node1 -->
<g id="node1" class="node">
<title>Node1</title>
<g id="a_node1"><a xlink:title="Internal class representing the implementation of a template.">
<polygon fill="#999999" stroke="#666666" points="121,-19 45,-19 45,0 121,0 121,-19"/>
<text text-anchor="middle" x="83" y="-7" font-family="Helvetica,sans-Serif" font-size="10.00" fill="#000000">TemplateImpl</text>
</a>
</g>
</g>
<!-- Node2 -->
<g id="node2" class="node">
<title>Node2</title>
<g id="a_node2"><a xlink:href="../../d6/d53/class_template_node.html" target="_top" xlink:title="Base class of all nodes in a template&#39;s AST.">
<polygon fill="#ffffff" stroke="#666666" points="80,-74 0,-74 0,-55 80,-55 80,-74"/>
<text text-anchor="middle" x="40" y="-62" font-family="Helvetica,sans-Serif" font-size="10.00" fill="#000000">TemplateNode</text>
</a>
</g>
</g>
<!-- Node2&#45;&gt;Node1 -->
<g id="edge1" class="edge">
<title>Node2&#45;&gt;Node1</title>
<path fill="none" stroke="#63b8ff" d="M53.7978,-46.8517C60.92,-37.7419 69.3416,-26.9701 75.3063,-19.3408"/>
<polygon fill="#63b8ff" stroke="#63b8ff" points="50.892,-44.8859 47.49,-54.9197 56.4066,-49.1974 50.892,-44.8859"/>
</g>
<!-- Node3 -->
<g id="node3" class="node">
<title>Node3</title>
<g id="a_node3"><a xlink:href="../../d5/de9/class_template.html" target="_top" xlink:title="Abstract interface for a template.">
<polygon fill="#ffffff" stroke="#666666" points="155.5,-74 98.5,-74 98.5,-55 155.5,-55 155.5,-74"/>
<text text-anchor="middle" x="127" y="-62" font-family="Helvetica,sans-Serif" font-size="10.00" fill="#000000">Template</text>
</a>
</g>
</g>
<!-- Node3&#45;&gt;Node1 -->
<g id="edge2" class="edge">
<title>Node3&#45;&gt;Node1</title>
<path fill="none" stroke="#63b8ff" d="M112.8814,-46.8517C105.5935,-37.7419 96.9761,-26.9701 90.8727,-19.3408"/>
<polygon fill="#63b8ff" stroke="#63b8ff" points="110.3557,-49.2975 119.3358,-54.9197 115.8218,-44.9246 110.3557,-49.2975"/>
</g>
</g>
</svg>
