<?xml version="1.0" encoding="UTF-8" standalone="no"?>
<!DOCTYPE svg PUBLIC "-//W3C//DTD SVG 1.1//EN"
 "http://www.w3.org/Graphics/SVG/1.1/DTD/svg11.dtd">
<!-- Generated by graphviz version 2.43.0 (0)
 -->
<!-- Title: /home/runner/work/doxygen/doxygen/src/debug.cpp Pages: 1 -->
<svg width="678pt" height="258pt"
 viewBox="0.00 0.00 678.44 258.00" xmlns="http://www.w3.org/2000/svg" xmlns:xlink="http://www.w3.org/1999/xlink">
<g id="graph0" class="graph" transform="scale(1 1) rotate(0) translate(4 254)">
<title>/home/runner/work/doxygen/doxygen/src/debug.cpp</title>
<!-- Node1 -->
<g id="node1" class="node">
<title>Node1</title>
<g id="a_node1"><a xlink:title=" ">
<polygon fill="#999999" stroke="#666666" points="323,-250 169,-250 169,-220 323,-220 323,-250"/>
<text text-anchor="start" x="177" y="-238" font-family="Helvetica,sans-Serif" font-size="10.00">/home/runner/work/doxygen</text>
<text text-anchor="middle" x="246" y="-227" font-family="Helvetica,sans-Serif" font-size="10.00">/doxygen/src/debug.cpp</text>
</a>
</g>
</g>
<!-- Node2 -->
<g id="node2" class="node">
<title>Node2</title>
<g id="a_node2"><a xlink:title=" ">
<polygon fill="#e0e0e0" stroke="#999999" points="56,-184 0,-184 0,-165 56,-165 56,-184"/>
<text text-anchor="middle" x="28" y="-172" font-family="Helvetica,sans-Serif" font-size="10.00">stdarg.h</text>
</a>
</g>
</g>
<!-- Node1&#45;&gt;Node2 -->
<g id="edge1" class="edge">
<title>Node1&#45;&gt;Node2</title>
<path fill="none" stroke="#63b8ff" d="M193.78,-219.99C154.46,-209.44 101.46,-195.21 66.07,-185.72"/>
<polygon fill="#63b8ff" stroke="#63b8ff" points="66.71,-182.26 56.14,-183.05 64.89,-189.02 66.71,-182.26"/>
</g>
<!-- Node3 -->
<g id="node3" class="node">
<title>Node3</title>
<g id="a_node3"><a xlink:title=" ">
<polygon fill="#e0e0e0" stroke="#999999" points="176,-74 112,-74 112,-55 176,-55 176,-74"/>
<text text-anchor="middle" x="144" y="-62" font-family="Helvetica,sans-Serif" font-size="10.00">algorithm</text>
</a>
</g>
</g>
<!-- Node1&#45;&gt;Node3 -->
<g id="edge2" class="edge">
<title>Node1&#45;&gt;Node3</title>
<path fill="none" stroke="#63b8ff" d="M243.92,-219.87C241.4,-205.45 236.27,-182.73 227,-165 209.57,-131.69 179.53,-99.46 160.76,-81.11"/>
<polygon fill="#63b8ff" stroke="#63b8ff" points="163.12,-78.52 153.48,-74.12 158.28,-83.57 163.12,-78.52"/>
</g>
<!-- Node4 -->
<g id="node4" class="node">
<title>Node4</title>
<g id="a_node4"><a xlink:title=" ">
<polygon fill="#e0e0e0" stroke="#999999" points="162,-184 112,-184 112,-165 162,-165 162,-184"/>
<text text-anchor="middle" x="137" y="-172" font-family="Helvetica,sans-Serif" font-size="10.00">stdio.h</text>
</a>
</g>
</g>
<!-- Node1&#45;&gt;Node4 -->
<g id="edge3" class="edge">
<title>Node1&#45;&gt;Node4</title>
<path fill="none" stroke="#63b8ff" d="M219.89,-219.99C202.36,-210.58 179.38,-198.24 162.06,-188.95"/>
<polygon fill="#63b8ff" stroke="#63b8ff" points="163.56,-185.78 153.1,-184.14 160.25,-191.95 163.56,-185.78"/>
</g>
<!-- Node5 -->
<g id="node5" class="node">
<title>Node5</title>
<g id="a_node5"><a xlink:title=" ">
<polygon fill="#e0e0e0" stroke="#999999" points="218,-184 180,-184 180,-165 218,-165 218,-184"/>
<text text-anchor="middle" x="199" y="-172" font-family="Helvetica,sans-Serif" font-size="10.00">map</text>
</a>
</g>
</g>
<!-- Node1&#45;&gt;Node5 -->
<g id="edge4" class="edge">
<title>Node1&#45;&gt;Node5</title>
<path fill="none" stroke="#63b8ff" d="M234.62,-219.84C227.94,-211.52 219.45,-200.96 212.44,-192.23"/>
<polygon fill="#63b8ff" stroke="#63b8ff" points="215.03,-189.87 206.04,-184.27 209.58,-194.25 215.03,-189.87"/>
</g>
<!-- Node6 -->
<g id="node6" class="node">
<title>Node6</title>
<g id="a_node6"><a xlink:title=" ">
<polygon fill="#e0e0e0" stroke="#999999" points="226,-19 182,-19 182,0 226,0 226,-19"/>
<text text-anchor="middle" x="204" y="-7" font-family="Helvetica,sans-Serif" font-size="10.00">string</text>
</a>
</g>
</g>
<!-- Node1&#45;&gt;Node6 -->
<g id="edge5" class="edge">
<title>Node1&#45;&gt;Node6</title>
<path fill="none" stroke="#63b8ff" d="M168.75,-224.93C143.62,-217.89 118.3,-205.55 103,-184 69.82,-137.25 71.68,-103.02 103,-55 118.14,-31.79 148.4,-20.6 171.87,-15.26"/>
<polygon fill="#63b8ff" stroke="#63b8ff" points="172.67,-18.67 181.77,-13.25 171.27,-11.81 172.67,-18.67"/>
</g>
<!-- Node7 -->
<g id="node7" class="node">
<title>Node7</title>
<g id="a_node7"><a xlink:title=" ">
<polygon fill="#e0e0e0" stroke="#999999" points="324,-184 274,-184 274,-165 324,-165 324,-184"/>
<text text-anchor="middle" x="299" y="-172" font-family="Helvetica,sans-Serif" font-size="10.00">chrono</text>
</a>
</g>
</g>
<!-- Node1&#45;&gt;Node7 -->
<g id="edge6" class="edge">
<title>Node1&#45;&gt;Node7</title>
<path fill="none" stroke="#63b8ff" d="M258.83,-219.84C266.52,-211.35 276.33,-200.52 284.33,-191.69"/>
<polygon fill="#63b8ff" stroke="#63b8ff" points="286.94,-194.03 291.06,-184.27 281.75,-189.33 286.94,-194.03"/>
</g>
<!-- Node8 -->
<g id="node8" class="node">
<title>Node8</title>
<g id="a_node8"><a xlink:href="../../db/d16/debug_8h.html" target="_top" xlink:title=" ">
<polygon fill="white" stroke="#666666" points="640,-129 584,-129 584,-110 640,-110 640,-129"/>
<text text-anchor="middle" x="612" y="-117" font-family="Helvetica,sans-Serif" font-size="10.00">debug.h</text>
</a>
</g>
</g>
<!-- Node1&#45;&gt;Node8 -->
<g id="edge7" class="edge">
<title>Node1&#45;&gt;Node8</title>
<path fill="none" stroke="#63b8ff" d="M318.77,-219.99C360.31,-211.23 413.09,-198.81 459,-184 504,-169.49 554.31,-147.42 584.54,-133.49"/>
<polygon fill="#63b8ff" stroke="#63b8ff" points="586.4,-136.49 593.99,-129.1 583.45,-130.14 586.4,-136.49"/>
</g>
<!-- Node10 -->
<g id="node10" class="node">
<title>Node10</title>
<g id="a_node10"><a xlink:href="../../d2/d0d/message_8h.html" target="_top" xlink:title=" ">
<polygon fill="white" stroke="#666666" points="450,-184 380,-184 380,-165 450,-165 450,-184"/>
<text text-anchor="middle" x="415" y="-172" font-family="Helvetica,sans-Serif" font-size="10.00">message.h</text>
</a>
</g>
</g>
<!-- Node1&#45;&gt;Node10 -->
<g id="edge9" class="edge">
<title>Node1&#45;&gt;Node10</title>
<path fill="none" stroke="#63b8ff" d="M286.48,-219.99C315.18,-210.05 353.28,-196.86 380.53,-187.43"/>
<polygon fill="#63b8ff" stroke="#63b8ff" points="381.74,-190.72 390.04,-184.14 379.45,-184.1 381.74,-190.72"/>
</g>
<!-- Node12 -->
<g id="node12" class="node">
<title>Node12</title>
<g id="a_node12"><a xlink:href="../../d7/d5c/qcstring_8h.html" target="_top" xlink:title=" ">
<polygon fill="white" stroke="#666666" points="402.5,-129 337.5,-129 337.5,-110 402.5,-110 402.5,-129"/>
<text text-anchor="middle" x="370" y="-117" font-family="Helvetica,sans-Serif" font-size="10.00">qcstring.h</text>
</a>
</g>
</g>
<!-- Node1&#45;&gt;Node12 -->
<g id="edge23" class="edge">
<title>Node1&#45;&gt;Node12</title>
<path fill="none" stroke="#63b8ff" d="M279.32,-219.98C296.79,-211.44 317.68,-199.23 333,-184 346.12,-170.95 356.25,-152.31 362.57,-138.6"/>
<polygon fill="#63b8ff" stroke="#63b8ff" points="365.86,-139.81 366.64,-129.25 359.44,-137.02 365.86,-139.81"/>
</g>
<!-- Node9 -->
<g id="node9" class="node">
<title>Node9</title>
<g id="a_node9"><a xlink:title=" ">
<polygon fill="#e0e0e0" stroke="#999999" points="605,-19 555,-19 555,0 605,0 605,-19"/>
<text text-anchor="middle" x="580" y="-7" font-family="Helvetica,sans-Serif" font-size="10.00">cstdint</text>
</a>
</g>
</g>
<!-- Node8&#45;&gt;Node9 -->
<g id="edge8" class="edge">
<title>Node8&#45;&gt;Node9</title>
<path fill="none" stroke="#63b8ff" d="M629.03,-109.99C649.73,-98.45 680.32,-76.77 667,-55 655.62,-36.39 633.72,-25.25 614.74,-18.77"/>
<polygon fill="#63b8ff" stroke="#63b8ff" points="615.74,-15.41 605.15,-15.79 613.67,-22.1 615.74,-15.41"/>
</g>
<!-- Node11 -->
<g id="node11" class="node">
<title>Node11</title>
<g id="a_node11"><a xlink:title=" ">
<polygon fill="#e0e0e0" stroke="#999999" points="473.5,-129 420.5,-129 420.5,-110 473.5,-110 473.5,-129"/>
<text text-anchor="middle" x="447" y="-117" font-family="Helvetica,sans-Serif" font-size="10.00">cstdarg</text>
</a>
</g>
</g>
<!-- Node10&#45;&gt;Node11 -->
<g id="edge10" class="edge">
<title>Node10&#45;&gt;Node11</title>
<path fill="none" stroke="#63b8ff" d="M420.28,-164.75C424.71,-157.42 431.16,-146.73 436.62,-137.7"/>
<polygon fill="#63b8ff" stroke="#63b8ff" points="439.64,-139.46 441.81,-129.09 433.65,-135.84 439.64,-139.46"/>
</g>
<!-- Node10&#45;&gt;Node12 -->
<g id="edge11" class="edge">
<title>Node10&#45;&gt;Node12</title>
<path fill="none" stroke="#63b8ff" d="M407.57,-164.75C401.15,-157.18 391.69,-146.05 383.88,-136.84"/>
<polygon fill="#63b8ff" stroke="#63b8ff" points="386.43,-134.45 377.29,-129.09 381.1,-138.98 386.43,-134.45"/>
</g>
<!-- Node12&#45;&gt;Node3 -->
<g id="edge13" class="edge">
<title>Node12&#45;&gt;Node3</title>
<path fill="none" stroke="#63b8ff" d="M337.14,-110.79C297.16,-101.42 229.61,-85.58 185.92,-75.33"/>
<polygon fill="#63b8ff" stroke="#63b8ff" points="186.71,-71.92 176.17,-73.04 185.11,-78.74 186.71,-71.92"/>
</g>
<!-- Node12&#45;&gt;Node6 -->
<g id="edge12" class="edge">
<title>Node12&#45;&gt;Node6</title>
<path fill="none" stroke="#63b8ff" d="M337.43,-117.28C304.26,-114.29 253.5,-104.59 223,-74 211.21,-62.17 206.68,-43.33 204.97,-29.24"/>
<polygon fill="#63b8ff" stroke="#63b8ff" points="208.45,-28.85 204.12,-19.18 201.47,-29.44 208.45,-28.85"/>
</g>
<!-- Node12&#45;&gt;Node9 -->
<g id="edge18" class="edge">
<title>Node12&#45;&gt;Node9</title>
<path fill="none" stroke="#63b8ff" d="M402.65,-111.33C456.44,-99.45 558.09,-76.74 561,-74 573.17,-62.56 577.65,-43.67 579.24,-29.46"/>
<polygon fill="#63b8ff" stroke="#63b8ff" points="582.75,-29.53 580,-19.3 575.77,-29.02 582.75,-29.53"/>
</g>
<!-- Node13 -->
<g id="node13" class="node">
<title>Node13</title>
<g id="a_node13"><a xlink:title=" ">
<polygon fill="#e0e0e0" stroke="#999999" points="657.5,-74 608.5,-74 608.5,-55 657.5,-55 657.5,-74"/>
<text text-anchor="middle" x="633" y="-62" font-family="Helvetica,sans-Serif" font-size="10.00">cctype</text>
</a>
</g>
</g>
<!-- Node12&#45;&gt;Node13 -->
<g id="edge14" class="edge">
<title>Node12&#45;&gt;Node13</title>
<path fill="none" stroke="#63b8ff" d="M402.67,-111.7C405.49,-111.12 408.29,-110.55 411,-110 492.25,-93.59 512.83,-90.83 594,-74 595.44,-73.7 596.91,-73.39 598.4,-73.08"/>
<polygon fill="#63b8ff" stroke="#63b8ff" points="599.21,-76.49 608.26,-70.97 597.75,-69.64 599.21,-76.49"/>
</g>
<!-- Node14 -->
<g id="node14" class="node">
<title>Node14</title>
<g id="a_node14"><a xlink:title=" ">
<polygon fill="#e0e0e0" stroke="#999999" points="282,-74 232,-74 232,-55 282,-55 282,-74"/>
<text text-anchor="middle" x="257" y="-62" font-family="Helvetica,sans-Serif" font-size="10.00">cstring</text>
</a>
</g>
</g>
<!-- Node12&#45;&gt;Node14 -->
<g id="edge15" class="edge">
<title>Node12&#45;&gt;Node14</title>
<path fill="none" stroke="#63b8ff" d="M351.84,-109.98C333.75,-101.5 305.72,-88.35 284.81,-78.54"/>
<polygon fill="#63b8ff" stroke="#63b8ff" points="286.03,-75.25 275.49,-74.17 283.05,-81.59 286.03,-75.25"/>
</g>
<!-- Node15 -->
<g id="node15" class="node">
<title>Node15</title>
<g id="a_node15"><a xlink:title=" ">
<polygon fill="#e0e0e0" stroke="#999999" points="346,-74 300,-74 300,-55 346,-55 346,-74"/>
<text text-anchor="middle" x="323" y="-62" font-family="Helvetica,sans-Serif" font-size="10.00">cstdio</text>
</a>
</g>
</g>
<!-- Node12&#45;&gt;Node15 -->
<g id="edge16" class="edge">
<title>Node12&#45;&gt;Node15</title>
<path fill="none" stroke="#63b8ff" d="M362.24,-109.75C355.53,-102.18 345.66,-91.05 337.49,-81.84"/>
<polygon fill="#63b8ff" stroke="#63b8ff" points="339.87,-79.25 330.62,-74.09 334.63,-83.89 339.87,-79.25"/>
</g>
<!-- Node16 -->
<g id="node16" class="node">
<title>Node16</title>
<g id="a_node16"><a xlink:title=" ">
<polygon fill="#e0e0e0" stroke="#999999" points="413.5,-74 364.5,-74 364.5,-55 413.5,-55 413.5,-74"/>
<text text-anchor="middle" x="389" y="-62" font-family="Helvetica,sans-Serif" font-size="10.00">cstdlib</text>
</a>
</g>
</g>
<!-- Node12&#45;&gt;Node16 -->
<g id="edge17" class="edge">
<title>Node12&#45;&gt;Node16</title>
<path fill="none" stroke="#63b8ff" d="M373.14,-109.75C375.68,-102.65 379.36,-92.4 382.53,-83.56"/>
<polygon fill="#63b8ff" stroke="#63b8ff" points="385.84,-84.68 385.92,-74.09 379.25,-82.32 385.84,-84.68"/>
</g>
<!-- Node17 -->
<g id="node17" class="node">
<title>Node17</title>
<g id="a_node17"><a xlink:title=" ">
<polygon fill="#e0e0e0" stroke="#999999" points="488.5,-74 431.5,-74 431.5,-55 488.5,-55 488.5,-74"/>
<text text-anchor="middle" x="460" y="-62" font-family="Helvetica,sans-Serif" font-size="10.00">ostream</text>
</a>
</g>
</g>
<!-- Node12&#45;&gt;Node17 -->
<g id="edge19" class="edge">
<title>Node12&#45;&gt;Node17</title>
<path fill="none" stroke="#63b8ff" d="M384.46,-109.98C398.42,-101.77 419.79,-89.18 436.25,-79.49"/>
<polygon fill="#63b8ff" stroke="#63b8ff" points="438.44,-82.26 445.28,-74.17 434.88,-76.23 438.44,-82.26"/>
</g>
<!-- Node18 -->
<g id="node18" class="node">
<title>Node18</title>
<g id="a_node18"><a xlink:href="../../db/d7c/utf8_8h.html" target="_top" xlink:title="Various UTF8 related helper functions.">
<polygon fill="white" stroke="#666666" points="551.5,-74 506.5,-74 506.5,-55 551.5,-55 551.5,-74"/>
<text text-anchor="middle" x="529" y="-62" font-family="Helvetica,sans-Serif" font-size="10.00">utf8.h</text>
</a>
</g>
</g>
<!-- Node12&#45;&gt;Node18 -->
<g id="edge20" class="edge">
<title>Node12&#45;&gt;Node18</title>
<path fill="none" stroke="#63b8ff" d="M395.55,-109.98C423.07,-100.81 466.93,-86.19 496.8,-76.23"/>
<polygon fill="#63b8ff" stroke="#63b8ff" points="497.97,-79.53 506.35,-73.05 495.76,-72.89 497.97,-79.53"/>
</g>
<!-- Node18&#45;&gt;Node6 -->
<g id="edge22" class="edge">
<title>Node18&#45;&gt;Node6</title>
<path fill="none" stroke="#63b8ff" d="M506.39,-56.97C503.58,-56.26 500.73,-55.58 498,-55 403.78,-35.03 290.75,-20.53 236.36,-14.14"/>
<polygon fill="#63b8ff" stroke="#63b8ff" points="236.63,-10.64 226.29,-12.97 235.82,-17.6 236.63,-10.64"/>
</g>
<!-- Node18&#45;&gt;Node9 -->
<g id="edge21" class="edge">
<title>Node18&#45;&gt;Node9</title>
<path fill="none" stroke="#63b8ff" d="M537.42,-54.75C544.77,-47.11 555.63,-35.82 564.54,-26.56"/>
<polygon fill="#63b8ff" stroke="#63b8ff" points="567.32,-28.72 571.74,-19.09 562.28,-23.87 567.32,-28.72"/>
</g>
</g>
</svg>
