<?xml version="1.0" encoding="UTF-8" standalone="no"?>
<!DOCTYPE svg PUBLIC "-//W3C//DTD SVG 1.1//EN"
 "http://www.w3.org/Graphics/SVG/1.1/DTD/svg11.dtd">
<!-- Generated by graphviz version 2.40.1 (20161225.0304)
 -->
<!-- Title: SearchIndexContext::Private Pages: 1 -->
<svg width="660pt" height="176pt"
 viewBox="0.00 0.00 660.00 176.00" xmlns="http://www.w3.org/2000/svg" xmlns:xlink="http://www.w3.org/1999/xlink">
<g id="graph0" class="graph" transform="scale(1 1) rotate(0) translate(4 172)">
<title>SearchIndexContext::Private</title>
<!-- Node1 -->
<g id="node1" class="node">
<title>Node1</title>
<g id="a_node1"><a xlink:title=" ">
<polygon fill="#999999" stroke="#666666" points="652,-113.5 546,-113.5 546,-83.5 652,-83.5 652,-113.5"/>
<text text-anchor="start" x="554" y="-101.5" font-family="Helvetica,sans-Serif" font-size="10.00" fill="#000000">SearchIndexContext</text>
<text text-anchor="middle" x="599" y="-90.5" font-family="Helvetica,sans-Serif" font-size="10.00" fill="#000000">::Private</text>
</a>
</g>
</g>
<!-- Node2 -->
<g id="node2" class="node">
<title>Node2</title>
<g id="a_node2"><a xlink:href="../../d4/db6/struct_search_index_info.html" target="_top" xlink:title=" ">
<polygon fill="#ffffff" stroke="#666666" points="392,-162 304,-162 304,-143 392,-143 392,-162"/>
<text text-anchor="middle" x="348" y="-150" font-family="Helvetica,sans-Serif" font-size="10.00" fill="#000000">SearchIndexInfo</text>
</a>
</g>
</g>
<!-- Node2&#45;&gt;Node1 -->
<g id="edge1" class="edge">
<title>Node2&#45;&gt;Node1</title>
<path fill="none" stroke="#9a32cd" stroke-dasharray="5,2" d="M401.9085,-140.9022C444.4677,-131.746 503.5313,-119.0391 545.8838,-109.9274"/>
<polygon fill="#9a32cd" stroke="#9a32cd" points="401.0482,-137.5071 392.0081,-143.0321 402.5206,-144.3505 401.0482,-137.5071"/>
<text text-anchor="middle" x="488" y="-132.5" font-family="Helvetica,sans-Serif" font-size="10.00" fill="#000000"> m_info</text>
</g>
<!-- Node3 -->
<g id="node3" class="node">
<title>Node3</title>
<g id="a_node3"><a xlink:href="../../d9/d45/class_q_c_string.html" target="_top" xlink:title="This is an alternative implementation of QCString.">
<polygon fill="#ffffff" stroke="#666666" points="92.5,-168 35.5,-168 35.5,-149 92.5,-149 92.5,-168"/>
<text text-anchor="middle" x="64" y="-156" font-family="Helvetica,sans-Serif" font-size="10.00" fill="#000000">QCString</text>
</a>
</g>
</g>
<!-- Node3&#45;&gt;Node2 -->
<g id="edge2" class="edge">
<title>Node3&#45;&gt;Node2</title>
<path fill="none" stroke="#9a32cd" stroke-dasharray="5,2" d="M102.7665,-157.681C155.2319,-156.5726 248.6061,-154.5999 303.7559,-153.4347"/>
<polygon fill="#9a32cd" stroke="#9a32cd" points="102.4551,-154.1867 92.5313,-157.8972 102.603,-161.1851 102.4551,-154.1867"/>
<text text-anchor="middle" x="197" y="-159.5" font-family="Helvetica,sans-Serif" font-size="10.00" fill="#000000"> name</text>
</g>
<!-- Node4 -->
<g id="node4" class="node">
<title>Node4</title>
<g id="a_node4"><a xlink:href="../../d7/dc1/class_cached_item.html" target="_top" xlink:title=" ">
<polygon fill="#ffffff" stroke="#666666" points="430,-119 266,-119 266,-78 430,-78 430,-119"/>
<text text-anchor="start" x="274" y="-107" font-family="Helvetica,sans-Serif" font-size="10.00" fill="#000000">CachedItem&lt; TemplateVariant,</text>
<text text-anchor="start" x="274" y="-96" font-family="Helvetica,sans-Serif" font-size="10.00" fill="#000000"> SearchIndexContext::Private,</text>
<text text-anchor="middle" x="348" y="-85" font-family="Helvetica,sans-Serif" font-size="10.00" fill="#000000"> &amp;Private::createSymbolIndices &gt;</text>
</a>
</g>
</g>
<!-- Node4&#45;&gt;Node1 -->
<g id="edge3" class="edge">
<title>Node4&#45;&gt;Node1</title>
<path fill="none" stroke="#9a32cd" stroke-dasharray="5,2" d="M440.5717,-98.5C476.0533,-98.5 515.3136,-98.5 545.8749,-98.5"/>
<polygon fill="#9a32cd" stroke="#9a32cd" points="440.1868,-95.0001 430.1868,-98.5 440.1868,-102.0001 440.1868,-95.0001"/>
<text text-anchor="middle" x="488" y="-101.5" font-family="Helvetica,sans-Serif" font-size="10.00" fill="#000000"> m_symbolIndices</text>
</g>
<!-- Node5 -->
<g id="node5" class="node">
<title>Node5</title>
<g id="a_node5"><a xlink:href="../../d1/dba/class_template_variant.html" target="_top" xlink:title="Variant type which can hold one value of a fixed set of types.">
<polygon fill="#ffffff" stroke="#666666" points="108,-131 20,-131 20,-112 108,-112 108,-131"/>
<text text-anchor="middle" x="64" y="-119" font-family="Helvetica,sans-Serif" font-size="10.00" fill="#000000">TemplateVariant</text>
</a>
</g>
</g>
<!-- Node5&#45;&gt;Node4 -->
<g id="edge4" class="edge">
<title>Node5&#45;&gt;Node4</title>
<path fill="none" stroke="#9a32cd" stroke-dasharray="5,2" d="M118.2956,-117.1028C160.0148,-113.7242 218.335,-109.001 265.7702,-105.1595"/>
<polygon fill="#9a32cd" stroke="#9a32cd" points="117.7482,-113.6356 108.0634,-117.9315 118.3133,-120.6128 117.7482,-113.6356"/>
<text text-anchor="middle" x="197" y="-117.5" font-family="Helvetica,sans-Serif" font-size="10.00" fill="#000000"> m_item</text>
</g>
<!-- Node6 -->
<g id="node6" class="node">
<title>Node6</title>
<g id="a_node6"><a xlink:href="../../d7/dc1/class_cached_item.html" target="_top" xlink:title="Wrapper for data that needs to be cached.">
<polygon fill="#ffffff" stroke="#666666" points="128,-69.5 0,-69.5 0,-39.5 128,-39.5 128,-69.5"/>
<text text-anchor="start" x="8" y="-57.5" font-family="Helvetica,sans-Serif" font-size="10.00" fill="#000000">CachedItem&lt; T, TOwner,</text>
<text text-anchor="middle" x="64" y="-46.5" font-family="Helvetica,sans-Serif" font-size="10.00" fill="#000000"> creator &gt;</text>
</a>
</g>
</g>
<!-- Node6&#45;&gt;Node4 -->
<g id="edge5" class="edge">
<title>Node6&#45;&gt;Node4</title>
<path fill="none" stroke="#ffa500" stroke-dasharray="5,2" d="M138.326,-50.107C172.1056,-49.6417 212.3921,-51.2404 248,-58.5 267.7873,-62.5342 288.6769,-70.2837 306.2171,-77.8957"/>
<polygon fill="#ffa500" stroke="#ffa500" points="137.9915,-46.6129 128.064,-50.3136 138.1325,-53.6115 137.9915,-46.6129"/>
<text text-anchor="start" x="146.5" y="-94.5" font-family="Helvetica,sans-Serif" font-size="10.00" fill="#000000"> &lt; TemplateVariant,</text>
<text text-anchor="start" x="146.5" y="-83.5" font-family="Helvetica,sans-Serif" font-size="10.00" fill="#000000"> SearchIndexContext</text>
<text text-anchor="start" x="146.5" y="-72.5" font-family="Helvetica,sans-Serif" font-size="10.00" fill="#000000">::Private, &amp;Private::</text>
<text text-anchor="middle" x="197" y="-61.5" font-family="Helvetica,sans-Serif" font-size="10.00" fill="#000000">createSymbolIndices &gt;</text>
</g>
<!-- Node7 -->
<g id="node7" class="node">
<title>Node7</title>
<g id="a_node7"><a xlink:href="../../d5/dbf/class_property_map.html" target="_top" xlink:title=" ">
<polygon fill="#ffffff" stroke="#666666" points="416,-47.5 280,-47.5 280,-17.5 416,-17.5 416,-47.5"/>
<text text-anchor="start" x="288" y="-35.5" font-family="Helvetica,sans-Serif" font-size="10.00" fill="#000000">PropertyMap&lt; SearchIndex</text>
<text text-anchor="middle" x="348" y="-24.5" font-family="Helvetica,sans-Serif" font-size="10.00" fill="#000000">Context::Private &gt;</text>
</a>
</g>
</g>
<!-- Node7&#45;&gt;Node1 -->
<g id="edge6" class="edge">
<title>Node7&#45;&gt;Node1</title>
<path fill="none" stroke="#9a32cd" stroke-dasharray="5,2" d="M415.1688,-50.1619C456.1212,-60.9303 507.7311,-74.501 545.8341,-84.5201"/>
<polygon fill="#9a32cd" stroke="#9a32cd" points="415.8312,-46.7172 405.2699,-47.559 414.051,-53.4871 415.8312,-46.7172"/>
<text text-anchor="middle" x="488" y="-81.5" font-family="Helvetica,sans-Serif" font-size="10.00" fill="#000000"> s_inst</text>
</g>
<!-- Node8 -->
<g id="node8" class="node">
<title>Node8</title>
<g id="a_node8"><a xlink:href="../../d5/dbf/class_property_map.html" target="_top" xlink:title="Class representing a mapping of properties and the corresponding getter function.">
<polygon fill="#ffffff" stroke="#666666" points="112,-19 16,-19 16,0 112,0 112,-19"/>
<text text-anchor="middle" x="64" y="-7" font-family="Helvetica,sans-Serif" font-size="10.00" fill="#000000">PropertyMap&lt; T &gt;</text>
</a>
</g>
</g>
<!-- Node8&#45;&gt;Node7 -->
<g id="edge7" class="edge">
<title>Node8&#45;&gt;Node7</title>
<path fill="none" stroke="#ffa500" stroke-dasharray="5,2" d="M122.5901,-6.6784C158.8298,-5.7104 206.2453,-5.8464 248,-10.5 261.6035,-12.0161 276.0706,-14.6105 289.6511,-17.4974"/>
<polygon fill="#ffa500" stroke="#ffa500" points="122.0901,-3.1919 112.2011,-6.9941 122.3028,-10.1887 122.0901,-3.1919"/>
<text text-anchor="start" x="146" y="-24.5" font-family="Helvetica,sans-Serif" font-size="10.00" fill="#000000"> &lt; SearchIndexContext</text>
<text text-anchor="middle" x="197" y="-13.5" font-family="Helvetica,sans-Serif" font-size="10.00" fill="#000000">::Private &gt;</text>
</g>
</g>
</svg>
