<?xml version="1.0" encoding="UTF-8" standalone="no"?>
<!DOCTYPE svg PUBLIC "-//W3C//DTD SVG 1.1//EN"
 "http://www.w3.org/Graphics/SVG/1.1/DTD/svg11.dtd">
<!-- Generated by graphviz version 2.40.1 (20161225.0304)
 -->
<!-- Title: AccessStack::AccessElem Pages: 1 -->
<svg width="209pt" height="152pt"
 viewBox="0.00 0.00 209.00 152.00" xmlns="http://www.w3.org/2000/svg" xmlns:xlink="http://www.w3.org/1999/xlink">
<g id="graph0" class="graph" transform="scale(1 1) rotate(0) translate(4 148)">
<title>AccessStack::AccessElem</title>
<!-- Node1 -->
<g id="node1" class="node">
<title>Node1</title>
<g id="a_node1"><a xlink:title="Element in the stack.">
<polygon fill="#999999" stroke="#666666" points="166.5,-19 29.5,-19 29.5,0 166.5,0 166.5,-19"/>
<text text-anchor="middle" x="98" y="-7" font-family="Helvetica,sans-Serif" font-size="10.00" fill="#000000">AccessStack::AccessElem</text>
</a>
</g>
</g>
<!-- Node2 -->
<g id="node2" class="node">
<title>Node2</title>
<g id="a_node2"><a xlink:href="../../d5/dcc/class_definition.html" target="_top" xlink:title="The common base class of all entity definitions found in the sources.">
<polygon fill="#ffffff" stroke="#666666" points="58,-144 0,-144 0,-125 58,-125 58,-144"/>
<text text-anchor="middle" x="29" y="-132" font-family="Helvetica,sans-Serif" font-size="10.00" fill="#000000">Definition</text>
</a>
</g>
</g>
<!-- Node2&#45;&gt;Node1 -->
<g id="edge1" class="edge">
<title>Node2&#45;&gt;Node1</title>
<path fill="none" stroke="#9a32cd" stroke-dasharray="5,2" d="M28.1545,-114.398C28.3624,-100.157 30.3248,-80.9968 38,-66 48.2995,-45.8756 68.7408,-29.0702 82.8818,-19.1528"/>
<polygon fill="#9a32cd" stroke="#9a32cd" points="24.6573,-114.6377 28.2884,-124.5908 31.6567,-114.5457 24.6573,-114.6377"/>
<text text-anchor="middle" x="51.5" y="-80" font-family="Helvetica,sans-Serif" font-size="10.00" fill="#000000"> item</text>
<text text-anchor="middle" x="51.5" y="-69" font-family="Helvetica,sans-Serif" font-size="10.00" fill="#000000">scope</text>
</g>
<!-- Node3 -->
<g id="node3" class="node">
<title>Node3</title>
<g id="a_node3"><a xlink:href="../../de/db0/class_file_def.html" target="_top" xlink:title="A model of a file symbol.">
<polygon fill="#ffffff" stroke="#666666" points="122,-86.5 74,-86.5 74,-67.5 122,-67.5 122,-86.5"/>
<text text-anchor="middle" x="98" y="-74.5" font-family="Helvetica,sans-Serif" font-size="10.00" fill="#000000">FileDef</text>
</a>
</g>
</g>
<!-- Node2&#45;&gt;Node3 -->
<g id="edge4" class="edge">
<title>Node2&#45;&gt;Node3</title>
<path fill="none" stroke="#63b8ff" d="M48.5803,-118.1831C60.8157,-107.9869 76.152,-95.2067 86.468,-86.61"/>
<polygon fill="#63b8ff" stroke="#63b8ff" points="46.1465,-115.6552 40.7049,-124.7459 50.6278,-121.0328 46.1465,-115.6552"/>
</g>
<!-- Node3&#45;&gt;Node1 -->
<g id="edge2" class="edge">
<title>Node3&#45;&gt;Node1</title>
<path fill="none" stroke="#9a32cd" stroke-dasharray="5,2" d="M98,-56.9594C98,-44.4731 98,-28.9705 98,-19.1532"/>
<polygon fill="#9a32cd" stroke="#9a32cd" points="94.5001,-57.3289 98,-67.3289 101.5001,-57.3289 94.5001,-57.3289"/>
<text text-anchor="middle" x="120" y="-40" font-family="Helvetica,sans-Serif" font-size="10.00" fill="#000000"> fileScope</text>
</g>
<!-- Node4 -->
<g id="node4" class="node">
<title>Node4</title>
<g id="a_node4"><a xlink:href="../../d0/d46/class_definition_mutable.html" target="_top" xlink:title=" ">
<polygon fill="#ffffff" stroke="#666666" points="168,-144 76,-144 76,-125 168,-125 168,-144"/>
<text text-anchor="middle" x="122" y="-132" font-family="Helvetica,sans-Serif" font-size="10.00" fill="#000000">DefinitionMutable</text>
</a>
</g>
</g>
<!-- Node4&#45;&gt;Node3 -->
<g id="edge3" class="edge">
<title>Node4&#45;&gt;Node3</title>
<path fill="none" stroke="#63b8ff" d="M114.0622,-115.4823C110.0235,-105.8063 105.2888,-94.4628 102.0111,-86.61"/>
<polygon fill="#63b8ff" stroke="#63b8ff" points="110.8469,-116.8657 117.9287,-124.7459 117.3068,-114.1693 110.8469,-116.8657"/>
</g>
<!-- Node5 -->
<g id="node5" class="node">
<title>Node5</title>
<g id="a_node5"><a xlink:href="../../d9/d45/class_q_c_string.html" target="_top" xlink:title="This is an alternative implementation of QCString.">
<polygon fill="#ffffff" stroke="#666666" points="197.5,-86.5 140.5,-86.5 140.5,-67.5 197.5,-67.5 197.5,-86.5"/>
<text text-anchor="middle" x="169" y="-74.5" font-family="Helvetica,sans-Serif" font-size="10.00" fill="#000000">QCString</text>
</a>
</g>
</g>
<!-- Node5&#45;&gt;Node1 -->
<g id="edge5" class="edge">
<title>Node5&#45;&gt;Node1</title>
<path fill="none" stroke="#9a32cd" stroke-dasharray="5,2" d="M160.8862,-58.3277C157.1022,-51.0749 152.0798,-43.0703 146,-37 138.6599,-29.6713 128.97,-23.6318 120.2194,-19.0981"/>
<polygon fill="#9a32cd" stroke="#9a32cd" points="157.7969,-59.9809 165.2614,-67.4996 164.1148,-56.967 157.7969,-59.9809"/>
<text text-anchor="middle" x="177.5" y="-40" font-family="Helvetica,sans-Serif" font-size="10.00" fill="#000000"> expScope</text>
</g>
</g>
</svg>
