<?xml version="1.0" encoding="UTF-8" standalone="no"?>
<!DOCTYPE svg PUBLIC "-//W3C//DTD SVG 1.1//EN"
 "http://www.w3.org/Graphics/SVG/1.1/DTD/svg11.dtd">
<!-- Generated by graphviz version 2.40.1 (20161225.0304)
 -->
<!-- Title: fortrancodeYY_state Pages: 1 -->
<svg width="523pt" height="374pt"
 viewBox="0.00 0.00 523.00 374.00" xmlns="http://www.w3.org/2000/svg" xmlns:xlink="http://www.w3.org/1999/xlink">
<g id="graph0" class="graph" transform="scale(1 1) rotate(0) translate(4 370)">
<title>fortrancodeYY_state</title>
<!-- Node1 -->
<g id="node1" class="node">
<title>Node1</title>
<g id="a_node1"><a xlink:title=" ">
<polygon fill="#999999" stroke="#666666" points="515,-171 409,-171 409,-152 515,-152 515,-171"/>
<text text-anchor="middle" x="462" y="-159" font-family="Helvetica,sans-Serif" font-size="10.00" fill="#000000">fortrancodeYY_state</text>
</a>
</g>
</g>
<!-- Node2 -->
<g id="node2" class="node">
<title>Node2</title>
<g id="a_node2"><a xlink:href="../../d9/d45/class_q_c_string.html" target="_top" xlink:title="This is an alternative implementation of QCString.">
<polygon fill="#ffffff" stroke="#666666" points="83.5,-303 26.5,-303 26.5,-284 83.5,-284 83.5,-303"/>
<text text-anchor="middle" x="55" y="-291" font-family="Helvetica,sans-Serif" font-size="10.00" fill="#000000">QCString</text>
</a>
</g>
</g>
<!-- Node2&#45;&gt;Node1 -->
<g id="edge1" class="edge">
<title>Node2&#45;&gt;Node1</title>
<path fill="none" stroke="#9a32cd" stroke-dasharray="5,2" d="M93.6056,-286.3239C176.1237,-270.8274 364.3591,-234.5786 391,-221.5 416.7865,-208.8408 441.0393,-184.7782 453.4244,-171.2903"/>
<polygon fill="#9a32cd" stroke="#9a32cd" points="92.8032,-282.9132 83.6188,-288.1949 94.0923,-289.7935 92.8032,-282.9132"/>
<text text-anchor="middle" x="234.5" y="-326.5" font-family="Helvetica,sans-Serif" font-size="10.00" fill="#000000"> currentModule</text>
<text text-anchor="middle" x="234.5" y="-315.5" font-family="Helvetica,sans-Serif" font-size="10.00" fill="#000000">docBlock</text>
<text text-anchor="middle" x="234.5" y="-304.5" font-family="Helvetica,sans-Serif" font-size="10.00" fill="#000000">exampleFile</text>
<text text-anchor="middle" x="234.5" y="-293.5" font-family="Helvetica,sans-Serif" font-size="10.00" fill="#000000">exampleName</text>
<text text-anchor="middle" x="234.5" y="-282.5" font-family="Helvetica,sans-Serif" font-size="10.00" fill="#000000">fileName</text>
<text text-anchor="middle" x="234.5" y="-271.5" font-family="Helvetica,sans-Serif" font-size="10.00" fill="#000000">str</text>
</g>
<!-- Node5 -->
<g id="node5" class="node">
<title>Node5</title>
<g id="a_node5"><a xlink:href="../../de/dd6/class_use_entry.html" target="_top" xlink:title="data of an use&#45;statement">
<polygon fill="#ffffff" stroke="#666666" points="263.5,-366 205.5,-366 205.5,-347 263.5,-347 263.5,-366"/>
<text text-anchor="middle" x="234.5" y="-354" font-family="Helvetica,sans-Serif" font-size="10.00" fill="#000000">UseEntry</text>
</a>
</g>
</g>
<!-- Node2&#45;&gt;Node5 -->
<g id="edge5" class="edge">
<title>Node2&#45;&gt;Node5</title>
<path fill="none" stroke="#9a32cd" stroke-dasharray="5,2" d="M91.9175,-306.4571C126.2149,-318.4947 176.496,-336.142 207.2759,-346.945"/>
<polygon fill="#9a32cd" stroke="#9a32cd" points="92.857,-303.0776 82.2622,-303.0683 90.5388,-309.6826 92.857,-303.0776"/>
<text text-anchor="middle" x="145.5" y="-333.5" font-family="Helvetica,sans-Serif" font-size="10.00" fill="#000000"> module</text>
</g>
<!-- Node3 -->
<g id="node3" class="node">
<title>Node3</title>
<g id="a_node3"><a xlink:href="../../d2/d76/class_use_map.html" target="_top" xlink:title="module name &#45;&gt; list of ONLY/remote entries (module name = name of the module, which can be accessed v...">
<polygon fill="#ffffff" stroke="#666666" points="261,-226 208,-226 208,-207 261,-207 261,-226"/>
<text text-anchor="middle" x="234.5" y="-214" font-family="Helvetica,sans-Serif" font-size="10.00" fill="#000000">UseMap</text>
</a>
</g>
</g>
<!-- Node3&#45;&gt;Node1 -->
<g id="edge2" class="edge">
<title>Node3&#45;&gt;Node1</title>
<path fill="none" stroke="#9a32cd" stroke-dasharray="5,2" d="M271.3696,-211.8821C303.3606,-207.4078 350.7311,-199.6541 391,-188.5 407.7759,-183.8532 426.1284,-176.8199 439.9714,-171.0967"/>
<polygon fill="#9a32cd" stroke="#9a32cd" points="270.5792,-208.4573 261.1425,-213.274 271.5232,-215.3934 270.5792,-208.4573"/>
<text text-anchor="middle" x="348.5" y="-209.5" font-family="Helvetica,sans-Serif" font-size="10.00" fill="#000000"> useMembers</text>
</g>
<!-- Node4 -->
<g id="node4" class="node">
<title>Node4</title>
<g id="a_node4"><a xlink:title=" ">
<polygon fill="#ffffff" stroke="#666666" points="110,-231.5 0,-231.5 0,-201.5 110,-201.5 110,-231.5"/>
<text text-anchor="start" x="8" y="-219.5" font-family="Helvetica,sans-Serif" font-size="10.00" fill="#000000">std::map&lt; std::string,</text>
<text text-anchor="middle" x="55" y="-208.5" font-family="Helvetica,sans-Serif" font-size="10.00" fill="#000000"> UseEntry &gt;</text>
</a>
</g>
</g>
<!-- Node4&#45;&gt;Node3 -->
<g id="edge3" class="edge">
<title>Node4&#45;&gt;Node3</title>
<path fill="none" stroke="#63b8ff" d="M120.3716,-216.5C150.5225,-216.5 184.6451,-216.5 207.6619,-216.5"/>
<polygon fill="#63b8ff" stroke="#63b8ff" points="120.3206,-213.0001 110.3206,-216.5 120.3205,-220.0001 120.3206,-213.0001"/>
</g>
<!-- Node5&#45;&gt;Node1 -->
<g id="edge4" class="edge">
<title>Node5&#45;&gt;Node1</title>
<path fill="none" stroke="#9a32cd" stroke-dasharray="5,2" d="M273.4069,-343.7443C307.5797,-331.0033 357.0102,-308.666 391,-276.5 424.9143,-244.4055 449.0052,-192.7176 458.0518,-171.2915"/>
<polygon fill="#9a32cd" stroke="#9a32cd" points="271.9732,-340.541 263.7626,-347.2371 274.3569,-347.1227 271.9732,-340.541"/>
<text text-anchor="middle" x="348.5" y="-332.5" font-family="Helvetica,sans-Serif" font-size="10.00" fill="#000000"> useEntry</text>
</g>
<!-- Node6 -->
<g id="node6" class="node">
<title>Node6</title>
<g id="a_node6"><a xlink:href="../../d5/d9c/class_code_output_interface.html" target="_top" xlink:title="Output interface for code parser.">
<polygon fill="#ffffff" stroke="#666666" points="288,-189 181,-189 181,-170 288,-170 288,-189"/>
<text text-anchor="middle" x="234.5" y="-177" font-family="Helvetica,sans-Serif" font-size="10.00" fill="#000000">CodeOutputInterface</text>
</a>
</g>
</g>
<!-- Node6&#45;&gt;Node1 -->
<g id="edge6" class="edge">
<title>Node6&#45;&gt;Node1</title>
<path fill="none" stroke="#9a32cd" stroke-dasharray="5,2" d="M298.1962,-174.4603C333.0292,-171.7043 375.6843,-168.3294 408.7337,-165.7145"/>
<polygon fill="#9a32cd" stroke="#9a32cd" points="297.819,-170.9791 288.1262,-175.257 298.3712,-177.9573 297.819,-170.9791"/>
<text text-anchor="middle" x="348.5" y="-176.5" font-family="Helvetica,sans-Serif" font-size="10.00" fill="#000000"> code</text>
</g>
<!-- Node7 -->
<g id="node7" class="node">
<title>Node7</title>
<g id="a_node7"><a xlink:href="../../d5/dcc/class_definition.html" target="_top" xlink:title="The common base class of all entity definitions found in the sources.">
<polygon fill="#ffffff" stroke="#666666" points="84,-102 26,-102 26,-83 84,-83 84,-102"/>
<text text-anchor="middle" x="55" y="-90" font-family="Helvetica,sans-Serif" font-size="10.00" fill="#000000">Definition</text>
</a>
</g>
</g>
<!-- Node7&#45;&gt;Node1 -->
<g id="edge7" class="edge">
<title>Node7&#45;&gt;Node1</title>
<path fill="none" stroke="#9a32cd" stroke-dasharray="5,2" d="M94.6467,-90.8076C141.325,-89.5939 220.9858,-89.9657 288,-102.5 344.5939,-113.0853 407.8831,-138.0746 440.2913,-151.8938"/>
<polygon fill="#9a32cd" stroke="#9a32cd" points="94.2516,-87.3178 84.3607,-91.1151 94.4609,-94.3147 94.2516,-87.3178"/>
<text text-anchor="middle" x="234.5" y="-116.5" font-family="Helvetica,sans-Serif" font-size="10.00" fill="#000000"> currentDefinition</text>
<text text-anchor="middle" x="234.5" y="-105.5" font-family="Helvetica,sans-Serif" font-size="10.00" fill="#000000">searchCtx</text>
</g>
<!-- Node8 -->
<g id="node8" class="node">
<title>Node8</title>
<g id="a_node8"><a xlink:href="../../de/db0/class_file_def.html" target="_top" xlink:title="A model of a file symbol.">
<polygon fill="#ffffff" stroke="#666666" points="258.5,-56 210.5,-56 210.5,-37 258.5,-37 258.5,-56"/>
<text text-anchor="middle" x="234.5" y="-44" font-family="Helvetica,sans-Serif" font-size="10.00" fill="#000000">FileDef</text>
</a>
</g>
</g>
<!-- Node7&#45;&gt;Node8 -->
<g id="edge10" class="edge">
<title>Node7&#45;&gt;Node8</title>
<path fill="none" stroke="#63b8ff" d="M94.2443,-82.443C129.6873,-73.3601 180.7108,-60.2844 210.4505,-52.6631"/>
<polygon fill="#63b8ff" stroke="#63b8ff" points="93.0574,-79.134 84.2393,-85.0069 94.7951,-85.9148 93.0574,-79.134"/>
</g>
<!-- Node10 -->
<g id="node10" class="node">
<title>Node10</title>
<g id="a_node10"><a xlink:href="../../da/d09/class_member_def.html" target="_top" xlink:title="A model of a class/file/namespace member symbol.">
<polygon fill="#ffffff" stroke="#666666" points="268.5,-152 200.5,-152 200.5,-133 268.5,-133 268.5,-152"/>
<text text-anchor="middle" x="234.5" y="-140" font-family="Helvetica,sans-Serif" font-size="10.00" fill="#000000">MemberDef</text>
</a>
</g>
</g>
<!-- Node7&#45;&gt;Node10 -->
<g id="edge12" class="edge">
<title>Node7&#45;&gt;Node10</title>
<path fill="none" stroke="#63b8ff" d="M94.0614,-103.3806C125.7771,-112.2151 170.0575,-124.5494 200.3678,-132.9924"/>
<polygon fill="#63b8ff" stroke="#63b8ff" points="94.8117,-99.9564 84.2393,-100.6446 92.9333,-106.6997 94.8117,-99.9564"/>
</g>
<!-- Node8&#45;&gt;Node1 -->
<g id="edge8" class="edge">
<title>Node8&#45;&gt;Node1</title>
<path fill="none" stroke="#9a32cd" stroke-dasharray="5,2" d="M268.7865,-43.7877C302.2276,-42.7459 353.4068,-45.5419 391,-67.5 425.613,-87.7174 448.8438,-132.078 457.8318,-151.7614"/>
<polygon fill="#9a32cd" stroke="#9a32cd" points="268.4265,-40.3001 258.592,-44.2414 268.7378,-47.2932 268.4265,-40.3001"/>
<text text-anchor="middle" x="348.5" y="-70.5" font-family="Helvetica,sans-Serif" font-size="10.00" fill="#000000"> sourceFileDef</text>
</g>
<!-- Node9 -->
<g id="node9" class="node">
<title>Node9</title>
<g id="a_node9"><a xlink:href="../../d0/d46/class_definition_mutable.html" target="_top" xlink:title=" ">
<polygon fill="#ffffff" stroke="#666666" points="101,-52 9,-52 9,-33 101,-33 101,-52"/>
<text text-anchor="middle" x="55" y="-40" font-family="Helvetica,sans-Serif" font-size="10.00" fill="#000000">DefinitionMutable</text>
</a>
</g>
</g>
<!-- Node9&#45;&gt;Node8 -->
<g id="edge9" class="edge">
<title>Node9&#45;&gt;Node8</title>
<path fill="none" stroke="#63b8ff" d="M111.3226,-43.7551C144.6809,-44.4985 185.2273,-45.402 210.4548,-45.9642"/>
<polygon fill="#63b8ff" stroke="#63b8ff" points="111.3012,-40.2539 101.2257,-43.5301 111.1452,-47.2521 111.3012,-40.2539"/>
</g>
<!-- Node10&#45;&gt;Node1 -->
<g id="edge11" class="edge">
<title>Node10&#45;&gt;Node1</title>
<path fill="none" stroke="#9a32cd" stroke-dasharray="5,2" d="M278.9241,-144.0783C310.2925,-145.4312 353.2853,-147.766 391,-151.5 396.8221,-152.0764 402.8996,-152.7783 408.9424,-153.54"/>
<polygon fill="#9a32cd" stroke="#9a32cd" points="278.8926,-140.5741 268.7561,-143.6565 278.6025,-147.5681 278.8926,-140.5741"/>
<text text-anchor="middle" x="348.5" y="-154.5" font-family="Helvetica,sans-Serif" font-size="10.00" fill="#000000"> currentMemberDef</text>
</g>
<!-- Node11 -->
<g id="node11" class="node">
<title>Node11</title>
<g id="a_node11"><a xlink:href="../../d5/dae/class_tooltip_manager.html" target="_top" xlink:title="Class that manages the tooltips for a source file.">
<polygon fill="#ffffff" stroke="#666666" points="276,-19 193,-19 193,0 276,0 276,-19"/>
<text text-anchor="middle" x="234.5" y="-7" font-family="Helvetica,sans-Serif" font-size="10.00" fill="#000000">TooltipManager</text>
</a>
</g>
</g>
<!-- Node11&#45;&gt;Node1 -->
<g id="edge13" class="edge">
<title>Node11&#45;&gt;Node1</title>
<path fill="none" stroke="#9a32cd" stroke-dasharray="5,2" d="M286.3205,-5.0547C319.0205,-4.8365 360.6587,-9.5745 391,-30.5 434.8682,-60.7545 454.1101,-127.1436 459.953,-151.9226"/>
<polygon fill="#9a32cd" stroke="#9a32cd" points="285.9622,-1.5617 276.0433,-5.2854 286.1194,-8.56 285.9622,-1.5617"/>
<text text-anchor="middle" x="348.5" y="-33.5" font-family="Helvetica,sans-Serif" font-size="10.00" fill="#000000"> tooltipManager</text>
</g>
</g>
</svg>
