<?xml version="1.0" encoding="UTF-8" standalone="no"?>
<!DOCTYPE svg PUBLIC "-//W3C//DTD SVG 1.1//EN"
 "http://www.w3.org/Graphics/SVG/1.1/DTD/svg11.dtd">
<!-- Generated by graphviz version 2.40.1 (20161225.0304)
 -->
<!-- Title: src/docnode.h Pages: 1 -->
<svg width="925pt" height="247pt"
 viewBox="0.00 0.00 925.35 247.00" xmlns="http://www.w3.org/2000/svg" xmlns:xlink="http://www.w3.org/1999/xlink">
<g id="graph0" class="graph" transform="scale(1 1) rotate(0) translate(4 243)">
<title>src/docnode.h</title>
<!-- Node1 -->
<g id="node1" class="node">
<title>Node1</title>
<g id="a_node1"><a xlink:title=" ">
<polygon fill="#999999" stroke="#666666" points="309.8532,-239 231.8532,-239 231.8532,-220 309.8532,-220 309.8532,-239"/>
<text text-anchor="middle" x="270.8532" y="-227" font-family="Helvetica,sans-Serif" font-size="10.00" fill="#000000">src/docnode.h</text>
</a>
</g>
</g>
<!-- Node2 -->
<g id="node2" class="node">
<title>Node2</title>
<g id="a_node2"><a xlink:title=" ">
<polygon fill="#e0e0e0" stroke="#999999" points="62.8532,-129 16.8532,-129 16.8532,-110 62.8532,-110 62.8532,-129"/>
<text text-anchor="middle" x="39.8532" y="-117" font-family="Helvetica,sans-Serif" font-size="10.00" fill="#000000">stdio.h</text>
</a>
</g>
</g>
<!-- Node1&#45;&gt;Node2 -->
<g id="edge1" class="edge">
<title>Node1&#45;&gt;Node2</title>
<path fill="none" stroke="#63b8ff" d="M231.6222,-226.9817C174.1356,-222.4247 71.1829,-210.6855 46.8532,-184 36.0749,-172.178 35.1017,-153.6199 36.3714,-139.4392"/>
<polygon fill="#63b8ff" stroke="#63b8ff" points="39.8819,-139.5906 37.7261,-129.2174 32.9425,-138.6709 39.8819,-139.5906"/>
</g>
<!-- Node3 -->
<g id="node3" class="node">
<title>Node3</title>
<g id="a_node3"><a xlink:title=" ">
<polygon fill="#e0e0e0" stroke="#999999" points="244.8532,-74 200.8532,-74 200.8532,-55 244.8532,-55 244.8532,-74"/>
<text text-anchor="middle" x="222.8532" y="-62" font-family="Helvetica,sans-Serif" font-size="10.00" fill="#000000">vector</text>
</a>
</g>
</g>
<!-- Node1&#45;&gt;Node3 -->
<g id="edge2" class="edge">
<title>Node1&#45;&gt;Node3</title>
<path fill="none" stroke="#63b8ff" d="M280.0762,-219.6536C290.5969,-207.1798 305.5326,-184.9062 298.8532,-165 287.4671,-131.0661 259.5881,-99.4537 240.951,-81.0581"/>
<polygon fill="#63b8ff" stroke="#63b8ff" points="243.2453,-78.4091 233.6045,-74.0153 238.4011,-83.4622 243.2453,-78.4091"/>
</g>
<!-- Node4 -->
<g id="node4" class="node">
<title>Node4</title>
<g id="a_node4"><a xlink:title=" ">
<polygon fill="#e0e0e0" stroke="#999999" points="116.8532,-74 64.8532,-74 64.8532,-55 116.8532,-55 116.8532,-74"/>
<text text-anchor="middle" x="90.8532" y="-62" font-family="Helvetica,sans-Serif" font-size="10.00" fill="#000000">memory</text>
</a>
</g>
</g>
<!-- Node1&#45;&gt;Node4 -->
<g id="edge3" class="edge">
<title>Node1&#45;&gt;Node4</title>
<path fill="none" stroke="#63b8ff" d="M231.4207,-226.2402C172.2401,-220.6458 64.1515,-207.4875 33.8532,-184 6.3022,-162.6423 -9.9099,-139.9947 7.8532,-110 18.1683,-92.582 37.7752,-81.3914 55.3429,-74.4681"/>
<polygon fill="#63b8ff" stroke="#63b8ff" points="56.6023,-77.7346 64.821,-71.0484 54.2266,-71.1501 56.6023,-77.7346"/>
</g>
<!-- Node5 -->
<g id="node5" class="node">
<title>Node5</title>
<g id="a_node5"><a xlink:title=" ">
<polygon fill="#e0e0e0" stroke="#999999" points="187.8532,-184 141.8532,-184 141.8532,-165 187.8532,-165 187.8532,-184"/>
<text text-anchor="middle" x="164.8532" y="-172" font-family="Helvetica,sans-Serif" font-size="10.00" fill="#000000">variant</text>
</a>
</g>
</g>
<!-- Node1&#45;&gt;Node5 -->
<g id="edge4" class="edge">
<title>Node1&#45;&gt;Node5</title>
<path fill="none" stroke="#63b8ff" d="M252.3894,-219.9197C235.8473,-211.3365 211.3548,-198.6281 192.4808,-188.8351"/>
<polygon fill="#63b8ff" stroke="#63b8ff" points="193.9494,-185.654 183.4611,-184.155 190.7254,-191.8674 193.9494,-185.654"/>
</g>
<!-- Node6 -->
<g id="node6" class="node">
<title>Node6</title>
<g id="a_node6"><a xlink:href="../../d7/d5c/qcstring_8h.html" target="_top" xlink:title=" ">
<polygon fill="#ffffff" stroke="#666666" points="486.3532,-129 427.3532,-129 427.3532,-110 486.3532,-110 486.3532,-129"/>
<text text-anchor="middle" x="456.8532" y="-117" font-family="Helvetica,sans-Serif" font-size="10.00" fill="#000000">qcstring.h</text>
</a>
</g>
</g>
<!-- Node1&#45;&gt;Node6 -->
<g id="edge5" class="edge">
<title>Node1&#45;&gt;Node6</title>
<path fill="none" stroke="#63b8ff" d="M309.9014,-223.9703C354.8144,-216.8147 424.7093,-202.9769 442.8532,-184 454.1002,-172.2366 457.1768,-153.6722 457.6869,-139.4741"/>
<polygon fill="#63b8ff" stroke="#63b8ff" points="461.1862,-139.2253 457.6529,-129.237 454.1862,-139.2486 461.1862,-139.2253"/>
</g>
<!-- Node16 -->
<g id="node16" class="node">
<title>Node16</title>
<g id="a_node16"><a xlink:href="../../d2/d3c/docvisitor_8h.html" target="_top" xlink:title=" ">
<polygon fill="#ffffff" stroke="#666666" points="273.3532,-184 206.3532,-184 206.3532,-165 273.3532,-165 273.3532,-184"/>
<text text-anchor="middle" x="239.8532" y="-172" font-family="Helvetica,sans-Serif" font-size="10.00" fill="#000000">docvisitor.h</text>
</a>
</g>
</g>
<!-- Node1&#45;&gt;Node16 -->
<g id="edge17" class="edge">
<title>Node1&#45;&gt;Node16</title>
<path fill="none" stroke="#63b8ff" d="M265.4535,-219.9197C261.3259,-212.5967 255.5059,-202.2709 250.4579,-193.3147"/>
<polygon fill="#63b8ff" stroke="#63b8ff" points="253.3591,-191.3338 245.3999,-184.3408 247.261,-194.7709 253.3591,-191.3338"/>
</g>
<!-- Node17 -->
<g id="node17" class="node">
<title>Node17</title>
<g id="a_node17"><a xlink:href="../../de/d9c/docparser_8h.html" target="_top" xlink:title=" ">
<polygon fill="#ffffff" stroke="#666666" points="123.8532,-184 55.8532,-184 55.8532,-165 123.8532,-165 123.8532,-184"/>
<text text-anchor="middle" x="89.8532" y="-172" font-family="Helvetica,sans-Serif" font-size="10.00" fill="#000000">docparser.h</text>
</a>
</g>
</g>
<!-- Node1&#45;&gt;Node17 -->
<g id="edge20" class="edge">
<title>Node1&#45;&gt;Node17</title>
<path fill="none" stroke="#63b8ff" d="M239.3254,-219.9197C209.3104,-210.7991 163.9666,-197.0206 131.0937,-187.0316"/>
<polygon fill="#63b8ff" stroke="#63b8ff" points="131.9085,-183.6213 121.3229,-184.0626 129.8733,-190.3189 131.9085,-183.6213"/>
</g>
<!-- Node18 -->
<g id="node18" class="node">
<title>Node18</title>
<g id="a_node18"><a xlink:href="../../d7/d50/growvector_8h.html" target="_top" xlink:title=" ">
<polygon fill="#ffffff" stroke="#666666" points="230.3532,-129 157.3532,-129 157.3532,-110 230.3532,-110 230.3532,-129"/>
<text text-anchor="middle" x="193.8532" y="-117" font-family="Helvetica,sans-Serif" font-size="10.00" fill="#000000">growvector.h</text>
</a>
</g>
</g>
<!-- Node1&#45;&gt;Node18 -->
<g id="edge35" class="edge">
<title>Node1&#45;&gt;Node18</title>
<path fill="none" stroke="#63b8ff" d="M276.7017,-219.5499C283.7205,-206.1736 293.3159,-182.0996 282.8532,-165 273.3135,-149.4089 256.5578,-138.945 240.1388,-132.0286"/>
<polygon fill="#63b8ff" stroke="#63b8ff" points="241.1577,-128.6707 230.5676,-128.3543 238.6489,-135.2057 241.1577,-128.6707"/>
</g>
<!-- Node20 -->
<g id="node20" class="node">
<title>Node20</title>
<g id="a_node20"><a xlink:href="../../d0/d73/htmlattrib_8h.html" target="_top" xlink:title=" ">
<polygon fill="#ffffff" stroke="#666666" points="433.3532,-184 368.3532,-184 368.3532,-165 433.3532,-165 433.3532,-184"/>
<text text-anchor="middle" x="400.8532" y="-172" font-family="Helvetica,sans-Serif" font-size="10.00" fill="#000000">htmlattrib.h</text>
</a>
</g>
</g>
<!-- Node1&#45;&gt;Node20 -->
<g id="edge28" class="edge">
<title>Node1&#45;&gt;Node20</title>
<path fill="none" stroke="#63b8ff" d="M293.4975,-219.9197C314.2483,-211.1406 345.1998,-198.0457 368.5448,-188.1689"/>
<polygon fill="#63b8ff" stroke="#63b8ff" points="370.1864,-191.2749 378.0323,-184.155 367.4588,-184.8281 370.1864,-191.2749"/>
</g>
<!-- Node21 -->
<g id="node21" class="node">
<title>Node21</title>
<g id="a_node21"><a xlink:href="../../db/dc6/htmlentity_8h.html" target="_top" xlink:title=" ">
<polygon fill="#ffffff" stroke="#666666" points="698.8532,-184 630.8532,-184 630.8532,-165 698.8532,-165 698.8532,-184"/>
<text text-anchor="middle" x="664.8532" y="-172" font-family="Helvetica,sans-Serif" font-size="10.00" fill="#000000">htmlentity.h</text>
</a>
</g>
</g>
<!-- Node1&#45;&gt;Node21 -->
<g id="edge31" class="edge">
<title>Node1&#45;&gt;Node21</title>
<path fill="none" stroke="#63b8ff" d="M310.0719,-224.0253C383.932,-213.7149 543.1875,-191.4838 620.6884,-180.6651"/>
<polygon fill="#63b8ff" stroke="#63b8ff" points="621.1977,-184.1281 630.6178,-179.2791 620.2299,-177.1953 621.1977,-184.1281"/>
</g>
<!-- Node7 -->
<g id="node7" class="node">
<title>Node7</title>
<g id="a_node7"><a xlink:title=" ">
<polygon fill="#e0e0e0" stroke="#999999" points="788.3532,-19 747.3532,-19 747.3532,0 788.3532,0 788.3532,-19"/>
<text text-anchor="middle" x="767.8532" y="-7" font-family="Helvetica,sans-Serif" font-size="10.00" fill="#000000">string</text>
</a>
</g>
</g>
<!-- Node6&#45;&gt;Node7 -->
<g id="edge6" class="edge">
<title>Node6&#45;&gt;Node7</title>
<path fill="none" stroke="#63b8ff" d="M486.6203,-118.7908C552.9638,-116.6062 710.1659,-107.8939 748.8532,-74 761.5878,-62.8433 765.9915,-43.6262 767.4165,-29.0624"/>
<polygon fill="#63b8ff" stroke="#63b8ff" points="770.9124,-29.2337 768.0142,-19.043 763.9248,-28.8168 770.9124,-29.2337"/>
</g>
<!-- Node8 -->
<g id="node8" class="node">
<title>Node8</title>
<g id="a_node8"><a xlink:title=" ">
<polygon fill="#e0e0e0" stroke="#999999" points="611.8532,-74 555.8532,-74 555.8532,-55 611.8532,-55 611.8532,-74"/>
<text text-anchor="middle" x="583.8532" y="-62" font-family="Helvetica,sans-Serif" font-size="10.00" fill="#000000">algorithm</text>
</a>
</g>
</g>
<!-- Node6&#45;&gt;Node8 -->
<g id="edge7" class="edge">
<title>Node6&#45;&gt;Node8</title>
<path fill="none" stroke="#63b8ff" d="M478.975,-109.9197C499.2468,-101.1406 529.4841,-88.0457 552.2904,-78.1689"/>
<polygon fill="#63b8ff" stroke="#63b8ff" points="553.7734,-81.3409 561.5589,-74.155 550.9915,-74.9174 553.7734,-81.3409"/>
</g>
<!-- Node9 -->
<g id="node9" class="node">
<title>Node9</title>
<g id="a_node9"><a xlink:title=" ">
<polygon fill="#e0e0e0" stroke="#999999" points="675.8532,-74 629.8532,-74 629.8532,-55 675.8532,-55 675.8532,-74"/>
<text text-anchor="middle" x="652.8532" y="-62" font-family="Helvetica,sans-Serif" font-size="10.00" fill="#000000">cctype</text>
</a>
</g>
</g>
<!-- Node6&#45;&gt;Node9 -->
<g id="edge8" class="edge">
<title>Node6&#45;&gt;Node9</title>
<path fill="none" stroke="#63b8ff" d="M486.5253,-111.44C517.4827,-102.9931 567.671,-89.1936 620.0033,-74.2096"/>
<polygon fill="#63b8ff" stroke="#63b8ff" points="621.1493,-77.522 629.7957,-71.399 619.2181,-70.7937 621.1493,-77.522"/>
</g>
<!-- Node10 -->
<g id="node10" class="node">
<title>Node10</title>
<g id="a_node10"><a xlink:title=" ">
<polygon fill="#e0e0e0" stroke="#999999" points="739.8532,-74 693.8532,-74 693.8532,-55 739.8532,-55 739.8532,-74"/>
<text text-anchor="middle" x="716.8532" y="-62" font-family="Helvetica,sans-Serif" font-size="10.00" fill="#000000">cstring</text>
</a>
</g>
</g>
<!-- Node6&#45;&gt;Node10 -->
<g id="edge9" class="edge">
<title>Node6&#45;&gt;Node10</title>
<path fill="none" stroke="#63b8ff" d="M486.5593,-114.4688C528.4674,-107.1771 607.5007,-92.7165 684.0456,-74.0246"/>
<polygon fill="#63b8ff" stroke="#63b8ff" points="684.9811,-77.3988 693.8503,-71.6032 683.3028,-70.6029 684.9811,-77.3988"/>
</g>
<!-- Node11 -->
<g id="node11" class="node">
<title>Node11</title>
<g id="a_node11"><a xlink:title=" ">
<polygon fill="#e0e0e0" stroke="#999999" points="344.3532,-74 301.3532,-74 301.3532,-55 344.3532,-55 344.3532,-74"/>
<text text-anchor="middle" x="322.8532" y="-62" font-family="Helvetica,sans-Serif" font-size="10.00" fill="#000000">cstdio</text>
</a>
</g>
</g>
<!-- Node6&#45;&gt;Node11 -->
<g id="edge10" class="edge">
<title>Node6&#45;&gt;Node11</title>
<path fill="none" stroke="#63b8ff" d="M433.5122,-109.9197C411.5003,-100.885 378.3526,-87.2796 354.0744,-77.3147"/>
<polygon fill="#63b8ff" stroke="#63b8ff" points="355.1769,-73.9839 344.5969,-73.4246 352.5189,-80.4596 355.1769,-73.9839"/>
</g>
<!-- Node12 -->
<g id="node12" class="node">
<title>Node12</title>
<g id="a_node12"><a xlink:title=" ">
<polygon fill="#e0e0e0" stroke="#999999" points="407.3532,-74 362.3532,-74 362.3532,-55 407.3532,-55 407.3532,-74"/>
<text text-anchor="middle" x="384.8532" y="-62" font-family="Helvetica,sans-Serif" font-size="10.00" fill="#000000">cstdlib</text>
</a>
</g>
</g>
<!-- Node6&#45;&gt;Node12 -->
<g id="edge11" class="edge">
<title>Node6&#45;&gt;Node12</title>
<path fill="none" stroke="#63b8ff" d="M444.3118,-109.9197C433.7055,-101.8177 418.2873,-90.0399 405.8094,-80.5082"/>
<polygon fill="#63b8ff" stroke="#63b8ff" points="407.8072,-77.6299 397.7358,-74.3408 403.5579,-83.1926 407.8072,-77.6299"/>
</g>
<!-- Node13 -->
<g id="node13" class="node">
<title>Node13</title>
<g id="a_node13"><a xlink:title=" ">
<polygon fill="#e0e0e0" stroke="#999999" points="417.8532,-19 371.8532,-19 371.8532,0 417.8532,0 417.8532,-19"/>
<text text-anchor="middle" x="394.8532" y="-7" font-family="Helvetica,sans-Serif" font-size="10.00" fill="#000000">cstdint</text>
</a>
</g>
</g>
<!-- Node6&#45;&gt;Node13 -->
<g id="edge12" class="edge">
<title>Node6&#45;&gt;Node13</title>
<path fill="none" stroke="#63b8ff" d="M427.1846,-113.2947C382.2033,-103.5914 301.0798,-84.8196 292.8532,-74 271.1195,-45.4155 324.203,-26.1954 361.6677,-16.6128"/>
<polygon fill="#63b8ff" stroke="#63b8ff" points="362.8535,-19.9266 371.7453,-14.1658 361.2018,-13.1243 362.8535,-19.9266"/>
</g>
<!-- Node14 -->
<g id="node14" class="node">
<title>Node14</title>
<g id="a_node14"><a xlink:title=" ">
<polygon fill="#e0e0e0" stroke="#999999" points="477.8532,-74 425.8532,-74 425.8532,-55 477.8532,-55 477.8532,-74"/>
<text text-anchor="middle" x="451.8532" y="-62" font-family="Helvetica,sans-Serif" font-size="10.00" fill="#000000">ostream</text>
</a>
</g>
</g>
<!-- Node6&#45;&gt;Node14 -->
<g id="edge13" class="edge">
<title>Node6&#45;&gt;Node14</title>
<path fill="none" stroke="#63b8ff" d="M455.9823,-109.9197C455.3449,-102.9083 454.4573,-93.1442 453.6683,-84.4652"/>
<polygon fill="#63b8ff" stroke="#63b8ff" points="457.1389,-83.9829 452.7479,-74.3408 450.1677,-84.6167 457.1389,-83.9829"/>
</g>
<!-- Node15 -->
<g id="node15" class="node">
<title>Node15</title>
<g id="a_node15"><a xlink:href="../../db/d7c/utf8_8h.html" target="_top" xlink:title="Various UTF8 related helper functions.">
<polygon fill="#ffffff" stroke="#666666" points="537.3532,-74 496.3532,-74 496.3532,-55 537.3532,-55 537.3532,-74"/>
<text text-anchor="middle" x="516.8532" y="-62" font-family="Helvetica,sans-Serif" font-size="10.00" fill="#000000">utf8.h</text>
</a>
</g>
</g>
<!-- Node6&#45;&gt;Node15 -->
<g id="edge14" class="edge">
<title>Node6&#45;&gt;Node15</title>
<path fill="none" stroke="#63b8ff" d="M467.3044,-109.9197C475.8881,-102.0514 488.2536,-90.7164 498.484,-81.3385"/>
<polygon fill="#63b8ff" stroke="#63b8ff" points="501.1113,-83.6782 506.1178,-74.3408 496.3812,-78.5181 501.1113,-83.6782"/>
</g>
<!-- Node15&#45;&gt;Node7 -->
<g id="edge16" class="edge">
<title>Node15&#45;&gt;Node7</title>
<path fill="none" stroke="#63b8ff" d="M537.4284,-57.6756C540.5701,-56.7234 543.7869,-55.7989 546.8532,-55 614.1241,-37.4742 694.3281,-22.382 737.2085,-14.7712"/>
<polygon fill="#63b8ff" stroke="#63b8ff" points="738.0331,-18.18 747.2756,-13.0006 736.8204,-11.2859 738.0331,-18.18"/>
</g>
<!-- Node15&#45;&gt;Node13 -->
<g id="edge15" class="edge">
<title>Node15&#45;&gt;Node13</title>
<path fill="none" stroke="#63b8ff" d="M496.1576,-55.17C476.7337,-46.4133 447.441,-33.2076 425.3429,-23.2453"/>
<polygon fill="#63b8ff" stroke="#63b8ff" points="426.6154,-19.9798 416.0605,-19.0606 423.7384,-26.3613 426.6154,-19.9798"/>
</g>
<!-- Node16&#45;&gt;Node4 -->
<g id="edge18" class="edge">
<title>Node16&#45;&gt;Node4</title>
<path fill="none" stroke="#63b8ff" d="M214.4581,-164.8444C195.3499,-156.8836 169.086,-144.4139 148.8532,-129 131.3617,-115.6745 114.9547,-96.5665 104.0855,-82.6075"/>
<polygon fill="#63b8ff" stroke="#63b8ff" points="106.6143,-80.1493 97.7868,-74.2905 101.034,-84.3755 106.6143,-80.1493"/>
</g>
<!-- Node16&#45;&gt;Node6 -->
<g id="edge19" class="edge">
<title>Node16&#45;&gt;Node6</title>
<path fill="none" stroke="#63b8ff" d="M273.7595,-165.9063C312.5503,-156.0745 375.9962,-139.9937 417.0856,-129.5793"/>
<polygon fill="#63b8ff" stroke="#63b8ff" points="418.1883,-132.9106 427.0218,-127.061 416.4684,-126.1252 418.1883,-132.9106"/>
</g>
<!-- Node17&#45;&gt;Node2 -->
<g id="edge21" class="edge">
<title>Node17&#45;&gt;Node2</title>
<path fill="none" stroke="#63b8ff" d="M81.1439,-164.9197C74.1325,-157.2072 64.0932,-146.1639 55.6695,-136.8978"/>
<polygon fill="#63b8ff" stroke="#63b8ff" points="58.116,-134.3859 48.7994,-129.3408 52.9364,-139.0946 58.116,-134.3859"/>
</g>
<!-- Node17&#45;&gt;Node4 -->
<g id="edge22" class="edge">
<title>Node17&#45;&gt;Node4</title>
<path fill="none" stroke="#63b8ff" d="M89.942,-164.7382C90.1055,-146.7541 90.4572,-108.0652 90.6727,-84.3599"/>
<polygon fill="#63b8ff" stroke="#63b8ff" points="94.175,-84.1143 90.7661,-74.0828 87.1753,-84.0506 94.175,-84.1143"/>
</g>
<!-- Node17&#45;&gt;Node6 -->
<g id="edge23" class="edge">
<title>Node17&#45;&gt;Node6</title>
<path fill="none" stroke="#63b8ff" d="M124.0723,-166.6879C127.0364,-166.0877 129.9942,-165.5158 132.8532,-165 234.8395,-146.6019 356.0216,-131.3177 417.239,-124.0536"/>
<polygon fill="#63b8ff" stroke="#63b8ff" points="417.7244,-127.5207 427.2461,-122.8744 416.9052,-120.5688 417.7244,-127.5207"/>
</g>
<!-- Node17&#45;&gt;Node18 -->
<g id="edge24" class="edge">
<title>Node17&#45;&gt;Node18</title>
<path fill="none" stroke="#63b8ff" d="M107.9687,-164.9197C124.1987,-156.3365 148.2291,-143.6281 166.747,-133.8351"/>
<polygon fill="#63b8ff" stroke="#63b8ff" points="168.3928,-136.924 175.5965,-129.155 165.1203,-130.7361 168.3928,-136.924"/>
</g>
<!-- Node18&#45;&gt;Node3 -->
<g id="edge25" class="edge">
<title>Node18&#45;&gt;Node3</title>
<path fill="none" stroke="#63b8ff" d="M198.9047,-109.9197C202.7659,-102.5967 208.2104,-92.2709 212.9327,-83.3147"/>
<polygon fill="#63b8ff" stroke="#63b8ff" points="216.0963,-84.819 217.6644,-74.3408 209.9043,-81.5541 216.0963,-84.819"/>
</g>
<!-- Node18&#45;&gt;Node4 -->
<g id="edge26" class="edge">
<title>Node18&#45;&gt;Node4</title>
<path fill="none" stroke="#63b8ff" d="M175.912,-109.9197C159.9114,-101.3757 136.2559,-88.7441 117.9505,-78.9694"/>
<polygon fill="#63b8ff" stroke="#63b8ff" points="119.4043,-75.778 108.9345,-74.155 116.107,-81.9528 119.4043,-75.778"/>
</g>
<!-- Node19 -->
<g id="node19" class="node">
<title>Node19</title>
<g id="a_node19"><a xlink:title=" ">
<polygon fill="#e0e0e0" stroke="#999999" points="182.3532,-74 135.3532,-74 135.3532,-55 182.3532,-55 182.3532,-74"/>
<text text-anchor="middle" x="158.8532" y="-62" font-family="Helvetica,sans-Serif" font-size="10.00" fill="#000000">iterator</text>
</a>
</g>
</g>
<!-- Node18&#45;&gt;Node19 -->
<g id="edge27" class="edge">
<title>Node18&#45;&gt;Node19</title>
<path fill="none" stroke="#63b8ff" d="M187.7567,-109.9197C183.047,-102.5188 176.3856,-92.0509 170.6447,-83.0294"/>
<polygon fill="#63b8ff" stroke="#63b8ff" points="173.4372,-80.8984 165.1156,-74.3408 167.5316,-84.6565 173.4372,-80.8984"/>
</g>
<!-- Node20&#45;&gt;Node3 -->
<g id="edge29" class="edge">
<title>Node20&#45;&gt;Node3</title>
<path fill="none" stroke="#63b8ff" d="M396.184,-164.747C388.9872,-150.7036 373.8918,-124.8476 353.8532,-110 324.3501,-88.1396 283.5043,-76.1769 255.3027,-70.0776"/>
<polygon fill="#63b8ff" stroke="#63b8ff" points="255.6597,-66.5787 245.1632,-68.0186 254.2667,-73.4387 255.6597,-66.5787"/>
</g>
<!-- Node20&#45;&gt;Node6 -->
<g id="edge30" class="edge">
<title>Node20&#45;&gt;Node6</title>
<path fill="none" stroke="#63b8ff" d="M410.6077,-164.9197C418.5398,-157.1293 429.932,-145.9405 439.4244,-136.6176"/>
<polygon fill="#63b8ff" stroke="#63b8ff" points="442.1515,-138.845 446.8335,-129.3408 437.2465,-133.8509 442.1515,-138.845"/>
</g>
<!-- Node21&#45;&gt;Node6 -->
<g id="edge34" class="edge">
<title>Node21&#45;&gt;Node6</title>
<path fill="none" stroke="#63b8ff" d="M630.5063,-165.4179C593.6457,-155.6711 535.1806,-140.2116 496.4199,-129.9623"/>
<polygon fill="#63b8ff" stroke="#63b8ff" points="497.0927,-126.52 486.5302,-127.3473 495.3032,-133.2874 497.0927,-126.52"/>
</g>
<!-- Node21&#45;&gt;Node7 -->
<g id="edge33" class="edge">
<title>Node21&#45;&gt;Node7</title>
<path fill="none" stroke="#63b8ff" d="M681.0224,-164.9629C705.4741,-149.4792 750.907,-116.2988 768.8532,-74 774.8677,-59.8241 774.1328,-42.2689 772.1638,-29.054"/>
<polygon fill="#63b8ff" stroke="#63b8ff" points="775.5923,-28.3454 770.3406,-19.1438 768.7078,-29.612 775.5923,-28.3454"/>
</g>
<!-- Node22 -->
<g id="node22" class="node">
<title>Node22</title>
<g id="a_node22"><a xlink:title=" ">
<polygon fill="#e0e0e0" stroke="#999999" points="917.3532,-129 834.3532,-129 834.3532,-110 917.3532,-110 917.3532,-129"/>
<text text-anchor="middle" x="875.8532" y="-117" font-family="Helvetica,sans-Serif" font-size="10.00" fill="#000000">unordered_map</text>
</a>
</g>
</g>
<!-- Node21&#45;&gt;Node22 -->
<g id="edge32" class="edge">
<title>Node21&#45;&gt;Node22</title>
<path fill="none" stroke="#63b8ff" d="M699.2236,-165.5409C734.6738,-156.3003 790.1804,-141.8318 829.4972,-131.5833"/>
<polygon fill="#63b8ff" stroke="#63b8ff" points="830.5789,-134.9184 839.3727,-129.0092 828.8132,-128.1447 830.5789,-134.9184"/>
</g>
</g>
</svg>
