<?xml version="1.0" encoding="UTF-8" standalone="no"?>
<!DOCTYPE svg PUBLIC "-//W3C//DTD SVG 1.1//EN"
 "http://www.w3.org/Graphics/SVG/1.1/DTD/svg11.dtd">
<!-- Generated by graphviz version 2.40.1 (20161225.0304)
 -->
<!-- Title: FortranCodeParser Pages: 1 -->
<svg width="268pt" height="137pt"
 viewBox="0.00 0.00 268.00 137.00" xmlns="http://www.w3.org/2000/svg" xmlns:xlink="http://www.w3.org/1999/xlink">
<g id="graph0" class="graph" transform="scale(1 1) rotate(0) translate(4 133)">
<title>FortranCodeParser</title>
<!-- Node1 -->
<g id="node1" class="node">
<title>Node1</title>
<g id="a_node1"><a xlink:title=" ">
<polygon fill="#999999" stroke="#666666" points="180,-74 81,-74 81,-55 180,-55 180,-74"/>
<text text-anchor="middle" x="130.5" y="-62" font-family="Helvetica,sans-Serif" font-size="10.00" fill="#000000">FortranCodeParser</text>
</a>
</g>
</g>
<!-- Node3 -->
<g id="node3" class="node">
<title>Node3</title>
<g id="a_node3"><a xlink:href="../../d6/dbc/class_fortran_code_parser_fixed.html" target="_top" xlink:title=" ">
<polygon fill="#ffffff" stroke="#666666" points="123,-19 0,-19 0,0 123,0 123,-19"/>
<text text-anchor="middle" x="61.5" y="-7" font-family="Helvetica,sans-Serif" font-size="10.00" fill="#000000">FortranCodeParserFixed</text>
</a>
</g>
</g>
<!-- Node1&#45;&gt;Node3 -->
<g id="edge2" class="edge">
<title>Node1&#45;&gt;Node3</title>
<path fill="none" stroke="#63b8ff" d="M110.4548,-48.522C98.6176,-39.0865 84.0091,-27.442 73.8458,-19.3408"/>
<polygon fill="#63b8ff" stroke="#63b8ff" points="108.4798,-51.4235 118.4811,-54.9197 112.843,-45.9497 108.4798,-51.4235"/>
</g>
<!-- Node4 -->
<g id="node4" class="node">
<title>Node4</title>
<g id="a_node4"><a xlink:href="../../d7/d86/class_fortran_code_parser_free.html" target="_top" xlink:title=" ">
<polygon fill="#ffffff" stroke="#666666" points="260,-19 141,-19 141,0 260,0 260,-19"/>
<text text-anchor="middle" x="200.5" y="-7" font-family="Helvetica,sans-Serif" font-size="10.00" fill="#000000">FortranCodeParserFree</text>
</a>
</g>
</g>
<!-- Node1&#45;&gt;Node4 -->
<g id="edge3" class="edge">
<title>Node1&#45;&gt;Node4</title>
<path fill="none" stroke="#63b8ff" d="M150.8357,-48.522C162.8444,-39.0865 177.6647,-27.442 187.9753,-19.3408"/>
<polygon fill="#63b8ff" stroke="#63b8ff" points="148.3939,-45.9894 142.6931,-54.9197 152.7187,-51.4936 148.3939,-45.9894"/>
</g>
<!-- Node2 -->
<g id="node2" class="node">
<title>Node2</title>
<g id="a_node2"><a xlink:href="../../d4/d65/class_code_parser_interface.html" target="_top" xlink:title="Abstract interface for code parsers.">
<polygon fill="#ffffff" stroke="#666666" points="184,-129 77,-129 77,-110 184,-110 184,-129"/>
<text text-anchor="middle" x="130.5" y="-117" font-family="Helvetica,sans-Serif" font-size="10.00" fill="#000000">CodeParserInterface</text>
</a>
</g>
</g>
<!-- Node2&#45;&gt;Node1 -->
<g id="edge1" class="edge">
<title>Node2&#45;&gt;Node1</title>
<path fill="none" stroke="#63b8ff" d="M130.5,-99.8553C130.5,-91.2036 130.5,-81.4195 130.5,-74.3408"/>
<polygon fill="#63b8ff" stroke="#63b8ff" points="127.0001,-99.9197 130.5,-109.9197 134.0001,-99.9198 127.0001,-99.9197"/>
</g>
</g>
</svg>
