<?xml version="1.0" encoding="UTF-8" standalone="no"?>
<!DOCTYPE svg PUBLIC "-//W3C//DTD SVG 1.1//EN"
 "http://www.w3.org/Graphics/SVG/1.1/DTD/svg11.dtd">
<!-- Generated by graphviz version 2.40.1 (20161225.0304)
 -->
<!-- Title: IncludeInfoContext::Private Pages: 1 -->
<svg width="748pt" height="231pt"
 viewBox="0.00 0.00 748.00 231.00" xmlns="http://www.w3.org/2000/svg" xmlns:xlink="http://www.w3.org/1999/xlink">
<g id="graph0" class="graph" transform="scale(1 1) rotate(0) translate(4 227)">
<title>IncludeInfoContext::Private</title>
<!-- Node1 -->
<g id="node1" class="node">
<title>Node1</title>
<g id="a_node1"><a xlink:title=" ">
<polygon fill="#999999" stroke="#666666" points="740,-113.5 641,-113.5 641,-83.5 740,-83.5 740,-113.5"/>
<text text-anchor="start" x="649" y="-101.5" font-family="Helvetica,sans-Serif" font-size="10.00" fill="#000000">IncludeInfoContext</text>
<text text-anchor="middle" x="690.5" y="-90.5" font-family="Helvetica,sans-Serif" font-size="10.00" fill="#000000">::Private</text>
</a>
</g>
</g>
<!-- Node2 -->
<g id="node2" class="node">
<title>Node2</title>
<g id="a_node2"><a xlink:href="../../d5/dc1/struct_include_info.html" target="_top" xlink:title="Class representing the data associated with a #include statement.">
<polygon fill="#ffffff" stroke="#666666" points="497,-168 432,-168 432,-149 497,-149 497,-168"/>
<text text-anchor="middle" x="464.5" y="-156" font-family="Helvetica,sans-Serif" font-size="10.00" fill="#000000">IncludeInfo</text>
</a>
</g>
</g>
<!-- Node2&#45;&gt;Node1 -->
<g id="edge1" class="edge">
<title>Node2&#45;&gt;Node1</title>
<path fill="none" stroke="#9a32cd" stroke-dasharray="5,2" d="M507.1129,-147.1868C545.1534,-137.0876 600.8787,-122.2933 640.9077,-111.6661"/>
<polygon fill="#9a32cd" stroke="#9a32cd" points="506.1294,-143.8266 497.3623,-149.7755 507.9256,-150.5922 506.1294,-143.8266"/>
<text text-anchor="middle" x="591" y="-134.5" font-family="Helvetica,sans-Serif" font-size="10.00" fill="#000000"> m_info</text>
</g>
<!-- Node3 -->
<g id="node3" class="node">
<title>Node3</title>
<g id="a_node3"><a xlink:href="../../de/db0/class_file_def.html" target="_top" xlink:title="A model of a file symbol.">
<polygon fill="#ffffff" stroke="#666666" points="217,-205 169,-205 169,-186 217,-186 217,-205"/>
<text text-anchor="middle" x="193" y="-193" font-family="Helvetica,sans-Serif" font-size="10.00" fill="#000000">FileDef</text>
</a>
</g>
</g>
<!-- Node3&#45;&gt;Node2 -->
<g id="edge2" class="edge">
<title>Node3&#45;&gt;Node2</title>
<path fill="none" stroke="#9a32cd" stroke-dasharray="5,2" d="M227.4113,-191.2132C263.0952,-186.7245 320.4895,-179.3837 370,-172.5 390.5341,-169.645 413.5459,-166.2403 431.7201,-163.5033"/>
<polygon fill="#9a32cd" stroke="#9a32cd" points="226.5533,-187.7933 217.0668,-192.511 227.4247,-194.7389 226.5533,-187.7933"/>
<text text-anchor="middle" x="322.5" y="-187.5" font-family="Helvetica,sans-Serif" font-size="10.00" fill="#000000"> fileDef</text>
</g>
<!-- Node4 -->
<g id="node4" class="node">
<title>Node4</title>
<g id="a_node4"><a xlink:href="../../d0/d46/class_definition_mutable.html" target="_top" xlink:title=" ">
<polygon fill="#ffffff" stroke="#666666" points="92,-223 0,-223 0,-204 92,-204 92,-223"/>
<text text-anchor="middle" x="46" y="-211" font-family="Helvetica,sans-Serif" font-size="10.00" fill="#000000">DefinitionMutable</text>
</a>
</g>
</g>
<!-- Node4&#45;&gt;Node3 -->
<g id="edge3" class="edge">
<title>Node4&#45;&gt;Node3</title>
<path fill="none" stroke="#63b8ff" d="M102.1646,-206.6227C125.2462,-203.7964 150.7465,-200.6739 168.8379,-198.4586"/>
<polygon fill="#63b8ff" stroke="#63b8ff" points="101.6088,-203.1645 92.1084,-207.8541 102.4597,-210.1126 101.6088,-203.1645"/>
</g>
<!-- Node5 -->
<g id="node5" class="node">
<title>Node5</title>
<g id="a_node5"><a xlink:href="../../d5/dcc/class_definition.html" target="_top" xlink:title="The common base class of all entity definitions found in the sources.">
<polygon fill="#ffffff" stroke="#666666" points="75,-186 17,-186 17,-167 75,-167 75,-186"/>
<text text-anchor="middle" x="46" y="-174" font-family="Helvetica,sans-Serif" font-size="10.00" fill="#000000">Definition</text>
</a>
</g>
</g>
<!-- Node5&#45;&gt;Node3 -->
<g id="edge4" class="edge">
<title>Node5&#45;&gt;Node3</title>
<path fill="none" stroke="#63b8ff" d="M85.1912,-181.5655C111.8182,-185.0071 146.19,-189.4497 168.8803,-192.3825"/>
<polygon fill="#63b8ff" stroke="#63b8ff" points="85.4087,-178.0646 75.0425,-180.2538 84.5113,-185.0069 85.4087,-178.0646"/>
</g>
<!-- Node6 -->
<g id="node6" class="node">
<title>Node6</title>
<g id="a_node6"><a xlink:href="../../d9/d45/class_q_c_string.html" target="_top" xlink:title="This is an alternative implementation of QCString.">
<polygon fill="#ffffff" stroke="#666666" points="221.5,-168 164.5,-168 164.5,-149 221.5,-149 221.5,-168"/>
<text text-anchor="middle" x="193" y="-156" font-family="Helvetica,sans-Serif" font-size="10.00" fill="#000000">QCString</text>
</a>
</g>
</g>
<!-- Node6&#45;&gt;Node2 -->
<g id="edge5" class="edge">
<title>Node6&#45;&gt;Node2</title>
<path fill="none" stroke="#9a32cd" stroke-dasharray="5,2" d="M231.6817,-158.5C285.3382,-158.5 381.4159,-158.5 431.7307,-158.5"/>
<polygon fill="#9a32cd" stroke="#9a32cd" points="231.5421,-155.0001 221.5421,-158.5 231.5421,-162.0001 231.5421,-155.0001"/>
<text text-anchor="middle" x="322.5" y="-161.5" font-family="Helvetica,sans-Serif" font-size="10.00" fill="#000000"> includeName</text>
</g>
<!-- Node7 -->
<g id="node7" class="node">
<title>Node7</title>
<g id="a_node7"><a xlink:href="../../d7/dc1/class_cached_item.html" target="_top" xlink:title=" ">
<polygon fill="#ffffff" stroke="#666666" points="541,-119 388,-119 388,-78 541,-78 541,-119"/>
<text text-anchor="start" x="396" y="-107" font-family="Helvetica,sans-Serif" font-size="10.00" fill="#000000">CachedItem&lt; TemplateVariant,</text>
<text text-anchor="start" x="396" y="-96" font-family="Helvetica,sans-Serif" font-size="10.00" fill="#000000"> IncludeInfoContext::Private,</text>
<text text-anchor="middle" x="464.5" y="-85" font-family="Helvetica,sans-Serif" font-size="10.00" fill="#000000"> &amp;Private::createFileContext &gt;</text>
</a>
</g>
</g>
<!-- Node7&#45;&gt;Node1 -->
<g id="edge6" class="edge">
<title>Node7&#45;&gt;Node1</title>
<path fill="none" stroke="#9a32cd" stroke-dasharray="5,2" d="M551.1702,-98.5C581.4622,-98.5 614.4274,-98.5 640.6848,-98.5"/>
<polygon fill="#9a32cd" stroke="#9a32cd" points="551.0133,-95.0001 541.0133,-98.5 551.0133,-102.0001 551.0133,-95.0001"/>
<text text-anchor="middle" x="591" y="-101.5" font-family="Helvetica,sans-Serif" font-size="10.00" fill="#000000"> m_fileContext</text>
</g>
<!-- Node8 -->
<g id="node8" class="node">
<title>Node8</title>
<g id="a_node8"><a xlink:href="../../d1/dba/class_template_variant.html" target="_top" xlink:title="Variant type which can hold one value of a fixed set of types.">
<polygon fill="#ffffff" stroke="#666666" points="237,-131 149,-131 149,-112 237,-112 237,-131"/>
<text text-anchor="middle" x="193" y="-119" font-family="Helvetica,sans-Serif" font-size="10.00" fill="#000000">TemplateVariant</text>
</a>
</g>
</g>
<!-- Node8&#45;&gt;Node7 -->
<g id="edge7" class="edge">
<title>Node8&#45;&gt;Node7</title>
<path fill="none" stroke="#9a32cd" stroke-dasharray="5,2" d="M247.3864,-116.8927C287.6802,-113.4792 343.1295,-108.7818 387.905,-104.9887"/>
<polygon fill="#9a32cd" stroke="#9a32cd" points="246.8943,-113.4217 237.2254,-117.7535 247.4852,-120.3968 246.8943,-113.4217"/>
<text text-anchor="middle" x="322.5" y="-116.5" font-family="Helvetica,sans-Serif" font-size="10.00" fill="#000000"> m_item</text>
</g>
<!-- Node9 -->
<g id="node9" class="node">
<title>Node9</title>
<g id="a_node9"><a xlink:href="../../d7/dc1/class_cached_item.html" target="_top" xlink:title="Wrapper for data that needs to be cached.">
<polygon fill="#ffffff" stroke="#666666" points="257,-69.5 129,-69.5 129,-39.5 257,-39.5 257,-69.5"/>
<text text-anchor="start" x="137" y="-57.5" font-family="Helvetica,sans-Serif" font-size="10.00" fill="#000000">CachedItem&lt; T, TOwner,</text>
<text text-anchor="middle" x="193" y="-46.5" font-family="Helvetica,sans-Serif" font-size="10.00" fill="#000000"> creator &gt;</text>
</a>
</g>
</g>
<!-- Node9&#45;&gt;Node7 -->
<g id="edge8" class="edge">
<title>Node9&#45;&gt;Node7</title>
<path fill="none" stroke="#ffa500" stroke-dasharray="5,2" d="M267.3228,-49.9981C299.2496,-49.6486 336.7813,-51.3674 370,-58.5 388.8119,-62.5392 408.5703,-70.2895 425.1284,-77.9007"/>
<polygon fill="#ffa500" stroke="#ffa500" points="267.1022,-46.5014 257.1665,-50.18 267.2276,-53.5003 267.1022,-46.5014"/>
<text text-anchor="start" x="279" y="-94.5" font-family="Helvetica,sans-Serif" font-size="10.00" fill="#000000"> &lt; TemplateVariant,</text>
<text text-anchor="start" x="279" y="-83.5" font-family="Helvetica,sans-Serif" font-size="10.00" fill="#000000"> IncludeInfoContext</text>
<text text-anchor="start" x="279" y="-72.5" font-family="Helvetica,sans-Serif" font-size="10.00" fill="#000000">::Private, &amp;Private::</text>
<text text-anchor="middle" x="322.5" y="-61.5" font-family="Helvetica,sans-Serif" font-size="10.00" fill="#000000">createFileContext &gt;</text>
</g>
<!-- Node10 -->
<g id="node10" class="node">
<title>Node10</title>
<g id="a_node10"><a xlink:href="../../d5/dbf/class_property_map.html" target="_top" xlink:title=" ">
<polygon fill="#ffffff" stroke="#666666" points="529,-36.5 400,-36.5 400,-6.5 529,-6.5 529,-36.5"/>
<text text-anchor="start" x="408" y="-24.5" font-family="Helvetica,sans-Serif" font-size="10.00" fill="#000000">PropertyMap&lt; IncludeInfo</text>
<text text-anchor="middle" x="464.5" y="-13.5" font-family="Helvetica,sans-Serif" font-size="10.00" fill="#000000">Context::Private &gt;</text>
</a>
</g>
</g>
<!-- Node10&#45;&gt;Node1 -->
<g id="edge9" class="edge">
<title>Node10&#45;&gt;Node1</title>
<path fill="none" stroke="#9a32cd" stroke-dasharray="5,2" d="M518.233,-39.8073C557.2609,-53.1044 609.4442,-70.8836 646.1141,-83.3774"/>
<polygon fill="#9a32cd" stroke="#9a32cd" points="519.2061,-36.4413 508.6116,-36.5292 516.9485,-43.0673 519.2061,-36.4413"/>
<text text-anchor="middle" x="591" y="-76.5" font-family="Helvetica,sans-Serif" font-size="10.00" fill="#000000"> s_inst</text>
</g>
<!-- Node11 -->
<g id="node11" class="node">
<title>Node11</title>
<g id="a_node11"><a xlink:href="../../d5/dbf/class_property_map.html" target="_top" xlink:title="Class representing a mapping of properties and the corresponding getter function.">
<polygon fill="#ffffff" stroke="#666666" points="241,-19 145,-19 145,0 241,0 241,-19"/>
<text text-anchor="middle" x="193" y="-7" font-family="Helvetica,sans-Serif" font-size="10.00" fill="#000000">PropertyMap&lt; T &gt;</text>
</a>
</g>
</g>
<!-- Node11&#45;&gt;Node10 -->
<g id="edge10" class="edge">
<title>Node11&#45;&gt;Node10</title>
<path fill="none" stroke="#ffa500" stroke-dasharray="5,2" d="M251.5,-8.2141C286.0131,-7.8587 330.5278,-8.0985 370,-10.5 379.6446,-11.0868 389.8161,-11.9798 399.77,-13.0084"/>
<polygon fill="#ffa500" stroke="#ffa500" points="251.0829,-4.7189 241.1267,-8.3418 251.1691,-11.7184 251.0829,-4.7189"/>
<text text-anchor="start" x="275" y="-24.5" font-family="Helvetica,sans-Serif" font-size="10.00" fill="#000000"> &lt; IncludeInfoContext</text>
<text text-anchor="middle" x="322.5" y="-13.5" font-family="Helvetica,sans-Serif" font-size="10.00" fill="#000000">::Private &gt;</text>
</g>
</g>
</svg>
