<?xml version="1.0" encoding="UTF-8" standalone="no"?>
<!DOCTYPE svg PUBLIC "-//W3C//DTD SVG 1.1//EN"
 "http://www.w3.org/Graphics/SVG/1.1/DTD/svg11.dtd">
<!-- Generated by graphviz version 2.40.1 (20161225.0304)
 -->
<!-- Title: DirContext::Private Pages: 1 -->
<svg width="172pt" height="160pt"
 viewBox="0.00 0.00 172.00 160.00" xmlns="http://www.w3.org/2000/svg" xmlns:xlink="http://www.w3.org/1999/xlink">
<g id="graph0" class="graph" transform="scale(1 1) rotate(0) translate(4 156)">
<title>DirContext::Private</title>
<!-- Node1 -->
<g id="node1" class="node">
<title>Node1</title>
<g id="a_node1"><a xlink:title=" ">
<polygon fill="#999999" stroke="#666666" points="108.5,-19 7.5,-19 7.5,0 108.5,0 108.5,-19"/>
<text text-anchor="middle" x="58" y="-7" font-family="Helvetica,sans-Serif" font-size="10.00" fill="#000000">DirContext::Private</text>
</a>
</g>
</g>
<!-- Node2 -->
<g id="node2" class="node">
<title>Node2</title>
<g id="a_node2"><a xlink:href="../../d6/d49/class_definition_context.html" target="_top" xlink:title=" ">
<polygon fill="#ffffff" stroke="#666666" points="114.5,-86 1.5,-86 1.5,-56 114.5,-56 114.5,-86"/>
<text text-anchor="start" x="9.5" y="-74" font-family="Helvetica,sans-Serif" font-size="10.00" fill="#000000">DefinitionContext&lt;</text>
<text text-anchor="middle" x="58" y="-63" font-family="Helvetica,sans-Serif" font-size="10.00" fill="#000000"> DirContext::Private &gt;</text>
</a>
</g>
</g>
<!-- Node2&#45;&gt;Node1 -->
<g id="edge1" class="edge">
<title>Node2&#45;&gt;Node1</title>
<path fill="none" stroke="#63b8ff" d="M58,-45.7849C58,-36.4858 58,-26.4883 58,-19.3469"/>
<polygon fill="#63b8ff" stroke="#63b8ff" points="54.5001,-45.7977 58,-55.7977 61.5001,-45.7978 54.5001,-45.7977"/>
</g>
<!-- Node3 -->
<g id="node3" class="node">
<title>Node3</title>
<g id="a_node3"><a xlink:href="../../d6/d49/class_definition_context.html" target="_top" xlink:title=" ">
<polygon fill="#ffffff" stroke="#666666" points="116,-152 0,-152 0,-133 116,-133 116,-152"/>
<text text-anchor="middle" x="58" y="-140" font-family="Helvetica,sans-Serif" font-size="10.00" fill="#000000">DefinitionContext&lt; T &gt;</text>
</a>
</g>
</g>
<!-- Node3&#45;&gt;Node2 -->
<g id="edge2" class="edge">
<title>Node3&#45;&gt;Node2</title>
<path fill="none" stroke="#ffa500" stroke-dasharray="5,2" d="M58,-122.5057C58,-111.0142 58,-96.8078 58,-86.2276"/>
<polygon fill="#ffa500" stroke="#ffa500" points="54.5001,-122.8572 58,-132.8572 61.5001,-122.8572 54.5001,-122.8572"/>
<text text-anchor="middle" x="111" y="-107" font-family="Helvetica,sans-Serif" font-size="10.00" fill="#000000"> &lt; DirContext::Private &gt;</text>
</g>
</g>
</svg>
