<?xml version="1.0" encoding="UTF-8" standalone="no"?>
<!DOCTYPE svg PUBLIC "-//W3C//DTD SVG 1.1//EN"
 "http://www.w3.org/Graphics/SVG/1.1/DTD/svg11.dtd">
<!-- Generated by graphviz version 2.40.1 (20161225.0304)
 -->
<!-- Title: InheritanceGraphContext::Private Pages: 1 -->
<svg width="777pt" height="218pt"
 viewBox="0.00 0.00 777.00 217.50" xmlns="http://www.w3.org/2000/svg" xmlns:xlink="http://www.w3.org/1999/xlink">
<g id="graph0" class="graph" transform="scale(1 1) rotate(0) translate(4 213.5)">
<title>InheritanceGraphContext::Private</title>
<!-- Node1 -->
<g id="node1" class="node">
<title>Node1</title>
<g id="a_node1"><a xlink:title=" ">
<polygon fill="#999999" stroke="#666666" points="769,-105.5 644,-105.5 644,-75.5 769,-75.5 769,-105.5"/>
<text text-anchor="start" x="652" y="-93.5" font-family="Helvetica,sans-Serif" font-size="10.00" fill="#000000">InheritanceGraphContext</text>
<text text-anchor="middle" x="706.5" y="-82.5" font-family="Helvetica,sans-Serif" font-size="10.00" fill="#000000">::Private</text>
</a>
</g>
</g>
<!-- Node2 -->
<g id="node2" class="node">
<title>Node2</title>
<g id="a_node2"><a xlink:href="../../dd/d7e/class_dot_node.html" target="_top" xlink:title="A node in a dot graph.">
<polygon fill="#ffffff" stroke="#666666" points="514,-157 458,-157 458,-138 514,-138 514,-157"/>
<text text-anchor="middle" x="486" y="-145" font-family="Helvetica,sans-Serif" font-size="10.00" fill="#000000">DotNode</text>
</a>
</g>
</g>
<!-- Node2&#45;&gt;Node1 -->
<g id="edge1" class="edge">
<title>Node2&#45;&gt;Node1</title>
<path fill="none" stroke="#9a32cd" stroke-dasharray="5,2" d="M524.4123,-137.5703C558.5347,-128.7495 608.9167,-115.7256 648.0398,-105.6122"/>
<polygon fill="#9a32cd" stroke="#9a32cd" points="523.1809,-134.2735 514.3751,-140.1649 524.9329,-141.0507 523.1809,-134.2735"/>
<text text-anchor="middle" x="605.5" y="-123.5" font-family="Helvetica,sans-Serif" font-size="10.00" fill="#000000"> m_node</text>
</g>
<!-- Node3 -->
<g id="node3" class="node">
<title>Node3</title>
<g id="a_node3"><a xlink:href="../../d9/d45/class_q_c_string.html" target="_top" xlink:title="This is an alternative implementation of QCString.">
<polygon fill="#ffffff" stroke="#666666" points="187.5,-194 130.5,-194 130.5,-175 187.5,-175 187.5,-194"/>
<text text-anchor="middle" x="159" y="-182" font-family="Helvetica,sans-Serif" font-size="10.00" fill="#000000">QCString</text>
</a>
</g>
</g>
<!-- Node3&#45;&gt;Node2 -->
<g id="edge2" class="edge">
<title>Node3&#45;&gt;Node2</title>
<path fill="none" stroke="#9a32cd" stroke-dasharray="5,2" d="M197.8635,-181.3953C243.3,-177.6162 320.7298,-170.7116 387,-162.5 410.9799,-159.5286 438.1058,-155.3618 457.8917,-152.1736"/>
<polygon fill="#9a32cd" stroke="#9a32cd" points="197.5272,-177.9111 187.8485,-182.2207 198.1022,-184.8874 197.5272,-177.9111"/>
<text text-anchor="middle" x="314" y="-201.5" font-family="Helvetica,sans-Serif" font-size="10.00" fill="#000000"> m_label</text>
<text text-anchor="middle" x="314" y="-190.5" font-family="Helvetica,sans-Serif" font-size="10.00" fill="#000000">m_tooltip</text>
<text text-anchor="middle" x="314" y="-179.5" font-family="Helvetica,sans-Serif" font-size="10.00" fill="#000000">m_url</text>
</g>
<!-- Node4 -->
<g id="node4" class="node">
<title>Node4</title>
<g id="a_node4"><a xlink:href="../../d1/dcf/class_class_def.html" target="_top" xlink:title="A abstract class representing of a compound symbol.">
<polygon fill="#ffffff" stroke="#666666" points="188,-157 130,-157 130,-138 188,-138 188,-157"/>
<text text-anchor="middle" x="159" y="-145" font-family="Helvetica,sans-Serif" font-size="10.00" fill="#000000">ClassDef</text>
</a>
</g>
</g>
<!-- Node4&#45;&gt;Node2 -->
<g id="edge3" class="edge">
<title>Node4&#45;&gt;Node2</title>
<path fill="none" stroke="#9a32cd" stroke-dasharray="5,2" d="M198.1461,-147.5C265.0083,-147.5 399.6341,-147.5 457.9766,-147.5"/>
<polygon fill="#9a32cd" stroke="#9a32cd" points="198.0191,-144.0001 188.0191,-147.5 198.019,-151.0001 198.0191,-144.0001"/>
<text text-anchor="middle" x="314" y="-150.5" font-family="Helvetica,sans-Serif" font-size="10.00" fill="#000000"> m_classDef</text>
</g>
<!-- Node5 -->
<g id="node5" class="node">
<title>Node5</title>
<g id="a_node5"><a xlink:href="../../d5/dcc/class_definition.html" target="_top" xlink:title="The common base class of all entity definitions found in the sources.">
<polygon fill="#ffffff" stroke="#666666" points="58,-157 0,-157 0,-138 58,-138 58,-157"/>
<text text-anchor="middle" x="29" y="-145" font-family="Helvetica,sans-Serif" font-size="10.00" fill="#000000">Definition</text>
</a>
</g>
</g>
<!-- Node5&#45;&gt;Node4 -->
<g id="edge4" class="edge">
<title>Node5&#45;&gt;Node4</title>
<path fill="none" stroke="#63b8ff" d="M68.4312,-147.5C88.23,-147.5 111.794,-147.5 129.9228,-147.5"/>
<polygon fill="#63b8ff" stroke="#63b8ff" points="68.1746,-144.0001 58.1745,-147.5 68.1745,-151.0001 68.1746,-144.0001"/>
</g>
<!-- Node6 -->
<g id="node6" class="node">
<title>Node6</title>
<g id="a_node6"><a xlink:href="../../d7/dc1/class_cached_item.html" target="_top" xlink:title=" ">
<polygon fill="#ffffff" stroke="#666666" points="567,-111 405,-111 405,-70 567,-70 567,-111"/>
<text text-anchor="start" x="413" y="-99" font-family="Helvetica,sans-Serif" font-size="10.00" fill="#000000">CachedItem&lt; TemplateVariant,</text>
<text text-anchor="start" x="413" y="-88" font-family="Helvetica,sans-Serif" font-size="10.00" fill="#000000"> InheritanceGraphContext</text>
<text text-anchor="middle" x="486" y="-77" font-family="Helvetica,sans-Serif" font-size="10.00" fill="#000000">::Private,&amp;Private::createGraph &gt;</text>
</a>
</g>
</g>
<!-- Node6&#45;&gt;Node1 -->
<g id="edge5" class="edge">
<title>Node6&#45;&gt;Node1</title>
<path fill="none" stroke="#9a32cd" stroke-dasharray="5,2" d="M577.3482,-90.5C599.7017,-90.5 623.1237,-90.5 643.7894,-90.5"/>
<polygon fill="#9a32cd" stroke="#9a32cd" points="577.1667,-87.0001 567.1667,-90.5 577.1666,-94.0001 577.1667,-87.0001"/>
<text text-anchor="middle" x="605.5" y="-93.5" font-family="Helvetica,sans-Serif" font-size="10.00" fill="#000000"> m_graph</text>
</g>
<!-- Node7 -->
<g id="node7" class="node">
<title>Node7</title>
<g id="a_node7"><a xlink:href="../../d1/dba/class_template_variant.html" target="_top" xlink:title="Variant type which can hold one value of a fixed set of types.">
<polygon fill="#ffffff" stroke="#666666" points="203,-120 115,-120 115,-101 203,-101 203,-120"/>
<text text-anchor="middle" x="159" y="-108" font-family="Helvetica,sans-Serif" font-size="10.00" fill="#000000">TemplateVariant</text>
</a>
</g>
</g>
<!-- Node7&#45;&gt;Node6 -->
<g id="edge6" class="edge">
<title>Node7&#45;&gt;Node6</title>
<path fill="none" stroke="#9a32cd" stroke-dasharray="5,2" d="M213.1708,-107.1868C265.425,-103.9908 345.1796,-99.1129 404.9848,-95.4551"/>
<polygon fill="#9a32cd" stroke="#9a32cd" points="212.8683,-103.6987 203.1007,-107.8027 213.2957,-110.6856 212.8683,-103.6987"/>
<text text-anchor="middle" x="314" y="-107.5" font-family="Helvetica,sans-Serif" font-size="10.00" fill="#000000"> m_item</text>
</g>
<!-- Node8 -->
<g id="node8" class="node">
<title>Node8</title>
<g id="a_node8"><a xlink:href="../../d7/dc1/class_cached_item.html" target="_top" xlink:title="Wrapper for data that needs to be cached.">
<polygon fill="#ffffff" stroke="#666666" points="223,-69.5 95,-69.5 95,-39.5 223,-39.5 223,-69.5"/>
<text text-anchor="start" x="103" y="-57.5" font-family="Helvetica,sans-Serif" font-size="10.00" fill="#000000">CachedItem&lt; T, TOwner,</text>
<text text-anchor="middle" x="159" y="-46.5" font-family="Helvetica,sans-Serif" font-size="10.00" fill="#000000"> creator &gt;</text>
</a>
</g>
</g>
<!-- Node8&#45;&gt;Node6 -->
<g id="edge7" class="edge">
<title>Node8&#45;&gt;Node6</title>
<path fill="none" stroke="#ffa500" stroke-dasharray="5,2" d="M233.5374,-50.8801C278.312,-50.006 336.2548,-51.1705 387,-59.5 401.2181,-61.8338 416.2178,-65.7363 430.1222,-69.9992"/>
<polygon fill="#ffa500" stroke="#ffa500" points="233.2389,-47.3861 223.3236,-51.1191 233.4027,-54.3841 233.2389,-47.3861"/>
<text text-anchor="start" x="241" y="-84.5" font-family="Helvetica,sans-Serif" font-size="10.00" fill="#000000"> &lt; TemplateVariant,</text>
<text text-anchor="start" x="241" y="-73.5" font-family="Helvetica,sans-Serif" font-size="10.00" fill="#000000"> InheritanceGraphContext</text>
<text text-anchor="middle" x="314" y="-62.5" font-family="Helvetica,sans-Serif" font-size="10.00" fill="#000000">::Private,&amp;Private::createGraph &gt;</text>
</g>
<!-- Node9 -->
<g id="node9" class="node">
<title>Node9</title>
<g id="a_node9"><a xlink:href="../../d5/dbf/class_property_map.html" target="_top" xlink:title=" ">
<polygon fill="#ffffff" stroke="#666666" points="550.5,-33.5 421.5,-33.5 421.5,-3.5 550.5,-3.5 550.5,-33.5"/>
<text text-anchor="start" x="429.5" y="-21.5" font-family="Helvetica,sans-Serif" font-size="10.00" fill="#000000">PropertyMap&lt; Inheritance</text>
<text text-anchor="middle" x="486" y="-10.5" font-family="Helvetica,sans-Serif" font-size="10.00" fill="#000000">GraphContext::Private &gt;</text>
</a>
</g>
</g>
<!-- Node9&#45;&gt;Node1 -->
<g id="edge8" class="edge">
<title>Node9&#45;&gt;Node1</title>
<path fill="none" stroke="#9a32cd" stroke-dasharray="5,2" d="M541.5046,-36.624C578.1535,-48.5909 625.6182,-64.0896 660.2245,-75.3896"/>
<polygon fill="#9a32cd" stroke="#9a32cd" points="542.5481,-33.2829 531.9556,-33.5059 540.3753,-39.9371 542.5481,-33.2829"/>
<text text-anchor="middle" x="605.5" y="-65.5" font-family="Helvetica,sans-Serif" font-size="10.00" fill="#000000"> s_inst</text>
</g>
<!-- Node10 -->
<g id="node10" class="node">
<title>Node10</title>
<g id="a_node10"><a xlink:href="../../d5/dbf/class_property_map.html" target="_top" xlink:title="Class representing a mapping of properties and the corresponding getter function.">
<polygon fill="#ffffff" stroke="#666666" points="207,-19 111,-19 111,0 207,0 207,-19"/>
<text text-anchor="middle" x="159" y="-7" font-family="Helvetica,sans-Serif" font-size="10.00" fill="#000000">PropertyMap&lt; T &gt;</text>
</a>
</g>
</g>
<!-- Node10&#45;&gt;Node9 -->
<g id="edge9" class="edge">
<title>Node10&#45;&gt;Node9</title>
<path fill="none" stroke="#ffa500" stroke-dasharray="5,2" d="M217.1668,-8.5345C263.2566,-8.0641 329.2754,-8.0447 387,-10.5 398.112,-10.9727 409.9092,-11.715 421.3409,-12.5611"/>
<polygon fill="#ffa500" stroke="#ffa500" points="217.0236,-5.0358 207.0636,-8.6481 217.1024,-12.0353 217.0236,-5.0358"/>
<text text-anchor="start" x="253.5" y="-24.5" font-family="Helvetica,sans-Serif" font-size="10.00" fill="#000000"> &lt; InheritanceGraphContext</text>
<text text-anchor="middle" x="314" y="-13.5" font-family="Helvetica,sans-Serif" font-size="10.00" fill="#000000">::Private &gt;</text>
</g>
</g>
</svg>
