<?xml version="1.0" encoding="UTF-8" standalone="no"?>
<!DOCTYPE svg PUBLIC "-//W3C//DTD SVG 1.1//EN"
 "http://www.w3.org/Graphics/SVG/1.1/DTD/svg11.dtd">
<!-- Generated by graphviz version 2.40.1 (20161225.0304)
 -->
<!-- Title: src/docsets.cpp Pages: 1 -->
<svg width="2656pt" height="687pt"
 viewBox="0.00 0.00 2655.50 687.00" xmlns="http://www.w3.org/2000/svg" xmlns:xlink="http://www.w3.org/1999/xlink">
<g id="graph0" class="graph" transform="scale(1 1) rotate(0) translate(4 683)">
<title>src/docsets.cpp</title>
<!-- Node1 -->
<g id="node1" class="node">
<title>Node1</title>
<g id="a_node1"><a xlink:title=" ">
<polygon fill="#999999" stroke="#666666" points="1549.5,-679 1463.5,-679 1463.5,-660 1549.5,-660 1549.5,-679"/>
<text text-anchor="middle" x="1506.5" y="-667" font-family="Helvetica,sans-Serif" font-size="10.00" fill="#000000">src/docsets.cpp</text>
</a>
</g>
</g>
<!-- Node2 -->
<g id="node2" class="node">
<title>Node2</title>
<g id="a_node2"><a xlink:title=" ">
<polygon fill="#e0e0e0" stroke="#999999" points="228.5,-239 198.5,-239 198.5,-220 228.5,-220 228.5,-239"/>
<text text-anchor="middle" x="213.5" y="-227" font-family="Helvetica,sans-Serif" font-size="10.00" fill="#000000">set</text>
</a>
</g>
</g>
<!-- Node1&#45;&gt;Node2 -->
<g id="edge1" class="edge">
<title>Node1&#45;&gt;Node2</title>
<path fill="none" stroke="#63b8ff" d="M1463.2197,-668.7841C1261.7724,-665.3221 423.6581,-649.4356 374.5,-624 249.11,-559.1201 236.9799,-488.5373 215.5,-349 210.4847,-316.4199 209.415,-307.946 210.5,-275 210.7763,-266.6106 211.3383,-257.3653 211.9021,-249.4122"/>
<polygon fill="#63b8ff" stroke="#63b8ff" points="215.4061,-249.4896 212.6704,-239.2541 208.4261,-248.9616 215.4061,-249.4896"/>
</g>
<!-- Node3 -->
<g id="node3" class="node">
<title>Node3</title>
<g id="a_node3"><a xlink:title=" ">
<polygon fill="#e0e0e0" stroke="#999999" points="1741,-239 1700,-239 1700,-220 1741,-220 1741,-239"/>
<text text-anchor="middle" x="1720.5" y="-227" font-family="Helvetica,sans-Serif" font-size="10.00" fill="#000000">stack</text>
</a>
</g>
</g>
<!-- Node1&#45;&gt;Node3 -->
<g id="edge2" class="edge">
<title>Node1&#45;&gt;Node3</title>
<path fill="none" stroke="#63b8ff" d="M1549.6483,-665.3511C1644.4435,-655.2528 1865.987,-625.9428 1910.5,-569 1955.5929,-511.3154 1788.0378,-307.8407 1735.6705,-246.8833"/>
<polygon fill="#63b8ff" stroke="#63b8ff" points="1738.2669,-244.5349 1729.0798,-239.2578 1732.9709,-249.1123 1738.2669,-244.5349"/>
</g>
<!-- Node4 -->
<g id="node4" class="node">
<title>Node4</title>
<g id="a_node4"><a xlink:title=" ">
<polygon fill="#e0e0e0" stroke="#999999" points="2139.5,-184 2089.5,-184 2089.5,-165 2139.5,-165 2139.5,-184"/>
<text text-anchor="middle" x="2114.5" y="-172" font-family="Helvetica,sans-Serif" font-size="10.00" fill="#000000">fstream</text>
</a>
</g>
</g>
<!-- Node1&#45;&gt;Node4 -->
<g id="edge3" class="edge">
<title>Node1&#45;&gt;Node4</title>
<path fill="none" stroke="#63b8ff" d="M1549.5531,-666.6793C1693.2733,-656.6957 2147.5,-620.331 2147.5,-559.5 2147.5,-559.5 2147.5,-559.5 2147.5,-284.5 2147.5,-251.4308 2133.6479,-215.0384 2123.893,-193.51"/>
<polygon fill="#63b8ff" stroke="#63b8ff" points="2126.9416,-191.7685 2119.512,-184.2152 2120.6097,-194.7531 2126.9416,-191.7685"/>
</g>
<!-- Node5 -->
<g id="node5" class="node">
<title>Node5</title>
<g id="a_node5"><a xlink:href="../../d1/db2/docsets_8h.html" target="_top" xlink:title=" ">
<polygon fill="#ffffff" stroke="#666666" points="2217,-184 2158,-184 2158,-165 2217,-165 2217,-184"/>
<text text-anchor="middle" x="2187.5" y="-172" font-family="Helvetica,sans-Serif" font-size="10.00" fill="#000000">docsets.h</text>
</a>
</g>
</g>
<!-- Node1&#45;&gt;Node5 -->
<g id="edge4" class="edge">
<title>Node1&#45;&gt;Node5</title>
<path fill="none" stroke="#63b8ff" d="M1549.7057,-667.2461C1656.6139,-661.417 1931.2999,-644.8335 2020.5,-624 2097.577,-605.998 2186.5,-638.6514 2186.5,-559.5 2186.5,-559.5 2186.5,-559.5 2186.5,-284.5 2186.5,-252.9495 2186.9164,-216.3108 2187.2118,-194.29"/>
<polygon fill="#63b8ff" stroke="#63b8ff" points="2190.7125,-194.2593 2187.3524,-184.2114 2183.7132,-194.1615 2190.7125,-194.2593"/>
</g>
<!-- Node17 -->
<g id="node17" class="node">
<title>Node17</title>
<g id="a_node17"><a xlink:href="../../db/d16/config_8h.html" target="_top" xlink:title=" ">
<polygon fill="#ffffff" stroke="#666666" points="2603,-624 2552,-624 2552,-605 2603,-605 2603,-624"/>
<text text-anchor="middle" x="2577.5" y="-612" font-family="Helvetica,sans-Serif" font-size="10.00" fill="#000000">config.h</text>
</a>
</g>
</g>
<!-- Node1&#45;&gt;Node17 -->
<g id="edge18" class="edge">
<title>Node1&#45;&gt;Node17</title>
<path fill="none" stroke="#63b8ff" d="M1549.7504,-669.0868C1689.422,-667.4228 2140.924,-659.4671 2512.5,-624 2522.088,-623.0848 2532.4239,-621.7396 2541.9708,-620.3476"/>
<polygon fill="#63b8ff" stroke="#63b8ff" points="2542.5845,-623.7947 2551.9478,-618.837 2541.5365,-616.8736 2542.5845,-623.7947"/>
</g>
<!-- Node19 -->
<g id="node19" class="node">
<title>Node19</title>
<g id="a_node19"><a xlink:href="../../d2/d0d/message_8h.html" target="_top" xlink:title=" ">
<polygon fill="#ffffff" stroke="#666666" points="2504,-624 2439,-624 2439,-605 2504,-605 2504,-624"/>
<text text-anchor="middle" x="2471.5" y="-612" font-family="Helvetica,sans-Serif" font-size="10.00" fill="#000000">message.h</text>
</a>
</g>
</g>
<!-- Node1&#45;&gt;Node19 -->
<g id="edge20" class="edge">
<title>Node1&#45;&gt;Node19</title>
<path fill="none" stroke="#63b8ff" d="M1549.5239,-667.0479C1709.343,-657.939 2267.8972,-626.1043 2428.1905,-616.9684"/>
<polygon fill="#63b8ff" stroke="#63b8ff" points="2428.8146,-620.4386 2438.5992,-616.3752 2428.4162,-613.45 2428.8146,-620.4386"/>
</g>
<!-- Node21 -->
<g id="node21" class="node">
<title>Node21</title>
<g id="a_node21"><a xlink:href="../../d1/da1/doxygen_8h.html" target="_top" xlink:title=" ">
<polygon fill="#ffffff" stroke="#666666" points="380.5,-514 318.5,-514 318.5,-495 380.5,-495 380.5,-514"/>
<text text-anchor="middle" x="349.5" y="-502" font-family="Helvetica,sans-Serif" font-size="10.00" fill="#000000">doxygen.h</text>
</a>
</g>
</g>
<!-- Node1&#45;&gt;Node21 -->
<g id="edge23" class="edge">
<title>Node1&#45;&gt;Node21</title>
<path fill="none" stroke="#63b8ff" d="M1463.4686,-669.0602C1264.1607,-666.8564 438.545,-655.8296 394.5,-624 362.2839,-600.7187 353.1209,-551.4305 350.5221,-523.9849"/>
<polygon fill="#63b8ff" stroke="#63b8ff" points="354.0123,-523.722 349.7787,-514.0098 347.0317,-524.2423 354.0123,-523.722"/>
</g>
<!-- Node34 -->
<g id="node34" class="node">
<title>Node34</title>
<g id="a_node34"><a xlink:href="../../d4/d46/memberdef_8h.html" target="_top" xlink:title=" ">
<polygon fill="#ffffff" stroke="#666666" points="1135.5,-404 1061.5,-404 1061.5,-385 1135.5,-385 1135.5,-404"/>
<text text-anchor="middle" x="1098.5" y="-392" font-family="Helvetica,sans-Serif" font-size="10.00" fill="#000000">memberdef.h</text>
</a>
</g>
</g>
<!-- Node1&#45;&gt;Node34 -->
<g id="edge117" class="edge">
<title>Node1&#45;&gt;Node34</title>
<path fill="none" stroke="#63b8ff" d="M1463.315,-665.6369C1366.8952,-655.8202 1142.5,-625.8471 1142.5,-559.5 1142.5,-559.5 1142.5,-559.5 1142.5,-504.5 1142.5,-470.2537 1123.8876,-434.0235 1110.8735,-412.8764"/>
<polygon fill="#63b8ff" stroke="#63b8ff" points="1113.7128,-410.8198 1105.375,-404.2829 1107.8165,-414.5926 1113.7128,-410.8198"/>
</g>
<!-- Node37 -->
<g id="node37" class="node">
<title>Node37</title>
<g id="a_node37"><a xlink:href="../../d1/da6/classdef_8h.html" target="_top" xlink:title=" ">
<polygon fill="#ffffff" stroke="#666666" points="688.5,-349 626.5,-349 626.5,-330 688.5,-330 688.5,-349"/>
<text text-anchor="middle" x="657.5" y="-337" font-family="Helvetica,sans-Serif" font-size="10.00" fill="#000000">classdef.h</text>
</a>
</g>
</g>
<!-- Node1&#45;&gt;Node37 -->
<g id="edge111" class="edge">
<title>Node1&#45;&gt;Node37</title>
<path fill="none" stroke="#63b8ff" d="M1463.4571,-667.4874C1260.4527,-657.718 408.5,-613.5014 408.5,-559.5 408.5,-559.5 408.5,-559.5 408.5,-449.5 408.5,-404.5684 545.8741,-365.6969 616.5483,-348.6719"/>
<polygon fill="#63b8ff" stroke="#63b8ff" points="617.5445,-352.0328 626.4674,-346.3204 615.9297,-345.2216 617.5445,-352.0328"/>
</g>
<!-- Node45 -->
<g id="node45" class="node">
<title>Node45</title>
<g id="a_node45"><a xlink:href="../../d1/de6/groupdef_8h.html" target="_top" xlink:title=" ">
<polygon fill="#ffffff" stroke="#666666" points="1395.5,-404 1333.5,-404 1333.5,-385 1395.5,-385 1395.5,-404"/>
<text text-anchor="middle" x="1364.5" y="-392" font-family="Helvetica,sans-Serif" font-size="10.00" fill="#000000">groupdef.h</text>
</a>
</g>
</g>
<!-- Node1&#45;&gt;Node45 -->
<g id="edge101" class="edge">
<title>Node1&#45;&gt;Node45</title>
<path fill="none" stroke="#63b8ff" d="M1489.0755,-659.8518C1461.6498,-643.2353 1411.5,-606.4341 1411.5,-559.5 1411.5,-559.5 1411.5,-559.5 1411.5,-504.5 1411.5,-469.7665 1391.4391,-433.4662 1377.5297,-412.4715"/>
<polygon fill="#63b8ff" stroke="#63b8ff" points="1380.3968,-410.4639 1371.8438,-404.2112 1374.6308,-414.4329 1380.3968,-410.4639"/>
</g>
<!-- Node47 -->
<g id="node47" class="node">
<title>Node47</title>
<g id="a_node47"><a xlink:href="../../d4/d3a/filedef_8h.html" target="_top" xlink:title=" ">
<polygon fill="#ffffff" stroke="#666666" points="870,-514 819,-514 819,-495 870,-495 870,-514"/>
<text text-anchor="middle" x="844.5" y="-502" font-family="Helvetica,sans-Serif" font-size="10.00" fill="#000000">filedef.h</text>
</a>
</g>
</g>
<!-- Node1&#45;&gt;Node47 -->
<g id="edge112" class="edge">
<title>Node1&#45;&gt;Node47</title>
<path fill="none" stroke="#63b8ff" d="M1463.4665,-667.9018C1383.1538,-664.3084 1205.2824,-653.4653 1058.5,-624 976.0681,-607.4525 941.9973,-622.9346 877.5,-569 863.6594,-557.426 854.9686,-538.5728 850.0019,-524.2311"/>
<polygon fill="#63b8ff" stroke="#63b8ff" points="853.233,-522.8368 846.9061,-514.3385 846.5525,-524.9275 853.233,-522.8368"/>
</g>
<!-- Node48 -->
<g id="node48" class="node">
<title>Node48</title>
<g id="a_node48"><a xlink:href="../../d7/d97/namespacedef_8h.html" target="_top" xlink:title=" ">
<polygon fill="#ffffff" stroke="#666666" points="976,-569 887,-569 887,-550 976,-550 976,-569"/>
<text text-anchor="middle" x="931.5" y="-557" font-family="Helvetica,sans-Serif" font-size="10.00" fill="#000000">namespacedef.h</text>
</a>
</g>
</g>
<!-- Node1&#45;&gt;Node48 -->
<g id="edge118" class="edge">
<title>Node1&#45;&gt;Node48</title>
<path fill="none" stroke="#63b8ff" d="M1463.2371,-667.0661C1392.5154,-662.4705 1248.047,-650.495 1128.5,-624 1069.9606,-611.026 1004.175,-587.6191 965.371,-572.8548"/>
<polygon fill="#63b8ff" stroke="#63b8ff" points="966.2291,-569.4351 955.639,-569.1173 963.7195,-575.9698 966.2291,-569.4351"/>
</g>
<!-- Node49 -->
<g id="node49" class="node">
<title>Node49</title>
<g id="a_node49"><a xlink:href="../../d8/d3c/util_8h.html" target="_top" xlink:title="A bunch of utility functions.">
<polygon fill="#ffffff" stroke="#666666" points="1573.5,-624 1535.5,-624 1535.5,-605 1573.5,-605 1573.5,-624"/>
<text text-anchor="middle" x="1554.5" y="-612" font-family="Helvetica,sans-Serif" font-size="10.00" fill="#000000">util.h</text>
</a>
</g>
</g>
<!-- Node1&#45;&gt;Node49 -->
<g id="edge124" class="edge">
<title>Node1&#45;&gt;Node49</title>
<path fill="none" stroke="#63b8ff" d="M1514.861,-659.9197C1521.5919,-652.2072 1531.2297,-641.1639 1539.3164,-631.8978"/>
<polygon fill="#63b8ff" stroke="#63b8ff" points="1541.9733,-634.1765 1545.9116,-624.3408 1536.6993,-629.5737 1541.9733,-634.1765"/>
</g>
<!-- Node59 -->
<g id="node59" class="node">
<title>Node59</title>
<g id="a_node59"><a xlink:href="../../d4/d7d/textstream_8h.html" target="_top" xlink:title=" ">
<polygon fill="#ffffff" stroke="#666666" points="2373,-239 2302,-239 2302,-220 2373,-220 2373,-239"/>
<text text-anchor="middle" x="2337.5" y="-227" font-family="Helvetica,sans-Serif" font-size="10.00" fill="#000000">textstream.h</text>
</a>
</g>
</g>
<!-- Node1&#45;&gt;Node59 -->
<g id="edge172" class="edge">
<title>Node1&#45;&gt;Node59</title>
<path fill="none" stroke="#63b8ff" d="M1549.6731,-668.4786C1692.1461,-664.8592 2141.6524,-651.3681 2200.5,-624 2236.5545,-607.2322 2262.5,-599.2629 2262.5,-559.5 2262.5,-559.5 2262.5,-559.5 2262.5,-339.5 2262.5,-300.593 2294.9261,-265.2929 2317.1359,-245.6778"/>
<polygon fill="#63b8ff" stroke="#63b8ff" points="2319.4243,-248.3263 2324.7773,-239.1832 2314.8909,-242.9925 2319.4243,-248.3263"/>
</g>
<!-- Node6 -->
<g id="node6" class="node">
<title>Node6</title>
<g id="a_node6"><a xlink:title=" ">
<polygon fill="#e0e0e0" stroke="#999999" points="1390.5,-129 1338.5,-129 1338.5,-110 1390.5,-110 1390.5,-129"/>
<text text-anchor="middle" x="1364.5" y="-117" font-family="Helvetica,sans-Serif" font-size="10.00" fill="#000000">memory</text>
</a>
</g>
</g>
<!-- Node5&#45;&gt;Node6 -->
<g id="edge5" class="edge">
<title>Node5&#45;&gt;Node6</title>
<path fill="none" stroke="#63b8ff" d="M2157.8032,-166.6522C2154.6779,-166.0106 2151.5344,-165.4408 2148.5,-165 1828.7918,-118.5624 1743.7516,-163.1642 1422.5,-129 1415.4784,-128.2533 1408.0146,-127.216 1400.8608,-126.0999"/>
<polygon fill="#63b8ff" stroke="#63b8ff" points="1401.1236,-122.5964 1390.6892,-124.4329 1399.9915,-129.5042 1401.1236,-122.5964"/>
</g>
<!-- Node7 -->
<g id="node7" class="node">
<title>Node7</title>
<g id="a_node7"><a xlink:href="../../d7/d5c/qcstring_8h.html" target="_top" xlink:title=" ">
<polygon fill="#ffffff" stroke="#666666" points="1765,-129 1706,-129 1706,-110 1765,-110 1765,-129"/>
<text text-anchor="middle" x="1735.5" y="-117" font-family="Helvetica,sans-Serif" font-size="10.00" fill="#000000">qcstring.h</text>
</a>
</g>
</g>
<!-- Node5&#45;&gt;Node7 -->
<g id="edge6" class="edge">
<title>Node5&#45;&gt;Node7</title>
<path fill="none" stroke="#63b8ff" d="M2157.7731,-166.8397C2154.6536,-166.1615 2151.5198,-165.5318 2148.5,-165 2012.738,-141.0897 1849.5226,-127.5222 1775.4944,-122.1799"/>
<polygon fill="#63b8ff" stroke="#63b8ff" points="1775.4561,-118.6685 1765.2332,-121.4511 1774.9601,-125.6509 1775.4561,-118.6685"/>
</g>
<!-- Node8 -->
<g id="node8" class="node">
<title>Node8</title>
<g id="a_node8"><a xlink:title=" ">
<polygon fill="#e0e0e0" stroke="#999999" points="1535,-19 1494,-19 1494,0 1535,0 1535,-19"/>
<text text-anchor="middle" x="1514.5" y="-7" font-family="Helvetica,sans-Serif" font-size="10.00" fill="#000000">string</text>
</a>
</g>
</g>
<!-- Node7&#45;&gt;Node8 -->
<g id="edge7" class="edge">
<title>Node7&#45;&gt;Node8</title>
<path fill="none" stroke="#63b8ff" d="M1713.4661,-109.9503C1693.0792,-101.0024 1662.0125,-87.0819 1635.5,-74 1602.3308,-57.6335 1564.852,-37.374 1540.5134,-23.976"/>
<polygon fill="#63b8ff" stroke="#63b8ff" points="1542.0022,-20.7999 1531.5565,-19.0284 1538.6175,-26.9273 1542.0022,-20.7999"/>
</g>
<!-- Node9 -->
<g id="node9" class="node">
<title>Node9</title>
<g id="a_node9"><a xlink:title=" ">
<polygon fill="#e0e0e0" stroke="#999999" points="1103.5,-74 1047.5,-74 1047.5,-55 1103.5,-55 1103.5,-74"/>
<text text-anchor="middle" x="1075.5" y="-62" font-family="Helvetica,sans-Serif" font-size="10.00" fill="#000000">algorithm</text>
</a>
</g>
</g>
<!-- Node7&#45;&gt;Node9 -->
<g id="edge8" class="edge">
<title>Node7&#45;&gt;Node9</title>
<path fill="none" stroke="#63b8ff" d="M1705.859,-117.0299C1598.9709,-108.1226 1233.3426,-77.6536 1113.7184,-67.6849"/>
<polygon fill="#63b8ff" stroke="#63b8ff" points="1113.8295,-64.1821 1103.5734,-66.8394 1113.2481,-71.1579 1113.8295,-64.1821"/>
</g>
<!-- Node10 -->
<g id="node10" class="node">
<title>Node10</title>
<g id="a_node10"><a xlink:title=" ">
<polygon fill="#e0e0e0" stroke="#999999" points="1588.5,-74 1542.5,-74 1542.5,-55 1588.5,-55 1588.5,-74"/>
<text text-anchor="middle" x="1565.5" y="-62" font-family="Helvetica,sans-Serif" font-size="10.00" fill="#000000">cctype</text>
</a>
</g>
</g>
<!-- Node7&#45;&gt;Node10 -->
<g id="edge9" class="edge">
<title>Node7&#45;&gt;Node10</title>
<path fill="none" stroke="#63b8ff" d="M1705.8883,-109.9197C1675.7587,-100.1719 1629.1837,-85.1036 1598.0391,-75.0274"/>
<polygon fill="#63b8ff" stroke="#63b8ff" points="1599.1017,-71.6926 1588.5098,-71.9444 1596.9469,-78.3527 1599.1017,-71.6926"/>
</g>
<!-- Node11 -->
<g id="node11" class="node">
<title>Node11</title>
<g id="a_node11"><a xlink:title=" ">
<polygon fill="#e0e0e0" stroke="#999999" points="1690.5,-74 1644.5,-74 1644.5,-55 1690.5,-55 1690.5,-74"/>
<text text-anchor="middle" x="1667.5" y="-62" font-family="Helvetica,sans-Serif" font-size="10.00" fill="#000000">cstring</text>
</a>
</g>
</g>
<!-- Node7&#45;&gt;Node11 -->
<g id="edge10" class="edge">
<title>Node7&#45;&gt;Node11</title>
<path fill="none" stroke="#63b8ff" d="M1723.6553,-109.9197C1713.7345,-101.8956 1699.3562,-90.2661 1687.6326,-80.7837"/>
<polygon fill="#63b8ff" stroke="#63b8ff" points="1689.643,-77.9083 1679.6668,-74.3408 1685.2409,-83.3509 1689.643,-77.9083"/>
</g>
<!-- Node12 -->
<g id="node12" class="node">
<title>Node12</title>
<g id="a_node12"><a xlink:title=" ">
<polygon fill="#e0e0e0" stroke="#999999" points="2095,-74 2052,-74 2052,-55 2095,-55 2095,-74"/>
<text text-anchor="middle" x="2073.5" y="-62" font-family="Helvetica,sans-Serif" font-size="10.00" fill="#000000">cstdio</text>
</a>
</g>
</g>
<!-- Node7&#45;&gt;Node12 -->
<g id="edge11" class="edge">
<title>Node7&#45;&gt;Node12</title>
<path fill="none" stroke="#63b8ff" d="M1765.199,-114.6673C1828.5261,-104.3626 1976.3578,-80.3072 2041.5957,-69.6915"/>
<polygon fill="#63b8ff" stroke="#63b8ff" points="2042.3863,-73.109 2051.6943,-68.0483 2041.262,-66.1999 2042.3863,-73.109"/>
</g>
<!-- Node13 -->
<g id="node13" class="node">
<title>Node13</title>
<g id="a_node13"><a xlink:title=" ">
<polygon fill="#e0e0e0" stroke="#999999" points="1754,-74 1709,-74 1709,-55 1754,-55 1754,-74"/>
<text text-anchor="middle" x="1731.5" y="-62" font-family="Helvetica,sans-Serif" font-size="10.00" fill="#000000">cstdlib</text>
</a>
</g>
</g>
<!-- Node7&#45;&gt;Node13 -->
<g id="edge12" class="edge">
<title>Node7&#45;&gt;Node13</title>
<path fill="none" stroke="#63b8ff" d="M1734.8033,-109.9197C1734.2933,-102.9083 1733.5832,-93.1442 1732.952,-84.4652"/>
<polygon fill="#63b8ff" stroke="#63b8ff" points="1736.4319,-84.0606 1732.2157,-74.3408 1729.4504,-84.5684 1736.4319,-84.0606"/>
</g>
<!-- Node14 -->
<g id="node14" class="node">
<title>Node14</title>
<g id="a_node14"><a xlink:title=" ">
<polygon fill="#e0e0e0" stroke="#999999" points="1935.5,-19 1889.5,-19 1889.5,0 1935.5,0 1935.5,-19"/>
<text text-anchor="middle" x="1912.5" y="-7" font-family="Helvetica,sans-Serif" font-size="10.00" fill="#000000">cstdint</text>
</a>
</g>
</g>
<!-- Node7&#45;&gt;Node14 -->
<g id="edge13" class="edge">
<title>Node7&#45;&gt;Node14</title>
<path fill="none" stroke="#63b8ff" d="M1765.3235,-114.3295C1805.6131,-106.7788 1874.4754,-91.6925 1892.5,-74 1904.3834,-62.3355 1909.237,-43.7602 1911.2034,-29.5329"/>
<polygon fill="#63b8ff" stroke="#63b8ff" points="1914.7172,-29.5714 1912.2405,-19.2702 1907.7527,-28.8676 1914.7172,-29.5714"/>
</g>
<!-- Node15 -->
<g id="node15" class="node">
<title>Node15</title>
<g id="a_node15"><a xlink:title=" ">
<polygon fill="#e0e0e0" stroke="#999999" points="1824.5,-74 1772.5,-74 1772.5,-55 1824.5,-55 1824.5,-74"/>
<text text-anchor="middle" x="1798.5" y="-62" font-family="Helvetica,sans-Serif" font-size="10.00" fill="#000000">ostream</text>
</a>
</g>
</g>
<!-- Node7&#45;&gt;Node15 -->
<g id="edge14" class="edge">
<title>Node7&#45;&gt;Node15</title>
<path fill="none" stroke="#63b8ff" d="M1746.4738,-109.9197C1755.5758,-101.9735 1768.7279,-90.4916 1779.5307,-81.0605"/>
<polygon fill="#63b8ff" stroke="#63b8ff" points="1781.9964,-83.5541 1787.2278,-74.3408 1777.3928,-78.2808 1781.9964,-83.5541"/>
</g>
<!-- Node16 -->
<g id="node16" class="node">
<title>Node16</title>
<g id="a_node16"><a xlink:href="../../db/d7c/utf8_8h.html" target="_top" xlink:title="Various UTF8 related helper functions.">
<polygon fill="#ffffff" stroke="#666666" points="1884,-74 1843,-74 1843,-55 1884,-55 1884,-74"/>
<text text-anchor="middle" x="1863.5" y="-62" font-family="Helvetica,sans-Serif" font-size="10.00" fill="#000000">utf8.h</text>
</a>
</g>
</g>
<!-- Node7&#45;&gt;Node16 -->
<g id="edge15" class="edge">
<title>Node7&#45;&gt;Node16</title>
<path fill="none" stroke="#63b8ff" d="M1757.7959,-109.9197C1778.7288,-100.9251 1810.2045,-87.4004 1833.3671,-77.4477"/>
<polygon fill="#63b8ff" stroke="#63b8ff" points="1834.924,-80.5882 1842.73,-73.4246 1832.1605,-74.1568 1834.924,-80.5882"/>
</g>
<!-- Node16&#45;&gt;Node8 -->
<g id="edge17" class="edge">
<title>Node16&#45;&gt;Node8</title>
<path fill="none" stroke="#63b8ff" d="M1842.9662,-57.5061C1839.8188,-56.5773 1836.5894,-55.7044 1833.5,-55 1729.2261,-31.2246 1602.7883,-17.5845 1545.4436,-12.2013"/>
<polygon fill="#63b8ff" stroke="#63b8ff" points="1545.5202,-8.6936 1535.2416,-11.2628 1544.8789,-15.6642 1545.5202,-8.6936"/>
</g>
<!-- Node16&#45;&gt;Node14 -->
<g id="edge16" class="edge">
<title>Node16&#45;&gt;Node14</title>
<path fill="none" stroke="#63b8ff" d="M1872.0351,-54.9197C1878.9063,-47.2072 1888.7449,-36.1639 1897.0001,-26.8978"/>
<polygon fill="#63b8ff" stroke="#63b8ff" points="1899.6939,-29.1357 1903.7327,-19.3408 1894.4673,-24.4792 1899.6939,-29.1357"/>
</g>
<!-- Node18 -->
<g id="node18" class="node">
<title>Node18</title>
<g id="a_node18"><a xlink:title=" ">
<polygon fill="#e0e0e0" stroke="#999999" points="2647.5,-569 2567.5,-569 2567.5,-550 2647.5,-550 2647.5,-569"/>
<text text-anchor="middle" x="2607.5" y="-557" font-family="Helvetica,sans-Serif" font-size="10.00" fill="#000000">configvalues.h</text>
</a>
</g>
</g>
<!-- Node17&#45;&gt;Node18 -->
<g id="edge19" class="edge">
<title>Node17&#45;&gt;Node18</title>
<path fill="none" stroke="#63b8ff" d="M2582.7256,-604.9197C2586.72,-597.5967 2592.3522,-587.2709 2597.2374,-578.3147"/>
<polygon fill="#63b8ff" stroke="#63b8ff" points="2600.4163,-579.7958 2602.1323,-569.3408 2594.2711,-576.4438 2600.4163,-579.7958"/>
</g>
<!-- Node19&#45;&gt;Node7 -->
<g id="edge22" class="edge">
<title>Node19&#45;&gt;Node7</title>
<path fill="none" stroke="#63b8ff" d="M2471.5,-604.7884C2471.5,-585.6162 2471.5,-541.5486 2471.5,-504.5 2471.5,-504.5 2471.5,-504.5 2471.5,-229.5 2471.5,-195.7683 2460.4236,-182.3567 2431.5,-165 2375.2106,-131.2213 1914.8813,-122.0209 1775.4039,-119.9969"/>
<polygon fill="#63b8ff" stroke="#63b8ff" points="1775.2172,-116.494 1765.1689,-119.853 1775.1187,-123.4933 1775.2172,-116.494"/>
</g>
<!-- Node20 -->
<g id="node20" class="node">
<title>Node20</title>
<g id="a_node20"><a xlink:title=" ">
<polygon fill="#e0e0e0" stroke="#999999" points="2549,-569 2500,-569 2500,-550 2549,-550 2549,-569"/>
<text text-anchor="middle" x="2524.5" y="-557" font-family="Helvetica,sans-Serif" font-size="10.00" fill="#000000">cstdarg</text>
</a>
</g>
</g>
<!-- Node19&#45;&gt;Node20 -->
<g id="edge21" class="edge">
<title>Node19&#45;&gt;Node20</title>
<path fill="none" stroke="#63b8ff" d="M2480.7319,-604.9197C2488.2391,-597.1293 2499.021,-585.9405 2508.0049,-576.6176"/>
<polygon fill="#63b8ff" stroke="#63b8ff" points="2510.5983,-578.9703 2515.017,-569.3408 2505.5578,-574.113 2510.5983,-578.9703"/>
</g>
<!-- Node22 -->
<g id="node22" class="node">
<title>Node22</title>
<g id="a_node22"><a xlink:href="../../d5/d75/containers_8h.html" target="_top" xlink:title=" ">
<polygon fill="#ffffff" stroke="#666666" points="458.5,-294 388.5,-294 388.5,-275 458.5,-275 458.5,-294"/>
<text text-anchor="middle" x="423.5" y="-282" font-family="Helvetica,sans-Serif" font-size="10.00" fill="#000000">containers.h</text>
</a>
</g>
</g>
<!-- Node21&#45;&gt;Node22 -->
<g id="edge24" class="edge">
<title>Node21&#45;&gt;Node22</title>
<path fill="none" stroke="#63b8ff" d="M349.7353,-494.7397C350.2292,-481.98 351.7594,-459.0168 356.5,-440 369.4116,-388.2052 397.7174,-331.6493 413.0815,-303.1477"/>
<polygon fill="#63b8ff" stroke="#63b8ff" points="416.1986,-304.7425 417.9298,-294.29 410.0582,-301.3815 416.1986,-304.7425"/>
</g>
<!-- Node27 -->
<g id="node27" class="node">
<title>Node27</title>
<g id="a_node27"><a xlink:href="../../d9/d11/membergroup_8h.html" target="_top" xlink:title=" ">
<polygon fill="#ffffff" stroke="#666666" points="1034.5,-294 950.5,-294 950.5,-275 1034.5,-275 1034.5,-294"/>
<text text-anchor="middle" x="992.5" y="-282" font-family="Helvetica,sans-Serif" font-size="10.00" fill="#000000">membergroup.h</text>
</a>
</g>
</g>
<!-- Node21&#45;&gt;Node27 -->
<g id="edge32" class="edge">
<title>Node21&#45;&gt;Node27</title>
<path fill="none" stroke="#63b8ff" d="M380.7503,-496.5969C414.426,-487.9383 469.5144,-473.3619 516.5,-459 661.9305,-414.5468 698.4075,-403.1835 840.5,-349 883.0382,-332.7791 931.2952,-311.8612 961.8048,-298.3164"/>
<polygon fill="#63b8ff" stroke="#63b8ff" points="963.3478,-301.4607 971.0572,-294.1932 960.4984,-295.0669 963.3478,-301.4607"/>
</g>
<!-- Node31 -->
<g id="node31" class="node">
<title>Node31</title>
<g id="a_node31"><a xlink:href="../../d6/d15/dirdef_8h.html" target="_top" xlink:title=" ">
<polygon fill="#ffffff" stroke="#666666" points="832,-349 783,-349 783,-330 832,-330 832,-349"/>
<text text-anchor="middle" x="807.5" y="-337" font-family="Helvetica,sans-Serif" font-size="10.00" fill="#000000">dirdef.h</text>
</a>
</g>
</g>
<!-- Node21&#45;&gt;Node31 -->
<g id="edge51" class="edge">
<title>Node21&#45;&gt;Node31</title>
<path fill="none" stroke="#63b8ff" d="M376.1037,-494.9157C454.691,-466.6037 685.7586,-383.3588 773.3283,-351.8107"/>
<polygon fill="#63b8ff" stroke="#63b8ff" points="774.5749,-355.0819 782.7967,-348.3997 772.2023,-348.4963 774.5749,-355.0819"/>
</g>
<!-- Node33 -->
<g id="node33" class="node">
<title>Node33</title>
<g id="a_node33"><a xlink:href="../../dd/d78/memberlist_8h.html" target="_top" xlink:title=" ">
<polygon fill="#ffffff" stroke="#666666" points="832,-459 759,-459 759,-440 832,-440 832,-459"/>
<text text-anchor="middle" x="795.5" y="-447" font-family="Helvetica,sans-Serif" font-size="10.00" fill="#000000">memberlist.h</text>
</a>
</g>
</g>
<!-- Node21&#45;&gt;Node33 -->
<g id="edge60" class="edge">
<title>Node21&#45;&gt;Node33</title>
<path fill="none" stroke="#63b8ff" d="M380.5793,-501.6613C447.3762,-495.3976 609.5146,-479.3215 744.5,-459 745.9472,-458.7821 747.4162,-458.5536 748.8984,-458.3167"/>
<polygon fill="#63b8ff" stroke="#63b8ff" points="749.4992,-461.7649 758.7804,-456.6551 748.3385,-454.8618 749.4992,-461.7649"/>
</g>
<!-- Node38 -->
<g id="node38" class="node">
<title>Node38</title>
<g id="a_node38"><a xlink:href="../../df/d67/define_8h.html" target="_top" xlink:title=" ">
<polygon fill="#ffffff" stroke="#666666" points="494,-349 443,-349 443,-330 494,-330 494,-349"/>
<text text-anchor="middle" x="468.5" y="-337" font-family="Helvetica,sans-Serif" font-size="10.00" fill="#000000">define.h</text>
</a>
</g>
</g>
<!-- Node21&#45;&gt;Node38 -->
<g id="edge82" class="edge">
<title>Node21&#45;&gt;Node38</title>
<path fill="none" stroke="#63b8ff" d="M350.9672,-494.7565C354.6894,-472.8995 366.2833,-419.1999 394.5,-385 405.5226,-371.6401 421.5481,-361.1101 435.8694,-353.5596"/>
<polygon fill="#63b8ff" stroke="#63b8ff" points="437.5747,-356.6203 444.9647,-349.0283 434.4532,-350.3548 437.5747,-356.6203"/>
</g>
<!-- Node39 -->
<g id="node39" class="node">
<title>Node39</title>
<g id="a_node39"><a xlink:href="../../d3/d26/cache_8h.html" target="_top" xlink:title=" ">
<polygon fill="#ffffff" stroke="#666666" points="200,-184 149,-184 149,-165 200,-165 200,-184"/>
<text text-anchor="middle" x="174.5" y="-172" font-family="Helvetica,sans-Serif" font-size="10.00" fill="#000000">cache.h</text>
</a>
</g>
</g>
<!-- Node21&#45;&gt;Node39 -->
<g id="edge89" class="edge">
<title>Node21&#45;&gt;Node39</title>
<path fill="none" stroke="#63b8ff" d="M335.947,-494.9473C324.2334,-486.3207 307.2308,-472.8833 294.5,-459 237.159,-396.4681 227.9046,-373.5839 198.5,-294 189.7186,-270.2332 188.5945,-263.8198 183.5,-239 180.4406,-224.0948 178.1106,-207.0358 176.5886,-194.2067"/>
<polygon fill="#63b8ff" stroke="#63b8ff" points="180.057,-193.728 175.4611,-184.1819 173.1008,-194.5105 180.057,-193.728"/>
</g>
<!-- Node44 -->
<g id="node44" class="node">
<title>Node44</title>
<g id="a_node44"><a xlink:href="../../d7/ddd/symbolmap_8h.html" target="_top" xlink:title=" ">
<polygon fill="#ffffff" stroke="#666666" points="293,-184 218,-184 218,-165 293,-165 293,-184"/>
<text text-anchor="middle" x="255.5" y="-172" font-family="Helvetica,sans-Serif" font-size="10.00" fill="#000000">symbolmap.h</text>
</a>
</g>
</g>
<!-- Node21&#45;&gt;Node44 -->
<g id="edge95" class="edge">
<title>Node21&#45;&gt;Node44</title>
<path fill="none" stroke="#63b8ff" d="M340.8875,-494.8293C312.2817,-461.9748 220.4937,-350.4776 189.5,-239 187.238,-230.8641 185.5735,-227.476 189.5,-220 196.582,-206.5159 209.6704,-196.2454 222.3356,-188.9051"/>
<polygon fill="#63b8ff" stroke="#63b8ff" points="224.2156,-191.8691 231.3911,-184.0741 220.9207,-185.6931 224.2156,-191.8691"/>
</g>
<!-- Node22&#45;&gt;Node2 -->
<g id="edge27" class="edge">
<title>Node22&#45;&gt;Node2</title>
<path fill="none" stroke="#63b8ff" d="M388.267,-276.4181C351.6481,-267.8375 292.7695,-253.5327 242.5,-239 241.2403,-238.6358 239.9532,-238.2533 238.6556,-237.8593"/>
<polygon fill="#63b8ff" stroke="#63b8ff" points="239.3792,-234.4171 228.789,-234.7312 237.2636,-241.0898 239.3792,-234.4171"/>
</g>
<!-- Node22&#45;&gt;Node3 -->
<g id="edge31" class="edge">
<title>Node22&#45;&gt;Node3</title>
<path fill="none" stroke="#63b8ff" d="M458.5272,-283.0147C644.5116,-275.1279 1514.4817,-238.2363 1689.7028,-230.806"/>
<polygon fill="#63b8ff" stroke="#63b8ff" points="1689.9397,-234.2992 1699.7824,-230.3785 1689.6431,-227.3055 1689.9397,-234.2992"/>
</g>
<!-- Node22&#45;&gt;Node8 -->
<g id="edge26" class="edge">
<title>Node22&#45;&gt;Node8</title>
<path fill="none" stroke="#63b8ff" d="M395.9703,-274.9898C325.0434,-250.4581 141.4482,-186.756 139.5,-184 120.5154,-157.1436 118.0772,-134.9548 139.5,-110 244.6422,12.4771 337.8635,-70.8558 498.5,-55 885.6802,-16.7829 1359.0654,-10.646 1483.4034,-9.678"/>
<polygon fill="#63b8ff" stroke="#63b8ff" points="1483.7211,-13.1759 1493.6955,-9.6037 1483.6705,-6.176 1483.7211,-13.1759"/>
</g>
<!-- Node23 -->
<g id="node23" class="node">
<title>Node23</title>
<g id="a_node23"><a xlink:title=" ">
<polygon fill="#e0e0e0" stroke="#999999" points="788.5,-129 744.5,-129 744.5,-110 788.5,-110 788.5,-129"/>
<text text-anchor="middle" x="766.5" y="-117" font-family="Helvetica,sans-Serif" font-size="10.00" fill="#000000">vector</text>
</a>
</g>
</g>
<!-- Node22&#45;&gt;Node23 -->
<g id="edge25" class="edge">
<title>Node22&#45;&gt;Node23</title>
<path fill="none" stroke="#63b8ff" d="M428.8798,-274.833C442.3238,-251.6638 479.8304,-192.8274 528.5,-165 563.1517,-145.1875 677.2123,-129.7459 733.9108,-123.0822"/>
<polygon fill="#63b8ff" stroke="#63b8ff" points="734.5889,-126.5273 744.1219,-121.9043 733.7867,-119.5734 734.5889,-126.5273"/>
</g>
<!-- Node24 -->
<g id="node24" class="node">
<title>Node24</title>
<g id="a_node24"><a xlink:title=" ">
<polygon fill="#e0e0e0" stroke="#999999" points="758,-239 723,-239 723,-220 758,-220 758,-239"/>
<text text-anchor="middle" x="740.5" y="-227" font-family="Helvetica,sans-Serif" font-size="10.00" fill="#000000">map</text>
</a>
</g>
</g>
<!-- Node22&#45;&gt;Node24 -->
<g id="edge28" class="edge">
<title>Node22&#45;&gt;Node24</title>
<path fill="none" stroke="#63b8ff" d="M458.6357,-278.4039C522.2213,-267.3717 655.1279,-244.3122 712.8045,-234.3052"/>
<polygon fill="#63b8ff" stroke="#63b8ff" points="713.4104,-237.7525 722.6649,-232.5944 712.2137,-230.8555 713.4104,-237.7525"/>
</g>
<!-- Node25 -->
<g id="node25" class="node">
<title>Node25</title>
<g id="a_node25"><a xlink:title=" ">
<polygon fill="#e0e0e0" stroke="#999999" points="438.5,-239 360.5,-239 360.5,-220 438.5,-220 438.5,-239"/>
<text text-anchor="middle" x="399.5" y="-227" font-family="Helvetica,sans-Serif" font-size="10.00" fill="#000000">unordered_set</text>
</a>
</g>
</g>
<!-- Node22&#45;&gt;Node25 -->
<g id="edge29" class="edge">
<title>Node22&#45;&gt;Node25</title>
<path fill="none" stroke="#63b8ff" d="M419.3195,-274.9197C416.158,-267.6746 411.7139,-257.4903 407.835,-248.601"/>
<polygon fill="#63b8ff" stroke="#63b8ff" points="411.0016,-247.1064 403.7942,-239.3408 404.5858,-249.9061 411.0016,-247.1064"/>
</g>
<!-- Node26 -->
<g id="node26" class="node">
<title>Node26</title>
<g id="a_node26"><a xlink:title=" ">
<polygon fill="#e0e0e0" stroke="#999999" points="476,-129 393,-129 393,-110 476,-110 476,-129"/>
<text text-anchor="middle" x="434.5" y="-117" font-family="Helvetica,sans-Serif" font-size="10.00" fill="#000000">unordered_map</text>
</a>
</g>
</g>
<!-- Node22&#45;&gt;Node26 -->
<g id="edge30" class="edge">
<title>Node22&#45;&gt;Node26</title>
<path fill="none" stroke="#63b8ff" d="M395.8169,-274.8487C379.7677,-267.6581 360.9195,-256.0953 351.5,-239 347.4248,-231.604 348.6429,-227.9464 351.5,-220 358.3147,-201.0468 395.7845,-159.858 417.9818,-136.5214"/>
<polygon fill="#63b8ff" stroke="#63b8ff" points="420.7254,-138.7172 425.121,-129.0772 415.6732,-133.872 420.7254,-138.7172"/>
</g>
<!-- Node27&#45;&gt;Node6 -->
<g id="edge35" class="edge">
<title>Node27&#45;&gt;Node6</title>
<path fill="none" stroke="#63b8ff" d="M1034.6946,-275.6892C1063.9357,-268.4798 1103.1011,-256.5761 1134.5,-239 1178.4999,-214.3702 1176.4504,-189.5408 1220.5,-165 1254.7151,-145.9382 1298.0333,-133.6294 1328.1797,-126.6832"/>
<polygon fill="#63b8ff" stroke="#63b8ff" points="1329.2523,-130.0304 1338.2569,-124.4476 1327.7362,-123.1966 1329.2523,-130.0304"/>
</g>
<!-- Node27&#45;&gt;Node23 -->
<g id="edge33" class="edge">
<title>Node27&#45;&gt;Node23</title>
<path fill="none" stroke="#63b8ff" d="M954.9024,-274.9709C909.9406,-261.7422 835.1699,-233.6471 790.5,-184 779.2756,-171.525 773.1434,-153.3234 769.8944,-139.4342"/>
<polygon fill="#63b8ff" stroke="#63b8ff" points="773.2799,-138.5179 767.8647,-129.4115 766.4192,-139.9073 773.2799,-138.5179"/>
</g>
<!-- Node27&#45;&gt;Node24 -->
<g id="edge34" class="edge">
<title>Node27&#45;&gt;Node24</title>
<path fill="none" stroke="#63b8ff" d="M950.3209,-275.2942C898.5445,-263.9938 812.2086,-245.1507 768.1701,-235.5391"/>
<polygon fill="#63b8ff" stroke="#63b8ff" points="768.6989,-232.0722 758.1826,-233.3593 767.2062,-238.9112 768.6989,-232.0722"/>
</g>
<!-- Node28 -->
<g id="node28" class="node">
<title>Node28</title>
<g id="a_node28"><a xlink:href="../../d9/d49/types_8h.html" target="_top" xlink:title="This file contains a number of basic enums and types.">
<polygon fill="#ffffff" stroke="#666666" points="1464,-239 1415,-239 1415,-220 1464,-220 1464,-239"/>
<text text-anchor="middle" x="1439.5" y="-227" font-family="Helvetica,sans-Serif" font-size="10.00" fill="#000000">types.h</text>
</a>
</g>
</g>
<!-- Node27&#45;&gt;Node28 -->
<g id="edge36" class="edge">
<title>Node27&#45;&gt;Node28</title>
<path fill="none" stroke="#63b8ff" d="M1034.7625,-276.3927C1037.7156,-275.8986 1040.65,-275.4286 1043.5,-275 1176.3383,-255.0212 1335.409,-239.18 1404.553,-232.6886"/>
<polygon fill="#63b8ff" stroke="#63b8ff" points="1405.2283,-236.141 1414.8603,-231.7279 1404.5786,-229.1712 1405.2283,-236.141"/>
</g>
<!-- Node29 -->
<g id="node29" class="node">
<title>Node29</title>
<g id="a_node29"><a xlink:href="../../d1/d02/reflist_8h.html" target="_top" xlink:title=" ">
<polygon fill="#ffffff" stroke="#666666" points="1054,-239 1005,-239 1005,-220 1054,-220 1054,-239"/>
<text text-anchor="middle" x="1029.5" y="-227" font-family="Helvetica,sans-Serif" font-size="10.00" fill="#000000">reflist.h</text>
</a>
</g>
</g>
<!-- Node27&#45;&gt;Node29 -->
<g id="edge38" class="edge">
<title>Node27&#45;&gt;Node29</title>
<path fill="none" stroke="#63b8ff" d="M998.9449,-274.9197C1003.9761,-267.4409 1011.1143,-256.8301 1017.2261,-247.745"/>
<polygon fill="#63b8ff" stroke="#63b8ff" points="1020.202,-249.5917 1022.8798,-239.3408 1014.394,-245.6844 1020.202,-249.5917"/>
</g>
<!-- Node28&#45;&gt;Node7 -->
<g id="edge37" class="edge">
<title>Node28&#45;&gt;Node7</title>
<path fill="none" stroke="#63b8ff" d="M1464.3867,-228.4574C1524.2146,-225.4728 1673.9328,-215.0157 1711.5,-184 1724.8626,-172.9677 1730.7875,-153.7341 1733.4133,-139.1326"/>
<polygon fill="#63b8ff" stroke="#63b8ff" points="1736.8996,-139.4762 1734.8467,-129.0821 1729.9698,-138.4878 1736.8996,-139.4762"/>
</g>
<!-- Node29&#45;&gt;Node6 -->
<g id="edge41" class="edge">
<title>Node29&#45;&gt;Node6</title>
<path fill="none" stroke="#63b8ff" d="M1043.3341,-219.8693C1064.2705,-205.7396 1105.6873,-179.5006 1144.5,-165 1206.9062,-141.6848 1283.9741,-129.2266 1328.3572,-123.5169"/>
<polygon fill="#63b8ff" stroke="#63b8ff" points="1328.885,-126.9783 1338.377,-122.2716 1328.0216,-120.0317 1328.885,-126.9783"/>
</g>
<!-- Node29&#45;&gt;Node7 -->
<g id="edge42" class="edge">
<title>Node29&#45;&gt;Node7</title>
<path fill="none" stroke="#63b8ff" d="M1054.1722,-228.4526C1145.6053,-224.4077 1464.9172,-208.7858 1563.5,-184 1584.158,-178.8061 1587.6761,-172.7937 1607.5,-165 1637.3405,-153.2683 1671.5865,-141.1648 1697.1428,-132.3931"/>
<polygon fill="#63b8ff" stroke="#63b8ff" points="1698.4979,-135.6288 1706.8301,-129.0847 1696.2355,-129.0045 1698.4979,-135.6288"/>
</g>
<!-- Node29&#45;&gt;Node23 -->
<g id="edge39" class="edge">
<title>Node29&#45;&gt;Node23</title>
<path fill="none" stroke="#63b8ff" d="M1010.9968,-219.9017C985.2415,-206.717 936.96,-182.6336 894.5,-165 862.1963,-151.5843 824.3605,-138.4416 798.2451,-129.7584"/>
<polygon fill="#63b8ff" stroke="#63b8ff" points="799.0982,-126.3544 788.5051,-126.546 796.9056,-133.0021 799.0982,-126.3544"/>
</g>
<!-- Node29&#45;&gt;Node26 -->
<g id="edge40" class="edge">
<title>Node29&#45;&gt;Node26</title>
<path fill="none" stroke="#63b8ff" d="M1004.6911,-224.9135C915.3778,-208.4018 609.0549,-151.7707 486.1407,-129.047"/>
<polygon fill="#63b8ff" stroke="#63b8ff" points="486.6878,-125.5889 476.2182,-127.2126 485.4152,-132.4723 486.6878,-125.5889"/>
</g>
<!-- Node30 -->
<g id="node30" class="node">
<title>Node30</title>
<g id="a_node30"><a xlink:href="../../da/de1/linkedmap_8h.html" target="_top" xlink:title=" ">
<polygon fill="#ffffff" stroke="#666666" points="1054,-184 985,-184 985,-165 1054,-165 1054,-184"/>
<text text-anchor="middle" x="1019.5" y="-172" font-family="Helvetica,sans-Serif" font-size="10.00" fill="#000000">linkedmap.h</text>
</a>
</g>
</g>
<!-- Node29&#45;&gt;Node30 -->
<g id="edge43" class="edge">
<title>Node29&#45;&gt;Node30</title>
<path fill="none" stroke="#63b8ff" d="M1027.7581,-219.9197C1026.4833,-212.9083 1024.708,-203.1442 1023.13,-194.4652"/>
<polygon fill="#63b8ff" stroke="#63b8ff" points="1026.5217,-193.5534 1021.2892,-184.3408 1019.6346,-194.8057 1026.5217,-193.5534"/>
</g>
<!-- Node30&#45;&gt;Node6 -->
<g id="edge46" class="edge">
<title>Node30&#45;&gt;Node6</title>
<path fill="none" stroke="#63b8ff" d="M1054.1595,-168.9746C1119.6869,-158.5282 1261.1532,-135.9756 1328.0428,-125.312"/>
<polygon fill="#63b8ff" stroke="#63b8ff" points="1328.7905,-128.7371 1338.1148,-123.7063 1327.6884,-121.8244 1328.7905,-128.7371"/>
</g>
<!-- Node30&#45;&gt;Node7 -->
<g id="edge50" class="edge">
<title>Node30&#45;&gt;Node7</title>
<path fill="none" stroke="#63b8ff" d="M1054.0342,-171.8472C1173.4485,-162.6744 1568.5099,-132.3275 1695.6842,-122.5585"/>
<polygon fill="#63b8ff" stroke="#63b8ff" points="1696.06,-126.04 1705.7626,-121.7843 1695.5238,-119.0606 1696.06,-126.04"/>
</g>
<!-- Node30&#45;&gt;Node8 -->
<g id="edge47" class="edge">
<title>Node30&#45;&gt;Node8</title>
<path fill="none" stroke="#63b8ff" d="M1017.5513,-164.6703C1013.623,-141.6608 1007.5733,-84.0554 1038.5,-55 1070.9715,-24.4933 1383.7177,-13.1548 1483.8356,-10.2892"/>
<polygon fill="#63b8ff" stroke="#63b8ff" points="1484.01,-13.7858 1493.9089,-10.0092 1483.8155,-6.7885 1484.01,-13.7858"/>
</g>
<!-- Node30&#45;&gt;Node9 -->
<g id="edge48" class="edge">
<title>Node30&#45;&gt;Node9</title>
<path fill="none" stroke="#63b8ff" d="M1024.4696,-164.7382C1033.7916,-146.4271 1054.0411,-106.6514 1066.0401,-83.082"/>
<polygon fill="#63b8ff" stroke="#63b8ff" points="1069.2037,-84.5824 1070.6215,-74.0828 1062.9655,-81.4066 1069.2037,-84.5824"/>
</g>
<!-- Node30&#45;&gt;Node10 -->
<g id="edge49" class="edge">
<title>Node30&#45;&gt;Node10</title>
<path fill="none" stroke="#63b8ff" d="M1054.3336,-167.0785C1111.662,-154.9033 1229.5152,-130.0389 1329.5,-110 1401.8072,-95.5082 1486.7562,-79.3402 1532.4301,-70.7172"/>
<polygon fill="#63b8ff" stroke="#63b8ff" points="1533.1858,-74.1365 1542.364,-68.8439 1531.8886,-67.2577 1533.1858,-74.1365"/>
</g>
<!-- Node30&#45;&gt;Node23 -->
<g id="edge45" class="edge">
<title>Node30&#45;&gt;Node23</title>
<path fill="none" stroke="#63b8ff" d="M984.8519,-166.9678C935.6802,-156.2783 846.3356,-136.8556 798.5982,-126.4779"/>
<polygon fill="#63b8ff" stroke="#63b8ff" points="799.3096,-123.0508 788.7943,-124.3466 797.8226,-129.8911 799.3096,-123.0508"/>
</g>
<!-- Node30&#45;&gt;Node26 -->
<g id="edge44" class="edge">
<title>Node30&#45;&gt;Node26</title>
<path fill="none" stroke="#63b8ff" d="M984.7999,-170.569C968.8721,-168.8011 949.7347,-166.7282 932.5,-165 769.676,-148.6732 576.6532,-131.7229 486.1671,-123.918"/>
<polygon fill="#63b8ff" stroke="#63b8ff" points="486.4332,-120.428 476.1697,-123.0569 485.8325,-127.4022 486.4332,-120.428"/>
</g>
<!-- Node31&#45;&gt;Node7 -->
<g id="edge54" class="edge">
<title>Node31&#45;&gt;Node7</title>
<path fill="none" stroke="#63b8ff" d="M832.1182,-338.6778C887.1399,-336.2776 1023.7874,-327.1787 1132.5,-294 1150.9412,-288.3718 1153.3364,-281.468 1171.5,-275 1272.1435,-239.1612 1300.4341,-239.3567 1405.5,-220 1523.6918,-198.2251 1566.3148,-238.358 1673.5,-184 1694.3787,-173.4115 1712.1635,-152.9338 1723.2603,-137.8816"/>
<polygon fill="#63b8ff" stroke="#63b8ff" points="1726.3747,-139.5381 1729.2733,-129.3474 1720.6524,-135.5062 1726.3747,-139.5381"/>
</g>
<!-- Node31&#45;&gt;Node23 -->
<g id="edge52" class="edge">
<title>Node31&#45;&gt;Node23</title>
<path fill="none" stroke="#63b8ff" d="M805.2584,-329.7172C799.7028,-305.2539 785.0568,-239.4088 775.5,-184 772.9138,-169.0055 770.5595,-151.9511 768.908,-139.1464"/>
<polygon fill="#63b8ff" stroke="#63b8ff" points="772.3708,-138.631 767.6494,-129.1464 765.4256,-139.5052 772.3708,-138.631"/>
</g>
<!-- Node31&#45;&gt;Node24 -->
<g id="edge53" class="edge">
<title>Node31&#45;&gt;Node24</title>
<path fill="none" stroke="#63b8ff" d="M801.7089,-329.8694C794.1132,-317.25 780.3574,-294.4381 768.5,-275 763.0253,-266.0251 756.9097,-256.0783 751.7939,-247.7795"/>
<polygon fill="#63b8ff" stroke="#63b8ff" points="754.7603,-245.9218 746.5302,-239.2497 748.8033,-249.5979 754.7603,-245.9218"/>
</g>
<!-- Node31&#45;&gt;Node30 -->
<g id="edge55" class="edge">
<title>Node31&#45;&gt;Node30</title>
<path fill="none" stroke="#63b8ff" d="M819.8144,-329.9157C854.8687,-302.6329 955.4651,-224.3385 999.0053,-190.4511"/>
<polygon fill="#63b8ff" stroke="#63b8ff" points="1001.4098,-193.0148 1007.1516,-184.1107 997.1104,-187.4907 1001.4098,-193.0148"/>
</g>
<!-- Node32 -->
<g id="node32" class="node">
<title>Node32</title>
<g id="a_node32"><a xlink:href="../../df/da1/definition_8h.html" target="_top" xlink:title=" ">
<polygon fill="#ffffff" stroke="#666666" points="1244.5,-294 1180.5,-294 1180.5,-275 1244.5,-275 1244.5,-294"/>
<text text-anchor="middle" x="1212.5" y="-282" font-family="Helvetica,sans-Serif" font-size="10.00" fill="#000000">definition.h</text>
</a>
</g>
</g>
<!-- Node31&#45;&gt;Node32 -->
<g id="edge56" class="edge">
<title>Node31&#45;&gt;Node32</title>
<path fill="none" stroke="#63b8ff" d="M832.4054,-337.0164C890.9149,-331.0352 1041.6242,-314.7761 1166.5,-294 1167.7669,-293.7892 1169.0521,-293.5684 1170.3485,-293.3396"/>
<polygon fill="#63b8ff" stroke="#63b8ff" points="1171.2022,-296.7407 1180.3888,-291.4628 1169.9159,-289.8599 1171.2022,-296.7407"/>
</g>
<!-- Node32&#45;&gt;Node23 -->
<g id="edge57" class="edge">
<title>Node32&#45;&gt;Node23</title>
<path fill="none" stroke="#63b8ff" d="M1180.4899,-280.5874C1137.4836,-274.7053 1059.1012,-261.772 995.5,-239 916.3789,-210.6712 830.3802,-159.78 789.973,-134.5405"/>
<polygon fill="#63b8ff" stroke="#63b8ff" points="791.7121,-131.4996 781.3851,-129.1322 787.9818,-137.4228 791.7121,-131.4996"/>
</g>
<!-- Node32&#45;&gt;Node28 -->
<g id="edge58" class="edge">
<title>Node32&#45;&gt;Node28</title>
<path fill="none" stroke="#63b8ff" d="M1244.772,-276.7049C1282.2239,-267.655 1345.8397,-252.2718 1400.5,-239 1401.9391,-238.6506 1403.4079,-238.2937 1404.8918,-237.9331"/>
<polygon fill="#63b8ff" stroke="#63b8ff" points="1405.8546,-241.301 1414.7438,-235.5362 1404.1998,-234.4994 1405.8546,-241.301"/>
</g>
<!-- Node32&#45;&gt;Node29 -->
<g id="edge59" class="edge">
<title>Node32&#45;&gt;Node29</title>
<path fill="none" stroke="#63b8ff" d="M1180.6238,-274.9197C1148.0498,-265.1297 1097.6193,-249.973 1064.0929,-239.8968"/>
<polygon fill="#63b8ff" stroke="#63b8ff" points="1064.8536,-236.4708 1054.2694,-236.9444 1062.8388,-243.1746 1064.8536,-236.4708"/>
</g>
<!-- Node33&#45;&gt;Node9 -->
<g id="edge62" class="edge">
<title>Node33&#45;&gt;Node9</title>
<path fill="none" stroke="#63b8ff" d="M758.9793,-443.8255C715.2339,-436.3379 645.4632,-421.9787 626.5,-404 574.4268,-354.6305 597.6887,-184.3759 610.5,-165 657.7958,-93.4691 934.3092,-71.8576 1037.0679,-66.2459"/>
<polygon fill="#63b8ff" stroke="#63b8ff" points="1037.504,-69.7279 1047.3069,-65.7087 1037.1372,-62.7375 1037.504,-69.7279"/>
</g>
<!-- Node33&#45;&gt;Node23 -->
<g id="edge61" class="edge">
<title>Node33&#45;&gt;Node23</title>
<path fill="none" stroke="#63b8ff" d="M758.8413,-446.869C722.0554,-442.6875 665.1656,-431.8823 624.5,-404 599.5714,-386.9078 593.8471,-377.7439 584.5,-349 564.3364,-286.9931 510.2213,-290.951 629.5,-165 644.0084,-149.68 698.699,-134.8291 734.4373,-126.4579"/>
<polygon fill="#63b8ff" stroke="#63b8ff" points="735.4435,-129.8181 744.4098,-124.174 733.8808,-122.9948 735.4435,-129.8181"/>
</g>
<!-- Node33&#45;&gt;Node27 -->
<g id="edge81" class="edge">
<title>Node33&#45;&gt;Node27</title>
<path fill="none" stroke="#63b8ff" d="M805.3348,-439.8089C830.6845,-414.9017 897.9747,-349.2584 922.5,-330 936.6714,-318.872 953.5859,-307.8223 967.2378,-299.399"/>
<polygon fill="#63b8ff" stroke="#63b8ff" points="969.365,-302.202 976.094,-294.0183 965.7303,-296.2195 969.365,-302.202"/>
</g>
<!-- Node33&#45;&gt;Node28 -->
<g id="edge80" class="edge">
<title>Node33&#45;&gt;Node28</title>
<path fill="none" stroke="#63b8ff" d="M832.2807,-449.251C957.3871,-448.0672 1361.117,-441.3605 1404.5,-404 1449.4826,-365.2621 1446.6605,-286.3848 1442.4518,-249.4348"/>
<polygon fill="#63b8ff" stroke="#63b8ff" points="1445.9082,-248.872 1441.1525,-239.4045 1438.9662,-249.7713 1445.9082,-248.872"/>
</g>
<!-- Node33&#45;&gt;Node30 -->
<g id="edge79" class="edge">
<title>Node33&#45;&gt;Node30</title>
<path fill="none" stroke="#63b8ff" d="M789.7832,-439.8783C778.0194,-418.7163 753.7962,-367.0679 773.5,-330 815.4219,-251.1343 916.7455,-207.04 975.4453,-187.3011"/>
<polygon fill="#63b8ff" stroke="#63b8ff" points="976.7673,-190.5513 985.1852,-184.1178 974.5927,-183.8976 976.7673,-190.5513"/>
</g>
<!-- Node33&#45;&gt;Node34 -->
<g id="edge63" class="edge">
<title>Node33&#45;&gt;Node34</title>
<path fill="none" stroke="#63b8ff" d="M832.2665,-442.6262C837.0541,-441.7385 841.8935,-440.8449 846.5,-440 917.8872,-426.9066 1000.707,-412.0092 1051.3471,-402.9334"/>
<polygon fill="#63b8ff" stroke="#63b8ff" points="1052.1149,-406.3516 1061.341,-401.143 1050.8805,-399.4613 1052.1149,-406.3516"/>
</g>
<!-- Node34&#45;&gt;Node6 -->
<g id="edge65" class="edge">
<title>Node34&#45;&gt;Node6</title>
<path fill="none" stroke="#63b8ff" d="M1119.2185,-384.9826C1151.139,-369.5253 1212.898,-336.3797 1253.5,-294 1299.5348,-245.9496 1292.2542,-220.1434 1329.5,-165 1335.9585,-155.438 1343.7342,-145.2183 1350.3146,-136.8916"/>
<polygon fill="#63b8ff" stroke="#63b8ff" points="1353.1113,-138.9987 1356.634,-129.0066 1347.649,-134.621 1353.1113,-138.9987"/>
</g>
<!-- Node34&#45;&gt;Node23 -->
<g id="edge64" class="edge">
<title>Node34&#45;&gt;Node23</title>
<path fill="none" stroke="#63b8ff" d="M1061.4516,-393.4304C986.3801,-390.6128 819.5324,-380.8501 773.5,-349 721.5018,-313.0221 698.3071,-281.3791 713.5,-220 721.198,-188.9 740.4625,-156.8082 753.5177,-137.5021"/>
<polygon fill="#63b8ff" stroke="#63b8ff" points="756.516,-139.3208 759.35,-129.112 750.7683,-135.3253 756.516,-139.3208"/>
</g>
<!-- Node34&#45;&gt;Node28 -->
<g id="edge67" class="edge">
<title>Node34&#45;&gt;Node28</title>
<path fill="none" stroke="#63b8ff" d="M1135.8001,-389.1618C1177.3395,-382.5376 1246.0663,-369.5384 1302.5,-349 1352.375,-330.8486 1371.5487,-332.0998 1408.5,-294 1420.7691,-281.3496 1428.9592,-262.9162 1433.8238,-248.9919"/>
<polygon fill="#63b8ff" stroke="#63b8ff" points="1437.181,-249.9847 1436.9081,-239.3934 1430.5166,-247.8432 1437.181,-249.9847"/>
</g>
<!-- Node34&#45;&gt;Node32 -->
<g id="edge68" class="edge">
<title>Node34&#45;&gt;Node32</title>
<path fill="none" stroke="#63b8ff" d="M1107.4902,-384.6293C1119.3317,-371.7502 1140.9475,-348.658 1160.5,-330 1170.9413,-320.0363 1183.0538,-309.3882 1192.9604,-300.8997"/>
<polygon fill="#63b8ff" stroke="#63b8ff" points="1195.3254,-303.483 1200.6781,-294.3397 1190.7919,-298.1494 1195.3254,-303.483"/>
</g>
<!-- Node35 -->
<g id="node35" class="node">
<title>Node35</title>
<g id="a_node35"><a xlink:title=" ">
<polygon fill="#e0e0e0" stroke="#999999" points="1070.5,-349 1002.5,-349 1002.5,-330 1070.5,-330 1070.5,-349"/>
<text text-anchor="middle" x="1036.5" y="-337" font-family="Helvetica,sans-Serif" font-size="10.00" fill="#000000">sys/types.h</text>
</a>
</g>
</g>
<!-- Node34&#45;&gt;Node35 -->
<g id="edge66" class="edge">
<title>Node34&#45;&gt;Node35</title>
<path fill="none" stroke="#63b8ff" d="M1087.7004,-384.9197C1078.7428,-376.9735 1065.7996,-365.4916 1055.1682,-356.0605"/>
<polygon fill="#63b8ff" stroke="#63b8ff" points="1057.3967,-353.3587 1047.5933,-349.3408 1052.7514,-358.5953 1057.3967,-353.3587"/>
</g>
<!-- Node36 -->
<g id="node36" class="node">
<title>Node36</title>
<g id="a_node36"><a xlink:href="../../df/d9b/arguments_8h.html" target="_top" xlink:title=" ">
<polygon fill="#ffffff" stroke="#666666" points="1124,-294 1053,-294 1053,-275 1124,-275 1124,-294"/>
<text text-anchor="middle" x="1088.5" y="-282" font-family="Helvetica,sans-Serif" font-size="10.00" fill="#000000">arguments.h</text>
</a>
</g>
</g>
<!-- Node34&#45;&gt;Node36 -->
<g id="edge69" class="edge">
<title>Node34&#45;&gt;Node36</title>
<path fill="none" stroke="#63b8ff" d="M1097.6126,-384.7382C1095.9776,-366.7541 1092.4605,-328.0652 1090.3054,-304.3599"/>
<polygon fill="#63b8ff" stroke="#63b8ff" points="1093.7622,-303.7249 1089.3712,-294.0828 1086.791,-304.3587 1093.7622,-303.7249"/>
</g>
<!-- Node34&#45;&gt;Node37 -->
<g id="edge72" class="edge">
<title>Node34&#45;&gt;Node37</title>
<path fill="none" stroke="#63b8ff" d="M1061.2807,-389.8581C979.4514,-379.6527 784.3951,-355.3259 698.8768,-344.6604"/>
<polygon fill="#63b8ff" stroke="#63b8ff" points="699.1203,-341.1637 688.764,-343.3991 698.2539,-348.1099 699.1203,-341.1637"/>
</g>
<!-- Node36&#45;&gt;Node7 -->
<g id="edge71" class="edge">
<title>Node36&#45;&gt;Node7</title>
<path fill="none" stroke="#63b8ff" d="M1124.2058,-275.5929C1177.8759,-262.3861 1282.6364,-237.3107 1372.5,-220 1472.8056,-200.6778 1501.9146,-214.1936 1599.5,-184 1639.9656,-171.4797 1683.7117,-148.9555 1710.3608,-134.1156"/>
<polygon fill="#63b8ff" stroke="#63b8ff" points="1712.3816,-136.9939 1719.3676,-129.0286 1708.9392,-130.8989 1712.3816,-136.9939"/>
</g>
<!-- Node36&#45;&gt;Node23 -->
<g id="edge70" class="edge">
<title>Node36&#45;&gt;Node23</title>
<path fill="none" stroke="#63b8ff" d="M1052.8418,-276.2513C1000.3569,-262.9402 900.7255,-233.1284 828.5,-184 809.3561,-170.9781 791.4855,-151.2525 779.896,-137.045"/>
<polygon fill="#63b8ff" stroke="#63b8ff" points="782.4908,-134.6841 773.5363,-129.0212 777.0049,-139.0321 782.4908,-134.6841"/>
</g>
<!-- Node37&#45;&gt;Node2 -->
<g id="edge74" class="edge">
<title>Node37&#45;&gt;Node2</title>
<path fill="none" stroke="#63b8ff" d="M626.1946,-336.5264C574.2459,-331.1162 467.2561,-317.9489 379.5,-294 327.8235,-279.8973 270.0637,-255.3418 238.1224,-240.9405"/>
<polygon fill="#63b8ff" stroke="#63b8ff" points="239.2507,-237.6085 228.6995,-236.6477 236.3486,-243.9786 239.2507,-237.6085"/>
</g>
<!-- Node37&#45;&gt;Node22 -->
<g id="edge75" class="edge">
<title>Node37&#45;&gt;Node22</title>
<path fill="none" stroke="#63b8ff" d="M626.4266,-332.1964C585.8886,-322.6683 514.6789,-305.9309 468.3069,-295.0315"/>
<polygon fill="#63b8ff" stroke="#63b8ff" points="469.0579,-291.6127 458.5223,-292.7317 467.4561,-298.427 469.0579,-291.6127"/>
</g>
<!-- Node37&#45;&gt;Node23 -->
<g id="edge73" class="edge">
<title>Node37&#45;&gt;Node23</title>
<path fill="none" stroke="#63b8ff" d="M652.6801,-329.6934C639.456,-301.2381 605.9431,-217.3543 642.5,-165 653.2801,-149.5616 701.2594,-135.2061 734.2743,-126.8976"/>
<polygon fill="#63b8ff" stroke="#63b8ff" points="735.5203,-130.196 744.4015,-124.4188 733.856,-123.3967 735.5203,-130.196"/>
</g>
<!-- Node37&#45;&gt;Node27 -->
<g id="edge78" class="edge">
<title>Node37&#45;&gt;Node27</title>
<path fill="none" stroke="#63b8ff" d="M688.8916,-334.4476C740.5461,-326.1188 846.6957,-308.9399 936.5,-294 937.7585,-293.7906 939.0328,-293.5782 940.3181,-293.3635"/>
<polygon fill="#63b8ff" stroke="#63b8ff" points="941.0247,-296.7939 950.3076,-291.6873 939.8663,-289.8904 941.0247,-296.7939"/>
</g>
<!-- Node37&#45;&gt;Node32 -->
<g id="edge76" class="edge">
<title>Node37&#45;&gt;Node32</title>
<path fill="none" stroke="#63b8ff" d="M688.6471,-336.763C764.5842,-330.0363 965.2883,-311.9344 1132.5,-294 1144.6542,-292.6964 1157.8339,-291.1756 1169.9222,-289.7379"/>
<polygon fill="#63b8ff" stroke="#63b8ff" points="1170.6993,-293.1699 1180.2111,-288.5034 1169.8653,-286.2197 1170.6993,-293.1699"/>
</g>
<!-- Node37&#45;&gt;Node36 -->
<g id="edge77" class="edge">
<title>Node37&#45;&gt;Node36</title>
<path fill="none" stroke="#63b8ff" d="M688.6551,-336.7947C752.9131,-331.0079 904.9746,-316.2458 1042.7966,-293.981"/>
<polygon fill="#63b8ff" stroke="#63b8ff" points="1043.3886,-297.4308 1052.6938,-292.365 1042.2605,-290.5223 1043.3886,-297.4308"/>
</g>
<!-- Node38&#45;&gt;Node6 -->
<g id="edge84" class="edge">
<title>Node38&#45;&gt;Node6</title>
<path fill="none" stroke="#63b8ff" d="M494.26,-335.6941C601.2979,-319.805 1007.8902,-258.6803 1062.5,-239 1124.3198,-216.7214 1129.722,-189.9812 1190.5,-165 1236.4989,-146.0934 1292.615,-133.1 1328.4526,-125.9806"/>
<polygon fill="#63b8ff" stroke="#63b8ff" points="1329.2922,-129.3831 1338.4434,-124.0439 1327.9601,-122.511 1329.2922,-129.3831"/>
</g>
<!-- Node38&#45;&gt;Node7 -->
<g id="edge87" class="edge">
<title>Node38&#45;&gt;Node7</title>
<path fill="none" stroke="#63b8ff" d="M494.2136,-336.9028C554.6271,-330.6795 710.2714,-313.9407 839.5,-294 885.0738,-286.9677 896.0433,-282.7531 941.5,-275 1098.8873,-248.1558 1138.3138,-241.6441 1296.5,-220 1430.8619,-201.6157 1469.1883,-221.5497 1599.5,-184 1640.4258,-172.2071 1684.3654,-149.2863 1710.8928,-134.187"/>
<polygon fill="#63b8ff" stroke="#63b8ff" points="1712.9355,-137.0488 1719.8403,-129.0131 1709.4314,-130.989 1712.9355,-137.0488"/>
</g>
<!-- Node38&#45;&gt;Node8 -->
<g id="edge85" class="edge">
<title>Node38&#45;&gt;Node8</title>
<path fill="none" stroke="#63b8ff" d="M442.9495,-338.1296C373.6342,-332.8052 183.3682,-307.069 125.5,-184 99.3353,-128.3552 119.571,-80.5516 175.5,-55 236.9486,-26.9267 1289.9449,-12.3308 1483.9193,-9.8742"/>
<polygon fill="#63b8ff" stroke="#63b8ff" points="1484.032,-13.3732 1493.9872,-9.7479 1483.9441,-6.3737 1484.032,-13.3732"/>
</g>
<!-- Node38&#45;&gt;Node22 -->
<g id="edge88" class="edge">
<title>Node38&#45;&gt;Node22</title>
<path fill="none" stroke="#63b8ff" d="M460.6616,-329.9197C454.4151,-322.2851 445.4982,-311.3867 437.9648,-302.1792"/>
<polygon fill="#63b8ff" stroke="#63b8ff" points="440.5929,-299.8641 431.5516,-294.3408 435.1751,-304.2968 440.5929,-299.8641"/>
</g>
<!-- Node38&#45;&gt;Node23 -->
<g id="edge83" class="edge">
<title>Node38&#45;&gt;Node23</title>
<path fill="none" stroke="#63b8ff" d="M470.9592,-329.7131C479.0037,-299.8203 507.478,-209.0721 566.5,-165 592.7498,-145.3991 684.585,-130.4692 734.1664,-123.6215"/>
<polygon fill="#63b8ff" stroke="#63b8ff" points="734.9137,-127.0525 744.3555,-122.2461 733.9772,-120.1154 734.9137,-127.0525"/>
</g>
<!-- Node38&#45;&gt;Node26 -->
<g id="edge86" class="edge">
<title>Node38&#45;&gt;Node26</title>
<path fill="none" stroke="#63b8ff" d="M442.8496,-330.7202C423.7353,-323.2183 397.8716,-310.9392 379.5,-294 358.3722,-274.5195 353.3546,-266.6438 345.5,-239 333.1447,-195.5165 379.1283,-155.7152 409.5617,-134.8309"/>
<polygon fill="#63b8ff" stroke="#63b8ff" points="411.6412,-137.6518 418.0485,-129.2139 407.7777,-131.8145 411.6412,-137.6518"/>
</g>
<!-- Node39&#45;&gt;Node26 -->
<g id="edge91" class="edge">
<title>Node39&#45;&gt;Node26</title>
<path fill="none" stroke="#63b8ff" d="M200.067,-167.1383C202.9046,-166.3863 205.7586,-165.658 208.5,-165 267.8378,-150.7575 336.6607,-137.3405 382.6222,-128.8178"/>
<polygon fill="#63b8ff" stroke="#63b8ff" points="383.4447,-132.2252 392.6442,-126.9698 382.1753,-125.3413 383.4447,-132.2252"/>
</g>
<!-- Node40 -->
<g id="node40" class="node">
<title>Node40</title>
<g id="a_node40"><a xlink:title=" ">
<polygon fill="#e0e0e0" stroke="#999999" points="240,-129 211,-129 211,-110 240,-110 240,-129"/>
<text text-anchor="middle" x="225.5" y="-117" font-family="Helvetica,sans-Serif" font-size="10.00" fill="#000000">list</text>
</a>
</g>
</g>
<!-- Node39&#45;&gt;Node40 -->
<g id="edge90" class="edge">
<title>Node39&#45;&gt;Node40</title>
<path fill="none" stroke="#63b8ff" d="M183.3835,-164.9197C190.5352,-157.2072 200.7753,-146.1639 209.3675,-136.8978"/>
<polygon fill="#63b8ff" stroke="#63b8ff" points="212.1419,-139.0533 216.3749,-129.3408 207.009,-134.2937 212.1419,-139.0533"/>
</g>
<!-- Node41 -->
<g id="node41" class="node">
<title>Node41</title>
<g id="a_node41"><a xlink:title=" ">
<polygon fill="#e0e0e0" stroke="#999999" points="192.5,-129 148.5,-129 148.5,-110 192.5,-110 192.5,-129"/>
<text text-anchor="middle" x="170.5" y="-117" font-family="Helvetica,sans-Serif" font-size="10.00" fill="#000000">mutex</text>
</a>
</g>
</g>
<!-- Node39&#45;&gt;Node41 -->
<g id="edge92" class="edge">
<title>Node39&#45;&gt;Node41</title>
<path fill="none" stroke="#63b8ff" d="M173.8033,-164.9197C173.2933,-157.9083 172.5832,-148.1442 171.952,-139.4652"/>
<polygon fill="#63b8ff" stroke="#63b8ff" points="175.4319,-139.0606 171.2157,-129.3408 168.4504,-139.5684 175.4319,-139.0606"/>
</g>
<!-- Node42 -->
<g id="node42" class="node">
<title>Node42</title>
<g id="a_node42"><a xlink:title=" ">
<polygon fill="#e0e0e0" stroke="#999999" points="298.5,-129 258.5,-129 258.5,-110 298.5,-110 298.5,-129"/>
<text text-anchor="middle" x="278.5" y="-117" font-family="Helvetica,sans-Serif" font-size="10.00" fill="#000000">utility</text>
</a>
</g>
</g>
<!-- Node39&#45;&gt;Node42 -->
<g id="edge93" class="edge">
<title>Node39&#45;&gt;Node42</title>
<path fill="none" stroke="#63b8ff" d="M192.6154,-164.9197C208.8455,-156.3365 232.8759,-143.6281 251.3937,-133.8351"/>
<polygon fill="#63b8ff" stroke="#63b8ff" points="253.0395,-136.924 260.2432,-129.155 249.767,-130.7361 253.0395,-136.924"/>
</g>
<!-- Node43 -->
<g id="node43" class="node">
<title>Node43</title>
<g id="a_node43"><a xlink:title=" ">
<polygon fill="#e0e0e0" stroke="#999999" points="49,-129 0,-129 0,-110 49,-110 49,-129"/>
<text text-anchor="middle" x="24.5" y="-117" font-family="Helvetica,sans-Serif" font-size="10.00" fill="#000000">ctype.h</text>
</a>
</g>
</g>
<!-- Node39&#45;&gt;Node43 -->
<g id="edge94" class="edge">
<title>Node39&#45;&gt;Node43</title>
<path fill="none" stroke="#63b8ff" d="M148.7141,-165.0452C123.9461,-155.9636 86.3576,-142.1811 59.0173,-132.1564"/>
<polygon fill="#63b8ff" stroke="#63b8ff" points="60.0447,-128.8052 49.451,-128.6487 57.6349,-135.3774 60.0447,-128.8052"/>
</g>
<!-- Node44&#45;&gt;Node8 -->
<g id="edge99" class="edge">
<title>Node44&#45;&gt;Node8</title>
<path fill="none" stroke="#63b8ff" d="M266.8435,-164.8507C286.3812,-148.4479 325.8817,-116.2884 342.5,-110 560.2523,-27.6018 1319.8497,-12.2569 1483.3436,-9.8865"/>
<polygon fill="#63b8ff" stroke="#63b8ff" points="1483.7051,-13.3819 1493.6554,-9.7429 1483.6077,-6.3825 1483.7051,-13.3819"/>
</g>
<!-- Node44&#45;&gt;Node9 -->
<g id="edge96" class="edge">
<title>Node44&#45;&gt;Node9</title>
<path fill="none" stroke="#63b8ff" d="M273.5931,-164.8767C306.0828,-147.6718 372.0064,-113.1341 383.5,-110 508.2187,-75.9911 910.6204,-67.0221 1037.0887,-65.0145"/>
<polygon fill="#63b8ff" stroke="#63b8ff" points="1037.4846,-68.5089 1047.4298,-64.8562 1037.3774,-61.5098 1037.4846,-68.5089"/>
</g>
<!-- Node44&#45;&gt;Node23 -->
<g id="edge98" class="edge">
<title>Node44&#45;&gt;Node23</title>
<path fill="none" stroke="#63b8ff" d="M293.0751,-170.4557C389.4203,-160.0859 644.0075,-132.6841 734.234,-122.9729"/>
<polygon fill="#63b8ff" stroke="#63b8ff" points="734.8328,-126.4287 744.4008,-121.8786 734.0836,-119.4689 734.8328,-126.4287"/>
</g>
<!-- Node44&#45;&gt;Node26 -->
<g id="edge97" class="edge">
<title>Node44&#45;&gt;Node26</title>
<path fill="none" stroke="#63b8ff" d="M286.6794,-164.9197C316.3628,-155.7991 361.2056,-142.0206 393.7153,-132.0316"/>
<polygon fill="#63b8ff" stroke="#63b8ff" points="394.8472,-135.3454 403.3781,-129.0626 392.7911,-128.6541 394.8472,-135.3454"/>
</g>
<!-- Node44&#45;&gt;Node42 -->
<g id="edge100" class="edge">
<title>Node44&#45;&gt;Node42</title>
<path fill="none" stroke="#63b8ff" d="M259.5063,-164.9197C262.5361,-157.6746 266.795,-147.4903 270.5123,-138.601"/>
<polygon fill="#63b8ff" stroke="#63b8ff" points="273.7557,-139.917 274.3847,-129.3408 267.2976,-137.2163 273.7557,-139.917"/>
</g>
<!-- Node45&#45;&gt;Node6 -->
<g id="edge102" class="edge">
<title>Node45&#45;&gt;Node6</title>
<path fill="none" stroke="#63b8ff" d="M1383.5228,-384.8199C1432.4905,-358.6533 1555.6977,-284.1595 1506.5,-220 1468.9754,-171.0636 1412.9706,-230.5295 1372.5,-184 1361.9823,-171.9077 1360.6727,-153.3793 1361.5913,-139.2785"/>
<polygon fill="#63b8ff" stroke="#63b8ff" points="1365.0936,-139.4412 1362.6723,-129.1268 1358.133,-138.7 1365.0936,-139.4412"/>
</g>
<!-- Node45&#45;&gt;Node27 -->
<g id="edge109" class="edge">
<title>Node45&#45;&gt;Node27</title>
<path fill="none" stroke="#63b8ff" d="M1333.4233,-385.3107C1266.743,-365.5934 1109.8912,-319.2124 1034.4596,-296.9074"/>
<polygon fill="#63b8ff" stroke="#63b8ff" points="1035.3894,-293.5326 1024.8074,-294.0533 1033.4045,-300.2453 1035.3894,-293.5326"/>
</g>
<!-- Node45&#45;&gt;Node30 -->
<g id="edge110" class="edge">
<title>Node45&#45;&gt;Node30</title>
<path fill="none" stroke="#63b8ff" d="M1357.7728,-384.8629C1341.9175,-362.7573 1300.0205,-307.7891 1253.5,-275 1193.15,-232.4634 1111.9622,-202.6566 1062.8031,-187.0722"/>
<polygon fill="#63b8ff" stroke="#63b8ff" points="1063.7047,-183.6873 1053.1163,-184.0542 1061.6225,-190.3704 1063.7047,-183.6873"/>
</g>
<!-- Node45&#45;&gt;Node31 -->
<g id="edge104" class="edge">
<title>Node45&#45;&gt;Node31</title>
<path fill="none" stroke="#63b8ff" d="M1333.3597,-391.4251C1236.8848,-381.8989 943.393,-352.9185 842.2189,-342.9283"/>
<polygon fill="#63b8ff" stroke="#63b8ff" points="842.5129,-339.4404 832.2173,-341.9407 841.825,-346.4065 842.5129,-339.4404"/>
</g>
<!-- Node45&#45;&gt;Node32 -->
<g id="edge103" class="edge">
<title>Node45&#45;&gt;Node32</title>
<path fill="none" stroke="#63b8ff" d="M1351.2769,-384.9306C1325.0006,-365.9149 1266.001,-323.2179 1234.0467,-300.093"/>
<polygon fill="#63b8ff" stroke="#63b8ff" points="1235.9539,-297.1529 1225.8008,-294.1256 1231.85,-302.8237 1235.9539,-297.1529"/>
</g>
<!-- Node46 -->
<g id="node46" class="node">
<title>Node46</title>
<g id="a_node46"><a xlink:href="../../db/d51/layout_8h.html" target="_top" xlink:title=" ">
<polygon fill="#ffffff" stroke="#666666" points="1400,-294 1349,-294 1349,-275 1400,-275 1400,-294"/>
<text text-anchor="middle" x="1374.5" y="-282" font-family="Helvetica,sans-Serif" font-size="10.00" fill="#000000">layout.h</text>
</a>
</g>
</g>
<!-- Node45&#45;&gt;Node46 -->
<g id="edge105" class="edge">
<title>Node45&#45;&gt;Node46</title>
<path fill="none" stroke="#63b8ff" d="M1368.3622,-384.9321C1371.8035,-375.8566 1376.5829,-361.7497 1378.5,-349 1380.7451,-334.069 1379.5243,-317.0113 1377.8612,-304.1893"/>
<polygon fill="#63b8ff" stroke="#63b8ff" points="1381.3036,-303.5433 1376.3618,-294.1716 1374.3807,-304.5796 1381.3036,-303.5433"/>
</g>
<!-- Node46&#45;&gt;Node6 -->
<g id="edge106" class="edge">
<title>Node46&#45;&gt;Node6</title>
<path fill="none" stroke="#63b8ff" d="M1369.2343,-274.892C1359.9973,-257.4283 1341.2173,-219.0423 1334.5,-184 1332.9102,-175.7066 1332.0735,-173.0883 1334.5,-165 1337.5026,-154.9913 1343.4977,-145.1504 1349.3445,-137.1951"/>
<polygon fill="#63b8ff" stroke="#63b8ff" points="1352.2776,-139.1277 1355.7154,-129.1061 1346.7784,-134.7965 1352.2776,-139.1277"/>
</g>
<!-- Node46&#45;&gt;Node23 -->
<g id="edge107" class="edge">
<title>Node46&#45;&gt;Node23</title>
<path fill="none" stroke="#63b8ff" d="M1354.192,-274.9679C1305.1745,-252.3525 1176.0357,-195.0996 1062.5,-165 968.5049,-140.0808 853.8599,-127.2869 798.9093,-122.2019"/>
<polygon fill="#63b8ff" stroke="#63b8ff" points="799.0125,-118.6972 788.739,-121.2864 798.3849,-125.669 799.0125,-118.6972"/>
</g>
<!-- Node46&#45;&gt;Node28 -->
<g id="edge108" class="edge">
<title>Node46&#45;&gt;Node28</title>
<path fill="none" stroke="#63b8ff" d="M1385.8221,-274.9197C1395.2132,-266.9735 1408.7827,-255.4916 1419.9285,-246.0605"/>
<polygon fill="#63b8ff" stroke="#63b8ff" points="1422.4969,-248.4721 1427.8699,-239.3408 1417.9752,-243.1284 1422.4969,-248.4721"/>
</g>
<!-- Node47&#45;&gt;Node2 -->
<g id="edge113" class="edge">
<title>Node47&#45;&gt;Node2</title>
<path fill="none" stroke="#63b8ff" d="M818.7552,-501.7843C772.7824,-496.5071 673.8566,-483.2055 593.5,-459 440.0615,-412.7804 285.1924,-290.2442 232.4367,-245.8511"/>
<polygon fill="#63b8ff" stroke="#63b8ff" points="234.4812,-242.9955 224.5933,-239.1902 229.95,-248.3311 234.4812,-242.9955"/>
</g>
<!-- Node47&#45;&gt;Node22 -->
<g id="edge116" class="edge">
<title>Node47&#45;&gt;Node22</title>
<path fill="none" stroke="#63b8ff" d="M818.9507,-499.964C761.2761,-489.0729 617.5239,-458.2459 508.5,-404 471.4921,-385.5864 454.9621,-384.3273 433.5,-349 425.3182,-335.5324 423.0745,-317.6637 422.7319,-304.1493"/>
<polygon fill="#63b8ff" stroke="#63b8ff" points="426.2326,-304.0379 422.8026,-294.0136 419.2328,-303.9889 426.2326,-304.0379"/>
</g>
<!-- Node47&#45;&gt;Node32 -->
<g id="edge114" class="edge">
<title>Node47&#45;&gt;Node32</title>
<path fill="none" stroke="#63b8ff" d="M870.3613,-502.0502C926.3043,-495.5386 1060.2949,-473.2645 1144.5,-404 1177.2291,-377.0781 1197.2673,-330.0229 1206.4759,-303.7081"/>
<polygon fill="#63b8ff" stroke="#63b8ff" points="1209.8302,-304.713 1209.6703,-294.1194 1203.189,-302.5006 1209.8302,-304.713"/>
</g>
<!-- Node47&#45;&gt;Node33 -->
<g id="edge115" class="edge">
<title>Node47&#45;&gt;Node33</title>
<path fill="none" stroke="#63b8ff" d="M835.9649,-494.9197C829.0937,-487.2072 819.2551,-476.1639 810.9999,-466.8978"/>
<polygon fill="#63b8ff" stroke="#63b8ff" points="813.5327,-464.4792 804.2673,-459.3408 808.3061,-469.1357 813.5327,-464.4792"/>
</g>
<!-- Node48&#45;&gt;Node2 -->
<g id="edge119" class="edge">
<title>Node48&#45;&gt;Node2</title>
<path fill="none" stroke="#63b8ff" d="M886.8049,-558.922C752.0124,-556.81 355.9013,-547.7643 309.5,-514 221.9299,-450.2789 213.2679,-302.6092 213.1131,-249.2145"/>
<polygon fill="#63b8ff" stroke="#63b8ff" points="216.6141,-249.0798 213.1887,-239.054 209.6143,-249.0277 216.6141,-249.0798"/>
</g>
<!-- Node48&#45;&gt;Node27 -->
<g id="edge123" class="edge">
<title>Node48&#45;&gt;Node27</title>
<path fill="none" stroke="#63b8ff" d="M932.2378,-549.7951C933.6286,-530.6347 936.5,-486.5869 936.5,-449.5 936.5,-449.5 936.5,-449.5 936.5,-394.5 936.5,-358.6859 960.3666,-322.7521 976.9381,-302.1185"/>
<polygon fill="#63b8ff" stroke="#63b8ff" points="979.7795,-304.1764 983.5026,-294.2572 974.4065,-299.6896 979.7795,-304.1764"/>
</g>
<!-- Node48&#45;&gt;Node30 -->
<g id="edge122" class="edge">
<title>Node48&#45;&gt;Node30</title>
<path fill="none" stroke="#63b8ff" d="M926.4655,-549.7364C914.4776,-527.3646 882.1088,-471.8753 840.5,-440 752.771,-372.7932 578.6963,-433.4766 617.5,-330 640.284,-269.2426 656.5681,-251.1341 713.5,-220 757.572,-195.8986 900.6056,-182.7261 974.456,-177.3789"/>
<polygon fill="#63b8ff" stroke="#63b8ff" points="975.1013,-180.8421 984.8299,-176.6463 974.6082,-173.8595 975.1013,-180.8421"/>
</g>
<!-- Node48&#45;&gt;Node32 -->
<g id="edge120" class="edge">
<title>Node48&#45;&gt;Node32</title>
<path fill="none" stroke="#63b8ff" d="M938.0308,-549.9834C950.0599,-531.4989 974.5,-489.0737 974.5,-449.5 974.5,-449.5 974.5,-449.5 974.5,-394.5 974.5,-364.6154 971.5239,-350.2518 993.5,-330 993.705,-329.8111 1106.4682,-306.4469 1170.0842,-293.2775"/>
<polygon fill="#63b8ff" stroke="#63b8ff" points="1171.1409,-296.633 1180.2239,-291.1786 1169.722,-289.7783 1171.1409,-296.633"/>
</g>
<!-- Node48&#45;&gt;Node47 -->
<g id="edge121" class="edge">
<title>Node48&#45;&gt;Node47</title>
<path fill="none" stroke="#63b8ff" d="M916.3458,-549.9197C903.0787,-541.5325 883.5809,-529.2063 868.2435,-519.5103"/>
<polygon fill="#63b8ff" stroke="#63b8ff" points="870.0954,-516.5402 859.7725,-514.155 866.3548,-522.4571 870.0954,-516.5402"/>
</g>
<!-- Node49&#45;&gt;Node4 -->
<g id="edge129" class="edge">
<title>Node49&#45;&gt;Node4</title>
<path fill="none" stroke="#63b8ff" d="M1573.8639,-613.0765C1644.0823,-607.7727 1882.6729,-588.4628 1910.5,-569 2046.3998,-473.9488 2097.9431,-260.1396 2110.9472,-194.2252"/>
<polygon fill="#63b8ff" stroke="#63b8ff" points="2114.4599,-194.4864 2112.8827,-184.0096 2107.5822,-193.1833 2114.4599,-194.4864"/>
</g>
<!-- Node49&#45;&gt;Node6 -->
<g id="edge125" class="edge">
<title>Node49&#45;&gt;Node6</title>
<path fill="none" stroke="#63b8ff" d="M1560.4636,-604.8291C1578.3799,-574.8223 1630.5,-480.1676 1630.5,-394.5 1630.5,-394.5 1630.5,-394.5 1630.5,-339.5 1630.5,-268.7994 1584.997,-258.1926 1525.5,-220 1478.6419,-189.9207 1449.8941,-217.6096 1405.5,-184 1390.177,-172.3994 1379.0683,-153.2779 1372.3102,-138.8597"/>
<polygon fill="#63b8ff" stroke="#63b8ff" points="1375.3729,-137.1277 1368.1602,-129.3671 1368.9591,-139.9317 1375.3729,-137.1277"/>
</g>
<!-- Node49&#45;&gt;Node9 -->
<g id="edge127" class="edge">
<title>Node49&#45;&gt;Node9</title>
<path fill="none" stroke="#63b8ff" d="M1545.342,-604.7721C1529.2294,-586.5941 1497.5,-545.5819 1497.5,-504.5 1497.5,-504.5 1497.5,-504.5 1497.5,-449.5 1497.5,-346.8966 1537.4495,-299.4294 1472.5,-220 1439.1342,-179.1956 1408.9528,-202.2398 1359.5,-184 1265.6735,-149.3938 1157.427,-101.6018 1105.8599,-78.3383"/>
<polygon fill="#63b8ff" stroke="#63b8ff" points="1107.1686,-75.0889 1096.6149,-74.1562 1104.2834,-81.4667 1107.1686,-75.0889"/>
</g>
<!-- Node49&#45;&gt;Node22 -->
<g id="edge140" class="edge">
<title>Node49&#45;&gt;Node22</title>
<path fill="none" stroke="#63b8ff" d="M1535.1715,-613.6867C1380.7905,-607.0997 352.6355,-561.5141 309.5,-514 248.4253,-446.7257 357.3612,-340.7205 403.9115,-300.6029"/>
<polygon fill="#63b8ff" stroke="#63b8ff" points="406.2049,-303.2472 411.5713,-294.112 401.6794,-297.9068 406.2049,-303.2472"/>
</g>
<!-- Node49&#45;&gt;Node26 -->
<g id="edge126" class="edge">
<title>Node49&#45;&gt;Node26</title>
<path fill="none" stroke="#63b8ff" d="M1535.2867,-614.1344C1360.7874,-610.6928 56.5,-582.3642 56.5,-504.5 56.5,-504.5 56.5,-504.5 56.5,-449.5 56.5,-331.6097 97.7047,-293.9713 189.5,-220 230.2125,-187.1927 252.9685,-203.4557 301.5,-184 339.2614,-168.8619 381.2581,-147.7378 407.7635,-133.8469"/>
<polygon fill="#63b8ff" stroke="#63b8ff" points="409.5819,-136.8447 416.7912,-129.0809 406.3139,-130.6544 409.5819,-136.8447"/>
</g>
<!-- Node49&#45;&gt;Node28 -->
<g id="edge131" class="edge">
<title>Node49&#45;&gt;Node28</title>
<path fill="none" stroke="#63b8ff" d="M1560.2714,-604.8782C1570.9018,-586.214 1592.5,-543.4949 1592.5,-504.5 1592.5,-504.5 1592.5,-504.5 1592.5,-394.5 1592.5,-322.2859 1512.7267,-268.33 1468.3849,-243.9166"/>
<polygon fill="#63b8ff" stroke="#63b8ff" points="1469.9699,-240.7952 1459.5021,-239.1595 1466.6652,-246.966 1469.9699,-240.7952"/>
</g>
<!-- Node49&#45;&gt;Node43 -->
<g id="edge130" class="edge">
<title>Node49&#45;&gt;Node43</title>
<path fill="none" stroke="#63b8ff" d="M1535.0791,-614.1228C1381.9802,-611.1104 371.9412,-590.5176 238.5,-569 137.906,-552.7791 18.5,-606.3934 18.5,-504.5 18.5,-504.5 18.5,-504.5 18.5,-229.5 18.5,-197.9039 20.9987,-161.2784 22.7711,-139.2728"/>
<polygon fill="#63b8ff" stroke="#63b8ff" points="26.2676,-139.4592 23.6147,-129.202 19.2921,-138.8749 26.2676,-139.4592"/>
</g>
<!-- Node50 -->
<g id="node50" class="node">
<title>Node50</title>
<g id="a_node50"><a xlink:title=" ">
<polygon fill="#e0e0e0" stroke="#999999" points="1902,-569 1843,-569 1843,-550 1902,-550 1902,-569"/>
<text text-anchor="middle" x="1872.5" y="-557" font-family="Helvetica,sans-Serif" font-size="10.00" fill="#000000">functional</text>
</a>
</g>
</g>
<!-- Node49&#45;&gt;Node50 -->
<g id="edge128" class="edge">
<title>Node49&#45;&gt;Node50</title>
<path fill="none" stroke="#63b8ff" d="M1573.824,-611.6182C1618.6786,-604.8576 1733.2948,-587.1718 1828.5,-569 1829.9393,-568.7253 1831.4038,-568.4398 1832.8821,-568.1467"/>
<polygon fill="#63b8ff" stroke="#63b8ff" points="1833.6227,-571.5678 1842.7175,-566.1331 1832.2187,-564.71 1833.6227,-571.5678"/>
</g>
<!-- Node51 -->
<g id="node51" class="node">
<title>Node51</title>
<g id="a_node51"><a xlink:href="../../de/d9c/docparser_8h.html" target="_top" xlink:title=" ">
<polygon fill="#ffffff" stroke="#666666" points="1827.5,-239 1759.5,-239 1759.5,-220 1827.5,-220 1827.5,-239"/>
<text text-anchor="middle" x="1793.5" y="-227" font-family="Helvetica,sans-Serif" font-size="10.00" fill="#000000">docparser.h</text>
</a>
</g>
</g>
<!-- Node49&#45;&gt;Node51 -->
<g id="edge132" class="edge">
<title>Node49&#45;&gt;Node51</title>
<path fill="none" stroke="#63b8ff" d="M1573.8127,-609.3904C1627.8239,-594.5366 1776.5,-549.5567 1776.5,-504.5 1776.5,-504.5 1776.5,-504.5 1776.5,-339.5 1776.5,-307.5762 1783.5795,-271.046 1788.6014,-249.1491"/>
<polygon fill="#63b8ff" stroke="#63b8ff" points="1792.0745,-249.6736 1790.9916,-239.1342 1785.2657,-248.0486 1792.0745,-249.6736"/>
</g>
<!-- Node55 -->
<g id="node55" class="node">
<title>Node55</title>
<g id="a_node55"><a xlink:href="../../df/d06/outputgen_8h.html" target="_top" xlink:title=" ">
<polygon fill="#ffffff" stroke="#666666" points="1935.5,-294 1867.5,-294 1867.5,-275 1935.5,-275 1935.5,-294"/>
<text text-anchor="middle" x="1901.5" y="-282" font-family="Helvetica,sans-Serif" font-size="10.00" fill="#000000">outputgen.h</text>
</a>
</g>
</g>
<!-- Node49&#45;&gt;Node55 -->
<g id="edge141" class="edge">
<title>Node49&#45;&gt;Node55</title>
<path fill="none" stroke="#63b8ff" d="M1573.5059,-613.2043C1623.5796,-609.4314 1757.5388,-596.905 1790.5,-569 1813.8444,-549.2366 1814.5,-535.0869 1814.5,-504.5 1814.5,-504.5 1814.5,-504.5 1814.5,-394.5 1814.5,-353.593 1851.9713,-319.0014 1877.7305,-300.0548"/>
<polygon fill="#63b8ff" stroke="#63b8ff" points="1879.8038,-302.8753 1885.9461,-294.2426 1875.7611,-297.1607 1879.8038,-302.8753"/>
</g>
<!-- Node62 -->
<g id="node62" class="node">
<title>Node62</title>
<g id="a_node62"><a xlink:href="../../d1/d21/regex_8h.html" target="_top" xlink:title=" ">
<polygon fill="#ffffff" stroke="#666666" points="1555,-184 1506,-184 1506,-165 1555,-165 1555,-184"/>
<text text-anchor="middle" x="1530.5" y="-172" font-family="Helvetica,sans-Serif" font-size="10.00" fill="#000000">regex.h</text>
</a>
</g>
</g>
<!-- Node49&#45;&gt;Node62 -->
<g id="edge164" class="edge">
<title>Node49&#45;&gt;Node62</title>
<path fill="none" stroke="#63b8ff" d="M1573.581,-606.639C1606.034,-591.8512 1668.5,-556.6181 1668.5,-504.5 1668.5,-504.5 1668.5,-504.5 1668.5,-284.5 1668.5,-251.0004 1654.4879,-242.312 1629.5,-220 1619.2859,-210.8797 1588.96,-197.5223 1564.5378,-187.6375"/>
<polygon fill="#63b8ff" stroke="#63b8ff" points="1565.77,-184.3609 1555.185,-183.9027 1563.1739,-190.8617 1565.77,-184.3609"/>
</g>
<!-- Node63 -->
<g id="node63" class="node">
<title>Node63</title>
<g id="a_node63"><a xlink:href="../../da/df1/conceptdef_8h.html" target="_top" xlink:title=" ">
<polygon fill="#ffffff" stroke="#666666" points="1287,-569 1214,-569 1214,-550 1287,-550 1287,-569"/>
<text text-anchor="middle" x="1250.5" y="-557" font-family="Helvetica,sans-Serif" font-size="10.00" fill="#000000">conceptdef.h</text>
</a>
</g>
</g>
<!-- Node49&#45;&gt;Node63 -->
<g id="edge169" class="edge">
<title>Node49&#45;&gt;Node63</title>
<path fill="none" stroke="#63b8ff" d="M1535.4834,-611.0595C1488.3768,-602.5369 1365.1814,-580.2483 1297.2092,-567.9507"/>
<polygon fill="#63b8ff" stroke="#63b8ff" points="1297.6589,-564.4753 1287.1955,-566.139 1296.4126,-571.3635 1297.6589,-564.4753"/>
</g>
<!-- Node51&#45;&gt;Node6 -->
<g id="edge134" class="edge">
<title>Node51&#45;&gt;Node6</title>
<path fill="none" stroke="#63b8ff" d="M1761.2568,-219.9231C1716.8881,-206.8674 1634.4371,-183.0449 1563.5,-165 1506.7853,-150.573 1440.4402,-135.827 1400.4849,-127.1759"/>
<polygon fill="#63b8ff" stroke="#63b8ff" points="1401.1876,-123.7471 1390.6743,-125.0595 1399.7114,-130.5897 1401.1876,-123.7471"/>
</g>
<!-- Node51&#45;&gt;Node7 -->
<g id="edge135" class="edge">
<title>Node51&#45;&gt;Node7</title>
<path fill="none" stroke="#63b8ff" d="M1815.1808,-219.9607C1838.8954,-208.1429 1871.6473,-186.8786 1856.5,-165 1846.8457,-151.0554 1806.4139,-137.7165 1774.9119,-129.1288"/>
<polygon fill="#63b8ff" stroke="#63b8ff" points="1775.6112,-125.6934 1765.0481,-126.5128 1773.8167,-132.4595 1775.6112,-125.6934"/>
</g>
<!-- Node52 -->
<g id="node52" class="node">
<title>Node52</title>
<g id="a_node52"><a xlink:title=" ">
<polygon fill="#e0e0e0" stroke="#999999" points="1847.5,-184 1801.5,-184 1801.5,-165 1847.5,-165 1847.5,-184"/>
<text text-anchor="middle" x="1824.5" y="-172" font-family="Helvetica,sans-Serif" font-size="10.00" fill="#000000">stdio.h</text>
</a>
</g>
</g>
<!-- Node51&#45;&gt;Node52 -->
<g id="edge133" class="edge">
<title>Node51&#45;&gt;Node52</title>
<path fill="none" stroke="#63b8ff" d="M1798.8998,-219.9197C1803.0273,-212.5967 1808.8473,-202.2709 1813.8953,-193.3147"/>
<polygon fill="#63b8ff" stroke="#63b8ff" points="1817.0922,-194.7709 1818.9534,-184.3408 1810.9941,-191.3338 1817.0922,-194.7709"/>
</g>
<!-- Node53 -->
<g id="node53" class="node">
<title>Node53</title>
<g id="a_node53"><a xlink:href="../../d7/d50/growvector_8h.html" target="_top" xlink:title=" ">
<polygon fill="#ffffff" stroke="#666666" points="1488,-184 1415,-184 1415,-165 1488,-165 1488,-184"/>
<text text-anchor="middle" x="1451.5" y="-172" font-family="Helvetica,sans-Serif" font-size="10.00" fill="#000000">growvector.h</text>
</a>
</g>
</g>
<!-- Node51&#45;&gt;Node53 -->
<g id="edge136" class="edge">
<title>Node51&#45;&gt;Node53</title>
<path fill="none" stroke="#63b8ff" d="M1759.4377,-221.8947C1756.0861,-221.2219 1752.731,-220.5779 1749.5,-220 1640.8636,-200.5686 1610.0768,-203.5484 1498.2834,-184.2248"/>
<polygon fill="#63b8ff" stroke="#63b8ff" points="1498.7518,-180.7536 1488.2981,-182.4772 1497.545,-187.6488 1498.7518,-180.7536"/>
</g>
<!-- Node53&#45;&gt;Node6 -->
<g id="edge138" class="edge">
<title>Node53&#45;&gt;Node6</title>
<path fill="none" stroke="#63b8ff" d="M1436.3458,-164.9197C1423.0787,-156.5325 1403.5809,-144.2063 1388.2435,-134.5103"/>
<polygon fill="#63b8ff" stroke="#63b8ff" points="1390.0954,-131.5402 1379.7725,-129.155 1386.3548,-137.4571 1390.0954,-131.5402"/>
</g>
<!-- Node53&#45;&gt;Node23 -->
<g id="edge137" class="edge">
<title>Node53&#45;&gt;Node23</title>
<path fill="none" stroke="#63b8ff" d="M1414.6714,-171.543C1294.0656,-161.8593 912.1995,-131.1985 798.6487,-122.0813"/>
<polygon fill="#63b8ff" stroke="#63b8ff" points="798.7634,-118.5793 788.5153,-121.2677 798.2031,-125.5569 798.7634,-118.5793"/>
</g>
<!-- Node54 -->
<g id="node54" class="node">
<title>Node54</title>
<g id="a_node54"><a xlink:title=" ">
<polygon fill="#e0e0e0" stroke="#999999" points="1479,-129 1432,-129 1432,-110 1479,-110 1479,-129"/>
<text text-anchor="middle" x="1455.5" y="-117" font-family="Helvetica,sans-Serif" font-size="10.00" fill="#000000">iterator</text>
</a>
</g>
</g>
<!-- Node53&#45;&gt;Node54 -->
<g id="edge139" class="edge">
<title>Node53&#45;&gt;Node54</title>
<path fill="none" stroke="#63b8ff" d="M1452.1967,-164.9197C1452.7067,-157.9083 1453.4168,-148.1442 1454.048,-139.4652"/>
<polygon fill="#63b8ff" stroke="#63b8ff" points="1457.5496,-139.5684 1454.7843,-129.3408 1450.5681,-139.0606 1457.5496,-139.5684"/>
</g>
<!-- Node55&#45;&gt;Node3 -->
<g id="edge143" class="edge">
<title>Node55&#45;&gt;Node3</title>
<path fill="none" stroke="#63b8ff" d="M1869.3527,-274.9553C1840.728,-266.425 1797.4693,-253.4572 1750.829,-239.0717"/>
<polygon fill="#63b8ff" stroke="#63b8ff" points="1751.7325,-235.6877 1741.1449,-236.0793 1749.6658,-242.3757 1751.7325,-235.6877"/>
</g>
<!-- Node55&#45;&gt;Node4 -->
<g id="edge145" class="edge">
<title>Node55&#45;&gt;Node4</title>
<path fill="none" stroke="#63b8ff" d="M1935.6604,-276.5233C1963.6091,-269.1619 2003.588,-256.6837 2035.5,-239 2059.0211,-225.966 2082.4386,-205.6958 2097.597,-191.3627"/>
<polygon fill="#63b8ff" stroke="#63b8ff" points="2100.359,-193.5608 2105.1169,-184.0944 2095.4941,-188.5276 2100.359,-193.5608"/>
</g>
<!-- Node55&#45;&gt;Node6 -->
<g id="edge142" class="edge">
<title>Node55&#45;&gt;Node6</title>
<path fill="none" stroke="#63b8ff" d="M1905.7937,-274.9366C1910.9528,-261.9984 1918.0307,-238.4193 1910.5,-220 1897.5358,-188.291 1887.5134,-179.55 1856.5,-165 1768.8871,-123.8963 1518.5498,-140.8307 1422.5,-129 1415.4917,-128.1368 1408.0341,-127.046 1400.8822,-125.9139"/>
<polygon fill="#63b8ff" stroke="#63b8ff" points="1401.1449,-122.4103 1390.7105,-124.2471 1400.0129,-129.3182 1401.1449,-122.4103"/>
</g>
<!-- Node55&#45;&gt;Node28 -->
<g id="edge146" class="edge">
<title>Node55&#45;&gt;Node28</title>
<path fill="none" stroke="#63b8ff" d="M1867.1524,-280.411C1781.634,-270.2302 1559.905,-243.8339 1474.1094,-233.6202"/>
<polygon fill="#63b8ff" stroke="#63b8ff" points="1474.4469,-230.1357 1464.1032,-232.429 1473.6193,-237.0866 1474.4469,-230.1357"/>
</g>
<!-- Node55&#45;&gt;Node51 -->
<g id="edge163" class="edge">
<title>Node55&#45;&gt;Node51</title>
<path fill="none" stroke="#63b8ff" d="M1882.6878,-274.9197C1865.7566,-266.2973 1840.6508,-253.512 1821.3858,-243.7011"/>
<polygon fill="#63b8ff" stroke="#63b8ff" points="1822.9583,-240.5742 1812.459,-239.155 1819.7817,-246.812 1822.9583,-240.5742"/>
</g>
<!-- Node56 -->
<g id="node56" class="node">
<title>Node56</title>
<g id="a_node56"><a xlink:title=" ">
<polygon fill="#e0e0e0" stroke="#999999" points="2071.5,-184 2017.5,-184 2017.5,-165 2071.5,-165 2071.5,-184"/>
<text text-anchor="middle" x="2044.5" y="-172" font-family="Helvetica,sans-Serif" font-size="10.00" fill="#000000">iostream</text>
</a>
</g>
</g>
<!-- Node55&#45;&gt;Node56 -->
<g id="edge144" class="edge">
<title>Node55&#45;&gt;Node56</title>
<path fill="none" stroke="#63b8ff" d="M1935.548,-277.8312C1960.1011,-271.491 1992.6374,-259.7427 2014.5,-239 2027.3508,-226.8075 2035.2191,-208.0289 2039.6539,-193.8723"/>
<polygon fill="#63b8ff" stroke="#63b8ff" points="2043.0547,-194.708 2042.4017,-184.1333 2036.3177,-192.8072 2043.0547,-194.708"/>
</g>
<!-- Node57 -->
<g id="node57" class="node">
<title>Node57</title>
<g id="a_node57"><a xlink:href="../../d1/db5/index_8h.html" target="_top" xlink:title=" ">
<polygon fill="#ffffff" stroke="#666666" points="2005.5,-239 1957.5,-239 1957.5,-220 2005.5,-220 2005.5,-239"/>
<text text-anchor="middle" x="1981.5" y="-227" font-family="Helvetica,sans-Serif" font-size="10.00" fill="#000000">index.h</text>
</a>
</g>
</g>
<!-- Node55&#45;&gt;Node57 -->
<g id="edge147" class="edge">
<title>Node55&#45;&gt;Node57</title>
<path fill="none" stroke="#63b8ff" d="M1915.4349,-274.9197C1927.4065,-266.6893 1944.8953,-254.6657 1958.8721,-245.0567"/>
<polygon fill="#63b8ff" stroke="#63b8ff" points="1961.1988,-247.7045 1967.4563,-239.155 1957.233,-241.9362 1961.1988,-247.7045"/>
</g>
<!-- Node58 -->
<g id="node58" class="node">
<title>Node58</title>
<g id="a_node58"><a xlink:href="../../d1/d2a/section_8h.html" target="_top" xlink:title=" ">
<polygon fill="#ffffff" stroke="#666666" points="1901.5,-239 1845.5,-239 1845.5,-220 1901.5,-220 1901.5,-239"/>
<text text-anchor="middle" x="1873.5" y="-227" font-family="Helvetica,sans-Serif" font-size="10.00" fill="#000000">section.h</text>
</a>
</g>
</g>
<!-- Node55&#45;&gt;Node58 -->
<g id="edge149" class="edge">
<title>Node55&#45;&gt;Node58</title>
<path fill="none" stroke="#63b8ff" d="M1896.6228,-274.9197C1892.8947,-267.5967 1887.6379,-257.2709 1883.0784,-248.3147"/>
<polygon fill="#63b8ff" stroke="#63b8ff" points="1886.1658,-246.6646 1878.5099,-239.3408 1879.9277,-249.8404 1886.1658,-246.6646"/>
</g>
<!-- Node55&#45;&gt;Node59 -->
<g id="edge154" class="edge">
<title>Node55&#45;&gt;Node59</title>
<path fill="none" stroke="#63b8ff" d="M1935.7122,-280.1842C2013.5498,-270.3653 2203.9218,-246.3505 2291.743,-235.2721"/>
<polygon fill="#63b8ff" stroke="#63b8ff" points="2292.4468,-238.7111 2301.9301,-233.987 2291.5707,-231.7662 2292.4468,-238.7111"/>
</g>
<!-- Node57&#45;&gt;Node7 -->
<g id="edge148" class="edge">
<title>Node57&#45;&gt;Node7</title>
<path fill="none" stroke="#63b8ff" d="M1982.0813,-219.6099C1982.3352,-205.3957 1980.5317,-179.3291 1965.5,-165 1938.6789,-139.4325 1833.6716,-127.218 1775.2574,-122.2954"/>
<polygon fill="#63b8ff" stroke="#63b8ff" points="1775.5164,-118.805 1765.2664,-121.4863 1774.9512,-125.7822 1775.5164,-118.805"/>
</g>
<!-- Node58&#45;&gt;Node7 -->
<g id="edge152" class="edge">
<title>Node58&#45;&gt;Node7</title>
<path fill="none" stroke="#63b8ff" d="M1876.5616,-219.6622C1880.1679,-205.9786 1884.2898,-181.0746 1872.5,-165 1860.7466,-148.9752 1810.979,-135.3433 1774.8068,-127.2894"/>
<polygon fill="#63b8ff" stroke="#63b8ff" points="1775.5219,-123.8632 1765.0077,-125.1684 1774.0409,-130.7048 1775.5219,-123.8632"/>
</g>
<!-- Node58&#45;&gt;Node8 -->
<g id="edge150" class="edge">
<title>Node58&#45;&gt;Node8</title>
<path fill="none" stroke="#63b8ff" d="M1901.6497,-225.9228C1985.0052,-215.3223 2224.8278,-184.7647 2225.5,-184 2231.0753,-177.6577 2228.932,-172.7156 2225.5,-165 2195.8277,-98.2937 2170.5901,-83.7939 2103.5,-55 2051.971,-32.8846 1658.6348,-15.3491 1545.094,-10.7081"/>
<polygon fill="#63b8ff" stroke="#63b8ff" points="1545.1339,-7.207 1535.0005,-10.2995 1544.8507,-14.2012 1545.1339,-7.207"/>
</g>
<!-- Node58&#45;&gt;Node26 -->
<g id="edge151" class="edge">
<title>Node58&#45;&gt;Node26</title>
<path fill="none" stroke="#63b8ff" d="M1845.3425,-221.6222C1842.3743,-220.9864 1839.3868,-220.4261 1836.5,-220 1457.6049,-164.069 1357.2692,-214.6935 975.5,-184 795.1522,-169.5004 582.2768,-140.6589 486.1687,-127.0027"/>
<polygon fill="#63b8ff" stroke="#63b8ff" points="486.5293,-123.5188 476.1353,-125.5719 485.541,-130.4487 486.5293,-123.5188"/>
</g>
<!-- Node58&#45;&gt;Node30 -->
<g id="edge153" class="edge">
<title>Node58&#45;&gt;Node30</title>
<path fill="none" stroke="#63b8ff" d="M1845.3363,-221.6633C1842.3693,-221.0195 1839.3838,-220.4461 1836.5,-220 1685.6903,-196.6701 1212.5862,-180.4524 1064.3653,-175.8409"/>
<polygon fill="#63b8ff" stroke="#63b8ff" points="1064.3671,-172.3394 1054.2638,-175.529 1064.151,-179.336 1064.3671,-172.3394"/>
</g>
<!-- Node59&#45;&gt;Node4 -->
<g id="edge160" class="edge">
<title>Node59&#45;&gt;Node4</title>
<path fill="none" stroke="#63b8ff" d="M2301.8735,-221.3289C2265.814,-212.9689 2208.2215,-199.3723 2149.5319,-184.2045"/>
<polygon fill="#63b8ff" stroke="#63b8ff" points="2150.2822,-180.7833 2139.7235,-181.6573 2148.5227,-187.5585 2150.2822,-180.7833"/>
</g>
<!-- Node59&#45;&gt;Node7 -->
<g id="edge162" class="edge">
<title>Node59&#45;&gt;Node7</title>
<path fill="none" stroke="#63b8ff" d="M2364.326,-219.9886C2393.9104,-208.116 2434.8091,-186.7155 2414.5,-165 2392.5538,-141.534 1917.5309,-125.0917 1775.3545,-120.6825"/>
<polygon fill="#63b8ff" stroke="#63b8ff" points="1775.421,-117.183 1765.3182,-120.3742 1775.206,-124.1797 1775.421,-117.183"/>
</g>
<!-- Node59&#45;&gt;Node8 -->
<g id="edge155" class="edge">
<title>Node59&#45;&gt;Node8</title>
<path fill="none" stroke="#63b8ff" d="M2373.284,-223.6703C2412.327,-215.5431 2466.9795,-197.9501 2448.5,-165 2425.5694,-124.1134 2401.7362,-128.1153 2358.5,-110 2265.5425,-71.0523 2238.0176,-70.9461 2138.5,-55 1912.7915,-18.8339 1636.4911,-11.3811 1545.304,-9.8739"/>
<polygon fill="#63b8ff" stroke="#63b8ff" points="1545.1696,-6.3715 1535.1172,-9.7181 1545.0624,-13.3707 1545.1696,-6.3715"/>
</g>
<!-- Node59&#45;&gt;Node12 -->
<g id="edge159" class="edge">
<title>Node59&#45;&gt;Node12</title>
<path fill="none" stroke="#63b8ff" d="M2373.1044,-220.4235C2407.2826,-209.9464 2451.0465,-190.7893 2431.5,-165 2391.4761,-112.1931 2185.4391,-79.4527 2105.373,-68.5528"/>
<polygon fill="#63b8ff" stroke="#63b8ff" points="2105.7523,-65.0724 2095.3768,-67.2168 2104.825,-72.0107 2105.7523,-65.0724"/>
</g>
<!-- Node59&#45;&gt;Node14 -->
<g id="edge158" class="edge">
<title>Node59&#45;&gt;Node14</title>
<path fill="none" stroke="#63b8ff" d="M2373.3465,-227.5642C2430.4799,-223.6463 2538.1454,-212.5755 2561.5,-184 2597.7821,-139.6072 2600.5975,-96.9345 2561.5,-55 2540.3122,-32.2747 2075.9718,-14.9975 1946.0239,-10.5947"/>
<polygon fill="#63b8ff" stroke="#63b8ff" points="1945.9863,-7.0915 1935.8745,-10.254 1945.7515,-14.0876 1945.9863,-7.0915"/>
</g>
<!-- Node59&#45;&gt;Node56 -->
<g id="edge156" class="edge">
<title>Node59&#45;&gt;Node56</title>
<path fill="none" stroke="#63b8ff" d="M2301.9817,-224.1651C2254.1197,-216.7682 2166.0834,-202.4324 2081.5858,-184.0965"/>
<polygon fill="#63b8ff" stroke="#63b8ff" points="2082.086,-180.6231 2071.5684,-181.8999 2080.5866,-187.4607 2082.086,-180.6231"/>
</g>
<!-- Node60 -->
<g id="node60" class="node">
<title>Node60</title>
<g id="a_node60"><a xlink:title=" ">
<polygon fill="#e0e0e0" stroke="#999999" points="2325.5,-184 2273.5,-184 2273.5,-165 2325.5,-165 2325.5,-184"/>
<text text-anchor="middle" x="2299.5" y="-172" font-family="Helvetica,sans-Serif" font-size="10.00" fill="#000000">sstream</text>
</a>
</g>
</g>
<!-- Node59&#45;&gt;Node60 -->
<g id="edge157" class="edge">
<title>Node59&#45;&gt;Node60</title>
<path fill="none" stroke="#63b8ff" d="M2330.8809,-219.9197C2325.7137,-212.4409 2318.3826,-201.8301 2312.1056,-192.745"/>
<polygon fill="#63b8ff" stroke="#63b8ff" points="2314.863,-190.5786 2306.2991,-184.3408 2309.1039,-194.5577 2314.863,-190.5786"/>
</g>
<!-- Node61 -->
<g id="node61" class="node">
<title>Node61</title>
<g id="a_node61"><a xlink:title=" ">
<polygon fill="#e0e0e0" stroke="#999999" points="2405.5,-184 2343.5,-184 2343.5,-165 2405.5,-165 2405.5,-184"/>
<text text-anchor="middle" x="2374.5" y="-172" font-family="Helvetica,sans-Serif" font-size="10.00" fill="#000000">type_traits</text>
</a>
</g>
</g>
<!-- Node59&#45;&gt;Node61 -->
<g id="edge161" class="edge">
<title>Node59&#45;&gt;Node61</title>
<path fill="none" stroke="#63b8ff" d="M2343.9449,-219.9197C2348.9761,-212.4409 2356.1143,-201.8301 2362.2261,-192.745"/>
<polygon fill="#63b8ff" stroke="#63b8ff" points="2365.202,-194.5917 2367.8798,-184.3408 2359.394,-190.6844 2365.202,-194.5917"/>
</g>
<!-- Node62&#45;&gt;Node6 -->
<g id="edge165" class="edge">
<title>Node62&#45;&gt;Node6</title>
<path fill="none" stroke="#63b8ff" d="M1505.6481,-166.2659C1477.7363,-157.018 1432.1934,-141.9285 1400.4135,-131.399"/>
<polygon fill="#63b8ff" stroke="#63b8ff" points="1401.212,-127.9766 1390.6187,-128.1538 1399.0104,-134.6214 1401.212,-127.9766"/>
</g>
<!-- Node62&#45;&gt;Node8 -->
<g id="edge166" class="edge">
<title>Node62&#45;&gt;Node8</title>
<path fill="none" stroke="#63b8ff" d="M1529.547,-164.6726C1526.9731,-138.1291 1519.8439,-64.6086 1516.4045,-29.1401"/>
<polygon fill="#63b8ff" stroke="#63b8ff" points="1519.8768,-28.6847 1515.4279,-19.0692 1512.9095,-29.3603 1519.8768,-28.6847"/>
</g>
<!-- Node62&#45;&gt;Node23 -->
<g id="edge167" class="edge">
<title>Node62&#45;&gt;Node23</title>
<path fill="none" stroke="#63b8ff" d="M1505.754,-166.9372C1502.6599,-166.1839 1499.5216,-165.5105 1496.5,-165 1359.312,-141.824 922.0917,-124.9858 799.0177,-120.617"/>
<polygon fill="#63b8ff" stroke="#63b8ff" points="798.8665,-117.1096 788.7496,-120.2557 798.6203,-124.1053 798.8665,-117.1096"/>
</g>
<!-- Node62&#45;&gt;Node54 -->
<g id="edge168" class="edge">
<title>Node62&#45;&gt;Node54</title>
<path fill="none" stroke="#63b8ff" d="M1517.436,-164.9197C1506.3195,-156.7677 1490.1287,-144.8944 1477.089,-135.3319"/>
<polygon fill="#63b8ff" stroke="#63b8ff" points="1478.7998,-132.2463 1468.6659,-129.155 1474.6602,-137.8911 1478.7998,-132.2463"/>
</g>
<!-- Node63&#45;&gt;Node32 -->
<g id="edge170" class="edge">
<title>Node63&#45;&gt;Node32</title>
<path fill="none" stroke="#63b8ff" d="M1250.5,-549.7884C1250.5,-530.6162 1250.5,-486.5486 1250.5,-449.5 1250.5,-449.5 1250.5,-449.5 1250.5,-394.5 1250.5,-360.8364 1234.4038,-324.3974 1223.1633,-303.0549"/>
<polygon fill="#63b8ff" stroke="#63b8ff" points="1226.1444,-301.2117 1218.2714,-294.1218 1220.0047,-304.5739 1226.1444,-301.2117"/>
</g>
<!-- Node63&#45;&gt;Node47 -->
<g id="edge171" class="edge">
<title>Node63&#45;&gt;Node47</title>
<path fill="none" stroke="#63b8ff" d="M1213.7541,-554.5221C1136.2002,-544.016 956.6536,-519.6932 880.1084,-509.3238"/>
<polygon fill="#63b8ff" stroke="#63b8ff" points="880.3918,-505.8303 870.0124,-507.9561 879.452,-512.7669 880.3918,-505.8303"/>
</g>
</g>
</svg>
