<?xml version="1.0" encoding="UTF-8" standalone="no"?>
<!DOCTYPE svg PUBLIC "-//W3C//DTD SVG 1.1//EN"
 "http://www.w3.org/Graphics/SVG/1.1/DTD/svg11.dtd">
<!-- Generated by graphviz version 2.40.1 (20161225.0304)
 -->
<!-- Title: src/docsets.cpp Pages: 1 -->
<svg width="2735pt" height="687pt"
 viewBox="0.00 0.00 2735.00 687.00" xmlns="http://www.w3.org/2000/svg" xmlns:xlink="http://www.w3.org/1999/xlink">
<g id="graph0" class="graph" transform="scale(1 1) rotate(0) translate(4 683)">
<title>src/docsets.cpp</title>
<!-- Node1 -->
<g id="node1" class="node">
<title>Node1</title>
<g id="a_node1"><a xlink:title=" ">
<polygon fill="#999999" stroke="#666666" points="1442,-679 1356,-679 1356,-660 1442,-660 1442,-679"/>
<text text-anchor="middle" x="1399" y="-667" font-family="Helvetica,sans-Serif" font-size="10.00" fill="#000000">src/docsets.cpp</text>
</a>
</g>
</g>
<!-- Node2 -->
<g id="node2" class="node">
<title>Node2</title>
<g id="a_node2"><a xlink:title=" ">
<polygon fill="#e0e0e0" stroke="#999999" points="162,-239 132,-239 132,-220 162,-220 162,-239"/>
<text text-anchor="middle" x="147" y="-227" font-family="Helvetica,sans-Serif" font-size="10.00" fill="#000000">set</text>
</a>
</g>
</g>
<!-- Node1&#45;&gt;Node2 -->
<g id="edge1" class="edge">
<title>Node1&#45;&gt;Node2</title>
<path fill="none" stroke="#63b8ff" d="M1355.9825,-668.4247C1120.6829,-662.2672 0,-629.2776 0,-559.5 0,-559.5 0,-559.5 0,-394.5 0,-321.5347 81.132,-265.9165 122.8481,-242.1415"/>
<polygon fill="#63b8ff" stroke="#63b8ff" points="124.7694,-245.0785 131.8221,-237.1722 121.3783,-238.9547 124.7694,-245.0785"/>
</g>
<!-- Node3 -->
<g id="node3" class="node">
<title>Node3</title>
<g id="a_node3"><a xlink:title=" ">
<polygon fill="#e0e0e0" stroke="#999999" points="1707.5,-239 1666.5,-239 1666.5,-220 1707.5,-220 1707.5,-239"/>
<text text-anchor="middle" x="1687" y="-227" font-family="Helvetica,sans-Serif" font-size="10.00" fill="#000000">stack</text>
</a>
</g>
</g>
<!-- Node1&#45;&gt;Node3 -->
<g id="edge2" class="edge">
<title>Node1&#45;&gt;Node3</title>
<path fill="none" stroke="#63b8ff" d="M1440.2839,-659.9629C1510.107,-642.6226 1644,-603.6191 1644,-559.5 1644,-559.5 1644,-559.5 1644,-504.5 1644,-407.831 1670.2574,-294.3173 1681.7354,-249.3147"/>
<polygon fill="#63b8ff" stroke="#63b8ff" points="1685.1838,-249.9602 1684.3102,-239.4014 1678.4086,-248.2004 1685.1838,-249.9602"/>
</g>
<!-- Node4 -->
<g id="node4" class="node">
<title>Node4</title>
<g id="a_node4"><a xlink:title=" ">
<polygon fill="#e0e0e0" stroke="#999999" points="2211,-184 2161,-184 2161,-165 2211,-165 2211,-184"/>
<text text-anchor="middle" x="2186" y="-172" font-family="Helvetica,sans-Serif" font-size="10.00" fill="#000000">fstream</text>
</a>
</g>
</g>
<!-- Node1&#45;&gt;Node4 -->
<g id="edge3" class="edge">
<title>Node1&#45;&gt;Node4</title>
<path fill="none" stroke="#63b8ff" d="M1442.1138,-668.3665C1612.2789,-663.3311 2228,-639.5787 2228,-559.5 2228,-559.5 2228,-559.5 2228,-284.5 2228,-250.2869 2210.0481,-213.7925 2197.6174,-192.6233"/>
<polygon fill="#63b8ff" stroke="#63b8ff" points="2200.5756,-190.7517 2192.3789,-184.0386 2194.6002,-194.3979 2200.5756,-190.7517"/>
</g>
<!-- Node5 -->
<g id="node5" class="node">
<title>Node5</title>
<g id="a_node5"><a xlink:href="../../d1/db2/docsets_8h.html" target="_top" xlink:title=" ">
<polygon fill="#ffffff" stroke="#666666" points="2288.5,-184 2229.5,-184 2229.5,-165 2288.5,-165 2288.5,-184"/>
<text text-anchor="middle" x="2259" y="-172" font-family="Helvetica,sans-Serif" font-size="10.00" fill="#000000">docsets.h</text>
</a>
</g>
</g>
<!-- Node1&#45;&gt;Node5 -->
<g id="edge4" class="edge">
<title>Node1&#45;&gt;Node5</title>
<path fill="none" stroke="#63b8ff" d="M1442.2091,-668.7622C1577.2771,-666.1436 1990.2379,-655.6876 2120,-624 2188.914,-607.1713 2266,-630.439 2266,-559.5 2266,-559.5 2266,-559.5 2266,-284.5 2266,-252.887 2263.0849,-216.2664 2261.0171,-194.2664"/>
<polygon fill="#63b8ff" stroke="#63b8ff" points="2264.4893,-193.8105 2260.0329,-184.1985 2257.5225,-194.4916 2264.4893,-193.8105"/>
</g>
<!-- Node17 -->
<g id="node17" class="node">
<title>Node17</title>
<g id="a_node17"><a xlink:href="../../db/d16/config_8h.html" target="_top" xlink:title=" ">
<polygon fill="#ffffff" stroke="#666666" points="2671.5,-624 2620.5,-624 2620.5,-605 2671.5,-605 2671.5,-624"/>
<text text-anchor="middle" x="2646" y="-612" font-family="Helvetica,sans-Serif" font-size="10.00" fill="#000000">config.h</text>
</a>
</g>
</g>
<!-- Node1&#45;&gt;Node17 -->
<g id="edge18" class="edge">
<title>Node1&#45;&gt;Node17</title>
<path fill="none" stroke="#63b8ff" d="M1442.0028,-668.538C1592.7942,-665.0039 2111.5475,-651.4897 2539,-624 2562.7225,-622.4744 2589.3485,-620.1128 2610.1054,-618.126"/>
<polygon fill="#63b8ff" stroke="#63b8ff" points="2610.4665,-621.6075 2620.0812,-617.1569 2609.7896,-614.6403 2610.4665,-621.6075"/>
</g>
<!-- Node19 -->
<g id="node19" class="node">
<title>Node19</title>
<g id="a_node19"><a xlink:href="../../d2/d0d/message_8h.html" target="_top" xlink:title=" ">
<polygon fill="#ffffff" stroke="#666666" points="2530.5,-624 2465.5,-624 2465.5,-605 2530.5,-605 2530.5,-624"/>
<text text-anchor="middle" x="2498" y="-612" font-family="Helvetica,sans-Serif" font-size="10.00" fill="#000000">message.h</text>
</a>
</g>
</g>
<!-- Node1&#45;&gt;Node19 -->
<g id="edge20" class="edge">
<title>Node1&#45;&gt;Node19</title>
<path fill="none" stroke="#63b8ff" d="M1442.1862,-667.6944C1576.7355,-662.0135 2000.3509,-643.7086 2351,-624 2386.0212,-622.0316 2425.7117,-619.4455 2455.0156,-617.4685"/>
<polygon fill="#63b8ff" stroke="#63b8ff" points="2455.5737,-620.9388 2465.3139,-616.77 2455.1,-613.9549 2455.5737,-620.9388"/>
</g>
<!-- Node21 -->
<g id="node21" class="node">
<title>Node21</title>
<g id="a_node21"><a xlink:href="../../d1/da1/doxygen_8h.html" target="_top" xlink:title=" ">
<polygon fill="#ffffff" stroke="#666666" points="657,-514 595,-514 595,-495 657,-495 657,-514"/>
<text text-anchor="middle" x="626" y="-502" font-family="Helvetica,sans-Serif" font-size="10.00" fill="#000000">doxygen.h</text>
</a>
</g>
</g>
<!-- Node1&#45;&gt;Node21 -->
<g id="edge23" class="edge">
<title>Node1&#45;&gt;Node21</title>
<path fill="none" stroke="#63b8ff" d="M1355.6477,-667.5989C1225.7603,-661.7147 845.5031,-643.0474 793,-624 730.7739,-601.4252 670.9632,-548.7357 642.7972,-521.4898"/>
<polygon fill="#63b8ff" stroke="#63b8ff" points="644.9915,-518.7386 635.4093,-514.2185 640.0813,-523.7276 644.9915,-518.7386"/>
</g>
<!-- Node34 -->
<g id="node34" class="node">
<title>Node34</title>
<g id="a_node34"><a xlink:href="../../d4/d46/memberdef_8h.html" target="_top" xlink:title=" ">
<polygon fill="#ffffff" stroke="#666666" points="962,-404 888,-404 888,-385 962,-385 962,-404"/>
<text text-anchor="middle" x="925" y="-392" font-family="Helvetica,sans-Serif" font-size="10.00" fill="#000000">memberdef.h</text>
</a>
</g>
</g>
<!-- Node1&#45;&gt;Node34 -->
<g id="edge117" class="edge">
<title>Node1&#45;&gt;Node34</title>
<path fill="none" stroke="#63b8ff" d="M1355.9278,-666.5632C1254.0969,-658.4414 1007,-631.3329 1007,-559.5 1007,-559.5 1007,-559.5 1007,-504.5 1007,-464.4422 971.6133,-429.544 947.3324,-410.3133"/>
<polygon fill="#63b8ff" stroke="#63b8ff" points="949.3591,-407.4574 939.2833,-404.1818 945.1173,-413.0258 949.3591,-407.4574"/>
</g>
<!-- Node37 -->
<g id="node37" class="node">
<title>Node37</title>
<g id="a_node37"><a xlink:href="../../d1/da6/classdef_8h.html" target="_top" xlink:title=" ">
<polygon fill="#ffffff" stroke="#666666" points="741,-349 679,-349 679,-330 741,-330 741,-349"/>
<text text-anchor="middle" x="710" y="-337" font-family="Helvetica,sans-Serif" font-size="10.00" fill="#000000">classdef.h</text>
</a>
</g>
</g>
<!-- Node1&#45;&gt;Node37 -->
<g id="edge111" class="edge">
<title>Node1&#45;&gt;Node37</title>
<path fill="none" stroke="#63b8ff" d="M1355.6836,-667.0372C1273.6641,-661.8708 1098.9772,-648.3212 1044,-624 897.1559,-559.038 765.6725,-408.1491 723.8241,-356.8967"/>
<polygon fill="#63b8ff" stroke="#63b8ff" points="726.4822,-354.6174 717.4755,-349.0379 721.037,-359.0162 726.4822,-354.6174"/>
</g>
<!-- Node45 -->
<g id="node45" class="node">
<title>Node45</title>
<g id="a_node45"><a xlink:href="../../d1/de6/groupdef_8h.html" target="_top" xlink:title=" ">
<polygon fill="#ffffff" stroke="#666666" points="1151,-404 1089,-404 1089,-385 1151,-385 1151,-404"/>
<text text-anchor="middle" x="1120" y="-392" font-family="Helvetica,sans-Serif" font-size="10.00" fill="#000000">groupdef.h</text>
</a>
</g>
</g>
<!-- Node1&#45;&gt;Node45 -->
<g id="edge101" class="edge">
<title>Node1&#45;&gt;Node45</title>
<path fill="none" stroke="#63b8ff" d="M1355.736,-660.6809C1281.3207,-644.2578 1137,-606.3658 1137,-559.5 1137,-559.5 1137,-559.5 1137,-504.5 1137,-472.5762 1129.9205,-436.046 1124.8986,-414.1491"/>
<polygon fill="#63b8ff" stroke="#63b8ff" points="1128.2343,-413.0486 1122.5084,-404.1342 1121.4255,-414.6736 1128.2343,-413.0486"/>
</g>
<!-- Node47 -->
<g id="node47" class="node">
<title>Node47</title>
<g id="a_node47"><a xlink:href="../../d4/d3a/filedef_8h.html" target="_top" xlink:title=" ">
<polygon fill="#ffffff" stroke="#666666" points="543.5,-514 492.5,-514 492.5,-495 543.5,-495 543.5,-514"/>
<text text-anchor="middle" x="518" y="-502" font-family="Helvetica,sans-Serif" font-size="10.00" fill="#000000">filedef.h</text>
</a>
</g>
</g>
<!-- Node1&#45;&gt;Node47 -->
<g id="edge112" class="edge">
<title>Node1&#45;&gt;Node47</title>
<path fill="none" stroke="#63b8ff" d="M1355.6323,-668.7346C1229.4976,-666.1498 864.4833,-656.0318 750,-624 667.4244,-600.8958 580.1442,-546.6405 540.247,-519.921"/>
<polygon fill="#63b8ff" stroke="#63b8ff" points="542.0529,-516.9169 531.8107,-514.206 538.1269,-522.7123 542.0529,-516.9169"/>
</g>
<!-- Node48 -->
<g id="node48" class="node">
<title>Node48</title>
<g id="a_node48"><a xlink:href="../../d7/d97/namespacedef_8h.html" target="_top" xlink:title=" ">
<polygon fill="#ffffff" stroke="#666666" points="449.5,-569 360.5,-569 360.5,-550 449.5,-550 449.5,-569"/>
<text text-anchor="middle" x="405" y="-557" font-family="Helvetica,sans-Serif" font-size="10.00" fill="#000000">namespacedef.h</text>
</a>
</g>
</g>
<!-- Node1&#45;&gt;Node48 -->
<g id="edge118" class="edge">
<title>Node1&#45;&gt;Node48</title>
<path fill="none" stroke="#63b8ff" d="M1355.7884,-668.9938C1207.3159,-666.9653 718.8131,-657.8199 566,-624 516.9761,-613.1503 463.5084,-589.0688 432.1858,-573.5964"/>
<polygon fill="#63b8ff" stroke="#63b8ff" points="433.7136,-570.4472 423.2054,-569.0952 430.5769,-576.7051 433.7136,-570.4472"/>
</g>
<!-- Node49 -->
<g id="node49" class="node">
<title>Node49</title>
<g id="a_node49"><a xlink:href="../../d8/d3c/util_8h.html" target="_top" xlink:title="A bunch of utility functions.">
<polygon fill="#ffffff" stroke="#666666" points="1724,-624 1686,-624 1686,-605 1724,-605 1724,-624"/>
<text text-anchor="middle" x="1705" y="-612" font-family="Helvetica,sans-Serif" font-size="10.00" fill="#000000">util.h</text>
</a>
</g>
</g>
<!-- Node1&#45;&gt;Node49 -->
<g id="edge124" class="edge">
<title>Node1&#45;&gt;Node49</title>
<path fill="none" stroke="#63b8ff" d="M1442.1389,-662.2681C1493.5959,-653.5617 1582.1853,-638.3191 1658,-624 1663.7261,-622.9185 1669.8348,-621.7182 1675.6888,-620.5448"/>
<polygon fill="#63b8ff" stroke="#63b8ff" points="1676.7074,-623.9097 1685.8132,-618.4935 1675.3173,-617.0491 1676.7074,-623.9097"/>
</g>
<!-- Node60 -->
<g id="node60" class="node">
<title>Node60</title>
<g id="a_node60"><a xlink:href="../../d4/d7d/textstream_8h.html" target="_top" xlink:title=" ">
<polygon fill="#ffffff" stroke="#666666" points="2443.5,-239 2372.5,-239 2372.5,-220 2443.5,-220 2443.5,-239"/>
<text text-anchor="middle" x="2408" y="-227" font-family="Helvetica,sans-Serif" font-size="10.00" fill="#000000">textstream.h</text>
</a>
</g>
</g>
<!-- Node1&#45;&gt;Node60 -->
<g id="edge173" class="edge">
<title>Node1&#45;&gt;Node60</title>
<path fill="none" stroke="#63b8ff" d="M1442.1487,-669.2221C1608.6967,-667.885 2204.1689,-660.5674 2280,-624 2314.4591,-607.383 2337,-597.7564 2337,-559.5 2337,-559.5 2337,-559.5 2337,-339.5 2337,-301.2056 2367.7509,-265.673 2388.7776,-245.8528"/>
<polygon fill="#63b8ff" stroke="#63b8ff" points="2391.2195,-248.3632 2396.2758,-239.0528 2386.517,-243.1779 2391.2195,-248.3632"/>
</g>
<!-- Node6 -->
<g id="node6" class="node">
<title>Node6</title>
<g id="a_node6"><a xlink:title=" ">
<polygon fill="#e0e0e0" stroke="#999999" points="1408,-129 1356,-129 1356,-110 1408,-110 1408,-129"/>
<text text-anchor="middle" x="1382" y="-117" font-family="Helvetica,sans-Serif" font-size="10.00" fill="#000000">memory</text>
</a>
</g>
</g>
<!-- Node5&#45;&gt;Node6 -->
<g id="edge5" class="edge">
<title>Node5&#45;&gt;Node6</title>
<path fill="none" stroke="#63b8ff" d="M2229.3041,-166.6463C2226.1786,-166.0059 2223.0349,-165.4379 2220,-165 1887.5061,-117.0278 1799.8407,-156.1155 1465,-129 1449.6445,-127.7565 1432.7426,-125.9094 1418.221,-124.1737"/>
<polygon fill="#63b8ff" stroke="#63b8ff" points="1418.4747,-120.6787 1408.1239,-122.9397 1417.6255,-127.6271 1418.4747,-120.6787"/>
</g>
<!-- Node7 -->
<g id="node7" class="node">
<title>Node7</title>
<g id="a_node7"><a xlink:href="../../d7/d5c/qcstring_8h.html" target="_top" xlink:title=" ">
<polygon fill="#ffffff" stroke="#666666" points="1938.5,-129 1879.5,-129 1879.5,-110 1938.5,-110 1938.5,-129"/>
<text text-anchor="middle" x="1909" y="-117" font-family="Helvetica,sans-Serif" font-size="10.00" fill="#000000">qcstring.h</text>
</a>
</g>
</g>
<!-- Node5&#45;&gt;Node7 -->
<g id="edge6" class="edge">
<title>Node5&#45;&gt;Node7</title>
<path fill="none" stroke="#63b8ff" d="M2229.2527,-166.9499C2226.1372,-166.2503 2223.0099,-165.5854 2220,-165 2123.2348,-146.1789 2008.1677,-131.263 1948.8164,-124.1131"/>
<polygon fill="#63b8ff" stroke="#63b8ff" points="1949.0889,-120.6209 1938.7443,-122.9101 1948.2586,-127.5715 1949.0889,-120.6209"/>
</g>
<!-- Node8 -->
<g id="node8" class="node">
<title>Node8</title>
<g id="a_node8"><a xlink:title=" ">
<polygon fill="#e0e0e0" stroke="#999999" points="1713.5,-19 1672.5,-19 1672.5,0 1713.5,0 1713.5,-19"/>
<text text-anchor="middle" x="1693" y="-7" font-family="Helvetica,sans-Serif" font-size="10.00" fill="#000000">string</text>
</a>
</g>
</g>
<!-- Node7&#45;&gt;Node8 -->
<g id="edge7" class="edge">
<title>Node7&#45;&gt;Node8</title>
<path fill="none" stroke="#63b8ff" d="M1879.4135,-116.1034C1845.859,-111.1536 1790.5518,-99.587 1750,-74 1731.3386,-62.2252 1715.2417,-42.5757 1704.9592,-28.0527"/>
<polygon fill="#63b8ff" stroke="#63b8ff" points="1707.5862,-25.6908 1699.0733,-19.3835 1701.7949,-29.6229 1707.5862,-25.6908"/>
</g>
<!-- Node9 -->
<g id="node9" class="node">
<title>Node9</title>
<g id="a_node9"><a xlink:title=" ">
<polygon fill="#e0e0e0" stroke="#999999" points="411,-74 355,-74 355,-55 411,-55 411,-74"/>
<text text-anchor="middle" x="383" y="-62" font-family="Helvetica,sans-Serif" font-size="10.00" fill="#000000">algorithm</text>
</a>
</g>
</g>
<!-- Node7&#45;&gt;Node9 -->
<g id="edge8" class="edge">
<title>Node7&#45;&gt;Node9</title>
<path fill="none" stroke="#63b8ff" d="M1879.2018,-118.426C1688.1236,-111.5392 636.0584,-73.6207 421.2918,-65.8801"/>
<polygon fill="#63b8ff" stroke="#63b8ff" points="421.2585,-62.3767 411.1389,-65.5142 421.0063,-69.3722 421.2585,-62.3767"/>
</g>
<!-- Node10 -->
<g id="node10" class="node">
<title>Node10</title>
<g id="a_node10"><a xlink:title=" ">
<polygon fill="#e0e0e0" stroke="#999999" points="1658,-74 1612,-74 1612,-55 1658,-55 1658,-74"/>
<text text-anchor="middle" x="1635" y="-62" font-family="Helvetica,sans-Serif" font-size="10.00" fill="#000000">cctype</text>
</a>
</g>
</g>
<!-- Node7&#45;&gt;Node10 -->
<g id="edge9" class="edge">
<title>Node7&#45;&gt;Node10</title>
<path fill="none" stroke="#63b8ff" d="M1879.4169,-113.5618C1827.9137,-103.2236 1722.1327,-81.9901 1668.2017,-71.1646"/>
<polygon fill="#63b8ff" stroke="#63b8ff" points="1668.6316,-67.6811 1658.1383,-69.1445 1667.2539,-74.5442 1668.6316,-67.6811"/>
</g>
<!-- Node11 -->
<g id="node11" class="node">
<title>Node11</title>
<g id="a_node11"><a xlink:title=" ">
<polygon fill="#e0e0e0" stroke="#999999" points="1805,-74 1759,-74 1759,-55 1805,-55 1805,-74"/>
<text text-anchor="middle" x="1782" y="-62" font-family="Helvetica,sans-Serif" font-size="10.00" fill="#000000">cstring</text>
</a>
</g>
</g>
<!-- Node7&#45;&gt;Node11 -->
<g id="edge10" class="edge">
<title>Node7&#45;&gt;Node11</title>
<path fill="none" stroke="#63b8ff" d="M1886.8783,-109.9197C1866.6064,-101.1406 1836.3692,-88.0457 1813.5628,-78.1689"/>
<polygon fill="#63b8ff" stroke="#63b8ff" points="1814.8617,-74.9174 1804.2943,-74.155 1812.0798,-81.3409 1814.8617,-74.9174"/>
</g>
<!-- Node12 -->
<g id="node12" class="node">
<title>Node12</title>
<g id="a_node12"><a xlink:title=" ">
<polygon fill="#e0e0e0" stroke="#999999" points="2193.5,-74 2150.5,-74 2150.5,-55 2193.5,-55 2193.5,-74"/>
<text text-anchor="middle" x="2172" y="-62" font-family="Helvetica,sans-Serif" font-size="10.00" fill="#000000">cstdio</text>
</a>
</g>
</g>
<!-- Node7&#45;&gt;Node12 -->
<g id="edge11" class="edge">
<title>Node7&#45;&gt;Node12</title>
<path fill="none" stroke="#63b8ff" d="M1938.6582,-113.2977C1988.6787,-102.8371 2089.3551,-81.7832 2140.5544,-71.0761"/>
<polygon fill="#63b8ff" stroke="#63b8ff" points="2141.3273,-74.4902 2150.3991,-69.0173 2139.8943,-67.6385 2141.3273,-74.4902"/>
</g>
<!-- Node13 -->
<g id="node13" class="node">
<title>Node13</title>
<g id="a_node13"><a xlink:title=" ">
<polygon fill="#e0e0e0" stroke="#999999" points="1868.5,-74 1823.5,-74 1823.5,-55 1868.5,-55 1868.5,-74"/>
<text text-anchor="middle" x="1846" y="-62" font-family="Helvetica,sans-Serif" font-size="10.00" fill="#000000">cstdlib</text>
</a>
</g>
</g>
<!-- Node7&#45;&gt;Node13 -->
<g id="edge12" class="edge">
<title>Node7&#45;&gt;Node13</title>
<path fill="none" stroke="#63b8ff" d="M1898.0262,-109.9197C1888.9242,-101.9735 1875.7721,-90.4916 1864.9693,-81.0605"/>
<polygon fill="#63b8ff" stroke="#63b8ff" points="1867.1072,-78.2808 1857.2722,-74.3408 1862.5036,-83.5541 1867.1072,-78.2808"/>
</g>
<!-- Node14 -->
<g id="node14" class="node">
<title>Node14</title>
<g id="a_node14"><a xlink:title=" ">
<polygon fill="#e0e0e0" stroke="#999999" points="2050,-19 2004,-19 2004,0 2050,0 2050,-19"/>
<text text-anchor="middle" x="2027" y="-7" font-family="Helvetica,sans-Serif" font-size="10.00" fill="#000000">cstdint</text>
</a>
</g>
</g>
<!-- Node7&#45;&gt;Node14 -->
<g id="edge13" class="edge">
<title>Node7&#45;&gt;Node14</title>
<path fill="none" stroke="#63b8ff" d="M1938.6515,-112.6708C1960.4358,-106.1906 1989.2213,-94.3361 2007,-74 2017.838,-61.603 2022.8038,-43.3939 2025.0785,-29.4818"/>
<polygon fill="#63b8ff" stroke="#63b8ff" points="2028.5656,-29.8074 2026.3867,-19.4391 2021.6243,-28.9032 2028.5656,-29.8074"/>
</g>
<!-- Node15 -->
<g id="node15" class="node">
<title>Node15</title>
<g id="a_node15"><a xlink:title=" ">
<polygon fill="#e0e0e0" stroke="#999999" points="1939,-74 1887,-74 1887,-55 1939,-55 1939,-74"/>
<text text-anchor="middle" x="1913" y="-62" font-family="Helvetica,sans-Serif" font-size="10.00" fill="#000000">ostream</text>
</a>
</g>
</g>
<!-- Node7&#45;&gt;Node15 -->
<g id="edge14" class="edge">
<title>Node7&#45;&gt;Node15</title>
<path fill="none" stroke="#63b8ff" d="M1909.6967,-109.9197C1910.2067,-102.9083 1910.9168,-93.1442 1911.548,-84.4652"/>
<polygon fill="#63b8ff" stroke="#63b8ff" points="1915.0496,-84.5684 1912.2843,-74.3408 1908.0681,-84.0606 1915.0496,-84.5684"/>
</g>
<!-- Node16 -->
<g id="node16" class="node">
<title>Node16</title>
<g id="a_node16"><a xlink:href="../../db/d7c/utf8_8h.html" target="_top" xlink:title="Various UTF8 related helper functions.">
<polygon fill="#ffffff" stroke="#666666" points="1998.5,-74 1957.5,-74 1957.5,-55 1998.5,-55 1998.5,-74"/>
<text text-anchor="middle" x="1978" y="-62" font-family="Helvetica,sans-Serif" font-size="10.00" fill="#000000">utf8.h</text>
</a>
</g>
</g>
<!-- Node7&#45;&gt;Node16 -->
<g id="edge15" class="edge">
<title>Node7&#45;&gt;Node16</title>
<path fill="none" stroke="#63b8ff" d="M1921.0189,-109.9197C1931.0856,-101.8956 1945.6753,-90.2661 1957.5713,-80.7837"/>
<polygon fill="#63b8ff" stroke="#63b8ff" points="1960.0161,-83.3109 1965.6542,-74.3408 1955.6529,-77.8371 1960.0161,-83.3109"/>
</g>
<!-- Node16&#45;&gt;Node8 -->
<g id="edge17" class="edge">
<title>Node16&#45;&gt;Node8</title>
<path fill="none" stroke="#63b8ff" d="M1957.4433,-57.6026C1954.2991,-56.6605 1951.0766,-55.7582 1948,-55 1868.0306,-35.2924 1771.9683,-20.4951 1723.7704,-13.6691"/>
<polygon fill="#63b8ff" stroke="#63b8ff" points="1724.0722,-10.1773 1713.6838,-12.2585 1723.1026,-17.1099 1724.0722,-10.1773"/>
</g>
<!-- Node16&#45;&gt;Node14 -->
<g id="edge16" class="edge">
<title>Node16&#45;&gt;Node14</title>
<path fill="none" stroke="#63b8ff" d="M1986.5351,-54.9197C1993.4063,-47.2072 2003.2449,-36.1639 2011.5001,-26.8978"/>
<polygon fill="#63b8ff" stroke="#63b8ff" points="2014.1939,-29.1357 2018.2327,-19.3408 2008.9673,-24.4792 2014.1939,-29.1357"/>
</g>
<!-- Node18 -->
<g id="node18" class="node">
<title>Node18</title>
<g id="a_node18"><a xlink:title=" ">
<polygon fill="#e0e0e0" stroke="#999999" points="2727,-569 2647,-569 2647,-550 2727,-550 2727,-569"/>
<text text-anchor="middle" x="2687" y="-557" font-family="Helvetica,sans-Serif" font-size="10.00" fill="#000000">configvalues.h</text>
</a>
</g>
</g>
<!-- Node17&#45;&gt;Node18 -->
<g id="edge19" class="edge">
<title>Node17&#45;&gt;Node18</title>
<path fill="none" stroke="#63b8ff" d="M2653.1417,-604.9197C2658.7749,-597.363 2666.7917,-586.6087 2673.6105,-577.4616"/>
<polygon fill="#63b8ff" stroke="#63b8ff" points="2676.4935,-579.4501 2679.6641,-569.3408 2670.8813,-575.2665 2676.4935,-579.4501"/>
</g>
<!-- Node19&#45;&gt;Node7 -->
<g id="edge22" class="edge">
<title>Node19&#45;&gt;Node7</title>
<path fill="none" stroke="#63b8ff" d="M2523.0713,-604.9394C2558.5129,-589.5972 2619,-555.886 2619,-504.5 2619,-504.5 2619,-504.5 2619,-229.5 2619,-170.5106 2559.4931,-181.9788 2503,-165 2398.7839,-133.6783 2064.5468,-123.1059 1948.8571,-120.3345"/>
<polygon fill="#63b8ff" stroke="#63b8ff" points="1948.7535,-116.8312 1938.6747,-120.0973 1948.5905,-123.8293 1948.7535,-116.8312"/>
</g>
<!-- Node20 -->
<g id="node20" class="node">
<title>Node20</title>
<g id="a_node20"><a xlink:title=" ">
<polygon fill="#e0e0e0" stroke="#999999" points="2522.5,-569 2473.5,-569 2473.5,-550 2522.5,-550 2522.5,-569"/>
<text text-anchor="middle" x="2498" y="-557" font-family="Helvetica,sans-Serif" font-size="10.00" fill="#000000">cstdarg</text>
</a>
</g>
</g>
<!-- Node19&#45;&gt;Node20 -->
<g id="edge21" class="edge">
<title>Node19&#45;&gt;Node20</title>
<path fill="none" stroke="#63b8ff" d="M2498,-604.9197C2498,-597.9083 2498,-588.1442 2498,-579.4652"/>
<polygon fill="#63b8ff" stroke="#63b8ff" points="2501.5001,-579.3408 2498,-569.3408 2494.5001,-579.3409 2501.5001,-579.3408"/>
</g>
<!-- Node22 -->
<g id="node22" class="node">
<title>Node22</title>
<g id="a_node22"><a xlink:href="../../d5/d75/containers_8h.html" target="_top" xlink:title=" ">
<polygon fill="#ffffff" stroke="#666666" points="686,-294 616,-294 616,-275 686,-275 686,-294"/>
<text text-anchor="middle" x="651" y="-282" font-family="Helvetica,sans-Serif" font-size="10.00" fill="#000000">containers.h</text>
</a>
</g>
</g>
<!-- Node21&#45;&gt;Node22 -->
<g id="edge24" class="edge">
<title>Node21&#45;&gt;Node22</title>
<path fill="none" stroke="#63b8ff" d="M620.9268,-494.9141C607.2748,-467.731 572.5251,-388.3445 599,-330 604.5378,-317.7961 615.1453,-307.5785 625.3432,-299.9377"/>
<polygon fill="#63b8ff" stroke="#63b8ff" points="627.476,-302.7178 633.6926,-294.1385 623.4827,-296.9685 627.476,-302.7178"/>
</g>
<!-- Node27 -->
<g id="node27" class="node">
<title>Node27</title>
<g id="a_node27"><a xlink:href="../../d9/d11/membergroup_8h.html" target="_top" xlink:title=" ">
<polygon fill="#ffffff" stroke="#666666" points="805,-294 721,-294 721,-275 805,-275 805,-294"/>
<text text-anchor="middle" x="763" y="-282" font-family="Helvetica,sans-Serif" font-size="10.00" fill="#000000">membergroup.h</text>
</a>
</g>
</g>
<!-- Node21&#45;&gt;Node27 -->
<g id="edge32" class="edge">
<title>Node21&#45;&gt;Node27</title>
<path fill="none" stroke="#63b8ff" d="M625.7516,-494.9663C625.511,-466.5451 628.4763,-381.2025 670,-330 682.132,-315.0401 700.402,-304.632 717.5459,-297.5863"/>
<polygon fill="#63b8ff" stroke="#63b8ff" points="718.8153,-300.8481 726.9083,-294.0103 716.3176,-294.3089 718.8153,-300.8481"/>
</g>
<!-- Node31 -->
<g id="node31" class="node">
<title>Node31</title>
<g id="a_node31"><a xlink:href="../../d6/d15/dirdef_8h.html" target="_top" xlink:title=" ">
<polygon fill="#ffffff" stroke="#666666" points="1160.5,-349 1111.5,-349 1111.5,-330 1160.5,-330 1160.5,-349"/>
<text text-anchor="middle" x="1136" y="-337" font-family="Helvetica,sans-Serif" font-size="10.00" fill="#000000">dirdef.h</text>
</a>
</g>
</g>
<!-- Node21&#45;&gt;Node31 -->
<g id="edge51" class="edge">
<title>Node21&#45;&gt;Node31</title>
<path fill="none" stroke="#63b8ff" d="M657.2154,-496.409C718.0935,-480.4095 856.7218,-442.8946 971,-404 1017.8367,-388.0591 1070.9604,-366.6847 1103.9775,-352.9991"/>
<polygon fill="#63b8ff" stroke="#63b8ff" points="1105.6633,-356.0885 1113.5495,-349.0132 1102.9724,-349.6263 1105.6633,-356.0885"/>
</g>
<!-- Node33 -->
<g id="node33" class="node">
<title>Node33</title>
<g id="a_node33"><a xlink:href="../../dd/d78/memberlist_8h.html" target="_top" xlink:title=" ">
<polygon fill="#ffffff" stroke="#666666" points="554.5,-459 481.5,-459 481.5,-440 554.5,-440 554.5,-459"/>
<text text-anchor="middle" x="518" y="-447" font-family="Helvetica,sans-Serif" font-size="10.00" fill="#000000">memberlist.h</text>
</a>
</g>
</g>
<!-- Node21&#45;&gt;Node33 -->
<g id="edge60" class="edge">
<title>Node21&#45;&gt;Node33</title>
<path fill="none" stroke="#63b8ff" d="M607.1878,-494.9197C590.2566,-486.2973 565.1508,-473.512 545.8858,-463.7011"/>
<polygon fill="#63b8ff" stroke="#63b8ff" points="547.4583,-460.5742 536.959,-459.155 544.2817,-466.812 547.4583,-460.5742"/>
</g>
<!-- Node38 -->
<g id="node38" class="node">
<title>Node38</title>
<g id="a_node38"><a xlink:href="../../df/d67/define_8h.html" target="_top" xlink:title=" ">
<polygon fill="#ffffff" stroke="#666666" points="1368.5,-349 1317.5,-349 1317.5,-330 1368.5,-330 1368.5,-349"/>
<text text-anchor="middle" x="1343" y="-337" font-family="Helvetica,sans-Serif" font-size="10.00" fill="#000000">define.h</text>
</a>
</g>
</g>
<!-- Node21&#45;&gt;Node38 -->
<g id="edge82" class="edge">
<title>Node21&#45;&gt;Node38</title>
<path fill="none" stroke="#63b8ff" d="M657.0728,-500.3494C739.788,-488.9372 971.8667,-454.5404 1160,-404 1213.527,-389.6204 1273.841,-367.0818 1310.1079,-352.8114"/>
<polygon fill="#63b8ff" stroke="#63b8ff" points="1311.6674,-355.9582 1319.6738,-349.0193 1309.0877,-349.4509 1311.6674,-355.9582"/>
</g>
<!-- Node39 -->
<g id="node39" class="node">
<title>Node39</title>
<g id="a_node39"><a xlink:href="../../d3/d26/cache_8h.html" target="_top" xlink:title=" ">
<polygon fill="#ffffff" stroke="#666666" points="214.5,-184 163.5,-184 163.5,-165 214.5,-165 214.5,-184"/>
<text text-anchor="middle" x="189" y="-172" font-family="Helvetica,sans-Serif" font-size="10.00" fill="#000000">cache.h</text>
</a>
</g>
</g>
<!-- Node21&#45;&gt;Node39 -->
<g id="edge89" class="edge">
<title>Node21&#45;&gt;Node39</title>
<path fill="none" stroke="#63b8ff" d="M594.8094,-498.8705C520.331,-484.8641 334.9727,-446.4986 290,-404 226.8404,-344.3151 200.7683,-238.1639 192.3481,-194.3048"/>
<polygon fill="#63b8ff" stroke="#63b8ff" points="195.7688,-193.5522 190.5377,-184.3389 188.8815,-194.8035 195.7688,-193.5522"/>
</g>
<!-- Node44 -->
<g id="node44" class="node">
<title>Node44</title>
<g id="a_node44"><a xlink:href="../../d7/ddd/symbolmap_8h.html" target="_top" xlink:title=" ">
<polygon fill="#ffffff" stroke="#666666" points="363.5,-184 288.5,-184 288.5,-165 363.5,-165 363.5,-184"/>
<text text-anchor="middle" x="326" y="-172" font-family="Helvetica,sans-Serif" font-size="10.00" fill="#000000">symbolmap.h</text>
</a>
</g>
</g>
<!-- Node21&#45;&gt;Node44 -->
<g id="edge95" class="edge">
<title>Node21&#45;&gt;Node44</title>
<path fill="none" stroke="#63b8ff" d="M594.8325,-499.0367C562.7167,-492.5667 511.8591,-479.9384 472,-459 437.5886,-440.9233 430.0698,-432.8319 404,-404 347.7784,-341.8218 331.8244,-237.4518 327.5125,-194.198"/>
<polygon fill="#63b8ff" stroke="#63b8ff" points="330.99,-193.7895 326.615,-184.1402 324.0177,-194.4117 330.99,-193.7895"/>
</g>
<!-- Node22&#45;&gt;Node2 -->
<g id="edge27" class="edge">
<title>Node22&#45;&gt;Node2</title>
<path fill="none" stroke="#63b8ff" d="M615.9598,-280.6762C520.0345,-270.2081 254.7996,-241.2638 172.0161,-232.2299"/>
<polygon fill="#63b8ff" stroke="#63b8ff" points="172.3216,-228.7426 162.0009,-231.137 171.5621,-235.7013 172.3216,-228.7426"/>
</g>
<!-- Node22&#45;&gt;Node3 -->
<g id="edge31" class="edge">
<title>Node22&#45;&gt;Node3</title>
<path fill="none" stroke="#63b8ff" d="M686.0714,-278.3231C694.5367,-277.0303 703.572,-275.814 712,-275 1127.0894,-234.9084 1241.1468,-309.9042 1656.3337,-238.5863"/>
<polygon fill="#63b8ff" stroke="#63b8ff" points="1656.9434,-242.0329 1666.1975,-236.8742 1655.7463,-235.136 1656.9434,-242.0329"/>
</g>
<!-- Node22&#45;&gt;Node8 -->
<g id="edge26" class="edge">
<title>Node22&#45;&gt;Node8</title>
<path fill="none" stroke="#63b8ff" d="M654.8982,-274.5753C660.4556,-261.2276 671.5977,-237.1861 686,-220 784.2395,-102.7721 839.9111,-93.2499 988,-55 1118.4166,-21.3147 1544.0156,-11.9381 1662.2717,-9.9542"/>
<polygon fill="#63b8ff" stroke="#63b8ff" points="1662.4882,-13.4513 1672.4302,-9.7895 1662.3747,-6.4522 1662.4882,-13.4513"/>
</g>
<!-- Node23 -->
<g id="node23" class="node">
<title>Node23</title>
<g id="a_node23"><a xlink:title=" ">
<polygon fill="#e0e0e0" stroke="#999999" points="986,-129 942,-129 942,-110 986,-110 986,-129"/>
<text text-anchor="middle" x="964" y="-117" font-family="Helvetica,sans-Serif" font-size="10.00" fill="#000000">vector</text>
</a>
</g>
</g>
<!-- Node22&#45;&gt;Node23 -->
<g id="edge25" class="edge">
<title>Node22&#45;&gt;Node23</title>
<path fill="none" stroke="#63b8ff" d="M658.1428,-274.9717C668.4235,-261.6559 688.4284,-237.1861 709,-220 744.6849,-190.1879 755.3645,-183.5576 798,-165 842.6954,-145.5458 897.8318,-132.4098 931.9552,-125.4391"/>
<polygon fill="#63b8ff" stroke="#63b8ff" points="932.7109,-128.8574 941.8358,-123.4735 931.3451,-121.9919 932.7109,-128.8574"/>
</g>
<!-- Node24 -->
<g id="node24" class="node">
<title>Node24</title>
<g id="a_node24"><a xlink:title=" ">
<polygon fill="#e0e0e0" stroke="#999999" points="753.5,-239 718.5,-239 718.5,-220 753.5,-220 753.5,-239"/>
<text text-anchor="middle" x="736" y="-227" font-family="Helvetica,sans-Serif" font-size="10.00" fill="#000000">map</text>
</a>
</g>
</g>
<!-- Node22&#45;&gt;Node24 -->
<g id="edge28" class="edge">
<title>Node22&#45;&gt;Node24</title>
<path fill="none" stroke="#63b8ff" d="M665.8059,-274.9197C678.6468,-266.6109 697.462,-254.4363 712.3811,-244.7828"/>
<polygon fill="#63b8ff" stroke="#63b8ff" points="714.5843,-247.5261 721.0786,-239.155 710.7815,-241.6491 714.5843,-247.5261"/>
</g>
<!-- Node25 -->
<g id="node25" class="node">
<title>Node25</title>
<g id="a_node25"><a xlink:title=" ">
<polygon fill="#e0e0e0" stroke="#999999" points="624,-239 546,-239 546,-220 624,-220 624,-239"/>
<text text-anchor="middle" x="585" y="-227" font-family="Helvetica,sans-Serif" font-size="10.00" fill="#000000">unordered_set</text>
</a>
</g>
</g>
<!-- Node22&#45;&gt;Node25 -->
<g id="edge29" class="edge">
<title>Node22&#45;&gt;Node25</title>
<path fill="none" stroke="#63b8ff" d="M639.5037,-274.9197C629.8747,-266.8956 615.9193,-255.2661 604.5405,-245.7837"/>
<polygon fill="#63b8ff" stroke="#63b8ff" points="606.7319,-243.0539 596.809,-239.3408 602.2506,-248.4315 606.7319,-243.0539"/>
</g>
<!-- Node26 -->
<g id="node26" class="node">
<title>Node26</title>
<g id="a_node26"><a xlink:title=" ">
<polygon fill="#e0e0e0" stroke="#999999" points="513.5,-129 430.5,-129 430.5,-110 513.5,-110 513.5,-129"/>
<text text-anchor="middle" x="472" y="-117" font-family="Helvetica,sans-Serif" font-size="10.00" fill="#000000">unordered_map</text>
</a>
</g>
</g>
<!-- Node22&#45;&gt;Node26 -->
<g id="edge30" class="edge">
<title>Node22&#45;&gt;Node26</title>
<path fill="none" stroke="#63b8ff" d="M615.9939,-277.2127C591.5387,-270.6447 559.3867,-258.8811 537,-239 505.8041,-211.2957 486.7099,-164.9208 477.8709,-138.8366"/>
<polygon fill="#63b8ff" stroke="#63b8ff" points="481.1993,-137.754 474.7966,-129.3126 474.5377,-139.9043 481.1993,-137.754"/>
</g>
<!-- Node27&#45;&gt;Node6 -->
<g id="edge35" class="edge">
<title>Node27&#45;&gt;Node6</title>
<path fill="none" stroke="#63b8ff" d="M801.8961,-274.9617C838.5889,-265.907 895.1053,-251.8142 944,-239 1093.647,-199.7808 1271.2847,-150.4575 1346.0327,-129.5758"/>
<polygon fill="#63b8ff" stroke="#63b8ff" points="1347.195,-132.8852 1355.8835,-126.8221 1345.3104,-126.1436 1347.195,-132.8852"/>
</g>
<!-- Node27&#45;&gt;Node23 -->
<g id="edge33" class="edge">
<title>Node27&#45;&gt;Node23</title>
<path fill="none" stroke="#63b8ff" d="M764.7725,-274.8576C769.4327,-252.2527 784.154,-195.4585 819,-165 850.8575,-137.1537 899.7044,-126.34 931.7526,-122.1468"/>
<polygon fill="#63b8ff" stroke="#63b8ff" points="932.3996,-125.5952 941.9283,-120.9635 931.5909,-118.6421 932.3996,-125.5952"/>
</g>
<!-- Node27&#45;&gt;Node24 -->
<g id="edge34" class="edge">
<title>Node27&#45;&gt;Node24</title>
<path fill="none" stroke="#63b8ff" d="M758.297,-274.9197C754.7403,-267.6746 749.7407,-257.4903 745.3769,-248.601"/>
<polygon fill="#63b8ff" stroke="#63b8ff" points="748.3796,-246.7751 740.831,-239.3408 742.0959,-249.8599 748.3796,-246.7751"/>
</g>
<!-- Node28 -->
<g id="node28" class="node">
<title>Node28</title>
<g id="a_node28"><a xlink:href="../../d9/d49/types_8h.html" target="_top" xlink:title="This file contains a number of basic enums and types.">
<polygon fill="#ffffff" stroke="#666666" points="1648.5,-239 1599.5,-239 1599.5,-220 1648.5,-220 1648.5,-239"/>
<text text-anchor="middle" x="1624" y="-227" font-family="Helvetica,sans-Serif" font-size="10.00" fill="#000000">types.h</text>
</a>
</g>
</g>
<!-- Node27&#45;&gt;Node28 -->
<g id="edge36" class="edge">
<title>Node27&#45;&gt;Node28</title>
<path fill="none" stroke="#63b8ff" d="M805.158,-280.4799C824.848,-278.6735 848.6125,-276.5944 870,-275 1146.8943,-254.3575 1481.5326,-236.7367 1588.9933,-231.2596"/>
<polygon fill="#63b8ff" stroke="#63b8ff" points="1589.4401,-234.7415 1599.2496,-230.7386 1589.0849,-227.7505 1589.4401,-234.7415"/>
</g>
<!-- Node29 -->
<g id="node29" class="node">
<title>Node29</title>
<g id="a_node29"><a xlink:href="../../d1/d02/reflist_8h.html" target="_top" xlink:title=" ">
<polygon fill="#ffffff" stroke="#666666" points="935.5,-239 886.5,-239 886.5,-220 935.5,-220 935.5,-239"/>
<text text-anchor="middle" x="911" y="-227" font-family="Helvetica,sans-Serif" font-size="10.00" fill="#000000">reflist.h</text>
</a>
</g>
</g>
<!-- Node27&#45;&gt;Node29 -->
<g id="edge38" class="edge">
<title>Node27&#45;&gt;Node29</title>
<path fill="none" stroke="#63b8ff" d="M788.7796,-274.9197C813.268,-265.8193 850.2349,-252.0816 877.0998,-242.098"/>
<polygon fill="#63b8ff" stroke="#63b8ff" points="878.3441,-245.3696 886.4986,-238.6053 875.9057,-238.808 878.3441,-245.3696"/>
</g>
<!-- Node28&#45;&gt;Node7 -->
<g id="edge37" class="edge">
<title>Node28&#45;&gt;Node7</title>
<path fill="none" stroke="#63b8ff" d="M1648.6061,-220.3707C1673.0839,-211.26 1711.6943,-196.8106 1745,-184 1790.2874,-166.5808 1842.4044,-145.9898 1875.5083,-132.8423"/>
<polygon fill="#63b8ff" stroke="#63b8ff" points="1877.1429,-135.959 1885.1429,-129.0127 1874.5573,-129.454 1877.1429,-135.959"/>
</g>
<!-- Node29&#45;&gt;Node6 -->
<g id="edge41" class="edge">
<title>Node29&#45;&gt;Node6</title>
<path fill="none" stroke="#63b8ff" d="M935.5513,-221.8096C977.2712,-208.9163 1064.7992,-182.6234 1140,-165 1212.3611,-148.0421 1298.0476,-133.1327 1345.5887,-125.3102"/>
<polygon fill="#63b8ff" stroke="#63b8ff" points="1346.3933,-128.7252 1355.6985,-123.6591 1345.265,-121.8168 1346.3933,-128.7252"/>
</g>
<!-- Node29&#45;&gt;Node7 -->
<g id="edge42" class="edge">
<title>Node29&#45;&gt;Node7</title>
<path fill="none" stroke="#63b8ff" d="M935.8096,-228.9839C1043.1078,-226.5791 1467.6328,-215.2378 1597,-184 1617.7058,-179.0003 1620.5758,-171.0482 1641,-165 1720.1188,-141.5706 1816.1769,-128.9208 1869.1296,-123.255"/>
<polygon fill="#63b8ff" stroke="#63b8ff" points="1869.5439,-126.7309 1879.1276,-122.2138 1868.8188,-119.7685 1869.5439,-126.7309"/>
</g>
<!-- Node29&#45;&gt;Node23 -->
<g id="edge39" class="edge">
<title>Node29&#45;&gt;Node23</title>
<path fill="none" stroke="#63b8ff" d="M915.7034,-219.7382C924.4866,-201.5089 943.5198,-162.0062 954.8943,-138.3986"/>
<polygon fill="#63b8ff" stroke="#63b8ff" points="958.1952,-139.6109 959.3828,-129.0828 951.8891,-136.5724 958.1952,-139.6109"/>
</g>
<!-- Node29&#45;&gt;Node26 -->
<g id="edge40" class="edge">
<title>Node29&#45;&gt;Node26</title>
<path fill="none" stroke="#63b8ff" d="M886.299,-222.9406C841.61,-211.1093 744.3279,-185.5188 662,-165 614.869,-153.2534 561.0133,-140.411 522.7043,-131.3745"/>
<polygon fill="#63b8ff" stroke="#63b8ff" points="523.3587,-127.9329 512.8225,-129.0466 521.7535,-134.7464 523.3587,-127.9329"/>
</g>
<!-- Node30 -->
<g id="node30" class="node">
<title>Node30</title>
<g id="a_node30"><a xlink:href="../../da/de1/linkedmap_8h.html" target="_top" xlink:title=" ">
<polygon fill="#ffffff" stroke="#666666" points="897.5,-184 828.5,-184 828.5,-165 897.5,-165 897.5,-184"/>
<text text-anchor="middle" x="863" y="-172" font-family="Helvetica,sans-Serif" font-size="10.00" fill="#000000">linkedmap.h</text>
</a>
</g>
</g>
<!-- Node29&#45;&gt;Node30 -->
<g id="edge43" class="edge">
<title>Node29&#45;&gt;Node30</title>
<path fill="none" stroke="#63b8ff" d="M902.639,-219.9197C895.9081,-212.2072 886.2703,-201.1639 878.1836,-191.8978"/>
<polygon fill="#63b8ff" stroke="#63b8ff" points="880.8007,-189.5737 871.5884,-184.3408 875.5267,-194.1765 880.8007,-189.5737"/>
</g>
<!-- Node30&#45;&gt;Node6 -->
<g id="edge46" class="edge">
<title>Node30&#45;&gt;Node6</title>
<path fill="none" stroke="#63b8ff" d="M897.8589,-170.8059C991.9476,-160.835 1250.3981,-133.4462 1345.907,-123.3249"/>
<polygon fill="#63b8ff" stroke="#63b8ff" points="1346.3685,-126.7957 1355.944,-122.2612 1345.6308,-119.8346 1346.3685,-126.7957"/>
</g>
<!-- Node30&#45;&gt;Node7 -->
<g id="edge50" class="edge">
<title>Node30&#45;&gt;Node7</title>
<path fill="none" stroke="#63b8ff" d="M897.5044,-172.6857C1054.5308,-164.4291 1701.1902,-130.4269 1869.0457,-121.6008"/>
<polygon fill="#63b8ff" stroke="#63b8ff" points="1869.3728,-125.0886 1879.1752,-121.0682 1869.0052,-118.0982 1869.3728,-125.0886"/>
</g>
<!-- Node30&#45;&gt;Node8 -->
<g id="edge47" class="edge">
<title>Node30&#45;&gt;Node8</title>
<path fill="none" stroke="#63b8ff" d="M865.7376,-164.7084C870.3722,-150.121 881.2441,-123.0087 901,-110 1029.7806,-25.2017 1532.964,-11.8886 1662.4699,-9.8563"/>
<polygon fill="#63b8ff" stroke="#63b8ff" points="1662.5416,-13.3557 1672.4895,-9.7103 1662.4395,-6.3564 1662.5416,-13.3557"/>
</g>
<!-- Node30&#45;&gt;Node9 -->
<g id="edge48" class="edge">
<title>Node30&#45;&gt;Node9</title>
<path fill="none" stroke="#63b8ff" d="M828.4796,-166.5891C741.1327,-146.5721 511.842,-94.0263 420.9256,-73.1913"/>
<polygon fill="#63b8ff" stroke="#63b8ff" points="421.5758,-69.7496 411.0466,-70.9273 420.0121,-76.5727 421.5758,-69.7496"/>
</g>
<!-- Node30&#45;&gt;Node10 -->
<g id="edge49" class="edge">
<title>Node30&#45;&gt;Node10</title>
<path fill="none" stroke="#63b8ff" d="M869.8638,-164.9044C881.1154,-150.0541 905.0489,-121.9703 933,-110 994.8338,-83.5192 1470.1337,-68.9191 1601.4711,-65.3625"/>
<polygon fill="#63b8ff" stroke="#63b8ff" points="1601.8125,-68.8548 1611.7154,-65.0888 1601.6254,-61.8573 1601.8125,-68.8548"/>
</g>
<!-- Node30&#45;&gt;Node23 -->
<g id="edge45" class="edge">
<title>Node30&#45;&gt;Node23</title>
<path fill="none" stroke="#63b8ff" d="M880.5929,-164.9197C896.2828,-156.3757 919.479,-143.7441 937.4289,-133.9694"/>
<polygon fill="#63b8ff" stroke="#63b8ff" points="939.1614,-137.0113 946.2699,-129.155 935.8137,-130.8637 939.1614,-137.0113"/>
</g>
<!-- Node30&#45;&gt;Node26 -->
<g id="edge44" class="edge">
<title>Node30&#45;&gt;Node26</title>
<path fill="none" stroke="#63b8ff" d="M828.3625,-169.6955C768.9446,-161.4437 643.7655,-144.0154 538,-129 533.3044,-128.3334 528.4213,-127.6368 523.5311,-126.9369"/>
<polygon fill="#63b8ff" stroke="#63b8ff" points="523.9367,-123.4594 513.5411,-125.5043 522.943,-130.3885 523.9367,-123.4594"/>
</g>
<!-- Node31&#45;&gt;Node7 -->
<g id="edge54" class="edge">
<title>Node31&#45;&gt;Node7</title>
<path fill="none" stroke="#63b8ff" d="M1160.6054,-333.0129C1238.3459,-312.4222 1485.5256,-246.2267 1688,-184 1713.5254,-176.1553 1719.4591,-172.7943 1745,-165 1787.2591,-152.1039 1836.1041,-138.7495 1869.4234,-129.872"/>
<polygon fill="#63b8ff" stroke="#63b8ff" points="1870.4735,-133.2146 1879.2409,-127.2662 1868.6776,-126.4489 1870.4735,-133.2146"/>
</g>
<!-- Node31&#45;&gt;Node23 -->
<g id="edge52" class="edge">
<title>Node31&#45;&gt;Node23</title>
<path fill="none" stroke="#63b8ff" d="M1128.3874,-329.763C1101.7467,-295.6876 1012.4537,-181.4757 977.8578,-137.225"/>
<polygon fill="#63b8ff" stroke="#63b8ff" points="980.4412,-134.8469 971.5246,-129.1245 974.9266,-139.1584 980.4412,-134.8469"/>
</g>
<!-- Node31&#45;&gt;Node24 -->
<g id="edge53" class="edge">
<title>Node31&#45;&gt;Node24</title>
<path fill="none" stroke="#63b8ff" d="M1111.2782,-332.3724C1082.9127,-323.999 1035.1399,-309.2972 995,-294 975.4761,-286.5595 971.8859,-281.4104 952,-275 885.8989,-253.6919 805.1398,-239.7506 763.6013,-233.4242"/>
<polygon fill="#63b8ff" stroke="#63b8ff" points="764.0876,-229.9581 753.6808,-231.9454 763.0554,-236.8816 764.0876,-229.9581"/>
</g>
<!-- Node31&#45;&gt;Node30 -->
<g id="edge55" class="edge">
<title>Node31&#45;&gt;Node30</title>
<path fill="none" stroke="#63b8ff" d="M1114.3432,-329.9226C1076.3416,-313.1376 1000.482,-279.7312 988,-275 939.5038,-256.6181 911.7963,-277.4577 877,-239 866.0808,-226.9318 862.9683,-208.4007 862.3612,-194.2929"/>
<polygon fill="#63b8ff" stroke="#63b8ff" points="865.8605,-194.1171 862.3101,-184.1349 858.8606,-194.1524 865.8605,-194.1171"/>
</g>
<!-- Node32 -->
<g id="node32" class="node">
<title>Node32</title>
<g id="a_node32"><a xlink:href="../../df/da1/definition_8h.html" target="_top" xlink:title=" ">
<polygon fill="#ffffff" stroke="#666666" points="943,-294 879,-294 879,-275 943,-275 943,-294"/>
<text text-anchor="middle" x="911" y="-282" font-family="Helvetica,sans-Serif" font-size="10.00" fill="#000000">definition.h</text>
</a>
</g>
</g>
<!-- Node31&#45;&gt;Node32 -->
<g id="edge56" class="edge">
<title>Node31&#45;&gt;Node32</title>
<path fill="none" stroke="#63b8ff" d="M1111.4927,-333.5093C1073.399,-324.1975 999.5192,-306.138 952.8625,-294.7331"/>
<polygon fill="#63b8ff" stroke="#63b8ff" points="953.6019,-291.3108 943.0568,-292.3361 951.9397,-298.1106 953.6019,-291.3108"/>
</g>
<!-- Node32&#45;&gt;Node23 -->
<g id="edge57" class="edge">
<title>Node32&#45;&gt;Node23</title>
<path fill="none" stroke="#63b8ff" d="M935.7999,-274.8565C950.9688,-267.5098 969.115,-255.774 978,-239 995.025,-206.8586 982.413,-163.1554 972.6044,-138.4884"/>
<polygon fill="#63b8ff" stroke="#63b8ff" points="975.7837,-137.0202 968.6669,-129.1715 969.3359,-139.7453 975.7837,-137.0202"/>
</g>
<!-- Node32&#45;&gt;Node28 -->
<g id="edge58" class="edge">
<title>Node32&#45;&gt;Node28</title>
<path fill="none" stroke="#63b8ff" d="M943.0213,-282.0299C1060.4655,-272.9704 1467.0599,-241.6062 1589.1006,-232.1921"/>
<polygon fill="#63b8ff" stroke="#63b8ff" points="1589.656,-235.6597 1599.3571,-231.4009 1589.1175,-228.6805 1589.656,-235.6597"/>
</g>
<!-- Node32&#45;&gt;Node29 -->
<g id="edge59" class="edge">
<title>Node32&#45;&gt;Node29</title>
<path fill="none" stroke="#63b8ff" d="M911,-274.9197C911,-267.9083 911,-258.1442 911,-249.4652"/>
<polygon fill="#63b8ff" stroke="#63b8ff" points="914.5001,-249.3408 911,-239.3408 907.5001,-249.3409 914.5001,-249.3408"/>
</g>
<!-- Node33&#45;&gt;Node9 -->
<g id="edge62" class="edge">
<title>Node33&#45;&gt;Node9</title>
<path fill="none" stroke="#63b8ff" d="M502.1252,-439.9575C454.0714,-409.8722 311.4869,-311.4027 279,-184 267.1474,-137.5181 319.7196,-98.9038 354.4325,-79.0124"/>
<polygon fill="#63b8ff" stroke="#63b8ff" points="356.194,-82.0379 363.2519,-74.1362 352.8069,-75.9119 356.194,-82.0379"/>
</g>
<!-- Node33&#45;&gt;Node23 -->
<g id="edge61" class="edge">
<title>Node33&#45;&gt;Node23</title>
<path fill="none" stroke="#63b8ff" d="M513.0925,-439.6603C508.8362,-430.6284 502.9143,-416.7535 500,-404 492.6626,-371.8908 491.7667,-362.6637 496,-330 506.8761,-246.0822 513.3283,-198.5797 591,-165 652.0509,-138.606 852.493,-125.3915 931.5371,-121.1065"/>
<polygon fill="#63b8ff" stroke="#63b8ff" points="932.0566,-124.584 941.8578,-120.5607 931.6868,-117.5938 932.0566,-124.584"/>
</g>
<!-- Node33&#45;&gt;Node27 -->
<g id="edge81" class="edge">
<title>Node33&#45;&gt;Node27</title>
<path fill="none" stroke="#63b8ff" d="M521.8028,-439.7343C531.2201,-416.863 557.8796,-359.5348 599,-330 616.9584,-317.1014 669.9695,-303.7336 710.9115,-294.8536"/>
<polygon fill="#63b8ff" stroke="#63b8ff" points="711.7165,-298.2607 720.7662,-292.7513 710.256,-291.4147 711.7165,-298.2607"/>
</g>
<!-- Node33&#45;&gt;Node28 -->
<g id="edge80" class="edge">
<title>Node33&#45;&gt;Node28</title>
<path fill="none" stroke="#63b8ff" d="M554.7441,-448.6954C653.2501,-446.1505 931.2677,-436.4179 1160,-404 1275.6528,-387.6087 1305.7506,-384.6065 1417,-349 1475.5828,-330.25 1491.3568,-325.8151 1544,-294 1566.9321,-280.1409 1590.4916,-260.3436 1606.0495,-246.3455"/>
<polygon fill="#63b8ff" stroke="#63b8ff" points="1608.8,-248.5729 1613.8148,-239.2401 1604.0745,-243.4086 1608.8,-248.5729"/>
</g>
<!-- Node33&#45;&gt;Node30 -->
<g id="edge79" class="edge">
<title>Node33&#45;&gt;Node30</title>
<path fill="none" stroke="#63b8ff" d="M515.0387,-439.5331C505.188,-404.1087 477.3976,-283.0419 537,-220 556.0322,-199.8695 733.2774,-184.1294 818.1328,-177.6786"/>
<polygon fill="#63b8ff" stroke="#63b8ff" points="818.5397,-181.158 828.2501,-176.9202 818.0165,-174.1776 818.5397,-181.158"/>
</g>
<!-- Node33&#45;&gt;Node34 -->
<g id="edge63" class="edge">
<title>Node33&#45;&gt;Node34</title>
<path fill="none" stroke="#63b8ff" d="M554.8364,-444.5221C628.9587,-434.5056 796.0182,-411.93 877.9254,-400.8614"/>
<polygon fill="#63b8ff" stroke="#63b8ff" points="878.5124,-404.314 887.9536,-399.5063 877.575,-397.3771 878.5124,-404.314"/>
</g>
<!-- Node34&#45;&gt;Node6 -->
<g id="edge65" class="edge">
<title>Node34&#45;&gt;Node6</title>
<path fill="none" stroke="#63b8ff" d="M962.2025,-391.254C1025.485,-385.2156 1150.9334,-370.8523 1189,-349 1236.0816,-321.9726 1334.5456,-186.662 1369.4229,-137.4392"/>
<polygon fill="#63b8ff" stroke="#63b8ff" points="1372.4387,-139.2358 1375.3432,-129.0469 1366.7188,-135.2007 1372.4387,-139.2358"/>
</g>
<!-- Node34&#45;&gt;Node23 -->
<g id="edge64" class="edge">
<title>Node34&#45;&gt;Node23</title>
<path fill="none" stroke="#63b8ff" d="M924.9652,-384.6207C924.5025,-371.3245 922.1727,-347.3411 912,-330 896.4374,-303.4711 853.6883,-301.075 870,-275 889.397,-243.993 922.1016,-268.294 944,-239 965.9419,-209.6477 967.2818,-164.9014 965.8986,-139.3078"/>
<polygon fill="#63b8ff" stroke="#63b8ff" points="969.3879,-139.0321 965.1636,-129.3158 962.4067,-139.5457 969.3879,-139.0321"/>
</g>
<!-- Node34&#45;&gt;Node28 -->
<g id="edge67" class="edge">
<title>Node34&#45;&gt;Node28</title>
<path fill="none" stroke="#63b8ff" d="M962.0648,-392.4401C1055.5661,-386.9768 1299.1124,-371.0152 1377,-349 1464.1229,-324.3745 1558.0219,-270.4494 1600.6172,-244.3014"/>
<polygon fill="#63b8ff" stroke="#63b8ff" points="1602.4867,-247.2605 1609.142,-239.0168 1598.7985,-241.311 1602.4867,-247.2605"/>
</g>
<!-- Node34&#45;&gt;Node32 -->
<g id="edge68" class="edge">
<title>Node34&#45;&gt;Node32</title>
<path fill="none" stroke="#63b8ff" d="M931.8218,-384.8449C939.8822,-372.1989 951.4339,-349.3584 945,-330 941.5376,-319.5821 934.6566,-309.6204 927.9852,-301.6883"/>
<polygon fill="#63b8ff" stroke="#63b8ff" points="930.5541,-299.3106 921.2608,-294.2228 925.3529,-303.9955 930.5541,-299.3106"/>
</g>
<!-- Node35 -->
<g id="node35" class="node">
<title>Node35</title>
<g id="a_node35"><a xlink:title=" ">
<polygon fill="#e0e0e0" stroke="#999999" points="903,-349 835,-349 835,-330 903,-330 903,-349"/>
<text text-anchor="middle" x="869" y="-337" font-family="Helvetica,sans-Serif" font-size="10.00" fill="#000000">sys/types.h</text>
</a>
</g>
</g>
<!-- Node34&#45;&gt;Node35 -->
<g id="edge66" class="edge">
<title>Node34&#45;&gt;Node35</title>
<path fill="none" stroke="#63b8ff" d="M915.2455,-384.9197C907.3135,-377.1293 895.9212,-365.9405 886.4288,-356.6176"/>
<polygon fill="#63b8ff" stroke="#63b8ff" points="888.6068,-353.8509 879.0198,-349.3408 883.7018,-358.845 888.6068,-353.8509"/>
</g>
<!-- Node36 -->
<g id="node36" class="node">
<title>Node36</title>
<g id="a_node36"><a xlink:href="../../df/d9b/arguments_8h.html" target="_top" xlink:title=" ">
<polygon fill="#ffffff" stroke="#666666" points="1222.5,-294 1151.5,-294 1151.5,-275 1222.5,-275 1222.5,-294"/>
<text text-anchor="middle" x="1187" y="-282" font-family="Helvetica,sans-Serif" font-size="10.00" fill="#000000">arguments.h</text>
</a>
</g>
</g>
<!-- Node34&#45;&gt;Node36 -->
<g id="edge69" class="edge">
<title>Node34&#45;&gt;Node36</title>
<path fill="none" stroke="#63b8ff" d="M962.1468,-392.2961C1022.7886,-387.9471 1139.2877,-376.212 1169,-349 1181.177,-337.8477 1185.3828,-319.2162 1186.7142,-304.8374"/>
<polygon fill="#63b8ff" stroke="#63b8ff" points="1190.2308,-304.6124 1187.263,-294.4418 1183.2406,-304.2433 1190.2308,-304.6124"/>
</g>
<!-- Node34&#45;&gt;Node37 -->
<g id="edge72" class="edge">
<title>Node34&#45;&gt;Node37</title>
<path fill="none" stroke="#63b8ff" d="M887.5499,-384.9197C849.3666,-375.1519 790.2992,-360.0417 750.91,-349.9654"/>
<polygon fill="#63b8ff" stroke="#63b8ff" points="751.6532,-346.5428 741.0977,-347.4552 749.9183,-353.3245 751.6532,-346.5428"/>
</g>
<!-- Node36&#45;&gt;Node7 -->
<g id="edge71" class="edge">
<title>Node36&#45;&gt;Node7</title>
<path fill="none" stroke="#63b8ff" d="M1203.9664,-274.7735C1230.1127,-260.2713 1282.2413,-233.2686 1330,-220 1460.6647,-183.6979 1499.432,-207.4668 1633,-184 1644.7167,-181.9415 1796.2576,-146.1798 1869.6661,-128.8141"/>
<polygon fill="#63b8ff" stroke="#63b8ff" points="1870.5578,-132.1998 1879.4832,-126.4912 1868.9459,-125.3879 1870.5578,-132.1998"/>
</g>
<!-- Node36&#45;&gt;Node23 -->
<g id="edge70" class="edge">
<title>Node36&#45;&gt;Node23</title>
<path fill="none" stroke="#63b8ff" d="M1179.4869,-274.7174C1169.1166,-261.5309 1149.4803,-237.6714 1130,-220 1099.1183,-191.9859 1089.6055,-186.6961 1054,-165 1034.8251,-153.3158 1012.2745,-141.9192 994.5431,-133.4544"/>
<polygon fill="#63b8ff" stroke="#63b8ff" points="995.778,-130.1672 985.2401,-129.0702 992.7939,-136.4993 995.778,-130.1672"/>
</g>
<!-- Node37&#45;&gt;Node2 -->
<g id="edge74" class="edge">
<title>Node37&#45;&gt;Node2</title>
<path fill="none" stroke="#63b8ff" d="M678.9638,-334.7173C628.9495,-326.9009 527.4769,-310.5909 442,-294 341.5815,-274.5089 222.8631,-247.2593 172.0776,-235.4013"/>
<polygon fill="#63b8ff" stroke="#63b8ff" points="172.8373,-231.9845 162.3027,-233.1128 171.2416,-238.8002 172.8373,-231.9845"/>
</g>
<!-- Node37&#45;&gt;Node22 -->
<g id="edge75" class="edge">
<title>Node37&#45;&gt;Node22</title>
<path fill="none" stroke="#63b8ff" d="M699.723,-329.9197C691.2824,-322.0514 679.123,-310.7164 669.0631,-301.3385"/>
<polygon fill="#63b8ff" stroke="#63b8ff" points="671.2578,-298.5995 661.5565,-294.3408 666.4846,-303.7198 671.2578,-298.5995"/>
</g>
<!-- Node37&#45;&gt;Node23 -->
<g id="edge73" class="edge">
<title>Node37&#45;&gt;Node23</title>
<path fill="none" stroke="#63b8ff" d="M678.6991,-332.1852C617.7985,-316.5054 493.0301,-276.441 537,-220 586.0728,-157.0087 841.2575,-129.7806 931.9626,-121.9919"/>
<polygon fill="#63b8ff" stroke="#63b8ff" points="932.2668,-125.4787 941.9402,-121.1571 931.6831,-118.5031 932.2668,-125.4787"/>
</g>
<!-- Node37&#45;&gt;Node27 -->
<g id="edge78" class="edge">
<title>Node37&#45;&gt;Node27</title>
<path fill="none" stroke="#63b8ff" d="M719.2319,-329.9197C726.7391,-322.1293 737.521,-310.9405 746.5049,-301.6176"/>
<polygon fill="#63b8ff" stroke="#63b8ff" points="749.0983,-303.9703 753.517,-294.3408 744.0578,-299.113 749.0983,-303.9703"/>
</g>
<!-- Node37&#45;&gt;Node32 -->
<g id="edge76" class="edge">
<title>Node37&#45;&gt;Node32</title>
<path fill="none" stroke="#63b8ff" d="M741.4063,-330.9063C775.7657,-321.5044 831.0087,-306.3882 869.0564,-295.9771"/>
<polygon fill="#63b8ff" stroke="#63b8ff" points="870.0957,-299.3215 878.8174,-293.3062 868.2482,-292.5697 870.0957,-299.3215"/>
</g>
<!-- Node37&#45;&gt;Node36 -->
<g id="edge77" class="edge">
<title>Node37&#45;&gt;Node36</title>
<path fill="none" stroke="#63b8ff" d="M741.2973,-335.8913C823.3884,-326.4259 1045.1868,-300.8516 1141.4212,-289.7554"/>
<polygon fill="#63b8ff" stroke="#63b8ff" points="1141.8945,-293.2241 1151.4278,-288.6016 1141.0926,-286.2702 1141.8945,-293.2241"/>
</g>
<!-- Node38&#45;&gt;Node6 -->
<g id="edge84" class="edge">
<title>Node38&#45;&gt;Node6</title>
<path fill="none" stroke="#63b8ff" d="M1343.0264,-329.8546C1343.3165,-303.1603 1345.6252,-226.2347 1362,-165 1364.4137,-155.9738 1368.3637,-146.4431 1372.1185,-138.4494"/>
<polygon fill="#63b8ff" stroke="#63b8ff" points="1375.3474,-139.8156 1376.6399,-129.2999 1369.0718,-136.7144 1375.3474,-139.8156"/>
</g>
<!-- Node38&#45;&gt;Node7 -->
<g id="edge87" class="edge">
<title>Node38&#45;&gt;Node7</title>
<path fill="none" stroke="#63b8ff" d="M1368.748,-337.5764C1464.0156,-330.0269 1795.3244,-299.8042 1879,-239 1901.5253,-222.6317 1902.12,-210.981 1909,-184 1912.7236,-169.3973 1912.5322,-152.3228 1911.513,-139.4109"/>
<polygon fill="#63b8ff" stroke="#63b8ff" points="1914.9787,-138.8955 1910.4819,-129.3023 1908.0148,-139.6059 1914.9787,-138.8955"/>
</g>
<!-- Node38&#45;&gt;Node8 -->
<g id="edge85" class="edge">
<title>Node38&#45;&gt;Node8</title>
<path fill="none" stroke="#63b8ff" d="M1368.7829,-330.9905C1391.6567,-322.9449 1425.5955,-309.7734 1453,-294 1522.8001,-253.8246 1542.5409,-243.3324 1597,-184 1636.185,-141.3085 1640.5004,-125.5344 1667,-74 1674.5053,-59.4042 1681.371,-42.1225 1686.1602,-29.1228"/>
<polygon fill="#63b8ff" stroke="#63b8ff" points="1689.5791,-29.9577 1689.6631,-19.3632 1682.9906,-27.5929 1689.5791,-29.9577"/>
</g>
<!-- Node38&#45;&gt;Node22 -->
<g id="edge88" class="edge">
<title>Node38&#45;&gt;Node22</title>
<path fill="none" stroke="#63b8ff" d="M1317.2547,-337.9287C1214.3636,-331.6049 832.4518,-307.6986 712,-294 706.8734,-293.417 701.5177,-292.7173 696.2005,-291.9654"/>
<polygon fill="#63b8ff" stroke="#63b8ff" points="696.4971,-288.4713 686.0929,-290.4722 695.474,-295.3961 696.4971,-288.4713"/>
</g>
<!-- Node38&#45;&gt;Node23 -->
<g id="edge83" class="edge">
<title>Node38&#45;&gt;Node23</title>
<path fill="none" stroke="#63b8ff" d="M1330.9687,-329.8944C1295.1444,-301.6329 1185.3565,-217.4653 1084,-165 1055.3051,-150.1466 1020.6122,-137.5206 995.9251,-129.3648"/>
<polygon fill="#63b8ff" stroke="#63b8ff" points="996.9248,-126.0096 986.3328,-126.2542 994.7655,-132.6683 996.9248,-126.0096"/>
</g>
<!-- Node38&#45;&gt;Node26 -->
<g id="edge86" class="edge">
<title>Node38&#45;&gt;Node26</title>
<path fill="none" stroke="#63b8ff" d="M1317.3398,-334.8779C1226.7265,-318.2954 913.6769,-258.7898 662,-184 607.5916,-167.8317 545.4723,-146.1155 507.4992,-132.4636"/>
<polygon fill="#63b8ff" stroke="#63b8ff" points="508.5147,-129.1092 497.9204,-129.0066 506.1384,-135.6935 508.5147,-129.1092"/>
</g>
<!-- Node39&#45;&gt;Node26 -->
<g id="edge91" class="edge">
<title>Node39&#45;&gt;Node26</title>
<path fill="none" stroke="#63b8ff" d="M214.6135,-169.5221C260.9166,-160.5233 359.3777,-141.3877 420.2045,-129.5663"/>
<polygon fill="#63b8ff" stroke="#63b8ff" points="421.2174,-132.935 430.3659,-127.5914 419.8819,-126.0636 421.2174,-132.935"/>
</g>
<!-- Node40 -->
<g id="node40" class="node">
<title>Node40</title>
<g id="a_node40"><a xlink:title=" ">
<polygon fill="#e0e0e0" stroke="#999999" points="202.5,-129 173.5,-129 173.5,-110 202.5,-110 202.5,-129"/>
<text text-anchor="middle" x="188" y="-117" font-family="Helvetica,sans-Serif" font-size="10.00" fill="#000000">list</text>
</a>
</g>
</g>
<!-- Node39&#45;&gt;Node40 -->
<g id="edge90" class="edge">
<title>Node39&#45;&gt;Node40</title>
<path fill="none" stroke="#63b8ff" d="M188.8258,-164.9197C188.6983,-157.9083 188.5208,-148.1442 188.363,-139.4652"/>
<polygon fill="#63b8ff" stroke="#63b8ff" points="191.8602,-139.2755 188.1789,-129.3408 184.8614,-139.4028 191.8602,-139.2755"/>
</g>
<!-- Node41 -->
<g id="node41" class="node">
<title>Node41</title>
<g id="a_node41"><a xlink:title=" ">
<polygon fill="#e0e0e0" stroke="#999999" points="155,-129 111,-129 111,-110 155,-110 155,-129"/>
<text text-anchor="middle" x="133" y="-117" font-family="Helvetica,sans-Serif" font-size="10.00" fill="#000000">mutex</text>
</a>
</g>
</g>
<!-- Node39&#45;&gt;Node41 -->
<g id="edge92" class="edge">
<title>Node39&#45;&gt;Node41</title>
<path fill="none" stroke="#63b8ff" d="M179.2455,-164.9197C171.3135,-157.1293 159.9212,-145.9405 150.4288,-136.6176"/>
<polygon fill="#63b8ff" stroke="#63b8ff" points="152.6068,-133.8509 143.0198,-129.3408 147.7018,-138.845 152.6068,-133.8509"/>
</g>
<!-- Node42 -->
<g id="node42" class="node">
<title>Node42</title>
<g id="a_node42"><a xlink:title=" ">
<polygon fill="#e0e0e0" stroke="#999999" points="261,-129 221,-129 221,-110 261,-110 261,-129"/>
<text text-anchor="middle" x="241" y="-117" font-family="Helvetica,sans-Serif" font-size="10.00" fill="#000000">utility</text>
</a>
</g>
</g>
<!-- Node39&#45;&gt;Node42 -->
<g id="edge93" class="edge">
<title>Node39&#45;&gt;Node42</title>
<path fill="none" stroke="#63b8ff" d="M198.0577,-164.9197C205.4232,-157.1293 216.0017,-145.9405 224.8161,-136.6176"/>
<polygon fill="#63b8ff" stroke="#63b8ff" points="227.3691,-139.0119 231.6959,-129.3408 222.2825,-134.2028 227.3691,-139.0119"/>
</g>
<!-- Node43 -->
<g id="node43" class="node">
<title>Node43</title>
<g id="a_node43"><a xlink:title=" ">
<polygon fill="#e0e0e0" stroke="#999999" points="92.5,-129 43.5,-129 43.5,-110 92.5,-110 92.5,-129"/>
<text text-anchor="middle" x="68" y="-117" font-family="Helvetica,sans-Serif" font-size="10.00" fill="#000000">ctype.h</text>
</a>
</g>
</g>
<!-- Node39&#45;&gt;Node43 -->
<g id="edge94" class="edge">
<title>Node39&#45;&gt;Node43</title>
<path fill="none" stroke="#63b8ff" d="M167.9234,-164.9197C148.6955,-156.1798 120.0576,-143.1625 98.3631,-133.3014"/>
<polygon fill="#63b8ff" stroke="#63b8ff" points="99.7931,-130.1068 89.2411,-129.155 96.8964,-136.4794 99.7931,-130.1068"/>
</g>
<!-- Node44&#45;&gt;Node8 -->
<g id="edge99" class="edge">
<title>Node44&#45;&gt;Node8</title>
<path fill="none" stroke="#63b8ff" d="M324.0865,-164.8727C320.124,-141.7917 313.8792,-83.1362 346,-55 371.6006,-32.5752 1463.7934,-13.3208 1662.239,-10.0041"/>
<polygon fill="#63b8ff" stroke="#63b8ff" points="1662.3323,-13.5031 1672.2727,-9.8373 1662.2159,-6.5041 1662.3323,-13.5031"/>
</g>
<!-- Node44&#45;&gt;Node9 -->
<g id="edge96" class="edge">
<title>Node44&#45;&gt;Node9</title>
<path fill="none" stroke="#63b8ff" d="M331.0584,-164.7382C340.5468,-146.4271 361.1579,-106.6514 373.3712,-83.082"/>
<polygon fill="#63b8ff" stroke="#63b8ff" points="376.5411,-84.5719 378.0344,-74.0828 370.3259,-81.3513 376.5411,-84.5719"/>
</g>
<!-- Node44&#45;&gt;Node23 -->
<g id="edge98" class="edge">
<title>Node44&#45;&gt;Node23</title>
<path fill="none" stroke="#63b8ff" d="M363.5279,-171.2648C478.4442,-161.3583 824.2143,-131.5505 931.7339,-122.2816"/>
<polygon fill="#63b8ff" stroke="#63b8ff" points="932.2873,-125.7469 941.9497,-121.4009 931.686,-118.7728 932.2873,-125.7469"/>
</g>
<!-- Node44&#45;&gt;Node26 -->
<g id="edge97" class="edge">
<title>Node44&#45;&gt;Node26</title>
<path fill="none" stroke="#63b8ff" d="M351.4313,-164.9197C375.0481,-156.023 410.43,-142.6942 436.764,-132.7739"/>
<polygon fill="#63b8ff" stroke="#63b8ff" points="438.2462,-135.9557 446.3703,-129.155 435.7784,-129.4051 438.2462,-135.9557"/>
</g>
<!-- Node44&#45;&gt;Node42 -->
<g id="edge100" class="edge">
<title>Node44&#45;&gt;Node42</title>
<path fill="none" stroke="#63b8ff" d="M311.1941,-164.9197C298.3532,-156.6109 279.538,-144.4363 264.6189,-134.7828"/>
<polygon fill="#63b8ff" stroke="#63b8ff" points="266.2185,-131.6491 255.9214,-129.155 262.4157,-137.5261 266.2185,-131.6491"/>
</g>
<!-- Node45&#45;&gt;Node6 -->
<g id="edge102" class="edge">
<title>Node45&#45;&gt;Node6</title>
<path fill="none" stroke="#63b8ff" d="M1151.3655,-386.0015C1152.9289,-385.6475 1154.4802,-385.3112 1156,-385 1263.8214,-362.9244 1303.3618,-399.7895 1401,-349 1436.6609,-330.4499 1462.4914,-314.0604 1453,-275 1442.2516,-230.7669 1424.4151,-225.6291 1406,-184 1399.4294,-169.1466 1393.0697,-151.8808 1388.5495,-138.9528"/>
<polygon fill="#63b8ff" stroke="#63b8ff" points="1391.7796,-137.5824 1385.221,-129.2616 1385.1592,-139.8563 1391.7796,-137.5824"/>
</g>
<!-- Node45&#45;&gt;Node27 -->
<g id="edge109" class="edge">
<title>Node45&#45;&gt;Node27</title>
<path fill="none" stroke="#63b8ff" d="M1089.3515,-384.9507C1048.7928,-372.324 975.0559,-349.4043 912,-330 875.536,-318.7789 834.0193,-306.1098 804.0881,-296.995"/>
<polygon fill="#63b8ff" stroke="#63b8ff" points="804.9916,-293.6115 794.4058,-294.0473 802.953,-300.308 804.9916,-293.6115"/>
</g>
<!-- Node45&#45;&gt;Node30 -->
<g id="edge110" class="edge">
<title>Node45&#45;&gt;Node30</title>
<path fill="none" stroke="#63b8ff" d="M1136.4505,-384.8831C1155.1817,-372.6461 1181.6493,-350.6168 1169,-330 1111.3767,-236.0809 977.3538,-196.7106 907.3589,-182.0869"/>
<polygon fill="#63b8ff" stroke="#63b8ff" points="908.0071,-178.6473 897.513,-180.1054 906.6259,-185.5097 908.0071,-178.6473"/>
</g>
<!-- Node45&#45;&gt;Node31 -->
<g id="edge104" class="edge">
<title>Node45&#45;&gt;Node31</title>
<path fill="none" stroke="#63b8ff" d="M1122.787,-384.9197C1124.8493,-377.8304 1127.7303,-367.9269 1130.276,-359.1763"/>
<polygon fill="#63b8ff" stroke="#63b8ff" points="1133.7045,-359.9205 1133.1372,-349.3408 1126.9832,-357.9651 1133.7045,-359.9205"/>
</g>
<!-- Node45&#45;&gt;Node32 -->
<g id="edge103" class="edge">
<title>Node45&#45;&gt;Node32</title>
<path fill="none" stroke="#63b8ff" d="M1113.2947,-384.6913C1103.1505,-370.5785 1082.5672,-344.637 1059,-330 1041.2579,-318.9809 990.525,-304.5747 953.3888,-294.9533"/>
<polygon fill="#63b8ff" stroke="#63b8ff" points="953.8694,-291.4635 943.3137,-292.3732 952.1328,-298.2446 953.8694,-291.4635"/>
</g>
<!-- Node46 -->
<g id="node46" class="node">
<title>Node46</title>
<g id="a_node46"><a xlink:href="../../db/d51/layout_8h.html" target="_top" xlink:title=" ">
<polygon fill="#ffffff" stroke="#666666" points="1444.5,-294 1393.5,-294 1393.5,-275 1444.5,-275 1444.5,-294"/>
<text text-anchor="middle" x="1419" y="-282" font-family="Helvetica,sans-Serif" font-size="10.00" fill="#000000">layout.h</text>
</a>
</g>
</g>
<!-- Node45&#45;&gt;Node46 -->
<g id="edge105" class="edge">
<title>Node45&#45;&gt;Node46</title>
<path fill="none" stroke="#63b8ff" d="M1151.0068,-392.0932C1210.9899,-386.9456 1340.2476,-373.3117 1377,-349 1393.4806,-338.0981 1404.9355,-318.2696 1411.6718,-303.4646"/>
<polygon fill="#63b8ff" stroke="#63b8ff" points="1414.9226,-304.7632 1415.5852,-294.1891 1408.4731,-302.042 1414.9226,-304.7632"/>
</g>
<!-- Node46&#45;&gt;Node6 -->
<g id="edge106" class="edge">
<title>Node46&#45;&gt;Node6</title>
<path fill="none" stroke="#63b8ff" d="M1416.614,-274.9146C1413.1613,-261.9516 1406.0643,-238.3445 1396,-220 1386.2504,-202.229 1374.5783,-203.1726 1368,-184 1362.8943,-169.1192 1367.292,-151.6475 1372.4681,-138.6443"/>
<polygon fill="#63b8ff" stroke="#63b8ff" points="1375.7542,-139.8683 1376.6193,-129.3089 1369.358,-137.0241 1375.7542,-139.8683"/>
</g>
<!-- Node46&#45;&gt;Node23 -->
<g id="edge107" class="edge">
<title>Node46&#45;&gt;Node23</title>
<path fill="none" stroke="#63b8ff" d="M1405.3117,-274.6967C1372.579,-251.7444 1286.5002,-194.2536 1206,-165 1133.7197,-138.7335 1043.523,-126.9144 996.2826,-122.2086"/>
<polygon fill="#63b8ff" stroke="#63b8ff" points="996.6146,-118.7245 986.3276,-121.2598 995.9504,-125.6929 996.6146,-118.7245"/>
</g>
<!-- Node46&#45;&gt;Node28 -->
<g id="edge108" class="edge">
<title>Node46&#45;&gt;Node28</title>
<path fill="none" stroke="#63b8ff" d="M1444.5489,-277.6454C1481.1591,-267.8232 1548.6341,-249.7201 1589.6013,-238.7289"/>
<polygon fill="#63b8ff" stroke="#63b8ff" points="1590.6592,-242.0689 1599.4107,-236.0971 1588.8453,-235.308 1590.6592,-242.0689"/>
</g>
<!-- Node47&#45;&gt;Node2 -->
<g id="edge113" class="edge">
<title>Node47&#45;&gt;Node2</title>
<path fill="none" stroke="#63b8ff" d="M492.4165,-500.1279C441.8867,-490.4337 327.6342,-463.1521 252,-404 198.4918,-362.1522 166.1587,-284.8329 153.355,-248.854"/>
<polygon fill="#63b8ff" stroke="#63b8ff" points="156.564,-247.4221 150.0066,-239.1004 149.9433,-249.695 156.564,-247.4221"/>
</g>
<!-- Node47&#45;&gt;Node22 -->
<g id="edge116" class="edge">
<title>Node47&#45;&gt;Node22</title>
<path fill="none" stroke="#63b8ff" d="M502.7569,-494.8127C486.0196,-482.8493 462.6748,-461.4417 472,-440 501.8397,-371.389 579.5363,-321.8201 622.0941,-298.8389"/>
<polygon fill="#63b8ff" stroke="#63b8ff" points="623.8981,-301.8444 631.1112,-294.0841 620.6331,-295.6525 623.8981,-301.8444"/>
</g>
<!-- Node47&#45;&gt;Node32 -->
<g id="edge114" class="edge">
<title>Node47&#45;&gt;Node32</title>
<path fill="none" stroke="#63b8ff" d="M530.9,-494.9979C569.2825,-467.021 686.7057,-383.5573 793,-330 818.3923,-317.2059 848.2902,-305.7126 871.6376,-297.4781"/>
<polygon fill="#63b8ff" stroke="#63b8ff" points="872.9116,-300.7408 881.2103,-294.1542 870.6155,-294.1281 872.9116,-300.7408"/>
</g>
<!-- Node47&#45;&gt;Node33 -->
<g id="edge115" class="edge">
<title>Node47&#45;&gt;Node33</title>
<path fill="none" stroke="#63b8ff" d="M518,-494.9197C518,-487.9083 518,-478.1442 518,-469.4652"/>
<polygon fill="#63b8ff" stroke="#63b8ff" points="521.5001,-469.3408 518,-459.3408 514.5001,-469.3409 521.5001,-469.3408"/>
</g>
<!-- Node48&#45;&gt;Node2 -->
<g id="edge119" class="edge">
<title>Node48&#45;&gt;Node2</title>
<path fill="none" stroke="#63b8ff" d="M360.4389,-554.2952C310.6468,-547.5763 234.3331,-534.2814 214,-514 139.8507,-440.039 141.713,-300.4154 145.2194,-249.0785"/>
<polygon fill="#63b8ff" stroke="#63b8ff" points="148.7162,-249.2558 146.011,-239.0122 141.7377,-248.707 148.7162,-249.2558"/>
</g>
<!-- Node48&#45;&gt;Node27 -->
<g id="edge123" class="edge">
<title>Node48&#45;&gt;Node27</title>
<path fill="none" stroke="#63b8ff" d="M408.7003,-549.8476C423.2518,-513.3792 480.4265,-383.3621 575,-330 597.956,-317.0473 663.4511,-302.8709 710.6825,-293.8421"/>
<polygon fill="#63b8ff" stroke="#63b8ff" points="711.5829,-297.234 720.7603,-291.9403 710.2847,-290.3554 711.5829,-297.234"/>
</g>
<!-- Node48&#45;&gt;Node30 -->
<g id="edge122" class="edge">
<title>Node48&#45;&gt;Node30</title>
<path fill="none" stroke="#63b8ff" d="M360.3354,-551.8423C307.9006,-539.9938 228,-511.7294 228,-449.5 228,-449.5 228,-449.5 228,-394.5 228,-243.3142 377.232,-269.7436 520,-220 574.0846,-201.1557 737.9071,-185.1395 817.9767,-178.1938"/>
<polygon fill="#63b8ff" stroke="#63b8ff" points="818.5733,-181.6556 828.2376,-177.3137 817.975,-174.6812 818.5733,-181.6556"/>
</g>
<!-- Node48&#45;&gt;Node32 -->
<g id="edge120" class="edge">
<title>Node48&#45;&gt;Node32</title>
<path fill="none" stroke="#63b8ff" d="M449.745,-555.3406C514.287,-548.7333 629.7489,-534.4598 666,-514 760.3777,-460.7342 741.2764,-397.5744 826,-330 841.9707,-317.262 862.0328,-306.328 878.6553,-298.3731"/>
<polygon fill="#63b8ff" stroke="#63b8ff" points="880.3902,-301.4266 887.988,-294.0426 877.4437,-295.0769 880.3902,-301.4266"/>
</g>
<!-- Node48&#45;&gt;Node47 -->
<g id="edge121" class="edge">
<title>Node48&#45;&gt;Node47</title>
<path fill="none" stroke="#63b8ff" d="M424.6831,-549.9197C442.4787,-541.2581 468.9052,-528.3957 489.0977,-518.5675"/>
<polygon fill="#63b8ff" stroke="#63b8ff" points="490.7036,-521.6785 498.1633,-514.155 487.64,-515.3844 490.7036,-521.6785"/>
</g>
<!-- Node49&#45;&gt;Node4 -->
<g id="edge129" class="edge">
<title>Node49&#45;&gt;Node4</title>
<path fill="none" stroke="#63b8ff" d="M1724.0126,-612.2606C1813.6821,-601.4486 2190,-553.1741 2190,-504.5 2190,-504.5 2190,-504.5 2190,-284.5 2190,-252.9299 2188.3342,-216.2969 2187.1526,-194.2826"/>
<polygon fill="#63b8ff" stroke="#63b8ff" points="2190.6422,-193.9967 2186.5902,-184.2073 2183.6531,-194.3869 2190.6422,-193.9967"/>
</g>
<!-- Node49&#45;&gt;Node6 -->
<g id="edge125" class="edge">
<title>Node49&#45;&gt;Node6</title>
<path fill="none" stroke="#63b8ff" d="M1710.1639,-604.8025C1719.6753,-586.0089 1739,-543.0781 1739,-504.5 1739,-504.5 1739,-504.5 1739,-339.5 1739,-285.4141 1755.3912,-257.0623 1716,-220 1625.5831,-134.9287 1548.6468,-242.2231 1439,-184 1419.1073,-173.4369 1402.8807,-152.9547 1392.8986,-137.8944"/>
<polygon fill="#63b8ff" stroke="#63b8ff" points="1395.8081,-135.9466 1387.5133,-129.3551 1389.8872,-139.6806 1395.8081,-135.9466"/>
</g>
<!-- Node49&#45;&gt;Node9 -->
<g id="edge127" class="edge">
<title>Node49&#45;&gt;Node9</title>
<path fill="none" stroke="#63b8ff" d="M1685.8237,-614.1977C1526.7742,-611.6494 428.4549,-593.2544 284,-569 188.5489,-552.9735 76,-601.2872 76,-504.5 76,-504.5 76,-504.5 76,-339.5 76,-235.806 -34.4192,-187.9182 34,-110 54.2705,-86.9152 258.0799,-72.0203 344.5443,-66.6944"/>
<polygon fill="#63b8ff" stroke="#63b8ff" points="344.9588,-70.1758 354.7291,-66.078 344.5359,-63.1886 344.9588,-70.1758"/>
</g>
<!-- Node49&#45;&gt;Node22 -->
<g id="edge141" class="edge">
<title>Node49&#45;&gt;Node22</title>
<path fill="none" stroke="#63b8ff" d="M1685.7766,-609.6599C1595.1305,-586.8248 1201.3334,-487.4831 879,-404 786.0166,-379.9177 738.9012,-415.9216 670,-349 658.1064,-337.4481 653.5617,-318.8604 651.8724,-304.5998"/>
<polygon fill="#63b8ff" stroke="#63b8ff" points="655.3352,-303.9948 651.044,-294.3079 648.3577,-304.5565 655.3352,-303.9948"/>
</g>
<!-- Node49&#45;&gt;Node26 -->
<g id="edge126" class="edge">
<title>Node49&#45;&gt;Node26</title>
<path fill="none" stroke="#63b8ff" d="M1685.9619,-614.3602C1531.5049,-613.1608 485.945,-603.7893 351,-569 298.8396,-555.5529 278.3639,-554.6315 243,-514 189.1973,-452.1832 186.3417,-398.7145 231,-330 289.8707,-239.4171 398.3691,-164.9859 447.126,-134.4382"/>
<polygon fill="#63b8ff" stroke="#63b8ff" points="449.1157,-137.323 455.7793,-129.0861 445.4335,-131.3697 449.1157,-137.323"/>
</g>
<!-- Node49&#45;&gt;Node28 -->
<g id="edge132" class="edge">
<title>Node49&#45;&gt;Node28</title>
<path fill="none" stroke="#63b8ff" d="M1702.9977,-604.9831C1692.4053,-554.6362 1642.8336,-319.0176 1628.1245,-249.104"/>
<polygon fill="#63b8ff" stroke="#63b8ff" points="1631.4887,-248.094 1626.0048,-239.0289 1624.6387,-249.5353 1631.4887,-248.094"/>
</g>
<!-- Node49&#45;&gt;Node43 -->
<g id="edge131" class="edge">
<title>Node49&#45;&gt;Node43</title>
<path fill="none" stroke="#63b8ff" d="M1685.8367,-614.2671C1504.51,-612.0281 96.7356,-593.8575 62,-569 37.1261,-551.1998 38,-535.0869 38,-504.5 38,-504.5 38,-504.5 38,-394.5 38,-298.4249 56.3191,-184.5769 64.327,-139.3998"/>
<polygon fill="#63b8ff" stroke="#63b8ff" points="67.7916,-139.9089 66.1234,-129.4463 60.9029,-138.6657 67.7916,-139.9089"/>
</g>
<!-- Node50 -->
<g id="node50" class="node">
<title>Node50</title>
<g id="a_node50"><a xlink:title=" ">
<polygon fill="#e0e0e0" stroke="#999999" points="1940.5,-569 1881.5,-569 1881.5,-550 1940.5,-550 1940.5,-569"/>
<text text-anchor="middle" x="1911" y="-557" font-family="Helvetica,sans-Serif" font-size="10.00" fill="#000000">functional</text>
</a>
</g>
</g>
<!-- Node49&#45;&gt;Node50 -->
<g id="edge128" class="edge">
<title>Node49&#45;&gt;Node50</title>
<path fill="none" stroke="#63b8ff" d="M1724.0107,-609.4243C1757.3692,-600.5179 1827.0954,-581.9017 1871.3378,-570.0894"/>
<polygon fill="#63b8ff" stroke="#63b8ff" points="1872.4247,-573.4219 1881.1834,-567.4607 1870.619,-566.6588 1872.4247,-573.4219"/>
</g>
<!-- Node51 -->
<g id="node51" class="node">
<title>Node51</title>
<g id="a_node51"><a xlink:title=" ">
<polygon fill="#e0e0e0" stroke="#999999" points="1999.5,-569 1958.5,-569 1958.5,-550 1999.5,-550 1999.5,-569"/>
<text text-anchor="middle" x="1979" y="-557" font-family="Helvetica,sans-Serif" font-size="10.00" fill="#000000">ctime</text>
</a>
</g>
</g>
<!-- Node49&#45;&gt;Node51 -->
<g id="edge130" class="edge">
<title>Node49&#45;&gt;Node51</title>
<path fill="none" stroke="#63b8ff" d="M1724.154,-611.7451C1764.0814,-605.8307 1859.2305,-590.8422 1948.6852,-568.812"/>
<polygon fill="#63b8ff" stroke="#63b8ff" points="1949.5843,-572.195 1958.438,-566.3759 1947.8879,-565.4037 1949.5843,-572.195"/>
</g>
<!-- Node52 -->
<g id="node52" class="node">
<title>Node52</title>
<g id="a_node52"><a xlink:href="../../de/d9c/docparser_8h.html" target="_top" xlink:title=" ">
<polygon fill="#ffffff" stroke="#666666" points="1870,-239 1802,-239 1802,-220 1870,-220 1870,-239"/>
<text text-anchor="middle" x="1836" y="-227" font-family="Helvetica,sans-Serif" font-size="10.00" fill="#000000">docparser.h</text>
</a>
</g>
</g>
<!-- Node49&#45;&gt;Node52 -->
<g id="edge133" class="edge">
<title>Node49&#45;&gt;Node52</title>
<path fill="none" stroke="#63b8ff" d="M1724.3296,-608.7982C1743.6731,-602.1681 1773.064,-589.4421 1791,-569 1811.1729,-546.0085 1815,-535.0869 1815,-504.5 1815,-504.5 1815,-504.5 1815,-339.5 1815,-307.2337 1823.8257,-270.5728 1830.034,-248.7759"/>
<polygon fill="#63b8ff" stroke="#63b8ff" points="1833.4176,-249.6762 1832.9014,-239.0939 1826.7058,-247.6884 1833.4176,-249.6762"/>
</g>
<!-- Node56 -->
<g id="node56" class="node">
<title>Node56</title>
<g id="a_node56"><a xlink:href="../../df/d06/outputgen_8h.html" target="_top" xlink:title=" ">
<polygon fill="#ffffff" stroke="#666666" points="2016,-294 1948,-294 1948,-275 2016,-275 2016,-294"/>
<text text-anchor="middle" x="1982" y="-282" font-family="Helvetica,sans-Serif" font-size="10.00" fill="#000000">outputgen.h</text>
</a>
</g>
</g>
<!-- Node49&#45;&gt;Node56 -->
<g id="edge142" class="edge">
<title>Node49&#45;&gt;Node56</title>
<path fill="none" stroke="#63b8ff" d="M1724.0108,-612.4868C1750.8759,-608.6657 1799.9096,-597.9587 1829,-569 1850.6772,-547.421 1853,-535.0869 1853,-504.5 1853,-504.5 1853,-504.5 1853,-394.5 1853,-345.9316 1906.5994,-314.2719 1944.6987,-297.9026"/>
<polygon fill="#63b8ff" stroke="#63b8ff" points="1946.0945,-301.1131 1954.0089,-294.0694 1943.4295,-294.6402 1946.0945,-301.1131"/>
</g>
<!-- Node63 -->
<g id="node63" class="node">
<title>Node63</title>
<g id="a_node63"><a xlink:href="../../d1/d21/regex_8h.html" target="_top" xlink:title=" ">
<polygon fill="#ffffff" stroke="#666666" points="1588.5,-184 1539.5,-184 1539.5,-165 1588.5,-165 1588.5,-184"/>
<text text-anchor="middle" x="1564" y="-172" font-family="Helvetica,sans-Serif" font-size="10.00" fill="#000000">regex.h</text>
</a>
</g>
</g>
<!-- Node49&#45;&gt;Node63 -->
<g id="edge165" class="edge">
<title>Node49&#45;&gt;Node63</title>
<path fill="none" stroke="#63b8ff" d="M1717.9877,-604.9472C1728.6542,-596.5191 1743.5011,-583.3673 1753,-569 1769.869,-543.4854 1777,-535.0869 1777,-504.5 1777,-504.5 1777,-504.5 1777,-339.5 1777,-285.0501 1788.4404,-258.5633 1750,-220 1701.8291,-171.6751 1665.519,-200.174 1598.7163,-185.2676"/>
<polygon fill="#63b8ff" stroke="#63b8ff" points="1599.1849,-181.7768 1588.6339,-182.739 1597.4821,-188.5665 1599.1849,-181.7768"/>
</g>
<!-- Node64 -->
<g id="node64" class="node">
<title>Node64</title>
<g id="a_node64"><a xlink:href="../../da/df1/conceptdef_8h.html" target="_top" xlink:title=" ">
<polygon fill="#ffffff" stroke="#666666" points="1108.5,-569 1035.5,-569 1035.5,-550 1108.5,-550 1108.5,-569"/>
<text text-anchor="middle" x="1072" y="-557" font-family="Helvetica,sans-Serif" font-size="10.00" fill="#000000">conceptdef.h</text>
</a>
</g>
</g>
<!-- Node49&#45;&gt;Node64 -->
<g id="edge170" class="edge">
<title>Node49&#45;&gt;Node64</title>
<path fill="none" stroke="#63b8ff" d="M1685.7129,-613.0475C1615.4011,-607.7181 1366.2065,-588.5312 1161,-569 1147.317,-567.6977 1132.4643,-566.1612 1118.8837,-564.7078"/>
<polygon fill="#63b8ff" stroke="#63b8ff" points="1119.105,-561.2114 1108.787,-563.6178 1118.3536,-568.171 1119.105,-561.2114"/>
</g>
<!-- Node52&#45;&gt;Node6 -->
<g id="edge135" class="edge">
<title>Node52&#45;&gt;Node6</title>
<path fill="none" stroke="#63b8ff" d="M1802.8969,-219.9469C1756.8996,-206.8146 1670.9603,-182.7918 1597,-165 1534.4585,-149.9551 1461.0414,-134.9919 1418.2005,-126.5283"/>
<polygon fill="#63b8ff" stroke="#63b8ff" points="1418.7378,-123.067 1408.2503,-124.571 1417.3866,-129.9354 1418.7378,-123.067"/>
</g>
<!-- Node52&#45;&gt;Node7 -->
<g id="edge136" class="edge">
<title>Node52&#45;&gt;Node7</title>
<path fill="none" stroke="#63b8ff" d="M1851.9213,-219.8177C1864.0254,-211.6775 1880.213,-198.9857 1890,-184 1898.7769,-170.5609 1903.6068,-152.951 1906.1975,-139.5276"/>
<polygon fill="#63b8ff" stroke="#63b8ff" points="1909.6904,-139.8599 1907.8846,-129.4201 1902.7859,-138.7073 1909.6904,-139.8599"/>
</g>
<!-- Node53 -->
<g id="node53" class="node">
<title>Node53</title>
<g id="a_node53"><a xlink:title=" ">
<polygon fill="#e0e0e0" stroke="#999999" points="1881,-184 1835,-184 1835,-165 1881,-165 1881,-184"/>
<text text-anchor="middle" x="1858" y="-172" font-family="Helvetica,sans-Serif" font-size="10.00" fill="#000000">stdio.h</text>
</a>
</g>
</g>
<!-- Node52&#45;&gt;Node53 -->
<g id="edge134" class="edge">
<title>Node52&#45;&gt;Node53</title>
<path fill="none" stroke="#63b8ff" d="M1839.8321,-219.9197C1842.699,-212.7525 1846.7164,-202.7089 1850.2447,-193.8882"/>
<polygon fill="#63b8ff" stroke="#63b8ff" points="1853.5994,-194.9255 1854.0637,-184.3408 1847.1,-192.3257 1853.5994,-194.9255"/>
</g>
<!-- Node54 -->
<g id="node54" class="node">
<title>Node54</title>
<g id="a_node54"><a xlink:href="../../d7/d50/growvector_8h.html" target="_top" xlink:title=" ">
<polygon fill="#ffffff" stroke="#666666" points="1521.5,-184 1448.5,-184 1448.5,-165 1521.5,-165 1521.5,-184"/>
<text text-anchor="middle" x="1485" y="-172" font-family="Helvetica,sans-Serif" font-size="10.00" fill="#000000">growvector.h</text>
</a>
</g>
</g>
<!-- Node52&#45;&gt;Node54 -->
<g id="edge137" class="edge">
<title>Node52&#45;&gt;Node54</title>
<path fill="none" stroke="#63b8ff" d="M1801.9292,-225.1185C1747.0754,-217.9158 1635.5759,-202.6642 1531.8164,-184.2501"/>
<polygon fill="#63b8ff" stroke="#63b8ff" points="1532.2616,-180.7742 1521.8015,-182.4583 1531.0287,-187.6648 1532.2616,-180.7742"/>
</g>
<!-- Node54&#45;&gt;Node6 -->
<g id="edge139" class="edge">
<title>Node54&#45;&gt;Node6</title>
<path fill="none" stroke="#63b8ff" d="M1467.0588,-164.9197C1451.0582,-156.3757 1427.4026,-143.7441 1409.0972,-133.9694"/>
<polygon fill="#63b8ff" stroke="#63b8ff" points="1410.551,-130.778 1400.0812,-129.155 1407.2538,-136.9528 1410.551,-130.778"/>
</g>
<!-- Node54&#45;&gt;Node23 -->
<g id="edge138" class="edge">
<title>Node54&#45;&gt;Node23</title>
<path fill="none" stroke="#63b8ff" d="M1448.3643,-170.6325C1351.2231,-160.3777 1088.2287,-132.6143 996.2709,-122.9067"/>
<polygon fill="#63b8ff" stroke="#63b8ff" points="996.4855,-119.41 986.1733,-121.8407 995.7505,-126.3713 996.4855,-119.41"/>
</g>
<!-- Node55 -->
<g id="node55" class="node">
<title>Node55</title>
<g id="a_node55"><a xlink:title=" ">
<polygon fill="#e0e0e0" stroke="#999999" points="1521.5,-129 1474.5,-129 1474.5,-110 1521.5,-110 1521.5,-129"/>
<text text-anchor="middle" x="1498" y="-117" font-family="Helvetica,sans-Serif" font-size="10.00" fill="#000000">iterator</text>
</a>
</g>
</g>
<!-- Node54&#45;&gt;Node55 -->
<g id="edge140" class="edge">
<title>Node54&#45;&gt;Node55</title>
<path fill="none" stroke="#63b8ff" d="M1487.2644,-164.9197C1488.9401,-157.8304 1491.2809,-147.9269 1493.3492,-139.1763"/>
<polygon fill="#63b8ff" stroke="#63b8ff" points="1496.7798,-139.8778 1495.674,-129.3408 1489.9675,-138.2676 1496.7798,-139.8778"/>
</g>
<!-- Node56&#45;&gt;Node3 -->
<g id="edge144" class="edge">
<title>Node56&#45;&gt;Node3</title>
<path fill="none" stroke="#63b8ff" d="M1947.8716,-278.1371C1889.8808,-267.3252 1773.0166,-245.537 1717.5526,-235.1962"/>
<polygon fill="#63b8ff" stroke="#63b8ff" points="1718.0982,-231.7377 1707.6261,-233.3455 1716.8152,-238.6192 1718.0982,-231.7377"/>
</g>
<!-- Node56&#45;&gt;Node4 -->
<g id="edge146" class="edge">
<title>Node56&#45;&gt;Node4</title>
<path fill="none" stroke="#63b8ff" d="M2016.1545,-276.9188C2044.041,-269.7897 2083.7969,-257.4313 2115,-239 2136.5752,-226.2558 2157.3165,-206.2099 2170.7505,-191.8485"/>
<polygon fill="#63b8ff" stroke="#63b8ff" points="2173.619,-193.897 2177.7669,-184.1478 2168.4447,-189.1825 2173.619,-193.897"/>
</g>
<!-- Node56&#45;&gt;Node6 -->
<g id="edge143" class="edge">
<title>Node56&#45;&gt;Node6</title>
<path fill="none" stroke="#63b8ff" d="M1987.0651,-274.5523C1993.0985,-261.1787 2001.1638,-237.1078 1991,-220 1964.8934,-176.057 1938.9556,-179.6932 1890,-165 1708.436,-110.5067 1653.6327,-147.7803 1465,-129 1449.67,-127.4737 1432.7724,-125.5785 1418.2472,-123.8833"/>
<polygon fill="#63b8ff" stroke="#63b8ff" points="1418.4873,-120.3875 1408.1462,-122.6924 1417.6676,-127.3393 1418.4873,-120.3875"/>
</g>
<!-- Node56&#45;&gt;Node28 -->
<g id="edge147" class="edge">
<title>Node56&#45;&gt;Node28</title>
<path fill="none" stroke="#63b8ff" d="M1947.5648,-281.294C1889.6779,-275.5567 1769.1,-262.1151 1658.7344,-239.1436"/>
<polygon fill="#63b8ff" stroke="#63b8ff" points="1659.2791,-235.6815 1648.7714,-237.0376 1657.8314,-242.5301 1659.2791,-235.6815"/>
</g>
<!-- Node56&#45;&gt;Node52 -->
<g id="edge164" class="edge">
<title>Node56&#45;&gt;Node52</title>
<path fill="none" stroke="#63b8ff" d="M1956.5687,-274.9197C1932.9519,-266.023 1897.57,-252.6942 1871.236,-242.7739"/>
<polygon fill="#63b8ff" stroke="#63b8ff" points="1872.2216,-239.4051 1861.6297,-239.155 1869.7538,-245.9557 1872.2216,-239.4051"/>
</g>
<!-- Node57 -->
<g id="node57" class="node">
<title>Node57</title>
<g id="a_node57"><a xlink:title=" ">
<polygon fill="#e0e0e0" stroke="#999999" points="2143,-184 2089,-184 2089,-165 2143,-165 2143,-184"/>
<text text-anchor="middle" x="2116" y="-172" font-family="Helvetica,sans-Serif" font-size="10.00" fill="#000000">iostream</text>
</a>
</g>
</g>
<!-- Node56&#45;&gt;Node57 -->
<g id="edge145" class="edge">
<title>Node56&#45;&gt;Node57</title>
<path fill="none" stroke="#63b8ff" d="M2016.0237,-278.7722C2041.0553,-272.869 2074.2106,-261.2543 2095,-239 2106.4182,-226.7773 2111.6306,-208.2632 2114.0086,-194.201"/>
<polygon fill="#63b8ff" stroke="#63b8ff" points="2117.5052,-194.4611 2115.3725,-184.0831 2110.5679,-193.5259 2117.5052,-194.4611"/>
</g>
<!-- Node58 -->
<g id="node58" class="node">
<title>Node58</title>
<g id="a_node58"><a xlink:href="../../d1/db5/index_8h.html" target="_top" xlink:title=" ">
<polygon fill="#ffffff" stroke="#666666" points="2086,-239 2038,-239 2038,-220 2086,-220 2086,-239"/>
<text text-anchor="middle" x="2062" y="-227" font-family="Helvetica,sans-Serif" font-size="10.00" fill="#000000">index.h</text>
</a>
</g>
</g>
<!-- Node56&#45;&gt;Node58 -->
<g id="edge148" class="edge">
<title>Node56&#45;&gt;Node58</title>
<path fill="none" stroke="#63b8ff" d="M1995.9349,-274.9197C2007.9065,-266.6893 2025.3953,-254.6657 2039.3721,-245.0567"/>
<polygon fill="#63b8ff" stroke="#63b8ff" points="2041.6988,-247.7045 2047.9563,-239.155 2037.733,-241.9362 2041.6988,-247.7045"/>
</g>
<!-- Node59 -->
<g id="node59" class="node">
<title>Node59</title>
<g id="a_node59"><a xlink:href="../../d1/d2a/section_8h.html" target="_top" xlink:title=" ">
<polygon fill="#ffffff" stroke="#666666" points="1982,-239 1926,-239 1926,-220 1982,-220 1982,-239"/>
<text text-anchor="middle" x="1954" y="-227" font-family="Helvetica,sans-Serif" font-size="10.00" fill="#000000">section.h</text>
</a>
</g>
</g>
<!-- Node56&#45;&gt;Node59 -->
<g id="edge150" class="edge">
<title>Node56&#45;&gt;Node59</title>
<path fill="none" stroke="#63b8ff" d="M1977.1228,-274.9197C1973.3947,-267.5967 1968.1379,-257.2709 1963.5784,-248.3147"/>
<polygon fill="#63b8ff" stroke="#63b8ff" points="1966.6658,-246.6646 1959.0099,-239.3408 1960.4277,-249.8404 1966.6658,-246.6646"/>
</g>
<!-- Node56&#45;&gt;Node60 -->
<g id="edge155" class="edge">
<title>Node56&#45;&gt;Node60</title>
<path fill="none" stroke="#63b8ff" d="M2016.1413,-280.0921C2092.316,-270.2573 2276.1989,-246.5166 2362.2089,-235.412"/>
<polygon fill="#63b8ff" stroke="#63b8ff" points="2362.7294,-238.8739 2372.1989,-234.1222 2361.833,-231.9316 2362.7294,-238.8739"/>
</g>
<!-- Node58&#45;&gt;Node7 -->
<g id="edge149" class="edge">
<title>Node58&#45;&gt;Node7</title>
<path fill="none" stroke="#63b8ff" d="M2060.7964,-219.8054C2058.5627,-205.8347 2052.5,-180.0685 2037,-165 2013.0532,-141.7199 1976.4329,-130.2727 1948.4875,-124.6907"/>
<polygon fill="#63b8ff" stroke="#63b8ff" points="1949.0901,-121.243 1938.6238,-122.8886 1947.8319,-128.129 1949.0901,-121.243"/>
</g>
<!-- Node59&#45;&gt;Node7 -->
<g id="edge153" class="edge">
<title>Node59&#45;&gt;Node7</title>
<path fill="none" stroke="#63b8ff" d="M1958.0234,-219.8291C1962.8112,-206.7691 1969.1916,-183.0524 1961,-165 1955.4622,-152.7961 1944.8547,-142.5785 1934.6568,-134.9377"/>
<polygon fill="#63b8ff" stroke="#63b8ff" points="1936.5173,-131.9685 1926.3074,-129.1385 1932.524,-137.7178 1936.5173,-131.9685"/>
</g>
<!-- Node59&#45;&gt;Node8 -->
<g id="edge151" class="edge">
<title>Node59&#45;&gt;Node8</title>
<path fill="none" stroke="#63b8ff" d="M1982.2388,-225.8773C2064.0786,-215.3626 2295.6965,-185.4879 2297,-184 2302.5647,-177.6484 2299.9445,-172.9144 2297,-165 2274.4751,-104.4569 2259.4816,-84.4738 2202,-55 2159.4436,-33.1792 1827.4863,-15.8381 1723.8213,-10.9103"/>
<polygon fill="#63b8ff" stroke="#63b8ff" points="1723.8495,-7.4079 1713.6961,-10.4342 1723.5206,-14.4002 1723.8495,-7.4079"/>
</g>
<!-- Node59&#45;&gt;Node26 -->
<g id="edge152" class="edge">
<title>Node59&#45;&gt;Node26</title>
<path fill="none" stroke="#63b8ff" d="M1925.9277,-225.3219C1911.8693,-223.3882 1894.5687,-221.2477 1879,-220 1409.1239,-182.3425 1287.5922,-235.2159 819,-184 804.3956,-182.4038 616.8755,-146.9902 523.7548,-129.3311"/>
<polygon fill="#63b8ff" stroke="#63b8ff" points="524.1714,-125.8478 513.6943,-127.4227 522.8668,-132.7251 524.1714,-125.8478"/>
</g>
<!-- Node59&#45;&gt;Node30 -->
<g id="edge154" class="edge">
<title>Node59&#45;&gt;Node30</title>
<path fill="none" stroke="#63b8ff" d="M1925.9217,-225.3941C1911.8619,-223.4782 1894.5617,-221.3318 1879,-220 1504.4227,-187.9427 1050.1012,-177.7357 907.806,-175.2083"/>
<polygon fill="#63b8ff" stroke="#63b8ff" points="907.775,-171.7074 897.7156,-175.0328 907.6532,-178.7063 907.775,-171.7074"/>
</g>
<!-- Node60&#45;&gt;Node4 -->
<g id="edge161" class="edge">
<title>Node60&#45;&gt;Node4</title>
<path fill="none" stroke="#63b8ff" d="M2372.2157,-221.2327C2336.3213,-212.8529 2279.2279,-199.289 2220.9627,-184.1893"/>
<polygon fill="#63b8ff" stroke="#63b8ff" points="2221.7837,-180.7865 2211.2244,-181.6539 2220.0199,-187.5606 2221.7837,-180.7865"/>
</g>
<!-- Node60&#45;&gt;Node7 -->
<g id="edge163" class="edge">
<title>Node60&#45;&gt;Node7</title>
<path fill="none" stroke="#63b8ff" d="M2435.3581,-219.9805C2465.2263,-208.1823 2506.2756,-186.9374 2486,-165 2467.7362,-145.2393 2075.9791,-126.6885 1948.6165,-121.1606"/>
<polygon fill="#63b8ff" stroke="#63b8ff" points="1948.6575,-117.6592 1938.5161,-120.7256 1948.3562,-124.6527 1948.6575,-117.6592"/>
</g>
<!-- Node60&#45;&gt;Node8 -->
<g id="edge156" class="edge">
<title>Node60&#45;&gt;Node8</title>
<path fill="none" stroke="#63b8ff" d="M2443.679,-223.421C2484.1293,-214.8797 2541.8045,-196.7082 2520,-165 2427.214,-30.0697 1862.7492,-12.2111 1723.8558,-9.8562"/>
<polygon fill="#63b8ff" stroke="#63b8ff" points="1723.5786,-6.3516 1713.5258,-9.6969 1723.4706,-13.3507 1723.5786,-6.3516"/>
</g>
<!-- Node60&#45;&gt;Node12 -->
<g id="edge160" class="edge">
<title>Node60&#45;&gt;Node12</title>
<path fill="none" stroke="#63b8ff" d="M2443.5339,-220.6721C2478.0077,-210.3469 2522.4723,-191.2624 2503,-165 2466.6173,-115.9305 2279.0393,-81.3843 2203.537,-69.2656"/>
<polygon fill="#63b8ff" stroke="#63b8ff" points="2204.078,-65.8077 2193.6545,-67.7052 2202.9863,-72.722 2204.078,-65.8077"/>
</g>
<!-- Node60&#45;&gt;Node14 -->
<g id="edge159" class="edge">
<title>Node60&#45;&gt;Node14</title>
<path fill="none" stroke="#63b8ff" d="M2443.5613,-226.0087C2492.459,-220.3895 2576.5224,-207.5125 2595,-184 2630.4258,-138.9209 2633.8885,-97.1283 2595,-55 2576.7602,-35.2406 2179.6517,-16.2189 2060.5019,-10.9396"/>
<polygon fill="#63b8ff" stroke="#63b8ff" points="2060.3196,-7.4283 2050.1755,-10.4857 2060.0121,-14.4216 2060.3196,-7.4283"/>
</g>
<!-- Node60&#45;&gt;Node57 -->
<g id="edge157" class="edge">
<title>Node60&#45;&gt;Node57</title>
<path fill="none" stroke="#63b8ff" d="M2372.2011,-224.0889C2324.4274,-216.6599 2237.011,-202.3432 2153.0259,-184.0851"/>
<polygon fill="#63b8ff" stroke="#63b8ff" points="2153.5869,-180.6249 2143.0688,-181.898 2152.0851,-187.4619 2153.5869,-180.6249"/>
</g>
<!-- Node61 -->
<g id="node61" class="node">
<title>Node61</title>
<g id="a_node61"><a xlink:title=" ">
<polygon fill="#e0e0e0" stroke="#999999" points="2397,-184 2345,-184 2345,-165 2397,-165 2397,-184"/>
<text text-anchor="middle" x="2371" y="-172" font-family="Helvetica,sans-Serif" font-size="10.00" fill="#000000">sstream</text>
</a>
</g>
</g>
<!-- Node60&#45;&gt;Node61 -->
<g id="edge158" class="edge">
<title>Node60&#45;&gt;Node61</title>
<path fill="none" stroke="#63b8ff" d="M2401.5551,-219.9197C2396.5239,-212.4409 2389.3857,-201.8301 2383.2739,-192.745"/>
<polygon fill="#63b8ff" stroke="#63b8ff" points="2386.106,-190.6844 2377.6202,-184.3408 2380.298,-194.5917 2386.106,-190.6844"/>
</g>
<!-- Node62 -->
<g id="node62" class="node">
<title>Node62</title>
<g id="a_node62"><a xlink:title=" ">
<polygon fill="#e0e0e0" stroke="#999999" points="2477,-184 2415,-184 2415,-165 2477,-165 2477,-184"/>
<text text-anchor="middle" x="2446" y="-172" font-family="Helvetica,sans-Serif" font-size="10.00" fill="#000000">type_traits</text>
</a>
</g>
</g>
<!-- Node60&#45;&gt;Node62 -->
<g id="edge162" class="edge">
<title>Node60&#45;&gt;Node62</title>
<path fill="none" stroke="#63b8ff" d="M2414.6191,-219.9197C2419.7863,-212.4409 2427.1174,-201.8301 2433.3944,-192.745"/>
<polygon fill="#63b8ff" stroke="#63b8ff" points="2436.3961,-194.5577 2439.2009,-184.3408 2430.637,-190.5786 2436.3961,-194.5577"/>
</g>
<!-- Node63&#45;&gt;Node6 -->
<g id="edge166" class="edge">
<title>Node63&#45;&gt;Node6</title>
<path fill="none" stroke="#63b8ff" d="M1539.4547,-167.0825C1508.1473,-157.6214 1453.7659,-141.1875 1417.827,-130.3268"/>
<polygon fill="#63b8ff" stroke="#63b8ff" points="1418.7989,-126.9643 1408.2139,-127.4218 1416.7739,-133.665 1418.7989,-126.9643"/>
</g>
<!-- Node63&#45;&gt;Node8 -->
<g id="edge167" class="edge">
<title>Node63&#45;&gt;Node8</title>
<path fill="none" stroke="#63b8ff" d="M1564.6718,-164.9325C1566.6847,-142.9732 1574.4376,-88.2917 1603,-55 1618.533,-36.8951 1643.0257,-25.1734 1662.541,-18.1689"/>
<polygon fill="#63b8ff" stroke="#63b8ff" points="1663.8482,-21.4222 1672.2187,-14.9271 1661.6248,-14.7847 1663.8482,-21.4222"/>
</g>
<!-- Node63&#45;&gt;Node23 -->
<g id="edge168" class="edge">
<title>Node63&#45;&gt;Node23</title>
<path fill="none" stroke="#63b8ff" d="M1539.2449,-166.9899C1536.1523,-166.2276 1533.0169,-165.5376 1530,-165 1328.9938,-129.1826 1082.7642,-121.5388 996.0497,-119.9256"/>
<polygon fill="#63b8ff" stroke="#63b8ff" points="996.1054,-116.4261 986.0467,-119.7536 995.985,-123.4251 996.1054,-116.4261"/>
</g>
<!-- Node63&#45;&gt;Node55 -->
<g id="edge169" class="edge">
<title>Node63&#45;&gt;Node55</title>
<path fill="none" stroke="#63b8ff" d="M1552.5037,-164.9197C1542.8747,-156.8956 1528.9193,-145.2661 1517.5405,-135.7837"/>
<polygon fill="#63b8ff" stroke="#63b8ff" points="1519.7319,-133.0539 1509.809,-129.3408 1515.2506,-138.4315 1519.7319,-133.0539"/>
</g>
<!-- Node64&#45;&gt;Node32 -->
<g id="edge171" class="edge">
<title>Node64&#45;&gt;Node32</title>
<path fill="none" stroke="#63b8ff" d="M1068.0161,-549.9819C1060.5056,-531.1489 1045,-487.6483 1045,-449.5 1045,-449.5 1045,-449.5 1045,-394.5 1045,-345.2492 990.2523,-314.0176 950.7454,-297.8919"/>
<polygon fill="#63b8ff" stroke="#63b8ff" points="951.6604,-294.4919 941.0722,-294.1158 949.1149,-301.0127 951.6604,-294.4919"/>
</g>
<!-- Node64&#45;&gt;Node47 -->
<g id="edge172" class="edge">
<title>Node64&#45;&gt;Node47</title>
<path fill="none" stroke="#63b8ff" d="M1035.3604,-556.6423C954.2643,-550.1916 753.5056,-533.5316 586,-514 575.5216,-512.7782 564.1613,-511.2658 553.7812,-509.8098"/>
<polygon fill="#63b8ff" stroke="#63b8ff" points="554.1908,-506.3328 543.7967,-508.3853 553.2021,-513.2627 554.1908,-506.3328"/>
</g>
</g>
</svg>
