<?xml version="1.0" encoding="UTF-8" standalone="no"?>
<!DOCTYPE svg PUBLIC "-//W3C//DTD SVG 1.1//EN"
 "http://www.w3.org/Graphics/SVG/1.1/DTD/svg11.dtd">
<!-- Generated by graphviz version 2.40.1 (20161225.0304)
 -->
<!-- Title: TemplateNodeCreate Pages: 1 -->
<svg width="304pt" height="226pt"
 viewBox="0.00 0.00 304.00 226.00" xmlns="http://www.w3.org/2000/svg" xmlns:xlink="http://www.w3.org/1999/xlink">
<g id="graph0" class="graph" transform="scale(1 1) rotate(0) translate(4 222)">
<title>TemplateNodeCreate</title>
<!-- Node1 -->
<g id="node1" class="node">
<title>Node1</title>
<g id="a_node1"><a xlink:title="Class representing an &#39;create&#39; tag in a template.">
<polygon fill="#999999" stroke="#666666" points="141,-19 31,-19 31,0 141,0 141,-19"/>
<text text-anchor="middle" x="86" y="-7" font-family="Helvetica,sans-Serif" font-size="10.00" fill="#000000">TemplateNodeCreate</text>
</a>
</g>
</g>
<!-- Node2 -->
<g id="node2" class="node">
<title>Node2</title>
<g id="a_node2"><a xlink:href="../../d8/d78/class_template_node_creator.html" target="_top" xlink:title=" ">
<polygon fill="#ffffff" stroke="#666666" points="150,-86 22,-86 22,-56 150,-56 150,-86"/>
<text text-anchor="start" x="30" y="-74" font-family="Helvetica,sans-Serif" font-size="10.00" fill="#000000">TemplateNodeCreator</text>
<text text-anchor="middle" x="86" y="-63" font-family="Helvetica,sans-Serif" font-size="10.00" fill="#000000">&lt; TemplateNodeCreate &gt;</text>
</a>
</g>
</g>
<!-- Node2&#45;&gt;Node1 -->
<g id="edge1" class="edge">
<title>Node2&#45;&gt;Node1</title>
<path fill="none" stroke="#63b8ff" d="M86,-45.7849C86,-36.4858 86,-26.4883 86,-19.3469"/>
<polygon fill="#63b8ff" stroke="#63b8ff" points="82.5001,-45.7977 86,-55.7977 89.5001,-45.7978 82.5001,-45.7977"/>
</g>
<!-- Node3 -->
<g id="node3" class="node">
<title>Node3</title>
<g id="a_node3"><a xlink:href="../../d6/d53/class_template_node.html" target="_top" xlink:title="Base class of all nodes in a template&#39;s AST.">
<polygon fill="#ffffff" stroke="#666666" points="80,-218 0,-218 0,-199 80,-199 80,-218"/>
<text text-anchor="middle" x="40" y="-206" font-family="Helvetica,sans-Serif" font-size="10.00" fill="#000000">TemplateNode</text>
</a>
</g>
</g>
<!-- Node3&#45;&gt;Node2 -->
<g id="edge2" class="edge">
<title>Node3&#45;&gt;Node2</title>
<path fill="none" stroke="#63b8ff" d="M33.7008,-189.2447C29.6409,-173.6175 26.2585,-151.2614 33,-133 39.8659,-114.4018 55.073,-97.6029 67.4448,-86.1975"/>
<polygon fill="#63b8ff" stroke="#63b8ff" points="30.3438,-190.2353 36.5036,-198.8554 37.0638,-188.2754 30.3438,-190.2353"/>
</g>
<!-- Node3&#45;&gt;Node3 -->
<g id="edge3" class="edge">
<title>Node3&#45;&gt;Node3</title>
<path fill="none" stroke="#9a32cd" stroke-dasharray="5,2" d="M90.2648,-213.3206C95.0048,-212.3334 98,-210.7266 98,-208.5 98,-204.9375 90.3323,-202.9614 80.1186,-202.5718"/>
<polygon fill="#9a32cd" stroke="#9a32cd" points="89.6797,-209.8636 80.1186,-214.4282 90.4394,-216.8222 89.6797,-209.8636"/>
<text text-anchor="middle" x="120" y="-206" font-family="Helvetica,sans-Serif" font-size="10.00" fill="#000000"> m_parent</text>
</g>
<!-- Node5 -->
<g id="node5" class="node">
<title>Node5</title>
<g id="a_node5"><a xlink:href="../../d8/d78/class_template_node_creator.html" target="_top" xlink:title="Helper class for creating template AST tag nodes and returning the template for a given node.">
<polygon fill="#ffffff" stroke="#666666" points="179.5,-152 42.5,-152 42.5,-133 179.5,-133 179.5,-152"/>
<text text-anchor="middle" x="111" y="-140" font-family="Helvetica,sans-Serif" font-size="10.00" fill="#000000">TemplateNodeCreator&lt; T &gt;</text>
</a>
</g>
</g>
<!-- Node3&#45;&gt;Node5 -->
<g id="edge6" class="edge">
<title>Node3&#45;&gt;Node5</title>
<path fill="none" stroke="#63b8ff" d="M58.1601,-191.6187C71.5668,-179.1562 89.3471,-162.6281 100.4807,-152.2785"/>
<polygon fill="#63b8ff" stroke="#63b8ff" points="55.4176,-189.3895 50.4763,-198.7615 60.1836,-194.5165 55.4176,-189.3895"/>
</g>
<!-- Node4 -->
<g id="node4" class="node">
<title>Node4</title>
<g id="a_node4"><a xlink:href="../../d9/d45/class_q_c_string.html" target="_top" xlink:title="This is an alternative implementation of QCString.">
<polygon fill="#ffffff" stroke="#666666" points="230.5,-218 173.5,-218 173.5,-199 230.5,-199 230.5,-218"/>
<text text-anchor="middle" x="202" y="-206" font-family="Helvetica,sans-Serif" font-size="10.00" fill="#000000">QCString</text>
</a>
</g>
</g>
<!-- Node4&#45;&gt;Node2 -->
<g id="edge4" class="edge">
<title>Node4&#45;&gt;Node2</title>
<path fill="none" stroke="#9a32cd" stroke-dasharray="5,2" d="M208.3697,-189.0934C214.5381,-166.3044 220.5101,-128.5103 202,-104 195.123,-94.8938 173.0726,-87.5595 150.0167,-82.1392"/>
<polygon fill="#9a32cd" stroke="#9a32cd" points="204.9337,-188.3683 205.4322,-198.9514 211.6422,-190.3674 204.9337,-188.3683"/>
<text text-anchor="middle" x="255.5" y="-140" font-family="Helvetica,sans-Serif" font-size="10.00" fill="#000000"> m_templateName</text>
</g>
<!-- Node4&#45;&gt;Node5 -->
<g id="edge7" class="edge">
<title>Node4&#45;&gt;Node5</title>
<path fill="none" stroke="#9a32cd" stroke-dasharray="5,2" d="M163.5038,-199.1761C145.6993,-194.1386 127.1418,-187.6085 121,-181 113.76,-173.2099 111.6119,-160.86 111.0494,-152.2553"/>
<polygon fill="#9a32cd" stroke="#9a32cd" points="162.6668,-202.5754 173.2341,-201.8122 164.4972,-195.819 162.6668,-202.5754"/>
<text text-anchor="middle" x="161.5" y="-173" font-family="Helvetica,sans-Serif" font-size="10.00" fill="#000000"> m_templateName</text>
</g>
<!-- Node5&#45;&gt;Node2 -->
<g id="edge5" class="edge">
<title>Node5&#45;&gt;Node2</title>
<path fill="none" stroke="#ffa500" stroke-dasharray="5,2" d="M92.9458,-125.3099C90.5359,-122.122 88.4126,-118.6406 87,-115 83.4621,-105.882 83.2121,-94.882 83.8466,-86.1615"/>
<polygon fill="#ffa500" stroke="#ffa500" points="90.4633,-127.7865 99.7032,-132.9706 95.7128,-123.1559 90.4633,-127.7865"/>
<text text-anchor="middle" x="144.5" y="-107" font-family="Helvetica,sans-Serif" font-size="10.00" fill="#000000"> &lt; TemplateNodeCreate &gt;</text>
</g>
</g>
</svg>
