<?xml version="1.0" encoding="UTF-8" standalone="no"?>
<!DOCTYPE svg PUBLIC "-//W3C//DTD SVG 1.1//EN"
 "http://www.w3.org/Graphics/SVG/1.1/DTD/svg11.dtd">
<!-- Generated by graphviz version 2.40.1 (20161225.0304)
 -->
<!-- Title: src/classdef.h Pages: 1 -->
<!--zoomable 357 -->
<svg id="main" version="1.1" xmlns="http://www.w3.org/2000/svg" xmlns:xlink="http://www.w3.org/1999/xlink" xml:space="preserve" onload="init(evt)">
<style type="text/css"><![CDATA[
.edge:hover path { stroke: red; }
.edge:hover polygon { stroke: red; fill: red; }
]]></style>
<script type="text/javascript"><![CDATA[
var edges = document.getElementsByTagName('g');
if (edges && edges.length) {
  for (var i=0;i<edges.length;i++) {
    if (edges[i].id.substr(0,4)=='edge') {
      edges[i].setAttribute('class','edge');
    }
  }
}
]]></script>
        <defs>
                <circle id="rim" cx="0" cy="0" r="7"/>
                <circle id="rim2" cx="0" cy="0" r="3.5"/>
                <g id="zoomPlus">
                        <use xlink:href="#rim" fill="#404040">
                                <set attributeName="fill" to="#808080" begin="zoomplus.mouseover" end="zoomplus.mouseout"/>
                        </use>
                        <path d="M-4,0h8M0,-4v8" fill="none" stroke="white" stroke-width="1.5" pointer-events="none"/>
                </g>
                <g id="zoomMin">
                        <use xlink:href="#rim" fill="#404040">
                                <set attributeName="fill" to="#808080" begin="zoomminus.mouseover" end="zoomminus.mouseout"/>
                        </use>
                        <path d="M-4,0h8" fill="none" stroke="white" stroke-width="1.5" pointer-events="none"/>
                </g>
                <g id="dirArrow">
                        <path fill="none" stroke="white" stroke-width="1.5" d="M0,-3.0v7 M-2.5,-0.5L0,-3.0L2.5,-0.5"/>
                </g>
               <g id="resetDef">
                       <use xlink:href="#rim2" fill="#404040">
                               <set attributeName="fill" to="#808080" begin="reset.mouseover" end="reset.mouseout"/>
                       </use>
               </g>
        </defs>

<script type="text/javascript">
var viewWidth = 906;
var viewHeight = 357;
var sectionId = 'dynsection-0';
</script>
<script xlink:href="../../svgpan.js"/>
<svg id="graph" class="graph">
<g id="viewport">
<title>src/classdef.h</title>
<!-- Node1 -->
<g id="node1" class="node">
<title>Node1</title>
<g id="a_node1"><a xlink:title=" ">
<polygon fill="#999999" stroke="#666666" points="563,-349 485,-349 485,-330 563,-330 563,-349"/>
<text text-anchor="middle" x="524" y="-337" font-family="Helvetica,sans-Serif" font-size="10.00" fill="#000000">src/classdef.h</text>
</a>
</g>
</g>
<!-- Node2 -->
<g id="node2" class="node">
<title>Node2</title>
<g id="a_node2"><a xlink:title=" ">
<polygon fill="#e0e0e0" stroke="#999999" points="718,-129 674,-129 674,-110 718,-110 718,-129"/>
<text text-anchor="middle" x="696" y="-117" font-family="Helvetica,sans-Serif" font-size="10.00" fill="#000000">vector</text>
</a>
</g>
</g>
<!-- Node1&#45;&gt;Node2 -->
<g id="edge1" class="edge">
<title>Node1&#45;&gt;Node2</title>
<path fill="none" stroke="#63b8ff" d="M563.1446,-336.3613C619.56,-329.4912 721.9895,-307.7116 768,-239 775.1733,-228.2874 783.8051,-196.4328 766,-165 757.5027,-149.999 741.7899,-139.1153 727.4011,-131.7612"/>
<polygon fill="#63b8ff" stroke="#63b8ff" points="728.7632,-128.5338 718.226,-127.4304 725.7752,-134.8641 728.7632,-128.5338"/>
</g>
<!-- Node3 -->
<g id="node3" class="node">
<title>Node3</title>
<g id="a_node3"><a xlink:title=" ">
<polygon fill="#e0e0e0" stroke="#999999" points="30,-239 0,-239 0,-220 30,-220 30,-239"/>
<text text-anchor="middle" x="15" y="-227" font-family="Helvetica,sans-Serif" font-size="10.00" fill="#000000">set</text>
</a>
</g>
</g>
<!-- Node1&#45;&gt;Node3 -->
<g id="edge2" class="edge">
<title>Node1&#45;&gt;Node3</title>
<path fill="none" stroke="#63b8ff" d="M484.91,-337.6354C419.7172,-333.8118 285.0835,-322.8629 175,-294 125.0697,-280.9087 69.85,-256.2102 39.0935,-241.4668"/>
<polygon fill="#63b8ff" stroke="#63b8ff" points="40.5297,-238.2735 30.0049,-237.0571 37.474,-244.5713 40.5297,-238.2735"/>
</g>
<!-- Node4 -->
<g id="node4" class="node">
<title>Node4</title>
<g id="a_node4"><a xlink:href="../../d5/d75/containers_8h.html" target="_top" xlink:title=" ">
<polygon fill="#ffffff" stroke="#666666" points="254,-294 184,-294 184,-275 254,-275 254,-294"/>
<text text-anchor="middle" x="219" y="-282" font-family="Helvetica,sans-Serif" font-size="10.00" fill="#000000">containers.h</text>
</a>
</g>
</g>
<!-- Node1&#45;&gt;Node4 -->
<g id="edge3" class="edge">
<title>Node1&#45;&gt;Node4</title>
<path fill="none" stroke="#63b8ff" d="M484.751,-332.4223C428.173,-322.2197 323.9501,-303.4254 264.2198,-292.6544"/>
<polygon fill="#63b8ff" stroke="#63b8ff" points="264.7804,-289.1991 254.318,-290.8688 263.5381,-296.088 264.7804,-289.1991"/>
</g>
<!-- Node10 -->
<g id="node10" class="node">
<title>Node10</title>
<g id="a_node10"><a xlink:href="../../df/da1/definition_8h.html" target="_top" xlink:title=" ">
<polygon fill="#ffffff" stroke="#666666" points="601,-294 537,-294 537,-275 601,-275 601,-294"/>
<text text-anchor="middle" x="569" y="-282" font-family="Helvetica,sans-Serif" font-size="10.00" fill="#000000">definition.h</text>
</a>
</g>
</g>
<!-- Node1&#45;&gt;Node10 -->
<g id="edge11" class="edge">
<title>Node1&#45;&gt;Node10</title>
<path fill="none" stroke="#63b8ff" d="M531.8384,-329.9197C538.0849,-322.2851 547.0018,-311.3867 554.5352,-302.1792"/>
<polygon fill="#63b8ff" stroke="#63b8ff" points="557.3249,-304.2968 560.9484,-294.3408 551.9071,-299.8641 557.3249,-304.2968"/>
</g>
<!-- Node24 -->
<g id="node24" class="node">
<title>Node24</title>
<g id="a_node24"><a xlink:href="../../df/d9b/arguments_8h.html" target="_top" xlink:title=" ">
<polygon fill="#ffffff" stroke="#666666" points="667.5,-184 596.5,-184 596.5,-165 667.5,-165 667.5,-184"/>
<text text-anchor="middle" x="632" y="-172" font-family="Helvetica,sans-Serif" font-size="10.00" fill="#000000">arguments.h</text>
</a>
</g>
</g>
<!-- Node1&#45;&gt;Node24 -->
<g id="edge39" class="edge">
<title>Node1&#45;&gt;Node24</title>
<path fill="none" stroke="#63b8ff" d="M556.9775,-329.9867C575.3713,-322.983 597.1078,-311.5668 610,-294 631.6469,-264.504 634.0605,-220.1248 633.3658,-194.5674"/>
<polygon fill="#63b8ff" stroke="#63b8ff" points="636.8478,-194.0964 632.8858,-184.2703 629.8553,-194.4224 636.8478,-194.0964"/>
</g>
<!-- Node25 -->
<g id="node25" class="node">
<title>Node25</title>
<g id="a_node25"><a xlink:href="../../d9/d11/membergroup_8h.html" target="_top" xlink:title=" ">
<polygon fill="#ffffff" stroke="#666666" points="517,-294 433,-294 433,-275 517,-275 517,-294"/>
<text text-anchor="middle" x="475" y="-282" font-family="Helvetica,sans-Serif" font-size="10.00" fill="#000000">membergroup.h</text>
</a>
</g>
</g>
<!-- Node1&#45;&gt;Node25 -->
<g id="edge42" class="edge">
<title>Node1&#45;&gt;Node25</title>
<path fill="none" stroke="#63b8ff" d="M515.4649,-329.9197C508.5937,-322.2072 498.7551,-311.1639 490.4999,-301.8978"/>
<polygon fill="#63b8ff" stroke="#63b8ff" points="493.0327,-299.4792 483.7673,-294.3408 487.8061,-304.1357 493.0327,-299.4792"/>
</g>
<!-- Node4&#45;&gt;Node2 -->
<g id="edge4" class="edge">
<title>Node4&#45;&gt;Node2</title>
<path fill="none" stroke="#63b8ff" d="M254.2223,-282.2797C309.1252,-278.0758 417.9477,-266.7483 506,-239 524.3894,-233.2049 526.9603,-226.8059 545,-220 601.4938,-198.6863 632.6165,-225.9965 676,-184 687.9642,-172.4184 692.8089,-153.8339 694.7514,-139.5822"/>
<polygon fill="#63b8ff" stroke="#63b8ff" points="698.2672,-139.5937 695.7675,-129.2979 691.3011,-138.9053 698.2672,-139.5937"/>
</g>
<!-- Node4&#45;&gt;Node3 -->
<g id="edge6" class="edge">
<title>Node4&#45;&gt;Node3</title>
<path fill="none" stroke="#63b8ff" d="M183.961,-276.0707C148.5053,-267.3817 92.1946,-253.1444 44,-239 42.7418,-238.6307 41.4559,-238.2441 40.1592,-237.8469"/>
<polygon fill="#63b8ff" stroke="#63b8ff" points="40.8864,-234.4053 30.2958,-234.7078 38.7635,-241.0757 40.8864,-234.4053"/>
</g>
<!-- Node5 -->
<g id="node5" class="node">
<title>Node5</title>
<g id="a_node5"><a xlink:title=" ">
<polygon fill="#e0e0e0" stroke="#999999" points="486.5,-19 445.5,-19 445.5,0 486.5,0 486.5,-19"/>
<text text-anchor="middle" x="466" y="-7" font-family="Helvetica,sans-Serif" font-size="10.00" fill="#000000">string</text>
</a>
</g>
</g>
<!-- Node4&#45;&gt;Node5 -->
<g id="edge5" class="edge">
<title>Node4&#45;&gt;Node5</title>
<path fill="none" stroke="#63b8ff" d="M183.9202,-277.2073C146.9303,-268.8518 91.9676,-254.3253 77,-239 56.1194,-217.6204 58,-204.3846 58,-174.5 58,-174.5 58,-174.5 58,-119.5 58,-41.3544 340.5535,-17.0935 435.3865,-11.1515"/>
<polygon fill="#63b8ff" stroke="#63b8ff" points="435.7158,-14.6381 445.4876,-10.5441 435.2955,-7.6508 435.7158,-14.6381"/>
</g>
<!-- Node6 -->
<g id="node6" class="node">
<title>Node6</title>
<g id="a_node6"><a xlink:title=" ">
<polygon fill="#e0e0e0" stroke="#999999" points="315.5,-239 280.5,-239 280.5,-220 315.5,-220 315.5,-239"/>
<text text-anchor="middle" x="298" y="-227" font-family="Helvetica,sans-Serif" font-size="10.00" fill="#000000">map</text>
</a>
</g>
</g>
<!-- Node4&#45;&gt;Node6 -->
<g id="edge7" class="edge">
<title>Node4&#45;&gt;Node6</title>
<path fill="none" stroke="#63b8ff" d="M232.7607,-274.9197C244.5827,-266.6893 261.8529,-254.6657 275.6549,-245.0567"/>
<polygon fill="#63b8ff" stroke="#63b8ff" points="277.9247,-247.7412 284.1319,-239.155 273.9251,-241.9963 277.9247,-247.7412"/>
</g>
<!-- Node7 -->
<g id="node7" class="node">
<title>Node7</title>
<g id="a_node7"><a xlink:title=" ">
<polygon fill="#e0e0e0" stroke="#999999" points="224,-239 146,-239 146,-220 224,-220 224,-239"/>
<text text-anchor="middle" x="185" y="-227" font-family="Helvetica,sans-Serif" font-size="10.00" fill="#000000">unordered_set</text>
</a>
</g>
</g>
<!-- Node4&#45;&gt;Node7 -->
<g id="edge8" class="edge">
<title>Node4&#45;&gt;Node7</title>
<path fill="none" stroke="#63b8ff" d="M213.0777,-274.9197C208.5025,-267.5188 202.0314,-257.0509 196.4545,-248.0294"/>
<polygon fill="#63b8ff" stroke="#63b8ff" points="199.3188,-246.0064 191.0834,-239.3408 193.3646,-249.6872 199.3188,-246.0064"/>
</g>
<!-- Node8 -->
<g id="node8" class="node">
<title>Node8</title>
<g id="a_node8"><a xlink:title=" ">
<polygon fill="#e0e0e0" stroke="#999999" points="292.5,-129 209.5,-129 209.5,-110 292.5,-110 292.5,-129"/>
<text text-anchor="middle" x="251" y="-117" font-family="Helvetica,sans-Serif" font-size="10.00" fill="#000000">unordered_map</text>
</a>
</g>
</g>
<!-- Node4&#45;&gt;Node8 -->
<g id="edge9" class="edge">
<title>Node4&#45;&gt;Node8</title>
<path fill="none" stroke="#63b8ff" d="M222.4287,-274.8503C225.5638,-265.7169 230.136,-251.5709 233,-239 240.89,-204.368 246.2166,-163.2794 248.9195,-139.4198"/>
<polygon fill="#63b8ff" stroke="#63b8ff" points="252.4298,-139.5155 250.0354,-129.1947 245.4711,-138.756 252.4298,-139.5155"/>
</g>
<!-- Node9 -->
<g id="node9" class="node">
<title>Node9</title>
<g id="a_node9"><a xlink:title=" ">
<polygon fill="#e0e0e0" stroke="#999999" points="127.5,-239 86.5,-239 86.5,-220 127.5,-220 127.5,-239"/>
<text text-anchor="middle" x="107" y="-227" font-family="Helvetica,sans-Serif" font-size="10.00" fill="#000000">stack</text>
</a>
</g>
</g>
<!-- Node4&#45;&gt;Node9 -->
<g id="edge10" class="edge">
<title>Node4&#45;&gt;Node9</title>
<path fill="none" stroke="#63b8ff" d="M199.4911,-274.9197C181.853,-266.2581 155.6603,-253.3957 135.6465,-243.5675"/>
<polygon fill="#63b8ff" stroke="#63b8ff" points="137.18,-240.4213 126.6611,-239.155 134.0945,-246.7046 137.18,-240.4213"/>
</g>
<!-- Node10&#45;&gt;Node2 -->
<g id="edge12" class="edge">
<title>Node10&#45;&gt;Node2</title>
<path fill="none" stroke="#63b8ff" d="M601.1169,-281.0188C647.6276,-275.2408 730.1375,-261.971 748,-239 768.1891,-213.037 761.5902,-194.9497 748,-165 742.4622,-152.7961 731.8547,-142.5785 721.6568,-134.9377"/>
<polygon fill="#63b8ff" stroke="#63b8ff" points="723.5173,-131.9685 713.3074,-129.1385 719.524,-137.7178 723.5173,-131.9685"/>
</g>
<!-- Node11 -->
<g id="node11" class="node">
<title>Node11</title>
<g id="a_node11"><a xlink:href="../../d9/d49/types_8h.html" target="_top" xlink:title="This file contains a number of basic enums and types.">
<polygon fill="#ffffff" stroke="#666666" points="603.5,-239 554.5,-239 554.5,-220 603.5,-220 603.5,-239"/>
<text text-anchor="middle" x="579" y="-227" font-family="Helvetica,sans-Serif" font-size="10.00" fill="#000000">types.h</text>
</a>
</g>
</g>
<!-- Node10&#45;&gt;Node11 -->
<g id="edge13" class="edge">
<title>Node10&#45;&gt;Node11</title>
<path fill="none" stroke="#63b8ff" d="M570.7419,-274.9197C572.0167,-267.9083 573.792,-258.1442 575.37,-249.4652"/>
<polygon fill="#63b8ff" stroke="#63b8ff" points="578.8654,-249.8057 577.2108,-239.3408 571.9783,-248.5534 578.8654,-249.8057"/>
</g>
<!-- Node21 -->
<g id="node21" class="node">
<title>Node21</title>
<g id="a_node21"><a xlink:href="../../d1/d02/reflist_8h.html" target="_top" xlink:title=" ">
<polygon fill="#ffffff" stroke="#666666" points="497.5,-239 448.5,-239 448.5,-220 497.5,-220 497.5,-239"/>
<text text-anchor="middle" x="473" y="-227" font-family="Helvetica,sans-Serif" font-size="10.00" fill="#000000">reflist.h</text>
</a>
</g>
</g>
<!-- Node10&#45;&gt;Node21 -->
<g id="edge26" class="edge">
<title>Node10&#45;&gt;Node21</title>
<path fill="none" stroke="#63b8ff" d="M552.2781,-274.9197C537.5017,-266.4541 515.721,-253.9755 498.7265,-244.2391"/>
<polygon fill="#63b8ff" stroke="#63b8ff" points="500.2692,-241.0893 489.8524,-239.155 496.7894,-247.1631 500.2692,-241.0893"/>
</g>
<!-- Node12 -->
<g id="node12" class="node">
<title>Node12</title>
<g id="a_node12"><a xlink:href="../../d7/d5c/qcstring_8h.html" target="_top" xlink:title=" ">
<polygon fill="#ffffff" stroke="#666666" points="637.5,-129 578.5,-129 578.5,-110 637.5,-110 637.5,-129"/>
<text text-anchor="middle" x="608" y="-117" font-family="Helvetica,sans-Serif" font-size="10.00" fill="#000000">qcstring.h</text>
</a>
</g>
</g>
<!-- Node11&#45;&gt;Node12 -->
<g id="edge14" class="edge">
<title>Node11&#45;&gt;Node12</title>
<path fill="none" stroke="#63b8ff" d="M579.2787,-219.6977C579.8536,-206.8926 581.6137,-183.8804 587,-165 589.5844,-155.9409 593.7396,-146.4051 597.6744,-138.4165"/>
<polygon fill="#63b8ff" stroke="#63b8ff" points="600.9163,-139.7672 602.4058,-129.2776 594.7,-136.5489 600.9163,-139.7672"/>
</g>
<!-- Node12&#45;&gt;Node5 -->
<g id="edge15" class="edge">
<title>Node12&#45;&gt;Node5</title>
<path fill="none" stroke="#63b8ff" d="M597.9933,-109.8406C584.2762,-96.7937 558.6356,-73.0918 535,-55 520.7429,-44.0869 503.9388,-32.972 490.4836,-24.4597"/>
<polygon fill="#63b8ff" stroke="#63b8ff" points="492.1107,-21.3494 481.7758,-19.0168 488.4004,-27.2852 492.1107,-21.3494"/>
</g>
<!-- Node13 -->
<g id="node13" class="node">
<title>Node13</title>
<g id="a_node13"><a xlink:title=" ">
<polygon fill="#e0e0e0" stroke="#999999" points="526,-74 470,-74 470,-55 526,-55 526,-74"/>
<text text-anchor="middle" x="498" y="-62" font-family="Helvetica,sans-Serif" font-size="10.00" fill="#000000">algorithm</text>
</a>
</g>
</g>
<!-- Node12&#45;&gt;Node13 -->
<g id="edge16" class="edge">
<title>Node12&#45;&gt;Node13</title>
<path fill="none" stroke="#63b8ff" d="M588.8395,-109.9197C571.5947,-101.2973 546.024,-88.512 526.4022,-78.7011"/>
<polygon fill="#63b8ff" stroke="#63b8ff" points="527.8196,-75.4967 517.31,-74.155 524.6891,-81.7577 527.8196,-75.4967"/>
</g>
<!-- Node14 -->
<g id="node14" class="node">
<title>Node14</title>
<g id="a_node14"><a xlink:title=" ">
<polygon fill="#e0e0e0" stroke="#999999" points="452,-74 406,-74 406,-55 452,-55 452,-74"/>
<text text-anchor="middle" x="429" y="-62" font-family="Helvetica,sans-Serif" font-size="10.00" fill="#000000">cctype</text>
</a>
</g>
</g>
<!-- Node12&#45;&gt;Node14 -->
<g id="edge17" class="edge">
<title>Node12&#45;&gt;Node14</title>
<path fill="none" stroke="#63b8ff" d="M578.4418,-110.4179C546.3155,-100.5467 495.119,-84.8159 461.781,-74.5724"/>
<polygon fill="#63b8ff" stroke="#63b8ff" points="462.6359,-71.1736 452.0489,-71.5821 460.5799,-77.8649 462.6359,-71.1736"/>
</g>
<!-- Node15 -->
<g id="node15" class="node">
<title>Node15</title>
<g id="a_node15"><a xlink:title=" ">
<polygon fill="#e0e0e0" stroke="#999999" points="758,-74 712,-74 712,-55 758,-55 758,-74"/>
<text text-anchor="middle" x="735" y="-62" font-family="Helvetica,sans-Serif" font-size="10.00" fill="#000000">cstring</text>
</a>
</g>
</g>
<!-- Node12&#45;&gt;Node15 -->
<g id="edge18" class="edge">
<title>Node12&#45;&gt;Node15</title>
<path fill="none" stroke="#63b8ff" d="M630.1217,-109.9197C650.3936,-101.1406 680.6308,-88.0457 703.4372,-78.1689"/>
<polygon fill="#63b8ff" stroke="#63b8ff" points="704.9202,-81.3409 712.7057,-74.155 702.1383,-74.9174 704.9202,-81.3409"/>
</g>
<!-- Node16 -->
<g id="node16" class="node">
<title>Node16</title>
<g id="a_node16"><a xlink:title=" ">
<polygon fill="#e0e0e0" stroke="#999999" points="819.5,-74 776.5,-74 776.5,-55 819.5,-55 819.5,-74"/>
<text text-anchor="middle" x="798" y="-62" font-family="Helvetica,sans-Serif" font-size="10.00" fill="#000000">cstdio</text>
</a>
</g>
</g>
<!-- Node12&#45;&gt;Node16 -->
<g id="edge19" class="edge">
<title>Node12&#45;&gt;Node16</title>
<path fill="none" stroke="#63b8ff" d="M637.6453,-111.1949C667.6808,-102.7415 715.7223,-89.1137 766.4897,-74.1121"/>
<polygon fill="#63b8ff" stroke="#63b8ff" points="767.7413,-77.3917 776.3353,-71.1955 765.753,-70.68 767.7413,-77.3917"/>
</g>
<!-- Node17 -->
<g id="node17" class="node">
<title>Node17</title>
<g id="a_node17"><a xlink:title=" ">
<polygon fill="#e0e0e0" stroke="#999999" points="882.5,-74 837.5,-74 837.5,-55 882.5,-55 882.5,-74"/>
<text text-anchor="middle" x="860" y="-62" font-family="Helvetica,sans-Serif" font-size="10.00" fill="#000000">cstdlib</text>
</a>
</g>
</g>
<!-- Node12&#45;&gt;Node17 -->
<g id="edge20" class="edge">
<title>Node12&#45;&gt;Node17</title>
<path fill="none" stroke="#63b8ff" d="M637.5154,-114.3393C678.2548,-107.0181 754.1758,-92.6648 827.5225,-74.2108"/>
<polygon fill="#63b8ff" stroke="#63b8ff" points="828.5554,-77.5596 837.3828,-71.7006 826.8284,-70.7759 828.5554,-77.5596"/>
</g>
<!-- Node18 -->
<g id="node18" class="node">
<title>Node18</title>
<g id="a_node18"><a xlink:title=" ">
<polygon fill="#e0e0e0" stroke="#999999" points="815,-19 769,-19 769,0 815,0 815,-19"/>
<text text-anchor="middle" x="792" y="-7" font-family="Helvetica,sans-Serif" font-size="10.00" fill="#000000">cstdint</text>
</a>
</g>
</g>
<!-- Node12&#45;&gt;Node18 -->
<g id="edge21" class="edge">
<title>Node12&#45;&gt;Node18</title>
<path fill="none" stroke="#63b8ff" d="M637.5768,-114.5251C646.3972,-113.0538 656.088,-111.4493 665,-110 715.4126,-101.8016 858.8334,-112.841 892,-74 914.9924,-47.0739 862.3786,-27.2917 825.087,-17.1563"/>
<polygon fill="#63b8ff" stroke="#63b8ff" points="825.609,-13.676 815.0507,-14.5555 823.853,-20.4522 825.609,-13.676"/>
</g>
<!-- Node19 -->
<g id="node19" class="node">
<title>Node19</title>
<g id="a_node19"><a xlink:title=" ">
<polygon fill="#e0e0e0" stroke="#999999" points="634,-74 582,-74 582,-55 634,-55 634,-74"/>
<text text-anchor="middle" x="608" y="-62" font-family="Helvetica,sans-Serif" font-size="10.00" fill="#000000">ostream</text>
</a>
</g>
</g>
<!-- Node12&#45;&gt;Node19 -->
<g id="edge22" class="edge">
<title>Node12&#45;&gt;Node19</title>
<path fill="none" stroke="#63b8ff" d="M608,-109.9197C608,-102.9083 608,-93.1442 608,-84.4652"/>
<polygon fill="#63b8ff" stroke="#63b8ff" points="611.5001,-84.3408 608,-74.3408 604.5001,-84.3409 611.5001,-84.3408"/>
</g>
<!-- Node20 -->
<g id="node20" class="node">
<title>Node20</title>
<g id="a_node20"><a xlink:href="../../db/d7c/utf8_8h.html" target="_top" xlink:title="Various UTF8 related helper functions.">
<polygon fill="#ffffff" stroke="#666666" points="693.5,-74 652.5,-74 652.5,-55 693.5,-55 693.5,-74"/>
<text text-anchor="middle" x="673" y="-62" font-family="Helvetica,sans-Serif" font-size="10.00" fill="#000000">utf8.h</text>
</a>
</g>
</g>
<!-- Node12&#45;&gt;Node20 -->
<g id="edge23" class="edge">
<title>Node12&#45;&gt;Node20</title>
<path fill="none" stroke="#63b8ff" d="M619.3221,-109.9197C628.7132,-101.9735 642.2827,-90.4916 653.4285,-81.0605"/>
<polygon fill="#63b8ff" stroke="#63b8ff" points="655.9969,-83.4721 661.3699,-74.3408 651.4752,-78.1284 655.9969,-83.4721"/>
</g>
<!-- Node20&#45;&gt;Node5 -->
<g id="edge25" class="edge">
<title>Node20&#45;&gt;Node5</title>
<path fill="none" stroke="#63b8ff" d="M652.3884,-57.8088C649.2517,-56.8382 646.046,-55.8731 643,-55 592.0029,-40.3828 532.1159,-25.4499 496.7064,-16.8492"/>
<polygon fill="#63b8ff" stroke="#63b8ff" points="497.0826,-13.3394 486.54,-14.3907 495.4372,-20.1432 497.0826,-13.3394"/>
</g>
<!-- Node20&#45;&gt;Node18 -->
<g id="edge24" class="edge">
<title>Node20&#45;&gt;Node18</title>
<path fill="none" stroke="#63b8ff" d="M693.7282,-54.9197C712.5535,-46.219 740.5505,-33.2792 761.8513,-23.4343"/>
<polygon fill="#63b8ff" stroke="#63b8ff" points="763.5011,-26.5276 771.11,-19.155 760.5643,-20.1734 763.5011,-26.5276"/>
</g>
<!-- Node21&#45;&gt;Node2 -->
<g id="edge27" class="edge">
<title>Node21&#45;&gt;Node2</title>
<path fill="none" stroke="#63b8ff" d="M488.5401,-219.919C510.1907,-206.7543 550.8482,-182.6941 587,-165 612.5555,-152.4921 642.4286,-140.1767 664.432,-131.5194"/>
<polygon fill="#63b8ff" stroke="#63b8ff" points="665.8981,-134.7045 673.9441,-127.8116 663.3558,-128.1825 665.8981,-134.7045"/>
</g>
<!-- Node21&#45;&gt;Node8 -->
<g id="edge28" class="edge">
<title>Node21&#45;&gt;Node8</title>
<path fill="none" stroke="#63b8ff" d="M448.127,-220.2795C425.5616,-211.6645 391.5554,-198.0538 363,-184 331.8202,-168.6546 297.3746,-148.2694 275.0265,-134.5589"/>
<polygon fill="#63b8ff" stroke="#63b8ff" points="276.581,-131.4051 266.2342,-129.1257 272.9012,-137.3599 276.581,-131.4051"/>
</g>
<!-- Node21&#45;&gt;Node12 -->
<g id="edge30" class="edge">
<title>Node21&#45;&gt;Node12</title>
<path fill="none" stroke="#63b8ff" d="M477.5318,-219.5898C484.2464,-205.8202 498.0065,-180.8147 516,-165 531.697,-151.2037 552.3207,-140.4987 570.0624,-132.9482"/>
<polygon fill="#63b8ff" stroke="#63b8ff" points="571.6294,-136.0893 579.5729,-129.0784 568.9911,-129.6055 571.6294,-136.0893"/>
</g>
<!-- Node22 -->
<g id="node22" class="node">
<title>Node22</title>
<g id="a_node22"><a xlink:title=" ">
<polygon fill="#e0e0e0" stroke="#999999" points="363,-129 311,-129 311,-110 363,-110 363,-129"/>
<text text-anchor="middle" x="337" y="-117" font-family="Helvetica,sans-Serif" font-size="10.00" fill="#000000">memory</text>
</a>
</g>
</g>
<!-- Node21&#45;&gt;Node22 -->
<g id="edge29" class="edge">
<title>Node21&#45;&gt;Node22</title>
<path fill="none" stroke="#63b8ff" d="M448.4348,-220.3611C429.7153,-212.5972 404.008,-200.1442 385,-184 369.6134,-170.9316 356.2922,-152.0432 347.6136,-138.0816"/>
<polygon fill="#63b8ff" stroke="#63b8ff" points="350.5175,-136.1182 342.3786,-129.3351 344.5111,-139.7132 350.5175,-136.1182"/>
</g>
<!-- Node23 -->
<g id="node23" class="node">
<title>Node23</title>
<g id="a_node23"><a xlink:href="../../da/de1/linkedmap_8h.html" target="_top" xlink:title=" ">
<polygon fill="#ffffff" stroke="#666666" points="463.5,-184 394.5,-184 394.5,-165 463.5,-165 463.5,-184"/>
<text text-anchor="middle" x="429" y="-172" font-family="Helvetica,sans-Serif" font-size="10.00" fill="#000000">linkedmap.h</text>
</a>
</g>
</g>
<!-- Node21&#45;&gt;Node23 -->
<g id="edge31" class="edge">
<title>Node21&#45;&gt;Node23</title>
<path fill="none" stroke="#63b8ff" d="M465.3358,-219.9197C459.2281,-212.2851 450.5093,-201.3867 443.1433,-192.1792"/>
<polygon fill="#63b8ff" stroke="#63b8ff" points="445.8527,-189.9631 436.8727,-184.3408 440.3866,-194.336 445.8527,-189.9631"/>
</g>
<!-- Node23&#45;&gt;Node2 -->
<g id="edge33" class="edge">
<title>Node23&#45;&gt;Node2</title>
<path fill="none" stroke="#63b8ff" d="M463.6319,-167.3661C515.6656,-156.6475 613.2887,-136.5379 663.8362,-126.1255"/>
<polygon fill="#63b8ff" stroke="#63b8ff" points="664.7864,-129.5033 673.8746,-124.0577 663.3741,-122.6473 664.7864,-129.5033"/>
</g>
<!-- Node23&#45;&gt;Node5 -->
<g id="edge35" class="edge">
<title>Node23&#45;&gt;Node5</title>
<path fill="none" stroke="#63b8ff" d="M421.9337,-164.9622C407.3135,-143.9675 376.7379,-92.6321 397,-55 405.3146,-39.5576 421.4186,-28.4891 435.9786,-21.138"/>
<polygon fill="#63b8ff" stroke="#63b8ff" points="437.6359,-24.2273 445.2262,-16.8355 434.683,-17.8805 437.6359,-24.2273"/>
</g>
<!-- Node23&#45;&gt;Node8 -->
<g id="edge32" class="edge">
<title>Node23&#45;&gt;Node8</title>
<path fill="none" stroke="#63b8ff" d="M397.9948,-164.9197C368.4772,-155.7991 323.8849,-142.0206 291.5569,-132.0316"/>
<polygon fill="#63b8ff" stroke="#63b8ff" points="292.5356,-128.6708 281.948,-129.0626 290.4691,-135.3588 292.5356,-128.6708"/>
</g>
<!-- Node23&#45;&gt;Node12 -->
<g id="edge38" class="edge">
<title>Node23&#45;&gt;Node12</title>
<path fill="none" stroke="#63b8ff" d="M460.1794,-164.9197C490.3167,-155.6597 536.0805,-141.5982 568.6978,-131.5761"/>
<polygon fill="#63b8ff" stroke="#63b8ff" points="569.8356,-134.8881 578.3665,-128.6053 567.7795,-128.1968 569.8356,-134.8881"/>
</g>
<!-- Node23&#45;&gt;Node13 -->
<g id="edge36" class="edge">
<title>Node23&#45;&gt;Node13</title>
<path fill="none" stroke="#63b8ff" d="M435.1233,-164.7382C446.6606,-146.3454 471.7826,-106.2959 486.5414,-82.7673"/>
<polygon fill="#63b8ff" stroke="#63b8ff" points="489.64,-84.414 491.989,-74.0828 483.7101,-80.6943 489.64,-84.414"/>
</g>
<!-- Node23&#45;&gt;Node14 -->
<g id="edge37" class="edge">
<title>Node23&#45;&gt;Node14</title>
<path fill="none" stroke="#63b8ff" d="M429,-164.7382C429,-146.7541 429,-108.0652 429,-84.3599"/>
<polygon fill="#63b8ff" stroke="#63b8ff" points="432.5001,-84.0828 429,-74.0828 425.5001,-84.0829 432.5001,-84.0828"/>
</g>
<!-- Node23&#45;&gt;Node22 -->
<g id="edge34" class="edge">
<title>Node23&#45;&gt;Node22</title>
<path fill="none" stroke="#63b8ff" d="M412.9748,-164.9197C398.9453,-156.5325 378.3269,-144.2063 362.1081,-134.5103"/>
<polygon fill="#63b8ff" stroke="#63b8ff" points="363.5293,-131.2822 353.1502,-129.155 359.9374,-137.2904 363.5293,-131.2822"/>
</g>
<!-- Node24&#45;&gt;Node2 -->
<g id="edge40" class="edge">
<title>Node24&#45;&gt;Node2</title>
<path fill="none" stroke="#63b8ff" d="M643.1479,-164.9197C652.3945,-156.9735 665.7553,-145.4916 676.7296,-136.0605"/>
<polygon fill="#63b8ff" stroke="#63b8ff" points="679.2458,-138.513 684.5489,-129.3408 674.6834,-133.2041 679.2458,-138.513"/>
</g>
<!-- Node24&#45;&gt;Node12 -->
<g id="edge41" class="edge">
<title>Node24&#45;&gt;Node12</title>
<path fill="none" stroke="#63b8ff" d="M627.8195,-164.9197C624.658,-157.6746 620.2139,-147.4903 616.335,-138.601"/>
<polygon fill="#63b8ff" stroke="#63b8ff" points="619.5016,-137.1064 612.2942,-129.3408 613.0858,-139.9061 619.5016,-137.1064"/>
</g>
<!-- Node25&#45;&gt;Node2 -->
<g id="edge43" class="edge">
<title>Node25&#45;&gt;Node2</title>
<path fill="none" stroke="#63b8ff" d="M510.5108,-274.8874C570.821,-257.7197 688.813,-220.1862 710,-184 718.12,-170.1315 713.1409,-152.0996 706.9783,-138.6287"/>
<polygon fill="#63b8ff" stroke="#63b8ff" points="709.9057,-136.6665 702.2324,-129.361 703.6752,-139.8571 709.9057,-136.6665"/>
</g>
<!-- Node25&#45;&gt;Node6 -->
<g id="edge44" class="edge">
<title>Node25&#45;&gt;Node6</title>
<path fill="none" stroke="#63b8ff" d="M444.169,-274.9197C410.5644,-264.4776 357.3114,-247.9301 325.2066,-237.954"/>
<polygon fill="#63b8ff" stroke="#63b8ff" points="326.166,-234.5871 315.5778,-234.962 324.0888,-241.2718 326.166,-234.5871"/>
</g>
<!-- Node25&#45;&gt;Node11 -->
<g id="edge46" class="edge">
<title>Node25&#45;&gt;Node11</title>
<path fill="none" stroke="#63b8ff" d="M493.1154,-274.9197C509.3455,-266.3365 533.3759,-253.6281 551.8937,-243.8351"/>
<polygon fill="#63b8ff" stroke="#63b8ff" points="553.5395,-246.924 560.7432,-239.155 550.267,-240.7361 553.5395,-246.924"/>
</g>
<!-- Node25&#45;&gt;Node21 -->
<g id="edge47" class="edge">
<title>Node25&#45;&gt;Node21</title>
<path fill="none" stroke="#63b8ff" d="M474.6516,-274.9197C474.3967,-267.9083 474.0416,-258.1442 473.726,-249.4652"/>
<polygon fill="#63b8ff" stroke="#63b8ff" points="477.219,-249.207 473.3578,-239.3408 470.2237,-249.4614 477.219,-249.207"/>
</g>
<!-- Node25&#45;&gt;Node22 -->
<g id="edge45" class="edge">
<title>Node25&#45;&gt;Node22</title>
<path fill="none" stroke="#63b8ff" d="M460.7132,-274.9923C437.3762,-258.8145 390.8896,-223.792 363,-184 353.3766,-170.2696 346.5428,-152.4548 342.304,-139.0276"/>
<polygon fill="#63b8ff" stroke="#63b8ff" points="345.6399,-137.9656 339.4572,-129.3618 338.9251,-139.9433 345.6399,-137.9656"/>
</g>
</g>
</svg>
        <g id="navigator" transform="translate(0 0)" fill="#404254">
                <rect fill="#f2f5e9" fill-opacity="0.5" stroke="#606060" stroke-width=".5" x="0" y="0" width="60" height="60"/>
                <use id="zoomplus" xlink:href="#zoomPlus" x="17" y="9" onmousedown="handleZoom(evt,'in')"/>
                <use id="zoomminus" xlink:href="#zoomMin" x="42" y="9" onmousedown="handleZoom(evt,'out')"/>
                <use id="reset" xlink:href="#resetDef" x="30" y="36" onmousedown="handleReset()"/>
                <g id="arrowUp" xlink:href="#dirArrow" transform="translate(30 24)" onmousedown="handlePan(0,-1)">
                  <use xlink:href="#rim" fill="#404040">
                        <set attributeName="fill" to="#808080" begin="arrowUp.mouseover" end="arrowUp.mouseout"/>
                  </use>
                  <path fill="none" stroke="white" stroke-width="1.5" d="M0,-3.0v7 M-2.5,-0.5L0,-3.0L2.5,-0.5"/>
                </g>
                <g id="arrowRight" xlink:href="#dirArrow" transform="rotate(90) translate(36 -43)" onmousedown="handlePan(1,0)">
                  <use xlink:href="#rim" fill="#404040">
                        <set attributeName="fill" to="#808080" begin="arrowRight.mouseover" end="arrowRight.mouseout"/>
                  </use>
                  <path fill="none" stroke="white" stroke-width="1.5" d="M0,-3.0v7 M-2.5,-0.5L0,-3.0L2.5,-0.5"/>
                </g>
                <g id="arrowDown" xlink:href="#dirArrow" transform="rotate(180) translate(-30 -48)" onmousedown="handlePan(0,1)">
                  <use xlink:href="#rim" fill="#404040">
                        <set attributeName="fill" to="#808080" begin="arrowDown.mouseover" end="arrowDown.mouseout"/>
                  </use>
                  <path fill="none" stroke="white" stroke-width="1.5" d="M0,-3.0v7 M-2.5,-0.5L0,-3.0L2.5,-0.5"/>
                </g>
                <g id="arrowLeft" xlink:href="#dirArrow" transform="rotate(270) translate(-36 17)" onmousedown="handlePan(-1,0)">
                  <use xlink:href="#rim" fill="#404040">
                        <set attributeName="fill" to="#808080" begin="arrowLeft.mouseover" end="arrowLeft.mouseout"/>
                  </use>
                  <path fill="none" stroke="white" stroke-width="1.5" d="M0,-3.0v7 M-2.5,-0.5L0,-3.0L2.5,-0.5"/>
                </g>
        </g>
        <svg viewBox="0 0 15 15" width="100%" height="30px" preserveAspectRatio="xMaxYMin meet">
         <g id="arrow_out" transform="scale(0.3 0.3)">
          <a xlink:href="classdef_8h__incl_org.svg" target="_base">
           <rect id="button" ry="5" rx="5" y="6" x="6" height="38" width="38"
                fill="#f2f5e9" fill-opacity="0.5" stroke="#606060" stroke-width="1.0"/>
           <path id="arrow"
             d="M 11.500037,31.436501 C 11.940474,20.09759 22.043105,11.32322 32.158766,21.979434 L 37.068811,17.246167 C 37.068811,17.246167 37.088388,32 37.088388,32 L 22.160133,31.978069 C 22.160133,31.978069 26.997745,27.140456 26.997745,27.140456 C 18.528582,18.264221 13.291696,25.230495 11.500037,31.436501 z"
             style="fill:#404040;"/>
          </a>
         </g>
        </svg>
</svg>
