<?xml version="1.0" encoding="UTF-8" standalone="no"?>
<!DOCTYPE svg PUBLIC "-//W3C//DTD SVG 1.1//EN"
 "http://www.w3.org/Graphics/SVG/1.1/DTD/svg11.dtd">
<!-- Generated by graphviz version 2.43.0 (0)
 -->
<!-- Title: src/debug.h Pages: 1 -->
<!--zoomable 82 -->
<svg id="main" version="1.1" xmlns="http://www.w3.org/2000/svg" xmlns:xlink="http://www.w3.org/1999/xlink" xml:space="preserve" onload="init(evt)">
<style type="text/css"><![CDATA[
.edge:hover path { stroke: red; }
.edge:hover polygon { stroke: red; fill: red; }
]]></style>
<script type="text/javascript"><![CDATA[
var edges = document.getElementsByTagName('g');
if (edges && edges.length) {
  for (var i=0;i<edges.length;i++) {
    if (edges[i].id.substr(0,4)=='edge') {
      edges[i].setAttribute('class','edge');
    }
  }
}
]]></script>
        <defs>
                <circle id="rim" cx="0" cy="0" r="7"/>
                <circle id="rim2" cx="0" cy="0" r="3.5"/>
                <g id="zoomPlus">
                        <use xlink:href="#rim" fill="#404040">
                                <set attributeName="fill" to="#808080" begin="zoomplus.mouseover" end="zoomplus.mouseout"/>
                        </use>
                        <path d="M-4,0h8M0,-4v8" fill="none" stroke="white" stroke-width="1.5" pointer-events="none"/>
                </g>
                <g id="zoomMin">
                        <use xlink:href="#rim" fill="#404040">
                                <set attributeName="fill" to="#808080" begin="zoomminus.mouseover" end="zoomminus.mouseout"/>
                        </use>
                        <path d="M-4,0h8" fill="none" stroke="white" stroke-width="1.5" pointer-events="none"/>
                </g>
                <g id="dirArrow">
                        <path fill="none" stroke="white" stroke-width="1.5" d="M0,-3.0v7 M-2.5,-0.5L0,-3.0L2.5,-0.5"/>
                </g>
               <g id="resetDef">
                       <use xlink:href="#rim2" fill="#404040">
                               <set attributeName="fill" to="#808080" begin="reset.mouseover" end="reset.mouseout"/>
                       </use>
               </g>
        </defs>

<script type="text/javascript">
var viewWidth = 2285;
var viewHeight = 82;
var sectionId = 'dynsection-0';
</script>
<script xlink:href="../../svgpan.js"/>
<svg id="graph" class="graph">
<g id="viewport">
<title>src/debug.h</title>
<!-- Node1 -->
<g id="node1" class="node">
<title>Node1</title>
<g id="a_node1"><a xlink:title=" ">
<polygon fill="#999999" stroke="#666666" points="1219.5,-74 1146.5,-74 1146.5,-55 1219.5,-55 1219.5,-74"/>
<text text-anchor="middle" x="1183" y="-62" font-family="Helvetica,sans-Serif" font-size="10.00">src/debug.h</text>
</a>
</g>
</g>
<!-- Node2 -->
<g id="node2" class="node">
<title>Node2</title>
<g id="a_node2"><a xlink:href="../../d5/d0b/cite_8cpp.html" target="_top" xlink:title=" ">
<polygon fill="white" stroke="#666666" points="72,-19 0,-19 0,0 72,0 72,-19"/>
<text text-anchor="middle" x="36" y="-7" font-family="Helvetica,sans-Serif" font-size="10.00">src/cite.cpp</text>
</a>
</g>
</g>
<!-- Node1&#45;&gt;Node2 -->
<g id="edge1" class="edge">
<title>Node1&#45;&gt;Node2</title>
<path fill="none" stroke="#63b8ff" d="M1135.82,-64.05C982.91,-65.33 487.4,-65.34 81,-19 78.16,-18.68 75.22,-18.27 72.28,-17.82"/>
<polygon fill="#63b8ff" stroke="#63b8ff" points="1136.26,-67.55 1146.23,-63.96 1136.2,-60.55 1136.26,-67.55"/>
</g>
<!-- Node3 -->
<g id="node3" class="node">
<title>Node3</title>
<g id="a_node3"><a xlink:href="../../de/d89/classdef_8cpp.html" target="_top" xlink:title=" ">
<polygon fill="white" stroke="#666666" points="184,-19 90,-19 90,0 184,0 184,-19"/>
<text text-anchor="middle" x="137" y="-7" font-family="Helvetica,sans-Serif" font-size="10.00">src/classdef.cpp</text>
</a>
</g>
</g>
<!-- Node1&#45;&gt;Node3 -->
<g id="edge2" class="edge">
<title>Node1&#45;&gt;Node3</title>
<path fill="none" stroke="#63b8ff" d="M1136.4,-63.15C994.46,-61.72 555.07,-54.52 193,-19 190.06,-18.71 187.05,-18.37 184.01,-18"/>
<polygon fill="#63b8ff" stroke="#63b8ff" points="1136.46,-66.65 1146.49,-63.25 1136.53,-59.65 1136.46,-66.65"/>
</g>
<!-- Node4 -->
<g id="node4" class="node">
<title>Node4</title>
<g id="a_node4"><a xlink:href="../../d0/d47/commentcnv_8l.html" target="_top" xlink:title=" ">
<polygon fill="white" stroke="#666666" points="305.5,-19 202.5,-19 202.5,0 305.5,0 305.5,-19"/>
<text text-anchor="middle" x="254" y="-7" font-family="Helvetica,sans-Serif" font-size="10.00">src/commentcnv.l</text>
</a>
</g>
</g>
<!-- Node1&#45;&gt;Node4 -->
<g id="edge3" class="edge">
<title>Node1&#45;&gt;Node4</title>
<path fill="none" stroke="#63b8ff" d="M1136.46,-62.58C1006.27,-59.7 627.31,-49.15 314,-19 311.28,-18.74 308.49,-18.44 305.68,-18.12"/>
<polygon fill="#63b8ff" stroke="#63b8ff" points="1136.41,-66.08 1146.49,-62.8 1136.57,-59.08 1136.41,-66.08"/>
</g>
<!-- Node5 -->
<g id="node5" class="node">
<title>Node5</title>
<g id="a_node5"><a xlink:href="../../d7/d5f/commentscan_8l.html" target="_top" xlink:title=" ">
<polygon fill="white" stroke="#666666" points="432.5,-19 323.5,-19 323.5,0 432.5,0 432.5,-19"/>
<text text-anchor="middle" x="378" y="-7" font-family="Helvetica,sans-Serif" font-size="10.00">src/commentscan.l</text>
</a>
</g>
</g>
<!-- Node1&#45;&gt;Node5 -->
<g id="edge4" class="edge">
<title>Node1&#45;&gt;Node5</title>
<path fill="none" stroke="#63b8ff" d="M1136.25,-61.86C1019.14,-57.51 703.82,-44.21 442,-19 438.99,-18.71 435.9,-18.39 432.78,-18.04"/>
<polygon fill="#63b8ff" stroke="#63b8ff" points="1136.18,-65.36 1146.3,-62.23 1136.44,-58.37 1136.18,-65.36"/>
</g>
<!-- Node6 -->
<g id="node6" class="node">
<title>Node6</title>
<g id="a_node6"><a xlink:href="../../d1/d00/debug_8cpp.html" target="_top" xlink:title=" ">
<polygon fill="white" stroke="#666666" points="535,-19 451,-19 451,0 535,0 535,-19"/>
<text text-anchor="middle" x="493" y="-7" font-family="Helvetica,sans-Serif" font-size="10.00">src/debug.cpp</text>
</a>
</g>
</g>
<!-- Node1&#45;&gt;Node6 -->
<g id="edge5" class="edge">
<title>Node1&#45;&gt;Node6</title>
<path fill="none" stroke="#63b8ff" d="M1136.11,-61.77C1030.24,-57.53 764.71,-45.02 544,-19 541.15,-18.66 538.21,-18.28 535.26,-17.86"/>
<polygon fill="#63b8ff" stroke="#63b8ff" points="1136.02,-65.27 1146.15,-62.17 1136.29,-58.28 1136.02,-65.27"/>
</g>
<!-- Node7 -->
<g id="node7" class="node">
<title>Node7</title>
<g id="a_node7"><a xlink:href="../../d3/dea/definition_8cpp.html" target="_top" xlink:title=" ">
<polygon fill="white" stroke="#666666" points="653,-19 553,-19 553,0 653,0 653,-19"/>
<text text-anchor="middle" x="603" y="-7" font-family="Helvetica,sans-Serif" font-size="10.00">src/definition.cpp</text>
</a>
</g>
</g>
<!-- Node1&#45;&gt;Node7 -->
<g id="edge6" class="edge">
<title>Node1&#45;&gt;Node7</title>
<path fill="none" stroke="#63b8ff" d="M1136.27,-60.42C1044.96,-54.2 836.55,-39.01 662,-19 659.12,-18.67 656.17,-18.31 653.19,-17.93"/>
<polygon fill="#63b8ff" stroke="#63b8ff" points="1136.08,-63.91 1146.29,-61.1 1136.55,-56.93 1136.08,-63.91"/>
</g>
<!-- Node8 -->
<g id="node8" class="node">
<title>Node8</title>
<g id="a_node8"><a xlink:href="../../da/d17/docparser_8cpp.html" target="_top" xlink:title=" ">
<polygon fill="white" stroke="#666666" points="772.5,-19 671.5,-19 671.5,0 772.5,0 772.5,-19"/>
<text text-anchor="middle" x="722" y="-7" font-family="Helvetica,sans-Serif" font-size="10.00">src/docparser.cpp</text>
</a>
</g>
</g>
<!-- Node1&#45;&gt;Node8 -->
<g id="edge7" class="edge">
<title>Node1&#45;&gt;Node8</title>
<path fill="none" stroke="#63b8ff" d="M1136.43,-58.79C1061.63,-51.13 910.1,-35.18 782,-19 778.97,-18.62 775.86,-18.21 772.72,-17.8"/>
<polygon fill="#63b8ff" stroke="#63b8ff" points="1136.16,-62.28 1146.46,-59.82 1136.87,-55.32 1136.16,-62.28"/>
</g>
<!-- Node9 -->
<g id="node9" class="node">
<title>Node9</title>
<g id="a_node9"><a xlink:href="../../dc/d98/doxygen_8cpp.html" target="_top" xlink:title=" ">
<polygon fill="white" stroke="#666666" points="887,-19 791,-19 791,0 887,0 887,-19"/>
<text text-anchor="middle" x="839" y="-7" font-family="Helvetica,sans-Serif" font-size="10.00">src/doxygen.cpp</text>
</a>
</g>
</g>
<!-- Node1&#45;&gt;Node9 -->
<g id="edge8" class="edge">
<title>Node1&#45;&gt;Node9</title>
<path fill="none" stroke="#63b8ff" d="M1136.17,-56.29C1070.86,-46.22 953.04,-28.07 887.07,-17.91"/>
<polygon fill="#63b8ff" stroke="#63b8ff" points="1135.77,-59.76 1146.19,-57.83 1136.84,-52.85 1135.77,-59.76"/>
</g>
<!-- Node10 -->
<g id="node10" class="node">
<title>Node10</title>
<g id="a_node10"><a xlink:href="../../d6/ddc/filedef_8cpp.html" target="_top" xlink:title=" ">
<polygon fill="white" stroke="#666666" points="989,-19 905,-19 905,0 989,0 989,-19"/>
<text text-anchor="middle" x="947" y="-7" font-family="Helvetica,sans-Serif" font-size="10.00">src/filedef.cpp</text>
</a>
</g>
</g>
<!-- Node1&#45;&gt;Node10 -->
<g id="edge9" class="edge">
<title>Node1&#45;&gt;Node10</title>
<path fill="none" stroke="#63b8ff" d="M1136.43,-53.04C1092.07,-43.08 1026.1,-28.27 984.88,-19.01"/>
<polygon fill="#63b8ff" stroke="#63b8ff" points="1135.86,-56.5 1146.38,-55.28 1137.39,-49.67 1135.86,-56.5"/>
</g>
<!-- Node11 -->
<g id="node11" class="node">
<title>Node11</title>
<g id="a_node11"><a xlink:href="../../dd/d00/fortranscanner_8l.html" target="_top" xlink:title=" ">
<polygon fill="white" stroke="#666666" points="1117,-19 1007,-19 1007,0 1117,0 1117,-19"/>
<text text-anchor="middle" x="1062" y="-7" font-family="Helvetica,sans-Serif" font-size="10.00">src/fortranscanner.l</text>
</a>
</g>
</g>
<!-- Node1&#45;&gt;Node11 -->
<g id="edge10" class="edge">
<title>Node1&#45;&gt;Node11</title>
<path fill="none" stroke="#63b8ff" d="M1154.23,-50.9C1131.88,-41.11 1101.48,-27.79 1081.79,-19.17"/>
<polygon fill="#63b8ff" stroke="#63b8ff" points="1153,-54.18 1163.56,-54.98 1155.8,-47.77 1153,-54.18"/>
</g>
<!-- Node12 -->
<g id="node12" class="node">
<title>Node12</title>
<g id="a_node12"><a xlink:href="../../d8/d6e/htmlgen_8cpp.html" target="_top" xlink:title=" ">
<polygon fill="white" stroke="#666666" points="1230.5,-19 1135.5,-19 1135.5,0 1230.5,0 1230.5,-19"/>
<text text-anchor="middle" x="1183" y="-7" font-family="Helvetica,sans-Serif" font-size="10.00">src/htmlgen.cpp</text>
</a>
</g>
</g>
<!-- Node1&#45;&gt;Node12 -->
<g id="edge11" class="edge">
<title>Node1&#45;&gt;Node12</title>
<path fill="none" stroke="#63b8ff" d="M1183,-44.66C1183,-35.93 1183,-25.99 1183,-19.09"/>
<polygon fill="#63b8ff" stroke="#63b8ff" points="1179.5,-44.75 1183,-54.75 1186.5,-44.75 1179.5,-44.75"/>
</g>
<!-- Node13 -->
<g id="node13" class="node">
<title>Node13</title>
<g id="a_node13"><a xlink:href="../../db/d16/layout_8cpp.html" target="_top" xlink:title=" ">
<polygon fill="white" stroke="#666666" points="1333.5,-19 1248.5,-19 1248.5,0 1333.5,0 1333.5,-19"/>
<text text-anchor="middle" x="1291" y="-7" font-family="Helvetica,sans-Serif" font-size="10.00">src/layout.cpp</text>
</a>
</g>
</g>
<!-- Node1&#45;&gt;Node13 -->
<g id="edge12" class="edge">
<title>Node1&#45;&gt;Node13</title>
<path fill="none" stroke="#63b8ff" d="M1209.49,-50.5C1229.36,-40.75 1256,-27.68 1273.33,-19.17"/>
<polygon fill="#63b8ff" stroke="#63b8ff" points="1207.79,-47.44 1200.35,-54.98 1210.87,-53.72 1207.79,-47.44"/>
</g>
<!-- Node14 -->
<g id="node14" class="node">
<title>Node14</title>
<g id="a_node14"><a xlink:href="../../de/d04/markdown_8cpp.html" target="_top" xlink:title=" ">
<polygon fill="white" stroke="#666666" points="1458,-19 1352,-19 1352,0 1458,0 1458,-19"/>
<text text-anchor="middle" x="1405" y="-7" font-family="Helvetica,sans-Serif" font-size="10.00">src/markdown.cpp</text>
</a>
</g>
</g>
<!-- Node1&#45;&gt;Node14 -->
<g id="edge13" class="edge">
<title>Node1&#45;&gt;Node14</title>
<path fill="none" stroke="#63b8ff" d="M1228.54,-52.63C1270.13,-42.7 1330.78,-28.22 1369.05,-19.08"/>
<polygon fill="#63b8ff" stroke="#63b8ff" points="1227.58,-49.26 1218.67,-54.98 1229.21,-56.07 1227.58,-49.26"/>
</g>
<!-- Node15 -->
<g id="node15" class="node">
<title>Node15</title>
<g id="a_node15"><a xlink:href="../../d8/d6a/message_8cpp.html" target="_top" xlink:title=" ">
<polygon fill="white" stroke="#666666" points="1574,-19 1476,-19 1476,0 1574,0 1574,-19"/>
<text text-anchor="middle" x="1525" y="-7" font-family="Helvetica,sans-Serif" font-size="10.00">src/message.cpp</text>
</a>
</g>
</g>
<!-- Node1&#45;&gt;Node15 -->
<g id="edge14" class="edge">
<title>Node1&#45;&gt;Node15</title>
<path fill="none" stroke="#63b8ff" d="M1229.48,-56.3C1293.93,-46.31 1409.89,-28.34 1475.77,-18.13"/>
<polygon fill="#63b8ff" stroke="#63b8ff" points="1228.95,-52.84 1219.6,-57.83 1230.02,-59.76 1228.95,-52.84"/>
</g>
<!-- Node16 -->
<g id="node16" class="node">
<title>Node16</title>
<g id="a_node16"><a xlink:href="../../d7/d5b/plantuml_8cpp.html" target="_top" xlink:title=" ">
<polygon fill="white" stroke="#666666" points="1690,-19 1592,-19 1592,0 1690,0 1690,-19"/>
<text text-anchor="middle" x="1641" y="-7" font-family="Helvetica,sans-Serif" font-size="10.00">src/plantuml.cpp</text>
</a>
</g>
</g>
<!-- Node1&#45;&gt;Node16 -->
<g id="edge15" class="edge">
<title>Node1&#45;&gt;Node16</title>
<path fill="none" stroke="#63b8ff" d="M1229.75,-58.83C1304.48,-51.25 1455.42,-35.44 1583,-19 1585.93,-18.62 1588.94,-18.22 1591.97,-17.81"/>
<polygon fill="#63b8ff" stroke="#63b8ff" points="1229.32,-55.36 1219.72,-59.85 1230.03,-62.32 1229.32,-55.36"/>
</g>
<!-- Node17 -->
<g id="node17" class="node">
<title>Node17</title>
<g id="a_node17"><a xlink:href="../../d0/d1c/portable_8cpp.html" target="_top" xlink:title=" ">
<polygon fill="white" stroke="#666666" points="1803.5,-19 1708.5,-19 1708.5,0 1803.5,0 1803.5,-19"/>
<text text-anchor="middle" x="1756" y="-7" font-family="Helvetica,sans-Serif" font-size="10.00">src/portable.cpp</text>
</a>
</g>
</g>
<!-- Node1&#45;&gt;Node17 -->
<g id="edge16" class="edge">
<title>Node1&#45;&gt;Node17</title>
<path fill="none" stroke="#63b8ff" d="M1229.91,-60.43C1320.67,-54.28 1526.56,-39.27 1699,-19 1702.08,-18.64 1705.25,-18.24 1708.44,-17.82"/>
<polygon fill="#63b8ff" stroke="#63b8ff" points="1229.42,-56.96 1219.68,-61.12 1229.89,-63.94 1229.42,-56.96"/>
</g>
<!-- Node18 -->
<g id="node18" class="node">
<title>Node18</title>
<g id="a_node18"><a xlink:href="../../d0/da7/pre_8l.html" target="_top" xlink:title=" ">
<polygon fill="white" stroke="#666666" points="1878,-19 1822,-19 1822,0 1878,0 1878,-19"/>
<text text-anchor="middle" x="1850" y="-7" font-family="Helvetica,sans-Serif" font-size="10.00">src/pre.l</text>
</a>
</g>
</g>
<!-- Node1&#45;&gt;Node18 -->
<g id="edge17" class="edge">
<title>Node1&#45;&gt;Node18</title>
<path fill="none" stroke="#63b8ff" d="M1230.06,-62.67C1335.16,-60.27 1596.76,-51.28 1813,-19 1815.87,-18.57 1818.84,-18.04 1821.8,-17.45"/>
<polygon fill="#63b8ff" stroke="#63b8ff" points="1229.71,-59.18 1219.79,-62.89 1229.86,-66.17 1229.71,-59.18"/>
</g>
<!-- Node19 -->
<g id="node19" class="node">
<title>Node19</title>
<g id="a_node19"><a xlink:href="../../d9/d45/qhp_8cpp.html" target="_top" xlink:title=" ">
<polygon fill="white" stroke="#666666" points="1968,-19 1896,-19 1896,0 1968,0 1968,-19"/>
<text text-anchor="middle" x="1932" y="-7" font-family="Helvetica,sans-Serif" font-size="10.00">src/qhp.cpp</text>
</a>
</g>
</g>
<!-- Node1&#45;&gt;Node19 -->
<g id="edge18" class="edge">
<title>Node1&#45;&gt;Node19</title>
<path fill="none" stroke="#63b8ff" d="M1229.86,-62.54C1343.15,-59.77 1640.73,-49.92 1887,-19 1889.84,-18.64 1892.77,-18.22 1895.71,-17.75"/>
<polygon fill="#63b8ff" stroke="#63b8ff" points="1229.71,-59.04 1219.79,-62.78 1229.87,-66.04 1229.71,-59.04"/>
</g>
<!-- Node20 -->
<g id="node20" class="node">
<title>Node20</title>
<g id="a_node20"><a xlink:href="../../d0/d9c/rtfgen_8cpp.html" target="_top" xlink:title=" ">
<polygon fill="white" stroke="#666666" points="2069.5,-19 1986.5,-19 1986.5,0 2069.5,0 2069.5,-19"/>
<text text-anchor="middle" x="2028" y="-7" font-family="Helvetica,sans-Serif" font-size="10.00">src/rtfgen.cpp</text>
</a>
</g>
</g>
<!-- Node1&#45;&gt;Node20 -->
<g id="edge19" class="edge">
<title>Node1&#45;&gt;Node20</title>
<path fill="none" stroke="#63b8ff" d="M1229.69,-62.66C1352.46,-60.07 1694.33,-50.38 1977,-19 1980.03,-18.66 1983.16,-18.27 1986.3,-17.83"/>
<polygon fill="#63b8ff" stroke="#63b8ff" points="1229.45,-59.17 1219.52,-62.87 1229.59,-66.16 1229.45,-59.17"/>
</g>
<!-- Node21 -->
<g id="node21" class="node">
<title>Node21</title>
<g id="a_node21"><a xlink:href="../../d4/d7b/tagreader_8cpp.html" target="_top" xlink:title=" ">
<polygon fill="white" stroke="#666666" points="2188.5,-19 2087.5,-19 2087.5,0 2188.5,0 2188.5,-19"/>
<text text-anchor="middle" x="2138" y="-7" font-family="Helvetica,sans-Serif" font-size="10.00">src/tagreader.cpp</text>
</a>
</g>
</g>
<!-- Node1&#45;&gt;Node21 -->
<g id="edge20" class="edge">
<title>Node1&#45;&gt;Node21</title>
<path fill="none" stroke="#63b8ff" d="M1230.05,-62.71C1363.41,-60.14 1755.24,-50.29 2079,-19 2081.68,-18.74 2084.42,-18.45 2087.19,-18.13"/>
<polygon fill="#63b8ff" stroke="#63b8ff" points="1229.72,-59.22 1219.79,-62.9 1229.85,-66.22 1229.72,-59.22"/>
</g>
<!-- Node22 -->
<g id="node22" class="node">
<title>Node22</title>
<g id="a_node22"><a xlink:href="../../df/d2d/util_8cpp.html" target="_top" xlink:title=" ">
<polygon fill="white" stroke="#666666" points="2277,-19 2207,-19 2207,0 2277,0 2277,-19"/>
<text text-anchor="middle" x="2242" y="-7" font-family="Helvetica,sans-Serif" font-size="10.00">src/util.cpp</text>
</a>
</g>
</g>
<!-- Node1&#45;&gt;Node22 -->
<g id="edge21" class="edge">
<title>Node1&#45;&gt;Node22</title>
<path fill="none" stroke="#63b8ff" d="M1229.84,-63.89C1374.5,-64.56 1826.73,-62.76 2198,-19 2200.78,-18.67 2203.65,-18.27 2206.53,-17.82"/>
<polygon fill="#63b8ff" stroke="#63b8ff" points="1229.59,-60.39 1219.57,-63.83 1229.55,-67.39 1229.59,-60.39"/>
</g>
</g>
</svg>
        <g id="navigator" transform="translate(0 0)" fill="#404254">
                <rect fill="#f2f5e9" fill-opacity="0.5" stroke="#606060" stroke-width=".5" x="0" y="0" width="60" height="60"/>
                <use id="zoomplus" xlink:href="#zoomPlus" x="17" y="9" onmousedown="handleZoom(evt,'in')"/>
                <use id="zoomminus" xlink:href="#zoomMin" x="42" y="9" onmousedown="handleZoom(evt,'out')"/>
                <use id="reset" xlink:href="#resetDef" x="30" y="36" onmousedown="handleReset()"/>
                <g id="arrowUp" xlink:href="#dirArrow" transform="translate(30 24)" onmousedown="handlePan(0,-1)">
                  <use xlink:href="#rim" fill="#404040">
                        <set attributeName="fill" to="#808080" begin="arrowUp.mouseover" end="arrowUp.mouseout"/>
                  </use>
                  <path fill="none" stroke="white" stroke-width="1.5" d="M0,-3.0v7 M-2.5,-0.5L0,-3.0L2.5,-0.5"/>
                </g>
                <g id="arrowRight" xlink:href="#dirArrow" transform="rotate(90) translate(36 -43)" onmousedown="handlePan(1,0)">
                  <use xlink:href="#rim" fill="#404040">
                        <set attributeName="fill" to="#808080" begin="arrowRight.mouseover" end="arrowRight.mouseout"/>
                  </use>
                  <path fill="none" stroke="white" stroke-width="1.5" d="M0,-3.0v7 M-2.5,-0.5L0,-3.0L2.5,-0.5"/>
                </g>
                <g id="arrowDown" xlink:href="#dirArrow" transform="rotate(180) translate(-30 -48)" onmousedown="handlePan(0,1)">
                  <use xlink:href="#rim" fill="#404040">
                        <set attributeName="fill" to="#808080" begin="arrowDown.mouseover" end="arrowDown.mouseout"/>
                  </use>
                  <path fill="none" stroke="white" stroke-width="1.5" d="M0,-3.0v7 M-2.5,-0.5L0,-3.0L2.5,-0.5"/>
                </g>
                <g id="arrowLeft" xlink:href="#dirArrow" transform="rotate(270) translate(-36 17)" onmousedown="handlePan(-1,0)">
                  <use xlink:href="#rim" fill="#404040">
                        <set attributeName="fill" to="#808080" begin="arrowLeft.mouseover" end="arrowLeft.mouseout"/>
                  </use>
                  <path fill="none" stroke="white" stroke-width="1.5" d="M0,-3.0v7 M-2.5,-0.5L0,-3.0L2.5,-0.5"/>
                </g>
        </g>
        <svg viewBox="0 0 15 15" width="100%" height="30px" preserveAspectRatio="xMaxYMin meet">
         <g id="arrow_out" transform="scale(0.3 0.3)">
          <a xlink:href="debug_8h__dep__incl_org.svg" target="_base">
           <rect id="button" ry="5" rx="5" y="6" x="6" height="38" width="38"
                fill="#f2f5e9" fill-opacity="0.5" stroke="#606060" stroke-width="1.0"/>
           <path id="arrow"
             d="M 11.500037,31.436501 C 11.940474,20.09759 22.043105,11.32322 32.158766,21.979434 L 37.068811,17.246167 C 37.068811,17.246167 37.088388,32 37.088388,32 L 22.160133,31.978069 C 22.160133,31.978069 26.997745,27.140456 26.997745,27.140456 C 18.528582,18.264221 13.291696,25.230495 11.500037,31.436501 z"
             style="fill:#404040;"/>
          </a>
         </g>
        </svg>
</svg>
