<?xml version="1.0" encoding="UTF-8" standalone="no"?>
<!DOCTYPE svg PUBLIC "-//W3C//DTD SVG 1.1//EN"
 "http://www.w3.org/Graphics/SVG/1.1/DTD/svg11.dtd">
<!-- Generated by graphviz version 2.40.1 (20161225.0304)
 -->
<!-- Title: src/debug.h Pages: 1 -->
<svg width="2141pt" height="82pt"
 viewBox="0.00 0.00 2140.50 82.00" xmlns="http://www.w3.org/2000/svg" xmlns:xlink="http://www.w3.org/1999/xlink">
<g id="graph0" class="graph" transform="scale(1 1) rotate(0) translate(4 78)">
<title>src/debug.h</title>
<!-- Node1 -->
<g id="node1" class="node">
<title>Node1</title>
<g id="a_node1"><a xlink:title=" ">
<polygon fill="#999999" stroke="#666666" points="1144,-74 1076,-74 1076,-55 1144,-55 1144,-74"/>
<text text-anchor="middle" x="1110" y="-62" font-family="Helvetica,sans-Serif" font-size="10.00" fill="#000000">src/debug.h</text>
</a>
</g>
</g>
<!-- Node2 -->
<g id="node2" class="node">
<title>Node2</title>
<g id="a_node2"><a xlink:href="../../d5/d0b/cite_8cpp.html" target="_top" xlink:title=" ">
<polygon fill="#ffffff" stroke="#666666" points="68,-19 0,-19 0,0 68,0 68,-19"/>
<text text-anchor="middle" x="34" y="-7" font-family="Helvetica,sans-Serif" font-size="10.00" fill="#000000">src/cite.cpp</text>
</a>
</g>
</g>
<!-- Node1&#45;&gt;Node2 -->
<g id="edge1" class="edge">
<title>Node1&#45;&gt;Node2</title>
<path fill="none" stroke="#63b8ff" d="M1065.5465,-63.5692C893.6797,-59.8114 272.5792,-44.7143 77,-19 74.1196,-18.6213 71.1468,-18.1457 68.1726,-17.6103"/>
<polygon fill="#63b8ff" stroke="#63b8ff" points="1065.6694,-67.0726 1075.743,-63.7904 1065.8212,-60.0743 1065.6694,-67.0726"/>
</g>
<!-- Node3 -->
<g id="node3" class="node">
<title>Node3</title>
<g id="a_node3"><a xlink:href="../../de/d89/classdef_8cpp.html" target="_top" xlink:title=" ">
<polygon fill="#ffffff" stroke="#666666" points="175.5,-19 86.5,-19 86.5,0 175.5,0 175.5,-19"/>
<text text-anchor="middle" x="131" y="-7" font-family="Helvetica,sans-Serif" font-size="10.00" fill="#000000">src/classdef.cpp</text>
</a>
</g>
</g>
<!-- Node1&#45;&gt;Node3 -->
<g id="edge2" class="edge">
<title>Node1&#45;&gt;Node3</title>
<path fill="none" stroke="#63b8ff" d="M1065.2748,-63.0644C904.7446,-57.7927 357.9227,-38.7777 184,-19 181.3064,-18.6937 178.543,-18.3349 175.7601,-17.9394"/>
<polygon fill="#63b8ff" stroke="#63b8ff" points="1065.6102,-66.5771 1075.7193,-63.4058 1065.839,-59.5809 1065.6102,-66.5771"/>
</g>
<!-- Node4 -->
<g id="node4" class="node">
<title>Node4</title>
<g id="a_node4"><a xlink:href="../../d0/d47/commentcnv_8l.html" target="_top" xlink:title=" ">
<polygon fill="#ffffff" stroke="#666666" points="288.5,-19 193.5,-19 193.5,0 288.5,0 288.5,-19"/>
<text text-anchor="middle" x="241" y="-7" font-family="Helvetica,sans-Serif" font-size="10.00" fill="#000000">src/commentcnv.l</text>
</a>
</g>
</g>
<!-- Node1&#45;&gt;Node4 -->
<g id="edge3" class="edge">
<title>Node1&#45;&gt;Node4</title>
<path fill="none" stroke="#63b8ff" d="M1065.7427,-63.7164C943.2994,-61.1829 589.8041,-51.3946 298,-19 294.909,-18.6568 291.7307,-18.2575 288.5317,-17.8206"/>
<polygon fill="#63b8ff" stroke="#63b8ff" points="1065.7843,-67.2179 1075.8528,-63.9198 1065.9252,-60.2193 1065.7843,-67.2179"/>
</g>
<!-- Node5 -->
<g id="node5" class="node">
<title>Node5</title>
<g id="a_node5"><a xlink:href="../../d7/d5f/commentscan_8l.html" target="_top" xlink:title=" ">
<polygon fill="#ffffff" stroke="#666666" points="407,-19 307,-19 307,0 407,0 407,-19"/>
<text text-anchor="middle" x="357" y="-7" font-family="Helvetica,sans-Serif" font-size="10.00" fill="#000000">src/commentscan.l</text>
</a>
</g>
</g>
<!-- Node1&#45;&gt;Node5 -->
<g id="edge4" class="edge">
<title>Node1&#45;&gt;Node5</title>
<path fill="none" stroke="#63b8ff" d="M1065.8998,-63.0507C955.9046,-59.1229 660.6669,-46.656 416,-19 413.1134,-18.6737 410.1524,-18.3052 407.1679,-17.9075"/>
<polygon fill="#63b8ff" stroke="#63b8ff" points="1065.8415,-66.5508 1075.9583,-63.4044 1066.0875,-59.5551 1065.8415,-66.5508"/>
</g>
<!-- Node6 -->
<g id="node6" class="node">
<title>Node6</title>
<g id="a_node6"><a xlink:href="../../d1/d00/debug_8cpp.html" target="_top" xlink:title=" ">
<polygon fill="#ffffff" stroke="#666666" points="503,-19 425,-19 425,0 503,0 503,-19"/>
<text text-anchor="middle" x="464" y="-7" font-family="Helvetica,sans-Serif" font-size="10.00" fill="#000000">src/debug.cpp</text>
</a>
</g>
</g>
<!-- Node1&#45;&gt;Node6 -->
<g id="edge5" class="edge">
<title>Node1&#45;&gt;Node6</title>
<path fill="none" stroke="#63b8ff" d="M1065.5191,-62.9337C965.9671,-59.031 717.7907,-47.0914 512,-19 509.1382,-18.6094 506.19,-18.1549 503.2286,-17.6605"/>
<polygon fill="#63b8ff" stroke="#63b8ff" points="1065.6731,-66.4421 1075.8001,-63.3287 1065.9419,-59.4472 1065.6731,-66.4421"/>
</g>
<!-- Node7 -->
<g id="node7" class="node">
<title>Node7</title>
<g id="a_node7"><a xlink:href="../../d3/dea/definition_8cpp.html" target="_top" xlink:title=" ">
<polygon fill="#ffffff" stroke="#666666" points="612.5,-19 521.5,-19 521.5,0 612.5,0 612.5,-19"/>
<text text-anchor="middle" x="567" y="-7" font-family="Helvetica,sans-Serif" font-size="10.00" fill="#000000">src/definition.cpp</text>
</a>
</g>
</g>
<!-- Node1&#45;&gt;Node7 -->
<g id="edge6" class="edge">
<title>Node1&#45;&gt;Node7</title>
<path fill="none" stroke="#63b8ff" d="M1065.6203,-61.5856C979.5962,-55.6678 784.2557,-40.9187 621,-19 618.264,-18.6327 615.455,-18.2267 612.6245,-17.7954"/>
<polygon fill="#63b8ff" stroke="#63b8ff" points="1065.5885,-65.0915 1075.8034,-62.2799 1066.0647,-58.1077 1065.5885,-65.0915"/>
</g>
<!-- Node8 -->
<g id="node8" class="node">
<title>Node8</title>
<g id="a_node8"><a xlink:href="../../da/d17/docparser_8cpp.html" target="_top" xlink:title=" ">
<polygon fill="#ffffff" stroke="#666666" points="725.5,-19 630.5,-19 630.5,0 725.5,0 725.5,-19"/>
<text text-anchor="middle" x="678" y="-7" font-family="Helvetica,sans-Serif" font-size="10.00" fill="#000000">src/docparser.cpp</text>
</a>
</g>
</g>
<!-- Node1&#45;&gt;Node8 -->
<g id="edge7" class="edge">
<title>Node1&#45;&gt;Node8</title>
<path fill="none" stroke="#63b8ff" d="M1065.7026,-59.8309C995.3041,-52.2551 853.61,-36.3725 734,-19 731.2676,-18.6031 728.4629,-18.1794 725.6345,-17.7395"/>
<polygon fill="#63b8ff" stroke="#63b8ff" points="1065.652,-63.3454 1075.968,-60.931 1066.3979,-56.3853 1065.652,-63.3454"/>
</g>
<!-- Node9 -->
<g id="node9" class="node">
<title>Node9</title>
<g id="a_node9"><a xlink:href="../../dc/d98/doxygen_8cpp.html" target="_top" xlink:title=" ">
<polygon fill="#ffffff" stroke="#666666" points="832.5,-19 743.5,-19 743.5,0 832.5,0 832.5,-19"/>
<text text-anchor="middle" x="788" y="-7" font-family="Helvetica,sans-Serif" font-size="10.00" fill="#000000">src/doxygen.cpp</text>
</a>
</g>
</g>
<!-- Node1&#45;&gt;Node9 -->
<g id="edge8" class="edge">
<title>Node1&#45;&gt;Node9</title>
<path fill="none" stroke="#63b8ff" d="M1065.6179,-57.0483C1012.4511,-48.1025 920.6935,-32.6021 842,-19 838.9984,-18.4812 835.9035,-17.9436 832.7855,-17.4001"/>
<polygon fill="#63b8ff" stroke="#63b8ff" points="1065.2793,-60.5405 1075.7214,-58.7476 1066.4404,-53.6374 1065.2793,-60.5405"/>
</g>
<!-- Node10 -->
<g id="node10" class="node">
<title>Node10</title>
<g id="a_node10"><a xlink:href="../../d6/ddc/filedef_8cpp.html" target="_top" xlink:title=" ">
<polygon fill="#ffffff" stroke="#666666" points="929,-19 851,-19 851,0 929,0 929,-19"/>
<text text-anchor="middle" x="890" y="-7" font-family="Helvetica,sans-Serif" font-size="10.00" fill="#000000">src/filedef.cpp</text>
</a>
</g>
</g>
<!-- Node1&#45;&gt;Node10 -->
<g id="edge9" class="edge">
<title>Node1&#45;&gt;Node10</title>
<path fill="none" stroke="#63b8ff" d="M1065.8001,-53.45C1025.4812,-43.3703 966.515,-28.6287 928.1954,-19.0489"/>
<polygon fill="#63b8ff" stroke="#63b8ff" points="1065.0747,-56.8763 1075.625,-55.9063 1066.7725,-50.0853 1065.0747,-56.8763"/>
</g>
<!-- Node11 -->
<g id="node11" class="node">
<title>Node11</title>
<g id="a_node11"><a xlink:href="../../dd/d00/fortranscanner_8l.html" target="_top" xlink:title=" ">
<polygon fill="#ffffff" stroke="#666666" points="1048.5,-19 947.5,-19 947.5,0 1048.5,0 1048.5,-19"/>
<text text-anchor="middle" x="998" y="-7" font-family="Helvetica,sans-Serif" font-size="10.00" fill="#000000">src/fortranscanner.l</text>
</a>
</g>
</g>
<!-- Node1&#45;&gt;Node11 -->
<g id="edge10" class="edge">
<title>Node1&#45;&gt;Node11</title>
<path fill="none" stroke="#63b8ff" d="M1081.2542,-50.3838C1061.3107,-40.5901 1035.2683,-27.8014 1017.6611,-19.155"/>
<polygon fill="#63b8ff" stroke="#63b8ff" points="1079.9722,-53.6534 1090.4911,-54.9197 1083.0578,-47.3701 1079.9722,-53.6534"/>
</g>
<!-- Node12 -->
<g id="node12" class="node">
<title>Node12</title>
<g id="a_node12"><a xlink:href="../../d8/d6e/htmlgen_8cpp.html" target="_top" xlink:title=" ">
<polygon fill="#ffffff" stroke="#666666" points="1153,-19 1067,-19 1067,0 1153,0 1153,-19"/>
<text text-anchor="middle" x="1110" y="-7" font-family="Helvetica,sans-Serif" font-size="10.00" fill="#000000">src/htmlgen.cpp</text>
</a>
</g>
</g>
<!-- Node1&#45;&gt;Node12 -->
<g id="edge11" class="edge">
<title>Node1&#45;&gt;Node12</title>
<path fill="none" stroke="#63b8ff" d="M1110,-44.8553C1110,-36.2036 1110,-26.4195 1110,-19.3408"/>
<polygon fill="#63b8ff" stroke="#63b8ff" points="1106.5001,-44.9197 1110,-54.9197 1113.5001,-44.9198 1106.5001,-44.9197"/>
</g>
<!-- Node13 -->
<g id="node13" class="node">
<title>Node13</title>
<g id="a_node13"><a xlink:href="../../db/d16/layout_8cpp.html" target="_top" xlink:title=" ">
<polygon fill="#ffffff" stroke="#666666" points="1249,-19 1171,-19 1171,0 1249,0 1249,-19"/>
<text text-anchor="middle" x="1210" y="-7" font-family="Helvetica,sans-Serif" font-size="10.00" fill="#000000">src/layout.cpp</text>
</a>
</g>
</g>
<!-- Node1&#45;&gt;Node13 -->
<g id="edge12" class="edge">
<title>Node1&#45;&gt;Node13</title>
<path fill="none" stroke="#63b8ff" d="M1136.6424,-49.8467C1154.3156,-40.1264 1177.0106,-27.6442 1192.4454,-19.155"/>
<polygon fill="#63b8ff" stroke="#63b8ff" points="1134.4941,-47.0337 1127.4187,-54.9197 1137.8676,-53.1673 1134.4941,-47.0337"/>
</g>
<!-- Node14 -->
<g id="node14" class="node">
<title>Node14</title>
<g id="a_node14"><a xlink:href="../../de/d04/markdown_8cpp.html" target="_top" xlink:title=" ">
<polygon fill="#ffffff" stroke="#666666" points="1364.5,-19 1267.5,-19 1267.5,0 1364.5,0 1364.5,-19"/>
<text text-anchor="middle" x="1316" y="-7" font-family="Helvetica,sans-Serif" font-size="10.00" fill="#000000">src/markdown.cpp</text>
</a>
</g>
</g>
<!-- Node1&#45;&gt;Node14 -->
<g id="edge13" class="edge">
<title>Node1&#45;&gt;Node14</title>
<path fill="none" stroke="#63b8ff" d="M1153.7026,-52.8318C1191.3575,-42.7783 1245.0473,-28.4437 1280.2021,-19.0577"/>
<polygon fill="#63b8ff" stroke="#63b8ff" points="1152.7754,-49.4567 1144.0167,-55.4179 1154.5812,-56.2198 1152.7754,-49.4567"/>
</g>
<!-- Node15 -->
<g id="node15" class="node">
<title>Node15</title>
<g id="a_node15"><a xlink:href="../../d8/d6a/message_8cpp.html" target="_top" xlink:title=" ">
<polygon fill="#ffffff" stroke="#666666" points="1475,-19 1383,-19 1383,0 1475,0 1475,-19"/>
<text text-anchor="middle" x="1429" y="-7" font-family="Helvetica,sans-Serif" font-size="10.00" fill="#000000">src/message.cpp</text>
</a>
</g>
</g>
<!-- Node1&#45;&gt;Node15 -->
<g id="edge14" class="edge">
<title>Node1&#45;&gt;Node15</title>
<path fill="none" stroke="#63b8ff" d="M1154.1429,-56.8971C1206.5683,-47.8666 1296.6587,-32.3443 1374,-19 1376.8647,-18.5057 1379.8133,-17.9969 1382.7867,-17.4836"/>
<polygon fill="#63b8ff" stroke="#63b8ff" points="1153.4357,-53.4673 1144.1749,-58.6141 1154.624,-60.3657 1153.4357,-53.4673"/>
</g>
<!-- Node16 -->
<g id="node16" class="node">
<title>Node16</title>
<g id="a_node16"><a xlink:href="../../d7/d5b/plantuml_8cpp.html" target="_top" xlink:title=" ">
<polygon fill="#ffffff" stroke="#666666" points="1582.5,-19 1493.5,-19 1493.5,0 1582.5,0 1582.5,-19"/>
<text text-anchor="middle" x="1538" y="-7" font-family="Helvetica,sans-Serif" font-size="10.00" fill="#000000">src/plantuml.cpp</text>
</a>
</g>
</g>
<!-- Node1&#45;&gt;Node16 -->
<g id="edge15" class="edge">
<title>Node1&#45;&gt;Node16</title>
<path fill="none" stroke="#63b8ff" d="M1154.3458,-59.8757C1224.4786,-52.3891 1365.2298,-36.6593 1484,-19 1487.0129,-18.552 1490.1164,-18.0676 1493.2407,-17.5628"/>
<polygon fill="#63b8ff" stroke="#63b8ff" points="1153.6901,-56.4256 1144.1159,-60.9627 1154.4297,-63.3864 1153.6901,-56.4256"/>
</g>
<!-- Node17 -->
<g id="node17" class="node">
<title>Node17</title>
<g id="a_node17"><a xlink:href="../../d0/d1c/portable_8cpp.html" target="_top" xlink:title=" ">
<polygon fill="#ffffff" stroke="#666666" points="1687,-19 1601,-19 1601,0 1687,0 1687,-19"/>
<text text-anchor="middle" x="1644" y="-7" font-family="Helvetica,sans-Serif" font-size="10.00" fill="#000000">src/portable.cpp</text>
</a>
</g>
</g>
<!-- Node1&#45;&gt;Node17 -->
<g id="edge16" class="edge">
<title>Node1&#45;&gt;Node17</title>
<path fill="none" stroke="#63b8ff" d="M1154.073,-61.6224C1239.048,-55.7906 1431.3475,-41.2152 1592,-19 1594.909,-18.5977 1597.9033,-18.1476 1600.916,-17.6679"/>
<polygon fill="#63b8ff" stroke="#63b8ff" points="1153.7501,-58.1362 1144.0105,-62.3064 1154.2249,-65.1201 1153.7501,-58.1362"/>
</g>
<!-- Node18 -->
<g id="node18" class="node">
<title>Node18</title>
<g id="a_node18"><a xlink:href="../../d0/da7/pre_8l.html" target="_top" xlink:title=" ">
<polygon fill="#ffffff" stroke="#666666" points="1757,-19 1705,-19 1705,0 1757,0 1757,-19"/>
<text text-anchor="middle" x="1731" y="-7" font-family="Helvetica,sans-Serif" font-size="10.00" fill="#000000">src/pre.l</text>
</a>
</g>
</g>
<!-- Node1&#45;&gt;Node18 -->
<g id="edge17" class="edge">
<title>Node1&#45;&gt;Node18</title>
<path fill="none" stroke="#63b8ff" d="M1154.4594,-63.8846C1252.8,-61.9054 1495.9076,-53.6081 1696,-19 1698.8539,-18.5064 1701.8122,-17.8834 1704.7454,-17.1936"/>
<polygon fill="#63b8ff" stroke="#63b8ff" points="1154.2273,-60.3882 1144.2953,-64.0767 1154.3597,-67.387 1154.2273,-60.3882"/>
</g>
<!-- Node19 -->
<g id="node19" class="node">
<title>Node19</title>
<g id="a_node19"><a xlink:href="../../d9/d45/qhp_8cpp.html" target="_top" xlink:title=" ">
<polygon fill="#ffffff" stroke="#666666" points="1843,-19 1775,-19 1775,0 1843,0 1843,-19"/>
<text text-anchor="middle" x="1809" y="-7" font-family="Helvetica,sans-Serif" font-size="10.00" fill="#000000">src/qhp.cpp</text>
</a>
</g>
</g>
<!-- Node1&#45;&gt;Node19 -->
<g id="edge18" class="edge">
<title>Node1&#45;&gt;Node19</title>
<path fill="none" stroke="#63b8ff" d="M1154.3671,-63.6875C1260.5469,-61.2513 1537.4578,-51.9862 1766,-19 1768.8754,-18.585 1771.8446,-18.0839 1774.8165,-17.5313"/>
<polygon fill="#63b8ff" stroke="#63b8ff" points="1154.2562,-60.189 1144.3359,-63.9088 1154.4107,-67.1873 1154.2562,-60.189"/>
</g>
<!-- Node20 -->
<g id="node20" class="node">
<title>Node20</title>
<g id="a_node20"><a xlink:href="../../d0/d9c/rtfgen_8cpp.html" target="_top" xlink:title=" ">
<polygon fill="#ffffff" stroke="#666666" points="1938.5,-19 1861.5,-19 1861.5,0 1938.5,0 1938.5,-19"/>
<text text-anchor="middle" x="1900" y="-7" font-family="Helvetica,sans-Serif" font-size="10.00" fill="#000000">src/rtfgen.cpp</text>
</a>
</g>
</g>
<!-- Node1&#45;&gt;Node20 -->
<g id="edge19" class="edge">
<title>Node1&#45;&gt;Node20</title>
<path fill="none" stroke="#63b8ff" d="M1154.3843,-63.8515C1269.8358,-61.7165 1588.8543,-52.9528 1852,-19 1855.033,-18.6087 1858.1623,-18.1395 1861.3006,-17.6222"/>
<polygon fill="#63b8ff" stroke="#63b8ff" points="1154.111,-60.3557 1144.1747,-64.0326 1154.2352,-67.3546 1154.111,-60.3557"/>
</g>
<!-- Node21 -->
<g id="node21" class="node">
<title>Node21</title>
<g id="a_node21"><a xlink:href="../../d4/d7b/tagreader_8cpp.html" target="_top" xlink:title=" ">
<polygon fill="#ffffff" stroke="#666666" points="2049,-19 1957,-19 1957,0 2049,0 2049,-19"/>
<text text-anchor="middle" x="2003" y="-7" font-family="Helvetica,sans-Serif" font-size="10.00" fill="#000000">src/tagreader.cpp</text>
</a>
</g>
</g>
<!-- Node1&#45;&gt;Node21 -->
<g id="edge20" class="edge">
<title>Node1&#45;&gt;Node21</title>
<path fill="none" stroke="#63b8ff" d="M1154.3648,-63.9136C1279.5171,-61.8672 1645.8963,-53.174 1948,-19 1950.8886,-18.6732 1953.8555,-18.2926 1956.8426,-17.8752"/>
<polygon fill="#63b8ff" stroke="#63b8ff" points="1153.9877,-60.419 1144.0441,-64.0761 1154.098,-67.4182 1153.9877,-60.419"/>
</g>
<!-- Node22 -->
<g id="node22" class="node">
<title>Node22</title>
<g id="a_node22"><a xlink:href="../../df/d2d/util_8cpp.html" target="_top" xlink:title=" ">
<polygon fill="#ffffff" stroke="#666666" points="2132.5,-19 2067.5,-19 2067.5,0 2132.5,0 2132.5,-19"/>
<text text-anchor="middle" x="2100" y="-7" font-family="Helvetica,sans-Serif" font-size="10.00" fill="#000000">src/util.cpp</text>
</a>
</g>
</g>
<!-- Node1&#45;&gt;Node22 -->
<g id="edge21" class="edge">
<title>Node1&#45;&gt;Node22</title>
<path fill="none" stroke="#63b8ff" d="M1154.2314,-63.4023C1316.6382,-59.2123 1879.8661,-43.2321 2058,-19 2060.9631,-18.5969 2064.0256,-18.0879 2067.0841,-17.5158"/>
<polygon fill="#63b8ff" stroke="#63b8ff" points="1154.029,-59.9063 1144.122,-63.6612 1154.2083,-66.904 1154.029,-59.9063"/>
</g>
</g>
</svg>
