<?xml version="1.0" encoding="UTF-8" standalone="no"?>
<!DOCTYPE svg PUBLIC "-//W3C//DTD SVG 1.1//EN"
 "http://www.w3.org/Graphics/SVG/1.1/DTD/svg11.dtd">
<!-- Generated by graphviz version 2.40.1 (20161225.0304)
 -->
<!-- Title: src/rtfdocvisitor.h Pages: 1 -->
<!--zoomable 302 -->
<svg id="main" version="1.1" xmlns="http://www.w3.org/2000/svg" xmlns:xlink="http://www.w3.org/1999/xlink" xml:space="preserve" onload="init(evt)">
<style type="text/css"><![CDATA[
.edge:hover path { stroke: red; }
.edge:hover polygon { stroke: red; fill: red; }
]]></style>
<script type="text/javascript"><![CDATA[
var edges = document.getElementsByTagName('g');
if (edges && edges.length) {
  for (var i=0;i<edges.length;i++) {
    if (edges[i].id.substr(0,4)=='edge') {
      edges[i].setAttribute('class','edge');
    }
  }
}
]]></script>
        <defs>
                <circle id="rim" cx="0" cy="0" r="7"/>
                <circle id="rim2" cx="0" cy="0" r="3.5"/>
                <g id="zoomPlus">
                        <use xlink:href="#rim" fill="#404040">
                                <set attributeName="fill" to="#808080" begin="zoomplus.mouseover" end="zoomplus.mouseout"/>
                        </use>
                        <path d="M-4,0h8M0,-4v8" fill="none" stroke="white" stroke-width="1.5" pointer-events="none"/>
                </g>
                <g id="zoomMin">
                        <use xlink:href="#rim" fill="#404040">
                                <set attributeName="fill" to="#808080" begin="zoomminus.mouseover" end="zoomminus.mouseout"/>
                        </use>
                        <path d="M-4,0h8" fill="none" stroke="white" stroke-width="1.5" pointer-events="none"/>
                </g>
                <g id="dirArrow">
                        <path fill="none" stroke="white" stroke-width="1.5" d="M0,-3.0v7 M-2.5,-0.5L0,-3.0L2.5,-0.5"/>
                </g>
               <g id="resetDef">
                       <use xlink:href="#rim2" fill="#404040">
                               <set attributeName="fill" to="#808080" begin="reset.mouseover" end="reset.mouseout"/>
                       </use>
               </g>
        </defs>

<script type="text/javascript">
var viewWidth = 922;
var viewHeight = 302;
var sectionId = 'dynsection-0';
</script>
<script xlink:href="../../svgpan.js"/>
<svg id="graph" class="graph">
<g id="viewport">
<title>src/rtfdocvisitor.h</title>
<!-- Node1 -->
<g id="node1" class="node">
<title>Node1</title>
<g id="a_node1"><a xlink:title=" ">
<polygon fill="#999999" stroke="#666666" points="577.5,-294 485.5,-294 485.5,-275 577.5,-275 577.5,-294"/>
<text text-anchor="middle" x="531.5" y="-282" font-family="Helvetica,sans-Serif" font-size="10.00" fill="#000000">src/rtfdocvisitor.h</text>
</a>
</g>
</g>
<!-- Node2 -->
<g id="node2" class="node">
<title>Node2</title>
<g id="a_node2"><a xlink:title=" ">
<polygon fill="#e0e0e0" stroke="#999999" points="503.5,-239 449.5,-239 449.5,-220 503.5,-220 503.5,-239"/>
<text text-anchor="middle" x="476.5" y="-227" font-family="Helvetica,sans-Serif" font-size="10.00" fill="#000000">iostream</text>
</a>
</g>
</g>
<!-- Node1&#45;&gt;Node2 -->
<g id="edge1" class="edge">
<title>Node1&#45;&gt;Node2</title>
<path fill="none" stroke="#63b8ff" d="M521.9197,-274.9197C514.1293,-267.1293 502.9405,-255.9405 493.6176,-246.6176"/>
<polygon fill="#63b8ff" stroke="#63b8ff" points="495.8868,-243.937 486.3408,-239.3408 490.937,-248.8868 495.8868,-243.937"/>
</g>
<!-- Node3 -->
<g id="node3" class="node">
<title>Node3</title>
<g id="a_node3"><a xlink:href="../../d2/d3c/docvisitor_8h.html" target="_top" xlink:title=" ">
<polygon fill="#ffffff" stroke="#666666" points="533,-184 466,-184 466,-165 533,-165 533,-184"/>
<text text-anchor="middle" x="499.5" y="-172" font-family="Helvetica,sans-Serif" font-size="10.00" fill="#000000">docvisitor.h</text>
</a>
</g>
</g>
<!-- Node1&#45;&gt;Node3 -->
<g id="edge2" class="edge">
<title>Node1&#45;&gt;Node3</title>
<path fill="none" stroke="#63b8ff" d="M528.6602,-274.7382C523.3809,-256.5906 511.9684,-217.36 505.0904,-193.7172"/>
<polygon fill="#63b8ff" stroke="#63b8ff" points="508.4418,-192.7071 502.2877,-184.0828 501.7204,-194.6625 508.4418,-192.7071"/>
</g>
<!-- Node15 -->
<g id="node15" class="node">
<title>Node15</title>
<g id="a_node15"><a xlink:href="../../de/d2b/docnode_8h.html" target="_top" xlink:title=" ">
<polygon fill="#ffffff" stroke="#666666" points="653.5,-239 591.5,-239 591.5,-220 653.5,-220 653.5,-239"/>
<text text-anchor="middle" x="622.5" y="-227" font-family="Helvetica,sans-Serif" font-size="10.00" fill="#000000">docnode.h</text>
</a>
</g>
</g>
<!-- Node1&#45;&gt;Node15 -->
<g id="edge16" class="edge">
<title>Node1&#45;&gt;Node15</title>
<path fill="none" stroke="#63b8ff" d="M547.351,-274.9197C561.2281,-266.5325 581.6223,-254.2063 597.6648,-244.5103"/>
<polygon fill="#63b8ff" stroke="#63b8ff" points="599.7774,-247.3231 606.5253,-239.155 596.1566,-241.3323 599.7774,-247.3231"/>
</g>
<!-- Node4 -->
<g id="node4" class="node">
<title>Node4</title>
<g id="a_node4"><a xlink:title=" ">
<polygon fill="#e0e0e0" stroke="#999999" points="724.5,-74 672.5,-74 672.5,-55 724.5,-55 724.5,-74"/>
<text text-anchor="middle" x="698.5" y="-62" font-family="Helvetica,sans-Serif" font-size="10.00" fill="#000000">memory</text>
</a>
</g>
</g>
<!-- Node3&#45;&gt;Node4 -->
<g id="edge3" class="edge">
<title>Node3&#45;&gt;Node4</title>
<path fill="none" stroke="#63b8ff" d="M504.2415,-164.6369C511.5578,-150.4565 526.9328,-124.4314 547.5,-110 552.3371,-106.6059 619.336,-87.0931 662.4468,-74.748"/>
<polygon fill="#63b8ff" stroke="#63b8ff" points="663.6571,-78.0423 672.3103,-71.9291 661.7335,-71.3118 663.6571,-78.0423"/>
</g>
<!-- Node5 -->
<g id="node5" class="node">
<title>Node5</title>
<g id="a_node5"><a xlink:href="../../d7/d5c/qcstring_8h.html" target="_top" xlink:title=" ">
<polygon fill="#ffffff" stroke="#666666" points="476,-129 417,-129 417,-110 476,-110 476,-129"/>
<text text-anchor="middle" x="446.5" y="-117" font-family="Helvetica,sans-Serif" font-size="10.00" fill="#000000">qcstring.h</text>
</a>
</g>
</g>
<!-- Node3&#45;&gt;Node5 -->
<g id="edge4" class="edge">
<title>Node3&#45;&gt;Node5</title>
<path fill="none" stroke="#63b8ff" d="M490.2681,-164.9197C482.7609,-157.1293 471.979,-145.9405 462.9951,-136.6176"/>
<polygon fill="#63b8ff" stroke="#63b8ff" points="465.4422,-134.113 455.983,-129.3408 460.4017,-138.9703 465.4422,-134.113"/>
</g>
<!-- Node6 -->
<g id="node6" class="node">
<title>Node6</title>
<g id="a_node6"><a xlink:title=" ">
<polygon fill="#e0e0e0" stroke="#999999" points="170,-19 129,-19 129,0 170,0 170,-19"/>
<text text-anchor="middle" x="149.5" y="-7" font-family="Helvetica,sans-Serif" font-size="10.00" fill="#000000">string</text>
</a>
</g>
</g>
<!-- Node5&#45;&gt;Node6 -->
<g id="edge5" class="edge">
<title>Node5&#45;&gt;Node6</title>
<path fill="none" stroke="#63b8ff" d="M416.7165,-118.5274C352.7296,-115.8359 204.9786,-106.2064 168.5,-74 155.8083,-62.7947 151.3988,-43.5841 149.9609,-29.035"/>
<polygon fill="#63b8ff" stroke="#63b8ff" points="153.453,-28.7969 149.3525,-19.0277 146.4659,-29.2217 153.453,-28.7969"/>
</g>
<!-- Node7 -->
<g id="node7" class="node">
<title>Node7</title>
<g id="a_node7"><a xlink:title=" ">
<polygon fill="#e0e0e0" stroke="#999999" points="654.5,-74 598.5,-74 598.5,-55 654.5,-55 654.5,-74"/>
<text text-anchor="middle" x="626.5" y="-62" font-family="Helvetica,sans-Serif" font-size="10.00" fill="#000000">algorithm</text>
</a>
</g>
</g>
<!-- Node5&#45;&gt;Node7 -->
<g id="edge6" class="edge">
<title>Node5&#45;&gt;Node7</title>
<path fill="none" stroke="#63b8ff" d="M476.2233,-110.4179C506.9002,-101.0444 554.8688,-86.3873 588.3328,-76.1622"/>
<polygon fill="#63b8ff" stroke="#63b8ff" points="589.6765,-79.4114 598.2173,-73.142 587.6309,-72.717 589.6765,-79.4114"/>
</g>
<!-- Node8 -->
<g id="node8" class="node">
<title>Node8</title>
<g id="a_node8"><a xlink:title=" ">
<polygon fill="#e0e0e0" stroke="#999999" points="223.5,-74 177.5,-74 177.5,-55 223.5,-55 223.5,-74"/>
<text text-anchor="middle" x="200.5" y="-62" font-family="Helvetica,sans-Serif" font-size="10.00" fill="#000000">cctype</text>
</a>
</g>
</g>
<!-- Node5&#45;&gt;Node8 -->
<g id="edge7" class="edge">
<title>Node5&#45;&gt;Node8</title>
<path fill="none" stroke="#63b8ff" d="M416.9058,-113.9765C377.3141,-106.4206 304.7402,-91.9901 233.545,-74.1134"/>
<polygon fill="#63b8ff" stroke="#63b8ff" points="234.0653,-70.6346 223.5117,-71.5684 232.3442,-77.4197 234.0653,-70.6346"/>
</g>
<!-- Node9 -->
<g id="node9" class="node">
<title>Node9</title>
<g id="a_node9"><a xlink:title=" ">
<polygon fill="#e0e0e0" stroke="#999999" points="287.5,-74 241.5,-74 241.5,-55 287.5,-55 287.5,-74"/>
<text text-anchor="middle" x="264.5" y="-62" font-family="Helvetica,sans-Serif" font-size="10.00" fill="#000000">cstring</text>
</a>
</g>
</g>
<!-- Node5&#45;&gt;Node9 -->
<g id="edge8" class="edge">
<title>Node5&#45;&gt;Node9</title>
<path fill="none" stroke="#63b8ff" d="M416.8535,-110.5409C384.1741,-100.6653 331.7353,-84.8184 297.7008,-74.5332"/>
<polygon fill="#63b8ff" stroke="#63b8ff" points="298.3564,-71.0751 287.7715,-71.5326 296.3314,-77.7758 298.3564,-71.0751"/>
</g>
<!-- Node10 -->
<g id="node10" class="node">
<title>Node10</title>
<g id="a_node10"><a xlink:title=" ">
<polygon fill="#e0e0e0" stroke="#999999" points="349,-74 306,-74 306,-55 349,-55 349,-74"/>
<text text-anchor="middle" x="327.5" y="-62" font-family="Helvetica,sans-Serif" font-size="10.00" fill="#000000">cstdio</text>
</a>
</g>
</g>
<!-- Node5&#45;&gt;Node10 -->
<g id="edge9" class="edge">
<title>Node5&#45;&gt;Node10</title>
<path fill="none" stroke="#63b8ff" d="M425.7718,-109.9197C406.9465,-101.219 378.9495,-88.2792 357.6487,-78.4343"/>
<polygon fill="#63b8ff" stroke="#63b8ff" points="358.9357,-75.1734 348.39,-74.155 355.9989,-81.5276 358.9357,-75.1734"/>
</g>
<!-- Node11 -->
<g id="node11" class="node">
<title>Node11</title>
<g id="a_node11"><a xlink:title=" ">
<polygon fill="#e0e0e0" stroke="#999999" points="412,-74 367,-74 367,-55 412,-55 412,-74"/>
<text text-anchor="middle" x="389.5" y="-62" font-family="Helvetica,sans-Serif" font-size="10.00" fill="#000000">cstdlib</text>
</a>
</g>
</g>
<!-- Node5&#45;&gt;Node11 -->
<g id="edge10" class="edge">
<title>Node5&#45;&gt;Node11</title>
<path fill="none" stroke="#63b8ff" d="M436.5714,-109.9197C428.4169,-102.0514 416.6697,-90.7164 406.9508,-81.3385"/>
<polygon fill="#63b8ff" stroke="#63b8ff" points="409.3252,-78.7659 399.6987,-74.3408 404.4646,-83.8032 409.3252,-78.7659"/>
</g>
<!-- Node12 -->
<g id="node12" class="node">
<title>Node12</title>
<g id="a_node12"><a xlink:title=" ">
<polygon fill="#e0e0e0" stroke="#999999" points="568.5,-19 522.5,-19 522.5,0 568.5,0 568.5,-19"/>
<text text-anchor="middle" x="545.5" y="-7" font-family="Helvetica,sans-Serif" font-size="10.00" fill="#000000">cstdint</text>
</a>
</g>
</g>
<!-- Node5&#45;&gt;Node12 -->
<g id="edge11" class="edge">
<title>Node5&#45;&gt;Node12</title>
<path fill="none" stroke="#63b8ff" d="M476.4147,-115.3852C500.9551,-110.2604 534.2115,-98.9054 550.5,-74 559.1344,-60.7978 556.7893,-42.667 552.9134,-28.9897"/>
<polygon fill="#63b8ff" stroke="#63b8ff" points="556.1229,-27.548 549.6572,-19.1549 549.4777,-29.7482 556.1229,-27.548"/>
</g>
<!-- Node13 -->
<g id="node13" class="node">
<title>Node13</title>
<g id="a_node13"><a xlink:title=" ">
<polygon fill="#e0e0e0" stroke="#999999" points="482.5,-74 430.5,-74 430.5,-55 482.5,-55 482.5,-74"/>
<text text-anchor="middle" x="456.5" y="-62" font-family="Helvetica,sans-Serif" font-size="10.00" fill="#000000">ostream</text>
</a>
</g>
</g>
<!-- Node5&#45;&gt;Node13 -->
<g id="edge12" class="edge">
<title>Node5&#45;&gt;Node13</title>
<path fill="none" stroke="#63b8ff" d="M448.2419,-109.9197C449.5167,-102.9083 451.292,-93.1442 452.87,-84.4652"/>
<polygon fill="#63b8ff" stroke="#63b8ff" points="456.3654,-84.8057 454.7108,-74.3408 449.4783,-83.5534 456.3654,-84.8057"/>
</g>
<!-- Node14 -->
<g id="node14" class="node">
<title>Node14</title>
<g id="a_node14"><a xlink:href="../../db/d7c/utf8_8h.html" target="_top" xlink:title="Various UTF8 related helper functions.">
<polygon fill="#ffffff" stroke="#666666" points="542,-74 501,-74 501,-55 542,-55 542,-74"/>
<text text-anchor="middle" x="521.5" y="-62" font-family="Helvetica,sans-Serif" font-size="10.00" fill="#000000">utf8.h</text>
</a>
</g>
</g>
<!-- Node5&#45;&gt;Node14 -->
<g id="edge13" class="edge">
<title>Node5&#45;&gt;Node14</title>
<path fill="none" stroke="#63b8ff" d="M459.564,-109.9197C470.6805,-101.7677 486.8713,-89.8944 499.911,-80.3319"/>
<polygon fill="#63b8ff" stroke="#63b8ff" points="502.3398,-82.8911 508.3341,-74.155 498.2002,-77.2463 502.3398,-82.8911"/>
</g>
<!-- Node14&#45;&gt;Node6 -->
<g id="edge15" class="edge">
<title>Node14&#45;&gt;Node6</title>
<path fill="none" stroke="#63b8ff" d="M500.9721,-57.48C497.8239,-56.5548 494.5927,-55.6899 491.5,-55 378.1666,-29.7195 240.3594,-16.635 180.1363,-11.7725"/>
<polygon fill="#63b8ff" stroke="#63b8ff" points="180.3941,-8.2821 170.1498,-10.9847 179.8435,-15.2604 180.3941,-8.2821"/>
</g>
<!-- Node14&#45;&gt;Node12 -->
<g id="edge14" class="edge">
<title>Node14&#45;&gt;Node12</title>
<path fill="none" stroke="#63b8ff" d="M525.6805,-54.9197C528.842,-47.6746 533.2861,-37.4903 537.165,-28.601"/>
<polygon fill="#63b8ff" stroke="#63b8ff" points="540.4142,-29.9061 541.2058,-19.3408 533.9984,-27.1064 540.4142,-29.9061"/>
</g>
<!-- Node15&#45;&gt;Node3 -->
<g id="edge22" class="edge">
<title>Node15&#45;&gt;Node3</title>
<path fill="none" stroke="#63b8ff" d="M601.075,-219.9197C581.5293,-211.1798 552.418,-198.1625 530.365,-188.3014"/>
<polygon fill="#63b8ff" stroke="#63b8ff" points="531.6498,-185.042 521.0921,-184.155 528.7923,-191.4322 531.6498,-185.042"/>
</g>
<!-- Node15&#45;&gt;Node4 -->
<g id="edge19" class="edge">
<title>Node15&#45;&gt;Node4</title>
<path fill="none" stroke="#63b8ff" d="M608.789,-219.9636C593.1353,-207.8096 570.8632,-185.866 580.5,-165 598.8256,-125.3208 641.3972,-95.5361 670.0717,-79.063"/>
<polygon fill="#63b8ff" stroke="#63b8ff" points="671.8048,-82.1041 678.845,-74.1867 668.404,-75.9857 671.8048,-82.1041"/>
</g>
<!-- Node15&#45;&gt;Node5 -->
<g id="edge21" class="edge">
<title>Node15&#45;&gt;Node5</title>
<path fill="none" stroke="#63b8ff" d="M591.3132,-225.0433C548.3701,-218.2497 474.3062,-203.9555 456.5,-184 445.7845,-171.9911 443.881,-153.4535 444.3099,-139.3281"/>
<polygon fill="#63b8ff" stroke="#63b8ff" points="447.8151,-139.377 445.0301,-129.1548 440.8326,-138.8826 447.8151,-139.377"/>
</g>
<!-- Node16 -->
<g id="node16" class="node">
<title>Node16</title>
<g id="a_node16"><a xlink:title=" ">
<polygon fill="#e0e0e0" stroke="#999999" points="902.5,-129 856.5,-129 856.5,-110 902.5,-110 902.5,-129"/>
<text text-anchor="middle" x="879.5" y="-117" font-family="Helvetica,sans-Serif" font-size="10.00" fill="#000000">stdio.h</text>
</a>
</g>
</g>
<!-- Node15&#45;&gt;Node16 -->
<g id="edge17" class="edge">
<title>Node15&#45;&gt;Node16</title>
<path fill="none" stroke="#63b8ff" d="M653.7433,-225.3619C704.3323,-218.2205 801.4471,-202.5499 830.5,-184 848.0273,-172.809 861.6553,-153.0253 870.0406,-138.3099"/>
<polygon fill="#63b8ff" stroke="#63b8ff" points="873.3394,-139.5651 874.9916,-129.0999 867.1738,-136.2507 873.3394,-139.5651"/>
</g>
<!-- Node17 -->
<g id="node17" class="node">
<title>Node17</title>
<g id="a_node17"><a xlink:title=" ">
<polygon fill="#e0e0e0" stroke="#999999" points="852.5,-74 808.5,-74 808.5,-55 852.5,-55 852.5,-74"/>
<text text-anchor="middle" x="830.5" y="-62" font-family="Helvetica,sans-Serif" font-size="10.00" fill="#000000">vector</text>
</a>
</g>
</g>
<!-- Node15&#45;&gt;Node17 -->
<g id="edge18" class="edge">
<title>Node15&#45;&gt;Node17</title>
<path fill="none" stroke="#63b8ff" d="M653.7651,-225.5392C708.4651,-218.2499 818.9976,-201.8165 853.5,-184 885.065,-167.7004 897.4708,-161.6375 911.5,-129 922.6277,-103.1125 889.7601,-84.7449 862.6022,-74.394"/>
<polygon fill="#63b8ff" stroke="#63b8ff" points="863.5417,-71.013 852.9471,-70.9441 861.1863,-77.6048 863.5417,-71.013"/>
</g>
<!-- Node18 -->
<g id="node18" class="node">
<title>Node18</title>
<g id="a_node18"><a xlink:title=" ">
<polygon fill="#e0e0e0" stroke="#999999" points="719.5,-184 673.5,-184 673.5,-165 719.5,-165 719.5,-184"/>
<text text-anchor="middle" x="696.5" y="-172" font-family="Helvetica,sans-Serif" font-size="10.00" fill="#000000">variant</text>
</a>
</g>
</g>
<!-- Node15&#45;&gt;Node18 -->
<g id="edge20" class="edge">
<title>Node15&#45;&gt;Node18</title>
<path fill="none" stroke="#63b8ff" d="M635.3898,-219.9197C646.2908,-211.8177 662.1372,-200.0399 674.9618,-190.5082"/>
<polygon fill="#63b8ff" stroke="#63b8ff" points="677.3215,-193.1152 683.2596,-184.3408 673.1458,-187.497 677.3215,-193.1152"/>
</g>
<!-- Node19 -->
<g id="node19" class="node">
<title>Node19</title>
<g id="a_node19"><a xlink:href="../../de/d9c/docparser_8h.html" target="_top" xlink:title=" ">
<polygon fill="#ffffff" stroke="#666666" points="805.5,-184 737.5,-184 737.5,-165 805.5,-165 805.5,-184"/>
<text text-anchor="middle" x="771.5" y="-172" font-family="Helvetica,sans-Serif" font-size="10.00" fill="#000000">docparser.h</text>
</a>
</g>
</g>
<!-- Node15&#45;&gt;Node19 -->
<g id="edge23" class="edge">
<title>Node15&#45;&gt;Node19</title>
<path fill="none" stroke="#63b8ff" d="M648.4538,-219.9197C672.7363,-210.9564 709.2062,-197.4944 736.142,-187.5516"/>
<polygon fill="#63b8ff" stroke="#63b8ff" points="737.4248,-190.809 745.5941,-184.0626 735.0007,-184.2421 737.4248,-190.809"/>
</g>
<!-- Node20 -->
<g id="node20" class="node">
<title>Node20</title>
<g id="a_node20"><a xlink:href="../../d7/d50/growvector_8h.html" target="_top" xlink:title=" ">
<polygon fill="#ffffff" stroke="#666666" points="800,-129 727,-129 727,-110 800,-110 800,-129"/>
<text text-anchor="middle" x="763.5" y="-117" font-family="Helvetica,sans-Serif" font-size="10.00" fill="#000000">growvector.h</text>
</a>
</g>
</g>
<!-- Node15&#45;&gt;Node20 -->
<g id="edge38" class="edge">
<title>Node15&#45;&gt;Node20</title>
<path fill="none" stroke="#63b8ff" d="M653.68,-226.7189C702.8345,-221.6173 794.793,-208.923 814.5,-184 827.8603,-167.1036 807.753,-147.7171 788.9894,-134.646"/>
<polygon fill="#63b8ff" stroke="#63b8ff" points="790.8652,-131.6906 780.5878,-129.1164 787.0167,-137.5378 790.8652,-131.6906"/>
</g>
<!-- Node22 -->
<g id="node22" class="node">
<title>Node22</title>
<g id="a_node22"><a xlink:href="../../d0/d73/htmlattrib_8h.html" target="_top" xlink:title=" ">
<polygon fill="#ffffff" stroke="#666666" points="655,-184 590,-184 590,-165 655,-165 655,-184"/>
<text text-anchor="middle" x="622.5" y="-172" font-family="Helvetica,sans-Serif" font-size="10.00" fill="#000000">htmlattrib.h</text>
</a>
</g>
</g>
<!-- Node15&#45;&gt;Node22 -->
<g id="edge31" class="edge">
<title>Node15&#45;&gt;Node22</title>
<path fill="none" stroke="#63b8ff" d="M622.5,-219.9197C622.5,-212.9083 622.5,-203.1442 622.5,-194.4652"/>
<polygon fill="#63b8ff" stroke="#63b8ff" points="626.0001,-194.3408 622.5,-184.3408 619.0001,-194.3409 626.0001,-194.3408"/>
</g>
<!-- Node23 -->
<g id="node23" class="node">
<title>Node23</title>
<g id="a_node23"><a xlink:href="../../db/dc6/htmlentity_8h.html" target="_top" xlink:title=" ">
<polygon fill="#ffffff" stroke="#666666" points="281.5,-184 213.5,-184 213.5,-165 281.5,-165 281.5,-184"/>
<text text-anchor="middle" x="247.5" y="-172" font-family="Helvetica,sans-Serif" font-size="10.00" fill="#000000">htmlentity.h</text>
</a>
</g>
</g>
<!-- Node15&#45;&gt;Node23 -->
<g id="edge34" class="edge">
<title>Node15&#45;&gt;Node23</title>
<path fill="none" stroke="#63b8ff" d="M591.4931,-224.9523C525.1251,-215.2183 369.1023,-192.335 292.0944,-181.0405"/>
<polygon fill="#63b8ff" stroke="#63b8ff" points="292.1723,-177.5146 281.7703,-179.5263 291.1565,-184.4405 292.1723,-177.5146"/>
</g>
<!-- Node19&#45;&gt;Node4 -->
<g id="edge25" class="edge">
<title>Node19&#45;&gt;Node4</title>
<path fill="none" stroke="#63b8ff" d="M755.9359,-164.7148C744.0903,-156.5178 728.2183,-143.7999 718.5,-129 709.6517,-115.5251 704.5387,-97.9178 701.7011,-84.5045"/>
<polygon fill="#63b8ff" stroke="#63b8ff" points="705.0923,-83.5968 699.8206,-74.4066 698.2106,-84.8784 705.0923,-83.5968"/>
</g>
<!-- Node19&#45;&gt;Node5 -->
<g id="edge26" class="edge">
<title>Node19&#45;&gt;Node5</title>
<path fill="none" stroke="#63b8ff" d="M737.2691,-166.7514C734.3076,-166.1375 731.3536,-165.545 728.5,-165 642.4677,-148.57 540.9191,-133.1535 486.2134,-125.1724"/>
<polygon fill="#63b8ff" stroke="#63b8ff" points="486.6358,-121.6971 476.2366,-123.7236 485.6298,-128.6244 486.6358,-121.6971"/>
</g>
<!-- Node19&#45;&gt;Node16 -->
<g id="edge24" class="edge">
<title>Node19&#45;&gt;Node16</title>
<path fill="none" stroke="#63b8ff" d="M790.3122,-164.9197C807.2434,-156.2973 832.3492,-143.512 851.6142,-133.7011"/>
<polygon fill="#63b8ff" stroke="#63b8ff" points="853.2183,-136.812 860.541,-129.155 850.0417,-130.5742 853.2183,-136.812"/>
</g>
<!-- Node19&#45;&gt;Node20 -->
<g id="edge27" class="edge">
<title>Node19&#45;&gt;Node20</title>
<path fill="none" stroke="#63b8ff" d="M770.1065,-164.9197C769.0867,-157.9083 767.6664,-148.1442 766.404,-139.4652"/>
<polygon fill="#63b8ff" stroke="#63b8ff" points="769.8344,-138.7329 764.9314,-129.3408 762.9073,-139.7405 769.8344,-138.7329"/>
</g>
<!-- Node20&#45;&gt;Node4 -->
<g id="edge29" class="edge">
<title>Node20&#45;&gt;Node4</title>
<path fill="none" stroke="#63b8ff" d="M752.1779,-109.9197C742.7868,-101.9735 729.2173,-90.4916 718.0715,-81.0605"/>
<polygon fill="#63b8ff" stroke="#63b8ff" points="720.0248,-78.1284 710.1301,-74.3408 715.5031,-83.4721 720.0248,-78.1284"/>
</g>
<!-- Node20&#45;&gt;Node17 -->
<g id="edge28" class="edge">
<title>Node20&#45;&gt;Node17</title>
<path fill="none" stroke="#63b8ff" d="M775.1705,-109.9197C784.9454,-101.8956 799.1122,-90.2661 810.6635,-80.7837"/>
<polygon fill="#63b8ff" stroke="#63b8ff" points="813.0035,-83.3911 818.5121,-74.3408 808.562,-77.9805 813.0035,-83.3911"/>
</g>
<!-- Node21 -->
<g id="node21" class="node">
<title>Node21</title>
<g id="a_node21"><a xlink:title=" ">
<polygon fill="#e0e0e0" stroke="#999999" points="790,-74 743,-74 743,-55 790,-55 790,-74"/>
<text text-anchor="middle" x="766.5" y="-62" font-family="Helvetica,sans-Serif" font-size="10.00" fill="#000000">iterator</text>
</a>
</g>
</g>
<!-- Node20&#45;&gt;Node21 -->
<g id="edge30" class="edge">
<title>Node20&#45;&gt;Node21</title>
<path fill="none" stroke="#63b8ff" d="M764.0226,-109.9197C764.405,-102.9083 764.9376,-93.1442 765.411,-84.4652"/>
<polygon fill="#63b8ff" stroke="#63b8ff" points="768.9133,-84.5166 765.9632,-74.3408 761.9237,-84.1353 768.9133,-84.5166"/>
</g>
<!-- Node22&#45;&gt;Node5 -->
<g id="edge33" class="edge">
<title>Node22&#45;&gt;Node5</title>
<path fill="none" stroke="#63b8ff" d="M591.8431,-164.9197C562.5164,-155.7551 518.1402,-141.8876 486.1394,-131.8873"/>
<polygon fill="#63b8ff" stroke="#63b8ff" points="486.8079,-128.4294 476.2191,-128.7872 484.7199,-135.1107 486.8079,-128.4294"/>
</g>
<!-- Node22&#45;&gt;Node17 -->
<g id="edge32" class="edge">
<title>Node22&#45;&gt;Node17</title>
<path fill="none" stroke="#63b8ff" d="M655.3076,-166.944C708.1756,-154.7089 806.6357,-131.6543 809.5,-129 821.7685,-117.6311 826.8877,-99.0234 829.0142,-84.7086"/>
<polygon fill="#63b8ff" stroke="#63b8ff" points="832.5372,-84.6933 830.1575,-74.3692 825.5796,-83.924 832.5372,-84.6933"/>
</g>
<!-- Node23&#45;&gt;Node5 -->
<g id="edge37" class="edge">
<title>Node23&#45;&gt;Node5</title>
<path fill="none" stroke="#63b8ff" d="M281.7093,-165.0452C316.5502,-155.4158 370.5135,-140.5013 407.1156,-130.3851"/>
<polygon fill="#63b8ff" stroke="#63b8ff" points="408.2423,-133.705 416.9486,-127.6675 406.3775,-126.958 408.2423,-133.705"/>
</g>
<!-- Node23&#45;&gt;Node6 -->
<g id="edge36" class="edge">
<title>Node23&#45;&gt;Node6</title>
<path fill="none" stroke="#63b8ff" d="M233.2836,-164.7708C211.297,-148.7884 169.7797,-114.6576 152.5,-74 146.5313,-59.9561 146.0619,-42.6105 146.9311,-29.4453"/>
<polygon fill="#63b8ff" stroke="#63b8ff" points="150.4488,-29.4323 147.9349,-19.1401 143.4818,-28.7536 150.4488,-29.4323"/>
</g>
<!-- Node24 -->
<g id="node24" class="node">
<title>Node24</title>
<g id="a_node24"><a xlink:title=" ">
<polygon fill="#e0e0e0" stroke="#999999" points="83,-129 0,-129 0,-110 83,-110 83,-129"/>
<text text-anchor="middle" x="41.5" y="-117" font-family="Helvetica,sans-Serif" font-size="10.00" fill="#000000">unordered_map</text>
</a>
</g>
</g>
<!-- Node23&#45;&gt;Node24 -->
<g id="edge35" class="edge">
<title>Node23&#45;&gt;Node24</title>
<path fill="none" stroke="#63b8ff" d="M213.4833,-165.4179C178.9703,-156.2032 125.3331,-141.8826 87.1417,-131.6859"/>
<polygon fill="#63b8ff" stroke="#63b8ff" points="87.8623,-128.2558 77.2979,-129.0577 86.0566,-135.0189 87.8623,-128.2558"/>
</g>
</g>
</svg>
        <g id="navigator" transform="translate(0 0)" fill="#404254">
                <rect fill="#f2f5e9" fill-opacity="0.5" stroke="#606060" stroke-width=".5" x="0" y="0" width="60" height="60"/>
                <use id="zoomplus" xlink:href="#zoomPlus" x="17" y="9" onmousedown="handleZoom(evt,'in')"/>
                <use id="zoomminus" xlink:href="#zoomMin" x="42" y="9" onmousedown="handleZoom(evt,'out')"/>
                <use id="reset" xlink:href="#resetDef" x="30" y="36" onmousedown="handleReset()"/>
                <g id="arrowUp" xlink:href="#dirArrow" transform="translate(30 24)" onmousedown="handlePan(0,-1)">
                  <use xlink:href="#rim" fill="#404040">
                        <set attributeName="fill" to="#808080" begin="arrowUp.mouseover" end="arrowUp.mouseout"/>
                  </use>
                  <path fill="none" stroke="white" stroke-width="1.5" d="M0,-3.0v7 M-2.5,-0.5L0,-3.0L2.5,-0.5"/>
                </g>
                <g id="arrowRight" xlink:href="#dirArrow" transform="rotate(90) translate(36 -43)" onmousedown="handlePan(1,0)">
                  <use xlink:href="#rim" fill="#404040">
                        <set attributeName="fill" to="#808080" begin="arrowRight.mouseover" end="arrowRight.mouseout"/>
                  </use>
                  <path fill="none" stroke="white" stroke-width="1.5" d="M0,-3.0v7 M-2.5,-0.5L0,-3.0L2.5,-0.5"/>
                </g>
                <g id="arrowDown" xlink:href="#dirArrow" transform="rotate(180) translate(-30 -48)" onmousedown="handlePan(0,1)">
                  <use xlink:href="#rim" fill="#404040">
                        <set attributeName="fill" to="#808080" begin="arrowDown.mouseover" end="arrowDown.mouseout"/>
                  </use>
                  <path fill="none" stroke="white" stroke-width="1.5" d="M0,-3.0v7 M-2.5,-0.5L0,-3.0L2.5,-0.5"/>
                </g>
                <g id="arrowLeft" xlink:href="#dirArrow" transform="rotate(270) translate(-36 17)" onmousedown="handlePan(-1,0)">
                  <use xlink:href="#rim" fill="#404040">
                        <set attributeName="fill" to="#808080" begin="arrowLeft.mouseover" end="arrowLeft.mouseout"/>
                  </use>
                  <path fill="none" stroke="white" stroke-width="1.5" d="M0,-3.0v7 M-2.5,-0.5L0,-3.0L2.5,-0.5"/>
                </g>
        </g>
        <svg viewBox="0 0 15 15" width="100%" height="30px" preserveAspectRatio="xMaxYMin meet">
         <g id="arrow_out" transform="scale(0.3 0.3)">
          <a xlink:href="rtfdocvisitor_8h__incl_org.svg" target="_base">
           <rect id="button" ry="5" rx="5" y="6" x="6" height="38" width="38"
                fill="#f2f5e9" fill-opacity="0.5" stroke="#606060" stroke-width="1.0"/>
           <path id="arrow"
             d="M 11.500037,31.436501 C 11.940474,20.09759 22.043105,11.32322 32.158766,21.979434 L 37.068811,17.246167 C 37.068811,17.246167 37.088388,32 37.088388,32 L 22.160133,31.978069 C 22.160133,31.978069 26.997745,27.140456 26.997745,27.140456 C 18.528582,18.264221 13.291696,25.230495 11.500037,31.436501 z"
             style="fill:#404040;"/>
          </a>
         </g>
        </svg>
</svg>
