<?xml version="1.0" encoding="UTF-8" standalone="no"?>
<!DOCTYPE svg PUBLIC "-//W3C//DTD SVG 1.1//EN"
 "http://www.w3.org/Graphics/SVG/1.1/DTD/svg11.dtd">
<!-- Generated by graphviz version 2.40.1 (20161225.0304)
 -->
<!-- Title: DotLegendGraph Pages: 1 -->
<svg width="138pt" height="193pt"
 viewBox="0.00 0.00 138.00 193.00" xmlns="http://www.w3.org/2000/svg" xmlns:xlink="http://www.w3.org/1999/xlink">
<g id="graph0" class="graph" transform="scale(1 1) rotate(0) translate(4 189)">
<title>DotLegendGraph</title>
<!-- Node1 -->
<g id="node1" class="node">
<title>Node1</title>
<g id="a_node1"><a xlink:title="Representation of a legend explaining the meaning of boxes, arrows, and colors.">
<polygon fill="#999999" stroke="#666666" points="90,-19 0,-19 0,0 90,0 90,-19"/>
<text text-anchor="middle" x="45" y="-7" font-family="Helvetica,sans-Serif" font-size="10.00" fill="#000000">DotLegendGraph</text>
</a>
</g>
</g>
<!-- Node2 -->
<g id="node2" class="node">
<title>Node2</title>
<g id="a_node2"><a xlink:href="../../d0/d32/class_dot_graph.html" target="_top" xlink:title="A dot graph.">
<polygon fill="#ffffff" stroke="#666666" points="74.5,-75 15.5,-75 15.5,-56 74.5,-56 74.5,-75"/>
<text text-anchor="middle" x="45" y="-63" font-family="Helvetica,sans-Serif" font-size="10.00" fill="#000000">DotGraph</text>
</a>
</g>
</g>
<!-- Node2&#45;&gt;Node1 -->
<g id="edge1" class="edge">
<title>Node2&#45;&gt;Node1</title>
<path fill="none" stroke="#63b8ff" d="M45,-45.6575C45,-36.655 45,-26.4199 45,-19.1427"/>
<polygon fill="#63b8ff" stroke="#63b8ff" points="41.5001,-45.7455 45,-55.7455 48.5001,-45.7456 41.5001,-45.7455"/>
</g>
<!-- Node3 -->
<g id="node3" class="node">
<title>Node3</title>
<g id="a_node3"><a xlink:href="../../d2/dc2/class_dir.html" target="_top" xlink:title="Class representing a directory in the file system.">
<polygon fill="#ffffff" stroke="#666666" points="29.5,-185 .5,-185 .5,-166 29.5,-166 29.5,-185"/>
<text text-anchor="middle" x="15" y="-173" font-family="Helvetica,sans-Serif" font-size="10.00" fill="#000000">Dir</text>
</a>
</g>
</g>
<!-- Node3&#45;&gt;Node2 -->
<g id="edge2" class="edge">
<title>Node3&#45;&gt;Node2</title>
<path fill="none" stroke="#9a32cd" stroke-dasharray="5,2" d="M15.0645,-155.5632C15.7204,-138.4409 18.1324,-113.3705 26,-93 28.5089,-86.5041 32.8405,-80.0556 36.7348,-75.0374"/>
<polygon fill="#9a32cd" stroke="#9a32cd" points="11.5563,-155.9206 14.8456,-165.9919 18.5548,-156.0676 11.5563,-155.9206"/>
<text text-anchor="middle" x="40" y="-118" font-family="Helvetica,sans-Serif" font-size="10.00" fill="#000000"> m_dir</text>
</g>
<!-- Node4 -->
<g id="node4" class="node">
<title>Node4</title>
<g id="a_node4"><a xlink:href="../../d9/d45/class_q_c_string.html" target="_top" xlink:title="This is an alternative implementation of QCString.">
<polygon fill="#ffffff" stroke="#666666" points="104.5,-185 47.5,-185 47.5,-166 104.5,-166 104.5,-185"/>
<text text-anchor="middle" x="76" y="-173" font-family="Helvetica,sans-Serif" font-size="10.00" fill="#000000">QCString</text>
</a>
</g>
</g>
<!-- Node4&#45;&gt;Node2 -->
<g id="edge3" class="edge">
<title>Node4&#45;&gt;Node2</title>
<path fill="none" stroke="#9a32cd" stroke-dasharray="5,2" d="M71.1411,-156.0575C66.8718,-139.2853 60.3646,-114.4498 54,-93 52.2281,-87.0282 50.0611,-80.3896 48.2976,-75.1312"/>
<polygon fill="#9a32cd" stroke="#9a32cd" points="67.7587,-156.9588 73.5994,-165.7983 74.5459,-155.2458 67.7587,-156.9588"/>
<text text-anchor="middle" x="99.5" y="-140" font-family="Helvetica,sans-Serif" font-size="10.00" fill="#000000"> m_absPath</text>
<text text-anchor="middle" x="99.5" y="-129" font-family="Helvetica,sans-Serif" font-size="10.00" fill="#000000">m_baseName</text>
<text text-anchor="middle" x="99.5" y="-118" font-family="Helvetica,sans-Serif" font-size="10.00" fill="#000000">m_fileName</text>
<text text-anchor="middle" x="99.5" y="-107" font-family="Helvetica,sans-Serif" font-size="10.00" fill="#000000">m_relPath</text>
<text text-anchor="middle" x="99.5" y="-96" font-family="Helvetica,sans-Serif" font-size="10.00" fill="#000000">m_theGraph</text>
</g>
</g>
</svg>
