<?xml version="1.0" encoding="UTF-8" standalone="no"?>
<!DOCTYPE svg PUBLIC "-//W3C//DTD SVG 1.1//EN"
 "http://www.w3.org/Graphics/SVG/1.1/DTD/svg11.dtd">
<!-- Generated by graphviz version 2.40.1 (20161225.0304)
 -->
<!-- Title: TemplateImpl Pages: 1 -->
<svg width="654pt" height="160pt"
 viewBox="0.00 0.00 654.00 160.00" xmlns="http://www.w3.org/2000/svg" xmlns:xlink="http://www.w3.org/1999/xlink">
<g id="graph0" class="graph" transform="scale(1 1) rotate(0) translate(4 156)">
<title>TemplateImpl</title>
<!-- Node1 -->
<g id="node1" class="node">
<title>Node1</title>
<g id="a_node1"><a xlink:title="Internal class representing the implementation of a template.">
<polygon fill="#999999" stroke="#666666" points="362,-19 286,-19 286,0 362,0 362,-19"/>
<text text-anchor="middle" x="324" y="-7" font-family="Helvetica,sans-Serif" font-size="10.00" fill="#000000">TemplateImpl</text>
</a>
</g>
</g>
<!-- Node2 -->
<g id="node2" class="node">
<title>Node2</title>
<g id="a_node2"><a xlink:href="../../d6/d53/class_template_node.html" target="_top" xlink:title="Base class of all nodes in a template&#39;s AST.">
<polygon fill="#ffffff" stroke="#666666" points="80,-85 0,-85 0,-66 80,-66 80,-85"/>
<text text-anchor="middle" x="40" y="-73" font-family="Helvetica,sans-Serif" font-size="10.00" fill="#000000">TemplateNode</text>
</a>
</g>
</g>
<!-- Node2&#45;&gt;Node1 -->
<g id="edge1" class="edge">
<title>Node2&#45;&gt;Node1</title>
<path fill="none" stroke="#63b8ff" d="M90.1323,-63.8495C146.0946,-50.8442 235.411,-30.0876 285.9311,-18.347"/>
<polygon fill="#63b8ff" stroke="#63b8ff" points="89.0361,-60.5109 80.0879,-66.1838 90.6206,-67.3292 89.0361,-60.5109"/>
</g>
<!-- Node2&#45;&gt;Node2 -->
<g id="edge2" class="edge">
<title>Node2&#45;&gt;Node2</title>
<path fill="none" stroke="#9a32cd" stroke-dasharray="5,2" d="M90.2648,-79.718C95.0048,-78.8542 98,-77.4482 98,-75.5 98,-72.3828 90.3323,-70.6537 80.1186,-70.3128"/>
<polygon fill="#9a32cd" stroke="#9a32cd" points="89.7405,-76.2521 80.1186,-80.6872 90.4062,-83.2204 89.7405,-76.2521"/>
<text text-anchor="middle" x="120" y="-73" font-family="Helvetica,sans-Serif" font-size="10.00" fill="#000000"> m_parent</text>
</g>
<!-- Node3 -->
<g id="node3" class="node">
<title>Node3</title>
<g id="a_node3"><a xlink:href="../../d5/de9/class_template.html" target="_top" xlink:title="Abstract interface for a template.">
<polygon fill="#ffffff" stroke="#666666" points="217.5,-85 160.5,-85 160.5,-66 217.5,-66 217.5,-85"/>
<text text-anchor="middle" x="189" y="-73" font-family="Helvetica,sans-Serif" font-size="10.00" fill="#000000">Template</text>
</a>
</g>
</g>
<!-- Node3&#45;&gt;Node1 -->
<g id="edge3" class="edge">
<title>Node3&#45;&gt;Node1</title>
<path fill="none" stroke="#63b8ff" d="M217.658,-61.4894C243.7365,-48.7399 281.5401,-30.2581 304.3461,-19.1085"/>
<polygon fill="#63b8ff" stroke="#63b8ff" points="216.0768,-58.3665 208.6302,-65.903 219.1513,-64.6552 216.0768,-58.3665"/>
</g>
<!-- Node4 -->
<g id="node4" class="node">
<title>Node4</title>
<g id="a_node4"><a xlink:href="../../d0/d1d/class_template_engine.html" target="_top" xlink:title="Engine to create templates and template contexts.">
<polygon fill="#ffffff" stroke="#666666" points="322.5,-85 235.5,-85 235.5,-66 322.5,-66 322.5,-85"/>
<text text-anchor="middle" x="279" y="-73" font-family="Helvetica,sans-Serif" font-size="10.00" fill="#000000">TemplateEngine</text>
</a>
</g>
</g>
<!-- Node4&#45;&gt;Node1 -->
<g id="edge4" class="edge">
<title>Node4&#45;&gt;Node1</title>
<path fill="none" stroke="#9a32cd" stroke-dasharray="5,2" d="M288.9689,-56.512C292.5333,-50.16 296.7299,-43.1378 301,-37 305.3365,-30.7668 310.7633,-24.229 315.2564,-19.0926"/>
<polygon fill="#9a32cd" stroke="#9a32cd" points="285.6657,-55.2607 283.9687,-65.7188 291.817,-58.6016 285.6657,-55.2607"/>
<text text-anchor="middle" x="324" y="-40" font-family="Helvetica,sans-Serif" font-size="10.00" fill="#000000"> m_engine</text>
</g>
<!-- Node5 -->
<g id="node5" class="node">
<title>Node5</title>
<g id="a_node5"><a xlink:href="../../d9/d45/class_q_c_string.html" target="_top" xlink:title="This is an alternative implementation of QCString.">
<polygon fill="#ffffff" stroke="#666666" points="397.5,-85 340.5,-85 340.5,-66 397.5,-66 397.5,-85"/>
<text text-anchor="middle" x="369" y="-73" font-family="Helvetica,sans-Serif" font-size="10.00" fill="#000000">QCString</text>
</a>
</g>
</g>
<!-- Node5&#45;&gt;Node1 -->
<g id="edge5" class="edge">
<title>Node5&#45;&gt;Node1</title>
<path fill="none" stroke="#9a32cd" stroke-dasharray="5,2" d="M359.0311,-56.512C355.4667,-50.16 351.2701,-43.1378 347,-37 342.6635,-30.7668 337.2367,-24.229 332.7436,-19.0926"/>
<polygon fill="#9a32cd" stroke="#9a32cd" points="356.183,-58.6016 364.0313,-65.7188 362.3343,-55.2607 356.183,-58.6016"/>
<text text-anchor="middle" x="373.5" y="-40" font-family="Helvetica,sans-Serif" font-size="10.00" fill="#000000"> m_name</text>
</g>
<!-- Node6 -->
<g id="node6" class="node">
<title>Node6</title>
<g id="a_node6"><a xlink:href="../../df/daf/class_template_node_list.html" target="_top" xlink:title="Class representing a list of AST nodes in a template.">
<polygon fill="#ffffff" stroke="#666666" points="512,-85 416,-85 416,-66 512,-66 512,-85"/>
<text text-anchor="middle" x="464" y="-73" font-family="Helvetica,sans-Serif" font-size="10.00" fill="#000000">TemplateNodeList</text>
</a>
</g>
</g>
<!-- Node6&#45;&gt;Node1 -->
<g id="edge6" class="edge">
<title>Node6&#45;&gt;Node1</title>
<path fill="none" stroke="#9a32cd" stroke-dasharray="5,2" d="M440.4384,-60.4231C428.0792,-52.86 412.5239,-43.872 398,-37 383.6289,-30.2003 367.0878,-23.9164 353.2939,-19.0771"/>
<polygon fill="#9a32cd" stroke="#9a32cd" points="438.8565,-63.561 449.1966,-65.8704 442.5535,-57.6169 438.8565,-63.561"/>
<text text-anchor="middle" x="439.5" y="-40" font-family="Helvetica,sans-Serif" font-size="10.00" fill="#000000"> m_nodes</text>
</g>
<!-- Node7 -->
<g id="node7" class="node">
<title>Node7</title>
<g id="a_node7"><a xlink:title=" ">
<polygon fill="#ffffff" stroke="#666666" points="532,-152 396,-152 396,-122 532,-122 532,-152"/>
<text text-anchor="start" x="404" y="-140" font-family="Helvetica,sans-Serif" font-size="10.00" fill="#000000">std::vector&lt; TemplateNode</text>
<text text-anchor="middle" x="464" y="-129" font-family="Helvetica,sans-Serif" font-size="10.00" fill="#000000">Ptr &gt;</text>
</a>
</g>
</g>
<!-- Node7&#45;&gt;Node6 -->
<g id="edge7" class="edge">
<title>Node7&#45;&gt;Node6</title>
<path fill="none" stroke="#63b8ff" d="M464,-111.7849C464,-102.4858 464,-92.4883 464,-85.3469"/>
<polygon fill="#63b8ff" stroke="#63b8ff" points="460.5001,-111.7977 464,-121.7977 467.5001,-111.7978 460.5001,-111.7977"/>
</g>
<!-- Node8 -->
<g id="node8" class="node">
<title>Node8</title>
<g id="a_node8"><a xlink:href="../../dc/d7f/class_template_block_context.html" target="_top" xlink:title="Class holding stacks of blocks available in the context.">
<polygon fill="#ffffff" stroke="#666666" points="646,-85 530,-85 530,-66 646,-66 646,-85"/>
<text text-anchor="middle" x="588" y="-73" font-family="Helvetica,sans-Serif" font-size="10.00" fill="#000000">TemplateBlockContext</text>
</a>
</g>
</g>
<!-- Node8&#45;&gt;Node1 -->
<g id="edge8" class="edge">
<title>Node8&#45;&gt;Node1</title>
<path fill="none" stroke="#9a32cd" stroke-dasharray="5,2" d="M550.881,-62.7019C526.6324,-54.635 494.1689,-44.3854 465,-37 430.5471,-28.2767 390.7613,-20.7441 362.2548,-15.7794"/>
<polygon fill="#9a32cd" stroke="#9a32cd" points="549.8118,-66.0349 560.4058,-65.8987 552.0392,-59.3987 549.8118,-66.0349"/>
<text text-anchor="middle" x="539.5" y="-40" font-family="Helvetica,sans-Serif" font-size="10.00" fill="#000000"> m_blockContext</text>
</g>
</g>
</svg>
