<?xml version="1.0" encoding="UTF-8" standalone="no"?>
<!DOCTYPE svg PUBLIC "-//W3C//DTD SVG 1.1//EN"
 "http://www.w3.org/Graphics/SVG/1.1/DTD/svg11.dtd">
<!-- Generated by graphviz version 2.40.1 (20161225.0304)
 -->
<!-- Title: src/conceptdef.h Pages: 1 -->
<svg width="953pt" height="577pt"
 viewBox="0.00 0.00 953.00 577.00" xmlns="http://www.w3.org/2000/svg" xmlns:xlink="http://www.w3.org/1999/xlink">
<g id="graph0" class="graph" transform="scale(1 1) rotate(0) translate(4 573)">
<title>src/conceptdef.h</title>
<!-- Node1 -->
<g id="node1" class="node">
<title>Node1</title>
<g id="a_node1"><a xlink:title=" ">
<polygon fill="#999999" stroke="#666666" points="260.5,-569 171.5,-569 171.5,-550 260.5,-550 260.5,-569"/>
<text text-anchor="middle" x="216" y="-557" font-family="Helvetica,sans-Serif" font-size="10.00" fill="#000000">src/conceptdef.h</text>
</a>
</g>
</g>
<!-- Node2 -->
<g id="node2" class="node">
<title>Node2</title>
<g id="a_node2"><a xlink:href="../../df/da1/definition_8h.html" target="_top" xlink:title=" ">
<polygon fill="#ffffff" stroke="#666666" points="206,-294 142,-294 142,-275 206,-275 206,-294"/>
<text text-anchor="middle" x="174" y="-282" font-family="Helvetica,sans-Serif" font-size="10.00" fill="#000000">definition.h</text>
</a>
</g>
</g>
<!-- Node1&#45;&gt;Node2 -->
<g id="edge1" class="edge">
<title>Node1&#45;&gt;Node2</title>
<path fill="none" stroke="#63b8ff" d="M171.2447,-556.321C107.9769,-549.1189 0,-525.6697 0,-449.5 0,-449.5 0,-449.5 0,-394.5 0,-332.3483 80.2971,-303.8761 131.7962,-292.0065"/>
<polygon fill="#63b8ff" stroke="#63b8ff" points="132.6563,-295.4012 141.6797,-289.8489 131.1633,-288.5623 132.6563,-295.4012"/>
</g>
<!-- Node19 -->
<g id="node19" class="node">
<title>Node19</title>
<g id="a_node19"><a xlink:href="../../d4/d3a/filedef_8h.html" target="_top" xlink:title=" ">
<polygon fill="#ffffff" stroke="#666666" points="554.5,-514 503.5,-514 503.5,-495 554.5,-495 554.5,-514"/>
<text text-anchor="middle" x="529" y="-502" font-family="Helvetica,sans-Serif" font-size="10.00" fill="#000000">filedef.h</text>
</a>
</g>
</g>
<!-- Node1&#45;&gt;Node19 -->
<g id="edge29" class="edge">
<title>Node1&#45;&gt;Node19</title>
<path fill="none" stroke="#63b8ff" d="M260.5129,-551.6783C323.1146,-540.678 435.9199,-520.8559 493.3354,-510.7669"/>
<polygon fill="#63b8ff" stroke="#63b8ff" points="494.1436,-514.1786 503.3869,-509.0007 492.9321,-507.2843 494.1436,-514.1786"/>
</g>
<!-- Node3 -->
<g id="node3" class="node">
<title>Node3</title>
<g id="a_node3"><a xlink:title=" ">
<polygon fill="#e0e0e0" stroke="#999999" points="281,-129 237,-129 237,-110 281,-110 281,-129"/>
<text text-anchor="middle" x="259" y="-117" font-family="Helvetica,sans-Serif" font-size="10.00" fill="#000000">vector</text>
</a>
</g>
</g>
<!-- Node2&#45;&gt;Node3 -->
<g id="edge2" class="edge">
<title>Node2&#45;&gt;Node3</title>
<path fill="none" stroke="#63b8ff" d="M171.7365,-274.9318C167.2133,-253.4337 159.2531,-200.4211 181,-165 191.3538,-148.1359 210.4606,-136.8403 227.1715,-129.7218"/>
<polygon fill="#63b8ff" stroke="#63b8ff" points="228.619,-132.9137 236.6495,-126.0027 226.062,-126.3974 228.619,-132.9137"/>
</g>
<!-- Node4 -->
<g id="node4" class="node">
<title>Node4</title>
<g id="a_node4"><a xlink:href="../../d9/d49/types_8h.html" target="_top" xlink:title="This file contains a number of basic enums and types.">
<polygon fill="#ffffff" stroke="#666666" points="324.5,-239 275.5,-239 275.5,-220 324.5,-220 324.5,-239"/>
<text text-anchor="middle" x="300" y="-227" font-family="Helvetica,sans-Serif" font-size="10.00" fill="#000000">types.h</text>
</a>
</g>
</g>
<!-- Node2&#45;&gt;Node4 -->
<g id="edge3" class="edge">
<title>Node2&#45;&gt;Node4</title>
<path fill="none" stroke="#63b8ff" d="M195.9475,-274.9197C216.0598,-266.1406 246.0589,-253.0457 268.6857,-243.1689"/>
<polygon fill="#63b8ff" stroke="#63b8ff" points="270.1165,-246.3634 277.8812,-239.155 267.3161,-239.9479 270.1165,-246.3634"/>
</g>
<!-- Node15 -->
<g id="node15" class="node">
<title>Node15</title>
<g id="a_node15"><a xlink:href="../../d1/d02/reflist_8h.html" target="_top" xlink:title=" ">
<polygon fill="#ffffff" stroke="#666666" points="468.5,-239 419.5,-239 419.5,-220 468.5,-220 468.5,-239"/>
<text text-anchor="middle" x="444" y="-227" font-family="Helvetica,sans-Serif" font-size="10.00" fill="#000000">reflist.h</text>
</a>
</g>
</g>
<!-- Node2&#45;&gt;Node15 -->
<g id="edge16" class="edge">
<title>Node2&#45;&gt;Node15</title>
<path fill="none" stroke="#63b8ff" d="M206.0328,-277.9748C257.1062,-267.571 356.588,-247.3062 409.295,-236.5695"/>
<polygon fill="#63b8ff" stroke="#63b8ff" points="410.0845,-239.9807 419.1846,-234.555 408.6872,-233.1215 410.0845,-239.9807"/>
</g>
<!-- Node5 -->
<g id="node5" class="node">
<title>Node5</title>
<g id="a_node5"><a xlink:href="../../d7/d5c/qcstring_8h.html" target="_top" xlink:title=" ">
<polygon fill="#ffffff" stroke="#666666" points="466.5,-129 407.5,-129 407.5,-110 466.5,-110 466.5,-129"/>
<text text-anchor="middle" x="437" y="-117" font-family="Helvetica,sans-Serif" font-size="10.00" fill="#000000">qcstring.h</text>
</a>
</g>
</g>
<!-- Node4&#45;&gt;Node5 -->
<g id="edge4" class="edge">
<title>Node4&#45;&gt;Node5</title>
<path fill="none" stroke="#63b8ff" d="M312.1578,-219.7382C335.778,-200.7732 388.0749,-158.7829 416.9228,-135.6204"/>
<polygon fill="#63b8ff" stroke="#63b8ff" points="419.4587,-138.0728 425.065,-129.0828 415.0761,-132.6145 419.4587,-138.0728"/>
</g>
<!-- Node6 -->
<g id="node6" class="node">
<title>Node6</title>
<g id="a_node6"><a xlink:title=" ">
<polygon fill="#e0e0e0" stroke="#999999" points="612.5,-19 571.5,-19 571.5,0 612.5,0 612.5,-19"/>
<text text-anchor="middle" x="592" y="-7" font-family="Helvetica,sans-Serif" font-size="10.00" fill="#000000">string</text>
</a>
</g>
</g>
<!-- Node5&#45;&gt;Node6 -->
<g id="edge5" class="edge">
<title>Node5&#45;&gt;Node6</title>
<path fill="none" stroke="#63b8ff" d="M457.8416,-109.9604C475.3568,-101.5404 500.7083,-88.393 521,-74 541.2115,-59.6639 561.9141,-40.2026 575.7087,-26.4174"/>
<polygon fill="#63b8ff" stroke="#63b8ff" points="578.4529,-28.619 582.9765,-19.0384 573.4657,-23.7069 578.4529,-28.619"/>
</g>
<!-- Node7 -->
<g id="node7" class="node">
<title>Node7</title>
<g id="a_node7"><a xlink:title=" ">
<polygon fill="#e0e0e0" stroke="#999999" points="727,-74 671,-74 671,-55 727,-55 727,-74"/>
<text text-anchor="middle" x="699" y="-62" font-family="Helvetica,sans-Serif" font-size="10.00" fill="#000000">algorithm</text>
</a>
</g>
</g>
<!-- Node5&#45;&gt;Node7 -->
<g id="edge6" class="edge">
<title>Node5&#45;&gt;Node7</title>
<path fill="none" stroke="#63b8ff" d="M466.5454,-113.2977C514.2215,-103.2894 608.0917,-83.5838 660.7904,-72.5211"/>
<polygon fill="#63b8ff" stroke="#63b8ff" points="661.6877,-75.9091 670.7553,-70.4292 660.2496,-69.0584 661.6877,-75.9091"/>
</g>
<!-- Node8 -->
<g id="node8" class="node">
<title>Node8</title>
<g id="a_node8"><a xlink:title=" ">
<polygon fill="#e0e0e0" stroke="#999999" points="615,-74 569,-74 569,-55 615,-55 615,-74"/>
<text text-anchor="middle" x="592" y="-62" font-family="Helvetica,sans-Serif" font-size="10.00" fill="#000000">cctype</text>
</a>
</g>
</g>
<!-- Node5&#45;&gt;Node8 -->
<g id="edge7" class="edge">
<title>Node5&#45;&gt;Node8</title>
<path fill="none" stroke="#63b8ff" d="M463.9989,-109.9197C490.5339,-100.5041 531.0586,-86.1244 559.3811,-76.0744"/>
<polygon fill="#63b8ff" stroke="#63b8ff" points="560.5935,-79.3581 568.8473,-72.7155 558.2525,-72.7611 560.5935,-79.3581"/>
</g>
<!-- Node9 -->
<g id="node9" class="node">
<title>Node9</title>
<g id="a_node9"><a xlink:title=" ">
<polygon fill="#e0e0e0" stroke="#999999" points="258,-74 212,-74 212,-55 258,-55 258,-74"/>
<text text-anchor="middle" x="235" y="-62" font-family="Helvetica,sans-Serif" font-size="10.00" fill="#000000">cstring</text>
</a>
</g>
</g>
<!-- Node5&#45;&gt;Node9 -->
<g id="edge8" class="edge">
<title>Node5&#45;&gt;Node9</title>
<path fill="none" stroke="#63b8ff" d="M407.4508,-111.8504C375.411,-103.4995 322.5303,-89.5527 267.9046,-74.2032"/>
<polygon fill="#63b8ff" stroke="#63b8ff" points="268.625,-70.7699 258.0504,-71.4241 266.725,-77.5071 268.625,-70.7699"/>
</g>
<!-- Node10 -->
<g id="node10" class="node">
<title>Node10</title>
<g id="a_node10"><a xlink:title=" ">
<polygon fill="#e0e0e0" stroke="#999999" points="319.5,-74 276.5,-74 276.5,-55 319.5,-55 319.5,-74"/>
<text text-anchor="middle" x="298" y="-62" font-family="Helvetica,sans-Serif" font-size="10.00" fill="#000000">cstdio</text>
</a>
</g>
</g>
<!-- Node5&#45;&gt;Node10 -->
<g id="edge9" class="edge">
<title>Node5&#45;&gt;Node10</title>
<path fill="none" stroke="#63b8ff" d="M412.788,-109.9197C389.5786,-100.7361 354.4342,-86.8301 329.1491,-76.8252"/>
<polygon fill="#63b8ff" stroke="#63b8ff" points="330.2383,-73.4922 319.652,-73.0673 327.6628,-80.0012 330.2383,-73.4922"/>
</g>
<!-- Node11 -->
<g id="node11" class="node">
<title>Node11</title>
<g id="a_node11"><a xlink:title=" ">
<polygon fill="#e0e0e0" stroke="#999999" points="382.5,-74 337.5,-74 337.5,-55 382.5,-55 382.5,-74"/>
<text text-anchor="middle" x="360" y="-62" font-family="Helvetica,sans-Serif" font-size="10.00" fill="#000000">cstdlib</text>
</a>
</g>
</g>
<!-- Node5&#45;&gt;Node11 -->
<g id="edge10" class="edge">
<title>Node5&#45;&gt;Node11</title>
<path fill="none" stroke="#63b8ff" d="M423.5876,-109.9197C412.065,-101.6893 395.232,-89.6657 381.7794,-80.0567"/>
<polygon fill="#63b8ff" stroke="#63b8ff" points="383.6887,-77.1194 373.517,-74.155 379.62,-82.8155 383.6887,-77.1194"/>
</g>
<!-- Node12 -->
<g id="node12" class="node">
<title>Node12</title>
<g id="a_node12"><a xlink:title=" ">
<polygon fill="#e0e0e0" stroke="#999999" points="406,-19 360,-19 360,0 406,0 406,-19"/>
<text text-anchor="middle" x="383" y="-7" font-family="Helvetica,sans-Serif" font-size="10.00" fill="#000000">cstdint</text>
</a>
</g>
</g>
<!-- Node5&#45;&gt;Node12 -->
<g id="edge11" class="edge">
<title>Node5&#45;&gt;Node12</title>
<path fill="none" stroke="#63b8ff" d="M407.4067,-118.261C350.3749,-115.1865 228.5998,-105.0569 203,-74 197.6289,-67.4839 197.8119,-61.6627 203,-55 220.8586,-32.0654 302.8983,-18.8626 349.82,-13.0627"/>
<polygon fill="#63b8ff" stroke="#63b8ff" points="350.3041,-16.5299 359.8205,-11.8728 349.477,-9.5789 350.3041,-16.5299"/>
</g>
<!-- Node13 -->
<g id="node13" class="node">
<title>Node13</title>
<g id="a_node13"><a xlink:title=" ">
<polygon fill="#e0e0e0" stroke="#999999" points="453,-74 401,-74 401,-55 453,-55 453,-74"/>
<text text-anchor="middle" x="427" y="-62" font-family="Helvetica,sans-Serif" font-size="10.00" fill="#000000">ostream</text>
</a>
</g>
</g>
<!-- Node5&#45;&gt;Node13 -->
<g id="edge12" class="edge">
<title>Node5&#45;&gt;Node13</title>
<path fill="none" stroke="#63b8ff" d="M435.2581,-109.9197C433.9833,-102.9083 432.208,-93.1442 430.63,-84.4652"/>
<polygon fill="#63b8ff" stroke="#63b8ff" points="434.0217,-83.5534 428.7892,-74.3408 427.1346,-84.8057 434.0217,-83.5534"/>
</g>
<!-- Node14 -->
<g id="node14" class="node">
<title>Node14</title>
<g id="a_node14"><a xlink:href="../../db/d7c/utf8_8h.html" target="_top" xlink:title="Various UTF8 related helper functions.">
<polygon fill="#ffffff" stroke="#666666" points="512.5,-74 471.5,-74 471.5,-55 512.5,-55 512.5,-74"/>
<text text-anchor="middle" x="492" y="-62" font-family="Helvetica,sans-Serif" font-size="10.00" fill="#000000">utf8.h</text>
</a>
</g>
</g>
<!-- Node5&#45;&gt;Node14 -->
<g id="edge13" class="edge">
<title>Node5&#45;&gt;Node14</title>
<path fill="none" stroke="#63b8ff" d="M446.5803,-109.9197C454.3707,-102.1293 465.5595,-90.9405 474.8824,-81.6176"/>
<polygon fill="#63b8ff" stroke="#63b8ff" points="477.563,-83.8868 482.1592,-74.3408 472.6132,-78.937 477.563,-83.8868"/>
</g>
<!-- Node14&#45;&gt;Node6 -->
<g id="edge15" class="edge">
<title>Node14&#45;&gt;Node6</title>
<path fill="none" stroke="#63b8ff" d="M509.4187,-54.9197C524.8107,-46.4541 547.499,-33.9755 565.2016,-24.2391"/>
<polygon fill="#63b8ff" stroke="#63b8ff" points="567.37,-27.041 574.4454,-19.155 563.9965,-20.9075 567.37,-27.041"/>
</g>
<!-- Node14&#45;&gt;Node12 -->
<g id="edge14" class="edge">
<title>Node14&#45;&gt;Node12</title>
<path fill="none" stroke="#63b8ff" d="M473.0136,-54.9197C455.9256,-46.2973 430.5874,-33.512 411.144,-23.7011"/>
<polygon fill="#63b8ff" stroke="#63b8ff" points="412.6391,-20.5352 402.1345,-19.155 409.4856,-26.7847 412.6391,-20.5352"/>
</g>
<!-- Node15&#45;&gt;Node3 -->
<g id="edge17" class="edge">
<title>Node15&#45;&gt;Node3</title>
<path fill="none" stroke="#63b8ff" d="M435.9676,-219.9849C423.9353,-206.2379 399.9647,-180.7474 375,-165 348.5841,-148.3371 315.0689,-135.9972 290.8637,-128.404"/>
<polygon fill="#63b8ff" stroke="#63b8ff" points="291.6935,-124.9983 281.1079,-125.4417 289.6595,-131.6963 291.6935,-124.9983"/>
</g>
<!-- Node15&#45;&gt;Node5 -->
<g id="edge20" class="edge">
<title>Node15&#45;&gt;Node5</title>
<path fill="none" stroke="#63b8ff" d="M446.5915,-219.8518C449.6331,-207.2133 453.9143,-184.3809 451,-165 449.667,-156.135 446.9502,-146.6138 444.2616,-138.584"/>
<polygon fill="#63b8ff" stroke="#63b8ff" points="447.5223,-137.3076 440.8622,-129.0679 440.9303,-139.6625 447.5223,-137.3076"/>
</g>
<!-- Node16 -->
<g id="node16" class="node">
<title>Node16</title>
<g id="a_node16"><a xlink:title=" ">
<polygon fill="#e0e0e0" stroke="#999999" points="792.5,-129 709.5,-129 709.5,-110 792.5,-110 792.5,-129"/>
<text text-anchor="middle" x="751" y="-117" font-family="Helvetica,sans-Serif" font-size="10.00" fill="#000000">unordered_map</text>
</a>
</g>
</g>
<!-- Node15&#45;&gt;Node16 -->
<g id="edge18" class="edge">
<title>Node15&#45;&gt;Node16</title>
<path fill="none" stroke="#63b8ff" d="M468.8688,-225.9506C528.3621,-217.3238 675.4202,-195.1476 695,-184 714.2402,-173.0457 730.0852,-152.9311 739.9513,-138.0663"/>
<polygon fill="#63b8ff" stroke="#63b8ff" points="743.1669,-139.5292 745.547,-129.2051 737.2483,-135.7916 743.1669,-139.5292"/>
</g>
<!-- Node17 -->
<g id="node17" class="node">
<title>Node17</title>
<g id="a_node17"><a xlink:title=" ">
<polygon fill="#e0e0e0" stroke="#999999" points="577,-129 525,-129 525,-110 577,-110 577,-129"/>
<text text-anchor="middle" x="551" y="-117" font-family="Helvetica,sans-Serif" font-size="10.00" fill="#000000">memory</text>
</a>
</g>
</g>
<!-- Node15&#45;&gt;Node17 -->
<g id="edge19" class="edge">
<title>Node15&#45;&gt;Node17</title>
<path fill="none" stroke="#63b8ff" d="M453.4955,-219.7382C471.7048,-201.0184 511.7358,-159.865 534.4361,-136.5283"/>
<polygon fill="#63b8ff" stroke="#63b8ff" points="537.2147,-138.6914 541.6785,-129.0828 532.197,-133.8106 537.2147,-138.6914"/>
</g>
<!-- Node18 -->
<g id="node18" class="node">
<title>Node18</title>
<g id="a_node18"><a xlink:href="../../da/de1/linkedmap_8h.html" target="_top" xlink:title=" ">
<polygon fill="#ffffff" stroke="#666666" points="686.5,-184 617.5,-184 617.5,-165 686.5,-165 686.5,-184"/>
<text text-anchor="middle" x="652" y="-172" font-family="Helvetica,sans-Serif" font-size="10.00" fill="#000000">linkedmap.h</text>
</a>
</g>
</g>
<!-- Node15&#45;&gt;Node18 -->
<g id="edge21" class="edge">
<title>Node15&#45;&gt;Node18</title>
<path fill="none" stroke="#63b8ff" d="M468.6771,-222.9748C502.8484,-213.9391 565.1486,-197.4655 607.5425,-186.2556"/>
<polygon fill="#63b8ff" stroke="#63b8ff" points="608.557,-189.6077 617.33,-183.6675 606.7675,-182.8403 608.557,-189.6077"/>
</g>
<!-- Node18&#45;&gt;Node3 -->
<g id="edge23" class="edge">
<title>Node18&#45;&gt;Node3</title>
<path fill="none" stroke="#63b8ff" d="M617.4683,-169.6673C542.1314,-159.124 363.9357,-134.1857 290.9831,-123.976"/>
<polygon fill="#63b8ff" stroke="#63b8ff" points="291.3966,-120.4998 281.008,-122.58 290.4264,-127.4323 291.3966,-120.4998"/>
</g>
<!-- Node18&#45;&gt;Node5 -->
<g id="edge28" class="edge">
<title>Node18&#45;&gt;Node5</title>
<path fill="none" stroke="#63b8ff" d="M617.4565,-165.6633C578.9377,-155.8096 516.7572,-139.903 476.3806,-129.5741"/>
<polygon fill="#63b8ff" stroke="#63b8ff" points="477.1682,-126.163 466.6128,-127.0754 475.4334,-132.9446 477.1682,-126.163"/>
</g>
<!-- Node18&#45;&gt;Node6 -->
<g id="edge25" class="edge">
<title>Node18&#45;&gt;Node6</title>
<path fill="none" stroke="#63b8ff" d="M650.9979,-164.8057C648.5722,-143.9296 641.2632,-93.4972 624,-55 619.5891,-45.1638 612.9408,-35.2546 606.8449,-27.2063"/>
<polygon fill="#63b8ff" stroke="#63b8ff" points="609.5314,-24.961 600.5789,-19.2949 604.044,-29.3071 609.5314,-24.961"/>
</g>
<!-- Node18&#45;&gt;Node7 -->
<g id="edge26" class="edge">
<title>Node18&#45;&gt;Node7</title>
<path fill="none" stroke="#63b8ff" d="M656.1709,-164.7382C663.9598,-146.5089 680.8383,-107.0062 690.9251,-83.3986"/>
<polygon fill="#63b8ff" stroke="#63b8ff" points="694.1949,-84.6538 694.9055,-74.0828 687.7578,-81.9034 694.1949,-84.6538"/>
</g>
<!-- Node18&#45;&gt;Node8 -->
<g id="edge27" class="edge">
<title>Node18&#45;&gt;Node8</title>
<path fill="none" stroke="#63b8ff" d="M646.6754,-164.7382C636.6875,-146.4271 614.9917,-106.6514 602.1356,-83.082"/>
<polygon fill="#63b8ff" stroke="#63b8ff" points="605.0882,-81.1858 597.227,-74.0828 598.9429,-84.5378 605.0882,-81.1858"/>
</g>
<!-- Node18&#45;&gt;Node16 -->
<g id="edge22" class="edge">
<title>Node18&#45;&gt;Node16</title>
<path fill="none" stroke="#63b8ff" d="M669.2445,-164.9197C684.4826,-156.4541 706.944,-143.9755 724.4696,-134.2391"/>
<polygon fill="#63b8ff" stroke="#63b8ff" points="726.5791,-137.0711 733.621,-129.155 723.1796,-130.9519 726.5791,-137.0711"/>
</g>
<!-- Node18&#45;&gt;Node17 -->
<g id="edge24" class="edge">
<title>Node18&#45;&gt;Node17</title>
<path fill="none" stroke="#63b8ff" d="M634.4071,-164.9197C618.7172,-156.3757 595.521,-143.7441 577.5711,-133.9694"/>
<polygon fill="#63b8ff" stroke="#63b8ff" points="579.1863,-130.8637 568.7301,-129.155 575.8386,-137.0113 579.1863,-130.8637"/>
</g>
<!-- Node19&#45;&gt;Node2 -->
<g id="edge31" class="edge">
<title>Node19&#45;&gt;Node2</title>
<path fill="none" stroke="#63b8ff" d="M503.4308,-500.5636C449.8672,-491.334 323.6737,-464.3553 237,-404 211.0813,-385.9515 206.5549,-377.0301 192,-349 184.6333,-334.8131 179.9873,-317.2587 177.2646,-304.0469"/>
<polygon fill="#63b8ff" stroke="#63b8ff" points="180.6905,-303.3261 175.4123,-294.1396 173.8097,-304.6126 180.6905,-303.3261"/>
</g>
<!-- Node20 -->
<g id="node20" class="node">
<title>Node20</title>
<g id="a_node20"><a xlink:title=" ">
<polygon fill="#e0e0e0" stroke="#999999" points="879,-239 849,-239 849,-220 879,-220 879,-239"/>
<text text-anchor="middle" x="864" y="-227" font-family="Helvetica,sans-Serif" font-size="10.00" fill="#000000">set</text>
</a>
</g>
</g>
<!-- Node19&#45;&gt;Node20 -->
<g id="edge30" class="edge">
<title>Node19&#45;&gt;Node20</title>
<path fill="none" stroke="#63b8ff" d="M554.5553,-501.8246C633.6262,-492.8467 869,-460.5728 869,-394.5 869,-394.5 869,-394.5 869,-339.5 869,-307.9182 866.9178,-271.2886 865.4408,-249.2782"/>
<polygon fill="#63b8ff" stroke="#63b8ff" points="868.9255,-248.937 864.7378,-239.2049 861.9425,-249.4243 868.9255,-248.937"/>
</g>
<!-- Node21 -->
<g id="node21" class="node">
<title>Node21</title>
<g id="a_node21"><a xlink:href="../../dd/d78/memberlist_8h.html" target="_top" xlink:title=" ">
<polygon fill="#ffffff" stroke="#666666" points="565.5,-459 492.5,-459 492.5,-440 565.5,-440 565.5,-459"/>
<text text-anchor="middle" x="529" y="-447" font-family="Helvetica,sans-Serif" font-size="10.00" fill="#000000">memberlist.h</text>
</a>
</g>
</g>
<!-- Node19&#45;&gt;Node21 -->
<g id="edge32" class="edge">
<title>Node19&#45;&gt;Node21</title>
<path fill="none" stroke="#63b8ff" d="M529,-494.9197C529,-487.9083 529,-478.1442 529,-469.4652"/>
<polygon fill="#63b8ff" stroke="#63b8ff" points="532.5001,-469.3408 529,-459.3408 525.5001,-469.3409 532.5001,-469.3408"/>
</g>
<!-- Node26 -->
<g id="node26" class="node">
<title>Node26</title>
<g id="a_node26"><a xlink:href="../../d5/d75/containers_8h.html" target="_top" xlink:title=" ">
<polygon fill="#ffffff" stroke="#666666" points="769,-294 699,-294 699,-275 769,-275 769,-294"/>
<text text-anchor="middle" x="734" y="-282" font-family="Helvetica,sans-Serif" font-size="10.00" fill="#000000">containers.h</text>
</a>
</g>
</g>
<!-- Node19&#45;&gt;Node26 -->
<g id="edge66" class="edge">
<title>Node19&#45;&gt;Node26</title>
<path fill="none" stroke="#63b8ff" d="M538.7635,-494.8412C547.9519,-485.7014 562.0475,-471.551 574,-459 628.1218,-402.1678 690.5168,-333.0393 718.7364,-301.5721"/>
<polygon fill="#63b8ff" stroke="#63b8ff" points="721.3876,-303.8581 725.4526,-294.0741 716.1735,-299.1876 721.3876,-303.8581"/>
</g>
<!-- Node21&#45;&gt;Node3 -->
<g id="edge33" class="edge">
<title>Node21&#45;&gt;Node3</title>
<path fill="none" stroke="#63b8ff" d="M492.0912,-446.1803C436.2051,-440.6107 327.0789,-427.6066 237,-404 169.5221,-386.3164 146.5637,-389.8231 90,-349 60.1416,-327.4506 38,-321.3226 38,-284.5 38,-284.5 38,-284.5 38,-229.5 38,-146.4153 164.7332,-126.0853 226.2578,-121.1111"/>
<polygon fill="#63b8ff" stroke="#63b8ff" points="226.8687,-124.5764 236.5931,-120.371 226.3686,-117.5943 226.8687,-124.5764"/>
</g>
<!-- Node21&#45;&gt;Node4 -->
<g id="edge64" class="edge">
<title>Node21&#45;&gt;Node4</title>
<path fill="none" stroke="#63b8ff" d="M520.2032,-439.9738C501.1305,-419.4241 454.3542,-369.5886 413,-330 380.9074,-299.2776 341.8682,-265.2589 319.0884,-245.7253"/>
<polygon fill="#63b8ff" stroke="#63b8ff" points="321.35,-243.0542 311.4744,-239.2171 316.8017,-248.3752 321.35,-243.0542"/>
</g>
<!-- Node21&#45;&gt;Node7 -->
<g id="edge34" class="edge">
<title>Node21&#45;&gt;Node7</title>
<path fill="none" stroke="#63b8ff" d="M565.5526,-443.1347C667.0643,-424.4285 945,-365.7892 945,-284.5 945,-284.5 945,-284.5 945,-174.5 945,-129.5558 806.4279,-90.1127 737.2898,-73.2304"/>
<polygon fill="#63b8ff" stroke="#63b8ff" points="737.7603,-69.7439 727.2193,-70.8111 736.1251,-76.5502 737.7603,-69.7439"/>
</g>
<!-- Node21&#45;&gt;Node18 -->
<g id="edge63" class="edge">
<title>Node21&#45;&gt;Node18</title>
<path fill="none" stroke="#63b8ff" d="M565.7346,-441.5074C643.2353,-422.3799 821.7734,-365.8031 888,-239 891.9093,-231.5149 893.3763,-226.5118 888,-220 864.268,-191.2555 758.7121,-180.4711 697.1024,-176.5786"/>
<polygon fill="#63b8ff" stroke="#63b8ff" points="697.0656,-173.0703 686.8754,-175.97 696.6498,-180.0579 697.0656,-173.0703"/>
</g>
<!-- Node22 -->
<g id="node22" class="node">
<title>Node22</title>
<g id="a_node22"><a xlink:href="../../d4/d46/memberdef_8h.html" target="_top" xlink:title=" ">
<polygon fill="#ffffff" stroke="#666666" points="320,-404 246,-404 246,-385 320,-385 320,-404"/>
<text text-anchor="middle" x="283" y="-392" font-family="Helvetica,sans-Serif" font-size="10.00" fill="#000000">memberdef.h</text>
</a>
</g>
</g>
<!-- Node21&#45;&gt;Node22 -->
<g id="edge35" class="edge">
<title>Node21&#45;&gt;Node22</title>
<path fill="none" stroke="#63b8ff" d="M492.4369,-441.3253C449.2927,-431.6793 377.4583,-415.6187 330.161,-405.0441"/>
<polygon fill="#63b8ff" stroke="#63b8ff" points="330.6897,-401.576 320.1669,-402.8097 329.1623,-408.4073 330.6897,-401.576"/>
</g>
<!-- Node30 -->
<g id="node30" class="node">
<title>Node30</title>
<g id="a_node30"><a xlink:href="../../d9/d11/membergroup_8h.html" target="_top" xlink:title=" ">
<polygon fill="#ffffff" stroke="#666666" points="542,-294 458,-294 458,-275 542,-275 542,-294"/>
<text text-anchor="middle" x="500" y="-282" font-family="Helvetica,sans-Serif" font-size="10.00" fill="#000000">membergroup.h</text>
</a>
</g>
</g>
<!-- Node21&#45;&gt;Node30 -->
<g id="edge65" class="edge">
<title>Node21&#45;&gt;Node30</title>
<path fill="none" stroke="#63b8ff" d="M527.2728,-439.6726C522.6075,-413.1291 509.6858,-339.6086 503.4519,-304.1401"/>
<polygon fill="#63b8ff" stroke="#63b8ff" points="506.8601,-303.3123 501.6819,-294.0692 499.9658,-304.5241 506.8601,-303.3123"/>
</g>
<!-- Node22&#45;&gt;Node2 -->
<g id="edge40" class="edge">
<title>Node22&#45;&gt;Node2</title>
<path fill="none" stroke="#63b8ff" d="M261.1435,-384.8824C245.1836,-377.0192 223.8317,-364.6567 209,-349 196.572,-335.8806 187.171,-317.498 181.2582,-303.7122"/>
<polygon fill="#63b8ff" stroke="#63b8ff" points="184.4174,-302.1884 177.4241,-294.2295 177.9278,-304.8124 184.4174,-302.1884"/>
</g>
<!-- Node22&#45;&gt;Node3 -->
<g id="edge36" class="edge">
<title>Node22&#45;&gt;Node3</title>
<path fill="none" stroke="#63b8ff" d="M245.9925,-391.4201C186.452,-384.2183 76,-360.6025 76,-284.5 76,-284.5 76,-284.5 76,-229.5 76,-159.9676 174.2497,-133.274 226.7693,-123.9721"/>
<polygon fill="#63b8ff" stroke="#63b8ff" points="227.6328,-127.3768 236.9259,-122.2889 226.4882,-120.471 227.6328,-127.3768"/>
</g>
<!-- Node22&#45;&gt;Node4 -->
<g id="edge39" class="edge">
<title>Node22&#45;&gt;Node4</title>
<path fill="none" stroke="#63b8ff" d="M286.1918,-384.8643C289.0576,-375.7408 293.0975,-361.6015 295,-349 300.2478,-314.2399 300.7414,-273.1927 300.4738,-249.3758"/>
<polygon fill="#63b8ff" stroke="#63b8ff" points="303.9698,-249.1095 300.2987,-239.171 296.9708,-249.2296 303.9698,-249.1095"/>
</g>
<!-- Node22&#45;&gt;Node17 -->
<g id="edge37" class="edge">
<title>Node22&#45;&gt;Node17</title>
<path fill="none" stroke="#63b8ff" d="M320.2157,-389.1638C401.7652,-376.4254 589,-341.0238 589,-284.5 589,-284.5 589,-284.5 589,-229.5 589,-195.8364 572.9038,-159.3974 561.6633,-138.0549"/>
<polygon fill="#63b8ff" stroke="#63b8ff" points="564.6444,-136.2117 556.7714,-129.1218 558.5047,-139.5739 564.6444,-136.2117"/>
</g>
<!-- Node23 -->
<g id="node23" class="node">
<title>Node23</title>
<g id="a_node23"><a xlink:title=" ">
<polygon fill="#e0e0e0" stroke="#999999" points="286,-349 218,-349 218,-330 286,-330 286,-349"/>
<text text-anchor="middle" x="252" y="-337" font-family="Helvetica,sans-Serif" font-size="10.00" fill="#000000">sys/types.h</text>
</a>
</g>
</g>
<!-- Node22&#45;&gt;Node23 -->
<g id="edge38" class="edge">
<title>Node22&#45;&gt;Node23</title>
<path fill="none" stroke="#63b8ff" d="M277.6002,-384.9197C273.4727,-377.5967 267.6527,-367.2709 262.6047,-358.3147"/>
<polygon fill="#63b8ff" stroke="#63b8ff" points="265.5059,-356.3338 257.5466,-349.3408 259.4078,-359.7709 265.5059,-356.3338"/>
</g>
<!-- Node24 -->
<g id="node24" class="node">
<title>Node24</title>
<g id="a_node24"><a xlink:href="../../df/d9b/arguments_8h.html" target="_top" xlink:title=" ">
<polygon fill="#ffffff" stroke="#666666" points="294.5,-184 223.5,-184 223.5,-165 294.5,-165 294.5,-184"/>
<text text-anchor="middle" x="259" y="-172" font-family="Helvetica,sans-Serif" font-size="10.00" fill="#000000">arguments.h</text>
</a>
</g>
</g>
<!-- Node22&#45;&gt;Node24 -->
<g id="edge41" class="edge">
<title>Node22&#45;&gt;Node24</title>
<path fill="none" stroke="#63b8ff" d="M251.7685,-384.993C214.4734,-371.6487 154.4405,-343.2986 133,-294 111.8281,-245.3191 179.3897,-207.0711 223.6369,-187.9345"/>
<polygon fill="#63b8ff" stroke="#63b8ff" points="225.0826,-191.1236 232.956,-184.0341 222.38,-184.6663 225.0826,-191.1236"/>
</g>
<!-- Node25 -->
<g id="node25" class="node">
<title>Node25</title>
<g id="a_node25"><a xlink:href="../../d1/da6/classdef_8h.html" target="_top" xlink:title=" ">
<polygon fill="#ffffff" stroke="#666666" points="404,-349 342,-349 342,-330 404,-330 404,-349"/>
<text text-anchor="middle" x="373" y="-337" font-family="Helvetica,sans-Serif" font-size="10.00" fill="#000000">classdef.h</text>
</a>
</g>
</g>
<!-- Node22&#45;&gt;Node25 -->
<g id="edge44" class="edge">
<title>Node22&#45;&gt;Node25</title>
<path fill="none" stroke="#63b8ff" d="M298.6768,-384.9197C312.4014,-376.5325 332.5715,-364.2063 348.4377,-354.5103"/>
<polygon fill="#63b8ff" stroke="#63b8ff" points="350.4931,-357.3561 357.2009,-349.155 346.8429,-351.3831 350.4931,-357.3561"/>
</g>
<!-- Node24&#45;&gt;Node3 -->
<g id="edge42" class="edge">
<title>Node24&#45;&gt;Node3</title>
<path fill="none" stroke="#63b8ff" d="M259,-164.9197C259,-157.9083 259,-148.1442 259,-139.4652"/>
<polygon fill="#63b8ff" stroke="#63b8ff" points="262.5001,-139.3408 259,-129.3408 255.5001,-139.3409 262.5001,-139.3408"/>
</g>
<!-- Node24&#45;&gt;Node5 -->
<g id="edge43" class="edge">
<title>Node24&#45;&gt;Node5</title>
<path fill="none" stroke="#63b8ff" d="M290.0052,-164.9197C319.8839,-155.6876 365.2083,-141.6828 397.6239,-131.6668"/>
<polygon fill="#63b8ff" stroke="#63b8ff" points="398.7171,-134.9923 407.2381,-128.6961 396.6505,-128.3043 398.7171,-134.9923"/>
</g>
<!-- Node25&#45;&gt;Node2 -->
<g id="edge55" class="edge">
<title>Node25&#45;&gt;Node2</title>
<path fill="none" stroke="#63b8ff" d="M341.9063,-330.9063C307.989,-321.5321 253.5179,-306.4773 215.86,-296.0694"/>
<polygon fill="#63b8ff" stroke="#63b8ff" points="216.765,-292.6883 206.194,-293.3978 214.9002,-299.4354 216.765,-292.6883"/>
</g>
<!-- Node25&#45;&gt;Node3 -->
<g id="edge45" class="edge">
<title>Node25&#45;&gt;Node3</title>
<path fill="none" stroke="#63b8ff" d="M348.2624,-329.8568C330.4135,-322.0557 306.4804,-309.7826 289,-294 245.0812,-254.3469 231.4416,-240.5422 214,-184 211.5109,-175.9307 210.79,-172.8105 214,-165 218.7208,-153.5133 227.8987,-143.3828 236.7412,-135.6142"/>
<polygon fill="#63b8ff" stroke="#63b8ff" points="239.0979,-138.2085 244.6301,-129.1727 234.6706,-132.7864 239.0979,-138.2085"/>
</g>
<!-- Node25&#45;&gt;Node20 -->
<g id="edge46" class="edge">
<title>Node25&#45;&gt;Node20</title>
<path fill="none" stroke="#63b8ff" d="M404.0523,-338.12C486.605,-334.1187 709.8479,-321.0383 778,-294 804.8864,-283.3332 830.7389,-261.9415 846.955,-246.7203"/>
<polygon fill="#63b8ff" stroke="#63b8ff" points="849.7561,-248.8805 854.5111,-239.4126 844.8896,-243.8487 849.7561,-248.8805"/>
</g>
<!-- Node25&#45;&gt;Node24 -->
<g id="edge56" class="edge">
<title>Node25&#45;&gt;Node24</title>
<path fill="none" stroke="#63b8ff" d="M356.9356,-329.8267C332.5429,-314.1608 286.8057,-280.7406 266,-239 259.0909,-225.1389 257.5843,-207.5603 257.6699,-194.2563"/>
<polygon fill="#63b8ff" stroke="#63b8ff" points="261.1675,-194.3822 258.0326,-184.2618 254.1721,-194.1283 261.1675,-194.3822"/>
</g>
<!-- Node25&#45;&gt;Node26 -->
<g id="edge47" class="edge">
<title>Node25&#45;&gt;Node26</title>
<path fill="none" stroke="#63b8ff" d="M404.0911,-334.7631C468.0401,-325.0202 614.5378,-302.7006 688.9074,-291.3701"/>
<polygon fill="#63b8ff" stroke="#63b8ff" points="689.5478,-294.813 698.9065,-289.8467 688.4934,-287.8928 689.5478,-294.813"/>
</g>
<!-- Node25&#45;&gt;Node30 -->
<g id="edge57" class="edge">
<title>Node25&#45;&gt;Node30</title>
<path fill="none" stroke="#63b8ff" d="M395.1217,-329.9197C415.3936,-321.1406 445.6308,-308.0457 468.4372,-298.1689"/>
<polygon fill="#63b8ff" stroke="#63b8ff" points="469.9202,-301.3409 477.7057,-294.155 467.1383,-294.9174 469.9202,-301.3409"/>
</g>
<!-- Node26&#45;&gt;Node3 -->
<g id="edge48" class="edge">
<title>Node26&#45;&gt;Node3</title>
<path fill="none" stroke="#63b8ff" d="M698.9485,-282.1517C626.1019,-276.857 460.8958,-262.5781 410,-239 365.1569,-218.2259 366.0753,-195.2587 327,-165 312.9473,-154.118 296.3867,-143.0038 283.127,-134.4841"/>
<polygon fill="#63b8ff" stroke="#63b8ff" points="284.864,-131.4411 274.5459,-129.0351 281.1115,-137.3503 284.864,-131.4411"/>
</g>
<!-- Node26&#45;&gt;Node6 -->
<g id="edge49" class="edge">
<title>Node26&#45;&gt;Node6</title>
<path fill="none" stroke="#63b8ff" d="M749.5539,-274.7574C774.5781,-257.7385 821,-220.0313 821,-174.5 821,-174.5 821,-174.5 821,-119.5 821,-75.9445 684.6952,-34.1215 622.4048,-17.2827"/>
<polygon fill="#63b8ff" stroke="#63b8ff" points="623.2899,-13.8965 612.7261,-14.7068 621.4895,-20.6611 623.2899,-13.8965"/>
</g>
<!-- Node26&#45;&gt;Node16 -->
<g id="edge53" class="edge">
<title>Node26&#45;&gt;Node16</title>
<path fill="none" stroke="#63b8ff" d="M742.4963,-274.8413C749.538,-266.1467 759.0143,-252.6691 763,-239 773.0219,-204.6297 764.2018,-162.6066 757.3065,-138.6582"/>
<polygon fill="#63b8ff" stroke="#63b8ff" points="760.6283,-137.5523 754.3484,-129.0192 753.9363,-139.606 760.6283,-137.5523"/>
</g>
<!-- Node26&#45;&gt;Node20 -->
<g id="edge50" class="edge">
<title>Node26&#45;&gt;Node20</title>
<path fill="none" stroke="#63b8ff" d="M756.6443,-274.9197C779.8138,-265.1172 815.7008,-249.9343 839.517,-239.8582"/>
<polygon fill="#63b8ff" stroke="#63b8ff" points="841.0667,-243.003 848.9126,-235.8831 838.3392,-236.5562 841.0667,-243.003"/>
</g>
<!-- Node27 -->
<g id="node27" class="node">
<title>Node27</title>
<g id="a_node27"><a xlink:title=" ">
<polygon fill="#e0e0e0" stroke="#999999" points="560.5,-239 525.5,-239 525.5,-220 560.5,-220 560.5,-239"/>
<text text-anchor="middle" x="543" y="-227" font-family="Helvetica,sans-Serif" font-size="10.00" fill="#000000">map</text>
</a>
</g>
</g>
<!-- Node26&#45;&gt;Node27 -->
<g id="edge51" class="edge">
<title>Node26&#45;&gt;Node27</title>
<path fill="none" stroke="#63b8ff" d="M700.7303,-274.9197C663.8265,-264.293 604.9635,-247.3429 570.5422,-237.431"/>
<polygon fill="#63b8ff" stroke="#63b8ff" points="571.2738,-233.9995 560.6958,-234.5956 569.3368,-240.7262 571.2738,-233.9995"/>
</g>
<!-- Node28 -->
<g id="node28" class="node">
<title>Node28</title>
<g id="a_node28"><a xlink:title=" ">
<polygon fill="#e0e0e0" stroke="#999999" points="695,-239 617,-239 617,-220 695,-220 695,-239"/>
<text text-anchor="middle" x="656" y="-227" font-family="Helvetica,sans-Serif" font-size="10.00" fill="#000000">unordered_set</text>
</a>
</g>
</g>
<!-- Node26&#45;&gt;Node28 -->
<g id="edge52" class="edge">
<title>Node26&#45;&gt;Node28</title>
<path fill="none" stroke="#63b8ff" d="M720.4134,-274.9197C708.7411,-266.6893 691.6895,-254.6657 678.0622,-245.0567"/>
<polygon fill="#63b8ff" stroke="#63b8ff" points="679.8821,-242.0574 669.6926,-239.155 675.8482,-247.7782 679.8821,-242.0574"/>
</g>
<!-- Node29 -->
<g id="node29" class="node">
<title>Node29</title>
<g id="a_node29"><a xlink:title=" ">
<polygon fill="#e0e0e0" stroke="#999999" points="754.5,-239 713.5,-239 713.5,-220 754.5,-220 754.5,-239"/>
<text text-anchor="middle" x="734" y="-227" font-family="Helvetica,sans-Serif" font-size="10.00" fill="#000000">stack</text>
</a>
</g>
</g>
<!-- Node26&#45;&gt;Node29 -->
<g id="edge54" class="edge">
<title>Node26&#45;&gt;Node29</title>
<path fill="none" stroke="#63b8ff" d="M734,-274.9197C734,-267.9083 734,-258.1442 734,-249.4652"/>
<polygon fill="#63b8ff" stroke="#63b8ff" points="737.5001,-249.3408 734,-239.3408 730.5001,-249.3409 737.5001,-249.3408"/>
</g>
<!-- Node30&#45;&gt;Node3 -->
<g id="edge58" class="edge">
<title>Node30&#45;&gt;Node3</title>
<path fill="none" stroke="#63b8ff" d="M461.4093,-274.9464C436.1067,-267.5802 403.019,-255.7881 377,-239 371.0713,-235.1747 306.628,-168.7957 275.561,-136.66"/>
<polygon fill="#63b8ff" stroke="#63b8ff" points="277.903,-134.0467 268.4377,-129.2866 272.8686,-138.9104 277.903,-134.0467"/>
</g>
<!-- Node30&#45;&gt;Node4 -->
<g id="edge61" class="edge">
<title>Node30&#45;&gt;Node4</title>
<path fill="none" stroke="#63b8ff" d="M465.1627,-274.9197C428.4374,-264.8203 370.9435,-249.0095 334.3885,-238.9568"/>
<polygon fill="#63b8ff" stroke="#63b8ff" points="335.2382,-235.5606 324.668,-236.2837 333.382,-242.3101 335.2382,-235.5606"/>
</g>
<!-- Node30&#45;&gt;Node15 -->
<g id="edge62" class="edge">
<title>Node30&#45;&gt;Node15</title>
<path fill="none" stroke="#63b8ff" d="M490.2455,-274.9197C482.3135,-267.1293 470.9212,-255.9405 461.4288,-246.6176"/>
<polygon fill="#63b8ff" stroke="#63b8ff" points="463.6068,-243.8509 454.0198,-239.3408 458.7018,-248.845 463.6068,-243.8509"/>
</g>
<!-- Node30&#45;&gt;Node17 -->
<g id="edge60" class="edge">
<title>Node30&#45;&gt;Node17</title>
<path fill="none" stroke="#63b8ff" d="M502.1113,-274.8089C504.9415,-262.124 510.2761,-239.2416 516,-220 524.5289,-191.329 536.2688,-158.726 543.747,-138.6319"/>
<polygon fill="#63b8ff" stroke="#63b8ff" points="547.0854,-139.6976 547.3226,-129.1054 540.5318,-137.2377 547.0854,-139.6976"/>
</g>
<!-- Node30&#45;&gt;Node27 -->
<g id="edge59" class="edge">
<title>Node30&#45;&gt;Node27</title>
<path fill="none" stroke="#63b8ff" d="M507.49,-274.9197C513.398,-267.363 521.8059,-256.6087 528.9573,-247.4616"/>
<polygon fill="#63b8ff" stroke="#63b8ff" points="531.9043,-249.3747 535.3063,-239.3408 526.3897,-245.0632 531.9043,-249.3747"/>
</g>
</g>
</svg>
