<?xml version="1.0" encoding="UTF-8" standalone="no"?>
<!DOCTYPE svg PUBLIC "-//W3C//DTD SVG 1.1//EN"
 "http://www.w3.org/Graphics/SVG/1.1/DTD/svg11.dtd">
<!-- Generated by graphviz version 2.40.1 (20161225.0304)
 -->
<!-- Title: src/growbuf.h Pages: 1 -->
<svg width="241pt" height="82pt"
 viewBox="0.00 0.00 240.50 82.00" xmlns="http://www.w3.org/2000/svg" xmlns:xlink="http://www.w3.org/1999/xlink">
<g id="graph0" class="graph" transform="scale(1 1) rotate(0) translate(4 78)">
<title>src/growbuf.h</title>
<!-- Node1 -->
<g id="node1" class="node">
<title>Node1</title>
<g id="a_node1"><a xlink:title=" ">
<polygon fill="#999999" stroke="#666666" points="153,-74 77,-74 77,-55 153,-55 153,-74"/>
<text text-anchor="middle" x="115" y="-62" font-family="Helvetica,sans-Serif" font-size="10.00" fill="#000000">src/growbuf.h</text>
</a>
</g>
</g>
<!-- Node2 -->
<g id="node2" class="node">
<title>Node2</title>
<g id="a_node2"><a xlink:title=" ">
<polygon fill="#e0e0e0" stroke="#999999" points="40,-19 0,-19 0,0 40,0 40,-19"/>
<text text-anchor="middle" x="20" y="-7" font-family="Helvetica,sans-Serif" font-size="10.00" fill="#000000">utility</text>
</a>
</g>
</g>
<!-- Node1&#45;&gt;Node2 -->
<g id="edge1" class="edge">
<title>Node1&#45;&gt;Node2</title>
<path fill="none" stroke="#63b8ff" d="M98.4523,-54.9197C83.8298,-46.4541 62.2759,-33.9755 45.4585,-24.2391"/>
<polygon fill="#63b8ff" stroke="#63b8ff" points="47.0848,-21.1364 36.6769,-19.155 43.5775,-27.1944 47.0848,-21.1364"/>
</g>
<!-- Node3 -->
<g id="node3" class="node">
<title>Node3</title>
<g id="a_node3"><a xlink:title=" ">
<polygon fill="#e0e0e0" stroke="#999999" points="106,-19 58,-19 58,0 106,0 106,-19"/>
<text text-anchor="middle" x="82" y="-7" font-family="Helvetica,sans-Serif" font-size="10.00" fill="#000000">stdlib.h</text>
</a>
</g>
</g>
<!-- Node1&#45;&gt;Node3 -->
<g id="edge2" class="edge">
<title>Node1&#45;&gt;Node3</title>
<path fill="none" stroke="#63b8ff" d="M109.2518,-54.9197C104.8113,-47.5188 98.5305,-37.0509 93.1176,-28.0294"/>
<polygon fill="#63b8ff" stroke="#63b8ff" points="96.0507,-26.115 87.9045,-19.3408 90.0483,-29.7165 96.0507,-26.115"/>
</g>
<!-- Node4 -->
<g id="node4" class="node">
<title>Node4</title>
<g id="a_node4"><a xlink:title=" ">
<polygon fill="#e0e0e0" stroke="#999999" points="173.5,-19 124.5,-19 124.5,0 173.5,0 173.5,-19"/>
<text text-anchor="middle" x="149" y="-7" font-family="Helvetica,sans-Serif" font-size="10.00" fill="#000000">string.h</text>
</a>
</g>
</g>
<!-- Node1&#45;&gt;Node4 -->
<g id="edge3" class="edge">
<title>Node1&#45;&gt;Node4</title>
<path fill="none" stroke="#63b8ff" d="M120.9223,-54.9197C125.4975,-47.5188 131.9686,-37.0509 137.5455,-28.0294"/>
<polygon fill="#63b8ff" stroke="#63b8ff" points="140.6354,-29.6872 142.9166,-19.3408 134.6812,-26.0064 140.6354,-29.6872"/>
</g>
<!-- Node5 -->
<g id="node5" class="node">
<title>Node5</title>
<g id="a_node5"><a xlink:title=" ">
<polygon fill="#e0e0e0" stroke="#999999" points="232.5,-19 191.5,-19 191.5,0 232.5,0 232.5,-19"/>
<text text-anchor="middle" x="212" y="-7" font-family="Helvetica,sans-Serif" font-size="10.00" fill="#000000">string</text>
</a>
</g>
</g>
<!-- Node1&#45;&gt;Node5 -->
<g id="edge4" class="edge">
<title>Node1&#45;&gt;Node5</title>
<path fill="none" stroke="#63b8ff" d="M131.8961,-54.9197C146.8264,-46.4541 168.834,-33.9755 186.0055,-24.2391"/>
<polygon fill="#63b8ff" stroke="#63b8ff" points="187.9995,-27.1321 194.972,-19.155 184.5467,-21.0428 187.9995,-27.1321"/>
</g>
</g>
</svg>
