<?xml version="1.0" encoding="UTF-8" standalone="no"?>
<!DOCTYPE svg PUBLIC "-//W3C//DTD SVG 1.1//EN"
 "http://www.w3.org/Graphics/SVG/1.1/DTD/svg11.dtd">
<!-- Generated by graphviz version 2.40.1 (20161225.0304)
 -->
<!-- Title: TemplateNodeIf::GuardedNodes Pages: 1 -->
<svg width="166pt" height="160pt"
 viewBox="0.00 0.00 166.00 160.00" xmlns="http://www.w3.org/2000/svg" xmlns:xlink="http://www.w3.org/1999/xlink">
<g id="graph0" class="graph" transform="scale(1 1) rotate(0) translate(4 156)">
<title>TemplateNodeIf::GuardedNodes</title>
<!-- Node1 -->
<g id="node1" class="node">
<title>Node1</title>
<g id="a_node1"><a xlink:title=" ">
<polygon fill="#999999" stroke="#666666" points="158,-19 0,-19 0,0 158,0 158,-19"/>
<text text-anchor="middle" x="79" y="-7" font-family="Helvetica,sans-Serif" font-size="10.00" fill="#000000">TemplateNodeIf::GuardedNodes</text>
</a>
</g>
</g>
<!-- Node2 -->
<g id="node2" class="node">
<title>Node2</title>
<g id="a_node2"><a xlink:href="../../df/daf/class_template_node_list.html" target="_top" xlink:title="Class representing a list of AST nodes in a template.">
<polygon fill="#ffffff" stroke="#666666" points="127,-85 31,-85 31,-66 127,-66 127,-85"/>
<text text-anchor="middle" x="79" y="-73" font-family="Helvetica,sans-Serif" font-size="10.00" fill="#000000">TemplateNodeList</text>
</a>
</g>
</g>
<!-- Node2&#45;&gt;Node1 -->
<g id="edge1" class="edge">
<title>Node2&#45;&gt;Node1</title>
<path fill="none" stroke="#9a32cd" stroke-dasharray="5,2" d="M79,-55.732C79,-43.6966 79,-28.847 79,-19.2785"/>
<polygon fill="#9a32cd" stroke="#9a32cd" points="75.5001,-55.7614 79,-65.7615 82.5001,-55.7615 75.5001,-55.7614"/>
<text text-anchor="middle" x="103.5" y="-40" font-family="Helvetica,sans-Serif" font-size="10.00" fill="#000000"> trueNodes</text>
</g>
<!-- Node3 -->
<g id="node3" class="node">
<title>Node3</title>
<g id="a_node3"><a xlink:title=" ">
<polygon fill="#ffffff" stroke="#666666" points="147,-152 11,-152 11,-122 147,-122 147,-152"/>
<text text-anchor="start" x="19" y="-140" font-family="Helvetica,sans-Serif" font-size="10.00" fill="#000000">std::vector&lt; TemplateNode</text>
<text text-anchor="middle" x="79" y="-129" font-family="Helvetica,sans-Serif" font-size="10.00" fill="#000000">Ptr &gt;</text>
</a>
</g>
</g>
<!-- Node3&#45;&gt;Node2 -->
<g id="edge2" class="edge">
<title>Node3&#45;&gt;Node2</title>
<path fill="none" stroke="#63b8ff" d="M79,-111.7849C79,-102.4858 79,-92.4883 79,-85.3469"/>
<polygon fill="#63b8ff" stroke="#63b8ff" points="75.5001,-111.7977 79,-121.7977 82.5001,-111.7978 75.5001,-111.7977"/>
</g>
</g>
</svg>
