<?xml version="1.0" encoding="UTF-8" standalone="no"?>
<!DOCTYPE svg PUBLIC "-//W3C//DTD SVG 1.1//EN"
 "http://www.w3.org/Graphics/SVG/1.1/DTD/svg11.dtd">
<!-- Generated by graphviz version 2.40.1 (20161225.0304)
 -->
<!-- Title: TemplateNodeCreate Pages: 1 -->
<svg width="234pt" height="216pt"
 viewBox="0.00 0.00 234.00 216.00" xmlns="http://www.w3.org/2000/svg" xmlns:xlink="http://www.w3.org/1999/xlink">
<g id="graph0" class="graph" transform="scale(1 1) rotate(0) translate(4 212)">
<title>TemplateNodeCreate</title>
<!-- Node1 -->
<g id="node1" class="node">
<title>Node1</title>
<g id="a_node1"><a xlink:title="Class representing an &#39;create&#39; tag in a template.">
<polygon fill="#999999" stroke="#666666" points="119,-19 9,-19 9,0 119,0 119,-19"/>
<text text-anchor="middle" x="64" y="-7" font-family="Helvetica,sans-Serif" font-size="10.00" fill="#000000">TemplateNodeCreate</text>
</a>
</g>
</g>
<!-- Node2 -->
<g id="node2" class="node">
<title>Node2</title>
<g id="a_node2"><a xlink:href="../../d8/d78/class_template_node_creator.html" target="_top" xlink:title=" ">
<polygon fill="#ffffff" stroke="#666666" points="128,-86 0,-86 0,-56 128,-56 128,-86"/>
<text text-anchor="start" x="8" y="-74" font-family="Helvetica,sans-Serif" font-size="10.00" fill="#000000">TemplateNodeCreator</text>
<text text-anchor="middle" x="64" y="-63" font-family="Helvetica,sans-Serif" font-size="10.00" fill="#000000">&lt; TemplateNodeCreate &gt;</text>
</a>
</g>
</g>
<!-- Node2&#45;&gt;Node1 -->
<g id="edge1" class="edge">
<title>Node2&#45;&gt;Node1</title>
<path fill="none" stroke="#63b8ff" d="M64,-45.7849C64,-36.4858 64,-26.4883 64,-19.3469"/>
<polygon fill="#63b8ff" stroke="#63b8ff" points="60.5001,-45.7977 64,-55.7977 67.5001,-45.7978 60.5001,-45.7977"/>
</g>
<!-- Node3 -->
<g id="node3" class="node">
<title>Node3</title>
<g id="a_node3"><a xlink:href="../../d6/d53/class_template_node.html" target="_top" xlink:title="Base class of all nodes in a template&#39;s AST.">
<polygon fill="#ffffff" stroke="#666666" points="100,-208 20,-208 20,-189 100,-189 100,-208"/>
<text text-anchor="middle" x="60" y="-196" font-family="Helvetica,sans-Serif" font-size="10.00" fill="#000000">TemplateNode</text>
</a>
</g>
</g>
<!-- Node3&#45;&gt;Node2 -->
<g id="edge2" class="edge">
<title>Node3&#45;&gt;Node2</title>
<path fill="none" stroke="#63b8ff" d="M60.6249,-178.5805C61.4282,-152.9776 62.805,-109.092 63.5268,-86.0833"/>
<polygon fill="#63b8ff" stroke="#63b8ff" points="57.116,-178.8119 60.3007,-188.9168 64.1126,-179.0315 57.116,-178.8119"/>
</g>
<!-- Node4 -->
<g id="node4" class="node">
<title>Node4</title>
<g id="a_node4"><a xlink:href="../../d8/d78/class_template_node_creator.html" target="_top" xlink:title="Helper class for creating template AST tag nodes and returning the template for a given node.">
<polygon fill="#ffffff" stroke="#666666" points="213.5,-152 76.5,-152 76.5,-133 213.5,-133 213.5,-152"/>
<text text-anchor="middle" x="145" y="-140" font-family="Helvetica,sans-Serif" font-size="10.00" fill="#000000">TemplateNodeCreator&lt; T &gt;</text>
</a>
</g>
</g>
<!-- Node3&#45;&gt;Node4 -->
<g id="edge4" class="edge">
<title>Node3&#45;&gt;Node4</title>
<path fill="none" stroke="#63b8ff" d="M83.5419,-182.99C98.539,-173.1096 117.4973,-160.6194 130.3638,-152.1427"/>
<polygon fill="#63b8ff" stroke="#63b8ff" points="81.2309,-180.3212 74.8059,-188.7455 85.0821,-186.1666 81.2309,-180.3212"/>
</g>
<!-- Node4&#45;&gt;Node2 -->
<g id="edge3" class="edge">
<title>Node4&#45;&gt;Node2</title>
<path fill="none" stroke="#ffa500" stroke-dasharray="5,2" d="M126.309,-126.0012C112.7283,-114.0133 94.4853,-97.9099 81.2508,-86.2276"/>
<polygon fill="#ffa500" stroke="#ffa500" points="124.2627,-128.8634 134.076,-132.8572 128.8952,-123.6154 124.2627,-128.8634"/>
<text text-anchor="middle" x="168.5" y="-107" font-family="Helvetica,sans-Serif" font-size="10.00" fill="#000000"> &lt; TemplateNodeCreate &gt;</text>
</g>
</g>
</svg>
