<?xml version="1.0" encoding="UTF-8" standalone="no"?>
<!DOCTYPE svg PUBLIC "-//W3C//DTD SVG 1.1//EN"
 "http://www.w3.org/Graphics/SVG/1.1/DTD/svg11.dtd">
<!-- Generated by graphviz version 2.40.1 (20161225.0304)
 -->
<!-- Title: ConceptLinkedMap Pages: 1 -->
<svg width="149pt" height="160pt"
 viewBox="0.00 0.00 149.00 160.00" xmlns="http://www.w3.org/2000/svg" xmlns:xlink="http://www.w3.org/1999/xlink">
<g id="graph0" class="graph" transform="scale(1 1) rotate(0) translate(4 156)">
<title>ConceptLinkedMap</title>
<!-- Node1 -->
<g id="node1" class="node">
<title>Node1</title>
<g id="a_node1"><a xlink:title=" ">
<polygon fill="#999999" stroke="#666666" points="117.5,-19 16.5,-19 16.5,0 117.5,0 117.5,-19"/>
<text text-anchor="middle" x="67" y="-7" font-family="Helvetica,sans-Serif" font-size="10.00" fill="#000000">ConceptLinkedMap</text>
</a>
</g>
</g>
<!-- Node2 -->
<g id="node2" class="node">
<title>Node2</title>
<g id="a_node2"><a xlink:href="../../d0/d2c/class_linked_map.html" target="_top" xlink:title=" ">
<polygon fill="#ffffff" stroke="#666666" points="134,-75 0,-75 0,-56 134,-56 134,-75"/>
<text text-anchor="middle" x="67" y="-63" font-family="Helvetica,sans-Serif" font-size="10.00" fill="#000000">LinkedMap&lt; ConceptDef &gt;</text>
</a>
</g>
</g>
<!-- Node2&#45;&gt;Node1 -->
<g id="edge1" class="edge">
<title>Node2&#45;&gt;Node1</title>
<path fill="none" stroke="#63b8ff" d="M67,-45.6575C67,-36.655 67,-26.4199 67,-19.1427"/>
<polygon fill="#63b8ff" stroke="#63b8ff" points="63.5001,-45.7455 67,-55.7455 70.5001,-45.7456 63.5001,-45.7455"/>
</g>
<!-- Node3 -->
<g id="node3" class="node">
<title>Node3</title>
<g id="a_node3"><a xlink:href="../../d0/d2c/class_linked_map.html" target="_top" xlink:title="Container class representing a vector of objects with keys.">
<polygon fill="#ffffff" stroke="#666666" points="122.5,-152 11.5,-152 11.5,-122 122.5,-122 122.5,-152"/>
<text text-anchor="start" x="19.5" y="-140" font-family="Helvetica,sans-Serif" font-size="10.00" fill="#000000">LinkedMap&lt; T, Hash,</text>
<text text-anchor="middle" x="67" y="-129" font-family="Helvetica,sans-Serif" font-size="10.00" fill="#000000"> KeyEqual, Map &gt;</text>
</a>
</g>
</g>
<!-- Node3&#45;&gt;Node2 -->
<g id="edge2" class="edge">
<title>Node3&#45;&gt;Node2</title>
<path fill="none" stroke="#ffa500" stroke-dasharray="5,2" d="M67,-111.8098C67,-99.141 67,-84.5285 67,-75.1614"/>
<polygon fill="#ffa500" stroke="#ffa500" points="63.5001,-111.8367 67,-121.8367 70.5001,-111.8367 63.5001,-111.8367"/>
<text text-anchor="middle" x="104" y="-96" font-family="Helvetica,sans-Serif" font-size="10.00" fill="#000000"> &lt; ConceptDef &gt;</text>
</g>
</g>
</svg>
