<?xml version="1.0" encoding="UTF-8" standalone="no"?>
<!DOCTYPE svg PUBLIC "-//W3C//DTD SVG 1.1//EN"
 "http://www.w3.org/Graphics/SVG/1.1/DTD/svg11.dtd">
<!-- Generated by graphviz version 2.43.0 (0)
 -->
<!-- Title: TranslatorAdapter_1_8_19 Pages: 1 -->
<svg width="192pt" height="317pt"
 viewBox="0.00 0.00 191.50 317.00" xmlns="http://www.w3.org/2000/svg" xmlns:xlink="http://www.w3.org/1999/xlink">
<g id="graph0" class="graph" transform="scale(1 1) rotate(0) translate(4 313)">
<title>TranslatorAdapter_1_8_19</title>
<!-- Node1 -->
<g id="node1" class="node">
<title>Node1</title>
<g id="a_node1"><a xlink:title=" ">
<polygon fill="#999999" stroke="#666666" points="143,-19 0,-19 0,0 143,0 143,-19"/>
<text text-anchor="middle" x="71.5" y="-7" font-family="Helvetica,sans-Serif" font-size="10.00">TranslatorAdapter_1_8_19</text>
</a>
</g>
</g>
<!-- Node2 -->
<g id="node2" class="node">
<title>Node2</title>
<g id="a_node2"><a xlink:href="../../d3/d2e/class_translator_adapter__1__9__2.html" target="_top" xlink:title=" ">
<polygon fill="white" stroke="#666666" points="140,-75 3,-75 3,-56 140,-56 140,-75"/>
<text text-anchor="middle" x="71.5" y="-63" font-family="Helvetica,sans-Serif" font-size="10.00">TranslatorAdapter_1_9_2</text>
</a>
</g>
</g>
<!-- Node2&#45;&gt;Node1 -->
<g id="edge1" class="edge">
<title>Node2&#45;&gt;Node1</title>
<path fill="none" stroke="#63b8ff" d="M71.5,-45.3C71.5,-36.41 71.5,-26.28 71.5,-19.25"/>
<polygon fill="#63b8ff" stroke="#63b8ff" points="68,-45.58 71.5,-55.58 75,-45.58 68,-45.58"/>
</g>
<!-- Node3 -->
<g id="node3" class="node">
<title>Node3</title>
<g id="a_node3"><a xlink:href="../../d0/d33/class_translator_adapter__1__9__4.html" target="_top" xlink:title=" ">
<polygon fill="white" stroke="#666666" points="140,-131 3,-131 3,-112 140,-112 140,-131"/>
<text text-anchor="middle" x="71.5" y="-119" font-family="Helvetica,sans-Serif" font-size="10.00">TranslatorAdapter_1_9_4</text>
</a>
</g>
</g>
<!-- Node3&#45;&gt;Node2 -->
<g id="edge2" class="edge">
<title>Node3&#45;&gt;Node2</title>
<path fill="none" stroke="#63b8ff" d="M71.5,-101.3C71.5,-92.41 71.5,-82.28 71.5,-75.25"/>
<polygon fill="#63b8ff" stroke="#63b8ff" points="68,-101.58 71.5,-111.58 75,-101.58 68,-101.58"/>
</g>
<!-- Node4 -->
<g id="node4" class="node">
<title>Node4</title>
<g id="a_node4"><a xlink:href="../../db/d6c/class_translator_adapter_base.html" target="_top" xlink:title="Base of the translator adapter tree.">
<polygon fill="white" stroke="#666666" points="135,-187 8,-187 8,-168 135,-168 135,-187"/>
<text text-anchor="middle" x="71.5" y="-175" font-family="Helvetica,sans-Serif" font-size="10.00">TranslatorAdapterBase</text>
</a>
</g>
</g>
<!-- Node4&#45;&gt;Node3 -->
<g id="edge3" class="edge">
<title>Node4&#45;&gt;Node3</title>
<path fill="none" stroke="#63b8ff" d="M71.5,-157.3C71.5,-148.41 71.5,-138.28 71.5,-131.25"/>
<polygon fill="#63b8ff" stroke="#63b8ff" points="68,-157.58 71.5,-167.58 75,-157.58 68,-157.58"/>
</g>
<!-- Node5 -->
<g id="node5" class="node">
<title>Node5</title>
<g id="a_node5"><a xlink:href="../../d8/dfb/class_translator.html" target="_top" xlink:title="Abstract base class for all translatable text fragments.">
<polygon fill="white" stroke="#666666" points="100,-309 35,-309 35,-290 100,-290 100,-309"/>
<text text-anchor="middle" x="67.5" y="-297" font-family="Helvetica,sans-Serif" font-size="10.00">Translator</text>
</a>
</g>
</g>
<!-- Node5&#45;&gt;Node4 -->
<g id="edge4" class="edge">
<title>Node5&#45;&gt;Node4</title>
<path fill="none" stroke="#63b8ff" d="M68.13,-279.65C69.01,-253.22 70.57,-206.26 71.21,-187.05"/>
<polygon fill="#63b8ff" stroke="#63b8ff" points="64.62,-279.76 67.79,-289.87 71.62,-279.99 64.62,-279.76"/>
</g>
<!-- Node6 -->
<g id="node6" class="node">
<title>Node6</title>
<g id="a_node6"><a xlink:href="../../d6/d78/class_translator_english.html" target="_top" xlink:title=" ">
<polygon fill="white" stroke="#666666" points="183.5,-253 83.5,-253 83.5,-234 183.5,-234 183.5,-253"/>
<text text-anchor="middle" x="133.5" y="-241" font-family="Helvetica,sans-Serif" font-size="10.00">TranslatorEnglish</text>
</a>
</g>
</g>
<!-- Node5&#45;&gt;Node6 -->
<g id="edge6" class="edge">
<title>Node5&#45;&gt;Node6</title>
<path fill="none" stroke="#63b8ff" d="M86.05,-283.32C97.88,-273.65 112.79,-261.45 122.7,-253.33"/>
<polygon fill="#63b8ff" stroke="#63b8ff" points="83.63,-280.78 78.1,-289.82 88.06,-286.2 83.63,-280.78"/>
</g>
<!-- Node6&#45;&gt;Node4 -->
<g id="edge5" class="edge">
<title>Node6&#45;&gt;Node4</title>
<path fill="none" stroke="#9a32cd" stroke-dasharray="5,2" d="M117.98,-226.48C106.01,-214.12 89.9,-197.49 80.13,-187.41"/>
<polygon fill="#9a32cd" stroke="#9a32cd" points="115.67,-229.12 125.14,-233.87 120.69,-224.25 115.67,-229.12"/>
<text text-anchor="middle" x="125" y="-208" font-family="Helvetica,sans-Serif" font-size="10.00"> english</text>
</g>
</g>
</svg>
