<?xml version="1.0" encoding="UTF-8" standalone="no"?>
<!DOCTYPE svg PUBLIC "-//W3C//DTD SVG 1.1//EN"
 "http://www.w3.org/Graphics/SVG/1.1/DTD/svg11.dtd">
<!-- Generated by graphviz version 2.40.1 (20161225.0304)
 -->
<!-- Title: CiteInfoImpl Pages: 1 -->
<svg width="134pt" height="104pt"
 viewBox="0.00 0.00 134.00 104.00" xmlns="http://www.w3.org/2000/svg" xmlns:xlink="http://www.w3.org/1999/xlink">
<g id="graph0" class="graph" transform="scale(1 1) rotate(0) translate(4 100)">
<title>CiteInfoImpl</title>
<!-- Node1 -->
<g id="node1" class="node">
<title>Node1</title>
<g id="a_node1"><a xlink:title=" ">
<polygon fill="#999999" stroke="#666666" points="96.5,-19 26.5,-19 26.5,0 96.5,0 96.5,-19"/>
<text text-anchor="middle" x="61.5" y="-7" font-family="Helvetica,sans-Serif" font-size="10.00" fill="#000000">CiteInfoImpl</text>
</a>
</g>
</g>
<!-- Node2 -->
<g id="node2" class="node">
<title>Node2</title>
<g id="a_node2"><a xlink:href="../../df/d40/struct_cite_info.html" target="_top" xlink:title="Citation&#45;related data.">
<polygon fill="#ffffff" stroke="#666666" points="51,-96 0,-96 0,-77 51,-77 51,-96"/>
<text text-anchor="middle" x="25.5" y="-84" font-family="Helvetica,sans-Serif" font-size="10.00" fill="#000000">CiteInfo</text>
</a>
</g>
</g>
<!-- Node2&#45;&gt;Node1 -->
<g id="edge1" class="edge">
<title>Node2&#45;&gt;Node1</title>
<path fill="none" stroke="#63b8ff" d="M34.4964,-67.2576C41.6031,-52.0572 51.2317,-31.4627 56.8639,-19.4161"/>
<polygon fill="#63b8ff" stroke="#63b8ff" points="31.1242,-66.2067 30.0594,-76.7479 37.4654,-69.1714 31.1242,-66.2067"/>
</g>
<!-- Node3 -->
<g id="node3" class="node">
<title>Node3</title>
<g id="a_node3"><a xlink:href="../../d9/d45/class_q_c_string.html" target="_top" xlink:title="This is an alternative implementation of QCString.">
<polygon fill="#ffffff" stroke="#666666" points="126,-96 69,-96 69,-77 126,-77 126,-96"/>
<text text-anchor="middle" x="97.5" y="-84" font-family="Helvetica,sans-Serif" font-size="10.00" fill="#000000">QCString</text>
</a>
</g>
</g>
<!-- Node3&#45;&gt;Node1 -->
<g id="edge2" class="edge">
<title>Node3&#45;&gt;Node1</title>
<path fill="none" stroke="#9a32cd" stroke-dasharray="5,2" d="M88.5036,-67.2576C81.3969,-52.0572 71.7683,-31.4627 66.1361,-19.4161"/>
<polygon fill="#9a32cd" stroke="#9a32cd" points="85.5346,-69.1714 92.9406,-76.7479 91.8758,-66.2067 85.5346,-69.1714"/>
<text text-anchor="middle" x="102" y="-51" font-family="Helvetica,sans-Serif" font-size="10.00" fill="#000000"> m_label</text>
<text text-anchor="middle" x="102" y="-40" font-family="Helvetica,sans-Serif" font-size="10.00" fill="#000000">m_text</text>
</g>
</g>
</svg>
