<?xml version="1.0" encoding="UTF-8" standalone="no"?>
<!DOCTYPE svg PUBLIC "-//W3C//DTD SVG 1.1//EN"
 "http://www.w3.org/Graphics/SVG/1.1/DTD/svg11.dtd">
<!-- Generated by graphviz version 2.40.1 (20161225.0304)
 -->
<!-- Title: FTVNode Pages: 1 -->
<svg width="142pt" height="126pt"
 viewBox="0.00 0.00 141.50 126.00" xmlns="http://www.w3.org/2000/svg" xmlns:xlink="http://www.w3.org/1999/xlink">
<g id="graph0" class="graph" transform="scale(1 1) rotate(0) translate(4 122)">
<title>FTVNode</title>
<!-- Node1 -->
<g id="node1" class="node">
<title>Node1</title>
<g id="a_node1"><a xlink:title=" ">
<polygon fill="#999999" stroke="#666666" points="96,-19 37,-19 37,0 96,0 96,-19"/>
<text text-anchor="middle" x="66.5" y="-7" font-family="Helvetica,sans-Serif" font-size="10.00" fill="#000000">FTVNode</text>
</a>
</g>
</g>
<!-- Node2 -->
<g id="node2" class="node">
<title>Node2</title>
<g id="a_node2"><a xlink:href="../../d9/d45/class_q_c_string.html" target="_top" xlink:title="This is an alternative implementation of QCString.">
<polygon fill="#ffffff" stroke="#666666" points="57,-118 0,-118 0,-99 57,-99 57,-118"/>
<text text-anchor="middle" x="28.5" y="-106" font-family="Helvetica,sans-Serif" font-size="10.00" fill="#000000">QCString</text>
</a>
</g>
</g>
<!-- Node2&#45;&gt;Node1 -->
<g id="edge1" class="edge">
<title>Node2&#45;&gt;Node1</title>
<path fill="none" stroke="#9a32cd" stroke-dasharray="5,2" d="M32.724,-89.0153C36.2578,-74.3496 41.9386,-53.9469 49.5,-37 52.2902,-30.7465 56.2819,-24.2078 59.6962,-19.076"/>
<polygon fill="#9a32cd" stroke="#9a32cd" points="29.2674,-88.4305 30.4447,-98.9597 36.0904,-89.9944 29.2674,-88.4305"/>
<text text-anchor="middle" x="66" y="-73" font-family="Helvetica,sans-Serif" font-size="10.00" fill="#000000"> anchor</text>
<text text-anchor="middle" x="66" y="-62" font-family="Helvetica,sans-Serif" font-size="10.00" fill="#000000">file</text>
<text text-anchor="middle" x="66" y="-51" font-family="Helvetica,sans-Serif" font-size="10.00" fill="#000000">name</text>
<text text-anchor="middle" x="66" y="-40" font-family="Helvetica,sans-Serif" font-size="10.00" fill="#000000">ref</text>
</g>
<!-- Node3 -->
<g id="node3" class="node">
<title>Node3</title>
<g id="a_node3"><a xlink:href="../../d5/dcc/class_definition.html" target="_top" xlink:title="The common base class of all entity definitions found in the sources.">
<polygon fill="#ffffff" stroke="#666666" points="133.5,-118 75.5,-118 75.5,-99 133.5,-99 133.5,-118"/>
<text text-anchor="middle" x="104.5" y="-106" font-family="Helvetica,sans-Serif" font-size="10.00" fill="#000000">Definition</text>
</a>
</g>
</g>
<!-- Node3&#45;&gt;Node1 -->
<g id="edge2" class="edge">
<title>Node3&#45;&gt;Node1</title>
<path fill="none" stroke="#9a32cd" stroke-dasharray="5,2" d="M99.8142,-89.0837C95.9776,-74.4533 89.9721,-54.0647 82.5,-37 79.7971,-30.8271 76.0366,-24.2921 72.8404,-19.1422"/>
<polygon fill="#9a32cd" stroke="#9a32cd" points="96.4754,-90.1577 102.3136,-98.9988 103.263,-88.4466 96.4754,-90.1577"/>
<text text-anchor="middle" x="106" y="-56.5" font-family="Helvetica,sans-Serif" font-size="10.00" fill="#000000"> def</text>
</g>
</g>
</svg>
