<?xml version="1.0" encoding="UTF-8" standalone="no"?>
<!DOCTYPE svg PUBLIC "-//W3C//DTD SVG 1.1//EN"
 "http://www.w3.org/Graphics/SVG/1.1/DTD/svg11.dtd">
<!-- Generated by graphviz version 2.40.1 (20161225.0304)
 -->
<!-- Title: ConfigObsolete Pages: 1 -->
<svg width="192pt" height="204pt"
 viewBox="0.00 0.00 191.50 204.00" xmlns="http://www.w3.org/2000/svg" xmlns:xlink="http://www.w3.org/1999/xlink">
<g id="graph0" class="graph" transform="scale(1 1) rotate(0) translate(4 200)">
<title>ConfigObsolete</title>
<!-- Node1 -->
<g id="node1" class="node">
<title>Node1</title>
<g id="a_node1"><a xlink:title="Section marker for obsolete options.">
<polygon fill="#999999" stroke="#666666" points="90.5,-19 6.5,-19 6.5,0 90.5,0 90.5,-19"/>
<text text-anchor="middle" x="48.5" y="-7" font-family="Helvetica,sans-Serif" font-size="10.00" fill="#000000">ConfigObsolete</text>
</a>
</g>
</g>
<!-- Node2 -->
<g id="node2" class="node">
<title>Node2</title>
<g id="a_node2"><a xlink:href="../../d2/dd3/class_config_option.html" target="_top" xlink:title="Abstract base class for any configuration option.">
<polygon fill="#ffffff" stroke="#666666" points="170.5,-75 96.5,-75 96.5,-56 170.5,-56 170.5,-75"/>
<text text-anchor="middle" x="133.5" y="-63" font-family="Helvetica,sans-Serif" font-size="10.00" fill="#000000">ConfigOption</text>
</a>
</g>
</g>
<!-- Node2&#45;&gt;Node1 -->
<g id="edge1" class="edge">
<title>Node2&#45;&gt;Node1</title>
<path fill="none" stroke="#63b8ff" d="M109.9581,-49.99C94.961,-40.1096 76.0027,-27.6194 63.1362,-19.1427"/>
<polygon fill="#63b8ff" stroke="#63b8ff" points="108.4179,-53.1666 118.6941,-55.7455 112.2691,-47.3212 108.4179,-53.1666"/>
</g>
<!-- Node3 -->
<g id="node3" class="node">
<title>Node3</title>
<g id="a_node3"><a xlink:href="../../d9/d45/class_q_c_string.html" target="_top" xlink:title="This is an alternative implementation of QCString.">
<polygon fill="#ffffff" stroke="#666666" points="57,-196 0,-196 0,-177 57,-177 57,-196"/>
<text text-anchor="middle" x="28.5" y="-184" font-family="Helvetica,sans-Serif" font-size="10.00" fill="#000000">QCString</text>
</a>
</g>
</g>
<!-- Node3&#45;&gt;Node1 -->
<g id="edge3" class="edge">
<title>Node3&#45;&gt;Node1</title>
<path fill="none" stroke="#9a32cd" stroke-dasharray="5,2" d="M23.6667,-166.7409C18.1753,-140.826 11.2223,-94.1686 21.5,-56 25.2379,-42.1184 34.2494,-28.1108 40.8369,-19.1522"/>
<polygon fill="#9a32cd" stroke="#9a32cd" points="20.3206,-167.8114 25.9479,-176.7883 27.1468,-166.2615 20.3206,-167.8114"/>
<text text-anchor="middle" x="54.5" y="-63" font-family="Helvetica,sans-Serif" font-size="10.00" fill="#000000"> m_valueString</text>
</g>
<!-- Node3&#45;&gt;Node2 -->
<g id="edge2" class="edge">
<title>Node3&#45;&gt;Node2</title>
<path fill="none" stroke="#9a32cd" stroke-dasharray="5,2" d="M43.6598,-169.0301C66.0931,-143.1785 107.3812,-95.5988 125.0821,-75.2006"/>
<polygon fill="#9a32cd" stroke="#9a32cd" points="41.0032,-166.7513 37.0926,-176.5981 46.2902,-171.3392 41.0032,-166.7513"/>
<text text-anchor="middle" x="145.5" y="-151" font-family="Helvetica,sans-Serif" font-size="10.00" fill="#000000"> m_dependency</text>
<text text-anchor="middle" x="145.5" y="-140" font-family="Helvetica,sans-Serif" font-size="10.00" fill="#000000">m_doc</text>
<text text-anchor="middle" x="145.5" y="-129" font-family="Helvetica,sans-Serif" font-size="10.00" fill="#000000">m_encoding</text>
<text text-anchor="middle" x="145.5" y="-118" font-family="Helvetica,sans-Serif" font-size="10.00" fill="#000000">m_name</text>
<text text-anchor="middle" x="145.5" y="-107" font-family="Helvetica,sans-Serif" font-size="10.00" fill="#000000">m_spaces</text>
<text text-anchor="middle" x="145.5" y="-96" font-family="Helvetica,sans-Serif" font-size="10.00" fill="#000000">m_userComment</text>
</g>
</g>
</svg>
