<?xml version="1.0" encoding="UTF-8" standalone="no"?>
<!DOCTYPE svg PUBLIC "-//W3C//DTD SVG 1.1//EN"
 "http://www.w3.org/Graphics/SVG/1.1/DTD/svg11.dtd">
<!-- Generated by graphviz version 2.40.1 (20161225.0304)
 -->
<!-- Title: MemberList Pages: 1 -->
<svg width="237pt" height="149pt"
 viewBox="0.00 0.00 237.00 149.00" xmlns="http://www.w3.org/2000/svg" xmlns:xlink="http://www.w3.org/1999/xlink">
<g id="graph0" class="graph" transform="scale(1 1) rotate(0) translate(4 145)">
<title>MemberList</title>
<!-- Node1 -->
<g id="node1" class="node">
<title>Node1</title>
<g id="a_node1"><a xlink:title="A list of MemberDef objects as shown in documentation sections.">
<polygon fill="#999999" stroke="#666666" points="110,-19 42,-19 42,0 110,0 110,-19"/>
<text text-anchor="middle" x="76" y="-7" font-family="Helvetica,sans-Serif" font-size="10.00" fill="#000000">MemberList</text>
</a>
</g>
</g>
<!-- Node2 -->
<g id="node2" class="node">
<title>Node2</title>
<g id="a_node2"><a xlink:href="../../d1/d7d/class_member_vector.html" target="_top" xlink:title="A vector of MemberDef object.">
<polygon fill="#ffffff" stroke="#666666" points="80,-85 0,-85 0,-66 80,-66 80,-85"/>
<text text-anchor="middle" x="40" y="-73" font-family="Helvetica,sans-Serif" font-size="10.00" fill="#000000">MemberVector</text>
</a>
</g>
</g>
<!-- Node2&#45;&gt;Node1 -->
<g id="edge1" class="edge">
<title>Node2&#45;&gt;Node1</title>
<path fill="none" stroke="#63b8ff" d="M50.1841,-56.8291C56.8487,-44.6107 65.2873,-29.1399 70.6663,-19.2785"/>
<polygon fill="#63b8ff" stroke="#63b8ff" points="47.0279,-55.3065 45.3119,-65.7615 53.1731,-58.6585 47.0279,-55.3065"/>
</g>
<!-- Node3 -->
<g id="node3" class="node">
<title>Node3</title>
<g id="a_node3"><a xlink:href="../../d4/d15/class_member_group_ref_list.html" target="_top" xlink:title=" ">
<polygon fill="#ffffff" stroke="#666666" points="208,-85 98,-85 98,-66 208,-66 208,-85"/>
<text text-anchor="middle" x="153" y="-73" font-family="Helvetica,sans-Serif" font-size="10.00" fill="#000000">MemberGroupRefList</text>
</a>
</g>
</g>
<!-- Node3&#45;&gt;Node1 -->
<g id="edge2" class="edge">
<title>Node3&#45;&gt;Node1</title>
<path fill="none" stroke="#9a32cd" stroke-dasharray="5,2" d="M133.6661,-58.928C118.9856,-46.3448 99.3142,-29.4836 87.1579,-19.0639"/>
<polygon fill="#9a32cd" stroke="#9a32cd" points="131.768,-61.9109 141.6384,-65.7615 136.3236,-56.5961 131.768,-61.9109"/>
<text text-anchor="middle" x="174" y="-40" font-family="Helvetica,sans-Serif" font-size="10.00" fill="#000000"> m_memberGroupRefList</text>
</g>
<!-- Node4 -->
<g id="node4" class="node">
<title>Node4</title>
<g id="a_node4"><a xlink:title=" ">
<polygon fill="#ffffff" stroke="#666666" points="227.5,-141 78.5,-141 78.5,-122 227.5,-122 227.5,-141"/>
<text text-anchor="middle" x="153" y="-129" font-family="Helvetica,sans-Serif" font-size="10.00" fill="#000000">std::vector&lt; MemberGroup * &gt;</text>
</a>
</g>
</g>
<!-- Node4&#45;&gt;Node3 -->
<g id="edge3" class="edge">
<title>Node4&#45;&gt;Node3</title>
<path fill="none" stroke="#63b8ff" d="M153,-111.6575C153,-102.655 153,-92.4199 153,-85.1427"/>
<polygon fill="#63b8ff" stroke="#63b8ff" points="149.5001,-111.7455 153,-121.7455 156.5001,-111.7456 149.5001,-111.7455"/>
</g>
</g>
</svg>
