<?xml version="1.0" encoding="UTF-8" standalone="no"?>
<!DOCTYPE svg PUBLIC "-//W3C//DTD SVG 1.1//EN"
 "http://www.w3.org/Graphics/SVG/1.1/DTD/svg11.dtd">
<!-- Generated by graphviz version 2.40.1 (20161225.0304)
 -->
<!-- Title: src/definitionimpl.h Pages: 1 -->
<svg width="735pt" height="357pt"
 viewBox="0.00 0.00 735.00 357.00" xmlns="http://www.w3.org/2000/svg" xmlns:xlink="http://www.w3.org/1999/xlink">
<g id="graph0" class="graph" transform="scale(1 1) rotate(0) translate(4 353)">
<title>src/definitionimpl.h</title>
<!-- Node1 -->
<g id="node1" class="node">
<title>Node1</title>
<g id="a_node1"><a xlink:title=" ">
<polygon fill="#999999" stroke="#666666" points="706,-349 608,-349 608,-330 706,-330 706,-349"/>
<text text-anchor="middle" x="657" y="-337" font-family="Helvetica,sans-Serif" font-size="10.00" fill="#000000">src/definitionimpl.h</text>
</a>
</g>
</g>
<!-- Node2 -->
<g id="node2" class="node">
<title>Node2</title>
<g id="a_node2"><a xlink:title=" ">
<polygon fill="#e0e0e0" stroke="#999999" points="698.5,-129 615.5,-129 615.5,-110 698.5,-110 698.5,-129"/>
<text text-anchor="middle" x="657" y="-117" font-family="Helvetica,sans-Serif" font-size="10.00" fill="#000000">unordered_map</text>
</a>
</g>
</g>
<!-- Node1&#45;&gt;Node2 -->
<g id="edge1" class="edge">
<title>Node1&#45;&gt;Node2</title>
<path fill="none" stroke="#63b8ff" d="M657,-329.763C657,-296.1856 657,-184.7967 657,-139.2094"/>
<polygon fill="#63b8ff" stroke="#63b8ff" points="660.5001,-139.1245 657,-129.1245 653.5001,-139.1246 660.5001,-139.1245"/>
</g>
<!-- Node3 -->
<g id="node3" class="node">
<title>Node3</title>
<g id="a_node3"><a xlink:title=" ">
<polygon fill="#e0e0e0" stroke="#999999" points="463.5,-19 422.5,-19 422.5,0 463.5,0 463.5,-19"/>
<text text-anchor="middle" x="443" y="-7" font-family="Helvetica,sans-Serif" font-size="10.00" fill="#000000">string</text>
</a>
</g>
</g>
<!-- Node1&#45;&gt;Node3 -->
<g id="edge2" class="edge">
<title>Node1&#45;&gt;Node3</title>
<path fill="none" stroke="#63b8ff" d="M668.5591,-329.9117C688.441,-312.269 727,-272.5086 727,-229.5 727,-229.5 727,-229.5 727,-119.5 727,-65.702 547.554,-27.9274 473.9421,-14.6948"/>
<polygon fill="#63b8ff" stroke="#63b8ff" points="474.339,-11.2109 463.8832,-12.9216 473.1237,-18.1046 474.339,-11.2109"/>
</g>
<!-- Node4 -->
<g id="node4" class="node">
<title>Node4</title>
<g id="a_node4"><a xlink:href="../../df/da1/definition_8h.html" target="_top" xlink:title=" ">
<polygon fill="#ffffff" stroke="#666666" points="438,-294 374,-294 374,-275 438,-275 438,-294"/>
<text text-anchor="middle" x="406" y="-282" font-family="Helvetica,sans-Serif" font-size="10.00" fill="#000000">definition.h</text>
</a>
</g>
</g>
<!-- Node1&#45;&gt;Node4 -->
<g id="edge3" class="edge">
<title>Node1&#45;&gt;Node4</title>
<path fill="none" stroke="#63b8ff" d="M613.5657,-329.9825C567.127,-319.8067 493.9924,-303.7812 448.0806,-293.7208"/>
<polygon fill="#63b8ff" stroke="#63b8ff" points="448.6715,-290.2674 438.1541,-291.5457 447.1731,-297.1051 448.6715,-290.2674"/>
</g>
<!-- Node5 -->
<g id="node5" class="node">
<title>Node5</title>
<g id="a_node5"><a xlink:title=" ">
<polygon fill="#e0e0e0" stroke="#999999" points="413,-129 369,-129 369,-110 413,-110 413,-129"/>
<text text-anchor="middle" x="391" y="-117" font-family="Helvetica,sans-Serif" font-size="10.00" fill="#000000">vector</text>
</a>
</g>
</g>
<!-- Node4&#45;&gt;Node5 -->
<g id="edge4" class="edge">
<title>Node4&#45;&gt;Node5</title>
<path fill="none" stroke="#63b8ff" d="M405.1066,-274.6726C402.6936,-248.1291 396.0099,-174.6086 392.7855,-139.1401"/>
<polygon fill="#63b8ff" stroke="#63b8ff" points="396.261,-138.7112 391.8699,-129.0692 389.2897,-139.345 396.261,-138.7112"/>
</g>
<!-- Node6 -->
<g id="node6" class="node">
<title>Node6</title>
<g id="a_node6"><a xlink:href="../../d9/d49/types_8h.html" target="_top" xlink:title="This file contains a number of basic enums and types.">
<polygon fill="#ffffff" stroke="#666666" points="334.5,-184 285.5,-184 285.5,-165 334.5,-165 334.5,-184"/>
<text text-anchor="middle" x="310" y="-172" font-family="Helvetica,sans-Serif" font-size="10.00" fill="#000000">types.h</text>
</a>
</g>
</g>
<!-- Node4&#45;&gt;Node6 -->
<g id="edge5" class="edge">
<title>Node4&#45;&gt;Node6</title>
<path fill="none" stroke="#63b8ff" d="M392.9158,-274.9065C381.6129,-266.2537 365.2195,-252.8008 353,-239 340.3648,-224.7296 328.5494,-206.5081 320.5138,-193.0746"/>
<polygon fill="#63b8ff" stroke="#63b8ff" points="323.4358,-191.1375 315.373,-184.2642 317.3897,-194.6653 323.4358,-191.1375"/>
</g>
<!-- Node16 -->
<g id="node16" class="node">
<title>Node16</title>
<g id="a_node16"><a xlink:href="../../d1/d02/reflist_8h.html" target="_top" xlink:title=" ">
<polygon fill="#ffffff" stroke="#666666" points="499.5,-239 450.5,-239 450.5,-220 499.5,-220 499.5,-239"/>
<text text-anchor="middle" x="475" y="-227" font-family="Helvetica,sans-Serif" font-size="10.00" fill="#000000">reflist.h</text>
</a>
</g>
</g>
<!-- Node4&#45;&gt;Node16 -->
<g id="edge18" class="edge">
<title>Node4&#45;&gt;Node16</title>
<path fill="none" stroke="#63b8ff" d="M418.0189,-274.9197C428.0856,-266.8956 442.6753,-255.2661 454.5713,-245.7837"/>
<polygon fill="#63b8ff" stroke="#63b8ff" points="457.0161,-248.3109 462.6542,-239.3408 452.6529,-242.8371 457.0161,-248.3109"/>
</g>
<!-- Node7 -->
<g id="node7" class="node">
<title>Node7</title>
<g id="a_node7"><a xlink:href="../../d7/d5c/qcstring_8h.html" target="_top" xlink:title=" ">
<polygon fill="#ffffff" stroke="#666666" points="331.5,-129 272.5,-129 272.5,-110 331.5,-110 331.5,-129"/>
<text text-anchor="middle" x="302" y="-117" font-family="Helvetica,sans-Serif" font-size="10.00" fill="#000000">qcstring.h</text>
</a>
</g>
</g>
<!-- Node6&#45;&gt;Node7 -->
<g id="edge6" class="edge">
<title>Node6&#45;&gt;Node7</title>
<path fill="none" stroke="#63b8ff" d="M308.6065,-164.9197C307.5867,-157.9083 306.1664,-148.1442 304.904,-139.4652"/>
<polygon fill="#63b8ff" stroke="#63b8ff" points="308.3344,-138.7329 303.4314,-129.3408 301.4073,-139.7405 308.3344,-138.7329"/>
</g>
<!-- Node7&#45;&gt;Node3 -->
<g id="edge7" class="edge">
<title>Node7&#45;&gt;Node3</title>
<path fill="none" stroke="#63b8ff" d="M311.8459,-109.8235C325.3483,-96.7571 350.6073,-73.0333 374,-55 388.1274,-44.1093 404.8048,-33.0665 418.2244,-24.5874"/>
<polygon fill="#63b8ff" stroke="#63b8ff" points="420.2916,-27.4231 426.923,-19.1602 416.5862,-21.4842 420.2916,-27.4231"/>
</g>
<!-- Node8 -->
<g id="node8" class="node">
<title>Node8</title>
<g id="a_node8"><a xlink:title=" ">
<polygon fill="#e0e0e0" stroke="#999999" points="439,-74 383,-74 383,-55 439,-55 439,-74"/>
<text text-anchor="middle" x="411" y="-62" font-family="Helvetica,sans-Serif" font-size="10.00" fill="#000000">algorithm</text>
</a>
</g>
</g>
<!-- Node7&#45;&gt;Node8 -->
<g id="edge8" class="edge">
<title>Node7&#45;&gt;Node8</title>
<path fill="none" stroke="#63b8ff" d="M320.9864,-109.9197C338.0744,-101.2973 363.4126,-88.512 382.856,-78.7011"/>
<polygon fill="#63b8ff" stroke="#63b8ff" points="384.5144,-81.7847 391.8655,-74.155 381.3609,-75.5352 384.5144,-81.7847"/>
</g>
<!-- Node9 -->
<g id="node9" class="node">
<title>Node9</title>
<g id="a_node9"><a xlink:title=" ">
<polygon fill="#e0e0e0" stroke="#999999" points="503,-74 457,-74 457,-55 503,-55 503,-74"/>
<text text-anchor="middle" x="480" y="-62" font-family="Helvetica,sans-Serif" font-size="10.00" fill="#000000">cctype</text>
</a>
</g>
</g>
<!-- Node7&#45;&gt;Node9 -->
<g id="edge9" class="edge">
<title>Node7&#45;&gt;Node9</title>
<path fill="none" stroke="#63b8ff" d="M331.7932,-110.2942C363.7231,-100.4282 414.2602,-84.8128 447.2767,-74.6111"/>
<polygon fill="#63b8ff" stroke="#63b8ff" points="448.3996,-77.9275 456.9206,-71.6313 446.333,-71.2395 448.3996,-77.9275"/>
</g>
<!-- Node10 -->
<g id="node10" class="node">
<title>Node10</title>
<g id="a_node10"><a xlink:title=" ">
<polygon fill="#e0e0e0" stroke="#999999" points="132,-74 86,-74 86,-55 132,-55 132,-74"/>
<text text-anchor="middle" x="109" y="-62" font-family="Helvetica,sans-Serif" font-size="10.00" fill="#000000">cstring</text>
</a>
</g>
</g>
<!-- Node7&#45;&gt;Node10 -->
<g id="edge10" class="edge">
<title>Node7&#45;&gt;Node10</title>
<path fill="none" stroke="#63b8ff" d="M272.2929,-111.2307C241.9178,-102.7479 193.1204,-89.0443 141.9751,-74.2572"/>
<polygon fill="#63b8ff" stroke="#63b8ff" points="142.6404,-70.8061 132.0614,-71.3858 140.6929,-77.5297 142.6404,-70.8061"/>
</g>
<!-- Node11 -->
<g id="node11" class="node">
<title>Node11</title>
<g id="a_node11"><a xlink:title=" ">
<polygon fill="#e0e0e0" stroke="#999999" points="193.5,-74 150.5,-74 150.5,-55 193.5,-55 193.5,-74"/>
<text text-anchor="middle" x="172" y="-62" font-family="Helvetica,sans-Serif" font-size="10.00" fill="#000000">cstdio</text>
</a>
</g>
</g>
<!-- Node7&#45;&gt;Node11 -->
<g id="edge11" class="edge">
<title>Node7&#45;&gt;Node11</title>
<path fill="none" stroke="#63b8ff" d="M279.3557,-109.9197C258.2231,-100.979 226.5107,-87.5622 203.0272,-77.6269"/>
<polygon fill="#63b8ff" stroke="#63b8ff" points="204.095,-74.2783 193.5215,-73.6053 201.3675,-80.7251 204.095,-74.2783"/>
</g>
<!-- Node12 -->
<g id="node12" class="node">
<title>Node12</title>
<g id="a_node12"><a xlink:title=" ">
<polygon fill="#e0e0e0" stroke="#999999" points="256.5,-74 211.5,-74 211.5,-55 256.5,-55 256.5,-74"/>
<text text-anchor="middle" x="234" y="-62" font-family="Helvetica,sans-Serif" font-size="10.00" fill="#000000">cstdlib</text>
</a>
</g>
</g>
<!-- Node7&#45;&gt;Node12 -->
<g id="edge12" class="edge">
<title>Node7&#45;&gt;Node12</title>
<path fill="none" stroke="#63b8ff" d="M290.1553,-109.9197C280.2345,-101.8956 265.8562,-90.2661 254.1326,-80.7837"/>
<polygon fill="#63b8ff" stroke="#63b8ff" points="256.143,-77.9083 246.1668,-74.3408 251.7409,-83.3509 256.143,-77.9083"/>
</g>
<!-- Node13 -->
<g id="node13" class="node">
<title>Node13</title>
<g id="a_node13"><a xlink:title=" ">
<polygon fill="#e0e0e0" stroke="#999999" points="46,-19 0,-19 0,0 46,0 46,-19"/>
<text text-anchor="middle" x="23" y="-7" font-family="Helvetica,sans-Serif" font-size="10.00" fill="#000000">cstdint</text>
</a>
</g>
</g>
<!-- Node7&#45;&gt;Node13 -->
<g id="edge13" class="edge">
<title>Node7&#45;&gt;Node13</title>
<path fill="none" stroke="#63b8ff" d="M272.2759,-116.9211C202.6236,-110.5784 33.4823,-93.3225 17,-74 6.5311,-61.7272 9.6773,-42.9583 14.4681,-28.8257"/>
<polygon fill="#63b8ff" stroke="#63b8ff" points="17.8856,-29.6951 18.254,-19.1066 11.363,-27.1543 17.8856,-29.6951"/>
</g>
<!-- Node14 -->
<g id="node14" class="node">
<title>Node14</title>
<g id="a_node14"><a xlink:title=" ">
<polygon fill="#e0e0e0" stroke="#999999" points="327,-74 275,-74 275,-55 327,-55 327,-74"/>
<text text-anchor="middle" x="301" y="-62" font-family="Helvetica,sans-Serif" font-size="10.00" fill="#000000">ostream</text>
</a>
</g>
</g>
<!-- Node7&#45;&gt;Node14 -->
<g id="edge14" class="edge">
<title>Node7&#45;&gt;Node14</title>
<path fill="none" stroke="#63b8ff" d="M301.8258,-109.9197C301.6983,-102.9083 301.5208,-93.1442 301.363,-84.4652"/>
<polygon fill="#63b8ff" stroke="#63b8ff" points="304.8602,-84.2755 301.1789,-74.3408 297.8614,-84.4028 304.8602,-84.2755"/>
</g>
<!-- Node15 -->
<g id="node15" class="node">
<title>Node15</title>
<g id="a_node15"><a xlink:href="../../db/d7c/utf8_8h.html" target="_top" xlink:title="Various UTF8 related helper functions.">
<polygon fill="#ffffff" stroke="#666666" points="67.5,-74 26.5,-74 26.5,-55 67.5,-55 67.5,-74"/>
<text text-anchor="middle" x="47" y="-62" font-family="Helvetica,sans-Serif" font-size="10.00" fill="#000000">utf8.h</text>
</a>
</g>
</g>
<!-- Node7&#45;&gt;Node15 -->
<g id="edge15" class="edge">
<title>Node7&#45;&gt;Node15</title>
<path fill="none" stroke="#63b8ff" d="M272.2855,-114.538C230.7864,-107.3819 152.9794,-93.1443 77.2721,-73.8388"/>
<polygon fill="#63b8ff" stroke="#63b8ff" points="78.1302,-70.4456 67.5726,-71.3341 76.3799,-77.2233 78.1302,-70.4456"/>
</g>
<!-- Node15&#45;&gt;Node3 -->
<g id="edge17" class="edge">
<title>Node15&#45;&gt;Node3</title>
<path fill="none" stroke="#63b8ff" d="M67.5226,-57.4562C70.6716,-56.5342 73.9044,-55.6766 77,-55 199.4057,-28.2466 348.5258,-15.8082 412.0031,-11.432"/>
<polygon fill="#63b8ff" stroke="#63b8ff" points="412.3949,-14.9137 422.1382,-10.7522 411.9263,-7.9293 412.3949,-14.9137"/>
</g>
<!-- Node15&#45;&gt;Node13 -->
<g id="edge16" class="edge">
<title>Node15&#45;&gt;Node13</title>
<path fill="none" stroke="#63b8ff" d="M42.8195,-54.9197C39.658,-47.6746 35.2139,-37.4903 31.335,-28.601"/>
<polygon fill="#63b8ff" stroke="#63b8ff" points="34.5016,-27.1064 27.2942,-19.3408 28.0858,-29.9061 34.5016,-27.1064"/>
</g>
<!-- Node16&#45;&gt;Node2 -->
<g id="edge20" class="edge">
<title>Node16&#45;&gt;Node2</title>
<path fill="none" stroke="#63b8ff" d="M497.3603,-219.871C516.5595,-211.2976 544.7352,-197.9793 568,-184 592.8801,-169.0501 619.6149,-149.0945 637.2166,-135.3597"/>
<polygon fill="#63b8ff" stroke="#63b8ff" points="639.3879,-138.1048 645.0756,-129.1661 635.0551,-132.6069 639.3879,-138.1048"/>
</g>
<!-- Node16&#45;&gt;Node5 -->
<g id="edge19" class="edge">
<title>Node16&#45;&gt;Node5</title>
<path fill="none" stroke="#63b8ff" d="M467.5456,-219.7382C453.3753,-201.1819 422.3718,-160.5822 404.4735,-137.1438"/>
<polygon fill="#63b8ff" stroke="#63b8ff" points="407.1687,-134.9063 398.3178,-129.0828 401.6053,-139.1547 407.1687,-134.9063"/>
</g>
<!-- Node16&#45;&gt;Node7 -->
<g id="edge22" class="edge">
<title>Node16&#45;&gt;Node7</title>
<path fill="none" stroke="#63b8ff" d="M459.95,-219.9306C429.7879,-200.7524 361.742,-157.4863 325.5978,-134.5044"/>
<polygon fill="#63b8ff" stroke="#63b8ff" points="327.455,-131.5377 317.1384,-129.1256 323.699,-137.4447 327.455,-131.5377"/>
</g>
<!-- Node17 -->
<g id="node17" class="node">
<title>Node17</title>
<g id="a_node17"><a xlink:title=" ">
<polygon fill="#e0e0e0" stroke="#999999" points="597,-129 545,-129 545,-110 597,-110 597,-129"/>
<text text-anchor="middle" x="571" y="-117" font-family="Helvetica,sans-Serif" font-size="10.00" fill="#000000">memory</text>
</a>
</g>
</g>
<!-- Node16&#45;&gt;Node17 -->
<g id="edge21" class="edge">
<title>Node16&#45;&gt;Node17</title>
<path fill="none" stroke="#63b8ff" d="M499.0425,-219.9382C515.2228,-212.3843 535.9146,-200.3777 549,-184 559.3728,-171.0174 564.9858,-152.8652 567.9397,-139.1239"/>
<polygon fill="#63b8ff" stroke="#63b8ff" points="571.3918,-139.7037 569.7786,-129.2324 564.5097,-138.4242 571.3918,-139.7037"/>
</g>
<!-- Node18 -->
<g id="node18" class="node">
<title>Node18</title>
<g id="a_node18"><a xlink:href="../../da/de1/linkedmap_8h.html" target="_top" xlink:title=" ">
<polygon fill="#ffffff" stroke="#666666" points="540.5,-184 471.5,-184 471.5,-165 540.5,-165 540.5,-184"/>
<text text-anchor="middle" x="506" y="-172" font-family="Helvetica,sans-Serif" font-size="10.00" fill="#000000">linkedmap.h</text>
</a>
</g>
</g>
<!-- Node16&#45;&gt;Node18 -->
<g id="edge23" class="edge">
<title>Node16&#45;&gt;Node18</title>
<path fill="none" stroke="#63b8ff" d="M480.3998,-219.9197C484.5273,-212.5967 490.3473,-202.2709 495.3953,-193.3147"/>
<polygon fill="#63b8ff" stroke="#63b8ff" points="498.5922,-194.7709 500.4534,-184.3408 492.4941,-191.3338 498.5922,-194.7709"/>
</g>
<!-- Node18&#45;&gt;Node2 -->
<g id="edge24" class="edge">
<title>Node18&#45;&gt;Node2</title>
<path fill="none" stroke="#63b8ff" d="M532.3022,-164.9197C556.9106,-155.9564 593.87,-142.4944 621.1673,-132.5516"/>
<polygon fill="#63b8ff" stroke="#63b8ff" points="622.5481,-135.7737 630.7463,-129.0626 620.1523,-129.1964 622.5481,-135.7737"/>
</g>
<!-- Node18&#45;&gt;Node3 -->
<g id="edge27" class="edge">
<title>Node18&#45;&gt;Node3</title>
<path fill="none" stroke="#63b8ff" d="M509.6745,-164.7785C517.1013,-143.4176 531.5971,-91.3971 512,-55 503.6854,-39.5576 487.5814,-28.4891 473.0214,-21.138"/>
<polygon fill="#63b8ff" stroke="#63b8ff" points="474.317,-17.8805 463.7738,-16.8355 471.3641,-24.2273 474.317,-17.8805"/>
</g>
<!-- Node18&#45;&gt;Node5 -->
<g id="edge25" class="edge">
<title>Node18&#45;&gt;Node5</title>
<path fill="none" stroke="#63b8ff" d="M485.9685,-164.9197C467.8579,-156.2581 440.9637,-143.3957 420.4138,-133.5675"/>
<polygon fill="#63b8ff" stroke="#63b8ff" points="421.7192,-130.3122 411.1878,-129.155 418.699,-136.6271 421.7192,-130.3122"/>
</g>
<!-- Node18&#45;&gt;Node7 -->
<g id="edge30" class="edge">
<title>Node18&#45;&gt;Node7</title>
<path fill="none" stroke="#63b8ff" d="M471.3942,-165.17C435.5463,-155.5051 379.5962,-140.4205 341.9058,-130.2589"/>
<polygon fill="#63b8ff" stroke="#63b8ff" points="342.3577,-126.7558 331.7913,-127.532 340.5354,-133.5145 342.3577,-126.7558"/>
</g>
<!-- Node18&#45;&gt;Node8 -->
<g id="edge28" class="edge">
<title>Node18&#45;&gt;Node8</title>
<path fill="none" stroke="#63b8ff" d="M497.5694,-164.7382C481.4729,-146.1002 446.1708,-105.224 425.9712,-81.835"/>
<polygon fill="#63b8ff" stroke="#63b8ff" points="428.4612,-79.3634 419.2761,-74.0828 423.1634,-83.9388 428.4612,-79.3634"/>
</g>
<!-- Node18&#45;&gt;Node9 -->
<g id="edge29" class="edge">
<title>Node18&#45;&gt;Node9</title>
<path fill="none" stroke="#63b8ff" d="M503.6927,-164.7382C499.4226,-146.6724 490.214,-107.713 484.618,-84.0376"/>
<polygon fill="#63b8ff" stroke="#63b8ff" points="487.9715,-83.0096 482.265,-74.0828 481.1592,-84.6198 487.9715,-83.0096"/>
</g>
<!-- Node18&#45;&gt;Node17 -->
<g id="edge26" class="edge">
<title>Node18&#45;&gt;Node17</title>
<path fill="none" stroke="#63b8ff" d="M517.3221,-164.9197C526.7132,-156.9735 540.2827,-145.4916 551.4285,-136.0605"/>
<polygon fill="#63b8ff" stroke="#63b8ff" points="553.9969,-138.4721 559.3699,-129.3408 549.4752,-133.1284 553.9969,-138.4721"/>
</g>
</g>
</svg>
