<?xml version="1.0" encoding="UTF-8" standalone="no"?>
<!DOCTYPE svg PUBLIC "-//W3C//DTD SVG 1.1//EN"
 "http://www.w3.org/Graphics/SVG/1.1/DTD/svg11.dtd">
<!-- Generated by graphviz version 2.40.1 (20161225.0304)
 -->
<!-- Title: DocSecRefItem Pages: 1 -->
<!--zoomable 378 -->
<svg id="main" version="1.1" xmlns="http://www.w3.org/2000/svg" xmlns:xlink="http://www.w3.org/1999/xlink" xml:space="preserve" onload="init(evt)">
<style type="text/css"><![CDATA[
.edge:hover path { stroke: red; }
.edge:hover polygon { stroke: red; fill: red; }
]]></style>
<script type="text/javascript"><![CDATA[
var edges = document.getElementsByTagName('g');
if (edges && edges.length) {
  for (var i=0;i<edges.length;i++) {
    if (edges[i].id.substr(0,4)=='edge') {
      edges[i].setAttribute('class','edge');
    }
  }
}
]]></script>
        <defs>
                <circle id="rim" cx="0" cy="0" r="7"/>
                <circle id="rim2" cx="0" cy="0" r="3.5"/>
                <g id="zoomPlus">
                        <use xlink:href="#rim" fill="#404040">
                                <set attributeName="fill" to="#808080" begin="zoomplus.mouseover" end="zoomplus.mouseout"/>
                        </use>
                        <path d="M-4,0h8M0,-4v8" fill="none" stroke="white" stroke-width="1.5" pointer-events="none"/>
                </g>
                <g id="zoomMin">
                        <use xlink:href="#rim" fill="#404040">
                                <set attributeName="fill" to="#808080" begin="zoomminus.mouseover" end="zoomminus.mouseout"/>
                        </use>
                        <path d="M-4,0h8" fill="none" stroke="white" stroke-width="1.5" pointer-events="none"/>
                </g>
                <g id="dirArrow">
                        <path fill="none" stroke="white" stroke-width="1.5" d="M0,-3.0v7 M-2.5,-0.5L0,-3.0L2.5,-0.5"/>
                </g>
               <g id="resetDef">
                       <use xlink:href="#rim2" fill="#404040">
                               <set attributeName="fill" to="#808080" begin="reset.mouseover" end="reset.mouseout"/>
                       </use>
               </g>
        </defs>

<script type="text/javascript">
var viewWidth = 1555;
var viewHeight = 378;
var sectionId = 'dynsection-1';
</script>
<script xlink:href="../../svgpan.js"/>
<svg id="graph" class="graph">
<g id="viewport">
<title>DocSecRefItem</title>
<!-- Node1 -->
<g id="node1" class="node">
<title>Node1</title>
<g id="a_node1"><a xlink:title="Node representing a reference to a section.">
<polygon fill="#999999" stroke="#666666" points="1547,-53.5 1460,-53.5 1460,-34.5 1547,-34.5 1547,-53.5"/>
<text text-anchor="middle" x="1503.5" y="-41.5" font-family="Helvetica,sans-Serif" font-size="10.00" fill="#000000">DocSecRefItem</text>
</a>
</g>
</g>
<!-- Node2 -->
<g id="node2" class="node">
<title>Node2</title>
<g id="a_node2"><a xlink:href="../../da/dfc/class_doc_compound_node.html" target="_top" xlink:title="Base class for nodes with children.">
<polygon fill="#ffffff" stroke="#666666" points="1423,-171.5 1318,-171.5 1318,-152.5 1423,-152.5 1423,-171.5"/>
<text text-anchor="middle" x="1370.5" y="-159.5" font-family="Helvetica,sans-Serif" font-size="10.00" fill="#000000">DocCompoundNode</text>
</a>
</g>
</g>
<!-- Node2&#45;&gt;Node1 -->
<g id="edge1" class="edge">
<title>Node2&#45;&gt;Node1</title>
<path fill="none" stroke="#63b8ff" d="M1388.9284,-145.65C1417.0048,-120.7401 1469.6349,-74.0457 1492.4657,-53.7899"/>
<polygon fill="#63b8ff" stroke="#63b8ff" points="1386.5414,-143.0888 1381.3839,-152.3436 1391.1871,-148.325 1386.5414,-143.0888"/>
</g>
<!-- Node3 -->
<g id="node3" class="node">
<title>Node3</title>
<g id="a_node3"><a xlink:href="../../d9/d0e/class_doc_node.html" target="_top" xlink:title="Abstract node interface with type information.">
<polygon fill="#ffffff" stroke="#666666" points="1223,-171.5 1165,-171.5 1165,-152.5 1223,-152.5 1223,-171.5"/>
<text text-anchor="middle" x="1194" y="-159.5" font-family="Helvetica,sans-Serif" font-size="10.00" fill="#000000">DocNode</text>
</a>
</g>
</g>
<!-- Node3&#45;&gt;Node2 -->
<g id="edge2" class="edge">
<title>Node3&#45;&gt;Node2</title>
<path fill="none" stroke="#63b8ff" d="M1233.3055,-162C1258.185,-162 1290.6551,-162 1317.7609,-162"/>
<polygon fill="#63b8ff" stroke="#63b8ff" points="1233.1454,-158.5001 1223.1454,-162 1233.1454,-165.5001 1233.1454,-158.5001"/>
</g>
<!-- Node4 -->
<g id="node4" class="node">
<title>Node4</title>
<g id="a_node4"><a xlink:href="../../da/d02/class_doc_parser.html" target="_top" xlink:title=" ">
<polygon fill="#ffffff" stroke="#666666" points="1029.5,-171.5 966.5,-171.5 966.5,-152.5 1029.5,-152.5 1029.5,-171.5"/>
<text text-anchor="middle" x="998" y="-159.5" font-family="Helvetica,sans-Serif" font-size="10.00" fill="#000000">DocParser</text>
</a>
</g>
</g>
<!-- Node4&#45;&gt;Node3 -->
<g id="edge3" class="edge">
<title>Node4&#45;&gt;Node3</title>
<path fill="none" stroke="#9a32cd" stroke-dasharray="5,2" d="M1040.0771,-162C1077.7313,-162 1131.9413,-162 1164.965,-162"/>
<polygon fill="#9a32cd" stroke="#9a32cd" points="1039.927,-158.5001 1029.927,-162 1039.927,-165.5001 1039.927,-158.5001"/>
<text text-anchor="middle" x="1117" y="-165" font-family="Helvetica,sans-Serif" font-size="10.00" fill="#000000"> m_parser</text>
</g>
<!-- Node5 -->
<g id="node5" class="node">
<title>Node5</title>
<g id="a_node5"><a xlink:href="../../de/dad/class_i_doc_parser.html" target="_top" xlink:title="opaque parser interface">
<polygon fill="#ffffff" stroke="#666666" points="773,-236.5 707,-236.5 707,-217.5 773,-217.5 773,-236.5"/>
<text text-anchor="middle" x="740" y="-224.5" font-family="Helvetica,sans-Serif" font-size="10.00" fill="#000000">IDocParser</text>
</a>
</g>
</g>
<!-- Node5&#45;&gt;Node4 -->
<g id="edge4" class="edge">
<title>Node5&#45;&gt;Node4</title>
<path fill="none" stroke="#63b8ff" d="M783.1913,-221.3433C815.876,-216.5529 861.6937,-208.7428 901,-198 927.164,-190.8491 956.2105,-179.6091 975.6361,-171.5917"/>
<polygon fill="#63b8ff" stroke="#63b8ff" points="782.4691,-217.9109 773.0658,-222.7924 783.4608,-224.8403 782.4691,-217.9109"/>
</g>
<!-- Node6 -->
<g id="node6" class="node">
<title>Node6</title>
<g id="a_node6"><a xlink:href="../../d8/d7d/struct_doc_parser_context.html" target="_top" xlink:title="Parser&#39;s context to store all global variables.">
<polygon fill="#ffffff" stroke="#666666" points="789,-199.5 691,-199.5 691,-180.5 789,-180.5 789,-199.5"/>
<text text-anchor="middle" x="740" y="-187.5" font-family="Helvetica,sans-Serif" font-size="10.00" fill="#000000">DocParserContext</text>
</a>
</g>
</g>
<!-- Node6&#45;&gt;Node4 -->
<g id="edge5" class="edge">
<title>Node6&#45;&gt;Node4</title>
<path fill="none" stroke="#9a32cd" stroke-dasharray="5,2" d="M799.2135,-183.5737C851.1225,-177.9402 924.5994,-169.966 966.1418,-165.4575"/>
<polygon fill="#9a32cd" stroke="#9a32cd" points="798.6991,-180.1089 789.1351,-184.6675 799.4544,-187.0681 798.6991,-180.1089"/>
<text text-anchor="middle" x="854" y="-186" font-family="Helvetica,sans-Serif" font-size="10.00" fill="#000000"> context</text>
</g>
<!-- Node7 -->
<g id="node7" class="node">
<title>Node7</title>
<g id="a_node7"><a xlink:href="../../d5/dcc/class_definition.html" target="_top" xlink:title="The common base class of all entity definitions found in the sources.">
<polygon fill="#ffffff" stroke="#666666" points="265.5,-330.5 207.5,-330.5 207.5,-311.5 265.5,-311.5 265.5,-330.5"/>
<text text-anchor="middle" x="236.5" y="-318.5" font-family="Helvetica,sans-Serif" font-size="10.00" fill="#000000">Definition</text>
</a>
</g>
</g>
<!-- Node7&#45;&gt;Node6 -->
<g id="edge6" class="edge">
<title>Node7&#45;&gt;Node6</title>
<path fill="none" stroke="#9a32cd" stroke-dasharray="5,2" d="M275.4447,-332.7967C360.5972,-355.9238 564.3939,-396.3074 673,-291 700.0991,-264.724 666.2199,-236.4734 691,-208 693.9748,-204.5818 697.6568,-201.8122 701.6562,-199.5682"/>
<polygon fill="#9a32cd" stroke="#9a32cd" points="276.2352,-329.3837 265.6628,-330.0728 274.3574,-336.1271 276.2352,-329.3837"/>
<text text-anchor="middle" x="527.5" y="-362" font-family="Helvetica,sans-Serif" font-size="10.00" fill="#000000"> scope</text>
</g>
<!-- Node13 -->
<g id="node13" class="node">
<title>Node13</title>
<g id="a_node13"><a xlink:href="../../da/d09/class_member_def.html" target="_top" xlink:title="A model of a class/file/namespace member symbol.">
<polygon fill="#ffffff" stroke="#666666" points="561.5,-298.5 493.5,-298.5 493.5,-279.5 561.5,-279.5 561.5,-298.5"/>
<text text-anchor="middle" x="527.5" y="-286.5" font-family="Helvetica,sans-Serif" font-size="10.00" fill="#000000">MemberDef</text>
</a>
</g>
</g>
<!-- Node7&#45;&gt;Node13 -->
<g id="edge13" class="edge">
<title>Node7&#45;&gt;Node13</title>
<path fill="none" stroke="#63b8ff" d="M275.8707,-316.6706C333.294,-310.356 439.0756,-298.7236 493.3748,-292.7526"/>
<polygon fill="#63b8ff" stroke="#63b8ff" points="275.292,-313.213 265.7346,-317.7852 276.0572,-320.1711 275.292,-313.213"/>
</g>
<!-- Node8 -->
<g id="node8" class="node">
<title>Node8</title>
<g id="a_node8"><a xlink:href="../../d9/d45/class_q_c_string.html" target="_top" xlink:title="This is an alternative implementation of QCString.">
<polygon fill="#ffffff" stroke="#666666" points="265,-42.5 208,-42.5 208,-23.5 265,-23.5 265,-42.5"/>
<text text-anchor="middle" x="236.5" y="-30.5" font-family="Helvetica,sans-Serif" font-size="10.00" fill="#000000">QCString</text>
</a>
</g>
</g>
<!-- Node8&#45;&gt;Node1 -->
<g id="edge23" class="edge">
<title>Node8&#45;&gt;Node1</title>
<path fill="none" stroke="#9a32cd" stroke-dasharray="5,2" d="M275.0029,-25.022C291.5608,-21.8256 311.1706,-18.3508 329,-16 416.7489,-4.4304 438.9916,0 527.5,0 527.5,0 527.5,0 1370.5,0 1414.0347,0 1461.7134,-21.5119 1486.4566,-34.4527"/>
<polygon fill="#9a32cd" stroke="#9a32cd" points="274.2674,-21.5995 265.1309,-26.9637 275.6184,-28.4679 274.2674,-21.5995"/>
<text text-anchor="middle" x="998" y="-47" font-family="Helvetica,sans-Serif" font-size="10.00" fill="#000000"> m_anchor</text>
<text text-anchor="middle" x="998" y="-36" font-family="Helvetica,sans-Serif" font-size="10.00" fill="#000000">m_file</text>
<text text-anchor="middle" x="998" y="-25" font-family="Helvetica,sans-Serif" font-size="10.00" fill="#000000">m_ref</text>
<text text-anchor="middle" x="998" y="-14" font-family="Helvetica,sans-Serif" font-size="10.00" fill="#000000">m_relPath</text>
<text text-anchor="middle" x="998" y="-3" font-family="Helvetica,sans-Serif" font-size="10.00" fill="#000000">m_target</text>
</g>
<!-- Node8&#45;&gt;Node6 -->
<g id="edge7" class="edge">
<title>Node8&#45;&gt;Node6</title>
<path fill="none" stroke="#9a32cd" stroke-dasharray="5,2" d="M248.9618,-50.821C264.8407,-71.9241 294.4144,-106.1983 329,-122 431.2944,-168.7371 470.4208,-124.488 581,-145 627.824,-153.6857 680.778,-170.0283 712.2241,-180.4457"/>
<polygon fill="#9a32cd" stroke="#9a32cd" points="251.7411,-48.692 243.0203,-42.6755 246.0857,-52.8172 251.7411,-48.692"/>
<text text-anchor="middle" x="527.5" y="-214" font-family="Helvetica,sans-Serif" font-size="10.00" fill="#000000"> context</text>
<text text-anchor="middle" x="527.5" y="-203" font-family="Helvetica,sans-Serif" font-size="10.00" fill="#000000">exampleName</text>
<text text-anchor="middle" x="527.5" y="-192" font-family="Helvetica,sans-Serif" font-size="10.00" fill="#000000">fileName</text>
<text text-anchor="middle" x="527.5" y="-181" font-family="Helvetica,sans-Serif" font-size="10.00" fill="#000000">includeFileName</text>
<text text-anchor="middle" x="527.5" y="-170" font-family="Helvetica,sans-Serif" font-size="10.00" fill="#000000">includeFileText</text>
<text text-anchor="middle" x="527.5" y="-159" font-family="Helvetica,sans-Serif" font-size="10.00" fill="#000000">relPath</text>
<text text-anchor="middle" x="527.5" y="-148" font-family="Helvetica,sans-Serif" font-size="10.00" fill="#000000">searchUrl</text>
</g>
<!-- Node14 -->
<g id="node14" class="node">
<title>Node14</title>
<g id="a_node14"><a xlink:href="../../d6/df4/struct_token_info.html" target="_top" xlink:title="Data associated with a token used by the comment block parser.">
<polygon fill="#ffffff" stroke="#666666" points="557.5,-99.5 497.5,-99.5 497.5,-80.5 557.5,-80.5 557.5,-99.5"/>
<text text-anchor="middle" x="527.5" y="-87.5" font-family="Helvetica,sans-Serif" font-size="10.00" fill="#000000">TokenInfo</text>
</a>
</g>
</g>
<!-- Node8&#45;&gt;Node14 -->
<g id="edge15" class="edge">
<title>Node8&#45;&gt;Node14</title>
<path fill="none" stroke="#9a32cd" stroke-dasharray="5,2" d="M275.1062,-25.8132C319.9659,-19.114 395.5555,-12.9926 456,-34 482.5104,-43.2137 506.7221,-66.6883 519.0151,-80.1378"/>
<polygon fill="#9a32cd" stroke="#9a32cd" points="274.536,-22.3597 265.2042,-27.3766 275.6277,-29.2741 274.536,-22.3597"/>
<text text-anchor="middle" x="392.5" y="-114" font-family="Helvetica,sans-Serif" font-size="10.00" fill="#000000"> attribsStr</text>
<text text-anchor="middle" x="392.5" y="-103" font-family="Helvetica,sans-Serif" font-size="10.00" fill="#000000">chars</text>
<text text-anchor="middle" x="392.5" y="-92" font-family="Helvetica,sans-Serif" font-size="10.00" fill="#000000">name</text>
<text text-anchor="middle" x="392.5" y="-81" font-family="Helvetica,sans-Serif" font-size="10.00" fill="#000000">sectionId</text>
<text text-anchor="middle" x="392.5" y="-70" font-family="Helvetica,sans-Serif" font-size="10.00" fill="#000000">simpleSectName</text>
<text text-anchor="middle" x="392.5" y="-59" font-family="Helvetica,sans-Serif" font-size="10.00" fill="#000000">simpleSectText</text>
<text text-anchor="middle" x="392.5" y="-48" font-family="Helvetica,sans-Serif" font-size="10.00" fill="#000000">text</text>
<text text-anchor="middle" x="392.5" y="-37" font-family="Helvetica,sans-Serif" font-size="10.00" fill="#000000">verb</text>
</g>
<!-- Node9 -->
<g id="node9" class="node">
<title>Node9</title>
<g id="a_node9"><a xlink:href="../../d9/d82/class_iterable_stack.html" target="_top" xlink:title=" ">
<polygon fill="#ffffff" stroke="#666666" points="581,-261 474,-261 474,-231 581,-231 581,-261"/>
<text text-anchor="start" x="482" y="-249" font-family="Helvetica,sans-Serif" font-size="10.00" fill="#000000">IterableStack&lt; const</text>
<text text-anchor="middle" x="527.5" y="-238" font-family="Helvetica,sans-Serif" font-size="10.00" fill="#000000"> DocNodeVariant * &gt;</text>
</a>
</g>
</g>
<!-- Node9&#45;&gt;Node6 -->
<g id="edge8" class="edge">
<title>Node9&#45;&gt;Node6</title>
<path fill="none" stroke="#9a32cd" stroke-dasharray="5,2" d="M571.7917,-227.2516C580.7025,-223.8794 590.0737,-220.6117 599,-218 629.0609,-209.2046 663.5346,-202.3036 690.8698,-197.5533"/>
<polygon fill="#9a32cd" stroke="#9a32cd" points="570.3971,-224.0386 562.3462,-230.9258 572.9348,-230.5624 570.3971,-224.0386"/>
<text text-anchor="middle" x="636" y="-232" font-family="Helvetica,sans-Serif" font-size="10.00" fill="#000000"> initialStyleStack</text>
<text text-anchor="middle" x="636" y="-221" font-family="Helvetica,sans-Serif" font-size="10.00" fill="#000000">styleStack</text>
</g>
<!-- Node10 -->
<g id="node10" class="node">
<title>Node10</title>
<g id="a_node10"><a xlink:title=" ">
<polygon fill="#ffffff" stroke="#666666" points="311,-241.5 162,-241.5 162,-200.5 311,-200.5 311,-241.5"/>
<text text-anchor="start" x="170" y="-229.5" font-family="Helvetica,sans-Serif" font-size="10.00" fill="#000000">std::stack&lt; const DocNode</text>
<text text-anchor="start" x="170" y="-218.5" font-family="Helvetica,sans-Serif" font-size="10.00" fill="#000000">Variant * , std::deque</text>
<text text-anchor="middle" x="236.5" y="-207.5" font-family="Helvetica,sans-Serif" font-size="10.00" fill="#000000">&lt;const DocNodeVariant * &gt; &#160;&gt;</text>
</a>
</g>
</g>
<!-- Node10&#45;&gt;Node9 -->
<g id="edge9" class="edge">
<title>Node10&#45;&gt;Node9</title>
<path fill="none" stroke="#63b8ff" d="M321.0765,-228.266C370.3617,-232.5001 431.0285,-237.7121 473.8016,-241.3867"/>
<polygon fill="#63b8ff" stroke="#63b8ff" points="321.3248,-224.7745 311.0618,-227.4057 320.7255,-231.7489 321.3248,-224.7745"/>
</g>
<!-- Node11 -->
<g id="node11" class="node">
<title>Node11</title>
<g id="a_node11"><a xlink:href="../../d9/d82/class_iterable_stack.html" target="_top" xlink:title=" ">
<polygon fill="#ffffff" stroke="#666666" points="309.5,-278.5 163.5,-278.5 163.5,-259.5 309.5,-259.5 309.5,-278.5"/>
<text text-anchor="middle" x="236.5" y="-266.5" font-family="Helvetica,sans-Serif" font-size="10.00" fill="#000000">IterableStack&lt; T, Container &gt;</text>
</a>
</g>
</g>
<!-- Node11&#45;&gt;Node9 -->
<g id="edge10" class="edge">
<title>Node11&#45;&gt;Node9</title>
<path fill="none" stroke="#ffa500" stroke-dasharray="5,2" d="M319.6087,-262.4313C369.1144,-258.5185 430.508,-253.666 473.7014,-250.2521"/>
<polygon fill="#ffa500" stroke="#ffa500" points="319.2491,-258.9487 309.556,-263.2258 319.8007,-265.9269 319.2491,-258.9487"/>
<text text-anchor="middle" x="392.5" y="-264" font-family="Helvetica,sans-Serif" font-size="10.00" fill="#000000"> &lt; const DocNodeVariant * &gt;</text>
</g>
<!-- Node12 -->
<g id="node12" class="node">
<title>Node12</title>
<g id="a_node12"><a xlink:title=" ">
<polygon fill="#ffffff" stroke="#666666" points="110,-284 15,-284 15,-254 110,-254 110,-284"/>
<text text-anchor="start" x="23" y="-272" font-family="Helvetica,sans-Serif" font-size="10.00" fill="#000000">std::stack&lt; T, std</text>
<text text-anchor="middle" x="62.5" y="-261" font-family="Helvetica,sans-Serif" font-size="10.00" fill="#000000">::deque&lt; T &gt; &gt;</text>
</a>
</g>
</g>
<!-- Node12&#45;&gt;Node11 -->
<g id="edge11" class="edge">
<title>Node12&#45;&gt;Node11</title>
<path fill="none" stroke="#63b8ff" d="M120.308,-269C134.0418,-269 148.8734,-269 163.1969,-269"/>
<polygon fill="#63b8ff" stroke="#63b8ff" points="120.0463,-265.5001 110.0463,-269 120.0462,-272.5001 120.0463,-265.5001"/>
</g>
<!-- Node13&#45;&gt;Node6 -->
<g id="edge12" class="edge">
<title>Node13&#45;&gt;Node6</title>
<path fill="none" stroke="#9a32cd" stroke-dasharray="5,2" d="M571.9429,-282.6774C603.0848,-276.3304 644.1344,-263.9027 673,-240 685.5682,-229.5927 678.5745,-218.5773 691,-208 695.0026,-204.5928 699.7067,-201.8055 704.589,-199.5321"/>
<polygon fill="#9a32cd" stroke="#9a32cd" points="570.965,-279.3005 561.7935,-284.6046 572.2709,-286.1776 570.965,-279.3005"/>
<text text-anchor="middle" x="636" y="-279" font-family="Helvetica,sans-Serif" font-size="10.00" fill="#000000"> memberDef</text>
</g>
<!-- Node14&#45;&gt;Node6 -->
<g id="edge14" class="edge">
<title>Node14&#45;&gt;Node6</title>
<path fill="none" stroke="#9a32cd" stroke-dasharray="5,2" d="M567.7771,-84.9076C599.968,-83.1559 644.3034,-86.2675 673,-111 694.0891,-129.1759 672.1007,-150.5567 691,-171 694.5924,-174.8858 699.0721,-177.9862 703.8528,-180.4575"/>
<polygon fill="#9a32cd" stroke="#9a32cd" points="567.5107,-81.4176 557.7875,-85.6259 568.0128,-88.3996 567.5107,-81.4176"/>
<text text-anchor="middle" x="636" y="-114" font-family="Helvetica,sans-Serif" font-size="10.00" fill="#000000"> token</text>
</g>
<!-- Node15 -->
<g id="node15" class="node">
<title>Node15</title>
<g id="a_node15"><a xlink:href="../../db/d4d/class_html_attrib_list.html" target="_top" xlink:title="Class representing a list of HTML attributes.">
<polygon fill="#ffffff" stroke="#666666" points="275,-178.5 198,-178.5 198,-159.5 275,-159.5 275,-178.5"/>
<text text-anchor="middle" x="236.5" y="-166.5" font-family="Helvetica,sans-Serif" font-size="10.00" fill="#000000">HtmlAttribList</text>
</a>
</g>
</g>
<!-- Node15&#45;&gt;Node14 -->
<g id="edge16" class="edge">
<title>Node15&#45;&gt;Node14</title>
<path fill="none" stroke="#9a32cd" stroke-dasharray="5,2" d="M285.2956,-164.99C330.8566,-159.9726 400.0382,-149.0509 456,-126 464.8902,-122.3381 465.5846,-118.6504 474,-114 483.5337,-108.7316 494.4442,-103.6745 503.915,-99.5724"/>
<polygon fill="#9a32cd" stroke="#9a32cd" points="284.6772,-161.5355 275.096,-166.0579 285.4062,-168.4974 284.6772,-161.5355"/>
<text text-anchor="middle" x="392.5" y="-162" font-family="Helvetica,sans-Serif" font-size="10.00" fill="#000000"> attribs</text>
</g>
<!-- Node16 -->
<g id="node16" class="node">
<title>Node16</title>
<g id="a_node16"><a xlink:title=" ">
<polygon fill="#ffffff" stroke="#666666" points="125,-178.5 0,-178.5 0,-159.5 125,-159.5 125,-178.5"/>
<text text-anchor="middle" x="62.5" y="-166.5" font-family="Helvetica,sans-Serif" font-size="10.00" fill="#000000">std::vector&lt; HtmlAttrib &gt;</text>
</a>
</g>
</g>
<!-- Node16&#45;&gt;Node15 -->
<g id="edge17" class="edge">
<title>Node16&#45;&gt;Node15</title>
<path fill="none" stroke="#63b8ff" d="M135.3908,-169C156.8225,-169 179.4279,-169 197.8162,-169"/>
<polygon fill="#63b8ff" stroke="#63b8ff" points="135.318,-165.5001 125.318,-169 135.318,-172.5001 135.318,-165.5001"/>
</g>
<!-- Node17 -->
<g id="node17" class="node">
<title>Node17</title>
<g id="a_node17"><a xlink:href="../../d1/d7f/class_doc_tokenizer.html" target="_top" xlink:title=" ">
<polygon fill="#ffffff" stroke="#666666" points="778.5,-162.5 701.5,-162.5 701.5,-143.5 778.5,-143.5 778.5,-162.5"/>
<text text-anchor="middle" x="740" y="-150.5" font-family="Helvetica,sans-Serif" font-size="10.00" fill="#000000">DocTokenizer</text>
</a>
</g>
</g>
<!-- Node17&#45;&gt;Node4 -->
<g id="edge18" class="edge">
<title>Node17&#45;&gt;Node4</title>
<path fill="none" stroke="#9a32cd" stroke-dasharray="5,2" d="M789.1153,-153.3661C821.0116,-153.7394 863.4805,-154.4907 901,-156 922.7479,-156.8748 947.2084,-158.3915 966.1254,-159.6811"/>
<polygon fill="#9a32cd" stroke="#9a32cd" points="788.7634,-149.8622 778.726,-153.2534 788.6874,-156.8617 788.7634,-149.8622"/>
<text text-anchor="middle" x="854" y="-159" font-family="Helvetica,sans-Serif" font-size="10.00" fill="#000000"> tokenizer</text>
</g>
<!-- Node18 -->
<g id="node18" class="node">
<title>Node18</title>
<g id="a_node18"><a xlink:href="../../d2/dc1/class_s_i_data_collection.html" target="_top" xlink:title=" ">
<polygon fill="#ffffff" stroke="#666666" points="785.5,-125.5 694.5,-125.5 694.5,-106.5 785.5,-106.5 785.5,-125.5"/>
<text text-anchor="middle" x="740" y="-113.5" font-family="Helvetica,sans-Serif" font-size="10.00" fill="#000000">SIDataCollection</text>
</a>
</g>
</g>
<!-- Node18&#45;&gt;Node4 -->
<g id="edge19" class="edge">
<title>Node18&#45;&gt;Node4</title>
<path fill="none" stroke="#9a32cd" stroke-dasharray="5,2" d="M795.8418,-122.7078C826.9173,-126.7585 866.2316,-132.4086 901,-139 922.9356,-143.1585 947.3946,-148.9662 966.264,-153.7051"/>
<polygon fill="#9a32cd" stroke="#9a32cd" points="796.0021,-119.1996 785.6375,-121.3963 795.1097,-126.1425 796.0021,-119.1996"/>
<text text-anchor="middle" x="854" y="-142" font-family="Helvetica,sans-Serif" font-size="10.00" fill="#000000"> searchData</text>
</g>
<!-- Node19 -->
<g id="node19" class="node">
<title>Node19</title>
<g id="a_node19"><a xlink:href="../../d9/dd3/struct_doc_node_list.html" target="_top" xlink:title=" ">
<polygon fill="#ffffff" stroke="#666666" points="1231,-226.5 1157,-226.5 1157,-207.5 1231,-207.5 1231,-226.5"/>
<text text-anchor="middle" x="1194" y="-214.5" font-family="Helvetica,sans-Serif" font-size="10.00" fill="#000000">DocNodeList</text>
</a>
</g>
</g>
<!-- Node19&#45;&gt;Node2 -->
<g id="edge20" class="edge">
<title>Node19&#45;&gt;Node2</title>
<path fill="none" stroke="#9a32cd" stroke-dasharray="5,2" d="M1234.6926,-204.3196C1266.7295,-194.3364 1310.6893,-180.6379 1339.8128,-171.5626"/>
<polygon fill="#9a32cd" stroke="#9a32cd" points="1233.2499,-201.1031 1224.744,-207.4197 1235.3325,-207.7861 1233.2499,-201.1031"/>
<text text-anchor="middle" x="1274.5" y="-203" font-family="Helvetica,sans-Serif" font-size="10.00" fill="#000000"> m_children</text>
</g>
<!-- Node20 -->
<g id="node20" class="node">
<title>Node20</title>
<g id="a_node20"><a xlink:href="../../d0/d08/class_grow_vector.html" target="_top" xlink:title=" ">
<polygon fill="#ffffff" stroke="#666666" points="1077,-268.5 919,-268.5 919,-249.5 1077,-249.5 1077,-268.5"/>
<text text-anchor="middle" x="998" y="-256.5" font-family="Helvetica,sans-Serif" font-size="10.00" fill="#000000">GrowVector&lt; DocNodeVariant &gt;</text>
</a>
</g>
</g>
<!-- Node20&#45;&gt;Node19 -->
<g id="edge21" class="edge">
<title>Node20&#45;&gt;Node19</title>
<path fill="none" stroke="#63b8ff" d="M1052.5108,-247.3191C1085.7888,-240.1881 1127.4594,-231.2587 1156.9359,-224.9423"/>
<polygon fill="#63b8ff" stroke="#63b8ff" points="1051.5201,-243.9519 1042.4754,-249.4695 1052.9868,-250.7965 1051.5201,-243.9519"/>
</g>
<!-- Node21 -->
<g id="node21" class="node">
<title>Node21</title>
<g id="a_node21"><a xlink:href="../../d0/d08/class_grow_vector.html" target="_top" xlink:title="std::vector like container optimised for pushing elements to the back.">
<polygon fill="#ffffff" stroke="#666666" points="786,-273.5 694,-273.5 694,-254.5 786,-254.5 786,-273.5"/>
<text text-anchor="middle" x="740" y="-261.5" font-family="Helvetica,sans-Serif" font-size="10.00" fill="#000000">GrowVector&lt; T &gt;</text>
</a>
</g>
</g>
<!-- Node21&#45;&gt;Node20 -->
<g id="edge22" class="edge">
<title>Node21&#45;&gt;Node20</title>
<path fill="none" stroke="#ffa500" stroke-dasharray="5,2" d="M796.4084,-262.9068C832.2895,-262.2114 879.2798,-261.3008 918.8656,-260.5336"/>
<polygon fill="#ffa500" stroke="#ffa500" points="796.0555,-259.4129 786.1252,-263.1061 796.1912,-266.4116 796.0555,-259.4129"/>
<text text-anchor="middle" x="854" y="-265" font-family="Helvetica,sans-Serif" font-size="10.00" fill="#000000"> &lt; DocNodeVariant &gt;</text>
</g>
</g>
</svg>
        <g id="navigator" transform="translate(0 0)" fill="#404254">
                <rect fill="#f2f5e9" fill-opacity="0.5" stroke="#606060" stroke-width=".5" x="0" y="0" width="60" height="60"/>
                <use id="zoomplus" xlink:href="#zoomPlus" x="17" y="9" onmousedown="handleZoom(evt,'in')"/>
                <use id="zoomminus" xlink:href="#zoomMin" x="42" y="9" onmousedown="handleZoom(evt,'out')"/>
                <use id="reset" xlink:href="#resetDef" x="30" y="36" onmousedown="handleReset()"/>
                <g id="arrowUp" xlink:href="#dirArrow" transform="translate(30 24)" onmousedown="handlePan(0,-1)">
                  <use xlink:href="#rim" fill="#404040">
                        <set attributeName="fill" to="#808080" begin="arrowUp.mouseover" end="arrowUp.mouseout"/>
                  </use>
                  <path fill="none" stroke="white" stroke-width="1.5" d="M0,-3.0v7 M-2.5,-0.5L0,-3.0L2.5,-0.5"/>
                </g>
                <g id="arrowRight" xlink:href="#dirArrow" transform="rotate(90) translate(36 -43)" onmousedown="handlePan(1,0)">
                  <use xlink:href="#rim" fill="#404040">
                        <set attributeName="fill" to="#808080" begin="arrowRight.mouseover" end="arrowRight.mouseout"/>
                  </use>
                  <path fill="none" stroke="white" stroke-width="1.5" d="M0,-3.0v7 M-2.5,-0.5L0,-3.0L2.5,-0.5"/>
                </g>
                <g id="arrowDown" xlink:href="#dirArrow" transform="rotate(180) translate(-30 -48)" onmousedown="handlePan(0,1)">
                  <use xlink:href="#rim" fill="#404040">
                        <set attributeName="fill" to="#808080" begin="arrowDown.mouseover" end="arrowDown.mouseout"/>
                  </use>
                  <path fill="none" stroke="white" stroke-width="1.5" d="M0,-3.0v7 M-2.5,-0.5L0,-3.0L2.5,-0.5"/>
                </g>
                <g id="arrowLeft" xlink:href="#dirArrow" transform="rotate(270) translate(-36 17)" onmousedown="handlePan(-1,0)">
                  <use xlink:href="#rim" fill="#404040">
                        <set attributeName="fill" to="#808080" begin="arrowLeft.mouseover" end="arrowLeft.mouseout"/>
                  </use>
                  <path fill="none" stroke="white" stroke-width="1.5" d="M0,-3.0v7 M-2.5,-0.5L0,-3.0L2.5,-0.5"/>
                </g>
        </g>
        <svg viewBox="0 0 15 15" width="100%" height="30px" preserveAspectRatio="xMaxYMin meet">
         <g id="arrow_out" transform="scale(0.3 0.3)">
          <a xlink:href="class_doc_sec_ref_item__coll__graph_org.svg" target="_base">
           <rect id="button" ry="5" rx="5" y="6" x="6" height="38" width="38"
                fill="#f2f5e9" fill-opacity="0.5" stroke="#606060" stroke-width="1.0"/>
           <path id="arrow"
             d="M 11.500037,31.436501 C 11.940474,20.09759 22.043105,11.32322 32.158766,21.979434 L 37.068811,17.246167 C 37.068811,17.246167 37.088388,32 37.088388,32 L 22.160133,31.978069 C 22.160133,31.978069 26.997745,27.140456 26.997745,27.140456 C 18.528582,18.264221 13.291696,25.230495 11.500037,31.436501 z"
             style="fill:#404040;"/>
          </a>
         </g>
        </svg>
</svg>
