<?xml version="1.0" encoding="UTF-8" standalone="no"?>
<!DOCTYPE svg PUBLIC "-//W3C//DTD SVG 1.1//EN"
 "http://www.w3.org/Graphics/SVG/1.1/DTD/svg11.dtd">
<!-- Generated by graphviz version 2.40.1 (20161225.0304)
 -->
<!-- Title: src/resourcemgr.h Pages: 1 -->
<svg width="1054pt" height="82pt"
 viewBox="0.00 0.00 1053.50 82.00" xmlns="http://www.w3.org/2000/svg" xmlns:xlink="http://www.w3.org/1999/xlink">
<g id="graph0" class="graph" transform="scale(1 1) rotate(0) translate(4 78)">
<title>src/resourcemgr.h</title>
<!-- Node1 -->
<g id="node1" class="node">
<title>Node1</title>
<g id="a_node1"><a xlink:title=" ">
<polygon fill="#999999" stroke="#666666" points="535.5,-74 440.5,-74 440.5,-55 535.5,-55 535.5,-74"/>
<text text-anchor="middle" x="488" y="-62" font-family="Helvetica,sans-Serif" font-size="10.00" fill="#000000">src/resourcemgr.h</text>
</a>
</g>
</g>
<!-- Node2 -->
<g id="node2" class="node">
<title>Node2</title>
<g id="a_node2"><a xlink:href="../../d5/d0b/cite_8cpp.html" target="_top" xlink:title=" ">
<polygon fill="#ffffff" stroke="#666666" points="68,-19 0,-19 0,0 68,0 68,-19"/>
<text text-anchor="middle" x="34" y="-7" font-family="Helvetica,sans-Serif" font-size="10.00" fill="#000000">src/cite.cpp</text>
</a>
</g>
</g>
<!-- Node1&#45;&gt;Node2 -->
<g id="edge1" class="edge">
<title>Node1&#45;&gt;Node2</title>
<path fill="none" stroke="#63b8ff" d="M429.9747,-60.0491C350.1327,-53.4764 202.0637,-39.6767 77,-19 74.1337,-18.5261 71.1709,-17.9836 68.2034,-17.4033"/>
<polygon fill="#63b8ff" stroke="#63b8ff" points="430.057,-63.5673 440.3081,-60.8907 430.6252,-56.5904 430.057,-63.5673"/>
</g>
<!-- Node3 -->
<g id="node3" class="node">
<title>Node3</title>
<g id="a_node3"><a xlink:href="../../db/d12/context_8cpp.html" target="_top" xlink:title=" ">
<polygon fill="#ffffff" stroke="#666666" points="170,-19 86,-19 86,0 170,0 170,-19"/>
<text text-anchor="middle" x="128" y="-7" font-family="Helvetica,sans-Serif" font-size="10.00" fill="#000000">src/context.cpp</text>
</a>
</g>
</g>
<!-- Node1&#45;&gt;Node3 -->
<g id="edge2" class="edge">
<title>Node1&#45;&gt;Node3</title>
<path fill="none" stroke="#63b8ff" d="M430.268,-56.6662C368.1175,-48.0772 266.3983,-33.5693 179,-19 176.0683,-18.5113 173.045,-17.9907 170.0024,-17.4546"/>
<polygon fill="#63b8ff" stroke="#63b8ff" points="429.8864,-60.1466 440.2706,-58.0447 430.8421,-53.2122 429.8864,-60.1466"/>
</g>
<!-- Node4 -->
<g id="node4" class="node">
<title>Node4</title>
<g id="a_node4"><a xlink:href="../../db/d41/ftvhelp_8cpp.html" target="_top" xlink:title=" ">
<polygon fill="#ffffff" stroke="#666666" points="269.5,-19 188.5,-19 188.5,0 269.5,0 269.5,-19"/>
<text text-anchor="middle" x="229" y="-7" font-family="Helvetica,sans-Serif" font-size="10.00" fill="#000000">src/ftvhelp.cpp</text>
</a>
</g>
</g>
<!-- Node1&#45;&gt;Node4 -->
<g id="edge3" class="edge">
<title>Node1&#45;&gt;Node4</title>
<path fill="none" stroke="#63b8ff" d="M433.1004,-52.8418C384.249,-42.4679 313.9045,-27.5299 269.8601,-18.1769"/>
<polygon fill="#63b8ff" stroke="#63b8ff" points="432.6724,-56.3289 443.1813,-54.9825 434.1265,-49.4816 432.6724,-56.3289"/>
</g>
<!-- Node5 -->
<g id="node5" class="node">
<title>Node5</title>
<g id="a_node5"><a xlink:href="../../d8/d6e/htmlgen_8cpp.html" target="_top" xlink:title=" ">
<polygon fill="#ffffff" stroke="#666666" points="374,-19 288,-19 288,0 374,0 374,-19"/>
<text text-anchor="middle" x="331" y="-7" font-family="Helvetica,sans-Serif" font-size="10.00" fill="#000000">src/htmlgen.cpp</text>
</a>
</g>
</g>
<!-- Node1&#45;&gt;Node5 -->
<g id="edge4" class="edge">
<title>Node1&#45;&gt;Node5</title>
<path fill="none" stroke="#63b8ff" d="M451.0606,-51.5594C422.6297,-41.5996 383.9784,-28.0593 358.2969,-19.0626"/>
<polygon fill="#63b8ff" stroke="#63b8ff" points="450.0578,-54.9167 460.6527,-54.9197 452.3722,-48.3103 450.0578,-54.9167"/>
</g>
<!-- Node6 -->
<g id="node6" class="node">
<title>Node6</title>
<g id="a_node6"><a xlink:href="../../d4/d42/latexgen_8cpp.html" target="_top" xlink:title=" ">
<polygon fill="#ffffff" stroke="#666666" points="481.5,-19 392.5,-19 392.5,0 481.5,0 481.5,-19"/>
<text text-anchor="middle" x="437" y="-7" font-family="Helvetica,sans-Serif" font-size="10.00" fill="#000000">src/latexgen.cpp</text>
</a>
</g>
</g>
<!-- Node1&#45;&gt;Node6 -->
<g id="edge5" class="edge">
<title>Node1&#45;&gt;Node6</title>
<path fill="none" stroke="#63b8ff" d="M472.1557,-47.413C463.6011,-38.1874 453.3454,-27.1274 446.1251,-19.3408"/>
<polygon fill="#63b8ff" stroke="#63b8ff" points="469.7506,-49.9668 479.1165,-54.9197 474.8835,-45.2072 469.7506,-49.9668"/>
</g>
<!-- Node7 -->
<g id="node7" class="node">
<title>Node7</title>
<g id="a_node7"><a xlink:href="../../db/d16/layout_8cpp.html" target="_top" xlink:title=" ">
<polygon fill="#ffffff" stroke="#666666" points="578,-19 500,-19 500,0 578,0 578,-19"/>
<text text-anchor="middle" x="539" y="-7" font-family="Helvetica,sans-Serif" font-size="10.00" fill="#000000">src/layout.cpp</text>
</a>
</g>
</g>
<!-- Node1&#45;&gt;Node7 -->
<g id="edge6" class="edge">
<title>Node1&#45;&gt;Node7</title>
<path fill="none" stroke="#63b8ff" d="M503.8443,-47.413C512.3989,-38.1874 522.6546,-27.1274 529.8749,-19.3408"/>
<polygon fill="#63b8ff" stroke="#63b8ff" points="501.1165,-45.2072 496.8835,-54.9197 506.2494,-49.9668 501.1165,-45.2072"/>
</g>
<!-- Node8 -->
<g id="node8" class="node">
<title>Node8</title>
<g id="a_node8"><a xlink:href="../../d6/dde/resourcemgr_8cpp.html" target="_top" xlink:title=" ">
<polygon fill="#ffffff" stroke="#666666" points="702,-19 596,-19 596,0 702,0 702,-19"/>
<text text-anchor="middle" x="649" y="-7" font-family="Helvetica,sans-Serif" font-size="10.00" fill="#000000">src/resourcemgr.cpp</text>
</a>
</g>
</g>
<!-- Node1&#45;&gt;Node8 -->
<g id="edge7" class="edge">
<title>Node1&#45;&gt;Node8</title>
<path fill="none" stroke="#63b8ff" d="M525.8806,-51.5594C555.0358,-41.5996 594.6718,-28.0593 621.0077,-19.0626"/>
<polygon fill="#63b8ff" stroke="#63b8ff" points="524.3756,-48.3749 516.0441,-54.9197 526.6386,-54.999 524.3756,-48.3749"/>
</g>
<!-- Node9 -->
<g id="node9" class="node">
<title>Node9</title>
<g id="a_node9"><a xlink:href="../../d9/d2f/searchindex__js_8cpp.html" target="_top" xlink:title=" ">
<polygon fill="#ffffff" stroke="#666666" points="837.5,-19 720.5,-19 720.5,0 837.5,0 837.5,-19"/>
<text text-anchor="middle" x="779" y="-7" font-family="Helvetica,sans-Serif" font-size="10.00" fill="#000000">src/searchindex_js.cpp</text>
</a>
</g>
</g>
<!-- Node1&#45;&gt;Node9 -->
<g id="edge8" class="edge">
<title>Node1&#45;&gt;Node9</title>
<path fill="none" stroke="#63b8ff" d="M545.7035,-53.5938C598.9934,-43.5219 677.38,-28.7065 728.3123,-19.0801"/>
<polygon fill="#63b8ff" stroke="#63b8ff" points="544.9029,-50.1831 535.7269,-55.4795 546.2029,-57.0613 544.9029,-50.1831"/>
</g>
<!-- Node10 -->
<g id="node10" class="node">
<title>Node10</title>
<g id="a_node10"><a xlink:href="../../df/d54/template_8cpp.html" target="_top" xlink:title=" ">
<polygon fill="#ffffff" stroke="#666666" points="944.5,-19 855.5,-19 855.5,0 944.5,0 944.5,-19"/>
<text text-anchor="middle" x="900" y="-7" font-family="Helvetica,sans-Serif" font-size="10.00" fill="#000000">src/template.cpp</text>
</a>
</g>
</g>
<!-- Node1&#45;&gt;Node10 -->
<g id="edge9" class="edge">
<title>Node1&#45;&gt;Node10</title>
<path fill="none" stroke="#63b8ff" d="M545.8157,-58.0972C616.8681,-50.0155 741.0459,-35.1993 847,-19 849.7722,-18.5762 852.6225,-18.1212 855.4945,-17.6482"/>
<polygon fill="#63b8ff" stroke="#63b8ff" points="545.2691,-54.6366 535.7266,-59.24 546.057,-61.5921 545.2691,-54.6366"/>
</g>
<!-- Node11 -->
<g id="node11" class="node">
<title>Node11</title>
<g id="a_node11"><a xlink:href="../../d0/dc3/xmlgen_8cpp.html" target="_top" xlink:title=" ">
<polygon fill="#ffffff" stroke="#666666" points="1045.5,-19 962.5,-19 962.5,0 1045.5,0 1045.5,-19"/>
<text text-anchor="middle" x="1004" y="-7" font-family="Helvetica,sans-Serif" font-size="10.00" fill="#000000">src/xmlgen.cpp</text>
</a>
</g>
</g>
<!-- Node1&#45;&gt;Node11 -->
<g id="edge10" class="edge">
<title>Node1&#45;&gt;Node11</title>
<path fill="none" stroke="#63b8ff" d="M545.8816,-60.5399C634.1849,-54.1171 807.7168,-39.9945 954,-19 956.7113,-18.6109 959.4992,-18.1767 962.3053,-17.714"/>
<polygon fill="#63b8ff" stroke="#63b8ff" points="545.5231,-57.0566 535.8006,-61.2665 546.0264,-64.0384 545.5231,-57.0566"/>
</g>
</g>
</svg>
