<?xml version="1.0" encoding="UTF-8" standalone="no"?>
<!DOCTYPE svg PUBLIC "-//W3C//DTD SVG 1.1//EN"
 "http://www.w3.org/Graphics/SVG/1.1/DTD/svg11.dtd">
<!-- Generated by graphviz version 2.40.1 (20161225.0304)
 -->
<!-- Title: src/condparser.h Pages: 1 -->
<svg width="410pt" height="82pt"
 viewBox="0.00 0.00 409.50 82.00" xmlns="http://www.w3.org/2000/svg" xmlns:xlink="http://www.w3.org/1999/xlink">
<g id="graph0" class="graph" transform="scale(1 1) rotate(0) translate(4 78)">
<title>src/condparser.h</title>
<!-- Node1 -->
<g id="node1" class="node">
<title>Node1</title>
<g id="a_node1"><a xlink:title=" ">
<polygon fill="#999999" stroke="#666666" points="267,-74 178,-74 178,-55 267,-55 267,-74"/>
<text text-anchor="middle" x="222.5" y="-62" font-family="Helvetica,sans-Serif" font-size="10.00" fill="#000000">src/condparser.h</text>
</a>
</g>
</g>
<!-- Node2 -->
<g id="node2" class="node">
<title>Node2</title>
<g id="a_node2"><a xlink:href="../../d0/d47/commentcnv_8l.html" target="_top" xlink:title=" ">
<polygon fill="#ffffff" stroke="#666666" points="95,-19 0,-19 0,0 95,0 95,-19"/>
<text text-anchor="middle" x="47.5" y="-7" font-family="Helvetica,sans-Serif" font-size="10.00" fill="#000000">src/commentcnv.l</text>
</a>
</g>
</g>
<!-- Node1&#45;&gt;Node2 -->
<g id="edge1" class="edge">
<title>Node1&#45;&gt;Node2</title>
<path fill="none" stroke="#63b8ff" d="M182.1532,-51.8196C150.3886,-41.8364 106.8023,-28.1379 77.9264,-19.0626"/>
<polygon fill="#63b8ff" stroke="#63b8ff" points="181.428,-55.2604 192.0173,-54.9197 183.5268,-48.5824 181.428,-55.2604"/>
</g>
<!-- Node3 -->
<g id="node3" class="node">
<title>Node3</title>
<g id="a_node3"><a xlink:href="../../d7/d5f/commentscan_8l.html" target="_top" xlink:title=" ">
<polygon fill="#ffffff" stroke="#666666" points="213.5,-19 113.5,-19 113.5,0 213.5,0 213.5,-19"/>
<text text-anchor="middle" x="163.5" y="-7" font-family="Helvetica,sans-Serif" font-size="10.00" fill="#000000">src/commentscan.l</text>
</a>
</g>
</g>
<!-- Node1&#45;&gt;Node3 -->
<g id="edge2" class="edge">
<title>Node1&#45;&gt;Node3</title>
<path fill="none" stroke="#63b8ff" d="M204.7677,-47.9699C194.7546,-38.6356 182.5781,-27.2847 174.0565,-19.3408"/>
<polygon fill="#63b8ff" stroke="#63b8ff" points="202.5217,-50.6611 212.223,-54.9197 207.2949,-45.5408 202.5217,-50.6611"/>
</g>
<!-- Node4 -->
<g id="node4" class="node">
<title>Node4</title>
<g id="a_node4"><a xlink:href="../../d7/d6d/condparser_8cpp.html" target="_top" xlink:title=" ">
<polygon fill="#ffffff" stroke="#666666" points="331.5,-19 231.5,-19 231.5,0 331.5,0 331.5,-19"/>
<text text-anchor="middle" x="281.5" y="-7" font-family="Helvetica,sans-Serif" font-size="10.00" fill="#000000">src/condparser.cpp</text>
</a>
</g>
</g>
<!-- Node1&#45;&gt;Node4 -->
<g id="edge3" class="edge">
<title>Node1&#45;&gt;Node4</title>
<path fill="none" stroke="#63b8ff" d="M240.2323,-47.9699C250.2454,-38.6356 262.4219,-27.2847 270.9435,-19.3408"/>
<polygon fill="#63b8ff" stroke="#63b8ff" points="237.7051,-45.5408 232.777,-54.9197 242.4783,-50.6611 237.7051,-45.5408"/>
</g>
<!-- Node5 -->
<g id="node5" class="node">
<title>Node5</title>
<g id="a_node5"><a xlink:href="../../d0/da7/pre_8l.html" target="_top" xlink:title=" ">
<polygon fill="#ffffff" stroke="#666666" points="401.5,-19 349.5,-19 349.5,0 401.5,0 401.5,-19"/>
<text text-anchor="middle" x="375.5" y="-7" font-family="Helvetica,sans-Serif" font-size="10.00" fill="#000000">src/pre.l</text>
</a>
</g>
</g>
<!-- Node1&#45;&gt;Node5 -->
<g id="edge4" class="edge">
<title>Node1&#45;&gt;Node5</title>
<path fill="none" stroke="#63b8ff" d="M258.9242,-51.4063C286.78,-41.3928 324.514,-27.8283 349.4102,-18.8787"/>
<polygon fill="#63b8ff" stroke="#63b8ff" points="257.377,-48.2432 249.1506,-54.9197 259.745,-54.8305 257.377,-48.2432"/>
</g>
</g>
</svg>
