<?xml version="1.0" encoding="UTF-8" standalone="no"?>
<!DOCTYPE svg PUBLIC "-//W3C//DTD SVG 1.1//EN"
 "http://www.w3.org/Graphics/SVG/1.1/DTD/svg11.dtd">
<!-- Generated by graphviz version 2.40.1 (20161225.0304)
 -->
<!-- Title: src/textdocvisitor.cpp Pages: 1 -->
<svg width="2498pt" height="687pt"
 viewBox="0.00 0.00 2498.34 687.00" xmlns="http://www.w3.org/2000/svg" xmlns:xlink="http://www.w3.org/1999/xlink">
<g id="graph0" class="graph" transform="scale(1 1) rotate(0) translate(4 683)">
<title>src/textdocvisitor.cpp</title>
<!-- Node1 -->
<g id="node1" class="node">
<title>Node1</title>
<g id="a_node1"><a xlink:title=" ">
<polygon fill="#999999" stroke="#666666" points="1073.3423,-679 963.3423,-679 963.3423,-660 1073.3423,-660 1073.3423,-679"/>
<text text-anchor="middle" x="1018.3423" y="-667" font-family="Helvetica,sans-Serif" font-size="10.00" fill="#000000">src/textdocvisitor.cpp</text>
</a>
</g>
</g>
<!-- Node2 -->
<g id="node2" class="node">
<title>Node2</title>
<g id="a_node2"><a xlink:href="../../dd/d66/textdocvisitor_8h.html" target="_top" xlink:title=" ">
<polygon fill="#ffffff" stroke="#666666" points="418.8423,-349 335.8423,-349 335.8423,-330 418.8423,-330 418.8423,-349"/>
<text text-anchor="middle" x="377.3423" y="-337" font-family="Helvetica,sans-Serif" font-size="10.00" fill="#000000">textdocvisitor.h</text>
</a>
</g>
</g>
<!-- Node1&#45;&gt;Node2 -->
<g id="edge1" class="edge">
<title>Node1&#45;&gt;Node2</title>
<path fill="none" stroke="#63b8ff" d="M963.1519,-665.5801C810.4152,-653.9988 393.3423,-617.1007 393.3423,-559.5 393.3423,-559.5 393.3423,-559.5 393.3423,-449.5 393.3423,-417.6188 386.6792,-381.0762 381.9527,-359.1652"/>
<polygon fill="#63b8ff" stroke="#63b8ff" points="385.3083,-358.1337 379.7031,-349.143 378.4783,-359.6668 385.3083,-358.1337"/>
</g>
<!-- Node23 -->
<g id="node23" class="node">
<title>Node23</title>
<g id="a_node23"><a xlink:href="../../db/dc6/htmlentity_8h.html" target="_top" xlink:title=" ">
<polygon fill="#ffffff" stroke="#666666" points="1660.3423,-184 1592.3423,-184 1592.3423,-165 1660.3423,-165 1660.3423,-184"/>
<text text-anchor="middle" x="1626.3423" y="-172" font-family="Helvetica,sans-Serif" font-size="10.00" fill="#000000">htmlentity.h</text>
</a>
</g>
</g>
<!-- Node1&#45;&gt;Node23 -->
<g id="edge138" class="edge">
<title>Node1&#45;&gt;Node23</title>
<path fill="none" stroke="#63b8ff" d="M1073.6001,-667.7145C1319.7485,-659.4043 2304.3423,-622.2422 2304.3423,-559.5 2304.3423,-559.5 2304.3423,-559.5 2304.3423,-284.5 2304.3423,-233.4658 2257.503,-236.8831 2209.3423,-220 2109.9486,-185.1568 1788.694,-176.905 1670.5073,-175.0288"/>
<polygon fill="#63b8ff" stroke="#63b8ff" points="1670.4246,-171.5273 1660.3729,-174.8758 1670.3188,-178.5265 1670.4246,-171.5273"/>
</g>
<!-- Node30 -->
<g id="node30" class="node">
<title>Node30</title>
<g id="a_node30"><a xlink:href="../../d2/d0d/message_8h.html" target="_top" xlink:title=" ">
<polygon fill="#ffffff" stroke="#666666" points="300.8423,-624 235.8423,-624 235.8423,-605 300.8423,-605 300.8423,-624"/>
<text text-anchor="middle" x="268.3423" y="-612" font-family="Helvetica,sans-Serif" font-size="10.00" fill="#000000">message.h</text>
</a>
</g>
</g>
<!-- Node1&#45;&gt;Node30 -->
<g id="edge49" class="edge">
<title>Node1&#45;&gt;Node30</title>
<path fill="none" stroke="#63b8ff" d="M963.1918,-665.8395C852.4783,-658.4322 595.2776,-640.9274 379.3423,-624 356.7438,-622.2285 331.5724,-620.0879 310.9204,-618.2875"/>
<polygon fill="#63b8ff" stroke="#63b8ff" points="311.1415,-614.7935 300.8742,-617.4075 310.5306,-621.7668 311.1415,-614.7935"/>
</g>
<!-- Node32 -->
<g id="node32" class="node">
<title>Node32</title>
<g id="a_node32"><a xlink:href="../../d8/d3c/util_8h.html" target="_top" xlink:title="A bunch of utility functions.">
<polygon fill="#ffffff" stroke="#666666" points="1037.3423,-624 999.3423,-624 999.3423,-605 1037.3423,-605 1037.3423,-624"/>
<text text-anchor="middle" x="1018.3423" y="-612" font-family="Helvetica,sans-Serif" font-size="10.00" fill="#000000">util.h</text>
</a>
</g>
</g>
<!-- Node1&#45;&gt;Node32 -->
<g id="edge52" class="edge">
<title>Node1&#45;&gt;Node32</title>
<path fill="none" stroke="#63b8ff" d="M1018.3423,-659.9197C1018.3423,-652.9083 1018.3423,-643.1442 1018.3423,-634.4652"/>
<polygon fill="#63b8ff" stroke="#63b8ff" points="1021.8424,-634.3408 1018.3423,-624.3408 1014.8424,-634.3409 1021.8424,-634.3408"/>
</g>
<!-- Node56 -->
<g id="node56" class="node">
<title>Node56</title>
<g id="a_node56"><a xlink:href="../../d6/dd3/emoji_8h.html" target="_top" xlink:title=" ">
<polygon fill="#ffffff" stroke="#666666" points="2490.3423,-294 2442.3423,-294 2442.3423,-275 2490.3423,-275 2490.3423,-294"/>
<text text-anchor="middle" x="2466.3423" y="-282" font-family="Helvetica,sans-Serif" font-size="10.00" fill="#000000">emoji.h</text>
</a>
</g>
</g>
<!-- Node1&#45;&gt;Node56 -->
<g id="edge139" class="edge">
<title>Node1&#45;&gt;Node56</title>
<path fill="none" stroke="#63b8ff" d="M1073.4103,-668.8454C1305.3209,-665.9157 2196.1573,-652.8677 2318.3423,-624 2385.4081,-608.1549 2459.3423,-628.4122 2459.3423,-559.5 2459.3423,-559.5 2459.3423,-559.5 2459.3423,-394.5 2459.3423,-362.887 2462.2574,-326.2664 2464.3252,-304.2664"/>
<polygon fill="#63b8ff" stroke="#63b8ff" points="2467.8198,-304.4916 2465.3094,-294.1985 2460.853,-303.8105 2467.8198,-304.4916"/>
</g>
<!-- Node3 -->
<g id="node3" class="node">
<title>Node3</title>
<g id="a_node3"><a xlink:href="../../d7/d5c/qcstring_8h.html" target="_top" xlink:title=" ">
<polygon fill="#ffffff" stroke="#666666" points="688.8423,-129 629.8423,-129 629.8423,-110 688.8423,-110 688.8423,-129"/>
<text text-anchor="middle" x="659.3423" y="-117" font-family="Helvetica,sans-Serif" font-size="10.00" fill="#000000">qcstring.h</text>
</a>
</g>
</g>
<!-- Node2&#45;&gt;Node3 -->
<g id="edge2" class="edge">
<title>Node2&#45;&gt;Node3</title>
<path fill="none" stroke="#63b8ff" d="M352.9854,-329.92C291.121,-304.2952 136.984,-231.5947 197.3423,-165 225.4971,-133.9361 513.0859,-123.3106 619.7847,-120.4209"/>
<polygon fill="#63b8ff" stroke="#63b8ff" points="619.9211,-123.9186 629.8258,-120.1574 619.7374,-116.921 619.9211,-123.9186"/>
</g>
<!-- Node13 -->
<g id="node13" class="node">
<title>Node13</title>
<g id="a_node13"><a xlink:href="../../d2/d3c/docvisitor_8h.html" target="_top" xlink:title=" ">
<polygon fill="#ffffff" stroke="#666666" points="723.8423,-184 656.8423,-184 656.8423,-165 723.8423,-165 723.8423,-184"/>
<text text-anchor="middle" x="690.3423" y="-172" font-family="Helvetica,sans-Serif" font-size="10.00" fill="#000000">docvisitor.h</text>
</a>
</g>
</g>
<!-- Node2&#45;&gt;Node13 -->
<g id="edge14" class="edge">
<title>Node2&#45;&gt;Node13</title>
<path fill="none" stroke="#63b8ff" d="M382.6916,-329.9119C396.0538,-306.9179 433.2981,-248.441 481.3423,-220 508.8288,-203.7287 593.7538,-188.779 646.508,-180.7225"/>
<polygon fill="#63b8ff" stroke="#63b8ff" points="647.2348,-184.1527 656.6033,-179.2048 646.1941,-177.2305 647.2348,-184.1527"/>
</g>
<!-- Node15 -->
<g id="node15" class="node">
<title>Node15</title>
<g id="a_node15"><a xlink:href="../../de/d2b/docnode_8h.html" target="_top" xlink:title=" ">
<polygon fill="#ffffff" stroke="#666666" points="1003.3423,-294 941.3423,-294 941.3423,-275 1003.3423,-275 1003.3423,-294"/>
<text text-anchor="middle" x="972.3423" y="-282" font-family="Helvetica,sans-Serif" font-size="10.00" fill="#000000">docnode.h</text>
</a>
</g>
</g>
<!-- Node2&#45;&gt;Node15 -->
<g id="edge17" class="edge">
<title>Node2&#45;&gt;Node15</title>
<path fill="none" stroke="#63b8ff" d="M418.9365,-336.3138C506.8138,-329.4778 717.8058,-312.5137 894.3423,-294 906.3048,-292.7455 919.2799,-291.2282 931.151,-289.7779"/>
<polygon fill="#63b8ff" stroke="#63b8ff" points="931.7511,-293.2304 941.2457,-288.529 930.8916,-286.2834 931.7511,-293.2304"/>
</g>
<!-- Node25 -->
<g id="node25" class="node">
<title>Node25</title>
<g id="a_node25"><a xlink:href="../../d4/d7d/textstream_8h.html" target="_top" xlink:title=" ">
<polygon fill="#ffffff" stroke="#666666" points="296.8423,-239 225.8423,-239 225.8423,-220 296.8423,-220 296.8423,-239"/>
<text text-anchor="middle" x="261.3423" y="-227" font-family="Helvetica,sans-Serif" font-size="10.00" fill="#000000">textstream.h</text>
</a>
</g>
</g>
<!-- Node2&#45;&gt;Node25 -->
<g id="edge40" class="edge">
<title>Node2&#45;&gt;Node25</title>
<path fill="none" stroke="#63b8ff" d="M367.048,-329.7382C347.2209,-310.9367 303.5296,-269.5052 278.9781,-246.2236"/>
<polygon fill="#63b8ff" stroke="#63b8ff" points="281.1124,-243.4241 271.4478,-239.0828 276.2957,-248.5035 281.1124,-243.4241"/>
</g>
<!-- Node4 -->
<g id="node4" class="node">
<title>Node4</title>
<g id="a_node4"><a xlink:title=" ">
<polygon fill="#e0e0e0" stroke="#999999" points="1444.8423,-19 1403.8423,-19 1403.8423,0 1444.8423,0 1444.8423,-19"/>
<text text-anchor="middle" x="1424.3423" y="-7" font-family="Helvetica,sans-Serif" font-size="10.00" fill="#000000">string</text>
</a>
</g>
</g>
<!-- Node3&#45;&gt;Node4 -->
<g id="edge3" class="edge">
<title>Node3&#45;&gt;Node4</title>
<path fill="none" stroke="#63b8ff" d="M647.9853,-109.6903C633.5026,-96.0402 612.0637,-71.1757 627.3423,-55 654.1239,-26.6458 1250.2015,-12.973 1393.5472,-10.0882"/>
<polygon fill="#63b8ff" stroke="#63b8ff" points="1393.882,-13.5824 1403.8106,-9.8847 1393.7432,-6.5838 1393.882,-13.5824"/>
</g>
<!-- Node5 -->
<g id="node5" class="node">
<title>Node5</title>
<g id="a_node5"><a xlink:title=" ">
<polygon fill="#e0e0e0" stroke="#999999" points="1572.3423,-74 1516.3423,-74 1516.3423,-55 1572.3423,-55 1572.3423,-74"/>
<text text-anchor="middle" x="1544.3423" y="-62" font-family="Helvetica,sans-Serif" font-size="10.00" fill="#000000">algorithm</text>
</a>
</g>
</g>
<!-- Node3&#45;&gt;Node5 -->
<g id="edge4" class="edge">
<title>Node3&#45;&gt;Node5</title>
<path fill="none" stroke="#63b8ff" d="M689.0409,-117.6543C821.4336,-109.4265 1357.8002,-76.093 1506.1537,-66.8733"/>
<polygon fill="#63b8ff" stroke="#63b8ff" points="1506.3901,-70.3655 1516.1537,-66.2518 1505.9558,-63.3789 1506.3901,-70.3655"/>
</g>
<!-- Node6 -->
<g id="node6" class="node">
<title>Node6</title>
<g id="a_node6"><a xlink:title=" ">
<polygon fill="#e0e0e0" stroke="#999999" points="1226.3423,-74 1180.3423,-74 1180.3423,-55 1226.3423,-55 1226.3423,-74"/>
<text text-anchor="middle" x="1203.3423" y="-62" font-family="Helvetica,sans-Serif" font-size="10.00" fill="#000000">cctype</text>
</a>
</g>
</g>
<!-- Node3&#45;&gt;Node6 -->
<g id="edge5" class="edge">
<title>Node3&#45;&gt;Node6</title>
<path fill="none" stroke="#63b8ff" d="M688.9764,-116.5039C782.6756,-107.0306 1072.1218,-77.7668 1170.3434,-67.8363"/>
<polygon fill="#63b8ff" stroke="#63b8ff" points="1170.7027,-71.3179 1180.2998,-66.8297 1169.9985,-64.3534 1170.7027,-71.3179"/>
</g>
<!-- Node7 -->
<g id="node7" class="node">
<title>Node7</title>
<g id="a_node7"><a xlink:title=" ">
<polygon fill="#e0e0e0" stroke="#999999" points="682.3423,-74 636.3423,-74 636.3423,-55 682.3423,-55 682.3423,-74"/>
<text text-anchor="middle" x="659.3423" y="-62" font-family="Helvetica,sans-Serif" font-size="10.00" fill="#000000">cstring</text>
</a>
</g>
</g>
<!-- Node3&#45;&gt;Node7 -->
<g id="edge6" class="edge">
<title>Node3&#45;&gt;Node7</title>
<path fill="none" stroke="#63b8ff" d="M659.3423,-109.9197C659.3423,-102.9083 659.3423,-93.1442 659.3423,-84.4652"/>
<polygon fill="#63b8ff" stroke="#63b8ff" points="662.8424,-84.3408 659.3423,-74.3408 655.8424,-84.3409 662.8424,-84.3408"/>
</g>
<!-- Node8 -->
<g id="node8" class="node">
<title>Node8</title>
<g id="a_node8"><a xlink:title=" ">
<polygon fill="#e0e0e0" stroke="#999999" points="67.8423,-74 24.8423,-74 24.8423,-55 67.8423,-55 67.8423,-74"/>
<text text-anchor="middle" x="46.3423" y="-62" font-family="Helvetica,sans-Serif" font-size="10.00" fill="#000000">cstdio</text>
</a>
</g>
</g>
<!-- Node3&#45;&gt;Node8 -->
<g id="edge7" class="edge">
<title>Node3&#45;&gt;Node8</title>
<path fill="none" stroke="#63b8ff" d="M629.6889,-119.0331C544.1612,-117.286 289.8813,-109.2731 82.3423,-74 80.8686,-73.7495 79.3674,-73.4668 77.8557,-73.1597"/>
<polygon fill="#63b8ff" stroke="#63b8ff" points="78.4378,-69.7021 67.9067,-70.8623 76.8628,-76.5226 78.4378,-69.7021"/>
</g>
<!-- Node9 -->
<g id="node9" class="node">
<title>Node9</title>
<g id="a_node9"><a xlink:title=" ">
<polygon fill="#e0e0e0" stroke="#999999" points="745.8423,-74 700.8423,-74 700.8423,-55 745.8423,-55 745.8423,-74"/>
<text text-anchor="middle" x="723.3423" y="-62" font-family="Helvetica,sans-Serif" font-size="10.00" fill="#000000">cstdlib</text>
</a>
</g>
</g>
<!-- Node3&#45;&gt;Node9 -->
<g id="edge8" class="edge">
<title>Node3&#45;&gt;Node9</title>
<path fill="none" stroke="#63b8ff" d="M670.4902,-109.9197C679.7368,-101.9735 693.0975,-90.4916 704.0719,-81.0605"/>
<polygon fill="#63b8ff" stroke="#63b8ff" points="706.5881,-83.513 711.8911,-74.3408 702.0257,-78.2041 706.5881,-83.513"/>
</g>
<!-- Node10 -->
<g id="node10" class="node">
<title>Node10</title>
<g id="a_node10"><a xlink:title=" ">
<polygon fill="#e0e0e0" stroke="#999999" points="119.3423,-19 73.3423,-19 73.3423,0 119.3423,0 119.3423,-19"/>
<text text-anchor="middle" x="96.3423" y="-7" font-family="Helvetica,sans-Serif" font-size="10.00" fill="#000000">cstdint</text>
</a>
</g>
</g>
<!-- Node3&#45;&gt;Node10 -->
<g id="edge9" class="edge">
<title>Node3&#45;&gt;Node10</title>
<path fill="none" stroke="#63b8ff" d="M629.5882,-118.9472C521.7145,-116.683 155.3789,-106.6342 115.3423,-74 102.2191,-63.3032 97.8671,-44.0249 96.5599,-29.3216"/>
<polygon fill="#63b8ff" stroke="#63b8ff" points="100.0485,-29.0027 96.0591,-19.1877 93.0571,-29.3483 100.0485,-29.0027"/>
</g>
<!-- Node11 -->
<g id="node11" class="node">
<title>Node11</title>
<g id="a_node11"><a xlink:title=" ">
<polygon fill="#e0e0e0" stroke="#999999" points="816.3423,-74 764.3423,-74 764.3423,-55 816.3423,-55 816.3423,-74"/>
<text text-anchor="middle" x="790.3423" y="-62" font-family="Helvetica,sans-Serif" font-size="10.00" fill="#000000">ostream</text>
</a>
</g>
</g>
<!-- Node3&#45;&gt;Node11 -->
<g id="edge10" class="edge">
<title>Node3&#45;&gt;Node11</title>
<path fill="none" stroke="#63b8ff" d="M682.1607,-109.9197C703.1644,-101.1014 734.5394,-87.9287 758.0999,-78.0369"/>
<polygon fill="#63b8ff" stroke="#63b8ff" points="759.4803,-81.2533 767.3458,-74.155 756.7705,-74.7991 759.4803,-81.2533"/>
</g>
<!-- Node12 -->
<g id="node12" class="node">
<title>Node12</title>
<g id="a_node12"><a xlink:href="../../db/d7c/utf8_8h.html" target="_top" xlink:title="Various UTF8 related helper functions.">
<polygon fill="#ffffff" stroke="#666666" points="165.8423,-74 124.8423,-74 124.8423,-55 165.8423,-55 165.8423,-74"/>
<text text-anchor="middle" x="145.3423" y="-62" font-family="Helvetica,sans-Serif" font-size="10.00" fill="#000000">utf8.h</text>
</a>
</g>
</g>
<!-- Node3&#45;&gt;Node12 -->
<g id="edge11" class="edge">
<title>Node3&#45;&gt;Node12</title>
<path fill="none" stroke="#63b8ff" d="M629.4858,-116.3052C538.9057,-106.6128 267.8265,-77.6063 176.083,-67.7894"/>
<polygon fill="#63b8ff" stroke="#63b8ff" points="176.367,-64.2999 166.0513,-66.716 175.6222,-71.2601 176.367,-64.2999"/>
</g>
<!-- Node12&#45;&gt;Node4 -->
<g id="edge13" class="edge">
<title>Node12&#45;&gt;Node4</title>
<path fill="none" stroke="#63b8ff" d="M165.9031,-58.0809C170.6048,-56.8482 175.6114,-55.7189 180.3423,-55 424.6969,-17.8692 1225.4736,-10.7668 1393.3157,-9.6749"/>
<polygon fill="#63b8ff" stroke="#63b8ff" points="1393.4654,-13.1742 1403.4432,-9.6114 1393.4215,-6.1743 1393.4654,-13.1742"/>
</g>
<!-- Node12&#45;&gt;Node10 -->
<g id="edge12" class="edge">
<title>Node12&#45;&gt;Node10</title>
<path fill="none" stroke="#63b8ff" d="M136.8071,-54.9197C129.9359,-47.2072 120.0974,-36.1639 111.8422,-26.8978"/>
<polygon fill="#63b8ff" stroke="#63b8ff" points="114.375,-24.4792 105.1096,-19.3408 109.1483,-29.1357 114.375,-24.4792"/>
</g>
<!-- Node13&#45;&gt;Node3 -->
<g id="edge16" class="edge">
<title>Node13&#45;&gt;Node3</title>
<path fill="none" stroke="#63b8ff" d="M684.9425,-164.9197C680.815,-157.5967 674.995,-147.2709 669.9469,-138.3147"/>
<polygon fill="#63b8ff" stroke="#63b8ff" points="672.8481,-136.3338 664.8889,-129.3408 666.7501,-139.7709 672.8481,-136.3338"/>
</g>
<!-- Node14 -->
<g id="node14" class="node">
<title>Node14</title>
<g id="a_node14"><a xlink:title=" ">
<polygon fill="#e0e0e0" stroke="#999999" points="1173.3423,-129 1121.3423,-129 1121.3423,-110 1173.3423,-110 1173.3423,-129"/>
<text text-anchor="middle" x="1147.3423" y="-117" font-family="Helvetica,sans-Serif" font-size="10.00" fill="#000000">memory</text>
</a>
</g>
</g>
<!-- Node13&#45;&gt;Node14 -->
<g id="edge15" class="edge">
<title>Node13&#45;&gt;Node14</title>
<path fill="none" stroke="#63b8ff" d="M723.8477,-167.4932C728.6992,-166.5881 733.6407,-165.7254 738.3423,-165 875.0162,-143.9114 1038.8344,-128.701 1110.6127,-122.536"/>
<polygon fill="#63b8ff" stroke="#63b8ff" points="1111.2559,-125.994 1120.9231,-121.6585 1110.6622,-119.0193 1111.2559,-125.994"/>
</g>
<!-- Node15&#45;&gt;Node3 -->
<g id="edge22" class="edge">
<title>Node15&#45;&gt;Node3</title>
<path fill="none" stroke="#63b8ff" d="M941.1595,-280.6335C872.425,-271.9442 712.2297,-250.7179 690.3423,-239 660.9528,-223.2657 651.5164,-215.0338 639.3423,-184 633.4057,-168.8669 639.7671,-151.2051 646.8462,-138.1933"/>
<polygon fill="#63b8ff" stroke="#63b8ff" points="650.0584,-139.6429 652.2078,-129.2683 644.0579,-136.0381 650.0584,-139.6429"/>
</g>
<!-- Node15&#45;&gt;Node13 -->
<g id="edge23" class="edge">
<title>Node15&#45;&gt;Node13</title>
<path fill="none" stroke="#63b8ff" d="M954.8151,-274.8109C929.9075,-261.304 882.5964,-236.6086 840.3423,-220 805.1861,-206.1813 764.0542,-193.971 733.763,-185.6877"/>
<polygon fill="#63b8ff" stroke="#63b8ff" points="734.4968,-182.2606 723.9302,-183.0324 732.6719,-189.0185 734.4968,-182.2606"/>
</g>
<!-- Node15&#45;&gt;Node14 -->
<g id="edge20" class="edge">
<title>Node15&#45;&gt;Node14</title>
<path fill="none" stroke="#63b8ff" d="M991.0902,-274.9604C1004.111,-267.2108 1020.4812,-254.9568 1028.3423,-239 1042.8822,-209.4863 1011.4011,-191.9017 1030.3423,-165 1040.0369,-151.2309 1080.6597,-137.5057 1111.3394,-128.7885"/>
<polygon fill="#63b8ff" stroke="#63b8ff" points="1112.5991,-132.0716 1121.3035,-126.0314 1110.7323,-125.3251 1112.5991,-132.0716"/>
</g>
<!-- Node16 -->
<g id="node16" class="node">
<title>Node16</title>
<g id="a_node16"><a xlink:title=" ">
<polygon fill="#e0e0e0" stroke="#999999" points="864.3423,-184 818.3423,-184 818.3423,-165 864.3423,-165 864.3423,-184"/>
<text text-anchor="middle" x="841.3423" y="-172" font-family="Helvetica,sans-Serif" font-size="10.00" fill="#000000">stdio.h</text>
</a>
</g>
</g>
<!-- Node15&#45;&gt;Node16 -->
<g id="edge18" class="edge">
<title>Node15&#45;&gt;Node16</title>
<path fill="none" stroke="#63b8ff" d="M960.7169,-274.7382C938.1312,-255.7732 888.1247,-213.7829 860.5402,-190.6204"/>
<polygon fill="#63b8ff" stroke="#63b8ff" points="862.6635,-187.833 852.7545,-184.0828 858.1621,-193.1938 862.6635,-187.833"/>
</g>
<!-- Node17 -->
<g id="node17" class="node">
<title>Node17</title>
<g id="a_node17"><a xlink:title=" ">
<polygon fill="#e0e0e0" stroke="#999999" points="1786.3423,-129 1742.3423,-129 1742.3423,-110 1786.3423,-110 1786.3423,-129"/>
<text text-anchor="middle" x="1764.3423" y="-117" font-family="Helvetica,sans-Serif" font-size="10.00" fill="#000000">vector</text>
</a>
</g>
</g>
<!-- Node15&#45;&gt;Node17 -->
<g id="edge19" class="edge">
<title>Node15&#45;&gt;Node17</title>
<path fill="none" stroke="#63b8ff" d="M1003.4866,-283.2474C1108.4482,-278.8418 1448.6205,-263.0182 1555.3423,-239 1622.1799,-223.9579 1641.7824,-221.1537 1699.3423,-184 1719.2524,-171.1484 1738.014,-151.3948 1750.2143,-137.1341"/>
<polygon fill="#63b8ff" stroke="#63b8ff" points="1753.2125,-139.0026 1756.9143,-129.0755 1747.8299,-134.5274 1753.2125,-139.0026"/>
</g>
<!-- Node18 -->
<g id="node18" class="node">
<title>Node18</title>
<g id="a_node18"><a xlink:title=" ">
<polygon fill="#e0e0e0" stroke="#999999" points="831.3423,-239 785.3423,-239 785.3423,-220 831.3423,-220 831.3423,-239"/>
<text text-anchor="middle" x="808.3423" y="-227" font-family="Helvetica,sans-Serif" font-size="10.00" fill="#000000">variant</text>
</a>
</g>
</g>
<!-- Node15&#45;&gt;Node18 -->
<g id="edge21" class="edge">
<title>Node15&#45;&gt;Node18</title>
<path fill="none" stroke="#63b8ff" d="M943.7756,-274.9197C915.1651,-265.3247 871.1831,-250.5747 841.1567,-240.5049"/>
<polygon fill="#63b8ff" stroke="#63b8ff" points="842.1452,-237.1448 831.5513,-237.2835 839.9194,-243.7816 842.1452,-237.1448"/>
</g>
<!-- Node19 -->
<g id="node19" class="node">
<title>Node19</title>
<g id="a_node19"><a xlink:href="../../de/d9c/docparser_8h.html" target="_top" xlink:title=" ">
<polygon fill="#ffffff" stroke="#666666" points="767.3423,-239 699.3423,-239 699.3423,-220 767.3423,-220 767.3423,-239"/>
<text text-anchor="middle" x="733.3423" y="-227" font-family="Helvetica,sans-Serif" font-size="10.00" fill="#000000">docparser.h</text>
</a>
</g>
</g>
<!-- Node15&#45;&gt;Node19 -->
<g id="edge24" class="edge">
<title>Node15&#45;&gt;Node19</title>
<path fill="none" stroke="#63b8ff" d="M941.0972,-277.3097C899.3672,-267.7066 825.1958,-250.6378 777.6913,-239.7059"/>
<polygon fill="#63b8ff" stroke="#63b8ff" points="778.2187,-236.2358 767.6885,-237.4039 776.6488,-243.0575 778.2187,-236.2358"/>
</g>
<!-- Node20 -->
<g id="node20" class="node">
<title>Node20</title>
<g id="a_node20"><a xlink:href="../../d7/d50/growvector_8h.html" target="_top" xlink:title=" ">
<polygon fill="#ffffff" stroke="#666666" points="1183.8423,-184 1110.8423,-184 1110.8423,-165 1183.8423,-165 1183.8423,-184"/>
<text text-anchor="middle" x="1147.3423" y="-172" font-family="Helvetica,sans-Serif" font-size="10.00" fill="#000000">growvector.h</text>
</a>
</g>
</g>
<!-- Node15&#45;&gt;Node20 -->
<g id="edge39" class="edge">
<title>Node15&#45;&gt;Node20</title>
<path fill="none" stroke="#63b8ff" d="M993.3947,-274.9891C1011.7861,-266.3892 1038.9666,-252.9676 1061.3423,-239 1085.205,-224.1041 1110.7806,-204.3895 1127.7799,-190.6943"/>
<polygon fill="#63b8ff" stroke="#63b8ff" points="1130.2875,-193.1661 1135.8332,-184.1386 1125.8683,-187.7374 1130.2875,-193.1661"/>
</g>
<!-- Node22 -->
<g id="node22" class="node">
<title>Node22</title>
<g id="a_node22"><a xlink:href="../../d0/d73/htmlattrib_8h.html" target="_top" xlink:title=" ">
<polygon fill="#ffffff" stroke="#666666" points="1266.8423,-184 1201.8423,-184 1201.8423,-165 1266.8423,-165 1266.8423,-184"/>
<text text-anchor="middle" x="1234.3423" y="-172" font-family="Helvetica,sans-Serif" font-size="10.00" fill="#000000">htmlattrib.h</text>
</a>
</g>
</g>
<!-- Node15&#45;&gt;Node22 -->
<g id="edge32" class="edge">
<title>Node15&#45;&gt;Node22</title>
<path fill="none" stroke="#63b8ff" d="M1003.7588,-281.7133C1059.2201,-276.246 1171.5427,-262.5493 1202.3423,-239 1216.7442,-227.9883 1225.0985,-208.7519 1229.635,-194.1441"/>
<polygon fill="#63b8ff" stroke="#63b8ff" points="1233.1233,-194.6585 1232.397,-184.0886 1226.3733,-192.8045 1233.1233,-194.6585"/>
</g>
<!-- Node15&#45;&gt;Node23 -->
<g id="edge35" class="edge">
<title>Node15&#45;&gt;Node23</title>
<path fill="none" stroke="#63b8ff" d="M1003.6237,-279.6635C1093.2757,-265.7266 1358.7871,-223.9226 1578.3423,-184 1579.6116,-183.7692 1580.8993,-183.5323 1582.1987,-183.2909"/>
<polygon fill="#63b8ff" stroke="#63b8ff" points="1583.1069,-186.6811 1592.2787,-181.3773 1581.8013,-179.8039 1583.1069,-186.6811"/>
</g>
<!-- Node19&#45;&gt;Node3 -->
<g id="edge27" class="edge">
<title>Node19&#45;&gt;Node3</title>
<path fill="none" stroke="#63b8ff" d="M699.099,-220.5351C680.6013,-213.7551 659.3513,-202.3801 648.3423,-184 640.1558,-170.3323 644.2409,-152.2812 649.6085,-138.7519"/>
<polygon fill="#63b8ff" stroke="#63b8ff" points="652.8881,-139.992 653.7813,-129.4348 646.4995,-137.1308 652.8881,-139.992"/>
</g>
<!-- Node19&#45;&gt;Node14 -->
<g id="edge26" class="edge">
<title>Node19&#45;&gt;Node14</title>
<path fill="none" stroke="#63b8ff" d="M741.509,-219.658C754.294,-205.0048 780.5675,-177.8076 809.3423,-165 862.8786,-141.1711 1035.6969,-126.9895 1111.3325,-121.7825"/>
<polygon fill="#63b8ff" stroke="#63b8ff" points="1111.5959,-125.2728 1121.3375,-121.1073 1111.1245,-118.2887 1111.5959,-125.2728"/>
</g>
<!-- Node19&#45;&gt;Node16 -->
<g id="edge25" class="edge">
<title>Node19&#45;&gt;Node16</title>
<path fill="none" stroke="#63b8ff" d="M752.1544,-219.9197C769.0857,-211.2973 794.1914,-198.512 813.4565,-188.7011"/>
<polygon fill="#63b8ff" stroke="#63b8ff" points="815.0606,-191.812 822.3833,-184.155 811.8839,-185.5742 815.0606,-191.812"/>
</g>
<!-- Node19&#45;&gt;Node20 -->
<g id="edge28" class="edge">
<title>Node19&#45;&gt;Node20</title>
<path fill="none" stroke="#63b8ff" d="M767.5518,-221.6334C770.518,-221.0451 773.4788,-220.4908 776.3423,-220 892.2363,-200.1376 1029.9363,-185.5977 1100.5118,-178.7965"/>
<polygon fill="#63b8ff" stroke="#63b8ff" points="1101.216,-182.2453 1110.8381,-177.8106 1100.5507,-175.2769 1101.216,-182.2453"/>
</g>
<!-- Node20&#45;&gt;Node14 -->
<g id="edge30" class="edge">
<title>Node20&#45;&gt;Node14</title>
<path fill="none" stroke="#63b8ff" d="M1147.3423,-164.9197C1147.3423,-157.9083 1147.3423,-148.1442 1147.3423,-139.4652"/>
<polygon fill="#63b8ff" stroke="#63b8ff" points="1150.8424,-139.3408 1147.3423,-129.3408 1143.8424,-139.3409 1150.8424,-139.3408"/>
</g>
<!-- Node20&#45;&gt;Node17 -->
<g id="edge29" class="edge">
<title>Node20&#45;&gt;Node17</title>
<path fill="none" stroke="#63b8ff" d="M1183.9287,-166.5171C1187.1039,-165.9541 1190.2745,-165.4373 1193.3423,-165 1397.2458,-135.9353 1644.9573,-124.1179 1732.1322,-120.6644"/>
<polygon fill="#63b8ff" stroke="#63b8ff" points="1732.3303,-124.1594 1742.1875,-120.2753 1732.0596,-117.1647 1732.3303,-124.1594"/>
</g>
<!-- Node21 -->
<g id="node21" class="node">
<title>Node21</title>
<g id="a_node21"><a xlink:title=" ">
<polygon fill="#e0e0e0" stroke="#999999" points="1271.8423,-129 1224.8423,-129 1224.8423,-110 1271.8423,-110 1271.8423,-129"/>
<text text-anchor="middle" x="1248.3423" y="-117" font-family="Helvetica,sans-Serif" font-size="10.00" fill="#000000">iterator</text>
</a>
</g>
</g>
<!-- Node20&#45;&gt;Node21 -->
<g id="edge31" class="edge">
<title>Node20&#45;&gt;Node21</title>
<path fill="none" stroke="#63b8ff" d="M1164.9351,-164.9197C1180.625,-156.3757 1203.8212,-143.7441 1221.7712,-133.9694"/>
<polygon fill="#63b8ff" stroke="#63b8ff" points="1223.5037,-137.0113 1230.6121,-129.155 1220.156,-130.8637 1223.5037,-137.0113"/>
</g>
<!-- Node22&#45;&gt;Node3 -->
<g id="edge34" class="edge">
<title>Node22&#45;&gt;Node3</title>
<path fill="none" stroke="#63b8ff" d="M1201.7508,-166.5063C1198.9167,-165.9456 1196.0849,-165.4323 1193.3423,-165 1010.08,-136.1121 788.3408,-124.6218 699.2411,-120.9528"/>
<polygon fill="#63b8ff" stroke="#63b8ff" points="699.1767,-117.4475 689.0443,-120.5435 698.8958,-124.4419 699.1767,-117.4475"/>
</g>
<!-- Node22&#45;&gt;Node17 -->
<g id="edge33" class="edge">
<title>Node22&#45;&gt;Node17</title>
<path fill="none" stroke="#63b8ff" d="M1267.0962,-171.101C1362.1703,-161.2348 1637.415,-132.6717 1731.9854,-122.8578"/>
<polygon fill="#63b8ff" stroke="#63b8ff" points="1732.5085,-126.3224 1742.0938,-121.8088 1731.7859,-119.3598 1732.5085,-126.3224"/>
</g>
<!-- Node23&#45;&gt;Node3 -->
<g id="edge38" class="edge">
<title>Node23&#45;&gt;Node3</title>
<path fill="none" stroke="#63b8ff" d="M1592.1033,-169.9815C1577.6882,-168.2099 1560.721,-166.2953 1545.3423,-165 1219.4886,-137.5539 824.7237,-124.3369 699.4756,-120.6251"/>
<polygon fill="#63b8ff" stroke="#63b8ff" points="699.3177,-117.1191 689.2194,-120.3247 699.1126,-124.1161 699.3177,-117.1191"/>
</g>
<!-- Node23&#45;&gt;Node4 -->
<g id="edge37" class="edge">
<title>Node23&#45;&gt;Node4</title>
<path fill="none" stroke="#63b8ff" d="M1625.5687,-164.8504C1623.2299,-142.2302 1614.2186,-85.4051 1581.3423,-55 1562.9429,-37.9837 1495.1975,-22.789 1454.9563,-15.0024"/>
<polygon fill="#63b8ff" stroke="#63b8ff" points="1455.5998,-11.5622 1445.1233,-13.1411 1454.2978,-18.44 1455.5998,-11.5622"/>
</g>
<!-- Node24 -->
<g id="node24" class="node">
<title>Node24</title>
<g id="a_node24"><a xlink:title=" ">
<polygon fill="#e0e0e0" stroke="#999999" points="1960.8423,-129 1877.8423,-129 1877.8423,-110 1960.8423,-110 1960.8423,-129"/>
<text text-anchor="middle" x="1919.3423" y="-117" font-family="Helvetica,sans-Serif" font-size="10.00" fill="#000000">unordered_map</text>
</a>
</g>
</g>
<!-- Node23&#45;&gt;Node24 -->
<g id="edge36" class="edge">
<title>Node23&#45;&gt;Node24</title>
<path fill="none" stroke="#63b8ff" d="M1660.5265,-168.0832C1711.4711,-158.5202 1807.7015,-140.4565 1867.3857,-129.2529"/>
<polygon fill="#63b8ff" stroke="#63b8ff" points="1868.1787,-132.6653 1877.3613,-127.3804 1866.8872,-125.7855 1868.1787,-132.6653"/>
</g>
<!-- Node25&#45;&gt;Node3 -->
<g id="edge48" class="edge">
<title>Node25&#45;&gt;Node3</title>
<path fill="none" stroke="#63b8ff" d="M242.8417,-219.9941C220.4928,-207.3186 187.9307,-184.2438 205.3423,-165 232.896,-134.5468 513.7297,-123.5744 619.4133,-120.5049"/>
<polygon fill="#63b8ff" stroke="#63b8ff" points="619.7673,-123.9964 629.6648,-120.2161 619.5701,-116.9992 619.7673,-123.9964"/>
</g>
<!-- Node25&#45;&gt;Node4 -->
<g id="edge41" class="edge">
<title>Node25&#45;&gt;Node4</title>
<path fill="none" stroke="#63b8ff" d="M239.4096,-219.9523C214.953,-207.9594 180.8604,-186.3544 197.3423,-165 315.2423,-12.2448 426.73,-85.0253 617.3423,-55 771.0593,-30.7864 1264.1358,-14.3771 1393.1884,-10.4234"/>
<polygon fill="#63b8ff" stroke="#63b8ff" points="1393.6381,-13.9115 1403.5273,-10.1096 1393.4257,-6.9147 1393.6381,-13.9115"/>
</g>
<!-- Node25&#45;&gt;Node8 -->
<g id="edge45" class="edge">
<title>Node25&#45;&gt;Node8</title>
<path fill="none" stroke="#63b8ff" d="M225.7268,-226.4581C173.5481,-221.2171 80.1422,-208.5967 58.3423,-184 33.8978,-156.4196 37.4874,-109.959 42.0525,-83.8365"/>
<polygon fill="#63b8ff" stroke="#63b8ff" points="45.4912,-84.4886 43.9897,-74.0007 38.6231,-83.1358 45.4912,-84.4886"/>
</g>
<!-- Node25&#45;&gt;Node10 -->
<g id="edge44" class="edge">
<title>Node25&#45;&gt;Node10</title>
<path fill="none" stroke="#63b8ff" d="M225.5947,-226.5158C170.8856,-221.2266 70.0148,-208.3933 44.3423,-184 1.7419,-143.5223 -14.3395,-105.7171 15.3423,-55 25.7906,-37.1469 46.0994,-25.7623 63.7666,-18.8458"/>
<polygon fill="#63b8ff" stroke="#63b8ff" points="65,-22.1218 73.2306,-15.4503 62.636,-15.533 65,-22.1218"/>
</g>
<!-- Node26 -->
<g id="node26" class="node">
<title>Node26</title>
<g id="a_node26"><a xlink:title=" ">
<polygon fill="#e0e0e0" stroke="#999999" points="418.3423,-184 364.3423,-184 364.3423,-165 418.3423,-165 418.3423,-184"/>
<text text-anchor="middle" x="391.3423" y="-172" font-family="Helvetica,sans-Serif" font-size="10.00" fill="#000000">iostream</text>
</a>
</g>
</g>
<!-- Node25&#45;&gt;Node26 -->
<g id="edge42" class="edge">
<title>Node25&#45;&gt;Node26</title>
<path fill="none" stroke="#63b8ff" d="M283.9865,-219.9197C304.7373,-211.1406 335.6888,-198.0457 359.0339,-188.1689"/>
<polygon fill="#63b8ff" stroke="#63b8ff" points="360.6754,-191.2749 368.5213,-184.155 357.9479,-184.8281 360.6754,-191.2749"/>
</g>
<!-- Node27 -->
<g id="node27" class="node">
<title>Node27</title>
<g id="a_node27"><a xlink:title=" ">
<polygon fill="#e0e0e0" stroke="#999999" points="266.3423,-184 214.3423,-184 214.3423,-165 266.3423,-165 266.3423,-184"/>
<text text-anchor="middle" x="240.3423" y="-172" font-family="Helvetica,sans-Serif" font-size="10.00" fill="#000000">sstream</text>
</a>
</g>
</g>
<!-- Node25&#45;&gt;Node27 -->
<g id="edge43" class="edge">
<title>Node25&#45;&gt;Node27</title>
<path fill="none" stroke="#63b8ff" d="M257.6843,-219.9197C254.9478,-212.7525 251.1129,-202.7089 247.745,-193.8882"/>
<polygon fill="#63b8ff" stroke="#63b8ff" points="250.9365,-192.4345 244.0997,-184.3408 244.397,-194.9315 250.9365,-192.4345"/>
</g>
<!-- Node28 -->
<g id="node28" class="node">
<title>Node28</title>
<g id="a_node28"><a xlink:title=" ">
<polygon fill="#e0e0e0" stroke="#999999" points="486.3423,-184 436.3423,-184 436.3423,-165 486.3423,-165 486.3423,-184"/>
<text text-anchor="middle" x="461.3423" y="-172" font-family="Helvetica,sans-Serif" font-size="10.00" fill="#000000">fstream</text>
</a>
</g>
</g>
<!-- Node25&#45;&gt;Node28 -->
<g id="edge46" class="edge">
<title>Node25&#45;&gt;Node28</title>
<path fill="none" stroke="#63b8ff" d="M296.3316,-219.9634C327.9012,-211.347 375.8747,-198.2238 426.3155,-184.2755"/>
<polygon fill="#63b8ff" stroke="#63b8ff" points="427.3908,-187.6095 436.0951,-181.5693 425.5239,-180.8631 427.3908,-187.6095"/>
</g>
<!-- Node29 -->
<g id="node29" class="node">
<title>Node29</title>
<g id="a_node29"><a xlink:title=" ">
<polygon fill="#e0e0e0" stroke="#999999" points="346.3423,-184 284.3423,-184 284.3423,-165 346.3423,-165 346.3423,-184"/>
<text text-anchor="middle" x="315.3423" y="-172" font-family="Helvetica,sans-Serif" font-size="10.00" fill="#000000">type_traits</text>
</a>
</g>
</g>
<!-- Node25&#45;&gt;Node29 -->
<g id="edge47" class="edge">
<title>Node25&#45;&gt;Node29</title>
<path fill="none" stroke="#63b8ff" d="M270.7483,-219.9197C278.3972,-212.1293 289.3825,-200.9405 298.5359,-191.6176"/>
<polygon fill="#63b8ff" stroke="#63b8ff" points="301.1719,-193.9286 305.6804,-184.3408 296.1769,-189.0244 301.1719,-193.9286"/>
</g>
<!-- Node30&#45;&gt;Node3 -->
<g id="edge51" class="edge">
<title>Node30&#45;&gt;Node3</title>
<path fill="none" stroke="#63b8ff" d="M235.6046,-607.2854C189.3254,-594.9356 110.3423,-564.9968 110.3423,-504.5 110.3423,-504.5 110.3423,-504.5 110.3423,-229.5 110.3423,-186.2054 143.6269,-182.2369 183.3423,-165 261.4098,-131.1178 519.752,-122.3226 619.5313,-120.1634"/>
<polygon fill="#63b8ff" stroke="#63b8ff" points="619.8643,-123.6574 629.7904,-119.9529 619.7206,-116.6589 619.8643,-123.6574"/>
</g>
<!-- Node31 -->
<g id="node31" class="node">
<title>Node31</title>
<g id="a_node31"><a xlink:title=" ">
<polygon fill="#e0e0e0" stroke="#999999" points="292.8423,-569 243.8423,-569 243.8423,-550 292.8423,-550 292.8423,-569"/>
<text text-anchor="middle" x="268.3423" y="-557" font-family="Helvetica,sans-Serif" font-size="10.00" fill="#000000">cstdarg</text>
</a>
</g>
</g>
<!-- Node30&#45;&gt;Node31 -->
<g id="edge50" class="edge">
<title>Node30&#45;&gt;Node31</title>
<path fill="none" stroke="#63b8ff" d="M268.3423,-604.9197C268.3423,-597.9083 268.3423,-588.1442 268.3423,-579.4652"/>
<polygon fill="#63b8ff" stroke="#63b8ff" points="271.8424,-579.3408 268.3423,-569.3408 264.8424,-579.3409 271.8424,-579.3408"/>
</g>
<!-- Node32&#45;&gt;Node5 -->
<g id="edge55" class="edge">
<title>Node32&#45;&gt;Node5</title>
<path fill="none" stroke="#63b8ff" d="M1037.6926,-614.1693C1166.4113,-611.8992 1900.4886,-597.8455 2122.3423,-569 2254.1391,-551.8637 2414.3423,-637.4062 2414.3423,-504.5 2414.3423,-504.5 2414.3423,-504.5 2414.3423,-339.5 2414.3423,-212.9502 2302.7748,-221.1063 2189.3423,-165 2123.4462,-132.4063 2105.1523,-125.7469 2033.3423,-110 1947.4621,-91.1677 1682.5911,-73.1487 1582.8581,-66.8547"/>
<polygon fill="#63b8ff" stroke="#63b8ff" points="1582.8299,-63.3462 1572.6305,-66.214 1582.3921,-70.3325 1582.8299,-63.3462"/>
</g>
<!-- Node32&#45;&gt;Node14 -->
<g id="edge53" class="edge">
<title>Node32&#45;&gt;Node14</title>
<path fill="none" stroke="#63b8ff" d="M1037.6009,-605.3389C1067.9135,-589.4229 1123.3423,-553.6056 1123.3423,-504.5 1123.3423,-504.5 1123.3423,-504.5 1123.3423,-284.5 1123.3423,-230.575 1081.8438,-214.877 1102.3423,-165 1107.0631,-153.5133 1116.2409,-143.3828 1125.0835,-135.6142"/>
<polygon fill="#63b8ff" stroke="#63b8ff" points="1127.4402,-138.2085 1132.9724,-129.1727 1123.0129,-132.7864 1127.4402,-138.2085"/>
</g>
<!-- Node32&#45;&gt;Node19 -->
<g id="edge61" class="edge">
<title>Node32&#45;&gt;Node19</title>
<path fill="none" stroke="#63b8ff" d="M999.0836,-605.3389C968.771,-589.4229 913.3423,-553.6056 913.3423,-504.5 913.3423,-504.5 913.3423,-504.5 913.3423,-339.5 913.3423,-309.6154 915.5902,-296.0145 894.3423,-275 885.8704,-266.6212 822.1122,-250.2899 777.4227,-239.6433"/>
<polygon fill="#63b8ff" stroke="#63b8ff" points="778.1795,-236.2258 767.6425,-237.3311 776.5689,-243.038 778.1795,-236.2258"/>
</g>
<!-- Node32&#45;&gt;Node24 -->
<g id="edge54" class="edge">
<title>Node32&#45;&gt;Node24</title>
<path fill="none" stroke="#63b8ff" d="M1037.4257,-613.9628C1154.1565,-610.6186 1773.0261,-592.0445 1961.3423,-569 2098.8699,-552.1705 2266.3423,-643.0536 2266.3423,-504.5 2266.3423,-504.5 2266.3423,-504.5 2266.3423,-449.5 2266.3423,-347.3607 2309.4824,-305.9768 2254.3423,-220 2225.9022,-175.6551 2199.0269,-182.5143 2149.3423,-165 2089.9727,-144.0717 2018.3963,-131.8242 1971.0285,-125.4069"/>
<polygon fill="#63b8ff" stroke="#63b8ff" points="1971.3784,-121.9229 1961.007,-124.0874 1970.4645,-128.863 1971.3784,-121.9229"/>
</g>
<!-- Node32&#45;&gt;Node28 -->
<g id="edge57" class="edge">
<title>Node32&#45;&gt;Node28</title>
<path fill="none" stroke="#63b8ff" d="M999.1377,-613.4456C940.0506,-609.9254 761.9686,-597.1734 712.3423,-569 575.0112,-491.0356 568.6565,-429.3745 487.3423,-294 473.6993,-271.2867 470.1575,-264.8497 464.3423,-239 461.0312,-224.2816 460.3723,-207.213 460.4921,-194.3328"/>
<polygon fill="#63b8ff" stroke="#63b8ff" points="463.9929,-194.3428 460.7508,-184.2563 456.9952,-194.1631 463.9929,-194.3428"/>
</g>
<!-- Node33 -->
<g id="node33" class="node">
<title>Node33</title>
<g id="a_node33"><a xlink:title=" ">
<polygon fill="#e0e0e0" stroke="#999999" points="779.8423,-569 720.8423,-569 720.8423,-550 779.8423,-550 779.8423,-569"/>
<text text-anchor="middle" x="750.3423" y="-557" font-family="Helvetica,sans-Serif" font-size="10.00" fill="#000000">functional</text>
</a>
</g>
</g>
<!-- Node32&#45;&gt;Node33 -->
<g id="edge56" class="edge">
<title>Node32&#45;&gt;Node33</title>
<path fill="none" stroke="#63b8ff" d="M999.2847,-610.9991C961.4393,-603.9864 873.9247,-587.4694 790.063,-569.0851"/>
<polygon fill="#63b8ff" stroke="#63b8ff" points="790.6413,-565.6286 780.1222,-566.893 789.1339,-572.4644 790.6413,-565.6286"/>
</g>
<!-- Node34 -->
<g id="node34" class="node">
<title>Node34</title>
<g id="a_node34"><a xlink:title=" ">
<polygon fill="#e0e0e0" stroke="#999999" points="846.8423,-569 797.8423,-569 797.8423,-550 846.8423,-550 846.8423,-569"/>
<text text-anchor="middle" x="822.3423" y="-557" font-family="Helvetica,sans-Serif" font-size="10.00" fill="#000000">ctype.h</text>
</a>
</g>
</g>
<!-- Node32&#45;&gt;Node34 -->
<g id="edge58" class="edge">
<title>Node32&#45;&gt;Node34</title>
<path fill="none" stroke="#63b8ff" d="M999.1921,-609.1262C966.1775,-599.8619 898.1146,-580.7626 856.7214,-569.1472"/>
<polygon fill="#63b8ff" stroke="#63b8ff" points="857.6348,-565.7684 847.0611,-566.4364 855.7435,-572.5081 857.6348,-565.7684"/>
</g>
<!-- Node35 -->
<g id="node35" class="node">
<title>Node35</title>
<g id="a_node35"><a xlink:href="../../d9/d49/types_8h.html" target="_top" xlink:title="This file contains a number of basic enums and types.">
<polygon fill="#ffffff" stroke="#666666" points="538.8423,-239 489.8423,-239 489.8423,-220 538.8423,-220 538.8423,-239"/>
<text text-anchor="middle" x="514.3423" y="-227" font-family="Helvetica,sans-Serif" font-size="10.00" fill="#000000">types.h</text>
</a>
</g>
</g>
<!-- Node32&#45;&gt;Node35 -->
<g id="edge59" class="edge">
<title>Node32&#45;&gt;Node35</title>
<path fill="none" stroke="#63b8ff" d="M999.2114,-613.9835C911.3342,-611.453 548.9705,-599.2424 509.3423,-569 485.0271,-550.4439 485.3423,-535.0869 485.3423,-504.5 485.3423,-504.5 485.3423,-504.5 485.3423,-339.5 485.3423,-306.7432 497.5153,-270.2584 506.0878,-248.6262"/>
<polygon fill="#63b8ff" stroke="#63b8ff" points="509.3646,-249.8606 509.9378,-239.2813 502.8923,-247.1941 509.3646,-249.8606"/>
</g>
<!-- Node36 -->
<g id="node36" class="node">
<title>Node36</title>
<g id="a_node36"><a xlink:href="../../d5/d75/containers_8h.html" target="_top" xlink:title=" ">
<polygon fill="#ffffff" stroke="#666666" points="2129.3423,-294 2059.3423,-294 2059.3423,-275 2129.3423,-275 2129.3423,-294"/>
<text text-anchor="middle" x="2094.3423" y="-282" font-family="Helvetica,sans-Serif" font-size="10.00" fill="#000000">containers.h</text>
</a>
</g>
</g>
<!-- Node32&#45;&gt;Node36 -->
<g id="edge62" class="edge">
<title>Node32&#45;&gt;Node36</title>
<path fill="none" stroke="#63b8ff" d="M1037.3485,-613.8048C1191.2864,-608.0536 2228.3423,-566.9897 2228.3423,-504.5 2228.3423,-504.5 2228.3423,-504.5 2228.3423,-394.5 2228.3423,-345.2492 2173.5946,-314.0176 2134.0877,-297.8919"/>
<polygon fill="#63b8ff" stroke="#63b8ff" points="2135.0026,-294.4919 2124.4145,-294.1158 2132.4571,-301.0127 2135.0026,-294.4919"/>
</g>
<!-- Node41 -->
<g id="node41" class="node">
<title>Node41</title>
<g id="a_node41"><a xlink:href="../../df/d06/outputgen_8h.html" target="_top" xlink:title=" ">
<polygon fill="#ffffff" stroke="#666666" points="885.3423,-294 817.3423,-294 817.3423,-275 885.3423,-275 885.3423,-294"/>
<text text-anchor="middle" x="851.3423" y="-282" font-family="Helvetica,sans-Serif" font-size="10.00" fill="#000000">outputgen.h</text>
</a>
</g>
</g>
<!-- Node32&#45;&gt;Node41 -->
<g id="edge70" class="edge">
<title>Node32&#45;&gt;Node41</title>
<path fill="none" stroke="#63b8ff" d="M999.2125,-612.1195C973.238,-607.913 926.9006,-596.807 899.3423,-569 877.8114,-547.2749 875.3423,-535.0869 875.3423,-504.5 875.3423,-504.5 875.3423,-504.5 875.3423,-394.5 875.3423,-362.0605 865.2557,-325.451 858.1605,-303.7117"/>
<polygon fill="#63b8ff" stroke="#63b8ff" points="861.4123,-302.4025 854.8835,-294.0583 854.7838,-304.6526 861.4123,-302.4025"/>
</g>
<!-- Node45 -->
<g id="node45" class="node">
<title>Node45</title>
<g id="a_node45"><a xlink:href="../../d1/d21/regex_8h.html" target="_top" xlink:title=" ">
<polygon fill="#ffffff" stroke="#666666" points="1448.8423,-184 1399.8423,-184 1399.8423,-165 1448.8423,-165 1448.8423,-184"/>
<text text-anchor="middle" x="1424.3423" y="-172" font-family="Helvetica,sans-Serif" font-size="10.00" fill="#000000">regex.h</text>
</a>
</g>
</g>
<!-- Node32&#45;&gt;Node45 -->
<g id="edge92" class="edge">
<title>Node32&#45;&gt;Node45</title>
<path fill="none" stroke="#63b8ff" d="M1037.4286,-612.7966C1111.1658,-605.6996 1373.3423,-575.4752 1373.3423,-504.5 1373.3423,-504.5 1373.3423,-504.5 1373.3423,-284.5 1373.3423,-249.294 1395.1105,-213.1386 1410.2036,-192.3012"/>
<polygon fill="#63b8ff" stroke="#63b8ff" points="1413.1529,-194.203 1416.3735,-184.1095 1407.5615,-189.9916 1413.1529,-194.203"/>
</g>
<!-- Node46 -->
<g id="node46" class="node">
<title>Node46</title>
<g id="a_node46"><a xlink:href="../../da/df1/conceptdef_8h.html" target="_top" xlink:title=" ">
<polygon fill="#ffffff" stroke="#666666" points="1796.8423,-569 1723.8423,-569 1723.8423,-550 1796.8423,-550 1796.8423,-569"/>
<text text-anchor="middle" x="1760.3423" y="-557" font-family="Helvetica,sans-Serif" font-size="10.00" fill="#000000">conceptdef.h</text>
</a>
</g>
</g>
<!-- Node32&#45;&gt;Node46 -->
<g id="edge97" class="edge">
<title>Node32&#45;&gt;Node46</title>
<path fill="none" stroke="#63b8ff" d="M1037.4296,-613.0852C1133.9156,-605.9332 1569.0276,-573.681 1713.5304,-562.9699"/>
<polygon fill="#63b8ff" stroke="#63b8ff" points="1714.1093,-566.4367 1723.8231,-562.2069 1713.5918,-559.4558 1714.1093,-566.4367"/>
</g>
<!-- Node35&#45;&gt;Node3 -->
<g id="edge60" class="edge">
<title>Node35&#45;&gt;Node3</title>
<path fill="none" stroke="#63b8ff" d="M520.3098,-219.6337C529.0086,-205.9163 546.332,-180.9723 566.3423,-165 583.1736,-151.5651 604.621,-140.7394 622.6769,-133.0234"/>
<polygon fill="#63b8ff" stroke="#63b8ff" points="624.3926,-136.1021 632.3082,-129.0598 621.7286,-129.6289 624.3926,-136.1021"/>
</g>
<!-- Node36&#45;&gt;Node4 -->
<g id="edge64" class="edge">
<title>Node36&#45;&gt;Node4</title>
<path fill="none" stroke="#63b8ff" d="M2129.5143,-281.329C2174.9156,-275.5844 2245.808,-260.0733 2225.3423,-220 2152.1191,-76.6235 1594.0868,-23.0124 1455.4465,-11.8319"/>
<polygon fill="#63b8ff" stroke="#63b8ff" points="1455.3683,-8.3148 1445.1236,-11.0159 1454.8167,-15.2931 1455.3683,-8.3148"/>
</g>
<!-- Node36&#45;&gt;Node17 -->
<g id="edge63" class="edge">
<title>Node36&#45;&gt;Node17</title>
<path fill="none" stroke="#63b8ff" d="M2093.8147,-274.6441C2092.6,-260.9389 2088.5887,-236.0095 2075.3423,-220 2041.2556,-178.8034 2018.6232,-183.1903 1968.3423,-165 1909.4858,-143.7074 1837.3316,-130.4519 1796.5178,-124.0694"/>
<polygon fill="#63b8ff" stroke="#63b8ff" points="1797.0145,-120.6048 1786.6013,-122.5581 1795.9598,-127.5249 1797.0145,-120.6048"/>
</g>
<!-- Node36&#45;&gt;Node24 -->
<g id="edge68" class="edge">
<title>Node36&#45;&gt;Node24</title>
<path fill="none" stroke="#63b8ff" d="M2129.5021,-279.2253C2170.284,-271.4317 2229.5109,-253.9481 2209.3423,-220 2184.4679,-178.1312 2047.2605,-144.8144 1970.8216,-129.1835"/>
<polygon fill="#63b8ff" stroke="#63b8ff" points="1971.4033,-125.7304 1960.909,-127.1858 1970.0204,-132.5924 1971.4033,-125.7304"/>
</g>
<!-- Node37 -->
<g id="node37" class="node">
<title>Node37</title>
<g id="a_node37"><a xlink:title=" ">
<polygon fill="#e0e0e0" stroke="#999999" points="2012.3423,-239 1982.3423,-239 1982.3423,-220 2012.3423,-220 2012.3423,-239"/>
<text text-anchor="middle" x="1997.3423" y="-227" font-family="Helvetica,sans-Serif" font-size="10.00" fill="#000000">set</text>
</a>
</g>
</g>
<!-- Node36&#45;&gt;Node37 -->
<g id="edge65" class="edge">
<title>Node36&#45;&gt;Node37</title>
<path fill="none" stroke="#63b8ff" d="M2077.4462,-274.9197C2061.9663,-266.1425 2038.8785,-253.0514 2021.4607,-243.1754"/>
<polygon fill="#63b8ff" stroke="#63b8ff" points="2022.8772,-239.9551 2012.4519,-238.0673 2019.4245,-246.0444 2022.8772,-239.9551"/>
</g>
<!-- Node38 -->
<g id="node38" class="node">
<title>Node38</title>
<g id="a_node38"><a xlink:title=" ">
<polygon fill="#e0e0e0" stroke="#999999" points="2065.8423,-239 2030.8423,-239 2030.8423,-220 2065.8423,-220 2065.8423,-239"/>
<text text-anchor="middle" x="2048.3423" y="-227" font-family="Helvetica,sans-Serif" font-size="10.00" fill="#000000">map</text>
</a>
</g>
</g>
<!-- Node36&#45;&gt;Node38 -->
<g id="edge66" class="edge">
<title>Node36&#45;&gt;Node38</title>
<path fill="none" stroke="#63b8ff" d="M2086.3297,-274.9197C2079.9443,-267.2851 2070.8293,-256.3867 2063.1285,-247.1792"/>
<polygon fill="#63b8ff" stroke="#63b8ff" points="2065.6731,-244.7662 2056.5728,-239.3408 2060.3036,-249.2571 2065.6731,-244.7662"/>
</g>
<!-- Node39 -->
<g id="node39" class="node">
<title>Node39</title>
<g id="a_node39"><a xlink:title=" ">
<polygon fill="#e0e0e0" stroke="#999999" points="2200.3423,-239 2122.3423,-239 2122.3423,-220 2200.3423,-220 2200.3423,-239"/>
<text text-anchor="middle" x="2161.3423" y="-227" font-family="Helvetica,sans-Serif" font-size="10.00" fill="#000000">unordered_set</text>
</a>
</g>
</g>
<!-- Node36&#45;&gt;Node39 -->
<g id="edge67" class="edge">
<title>Node36&#45;&gt;Node39</title>
<path fill="none" stroke="#63b8ff" d="M2106.0128,-274.9197C2115.7877,-266.8956 2129.9545,-255.2661 2141.5057,-245.7837"/>
<polygon fill="#63b8ff" stroke="#63b8ff" points="2143.8458,-248.3911 2149.3543,-239.3408 2139.4043,-242.9805 2143.8458,-248.3911"/>
</g>
<!-- Node40 -->
<g id="node40" class="node">
<title>Node40</title>
<g id="a_node40"><a xlink:title=" ">
<polygon fill="#e0e0e0" stroke="#999999" points="1192.8423,-239 1151.8423,-239 1151.8423,-220 1192.8423,-220 1192.8423,-239"/>
<text text-anchor="middle" x="1172.3423" y="-227" font-family="Helvetica,sans-Serif" font-size="10.00" fill="#000000">stack</text>
</a>
</g>
</g>
<!-- Node36&#45;&gt;Node40 -->
<g id="edge69" class="edge">
<title>Node36&#45;&gt;Node40</title>
<path fill="none" stroke="#63b8ff" d="M2059.3246,-282.4111C1911.8443,-273.6135 1342.4794,-239.6492 1203.2128,-231.3415"/>
<polygon fill="#63b8ff" stroke="#63b8ff" points="1203.0522,-227.8258 1192.8615,-230.724 1202.6353,-234.8134 1203.0522,-227.8258"/>
</g>
<!-- Node41&#45;&gt;Node14 -->
<g id="edge71" class="edge">
<title>Node41&#45;&gt;Node14</title>
<path fill="none" stroke="#63b8ff" d="M817.0243,-277.1037C772.0932,-267.0771 698.097,-249.25 690.3423,-239 685.2474,-232.2657 686.3269,-227.4287 690.3423,-220 700.9518,-200.3718 753.3872,-172.6623 774.3423,-165 835.7644,-142.5409 1029.7718,-127.3521 1111.0081,-121.8217"/>
<polygon fill="#63b8ff" stroke="#63b8ff" points="1111.5025,-125.2965 1121.246,-121.1354 1111.0343,-118.3122 1111.5025,-125.2965"/>
</g>
<!-- Node41&#45;&gt;Node19 -->
<g id="edge91" class="edge">
<title>Node41&#45;&gt;Node19</title>
<path fill="none" stroke="#63b8ff" d="M830.7882,-274.9197C812.1211,-266.219 784.3595,-253.2792 763.2376,-243.4343"/>
<polygon fill="#63b8ff" stroke="#63b8ff" points="764.5991,-240.2074 754.0567,-239.155 761.6418,-246.5521 764.5991,-240.2074"/>
</g>
<!-- Node41&#45;&gt;Node25 -->
<g id="edge90" class="edge">
<title>Node41&#45;&gt;Node25</title>
<path fill="none" stroke="#63b8ff" d="M817.0453,-282.007C733.9493,-275.8537 515.2843,-258.9842 333.3423,-239 324.8747,-238.0699 315.8616,-236.9691 307.1808,-235.8524"/>
<polygon fill="#63b8ff" stroke="#63b8ff" points="307.5656,-232.373 297.1955,-234.5435 306.6558,-239.3136 307.5656,-232.373"/>
</g>
<!-- Node41&#45;&gt;Node26 -->
<g id="edge73" class="edge">
<title>Node41&#45;&gt;Node26</title>
<path fill="none" stroke="#63b8ff" d="M817.1186,-283.0882C734.6629,-279.2726 527.1842,-267.0896 464.3423,-239 440.6326,-228.4021 419.1005,-207.3099 405.6647,-192.1269"/>
<polygon fill="#63b8ff" stroke="#63b8ff" points="408.226,-189.7365 399.071,-184.404 402.9024,-194.2818 408.226,-189.7365"/>
</g>
<!-- Node41&#45;&gt;Node28 -->
<g id="edge74" class="edge">
<title>Node41&#45;&gt;Node28</title>
<path fill="none" stroke="#63b8ff" d="M817.1236,-282.3968C730.3716,-276.7725 506.8846,-260.3503 481.3423,-239 468.2963,-228.0952 463.6131,-208.8446 462.0043,-194.2044"/>
<polygon fill="#63b8ff" stroke="#63b8ff" points="465.4879,-193.8481 461.2857,-184.1222 458.5056,-194.3458 465.4879,-193.8481"/>
</g>
<!-- Node41&#45;&gt;Node35 -->
<g id="edge75" class="edge">
<title>Node41&#45;&gt;Node35</title>
<path fill="none" stroke="#63b8ff" d="M817.2965,-277.521C812.6156,-276.6319 807.8651,-275.7662 803.3423,-275 693.689,-256.4232 662.1436,-262.1002 549.2167,-238.935"/>
<polygon fill="#63b8ff" stroke="#63b8ff" points="549.6349,-235.4471 539.1313,-236.8347 548.2077,-242.3 549.6349,-235.4471"/>
</g>
<!-- Node41&#45;&gt;Node40 -->
<g id="edge72" class="edge">
<title>Node41&#45;&gt;Node40</title>
<path fill="none" stroke="#63b8ff" d="M885.391,-278.6661C948.2557,-267.8949 1081.6049,-245.0469 1141.7663,-234.7389"/>
<polygon fill="#63b8ff" stroke="#63b8ff" points="1142.5149,-238.1617 1151.7802,-233.0231 1141.3327,-231.2622 1142.5149,-238.1617"/>
</g>
<!-- Node42 -->
<g id="node42" class="node">
<title>Node42</title>
<g id="a_node42"><a xlink:href="../../d1/db5/index_8h.html" target="_top" xlink:title=" ">
<polygon fill="#ffffff" stroke="#666666" points="605.3423,-239 557.3423,-239 557.3423,-220 605.3423,-220 605.3423,-239"/>
<text text-anchor="middle" x="581.3423" y="-227" font-family="Helvetica,sans-Serif" font-size="10.00" fill="#000000">index.h</text>
</a>
</g>
</g>
<!-- Node41&#45;&gt;Node42 -->
<g id="edge76" class="edge">
<title>Node41&#45;&gt;Node42</title>
<path fill="none" stroke="#63b8ff" d="M817.2556,-277.7442C812.5811,-276.8205 807.8432,-275.8857 803.3423,-275 721.582,-258.9109 700.6786,-257.1111 619.3423,-239 618.0728,-238.7173 616.7809,-238.4239 615.4771,-238.1228"/>
<polygon fill="#63b8ff" stroke="#63b8ff" points="615.9602,-234.6398 605.4205,-235.7191 614.3329,-241.448 615.9602,-234.6398"/>
</g>
<!-- Node43 -->
<g id="node43" class="node">
<title>Node43</title>
<g id="a_node43"><a xlink:href="../../d1/d2a/section_8h.html" target="_top" xlink:title=" ">
<polygon fill="#ffffff" stroke="#666666" points="1019.3423,-239 963.3423,-239 963.3423,-220 1019.3423,-220 1019.3423,-239"/>
<text text-anchor="middle" x="991.3423" y="-227" font-family="Helvetica,sans-Serif" font-size="10.00" fill="#000000">section.h</text>
</a>
</g>
</g>
<!-- Node41&#45;&gt;Node43 -->
<g id="edge78" class="edge">
<title>Node41&#45;&gt;Node43</title>
<path fill="none" stroke="#63b8ff" d="M875.7284,-274.9197C898.2749,-266.0622 932.0038,-252.8115 957.2201,-242.9052"/>
<polygon fill="#63b8ff" stroke="#63b8ff" points="958.7381,-246.0692 966.7658,-239.155 956.1785,-239.554 958.7381,-246.0692"/>
</g>
<!-- Node42&#45;&gt;Node3 -->
<g id="edge77" class="edge">
<title>Node42&#45;&gt;Node3</title>
<path fill="none" stroke="#63b8ff" d="M577.3955,-219.9762C572.5518,-206.6656 566.1551,-182.2019 576.3423,-165 585.9319,-148.807 603.5522,-137.9963 620.0989,-130.9929"/>
<polygon fill="#63b8ff" stroke="#63b8ff" points="621.5855,-134.1706 629.6484,-127.2975 619.0592,-127.6424 621.5855,-134.1706"/>
</g>
<!-- Node43&#45;&gt;Node3 -->
<g id="edge81" class="edge">
<title>Node43&#45;&gt;Node3</title>
<path fill="none" stroke="#63b8ff" d="M981.873,-219.86C967.1358,-205.4706 937.1864,-178.6134 906.3423,-165 837.6311,-134.6736 749.5621,-124.5583 699.2918,-121.1857"/>
<polygon fill="#63b8ff" stroke="#63b8ff" points="699.3546,-117.683 689.1589,-120.5635 698.9256,-124.6699 699.3546,-117.683"/>
</g>
<!-- Node43&#45;&gt;Node4 -->
<g id="edge79" class="edge">
<title>Node43&#45;&gt;Node4</title>
<path fill="none" stroke="#63b8ff" d="M993.7654,-219.9026C997.5107,-206.5046 1005.7305,-181.9377 1019.3423,-165 1071.5796,-99.999 1094.6065,-87.6419 1171.3423,-55 1246.9379,-22.8431 1344.6299,-13.406 1393.5552,-10.6416"/>
<polygon fill="#63b8ff" stroke="#63b8ff" points="1393.9789,-14.1247 1403.7885,-10.1219 1393.6238,-7.1337 1393.9789,-14.1247"/>
</g>
<!-- Node43&#45;&gt;Node24 -->
<g id="edge80" class="edge">
<title>Node43&#45;&gt;Node24</title>
<path fill="none" stroke="#63b8ff" d="M1019.5263,-227.8155C1125.2021,-221.413 1494.4599,-198.2354 1545.3423,-184 1563.5264,-178.9126 1565.2984,-170.5643 1583.3423,-165 1635.1582,-149.0212 1786.4058,-132.4767 1867.1398,-124.4558"/>
<polygon fill="#63b8ff" stroke="#63b8ff" points="1867.9638,-127.8917 1877.5723,-123.4279 1867.2773,-120.9254 1867.9638,-127.8917"/>
</g>
<!-- Node44 -->
<g id="node44" class="node">
<title>Node44</title>
<g id="a_node44"><a xlink:href="../../da/de1/linkedmap_8h.html" target="_top" xlink:title=" ">
<polygon fill="#ffffff" stroke="#666666" points="1535.8423,-184 1466.8423,-184 1466.8423,-165 1535.8423,-165 1535.8423,-184"/>
<text text-anchor="middle" x="1501.3423" y="-172" font-family="Helvetica,sans-Serif" font-size="10.00" fill="#000000">linkedmap.h</text>
</a>
</g>
</g>
<!-- Node43&#45;&gt;Node44 -->
<g id="edge82" class="edge">
<title>Node43&#45;&gt;Node44</title>
<path fill="none" stroke="#63b8ff" d="M1019.3893,-227.9478C1090.7997,-223.7458 1285.4056,-210.7292 1456.7268,-184.1003"/>
<polygon fill="#63b8ff" stroke="#63b8ff" points="1457.3427,-187.5466 1466.6768,-182.5341 1456.2542,-180.6317 1457.3427,-187.5466"/>
</g>
<!-- Node44&#45;&gt;Node3 -->
<g id="edge89" class="edge">
<title>Node44&#45;&gt;Node3</title>
<path fill="none" stroke="#63b8ff" d="M1466.6948,-166.3445C1463.8787,-165.8347 1461.0687,-165.3763 1458.3423,-165 1309.111,-144.4019 839.3911,-126.0523 699.2151,-120.9217"/>
<polygon fill="#63b8ff" stroke="#63b8ff" points="699.0626,-117.4139 688.9419,-120.5478 698.808,-124.4093 699.0626,-117.4139"/>
</g>
<!-- Node44&#45;&gt;Node4 -->
<g id="edge86" class="edge">
<title>Node44&#45;&gt;Node4</title>
<path fill="none" stroke="#63b8ff" d="M1496.7562,-164.6726C1484.2619,-137.8993 1449.4639,-63.332 1433.0817,-28.2274"/>
<polygon fill="#63b8ff" stroke="#63b8ff" points="1436.2084,-26.6509 1428.8079,-19.0692 1429.8652,-29.6111 1436.2084,-26.6509"/>
</g>
<!-- Node44&#45;&gt;Node5 -->
<g id="edge87" class="edge">
<title>Node44&#45;&gt;Node5</title>
<path fill="none" stroke="#63b8ff" d="M1505.1582,-164.7382C1512.2842,-146.5089 1527.7262,-107.0062 1536.9546,-83.3986"/>
<polygon fill="#63b8ff" stroke="#63b8ff" points="1540.2152,-84.6708 1540.5963,-74.0828 1533.6956,-82.1222 1540.2152,-84.6708"/>
</g>
<!-- Node44&#45;&gt;Node6 -->
<g id="edge88" class="edge">
<title>Node44&#45;&gt;Node6</title>
<path fill="none" stroke="#63b8ff" d="M1475.418,-164.9306C1421.2045,-144.9189 1295.9395,-98.6802 1236.1944,-76.6266"/>
<polygon fill="#63b8ff" stroke="#63b8ff" points="1237.1031,-73.2313 1226.5098,-73.0518 1234.679,-79.7982 1237.1031,-73.2313"/>
</g>
<!-- Node44&#45;&gt;Node14 -->
<g id="edge85" class="edge">
<title>Node44&#45;&gt;Node14</title>
<path fill="none" stroke="#63b8ff" d="M1466.6521,-166.6106C1463.8456,-166.0411 1461.0494,-165.4964 1458.3423,-165 1406.1414,-155.428 1253.7175,-134.1335 1183.5112,-124.4567"/>
<polygon fill="#63b8ff" stroke="#63b8ff" points="1183.7577,-120.9578 1173.3738,-123.0615 1182.8032,-127.8924 1183.7577,-120.9578"/>
</g>
<!-- Node44&#45;&gt;Node17 -->
<g id="edge84" class="edge">
<title>Node44&#45;&gt;Node17</title>
<path fill="none" stroke="#63b8ff" d="M1535.9954,-167.2532C1587.3026,-156.5235 1682.7478,-136.5635 1732.4291,-126.1739"/>
<polygon fill="#63b8ff" stroke="#63b8ff" points="1733.2318,-129.5818 1742.3036,-124.1088 1731.7989,-122.73 1733.2318,-129.5818"/>
</g>
<!-- Node44&#45;&gt;Node24 -->
<g id="edge83" class="edge">
<title>Node44&#45;&gt;Node24</title>
<path fill="none" stroke="#63b8ff" d="M1536.0887,-167.4572C1540.8685,-166.578 1545.7206,-165.7321 1550.3423,-165 1663.0603,-147.1455 1796.091,-132.2502 1867.6117,-124.743"/>
<polygon fill="#63b8ff" stroke="#63b8ff" points="1868.1251,-128.2085 1877.7078,-123.6895 1867.3986,-121.2463 1868.1251,-128.2085"/>
</g>
<!-- Node45&#45;&gt;Node4 -->
<g id="edge94" class="edge">
<title>Node45&#45;&gt;Node4</title>
<path fill="none" stroke="#63b8ff" d="M1424.3423,-164.6726C1424.3423,-138.1291 1424.3423,-64.6086 1424.3423,-29.1401"/>
<polygon fill="#63b8ff" stroke="#63b8ff" points="1427.8424,-29.0691 1424.3423,-19.0692 1420.8424,-29.0692 1427.8424,-29.0691"/>
</g>
<!-- Node45&#45;&gt;Node14 -->
<g id="edge93" class="edge">
<title>Node45&#45;&gt;Node14</title>
<path fill="none" stroke="#63b8ff" d="M1399.6278,-168.2824C1394.8954,-167.1478 1389.973,-166.006 1385.3423,-165 1314.0649,-149.5157 1230.1623,-134.1342 1183.4331,-125.8193"/>
<polygon fill="#63b8ff" stroke="#63b8ff" points="1183.9475,-122.356 1173.4901,-124.057 1182.7258,-129.2486 1183.9475,-122.356"/>
</g>
<!-- Node45&#45;&gt;Node17 -->
<g id="edge95" class="edge">
<title>Node45&#45;&gt;Node17</title>
<path fill="none" stroke="#63b8ff" d="M1449.1359,-167.1868C1452.2218,-166.3907 1455.3452,-165.6389 1458.3423,-165 1557.2855,-143.9071 1676.2884,-129.2212 1732.2663,-122.9331"/>
<polygon fill="#63b8ff" stroke="#63b8ff" points="1732.7286,-126.4034 1742.2819,-121.8225 1731.9571,-119.4461 1732.7286,-126.4034"/>
</g>
<!-- Node45&#45;&gt;Node21 -->
<g id="edge96" class="edge">
<title>Node45&#45;&gt;Node21</title>
<path fill="none" stroke="#63b8ff" d="M1399.4991,-166.7365C1368.6245,-157.0882 1315.828,-140.5893 1281.5161,-129.8668"/>
<polygon fill="#63b8ff" stroke="#63b8ff" points="1282.5231,-126.5146 1271.9343,-126.8725 1280.4351,-133.196 1282.5231,-126.5146"/>
</g>
<!-- Node47 -->
<g id="node47" class="node">
<title>Node47</title>
<g id="a_node47"><a xlink:href="../../df/da1/definition_8h.html" target="_top" xlink:title=" ">
<polygon fill="#ffffff" stroke="#666666" points="1792.3423,-294 1728.3423,-294 1728.3423,-275 1792.3423,-275 1792.3423,-294"/>
<text text-anchor="middle" x="1760.3423" y="-282" font-family="Helvetica,sans-Serif" font-size="10.00" fill="#000000">definition.h</text>
</a>
</g>
</g>
<!-- Node46&#45;&gt;Node47 -->
<g id="edge98" class="edge">
<title>Node46&#45;&gt;Node47</title>
<path fill="none" stroke="#63b8ff" d="M1760.3423,-549.7884C1760.3423,-530.6162 1760.3423,-486.5486 1760.3423,-449.5 1760.3423,-449.5 1760.3423,-449.5 1760.3423,-394.5 1760.3423,-362.9508 1760.3423,-326.3117 1760.3423,-304.2905"/>
<polygon fill="#63b8ff" stroke="#63b8ff" points="1763.8424,-304.2116 1760.3423,-294.2116 1756.8424,-304.2117 1763.8424,-304.2116"/>
</g>
<!-- Node49 -->
<g id="node49" class="node">
<title>Node49</title>
<g id="a_node49"><a xlink:href="../../d4/d3a/filedef_8h.html" target="_top" xlink:title=" ">
<polygon fill="#ffffff" stroke="#666666" points="1903.8423,-514 1852.8423,-514 1852.8423,-495 1903.8423,-495 1903.8423,-514"/>
<text text-anchor="middle" x="1878.3423" y="-502" font-family="Helvetica,sans-Serif" font-size="10.00" fill="#000000">filedef.h</text>
</a>
</g>
</g>
<!-- Node46&#45;&gt;Node49 -->
<g id="edge107" class="edge">
<title>Node46&#45;&gt;Node49</title>
<path fill="none" stroke="#63b8ff" d="M1780.8963,-549.9197C1799.5634,-541.219 1827.3251,-528.2792 1848.447,-518.4343"/>
<polygon fill="#63b8ff" stroke="#63b8ff" points="1850.0427,-521.5521 1857.6279,-514.155 1847.0854,-515.2074 1850.0427,-521.5521"/>
</g>
<!-- Node47&#45;&gt;Node17 -->
<g id="edge99" class="edge">
<title>Node47&#45;&gt;Node17</title>
<path fill="none" stroke="#63b8ff" d="M1779.4958,-274.8589C1792.5341,-267.1315 1808.7513,-254.9484 1816.3423,-239 1830.477,-209.3034 1829.9325,-194.9497 1816.3423,-165 1810.8045,-152.7961 1800.1969,-142.5785 1789.9991,-134.9377"/>
<polygon fill="#63b8ff" stroke="#63b8ff" points="1791.8595,-131.9685 1781.6496,-129.1385 1787.8663,-137.7178 1791.8595,-131.9685"/>
</g>
<!-- Node47&#45;&gt;Node35 -->
<g id="edge100" class="edge">
<title>Node47&#45;&gt;Node35</title>
<path fill="none" stroke="#63b8ff" d="M1728.0524,-278.6239C1719.1062,-277.2044 1709.372,-275.8525 1700.3423,-275 1193.722,-227.168 1056.5024,-315.3116 549.2209,-238.7008"/>
<polygon fill="#63b8ff" stroke="#63b8ff" points="549.4868,-235.201 539.0736,-237.1539 548.4319,-242.121 549.4868,-235.201"/>
</g>
<!-- Node48 -->
<g id="node48" class="node">
<title>Node48</title>
<g id="a_node48"><a xlink:href="../../d1/d02/reflist_8h.html" target="_top" xlink:title=" ">
<polygon fill="#ffffff" stroke="#666666" points="1545.8423,-239 1496.8423,-239 1496.8423,-220 1545.8423,-220 1545.8423,-239"/>
<text text-anchor="middle" x="1521.3423" y="-227" font-family="Helvetica,sans-Serif" font-size="10.00" fill="#000000">reflist.h</text>
</a>
</g>
</g>
<!-- Node47&#45;&gt;Node48 -->
<g id="edge101" class="edge">
<title>Node47&#45;&gt;Node48</title>
<path fill="none" stroke="#63b8ff" d="M1728.1097,-277.0825C1683.2146,-266.751 1602.1867,-248.1044 1556.0205,-237.4804"/>
<polygon fill="#63b8ff" stroke="#63b8ff" points="1556.7051,-234.0465 1546.1748,-235.2146 1555.1352,-240.8682 1556.7051,-234.0465"/>
</g>
<!-- Node48&#45;&gt;Node3 -->
<g id="edge105" class="edge">
<title>Node48&#45;&gt;Node3</title>
<path fill="none" stroke="#63b8ff" d="M1496.7474,-227.1451C1432.064,-220.8834 1251.8719,-202.9981 1102.3423,-184 953.2267,-165.0545 776.5759,-137.9214 699.1027,-125.7851"/>
<polygon fill="#63b8ff" stroke="#63b8ff" points="699.2641,-122.2676 688.8423,-124.1745 698.1786,-129.183 699.2641,-122.2676"/>
</g>
<!-- Node48&#45;&gt;Node14 -->
<g id="edge104" class="edge">
<title>Node48&#45;&gt;Node14</title>
<path fill="none" stroke="#63b8ff" d="M1496.7132,-221.4597C1470.4259,-212.7435 1427.6506,-198.1727 1391.3423,-184 1371.4995,-176.2545 1367.5907,-171.6128 1347.3423,-165 1291.2914,-146.6948 1224.075,-133.0338 1183.5875,-125.6676"/>
<polygon fill="#63b8ff" stroke="#63b8ff" points="1184.1073,-122.2051 1173.647,-123.8881 1182.8737,-129.0955 1184.1073,-122.2051"/>
</g>
<!-- Node48&#45;&gt;Node17 -->
<g id="edge102" class="edge">
<title>Node48&#45;&gt;Node17</title>
<path fill="none" stroke="#63b8ff" d="M1546.0132,-224.2989C1576.0909,-217.4263 1628.0199,-203.8265 1669.3423,-184 1697.2714,-170.5996 1726.2969,-149.7026 1744.7975,-135.3471"/>
<polygon fill="#63b8ff" stroke="#63b8ff" points="1747.0656,-138.0158 1752.7493,-129.0745 1742.7303,-132.5199 1747.0656,-138.0158"/>
</g>
<!-- Node48&#45;&gt;Node24 -->
<g id="edge103" class="edge">
<title>Node48&#45;&gt;Node24</title>
<path fill="none" stroke="#63b8ff" d="M1545.8873,-223.5137C1580.2846,-215.0592 1644.7431,-198.9771 1699.3423,-184 1762.0164,-166.8079 1834.2397,-145.3073 1878.3343,-131.9882"/>
<polygon fill="#63b8ff" stroke="#63b8ff" points="1879.551,-135.2769 1888.1087,-129.0306 1877.5236,-128.5769 1879.551,-135.2769"/>
</g>
<!-- Node48&#45;&gt;Node44 -->
<g id="edge106" class="edge">
<title>Node48&#45;&gt;Node44</title>
<path fill="none" stroke="#63b8ff" d="M1517.8585,-219.9197C1515.2523,-212.7525 1511.6001,-202.7089 1508.3925,-193.8882"/>
<polygon fill="#63b8ff" stroke="#63b8ff" points="1511.6275,-192.5426 1504.9207,-184.3408 1505.049,-194.9349 1511.6275,-192.5426"/>
</g>
<!-- Node49&#45;&gt;Node36 -->
<g id="edge137" class="edge">
<title>Node49&#45;&gt;Node36</title>
<path fill="none" stroke="#63b8ff" d="M1904.0218,-500.5918C1945.4802,-493.7851 2024.5252,-478.5899 2044.3423,-459 2087.2158,-416.618 2093.9339,-340.1375 2094.5911,-304.1846"/>
<polygon fill="#63b8ff" stroke="#63b8ff" points="2098.0916,-304.0435 2094.6296,-294.0302 2091.0916,-304.0168 2098.0916,-304.0435"/>
</g>
<!-- Node49&#45;&gt;Node37 -->
<g id="edge108" class="edge">
<title>Node49&#45;&gt;Node37</title>
<path fill="none" stroke="#63b8ff" d="M1904.127,-498.491C1947.4933,-486.682 2030.3423,-456.0652 2030.3423,-394.5 2030.3423,-394.5 2030.3423,-394.5 2030.3423,-339.5 2030.3423,-306.4308 2016.4902,-270.0384 2006.7353,-248.51"/>
<polygon fill="#63b8ff" stroke="#63b8ff" points="2009.7838,-246.7685 2002.3543,-239.2152 2003.4519,-249.7531 2009.7838,-246.7685"/>
</g>
<!-- Node49&#45;&gt;Node47 -->
<g id="edge109" class="edge">
<title>Node49&#45;&gt;Node47</title>
<path fill="none" stroke="#63b8ff" d="M1880.3453,-494.6521C1885.5695,-466.0846 1896.7457,-381.9273 1859.3423,-330 1845.8509,-311.2699 1822.7262,-300.0576 1802.2179,-293.4519"/>
<polygon fill="#63b8ff" stroke="#63b8ff" points="1802.9954,-290.0323 1792.414,-290.5664 1801.0189,-296.7475 1802.9954,-290.0323"/>
</g>
<!-- Node50 -->
<g id="node50" class="node">
<title>Node50</title>
<g id="a_node50"><a xlink:href="../../dd/d78/memberlist_8h.html" target="_top" xlink:title=" ">
<polygon fill="#ffffff" stroke="#666666" points="1672.8423,-459 1599.8423,-459 1599.8423,-440 1672.8423,-440 1672.8423,-459"/>
<text text-anchor="middle" x="1636.3423" y="-447" font-family="Helvetica,sans-Serif" font-size="10.00" fill="#000000">memberlist.h</text>
</a>
</g>
</g>
<!-- Node49&#45;&gt;Node50 -->
<g id="edge110" class="edge">
<title>Node49&#45;&gt;Node50</title>
<path fill="none" stroke="#63b8ff" d="M1852.444,-498.614C1812.062,-489.4363 1733.5034,-471.5821 1683.0528,-460.116"/>
<polygon fill="#63b8ff" stroke="#63b8ff" points="1683.5746,-456.6454 1673.0475,-457.8421 1682.0232,-463.4714 1683.5746,-456.6454"/>
</g>
<!-- Node50&#45;&gt;Node5 -->
<g id="edge112" class="edge">
<title>Node50&#45;&gt;Node5</title>
<path fill="none" stroke="#63b8ff" d="M1673.1676,-445.7152C1723.1713,-439.9447 1814.9562,-427.1022 1890.3423,-404 2005.6284,-368.6704 2031.9871,-350.8123 2138.3423,-294 2183.1167,-270.0826 2248.4301,-265.2078 2225.3423,-220 2165.5303,-102.8836 1718.3037,-72.6002 1583.0055,-66.0794"/>
<polygon fill="#63b8ff" stroke="#63b8ff" points="1582.8654,-62.5691 1572.7135,-65.6006 1582.5401,-69.5616 1582.8654,-62.5691"/>
</g>
<!-- Node50&#45;&gt;Node17 -->
<g id="edge111" class="edge">
<title>Node50&#45;&gt;Node17</title>
<path fill="none" stroke="#63b8ff" d="M1673.1316,-447.3167C1756.839,-440.1616 1954.3423,-409.9837 1954.3423,-284.5 1954.3423,-284.5 1954.3423,-284.5 1954.3423,-229.5 1954.3423,-157.4975 1850.8837,-131.8614 1796.6539,-123.3695"/>
<polygon fill="#63b8ff" stroke="#63b8ff" points="1796.9098,-119.8699 1786.5095,-121.891 1795.9002,-126.7967 1796.9098,-119.8699"/>
</g>
<!-- Node50&#45;&gt;Node35 -->
<g id="edge135" class="edge">
<title>Node50&#45;&gt;Node35</title>
<path fill="none" stroke="#63b8ff" d="M1599.6491,-443.9137C1479.4251,-425.4049 1086.6692,-363.3115 765.3423,-294 687.4914,-277.2073 597.2962,-252.7994 549.0487,-239.3362"/>
<polygon fill="#63b8ff" stroke="#63b8ff" points="549.7006,-235.8841 539.1272,-236.5567 547.8122,-242.6246 549.7006,-235.8841"/>
</g>
<!-- Node50&#45;&gt;Node44 -->
<g id="edge134" class="edge">
<title>Node50&#45;&gt;Node44</title>
<path fill="none" stroke="#63b8ff" d="M1600.6903,-439.9988C1537.2464,-422.0322 1411.3423,-381.1329 1411.3423,-339.5 1411.3423,-339.5 1411.3423,-339.5 1411.3423,-284.5 1411.3423,-243.0445 1450.1056,-208.6244 1476.7531,-189.8604"/>
<polygon fill="#63b8ff" stroke="#63b8ff" points="1478.9313,-192.6125 1485.2521,-184.1096 1475.0084,-186.815 1478.9313,-192.6125"/>
</g>
<!-- Node51 -->
<g id="node51" class="node">
<title>Node51</title>
<g id="a_node51"><a xlink:href="../../d4/d46/memberdef_8h.html" target="_top" xlink:title=" ">
<polygon fill="#ffffff" stroke="#666666" points="1673.3423,-404 1599.3423,-404 1599.3423,-385 1673.3423,-385 1673.3423,-404"/>
<text text-anchor="middle" x="1636.3423" y="-392" font-family="Helvetica,sans-Serif" font-size="10.00" fill="#000000">memberdef.h</text>
</a>
</g>
</g>
<!-- Node50&#45;&gt;Node51 -->
<g id="edge113" class="edge">
<title>Node50&#45;&gt;Node51</title>
<path fill="none" stroke="#63b8ff" d="M1636.3423,-439.9197C1636.3423,-432.9083 1636.3423,-423.1442 1636.3423,-414.4652"/>
<polygon fill="#63b8ff" stroke="#63b8ff" points="1639.8424,-414.3408 1636.3423,-404.3408 1632.8424,-414.3409 1639.8424,-414.3408"/>
</g>
<!-- Node55 -->
<g id="node55" class="node">
<title>Node55</title>
<g id="a_node55"><a xlink:href="../../d9/d11/membergroup_8h.html" target="_top" xlink:title=" ">
<polygon fill="#ffffff" stroke="#666666" points="1563.3423,-294 1479.3423,-294 1479.3423,-275 1563.3423,-275 1563.3423,-294"/>
<text text-anchor="middle" x="1521.3423" y="-282" font-family="Helvetica,sans-Serif" font-size="10.00" fill="#000000">membergroup.h</text>
</a>
</g>
</g>
<!-- Node50&#45;&gt;Node55 -->
<g id="edge136" class="edge">
<title>Node50&#45;&gt;Node55</title>
<path fill="none" stroke="#63b8ff" d="M1624.8999,-439.766C1615.0344,-431.0231 1600.7735,-417.517 1590.3423,-404 1564.8571,-370.9757 1542.1186,-327.5907 1530.1808,-303.2175"/>
<polygon fill="#63b8ff" stroke="#63b8ff" points="1533.2435,-301.5107 1525.7493,-294.0215 1526.9375,-304.5495 1533.2435,-301.5107"/>
</g>
<!-- Node51&#45;&gt;Node14 -->
<g id="edge115" class="edge">
<title>Node51&#45;&gt;Node14</title>
<path fill="none" stroke="#63b8ff" d="M1619.7067,-384.7449C1589.6473,-367.048 1524.3839,-328.3048 1470.3423,-294 1426.6329,-266.254 1322.6647,-188.1209 1276.3423,-165 1246.1962,-149.9532 1209.8433,-137.6095 1183.4222,-129.5943"/>
<polygon fill="#63b8ff" stroke="#63b8ff" points="1184.3989,-126.2333 1173.816,-126.7377 1182.4036,-132.9429 1184.3989,-126.2333"/>
</g>
<!-- Node51&#45;&gt;Node17 -->
<g id="edge114" class="edge">
<title>Node51&#45;&gt;Node17</title>
<path fill="none" stroke="#63b8ff" d="M1673.6664,-389.8034C1728.6342,-382.401 1828.2129,-366.9959 1859.3423,-349 1892.4626,-329.8532 1916.3423,-322.7564 1916.3423,-284.5 1916.3423,-284.5 1916.3423,-284.5 1916.3423,-229.5 1916.3423,-170.7217 1840.8243,-140.1533 1796.2477,-127.2294"/>
<polygon fill="#63b8ff" stroke="#63b8ff" points="1797.015,-123.8104 1786.4444,-124.5255 1795.1538,-130.5585 1797.015,-123.8104"/>
</g>
<!-- Node51&#45;&gt;Node35 -->
<g id="edge117" class="edge">
<title>Node51&#45;&gt;Node35</title>
<path fill="none" stroke="#63b8ff" d="M1599.2789,-393.8698C1481.4511,-391.0538 1105.7318,-375.801 808.3423,-294 788.1969,-288.4587 785.3621,-280.9792 765.3423,-275 674.6871,-247.9244 645.6476,-259.3795 549.0283,-238.9173"/>
<polygon fill="#63b8ff" stroke="#63b8ff" points="549.6624,-235.4734 539.1465,-236.7644 548.1722,-242.313 549.6624,-235.4734"/>
</g>
<!-- Node51&#45;&gt;Node47 -->
<g id="edge118" class="edge">
<title>Node51&#45;&gt;Node47</title>
<path fill="none" stroke="#63b8ff" d="M1636.6908,-384.9828C1637.6832,-371.233 1641.421,-345.7393 1655.3423,-330 1671.6646,-311.546 1696.8118,-300.2939 1718.4042,-293.5967"/>
<polygon fill="#63b8ff" stroke="#63b8ff" points="1719.386,-296.9563 1728.0305,-290.8306 1717.4527,-290.2285 1719.386,-296.9563"/>
</g>
<!-- Node52 -->
<g id="node52" class="node">
<title>Node52</title>
<g id="a_node52"><a xlink:title=" ">
<polygon fill="#e0e0e0" stroke="#999999" points="1732.3423,-349 1664.3423,-349 1664.3423,-330 1732.3423,-330 1732.3423,-349"/>
<text text-anchor="middle" x="1698.3423" y="-337" font-family="Helvetica,sans-Serif" font-size="10.00" fill="#000000">sys/types.h</text>
</a>
</g>
</g>
<!-- Node51&#45;&gt;Node52 -->
<g id="edge116" class="edge">
<title>Node51&#45;&gt;Node52</title>
<path fill="none" stroke="#63b8ff" d="M1647.1418,-384.9197C1656.0994,-376.9735 1669.0427,-365.4916 1679.6741,-356.0605"/>
<polygon fill="#63b8ff" stroke="#63b8ff" points="1682.0909,-358.5953 1687.249,-349.3408 1677.4455,-353.3587 1682.0909,-358.5953"/>
</g>
<!-- Node53 -->
<g id="node53" class="node">
<title>Node53</title>
<g id="a_node53"><a xlink:href="../../df/d9b/arguments_8h.html" target="_top" xlink:title=" ">
<polygon fill="#ffffff" stroke="#666666" points="1690.8423,-294 1619.8423,-294 1619.8423,-275 1690.8423,-275 1690.8423,-294"/>
<text text-anchor="middle" x="1655.3423" y="-282" font-family="Helvetica,sans-Serif" font-size="10.00" fill="#000000">arguments.h</text>
</a>
</g>
</g>
<!-- Node51&#45;&gt;Node53 -->
<g id="edge119" class="edge">
<title>Node51&#45;&gt;Node53</title>
<path fill="none" stroke="#63b8ff" d="M1631.0593,-384.7237C1624.8679,-371.9467 1616.1889,-348.9648 1622.3423,-330 1625.6597,-319.7755 1632.2324,-309.9255 1638.6445,-302.0209"/>
<polygon fill="#63b8ff" stroke="#63b8ff" points="1641.4547,-304.1232 1645.3778,-294.2814 1636.1736,-299.5287 1641.4547,-304.1232"/>
</g>
<!-- Node54 -->
<g id="node54" class="node">
<title>Node54</title>
<g id="a_node54"><a xlink:href="../../d1/da6/classdef_8h.html" target="_top" xlink:title=" ">
<polygon fill="#ffffff" stroke="#666666" points="1850.3423,-349 1788.3423,-349 1788.3423,-330 1850.3423,-330 1850.3423,-349"/>
<text text-anchor="middle" x="1819.3423" y="-337" font-family="Helvetica,sans-Serif" font-size="10.00" fill="#000000">classdef.h</text>
</a>
</g>
</g>
<!-- Node51&#45;&gt;Node54 -->
<g id="edge122" class="edge">
<title>Node51&#45;&gt;Node54</title>
<path fill="none" stroke="#63b8ff" d="M1668.2184,-384.9197C1698.7507,-375.7434 1744.9714,-361.8519 1778.2546,-351.8488"/>
<polygon fill="#63b8ff" stroke="#63b8ff" points="1779.5674,-355.1089 1788.1368,-348.8787 1777.5525,-348.4052 1779.5674,-355.1089"/>
</g>
<!-- Node53&#45;&gt;Node3 -->
<g id="edge121" class="edge">
<title>Node53&#45;&gt;Node3</title>
<path fill="none" stroke="#63b8ff" d="M1619.4344,-279.9474C1604.8405,-278.2127 1587.8039,-276.3341 1572.3423,-275 1435.2854,-263.1737 1081.0904,-292.4728 954.3423,-239 909.4153,-220.0461 916.7081,-187.2954 873.3423,-165 817.207,-136.1395 743.7765,-125.5751 699.1583,-121.7147"/>
<polygon fill="#63b8ff" stroke="#63b8ff" points="699.2521,-118.2112 689.0067,-120.9095 698.6986,-125.1893 699.2521,-118.2112"/>
</g>
<!-- Node53&#45;&gt;Node17 -->
<g id="edge120" class="edge">
<title>Node53&#45;&gt;Node17</title>
<path fill="none" stroke="#63b8ff" d="M1691.0984,-276.0911C1723.6197,-267.6333 1768.064,-253.7611 1778.3423,-239 1799.3239,-208.8673 1784.8909,-163.7735 1773.7854,-138.4715"/>
<polygon fill="#63b8ff" stroke="#63b8ff" points="1776.878,-136.8214 1769.4859,-129.2314 1770.5314,-139.7745 1776.878,-136.8214"/>
</g>
<!-- Node54&#45;&gt;Node17 -->
<g id="edge123" class="edge">
<title>Node54&#45;&gt;Node17</title>
<path fill="none" stroke="#63b8ff" d="M1823.6297,-329.6698C1835.0683,-301.8439 1863.4557,-220.9286 1833.3423,-165 1825.2509,-149.9722 1809.7827,-139.0865 1795.5395,-131.7381"/>
<polygon fill="#63b8ff" stroke="#63b8ff" points="1796.9802,-128.5476 1786.4464,-127.4119 1793.9728,-134.8687 1796.9802,-128.5476"/>
</g>
<!-- Node54&#45;&gt;Node36 -->
<g id="edge125" class="edge">
<title>Node54&#45;&gt;Node36</title>
<path fill="none" stroke="#63b8ff" d="M1850.3537,-333.2977C1898.8848,-323.5915 1993.019,-304.7646 2049.112,-293.546"/>
<polygon fill="#63b8ff" stroke="#63b8ff" points="2050.0042,-296.937 2059.1236,-291.5437 2048.6313,-290.0729 2050.0042,-296.937"/>
</g>
<!-- Node54&#45;&gt;Node37 -->
<g id="edge124" class="edge">
<title>Node54&#45;&gt;Node37</title>
<path fill="none" stroke="#63b8ff" d="M1834.8272,-329.9306C1866.0171,-310.656 1936.5782,-267.0508 1973.6206,-244.1595"/>
<polygon fill="#63b8ff" stroke="#63b8ff" points="1975.6048,-247.0477 1982.2716,-238.8133 1971.9249,-241.093 1975.6048,-247.0477"/>
</g>
<!-- Node54&#45;&gt;Node47 -->
<g id="edge126" class="edge">
<title>Node54&#45;&gt;Node47</title>
<path fill="none" stroke="#63b8ff" d="M1809.0653,-329.9197C1800.6247,-322.0514 1788.4653,-310.7164 1778.4054,-301.3385"/>
<polygon fill="#63b8ff" stroke="#63b8ff" points="1780.6001,-298.5995 1770.8988,-294.3408 1775.8269,-303.7198 1780.6001,-298.5995"/>
</g>
<!-- Node54&#45;&gt;Node53 -->
<g id="edge127" class="edge">
<title>Node54&#45;&gt;Node53</title>
<path fill="none" stroke="#63b8ff" d="M1790.7756,-329.9197C1763.8141,-320.8778 1723.202,-307.2578 1693.4821,-297.2908"/>
<polygon fill="#63b8ff" stroke="#63b8ff" points="1694.4501,-293.9239 1683.8562,-294.0626 1692.2243,-300.5606 1694.4501,-293.9239"/>
</g>
<!-- Node54&#45;&gt;Node55 -->
<g id="edge128" class="edge">
<title>Node54&#45;&gt;Node55</title>
<path fill="none" stroke="#63b8ff" d="M1788.2944,-333.7697C1737.3876,-324.3741 1635.6338,-305.5941 1573.5058,-294.1275"/>
<polygon fill="#63b8ff" stroke="#63b8ff" points="1573.983,-290.6565 1563.5138,-292.2833 1572.7124,-297.5403 1573.983,-290.6565"/>
</g>
<!-- Node55&#45;&gt;Node14 -->
<g id="edge131" class="edge">
<title>Node55&#45;&gt;Node14</title>
<path fill="none" stroke="#63b8ff" d="M1504.9224,-274.9441C1458.7455,-248.1132 1329.7791,-173.4855 1309.3423,-165 1267.4094,-147.5891 1216.6811,-134.5483 1183.2932,-126.9887"/>
<polygon fill="#63b8ff" stroke="#63b8ff" points="1184.0378,-123.5688 1173.517,-124.8198 1182.5216,-130.4027 1184.0378,-123.5688"/>
</g>
<!-- Node55&#45;&gt;Node17 -->
<g id="edge129" class="edge">
<title>Node55&#45;&gt;Node17</title>
<path fill="none" stroke="#63b8ff" d="M1563.5305,-278.2824C1623.6095,-269.0497 1727.9585,-251.4664 1740.3423,-239 1766.7012,-212.4652 1768.1028,-165.6064 1766.4445,-139.1371"/>
<polygon fill="#63b8ff" stroke="#63b8ff" points="1769.9314,-138.8338 1765.6103,-129.1602 1762.9558,-139.4171 1769.9314,-138.8338"/>
</g>
<!-- Node55&#45;&gt;Node35 -->
<g id="edge132" class="edge">
<title>Node55&#45;&gt;Node35</title>
<path fill="none" stroke="#63b8ff" d="M1479.0963,-283.7927C1319.2799,-280.9235 750.9883,-268.9195 548.9939,-238.6567"/>
<polygon fill="#63b8ff" stroke="#63b8ff" points="549.5011,-235.1935 539.0807,-237.1083 548.4208,-242.1097 549.5011,-235.1935"/>
</g>
<!-- Node55&#45;&gt;Node38 -->
<g id="edge130" class="edge">
<title>Node55&#45;&gt;Node38</title>
<path fill="none" stroke="#63b8ff" d="M1563.4504,-279.9005C1578.5494,-278.2922 1595.7034,-276.5119 1611.3423,-275 1790.2162,-257.7078 1840.7825,-276.9595 2021.0065,-238.5017"/>
<polygon fill="#63b8ff" stroke="#63b8ff" points="2021.7728,-241.917 2030.8065,-236.3814 2020.2925,-235.0752 2021.7728,-241.917"/>
</g>
<!-- Node55&#45;&gt;Node48 -->
<g id="edge133" class="edge">
<title>Node55&#45;&gt;Node48</title>
<path fill="none" stroke="#63b8ff" d="M1521.3423,-274.9197C1521.3423,-267.9083 1521.3423,-258.1442 1521.3423,-249.4652"/>
<polygon fill="#63b8ff" stroke="#63b8ff" points="1524.8424,-249.3408 1521.3423,-239.3408 1517.8424,-249.3409 1524.8424,-249.3408"/>
</g>
<!-- Node56&#45;&gt;Node4 -->
<g id="edge141" class="edge">
<title>Node56&#45;&gt;Node4</title>
<path fill="none" stroke="#63b8ff" d="M2465.8996,-274.7908C2465.0651,-255.6229 2463.3423,-211.5624 2463.3423,-174.5 2463.3423,-174.5 2463.3423,-174.5 2463.3423,-119.5 2463.3423,-67.4464 1627.7582,-20.2902 1455.265,-11.1101"/>
<polygon fill="#63b8ff" stroke="#63b8ff" points="1455.2676,-7.6055 1445.0967,-10.5722 1454.8978,-14.5957 1455.2676,-7.6055"/>
</g>
<!-- Node56&#45;&gt;Node38 -->
<g id="edge140" class="edge">
<title>Node56&#45;&gt;Node38</title>
<path fill="none" stroke="#63b8ff" d="M2441.9293,-281.4978C2384.5602,-274.4114 2236.6918,-255.9623 2113.3423,-239 2101.0589,-237.3109 2087.4855,-235.343 2075.9332,-233.6379"/>
<polygon fill="#63b8ff" stroke="#63b8ff" points="2076.3926,-230.1678 2065.987,-232.1613 2075.3646,-237.0919 2076.3926,-230.1678"/>
</g>
</g>
</svg>
