<?xml version="1.0" encoding="UTF-8" standalone="no"?>
<!DOCTYPE svg PUBLIC "-//W3C//DTD SVG 1.1//EN"
 "http://www.w3.org/Graphics/SVG/1.1/DTD/svg11.dtd">
<!-- Generated by graphviz version 2.40.1 (20161225.0304)
 -->
<!-- Title: vhdlparser/CharStream.h Pages: 1 -->
<svg width="371pt" height="258pt"
 viewBox="0.00 0.00 370.50 258.00" xmlns="http://www.w3.org/2000/svg" xmlns:xlink="http://www.w3.org/1999/xlink">
<g id="graph0" class="graph" transform="scale(1 1) rotate(0) translate(4 254)">
<title>vhdlparser/CharStream.h</title>
<!-- Node1 -->
<g id="node1" class="node">
<title>Node1</title>
<g id="a_node1"><a xlink:title=" ">
<polygon fill="#999999" stroke="#666666" points="278,-250 153,-250 153,-231 278,-231 278,-250"/>
<text text-anchor="middle" x="215.5" y="-238" font-family="Helvetica,sans-Serif" font-size="10.00" fill="#000000">vhdlparser/CharStream.h</text>
</a>
</g>
</g>
<!-- Node2 -->
<g id="node2" class="node">
<title>Node2</title>
<g id="a_node2"><a xlink:href="../../d5/df9/_vhdl_parser_8h.html" target="_top" xlink:title=" ">
<polygon fill="#ffffff" stroke="#666666" points="232,-195 111,-195 111,-176 232,-176 232,-195"/>
<text text-anchor="middle" x="171.5" y="-183" font-family="Helvetica,sans-Serif" font-size="10.00" fill="#000000">vhdlparser/VhdlParser.h</text>
</a>
</g>
</g>
<!-- Node1&#45;&gt;Node2 -->
<g id="edge1" class="edge">
<title>Node1&#45;&gt;Node2</title>
<path fill="none" stroke="#63b8ff" d="M201.3814,-222.8517C194.0935,-213.7419 185.4761,-202.9701 179.3727,-195.3408"/>
<polygon fill="#63b8ff" stroke="#63b8ff" points="198.8557,-225.2975 207.8358,-230.9197 204.3218,-220.9246 198.8557,-225.2975"/>
</g>
<!-- Node7 -->
<g id="node7" class="node">
<title>Node7</title>
<g id="a_node7"><a xlink:href="../../d7/dad/_vhdl_parser_token_manager_8h.html" target="_top" xlink:title=" ">
<polygon fill="#ffffff" stroke="#666666" points="362.5,-85 222.5,-85 222.5,-55 362.5,-55 362.5,-85"/>
<text text-anchor="start" x="230.5" y="-73" font-family="Helvetica,sans-Serif" font-size="10.00" fill="#000000">vhdlparser/VhdlParserToken</text>
<text text-anchor="middle" x="292.5" y="-62" font-family="Helvetica,sans-Serif" font-size="10.00" fill="#000000">Manager.h</text>
</a>
</g>
</g>
<!-- Node1&#45;&gt;Node7 -->
<g id="edge9" class="edge">
<title>Node1&#45;&gt;Node7</title>
<path fill="none" stroke="#63b8ff" d="M230.7633,-222.9992C246.4649,-203.955 270.2985,-171.9358 282.5,-140 289.3788,-121.9958 291.5814,-99.7469 292.2563,-85.2313"/>
<polygon fill="#63b8ff" stroke="#63b8ff" points="227.9646,-220.8888 224.1923,-230.7894 233.3153,-225.4022 227.9646,-220.8888"/>
</g>
<!-- Node3 -->
<g id="node3" class="node">
<title>Node3</title>
<g id="a_node3"><a xlink:href="../../de/dea/vhdldocgen_8cpp.html" target="_top" xlink:title=" ">
<polygon fill="#ffffff" stroke="#666666" points="101,-140 0,-140 0,-121 101,-121 101,-140"/>
<text text-anchor="middle" x="50.5" y="-128" font-family="Helvetica,sans-Serif" font-size="10.00" fill="#000000">src/vhdldocgen.cpp</text>
</a>
</g>
</g>
<!-- Node2&#45;&gt;Node3 -->
<g id="edge2" class="edge">
<title>Node2&#45;&gt;Node3</title>
<path fill="none" stroke="#63b8ff" d="M141.0303,-171.6501C119.4105,-161.823 90.936,-148.88 71.7411,-140.155"/>
<polygon fill="#63b8ff" stroke="#63b8ff" points="139.8714,-174.9679 150.4234,-175.9197 142.7681,-168.5954 139.8714,-174.9679"/>
</g>
<!-- Node4 -->
<g id="node4" class="node">
<title>Node4</title>
<g id="a_node4"><a xlink:href="../../d2/dc3/_vhdl_parser_error_handler_8hpp.html" target="_top" xlink:title=" ">
<polygon fill="#ffffff" stroke="#666666" points="204.5,-85 70.5,-85 70.5,-55 204.5,-55 204.5,-85"/>
<text text-anchor="start" x="78.5" y="-73" font-family="Helvetica,sans-Serif" font-size="10.00" fill="#000000">vhdlparser/VhdlParserError</text>
<text text-anchor="middle" x="137.5" y="-62" font-family="Helvetica,sans-Serif" font-size="10.00" fill="#000000">Handler.hpp</text>
</a>
</g>
</g>
<!-- Node2&#45;&gt;Node4 -->
<g id="edge3" class="edge">
<title>Node2&#45;&gt;Node4</title>
<path fill="none" stroke="#63b8ff" d="M161.0103,-166.8379C156.8791,-158.7938 152.4312,-149.1483 149.5,-140 143.5932,-121.565 140.4181,-99.4137 138.8457,-85.038"/>
<polygon fill="#63b8ff" stroke="#63b8ff" points="157.9595,-168.555 165.7691,-175.7148 164.1289,-165.2476 157.9595,-168.555"/>
</g>
<!-- Node6 -->
<g id="node6" class="node">
<title>Node6</title>
<g id="a_node6"><a xlink:href="../../d9/d48/vhdlstring_8h.html" target="_top" xlink:title=" ">
<polygon fill="#ffffff" stroke="#666666" points="273,-140 158,-140 158,-121 273,-121 273,-140"/>
<text text-anchor="middle" x="215.5" y="-128" font-family="Helvetica,sans-Serif" font-size="10.00" fill="#000000">vhdlparser/vhdlstring.h</text>
</a>
</g>
</g>
<!-- Node2&#45;&gt;Node6 -->
<g id="edge5" class="edge">
<title>Node2&#45;&gt;Node6</title>
<path fill="none" stroke="#63b8ff" d="M185.6186,-167.8517C192.9065,-158.7419 201.5239,-147.9701 207.6273,-140.3408"/>
<polygon fill="#63b8ff" stroke="#63b8ff" points="182.6782,-165.9246 179.1642,-175.9197 188.1443,-170.2975 182.6782,-165.9246"/>
</g>
<!-- Node5 -->
<g id="node5" class="node">
<title>Node5</title>
<g id="a_node5"><a xlink:href="../../d1/d86/vhdljjparser_8cpp.html" target="_top" xlink:title=" ">
<polygon fill="#ffffff" stroke="#666666" points="265,-19 164,-19 164,0 265,0 265,-19"/>
<text text-anchor="middle" x="214.5" y="-7" font-family="Helvetica,sans-Serif" font-size="10.00" fill="#000000">src/vhdljjparser.cpp</text>
</a>
</g>
</g>
<!-- Node4&#45;&gt;Node5 -->
<g id="edge4" class="edge">
<title>Node4&#45;&gt;Node5</title>
<path fill="none" stroke="#63b8ff" d="M165.0015,-48.3917C177.7703,-38.359 192.301,-26.942 202.2991,-19.0864"/>
<polygon fill="#63b8ff" stroke="#63b8ff" points="162.6312,-45.8029 156.9304,-54.7333 166.9559,-51.3072 162.6312,-45.8029"/>
</g>
<!-- Node6&#45;&gt;Node4 -->
<g id="edge6" class="edge">
<title>Node6&#45;&gt;Node4</title>
<path fill="none" stroke="#63b8ff" d="M195.013,-114.6094C183.2614,-105.4945 168.5899,-94.1146 157.0066,-85.1301"/>
<polygon fill="#63b8ff" stroke="#63b8ff" points="192.9211,-117.4163 202.968,-120.7796 197.2114,-111.8851 192.9211,-117.4163"/>
</g>
<!-- Node6&#45;&gt;Node7 -->
<g id="edge7" class="edge">
<title>Node6&#45;&gt;Node7</title>
<path fill="none" stroke="#63b8ff" d="M236.0631,-114.3433C247.6062,-105.2737 261.9197,-94.0274 273.2435,-85.1301"/>
<polygon fill="#63b8ff" stroke="#63b8ff" points="233.5722,-111.8493 227.8714,-120.7796 237.897,-117.3535 233.5722,-111.8493"/>
</g>
<!-- Node7&#45;&gt;Node5 -->
<g id="edge8" class="edge">
<title>Node7&#45;&gt;Node5</title>
<path fill="none" stroke="#63b8ff" d="M264.6413,-48.3917C251.7067,-38.359 236.9873,-26.942 226.8593,-19.0864"/>
<polygon fill="#63b8ff" stroke="#63b8ff" points="262.7705,-51.37 272.8173,-54.7333 267.0607,-45.8388 262.7705,-51.37"/>
</g>
</g>
</svg>
