<?xml version="1.0" encoding="UTF-8" standalone="no"?>
<!DOCTYPE svg PUBLIC "-//W3C//DTD SVG 1.1//EN"
 "http://www.w3.org/Graphics/SVG/1.1/DTD/svg11.dtd">
<!-- Generated by graphviz version 2.40.1 (20161225.0304)
 -->
<!-- Title: src/classlist.h Pages: 1 -->
<svg width="754pt" height="412pt"
 viewBox="0.00 0.00 753.64 412.00" xmlns="http://www.w3.org/2000/svg" xmlns:xlink="http://www.w3.org/1999/xlink">
<g id="graph0" class="graph" transform="scale(1 1) rotate(0) translate(4 408)">
<title>src/classlist.h</title>
<!-- Node1 -->
<g id="node1" class="node">
<title>Node1</title>
<g id="a_node1"><a xlink:title=" ">
<polygon fill="#999999" stroke="#666666" points="244.6448,-404 167.6448,-404 167.6448,-385 244.6448,-385 244.6448,-404"/>
<text text-anchor="middle" x="206.1448" y="-392" font-family="Helvetica,sans-Serif" font-size="10.00" fill="#000000">src/classlist.h</text>
</a>
</g>
</g>
<!-- Node2 -->
<g id="node2" class="node">
<title>Node2</title>
<g id="a_node2"><a xlink:href="../../da/de1/linkedmap_8h.html" target="_top" xlink:title=" ">
<polygon fill="#ffffff" stroke="#666666" points="291.6448,-184 222.6448,-184 222.6448,-165 291.6448,-165 291.6448,-184"/>
<text text-anchor="middle" x="257.1448" y="-172" font-family="Helvetica,sans-Serif" font-size="10.00" fill="#000000">linkedmap.h</text>
</a>
</g>
</g>
<!-- Node1&#45;&gt;Node2 -->
<g id="edge1" class="edge">
<title>Node1&#45;&gt;Node2</title>
<path fill="none" stroke="#63b8ff" d="M179.1717,-384.9636C113.3288,-360.2786 -46.0298,-291.2293 13.1448,-220 37.9898,-190.0938 149.0476,-179.7411 212.4306,-176.2353"/>
<polygon fill="#63b8ff" stroke="#63b8ff" points="212.7443,-179.7239 222.5499,-175.7113 212.3822,-172.7332 212.7443,-179.7239"/>
</g>
<!-- Node16 -->
<g id="node16" class="node">
<title>Node16</title>
<g id="a_node16"><a xlink:href="../../d1/da6/classdef_8h.html" target="_top" xlink:title=" ">
<polygon fill="#ffffff" stroke="#666666" points="450.1448,-349 388.1448,-349 388.1448,-330 450.1448,-330 450.1448,-349"/>
<text text-anchor="middle" x="419.1448" y="-337" font-family="Helvetica,sans-Serif" font-size="10.00" fill="#000000">classdef.h</text>
</a>
</g>
</g>
<!-- Node1&#45;&gt;Node16 -->
<g id="edge20" class="edge">
<title>Node1&#45;&gt;Node16</title>
<path fill="none" stroke="#63b8ff" d="M243.2465,-384.9197C280.8849,-375.2009 339.0061,-360.1931 378.0267,-350.1173"/>
<polygon fill="#63b8ff" stroke="#63b8ff" points="379.1944,-353.4307 388.0017,-347.5416 377.4442,-346.653 379.1944,-353.4307"/>
</g>
<!-- Node3 -->
<g id="node3" class="node">
<title>Node3</title>
<g id="a_node3"><a xlink:title=" ">
<polygon fill="#e0e0e0" stroke="#999999" points="191.6448,-129 108.6448,-129 108.6448,-110 191.6448,-110 191.6448,-129"/>
<text text-anchor="middle" x="150.1448" y="-117" font-family="Helvetica,sans-Serif" font-size="10.00" fill="#000000">unordered_map</text>
</a>
</g>
</g>
<!-- Node2&#45;&gt;Node3 -->
<g id="edge2" class="edge">
<title>Node2&#45;&gt;Node3</title>
<path fill="none" stroke="#63b8ff" d="M238.5068,-164.9197C221.8086,-156.3365 197.085,-143.6281 178.033,-133.8351"/>
<polygon fill="#63b8ff" stroke="#63b8ff" points="179.4221,-130.6138 168.9282,-129.155 176.222,-136.8395 179.4221,-130.6138"/>
</g>
<!-- Node4 -->
<g id="node4" class="node">
<title>Node4</title>
<g id="a_node4"><a xlink:title=" ">
<polygon fill="#e0e0e0" stroke="#999999" points="622.1448,-129 578.1448,-129 578.1448,-110 622.1448,-110 622.1448,-129"/>
<text text-anchor="middle" x="600.1448" y="-117" font-family="Helvetica,sans-Serif" font-size="10.00" fill="#000000">vector</text>
</a>
</g>
</g>
<!-- Node2&#45;&gt;Node4 -->
<g id="edge3" class="edge">
<title>Node2&#45;&gt;Node4</title>
<path fill="none" stroke="#63b8ff" d="M291.921,-168.9236C358.5512,-158.2395 503.3142,-135.0268 567.9047,-124.6697"/>
<polygon fill="#63b8ff" stroke="#63b8ff" points="568.5996,-128.1031 577.9193,-123.0638 567.4913,-121.1914 568.5996,-128.1031"/>
</g>
<!-- Node5 -->
<g id="node5" class="node">
<title>Node5</title>
<g id="a_node5"><a xlink:title=" ">
<polygon fill="#e0e0e0" stroke="#999999" points="376.1448,-129 324.1448,-129 324.1448,-110 376.1448,-110 376.1448,-129"/>
<text text-anchor="middle" x="350.1448" y="-117" font-family="Helvetica,sans-Serif" font-size="10.00" fill="#000000">memory</text>
</a>
</g>
</g>
<!-- Node2&#45;&gt;Node5 -->
<g id="edge4" class="edge">
<title>Node2&#45;&gt;Node5</title>
<path fill="none" stroke="#63b8ff" d="M273.3441,-164.9197C287.5262,-156.5325 308.3687,-144.2063 324.7637,-134.5103"/>
<polygon fill="#63b8ff" stroke="#63b8ff" points="326.9932,-137.2581 333.819,-129.155 323.4299,-131.2329 326.9932,-137.2581"/>
</g>
<!-- Node6 -->
<g id="node6" class="node">
<title>Node6</title>
<g id="a_node6"><a xlink:title=" ">
<polygon fill="#e0e0e0" stroke="#999999" points="311.6448,-19 270.6448,-19 270.6448,0 311.6448,0 311.6448,-19"/>
<text text-anchor="middle" x="291.1448" y="-7" font-family="Helvetica,sans-Serif" font-size="10.00" fill="#000000">string</text>
</a>
</g>
</g>
<!-- Node2&#45;&gt;Node6 -->
<g id="edge5" class="edge">
<title>Node2&#45;&gt;Node6</title>
<path fill="none" stroke="#63b8ff" d="M249.6788,-164.9988C234.212,-144.0772 201.7501,-92.8784 222.1448,-55 230.4594,-39.5576 246.5634,-28.4891 261.1233,-21.138"/>
<polygon fill="#63b8ff" stroke="#63b8ff" points="262.7807,-24.2273 270.371,-16.8355 259.8278,-17.8805 262.7807,-24.2273"/>
</g>
<!-- Node7 -->
<g id="node7" class="node">
<title>Node7</title>
<g id="a_node7"><a xlink:title=" ">
<polygon fill="#e0e0e0" stroke="#999999" points="287.1448,-74 231.1448,-74 231.1448,-55 287.1448,-55 287.1448,-74"/>
<text text-anchor="middle" x="259.1448" y="-62" font-family="Helvetica,sans-Serif" font-size="10.00" fill="#000000">algorithm</text>
</a>
</g>
</g>
<!-- Node2&#45;&gt;Node7 -->
<g id="edge6" class="edge">
<title>Node2&#45;&gt;Node7</title>
<path fill="none" stroke="#63b8ff" d="M257.3223,-164.7382C257.6492,-146.7541 258.3527,-108.0652 258.7837,-84.3599"/>
<polygon fill="#63b8ff" stroke="#63b8ff" points="262.2881,-84.1448 258.9705,-74.0828 255.2892,-84.0175 262.2881,-84.1448"/>
</g>
<!-- Node8 -->
<g id="node8" class="node">
<title>Node8</title>
<g id="a_node8"><a xlink:title=" ">
<polygon fill="#e0e0e0" stroke="#999999" points="351.1448,-74 305.1448,-74 305.1448,-55 351.1448,-55 351.1448,-74"/>
<text text-anchor="middle" x="328.1448" y="-62" font-family="Helvetica,sans-Serif" font-size="10.00" fill="#000000">cctype</text>
</a>
</g>
</g>
<!-- Node2&#45;&gt;Node8 -->
<g id="edge7" class="edge">
<title>Node2&#45;&gt;Node8</title>
<path fill="none" stroke="#63b8ff" d="M263.4456,-164.7382C275.3173,-146.3454 301.1674,-106.2959 316.3541,-82.7673"/>
<polygon fill="#63b8ff" stroke="#63b8ff" points="319.4771,-84.3828 321.9595,-74.0828 313.5958,-80.5866 319.4771,-84.3828"/>
</g>
<!-- Node9 -->
<g id="node9" class="node">
<title>Node9</title>
<g id="a_node9"><a xlink:href="../../d7/d5c/qcstring_8h.html" target="_top" xlink:title=" ">
<polygon fill="#ffffff" stroke="#666666" points="463.6448,-129 404.6448,-129 404.6448,-110 463.6448,-110 463.6448,-129"/>
<text text-anchor="middle" x="434.1448" y="-117" font-family="Helvetica,sans-Serif" font-size="10.00" fill="#000000">qcstring.h</text>
</a>
</g>
</g>
<!-- Node2&#45;&gt;Node9 -->
<g id="edge8" class="edge">
<title>Node2&#45;&gt;Node9</title>
<path fill="none" stroke="#63b8ff" d="M287.9758,-164.9197C317.6866,-155.6876 362.7564,-141.6828 394.9899,-131.6668"/>
<polygon fill="#63b8ff" stroke="#63b8ff" points="396.0391,-135.0059 404.5501,-128.6961 393.9619,-128.3212 396.0391,-135.0059"/>
</g>
<!-- Node9&#45;&gt;Node6 -->
<g id="edge9" class="edge">
<title>Node9&#45;&gt;Node6</title>
<path fill="none" stroke="#63b8ff" d="M423.9776,-109.8579C410.0459,-96.8307 384.0241,-73.151 360.1448,-55 345.8509,-44.1351 329.0461,-33.0213 315.5995,-24.4975"/>
<polygon fill="#63b8ff" stroke="#63b8ff" points="317.2313,-21.3896 306.8991,-19.0451 313.5141,-27.3211 317.2313,-21.3896"/>
</g>
<!-- Node9&#45;&gt;Node7 -->
<g id="edge10" class="edge">
<title>Node9&#45;&gt;Node7</title>
<path fill="none" stroke="#63b8ff" d="M404.4584,-110.17C374.8927,-100.8779 329.3872,-86.5762 297.1872,-76.4562"/>
<polygon fill="#63b8ff" stroke="#63b8ff" points="297.8266,-72.9884 287.2373,-73.3291 295.7278,-79.6664 297.8266,-72.9884"/>
</g>
<!-- Node9&#45;&gt;Node8 -->
<g id="edge11" class="edge">
<title>Node9&#45;&gt;Node8</title>
<path fill="none" stroke="#63b8ff" d="M415.681,-109.9197C399.1388,-101.3365 374.6463,-88.6281 355.7723,-78.8351"/>
<polygon fill="#63b8ff" stroke="#63b8ff" points="357.2409,-75.654 346.7526,-74.155 354.0169,-81.8674 357.2409,-75.654"/>
</g>
<!-- Node10 -->
<g id="node10" class="node">
<title>Node10</title>
<g id="a_node10"><a xlink:title=" ">
<polygon fill="#e0e0e0" stroke="#999999" points="621.1448,-74 575.1448,-74 575.1448,-55 621.1448,-55 621.1448,-74"/>
<text text-anchor="middle" x="598.1448" y="-62" font-family="Helvetica,sans-Serif" font-size="10.00" fill="#000000">cstring</text>
</a>
</g>
</g>
<!-- Node9&#45;&gt;Node10 -->
<g id="edge12" class="edge">
<title>Node9&#45;&gt;Node10</title>
<path fill="none" stroke="#63b8ff" d="M462.7114,-109.9197C491.3219,-100.3247 535.3039,-85.5747 565.3303,-75.5049"/>
<polygon fill="#63b8ff" stroke="#63b8ff" points="566.5676,-78.7816 574.9358,-72.2835 564.3418,-72.1448 566.5676,-78.7816"/>
</g>
<!-- Node11 -->
<g id="node11" class="node">
<title>Node11</title>
<g id="a_node11"><a xlink:title=" ">
<polygon fill="#e0e0e0" stroke="#999999" points="682.6448,-74 639.6448,-74 639.6448,-55 682.6448,-55 682.6448,-74"/>
<text text-anchor="middle" x="661.1448" y="-62" font-family="Helvetica,sans-Serif" font-size="10.00" fill="#000000">cstdio</text>
</a>
</g>
</g>
<!-- Node9&#45;&gt;Node11 -->
<g id="edge13" class="edge">
<title>Node9&#45;&gt;Node11</title>
<path fill="none" stroke="#63b8ff" d="M463.8564,-113.2739C500.5123,-105.4468 564.9297,-91.2189 629.5673,-74.0095"/>
<polygon fill="#63b8ff" stroke="#63b8ff" points="630.7702,-77.3105 639.5198,-71.336 628.9542,-70.5501 630.7702,-77.3105"/>
</g>
<!-- Node12 -->
<g id="node12" class="node">
<title>Node12</title>
<g id="a_node12"><a xlink:title=" ">
<polygon fill="#e0e0e0" stroke="#999999" points="745.6448,-74 700.6448,-74 700.6448,-55 745.6448,-55 745.6448,-74"/>
<text text-anchor="middle" x="723.1448" y="-62" font-family="Helvetica,sans-Serif" font-size="10.00" fill="#000000">cstdlib</text>
</a>
</g>
</g>
<!-- Node9&#45;&gt;Node12 -->
<g id="edge14" class="edge">
<title>Node9&#45;&gt;Node12</title>
<path fill="none" stroke="#63b8ff" d="M463.6585,-115.3877C509.943,-108.6991 602.5533,-94.3527 690.6219,-73.8934"/>
<polygon fill="#63b8ff" stroke="#63b8ff" points="691.5726,-77.2653 700.5044,-71.5668 689.9684,-70.4516 691.5726,-77.2653"/>
</g>
<!-- Node13 -->
<g id="node13" class="node">
<title>Node13</title>
<g id="a_node13"><a xlink:title=" ">
<polygon fill="#e0e0e0" stroke="#999999" points="545.1448,-19 499.1448,-19 499.1448,0 545.1448,0 545.1448,-19"/>
<text text-anchor="middle" x="522.1448" y="-7" font-family="Helvetica,sans-Serif" font-size="10.00" fill="#000000">cstdint</text>
</a>
</g>
</g>
<!-- Node9&#45;&gt;Node13 -->
<g id="edge15" class="edge">
<title>Node9&#45;&gt;Node13</title>
<path fill="none" stroke="#63b8ff" d="M463.6534,-113.7266C485.3435,-107.7718 513.3469,-96.1113 527.1448,-74 535.4961,-60.6169 533.1785,-42.5037 529.3851,-28.8792"/>
<polygon fill="#63b8ff" stroke="#63b8ff" points="532.6231,-27.5184 526.2021,-19.091 525.9662,-29.6832 532.6231,-27.5184"/>
</g>
<!-- Node14 -->
<g id="node14" class="node">
<title>Node14</title>
<g id="a_node14"><a xlink:title=" ">
<polygon fill="#e0e0e0" stroke="#999999" points="459.1448,-74 407.1448,-74 407.1448,-55 459.1448,-55 459.1448,-74"/>
<text text-anchor="middle" x="433.1448" y="-62" font-family="Helvetica,sans-Serif" font-size="10.00" fill="#000000">ostream</text>
</a>
</g>
</g>
<!-- Node9&#45;&gt;Node14 -->
<g id="edge16" class="edge">
<title>Node9&#45;&gt;Node14</title>
<path fill="none" stroke="#63b8ff" d="M433.9706,-109.9197C433.8431,-102.9083 433.6656,-93.1442 433.5078,-84.4652"/>
<polygon fill="#63b8ff" stroke="#63b8ff" points="437.005,-84.2755 433.3237,-74.3408 430.0062,-84.4028 437.005,-84.2755"/>
</g>
<!-- Node15 -->
<g id="node15" class="node">
<title>Node15</title>
<g id="a_node15"><a xlink:href="../../db/d7c/utf8_8h.html" target="_top" xlink:title="Various UTF8 related helper functions.">
<polygon fill="#ffffff" stroke="#666666" points="518.6448,-74 477.6448,-74 477.6448,-55 518.6448,-55 518.6448,-74"/>
<text text-anchor="middle" x="498.1448" y="-62" font-family="Helvetica,sans-Serif" font-size="10.00" fill="#000000">utf8.h</text>
</a>
</g>
</g>
<!-- Node9&#45;&gt;Node15 -->
<g id="edge17" class="edge">
<title>Node9&#45;&gt;Node15</title>
<path fill="none" stroke="#63b8ff" d="M445.2927,-109.9197C454.5393,-101.9735 467.9001,-90.4916 478.8744,-81.0605"/>
<polygon fill="#63b8ff" stroke="#63b8ff" points="481.3906,-83.513 486.6936,-74.3408 476.8282,-78.2041 481.3906,-83.513"/>
</g>
<!-- Node15&#45;&gt;Node6 -->
<g id="edge19" class="edge">
<title>Node15&#45;&gt;Node6</title>
<path fill="none" stroke="#63b8ff" d="M477.5332,-57.8088C474.3965,-56.8382 471.1908,-55.8731 468.1448,-55 417.1477,-40.3828 357.2607,-25.4499 321.8512,-16.8492"/>
<polygon fill="#63b8ff" stroke="#63b8ff" points="322.2273,-13.3394 311.6848,-14.3907 320.5819,-20.1432 322.2273,-13.3394"/>
</g>
<!-- Node15&#45;&gt;Node13 -->
<g id="edge18" class="edge">
<title>Node15&#45;&gt;Node13</title>
<path fill="none" stroke="#63b8ff" d="M502.3253,-54.9197C505.4868,-47.6746 509.9308,-37.4903 513.8098,-28.601"/>
<polygon fill="#63b8ff" stroke="#63b8ff" points="517.059,-29.9061 517.8506,-19.3408 510.6432,-27.1064 517.059,-29.9061"/>
</g>
<!-- Node16&#45;&gt;Node4 -->
<g id="edge21" class="edge">
<title>Node16&#45;&gt;Node4</title>
<path fill="none" stroke="#63b8ff" d="M450.3257,-334.1694C494.3357,-326.1929 571.9071,-310.3341 595.1448,-294 649.4011,-255.8624 701.7774,-223.2889 670.1448,-165 661.8648,-149.7426 646.0113,-138.8025 631.4828,-131.4795"/>
<polygon fill="#63b8ff" stroke="#63b8ff" points="632.764,-128.2156 622.2198,-127.1806 629.8171,-134.5651 632.764,-128.2156"/>
</g>
<!-- Node17 -->
<g id="node17" class="node">
<title>Node17</title>
<g id="a_node17"><a xlink:title=" ">
<polygon fill="#e0e0e0" stroke="#999999" points="52.1448,-239 22.1448,-239 22.1448,-220 52.1448,-220 52.1448,-239"/>
<text text-anchor="middle" x="37.1448" y="-227" font-family="Helvetica,sans-Serif" font-size="10.00" fill="#000000">set</text>
</a>
</g>
</g>
<!-- Node16&#45;&gt;Node17 -->
<g id="edge22" class="edge">
<title>Node16&#45;&gt;Node17</title>
<path fill="none" stroke="#63b8ff" d="M387.9363,-337.0224C338.8086,-332.4512 240.9183,-320.6124 162.1448,-294 125.0131,-281.4556 85.3086,-259.2886 60.8518,-244.495"/>
<polygon fill="#63b8ff" stroke="#63b8ff" points="62.6156,-241.4709 52.2623,-239.2217 58.9533,-247.4364 62.6156,-241.4709"/>
</g>
<!-- Node18 -->
<g id="node18" class="node">
<title>Node18</title>
<g id="a_node18"><a xlink:href="../../d5/d75/containers_8h.html" target="_top" xlink:title=" ">
<polygon fill="#ffffff" stroke="#666666" points="241.1448,-294 171.1448,-294 171.1448,-275 241.1448,-275 241.1448,-294"/>
<text text-anchor="middle" x="206.1448" y="-282" font-family="Helvetica,sans-Serif" font-size="10.00" fill="#000000">containers.h</text>
</a>
</g>
</g>
<!-- Node16&#45;&gt;Node18 -->
<g id="edge23" class="edge">
<title>Node16&#45;&gt;Node18</title>
<path fill="none" stroke="#63b8ff" d="M387.7159,-331.3846C351.5813,-322.054 291.9876,-306.666 250.9888,-296.0794"/>
<polygon fill="#63b8ff" stroke="#63b8ff" points="251.8078,-292.6762 241.2503,-293.5648 250.0576,-299.4539 251.8078,-292.6762"/>
</g>
<!-- Node22 -->
<g id="node22" class="node">
<title>Node22</title>
<g id="a_node22"><a xlink:href="../../df/da1/definition_8h.html" target="_top" xlink:title=" ">
<polygon fill="#ffffff" stroke="#666666" points="563.1448,-294 499.1448,-294 499.1448,-275 563.1448,-275 563.1448,-294"/>
<text text-anchor="middle" x="531.1448" y="-282" font-family="Helvetica,sans-Serif" font-size="10.00" fill="#000000">definition.h</text>
</a>
</g>
</g>
<!-- Node16&#45;&gt;Node22 -->
<g id="edge31" class="edge">
<title>Node16&#45;&gt;Node22</title>
<path fill="none" stroke="#63b8ff" d="M438.6537,-329.9197C456.2918,-321.2581 482.4845,-308.3957 502.4983,-298.5675"/>
<polygon fill="#63b8ff" stroke="#63b8ff" points="504.0503,-301.7046 511.4836,-294.155 500.9647,-295.4213 504.0503,-301.7046"/>
</g>
<!-- Node25 -->
<g id="node25" class="node">
<title>Node25</title>
<g id="a_node25"><a xlink:href="../../df/d9b/arguments_8h.html" target="_top" xlink:title=" ">
<polygon fill="#ffffff" stroke="#666666" points="533.6448,-184 462.6448,-184 462.6448,-165 533.6448,-165 533.6448,-184"/>
<text text-anchor="middle" x="498.1448" y="-172" font-family="Helvetica,sans-Serif" font-size="10.00" fill="#000000">arguments.h</text>
</a>
</g>
</g>
<!-- Node16&#45;&gt;Node25 -->
<g id="edge41" class="edge">
<title>Node16&#45;&gt;Node25</title>
<path fill="none" stroke="#63b8ff" d="M450.3854,-337.3985C483.9304,-333.6426 537.1167,-323.1747 572.1448,-294 593.2215,-276.4453 593.746,-265.673 600.1448,-239 602.1147,-230.7885 604.7414,-227.0837 600.1448,-220 587.5704,-200.6221 564.6099,-189.4261 543.6531,-182.9934"/>
<polygon fill="#63b8ff" stroke="#63b8ff" points="544.4683,-179.5874 533.8963,-180.282 542.594,-186.3318 544.4683,-179.5874"/>
</g>
<!-- Node26 -->
<g id="node26" class="node">
<title>Node26</title>
<g id="a_node26"><a xlink:href="../../d9/d11/membergroup_8h.html" target="_top" xlink:title=" ">
<polygon fill="#ffffff" stroke="#666666" points="461.1448,-294 377.1448,-294 377.1448,-275 461.1448,-275 461.1448,-294"/>
<text text-anchor="middle" x="419.1448" y="-282" font-family="Helvetica,sans-Serif" font-size="10.00" fill="#000000">membergroup.h</text>
</a>
</g>
</g>
<!-- Node16&#45;&gt;Node26 -->
<g id="edge44" class="edge">
<title>Node16&#45;&gt;Node26</title>
<path fill="none" stroke="#63b8ff" d="M419.1448,-329.9197C419.1448,-322.9083 419.1448,-313.1442 419.1448,-304.4652"/>
<polygon fill="#63b8ff" stroke="#63b8ff" points="422.6449,-304.3408 419.1448,-294.3408 415.6449,-304.3409 422.6449,-304.3408"/>
</g>
<!-- Node18&#45;&gt;Node3 -->
<g id="edge29" class="edge">
<title>Node18&#45;&gt;Node3</title>
<path fill="none" stroke="#63b8ff" d="M180.2795,-274.8834C164.7381,-267.6027 146.2603,-255.9299 137.1448,-239 119.9178,-207.0049 132.1399,-163.249 141.7198,-138.5333"/>
<polygon fill="#63b8ff" stroke="#63b8ff" points="144.9934,-139.7756 145.5702,-129.1964 138.5221,-137.1069 144.9934,-139.7756"/>
</g>
<!-- Node18&#45;&gt;Node4 -->
<g id="edge24" class="edge">
<title>Node18&#45;&gt;Node4</title>
<path fill="none" stroke="#63b8ff" d="M241.4912,-280.9222C289.9328,-275.3566 379.246,-262.7136 452.1448,-239 506.0217,-221.4741 526.5499,-223.5213 567.1448,-184 580.0723,-171.4144 588.8732,-152.6832 594.1133,-138.6443"/>
<polygon fill="#63b8ff" stroke="#63b8ff" points="597.4867,-139.5976 597.4357,-129.0029 590.8686,-137.317 597.4867,-139.5976"/>
</g>
<!-- Node18&#45;&gt;Node6 -->
<g id="edge25" class="edge">
<title>Node18&#45;&gt;Node6</title>
<path fill="none" stroke="#63b8ff" d="M179.4234,-274.9919C142.4373,-259.9169 80.1448,-226.7688 80.1448,-174.5 80.1448,-174.5 80.1448,-174.5 80.1448,-119.5 80.1448,-39.1911 201.8185,-17.4198 260.3736,-11.5923"/>
<polygon fill="#63b8ff" stroke="#63b8ff" points="260.8827,-15.0607 270.529,-10.6792 260.2557,-8.0888 260.8827,-15.0607"/>
</g>
<!-- Node18&#45;&gt;Node17 -->
<g id="edge26" class="edge">
<title>Node18&#45;&gt;Node17</title>
<path fill="none" stroke="#63b8ff" d="M176.6408,-274.9333C148.3037,-265.7398 104.29,-251.4465 66.1448,-239 64.7282,-238.5378 63.2729,-238.0625 61.8044,-237.5825"/>
<polygon fill="#63b8ff" stroke="#63b8ff" points="62.7868,-234.2214 52.1941,-234.4374 60.6095,-240.8742 62.7868,-234.2214"/>
</g>
<!-- Node19 -->
<g id="node19" class="node">
<title>Node19</title>
<g id="a_node19"><a xlink:title=" ">
<polygon fill="#e0e0e0" stroke="#999999" points="337.6448,-239 302.6448,-239 302.6448,-220 337.6448,-220 337.6448,-239"/>
<text text-anchor="middle" x="320.1448" y="-227" font-family="Helvetica,sans-Serif" font-size="10.00" fill="#000000">map</text>
</a>
</g>
</g>
<!-- Node18&#45;&gt;Node19 -->
<g id="edge27" class="edge">
<title>Node18&#45;&gt;Node19</title>
<path fill="none" stroke="#63b8ff" d="M226.0021,-274.9197C244.616,-265.9393 272.5901,-252.4431 293.21,-242.4949"/>
<polygon fill="#63b8ff" stroke="#63b8ff" points="294.9013,-245.565 302.387,-238.0673 291.8596,-239.2604 294.9013,-245.565"/>
</g>
<!-- Node20 -->
<g id="node20" class="node">
<title>Node20</title>
<g id="a_node20"><a xlink:title=" ">
<polygon fill="#e0e0e0" stroke="#999999" points="284.1448,-239 206.1448,-239 206.1448,-220 284.1448,-220 284.1448,-239"/>
<text text-anchor="middle" x="245.1448" y="-227" font-family="Helvetica,sans-Serif" font-size="10.00" fill="#000000">unordered_set</text>
</a>
</g>
</g>
<!-- Node18&#45;&gt;Node20 -->
<g id="edge28" class="edge">
<title>Node18&#45;&gt;Node20</title>
<path fill="none" stroke="#63b8ff" d="M212.9381,-274.9197C218.2412,-267.4409 225.7652,-256.8301 232.2074,-247.745"/>
<polygon fill="#63b8ff" stroke="#63b8ff" points="235.2375,-249.5227 238.1667,-239.3408 229.5273,-245.4737 235.2375,-249.5227"/>
</g>
<!-- Node21 -->
<g id="node21" class="node">
<title>Node21</title>
<g id="a_node21"><a xlink:title=" ">
<polygon fill="#e0e0e0" stroke="#999999" points="187.6448,-239 146.6448,-239 146.6448,-220 187.6448,-220 187.6448,-239"/>
<text text-anchor="middle" x="167.1448" y="-227" font-family="Helvetica,sans-Serif" font-size="10.00" fill="#000000">stack</text>
</a>
</g>
</g>
<!-- Node18&#45;&gt;Node21 -->
<g id="edge30" class="edge">
<title>Node18&#45;&gt;Node21</title>
<path fill="none" stroke="#63b8ff" d="M199.3515,-274.9197C194.0483,-267.4409 186.5243,-256.8301 180.0821,-247.745"/>
<polygon fill="#63b8ff" stroke="#63b8ff" points="182.7622,-245.4737 174.1228,-239.3408 177.0521,-249.5227 182.7622,-245.4737"/>
</g>
<!-- Node22&#45;&gt;Node4 -->
<g id="edge32" class="edge">
<title>Node22&#45;&gt;Node4</title>
<path fill="none" stroke="#63b8ff" d="M563.3266,-276.8026C595.5253,-268.3727 641.7331,-254.0386 652.1448,-239 670.8659,-211.9593 665.735,-194.9497 652.1448,-165 646.607,-152.7961 635.9994,-142.5785 625.8016,-134.9377"/>
<polygon fill="#63b8ff" stroke="#63b8ff" points="627.662,-131.9685 617.4521,-129.1385 623.6688,-137.7178 627.662,-131.9685"/>
</g>
<!-- Node23 -->
<g id="node23" class="node">
<title>Node23</title>
<g id="a_node23"><a xlink:href="../../d9/d49/types_8h.html" target="_top" xlink:title="This file contains a number of basic enums and types.">
<polygon fill="#ffffff" stroke="#666666" points="591.6448,-239 542.6448,-239 542.6448,-220 591.6448,-220 591.6448,-239"/>
<text text-anchor="middle" x="567.1448" y="-227" font-family="Helvetica,sans-Serif" font-size="10.00" fill="#000000">types.h</text>
</a>
</g>
</g>
<!-- Node22&#45;&gt;Node23 -->
<g id="edge33" class="edge">
<title>Node22&#45;&gt;Node23</title>
<path fill="none" stroke="#63b8ff" d="M537.4155,-274.9197C542.3107,-267.4409 549.256,-256.8301 555.2026,-247.745"/>
<polygon fill="#63b8ff" stroke="#63b8ff" points="558.1553,-249.6247 560.7035,-239.3408 552.2984,-245.791 558.1553,-249.6247"/>
</g>
<!-- Node24 -->
<g id="node24" class="node">
<title>Node24</title>
<g id="a_node24"><a xlink:href="../../d1/d02/reflist_8h.html" target="_top" xlink:title=" ">
<polygon fill="#ffffff" stroke="#666666" points="443.6448,-239 394.6448,-239 394.6448,-220 443.6448,-220 443.6448,-239"/>
<text text-anchor="middle" x="419.1448" y="-227" font-family="Helvetica,sans-Serif" font-size="10.00" fill="#000000">reflist.h</text>
</a>
</g>
</g>
<!-- Node22&#45;&gt;Node24 -->
<g id="edge35" class="edge">
<title>Node22&#45;&gt;Node24</title>
<path fill="none" stroke="#63b8ff" d="M511.6359,-274.9197C493.9977,-266.2581 467.8051,-253.3957 447.7913,-243.5675"/>
<polygon fill="#63b8ff" stroke="#63b8ff" points="449.3248,-240.4213 438.8059,-239.155 446.2392,-246.7046 449.3248,-240.4213"/>
</g>
<!-- Node23&#45;&gt;Node9 -->
<g id="edge34" class="edge">
<title>Node23&#45;&gt;Node9</title>
<path fill="none" stroke="#63b8ff" d="M542.2014,-226.0156C516.3556,-221.1042 476.5343,-209.6798 453.1448,-184 441.9801,-171.7421 437.3555,-153.2319 435.4506,-139.1801"/>
<polygon fill="#63b8ff" stroke="#63b8ff" points="438.9171,-138.6705 434.4331,-129.0713 431.9523,-139.3716 438.9171,-138.6705"/>
</g>
<!-- Node24&#45;&gt;Node2 -->
<g id="edge40" class="edge">
<title>Node24&#45;&gt;Node2</title>
<path fill="none" stroke="#63b8ff" d="M394.5405,-221.1467C368.0237,-212.1441 325.4991,-197.7067 294.7777,-187.2766"/>
<polygon fill="#63b8ff" stroke="#63b8ff" points="295.8475,-183.9437 285.2532,-184.043 293.5971,-190.5721 295.8475,-183.9437"/>
</g>
<!-- Node24&#45;&gt;Node3 -->
<g id="edge37" class="edge">
<title>Node24&#45;&gt;Node3</title>
<path fill="none" stroke="#63b8ff" d="M394.581,-225.8798C347.0156,-218.5783 244.2781,-201.3034 213.1448,-184 192.5234,-172.539 174.3464,-152.2162 162.8833,-137.4388"/>
<polygon fill="#63b8ff" stroke="#63b8ff" points="165.4359,-135.007 156.6517,-129.0833 159.8246,-139.1919 165.4359,-135.007"/>
</g>
<!-- Node24&#45;&gt;Node4 -->
<g id="edge36" class="edge">
<title>Node24&#45;&gt;Node4</title>
<path fill="none" stroke="#63b8ff" d="M443.8916,-224.1009C469.9692,-217.5904 511.4384,-204.8436 542.1448,-184 560.5427,-171.5114 577.0128,-151.9715 587.6583,-137.6691"/>
<polygon fill="#63b8ff" stroke="#63b8ff" points="590.7836,-139.3174 593.7745,-129.1534 585.0981,-135.2338 590.7836,-139.3174"/>
</g>
<!-- Node24&#45;&gt;Node5 -->
<g id="edge38" class="edge">
<title>Node24&#45;&gt;Node5</title>
<path fill="none" stroke="#63b8ff" d="M413.0215,-219.7382C401.4842,-201.3454 376.3622,-161.2959 361.6033,-137.7673"/>
<polygon fill="#63b8ff" stroke="#63b8ff" points="364.4347,-135.6943 356.1558,-129.0828 358.5047,-139.414 364.4347,-135.6943"/>
</g>
<!-- Node24&#45;&gt;Node9 -->
<g id="edge39" class="edge">
<title>Node24&#45;&gt;Node9</title>
<path fill="none" stroke="#63b8ff" d="M418.449,-219.8106C417.7309,-207.1275 417.0979,-184.247 420.1448,-165 421.5465,-156.1456 424.2737,-146.626 426.9516,-138.5946"/>
<polygon fill="#63b8ff" stroke="#63b8ff" points="430.2839,-139.6696 430.3278,-129.0748 423.6865,-137.3297 430.2839,-139.6696"/>
</g>
<!-- Node25&#45;&gt;Node4 -->
<g id="edge42" class="edge">
<title>Node25&#45;&gt;Node4</title>
<path fill="none" stroke="#63b8ff" d="M515.9118,-164.9197C531.7571,-156.3757 555.183,-143.7441 573.3106,-133.9694"/>
<polygon fill="#63b8ff" stroke="#63b8ff" points="575.0983,-136.9819 582.2391,-129.155 571.776,-130.8205 575.0983,-136.9819"/>
</g>
<!-- Node25&#45;&gt;Node9 -->
<g id="edge43" class="edge">
<title>Node25&#45;&gt;Node9</title>
<path fill="none" stroke="#63b8ff" d="M486.9968,-164.9197C477.7503,-156.9735 464.3895,-145.4916 453.4152,-136.0605"/>
<polygon fill="#63b8ff" stroke="#63b8ff" points="455.4613,-133.2041 445.5959,-129.3408 450.8989,-138.513 455.4613,-133.2041"/>
</g>
<!-- Node26&#45;&gt;Node4 -->
<g id="edge45" class="edge">
<title>Node26&#45;&gt;Node4</title>
<path fill="none" stroke="#63b8ff" d="M461.3508,-278.9421C508.5151,-271.8876 580.8134,-258.2739 600.1448,-239 626.2285,-212.9938 616.1335,-165.5842 607.4953,-138.9662"/>
<polygon fill="#63b8ff" stroke="#63b8ff" points="610.7067,-137.5461 604.1062,-129.2585 604.0979,-139.8533 610.7067,-137.5461"/>
</g>
<!-- Node26&#45;&gt;Node5 -->
<g id="edge47" class="edge">
<title>Node26&#45;&gt;Node5</title>
<path fill="none" stroke="#63b8ff" d="M410.1868,-274.7123C402.574,-265.935 391.8438,-252.4086 385.1448,-239 368.63,-205.9441 358.5653,-163.7557 353.6999,-139.3671"/>
<polygon fill="#63b8ff" stroke="#63b8ff" points="357.0784,-138.3977 351.7745,-129.226 350.2013,-139.7034 357.0784,-138.3977"/>
</g>
<!-- Node26&#45;&gt;Node19 -->
<g id="edge46" class="edge">
<title>Node26&#45;&gt;Node19</title>
<path fill="none" stroke="#63b8ff" d="M401.9003,-274.9197C386.6622,-266.4541 364.2008,-253.9755 346.6752,-244.2391"/>
<polygon fill="#63b8ff" stroke="#63b8ff" points="347.9652,-240.9519 337.5238,-239.155 344.5656,-247.0711 347.9652,-240.9519"/>
</g>
<!-- Node26&#45;&gt;Node23 -->
<g id="edge48" class="edge">
<title>Node26&#45;&gt;Node23</title>
<path fill="none" stroke="#63b8ff" d="M444.9244,-274.9197C469.4128,-265.8193 506.3797,-252.0816 533.2446,-242.098"/>
<polygon fill="#63b8ff" stroke="#63b8ff" points="534.4889,-245.3696 542.6433,-238.6053 532.0504,-238.808 534.4889,-245.3696"/>
</g>
<!-- Node26&#45;&gt;Node24 -->
<g id="edge49" class="edge">
<title>Node26&#45;&gt;Node24</title>
<path fill="none" stroke="#63b8ff" d="M419.1448,-274.9197C419.1448,-267.9083 419.1448,-258.1442 419.1448,-249.4652"/>
<polygon fill="#63b8ff" stroke="#63b8ff" points="422.6449,-249.3408 419.1448,-239.3408 415.6449,-249.3409 422.6449,-249.3408"/>
</g>
</g>
</svg>
