<?xml version="1.0" encoding="UTF-8" standalone="no"?>
<!DOCTYPE svg PUBLIC "-//W3C//DTD SVG 1.1//EN"
 "http://www.w3.org/Graphics/SVG/1.1/DTD/svg11.dtd">
<!-- Generated by graphviz version 2.40.1 (20161225.0304)
 -->
<!-- Title: ClassHierarchyContext::Private Pages: 1 -->
<svg width="752pt" height="229pt"
 viewBox="0.00 0.00 752.00 229.00" xmlns="http://www.w3.org/2000/svg" xmlns:xlink="http://www.w3.org/1999/xlink">
<g id="graph0" class="graph" transform="scale(1 1) rotate(0) translate(4 225)">
<title>ClassHierarchyContext::Private</title>
<!-- Node1 -->
<g id="node1" class="node">
<title>Node1</title>
<g id="a_node1"><a xlink:title=" ">
<polygon fill="#999999" stroke="#666666" points="744,-120.5 625,-120.5 625,-90.5 744,-90.5 744,-120.5"/>
<text text-anchor="start" x="633" y="-108.5" font-family="Helvetica,sans-Serif" font-size="10.00" fill="#000000">ClassHierarchyContext</text>
<text text-anchor="middle" x="684.5" y="-97.5" font-family="Helvetica,sans-Serif" font-size="10.00" fill="#000000">::Private</text>
</a>
</g>
</g>
<!-- Node2 -->
<g id="node2" class="node">
<title>Node2</title>
<g id="a_node2"><a xlink:href="../../d7/dc1/class_cached_item.html" target="_top" xlink:title=" ">
<polygon fill="#ffffff" stroke="#666666" points="501,-221 338,-221 338,-180 501,-180 501,-221"/>
<text text-anchor="start" x="346" y="-209" font-family="Helvetica,sans-Serif" font-size="10.00" fill="#000000">CachedItem&lt; int, ClassHierarchy</text>
<text text-anchor="start" x="346" y="-198" font-family="Helvetica,sans-Serif" font-size="10.00" fill="#000000">Context::Private, &amp;Private</text>
<text text-anchor="middle" x="419.5" y="-187" font-family="Helvetica,sans-Serif" font-size="10.00" fill="#000000">::createMaxDepth &gt;</text>
</a>
</g>
</g>
<!-- Node2&#45;&gt;Node1 -->
<g id="edge1" class="edge">
<title>Node2&#45;&gt;Node1</title>
<path fill="none" stroke="#9a32cd" stroke-dasharray="5,2" d="M501.99,-177.0753C534.98,-167.0527 573.1176,-154.6362 607,-141.5 622.9073,-135.3327 640.1622,-127.4417 654.3439,-120.6201"/>
<polygon fill="#9a32cd" stroke="#9a32cd" points="500.9444,-173.7348 492.3799,-179.9718 502.9645,-180.437 500.9444,-173.7348"/>
<text text-anchor="middle" x="566" y="-172.5" font-family="Helvetica,sans-Serif" font-size="10.00" fill="#000000"> m_maxDepth</text>
</g>
<!-- Node3 -->
<g id="node3" class="node">
<title>Node3</title>
<g id="a_node3"><a xlink:href="../../d7/dc1/class_cached_item.html" target="_top" xlink:title="Wrapper for data that needs to be cached.">
<polygon fill="#ffffff" stroke="#666666" points="128,-159.5 0,-159.5 0,-129.5 128,-129.5 128,-159.5"/>
<text text-anchor="start" x="8" y="-147.5" font-family="Helvetica,sans-Serif" font-size="10.00" fill="#000000">CachedItem&lt; T, TOwner,</text>
<text text-anchor="middle" x="64" y="-136.5" font-family="Helvetica,sans-Serif" font-size="10.00" fill="#000000"> creator &gt;</text>
</a>
</g>
</g>
<!-- Node3&#45;&gt;Node2 -->
<g id="edge2" class="edge">
<title>Node3&#45;&gt;Node2</title>
<path fill="none" stroke="#ffa500" stroke-dasharray="5,2" d="M103.3008,-163.7204C116.5669,-169.4112 131.6538,-175.04 146,-178.5 209.3265,-193.7732 283.0402,-199.0068 337.9737,-200.5685"/>
<polygon fill="#ffa500" stroke="#ffa500" points="104.5598,-160.45 93.9994,-159.5957 101.7221,-166.849 104.5598,-160.45"/>
<text text-anchor="start" x="146" y="-212.5" font-family="Helvetica,sans-Serif" font-size="10.00" fill="#000000"> &lt; int, ClassHierarchyContext</text>
<text text-anchor="middle" x="230" y="-201.5" font-family="Helvetica,sans-Serif" font-size="10.00" fill="#000000">::Private, &amp;Private::createMaxDepth &gt;</text>
</g>
<!-- Node4 -->
<g id="node4" class="node">
<title>Node4</title>
<g id="a_node4"><a xlink:href="../../d7/dc1/class_cached_item.html" target="_top" xlink:title=" ">
<polygon fill="#ffffff" stroke="#666666" points="501,-162 338,-162 338,-121 501,-121 501,-162"/>
<text text-anchor="start" x="346" y="-150" font-family="Helvetica,sans-Serif" font-size="10.00" fill="#000000">CachedItem&lt; int, ClassHierarchy</text>
<text text-anchor="start" x="346" y="-139" font-family="Helvetica,sans-Serif" font-size="10.00" fill="#000000">Context::Private, &amp;Private</text>
<text text-anchor="middle" x="419.5" y="-128" font-family="Helvetica,sans-Serif" font-size="10.00" fill="#000000">::createPreferredDepth &gt;</text>
</a>
</g>
</g>
<!-- Node3&#45;&gt;Node4 -->
<g id="edge4" class="edge">
<title>Node3&#45;&gt;Node4</title>
<path fill="none" stroke="#ffa500" stroke-dasharray="5,2" d="M138.6205,-143.8703C196.8916,-143.3786 277.7695,-142.696 337.7799,-142.1896"/>
<polygon fill="#ffa500" stroke="#ffa500" points="138.3484,-140.3724 128.3784,-143.9567 138.4076,-147.3721 138.3484,-140.3724"/>
<text text-anchor="start" x="153" y="-168.5" font-family="Helvetica,sans-Serif" font-size="10.00" fill="#000000"> &lt; int, ClassHierarchyContext</text>
<text text-anchor="start" x="153" y="-157.5" font-family="Helvetica,sans-Serif" font-size="10.00" fill="#000000">::Private, &amp;Private::createPreferred</text>
<text text-anchor="middle" x="230" y="-146.5" font-family="Helvetica,sans-Serif" font-size="10.00" fill="#000000">Depth &gt;</text>
</g>
<!-- Node5 -->
<g id="node5" class="node">
<title>Node5</title>
<g id="a_node5"><a xlink:href="../../d7/dc1/class_cached_item.html" target="_top" xlink:title=" ">
<polygon fill="#ffffff" stroke="#666666" points="507,-103 332,-103 332,-62 507,-62 507,-103"/>
<text text-anchor="start" x="340" y="-91" font-family="Helvetica,sans-Serif" font-size="10.00" fill="#000000">CachedItem&lt; TemplateVariant,</text>
<text text-anchor="start" x="340" y="-80" font-family="Helvetica,sans-Serif" font-size="10.00" fill="#000000"> ClassHierarchyContext::</text>
<text text-anchor="middle" x="419.5" y="-69" font-family="Helvetica,sans-Serif" font-size="10.00" fill="#000000">Private, &amp;Private::createDiagrams &gt;</text>
</a>
</g>
</g>
<!-- Node3&#45;&gt;Node5 -->
<g id="edge7" class="edge">
<title>Node3&#45;&gt;Node5</title>
<path fill="none" stroke="#ffa500" stroke-dasharray="5,2" d="M97.8745,-124.436C112.2378,-116.8796 129.4567,-109.0261 146,-104.5 206.6506,-87.9066 277.4705,-82.576 331.8474,-81.3052"/>
<polygon fill="#ffa500" stroke="#ffa500" points="95.9999,-121.4712 88.884,-129.3207 99.3418,-127.622 95.9999,-121.4712"/>
<text text-anchor="start" x="147.5" y="-129.5" font-family="Helvetica,sans-Serif" font-size="10.00" fill="#000000"> &lt; TemplateVariant,</text>
<text text-anchor="start" x="147.5" y="-118.5" font-family="Helvetica,sans-Serif" font-size="10.00" fill="#000000"> ClassHierarchyContext</text>
<text text-anchor="middle" x="230" y="-107.5" font-family="Helvetica,sans-Serif" font-size="10.00" fill="#000000">::Private, &amp;Private::createDiagrams &gt;</text>
</g>
<!-- Node4&#45;&gt;Node1 -->
<g id="edge3" class="edge">
<title>Node4&#45;&gt;Node1</title>
<path fill="none" stroke="#9a32cd" stroke-dasharray="5,2" d="M511.1509,-129.0493C548.8517,-123.9277 591.4429,-118.1417 624.9734,-113.5866"/>
<polygon fill="#9a32cd" stroke="#9a32cd" points="510.6089,-125.5907 501.1711,-130.4051 511.5512,-132.527 510.6089,-125.5907"/>
<text text-anchor="middle" x="566" y="-129.5" font-family="Helvetica,sans-Serif" font-size="10.00" fill="#000000"> m_preferredDepth</text>
</g>
<!-- Node5&#45;&gt;Node1 -->
<g id="edge5" class="edge">
<title>Node5&#45;&gt;Node1</title>
<path fill="none" stroke="#9a32cd" stroke-dasharray="5,2" d="M517.0737,-90.9687C553.1551,-94.1003 592.9575,-97.5548 624.6984,-100.3097"/>
<polygon fill="#9a32cd" stroke="#9a32cd" points="517.2706,-87.4727 507.0053,-90.0948 516.6652,-94.4465 517.2706,-87.4727"/>
<text text-anchor="middle" x="566" y="-101.5" font-family="Helvetica,sans-Serif" font-size="10.00" fill="#000000"> m_diagrams</text>
</g>
<!-- Node6 -->
<g id="node6" class="node">
<title>Node6</title>
<g id="a_node6"><a xlink:href="../../d1/dba/class_template_variant.html" target="_top" xlink:title="Variant type which can hold one value of a fixed set of types.">
<polygon fill="#ffffff" stroke="#666666" points="108,-64 20,-64 20,-45 108,-45 108,-64"/>
<text text-anchor="middle" x="64" y="-52" font-family="Helvetica,sans-Serif" font-size="10.00" fill="#000000">TemplateVariant</text>
</a>
</g>
</g>
<!-- Node6&#45;&gt;Node5 -->
<g id="edge6" class="edge">
<title>Node6&#45;&gt;Node5</title>
<path fill="none" stroke="#9a32cd" stroke-dasharray="5,2" d="M118.1209,-50.8933C168.9277,-48.4099 246.9384,-46.9185 314,-55.5 325.5333,-56.9759 337.6139,-59.3009 349.3132,-61.9818"/>
<polygon fill="#9a32cd" stroke="#9a32cd" points="117.825,-47.4039 108.02,-51.4178 118.188,-54.3945 117.825,-47.4039"/>
<text text-anchor="middle" x="230" y="-58.5" font-family="Helvetica,sans-Serif" font-size="10.00" fill="#000000"> m_item</text>
</g>
<!-- Node7 -->
<g id="node7" class="node">
<title>Node7</title>
<g id="a_node7"><a xlink:href="../../d5/dbf/class_property_map.html" target="_top" xlink:title=" ">
<polygon fill="#ffffff" stroke="#666666" points="494,-34.5 345,-34.5 345,-4.5 494,-4.5 494,-34.5"/>
<text text-anchor="start" x="353" y="-22.5" font-family="Helvetica,sans-Serif" font-size="10.00" fill="#000000">PropertyMap&lt; ClassHierarchy</text>
<text text-anchor="middle" x="419.5" y="-11.5" font-family="Helvetica,sans-Serif" font-size="10.00" fill="#000000">Context::Private &gt;</text>
</a>
</g>
</g>
<!-- Node7&#45;&gt;Node1 -->
<g id="edge8" class="edge">
<title>Node7&#45;&gt;Node1</title>
<path fill="none" stroke="#9a32cd" stroke-dasharray="5,2" d="M482.3412,-37.5293C518.9004,-48.2855 565.7626,-62.532 607,-76.5 619.6542,-80.7862 633.3422,-85.7855 645.6429,-90.414"/>
<polygon fill="#9a32cd" stroke="#9a32cd" points="482.8968,-34.045 472.316,-34.5912 480.928,-40.7624 482.8968,-34.045"/>
<text text-anchor="middle" x="566" y="-79.5" font-family="Helvetica,sans-Serif" font-size="10.00" fill="#000000"> s_inst</text>
</g>
<!-- Node8 -->
<g id="node8" class="node">
<title>Node8</title>
<g id="a_node8"><a xlink:href="../../d5/dbf/class_property_map.html" target="_top" xlink:title="Class representing a mapping of properties and the corresponding getter function.">
<polygon fill="#ffffff" stroke="#666666" points="112,-19 16,-19 16,0 112,0 112,-19"/>
<text text-anchor="middle" x="64" y="-7" font-family="Helvetica,sans-Serif" font-size="10.00" fill="#000000">PropertyMap&lt; T &gt;</text>
</a>
</g>
</g>
<!-- Node8&#45;&gt;Node7 -->
<g id="edge9" class="edge">
<title>Node8&#45;&gt;Node7</title>
<path fill="none" stroke="#ffa500" stroke-dasharray="5,2" d="M122.5362,-8.3947C173.2217,-7.7579 248.4869,-7.5794 314,-10.5 324.0085,-10.9462 334.5371,-11.6103 344.9107,-12.3793"/>
<polygon fill="#ffa500" stroke="#ffa500" points="122.3733,-4.8965 112.4217,-8.532 122.4683,-11.8959 122.3733,-4.8965"/>
<text text-anchor="start" x="172.5" y="-24.5" font-family="Helvetica,sans-Serif" font-size="10.00" fill="#000000"> &lt; ClassHierarchyContext</text>
<text text-anchor="middle" x="230" y="-13.5" font-family="Helvetica,sans-Serif" font-size="10.00" fill="#000000">::Private &gt;</text>
</g>
</g>
</svg>
