<?xml version="1.0" encoding="UTF-8" standalone="no"?>
<!DOCTYPE svg PUBLIC "-//W3C//DTD SVG 1.1//EN"
 "http://www.w3.org/Graphics/SVG/1.1/DTD/svg11.dtd">
<!-- Generated by graphviz version 2.40.1 (20161225.0304)
 -->
<!-- Title: TemplateNodeSpaceless Pages: 1 -->
<svg width="258pt" height="216pt"
 viewBox="0.00 0.00 258.00 216.00" xmlns="http://www.w3.org/2000/svg" xmlns:xlink="http://www.w3.org/1999/xlink">
<g id="graph0" class="graph" transform="scale(1 1) rotate(0) translate(4 212)">
<title>TemplateNodeSpaceless</title>
<!-- Node1 -->
<g id="node1" class="node">
<title>Node1</title>
<g id="a_node1"><a xlink:title="Class representing an &#39;spaceless&#39; tag in a template.">
<polygon fill="#999999" stroke="#666666" points="135,-19 9,-19 9,0 135,0 135,-19"/>
<text text-anchor="middle" x="72" y="-7" font-family="Helvetica,sans-Serif" font-size="10.00" fill="#000000">TemplateNodeSpaceless</text>
</a>
</g>
</g>
<!-- Node2 -->
<g id="node2" class="node">
<title>Node2</title>
<g id="a_node2"><a xlink:href="../../d8/d78/class_template_node_creator.html" target="_top" xlink:title=" ">
<polygon fill="#ffffff" stroke="#666666" points="144,-86 0,-86 0,-56 144,-56 144,-86"/>
<text text-anchor="start" x="8" y="-74" font-family="Helvetica,sans-Serif" font-size="10.00" fill="#000000">TemplateNodeCreator</text>
<text text-anchor="middle" x="72" y="-63" font-family="Helvetica,sans-Serif" font-size="10.00" fill="#000000">&lt; TemplateNodeSpaceless &gt;</text>
</a>
</g>
</g>
<!-- Node2&#45;&gt;Node1 -->
<g id="edge1" class="edge">
<title>Node2&#45;&gt;Node1</title>
<path fill="none" stroke="#63b8ff" d="M72,-45.7849C72,-36.4858 72,-26.4883 72,-19.3469"/>
<polygon fill="#63b8ff" stroke="#63b8ff" points="68.5001,-45.7977 72,-55.7977 75.5001,-45.7978 68.5001,-45.7977"/>
</g>
<!-- Node3 -->
<g id="node3" class="node">
<title>Node3</title>
<g id="a_node3"><a xlink:href="../../d6/d53/class_template_node.html" target="_top" xlink:title="Base class of all nodes in a template&#39;s AST.">
<polygon fill="#ffffff" stroke="#666666" points="108,-208 28,-208 28,-189 108,-189 108,-208"/>
<text text-anchor="middle" x="68" y="-196" font-family="Helvetica,sans-Serif" font-size="10.00" fill="#000000">TemplateNode</text>
</a>
</g>
</g>
<!-- Node3&#45;&gt;Node2 -->
<g id="edge2" class="edge">
<title>Node3&#45;&gt;Node2</title>
<path fill="none" stroke="#63b8ff" d="M68.6249,-178.5805C69.4282,-152.9776 70.805,-109.092 71.5268,-86.0833"/>
<polygon fill="#63b8ff" stroke="#63b8ff" points="65.116,-178.8119 68.3007,-188.9168 72.1126,-179.0315 65.116,-178.8119"/>
</g>
<!-- Node4 -->
<g id="node4" class="node">
<title>Node4</title>
<g id="a_node4"><a xlink:href="../../d8/d78/class_template_node_creator.html" target="_top" xlink:title="Helper class for creating template AST tag nodes and returning the template for a given node.">
<polygon fill="#ffffff" stroke="#666666" points="221.5,-152 84.5,-152 84.5,-133 221.5,-133 221.5,-152"/>
<text text-anchor="middle" x="153" y="-140" font-family="Helvetica,sans-Serif" font-size="10.00" fill="#000000">TemplateNodeCreator&lt; T &gt;</text>
</a>
</g>
</g>
<!-- Node3&#45;&gt;Node4 -->
<g id="edge4" class="edge">
<title>Node3&#45;&gt;Node4</title>
<path fill="none" stroke="#63b8ff" d="M91.5419,-182.99C106.539,-173.1096 125.4973,-160.6194 138.3638,-152.1427"/>
<polygon fill="#63b8ff" stroke="#63b8ff" points="89.2309,-180.3212 82.8059,-188.7455 93.0821,-186.1666 89.2309,-180.3212"/>
</g>
<!-- Node4&#45;&gt;Node2 -->
<g id="edge3" class="edge">
<title>Node4&#45;&gt;Node2</title>
<path fill="none" stroke="#ffa500" stroke-dasharray="5,2" d="M134.309,-126.0012C120.7283,-114.0133 102.4853,-97.9099 89.2508,-86.2276"/>
<polygon fill="#ffa500" stroke="#ffa500" points="132.2627,-128.8634 142.076,-132.8572 136.8952,-123.6154 132.2627,-128.8634"/>
<text text-anchor="middle" x="184.5" y="-107" font-family="Helvetica,sans-Serif" font-size="10.00" fill="#000000"> &lt; TemplateNodeSpaceless &gt;</text>
</g>
</g>
</svg>
