<?xml version="1.0" encoding="UTF-8" standalone="no"?>
<!DOCTYPE svg PUBLIC "-//W3C//DTD SVG 1.1//EN"
 "http://www.w3.org/Graphics/SVG/1.1/DTD/svg11.dtd">
<!-- Generated by graphviz version 2.40.1 (20161225.0304)
 -->
<!-- Title: TranslatorCzech Pages: 1 -->
<svg width="175pt" height="261pt"
 viewBox="0.00 0.00 174.50 261.00" xmlns="http://www.w3.org/2000/svg" xmlns:xlink="http://www.w3.org/1999/xlink">
<g id="graph0" class="graph" transform="scale(1 1) rotate(0) translate(4 257)">
<title>TranslatorCzech</title>
<!-- Node1 -->
<g id="node1" class="node">
<title>Node1</title>
<g id="a_node1"><a xlink:title=" ">
<polygon fill="#999999" stroke="#666666" points="107,-19 18,-19 18,0 107,0 107,-19"/>
<text text-anchor="middle" x="62.5" y="-7" font-family="Helvetica,sans-Serif" font-size="10.00" fill="#000000">TranslatorCzech</text>
</a>
</g>
</g>
<!-- Node2 -->
<g id="node2" class="node">
<title>Node2</title>
<g id="a_node2"><a xlink:href="../../d0/d33/class_translator_adapter__1__9__4.html" target="_top" xlink:title=" ">
<polygon fill="#ffffff" stroke="#666666" points="125,-75 0,-75 0,-56 125,-56 125,-75"/>
<text text-anchor="middle" x="62.5" y="-63" font-family="Helvetica,sans-Serif" font-size="10.00" fill="#000000">TranslatorAdapter_1_9_4</text>
</a>
</g>
</g>
<!-- Node2&#45;&gt;Node1 -->
<g id="edge1" class="edge">
<title>Node2&#45;&gt;Node1</title>
<path fill="none" stroke="#63b8ff" d="M62.5,-45.6575C62.5,-36.655 62.5,-26.4199 62.5,-19.1427"/>
<polygon fill="#63b8ff" stroke="#63b8ff" points="59.0001,-45.7455 62.5,-55.7455 66.0001,-45.7456 59.0001,-45.7455"/>
</g>
<!-- Node3 -->
<g id="node3" class="node">
<title>Node3</title>
<g id="a_node3"><a xlink:href="../../db/d6c/class_translator_adapter_base.html" target="_top" xlink:title="Base of the translator adapter tree.">
<polygon fill="#ffffff" stroke="#666666" points="120.5,-131 4.5,-131 4.5,-112 120.5,-112 120.5,-131"/>
<text text-anchor="middle" x="62.5" y="-119" font-family="Helvetica,sans-Serif" font-size="10.00" fill="#000000">TranslatorAdapterBase</text>
</a>
</g>
</g>
<!-- Node3&#45;&gt;Node2 -->
<g id="edge2" class="edge">
<title>Node3&#45;&gt;Node2</title>
<path fill="none" stroke="#63b8ff" d="M62.5,-101.6575C62.5,-92.655 62.5,-82.4199 62.5,-75.1427"/>
<polygon fill="#63b8ff" stroke="#63b8ff" points="59.0001,-101.7455 62.5,-111.7455 66.0001,-101.7456 59.0001,-101.7455"/>
</g>
<!-- Node4 -->
<g id="node4" class="node">
<title>Node4</title>
<g id="a_node4"><a xlink:href="../../d8/dfb/class_translator.html" target="_top" xlink:title="Abstract base class for all translatable text fragments.">
<polygon fill="#ffffff" stroke="#666666" points="88.5,-253 28.5,-253 28.5,-234 88.5,-234 88.5,-253"/>
<text text-anchor="middle" x="58.5" y="-241" font-family="Helvetica,sans-Serif" font-size="10.00" fill="#000000">Translator</text>
</a>
</g>
</g>
<!-- Node4&#45;&gt;Node3 -->
<g id="edge3" class="edge">
<title>Node4&#45;&gt;Node3</title>
<path fill="none" stroke="#63b8ff" d="M59.1429,-223.8912C60.0138,-197.3282 61.5346,-150.9446 62.1876,-131.0287"/>
<polygon fill="#63b8ff" stroke="#63b8ff" points="55.6435,-223.8175 58.8139,-233.9269 62.6398,-224.047 55.6435,-223.8175"/>
</g>
<!-- Node5 -->
<g id="node5" class="node">
<title>Node5</title>
<g id="a_node5"><a xlink:href="../../d6/d78/class_translator_english.html" target="_top" xlink:title=" ">
<polygon fill="#ffffff" stroke="#666666" points="166.5,-197 74.5,-197 74.5,-178 166.5,-178 166.5,-197"/>
<text text-anchor="middle" x="120.5" y="-185" font-family="Helvetica,sans-Serif" font-size="10.00" fill="#000000">TranslatorEnglish</text>
</a>
</g>
</g>
<!-- Node4&#45;&gt;Node5 -->
<g id="edge5" class="edge">
<title>Node4&#45;&gt;Node5</title>
<path fill="none" stroke="#63b8ff" d="M76.9221,-226.8607C87.6481,-217.1727 100.7934,-205.2995 109.8242,-197.1427"/>
<polygon fill="#63b8ff" stroke="#63b8ff" points="74.3746,-224.4453 69.2996,-233.7455 79.0666,-229.64 74.3746,-224.4453"/>
</g>
<!-- Node5&#45;&gt;Node3 -->
<g id="edge4" class="edge">
<title>Node5&#45;&gt;Node3</title>
<path fill="none" stroke="#9a32cd" stroke-dasharray="5,2" d="M105.0413,-169.909C94.1669,-157.5347 80.0167,-141.4328 71.0932,-131.2785"/>
<polygon fill="#9a32cd" stroke="#9a32cd" points="102.7116,-172.5602 111.9419,-177.7615 107.9698,-167.9394 102.7116,-172.5602"/>
<text text-anchor="middle" x="111.5" y="-152" font-family="Helvetica,sans-Serif" font-size="10.00" fill="#000000"> english</text>
</g>
</g>
</svg>
