<?xml version="1.0" encoding="UTF-8" standalone="no"?>
<!DOCTYPE svg PUBLIC "-//W3C//DTD SVG 1.1//EN"
 "http://www.w3.org/Graphics/SVG/1.1/DTD/svg11.dtd">
<!-- Generated by graphviz version 2.40.1 (20161225.0304)
 -->
<!-- Title: libxml/xml.h Pages: 1 -->
<svg width="280pt" height="82pt"
 viewBox="0.00 0.00 280.00 82.00" xmlns="http://www.w3.org/2000/svg" xmlns:xlink="http://www.w3.org/1999/xlink">
<g id="graph0" class="graph" transform="scale(1 1) rotate(0) translate(4 78)">
<title>libxml/xml.h</title>
<!-- Node1 -->
<g id="node1" class="node">
<title>Node1</title>
<g id="a_node1"><a xlink:title=" ">
<polygon fill="#999999" stroke="#666666" points="157.5,-74 88.5,-74 88.5,-55 157.5,-55 157.5,-74"/>
<text text-anchor="middle" x="123" y="-62" font-family="Helvetica,sans-Serif" font-size="10.00" fill="#000000">libxml/xml.h</text>
</a>
</g>
</g>
<!-- Node2 -->
<g id="node2" class="node">
<title>Node2</title>
<g id="a_node2"><a xlink:href="../../dc/d30/xml_8l.html" target="_top" xlink:title=" ">
<polygon fill="#ffffff" stroke="#666666" points="66,-19 0,-19 0,0 66,0 66,-19"/>
<text text-anchor="middle" x="33" y="-7" font-family="Helvetica,sans-Serif" font-size="10.00" fill="#000000">libxml/xml.l</text>
</a>
</g>
</g>
<!-- Node1&#45;&gt;Node2 -->
<g id="edge1" class="edge">
<title>Node1&#45;&gt;Node2</title>
<path fill="none" stroke="#63b8ff" d="M98.5788,-49.5759C82.7383,-39.8956 62.5618,-27.5656 48.7991,-19.155"/>
<polygon fill="#63b8ff" stroke="#63b8ff" points="96.9653,-52.6917 107.3232,-54.9197 100.6155,-46.7187 96.9653,-52.6917"/>
</g>
<!-- Node3 -->
<g id="node3" class="node">
<title>Node3</title>
<g id="a_node3"><a xlink:href="../../db/d16/layout_8cpp.html" target="_top" xlink:title=" ">
<polygon fill="#ffffff" stroke="#666666" points="162,-19 84,-19 84,0 162,0 162,-19"/>
<text text-anchor="middle" x="123" y="-7" font-family="Helvetica,sans-Serif" font-size="10.00" fill="#000000">src/layout.cpp</text>
</a>
</g>
</g>
<!-- Node1&#45;&gt;Node3 -->
<g id="edge2" class="edge">
<title>Node1&#45;&gt;Node3</title>
<path fill="none" stroke="#63b8ff" d="M123,-44.8553C123,-36.2036 123,-26.4195 123,-19.3408"/>
<polygon fill="#63b8ff" stroke="#63b8ff" points="119.5001,-44.9197 123,-54.9197 126.5001,-44.9198 119.5001,-44.9197"/>
</g>
<!-- Node4 -->
<g id="node4" class="node">
<title>Node4</title>
<g id="a_node4"><a xlink:href="../../d4/d7b/tagreader_8cpp.html" target="_top" xlink:title=" ">
<polygon fill="#ffffff" stroke="#666666" points="272,-19 180,-19 180,0 272,0 272,-19"/>
<text text-anchor="middle" x="226" y="-7" font-family="Helvetica,sans-Serif" font-size="10.00" fill="#000000">src/tagreader.cpp</text>
</a>
</g>
</g>
<!-- Node1&#45;&gt;Node4 -->
<g id="edge3" class="edge">
<title>Node1&#45;&gt;Node4</title>
<path fill="none" stroke="#63b8ff" d="M149.9374,-50.1159C168.2116,-40.3579 191.8737,-27.7228 207.9188,-19.155"/>
<polygon fill="#63b8ff" stroke="#63b8ff" points="148.1138,-47.1219 140.9412,-54.9197 151.411,-53.2968 148.1138,-47.1219"/>
</g>
</g>
</svg>
