<?xml version="1.0" encoding="UTF-8" standalone="no"?>
<!DOCTYPE svg PUBLIC "-//W3C//DTD SVG 1.1//EN"
 "http://www.w3.org/Graphics/SVG/1.1/DTD/svg11.dtd">
<!-- Generated by graphviz version 2.40.1 (20161225.0304)
 -->
<!-- Title: src/textstream.h Pages: 1 -->
<svg width="554pt" height="192pt"
 viewBox="0.00 0.00 554.47 192.00" xmlns="http://www.w3.org/2000/svg" xmlns:xlink="http://www.w3.org/1999/xlink">
<g id="graph0" class="graph" transform="scale(1 1) rotate(0) translate(4 188)">
<title>src/textstream.h</title>
<!-- Node1 -->
<g id="node1" class="node">
<title>Node1</title>
<g id="a_node1"><a xlink:title=" ">
<polygon fill="#999999" stroke="#666666" points="263.4641,-184 175.4641,-184 175.4641,-165 263.4641,-165 263.4641,-184"/>
<text text-anchor="middle" x="219.4641" y="-172" font-family="Helvetica,sans-Serif" font-size="10.00" fill="#000000">src/textstream.h</text>
</a>
</g>
</g>
<!-- Node2 -->
<g id="node2" class="node">
<title>Node2</title>
<g id="a_node2"><a xlink:title=" ">
<polygon fill="#e0e0e0" stroke="#999999" points="109.9641,-19 68.9641,-19 68.9641,0 109.9641,0 109.9641,-19"/>
<text text-anchor="middle" x="89.4641" y="-7" font-family="Helvetica,sans-Serif" font-size="10.00" fill="#000000">string</text>
</a>
</g>
</g>
<!-- Node1&#45;&gt;Node2 -->
<g id="edge1" class="edge">
<title>Node1&#45;&gt;Node2</title>
<path fill="none" stroke="#63b8ff" d="M175.1354,-168.731C126.0095,-161.5195 50.8739,-147.7989 29.4641,-129 3.7742,-106.443 -8.804,-84.506 8.4641,-55 19.3249,-36.4422 40.8399,-24.8736 58.9675,-18.0475"/>
<polygon fill="#63b8ff" stroke="#63b8ff" points="60.286,-21.2952 68.6007,-14.7288 58.006,-14.6769 60.286,-21.2952"/>
</g>
<!-- Node3 -->
<g id="node3" class="node">
<title>Node3</title>
<g id="a_node3"><a xlink:title=" ">
<polygon fill="#e0e0e0" stroke="#999999" points="92.4641,-129 38.4641,-129 38.4641,-110 92.4641,-110 92.4641,-129"/>
<text text-anchor="middle" x="65.4641" y="-117" font-family="Helvetica,sans-Serif" font-size="10.00" fill="#000000">iostream</text>
</a>
</g>
</g>
<!-- Node1&#45;&gt;Node3 -->
<g id="edge2" class="edge">
<title>Node1&#45;&gt;Node3</title>
<path fill="none" stroke="#63b8ff" d="M192.6393,-164.9197C167.542,-155.9564 129.8483,-142.4944 102.0087,-132.5516"/>
<polygon fill="#63b8ff" stroke="#63b8ff" points="102.834,-129.1299 92.2394,-129.0626 100.4796,-135.7221 102.834,-129.1299"/>
</g>
<!-- Node4 -->
<g id="node4" class="node">
<title>Node4</title>
<g id="a_node4"><a xlink:title=" ">
<polygon fill="#e0e0e0" stroke="#999999" points="162.4641,-129 110.4641,-129 110.4641,-110 162.4641,-110 162.4641,-129"/>
<text text-anchor="middle" x="136.4641" y="-117" font-family="Helvetica,sans-Serif" font-size="10.00" fill="#000000">sstream</text>
</a>
</g>
</g>
<!-- Node1&#45;&gt;Node4 -->
<g id="edge3" class="edge">
<title>Node1&#45;&gt;Node4</title>
<path fill="none" stroke="#63b8ff" d="M205.0066,-164.9197C192.4678,-156.6109 174.0953,-144.4363 159.5273,-134.7828"/>
<polygon fill="#63b8ff" stroke="#63b8ff" points="161.3037,-131.7613 151.0344,-129.155 157.437,-137.5964 161.3037,-131.7613"/>
</g>
<!-- Node5 -->
<g id="node5" class="node">
<title>Node5</title>
<g id="a_node5"><a xlink:title=" ">
<polygon fill="#e0e0e0" stroke="#999999" points="472.4641,-19 426.4641,-19 426.4641,0 472.4641,0 472.4641,-19"/>
<text text-anchor="middle" x="449.4641" y="-7" font-family="Helvetica,sans-Serif" font-size="10.00" fill="#000000">cstdint</text>
</a>
</g>
</g>
<!-- Node1&#45;&gt;Node5 -->
<g id="edge4" class="edge">
<title>Node1&#45;&gt;Node5</title>
<path fill="none" stroke="#63b8ff" d="M263.4724,-167.9741C344.7836,-154.8464 512.977,-122.3113 542.4641,-74 559.3946,-46.2611 515.6317,-27.4424 482.5316,-17.5959"/>
<polygon fill="#63b8ff" stroke="#63b8ff" points="483.2544,-14.1635 472.6805,-14.8282 481.361,-20.9026 483.2544,-14.1635"/>
</g>
<!-- Node6 -->
<g id="node6" class="node">
<title>Node6</title>
<g id="a_node6"><a xlink:title=" ">
<polygon fill="#e0e0e0" stroke="#999999" points="60.9641,-74 17.9641,-74 17.9641,-55 60.9641,-55 60.9641,-74"/>
<text text-anchor="middle" x="39.4641" y="-62" font-family="Helvetica,sans-Serif" font-size="10.00" fill="#000000">cstdio</text>
</a>
</g>
</g>
<!-- Node1&#45;&gt;Node6 -->
<g id="edge5" class="edge">
<title>Node1&#45;&gt;Node6</title>
<path fill="none" stroke="#63b8ff" d="M214.6466,-164.743C207.2357,-150.6946 191.7439,-124.8325 171.4641,-110 141.3183,-87.9516 99.6437,-75.9615 71.2382,-69.9091"/>
<polygon fill="#63b8ff" stroke="#63b8ff" points="71.9122,-66.4747 61.4193,-67.9403 70.536,-73.3381 71.9122,-66.4747"/>
</g>
<!-- Node7 -->
<g id="node7" class="node">
<title>Node7</title>
<g id="a_node7"><a xlink:title=" ">
<polygon fill="#e0e0e0" stroke="#999999" points="346.4641,-129 296.4641,-129 296.4641,-110 346.4641,-110 346.4641,-129"/>
<text text-anchor="middle" x="321.4641" y="-117" font-family="Helvetica,sans-Serif" font-size="10.00" fill="#000000">fstream</text>
</a>
</g>
</g>
<!-- Node1&#45;&gt;Node7 -->
<g id="edge6" class="edge">
<title>Node1&#45;&gt;Node7</title>
<path fill="none" stroke="#63b8ff" d="M237.2311,-164.9197C253.0764,-156.3757 276.5023,-143.7441 294.63,-133.9694"/>
<polygon fill="#63b8ff" stroke="#63b8ff" points="296.4176,-136.9819 303.5584,-129.155 293.0953,-130.8205 296.4176,-136.9819"/>
</g>
<!-- Node8 -->
<g id="node8" class="node">
<title>Node8</title>
<g id="a_node8"><a xlink:title=" ">
<polygon fill="#e0e0e0" stroke="#999999" points="426.4641,-129 364.4641,-129 364.4641,-110 426.4641,-110 426.4641,-129"/>
<text text-anchor="middle" x="395.4641" y="-117" font-family="Helvetica,sans-Serif" font-size="10.00" fill="#000000">type_traits</text>
</a>
</g>
</g>
<!-- Node1&#45;&gt;Node8 -->
<g id="edge7" class="edge">
<title>Node1&#45;&gt;Node8</title>
<path fill="none" stroke="#63b8ff" d="M250.121,-164.9197C279.1811,-155.8384 323.0183,-142.1393 354.9489,-132.161"/>
<polygon fill="#63b8ff" stroke="#63b8ff" points="356.363,-135.3861 364.8638,-129.0626 354.275,-128.7047 356.363,-135.3861"/>
</g>
<!-- Node9 -->
<g id="node9" class="node">
<title>Node9</title>
<g id="a_node9"><a xlink:href="../../d7/d5c/qcstring_8h.html" target="_top" xlink:title=" ">
<polygon fill="#ffffff" stroke="#666666" points="277.9641,-129 218.9641,-129 218.9641,-110 277.9641,-110 277.9641,-129"/>
<text text-anchor="middle" x="248.4641" y="-117" font-family="Helvetica,sans-Serif" font-size="10.00" fill="#000000">qcstring.h</text>
</a>
</g>
</g>
<!-- Node1&#45;&gt;Node9 -->
<g id="edge8" class="edge">
<title>Node1&#45;&gt;Node9</title>
<path fill="none" stroke="#63b8ff" d="M224.5155,-164.9197C228.3767,-157.5967 233.8213,-147.2709 238.5436,-138.3147"/>
<polygon fill="#63b8ff" stroke="#63b8ff" points="241.7071,-139.819 243.2753,-129.3408 235.5152,-136.5541 241.7071,-139.819"/>
</g>
<!-- Node9&#45;&gt;Node2 -->
<g id="edge9" class="edge">
<title>Node9&#45;&gt;Node2</title>
<path fill="none" stroke="#63b8ff" d="M218.718,-113.2503C182.3939,-105.055 123.8775,-89.8473 108.4641,-74 96.904,-62.1144 92.3227,-43.5633 90.5348,-29.4014"/>
<polygon fill="#63b8ff" stroke="#63b8ff" points="93.9989,-28.8436 89.6199,-19.1961 87.0269,-29.4687 93.9989,-28.8436"/>
</g>
<!-- Node9&#45;&gt;Node5 -->
<g id="edge15" class="edge">
<title>Node9&#45;&gt;Node5</title>
<path fill="none" stroke="#63b8ff" d="M278.2394,-112.2536C329.4912,-99.7536 429.0686,-75.3388 430.4641,-74 442.4288,-62.5217 446.9657,-43.926 448.6339,-29.6436"/>
<polygon fill="#63b8ff" stroke="#63b8ff" points="452.1499,-29.576 449.4439,-19.3326 445.1714,-29.0277 452.1499,-29.576"/>
</g>
<!-- Node9&#45;&gt;Node6 -->
<g id="edge13" class="edge">
<title>Node9&#45;&gt;Node6</title>
<path fill="none" stroke="#63b8ff" d="M218.7682,-111.6978C184.3058,-102.6413 125.7668,-87.2521 75.4641,-74 74.0186,-73.6192 72.5405,-73.2297 71.0475,-72.8361"/>
<polygon fill="#63b8ff" stroke="#63b8ff" points="71.7273,-69.3958 61.1653,-70.2298 69.9421,-76.1643 71.7273,-69.3958"/>
</g>
<!-- Node10 -->
<g id="node10" class="node">
<title>Node10</title>
<g id="a_node10"><a xlink:title=" ">
<polygon fill="#e0e0e0" stroke="#999999" points="533.4641,-74 477.4641,-74 477.4641,-55 533.4641,-55 533.4641,-74"/>
<text text-anchor="middle" x="505.4641" y="-62" font-family="Helvetica,sans-Serif" font-size="10.00" fill="#000000">algorithm</text>
</a>
</g>
</g>
<!-- Node9&#45;&gt;Node10 -->
<g id="edge10" class="edge">
<title>Node9&#45;&gt;Node10</title>
<path fill="none" stroke="#63b8ff" d="M278.2479,-112.1243C281.3563,-111.3907 284.472,-110.6702 287.4641,-110 365.3754,-92.5489 385.4115,-90.8081 463.4641,-74 464.6974,-73.7344 465.9506,-73.4626 467.2157,-73.1864"/>
<polygon fill="#63b8ff" stroke="#63b8ff" points="468.0074,-76.596 477.0152,-71.0185 466.4953,-69.7613 468.0074,-76.596"/>
</g>
<!-- Node11 -->
<g id="node11" class="node">
<title>Node11</title>
<g id="a_node11"><a xlink:title=" ">
<polygon fill="#e0e0e0" stroke="#999999" points="163.4641,-74 117.4641,-74 117.4641,-55 163.4641,-55 163.4641,-74"/>
<text text-anchor="middle" x="140.4641" y="-62" font-family="Helvetica,sans-Serif" font-size="10.00" fill="#000000">cctype</text>
</a>
</g>
</g>
<!-- Node9&#45;&gt;Node11 -->
<g id="edge11" class="edge">
<title>Node9&#45;&gt;Node11</title>
<path fill="none" stroke="#63b8ff" d="M229.6519,-109.9197C212.7207,-101.2973 187.6149,-88.512 168.3499,-78.7011"/>
<polygon fill="#63b8ff" stroke="#63b8ff" points="169.9224,-75.5742 159.423,-74.155 166.7458,-81.812 169.9224,-75.5742"/>
</g>
<!-- Node12 -->
<g id="node12" class="node">
<title>Node12</title>
<g id="a_node12"><a xlink:title=" ">
<polygon fill="#e0e0e0" stroke="#999999" points="227.4641,-74 181.4641,-74 181.4641,-55 227.4641,-55 227.4641,-74"/>
<text text-anchor="middle" x="204.4641" y="-62" font-family="Helvetica,sans-Serif" font-size="10.00" fill="#000000">cstring</text>
</a>
</g>
</g>
<!-- Node9&#45;&gt;Node12 -->
<g id="edge12" class="edge">
<title>Node9&#45;&gt;Node12</title>
<path fill="none" stroke="#63b8ff" d="M240.7999,-109.9197C234.6922,-102.2851 225.9734,-91.3867 218.6074,-82.1792"/>
<polygon fill="#63b8ff" stroke="#63b8ff" points="221.3168,-79.9631 212.3368,-74.3408 215.8507,-84.336 221.3168,-79.9631"/>
</g>
<!-- Node13 -->
<g id="node13" class="node">
<title>Node13</title>
<g id="a_node13"><a xlink:title=" ">
<polygon fill="#e0e0e0" stroke="#999999" points="290.9641,-74 245.9641,-74 245.9641,-55 290.9641,-55 290.9641,-74"/>
<text text-anchor="middle" x="268.4641" y="-62" font-family="Helvetica,sans-Serif" font-size="10.00" fill="#000000">cstdlib</text>
</a>
</g>
</g>
<!-- Node9&#45;&gt;Node13 -->
<g id="edge14" class="edge">
<title>Node9&#45;&gt;Node13</title>
<path fill="none" stroke="#63b8ff" d="M251.9478,-109.9197C254.5541,-102.7525 258.2063,-92.7089 261.4138,-83.8882"/>
<polygon fill="#63b8ff" stroke="#63b8ff" points="264.7574,-84.9349 264.8856,-74.3408 258.1788,-82.5426 264.7574,-84.9349"/>
</g>
<!-- Node14 -->
<g id="node14" class="node">
<title>Node14</title>
<g id="a_node14"><a xlink:title=" ">
<polygon fill="#e0e0e0" stroke="#999999" points="361.4641,-74 309.4641,-74 309.4641,-55 361.4641,-55 361.4641,-74"/>
<text text-anchor="middle" x="335.4641" y="-62" font-family="Helvetica,sans-Serif" font-size="10.00" fill="#000000">ostream</text>
</a>
</g>
</g>
<!-- Node9&#45;&gt;Node14 -->
<g id="edge16" class="edge">
<title>Node9&#45;&gt;Node14</title>
<path fill="none" stroke="#63b8ff" d="M263.6183,-109.9197C276.8854,-101.5325 296.3832,-89.2063 311.7205,-79.5103"/>
<polygon fill="#63b8ff" stroke="#63b8ff" points="313.6093,-82.4571 320.1916,-74.155 309.8687,-76.5402 313.6093,-82.4571"/>
</g>
<!-- Node15 -->
<g id="node15" class="node">
<title>Node15</title>
<g id="a_node15"><a xlink:href="../../db/d7c/utf8_8h.html" target="_top" xlink:title="Various UTF8 related helper functions.">
<polygon fill="#ffffff" stroke="#666666" points="420.9641,-74 379.9641,-74 379.9641,-55 420.9641,-55 420.9641,-74"/>
<text text-anchor="middle" x="400.4641" y="-62" font-family="Helvetica,sans-Serif" font-size="10.00" fill="#000000">utf8.h</text>
</a>
</g>
</g>
<!-- Node9&#45;&gt;Node15 -->
<g id="edge17" class="edge">
<title>Node9&#45;&gt;Node15</title>
<path fill="none" stroke="#63b8ff" d="M274.9405,-109.9197C301.4542,-100.3259 342.2112,-85.5784 370.0402,-75.5086"/>
<polygon fill="#63b8ff" stroke="#63b8ff" points="371.4453,-78.7224 379.6578,-72.0286 369.0635,-72.14 371.4453,-78.7224"/>
</g>
<!-- Node15&#45;&gt;Node2 -->
<g id="edge19" class="edge">
<title>Node15&#45;&gt;Node2</title>
<path fill="none" stroke="#63b8ff" d="M379.9182,-57.5583C376.7724,-56.6223 373.5467,-55.7335 370.4641,-55 280.6938,-33.6395 172.3885,-19.2333 120.3419,-13.0002"/>
<polygon fill="#63b8ff" stroke="#63b8ff" points="120.4577,-9.4897 110.1166,-11.7947 119.638,-16.4416 120.4577,-9.4897"/>
</g>
<!-- Node15&#45;&gt;Node5 -->
<g id="edge18" class="edge">
<title>Node15&#45;&gt;Node5</title>
<path fill="none" stroke="#63b8ff" d="M408.9992,-54.9197C415.8704,-47.2072 425.709,-36.1639 433.9642,-26.8978"/>
<polygon fill="#63b8ff" stroke="#63b8ff" points="436.658,-29.1357 440.6968,-19.3408 431.4314,-24.4792 436.658,-29.1357"/>
</g>
</g>
</svg>
