<?xml version="1.0" encoding="UTF-8" standalone="no"?>
<!DOCTYPE svg PUBLIC "-//W3C//DTD SVG 1.1//EN"
 "http://www.w3.org/Graphics/SVG/1.1/DTD/svg11.dtd">
<!-- Generated by graphviz version 2.43.0 (0)
 -->
<!-- Title: src/tooltip.h Pages: 1 -->
<svg width="893pt" height="82pt"
 viewBox="0.00 0.00 892.50 82.00" xmlns="http://www.w3.org/2000/svg" xmlns:xlink="http://www.w3.org/1999/xlink">
<g id="graph0" class="graph" transform="scale(1 1) rotate(0) translate(4 78)">
<title>src/tooltip.h</title>
<!-- Node1 -->
<g id="node1" class="node">
<title>Node1</title>
<g id="a_node1"><a xlink:title=" ">
<polygon fill="#999999" stroke="#666666" points="482.5,-74 408.5,-74 408.5,-55 482.5,-55 482.5,-74"/>
<text text-anchor="middle" x="445.5" y="-62" font-family="Helvetica,sans-Serif" font-size="10.00">src/tooltip.h</text>
</a>
</g>
</g>
<!-- Node2 -->
<g id="node2" class="node">
<title>Node2</title>
<g id="a_node2"><a xlink:href="../../da/d1f/code_8l.html" target="_top" xlink:title=" ">
<polygon fill="white" stroke="#666666" points="63,-19 0,-19 0,0 63,0 63,-19"/>
<text text-anchor="middle" x="31.5" y="-7" font-family="Helvetica,sans-Serif" font-size="10.00">src/code.l</text>
</a>
</g>
</g>
<!-- Node1&#45;&gt;Node2 -->
<g id="edge1" class="edge">
<title>Node1&#45;&gt;Node2</title>
<path fill="none" stroke="#63b8ff" d="M398.32,-59.18C327.37,-52.39 189.06,-38 72.5,-19 69.49,-18.51 66.36,-17.95 63.23,-17.36"/>
<polygon fill="#63b8ff" stroke="#63b8ff" points="398.01,-62.67 408.29,-60.13 398.67,-55.7 398.01,-62.67"/>
</g>
<!-- Node3 -->
<g id="node3" class="node">
<title>Node3</title>
<g id="a_node3"><a xlink:href="../../d9/d5b/fortrancode_8l.html" target="_top" xlink:title=" ">
<polygon fill="white" stroke="#666666" points="177.5,-19 81.5,-19 81.5,0 177.5,0 177.5,-19"/>
<text text-anchor="middle" x="129.5" y="-7" font-family="Helvetica,sans-Serif" font-size="10.00">src/fortrancode.l</text>
</a>
</g>
</g>
<!-- Node1&#45;&gt;Node3 -->
<g id="edge2" class="edge">
<title>Node1&#45;&gt;Node3</title>
<path fill="none" stroke="#63b8ff" d="M398.46,-55.61C339.08,-45.65 237.49,-28.61 177.61,-18.57"/>
<polygon fill="#63b8ff" stroke="#63b8ff" points="397.88,-59.06 408.32,-57.26 399.04,-52.16 397.88,-59.06"/>
</g>
<!-- Node4 -->
<g id="node4" class="node">
<title>Node4</title>
<g id="a_node4"><a xlink:href="../../d8/d6e/htmlgen_8cpp.html" target="_top" xlink:title=" ">
<polygon fill="white" stroke="#666666" points="291,-19 196,-19 196,0 291,0 291,-19"/>
<text text-anchor="middle" x="243.5" y="-7" font-family="Helvetica,sans-Serif" font-size="10.00">src/htmlgen.cpp</text>
</a>
</g>
</g>
<!-- Node1&#45;&gt;Node4 -->
<g id="edge3" class="edge">
<title>Node1&#45;&gt;Node4</title>
<path fill="none" stroke="#63b8ff" d="M403.34,-52.44C365.52,-42.52 310.81,-28.16 276.21,-19.08"/>
<polygon fill="#63b8ff" stroke="#63b8ff" points="402.48,-55.83 413.05,-54.98 404.26,-49.06 402.48,-55.83"/>
</g>
<!-- Node5 -->
<g id="node5" class="node">
<title>Node5</title>
<g id="a_node5"><a xlink:href="../../db/d14/index_8cpp.html" target="_top" xlink:title="This file contains functions for the various index pages.">
<polygon fill="white" stroke="#666666" points="390,-19 309,-19 309,0 390,0 390,-19"/>
<text text-anchor="middle" x="349.5" y="-7" font-family="Helvetica,sans-Serif" font-size="10.00">src/index.cpp</text>
</a>
</g>
</g>
<!-- Node1&#45;&gt;Node5 -->
<g id="edge4" class="edge">
<title>Node1&#45;&gt;Node5</title>
<path fill="none" stroke="#63b8ff" d="M420.98,-49.97C403.44,-40.28 380.33,-27.52 365.2,-19.17"/>
<polygon fill="#63b8ff" stroke="#63b8ff" points="419.63,-53.22 430.08,-54.98 423.01,-47.09 419.63,-53.22"/>
</g>
<!-- Node6 -->
<g id="node6" class="node">
<title>Node6</title>
<g id="a_node6"><a xlink:href="../../d3/ded/pycode_8l.html" target="_top" xlink:title=" ">
<polygon fill="white" stroke="#666666" points="483,-19 408,-19 408,0 483,0 483,-19"/>
<text text-anchor="middle" x="445.5" y="-7" font-family="Helvetica,sans-Serif" font-size="10.00">src/pycode.l</text>
</a>
</g>
</g>
<!-- Node1&#45;&gt;Node6 -->
<g id="edge5" class="edge">
<title>Node1&#45;&gt;Node6</title>
<path fill="none" stroke="#63b8ff" d="M445.5,-44.66C445.5,-35.93 445.5,-25.99 445.5,-19.09"/>
<polygon fill="#63b8ff" stroke="#63b8ff" points="442,-44.75 445.5,-54.75 449,-44.75 442,-44.75"/>
</g>
<!-- Node7 -->
<g id="node7" class="node">
<title>Node7</title>
<g id="a_node7"><a xlink:href="../../d2/dda/sqlcode_8l.html" target="_top" xlink:title=" ">
<polygon fill="white" stroke="#666666" points="578,-19 501,-19 501,0 578,0 578,-19"/>
<text text-anchor="middle" x="539.5" y="-7" font-family="Helvetica,sans-Serif" font-size="10.00">src/sqlcode.l</text>
</a>
</g>
</g>
<!-- Node1&#45;&gt;Node7 -->
<g id="edge6" class="edge">
<title>Node1&#45;&gt;Node7</title>
<path fill="none" stroke="#63b8ff" d="M469.5,-49.97C486.69,-40.28 509.31,-27.52 524.12,-19.17"/>
<polygon fill="#63b8ff" stroke="#63b8ff" points="467.59,-47.02 460.6,-54.98 471.03,-53.12 467.59,-47.02"/>
</g>
<!-- Node8 -->
<g id="node8" class="node">
<title>Node8</title>
<g id="a_node8"><a xlink:href="../../d7/d56/tooltip_8cpp.html" target="_top" xlink:title=" ">
<polygon fill="white" stroke="#666666" points="682.5,-19 596.5,-19 596.5,0 682.5,0 682.5,-19"/>
<text text-anchor="middle" x="639.5" y="-7" font-family="Helvetica,sans-Serif" font-size="10.00">src/tooltip.cpp</text>
</a>
</g>
</g>
<!-- Node1&#45;&gt;Node8 -->
<g id="edge7" class="edge">
<title>Node1&#45;&gt;Node8</title>
<path fill="none" stroke="#63b8ff" d="M486.46,-52.31C522.76,-42.39 575,-28.12 608.09,-19.08"/>
<polygon fill="#63b8ff" stroke="#63b8ff" points="485.39,-48.97 476.67,-54.98 487.24,-55.73 485.39,-48.97"/>
</g>
<!-- Node9 -->
<g id="node9" class="node">
<title>Node9</title>
<g id="a_node9"><a xlink:href="../../d5/d6a/vhdlcode_8l.html" target="_top" xlink:title=" ">
<polygon fill="white" stroke="#666666" points="784.5,-19 700.5,-19 700.5,0 784.5,0 784.5,-19"/>
<text text-anchor="middle" x="742.5" y="-7" font-family="Helvetica,sans-Serif" font-size="10.00">src/vhdlcode.l</text>
</a>
</g>
</g>
<!-- Node1&#45;&gt;Node9 -->
<g id="edge8" class="edge">
<title>Node1&#45;&gt;Node9</title>
<path fill="none" stroke="#63b8ff" d="M492.37,-55.14C549.51,-44.94 645.24,-27.86 700.22,-18.05"/>
<polygon fill="#63b8ff" stroke="#63b8ff" points="491.74,-51.69 482.51,-56.89 492.97,-58.58 491.74,-51.69"/>
</g>
<!-- Node10 -->
<g id="node10" class="node">
<title>Node10</title>
<g id="a_node10"><a xlink:href="../../dc/dc1/xmlcode_8l.html" target="_top" xlink:title=" ">
<polygon fill="white" stroke="#666666" points="884.5,-19 802.5,-19 802.5,0 884.5,0 884.5,-19"/>
<text text-anchor="middle" x="843.5" y="-7" font-family="Helvetica,sans-Serif" font-size="10.00">src/xmlcode.l</text>
</a>
</g>
</g>
<!-- Node1&#45;&gt;Node10 -->
<g id="edge9" class="edge">
<title>Node1&#45;&gt;Node10</title>
<path fill="none" stroke="#63b8ff" d="M492.89,-58.07C559.94,-50.24 686.28,-34.96 793.5,-19 796.37,-18.57 799.34,-18.11 802.32,-17.64"/>
<polygon fill="#63b8ff" stroke="#63b8ff" points="492.18,-54.63 482.65,-59.26 492.99,-61.58 492.18,-54.63"/>
</g>
</g>
</svg>
