<?xml version="1.0" encoding="UTF-8" standalone="no"?>
<!DOCTYPE svg PUBLIC "-//W3C//DTD SVG 1.1//EN"
 "http://www.w3.org/Graphics/SVG/1.1/DTD/svg11.dtd">
<!-- Generated by graphviz version 2.40.1 (20161225.0304)
 -->
<!-- Title: DotClassGraph Pages: 1 -->
<svg width="433pt" height="273pt"
 viewBox="0.00 0.00 432.50 273.00" xmlns="http://www.w3.org/2000/svg" xmlns:xlink="http://www.w3.org/1999/xlink">
<g id="graph0" class="graph" transform="scale(1 1) rotate(0) translate(4 269)">
<title>DotClassGraph</title>
<!-- Node1 -->
<g id="node1" class="node">
<title>Node1</title>
<g id="a_node1"><a xlink:title="Representation of a class inheritance or dependency graph.">
<polygon fill="#999999" stroke="#666666" points="224.5,-19 140.5,-19 140.5,0 224.5,0 224.5,-19"/>
<text text-anchor="middle" x="182.5" y="-7" font-family="Helvetica,sans-Serif" font-size="10.00" fill="#000000">DotClassGraph</text>
</a>
</g>
</g>
<!-- Node2 -->
<g id="node2" class="node">
<title>Node2</title>
<g id="a_node2"><a xlink:href="../../d0/d32/class_dot_graph.html" target="_top" xlink:title="A dot graph.">
<polygon fill="#ffffff" stroke="#666666" points="95,-86.5 36,-86.5 36,-67.5 95,-67.5 95,-86.5"/>
<text text-anchor="middle" x="65.5" y="-74.5" font-family="Helvetica,sans-Serif" font-size="10.00" fill="#000000">DotGraph</text>
</a>
</g>
</g>
<!-- Node2&#45;&gt;Node1 -->
<g id="edge1" class="edge">
<title>Node2&#45;&gt;Node1</title>
<path fill="none" stroke="#63b8ff" d="M88.1152,-61.5631C99.7048,-53.8706 114.1543,-44.6113 127.5,-37 138.721,-30.6005 151.6218,-24.1069 162.1077,-19.0379"/>
<polygon fill="#63b8ff" stroke="#63b8ff" points="85.8648,-58.858 79.5093,-67.335 89.7639,-64.6715 85.8648,-58.858"/>
</g>
<!-- Node3 -->
<g id="node3" class="node">
<title>Node3</title>
<g id="a_node3"><a xlink:href="../../d2/dc2/class_dir.html" target="_top" xlink:title="Class representing a directory in the file system.">
<polygon fill="#ffffff" stroke="#666666" points="29,-203.5 0,-203.5 0,-184.5 29,-184.5 29,-203.5"/>
<text text-anchor="middle" x="14.5" y="-191.5" font-family="Helvetica,sans-Serif" font-size="10.00" fill="#000000">Dir</text>
</a>
</g>
</g>
<!-- Node3&#45;&gt;Node2 -->
<g id="edge2" class="edge">
<title>Node3&#45;&gt;Node2</title>
<path fill="none" stroke="#9a32cd" stroke-dasharray="5,2" d="M9.5358,-174.6475C5.8292,-155.7842 3.2681,-126.9587 15.5,-106 20.5582,-97.3331 29.294,-91.0122 38.0626,-86.5269"/>
<polygon fill="#9a32cd" stroke="#9a32cd" points="6.1358,-175.4813 11.7474,-184.468 12.9648,-173.9434 6.1358,-175.4813"/>
<text text-anchor="middle" x="29.5" y="-131" font-family="Helvetica,sans-Serif" font-size="10.00" fill="#000000"> m_dir</text>
</g>
<!-- Node4 -->
<g id="node4" class="node">
<title>Node4</title>
<g id="a_node4"><a xlink:href="../../d9/d45/class_q_c_string.html" target="_top" xlink:title="This is an alternative implementation of QCString.">
<polygon fill="#ffffff" stroke="#666666" points="170,-203.5 113,-203.5 113,-184.5 170,-184.5 170,-203.5"/>
<text text-anchor="middle" x="141.5" y="-191.5" font-family="Helvetica,sans-Serif" font-size="10.00" fill="#000000">QCString</text>
</a>
</g>
</g>
<!-- Node4&#45;&gt;Node1 -->
<g id="edge10" class="edge">
<title>Node4&#45;&gt;Node1</title>
<path fill="none" stroke="#9a32cd" stroke-dasharray="5,2" d="M140.2252,-174.1899C139.1768,-148.6122 139.3495,-102.9928 150.5,-66 155.8355,-48.2989 167.4677,-30.0897 175.1393,-19.288"/>
<polygon fill="#9a32cd" stroke="#9a32cd" points="136.7429,-174.6238 140.7577,-184.4285 143.7335,-174.2602 136.7429,-174.6238"/>
<text text-anchor="middle" x="193" y="-80" font-family="Helvetica,sans-Serif" font-size="10.00" fill="#000000"> m_collabFileName</text>
<text text-anchor="middle" x="193" y="-69" font-family="Helvetica,sans-Serif" font-size="10.00" fill="#000000">m_inheritFileName</text>
</g>
<!-- Node4&#45;&gt;Node2 -->
<g id="edge3" class="edge">
<title>Node4&#45;&gt;Node2</title>
<path fill="none" stroke="#9a32cd" stroke-dasharray="5,2" d="M102.7614,-186.1634C88.9453,-181.3123 74.7693,-173.5096 66.5,-161 51.2997,-138.0054 57.9985,-103.1788 62.5461,-86.5243"/>
<polygon fill="#9a32cd" stroke="#9a32cd" points="102.0818,-189.6158 112.6684,-189.1992 104.1327,-182.9229 102.0818,-189.6158"/>
<text text-anchor="middle" x="97" y="-153" font-family="Helvetica,sans-Serif" font-size="10.00" fill="#000000"> m_absPath</text>
<text text-anchor="middle" x="97" y="-142" font-family="Helvetica,sans-Serif" font-size="10.00" fill="#000000">m_baseName</text>
<text text-anchor="middle" x="97" y="-131" font-family="Helvetica,sans-Serif" font-size="10.00" fill="#000000">m_fileName</text>
<text text-anchor="middle" x="97" y="-120" font-family="Helvetica,sans-Serif" font-size="10.00" fill="#000000">m_relPath</text>
<text text-anchor="middle" x="97" y="-109" font-family="Helvetica,sans-Serif" font-size="10.00" fill="#000000">m_theGraph</text>
</g>
<!-- Node5 -->
<g id="node5" class="node">
<title>Node5</title>
<g id="a_node5"><a xlink:href="../../dd/d7e/class_dot_node.html" target="_top" xlink:title="A node in a dot graph.">
<polygon fill="#ffffff" stroke="#666666" points="300.5,-86.5 244.5,-86.5 244.5,-67.5 300.5,-67.5 300.5,-86.5"/>
<text text-anchor="middle" x="272.5" y="-74.5" font-family="Helvetica,sans-Serif" font-size="10.00" fill="#000000">DotNode</text>
</a>
</g>
</g>
<!-- Node4&#45;&gt;Node5 -->
<g id="edge5" class="edge">
<title>Node4&#45;&gt;Node5</title>
<path fill="none" stroke="#9a32cd" stroke-dasharray="5,2" d="M155.8488,-176.4847C171.7129,-157.747 198.5994,-127.7867 225.5,-106 234.441,-98.7587 245.327,-91.934 254.3699,-86.7265"/>
<polygon fill="#9a32cd" stroke="#9a32cd" points="153.0999,-174.3161 149.375,-184.2346 158.4721,-178.8038 153.0999,-174.3161"/>
<text text-anchor="middle" x="245.5" y="-142" font-family="Helvetica,sans-Serif" font-size="10.00" fill="#000000"> m_label</text>
<text text-anchor="middle" x="245.5" y="-131" font-family="Helvetica,sans-Serif" font-size="10.00" fill="#000000">m_tooltip</text>
<text text-anchor="middle" x="245.5" y="-120" font-family="Helvetica,sans-Serif" font-size="10.00" fill="#000000">m_url</text>
</g>
<!-- Node5&#45;&gt;Node1 -->
<g id="edge4" class="edge">
<title>Node5&#45;&gt;Node1</title>
<path fill="none" stroke="#9a32cd" stroke-dasharray="5,2" d="M251.2169,-61.0377C233.8665,-48.0248 209.93,-30.0725 195.3709,-19.1532"/>
<polygon fill="#9a32cd" stroke="#9a32cd" points="249.5052,-64.1289 259.6052,-67.3289 253.7052,-58.5289 249.5052,-64.1289"/>
<text text-anchor="middle" x="263.5" y="-40" font-family="Helvetica,sans-Serif" font-size="10.00" fill="#000000"> m_startNode</text>
</g>
<!-- Node6 -->
<g id="node6" class="node">
<title>Node6</title>
<g id="a_node6"><a xlink:href="../../d1/dcf/class_class_def.html" target="_top" xlink:title="A abstract class representing of a compound symbol.">
<polygon fill="#ffffff" stroke="#666666" points="296.5,-203.5 238.5,-203.5 238.5,-184.5 296.5,-184.5 296.5,-203.5"/>
<text text-anchor="middle" x="267.5" y="-191.5" font-family="Helvetica,sans-Serif" font-size="10.00" fill="#000000">ClassDef</text>
</a>
</g>
</g>
<!-- Node6&#45;&gt;Node5 -->
<g id="edge6" class="edge">
<title>Node6&#45;&gt;Node5</title>
<path fill="none" stroke="#9a32cd" stroke-dasharray="5,2" d="M268.3482,-174.1511C269.4326,-148.7767 271.2674,-105.8429 272.0852,-86.7069"/>
<polygon fill="#9a32cd" stroke="#9a32cd" points="264.8394,-174.285 267.9092,-184.4254 271.833,-174.584 264.8394,-174.285"/>
<text text-anchor="middle" x="299.5" y="-131" font-family="Helvetica,sans-Serif" font-size="10.00" fill="#000000"> m_classDef</text>
</g>
<!-- Node7 -->
<g id="node7" class="node">
<title>Node7</title>
<g id="a_node7"><a xlink:href="../../d5/dcc/class_definition.html" target="_top" xlink:title="The common base class of all entity definitions found in the sources.">
<polygon fill="#ffffff" stroke="#666666" points="296.5,-265 238.5,-265 238.5,-246 296.5,-246 296.5,-265"/>
<text text-anchor="middle" x="267.5" y="-253" font-family="Helvetica,sans-Serif" font-size="10.00" fill="#000000">Definition</text>
</a>
</g>
</g>
<!-- Node7&#45;&gt;Node6 -->
<g id="edge7" class="edge">
<title>Node7&#45;&gt;Node6</title>
<path fill="none" stroke="#63b8ff" d="M267.5,-235.7462C267.5,-225.0519 267.5,-212.314 267.5,-203.7449"/>
<polygon fill="#63b8ff" stroke="#63b8ff" points="264.0001,-235.8906 267.5,-245.8906 271.0001,-235.8907 264.0001,-235.8906"/>
</g>
<!-- Node8 -->
<g id="node8" class="node">
<title>Node8</title>
<g id="a_node8"><a xlink:href="../../d6/dbb/class_dot_node_map.html" target="_top" xlink:title=" ">
<polygon fill="#ffffff" stroke="#666666" points="397.5,-86.5 323.5,-86.5 323.5,-67.5 397.5,-67.5 397.5,-86.5"/>
<text text-anchor="middle" x="360.5" y="-74.5" font-family="Helvetica,sans-Serif" font-size="10.00" fill="#000000">DotNodeMap</text>
</a>
</g>
</g>
<!-- Node8&#45;&gt;Node1 -->
<g id="edge8" class="edge">
<title>Node8&#45;&gt;Node1</title>
<path fill="none" stroke="#9a32cd" stroke-dasharray="5,2" d="M339.8662,-61.4331C328.0079,-53.135 312.5232,-43.3555 297.5,-37 274.2456,-27.1624 246.7895,-20.4297 224.5375,-16.0894"/>
<polygon fill="#9a32cd" stroke="#9a32cd" points="338.0003,-64.4026 348.1598,-67.4088 342.0925,-58.7233 338.0003,-64.4026"/>
<text text-anchor="middle" x="352" y="-40" font-family="Helvetica,sans-Serif" font-size="10.00" fill="#000000"> m_usedNodes</text>
</g>
<!-- Node9 -->
<g id="node9" class="node">
<title>Node9</title>
<g id="a_node9"><a xlink:title=" ">
<polygon fill="#ffffff" stroke="#666666" points="424.5,-209 314.5,-209 314.5,-179 424.5,-179 424.5,-209"/>
<text text-anchor="start" x="322.5" y="-197" font-family="Helvetica,sans-Serif" font-size="10.00" fill="#000000">std::map&lt; std::string,</text>
<text text-anchor="middle" x="369.5" y="-186" font-family="Helvetica,sans-Serif" font-size="10.00" fill="#000000"> DotNode * &gt;</text>
</a>
</g>
</g>
<!-- Node9&#45;&gt;Node8 -->
<g id="edge9" class="edge">
<title>Node9&#45;&gt;Node8</title>
<path fill="none" stroke="#63b8ff" d="M367.5408,-168.5305C365.5572,-142.7438 362.5939,-104.2207 361.2322,-86.5188"/>
<polygon fill="#63b8ff" stroke="#63b8ff" points="364.0667,-169.0022 368.3234,-178.7043 371.046,-168.4653 364.0667,-169.0022"/>
</g>
</g>
</svg>
