<?xml version="1.0" encoding="UTF-8" standalone="no"?>
<!DOCTYPE svg PUBLIC "-//W3C//DTD SVG 1.1//EN"
 "http://www.w3.org/Graphics/SVG/1.1/DTD/svg11.dtd">
<!-- Generated by graphviz version 2.40.1 (20161225.0304)
 -->
<!-- Title: OutputGenerator Pages: 1 -->
<svg width="295pt" height="160pt"
 viewBox="0.00 0.00 295.00 160.00" xmlns="http://www.w3.org/2000/svg" xmlns:xlink="http://www.w3.org/1999/xlink">
<g id="graph0" class="graph" transform="scale(1 1) rotate(0) translate(4 156)">
<title>OutputGenerator</title>
<!-- Node1 -->
<g id="node1" class="node">
<title>Node1</title>
<g id="a_node1"><a xlink:title="Abstract output generator.">
<polygon fill="#999999" stroke="#666666" points="222,-19 133,-19 133,0 222,0 222,-19"/>
<text text-anchor="middle" x="177.5" y="-7" font-family="Helvetica,sans-Serif" font-size="10.00" fill="#000000">OutputGenerator</text>
</a>
</g>
</g>
<!-- Node2 -->
<g id="node2" class="node">
<title>Node2</title>
<g id="a_node2"><a xlink:href="../../df/d27/class_base_output_doc_interface.html" target="_top" xlink:title="Base Interface used for generating output outside of the comment blocks.">
<polygon fill="#ffffff" stroke="#666666" points="125,-96 0,-96 0,-77 125,-77 125,-96"/>
<text text-anchor="middle" x="62.5" y="-84" font-family="Helvetica,sans-Serif" font-size="10.00" fill="#000000">BaseOutputDocInterface</text>
</a>
</g>
</g>
<!-- Node2&#45;&gt;Node1 -->
<g id="edge1" class="edge">
<title>Node2&#45;&gt;Node1</title>
<path fill="none" stroke="#63b8ff" d="M85.5896,-71.04C108.7151,-55.556 143.5871,-32.2069 163.0534,-19.1729"/>
<polygon fill="#63b8ff" stroke="#63b8ff" points="83.4269,-68.2759 77.0648,-76.7479 87.3215,-74.0925 83.4269,-68.2759"/>
</g>
<!-- Node3 -->
<g id="node3" class="node">
<title>Node3</title>
<g id="a_node3"><a xlink:href="../../d5/d9c/class_code_output_interface.html" target="_top" xlink:title="Output interface for code parser.">
<polygon fill="#ffffff" stroke="#666666" points="116,-152 9,-152 9,-133 116,-133 116,-152"/>
<text text-anchor="middle" x="62.5" y="-140" font-family="Helvetica,sans-Serif" font-size="10.00" fill="#000000">CodeOutputInterface</text>
</a>
</g>
</g>
<!-- Node3&#45;&gt;Node2 -->
<g id="edge2" class="edge">
<title>Node3&#45;&gt;Node2</title>
<path fill="none" stroke="#63b8ff" d="M62.5,-122.6575C62.5,-113.655 62.5,-103.4199 62.5,-96.1427"/>
<polygon fill="#63b8ff" stroke="#63b8ff" points="59.0001,-122.7455 62.5,-132.7455 66.0001,-122.7456 59.0001,-122.7455"/>
</g>
<!-- Node4 -->
<g id="node4" class="node">
<title>Node4</title>
<g id="a_node4"><a xlink:href="../../d3/d30/class_text_stream.html" target="_top" xlink:title="Text streaming class that buffers data.">
<polygon fill="#ffffff" stroke="#666666" points="211.5,-96 143.5,-96 143.5,-77 211.5,-77 211.5,-96"/>
<text text-anchor="middle" x="177.5" y="-84" font-family="Helvetica,sans-Serif" font-size="10.00" fill="#000000">TextStream</text>
</a>
</g>
</g>
<!-- Node4&#45;&gt;Node1 -->
<g id="edge3" class="edge">
<title>Node4&#45;&gt;Node1</title>
<path fill="none" stroke="#9a32cd" stroke-dasharray="5,2" d="M177.5,-66.3748C177.5,-51.2682 177.5,-31.231 177.5,-19.4161"/>
<polygon fill="#9a32cd" stroke="#9a32cd" points="174.0001,-66.7479 177.5,-76.7479 181.0001,-66.7479 174.0001,-66.7479"/>
<text text-anchor="middle" x="187.5" y="-45.5" font-family="Helvetica,sans-Serif" font-size="10.00" fill="#000000"> m_t</text>
</g>
<!-- Node5 -->
<g id="node5" class="node">
<title>Node5</title>
<g id="a_node5"><a xlink:href="../../d9/d45/class_q_c_string.html" target="_top" xlink:title="This is an alternative implementation of QCString.">
<polygon fill="#ffffff" stroke="#666666" points="287,-96 230,-96 230,-77 287,-77 287,-96"/>
<text text-anchor="middle" x="258.5" y="-84" font-family="Helvetica,sans-Serif" font-size="10.00" fill="#000000">QCString</text>
</a>
</g>
</g>
<!-- Node5&#45;&gt;Node1 -->
<g id="edge4" class="edge">
<title>Node5&#45;&gt;Node1</title>
<path fill="none" stroke="#9a32cd" stroke-dasharray="5,2" d="M240.9224,-69.7905C224.652,-54.3235 201.0224,-31.8608 187.6754,-19.1729"/>
<polygon fill="#9a32cd" stroke="#9a32cd" points="238.5821,-72.3947 248.2413,-76.7479 243.405,-67.3213 238.5821,-72.3947"/>
<text text-anchor="middle" x="254" y="-51" font-family="Helvetica,sans-Serif" font-size="10.00" fill="#000000"> m_dir</text>
<text text-anchor="middle" x="254" y="-40" font-family="Helvetica,sans-Serif" font-size="10.00" fill="#000000">m_fileName</text>
</g>
</g>
</svg>
