<?xml version="1.0" encoding="UTF-8" standalone="no"?>
<!DOCTYPE svg PUBLIC "-//W3C//DTD SVG 1.1//EN"
 "http://www.w3.org/Graphics/SVG/1.1/DTD/svg11.dtd">
<!-- Generated by graphviz version 2.40.1 (20161225.0304)
 -->
<!-- Title: preYY_state Pages: 1 -->
<!--zoomable 313 -->
<svg id="main" version="1.1" xmlns="http://www.w3.org/2000/svg" xmlns:xlink="http://www.w3.org/1999/xlink" xml:space="preserve" onload="init(evt)">
<style type="text/css"><![CDATA[
.edge:hover path { stroke: red; }
.edge:hover polygon { stroke: red; fill: red; }
]]></style>
<script type="text/javascript"><![CDATA[
var edges = document.getElementsByTagName('g');
if (edges && edges.length) {
  for (var i=0;i<edges.length;i++) {
    if (edges[i].id.substr(0,4)=='edge') {
      edges[i].setAttribute('class','edge');
    }
  }
}
]]></script>
        <defs>
                <circle id="rim" cx="0" cy="0" r="7"/>
                <circle id="rim2" cx="0" cy="0" r="3.5"/>
                <g id="zoomPlus">
                        <use xlink:href="#rim" fill="#404040">
                                <set attributeName="fill" to="#808080" begin="zoomplus.mouseover" end="zoomplus.mouseout"/>
                        </use>
                        <path d="M-4,0h8M0,-4v8" fill="none" stroke="white" stroke-width="1.5" pointer-events="none"/>
                </g>
                <g id="zoomMin">
                        <use xlink:href="#rim" fill="#404040">
                                <set attributeName="fill" to="#808080" begin="zoomminus.mouseover" end="zoomminus.mouseout"/>
                        </use>
                        <path d="M-4,0h8" fill="none" stroke="white" stroke-width="1.5" pointer-events="none"/>
                </g>
                <g id="dirArrow">
                        <path fill="none" stroke="white" stroke-width="1.5" d="M0,-3.0v7 M-2.5,-0.5L0,-3.0L2.5,-0.5"/>
                </g>
               <g id="resetDef">
                       <use xlink:href="#rim2" fill="#404040">
                               <set attributeName="fill" to="#808080" begin="reset.mouseover" end="reset.mouseout"/>
                       </use>
               </g>
        </defs>

<script type="text/javascript">
var viewWidth = 944;
var viewHeight = 313;
var sectionId = 'dynsection-0';
</script>
<script xlink:href="../../svgpan.js"/>
<svg id="graph" class="graph">
<g id="viewport">
<title>preYY_state</title>
<!-- Node1 -->
<g id="node1" class="node">
<title>Node1</title>
<g id="a_node1"><a xlink:title=" ">
<polygon fill="#999999" stroke="#666666" points="936,-107.5 865,-107.5 865,-88.5 936,-88.5 936,-107.5"/>
<text text-anchor="middle" x="900.5" y="-95.5" font-family="Helvetica,sans-Serif" font-size="10.00" fill="#000000">preYY_state</text>
</a>
</g>
</g>
<!-- Node2 -->
<g id="node2" class="node">
<title>Node2</title>
<g id="a_node2"><a xlink:href="../../d9/d45/class_q_c_string.html" target="_top" xlink:title="This is an alternative implementation of QCString.">
<polygon fill="#ffffff" stroke="#666666" points="709,-197.5 652,-197.5 652,-178.5 709,-178.5 709,-197.5"/>
<text text-anchor="middle" x="680.5" y="-185.5" font-family="Helvetica,sans-Serif" font-size="10.00" fill="#000000">QCString</text>
</a>
</g>
</g>
<!-- Node2&#45;&gt;Node1 -->
<g id="edge1" class="edge">
<title>Node2&#45;&gt;Node1</title>
<path fill="none" stroke="#9a32cd" stroke-dasharray="5,2" d="M719.6733,-189.1188C755.0998,-188.4672 807.5933,-183.2375 847,-161 869.7441,-148.1653 887.1895,-121.7377 895.3748,-107.5317"/>
<polygon fill="#9a32cd" stroke="#9a32cd" points="719.2367,-185.6216 709.2602,-189.1879 719.2832,-192.6214 719.2367,-185.6216"/>
<text text-anchor="middle" x="809" y="-297" font-family="Helvetica,sans-Serif" font-size="10.00" fill="#000000"> blockName</text>
<text text-anchor="middle" x="809" y="-286" font-family="Helvetica,sans-Serif" font-size="10.00" fill="#000000">defArgsStr</text>
<text text-anchor="middle" x="809" y="-275" font-family="Helvetica,sans-Serif" font-size="10.00" fill="#000000">defExtraSpacing</text>
<text text-anchor="middle" x="809" y="-264" font-family="Helvetica,sans-Serif" font-size="10.00" fill="#000000">defLitText</text>
<text text-anchor="middle" x="809" y="-253" font-family="Helvetica,sans-Serif" font-size="10.00" fill="#000000">defName</text>
<text text-anchor="middle" x="809" y="-242" font-family="Helvetica,sans-Serif" font-size="10.00" fill="#000000">defText</text>
<text text-anchor="middle" x="809" y="-231" font-family="Helvetica,sans-Serif" font-size="10.00" fill="#000000">delimiter</text>
<text text-anchor="middle" x="809" y="-220" font-family="Helvetica,sans-Serif" font-size="10.00" fill="#000000">fileName</text>
<text text-anchor="middle" x="809" y="-209" font-family="Helvetica,sans-Serif" font-size="10.00" fill="#000000">guardExpr</text>
<text text-anchor="middle" x="809" y="-198" font-family="Helvetica,sans-Serif" font-size="10.00" fill="#000000">guardName</text>
<text text-anchor="middle" x="809" y="-187" font-family="Helvetica,sans-Serif" font-size="10.00" fill="#000000">...</text>
</g>
<!-- Node3 -->
<g id="node3" class="node">
<title>Node3</title>
<g id="a_node3"><a xlink:href="../../de/db0/class_file_def.html" target="_top" xlink:title="A model of a file symbol.">
<polygon fill="#ffffff" stroke="#666666" points="704.5,-152.5 656.5,-152.5 656.5,-133.5 704.5,-133.5 704.5,-152.5"/>
<text text-anchor="middle" x="680.5" y="-140.5" font-family="Helvetica,sans-Serif" font-size="10.00" fill="#000000">FileDef</text>
</a>
</g>
</g>
<!-- Node3&#45;&gt;Node1 -->
<g id="edge2" class="edge">
<title>Node3&#45;&gt;Node1</title>
<path fill="none" stroke="#9a32cd" stroke-dasharray="5,2" d="M714.9673,-141.2104C749.0254,-138.8004 802.3558,-133.293 847,-121 858.8918,-117.7255 871.5997,-112.3485 881.6451,-107.6165"/>
<polygon fill="#9a32cd" stroke="#9a32cd" points="714.3716,-137.7418 704.6221,-141.8887 714.8297,-144.7268 714.3716,-137.7418"/>
<text text-anchor="middle" x="809" y="-149" font-family="Helvetica,sans-Serif" font-size="10.00" fill="#000000"> inputFileDef</text>
<text text-anchor="middle" x="809" y="-138" font-family="Helvetica,sans-Serif" font-size="10.00" fill="#000000">yyFileDef</text>
</g>
<!-- Node4 -->
<g id="node4" class="node">
<title>Node4</title>
<g id="a_node4"><a xlink:href="../../d0/d46/class_definition_mutable.html" target="_top" xlink:title=" ">
<polygon fill="#ffffff" stroke="#666666" points="473,-153.5 381,-153.5 381,-134.5 473,-134.5 473,-153.5"/>
<text text-anchor="middle" x="427" y="-141.5" font-family="Helvetica,sans-Serif" font-size="10.00" fill="#000000">DefinitionMutable</text>
</a>
</g>
</g>
<!-- Node4&#45;&gt;Node3 -->
<g id="edge3" class="edge">
<title>Node4&#45;&gt;Node3</title>
<path fill="none" stroke="#63b8ff" d="M483.3549,-143.7777C537.5839,-143.5638 616.9891,-143.2505 656.4273,-143.095"/>
<polygon fill="#63b8ff" stroke="#63b8ff" points="483.1871,-140.2782 473.201,-143.8177 483.2148,-147.2782 483.1871,-140.2782"/>
</g>
<!-- Node5 -->
<g id="node5" class="node">
<title>Node5</title>
<g id="a_node5"><a xlink:href="../../d5/dcc/class_definition.html" target="_top" xlink:title="The common base class of all entity definitions found in the sources.">
<polygon fill="#ffffff" stroke="#666666" points="456,-116.5 398,-116.5 398,-97.5 456,-97.5 456,-116.5"/>
<text text-anchor="middle" x="427" y="-104.5" font-family="Helvetica,sans-Serif" font-size="10.00" fill="#000000">Definition</text>
</a>
</g>
</g>
<!-- Node5&#45;&gt;Node3 -->
<g id="edge4" class="edge">
<title>Node5&#45;&gt;Node3</title>
<path fill="none" stroke="#63b8ff" d="M466.1285,-112.5567C519.1785,-120.0904 612.3302,-133.3191 656.2652,-139.5584"/>
<polygon fill="#63b8ff" stroke="#63b8ff" points="466.4725,-109.0705 456.0797,-111.1297 465.4882,-116.001 466.4725,-109.0705"/>
</g>
<!-- Node6 -->
<g id="node6" class="node">
<title>Node6</title>
<g id="a_node6"><a xlink:href="../../d5/d64/class_buf_str.html" target="_top" xlink:title="Buffer used to store strings.">
<polygon fill="#ffffff" stroke="#666666" points="702.5,-108.5 658.5,-108.5 658.5,-89.5 702.5,-89.5 702.5,-108.5"/>
<text text-anchor="middle" x="680.5" y="-96.5" font-family="Helvetica,sans-Serif" font-size="10.00" fill="#000000">BufStr</text>
</a>
</g>
</g>
<!-- Node6&#45;&gt;Node1 -->
<g id="edge5" class="edge">
<title>Node6&#45;&gt;Node1</title>
<path fill="none" stroke="#9a32cd" stroke-dasharray="5,2" d="M712.953,-98.8525C753.511,-98.6681 822.6929,-98.3537 864.7393,-98.1625"/>
<polygon fill="#9a32cd" stroke="#9a32cd" points="712.7894,-95.3531 702.8055,-98.8986 712.8213,-102.353 712.7894,-95.3531"/>
<text text-anchor="middle" x="809" y="-112" font-family="Helvetica,sans-Serif" font-size="10.00" fill="#000000"> inputBuf</text>
<text text-anchor="middle" x="809" y="-101" font-family="Helvetica,sans-Serif" font-size="10.00" fill="#000000">outputBuf</text>
</g>
<!-- Node7 -->
<g id="node7" class="node">
<title>Node7</title>
<g id="a_node7"><a xlink:href="../../db/d82/class_const_expression_parser.html" target="_top" xlink:title=" ">
<polygon fill="#ffffff" stroke="#666666" points="740.5,-71.5 620.5,-71.5 620.5,-52.5 740.5,-52.5 740.5,-71.5"/>
<text text-anchor="middle" x="680.5" y="-59.5" font-family="Helvetica,sans-Serif" font-size="10.00" fill="#000000">ConstExpressionParser</text>
</a>
</g>
</g>
<!-- Node7&#45;&gt;Node1 -->
<g id="edge6" class="edge">
<title>Node7&#45;&gt;Node1</title>
<path fill="none" stroke="#9a32cd" stroke-dasharray="5,2" d="M750.8848,-68.5442C780.696,-71.9179 815.7062,-76.6757 847,-83 854.3751,-84.4905 862.2226,-86.4652 869.57,-88.4907"/>
<polygon fill="#9a32cd" stroke="#9a32cd" points="750.8947,-65.0242 740.5716,-67.4084 750.1283,-71.9822 750.8947,-65.0242"/>
<text text-anchor="middle" x="809" y="-86" font-family="Helvetica,sans-Serif" font-size="10.00" fill="#000000"> constExpParser</text>
</g>
<!-- Node8 -->
<g id="node8" class="node">
<title>Node8</title>
<g id="a_node8"><a xlink:href="../../d7/dc3/struct_const_expression_parser_1_1_private.html" target="_top" xlink:title=" ">
<polygon fill="#ffffff" stroke="#666666" points="487,-78 367,-78 367,-48 487,-48 487,-78"/>
<text text-anchor="start" x="375" y="-66" font-family="Helvetica,sans-Serif" font-size="10.00" fill="#000000">ConstExpressionParser</text>
<text text-anchor="middle" x="427" y="-55" font-family="Helvetica,sans-Serif" font-size="10.00" fill="#000000">::Private</text>
</a>
</g>
</g>
<!-- Node8&#45;&gt;Node7 -->
<g id="edge7" class="edge">
<title>Node8&#45;&gt;Node7</title>
<path fill="none" stroke="#9a32cd" stroke-dasharray="5,2" d="M497.224,-62.723C535.9195,-62.5703 583.4544,-62.3828 620.4165,-62.237"/>
<polygon fill="#9a32cd" stroke="#9a32cd" points="497.062,-59.2235 487.076,-62.763 497.0897,-66.2234 497.062,-59.2235"/>
<text text-anchor="middle" x="547.5" y="-65" font-family="Helvetica,sans-Serif" font-size="10.00" fill="#000000"> p</text>
</g>
<!-- Node9 -->
<g id="node9" class="node">
<title>Node9</title>
<g id="a_node9"><a xlink:href="../../d3/d1e/structconstexp_y_y__state.html" target="_top" xlink:title=" ">
<polygon fill="#ffffff" stroke="#666666" points="247,-72.5 150,-72.5 150,-53.5 247,-53.5 247,-72.5"/>
<text text-anchor="middle" x="198.5" y="-60.5" font-family="Helvetica,sans-Serif" font-size="10.00" fill="#000000">constexpYY_state</text>
</a>
</g>
</g>
<!-- Node9&#45;&gt;Node8 -->
<g id="edge8" class="edge">
<title>Node9&#45;&gt;Node8</title>
<path fill="none" stroke="#9a32cd" stroke-dasharray="5,2" d="M257.3894,-63C291.0302,-63 333.116,-63 366.9486,-63"/>
<polygon fill="#9a32cd" stroke="#9a32cd" points="257.2387,-59.5001 247.2387,-63 257.2387,-66.5001 257.2387,-59.5001"/>
<text text-anchor="middle" x="307" y="-66" font-family="Helvetica,sans-Serif" font-size="10.00" fill="#000000"> constexpYY_extra</text>
</g>
<!-- Node10 -->
<g id="node10" class="node">
<title>Node10</title>
<g id="a_node10"><a xlink:href="../../d2/d75/class_c_p_p_value.html" target="_top" xlink:title="A class representing a C&#45;preprocessor value.">
<polygon fill="#ffffff" stroke="#666666" points="62,-72.5 0,-72.5 0,-53.5 62,-53.5 62,-72.5"/>
<text text-anchor="middle" x="31" y="-60.5" font-family="Helvetica,sans-Serif" font-size="10.00" fill="#000000">CPPValue</text>
</a>
</g>
</g>
<!-- Node10&#45;&gt;Node9 -->
<g id="edge9" class="edge">
<title>Node10&#45;&gt;Node9</title>
<path fill="none" stroke="#9a32cd" stroke-dasharray="5,2" d="M72.4138,-63C95.8366,-63 125.2539,-63 149.7813,-63"/>
<polygon fill="#9a32cd" stroke="#9a32cd" points="72.1129,-59.5001 62.1129,-63 72.1129,-66.5001 72.1129,-59.5001"/>
<text text-anchor="middle" x="106" y="-66" font-family="Helvetica,sans-Serif" font-size="10.00" fill="#000000"> resultValue</text>
</g>
<!-- Node11 -->
<g id="node11" class="node">
<title>Node11</title>
<g id="a_node11"><a xlink:href="../../d0/d2c/class_linked_map.html" target="_top" xlink:title=" ">
<polygon fill="#ffffff" stroke="#666666" points="753,-29.5 608,-29.5 608,-10.5 753,-10.5 753,-29.5"/>
<text text-anchor="middle" x="680.5" y="-17.5" font-family="Helvetica,sans-Serif" font-size="10.00" fill="#000000">LinkedMap&lt; PreIncludeInfo &gt;</text>
</a>
</g>
</g>
<!-- Node11&#45;&gt;Node1 -->
<g id="edge10" class="edge">
<title>Node11&#45;&gt;Node1</title>
<path fill="none" stroke="#9a32cd" stroke-dasharray="5,2" d="M763.2883,-30.2802C790.7951,-35.6645 821.0153,-43.7908 847,-56 864.3137,-64.135 881.1389,-78.7931 891.1606,-88.4609"/>
<polygon fill="#9a32cd" stroke="#9a32cd" points="763.7616,-26.8083 753.2898,-28.4181 762.4799,-33.6899 763.7616,-26.8083"/>
<text text-anchor="middle" x="809" y="-59" font-family="Helvetica,sans-Serif" font-size="10.00" fill="#000000"> includeRelations</text>
</g>
<!-- Node12 -->
<g id="node12" class="node">
<title>Node12</title>
<g id="a_node12"><a xlink:href="../../d0/d2c/class_linked_map.html" target="_top" xlink:title="Container class representing a vector of objects with keys.">
<polygon fill="#ffffff" stroke="#666666" points="482.5,-30 371.5,-30 371.5,0 482.5,0 482.5,-30"/>
<text text-anchor="start" x="379.5" y="-18" font-family="Helvetica,sans-Serif" font-size="10.00" fill="#000000">LinkedMap&lt; T, Hash,</text>
<text text-anchor="middle" x="427" y="-7" font-family="Helvetica,sans-Serif" font-size="10.00" fill="#000000"> KeyEqual, Map &gt;</text>
</a>
</g>
</g>
<!-- Node12&#45;&gt;Node11 -->
<g id="edge11" class="edge">
<title>Node12&#45;&gt;Node11</title>
<path fill="none" stroke="#ffa500" stroke-dasharray="5,2" d="M492.8014,-16.2979C528.0054,-16.9922 571.442,-17.849 607.6607,-18.5633"/>
<polygon fill="#ffa500" stroke="#ffa500" points="492.6988,-12.7952 482.6317,-16.0973 492.5607,-19.7939 492.6988,-12.7952"/>
<text text-anchor="middle" x="547.5" y="-22" font-family="Helvetica,sans-Serif" font-size="10.00" fill="#000000"> &lt; PreIncludeInfo &gt;</text>
</g>
</g>
</svg>
        <g id="navigator" transform="translate(0 0)" fill="#404254">
                <rect fill="#f2f5e9" fill-opacity="0.5" stroke="#606060" stroke-width=".5" x="0" y="0" width="60" height="60"/>
                <use id="zoomplus" xlink:href="#zoomPlus" x="17" y="9" onmousedown="handleZoom(evt,'in')"/>
                <use id="zoomminus" xlink:href="#zoomMin" x="42" y="9" onmousedown="handleZoom(evt,'out')"/>
                <use id="reset" xlink:href="#resetDef" x="30" y="36" onmousedown="handleReset()"/>
                <g id="arrowUp" xlink:href="#dirArrow" transform="translate(30 24)" onmousedown="handlePan(0,-1)">
                  <use xlink:href="#rim" fill="#404040">
                        <set attributeName="fill" to="#808080" begin="arrowUp.mouseover" end="arrowUp.mouseout"/>
                  </use>
                  <path fill="none" stroke="white" stroke-width="1.5" d="M0,-3.0v7 M-2.5,-0.5L0,-3.0L2.5,-0.5"/>
                </g>
                <g id="arrowRight" xlink:href="#dirArrow" transform="rotate(90) translate(36 -43)" onmousedown="handlePan(1,0)">
                  <use xlink:href="#rim" fill="#404040">
                        <set attributeName="fill" to="#808080" begin="arrowRight.mouseover" end="arrowRight.mouseout"/>
                  </use>
                  <path fill="none" stroke="white" stroke-width="1.5" d="M0,-3.0v7 M-2.5,-0.5L0,-3.0L2.5,-0.5"/>
                </g>
                <g id="arrowDown" xlink:href="#dirArrow" transform="rotate(180) translate(-30 -48)" onmousedown="handlePan(0,1)">
                  <use xlink:href="#rim" fill="#404040">
                        <set attributeName="fill" to="#808080" begin="arrowDown.mouseover" end="arrowDown.mouseout"/>
                  </use>
                  <path fill="none" stroke="white" stroke-width="1.5" d="M0,-3.0v7 M-2.5,-0.5L0,-3.0L2.5,-0.5"/>
                </g>
                <g id="arrowLeft" xlink:href="#dirArrow" transform="rotate(270) translate(-36 17)" onmousedown="handlePan(-1,0)">
                  <use xlink:href="#rim" fill="#404040">
                        <set attributeName="fill" to="#808080" begin="arrowLeft.mouseover" end="arrowLeft.mouseout"/>
                  </use>
                  <path fill="none" stroke="white" stroke-width="1.5" d="M0,-3.0v7 M-2.5,-0.5L0,-3.0L2.5,-0.5"/>
                </g>
        </g>
        <svg viewBox="0 0 15 15" width="100%" height="30px" preserveAspectRatio="xMaxYMin meet">
         <g id="arrow_out" transform="scale(0.3 0.3)">
          <a xlink:href="structpre_y_y__state__coll__graph_org.svg" target="_base">
           <rect id="button" ry="5" rx="5" y="6" x="6" height="38" width="38"
                fill="#f2f5e9" fill-opacity="0.5" stroke="#606060" stroke-width="1.0"/>
           <path id="arrow"
             d="M 11.500037,31.436501 C 11.940474,20.09759 22.043105,11.32322 32.158766,21.979434 L 37.068811,17.246167 C 37.068811,17.246167 37.088388,32 37.088388,32 L 22.160133,31.978069 C 22.160133,31.978069 26.997745,27.140456 26.997745,27.140456 C 18.528582,18.264221 13.291696,25.230495 11.500037,31.436501 z"
             style="fill:#404040;"/>
          </a>
         </g>
        </svg>
</svg>
