<?xml version="1.0" encoding="UTF-8" standalone="no"?>
<!DOCTYPE svg PUBLIC "-//W3C//DTD SVG 1.1//EN"
 "http://www.w3.org/Graphics/SVG/1.1/DTD/svg11.dtd">
<!-- Generated by graphviz version 2.40.1 (20161225.0304)
 -->
<!-- Title: src/arguments.cpp Pages: 1 -->
<svg width="509pt" height="247pt"
 viewBox="0.00 0.00 508.50 247.00" xmlns="http://www.w3.org/2000/svg" xmlns:xlink="http://www.w3.org/1999/xlink">
<g id="graph0" class="graph" transform="scale(1 1) rotate(0) translate(4 243)">
<title>src/arguments.cpp</title>
<!-- Node1 -->
<g id="node1" class="node">
<title>Node1</title>
<g id="a_node1"><a xlink:title=" ">
<polygon fill="#999999" stroke="#666666" points="206,-239 108,-239 108,-220 206,-220 206,-239"/>
<text text-anchor="middle" x="157" y="-227" font-family="Helvetica,sans-Serif" font-size="10.00" fill="#000000">src/arguments.cpp</text>
</a>
</g>
</g>
<!-- Node2 -->
<g id="node2" class="node">
<title>Node2</title>
<g id="a_node2"><a xlink:title=" ">
<polygon fill="#e0e0e0" stroke="#999999" points="56,-74 0,-74 0,-55 56,-55 56,-74"/>
<text text-anchor="middle" x="28" y="-62" font-family="Helvetica,sans-Serif" font-size="10.00" fill="#000000">algorithm</text>
</a>
</g>
</g>
<!-- Node1&#45;&gt;Node2 -->
<g id="edge1" class="edge">
<title>Node1&#45;&gt;Node2</title>
<path fill="none" stroke="#63b8ff" d="M149.3168,-219.6726C128.2052,-192.6695 69.0832,-117.0483 41.9416,-82.3322"/>
<polygon fill="#63b8ff" stroke="#63b8ff" points="44.3979,-79.7915 35.4814,-74.0692 38.8833,-84.103 44.3979,-79.7915"/>
</g>
<!-- Node3 -->
<g id="node3" class="node">
<title>Node3</title>
<g id="a_node3"><a xlink:href="../../df/d9b/arguments_8h.html" target="_top" xlink:title=" ">
<polygon fill="#ffffff" stroke="#666666" points="290.5,-184 219.5,-184 219.5,-165 290.5,-165 290.5,-184"/>
<text text-anchor="middle" x="255" y="-172" font-family="Helvetica,sans-Serif" font-size="10.00" fill="#000000">arguments.h</text>
</a>
</g>
</g>
<!-- Node1&#45;&gt;Node3 -->
<g id="edge2" class="edge">
<title>Node1&#45;&gt;Node3</title>
<path fill="none" stroke="#63b8ff" d="M174.0703,-219.9197C189.1545,-211.4541 211.389,-198.9755 228.7375,-189.2391"/>
<polygon fill="#63b8ff" stroke="#63b8ff" points="230.789,-192.1014 237.7965,-184.155 227.363,-185.9971 230.789,-192.1014"/>
</g>
<!-- Node4 -->
<g id="node4" class="node">
<title>Node4</title>
<g id="a_node4"><a xlink:title=" ">
<polygon fill="#e0e0e0" stroke="#999999" points="347,-129 303,-129 303,-110 347,-110 347,-129"/>
<text text-anchor="middle" x="325" y="-117" font-family="Helvetica,sans-Serif" font-size="10.00" fill="#000000">vector</text>
</a>
</g>
</g>
<!-- Node3&#45;&gt;Node4 -->
<g id="edge3" class="edge">
<title>Node3&#45;&gt;Node4</title>
<path fill="none" stroke="#63b8ff" d="M267.1931,-164.9197C277.4056,-156.8956 292.2068,-145.2661 304.2753,-135.7837"/>
<polygon fill="#63b8ff" stroke="#63b8ff" points="306.7745,-138.2712 312.4753,-129.3408 302.4497,-132.767 306.7745,-138.2712"/>
</g>
<!-- Node5 -->
<g id="node5" class="node">
<title>Node5</title>
<g id="a_node5"><a xlink:href="../../d7/d5c/qcstring_8h.html" target="_top" xlink:title=" ">
<polygon fill="#ffffff" stroke="#666666" points="284.5,-129 225.5,-129 225.5,-110 284.5,-110 284.5,-129"/>
<text text-anchor="middle" x="255" y="-117" font-family="Helvetica,sans-Serif" font-size="10.00" fill="#000000">qcstring.h</text>
</a>
</g>
</g>
<!-- Node3&#45;&gt;Node5 -->
<g id="edge4" class="edge">
<title>Node3&#45;&gt;Node5</title>
<path fill="none" stroke="#63b8ff" d="M255,-164.9197C255,-157.9083 255,-148.1442 255,-139.4652"/>
<polygon fill="#63b8ff" stroke="#63b8ff" points="258.5001,-139.3408 255,-129.3408 251.5001,-139.3409 258.5001,-139.3408"/>
</g>
<!-- Node5&#45;&gt;Node2 -->
<g id="edge6" class="edge">
<title>Node5&#45;&gt;Node2</title>
<path fill="none" stroke="#63b8ff" d="M225.3443,-112.556C189.8283,-104.2053 128.2832,-89.626 66.2295,-74.2779"/>
<polygon fill="#63b8ff" stroke="#63b8ff" points="66.8182,-70.818 56.2698,-71.8089 65.1338,-77.6123 66.8182,-70.818"/>
</g>
<!-- Node6 -->
<g id="node6" class="node">
<title>Node6</title>
<g id="a_node6"><a xlink:title=" ">
<polygon fill="#e0e0e0" stroke="#999999" points="500.5,-19 459.5,-19 459.5,0 500.5,0 500.5,-19"/>
<text text-anchor="middle" x="480" y="-7" font-family="Helvetica,sans-Serif" font-size="10.00" fill="#000000">string</text>
</a>
</g>
</g>
<!-- Node5&#45;&gt;Node6 -->
<g id="edge5" class="edge">
<title>Node5&#45;&gt;Node6</title>
<path fill="none" stroke="#63b8ff" d="M284.7727,-112.0737C287.8832,-111.3499 291.0025,-110.6456 294,-110 336.437,-100.8598 458.2767,-107.4045 486,-74 496.3021,-61.5868 493.1759,-42.8348 488.4351,-28.7443"/>
<polygon fill="#63b8ff" stroke="#63b8ff" points="491.5616,-27.1249 484.6907,-19.0601 485.0326,-29.6494 491.5616,-27.1249"/>
</g>
<!-- Node7 -->
<g id="node7" class="node">
<title>Node7</title>
<g id="a_node7"><a xlink:title=" ">
<polygon fill="#e0e0e0" stroke="#999999" points="120,-74 74,-74 74,-55 120,-55 120,-74"/>
<text text-anchor="middle" x="97" y="-62" font-family="Helvetica,sans-Serif" font-size="10.00" fill="#000000">cctype</text>
</a>
</g>
</g>
<!-- Node5&#45;&gt;Node7 -->
<g id="edge7" class="edge">
<title>Node5&#45;&gt;Node7</title>
<path fill="none" stroke="#63b8ff" d="M227.4785,-109.9197C200.2718,-100.449 158.6372,-85.956 129.745,-75.8986"/>
<polygon fill="#63b8ff" stroke="#63b8ff" points="130.6962,-72.5238 120.1014,-72.5416 128.3949,-79.1347 130.6962,-72.5238"/>
</g>
<!-- Node8 -->
<g id="node8" class="node">
<title>Node8</title>
<g id="a_node8"><a xlink:title=" ">
<polygon fill="#e0e0e0" stroke="#999999" points="184,-74 138,-74 138,-55 184,-55 184,-74"/>
<text text-anchor="middle" x="161" y="-62" font-family="Helvetica,sans-Serif" font-size="10.00" fill="#000000">cstring</text>
</a>
</g>
</g>
<!-- Node5&#45;&gt;Node8 -->
<g id="edge8" class="edge">
<title>Node5&#45;&gt;Node8</title>
<path fill="none" stroke="#63b8ff" d="M238.6264,-109.9197C224.1579,-101.4541 202.8309,-88.9755 186.1905,-79.2391"/>
<polygon fill="#63b8ff" stroke="#63b8ff" points="187.9,-76.1843 177.5013,-74.155 184.3649,-82.2261 187.9,-76.1843"/>
</g>
<!-- Node9 -->
<g id="node9" class="node">
<title>Node9</title>
<g id="a_node9"><a xlink:title=" ">
<polygon fill="#e0e0e0" stroke="#999999" points="245.5,-74 202.5,-74 202.5,-55 245.5,-55 245.5,-74"/>
<text text-anchor="middle" x="224" y="-62" font-family="Helvetica,sans-Serif" font-size="10.00" fill="#000000">cstdio</text>
</a>
</g>
</g>
<!-- Node5&#45;&gt;Node9 -->
<g id="edge9" class="edge">
<title>Node5&#45;&gt;Node9</title>
<path fill="none" stroke="#63b8ff" d="M249.6002,-109.9197C245.4727,-102.5967 239.6527,-92.2709 234.6047,-83.3147"/>
<polygon fill="#63b8ff" stroke="#63b8ff" points="237.5059,-81.3338 229.5466,-74.3408 231.4078,-84.7709 237.5059,-81.3338"/>
</g>
<!-- Node10 -->
<g id="node10" class="node">
<title>Node10</title>
<g id="a_node10"><a xlink:title=" ">
<polygon fill="#e0e0e0" stroke="#999999" points="308.5,-74 263.5,-74 263.5,-55 308.5,-55 308.5,-74"/>
<text text-anchor="middle" x="286" y="-62" font-family="Helvetica,sans-Serif" font-size="10.00" fill="#000000">cstdlib</text>
</a>
</g>
</g>
<!-- Node5&#45;&gt;Node10 -->
<g id="edge10" class="edge">
<title>Node5&#45;&gt;Node10</title>
<path fill="none" stroke="#63b8ff" d="M260.3998,-109.9197C264.5273,-102.5967 270.3473,-92.2709 275.3953,-83.3147"/>
<polygon fill="#63b8ff" stroke="#63b8ff" points="278.5922,-84.7709 280.4534,-74.3408 272.4941,-81.3338 278.5922,-84.7709"/>
</g>
<!-- Node11 -->
<g id="node11" class="node">
<title>Node11</title>
<g id="a_node11"><a xlink:title=" ">
<polygon fill="#e0e0e0" stroke="#999999" points="413,-19 367,-19 367,0 413,0 413,-19"/>
<text text-anchor="middle" x="390" y="-7" font-family="Helvetica,sans-Serif" font-size="10.00" fill="#000000">cstdint</text>
</a>
</g>
</g>
<!-- Node5&#45;&gt;Node11 -->
<g id="edge11" class="edge">
<title>Node5&#45;&gt;Node11</title>
<path fill="none" stroke="#63b8ff" d="M269.0755,-109.9666C282.0531,-101.03 301.7129,-87.1169 318,-74 337.23,-58.5131 358.1375,-39.5234 372.4429,-26.1723"/>
<polygon fill="#63b8ff" stroke="#63b8ff" points="375.1504,-28.431 380.0403,-19.032 370.3564,-23.3302 375.1504,-28.431"/>
</g>
<!-- Node12 -->
<g id="node12" class="node">
<title>Node12</title>
<g id="a_node12"><a xlink:title=" ">
<polygon fill="#e0e0e0" stroke="#999999" points="417,-74 365,-74 365,-55 417,-55 417,-74"/>
<text text-anchor="middle" x="391" y="-62" font-family="Helvetica,sans-Serif" font-size="10.00" fill="#000000">ostream</text>
</a>
</g>
</g>
<!-- Node5&#45;&gt;Node12 -->
<g id="edge12" class="edge">
<title>Node5&#45;&gt;Node12</title>
<path fill="none" stroke="#63b8ff" d="M278.6894,-109.9197C300.5917,-101.0622 333.357,-87.8115 357.8527,-77.9052"/>
<polygon fill="#63b8ff" stroke="#63b8ff" points="359.1674,-81.1489 367.1258,-74.155 356.5429,-74.6595 359.1674,-81.1489"/>
</g>
<!-- Node13 -->
<g id="node13" class="node">
<title>Node13</title>
<g id="a_node13"><a xlink:href="../../db/d7c/utf8_8h.html" target="_top" xlink:title="Various UTF8 related helper functions.">
<polygon fill="#ffffff" stroke="#666666" points="476.5,-74 435.5,-74 435.5,-55 476.5,-55 476.5,-74"/>
<text text-anchor="middle" x="456" y="-62" font-family="Helvetica,sans-Serif" font-size="10.00" fill="#000000">utf8.h</text>
</a>
</g>
</g>
<!-- Node5&#45;&gt;Node13 -->
<g id="edge13" class="edge">
<title>Node5&#45;&gt;Node13</title>
<path fill="none" stroke="#63b8ff" d="M284.7726,-112.0267C317.1106,-103.8113 370.4956,-89.9647 425.7729,-73.9658"/>
<polygon fill="#63b8ff" stroke="#63b8ff" points="426.7588,-77.3241 435.3818,-71.1681 424.802,-70.6032 426.7588,-77.3241"/>
</g>
<!-- Node13&#45;&gt;Node6 -->
<g id="edge15" class="edge">
<title>Node13&#45;&gt;Node6</title>
<path fill="none" stroke="#63b8ff" d="M460.1805,-54.9197C463.342,-47.6746 467.7861,-37.4903 471.665,-28.601"/>
<polygon fill="#63b8ff" stroke="#63b8ff" points="474.9142,-29.9061 475.7058,-19.3408 468.4984,-27.1064 474.9142,-29.9061"/>
</g>
<!-- Node13&#45;&gt;Node11 -->
<g id="edge14" class="edge">
<title>Node13&#45;&gt;Node11</title>
<path fill="none" stroke="#63b8ff" d="M444.5037,-54.9197C434.8747,-46.8956 420.9193,-35.2661 409.5405,-25.7837"/>
<polygon fill="#63b8ff" stroke="#63b8ff" points="411.7319,-23.0539 401.809,-19.3408 407.2506,-28.4315 411.7319,-23.0539"/>
</g>
</g>
</svg>
