<?xml version="1.0" encoding="UTF-8" standalone="no"?>
<!DOCTYPE svg PUBLIC "-//W3C//DTD SVG 1.1//EN"
 "http://www.w3.org/Graphics/SVG/1.1/DTD/svg11.dtd">
<!-- Generated by graphviz version 2.40.1 (20161225.0304)
 -->
<!-- Title: PageDefImpl Pages: 1 -->
<svg width="295pt" height="205pt"
 viewBox="0.00 0.00 295.00 205.00" xmlns="http://www.w3.org/2000/svg" xmlns:xlink="http://www.w3.org/1999/xlink">
<g id="graph0" class="graph" transform="scale(1 1) rotate(0) translate(4 201)">
<title>PageDefImpl</title>
<!-- Node1 -->
<g id="node1" class="node">
<title>Node1</title>
<g id="a_node1"><a xlink:title=" ">
<polygon fill="#999999" stroke="#666666" points="209,-19 135,-19 135,0 209,0 209,-19"/>
<text text-anchor="middle" x="172" y="-7" font-family="Helvetica,sans-Serif" font-size="10.00" fill="#000000">PageDefImpl</text>
</a>
</g>
</g>
<!-- Node2 -->
<g id="node2" class="node">
<title>Node2</title>
<g id="a_node2"><a xlink:href="../../dd/d10/class_definition_mixin.html" target="_top" xlink:title=" ">
<polygon fill="#ffffff" stroke="#666666" points="240.5,-75 103.5,-75 103.5,-56 240.5,-56 240.5,-75"/>
<text text-anchor="middle" x="172" y="-63" font-family="Helvetica,sans-Serif" font-size="10.00" fill="#000000">DefinitionMixin&lt; PageDef &gt;</text>
</a>
</g>
</g>
<!-- Node2&#45;&gt;Node1 -->
<g id="edge1" class="edge">
<title>Node2&#45;&gt;Node1</title>
<path fill="none" stroke="#63b8ff" d="M172,-45.6575C172,-36.655 172,-26.4199 172,-19.1427"/>
<polygon fill="#63b8ff" stroke="#63b8ff" points="168.5001,-45.7455 172,-55.7455 175.5001,-45.7456 168.5001,-45.7455"/>
</g>
<!-- Node3 -->
<g id="node3" class="node">
<title>Node3</title>
<g id="a_node3"><a xlink:href="../../dd/d41/class_page_def.html" target="_top" xlink:title="A model of a page symbol.">
<polygon fill="#ffffff" stroke="#666666" points="146.5,-141 91.5,-141 91.5,-122 146.5,-122 146.5,-141"/>
<text text-anchor="middle" x="119" y="-129" font-family="Helvetica,sans-Serif" font-size="10.00" fill="#000000">PageDef</text>
</a>
</g>
</g>
<!-- Node3&#45;&gt;Node2 -->
<g id="edge2" class="edge">
<title>Node3&#45;&gt;Node2</title>
<path fill="none" stroke="#63b8ff" d="M133.1261,-113.909C143.063,-101.5347 155.9934,-85.4328 164.1476,-75.2785"/>
<polygon fill="#63b8ff" stroke="#63b8ff" points="130.3527,-111.7728 126.8203,-121.7615 135.8107,-116.1558 130.3527,-111.7728"/>
</g>
<!-- Node4 -->
<g id="node4" class="node">
<title>Node4</title>
<g id="a_node4"><a xlink:href="../../d0/d46/class_definition_mutable.html" target="_top" xlink:title=" ">
<polygon fill="#ffffff" stroke="#666666" points="92,-197 0,-197 0,-178 92,-178 92,-197"/>
<text text-anchor="middle" x="46" y="-185" font-family="Helvetica,sans-Serif" font-size="10.00" fill="#000000">DefinitionMutable</text>
</a>
</g>
</g>
<!-- Node4&#45;&gt;Node3 -->
<g id="edge3" class="edge">
<title>Node4&#45;&gt;Node3</title>
<path fill="none" stroke="#63b8ff" d="M66.951,-171.428C79.7107,-161.6397 95.5885,-149.4595 106.4301,-141.1427"/>
<polygon fill="#63b8ff" stroke="#63b8ff" points="64.5196,-168.8819 58.7156,-177.7455 68.7803,-174.4359 64.5196,-168.8819"/>
</g>
<!-- Node5 -->
<g id="node5" class="node">
<title>Node5</title>
<g id="a_node5"><a xlink:href="../../d5/dcc/class_definition.html" target="_top" xlink:title="The common base class of all entity definitions found in the sources.">
<polygon fill="#ffffff" stroke="#666666" points="168,-197 110,-197 110,-178 168,-178 168,-197"/>
<text text-anchor="middle" x="139" y="-185" font-family="Helvetica,sans-Serif" font-size="10.00" fill="#000000">Definition</text>
</a>
</g>
</g>
<!-- Node5&#45;&gt;Node3 -->
<g id="edge4" class="edge">
<title>Node5&#45;&gt;Node3</title>
<path fill="none" stroke="#63b8ff" d="M132.1247,-168.2493C128.8594,-159.1064 125.0999,-148.5798 122.4438,-141.1427"/>
<polygon fill="#63b8ff" stroke="#63b8ff" points="128.8567,-169.5053 135.5163,-177.7455 135.4489,-167.1509 128.8567,-169.5053"/>
</g>
<!-- Node6 -->
<g id="node6" class="node">
<title>Node6</title>
<g id="a_node6"><a xlink:href="../../dd/d10/class_definition_mixin.html" target="_top" xlink:title=" ">
<polygon fill="#ffffff" stroke="#666666" points="287,-141 165,-141 165,-122 287,-122 287,-141"/>
<text text-anchor="middle" x="226" y="-129" font-family="Helvetica,sans-Serif" font-size="10.00" fill="#000000">DefinitionMixin&lt; Base &gt;</text>
</a>
</g>
</g>
<!-- Node6&#45;&gt;Node2 -->
<g id="edge5" class="edge">
<title>Node6&#45;&gt;Node2</title>
<path fill="none" stroke="#ffa500" stroke-dasharray="5,2" d="M211.6074,-113.909C201.4829,-101.5347 188.3087,-85.4328 180.0006,-75.2785"/>
<polygon fill="#ffa500" stroke="#ffa500" points="208.9908,-116.2382 218.0321,-121.7615 214.4086,-111.8055 208.9908,-116.2382"/>
<text text-anchor="middle" x="233" y="-96" font-family="Helvetica,sans-Serif" font-size="10.00" fill="#000000"> &lt; PageDef &gt;</text>
</g>
<!-- Node7 -->
<g id="node7" class="node">
<title>Node7</title>
<g id="a_node7"><a xlink:title=" ">
<polygon fill="#ffffff" stroke="#666666" points="245.5,-197 206.5,-197 206.5,-178 245.5,-178 245.5,-197"/>
<text text-anchor="middle" x="226" y="-185" font-family="Helvetica,sans-Serif" font-size="10.00" fill="#000000">Base</text>
</a>
</g>
</g>
<!-- Node7&#45;&gt;Node6 -->
<g id="edge6" class="edge">
<title>Node7&#45;&gt;Node6</title>
<path fill="none" stroke="#63b8ff" d="M226,-167.6575C226,-158.655 226,-148.4199 226,-141.1427"/>
<polygon fill="#63b8ff" stroke="#63b8ff" points="222.5001,-167.7455 226,-177.7455 229.5001,-167.7456 222.5001,-167.7455"/>
</g>
</g>
</svg>
