<?xml version="1.0" encoding="UTF-8" standalone="no"?>
<!DOCTYPE svg PUBLIC "-//W3C//DTD SVG 1.1//EN"
 "http://www.w3.org/Graphics/SVG/1.1/DTD/svg11.dtd">
<!-- Generated by graphviz version 2.40.1 (20161225.0304)
 -->
<!-- Title: LayoutDocEntrySection Pages: 1 -->
<svg width="128pt" height="137pt"
 viewBox="0.00 0.00 128.00 137.00" xmlns="http://www.w3.org/2000/svg" xmlns:xlink="http://www.w3.org/1999/xlink">
<g id="graph0" class="graph" transform="scale(1 1) rotate(0) translate(4 133)">
<title>LayoutDocEntrySection</title>
<!-- Node1 -->
<g id="node1" class="node">
<title>Node1</title>
<g id="a_node1"><a xlink:title=" ">
<polygon fill="#999999" stroke="#666666" points="120,-19 0,-19 0,0 120,0 120,-19"/>
<text text-anchor="middle" x="60" y="-7" font-family="Helvetica,sans-Serif" font-size="10.00" fill="#000000">LayoutDocEntrySection</text>
</a>
</g>
</g>
<!-- Node2 -->
<g id="node2" class="node">
<title>Node2</title>
<g id="a_node2"><a xlink:href="../../d4/dc3/struct_layout_doc_entry_simple.html" target="_top" xlink:title="Represents of a piece of a documentation page without configurable parts.">
<polygon fill="#ffffff" stroke="#666666" points="118.5,-74 1.5,-74 1.5,-55 118.5,-55 118.5,-74"/>
<text text-anchor="middle" x="60" y="-62" font-family="Helvetica,sans-Serif" font-size="10.00" fill="#000000">LayoutDocEntrySimple</text>
</a>
</g>
</g>
<!-- Node2&#45;&gt;Node1 -->
<g id="edge1" class="edge">
<title>Node2&#45;&gt;Node1</title>
<path fill="none" stroke="#63b8ff" d="M60,-44.8553C60,-36.2036 60,-26.4195 60,-19.3408"/>
<polygon fill="#63b8ff" stroke="#63b8ff" points="56.5001,-44.9197 60,-54.9197 63.5001,-44.9198 56.5001,-44.9197"/>
</g>
<!-- Node3 -->
<g id="node3" class="node">
<title>Node3</title>
<g id="a_node3"><a xlink:href="../../d9/dba/struct_layout_doc_entry.html" target="_top" xlink:title="Base class representing a piece of a documentation page.">
<polygon fill="#ffffff" stroke="#666666" points="103.5,-129 16.5,-129 16.5,-110 103.5,-110 103.5,-129"/>
<text text-anchor="middle" x="60" y="-117" font-family="Helvetica,sans-Serif" font-size="10.00" fill="#000000">LayoutDocEntry</text>
</a>
</g>
</g>
<!-- Node3&#45;&gt;Node2 -->
<g id="edge2" class="edge">
<title>Node3&#45;&gt;Node2</title>
<path fill="none" stroke="#63b8ff" d="M60,-99.8553C60,-91.2036 60,-81.4195 60,-74.3408"/>
<polygon fill="#63b8ff" stroke="#63b8ff" points="56.5001,-99.9197 60,-109.9197 63.5001,-99.9198 56.5001,-99.9197"/>
</g>
</g>
</svg>
