<?xml version="1.0" encoding="UTF-8" standalone="no"?>
<!DOCTYPE svg PUBLIC "-//W3C//DTD SVG 1.1//EN"
 "http://www.w3.org/Graphics/SVG/1.1/DTD/svg11.dtd">
<!-- Generated by graphviz version 2.40.1 (20161225.0304)
 -->
<!-- Title: TranslatorChinesetraditional Pages: 1 -->
<svg width="181pt" height="429pt"
 viewBox="0.00 0.00 181.00 429.00" xmlns="http://www.w3.org/2000/svg" xmlns:xlink="http://www.w3.org/1999/xlink">
<g id="graph0" class="graph" transform="scale(1 1) rotate(0) translate(4 425)">
<title>TranslatorChinesetraditional</title>
<!-- Node1 -->
<g id="node1" class="node">
<title>Node1</title>
<g id="a_node1"><a xlink:title=" ">
<polygon fill="#999999" stroke="#666666" points="138,-19 0,-19 0,0 138,0 138,-19"/>
<text text-anchor="middle" x="69" y="-7" font-family="Helvetica,sans-Serif" font-size="10.00" fill="#000000">TranslatorChinesetraditional</text>
</a>
</g>
</g>
<!-- Node2 -->
<g id="node2" class="node">
<title>Node2</title>
<g id="a_node2"><a xlink:href="../../d4/d2e/class_translator_adapter__1__8__15.html" target="_top" xlink:title=" ">
<polygon fill="#ffffff" stroke="#666666" points="134.5,-75 3.5,-75 3.5,-56 134.5,-56 134.5,-75"/>
<text text-anchor="middle" x="69" y="-63" font-family="Helvetica,sans-Serif" font-size="10.00" fill="#000000">TranslatorAdapter_1_8_15</text>
</a>
</g>
</g>
<!-- Node2&#45;&gt;Node1 -->
<g id="edge1" class="edge">
<title>Node2&#45;&gt;Node1</title>
<path fill="none" stroke="#63b8ff" d="M69,-45.6575C69,-36.655 69,-26.4199 69,-19.1427"/>
<polygon fill="#63b8ff" stroke="#63b8ff" points="65.5001,-45.7455 69,-55.7455 72.5001,-45.7456 65.5001,-45.7455"/>
</g>
<!-- Node3 -->
<g id="node3" class="node">
<title>Node3</title>
<g id="a_node3"><a xlink:href="../../de/dde/class_translator_adapter__1__8__19.html" target="_top" xlink:title=" ">
<polygon fill="#ffffff" stroke="#666666" points="134.5,-131 3.5,-131 3.5,-112 134.5,-112 134.5,-131"/>
<text text-anchor="middle" x="69" y="-119" font-family="Helvetica,sans-Serif" font-size="10.00" fill="#000000">TranslatorAdapter_1_8_19</text>
</a>
</g>
</g>
<!-- Node3&#45;&gt;Node2 -->
<g id="edge2" class="edge">
<title>Node3&#45;&gt;Node2</title>
<path fill="none" stroke="#63b8ff" d="M69,-101.6575C69,-92.655 69,-82.4199 69,-75.1427"/>
<polygon fill="#63b8ff" stroke="#63b8ff" points="65.5001,-101.7455 69,-111.7455 72.5001,-101.7456 65.5001,-101.7455"/>
</g>
<!-- Node4 -->
<g id="node4" class="node">
<title>Node4</title>
<g id="a_node4"><a xlink:href="../../d3/d2e/class_translator_adapter__1__9__2.html" target="_top" xlink:title=" ">
<polygon fill="#ffffff" stroke="#666666" points="131.5,-187 6.5,-187 6.5,-168 131.5,-168 131.5,-187"/>
<text text-anchor="middle" x="69" y="-175" font-family="Helvetica,sans-Serif" font-size="10.00" fill="#000000">TranslatorAdapter_1_9_2</text>
</a>
</g>
</g>
<!-- Node4&#45;&gt;Node3 -->
<g id="edge3" class="edge">
<title>Node4&#45;&gt;Node3</title>
<path fill="none" stroke="#63b8ff" d="M69,-157.6575C69,-148.655 69,-138.4199 69,-131.1427"/>
<polygon fill="#63b8ff" stroke="#63b8ff" points="65.5001,-157.7455 69,-167.7455 72.5001,-157.7456 65.5001,-157.7455"/>
</g>
<!-- Node5 -->
<g id="node5" class="node">
<title>Node5</title>
<g id="a_node5"><a xlink:href="../../d0/d33/class_translator_adapter__1__9__4.html" target="_top" xlink:title=" ">
<polygon fill="#ffffff" stroke="#666666" points="131.5,-243 6.5,-243 6.5,-224 131.5,-224 131.5,-243"/>
<text text-anchor="middle" x="69" y="-231" font-family="Helvetica,sans-Serif" font-size="10.00" fill="#000000">TranslatorAdapter_1_9_4</text>
</a>
</g>
</g>
<!-- Node5&#45;&gt;Node4 -->
<g id="edge4" class="edge">
<title>Node5&#45;&gt;Node4</title>
<path fill="none" stroke="#63b8ff" d="M69,-213.6575C69,-204.655 69,-194.4199 69,-187.1427"/>
<polygon fill="#63b8ff" stroke="#63b8ff" points="65.5001,-213.7455 69,-223.7455 72.5001,-213.7456 65.5001,-213.7455"/>
</g>
<!-- Node6 -->
<g id="node6" class="node">
<title>Node6</title>
<g id="a_node6"><a xlink:href="../../db/d6c/class_translator_adapter_base.html" target="_top" xlink:title="Base of the translator adapter tree.">
<polygon fill="#ffffff" stroke="#666666" points="127,-299 11,-299 11,-280 127,-280 127,-299"/>
<text text-anchor="middle" x="69" y="-287" font-family="Helvetica,sans-Serif" font-size="10.00" fill="#000000">TranslatorAdapterBase</text>
</a>
</g>
</g>
<!-- Node6&#45;&gt;Node5 -->
<g id="edge5" class="edge">
<title>Node6&#45;&gt;Node5</title>
<path fill="none" stroke="#63b8ff" d="M69,-269.6575C69,-260.655 69,-250.4199 69,-243.1427"/>
<polygon fill="#63b8ff" stroke="#63b8ff" points="65.5001,-269.7455 69,-279.7455 72.5001,-269.7456 65.5001,-269.7455"/>
</g>
<!-- Node7 -->
<g id="node7" class="node">
<title>Node7</title>
<g id="a_node7"><a xlink:href="../../d8/dfb/class_translator.html" target="_top" xlink:title="Abstract base class for all translatable text fragments.">
<polygon fill="#ffffff" stroke="#666666" points="95,-421 35,-421 35,-402 95,-402 95,-421"/>
<text text-anchor="middle" x="65" y="-409" font-family="Helvetica,sans-Serif" font-size="10.00" fill="#000000">Translator</text>
</a>
</g>
</g>
<!-- Node7&#45;&gt;Node6 -->
<g id="edge6" class="edge">
<title>Node7&#45;&gt;Node6</title>
<path fill="none" stroke="#63b8ff" d="M65.6429,-391.8912C66.5138,-365.3282 68.0346,-318.9446 68.6876,-299.0287"/>
<polygon fill="#63b8ff" stroke="#63b8ff" points="62.1435,-391.8175 65.3139,-401.9269 69.1398,-392.047 62.1435,-391.8175"/>
</g>
<!-- Node8 -->
<g id="node8" class="node">
<title>Node8</title>
<g id="a_node8"><a xlink:href="../../d6/d78/class_translator_english.html" target="_top" xlink:title=" ">
<polygon fill="#ffffff" stroke="#666666" points="173,-365 81,-365 81,-346 173,-346 173,-365"/>
<text text-anchor="middle" x="127" y="-353" font-family="Helvetica,sans-Serif" font-size="10.00" fill="#000000">TranslatorEnglish</text>
</a>
</g>
</g>
<!-- Node7&#45;&gt;Node8 -->
<g id="edge8" class="edge">
<title>Node7&#45;&gt;Node8</title>
<path fill="none" stroke="#63b8ff" d="M83.4221,-394.8607C94.1481,-385.1727 107.2934,-373.2995 116.3242,-365.1427"/>
<polygon fill="#63b8ff" stroke="#63b8ff" points="80.8746,-392.4453 75.7996,-401.7455 85.5666,-397.64 80.8746,-392.4453"/>
</g>
<!-- Node8&#45;&gt;Node6 -->
<g id="edge7" class="edge">
<title>Node8&#45;&gt;Node6</title>
<path fill="none" stroke="#9a32cd" stroke-dasharray="5,2" d="M111.5413,-337.909C100.6669,-325.5347 86.5167,-309.4328 77.5932,-299.2785"/>
<polygon fill="#9a32cd" stroke="#9a32cd" points="109.2116,-340.5602 118.4419,-345.7615 114.4698,-335.9394 109.2116,-340.5602"/>
<text text-anchor="middle" x="118" y="-320" font-family="Helvetica,sans-Serif" font-size="10.00" fill="#000000"> english</text>
</g>
</g>
</svg>
