<?xml version="1.0" encoding="UTF-8" standalone="no"?>
<!DOCTYPE svg PUBLIC "-//W3C//DTD SVG 1.1//EN"
 "http://www.w3.org/Graphics/SVG/1.1/DTD/svg11.dtd">
<!-- Generated by graphviz version 2.43.0 (0)
 -->
<!-- Title: src/utf8.cpp Pages: 1 -->
<svg width="691pt" height="247pt"
 viewBox="0.00 0.00 691.11 247.00" xmlns="http://www.w3.org/2000/svg" xmlns:xlink="http://www.w3.org/1999/xlink">
<g id="graph0" class="graph" transform="scale(1 1) rotate(0) translate(4 243)">
<title>src/utf8.cpp</title>
<!-- Node1 -->
<g id="node1" class="node">
<title>Node1</title>
<g id="a_node1"><a xlink:title=" ">
<polygon fill="#999999" stroke="#666666" points="116.38,-239 42.38,-239 42.38,-220 116.38,-220 116.38,-239"/>
<text text-anchor="middle" x="79.38" y="-227" font-family="Helvetica,sans-Serif" font-size="10.00">src/utf8.cpp</text>
</a>
</g>
</g>
<!-- Node2 -->
<g id="node2" class="node">
<title>Node2</title>
<g id="a_node2"><a xlink:title=" ">
<polygon fill="#e0e0e0" stroke="#999999" points="87.38,-19 37.38,-19 37.38,0 87.38,0 87.38,-19"/>
<text text-anchor="middle" x="62.38" y="-7" font-family="Helvetica,sans-Serif" font-size="10.00">cstdint</text>
</a>
</g>
</g>
<!-- Node1&#45;&gt;Node2 -->
<g id="edge1" class="edge">
<title>Node1&#45;&gt;Node2</title>
<path fill="none" stroke="#63b8ff" d="M73.34,-220C57.77,-197.52 16.53,-134.09 2.38,-74 0.45,-65.78 -1.41,-62.54 2.38,-55 9.07,-41.71 21.82,-31.39 33.85,-24.05"/>
<polygon fill="#63b8ff" stroke="#63b8ff" points="35.8,-26.97 42.8,-19.02 32.37,-20.87 35.8,-26.97"/>
</g>
<!-- Node3 -->
<g id="node3" class="node">
<title>Node3</title>
<g id="a_node3"><a xlink:title=" ">
<polygon fill="#e0e0e0" stroke="#999999" points="163.38,-129 107.38,-129 107.38,-110 163.38,-110 163.38,-129"/>
<text text-anchor="middle" x="135.38" y="-117" font-family="Helvetica,sans-Serif" font-size="10.00">sstream</text>
</a>
</g>
</g>
<!-- Node1&#45;&gt;Node3 -->
<g id="edge2" class="edge">
<title>Node1&#45;&gt;Node3</title>
<path fill="none" stroke="#63b8ff" d="M83.96,-219.66C93.16,-201.93 114.01,-161.73 126.14,-138.32"/>
<polygon fill="#63b8ff" stroke="#63b8ff" points="129.4,-139.65 130.89,-129.16 123.18,-136.42 129.4,-139.65"/>
</g>
<!-- Node4 -->
<g id="node4" class="node">
<title>Node4</title>
<g id="a_node4"><a xlink:href="../../db/d7c/utf8_8h.html" target="_top" xlink:title="Various UTF8 related helper functions.">
<polygon fill="white" stroke="#666666" points="206.88,-74 161.88,-74 161.88,-55 206.88,-55 206.88,-74"/>
<text text-anchor="middle" x="184.38" y="-62" font-family="Helvetica,sans-Serif" font-size="10.00">utf8.h</text>
</a>
</g>
</g>
<!-- Node1&#45;&gt;Node4 -->
<g id="edge3" class="edge">
<title>Node1&#45;&gt;Node4</title>
<path fill="none" stroke="#63b8ff" d="M78.3,-219.77C76.17,-198.7 73.6,-144.27 98.38,-110 111.24,-92.22 133.35,-81 151.93,-74.28"/>
<polygon fill="#63b8ff" stroke="#63b8ff" points="153.15,-77.56 161.53,-71.07 150.94,-70.92 153.15,-77.56"/>
</g>
<!-- Node6 -->
<g id="node6" class="node">
<title>Node6</title>
<g id="a_node6"><a xlink:href="../../db/dca/caseconvert_8h.html" target="_top" xlink:title=" ">
<polygon fill="white" stroke="#666666" points="104.88,-74 19.88,-74 19.88,-55 104.88,-55 104.88,-74"/>
<text text-anchor="middle" x="62.38" y="-62" font-family="Helvetica,sans-Serif" font-size="10.00">caseconvert.h</text>
</a>
</g>
</g>
<!-- Node1&#45;&gt;Node6 -->
<g id="edge6" class="edge">
<title>Node1&#45;&gt;Node6</title>
<path fill="none" stroke="#63b8ff" d="M75.85,-219.81C72.45,-210.97 67.51,-196.78 65.38,-184 59.6,-149.27 60.2,-108.03 61.24,-84.5"/>
<polygon fill="#63b8ff" stroke="#63b8ff" points="64.76,-84.37 61.78,-74.2 57.76,-84.01 64.76,-84.37"/>
</g>
<!-- Node7 -->
<g id="node7" class="node">
<title>Node7</title>
<g id="a_node7"><a xlink:href="../../d4/d7d/textstream_8h.html" target="_top" xlink:title=" ">
<polygon fill="white" stroke="#666666" points="393.38,-184 313.38,-184 313.38,-165 393.38,-165 393.38,-184"/>
<text text-anchor="middle" x="353.38" y="-172" font-family="Helvetica,sans-Serif" font-size="10.00">textstream.h</text>
</a>
</g>
</g>
<!-- Node1&#45;&gt;Node7 -->
<g id="edge9" class="edge">
<title>Node1&#45;&gt;Node7</title>
<path fill="none" stroke="#63b8ff" d="M116.62,-221.3C164.87,-211.96 249.18,-195.66 303.08,-185.23"/>
<polygon fill="#63b8ff" stroke="#63b8ff" points="303.95,-188.63 313.11,-183.29 302.62,-181.75 303.95,-188.63"/>
</g>
<!-- Node4&#45;&gt;Node2 -->
<g id="edge4" class="edge">
<title>Node4&#45;&gt;Node2</title>
<path fill="none" stroke="#63b8ff" d="M164.78,-54.98C145.07,-46.42 114.43,-33.11 91.8,-23.28"/>
<polygon fill="#63b8ff" stroke="#63b8ff" points="92.91,-19.94 82.34,-19.17 90.12,-26.37 92.91,-19.94"/>
</g>
<!-- Node5 -->
<g id="node5" class="node">
<title>Node5</title>
<g id="a_node5"><a xlink:title=" ">
<polygon fill="#e0e0e0" stroke="#999999" points="412.38,-19 368.38,-19 368.38,0 412.38,0 412.38,-19"/>
<text text-anchor="middle" x="390.38" y="-7" font-family="Helvetica,sans-Serif" font-size="10.00">string</text>
</a>
</g>
</g>
<!-- Node4&#45;&gt;Node5 -->
<g id="edge5" class="edge">
<title>Node4&#45;&gt;Node5</title>
<path fill="none" stroke="#63b8ff" d="M207.1,-57.44C210.22,-56.61 213.38,-55.78 216.38,-55 265.74,-42.13 323.06,-27.54 358.02,-18.68"/>
<polygon fill="#63b8ff" stroke="#63b8ff" points="359.28,-21.97 368.12,-16.12 357.56,-15.19 359.28,-21.97"/>
</g>
<!-- Node6&#45;&gt;Node2 -->
<g id="edge7" class="edge">
<title>Node6&#45;&gt;Node2</title>
<path fill="none" stroke="#63b8ff" d="M62.38,-54.75C62.38,-47.8 62.38,-37.85 62.38,-29.13"/>
<polygon fill="#63b8ff" stroke="#63b8ff" points="65.88,-29.09 62.38,-19.09 58.88,-29.09 65.88,-29.09"/>
</g>
<!-- Node6&#45;&gt;Node5 -->
<g id="edge8" class="edge">
<title>Node6&#45;&gt;Node5</title>
<path fill="none" stroke="#63b8ff" d="M104.93,-56.63C171.48,-45.87 298.74,-25.31 358.24,-15.69"/>
<polygon fill="#63b8ff" stroke="#63b8ff" points="358.88,-19.14 368.19,-14.09 357.76,-12.23 358.88,-19.14"/>
</g>
<!-- Node7&#45;&gt;Node2 -->
<g id="edge13" class="edge">
<title>Node7&#45;&gt;Node2</title>
<path fill="none" stroke="#63b8ff" d="M331.64,-164.93C297.93,-151.85 230.82,-126.68 172.38,-110 101.46,-89.76 56.53,-131.53 10.38,-74 -3.38,-56.84 18.36,-37.29 37.79,-24.47"/>
<polygon fill="#63b8ff" stroke="#63b8ff" points="39.79,-27.35 46.42,-19.08 36.08,-21.41 39.79,-27.35"/>
</g>
<!-- Node7&#45;&gt;Node3 -->
<g id="edge12" class="edge">
<title>Node7&#45;&gt;Node3</title>
<path fill="none" stroke="#63b8ff" d="M318.36,-164.98C278.63,-155.33 214.1,-139.64 173.24,-129.7"/>
<polygon fill="#63b8ff" stroke="#63b8ff" points="173.93,-126.27 163.39,-127.31 172.28,-133.07 173.93,-126.27"/>
</g>
<!-- Node7&#45;&gt;Node5 -->
<g id="edge10" class="edge">
<title>Node7&#45;&gt;Node5</title>
<path fill="none" stroke="#63b8ff" d="M393.6,-171.42C443.54,-167.68 530.56,-157.34 599.38,-129 639.28,-112.57 659.29,-112.19 679.38,-74 683.31,-66.53 684.88,-61.41 679.38,-55 646.6,-16.78 491.07,-11.07 422.72,-10.44"/>
<polygon fill="#63b8ff" stroke="#63b8ff" points="422.56,-6.94 412.54,-10.38 422.51,-13.94 422.56,-6.94"/>
</g>
<!-- Node8 -->
<g id="node8" class="node">
<title>Node8</title>
<g id="a_node8"><a xlink:title=" ">
<polygon fill="#e0e0e0" stroke="#999999" points="590.38,-129 530.38,-129 530.38,-110 590.38,-110 590.38,-129"/>
<text text-anchor="middle" x="560.38" y="-117" font-family="Helvetica,sans-Serif" font-size="10.00">iostream</text>
</a>
</g>
</g>
<!-- Node7&#45;&gt;Node8 -->
<g id="edge11" class="edge">
<title>Node7&#45;&gt;Node8</title>
<path fill="none" stroke="#63b8ff" d="M386.64,-164.98C423.04,-155.66 481.4,-140.72 520.3,-130.76"/>
<polygon fill="#63b8ff" stroke="#63b8ff" points="521.42,-134.09 530.24,-128.22 519.68,-127.31 521.42,-134.09"/>
</g>
<!-- Node9 -->
<g id="node9" class="node">
<title>Node9</title>
<g id="a_node9"><a xlink:title=" ">
<polygon fill="#e0e0e0" stroke="#999999" points="670.38,-74 624.38,-74 624.38,-55 670.38,-55 670.38,-74"/>
<text text-anchor="middle" x="647.38" y="-62" font-family="Helvetica,sans-Serif" font-size="10.00">cstdio</text>
</a>
</g>
</g>
<!-- Node7&#45;&gt;Node9 -->
<g id="edge14" class="edge">
<title>Node7&#45;&gt;Node9</title>
<path fill="none" stroke="#63b8ff" d="M361.48,-165C375.14,-151.19 404.25,-124.02 434.38,-110 450.51,-102.5 558.22,-81.94 614.01,-71.61"/>
<polygon fill="#63b8ff" stroke="#63b8ff" points="614.91,-75 624.11,-69.74 613.64,-68.12 614.91,-75"/>
</g>
<!-- Node10 -->
<g id="node10" class="node">
<title>Node10</title>
<g id="a_node10"><a xlink:title=" ">
<polygon fill="#e0e0e0" stroke="#999999" points="302.88,-129 247.88,-129 247.88,-110 302.88,-110 302.88,-129"/>
<text text-anchor="middle" x="275.38" y="-117" font-family="Helvetica,sans-Serif" font-size="10.00">fstream</text>
</a>
</g>
</g>
<!-- Node7&#45;&gt;Node10 -->
<g id="edge15" class="edge">
<title>Node7&#45;&gt;Node10</title>
<path fill="none" stroke="#63b8ff" d="M340.85,-164.98C328.98,-156.92 310.92,-144.65 296.77,-135.03"/>
<polygon fill="#63b8ff" stroke="#63b8ff" points="298.38,-131.9 288.14,-129.17 294.45,-137.69 298.38,-131.9"/>
</g>
<!-- Node11 -->
<g id="node11" class="node">
<title>Node11</title>
<g id="a_node11"><a xlink:title=" ">
<polygon fill="#e0e0e0" stroke="#999999" points="511.88,-129 442.88,-129 442.88,-110 511.88,-110 511.88,-129"/>
<text text-anchor="middle" x="477.38" y="-117" font-family="Helvetica,sans-Serif" font-size="10.00">type_traits</text>
</a>
</g>
</g>
<!-- Node7&#45;&gt;Node11 -->
<g id="edge16" class="edge">
<title>Node7&#45;&gt;Node11</title>
<path fill="none" stroke="#63b8ff" d="M373.3,-164.98C393.43,-156.38 424.76,-142.99 447.79,-133.15"/>
<polygon fill="#63b8ff" stroke="#63b8ff" points="449.28,-136.32 457.1,-129.17 446.53,-129.88 449.28,-136.32"/>
</g>
<!-- Node12 -->
<g id="node12" class="node">
<title>Node12</title>
<g id="a_node12"><a xlink:href="../../d7/d5c/qcstring_8h.html" target="_top" xlink:title=" ">
<polygon fill="white" stroke="#666666" points="385.88,-129 320.88,-129 320.88,-110 385.88,-110 385.88,-129"/>
<text text-anchor="middle" x="353.38" y="-117" font-family="Helvetica,sans-Serif" font-size="10.00">qcstring.h</text>
</a>
</g>
</g>
<!-- Node7&#45;&gt;Node12 -->
<g id="edge17" class="edge">
<title>Node7&#45;&gt;Node12</title>
<path fill="none" stroke="#63b8ff" d="M353.38,-164.75C353.38,-157.8 353.38,-147.85 353.38,-139.13"/>
<polygon fill="#63b8ff" stroke="#63b8ff" points="356.88,-139.09 353.38,-129.09 349.88,-139.09 356.88,-139.09"/>
</g>
<!-- Node12&#45;&gt;Node2 -->
<g id="edge24" class="edge">
<title>Node12&#45;&gt;Node2</title>
<path fill="none" stroke="#63b8ff" d="M320.6,-111.55C265.86,-99.91 161.06,-77.37 153.38,-74 125.34,-61.68 97.03,-40.17 79.6,-25.64"/>
<polygon fill="#63b8ff" stroke="#63b8ff" points="81.85,-22.95 71.97,-19.13 77.31,-28.28 81.85,-22.95"/>
</g>
<!-- Node12&#45;&gt;Node4 -->
<g id="edge26" class="edge">
<title>Node12&#45;&gt;Node4</title>
<path fill="none" stroke="#63b8ff" d="M326.23,-109.98C296.42,-100.64 248.6,-85.64 216.84,-75.68"/>
<polygon fill="#63b8ff" stroke="#63b8ff" points="217.72,-72.29 207.13,-72.63 215.63,-78.97 217.72,-72.29"/>
</g>
<!-- Node12&#45;&gt;Node5 -->
<g id="edge18" class="edge">
<title>Node12&#45;&gt;Node5</title>
<path fill="none" stroke="#63b8ff" d="M385.9,-112.59C447.27,-101.36 574.33,-77.72 577.38,-74 620.16,-21.89 486.91,-12.37 422.8,-10.75"/>
<polygon fill="#63b8ff" stroke="#63b8ff" points="422.48,-7.25 412.41,-10.55 422.34,-14.25 422.48,-7.25"/>
</g>
<!-- Node12&#45;&gt;Node9 -->
<g id="edge22" class="edge">
<title>Node12&#45;&gt;Node9</title>
<path fill="none" stroke="#63b8ff" d="M385.99,-112.56C390.82,-111.7 395.73,-110.82 400.38,-110 493.64,-93.57 517.53,-92.61 610.38,-74 611.65,-73.75 612.95,-73.48 614.26,-73.21"/>
<polygon fill="#63b8ff" stroke="#63b8ff" points="615.31,-76.56 624.33,-71.01 613.82,-69.72 615.31,-76.56"/>
</g>
<!-- Node13 -->
<g id="node13" class="node">
<title>Node13</title>
<g id="a_node13"><a xlink:title=" ">
<polygon fill="#e0e0e0" stroke="#999999" points="364.38,-74 300.38,-74 300.38,-55 364.38,-55 364.38,-74"/>
<text text-anchor="middle" x="332.38" y="-62" font-family="Helvetica,sans-Serif" font-size="10.00">algorithm</text>
</a>
</g>
</g>
<!-- Node12&#45;&gt;Node13 -->
<g id="edge19" class="edge">
<title>Node12&#45;&gt;Node13</title>
<path fill="none" stroke="#63b8ff" d="M349.91,-109.75C347.1,-102.65 343.04,-92.4 339.54,-83.56"/>
<polygon fill="#63b8ff" stroke="#63b8ff" points="342.72,-82.1 335.79,-74.09 336.22,-84.68 342.72,-82.1"/>
</g>
<!-- Node14 -->
<g id="node14" class="node">
<title>Node14</title>
<g id="a_node14"><a xlink:title=" ">
<polygon fill="#e0e0e0" stroke="#999999" points="431.88,-74 382.88,-74 382.88,-55 431.88,-55 431.88,-74"/>
<text text-anchor="middle" x="407.38" y="-62" font-family="Helvetica,sans-Serif" font-size="10.00">cctype</text>
</a>
</g>
</g>
<!-- Node12&#45;&gt;Node14 -->
<g id="edge20" class="edge">
<title>Node12&#45;&gt;Node14</title>
<path fill="none" stroke="#63b8ff" d="M362.3,-109.75C370.16,-102.03 381.81,-90.6 391.3,-81.28"/>
<polygon fill="#63b8ff" stroke="#63b8ff" points="393.95,-83.59 398.63,-74.09 389.04,-78.6 393.95,-83.59"/>
</g>
<!-- Node15 -->
<g id="node15" class="node">
<title>Node15</title>
<g id="a_node15"><a xlink:title=" ">
<polygon fill="#e0e0e0" stroke="#999999" points="500.38,-74 450.38,-74 450.38,-55 500.38,-55 500.38,-74"/>
<text text-anchor="middle" x="475.38" y="-62" font-family="Helvetica,sans-Serif" font-size="10.00">cstring</text>
</a>
</g>
</g>
<!-- Node12&#45;&gt;Node15 -->
<g id="edge21" class="edge">
<title>Node12&#45;&gt;Node15</title>
<path fill="none" stroke="#63b8ff" d="M372.98,-109.98C392.7,-101.42 423.34,-88.11 445.97,-78.28"/>
<polygon fill="#63b8ff" stroke="#63b8ff" points="447.65,-81.37 455.42,-74.17 444.86,-74.94 447.65,-81.37"/>
</g>
<!-- Node16 -->
<g id="node16" class="node">
<title>Node16</title>
<g id="a_node16"><a xlink:title=" ">
<polygon fill="#e0e0e0" stroke="#999999" points="567.88,-74 518.88,-74 518.88,-55 567.88,-55 567.88,-74"/>
<text text-anchor="middle" x="543.38" y="-62" font-family="Helvetica,sans-Serif" font-size="10.00">cstdlib</text>
</a>
</g>
</g>
<!-- Node12&#45;&gt;Node16 -->
<g id="edge23" class="edge">
<title>Node12&#45;&gt;Node16</title>
<path fill="none" stroke="#63b8ff" d="M383.91,-109.98C417.99,-100.48 473.04,-85.12 508.72,-75.17"/>
<polygon fill="#63b8ff" stroke="#63b8ff" points="509.99,-78.45 518.68,-72.39 508.11,-71.71 509.99,-78.45"/>
</g>
<!-- Node17 -->
<g id="node17" class="node">
<title>Node17</title>
<g id="a_node17"><a xlink:title=" ">
<polygon fill="#e0e0e0" stroke="#999999" points="281.88,-74 224.88,-74 224.88,-55 281.88,-55 281.88,-74"/>
<text text-anchor="middle" x="253.38" y="-62" font-family="Helvetica,sans-Serif" font-size="10.00">ostream</text>
</a>
</g>
</g>
<!-- Node12&#45;&gt;Node17 -->
<g id="edge25" class="edge">
<title>Node12&#45;&gt;Node17</title>
<path fill="none" stroke="#63b8ff" d="M337.32,-109.98C321.52,-101.61 297.16,-88.7 278.75,-78.95"/>
<polygon fill="#63b8ff" stroke="#63b8ff" points="280.22,-75.76 269.74,-74.17 276.94,-81.95 280.22,-75.76"/>
</g>
</g>
</svg>
