<?xml version="1.0" encoding="UTF-8" standalone="no"?>
<!DOCTYPE svg PUBLIC "-//W3C//DTD SVG 1.1//EN"
 "http://www.w3.org/Graphics/SVG/1.1/DTD/svg11.dtd">
<!-- Generated by graphviz version 2.40.1 (20161225.0304)
 -->
<!-- Title: DefinitionImpl Pages: 1 -->
<svg width="647pt" height="427pt"
 viewBox="0.00 0.00 647.00 427.00" xmlns="http://www.w3.org/2000/svg" xmlns:xlink="http://www.w3.org/1999/xlink">
<g id="graph0" class="graph" transform="scale(1 1) rotate(0) translate(4 423)">
<title>DefinitionImpl</title>
<!-- Node1 -->
<g id="node1" class="node">
<title>Node1</title>
<g id="a_node1"><a xlink:title=" ">
<polygon fill="#999999" stroke="#666666" points="330.5,-19 253.5,-19 253.5,0 330.5,0 330.5,-19"/>
<text text-anchor="middle" x="292" y="-7" font-family="Helvetica,sans-Serif" font-size="10.00" fill="#000000">DefinitionImpl</text>
</a>
</g>
</g>
<!-- Node2 -->
<g id="node2" class="node">
<title>Node2</title>
<g id="a_node2"><a xlink:href="../../dd/d50/class_definition_impl_1_1_i_m_p_l.html" target="_top" xlink:title="Private data associated with a Symbol DefinitionImpl object.">
<polygon fill="#ffffff" stroke="#666666" points="345,-85 239,-85 239,-66 345,-66 345,-85"/>
<text text-anchor="middle" x="292" y="-73" font-family="Helvetica,sans-Serif" font-size="10.00" fill="#000000">DefinitionImpl::IMPL</text>
</a>
</g>
</g>
<!-- Node2&#45;&gt;Node1 -->
<g id="edge1" class="edge">
<title>Node2&#45;&gt;Node1</title>
<path fill="none" stroke="#9a32cd" stroke-dasharray="5,2" d="M292,-55.732C292,-43.6966 292,-28.847 292,-19.2785"/>
<polygon fill="#9a32cd" stroke="#9a32cd" points="288.5001,-55.7614 292,-65.7615 295.5001,-55.7615 288.5001,-55.7614"/>
<text text-anchor="middle" x="309.5" y="-40" font-family="Helvetica,sans-Serif" font-size="10.00" fill="#000000"> m_impl</text>
</g>
<!-- Node3 -->
<g id="node3" class="node">
<title>Node3</title>
<g id="a_node3"><a xlink:href="../../d5/dcc/class_definition.html" target="_top" xlink:title="The common base class of all entity definitions found in the sources.">
<polygon fill="#ffffff" stroke="#666666" points="58,-419 0,-419 0,-400 58,-400 58,-419"/>
<text text-anchor="middle" x="29" y="-407" font-family="Helvetica,sans-Serif" font-size="10.00" fill="#000000">Definition</text>
</a>
</g>
</g>
<!-- Node3&#45;&gt;Node2 -->
<g id="edge2" class="edge">
<title>Node3&#45;&gt;Node2</title>
<path fill="none" stroke="#9a32cd" stroke-dasharray="5,2" d="M25.4,-389.73C17.9504,-342.7405 5.4839,-222.3751 56,-143 74.6206,-113.7418 90.4189,-114.8843 123,-103 160.4213,-89.3501 204.971,-82.4553 238.9335,-78.9838"/>
<polygon fill="#9a32cd" stroke="#9a32cd" points="21.9832,-390.5165 27.1022,-399.7926 28.8851,-389.3489 21.9832,-390.5165"/>
<text text-anchor="middle" x="44" y="-301.5" font-family="Helvetica,sans-Serif" font-size="10.00" fill="#000000"> def</text>
<text text-anchor="middle" x="44" y="-290.5" font-family="Helvetica,sans-Serif" font-size="10.00" fill="#000000">outerScope</text>
</g>
<!-- Node11 -->
<g id="node11" class="node">
<title>Node11</title>
<g id="a_node11"><a xlink:href="../../de/db0/class_file_def.html" target="_top" xlink:title="A model of a file symbol.">
<polygon fill="#ffffff" stroke="#666666" points="126,-357.5 78,-357.5 78,-338.5 126,-338.5 126,-357.5"/>
<text text-anchor="middle" x="102" y="-345.5" font-family="Helvetica,sans-Serif" font-size="10.00" fill="#000000">FileDef</text>
</a>
</g>
</g>
<!-- Node3&#45;&gt;Node11 -->
<g id="edge13" class="edge">
<title>Node3&#45;&gt;Node11</title>
<path fill="none" stroke="#63b8ff" d="M48.1471,-393.3692C61.5739,-382.0576 79.0837,-367.3062 90.4329,-357.7449"/>
<polygon fill="#63b8ff" stroke="#63b8ff" points="45.799,-390.7709 40.4063,-399.8906 50.3091,-396.1243 45.799,-390.7709"/>
</g>
<!-- Node4 -->
<g id="node4" class="node">
<title>Node4</title>
<g id="a_node4"><a xlink:href="../../d1/df9/class_section_refs.html" target="_top" xlink:title="class that represents a list of constant references to sections.">
<polygon fill="#ffffff" stroke="#666666" points="210.5,-213 139.5,-213 139.5,-194 210.5,-194 210.5,-213"/>
<text text-anchor="middle" x="175" y="-201" font-family="Helvetica,sans-Serif" font-size="10.00" fill="#000000">SectionRefs</text>
</a>
</g>
</g>
<!-- Node4&#45;&gt;Node2 -->
<g id="edge3" class="edge">
<title>Node4&#45;&gt;Node2</title>
<path fill="none" stroke="#9a32cd" stroke-dasharray="5,2" d="M171.6244,-183.7807C168.9936,-161.4105 168.5385,-125.1685 188,-103 195.1155,-94.8947 216.9802,-88.5054 238.8369,-83.9335"/>
<polygon fill="#9a32cd" stroke="#9a32cd" points="168.1764,-184.3935 173.0586,-193.7964 175.1057,-183.4012 168.1764,-184.3935"/>
<text text-anchor="middle" x="216" y="-111.5" font-family="Helvetica,sans-Serif" font-size="10.00" fill="#000000"> sectionRefs</text>
</g>
<!-- Node5 -->
<g id="node5" class="node">
<title>Node5</title>
<g id="a_node5"><a xlink:href="../../d3/d3b/class_group_list.html" target="_top" xlink:title=" ">
<polygon fill="#ffffff" stroke="#666666" points="287.5,-213 228.5,-213 228.5,-194 287.5,-194 287.5,-213"/>
<text text-anchor="middle" x="258" y="-201" font-family="Helvetica,sans-Serif" font-size="10.00" fill="#000000">GroupList</text>
</a>
</g>
</g>
<!-- Node5&#45;&gt;Node2 -->
<g id="edge4" class="edge">
<title>Node5&#45;&gt;Node2</title>
<path fill="none" stroke="#9a32cd" stroke-dasharray="5,2" d="M252.2475,-184.264C247.0616,-163.1289 242.0476,-128.7649 255,-103 258.7386,-95.5632 265.546,-89.6302 272.3119,-85.2065"/>
<polygon fill="#9a32cd" stroke="#9a32cd" points="248.8901,-185.2564 254.8809,-193.9949 255.6471,-183.4278 248.8901,-185.2564"/>
<text text-anchor="middle" x="286" y="-111.5" font-family="Helvetica,sans-Serif" font-size="10.00" fill="#000000"> partOfGroups</text>
</g>
<!-- Node6 -->
<g id="node6" class="node">
<title>Node6</title>
<g id="a_node6"><a xlink:title=" ">
<polygon fill="#ffffff" stroke="#666666" points="306,-363 210,-363 210,-333 306,-333 306,-363"/>
<text text-anchor="start" x="218" y="-351" font-family="Helvetica,sans-Serif" font-size="10.00" fill="#000000">std::vector&lt; const</text>
<text text-anchor="middle" x="258" y="-340" font-family="Helvetica,sans-Serif" font-size="10.00" fill="#000000"> GroupDef * &gt;</text>
</a>
</g>
</g>
<!-- Node6&#45;&gt;Node5 -->
<g id="edge5" class="edge">
<title>Node6&#45;&gt;Node5</title>
<path fill="none" stroke="#63b8ff" d="M258,-322.7429C258,-290.3032 258,-235.5399 258,-213.314"/>
<polygon fill="#63b8ff" stroke="#63b8ff" points="254.5001,-322.809 258,-332.8091 261.5001,-322.8091 254.5001,-322.809"/>
</g>
<!-- Node7 -->
<g id="node7" class="node">
<title>Node7</title>
<g id="a_node7"><a xlink:href="../../d7/dd5/struct_doc_info.html" target="_top" xlink:title="Data associated with a detailed description.">
<polygon fill="#ffffff" stroke="#666666" points="469.5,-213 418.5,-213 418.5,-194 469.5,-194 469.5,-213"/>
<text text-anchor="middle" x="444" y="-201" font-family="Helvetica,sans-Serif" font-size="10.00" fill="#000000">DocInfo</text>
</a>
</g>
</g>
<!-- Node7&#45;&gt;Node2 -->
<g id="edge6" class="edge">
<title>Node7&#45;&gt;Node2</title>
<path fill="none" stroke="#9a32cd" stroke-dasharray="5,2" d="M434.2281,-184.8454C426.9861,-172.1313 416.2736,-155.4168 404,-143 377.8258,-116.5203 339.2225,-96.2657 314.8567,-85.1275"/>
<polygon fill="#9a32cd" stroke="#9a32cd" points="431.18,-186.5663 439.0579,-193.6508 437.3174,-183.1999 431.18,-186.5663"/>
<text text-anchor="middle" x="408" y="-117" font-family="Helvetica,sans-Serif" font-size="10.00" fill="#000000"> details</text>
<text text-anchor="middle" x="408" y="-106" font-family="Helvetica,sans-Serif" font-size="10.00" fill="#000000">inbodyDocs</text>
</g>
<!-- Node8 -->
<g id="node8" class="node">
<title>Node8</title>
<g id="a_node8"><a xlink:href="../../d9/d45/class_q_c_string.html" target="_top" xlink:title="This is an alternative implementation of QCString.">
<polygon fill="#ffffff" stroke="#666666" points="472.5,-357.5 415.5,-357.5 415.5,-338.5 472.5,-338.5 472.5,-357.5"/>
<text text-anchor="middle" x="444" y="-345.5" font-family="Helvetica,sans-Serif" font-size="10.00" fill="#000000">QCString</text>
</a>
</g>
</g>
<!-- Node8&#45;&gt;Node2 -->
<g id="edge14" class="edge">
<title>Node8&#45;&gt;Node2</title>
<path fill="none" stroke="#9a32cd" stroke-dasharray="5,2" d="M416.4807,-333.4107C392.4041,-319.0998 358.6068,-294.9431 341,-264 305.2212,-201.1203 348.0046,-168.3658 317,-103 313.7924,-96.2375 308.3586,-89.9572 303.3747,-85.1105"/>
<polygon fill="#9a32cd" stroke="#9a32cd" points="414.7637,-336.4607 425.1783,-338.407 418.2505,-330.3909 414.7637,-336.4607"/>
<text text-anchor="middle" x="375.5" y="-256" font-family="Helvetica,sans-Serif" font-size="10.00" fill="#000000"> briefSignatures</text>
<text text-anchor="middle" x="375.5" y="-245" font-family="Helvetica,sans-Serif" font-size="10.00" fill="#000000">defFileExt</text>
<text text-anchor="middle" x="375.5" y="-234" font-family="Helvetica,sans-Serif" font-size="10.00" fill="#000000">defFileName</text>
<text text-anchor="middle" x="375.5" y="-223" font-family="Helvetica,sans-Serif" font-size="10.00" fill="#000000">docSignatures</text>
<text text-anchor="middle" x="375.5" y="-212" font-family="Helvetica,sans-Serif" font-size="10.00" fill="#000000">id</text>
<text text-anchor="middle" x="375.5" y="-201" font-family="Helvetica,sans-Serif" font-size="10.00" fill="#000000">localName</text>
<text text-anchor="middle" x="375.5" y="-190" font-family="Helvetica,sans-Serif" font-size="10.00" fill="#000000">name</text>
<text text-anchor="middle" x="375.5" y="-179" font-family="Helvetica,sans-Serif" font-size="10.00" fill="#000000">qualifiedName</text>
<text text-anchor="middle" x="375.5" y="-168" font-family="Helvetica,sans-Serif" font-size="10.00" fill="#000000">ref</text>
<text text-anchor="middle" x="375.5" y="-157" font-family="Helvetica,sans-Serif" font-size="10.00" fill="#000000">symbolName</text>
<text text-anchor="middle" x="375.5" y="-146" font-family="Helvetica,sans-Serif" font-size="10.00" fill="#000000">...</text>
</g>
<!-- Node8&#45;&gt;Node7 -->
<g id="edge7" class="edge">
<title>Node8&#45;&gt;Node7</title>
<path fill="none" stroke="#9a32cd" stroke-dasharray="5,2" d="M444,-327.8432C444,-296.2876 444,-236.4234 444,-213.121"/>
<polygon fill="#9a32cd" stroke="#9a32cd" points="440.5001,-328.0679 444,-338.0679 447.5001,-328.068 440.5001,-328.0679"/>
<text text-anchor="middle" x="453.5" y="-301.5" font-family="Helvetica,sans-Serif" font-size="10.00" fill="#000000"> doc</text>
<text text-anchor="middle" x="453.5" y="-290.5" font-family="Helvetica,sans-Serif" font-size="10.00" fill="#000000">file</text>
</g>
<!-- Node9 -->
<g id="node9" class="node">
<title>Node9</title>
<g id="a_node9"><a xlink:href="../../d0/da7/struct_brief_info.html" target="_top" xlink:title="Data associated with a brief description.">
<polygon fill="#ffffff" stroke="#666666" points="540.5,-213 487.5,-213 487.5,-194 540.5,-194 540.5,-213"/>
<text text-anchor="middle" x="514" y="-201" font-family="Helvetica,sans-Serif" font-size="10.00" fill="#000000">BriefInfo</text>
</a>
</g>
</g>
<!-- Node8&#45;&gt;Node9 -->
<g id="edge9" class="edge">
<title>Node8&#45;&gt;Node9</title>
<path fill="none" stroke="#9a32cd" stroke-dasharray="5,2" d="M457.6422,-329.8791C460.9103,-325.1594 464.2471,-319.9939 467,-315 486.8772,-278.9418 503.868,-232.7385 510.7405,-213.0614"/>
<polygon fill="#9a32cd" stroke="#9a32cd" points="454.6217,-328.0839 451.614,-338.2429 460.3005,-332.1769 454.6217,-328.0839"/>
<text text-anchor="middle" x="496.5" y="-307" font-family="Helvetica,sans-Serif" font-size="10.00" fill="#000000"> doc</text>
<text text-anchor="middle" x="496.5" y="-296" font-family="Helvetica,sans-Serif" font-size="10.00" fill="#000000">file</text>
<text text-anchor="middle" x="496.5" y="-285" font-family="Helvetica,sans-Serif" font-size="10.00" fill="#000000">tooltip</text>
</g>
<!-- Node9&#45;&gt;Node2 -->
<g id="edge8" class="edge">
<title>Node9&#45;&gt;Node2</title>
<path fill="none" stroke="#9a32cd" stroke-dasharray="5,2" d="M506.0206,-184.6293C494.7759,-160.7378 471.7926,-120.5762 438,-103 422.0392,-94.6985 380.12,-87.2785 345.2723,-82.2443"/>
<polygon fill="#9a32cd" stroke="#9a32cd" points="502.8304,-186.0691 510.1184,-193.7591 509.2167,-183.2027 502.8304,-186.0691"/>
<text text-anchor="middle" x="475" y="-111.5" font-family="Helvetica,sans-Serif" font-size="10.00" fill="#000000"> brief</text>
</g>
<!-- Node10 -->
<g id="node10" class="node">
<title>Node10</title>
<g id="a_node10"><a xlink:href="../../db/dab/struct_body_info.html" target="_top" xlink:title="Data associated with description found in the body.">
<polygon fill="#ffffff" stroke="#666666" points="121,-213 65,-213 65,-194 121,-194 121,-213"/>
<text text-anchor="middle" x="93" y="-201" font-family="Helvetica,sans-Serif" font-size="10.00" fill="#000000">BodyInfo</text>
</a>
</g>
</g>
<!-- Node10&#45;&gt;Node2 -->
<g id="edge10" class="edge">
<title>Node10&#45;&gt;Node2</title>
<path fill="none" stroke="#9a32cd" stroke-dasharray="5,2" d="M98.0792,-184.2118C105.2143,-161.105 120.5165,-123.0124 148,-103 162.4026,-92.5126 204.1187,-85.2713 238.9668,-80.8622"/>
<polygon fill="#9a32cd" stroke="#9a32cd" points="94.6843,-183.3536 95.2878,-193.9312 101.4123,-185.2859 94.6843,-183.3536"/>
<text text-anchor="middle" x="160.5" y="-111.5" font-family="Helvetica,sans-Serif" font-size="10.00" fill="#000000"> body</text>
</g>
<!-- Node11&#45;&gt;Node10 -->
<g id="edge11" class="edge">
<title>Node11&#45;&gt;Node10</title>
<path fill="none" stroke="#9a32cd" stroke-dasharray="5,2" d="M100.7446,-327.8432C98.7792,-296.2876 95.0506,-236.4234 93.5992,-213.121"/>
<polygon fill="#9a32cd" stroke="#9a32cd" points="97.2664,-328.3049 101.3814,-338.0679 104.2529,-327.8697 97.2664,-328.3049"/>
<text text-anchor="middle" x="116" y="-296" font-family="Helvetica,sans-Serif" font-size="10.00" fill="#000000"> fileDef</text>
</g>
<!-- Node12 -->
<g id="node12" class="node">
<title>Node12</title>
<g id="a_node12"><a xlink:href="../../d0/d46/class_definition_mutable.html" target="_top" xlink:title=" ">
<polygon fill="#ffffff" stroke="#666666" points="168,-419 76,-419 76,-400 168,-400 168,-419"/>
<text text-anchor="middle" x="122" y="-407" font-family="Helvetica,sans-Serif" font-size="10.00" fill="#000000">DefinitionMutable</text>
</a>
</g>
</g>
<!-- Node12&#45;&gt;Node11 -->
<g id="edge12" class="edge">
<title>Node12&#45;&gt;Node11</title>
<path fill="none" stroke="#63b8ff" d="M115.6856,-390.0832C112.1855,-379.3205 107.9851,-366.4042 105.1691,-357.7449"/>
<polygon fill="#63b8ff" stroke="#63b8ff" points="112.4539,-391.4633 118.875,-399.8906 119.1107,-389.2984 112.4539,-391.4633"/>
</g>
<!-- Node13 -->
<g id="node13" class="node">
<title>Node13</title>
<g id="a_node13"><a xlink:href="../../d1/d7d/class_member_vector.html" target="_top" xlink:title="A vector of MemberDef object.">
<polygon fill="#ffffff" stroke="#666666" points="639,-213 559,-213 559,-194 639,-194 639,-213"/>
<text text-anchor="middle" x="599" y="-201" font-family="Helvetica,sans-Serif" font-size="10.00" fill="#000000">MemberVector</text>
</a>
</g>
</g>
<!-- Node13&#45;&gt;Node2 -->
<g id="edge15" class="edge">
<title>Node13&#45;&gt;Node2</title>
<path fill="none" stroke="#9a32cd" stroke-dasharray="5,2" d="M586.5535,-185.3467C577.3327,-172.6485 563.988,-155.7472 550,-143 526.3114,-121.4127 519.9608,-114.3802 490,-103 464.2886,-93.2339 394.5148,-85.0192 345.0963,-80.1786"/>
<polygon fill="#9a32cd" stroke="#9a32cd" points="583.8542,-187.5913 592.489,-193.7305 589.5674,-183.5465 583.8542,-187.5913"/>
<text text-anchor="middle" x="580" y="-117" font-family="Helvetica,sans-Serif" font-size="10.00" fill="#000000"> referencedByMembers</text>
<text text-anchor="middle" x="580" y="-106" font-family="Helvetica,sans-Serif" font-size="10.00" fill="#000000">referencesMembers</text>
</g>
</g>
</svg>
