<?xml version="1.0" encoding="UTF-8" standalone="no"?>
<!DOCTYPE svg PUBLIC "-//W3C//DTD SVG 1.1//EN"
 "http://www.w3.org/Graphics/SVG/1.1/DTD/svg11.dtd">
<!-- Generated by graphviz version 2.40.1 (20161225.0304)
 -->
<!-- Title: src/htmlhelp.h Pages: 1 -->
<svg width="1459pt" height="137pt"
 viewBox="0.00 0.00 1459.00 137.00" xmlns="http://www.w3.org/2000/svg" xmlns:xlink="http://www.w3.org/1999/xlink">
<g id="graph0" class="graph" transform="scale(1 1) rotate(0) translate(4 133)">
<title>src/htmlhelp.h</title>
<!-- Node1 -->
<g id="node1" class="node">
<title>Node1</title>
<g id="a_node1"><a xlink:title=" ">
<polygon fill="#999999" stroke="#666666" points="569.5,-129 491.5,-129 491.5,-110 569.5,-110 569.5,-129"/>
<text text-anchor="middle" x="530.5" y="-117" font-family="Helvetica,sans-Serif" font-size="10.00" fill="#000000">src/htmlhelp.h</text>
</a>
</g>
</g>
<!-- Node2 -->
<g id="node2" class="node">
<title>Node2</title>
<g id="a_node2"><a xlink:href="../../de/d89/classdef_8cpp.html" target="_top" xlink:title=" ">
<polygon fill="#ffffff" stroke="#666666" points="325,-74 236,-74 236,-55 325,-55 325,-74"/>
<text text-anchor="middle" x="280.5" y="-62" font-family="Helvetica,sans-Serif" font-size="10.00" fill="#000000">src/classdef.cpp</text>
</a>
</g>
</g>
<!-- Node1&#45;&gt;Node2 -->
<g id="edge1" class="edge">
<title>Node1&#45;&gt;Node2</title>
<path fill="none" stroke="#63b8ff" d="M481.4331,-108.7053C435.5933,-98.6205 367.8179,-83.7099 323.9039,-74.0489"/>
<polygon fill="#63b8ff" stroke="#63b8ff" points="480.919,-112.1758 491.4375,-110.9063 482.4231,-105.3393 480.919,-112.1758"/>
</g>
<!-- Node3 -->
<g id="node3" class="node">
<title>Node3</title>
<g id="a_node3"><a xlink:href="../../db/d12/context_8cpp.html" target="_top" xlink:title=" ">
<polygon fill="#ffffff" stroke="#666666" points="426.5,-74 342.5,-74 342.5,-55 426.5,-55 426.5,-74"/>
<text text-anchor="middle" x="384.5" y="-62" font-family="Helvetica,sans-Serif" font-size="10.00" fill="#000000">src/context.cpp</text>
</a>
</g>
</g>
<!-- Node1&#45;&gt;Node3 -->
<g id="edge2" class="edge">
<title>Node1&#45;&gt;Node3</title>
<path fill="none" stroke="#63b8ff" d="M495.4847,-106.3093C469.2015,-96.4081 433.8122,-83.0765 410.1297,-74.155"/>
<polygon fill="#63b8ff" stroke="#63b8ff" points="494.4769,-109.6697 505.0687,-109.9197 496.9446,-103.1191 494.4769,-109.6697"/>
</g>
<!-- Node4 -->
<g id="node4" class="node">
<title>Node4</title>
<g id="a_node4"><a xlink:href="../../dc/d98/doxygen_8cpp.html" target="_top" xlink:title=" ">
<polygon fill="#ffffff" stroke="#666666" points="89,-19 0,-19 0,0 89,0 89,-19"/>
<text text-anchor="middle" x="44.5" y="-7" font-family="Helvetica,sans-Serif" font-size="10.00" fill="#000000">src/doxygen.cpp</text>
</a>
</g>
</g>
<!-- Node1&#45;&gt;Node4 -->
<g id="edge3" class="edge">
<title>Node1&#45;&gt;Node4</title>
<path fill="none" stroke="#63b8ff" d="M509.9463,-103.7926C487.0464,-86.6143 451.1837,-60.7506 435.5,-55 294.0768,-3.1458 247.6502,-40.0615 98.5,-19 95.4839,-18.5741 92.378,-18.1062 89.252,-17.6135"/>
<polygon fill="#63b8ff" stroke="#63b8ff" points="507.9302,-106.6561 518.0191,-109.8911 512.1497,-101.0707 507.9302,-106.6561"/>
</g>
<!-- Node5 -->
<g id="node5" class="node">
<title>Node5</title>
<g id="a_node5"><a xlink:href="../../d8/d6e/htmlgen_8cpp.html" target="_top" xlink:title=" ">
<polygon fill="#ffffff" stroke="#666666" points="193.5,-19 107.5,-19 107.5,0 193.5,0 193.5,-19"/>
<text text-anchor="middle" x="150.5" y="-7" font-family="Helvetica,sans-Serif" font-size="10.00" fill="#000000">src/htmlgen.cpp</text>
</a>
</g>
</g>
<!-- Node1&#45;&gt;Node5 -->
<g id="edge4" class="edge">
<title>Node1&#45;&gt;Node5</title>
<path fill="none" stroke="#63b8ff" d="M518.2577,-101.1237C507.1591,-86.0747 489.3735,-65.5988 468.5,-55 362.1272,-.9877 320.3213,-37.7252 202.5,-19 199.5997,-18.5391 196.612,-18.0449 193.604,-17.5331"/>
<polygon fill="#63b8ff" stroke="#63b8ff" points="515.6496,-103.4986 524.2717,-109.6557 521.3711,-99.4657 515.6496,-103.4986"/>
</g>
<!-- Node6 -->
<g id="node6" class="node">
<title>Node6</title>
<g id="a_node6"><a xlink:href="../../d3/d4b/htmlhelp_8cpp.html" target="_top" xlink:title=" ">
<polygon fill="#ffffff" stroke="#666666" points="782,-74 693,-74 693,-55 782,-55 782,-74"/>
<text text-anchor="middle" x="737.5" y="-62" font-family="Helvetica,sans-Serif" font-size="10.00" fill="#000000">src/htmlhelp.cpp</text>
</a>
</g>
</g>
<!-- Node1&#45;&gt;Node6 -->
<g id="edge5" class="edge">
<title>Node1&#45;&gt;Node6</title>
<path fill="none" stroke="#63b8ff" d="M576.2854,-107.3348C614.0067,-97.3122 666.7623,-83.295 701.5099,-74.0626"/>
<polygon fill="#63b8ff" stroke="#63b8ff" points="575.3225,-103.9691 566.5566,-109.9197 577.1201,-110.7344 575.3225,-103.9691"/>
</g>
<!-- Node7 -->
<g id="node7" class="node">
<title>Node7</title>
<g id="a_node7"><a xlink:href="../../db/d14/index_8cpp.html" target="_top" xlink:title="This file contains functions for the various index pages.">
<polygon fill="#ffffff" stroke="#666666" points="287,-19 212,-19 212,0 287,0 287,-19"/>
<text text-anchor="middle" x="249.5" y="-7" font-family="Helvetica,sans-Serif" font-size="10.00" fill="#000000">src/index.cpp</text>
</a>
</g>
</g>
<!-- Node1&#45;&gt;Node7 -->
<g id="edge6" class="edge">
<title>Node1&#45;&gt;Node7</title>
<path fill="none" stroke="#63b8ff" d="M528.4032,-99.8797C525.772,-85.2847 519.8447,-66.0539 506.5,-55 433.2372,5.6863 388.9863,-36.6231 295.5,-19 292.7754,-18.4864 289.9631,-17.9416 287.1345,-17.3831"/>
<polygon fill="#63b8ff" stroke="#63b8ff" points="524.9593,-100.5215 529.8411,-109.9247 531.8887,-99.5296 524.9593,-100.5215"/>
</g>
<!-- Node8 -->
<g id="node8" class="node">
<title>Node8</title>
<g id="a_node8"><a xlink:href="../../d5/d61/indexlist_8h.html" target="_top" xlink:title=" ">
<polygon fill="#ffffff" stroke="#666666" points="636,-74 559,-74 559,-55 636,-55 636,-74"/>
<text text-anchor="middle" x="597.5" y="-62" font-family="Helvetica,sans-Serif" font-size="10.00" fill="#000000">src/indexlist.h</text>
</a>
</g>
</g>
<!-- Node1&#45;&gt;Node8 -->
<g id="edge7" class="edge">
<title>Node1&#45;&gt;Node8</title>
<path fill="none" stroke="#63b8ff" d="M549.9642,-103.522C561.4582,-94.0865 575.6434,-82.442 585.5121,-74.3408"/>
<polygon fill="#63b8ff" stroke="#63b8ff" points="547.6791,-100.8695 542.1705,-109.9197 552.1206,-106.28 547.6791,-100.8695"/>
</g>
<!-- Node19 -->
<g id="node19" class="node">
<title>Node19</title>
<g id="a_node19"><a xlink:href="../../df/d2d/util_8cpp.html" target="_top" xlink:title=" ">
<polygon fill="#ffffff" stroke="#666666" points="1451,-19 1386,-19 1386,0 1451,0 1451,-19"/>
<text text-anchor="middle" x="1418.5" y="-7" font-family="Helvetica,sans-Serif" font-size="10.00" fill="#000000">src/util.cpp</text>
</a>
</g>
</g>
<!-- Node1&#45;&gt;Node19 -->
<g id="edge23" class="edge">
<title>Node1&#45;&gt;Node19</title>
<path fill="none" stroke="#63b8ff" d="M565.9454,-106.282C588.83,-97.5505 619.1422,-85.6144 645.5,-74 663.1439,-66.2253 665.8312,-59.8198 684.5,-55 982.6938,21.9861 1071.4231,-61.1248 1376.5,-19 1379.4622,-18.591 1382.5242,-18.0778 1385.5823,-17.5031"/>
<polygon fill="#63b8ff" stroke="#63b8ff" points="564.4195,-103.1173 556.3107,-109.9363 566.902,-109.6624 564.4195,-103.1173"/>
</g>
<!-- Node20 -->
<g id="node20" class="node">
<title>Node20</title>
<g id="a_node20"><a xlink:href="../../d0/d72/memberdef_8cpp.html" target="_top" xlink:title=" ">
<polygon fill="#ffffff" stroke="#666666" points="901,-74 800,-74 800,-55 901,-55 901,-74"/>
<text text-anchor="middle" x="850.5" y="-62" font-family="Helvetica,sans-Serif" font-size="10.00" fill="#000000">src/memberdef.cpp</text>
</a>
</g>
</g>
<!-- Node1&#45;&gt;Node20 -->
<g id="edge22" class="edge">
<title>Node1&#45;&gt;Node20</title>
<path fill="none" stroke="#63b8ff" d="M579.6767,-111.0478C639.3704,-100.7879 739.5159,-83.5754 799.8613,-73.2035"/>
<polygon fill="#63b8ff" stroke="#63b8ff" points="579.0009,-107.6125 569.7383,-112.7559 580.1867,-114.5113 579.0009,-107.6125"/>
</g>
<!-- Node8&#45;&gt;Node4 -->
<g id="edge13" class="edge">
<title>Node8&#45;&gt;Node4</title>
<path fill="none" stroke="#63b8ff" d="M548.4405,-60.5507C440.3941,-51.7675 184.6617,-30.487 98.5,-19 95.4806,-18.5975 92.3724,-18.1471 89.2446,-17.6672"/>
<polygon fill="#63b8ff" stroke="#63b8ff" points="548.4809,-64.0654 558.7312,-61.3857 549.0471,-57.0883 548.4809,-64.0654"/>
</g>
<!-- Node8&#45;&gt;Node5 -->
<g id="edge16" class="edge">
<title>Node8&#45;&gt;Node5</title>
<path fill="none" stroke="#63b8ff" d="M548.8872,-59.3069C458.6029,-49.5945 268.2446,-28.7812 202.5,-19 199.5953,-18.5678 196.6042,-18.0953 193.5938,-17.5992"/>
<polygon fill="#63b8ff" stroke="#63b8ff" points="548.5502,-62.7907 558.8669,-60.3791 549.2981,-55.8308 548.5502,-62.7907"/>
</g>
<!-- Node8&#45;&gt;Node7 -->
<g id="edge17" class="edge">
<title>Node8&#45;&gt;Node7</title>
<path fill="none" stroke="#63b8ff" d="M548.4393,-55.6457C547.1127,-55.4257 545.7977,-55.21 544.5,-55 434.1193,-37.1333 405.6362,-38.3164 295.5,-19 292.7691,-18.521 289.9522,-18.0017 287.1203,-17.4612"/>
<polygon fill="#63b8ff" stroke="#63b8ff" points="548.2934,-59.171 558.7385,-57.3964 549.4665,-52.27 548.2934,-59.171"/>
</g>
<!-- Node9 -->
<g id="node9" class="node">
<title>Node9</title>
<g id="a_node9"><a xlink:href="../../d3/dea/definition_8cpp.html" target="_top" xlink:title=" ">
<polygon fill="#ffffff" stroke="#666666" points="1263,-19 1172,-19 1172,0 1263,0 1263,-19"/>
<text text-anchor="middle" x="1217.5" y="-7" font-family="Helvetica,sans-Serif" font-size="10.00" fill="#000000">src/definition.cpp</text>
</a>
</g>
</g>
<!-- Node8&#45;&gt;Node9 -->
<g id="edge8" class="edge">
<title>Node8&#45;&gt;Node9</title>
<path fill="none" stroke="#63b8ff" d="M646.5424,-55.5175C647.8744,-55.3353 649.1955,-55.1622 650.5,-55 877.3139,-26.7965 936.641,-46.8385 1163.5,-19 1166.2399,-18.6638 1169.0521,-18.2818 1171.8849,-17.8688"/>
<polygon fill="#63b8ff" stroke="#63b8ff" points="645.5847,-52.1219 636.2142,-57.066 646.6226,-59.0445 645.5847,-52.1219"/>
</g>
<!-- Node10 -->
<g id="node10" class="node">
<title>Node10</title>
<g id="a_node10"><a xlink:href="../../da/d0d/diagram_8cpp.html" target="_top" xlink:title=" ">
<polygon fill="#ffffff" stroke="#666666" points="1367.5,-19 1281.5,-19 1281.5,0 1367.5,0 1367.5,-19"/>
<text text-anchor="middle" x="1324.5" y="-7" font-family="Helvetica,sans-Serif" font-size="10.00" fill="#000000">src/diagram.cpp</text>
</a>
</g>
</g>
<!-- Node8&#45;&gt;Node10 -->
<g id="edge9" class="edge">
<title>Node8&#45;&gt;Node10</title>
<path fill="none" stroke="#63b8ff" d="M646.5398,-55.4961C647.8725,-55.3202 649.1945,-55.1542 650.5,-55 925.4949,-22.5142 997.5597,-51.9447 1272.5,-19 1275.4158,-18.6506 1278.4152,-18.2401 1281.4317,-17.7893"/>
<polygon fill="#63b8ff" stroke="#63b8ff" points="645.594,-52.0972 636.2075,-57.0108 646.6095,-59.0232 645.594,-52.0972"/>
</g>
<!-- Node11 -->
<g id="node11" class="node">
<title>Node11</title>
<g id="a_node11"><a xlink:href="../../da/d17/docparser_8cpp.html" target="_top" xlink:title=" ">
<polygon fill="#ffffff" stroke="#666666" points="400,-19 305,-19 305,0 400,0 400,-19"/>
<text text-anchor="middle" x="352.5" y="-7" font-family="Helvetica,sans-Serif" font-size="10.00" fill="#000000">src/docparser.cpp</text>
</a>
</g>
</g>
<!-- Node8&#45;&gt;Node11 -->
<g id="edge10" class="edge">
<title>Node8&#45;&gt;Node11</title>
<path fill="none" stroke="#63b8ff" d="M549.1355,-53.6427C504.1824,-43.5511 437.8808,-28.6671 394.937,-19.0267"/>
<polygon fill="#63b8ff" stroke="#63b8ff" points="548.4254,-57.0703 558.9492,-55.8457 549.9587,-50.2403 548.4254,-57.0703"/>
</g>
<!-- Node12 -->
<g id="node12" class="node">
<title>Node12</title>
<g id="a_node12"><a xlink:href="../../de/daa/dot_8cpp.html" target="_top" xlink:title=" ">
<polygon fill="#ffffff" stroke="#666666" points="483,-19 418,-19 418,0 483,0 483,-19"/>
<text text-anchor="middle" x="450.5" y="-7" font-family="Helvetica,sans-Serif" font-size="10.00" fill="#000000">src/dot.cpp</text>
</a>
</g>
</g>
<!-- Node8&#45;&gt;Node12 -->
<g id="edge11" class="edge">
<title>Node8&#45;&gt;Node12</title>
<path fill="none" stroke="#63b8ff" d="M562.2449,-51.3093C535.7817,-41.4081 500.1499,-28.0765 476.3052,-19.155"/>
<polygon fill="#63b8ff" stroke="#63b8ff" points="561.3021,-54.6935 571.8946,-54.9197 563.7552,-48.1373 561.3021,-54.6935"/>
</g>
<!-- Node13 -->
<g id="node13" class="node">
<title>Node13</title>
<g id="a_node13"><a xlink:href="../../de/d45/dotgraph_8cpp.html" target="_top" xlink:title=" ">
<polygon fill="#ffffff" stroke="#666666" points="590,-19 501,-19 501,0 590,0 590,-19"/>
<text text-anchor="middle" x="545.5" y="-7" font-family="Helvetica,sans-Serif" font-size="10.00" fill="#000000">src/dotgraph.cpp</text>
</a>
</g>
</g>
<!-- Node8&#45;&gt;Node13 -->
<g id="edge12" class="edge">
<title>Node8&#45;&gt;Node13</title>
<path fill="none" stroke="#63b8ff" d="M581.345,-47.413C572.6227,-38.1874 562.1659,-27.1274 554.8041,-19.3408"/>
<polygon fill="#63b8ff" stroke="#63b8ff" points="579.0289,-50.0578 588.4423,-54.9197 584.1154,-45.2487 579.0289,-50.0578"/>
</g>
<!-- Node14 -->
<g id="node14" class="node">
<title>Node14</title>
<g id="a_node14"><a xlink:href="../../d7/d5b/formula_8cpp.html" target="_top" xlink:title=" ">
<polygon fill="#ffffff" stroke="#666666" points="691.5,-19 607.5,-19 607.5,0 691.5,0 691.5,-19"/>
<text text-anchor="middle" x="649.5" y="-7" font-family="Helvetica,sans-Serif" font-size="10.00" fill="#000000">src/formula.cpp</text>
</a>
</g>
</g>
<!-- Node8&#45;&gt;Node14 -->
<g id="edge14" class="edge">
<title>Node8&#45;&gt;Node14</title>
<path fill="none" stroke="#63b8ff" d="M613.655,-47.413C622.3773,-38.1874 632.8341,-27.1274 640.1959,-19.3408"/>
<polygon fill="#63b8ff" stroke="#63b8ff" points="610.8846,-45.2487 606.5577,-54.9197 615.9711,-50.0578 610.8846,-45.2487"/>
</g>
<!-- Node15 -->
<g id="node15" class="node">
<title>Node15</title>
<g id="a_node15"><a xlink:href="../../da/db0/htmldocvisitor_8cpp.html" target="_top" xlink:title=" ">
<polygon fill="#ffffff" stroke="#666666" points="823,-19 710,-19 710,0 823,0 823,-19"/>
<text text-anchor="middle" x="766.5" y="-7" font-family="Helvetica,sans-Serif" font-size="10.00" fill="#000000">src/htmldocvisitor.cpp</text>
</a>
</g>
</g>
<!-- Node8&#45;&gt;Node15 -->
<g id="edge15" class="edge">
<title>Node8&#45;&gt;Node15</title>
<path fill="none" stroke="#63b8ff" d="M636.4635,-51.8196C667.139,-41.8364 709.2309,-28.1379 737.1168,-19.0626"/>
<polygon fill="#63b8ff" stroke="#63b8ff" points="635.3635,-48.4968 626.9376,-54.9197 637.5298,-55.1532 635.3635,-48.4968"/>
</g>
<!-- Node16 -->
<g id="node16" class="node">
<title>Node16</title>
<g id="a_node16"><a xlink:href="../../db/d33/msc_8cpp.html" target="_top" xlink:title=" ">
<polygon fill="#ffffff" stroke="#666666" points="912,-19 841,-19 841,0 912,0 912,-19"/>
<text text-anchor="middle" x="876.5" y="-7" font-family="Helvetica,sans-Serif" font-size="10.00" fill="#000000">src/msc.cpp</text>
</a>
</g>
</g>
<!-- Node8&#45;&gt;Node16 -->
<g id="edge18" class="edge">
<title>Node8&#45;&gt;Node16</title>
<path fill="none" stroke="#63b8ff" d="M646.2469,-55.3767C693.8171,-46.3993 768.2108,-32.1625 832.5,-19 835.2562,-18.4357 838.1073,-17.8422 840.9722,-17.239"/>
<polygon fill="#63b8ff" stroke="#63b8ff" points="645.4023,-51.9741 636.2233,-57.2654 646.6985,-58.8531 645.4023,-51.9741"/>
</g>
<!-- Node17 -->
<g id="node17" class="node">
<title>Node17</title>
<g id="a_node17"><a xlink:href="../../d7/d5b/plantuml_8cpp.html" target="_top" xlink:title=" ">
<polygon fill="#ffffff" stroke="#666666" points="1019,-19 930,-19 930,0 1019,0 1019,-19"/>
<text text-anchor="middle" x="974.5" y="-7" font-family="Helvetica,sans-Serif" font-size="10.00" fill="#000000">src/plantuml.cpp</text>
</a>
</g>
</g>
<!-- Node8&#45;&gt;Node17 -->
<g id="edge19" class="edge">
<title>Node8&#45;&gt;Node17</title>
<path fill="none" stroke="#63b8ff" d="M646.5575,-55.6256C647.885,-55.4116 649.2011,-55.2026 650.5,-55 770.5512,-36.2766 801.4488,-37.7234 921.5,-19 924.2709,-18.5678 927.1202,-18.1065 929.9915,-17.6288"/>
<polygon fill="#63b8ff" stroke="#63b8ff" points="645.5409,-52.2468 636.2533,-57.3448 646.6929,-59.1513 645.5409,-52.2468"/>
</g>
<!-- Node18 -->
<g id="node18" class="node">
<title>Node18</title>
<g id="a_node18"><a xlink:href="../../d9/d2f/searchindex__js_8cpp.html" target="_top" xlink:title=" ">
<polygon fill="#ffffff" stroke="#666666" points="1154,-19 1037,-19 1037,0 1154,0 1154,-19"/>
<text text-anchor="middle" x="1095.5" y="-7" font-family="Helvetica,sans-Serif" font-size="10.00" fill="#000000">src/searchindex_js.cpp</text>
</a>
</g>
</g>
<!-- Node8&#45;&gt;Node18 -->
<g id="edge20" class="edge">
<title>Node8&#45;&gt;Node18</title>
<path fill="none" stroke="#63b8ff" d="M646.5481,-55.561C647.8784,-55.3659 649.1976,-55.1784 650.5,-55 817.6983,-32.0931 860.9114,-38.8511 1028.5,-19 1031.1833,-18.6822 1033.9253,-18.3447 1036.6938,-17.9938"/>
<polygon fill="#63b8ff" stroke="#63b8ff" points="645.5664,-52.172 636.2288,-57.1781 646.6502,-59.0876 645.5664,-52.172"/>
</g>
<!-- Node8&#45;&gt;Node19 -->
<g id="edge21" class="edge">
<title>Node8&#45;&gt;Node19</title>
<path fill="none" stroke="#63b8ff" d="M646.5381,-55.4816C647.8713,-55.31 649.1939,-55.1488 650.5,-55 971.4861,-18.4258 1056.4198,-62.8002 1376.5,-19 1379.4627,-18.5946 1382.525,-18.0839 1385.5834,-17.5108"/>
<polygon fill="#63b8ff" stroke="#63b8ff" points="645.6005,-52.0806 636.2032,-56.9735 646.6007,-59.0088 645.6005,-52.0806"/>
</g>
</g>
</svg>
