<?xml version="1.0" encoding="UTF-8" standalone="no"?>
<!DOCTYPE svg PUBLIC "-//W3C//DTD SVG 1.1//EN"
 "http://www.w3.org/Graphics/SVG/1.1/DTD/svg11.dtd">
<!-- Generated by graphviz version 2.40.1 (20161225.0304)
 -->
<!-- Title: src/markdown.h Pages: 1 -->
<!--zoomable 302 -->
<svg id="main" version="1.1" xmlns="http://www.w3.org/2000/svg" xmlns:xlink="http://www.w3.org/1999/xlink" xml:space="preserve" onload="init(evt)">
<style type="text/css"><![CDATA[
.edge:hover path { stroke: red; }
.edge:hover polygon { stroke: red; fill: red; }
]]></style>
<script type="text/javascript"><![CDATA[
var edges = document.getElementsByTagName('g');
if (edges && edges.length) {
  for (var i=0;i<edges.length;i++) {
    if (edges[i].id.substr(0,4)=='edge') {
      edges[i].setAttribute('class','edge');
    }
  }
}
]]></script>
        <defs>
                <circle id="rim" cx="0" cy="0" r="7"/>
                <circle id="rim2" cx="0" cy="0" r="3.5"/>
                <g id="zoomPlus">
                        <use xlink:href="#rim" fill="#404040">
                                <set attributeName="fill" to="#808080" begin="zoomplus.mouseover" end="zoomplus.mouseout"/>
                        </use>
                        <path d="M-4,0h8M0,-4v8" fill="none" stroke="white" stroke-width="1.5" pointer-events="none"/>
                </g>
                <g id="zoomMin">
                        <use xlink:href="#rim" fill="#404040">
                                <set attributeName="fill" to="#808080" begin="zoomminus.mouseover" end="zoomminus.mouseout"/>
                        </use>
                        <path d="M-4,0h8" fill="none" stroke="white" stroke-width="1.5" pointer-events="none"/>
                </g>
                <g id="dirArrow">
                        <path fill="none" stroke="white" stroke-width="1.5" d="M0,-3.0v7 M-2.5,-0.5L0,-3.0L2.5,-0.5"/>
                </g>
               <g id="resetDef">
                       <use xlink:href="#rim2" fill="#404040">
                               <set attributeName="fill" to="#808080" begin="reset.mouseover" end="reset.mouseout"/>
                       </use>
               </g>
        </defs>

<script type="text/javascript">
var viewWidth = 963;
var viewHeight = 302;
var sectionId = 'dynsection-0';
</script>
<script xlink:href="../../svgpan.js"/>
<svg id="graph" class="graph">
<g id="viewport">
<title>src/markdown.h</title>
<!-- Node1 -->
<g id="node1" class="node">
<title>Node1</title>
<g id="a_node1"><a xlink:title=" ">
<polygon fill="#999999" stroke="#666666" points="408,-294 322,-294 322,-275 408,-275 408,-294"/>
<text text-anchor="middle" x="365" y="-282" font-family="Helvetica,sans-Serif" font-size="10.00" fill="#000000">src/markdown.h</text>
</a>
</g>
</g>
<!-- Node2 -->
<g id="node2" class="node">
<title>Node2</title>
<g id="a_node2"><a xlink:title=" ">
<polygon fill="#e0e0e0" stroke="#999999" points="287.5,-184 228.5,-184 228.5,-165 287.5,-165 287.5,-184"/>
<text text-anchor="middle" x="258" y="-172" font-family="Helvetica,sans-Serif" font-size="10.00" fill="#000000">functional</text>
</a>
</g>
</g>
<!-- Node1&#45;&gt;Node2 -->
<g id="edge1" class="edge">
<title>Node1&#45;&gt;Node2</title>
<path fill="none" stroke="#63b8ff" d="M355.5045,-274.7382C337.2952,-256.0184 297.2642,-214.865 274.5639,-191.5283"/>
<polygon fill="#63b8ff" stroke="#63b8ff" points="276.803,-188.8106 267.3215,-184.0828 271.7853,-193.6914 276.803,-188.8106"/>
</g>
<!-- Node3 -->
<g id="node3" class="node">
<title>Node3</title>
<g id="a_node3"><a xlink:href="../../d7/d5c/qcstring_8h.html" target="_top" xlink:title=" ">
<polygon fill="#ffffff" stroke="#666666" points="228.5,-129 169.5,-129 169.5,-110 228.5,-110 228.5,-129"/>
<text text-anchor="middle" x="199" y="-117" font-family="Helvetica,sans-Serif" font-size="10.00" fill="#000000">qcstring.h</text>
</a>
</g>
</g>
<!-- Node1&#45;&gt;Node3 -->
<g id="edge2" class="edge">
<title>Node1&#45;&gt;Node3</title>
<path fill="none" stroke="#63b8ff" d="M342.7161,-274.983C310.6698,-260.1761 251.8247,-228.6154 219,-184 209.3383,-170.8677 204.2717,-152.97 201.659,-139.3592"/>
<polygon fill="#63b8ff" stroke="#63b8ff" points="205.0556,-138.4409 199.9944,-129.1332 198.1466,-139.5656 205.0556,-138.4409"/>
</g>
<!-- Node13 -->
<g id="node13" class="node">
<title>Node13</title>
<g id="a_node13"><a xlink:href="../../da/d55/parserintf_8h.html" target="_top" xlink:title=" ">
<polygon fill="#ffffff" stroke="#666666" points="433.5,-239 368.5,-239 368.5,-220 433.5,-220 433.5,-239"/>
<text text-anchor="middle" x="401" y="-227" font-family="Helvetica,sans-Serif" font-size="10.00" fill="#000000">parserintf.h</text>
</a>
</g>
</g>
<!-- Node1&#45;&gt;Node13 -->
<g id="edge14" class="edge">
<title>Node1&#45;&gt;Node13</title>
<path fill="none" stroke="#63b8ff" d="M371.2707,-274.9197C376.166,-267.4409 383.1112,-256.8301 389.0578,-247.745"/>
<polygon fill="#63b8ff" stroke="#63b8ff" points="392.0106,-249.6247 394.5587,-239.3408 386.1536,-245.791 392.0106,-249.6247"/>
</g>
<!-- Node23 -->
<g id="node23" class="node">
<title>Node23</title>
<g id="a_node23"><a xlink:href="../../dd/d72/growbuf_8h.html" target="_top" xlink:title=" ">
<polygon fill="#ffffff" stroke="#666666" points="850.5,-239 791.5,-239 791.5,-220 850.5,-220 850.5,-239"/>
<text text-anchor="middle" x="821" y="-227" font-family="Helvetica,sans-Serif" font-size="10.00" fill="#000000">growbuf.h</text>
</a>
</g>
</g>
<!-- Node1&#45;&gt;Node23 -->
<g id="edge29" class="edge">
<title>Node1&#45;&gt;Node23</title>
<path fill="none" stroke="#63b8ff" d="M408.3105,-279.2761C496.557,-268.6324 696.0232,-244.574 781.2146,-234.2987"/>
<polygon fill="#63b8ff" stroke="#63b8ff" points="781.7527,-237.7592 791.2616,-233.0869 780.9144,-230.8096 781.7527,-237.7592"/>
</g>
<!-- Node4 -->
<g id="node4" class="node">
<title>Node4</title>
<g id="a_node4"><a xlink:title=" ">
<polygon fill="#e0e0e0" stroke="#999999" points="587.5,-19 546.5,-19 546.5,0 587.5,0 587.5,-19"/>
<text text-anchor="middle" x="567" y="-7" font-family="Helvetica,sans-Serif" font-size="10.00" fill="#000000">string</text>
</a>
</g>
</g>
<!-- Node3&#45;&gt;Node4 -->
<g id="edge3" class="edge">
<title>Node3&#45;&gt;Node4</title>
<path fill="none" stroke="#63b8ff" d="M228.6666,-111.8392C258.8822,-103.6989 306.8664,-89.8347 347,-74 364.9354,-66.9236 367.8868,-61.6079 386,-55 437.3914,-36.2518 499.7228,-22.4425 536.2114,-15.2122"/>
<polygon fill="#63b8ff" stroke="#63b8ff" points="537.0781,-18.6093 546.2262,-13.2649 535.742,-11.738 537.0781,-18.6093"/>
</g>
<!-- Node5 -->
<g id="node5" class="node">
<title>Node5</title>
<g id="a_node5"><a xlink:title=" ">
<polygon fill="#e0e0e0" stroke="#999999" points="451,-74 395,-74 395,-55 451,-55 451,-74"/>
<text text-anchor="middle" x="423" y="-62" font-family="Helvetica,sans-Serif" font-size="10.00" fill="#000000">algorithm</text>
</a>
</g>
</g>
<!-- Node3&#45;&gt;Node5 -->
<g id="edge4" class="edge">
<title>Node3&#45;&gt;Node5</title>
<path fill="none" stroke="#63b8ff" d="M228.8672,-112.018C231.6163,-111.3339 234.3594,-110.653 237,-110 288.1794,-97.3428 347.3296,-82.9061 384.9338,-73.7522"/>
<polygon fill="#63b8ff" stroke="#63b8ff" points="386.0553,-77.0815 394.9442,-71.3163 384.4002,-70.28 386.0553,-77.0815"/>
</g>
<!-- Node6 -->
<g id="node6" class="node">
<title>Node6</title>
<g id="a_node6"><a xlink:title=" ">
<polygon fill="#e0e0e0" stroke="#999999" points="515,-74 469,-74 469,-55 515,-55 515,-74"/>
<text text-anchor="middle" x="492" y="-62" font-family="Helvetica,sans-Serif" font-size="10.00" fill="#000000">cctype</text>
</a>
</g>
</g>
<!-- Node3&#45;&gt;Node6 -->
<g id="edge5" class="edge">
<title>Node3&#45;&gt;Node6</title>
<path fill="none" stroke="#63b8ff" d="M228.816,-111.7918C231.5759,-111.1552 234.3355,-110.5471 237,-110 332.2694,-90.4382 360.3775,-95.9504 458.9129,-74.0127"/>
<polygon fill="#63b8ff" stroke="#63b8ff" points="459.6931,-77.4247 468.673,-71.8023 458.1469,-70.5976 459.6931,-77.4247"/>
</g>
<!-- Node7 -->
<g id="node7" class="node">
<title>Node7</title>
<g id="a_node7"><a xlink:title=" ">
<polygon fill="#e0e0e0" stroke="#999999" points="46,-74 0,-74 0,-55 46,-55 46,-74"/>
<text text-anchor="middle" x="23" y="-62" font-family="Helvetica,sans-Serif" font-size="10.00" fill="#000000">cstring</text>
</a>
</g>
</g>
<!-- Node3&#45;&gt;Node7 -->
<g id="edge6" class="edge">
<title>Node3&#45;&gt;Node7</title>
<path fill="none" stroke="#63b8ff" d="M169.144,-110.17C137.8164,-100.3801 88.6943,-85.0295 56.175,-74.8672"/>
<polygon fill="#63b8ff" stroke="#63b8ff" points="56.8325,-71.4058 46.2437,-71.7637 54.7446,-78.0872 56.8325,-71.4058"/>
</g>
<!-- Node8 -->
<g id="node8" class="node">
<title>Node8</title>
<g id="a_node8"><a xlink:title=" ">
<polygon fill="#e0e0e0" stroke="#999999" points="107.5,-74 64.5,-74 64.5,-55 107.5,-55 107.5,-74"/>
<text text-anchor="middle" x="86" y="-62" font-family="Helvetica,sans-Serif" font-size="10.00" fill="#000000">cstdio</text>
</a>
</g>
</g>
<!-- Node3&#45;&gt;Node8 -->
<g id="edge7" class="edge">
<title>Node3&#45;&gt;Node8</title>
<path fill="none" stroke="#63b8ff" d="M179.3169,-109.9197C161.5213,-101.2581 135.0948,-88.3957 114.9023,-78.5675"/>
<polygon fill="#63b8ff" stroke="#63b8ff" points="116.36,-75.3844 105.8367,-74.155 113.2964,-81.6785 116.36,-75.3844"/>
</g>
<!-- Node9 -->
<g id="node9" class="node">
<title>Node9</title>
<g id="a_node9"><a xlink:title=" ">
<polygon fill="#e0e0e0" stroke="#999999" points="170.5,-74 125.5,-74 125.5,-55 170.5,-55 170.5,-74"/>
<text text-anchor="middle" x="148" y="-62" font-family="Helvetica,sans-Serif" font-size="10.00" fill="#000000">cstdlib</text>
</a>
</g>
</g>
<!-- Node3&#45;&gt;Node9 -->
<g id="edge8" class="edge">
<title>Node3&#45;&gt;Node9</title>
<path fill="none" stroke="#63b8ff" d="M190.1165,-109.9197C182.9648,-102.2072 172.7247,-91.1639 164.1325,-81.8978"/>
<polygon fill="#63b8ff" stroke="#63b8ff" points="166.491,-79.2937 157.1251,-74.3408 161.3581,-84.0533 166.491,-79.2937"/>
</g>
<!-- Node10 -->
<g id="node10" class="node">
<title>Node10</title>
<g id="a_node10"><a xlink:title=" ">
<polygon fill="#e0e0e0" stroke="#999999" points="282,-19 236,-19 236,0 282,0 282,-19"/>
<text text-anchor="middle" x="259" y="-7" font-family="Helvetica,sans-Serif" font-size="10.00" fill="#000000">cstdint</text>
</a>
</g>
</g>
<!-- Node3&#45;&gt;Node10 -->
<g id="edge9" class="edge">
<title>Node3&#45;&gt;Node10</title>
<path fill="none" stroke="#63b8ff" d="M200.4686,-109.7937C202.7514,-96.6936 207.9711,-72.9316 218,-55 223.8392,-44.5596 232.4642,-34.5084 240.2988,-26.5206"/>
<polygon fill="#63b8ff" stroke="#63b8ff" points="243.0113,-28.7648 247.7376,-19.2826 238.1296,-23.7478 243.0113,-28.7648"/>
</g>
<!-- Node11 -->
<g id="node11" class="node">
<title>Node11</title>
<g id="a_node11"><a xlink:title=" ">
<polygon fill="#e0e0e0" stroke="#999999" points="279,-74 227,-74 227,-55 279,-55 279,-74"/>
<text text-anchor="middle" x="253" y="-62" font-family="Helvetica,sans-Serif" font-size="10.00" fill="#000000">ostream</text>
</a>
</g>
</g>
<!-- Node3&#45;&gt;Node11 -->
<g id="edge10" class="edge">
<title>Node3&#45;&gt;Node11</title>
<path fill="none" stroke="#63b8ff" d="M208.4061,-109.9197C216.0549,-102.1293 227.0403,-90.9405 236.1936,-81.6176"/>
<polygon fill="#63b8ff" stroke="#63b8ff" points="238.8296,-83.9286 243.3381,-74.3408 233.8347,-79.0244 238.8296,-83.9286"/>
</g>
<!-- Node12 -->
<g id="node12" class="node">
<title>Node12</title>
<g id="a_node12"><a xlink:href="../../db/d7c/utf8_8h.html" target="_top" xlink:title="Various UTF8 related helper functions.">
<polygon fill="#ffffff" stroke="#666666" points="338.5,-74 297.5,-74 297.5,-55 338.5,-55 338.5,-74"/>
<text text-anchor="middle" x="318" y="-62" font-family="Helvetica,sans-Serif" font-size="10.00" fill="#000000">utf8.h</text>
</a>
</g>
</g>
<!-- Node3&#45;&gt;Node12 -->
<g id="edge11" class="edge">
<title>Node3&#45;&gt;Node12</title>
<path fill="none" stroke="#63b8ff" d="M219.7282,-109.9197C238.5535,-101.219 266.5505,-88.2792 287.8513,-78.4343"/>
<polygon fill="#63b8ff" stroke="#63b8ff" points="289.5011,-81.5276 297.11,-74.155 286.5643,-75.1734 289.5011,-81.5276"/>
</g>
<!-- Node12&#45;&gt;Node4 -->
<g id="edge13" class="edge">
<title>Node12&#45;&gt;Node4</title>
<path fill="none" stroke="#63b8ff" d="M338.6791,-58.6829C343.3747,-57.419 348.3489,-56.1247 353,-55 417.8687,-39.3131 494.5021,-23.7257 536.193,-15.4909"/>
<polygon fill="#63b8ff" stroke="#63b8ff" points="537.1184,-18.876 546.2553,-13.5123 535.7678,-12.0076 537.1184,-18.876"/>
</g>
<!-- Node12&#45;&gt;Node10 -->
<g id="edge12" class="edge">
<title>Node12&#45;&gt;Node10</title>
<path fill="none" stroke="#63b8ff" d="M307.723,-54.9197C299.2824,-47.0514 287.123,-35.7164 277.0631,-26.3385"/>
<polygon fill="#63b8ff" stroke="#63b8ff" points="279.2578,-23.5995 269.5565,-19.3408 274.4846,-28.7198 279.2578,-23.5995"/>
</g>
<!-- Node13&#45;&gt;Node2 -->
<g id="edge15" class="edge">
<title>Node13&#45;&gt;Node2</title>
<path fill="none" stroke="#63b8ff" d="M376.0913,-219.9197C352.9598,-211.023 318.3049,-197.6942 292.512,-187.7739"/>
<polygon fill="#63b8ff" stroke="#63b8ff" points="293.693,-184.4782 283.1031,-184.155 291.1801,-191.0116 293.693,-184.4782"/>
</g>
<!-- Node13&#45;&gt;Node4 -->
<g id="edge18" class="edge">
<title>Node13&#45;&gt;Node4</title>
<path fill="none" stroke="#63b8ff" d="M433.6291,-223.4679C503.9591,-209.7131 665.9228,-173.7312 696,-129 727.8068,-81.6966 644.5902,-39.8248 597.2189,-20.6259"/>
<polygon fill="#63b8ff" stroke="#63b8ff" points="598.2957,-17.2884 587.7087,-16.8794 595.7299,-23.8012 598.2957,-17.2884"/>
</g>
<!-- Node14 -->
<g id="node14" class="node">
<title>Node14</title>
<g id="a_node14"><a xlink:title=" ">
<polygon fill="#e0e0e0" stroke="#999999" points="358,-184 306,-184 306,-165 358,-165 358,-184"/>
<text text-anchor="middle" x="332" y="-172" font-family="Helvetica,sans-Serif" font-size="10.00" fill="#000000">memory</text>
</a>
</g>
</g>
<!-- Node13&#45;&gt;Node14 -->
<g id="edge16" class="edge">
<title>Node13&#45;&gt;Node14</title>
<path fill="none" stroke="#63b8ff" d="M388.9811,-219.9197C378.9144,-211.8956 364.3247,-200.2661 352.4287,-190.7837"/>
<polygon fill="#63b8ff" stroke="#63b8ff" points="354.3471,-187.8371 344.3458,-184.3408 349.9839,-193.3109 354.3471,-187.8371"/>
</g>
<!-- Node15 -->
<g id="node15" class="node">
<title>Node15</title>
<g id="a_node15"><a xlink:title=" ">
<polygon fill="#e0e0e0" stroke="#999999" points="281.5,-129 246.5,-129 246.5,-110 281.5,-110 281.5,-129"/>
<text text-anchor="middle" x="264" y="-117" font-family="Helvetica,sans-Serif" font-size="10.00" fill="#000000">map</text>
</a>
</g>
</g>
<!-- Node13&#45;&gt;Node15 -->
<g id="edge17" class="edge">
<title>Node13&#45;&gt;Node15</title>
<path fill="none" stroke="#63b8ff" d="M412.641,-219.6557C426.9084,-206.3991 447.6097,-182.4605 434,-165 395.5979,-115.732 357.5018,-144.8432 291.5747,-128.6941"/>
<polygon fill="#63b8ff" stroke="#63b8ff" points="292.2122,-125.2397 281.6424,-125.9683 290.3596,-131.9901 292.2122,-125.2397"/>
</g>
<!-- Node16 -->
<g id="node16" class="node">
<title>Node16</title>
<g id="a_node16"><a xlink:href="../../d9/d49/types_8h.html" target="_top" xlink:title="This file contains a number of basic enums and types.">
<polygon fill="#ffffff" stroke="#666666" points="425.5,-184 376.5,-184 376.5,-165 425.5,-165 425.5,-184"/>
<text text-anchor="middle" x="401" y="-172" font-family="Helvetica,sans-Serif" font-size="10.00" fill="#000000">types.h</text>
</a>
</g>
</g>
<!-- Node13&#45;&gt;Node16 -->
<g id="edge19" class="edge">
<title>Node13&#45;&gt;Node16</title>
<path fill="none" stroke="#63b8ff" d="M401,-219.9197C401,-212.9083 401,-203.1442 401,-194.4652"/>
<polygon fill="#63b8ff" stroke="#63b8ff" points="404.5001,-194.3408 401,-184.3408 397.5001,-194.3409 404.5001,-194.3408"/>
</g>
<!-- Node17 -->
<g id="node17" class="node">
<title>Node17</title>
<g id="a_node17"><a xlink:href="../../d5/d75/containers_8h.html" target="_top" xlink:title=" ">
<polygon fill="#ffffff" stroke="#666666" points="552,-184 482,-184 482,-165 552,-165 552,-184"/>
<text text-anchor="middle" x="517" y="-172" font-family="Helvetica,sans-Serif" font-size="10.00" fill="#000000">containers.h</text>
</a>
</g>
</g>
<!-- Node13&#45;&gt;Node17 -->
<g id="edge21" class="edge">
<title>Node13&#45;&gt;Node17</title>
<path fill="none" stroke="#63b8ff" d="M421.2057,-219.9197C439.4737,-211.2581 466.6018,-198.3957 487.3304,-188.5675"/>
<polygon fill="#63b8ff" stroke="#63b8ff" points="489.1004,-191.6018 496.6367,-184.155 486.1014,-185.2768 489.1004,-191.6018"/>
</g>
<!-- Node16&#45;&gt;Node3 -->
<g id="edge20" class="edge">
<title>Node16&#45;&gt;Node3</title>
<path fill="none" stroke="#63b8ff" d="M376.4924,-167.6272C373.3002,-166.7393 370.0728,-165.8454 367,-165 323.1701,-152.9416 272.838,-139.3429 238.7814,-130.1783"/>
<polygon fill="#63b8ff" stroke="#63b8ff" points="239.3257,-126.7004 228.7599,-127.4831 237.5077,-133.4602 239.3257,-126.7004"/>
</g>
<!-- Node17&#45;&gt;Node4 -->
<g id="edge23" class="edge">
<title>Node17&#45;&gt;Node4</title>
<path fill="none" stroke="#63b8ff" d="M525.2267,-164.701C532.1507,-155.9165 541.7407,-142.3858 547,-129 560.1483,-95.5351 564.6548,-53.4839 566.198,-29.2316"/>
<polygon fill="#63b8ff" stroke="#63b8ff" points="569.6979,-29.3239 566.7307,-19.1531 562.7077,-28.9544 569.6979,-29.3239"/>
</g>
<!-- Node17&#45;&gt;Node15 -->
<g id="edge25" class="edge">
<title>Node17&#45;&gt;Node15</title>
<path fill="none" stroke="#63b8ff" d="M481.9909,-167.5849C427.7749,-156.8594 326.7623,-136.8047 291.6167,-128.6084"/>
<polygon fill="#63b8ff" stroke="#63b8ff" points="292.1584,-125.1358 281.6068,-126.0919 290.4517,-131.9245 292.1584,-125.1358"/>
</g>
<!-- Node18 -->
<g id="node18" class="node">
<title>Node18</title>
<g id="a_node18"><a xlink:title=" ">
<polygon fill="#e0e0e0" stroke="#999999" points="639,-129 595,-129 595,-110 639,-110 639,-129"/>
<text text-anchor="middle" x="617" y="-117" font-family="Helvetica,sans-Serif" font-size="10.00" fill="#000000">vector</text>
</a>
</g>
</g>
<!-- Node17&#45;&gt;Node18 -->
<g id="edge22" class="edge">
<title>Node17&#45;&gt;Node18</title>
<path fill="none" stroke="#63b8ff" d="M534.4187,-164.9197C549.8107,-156.4541 572.499,-143.9755 590.2016,-134.2391"/>
<polygon fill="#63b8ff" stroke="#63b8ff" points="592.37,-137.041 599.4454,-129.155 588.9965,-130.9075 592.37,-137.041"/>
</g>
<!-- Node19 -->
<g id="node19" class="node">
<title>Node19</title>
<g id="a_node19"><a xlink:title=" ">
<polygon fill="#e0e0e0" stroke="#999999" points="687,-129 657,-129 657,-110 687,-110 687,-129"/>
<text text-anchor="middle" x="672" y="-117" font-family="Helvetica,sans-Serif" font-size="10.00" fill="#000000">set</text>
</a>
</g>
</g>
<!-- Node17&#45;&gt;Node19 -->
<g id="edge24" class="edge">
<title>Node17&#45;&gt;Node19</title>
<path fill="none" stroke="#63b8ff" d="M545.4898,-164.9951C570.1867,-156.6701 607.0823,-144.0296 647.3381,-129.1465"/>
<polygon fill="#63b8ff" stroke="#63b8ff" points="648.6482,-132.3936 656.8022,-125.6288 646.2093,-125.8322 648.6482,-132.3936"/>
</g>
<!-- Node20 -->
<g id="node20" class="node">
<title>Node20</title>
<g id="a_node20"><a xlink:title=" ">
<polygon fill="#e0e0e0" stroke="#999999" points="378,-129 300,-129 300,-110 378,-110 378,-129"/>
<text text-anchor="middle" x="339" y="-117" font-family="Helvetica,sans-Serif" font-size="10.00" fill="#000000">unordered_set</text>
</a>
</g>
</g>
<!-- Node17&#45;&gt;Node20 -->
<g id="edge26" class="edge">
<title>Node17&#45;&gt;Node20</title>
<path fill="none" stroke="#63b8ff" d="M485.9948,-164.9197C456.4772,-155.7991 411.8849,-142.0206 379.5569,-132.0316"/>
<polygon fill="#63b8ff" stroke="#63b8ff" points="380.5356,-128.6708 369.948,-129.0626 378.4691,-135.3588 380.5356,-128.6708"/>
</g>
<!-- Node21 -->
<g id="node21" class="node">
<title>Node21</title>
<g id="a_node21"><a xlink:title=" ">
<polygon fill="#e0e0e0" stroke="#999999" points="479.5,-129 396.5,-129 396.5,-110 479.5,-110 479.5,-129"/>
<text text-anchor="middle" x="438" y="-117" font-family="Helvetica,sans-Serif" font-size="10.00" fill="#000000">unordered_map</text>
</a>
</g>
</g>
<!-- Node17&#45;&gt;Node21 -->
<g id="edge27" class="edge">
<title>Node17&#45;&gt;Node21</title>
<path fill="none" stroke="#63b8ff" d="M503.2393,-164.9197C491.4173,-156.6893 474.1471,-144.6657 460.3451,-135.0567"/>
<polygon fill="#63b8ff" stroke="#63b8ff" points="462.0749,-131.9963 451.8681,-129.155 458.0753,-137.7412 462.0749,-131.9963"/>
</g>
<!-- Node22 -->
<g id="node22" class="node">
<title>Node22</title>
<g id="a_node22"><a xlink:title=" ">
<polygon fill="#e0e0e0" stroke="#999999" points="538.5,-129 497.5,-129 497.5,-110 538.5,-110 538.5,-129"/>
<text text-anchor="middle" x="518" y="-117" font-family="Helvetica,sans-Serif" font-size="10.00" fill="#000000">stack</text>
</a>
</g>
</g>
<!-- Node17&#45;&gt;Node22 -->
<g id="edge28" class="edge">
<title>Node17&#45;&gt;Node22</title>
<path fill="none" stroke="#63b8ff" d="M517.1742,-164.9197C517.3017,-157.9083 517.4792,-148.1442 517.637,-139.4652"/>
<polygon fill="#63b8ff" stroke="#63b8ff" points="521.1386,-139.4028 517.8211,-129.3408 514.1398,-139.2755 521.1386,-139.4028"/>
</g>
<!-- Node23&#45;&gt;Node4 -->
<g id="edge33" class="edge">
<title>Node23&#45;&gt;Node4</title>
<path fill="none" stroke="#63b8ff" d="M819.6902,-219.7017C817.5873,-206.4973 812.571,-182.6175 802,-165 766.1021,-105.1728 748.9145,-92.3769 690,-55 660.9768,-36.5869 623.4115,-24.0679 597.471,-16.8945"/>
<polygon fill="#63b8ff" stroke="#63b8ff" points="598.3663,-13.511 587.8024,-14.3192 596.5646,-20.2752 598.3663,-13.511"/>
</g>
<!-- Node24 -->
<g id="node24" class="node">
<title>Node24</title>
<g id="a_node24"><a xlink:title=" ">
<polygon fill="#e0e0e0" stroke="#999999" points="889,-184 849,-184 849,-165 889,-165 889,-184"/>
<text text-anchor="middle" x="869" y="-172" font-family="Helvetica,sans-Serif" font-size="10.00" fill="#000000">utility</text>
</a>
</g>
</g>
<!-- Node23&#45;&gt;Node24 -->
<g id="edge30" class="edge">
<title>Node23&#45;&gt;Node24</title>
<path fill="none" stroke="#63b8ff" d="M829.361,-219.9197C836.0919,-212.2072 845.7297,-201.1639 853.8164,-191.8978"/>
<polygon fill="#63b8ff" stroke="#63b8ff" points="856.4733,-194.1765 860.4116,-184.3408 851.1993,-189.5737 856.4733,-194.1765"/>
</g>
<!-- Node25 -->
<g id="node25" class="node">
<title>Node25</title>
<g id="a_node25"><a xlink:title=" ">
<polygon fill="#e0e0e0" stroke="#999999" points="955,-184 907,-184 907,-165 955,-165 955,-184"/>
<text text-anchor="middle" x="931" y="-172" font-family="Helvetica,sans-Serif" font-size="10.00" fill="#000000">stdlib.h</text>
</a>
</g>
</g>
<!-- Node23&#45;&gt;Node25 -->
<g id="edge31" class="edge">
<title>Node23&#45;&gt;Node25</title>
<path fill="none" stroke="#63b8ff" d="M840.1605,-219.9197C857.4053,-211.2973 882.976,-198.512 902.5978,-188.7011"/>
<polygon fill="#63b8ff" stroke="#63b8ff" points="904.3109,-191.7577 911.69,-184.155 901.1804,-185.4967 904.3109,-191.7577"/>
</g>
<!-- Node26 -->
<g id="node26" class="node">
<title>Node26</title>
<g id="a_node26"><a xlink:title=" ">
<polygon fill="#e0e0e0" stroke="#999999" points="792.5,-184 743.5,-184 743.5,-165 792.5,-165 792.5,-184"/>
<text text-anchor="middle" x="768" y="-172" font-family="Helvetica,sans-Serif" font-size="10.00" fill="#000000">string.h</text>
</a>
</g>
</g>
<!-- Node23&#45;&gt;Node26 -->
<g id="edge32" class="edge">
<title>Node23&#45;&gt;Node26</title>
<path fill="none" stroke="#63b8ff" d="M811.7681,-219.9197C804.2609,-212.1293 793.479,-200.9405 784.4951,-191.6176"/>
<polygon fill="#63b8ff" stroke="#63b8ff" points="786.9422,-189.113 777.483,-184.3408 781.9017,-193.9703 786.9422,-189.113"/>
</g>
</g>
</svg>
        <g id="navigator" transform="translate(0 0)" fill="#404254">
                <rect fill="#f2f5e9" fill-opacity="0.5" stroke="#606060" stroke-width=".5" x="0" y="0" width="60" height="60"/>
                <use id="zoomplus" xlink:href="#zoomPlus" x="17" y="9" onmousedown="handleZoom(evt,'in')"/>
                <use id="zoomminus" xlink:href="#zoomMin" x="42" y="9" onmousedown="handleZoom(evt,'out')"/>
                <use id="reset" xlink:href="#resetDef" x="30" y="36" onmousedown="handleReset()"/>
                <g id="arrowUp" xlink:href="#dirArrow" transform="translate(30 24)" onmousedown="handlePan(0,-1)">
                  <use xlink:href="#rim" fill="#404040">
                        <set attributeName="fill" to="#808080" begin="arrowUp.mouseover" end="arrowUp.mouseout"/>
                  </use>
                  <path fill="none" stroke="white" stroke-width="1.5" d="M0,-3.0v7 M-2.5,-0.5L0,-3.0L2.5,-0.5"/>
                </g>
                <g id="arrowRight" xlink:href="#dirArrow" transform="rotate(90) translate(36 -43)" onmousedown="handlePan(1,0)">
                  <use xlink:href="#rim" fill="#404040">
                        <set attributeName="fill" to="#808080" begin="arrowRight.mouseover" end="arrowRight.mouseout"/>
                  </use>
                  <path fill="none" stroke="white" stroke-width="1.5" d="M0,-3.0v7 M-2.5,-0.5L0,-3.0L2.5,-0.5"/>
                </g>
                <g id="arrowDown" xlink:href="#dirArrow" transform="rotate(180) translate(-30 -48)" onmousedown="handlePan(0,1)">
                  <use xlink:href="#rim" fill="#404040">
                        <set attributeName="fill" to="#808080" begin="arrowDown.mouseover" end="arrowDown.mouseout"/>
                  </use>
                  <path fill="none" stroke="white" stroke-width="1.5" d="M0,-3.0v7 M-2.5,-0.5L0,-3.0L2.5,-0.5"/>
                </g>
                <g id="arrowLeft" xlink:href="#dirArrow" transform="rotate(270) translate(-36 17)" onmousedown="handlePan(-1,0)">
                  <use xlink:href="#rim" fill="#404040">
                        <set attributeName="fill" to="#808080" begin="arrowLeft.mouseover" end="arrowLeft.mouseout"/>
                  </use>
                  <path fill="none" stroke="white" stroke-width="1.5" d="M0,-3.0v7 M-2.5,-0.5L0,-3.0L2.5,-0.5"/>
                </g>
        </g>
        <svg viewBox="0 0 15 15" width="100%" height="30px" preserveAspectRatio="xMaxYMin meet">
         <g id="arrow_out" transform="scale(0.3 0.3)">
          <a xlink:href="markdown_8h__incl_org.svg" target="_base">
           <rect id="button" ry="5" rx="5" y="6" x="6" height="38" width="38"
                fill="#f2f5e9" fill-opacity="0.5" stroke="#606060" stroke-width="1.0"/>
           <path id="arrow"
             d="M 11.500037,31.436501 C 11.940474,20.09759 22.043105,11.32322 32.158766,21.979434 L 37.068811,17.246167 C 37.068811,17.246167 37.088388,32 37.088388,32 L 22.160133,31.978069 C 22.160133,31.978069 26.997745,27.140456 26.997745,27.140456 C 18.528582,18.264221 13.291696,25.230495 11.500037,31.436501 z"
             style="fill:#404040;"/>
          </a>
         </g>
        </svg>
</svg>
