<?xml version="1.0" encoding="UTF-8" standalone="no"?>
<!DOCTYPE svg PUBLIC "-//W3C//DTD SVG 1.1//EN"
 "http://www.w3.org/Graphics/SVG/1.1/DTD/svg11.dtd">
<!-- Generated by graphviz version 2.40.1 (20161225.0304)
 -->
<!-- Title: TranslatorAdapter_1_8_2 Pages: 1 -->
<!--zoomable 378 -->
<svg id="main" version="1.1" xmlns="http://www.w3.org/2000/svg" xmlns:xlink="http://www.w3.org/1999/xlink" xml:space="preserve" onload="init(evt)">
<style type="text/css"><![CDATA[
.edge:hover path { stroke: red; }
.edge:hover polygon { stroke: red; fill: red; }
]]></style>
<script type="text/javascript"><![CDATA[
var edges = document.getElementsByTagName('g');
if (edges && edges.length) {
  for (var i=0;i<edges.length;i++) {
    if (edges[i].id.substr(0,4)=='edge') {
      edges[i].setAttribute('class','edge');
    }
  }
}
]]></script>
        <defs>
                <circle id="rim" cx="0" cy="0" r="7"/>
                <circle id="rim2" cx="0" cy="0" r="3.5"/>
                <g id="zoomPlus">
                        <use xlink:href="#rim" fill="#404040">
                                <set attributeName="fill" to="#808080" begin="zoomplus.mouseover" end="zoomplus.mouseout"/>
                        </use>
                        <path d="M-4,0h8M0,-4v8" fill="none" stroke="white" stroke-width="1.5" pointer-events="none"/>
                </g>
                <g id="zoomMin">
                        <use xlink:href="#rim" fill="#404040">
                                <set attributeName="fill" to="#808080" begin="zoomminus.mouseover" end="zoomminus.mouseout"/>
                        </use>
                        <path d="M-4,0h8" fill="none" stroke="white" stroke-width="1.5" pointer-events="none"/>
                </g>
                <g id="dirArrow">
                        <path fill="none" stroke="white" stroke-width="1.5" d="M0,-3.0v7 M-2.5,-0.5L0,-3.0L2.5,-0.5"/>
                </g>
               <g id="resetDef">
                       <use xlink:href="#rim2" fill="#404040">
                               <set attributeName="fill" to="#808080" begin="reset.mouseover" end="reset.mouseout"/>
                       </use>
               </g>
        </defs>

<script type="text/javascript">
var viewWidth = 1985;
var viewHeight = 378;
var sectionId = 'dynsection-0';
</script>
<script xlink:href="../../svgpan.js"/>
<svg id="graph" class="graph">
<g id="viewport">
<title>TranslatorAdapter_1_8_2</title>
<!-- Node1 -->
<g id="node1" class="node">
<title>Node1</title>
<g id="a_node1"><a xlink:title=" ">
<polygon fill="#999999" stroke="#666666" points="1190,-56 1065,-56 1065,-37 1190,-37 1190,-56"/>
<text text-anchor="middle" x="1127.5" y="-44" font-family="Helvetica,sans-Serif" font-size="10.00" fill="#000000">TranslatorAdapter_1_8_2</text>
</a>
</g>
</g>
<!-- Node9 -->
<g id="node9" class="node">
<title>Node9</title>
<g id="a_node9"><a xlink:href="../../de/d49/class_translator_adapter__1__8__0.html" target="_top" xlink:title="Adapter class for languages that only contain translations up to version 1.8.0.">
<polygon fill="#ffffff" stroke="#666666" points="1351,-93 1226,-93 1226,-74 1351,-74 1351,-93"/>
<text text-anchor="middle" x="1288.5" y="-81" font-family="Helvetica,sans-Serif" font-size="10.00" fill="#000000">TranslatorAdapter_1_8_0</text>
</a>
</g>
</g>
<!-- Node1&#45;&gt;Node9 -->
<g id="edge8" class="edge">
<title>Node1&#45;&gt;Node9</title>
<path fill="none" stroke="#63b8ff" d="M1178.7953,-58.2884C1200.7748,-63.3396 1226.1145,-69.163 1246.8995,-73.9396"/>
<polygon fill="#63b8ff" stroke="#63b8ff" points="1179.4914,-54.8572 1168.9615,-56.0284 1177.9235,-61.6793 1179.4914,-54.8572"/>
</g>
<!-- Node29 -->
<g id="node29" class="node">
<title>Node29</title>
<g id="a_node29"><a xlink:href="../../d9/d82/class_translator_croatian.html" target="_top" xlink:title=" ">
<polygon fill="#ffffff" stroke="#666666" points="1337,-56 1240,-56 1240,-37 1337,-37 1337,-56"/>
<text text-anchor="middle" x="1288.5" y="-44" font-family="Helvetica,sans-Serif" font-size="10.00" fill="#000000">TranslatorCroatian</text>
</a>
</g>
</g>
<!-- Node1&#45;&gt;Node29 -->
<g id="edge28" class="edge">
<title>Node1&#45;&gt;Node29</title>
<path fill="none" stroke="#63b8ff" d="M1200.3743,-46.5C1213.774,-46.5 1227.4581,-46.5 1239.9234,-46.5"/>
<polygon fill="#63b8ff" stroke="#63b8ff" points="1200.2078,-43.0001 1190.2078,-46.5 1200.2078,-50.0001 1200.2078,-43.0001"/>
</g>
<!-- Node30 -->
<g id="node30" class="node">
<title>Node30</title>
<g id="a_node30"><a xlink:href="../../de/d82/class_translator_polish.html" target="_top" xlink:title=" ">
<polygon fill="#ffffff" stroke="#666666" points="1332,-19 1245,-19 1245,0 1332,0 1332,-19"/>
<text text-anchor="middle" x="1288.5" y="-7" font-family="Helvetica,sans-Serif" font-size="10.00" fill="#000000">TranslatorPolish</text>
</a>
</g>
</g>
<!-- Node1&#45;&gt;Node30 -->
<g id="edge29" class="edge">
<title>Node1&#45;&gt;Node30</title>
<path fill="none" stroke="#63b8ff" d="M1178.7953,-34.7116C1200.7748,-29.6604 1226.1145,-23.837 1246.8995,-19.0604"/>
<polygon fill="#63b8ff" stroke="#63b8ff" points="1177.9235,-31.3207 1168.9615,-36.9716 1179.4914,-38.1428 1177.9235,-31.3207"/>
</g>
<!-- Node2 -->
<g id="node2" class="node">
<title>Node2</title>
<g id="a_node2"><a xlink:href="../../de/d2f/class_translator_adapter__1__8__4.html" target="_top" xlink:title=" ">
<polygon fill="#ffffff" stroke="#666666" points="1029,-56 904,-56 904,-37 1029,-37 1029,-56"/>
<text text-anchor="middle" x="966.5" y="-44" font-family="Helvetica,sans-Serif" font-size="10.00" fill="#000000">TranslatorAdapter_1_8_4</text>
</a>
</g>
</g>
<!-- Node2&#45;&gt;Node1 -->
<g id="edge1" class="edge">
<title>Node2&#45;&gt;Node1</title>
<path fill="none" stroke="#63b8ff" d="M1039.2184,-46.5C1047.8129,-46.5 1056.5268,-46.5 1064.9633,-46.5"/>
<polygon fill="#63b8ff" stroke="#63b8ff" points="1039.2078,-43.0001 1029.2078,-46.5 1039.2078,-50.0001 1039.2078,-43.0001"/>
</g>
<!-- Node3 -->
<g id="node3" class="node">
<title>Node3</title>
<g id="a_node3"><a xlink:href="../../d4/d2e/class_translator_adapter__1__8__15.html" target="_top" xlink:title=" ">
<polygon fill="#ffffff" stroke="#666666" points="868,-56 737,-56 737,-37 868,-37 868,-56"/>
<text text-anchor="middle" x="802.5" y="-44" font-family="Helvetica,sans-Serif" font-size="10.00" fill="#000000">TranslatorAdapter_1_8_15</text>
</a>
</g>
</g>
<!-- Node3&#45;&gt;Node2 -->
<g id="edge2" class="edge">
<title>Node3&#45;&gt;Node2</title>
<path fill="none" stroke="#63b8ff" d="M878.2726,-46.5C886.857,-46.5 895.5328,-46.5 903.9211,-46.5"/>
<polygon fill="#63b8ff" stroke="#63b8ff" points="878.2601,-43.0001 868.2601,-46.5 878.2601,-50.0001 878.2601,-43.0001"/>
</g>
<!-- Node4 -->
<g id="node4" class="node">
<title>Node4</title>
<g id="a_node4"><a xlink:href="../../de/dde/class_translator_adapter__1__8__19.html" target="_top" xlink:title=" ">
<polygon fill="#ffffff" stroke="#666666" points="701,-56 570,-56 570,-37 701,-37 701,-56"/>
<text text-anchor="middle" x="635.5" y="-44" font-family="Helvetica,sans-Serif" font-size="10.00" fill="#000000">TranslatorAdapter_1_8_19</text>
</a>
</g>
</g>
<!-- Node4&#45;&gt;Node3 -->
<g id="edge3" class="edge">
<title>Node4&#45;&gt;Node3</title>
<path fill="none" stroke="#63b8ff" d="M711.0663,-46.5C719.6848,-46.5 728.4171,-46.5 736.8913,-46.5"/>
<polygon fill="#63b8ff" stroke="#63b8ff" points="711.0235,-43.0001 701.0235,-46.5 711.0235,-50.0001 711.0235,-43.0001"/>
</g>
<!-- Node5 -->
<g id="node5" class="node">
<title>Node5</title>
<g id="a_node5"><a xlink:href="../../d3/d2e/class_translator_adapter__1__9__2.html" target="_top" xlink:title=" ">
<polygon fill="#ffffff" stroke="#666666" points="534,-56 409,-56 409,-37 534,-37 534,-56"/>
<text text-anchor="middle" x="471.5" y="-44" font-family="Helvetica,sans-Serif" font-size="10.00" fill="#000000">TranslatorAdapter_1_9_2</text>
</a>
</g>
</g>
<!-- Node5&#45;&gt;Node4 -->
<g id="edge4" class="edge">
<title>Node5&#45;&gt;Node4</title>
<path fill="none" stroke="#63b8ff" d="M544.5745,-46.5C552.9557,-46.5 561.4628,-46.5 569.7399,-46.5"/>
<polygon fill="#63b8ff" stroke="#63b8ff" points="544.4377,-43.0001 534.4377,-46.5 544.4376,-50.0001 544.4377,-43.0001"/>
</g>
<!-- Node6 -->
<g id="node6" class="node">
<title>Node6</title>
<g id="a_node6"><a xlink:href="../../d0/d33/class_translator_adapter__1__9__4.html" target="_top" xlink:title=" ">
<polygon fill="#ffffff" stroke="#666666" points="373,-56 248,-56 248,-37 373,-37 373,-56"/>
<text text-anchor="middle" x="310.5" y="-44" font-family="Helvetica,sans-Serif" font-size="10.00" fill="#000000">TranslatorAdapter_1_9_4</text>
</a>
</g>
</g>
<!-- Node6&#45;&gt;Node5 -->
<g id="edge5" class="edge">
<title>Node6&#45;&gt;Node5</title>
<path fill="none" stroke="#63b8ff" d="M383.2184,-46.5C391.8129,-46.5 400.5268,-46.5 408.9633,-46.5"/>
<polygon fill="#63b8ff" stroke="#63b8ff" points="383.2078,-43.0001 373.2078,-46.5 383.2078,-50.0001 383.2078,-43.0001"/>
</g>
<!-- Node7 -->
<g id="node7" class="node">
<title>Node7</title>
<g id="a_node7"><a xlink:href="../../db/d6c/class_translator_adapter_base.html" target="_top" xlink:title="Base of the translator adapter tree.">
<polygon fill="#ffffff" stroke="#666666" points="212,-56 96,-56 96,-37 212,-37 212,-56"/>
<text text-anchor="middle" x="154" y="-44" font-family="Helvetica,sans-Serif" font-size="10.00" fill="#000000">TranslatorAdapterBase</text>
</a>
</g>
</g>
<!-- Node7&#45;&gt;Node6 -->
<g id="edge6" class="edge">
<title>Node7&#45;&gt;Node6</title>
<path fill="none" stroke="#63b8ff" d="M222.5047,-46.5C230.9767,-46.5 239.6034,-46.5 247.9794,-46.5"/>
<polygon fill="#63b8ff" stroke="#63b8ff" points="222.2749,-43.0001 212.2748,-46.5 222.2748,-50.0001 222.2749,-43.0001"/>
</g>
<!-- Node8 -->
<g id="node8" class="node">
<title>Node8</title>
<g id="a_node8"><a xlink:href="../../d8/dfb/class_translator.html" target="_top" xlink:title="Abstract base class for all translatable text fragments.">
<polygon fill="#ffffff" stroke="#666666" points="60,-56 0,-56 0,-37 60,-37 60,-56"/>
<text text-anchor="middle" x="30" y="-44" font-family="Helvetica,sans-Serif" font-size="10.00" fill="#000000">Translator</text>
</a>
</g>
</g>
<!-- Node8&#45;&gt;Node7 -->
<g id="edge7" class="edge">
<title>Node8&#45;&gt;Node7</title>
<path fill="none" stroke="#63b8ff" d="M70.2811,-46.5C78.379,-46.5 87.0427,-46.5 95.614,-46.5"/>
<polygon fill="#63b8ff" stroke="#63b8ff" points="70.017,-43.0001 60.0169,-46.5 70.0169,-50.0001 70.017,-43.0001"/>
</g>
<!-- Node10 -->
<g id="node10" class="node">
<title>Node10</title>
<g id="a_node10"><a xlink:href="../../da/d24/class_translator_adapter__1__7__5.html" target="_top" xlink:title="Adapter class for languages that only contain translations up to version 1.7.5.">
<polygon fill="#ffffff" stroke="#666666" points="1512,-167 1387,-167 1387,-148 1512,-148 1512,-167"/>
<text text-anchor="middle" x="1449.5" y="-155" font-family="Helvetica,sans-Serif" font-size="10.00" fill="#000000">TranslatorAdapter_1_7_5</text>
</a>
</g>
</g>
<!-- Node9&#45;&gt;Node10 -->
<g id="edge9" class="edge">
<title>Node9&#45;&gt;Node10</title>
<path fill="none" stroke="#63b8ff" d="M1311.8673,-98.4312C1331.3839,-110.435 1360.2385,-127.1164 1387,-138.5 1395.3489,-142.0514 1404.5832,-145.2386 1413.3343,-147.9425"/>
<polygon fill="#63b8ff" stroke="#63b8ff" points="1313.681,-95.4375 1303.3428,-93.1196 1309.9791,-101.3786 1313.681,-95.4375"/>
</g>
<!-- Node25 -->
<g id="node25" class="node">
<title>Node25</title>
<g id="a_node25"><a xlink:href="../../da/db8/class_translator_armenian.html" target="_top" xlink:title=" ">
<polygon fill="#ffffff" stroke="#666666" points="1500,-130 1399,-130 1399,-111 1500,-111 1500,-130"/>
<text text-anchor="middle" x="1449.5" y="-118" font-family="Helvetica,sans-Serif" font-size="10.00" fill="#000000">TranslatorArmenian</text>
</a>
</g>
</g>
<!-- Node9&#45;&gt;Node25 -->
<g id="edge24" class="edge">
<title>Node9&#45;&gt;Node25</title>
<path fill="none" stroke="#63b8ff" d="M1339.7953,-95.2884C1361.7748,-100.3396 1387.1145,-106.163 1407.8995,-110.9396"/>
<polygon fill="#63b8ff" stroke="#63b8ff" points="1340.4914,-91.8572 1329.9615,-93.0284 1338.9235,-98.6793 1340.4914,-91.8572"/>
</g>
<!-- Node26 -->
<g id="node26" class="node">
<title>Node26</title>
<g id="a_node26"><a xlink:href="../../d9/dc1/class_translator_catalan.html" target="_top" xlink:title=" ">
<polygon fill="#ffffff" stroke="#666666" points="1496.5,-93 1402.5,-93 1402.5,-74 1496.5,-74 1496.5,-93"/>
<text text-anchor="middle" x="1449.5" y="-81" font-family="Helvetica,sans-Serif" font-size="10.00" fill="#000000">TranslatorCatalan</text>
</a>
</g>
</g>
<!-- Node9&#45;&gt;Node26 -->
<g id="edge25" class="edge">
<title>Node9&#45;&gt;Node26</title>
<path fill="none" stroke="#63b8ff" d="M1361.2437,-83.5C1375.1346,-83.5 1389.3364,-83.5 1402.174,-83.5"/>
<polygon fill="#63b8ff" stroke="#63b8ff" points="1361.2078,-80.0001 1351.2078,-83.5 1361.2078,-87.0001 1361.2078,-80.0001"/>
</g>
<!-- Node27 -->
<g id="node27" class="node">
<title>Node27</title>
<g id="a_node27"><a xlink:href="../../d7/d21/class_translator_danish.html" target="_top" xlink:title=" ">
<polygon fill="#ffffff" stroke="#666666" points="1495,-56 1404,-56 1404,-37 1495,-37 1495,-56"/>
<text text-anchor="middle" x="1449.5" y="-44" font-family="Helvetica,sans-Serif" font-size="10.00" fill="#000000">TranslatorDanish</text>
</a>
</g>
</g>
<!-- Node9&#45;&gt;Node27 -->
<g id="edge26" class="edge">
<title>Node9&#45;&gt;Node27</title>
<path fill="none" stroke="#63b8ff" d="M1339.7953,-71.7116C1361.7748,-66.6604 1387.1145,-60.837 1407.8995,-56.0604"/>
<polygon fill="#63b8ff" stroke="#63b8ff" points="1338.9235,-68.3207 1329.9615,-73.9716 1340.4914,-75.1428 1338.9235,-68.3207"/>
</g>
<!-- Node28 -->
<g id="node28" class="node">
<title>Node28</title>
<g id="a_node28"><a xlink:href="../../df/dc8/class_translator_indonesian.html" target="_top" xlink:title=" ">
<polygon fill="#ffffff" stroke="#666666" points="1503,-19 1396,-19 1396,0 1503,0 1503,-19"/>
<text text-anchor="middle" x="1449.5" y="-7" font-family="Helvetica,sans-Serif" font-size="10.00" fill="#000000">TranslatorIndonesian</text>
</a>
</g>
</g>
<!-- Node9&#45;&gt;Node28 -->
<g id="edge27" class="edge">
<title>Node9&#45;&gt;Node28</title>
<path fill="none" stroke="#63b8ff" d="M1340.06,-70.1629C1343.8652,-68.4783 1347.5571,-66.5972 1351,-64.5 1370.5948,-52.5641 1367.318,-39.2914 1387,-27.5 1392.6181,-24.1342 1398.8987,-21.3696 1405.2532,-19.1065"/>
<polygon fill="#63b8ff" stroke="#63b8ff" points="1338.4623,-67.0307 1330.4448,-73.9568 1341.0315,-73.5422 1338.4623,-67.0307"/>
</g>
<!-- Node11 -->
<g id="node11" class="node">
<title>Node11</title>
<g id="a_node11"><a xlink:href="../../d3/da1/class_translator_adapter__1__6__0.html" target="_top" xlink:title="Adapter class for languages that only contain translations up to version 1.6.0.">
<polygon fill="#ffffff" stroke="#666666" points="1673,-204 1548,-204 1548,-185 1673,-185 1673,-204"/>
<text text-anchor="middle" x="1610.5" y="-192" font-family="Helvetica,sans-Serif" font-size="10.00" fill="#000000">TranslatorAdapter_1_6_0</text>
</a>
</g>
</g>
<!-- Node10&#45;&gt;Node11 -->
<g id="edge10" class="edge">
<title>Node10&#45;&gt;Node11</title>
<path fill="none" stroke="#63b8ff" d="M1500.7953,-169.2884C1522.7748,-174.3396 1548.1145,-180.163 1568.8995,-184.9396"/>
<polygon fill="#63b8ff" stroke="#63b8ff" points="1501.4914,-165.8572 1490.9615,-167.0284 1499.9235,-172.6793 1501.4914,-165.8572"/>
</g>
<!-- Node23 -->
<g id="node23" class="node">
<title>Node23</title>
<g id="a_node23"><a xlink:href="../../d5/d43/class_translator_persian.html" target="_top" xlink:title=" ">
<polygon fill="#ffffff" stroke="#666666" points="1657,-167 1564,-167 1564,-148 1657,-148 1657,-167"/>
<text text-anchor="middle" x="1610.5" y="-155" font-family="Helvetica,sans-Serif" font-size="10.00" fill="#000000">TranslatorPersian</text>
</a>
</g>
</g>
<!-- Node10&#45;&gt;Node23 -->
<g id="edge22" class="edge">
<title>Node10&#45;&gt;Node23</title>
<path fill="none" stroke="#63b8ff" d="M1522.349,-157.5C1536.3862,-157.5 1550.7365,-157.5 1563.6719,-157.5"/>
<polygon fill="#63b8ff" stroke="#63b8ff" points="1522.2078,-154.0001 1512.2078,-157.5 1522.2078,-161.0001 1522.2078,-154.0001"/>
</g>
<!-- Node24 -->
<g id="node24" class="node">
<title>Node24</title>
<g id="a_node24"><a xlink:href="../../dd/d80/class_translator_turkish.html" target="_top" xlink:title=" ">
<polygon fill="#ffffff" stroke="#666666" points="1656.5,-130 1564.5,-130 1564.5,-111 1656.5,-111 1656.5,-130"/>
<text text-anchor="middle" x="1610.5" y="-118" font-family="Helvetica,sans-Serif" font-size="10.00" fill="#000000">TranslatorTurkish</text>
</a>
</g>
</g>
<!-- Node10&#45;&gt;Node24 -->
<g id="edge23" class="edge">
<title>Node10&#45;&gt;Node24</title>
<path fill="none" stroke="#63b8ff" d="M1500.7953,-145.7116C1522.7748,-140.6604 1548.1145,-134.837 1568.8995,-130.0604"/>
<polygon fill="#63b8ff" stroke="#63b8ff" points="1499.9235,-142.3207 1490.9615,-147.9716 1501.4914,-149.1428 1499.9235,-142.3207"/>
</g>
<!-- Node12 -->
<g id="node12" class="node">
<title>Node12</title>
<g id="a_node12"><a xlink:href="../../d4/d2b/class_translator_adapter__1__4__6.html" target="_top" xlink:title="Adapter class for languages that only contain translations up to version 1.4.6.">
<polygon fill="#ffffff" stroke="#666666" points="1834,-315 1709,-315 1709,-296 1834,-296 1834,-315"/>
<text text-anchor="middle" x="1771.5" y="-303" font-family="Helvetica,sans-Serif" font-size="10.00" fill="#000000">TranslatorAdapter_1_4_6</text>
</a>
</g>
</g>
<!-- Node11&#45;&gt;Node12 -->
<g id="edge11" class="edge">
<title>Node11&#45;&gt;Node12</title>
<path fill="none" stroke="#63b8ff" d="M1624.4656,-212.0385C1642.041,-232.969 1674.1707,-267.6252 1709,-287.5 1714.8844,-290.8578 1721.4437,-293.6305 1728.0383,-295.9077"/>
<polygon fill="#63b8ff" stroke="#63b8ff" points="1627.1135,-209.748 1618.0609,-204.2434 1621.705,-214.1918 1627.1135,-209.748"/>
</g>
<!-- Node17 -->
<g id="node17" class="node">
<title>Node17</title>
<g id="a_node17"><a xlink:href="../../d3/d65/class_translator_afrikaans.html" target="_top" xlink:title=" ">
<polygon fill="#ffffff" stroke="#666666" points="1822,-278 1721,-278 1721,-259 1822,-259 1822,-278"/>
<text text-anchor="middle" x="1771.5" y="-266" font-family="Helvetica,sans-Serif" font-size="10.00" fill="#000000">TranslatorAfrikaans</text>
</a>
</g>
</g>
<!-- Node11&#45;&gt;Node17 -->
<g id="edge16" class="edge">
<title>Node11&#45;&gt;Node17</title>
<path fill="none" stroke="#63b8ff" d="M1633.446,-209.6218C1652.9173,-221.938 1681.9256,-239.0951 1709,-250.5 1716.5965,-253.7 1724.9427,-256.5386 1732.9934,-258.9618"/>
<polygon fill="#63b8ff" stroke="#63b8ff" points="1635.2649,-206.6304 1624.9582,-204.1765 1631.4851,-212.5222 1635.2649,-206.6304"/>
</g>
<!-- Node18 -->
<g id="node18" class="node">
<title>Node18</title>
<g id="a_node18"><a xlink:href="../../de/df7/class_translator_finnish.html" target="_top" xlink:title=" ">
<polygon fill="#ffffff" stroke="#666666" points="1817.5,-241 1725.5,-241 1725.5,-222 1817.5,-222 1817.5,-241"/>
<text text-anchor="middle" x="1771.5" y="-229" font-family="Helvetica,sans-Serif" font-size="10.00" fill="#000000">TranslatorFinnish</text>
</a>
</g>
</g>
<!-- Node11&#45;&gt;Node18 -->
<g id="edge17" class="edge">
<title>Node11&#45;&gt;Node18</title>
<path fill="none" stroke="#63b8ff" d="M1661.7953,-206.2884C1683.7748,-211.3396 1709.1145,-217.163 1729.8995,-221.9396"/>
<polygon fill="#63b8ff" stroke="#63b8ff" points="1662.4914,-202.8572 1651.9615,-204.0284 1660.9235,-209.6793 1662.4914,-202.8572"/>
</g>
<!-- Node19 -->
<g id="node19" class="node">
<title>Node19</title>
<g id="a_node19"><a xlink:href="../../d9/ddf/class_translator_macedonian.html" target="_top" xlink:title=" ">
<polygon fill="#ffffff" stroke="#666666" points="1828,-204 1715,-204 1715,-185 1828,-185 1828,-204"/>
<text text-anchor="middle" x="1771.5" y="-192" font-family="Helvetica,sans-Serif" font-size="10.00" fill="#000000">TranslatorMacedonian</text>
</a>
</g>
</g>
<!-- Node11&#45;&gt;Node19 -->
<g id="edge18" class="edge">
<title>Node11&#45;&gt;Node19</title>
<path fill="none" stroke="#63b8ff" d="M1683.3195,-194.5C1693.9493,-194.5 1704.7593,-194.5 1714.9992,-194.5"/>
<polygon fill="#63b8ff" stroke="#63b8ff" points="1683.2078,-191.0001 1673.2078,-194.5 1683.2078,-198.0001 1683.2078,-191.0001"/>
</g>
<!-- Node20 -->
<g id="node20" class="node">
<title>Node20</title>
<g id="a_node20"><a xlink:href="../../d5/d0a/class_translator_serbian.html" target="_top" xlink:title=" ">
<polygon fill="#ffffff" stroke="#666666" points="1818,-167 1725,-167 1725,-148 1818,-148 1818,-167"/>
<text text-anchor="middle" x="1771.5" y="-155" font-family="Helvetica,sans-Serif" font-size="10.00" fill="#000000">TranslatorSerbian</text>
</a>
</g>
</g>
<!-- Node11&#45;&gt;Node20 -->
<g id="edge19" class="edge">
<title>Node11&#45;&gt;Node20</title>
<path fill="none" stroke="#63b8ff" d="M1661.7953,-182.7116C1683.7748,-177.6604 1709.1145,-171.837 1729.8995,-167.0604"/>
<polygon fill="#63b8ff" stroke="#63b8ff" points="1660.9235,-179.3207 1651.9615,-184.9716 1662.4914,-186.1428 1660.9235,-179.3207"/>
</g>
<!-- Node21 -->
<g id="node21" class="node">
<title>Node21</title>
<g id="a_node21"><a xlink:href="../../dc/d03/class_translator_serbian_cyrillic.html" target="_top" xlink:title=" ">
<polygon fill="#ffffff" stroke="#666666" points="1833,-130 1710,-130 1710,-111 1833,-111 1833,-130"/>
<text text-anchor="middle" x="1771.5" y="-118" font-family="Helvetica,sans-Serif" font-size="10.00" fill="#000000">TranslatorSerbianCyrillic</text>
</a>
</g>
</g>
<!-- Node11&#45;&gt;Node21 -->
<g id="edge20" class="edge">
<title>Node11&#45;&gt;Node21</title>
<path fill="none" stroke="#63b8ff" d="M1662.06,-181.1629C1665.8652,-179.4783 1669.5571,-177.5972 1673,-175.5 1692.5948,-163.5641 1689.318,-150.2914 1709,-138.5 1714.6181,-135.1342 1720.8987,-132.3696 1727.2532,-130.1065"/>
<polygon fill="#63b8ff" stroke="#63b8ff" points="1660.4623,-178.0307 1652.4448,-184.9568 1663.0315,-184.5422 1660.4623,-178.0307"/>
</g>
<!-- Node22 -->
<g id="node22" class="node">
<title>Node22</title>
<g id="a_node22"><a xlink:href="../../df/d20/class_translator_vietnamese.html" target="_top" xlink:title=" ">
<polygon fill="#ffffff" stroke="#666666" points="1827.5,-93 1715.5,-93 1715.5,-74 1827.5,-74 1827.5,-93"/>
<text text-anchor="middle" x="1771.5" y="-81" font-family="Helvetica,sans-Serif" font-size="10.00" fill="#000000">TranslatorVietnamese</text>
</a>
</g>
</g>
<!-- Node11&#45;&gt;Node22 -->
<g id="edge21" class="edge">
<title>Node11&#45;&gt;Node22</title>
<path fill="none" stroke="#63b8ff" d="M1666.592,-180.1754C1668.8493,-178.7611 1670.9999,-177.2073 1673,-175.5 1700.8182,-151.7549 1681.0079,-125.0398 1709,-101.5 1713.0618,-98.0843 1717.7388,-95.316 1722.6682,-93.0726"/>
<polygon fill="#63b8ff" stroke="#63b8ff" points="1664.6812,-177.2252 1657.4485,-184.9673 1667.9306,-183.4254 1664.6812,-177.2252"/>
</g>
<!-- Node13 -->
<g id="node13" class="node">
<title>Node13</title>
<g id="a_node13"><a xlink:href="../../d3/de9/class_translator_arabic.html" target="_top" xlink:title=" ">
<polygon fill="#ffffff" stroke="#666666" points="1967.5,-370 1879.5,-370 1879.5,-351 1967.5,-351 1967.5,-370"/>
<text text-anchor="middle" x="1923.5" y="-358" font-family="Helvetica,sans-Serif" font-size="10.00" fill="#000000">TranslatorArabic</text>
</a>
</g>
</g>
<!-- Node12&#45;&gt;Node13 -->
<g id="edge12" class="edge">
<title>Node12&#45;&gt;Node13</title>
<path fill="none" stroke="#63b8ff" d="M1805.5002,-318.6044C1824.4304,-325.8165 1848.4568,-334.8323 1870,-342.5 1877.9399,-345.326 1886.5829,-348.2846 1894.5605,-350.9679"/>
<polygon fill="#63b8ff" stroke="#63b8ff" points="1806.6963,-315.3146 1796.1057,-315.014 1804.1973,-321.8534 1806.6963,-315.3146"/>
</g>
<!-- Node14 -->
<g id="node14" class="node">
<title>Node14</title>
<g id="a_node14"><a xlink:href="../../dc/d53/class_translator_lithuanian.html" target="_top" xlink:title=" ">
<polygon fill="#ffffff" stroke="#666666" points="1975.5,-333 1871.5,-333 1871.5,-314 1975.5,-314 1975.5,-333"/>
<text text-anchor="middle" x="1923.5" y="-321" font-family="Helvetica,sans-Serif" font-size="10.00" fill="#000000">TranslatorLithuanian</text>
</a>
</g>
</g>
<!-- Node12&#45;&gt;Node14 -->
<g id="edge13" class="edge">
<title>Node12&#45;&gt;Node14</title>
<path fill="none" stroke="#63b8ff" d="M1844.344,-314.1263C1853.3737,-315.1956 1862.4628,-316.2719 1871.1005,-317.2948"/>
<polygon fill="#63b8ff" stroke="#63b8ff" points="1844.544,-310.6256 1834.2018,-312.9252 1843.7208,-317.577 1844.544,-310.6256"/>
</g>
<!-- Node15 -->
<g id="node15" class="node">
<title>Node15</title>
<g id="a_node15"><a xlink:href="../../dd/d38/class_translator_norwegian.html" target="_top" xlink:title=" ">
<polygon fill="#ffffff" stroke="#666666" points="1977,-296 1870,-296 1870,-277 1977,-277 1977,-296"/>
<text text-anchor="middle" x="1923.5" y="-284" font-family="Helvetica,sans-Serif" font-size="10.00" fill="#000000">TranslatorNorwegian</text>
</a>
</g>
</g>
<!-- Node12&#45;&gt;Node15 -->
<g id="edge14" class="edge">
<title>Node12&#45;&gt;Node15</title>
<path fill="none" stroke="#63b8ff" d="M1844.2159,-296.4105C1852.7906,-295.3387 1861.4211,-294.2599 1869.6698,-293.2288"/>
<polygon fill="#63b8ff" stroke="#63b8ff" points="1843.6904,-292.9489 1834.2018,-297.6623 1844.5587,-299.8948 1843.6904,-292.9489"/>
</g>
<!-- Node16 -->
<g id="node16" class="node">
<title>Node16</title>
<g id="a_node16"><a xlink:href="../../dd/d0b/class_translator_slovene.html" target="_top" xlink:title=" ">
<polygon fill="#ffffff" stroke="#666666" points="1971,-259 1876,-259 1876,-240 1971,-240 1971,-259"/>
<text text-anchor="middle" x="1923.5" y="-247" font-family="Helvetica,sans-Serif" font-size="10.00" fill="#000000">TranslatorSlovene</text>
</a>
</g>
</g>
<!-- Node12&#45;&gt;Node16 -->
<g id="edge15" class="edge">
<title>Node12&#45;&gt;Node16</title>
<path fill="none" stroke="#63b8ff" d="M1819.0447,-292.9207C1824.1436,-291.2424 1829.2133,-289.4286 1834,-287.5 1850.7808,-280.7388 1853.4326,-275.7685 1870,-268.5 1877.7624,-265.0945 1886.3472,-261.8328 1894.3257,-259.0027"/>
<polygon fill="#63b8ff" stroke="#63b8ff" points="1817.7702,-289.652 1809.2697,-295.976 1819.8585,-296.3333 1817.7702,-289.652"/>
</g>
</g>
</svg>
        <g id="navigator" transform="translate(0 0)" fill="#404254">
                <rect fill="#f2f5e9" fill-opacity="0.5" stroke="#606060" stroke-width=".5" x="0" y="0" width="60" height="60"/>
                <use id="zoomplus" xlink:href="#zoomPlus" x="17" y="9" onmousedown="handleZoom(evt,'in')"/>
                <use id="zoomminus" xlink:href="#zoomMin" x="42" y="9" onmousedown="handleZoom(evt,'out')"/>
                <use id="reset" xlink:href="#resetDef" x="30" y="36" onmousedown="handleReset()"/>
                <g id="arrowUp" xlink:href="#dirArrow" transform="translate(30 24)" onmousedown="handlePan(0,-1)">
                  <use xlink:href="#rim" fill="#404040">
                        <set attributeName="fill" to="#808080" begin="arrowUp.mouseover" end="arrowUp.mouseout"/>
                  </use>
                  <path fill="none" stroke="white" stroke-width="1.5" d="M0,-3.0v7 M-2.5,-0.5L0,-3.0L2.5,-0.5"/>
                </g>
                <g id="arrowRight" xlink:href="#dirArrow" transform="rotate(90) translate(36 -43)" onmousedown="handlePan(1,0)">
                  <use xlink:href="#rim" fill="#404040">
                        <set attributeName="fill" to="#808080" begin="arrowRight.mouseover" end="arrowRight.mouseout"/>
                  </use>
                  <path fill="none" stroke="white" stroke-width="1.5" d="M0,-3.0v7 M-2.5,-0.5L0,-3.0L2.5,-0.5"/>
                </g>
                <g id="arrowDown" xlink:href="#dirArrow" transform="rotate(180) translate(-30 -48)" onmousedown="handlePan(0,1)">
                  <use xlink:href="#rim" fill="#404040">
                        <set attributeName="fill" to="#808080" begin="arrowDown.mouseover" end="arrowDown.mouseout"/>
                  </use>
                  <path fill="none" stroke="white" stroke-width="1.5" d="M0,-3.0v7 M-2.5,-0.5L0,-3.0L2.5,-0.5"/>
                </g>
                <g id="arrowLeft" xlink:href="#dirArrow" transform="rotate(270) translate(-36 17)" onmousedown="handlePan(-1,0)">
                  <use xlink:href="#rim" fill="#404040">
                        <set attributeName="fill" to="#808080" begin="arrowLeft.mouseover" end="arrowLeft.mouseout"/>
                  </use>
                  <path fill="none" stroke="white" stroke-width="1.5" d="M0,-3.0v7 M-2.5,-0.5L0,-3.0L2.5,-0.5"/>
                </g>
        </g>
        <svg viewBox="0 0 15 15" width="100%" height="30px" preserveAspectRatio="xMaxYMin meet">
         <g id="arrow_out" transform="scale(0.3 0.3)">
          <a xlink:href="class_translator_adapter__1__8__2__inherit__graph_org.svg" target="_base">
           <rect id="button" ry="5" rx="5" y="6" x="6" height="38" width="38"
                fill="#f2f5e9" fill-opacity="0.5" stroke="#606060" stroke-width="1.0"/>
           <path id="arrow"
             d="M 11.500037,31.436501 C 11.940474,20.09759 22.043105,11.32322 32.158766,21.979434 L 37.068811,17.246167 C 37.068811,17.246167 37.088388,32 37.088388,32 L 22.160133,31.978069 C 22.160133,31.978069 26.997745,27.140456 26.997745,27.140456 C 18.528582,18.264221 13.291696,25.230495 11.500037,31.436501 z"
             style="fill:#404040;"/>
          </a>
         </g>
        </svg>
</svg>
