<?xml version="1.0" encoding="UTF-8" standalone="no"?>
<!DOCTYPE svg PUBLIC "-//W3C//DTD SVG 1.1//EN"
 "http://www.w3.org/Graphics/SVG/1.1/DTD/svg11.dtd">
<!-- Generated by graphviz version 2.43.0 (0)
 -->
<!-- Title: TranslatorAdapter_1_8_2 Pages: 1 -->
<svg width="2131pt" height="378pt"
 viewBox="0.00 0.00 2131.00 378.00" xmlns="http://www.w3.org/2000/svg" xmlns:xlink="http://www.w3.org/1999/xlink">
<g id="graph0" class="graph" transform="scale(1 1) rotate(0) translate(4 374)">
<title>TranslatorAdapter_1_8_2</title>
<!-- Node1 -->
<g id="node1" class="node">
<title>Node1</title>
<g id="a_node1"><a xlink:title=" ">
<polygon fill="#999999" stroke="#666666" points="1278,-56 1141,-56 1141,-37 1278,-37 1278,-56"/>
<text text-anchor="middle" x="1209.5" y="-44" font-family="Helvetica,sans-Serif" font-size="10.00">TranslatorAdapter_1_8_2</text>
</a>
</g>
</g>
<!-- Node9 -->
<g id="node9" class="node">
<title>Node9</title>
<g id="a_node9"><a xlink:href="../../de/d49/class_translator_adapter__1__8__0.html" target="_top" xlink:title="Adapter class for languages that only contain translations up to version 1.8.0.">
<polygon fill="white" stroke="#666666" points="1451,-93 1314,-93 1314,-74 1451,-74 1451,-93"/>
<text text-anchor="middle" x="1382.5" y="-81" font-family="Helvetica,sans-Serif" font-size="10.00">TranslatorAdapter_1_8_0</text>
</a>
</g>
</g>
<!-- Node1&#45;&gt;Node9 -->
<g id="edge8" class="edge">
<title>Node1&#45;&gt;Node9</title>
<path fill="none" stroke="#63b8ff" d="M1264.35,-58.15C1287.84,-63.23 1315.04,-69.12 1337.32,-73.94"/>
<polygon fill="#63b8ff" stroke="#63b8ff" points="1265.05,-54.72 1254.54,-56.03 1263.57,-61.56 1265.05,-54.72"/>
</g>
<!-- Node29 -->
<g id="node29" class="node">
<title>Node29</title>
<g id="a_node29"><a xlink:href="../../d9/d82/class_translator_croatian.html" target="_top" xlink:title=" ">
<polygon fill="white" stroke="#666666" points="1435.5,-56 1329.5,-56 1329.5,-37 1435.5,-37 1435.5,-56"/>
<text text-anchor="middle" x="1382.5" y="-44" font-family="Helvetica,sans-Serif" font-size="10.00">TranslatorCroatian</text>
</a>
</g>
</g>
<!-- Node1&#45;&gt;Node29 -->
<g id="edge28" class="edge">
<title>Node1&#45;&gt;Node29</title>
<path fill="none" stroke="#63b8ff" d="M1288.19,-46.5C1302.16,-46.5 1316.41,-46.5 1329.44,-46.5"/>
<polygon fill="#63b8ff" stroke="#63b8ff" points="1288.08,-43 1278.08,-46.5 1288.08,-50 1288.08,-43"/>
</g>
<!-- Node30 -->
<g id="node30" class="node">
<title>Node30</title>
<g id="a_node30"><a xlink:href="../../de/d82/class_translator_polish.html" target="_top" xlink:title=" ">
<polygon fill="white" stroke="#666666" points="1429.5,-19 1335.5,-19 1335.5,0 1429.5,0 1429.5,-19"/>
<text text-anchor="middle" x="1382.5" y="-7" font-family="Helvetica,sans-Serif" font-size="10.00">TranslatorPolish</text>
</a>
</g>
</g>
<!-- Node1&#45;&gt;Node30 -->
<g id="edge29" class="edge">
<title>Node1&#45;&gt;Node30</title>
<path fill="none" stroke="#63b8ff" d="M1264.35,-34.85C1287.84,-29.77 1315.04,-23.88 1337.32,-19.06"/>
<polygon fill="#63b8ff" stroke="#63b8ff" points="1263.57,-31.44 1254.54,-36.97 1265.05,-38.28 1263.57,-31.44"/>
</g>
<!-- Node2 -->
<g id="node2" class="node">
<title>Node2</title>
<g id="a_node2"><a xlink:href="../../de/d2f/class_translator_adapter__1__8__4.html" target="_top" xlink:title=" ">
<polygon fill="white" stroke="#666666" points="1105,-56 968,-56 968,-37 1105,-37 1105,-56"/>
<text text-anchor="middle" x="1036.5" y="-44" font-family="Helvetica,sans-Serif" font-size="10.00">TranslatorAdapter_1_8_4</text>
</a>
</g>
</g>
<!-- Node2&#45;&gt;Node1 -->
<g id="edge1" class="edge">
<title>Node2&#45;&gt;Node1</title>
<path fill="none" stroke="#63b8ff" d="M1115.1,-46.5C1123.69,-46.5 1132.39,-46.5 1140.85,-46.5"/>
<polygon fill="#63b8ff" stroke="#63b8ff" points="1115.08,-43 1105.08,-46.5 1115.08,-50 1115.08,-43"/>
</g>
<!-- Node3 -->
<g id="node3" class="node">
<title>Node3</title>
<g id="a_node3"><a xlink:href="../../d4/d2e/class_translator_adapter__1__8__15.html" target="_top" xlink:title=" ">
<polygon fill="white" stroke="#666666" points="932,-56 789,-56 789,-37 932,-37 932,-56"/>
<text text-anchor="middle" x="860.5" y="-44" font-family="Helvetica,sans-Serif" font-size="10.00">TranslatorAdapter_1_8_15</text>
</a>
</g>
</g>
<!-- Node3&#45;&gt;Node2 -->
<g id="edge2" class="edge">
<title>Node3&#45;&gt;Node2</title>
<path fill="none" stroke="#63b8ff" d="M942.12,-46.5C950.77,-46.5 959.5,-46.5 967.98,-46.5"/>
<polygon fill="#63b8ff" stroke="#63b8ff" points="942.02,-43 932.02,-46.5 942.02,-50 942.02,-43"/>
</g>
<!-- Node4 -->
<g id="node4" class="node">
<title>Node4</title>
<g id="a_node4"><a xlink:href="../../de/dde/class_translator_adapter__1__8__19.html" target="_top" xlink:title=" ">
<polygon fill="white" stroke="#666666" points="753,-56 610,-56 610,-37 753,-37 753,-56"/>
<text text-anchor="middle" x="681.5" y="-44" font-family="Helvetica,sans-Serif" font-size="10.00">TranslatorAdapter_1_8_19</text>
</a>
</g>
</g>
<!-- Node4&#45;&gt;Node3 -->
<g id="edge3" class="edge">
<title>Node4&#45;&gt;Node3</title>
<path fill="none" stroke="#63b8ff" d="M763.49,-46.5C771.97,-46.5 780.54,-46.5 788.89,-46.5"/>
<polygon fill="#63b8ff" stroke="#63b8ff" points="763.22,-43 753.22,-46.5 763.22,-50 763.22,-43"/>
</g>
<!-- Node5 -->
<g id="node5" class="node">
<title>Node5</title>
<g id="a_node5"><a xlink:href="../../d3/d2e/class_translator_adapter__1__9__2.html" target="_top" xlink:title=" ">
<polygon fill="white" stroke="#666666" points="574,-56 437,-56 437,-37 574,-37 574,-56"/>
<text text-anchor="middle" x="505.5" y="-44" font-family="Helvetica,sans-Serif" font-size="10.00">TranslatorAdapter_1_9_2</text>
</a>
</g>
</g>
<!-- Node5&#45;&gt;Node4 -->
<g id="edge4" class="edge">
<title>Node5&#45;&gt;Node4</title>
<path fill="none" stroke="#63b8ff" d="M584.47,-46.5C592.89,-46.5 601.42,-46.5 609.75,-46.5"/>
<polygon fill="#63b8ff" stroke="#63b8ff" points="584.27,-43 574.27,-46.5 584.27,-50 584.27,-43"/>
</g>
<!-- Node6 -->
<g id="node6" class="node">
<title>Node6</title>
<g id="a_node6"><a xlink:href="../../d0/d33/class_translator_adapter__1__9__4.html" target="_top" xlink:title=" ">
<polygon fill="white" stroke="#666666" points="401,-56 264,-56 264,-37 401,-37 401,-56"/>
<text text-anchor="middle" x="332.5" y="-44" font-family="Helvetica,sans-Serif" font-size="10.00">TranslatorAdapter_1_9_4</text>
</a>
</g>
</g>
<!-- Node6&#45;&gt;Node5 -->
<g id="edge5" class="edge">
<title>Node6&#45;&gt;Node5</title>
<path fill="none" stroke="#63b8ff" d="M411.1,-46.5C419.69,-46.5 428.39,-46.5 436.85,-46.5"/>
<polygon fill="#63b8ff" stroke="#63b8ff" points="411.08,-43 401.08,-46.5 411.08,-50 411.08,-43"/>
</g>
<!-- Node7 -->
<g id="node7" class="node">
<title>Node7</title>
<g id="a_node7"><a xlink:href="../../db/d6c/class_translator_adapter_base.html" target="_top" xlink:title="Base of the translator adapter tree.">
<polygon fill="white" stroke="#666666" points="228,-56 101,-56 101,-37 228,-37 228,-56"/>
<text text-anchor="middle" x="164.5" y="-44" font-family="Helvetica,sans-Serif" font-size="10.00">TranslatorAdapterBase</text>
</a>
</g>
</g>
<!-- Node7&#45;&gt;Node6 -->
<g id="edge6" class="edge">
<title>Node7&#45;&gt;Node6</title>
<path fill="none" stroke="#63b8ff" d="M238.49,-46.5C246.95,-46.5 255.56,-46.5 263.94,-46.5"/>
<polygon fill="#63b8ff" stroke="#63b8ff" points="238.26,-43 228.26,-46.5 238.26,-50 238.26,-43"/>
</g>
<!-- Node8 -->
<g id="node8" class="node">
<title>Node8</title>
<g id="a_node8"><a xlink:href="../../d8/dfb/class_translator.html" target="_top" xlink:title="Abstract base class for all translatable text fragments.">
<polygon fill="white" stroke="#666666" points="65,-56 0,-56 0,-37 65,-37 65,-56"/>
<text text-anchor="middle" x="32.5" y="-44" font-family="Helvetica,sans-Serif" font-size="10.00">Translator</text>
</a>
</g>
</g>
<!-- Node8&#45;&gt;Node7 -->
<g id="edge7" class="edge">
<title>Node8&#45;&gt;Node7</title>
<path fill="none" stroke="#63b8ff" d="M75.54,-46.5C83.6,-46.5 92.2,-46.5 100.75,-46.5"/>
<polygon fill="#63b8ff" stroke="#63b8ff" points="75.3,-43 65.3,-46.5 75.3,-50 75.3,-43"/>
</g>
<!-- Node10 -->
<g id="node10" class="node">
<title>Node10</title>
<g id="a_node10"><a xlink:href="../../da/d24/class_translator_adapter__1__7__5.html" target="_top" xlink:title="Adapter class for languages that only contain translations up to version 1.7.5.">
<polygon fill="white" stroke="#666666" points="1624,-167 1487,-167 1487,-148 1624,-148 1624,-167"/>
<text text-anchor="middle" x="1555.5" y="-155" font-family="Helvetica,sans-Serif" font-size="10.00">TranslatorAdapter_1_7_5</text>
</a>
</g>
</g>
<!-- Node9&#45;&gt;Node10 -->
<g id="edge9" class="edge">
<title>Node9&#45;&gt;Node10</title>
<path fill="none" stroke="#63b8ff" d="M1407.82,-98.34C1428.35,-110.4 1458.83,-127.2 1487,-138.5 1495.93,-142.08 1505.77,-145.26 1515.12,-147.95"/>
<polygon fill="#63b8ff" stroke="#63b8ff" points="1409.51,-95.27 1399.13,-93.17 1405.93,-101.29 1409.51,-95.27"/>
</g>
<!-- Node25 -->
<g id="node25" class="node">
<title>Node25</title>
<g id="a_node25"><a xlink:href="../../da/db8/class_translator_armenian.html" target="_top" xlink:title=" ">
<polygon fill="white" stroke="#666666" points="1611.5,-130 1499.5,-130 1499.5,-111 1611.5,-111 1611.5,-130"/>
<text text-anchor="middle" x="1555.5" y="-118" font-family="Helvetica,sans-Serif" font-size="10.00">TranslatorArmenian</text>
</a>
</g>
</g>
<!-- Node9&#45;&gt;Node25 -->
<g id="edge24" class="edge">
<title>Node9&#45;&gt;Node25</title>
<path fill="none" stroke="#63b8ff" d="M1437.35,-95.15C1460.84,-100.23 1488.04,-106.12 1510.32,-110.94"/>
<polygon fill="#63b8ff" stroke="#63b8ff" points="1438.05,-91.72 1427.54,-93.03 1436.57,-98.56 1438.05,-91.72"/>
</g>
<!-- Node26 -->
<g id="node26" class="node">
<title>Node26</title>
<g id="a_node26"><a xlink:href="../../d9/dc1/class_translator_catalan.html" target="_top" xlink:title=" ">
<polygon fill="white" stroke="#666666" points="1606.5,-93 1504.5,-93 1504.5,-74 1606.5,-74 1606.5,-93"/>
<text text-anchor="middle" x="1555.5" y="-81" font-family="Helvetica,sans-Serif" font-size="10.00">TranslatorCatalan</text>
</a>
</g>
</g>
<!-- Node9&#45;&gt;Node26 -->
<g id="edge25" class="edge">
<title>Node9&#45;&gt;Node26</title>
<path fill="none" stroke="#63b8ff" d="M1461.15,-83.5C1475.8,-83.5 1490.76,-83.5 1504.28,-83.5"/>
<polygon fill="#63b8ff" stroke="#63b8ff" points="1461.08,-80 1451.08,-83.5 1461.08,-87 1461.08,-80"/>
</g>
<!-- Node27 -->
<g id="node27" class="node">
<title>Node27</title>
<g id="a_node27"><a xlink:href="../../d7/d21/class_translator_danish.html" target="_top" xlink:title=" ">
<polygon fill="white" stroke="#666666" points="1604.5,-56 1506.5,-56 1506.5,-37 1604.5,-37 1604.5,-56"/>
<text text-anchor="middle" x="1555.5" y="-44" font-family="Helvetica,sans-Serif" font-size="10.00">TranslatorDanish</text>
</a>
</g>
</g>
<!-- Node9&#45;&gt;Node27 -->
<g id="edge26" class="edge">
<title>Node9&#45;&gt;Node27</title>
<path fill="none" stroke="#63b8ff" d="M1437.35,-71.85C1460.84,-66.77 1488.04,-60.88 1510.32,-56.06"/>
<polygon fill="#63b8ff" stroke="#63b8ff" points="1436.57,-68.44 1427.54,-73.97 1438.05,-75.28 1436.57,-68.44"/>
</g>
<!-- Node28 -->
<g id="node28" class="node">
<title>Node28</title>
<g id="a_node28"><a xlink:href="../../df/dc8/class_translator_indonesian.html" target="_top" xlink:title=" ">
<polygon fill="white" stroke="#666666" points="1614.5,-19 1496.5,-19 1496.5,0 1614.5,0 1614.5,-19"/>
<text text-anchor="middle" x="1555.5" y="-7" font-family="Helvetica,sans-Serif" font-size="10.00">TranslatorIndonesian</text>
</a>
</g>
</g>
<!-- Node9&#45;&gt;Node28 -->
<g id="edge27" class="edge">
<title>Node9&#45;&gt;Node28</title>
<path fill="none" stroke="#63b8ff" d="M1439.42,-70.32C1443.44,-68.6 1447.35,-66.67 1451,-64.5 1470.72,-52.77 1467.2,-39.1 1487,-27.5 1492.86,-24.07 1499.39,-21.28 1506.01,-19.01"/>
<polygon fill="#63b8ff" stroke="#63b8ff" points="1437.97,-67.13 1429.86,-73.95 1440.46,-73.67 1437.97,-67.13"/>
</g>
<!-- Node11 -->
<g id="node11" class="node">
<title>Node11</title>
<g id="a_node11"><a xlink:href="../../d3/da1/class_translator_adapter__1__6__0.html" target="_top" xlink:title="Adapter class for languages that only contain translations up to version 1.6.0.">
<polygon fill="white" stroke="#666666" points="1797,-204 1660,-204 1660,-185 1797,-185 1797,-204"/>
<text text-anchor="middle" x="1728.5" y="-192" font-family="Helvetica,sans-Serif" font-size="10.00">TranslatorAdapter_1_6_0</text>
</a>
</g>
</g>
<!-- Node10&#45;&gt;Node11 -->
<g id="edge10" class="edge">
<title>Node10&#45;&gt;Node11</title>
<path fill="none" stroke="#63b8ff" d="M1610.35,-169.15C1633.84,-174.23 1661.04,-180.12 1683.32,-184.94"/>
<polygon fill="#63b8ff" stroke="#63b8ff" points="1611.05,-165.72 1600.54,-167.03 1609.57,-172.56 1611.05,-165.72"/>
</g>
<!-- Node23 -->
<g id="node23" class="node">
<title>Node23</title>
<g id="a_node23"><a xlink:href="../../d5/d43/class_translator_persian.html" target="_top" xlink:title=" ">
<polygon fill="white" stroke="#666666" points="1779,-167 1678,-167 1678,-148 1779,-148 1779,-167"/>
<text text-anchor="middle" x="1728.5" y="-155" font-family="Helvetica,sans-Serif" font-size="10.00">TranslatorPersian</text>
</a>
</g>
</g>
<!-- Node10&#45;&gt;Node23 -->
<g id="edge22" class="edge">
<title>Node10&#45;&gt;Node23</title>
<path fill="none" stroke="#63b8ff" d="M1634.26,-157.5C1649.06,-157.5 1664.18,-157.5 1677.81,-157.5"/>
<polygon fill="#63b8ff" stroke="#63b8ff" points="1634.08,-154 1624.08,-157.5 1634.08,-161 1634.08,-154"/>
</g>
<!-- Node24 -->
<g id="node24" class="node">
<title>Node24</title>
<g id="a_node24"><a xlink:href="../../dd/d80/class_translator_turkish.html" target="_top" xlink:title=" ">
<polygon fill="white" stroke="#666666" points="1778,-130 1679,-130 1679,-111 1778,-111 1778,-130"/>
<text text-anchor="middle" x="1728.5" y="-118" font-family="Helvetica,sans-Serif" font-size="10.00">TranslatorTurkish</text>
</a>
</g>
</g>
<!-- Node10&#45;&gt;Node24 -->
<g id="edge23" class="edge">
<title>Node10&#45;&gt;Node24</title>
<path fill="none" stroke="#63b8ff" d="M1610.35,-145.85C1633.84,-140.77 1661.04,-134.88 1683.32,-130.06"/>
<polygon fill="#63b8ff" stroke="#63b8ff" points="1609.57,-142.44 1600.54,-147.97 1611.05,-149.28 1609.57,-142.44"/>
</g>
<!-- Node12 -->
<g id="node12" class="node">
<title>Node12</title>
<g id="a_node12"><a xlink:href="../../d4/d2b/class_translator_adapter__1__4__6.html" target="_top" xlink:title="Adapter class for languages that only contain translations up to version 1.4.6.">
<polygon fill="white" stroke="#666666" points="1970,-315 1833,-315 1833,-296 1970,-296 1970,-315"/>
<text text-anchor="middle" x="1901.5" y="-303" font-family="Helvetica,sans-Serif" font-size="10.00">TranslatorAdapter_1_4_6</text>
</a>
</g>
</g>
<!-- Node11&#45;&gt;Node12 -->
<g id="edge11" class="edge">
<title>Node11&#45;&gt;Node12</title>
<path fill="none" stroke="#63b8ff" d="M1744.01,-211.8C1762.54,-232.78 1796.59,-267.79 1833,-287.5 1839.29,-290.91 1846.27,-293.7 1853.28,-295.98"/>
<polygon fill="#63b8ff" stroke="#63b8ff" points="1746.46,-209.28 1737.27,-204 1741.17,-213.86 1746.46,-209.28"/>
</g>
<!-- Node17 -->
<g id="node17" class="node">
<title>Node17</title>
<g id="a_node17"><a xlink:href="../../d3/d65/class_translator_afrikaans.html" target="_top" xlink:title=" ">
<polygon fill="white" stroke="#666666" points="1956.5,-278 1846.5,-278 1846.5,-259 1956.5,-259 1956.5,-278"/>
<text text-anchor="middle" x="1901.5" y="-266" font-family="Helvetica,sans-Serif" font-size="10.00">TranslatorAfrikaans</text>
</a>
</g>
</g>
<!-- Node11&#45;&gt;Node17 -->
<g id="edge16" class="edge">
<title>Node11&#45;&gt;Node17</title>
<path fill="none" stroke="#63b8ff" d="M1753.03,-209.31C1773.52,-221.7 1804.35,-239.11 1833,-250.5 1841.11,-253.73 1850,-256.56 1858.59,-258.97"/>
<polygon fill="#63b8ff" stroke="#63b8ff" points="1754.74,-206.26 1744.39,-204.01 1751.08,-212.22 1754.74,-206.26"/>
</g>
<!-- Node18 -->
<g id="node18" class="node">
<title>Node18</title>
<g id="a_node18"><a xlink:href="../../de/df7/class_translator_finnish.html" target="_top" xlink:title=" ">
<polygon fill="white" stroke="#666666" points="1951,-241 1852,-241 1852,-222 1951,-222 1951,-241"/>
<text text-anchor="middle" x="1901.5" y="-229" font-family="Helvetica,sans-Serif" font-size="10.00">TranslatorFinnish</text>
</a>
</g>
</g>
<!-- Node11&#45;&gt;Node18 -->
<g id="edge17" class="edge">
<title>Node11&#45;&gt;Node18</title>
<path fill="none" stroke="#63b8ff" d="M1783.35,-206.15C1806.84,-211.23 1834.04,-217.12 1856.32,-221.94"/>
<polygon fill="#63b8ff" stroke="#63b8ff" points="1784.05,-202.72 1773.54,-204.03 1782.57,-209.56 1784.05,-202.72"/>
</g>
<!-- Node19 -->
<g id="node19" class="node">
<title>Node19</title>
<g id="a_node19"><a xlink:href="../../d9/ddf/class_translator_macedonian.html" target="_top" xlink:title=" ">
<polygon fill="white" stroke="#666666" points="1963.5,-204 1839.5,-204 1839.5,-185 1963.5,-185 1963.5,-204"/>
<text text-anchor="middle" x="1901.5" y="-192" font-family="Helvetica,sans-Serif" font-size="10.00">TranslatorMacedonian</text>
</a>
</g>
</g>
<!-- Node11&#45;&gt;Node19 -->
<g id="edge18" class="edge">
<title>Node11&#45;&gt;Node19</title>
<path fill="none" stroke="#63b8ff" d="M1807.28,-194.5C1818,-194.5 1828.88,-194.5 1839.24,-194.5"/>
<polygon fill="#63b8ff" stroke="#63b8ff" points="1807.08,-191 1797.08,-194.5 1807.08,-198 1807.08,-191"/>
</g>
<!-- Node20 -->
<g id="node20" class="node">
<title>Node20</title>
<g id="a_node20"><a xlink:href="../../d5/d0a/class_translator_serbian.html" target="_top" xlink:title=" ">
<polygon fill="white" stroke="#666666" points="1952,-167 1851,-167 1851,-148 1952,-148 1952,-167"/>
<text text-anchor="middle" x="1901.5" y="-155" font-family="Helvetica,sans-Serif" font-size="10.00">TranslatorSerbian</text>
</a>
</g>
</g>
<!-- Node11&#45;&gt;Node20 -->
<g id="edge19" class="edge">
<title>Node11&#45;&gt;Node20</title>
<path fill="none" stroke="#63b8ff" d="M1783.35,-182.85C1806.84,-177.77 1834.04,-171.88 1856.32,-167.06"/>
<polygon fill="#63b8ff" stroke="#63b8ff" points="1782.57,-179.44 1773.54,-184.97 1784.05,-186.28 1782.57,-179.44"/>
</g>
<!-- Node21 -->
<g id="node21" class="node">
<title>Node21</title>
<g id="a_node21"><a xlink:href="../../dc/d03/class_translator_serbian_cyrillic.html" target="_top" xlink:title=" ">
<polygon fill="white" stroke="#666666" points="1969,-130 1834,-130 1834,-111 1969,-111 1969,-130"/>
<text text-anchor="middle" x="1901.5" y="-118" font-family="Helvetica,sans-Serif" font-size="10.00">TranslatorSerbianCyrillic</text>
</a>
</g>
</g>
<!-- Node11&#45;&gt;Node21 -->
<g id="edge20" class="edge">
<title>Node11&#45;&gt;Node21</title>
<path fill="none" stroke="#63b8ff" d="M1785.42,-181.32C1789.44,-179.6 1793.35,-177.67 1797,-175.5 1816.72,-163.77 1813.2,-150.1 1833,-138.5 1838.86,-135.07 1845.39,-132.28 1852.01,-130.01"/>
<polygon fill="#63b8ff" stroke="#63b8ff" points="1783.97,-178.13 1775.86,-184.95 1786.46,-184.67 1783.97,-178.13"/>
</g>
<!-- Node22 -->
<g id="node22" class="node">
<title>Node22</title>
<g id="a_node22"><a xlink:href="../../df/d20/class_translator_vietnamese.html" target="_top" xlink:title=" ">
<polygon fill="white" stroke="#666666" points="1963,-93 1840,-93 1840,-74 1963,-74 1963,-93"/>
<text text-anchor="middle" x="1901.5" y="-81" font-family="Helvetica,sans-Serif" font-size="10.00">TranslatorVietnamese</text>
</a>
</g>
</g>
<!-- Node11&#45;&gt;Node22 -->
<g id="edge21" class="edge">
<title>Node11&#45;&gt;Node22</title>
<path fill="none" stroke="#63b8ff" d="M1790.48,-180.18C1792.77,-178.76 1794.96,-177.21 1797,-175.5 1825.06,-152.04 1804.78,-124.76 1833,-101.5 1837.12,-98.11 1841.81,-95.35 1846.77,-93.1"/>
<polygon fill="#63b8ff" stroke="#63b8ff" points="1788.48,-177.27 1781.21,-184.97 1791.7,-183.49 1788.48,-177.27"/>
</g>
<!-- Node13 -->
<g id="node13" class="node">
<title>Node13</title>
<g id="a_node13"><a xlink:href="../../d3/de9/class_translator_arabic.html" target="_top" xlink:title=" ">
<polygon fill="white" stroke="#666666" points="2112,-370 2017,-370 2017,-351 2112,-351 2112,-370"/>
<text text-anchor="middle" x="2064.5" y="-358" font-family="Helvetica,sans-Serif" font-size="10.00">TranslatorArabic</text>
</a>
</g>
</g>
<!-- Node12&#45;&gt;Node13 -->
<g id="edge12" class="edge">
<title>Node12&#45;&gt;Node13</title>
<path fill="none" stroke="#63b8ff" d="M1937.94,-318.57C1957.87,-325.81 1983.25,-334.88 2006,-342.5 2014.43,-345.33 2023.6,-348.26 2032.09,-350.92"/>
<polygon fill="#63b8ff" stroke="#63b8ff" points="1938.94,-315.2 1928.35,-315.06 1936.54,-321.78 1938.94,-315.2"/>
</g>
<!-- Node14 -->
<g id="node14" class="node">
<title>Node14</title>
<g id="a_node14"><a xlink:href="../../dc/d53/class_translator_lithuanian.html" target="_top" xlink:title=" ">
<polygon fill="white" stroke="#666666" points="2122.5,-333 2006.5,-333 2006.5,-314 2122.5,-314 2122.5,-333"/>
<text text-anchor="middle" x="2064.5" y="-321" font-family="Helvetica,sans-Serif" font-size="10.00">TranslatorLithuanian</text>
</a>
</g>
</g>
<!-- Node12&#45;&gt;Node14 -->
<g id="edge13" class="edge">
<title>Node12&#45;&gt;Node14</title>
<path fill="none" stroke="#63b8ff" d="M1980.53,-314.22C1989.27,-315.2 1998.05,-316.18 2006.46,-317.12"/>
<polygon fill="#63b8ff" stroke="#63b8ff" points="1980.64,-310.71 1970.31,-313.08 1979.86,-317.67 1980.64,-310.71"/>
</g>
<!-- Node15 -->
<g id="node15" class="node">
<title>Node15</title>
<g id="a_node15"><a xlink:href="../../dd/d38/class_translator_norwegian.html" target="_top" xlink:title=" ">
<polygon fill="white" stroke="#666666" points="2123,-296 2006,-296 2006,-277 2123,-277 2123,-296"/>
<text text-anchor="middle" x="2064.5" y="-284" font-family="Helvetica,sans-Serif" font-size="10.00">TranslatorNorwegian</text>
</a>
</g>
</g>
<!-- Node12&#45;&gt;Node15 -->
<g id="edge14" class="edge">
<title>Node12&#45;&gt;Node15</title>
<path fill="none" stroke="#63b8ff" d="M1980.38,-296.31C1989,-295.29 1997.66,-294.27 2005.96,-293.29"/>
<polygon fill="#63b8ff" stroke="#63b8ff" points="1979.83,-292.85 1970.31,-297.5 1980.65,-299.8 1979.83,-292.85"/>
</g>
<!-- Node16 -->
<g id="node16" class="node">
<title>Node16</title>
<g id="a_node16"><a xlink:href="../../dd/d0b/class_translator_slovene.html" target="_top" xlink:title=" ">
<polygon fill="white" stroke="#666666" points="2116.5,-259 2012.5,-259 2012.5,-240 2116.5,-240 2116.5,-259"/>
<text text-anchor="middle" x="2064.5" y="-247" font-family="Helvetica,sans-Serif" font-size="10.00">TranslatorSlovene</text>
</a>
</g>
</g>
<!-- Node12&#45;&gt;Node16 -->
<g id="edge15" class="edge">
<title>Node12&#45;&gt;Node16</title>
<path fill="none" stroke="#63b8ff" d="M1954.12,-293.03C1959.54,-291.34 1964.92,-289.49 1970,-287.5 1986.85,-280.91 1989.35,-275.58 2006,-268.5 2014.13,-265.04 2023.11,-261.81 2031.51,-259.02"/>
<polygon fill="#63b8ff" stroke="#63b8ff" points="1952.98,-289.71 1944.38,-295.9 1954.96,-296.43 1952.98,-289.71"/>
</g>
</g>
</svg>
