<?xml version="1.0" encoding="UTF-8" standalone="no"?>
<!DOCTYPE svg PUBLIC "-//W3C//DTD SVG 1.1//EN"
 "http://www.w3.org/Graphics/SVG/1.1/DTD/svg11.dtd">
<!-- Generated by graphviz version 2.40.1 (20161225.0304)
 -->
<!-- Title: src/lexscanner.l Pages: 1 -->
<svg width="2190pt" height="687pt"
 viewBox="0.00 0.00 2189.81 687.00" xmlns="http://www.w3.org/2000/svg" xmlns:xlink="http://www.w3.org/1999/xlink">
<g id="graph0" class="graph" transform="scale(1 1) rotate(0) translate(4 683)">
<title>src/lexscanner.l</title>
<!-- Node1 -->
<g id="node1" class="node">
<title>Node1</title>
<g id="a_node1"><a xlink:title=" ">
<polygon fill="#999999" stroke="#666666" points="1729.5,-679 1643.5,-679 1643.5,-660 1729.5,-660 1729.5,-679"/>
<text text-anchor="middle" x="1686.5" y="-667" font-family="Helvetica,sans-Serif" font-size="10.00" fill="#000000">src/lexscanner.l</text>
</a>
</g>
</g>
<!-- Node2 -->
<g id="node2" class="node">
<title>Node2</title>
<g id="a_node2"><a xlink:title=" ">
<polygon fill="#e0e0e0" stroke="#999999" points="49,-624 0,-624 0,-605 49,-605 49,-624"/>
<text text-anchor="middle" x="24.5" y="-612" font-family="Helvetica,sans-Serif" font-size="10.00" fill="#000000">stdint.h</text>
</a>
</g>
</g>
<!-- Node1&#45;&gt;Node2 -->
<g id="edge1" class="edge">
<title>Node1&#45;&gt;Node2</title>
<path fill="none" stroke="#63b8ff" d="M1643.4742,-668.8364C1402.3475,-665.045 223.8782,-645.5356 63.5,-624 62.0323,-623.8029 60.5395,-623.5731 59.036,-623.3173"/>
<polygon fill="#63b8ff" stroke="#63b8ff" points="59.6011,-619.861 49.1079,-621.3249 58.2237,-626.7242 59.6011,-619.861"/>
</g>
<!-- Node3 -->
<g id="node3" class="node">
<title>Node3</title>
<g id="a_node3"><a xlink:title=" ">
<polygon fill="#e0e0e0" stroke="#999999" points="219.5,-74 163.5,-74 163.5,-55 219.5,-55 219.5,-74"/>
<text text-anchor="middle" x="191.5" y="-62" font-family="Helvetica,sans-Serif" font-size="10.00" fill="#000000">algorithm</text>
</a>
</g>
</g>
<!-- Node1&#45;&gt;Node3 -->
<g id="edge2" class="edge">
<title>Node1&#45;&gt;Node3</title>
<path fill="none" stroke="#63b8ff" d="M1643.493,-668.9776C1402.8083,-665.959 231.0598,-649.9713 159.5,-624 115.914,-608.1813 77.5,-605.8678 77.5,-559.5 77.5,-559.5 77.5,-559.5 77.5,-174.5 77.5,-128.6205 125.9064,-95.8257 159.6333,-78.5442"/>
<polygon fill="#63b8ff" stroke="#63b8ff" points="161.2753,-81.6371 168.7044,-74.0833 158.1862,-75.3555 161.2753,-81.6371"/>
</g>
<!-- Node4 -->
<g id="node4" class="node">
<title>Node4</title>
<g id="a_node4"><a xlink:title=" ">
<polygon fill="#e0e0e0" stroke="#999999" points="542.5,-129 498.5,-129 498.5,-110 542.5,-110 542.5,-129"/>
<text text-anchor="middle" x="520.5" y="-117" font-family="Helvetica,sans-Serif" font-size="10.00" fill="#000000">vector</text>
</a>
</g>
</g>
<!-- Node1&#45;&gt;Node4 -->
<g id="edge3" class="edge">
<title>Node1&#45;&gt;Node4</title>
<path fill="none" stroke="#63b8ff" d="M1643.349,-668.8364C1454.9927,-665.7935 703.8322,-652.1032 469.5,-624 327.1796,-606.9317 153.5,-702.8402 153.5,-559.5 153.5,-559.5 153.5,-559.5 153.5,-229.5 153.5,-159.9099 398.6843,-130.5916 488.2453,-122.2036"/>
<polygon fill="#63b8ff" stroke="#63b8ff" points="488.727,-125.6743 498.369,-121.2831 488.0931,-118.7031 488.727,-125.6743"/>
</g>
<!-- Node5 -->
<g id="node5" class="node">
<title>Node5</title>
<g id="a_node5"><a xlink:title=" ">
<polygon fill="#e0e0e0" stroke="#999999" points="1876.5,-624 1836.5,-624 1836.5,-605 1876.5,-605 1876.5,-624"/>
<text text-anchor="middle" x="1856.5" y="-612" font-family="Helvetica,sans-Serif" font-size="10.00" fill="#000000">utility</text>
</a>
</g>
</g>
<!-- Node1&#45;&gt;Node5 -->
<g id="edge4" class="edge">
<title>Node1&#45;&gt;Node5</title>
<path fill="none" stroke="#63b8ff" d="M1716.2205,-659.9515C1742.813,-651.3986 1783.1081,-638.4159 1826.6009,-624.2835"/>
<polygon fill="#63b8ff" stroke="#63b8ff" points="1827.7945,-627.5759 1836.2223,-621.1554 1825.6301,-620.9189 1827.7945,-627.5759"/>
</g>
<!-- Node6 -->
<g id="node6" class="node">
<title>Node6</title>
<g id="a_node6"><a xlink:title=" ">
<polygon fill="#e0e0e0" stroke="#999999" points="454.5,-184 408.5,-184 408.5,-165 454.5,-165 454.5,-184"/>
<text text-anchor="middle" x="431.5" y="-172" font-family="Helvetica,sans-Serif" font-size="10.00" fill="#000000">stdio.h</text>
</a>
</g>
</g>
<!-- Node1&#45;&gt;Node6 -->
<g id="edge5" class="edge">
<title>Node1&#45;&gt;Node6</title>
<path fill="none" stroke="#63b8ff" d="M1643.2573,-668.4672C1405.4447,-662.5105 267.5,-630.3077 267.5,-559.5 267.5,-559.5 267.5,-559.5 267.5,-284.5 267.5,-222.0571 350.5146,-192.7859 398.4193,-181.093"/>
<polygon fill="#63b8ff" stroke="#63b8ff" points="399.3961,-184.4596 408.3506,-178.7968 397.8192,-177.6395 399.3961,-184.4596"/>
</g>
<!-- Node7 -->
<g id="node7" class="node">
<title>Node7</title>
<g id="a_node7"><a xlink:title=" ">
<polygon fill="#e0e0e0" stroke="#999999" points="1942.5,-624 1894.5,-624 1894.5,-605 1942.5,-605 1942.5,-624"/>
<text text-anchor="middle" x="1918.5" y="-612" font-family="Helvetica,sans-Serif" font-size="10.00" fill="#000000">stdlib.h</text>
</a>
</g>
</g>
<!-- Node1&#45;&gt;Node7 -->
<g id="edge6" class="edge">
<title>Node1&#45;&gt;Node7</title>
<path fill="none" stroke="#63b8ff" d="M1729.7561,-660.3353C1768.0479,-652.0599 1825.6637,-639.2143 1884.5487,-624.1446"/>
<polygon fill="#63b8ff" stroke="#63b8ff" points="1885.5819,-627.4927 1894.3918,-621.6075 1883.8347,-620.7143 1885.5819,-627.4927"/>
</g>
<!-- Node8 -->
<g id="node8" class="node">
<title>Node8</title>
<g id="a_node8"><a xlink:title=" ">
<polygon fill="#e0e0e0" stroke="#999999" points="2012.5,-624 1960.5,-624 1960.5,-605 2012.5,-605 2012.5,-624"/>
<text text-anchor="middle" x="1986.5" y="-612" font-family="Helvetica,sans-Serif" font-size="10.00" fill="#000000">assert.h</text>
</a>
</g>
</g>
<!-- Node1&#45;&gt;Node8 -->
<g id="edge7" class="edge">
<title>Node1&#45;&gt;Node8</title>
<path fill="none" stroke="#63b8ff" d="M1729.8918,-663.3441C1780.573,-655.8681 1867.1055,-642.218 1950.326,-624.101"/>
<polygon fill="#63b8ff" stroke="#63b8ff" points="1951.1798,-627.4969 1960.1931,-621.9281 1949.6743,-620.6607 1951.1798,-627.4969"/>
</g>
<!-- Node9 -->
<g id="node9" class="node">
<title>Node9</title>
<g id="a_node9"><a xlink:title=" ">
<polygon fill="#e0e0e0" stroke="#999999" points="1620,-569 1571,-569 1571,-550 1620,-550 1620,-569"/>
<text text-anchor="middle" x="1595.5" y="-557" font-family="Helvetica,sans-Serif" font-size="10.00" fill="#000000">ctype.h</text>
</a>
</g>
</g>
<!-- Node1&#45;&gt;Node9 -->
<g id="edge8" class="edge">
<title>Node1&#45;&gt;Node9</title>
<path fill="none" stroke="#63b8ff" d="M1673.5282,-659.9905C1662.3522,-651.3916 1646.2171,-637.9705 1634.5,-624 1622.7063,-609.9382 1612.1295,-591.9248 1604.976,-578.5102"/>
<polygon fill="#63b8ff" stroke="#63b8ff" points="1607.9109,-576.5658 1600.2095,-569.2899 1601.6927,-579.7805 1607.9109,-576.5658"/>
</g>
<!-- Node10 -->
<g id="node10" class="node">
<title>Node10</title>
<g id="a_node10"><a xlink:href="../../db/d16/config_8h.html" target="_top" xlink:title=" ">
<polygon fill="#ffffff" stroke="#666666" points="2082,-624 2031,-624 2031,-605 2082,-605 2082,-624"/>
<text text-anchor="middle" x="2056.5" y="-612" font-family="Helvetica,sans-Serif" font-size="10.00" fill="#000000">config.h</text>
</a>
</g>
</g>
<!-- Node1&#45;&gt;Node10 -->
<g id="edge9" class="edge">
<title>Node1&#45;&gt;Node10</title>
<path fill="none" stroke="#63b8ff" d="M1729.6339,-665.4543C1791.8388,-659.2236 1910.4585,-645.8624 2020.9931,-623.8556"/>
<polygon fill="#63b8ff" stroke="#63b8ff" points="2021.8681,-627.2496 2030.9774,-621.8393 2020.4824,-620.3881 2021.8681,-627.2496"/>
</g>
<!-- Node12 -->
<g id="node12" class="node">
<title>Node12</title>
<g id="a_node12"><a xlink:href="../../d9/dd0/lexscanner_8h.html" target="_top" xlink:title=" ">
<polygon fill="#ffffff" stroke="#666666" points="1696.5,-514 1624.5,-514 1624.5,-495 1696.5,-495 1696.5,-514"/>
<text text-anchor="middle" x="1660.5" y="-502" font-family="Helvetica,sans-Serif" font-size="10.00" fill="#000000">lexscanner.h</text>
</a>
</g>
</g>
<!-- Node1&#45;&gt;Node12 -->
<g id="edge11" class="edge">
<title>Node1&#45;&gt;Node12</title>
<path fill="none" stroke="#63b8ff" d="M1684.9514,-659.6726C1680.7688,-633.1291 1669.1838,-559.6086 1663.5948,-524.1401"/>
<polygon fill="#63b8ff" stroke="#63b8ff" points="1667.0218,-523.4025 1662.0079,-514.0692 1660.1072,-524.4921 1667.0218,-523.4025"/>
</g>
<!-- Node32 -->
<g id="node32" class="node">
<title>Node32</title>
<g id="a_node32"><a xlink:href="../../d1/dc6/entry_8h.html" target="_top" xlink:title=" ">
<polygon fill="#ffffff" stroke="#666666" points="1289,-294 1242,-294 1242,-275 1289,-275 1289,-294"/>
<text text-anchor="middle" x="1265.5" y="-282" font-family="Helvetica,sans-Serif" font-size="10.00" fill="#000000">entry.h</text>
</a>
</g>
</g>
<!-- Node1&#45;&gt;Node32 -->
<g id="edge38" class="edge">
<title>Node1&#45;&gt;Node32</title>
<path fill="none" stroke="#63b8ff" d="M1692.2714,-659.8782C1702.9018,-641.214 1724.5,-598.4949 1724.5,-559.5 1724.5,-559.5 1724.5,-559.5 1724.5,-394.5 1724.5,-350.7788 1405.4897,-303.5047 1299.37,-288.9884"/>
<polygon fill="#63b8ff" stroke="#63b8ff" points="1299.5911,-285.4864 1289.2113,-287.6102 1298.6499,-292.4229 1299.5911,-285.4864"/>
</g>
<!-- Node41 -->
<g id="node41" class="node">
<title>Node41</title>
<g id="a_node41"><a xlink:href="../../d2/d0d/message_8h.html" target="_top" xlink:title=" ">
<polygon fill="#ffffff" stroke="#666666" points="1818,-624 1753,-624 1753,-605 1818,-605 1818,-624"/>
<text text-anchor="middle" x="1785.5" y="-612" font-family="Helvetica,sans-Serif" font-size="10.00" fill="#000000">message.h</text>
</a>
</g>
</g>
<!-- Node1&#45;&gt;Node41 -->
<g id="edge68" class="edge">
<title>Node1&#45;&gt;Node41</title>
<path fill="none" stroke="#63b8ff" d="M1703.7445,-659.9197C1718.9826,-651.4541 1741.444,-638.9755 1758.9696,-629.2391"/>
<polygon fill="#63b8ff" stroke="#63b8ff" points="1761.0791,-632.0711 1768.121,-624.155 1757.6796,-625.9519 1761.0791,-632.0711"/>
</g>
<!-- Node43 -->
<g id="node43" class="node">
<title>Node43</title>
<g id="a_node43"><a xlink:href="../../d8/d3c/util_8h.html" target="_top" xlink:title="A bunch of utility functions.">
<polygon fill="#ffffff" stroke="#666666" points="1271.5,-624 1233.5,-624 1233.5,-605 1271.5,-605 1271.5,-624"/>
<text text-anchor="middle" x="1252.5" y="-612" font-family="Helvetica,sans-Serif" font-size="10.00" fill="#000000">util.h</text>
</a>
</g>
</g>
<!-- Node1&#45;&gt;Node43 -->
<g id="edge71" class="edge">
<title>Node1&#45;&gt;Node43</title>
<path fill="none" stroke="#63b8ff" d="M1643.2997,-664.0253C1555.223,-652.8635 1356.9052,-627.7311 1281.9464,-618.2317"/>
<polygon fill="#63b8ff" stroke="#63b8ff" points="1282.1706,-614.7322 1271.8098,-616.9471 1281.2904,-621.6766 1282.1706,-614.7322"/>
</g>
<!-- Node60 -->
<g id="node60" class="node">
<title>Node60</title>
<g id="a_node60"><a xlink:href="../../db/d62/scanner_8h.html" target="_top" xlink:title=" ">
<polygon fill="#ffffff" stroke="#666666" points="1446,-459 1387,-459 1387,-440 1446,-440 1446,-459"/>
<text text-anchor="middle" x="1416.5" y="-447" font-family="Helvetica,sans-Serif" font-size="10.00" fill="#000000">scanner.h</text>
</a>
</g>
</g>
<!-- Node1&#45;&gt;Node60 -->
<g id="edge143" class="edge">
<title>Node1&#45;&gt;Node60</title>
<path fill="none" stroke="#63b8ff" d="M1684.1783,-659.8403C1678.4034,-637.687 1661.4265,-582.6254 1628.5,-550 1579.4404,-501.389 1502.3662,-473.0833 1455.9098,-459.5102"/>
<polygon fill="#63b8ff" stroke="#63b8ff" points="1456.7767,-456.1181 1446.2012,-456.7582 1454.8676,-462.8528 1456.7767,-456.1181"/>
</g>
<!-- Node61 -->
<g id="node61" class="node">
<title>Node61</title>
<g id="a_node61"><a xlink:href="../../d6/da5/doxygen__lex_8h.html" target="_top" xlink:title=" ">
<polygon fill="#ffffff" stroke="#666666" points="2180.5,-624 2100.5,-624 2100.5,-605 2180.5,-605 2180.5,-624"/>
<text text-anchor="middle" x="2140.5" y="-612" font-family="Helvetica,sans-Serif" font-size="10.00" fill="#000000">doxygen_lex.h</text>
</a>
</g>
</g>
<!-- Node1&#45;&gt;Node61 -->
<g id="edge145" class="edge">
<title>Node1&#45;&gt;Node61</title>
<path fill="none" stroke="#63b8ff" d="M1729.5085,-665.8027C1801.9053,-659.3318 1952.8906,-644.7768 2090.5469,-624.041"/>
<polygon fill="#63b8ff" stroke="#63b8ff" points="2091.0738,-627.5012 2100.4338,-622.5374 2090.0213,-620.5808 2091.0738,-627.5012"/>
</g>
<!-- Node11 -->
<g id="node11" class="node">
<title>Node11</title>
<g id="a_node11"><a xlink:title=" ">
<polygon fill="#e0e0e0" stroke="#999999" points="2143.5,-569 2063.5,-569 2063.5,-550 2143.5,-550 2143.5,-569"/>
<text text-anchor="middle" x="2103.5" y="-557" font-family="Helvetica,sans-Serif" font-size="10.00" fill="#000000">configvalues.h</text>
</a>
</g>
</g>
<!-- Node10&#45;&gt;Node11 -->
<g id="edge10" class="edge">
<title>Node10&#45;&gt;Node11</title>
<path fill="none" stroke="#63b8ff" d="M2064.6868,-604.9197C2071.2109,-597.2851 2080.5241,-586.3867 2088.3923,-577.1792"/>
<polygon fill="#63b8ff" stroke="#63b8ff" points="2091.2548,-579.217 2095.0906,-569.3408 2085.9332,-574.6694 2091.2548,-579.217"/>
</g>
<!-- Node13 -->
<g id="node13" class="node">
<title>Node13</title>
<g id="a_node13"><a xlink:href="../../da/d55/parserintf_8h.html" target="_top" xlink:title=" ">
<polygon fill="#ffffff" stroke="#666666" points="1448,-349 1383,-349 1383,-330 1448,-330 1448,-349"/>
<text text-anchor="middle" x="1415.5" y="-337" font-family="Helvetica,sans-Serif" font-size="10.00" fill="#000000">parserintf.h</text>
</a>
</g>
</g>
<!-- Node12&#45;&gt;Node13 -->
<g id="edge12" class="edge">
<title>Node12&#45;&gt;Node13</title>
<path fill="none" stroke="#63b8ff" d="M1646.2688,-494.9157C1605.5042,-467.462 1488.0434,-388.3558 1438.2473,-354.8196"/>
<polygon fill="#63b8ff" stroke="#63b8ff" points="1440.02,-351.7938 1429.7705,-349.1107 1436.1098,-357.5998 1440.02,-351.7938"/>
</g>
<!-- Node14 -->
<g id="node14" class="node">
<title>Node14</title>
<g id="a_node14"><a xlink:title=" ">
<polygon fill="#e0e0e0" stroke="#999999" points="1443,-294 1384,-294 1384,-275 1443,-275 1443,-294"/>
<text text-anchor="middle" x="1413.5" y="-282" font-family="Helvetica,sans-Serif" font-size="10.00" fill="#000000">functional</text>
</a>
</g>
</g>
<!-- Node13&#45;&gt;Node14 -->
<g id="edge13" class="edge">
<title>Node13&#45;&gt;Node14</title>
<path fill="none" stroke="#63b8ff" d="M1415.1516,-329.9197C1414.8967,-322.9083 1414.5416,-313.1442 1414.226,-304.4652"/>
<polygon fill="#63b8ff" stroke="#63b8ff" points="1417.719,-304.207 1413.8578,-294.3408 1410.7237,-304.4614 1417.719,-304.207"/>
</g>
<!-- Node15 -->
<g id="node15" class="node">
<title>Node15</title>
<g id="a_node15"><a xlink:title=" ">
<polygon fill="#e0e0e0" stroke="#999999" points="971.5,-129 919.5,-129 919.5,-110 971.5,-110 971.5,-129"/>
<text text-anchor="middle" x="945.5" y="-117" font-family="Helvetica,sans-Serif" font-size="10.00" fill="#000000">memory</text>
</a>
</g>
</g>
<!-- Node13&#45;&gt;Node15 -->
<g id="edge14" class="edge">
<title>Node13&#45;&gt;Node15</title>
<path fill="none" stroke="#63b8ff" d="M1382.8589,-333.4308C1345.8012,-326.0729 1283.8298,-312.3433 1232.5,-294 1136.9704,-259.8613 1115.7177,-242.0187 1032.5,-184 1009.5149,-167.975 983.8087,-148.7501 966.3383,-135.4811"/>
<polygon fill="#63b8ff" stroke="#63b8ff" points="968.0859,-132.4124 958.0111,-129.1337 963.8423,-137.9795 968.0859,-132.4124"/>
</g>
<!-- Node16 -->
<g id="node16" class="node">
<title>Node16</title>
<g id="a_node16"><a xlink:title=" ">
<polygon fill="#e0e0e0" stroke="#999999" points="897,-239 862,-239 862,-220 897,-220 897,-239"/>
<text text-anchor="middle" x="879.5" y="-227" font-family="Helvetica,sans-Serif" font-size="10.00" fill="#000000">map</text>
</a>
</g>
</g>
<!-- Node13&#45;&gt;Node16 -->
<g id="edge15" class="edge">
<title>Node13&#45;&gt;Node16</title>
<path fill="none" stroke="#63b8ff" d="M1382.9165,-334.2328C1334.4812,-326.2743 1240.6885,-310.3682 1161.5,-294 1125.2883,-286.5151 1116.6083,-282.9688 1080.5,-275 1006.3968,-258.646 984.2963,-260.0128 906.8384,-238.782"/>
<polygon fill="#63b8ff" stroke="#63b8ff" points="907.6827,-235.384 897.1106,-236.0781 905.808,-242.1283 907.6827,-235.384"/>
</g>
<!-- Node17 -->
<g id="node17" class="node">
<title>Node17</title>
<g id="a_node17"><a xlink:title=" ">
<polygon fill="#e0e0e0" stroke="#999999" points="1513,-19 1472,-19 1472,0 1513,0 1513,-19"/>
<text text-anchor="middle" x="1492.5" y="-7" font-family="Helvetica,sans-Serif" font-size="10.00" fill="#000000">string</text>
</a>
</g>
</g>
<!-- Node13&#45;&gt;Node17 -->
<g id="edge16" class="edge">
<title>Node13&#45;&gt;Node17</title>
<path fill="none" stroke="#63b8ff" d="M1448.2204,-337.1633C1566.9644,-327.8634 1971.2663,-288.762 2029.5,-184 2060.1306,-128.8957 2028.1064,-80.6167 1970.5,-55 1949.9934,-45.881 1625.6544,-19.9002 1523.2385,-11.8846"/>
<polygon fill="#63b8ff" stroke="#63b8ff" points="1523.4644,-8.3916 1513.2223,-11.1026 1522.9195,-15.3704 1523.4644,-8.3916"/>
</g>
<!-- Node18 -->
<g id="node18" class="node">
<title>Node18</title>
<g id="a_node18"><a xlink:href="../../d9/d49/types_8h.html" target="_top" xlink:title="This file contains a number of basic enums and types.">
<polygon fill="#ffffff" stroke="#666666" points="1395,-239 1346,-239 1346,-220 1395,-220 1395,-239"/>
<text text-anchor="middle" x="1370.5" y="-227" font-family="Helvetica,sans-Serif" font-size="10.00" fill="#000000">types.h</text>
</a>
</g>
</g>
<!-- Node13&#45;&gt;Node18 -->
<g id="edge17" class="edge">
<title>Node13&#45;&gt;Node18</title>
<path fill="none" stroke="#63b8ff" d="M1427.6837,-329.814C1442.0892,-317.1347 1462.7707,-294.2582 1451.5,-275 1441.4208,-257.7777 1422.1656,-246.5748 1404.9576,-239.5957"/>
<polygon fill="#63b8ff" stroke="#63b8ff" points="1405.7403,-236.1532 1395.1472,-235.961 1403.3083,-242.7172 1405.7403,-236.1532"/>
</g>
<!-- Node27 -->
<g id="node27" class="node">
<title>Node27</title>
<g id="a_node27"><a xlink:href="../../d5/d75/containers_8h.html" target="_top" xlink:title=" ">
<polygon fill="#ffffff" stroke="#666666" points="989.5,-294 919.5,-294 919.5,-275 989.5,-275 989.5,-294"/>
<text text-anchor="middle" x="954.5" y="-282" font-family="Helvetica,sans-Serif" font-size="10.00" fill="#000000">containers.h</text>
</a>
</g>
</g>
<!-- Node13&#45;&gt;Node27 -->
<g id="edge30" class="edge">
<title>Node13&#45;&gt;Node27</title>
<path fill="none" stroke="#63b8ff" d="M1382.9033,-337.1038C1314.0309,-331.7928 1148.4955,-317.7187 999.7288,-294.0476"/>
<polygon fill="#63b8ff" stroke="#63b8ff" points="999.9314,-290.5352 989.5021,-292.4007 998.8184,-297.4461 999.9314,-290.5352"/>
</g>
<!-- Node19 -->
<g id="node19" class="node">
<title>Node19</title>
<g id="a_node19"><a xlink:href="../../d7/d5c/qcstring_8h.html" target="_top" xlink:title=" ">
<polygon fill="#ffffff" stroke="#666666" points="1538,-129 1479,-129 1479,-110 1538,-110 1538,-129"/>
<text text-anchor="middle" x="1508.5" y="-117" font-family="Helvetica,sans-Serif" font-size="10.00" fill="#000000">qcstring.h</text>
</a>
</g>
</g>
<!-- Node18&#45;&gt;Node19 -->
<g id="edge18" class="edge">
<title>Node18&#45;&gt;Node19</title>
<path fill="none" stroke="#63b8ff" d="M1395.2185,-221.8046C1415.7276,-214.5096 1444.7824,-201.9784 1465.5,-184 1480.0592,-171.3657 1491.7876,-152.6777 1499.2951,-138.6653"/>
<polygon fill="#63b8ff" stroke="#63b8ff" points="1502.5733,-139.9408 1503.9959,-129.4419 1496.3366,-136.7622 1502.5733,-139.9408"/>
</g>
<!-- Node19&#45;&gt;Node3 -->
<g id="edge20" class="edge">
<title>Node19&#45;&gt;Node3</title>
<path fill="none" stroke="#63b8ff" d="M1478.8329,-118.2611C1305.5212,-111.0233 424.971,-74.2501 229.832,-66.1008"/>
<polygon fill="#63b8ff" stroke="#63b8ff" points="229.9032,-62.6008 219.7658,-65.6804 229.611,-69.5947 229.9032,-62.6008"/>
</g>
<!-- Node19&#45;&gt;Node17 -->
<g id="edge19" class="edge">
<title>Node19&#45;&gt;Node17</title>
<path fill="none" stroke="#63b8ff" d="M1478.9596,-116.7756C1451.8922,-112.5351 1413.2671,-101.6971 1394.5,-74 1374.7421,-44.8407 1426.3957,-25.644 1461.9986,-16.256"/>
<polygon fill="#63b8ff" stroke="#63b8ff" points="1463.1339,-19.5801 1471.9886,-13.7625 1461.4387,-12.7885 1463.1339,-19.5801"/>
</g>
<!-- Node20 -->
<g id="node20" class="node">
<title>Node20</title>
<g id="a_node20"><a xlink:title=" ">
<polygon fill="#e0e0e0" stroke="#999999" points="1309.5,-74 1263.5,-74 1263.5,-55 1309.5,-55 1309.5,-74"/>
<text text-anchor="middle" x="1286.5" y="-62" font-family="Helvetica,sans-Serif" font-size="10.00" fill="#000000">cctype</text>
</a>
</g>
</g>
<!-- Node19&#45;&gt;Node20 -->
<g id="edge21" class="edge">
<title>Node19&#45;&gt;Node20</title>
<path fill="none" stroke="#63b8ff" d="M1478.5601,-112.0825C1437.1212,-101.8161 1362.5414,-83.3391 1319.5263,-72.6822"/>
<polygon fill="#63b8ff" stroke="#63b8ff" points="1320.1145,-69.2222 1309.5662,-70.2146 1318.4311,-76.0167 1320.1145,-69.2222"/>
</g>
<!-- Node21 -->
<g id="node21" class="node">
<title>Node21</title>
<g id="a_node21"><a xlink:title=" ">
<polygon fill="#e0e0e0" stroke="#999999" points="1449.5,-74 1403.5,-74 1403.5,-55 1449.5,-55 1449.5,-74"/>
<text text-anchor="middle" x="1426.5" y="-62" font-family="Helvetica,sans-Serif" font-size="10.00" fill="#000000">cstring</text>
</a>
</g>
</g>
<!-- Node19&#45;&gt;Node21 -->
<g id="edge22" class="edge">
<title>Node19&#45;&gt;Node21</title>
<path fill="none" stroke="#63b8ff" d="M1494.2167,-109.9197C1481.8289,-101.6109 1463.6778,-89.4363 1449.2853,-79.7828"/>
<polygon fill="#63b8ff" stroke="#63b8ff" points="1451.1493,-76.8187 1440.8948,-74.155 1447.25,-82.6321 1451.1493,-76.8187"/>
</g>
<!-- Node22 -->
<g id="node22" class="node">
<title>Node22</title>
<g id="a_node22"><a xlink:title=" ">
<polygon fill="#e0e0e0" stroke="#999999" points="1932,-74 1889,-74 1889,-55 1932,-55 1932,-74"/>
<text text-anchor="middle" x="1910.5" y="-62" font-family="Helvetica,sans-Serif" font-size="10.00" fill="#000000">cstdio</text>
</a>
</g>
</g>
<!-- Node19&#45;&gt;Node22 -->
<g id="edge23" class="edge">
<title>Node19&#45;&gt;Node22</title>
<path fill="none" stroke="#63b8ff" d="M1538.06,-115.4557C1611.6602,-105.386 1802.6456,-79.2562 1878.6339,-68.8598"/>
<polygon fill="#63b8ff" stroke="#63b8ff" points="1879.1356,-72.3238 1888.5688,-67.5005 1878.1866,-65.3885 1879.1356,-72.3238"/>
</g>
<!-- Node23 -->
<g id="node23" class="node">
<title>Node23</title>
<g id="a_node23"><a xlink:title=" ">
<polygon fill="#e0e0e0" stroke="#999999" points="1513,-74 1468,-74 1468,-55 1513,-55 1513,-74"/>
<text text-anchor="middle" x="1490.5" y="-62" font-family="Helvetica,sans-Serif" font-size="10.00" fill="#000000">cstdlib</text>
</a>
</g>
</g>
<!-- Node19&#45;&gt;Node23 -->
<g id="edge24" class="edge">
<title>Node19&#45;&gt;Node23</title>
<path fill="none" stroke="#63b8ff" d="M1505.3646,-109.9197C1503.019,-102.7525 1499.732,-92.7089 1496.8452,-83.8882"/>
<polygon fill="#63b8ff" stroke="#63b8ff" points="1500.1575,-82.7561 1493.7206,-74.3408 1493.5047,-84.9335 1500.1575,-82.7561"/>
</g>
<!-- Node24 -->
<g id="node24" class="node">
<title>Node24</title>
<g id="a_node24"><a xlink:title=" ">
<polygon fill="#e0e0e0" stroke="#999999" points="1694.5,-19 1648.5,-19 1648.5,0 1694.5,0 1694.5,-19"/>
<text text-anchor="middle" x="1671.5" y="-7" font-family="Helvetica,sans-Serif" font-size="10.00" fill="#000000">cstdint</text>
</a>
</g>
</g>
<!-- Node19&#45;&gt;Node24 -->
<g id="edge25" class="edge">
<title>Node19&#45;&gt;Node24</title>
<path fill="none" stroke="#63b8ff" d="M1538.2014,-113.4371C1575.208,-105.3251 1635.532,-90.0862 1651.5,-74 1663.2309,-62.1822 1668.1013,-43.6237 1670.1127,-29.4417"/>
<polygon fill="#63b8ff" stroke="#63b8ff" points="1673.6227,-29.5304 1671.1894,-19.2188 1666.6612,-28.7972 1673.6227,-29.5304"/>
</g>
<!-- Node25 -->
<g id="node25" class="node">
<title>Node25</title>
<g id="a_node25"><a xlink:title=" ">
<polygon fill="#e0e0e0" stroke="#999999" points="1583.5,-74 1531.5,-74 1531.5,-55 1583.5,-55 1583.5,-74"/>
<text text-anchor="middle" x="1557.5" y="-62" font-family="Helvetica,sans-Serif" font-size="10.00" fill="#000000">ostream</text>
</a>
</g>
</g>
<!-- Node19&#45;&gt;Node25 -->
<g id="edge26" class="edge">
<title>Node19&#45;&gt;Node25</title>
<path fill="none" stroke="#63b8ff" d="M1517.0351,-109.9197C1523.9063,-102.2072 1533.7449,-91.1639 1542.0001,-81.8978"/>
<polygon fill="#63b8ff" stroke="#63b8ff" points="1544.6939,-84.1357 1548.7327,-74.3408 1539.4673,-79.4792 1544.6939,-84.1357"/>
</g>
<!-- Node26 -->
<g id="node26" class="node">
<title>Node26</title>
<g id="a_node26"><a xlink:href="../../db/d7c/utf8_8h.html" target="_top" xlink:title="Various UTF8 related helper functions.">
<polygon fill="#ffffff" stroke="#666666" points="1643,-74 1602,-74 1602,-55 1643,-55 1643,-74"/>
<text text-anchor="middle" x="1622.5" y="-62" font-family="Helvetica,sans-Serif" font-size="10.00" fill="#000000">utf8.h</text>
</a>
</g>
</g>
<!-- Node19&#45;&gt;Node26 -->
<g id="edge27" class="edge">
<title>Node19&#45;&gt;Node26</title>
<path fill="none" stroke="#63b8ff" d="M1528.3573,-109.9197C1546.3104,-101.2581 1572.9708,-88.3957 1593.3419,-78.5675"/>
<polygon fill="#63b8ff" stroke="#63b8ff" points="1595.002,-81.6527 1602.4878,-74.155 1591.9603,-75.3481 1595.002,-81.6527"/>
</g>
<!-- Node26&#45;&gt;Node17 -->
<g id="edge29" class="edge">
<title>Node26&#45;&gt;Node17</title>
<path fill="none" stroke="#63b8ff" d="M1601.9011,-55.7851C1580.5066,-46.7336 1546.8188,-32.481 1522.4756,-22.182"/>
<polygon fill="#63b8ff" stroke="#63b8ff" points="1523.576,-18.8472 1513.0025,-18.1741 1520.8484,-25.294 1523.576,-18.8472"/>
</g>
<!-- Node26&#45;&gt;Node24 -->
<g id="edge28" class="edge">
<title>Node26&#45;&gt;Node24</title>
<path fill="none" stroke="#63b8ff" d="M1631.0351,-54.9197C1637.9063,-47.2072 1647.7449,-36.1639 1656.0001,-26.8978"/>
<polygon fill="#63b8ff" stroke="#63b8ff" points="1658.6939,-29.1357 1662.7327,-19.3408 1653.4673,-24.4792 1658.6939,-29.1357"/>
</g>
<!-- Node27&#45;&gt;Node4 -->
<g id="edge31" class="edge">
<title>Node27&#45;&gt;Node4</title>
<path fill="none" stroke="#63b8ff" d="M919.0256,-276.4634C916.1488,-275.9269 913.2803,-275.43 910.5,-275 826.4552,-262.0031 597.9935,-289.4092 529.5,-239 501.7616,-218.5854 501.3788,-199.058 506.5,-165 507.833,-156.135 510.5498,-146.6138 513.2384,-138.584"/>
<polygon fill="#63b8ff" stroke="#63b8ff" points="516.5697,-139.6625 516.6378,-129.0679 509.9777,-137.3076 516.5697,-139.6625"/>
</g>
<!-- Node27&#45;&gt;Node16 -->
<g id="edge34" class="edge">
<title>Node27&#45;&gt;Node16</title>
<path fill="none" stroke="#63b8ff" d="M941.436,-274.9197C930.3195,-266.7677 914.1287,-254.8944 901.089,-245.3319"/>
<polygon fill="#63b8ff" stroke="#63b8ff" points="902.7998,-242.2463 892.6659,-239.155 898.6602,-247.8911 902.7998,-242.2463"/>
</g>
<!-- Node27&#45;&gt;Node17 -->
<g id="edge32" class="edge">
<title>Node27&#45;&gt;Node17</title>
<path fill="none" stroke="#63b8ff" d="M989.5508,-276.8646C992.5761,-276.2261 995.591,-275.597 998.5,-275 1142.9236,-245.36 1208.0853,-282.8186 1317.5,-184 1365.7529,-140.42 1338.5968,-98.9641 1386.5,-55 1407.8675,-35.3895 1438.9819,-23.4055 1461.9774,-16.6951"/>
<polygon fill="#63b8ff" stroke="#63b8ff" points="1463.1877,-19.9926 1471.9074,-13.9746 1461.338,-13.2414 1463.1877,-19.9926"/>
</g>
<!-- Node28 -->
<g id="node28" class="node">
<title>Node28</title>
<g id="a_node28"><a xlink:title=" ">
<polygon fill="#e0e0e0" stroke="#999999" points="439.5,-239 409.5,-239 409.5,-220 439.5,-220 439.5,-239"/>
<text text-anchor="middle" x="424.5" y="-227" font-family="Helvetica,sans-Serif" font-size="10.00" fill="#000000">set</text>
</a>
</g>
</g>
<!-- Node27&#45;&gt;Node28 -->
<g id="edge33" class="edge">
<title>Node27&#45;&gt;Node28</title>
<path fill="none" stroke="#63b8ff" d="M919.0296,-276.4372C916.1519,-275.9065 913.2821,-275.4181 910.5,-275 725.6675,-247.2209 677.2103,-260.1278 491.5,-239 477.6867,-237.4285 462.3275,-235.2799 449.8033,-233.4236"/>
<polygon fill="#63b8ff" stroke="#63b8ff" points="450.0473,-229.9209 439.6369,-231.8893 449.0027,-236.8425 450.0473,-229.9209"/>
</g>
<!-- Node29 -->
<g id="node29" class="node">
<title>Node29</title>
<g id="a_node29"><a xlink:title=" ">
<polygon fill="#e0e0e0" stroke="#999999" points="993.5,-239 915.5,-239 915.5,-220 993.5,-220 993.5,-239"/>
<text text-anchor="middle" x="954.5" y="-227" font-family="Helvetica,sans-Serif" font-size="10.00" fill="#000000">unordered_set</text>
</a>
</g>
</g>
<!-- Node27&#45;&gt;Node29 -->
<g id="edge35" class="edge">
<title>Node27&#45;&gt;Node29</title>
<path fill="none" stroke="#63b8ff" d="M954.5,-274.9197C954.5,-267.9083 954.5,-258.1442 954.5,-249.4652"/>
<polygon fill="#63b8ff" stroke="#63b8ff" points="958.0001,-249.3408 954.5,-239.3408 951.0001,-249.3409 958.0001,-249.3408"/>
</g>
<!-- Node30 -->
<g id="node30" class="node">
<title>Node30</title>
<g id="a_node30"><a xlink:title=" ">
<polygon fill="#e0e0e0" stroke="#999999" points="1175,-129 1092,-129 1092,-110 1175,-110 1175,-129"/>
<text text-anchor="middle" x="1133.5" y="-117" font-family="Helvetica,sans-Serif" font-size="10.00" fill="#000000">unordered_map</text>
</a>
</g>
</g>
<!-- Node27&#45;&gt;Node30 -->
<g id="edge36" class="edge">
<title>Node27&#45;&gt;Node30</title>
<path fill="none" stroke="#63b8ff" d="M964.8975,-274.9157C994.3099,-247.8037 1078.371,-170.3172 1115.4991,-136.093"/>
<polygon fill="#63b8ff" stroke="#63b8ff" points="1118.0932,-138.4619 1123.0738,-129.1107 1113.3488,-133.315 1118.0932,-138.4619"/>
</g>
<!-- Node31 -->
<g id="node31" class="node">
<title>Node31</title>
<g id="a_node31"><a xlink:title=" ">
<polygon fill="#e0e0e0" stroke="#999999" points="1454,-239 1413,-239 1413,-220 1454,-220 1454,-239"/>
<text text-anchor="middle" x="1433.5" y="-227" font-family="Helvetica,sans-Serif" font-size="10.00" fill="#000000">stack</text>
</a>
</g>
</g>
<!-- Node27&#45;&gt;Node31 -->
<g id="edge37" class="edge">
<title>Node27&#45;&gt;Node31</title>
<path fill="none" stroke="#63b8ff" d="M989.9717,-276.4463C992.8492,-275.9136 995.7185,-275.4222 998.5,-275 1173.9351,-248.3689 1224.4911,-273.5441 1403.0125,-238.6302"/>
<polygon fill="#63b8ff" stroke="#63b8ff" points="1403.8742,-242.0274 1412.9978,-236.6413 1402.5067,-235.1622 1403.8742,-242.0274"/>
</g>
<!-- Node32&#45;&gt;Node4 -->
<g id="edge39" class="edge">
<title>Node32&#45;&gt;Node4</title>
<path fill="none" stroke="#63b8ff" d="M1241.8145,-277.4285C1196.0268,-264.0412 1091.9868,-234.9965 1002.5,-220 829.9508,-191.0837 774.4425,-245.0919 610.5,-184 606.6126,-182.5514 567.036,-153.7217 541.6753,-135.101"/>
<polygon fill="#63b8ff" stroke="#63b8ff" points="543.5096,-132.1055 533.3795,-129.0019 539.3632,-137.7453 543.5096,-132.1055"/>
</g>
<!-- Node32&#45;&gt;Node15 -->
<g id="edge40" class="edge">
<title>Node32&#45;&gt;Node15</title>
<path fill="none" stroke="#63b8ff" d="M1254.9724,-274.8523C1239.9278,-261.3945 1211.0432,-236.7571 1183.5,-220 1116.2461,-179.0832 1029.338,-147.0313 981.339,-130.9219"/>
<polygon fill="#63b8ff" stroke="#63b8ff" points="982.3016,-127.5538 971.7082,-127.7289 980.0987,-134.1981 982.3016,-127.5538"/>
</g>
<!-- Node32&#45;&gt;Node18 -->
<g id="edge42" class="edge">
<title>Node32&#45;&gt;Node18</title>
<path fill="none" stroke="#63b8ff" d="M1283.7896,-274.9197C1300.1757,-266.3365 1324.4372,-253.6281 1343.1331,-243.8351"/>
<polygon fill="#63b8ff" stroke="#63b8ff" points="1344.8334,-246.8956 1352.0677,-239.155 1341.5853,-240.6947 1344.8334,-246.8956"/>
</g>
<!-- Node33 -->
<g id="node33" class="node">
<title>Node33</title>
<g id="a_node33"><a xlink:title=" ">
<polygon fill="#e0e0e0" stroke="#999999" points="1749.5,-184 1697.5,-184 1697.5,-165 1749.5,-165 1749.5,-184"/>
<text text-anchor="middle" x="1723.5" y="-172" font-family="Helvetica,sans-Serif" font-size="10.00" fill="#000000">sstream</text>
</a>
</g>
</g>
<!-- Node32&#45;&gt;Node33 -->
<g id="edge41" class="edge">
<title>Node32&#45;&gt;Node33</title>
<path fill="none" stroke="#63b8ff" d="M1289.1209,-282.1802C1354.1107,-275.643 1534.5267,-256.4116 1591.5,-239 1631.0388,-226.9166 1673.4282,-204.276 1699.2065,-189.2919"/>
<polygon fill="#63b8ff" stroke="#63b8ff" points="1701.0832,-192.2485 1707.9162,-184.1516 1697.5253,-186.2201 1701.0832,-192.2485"/>
</g>
<!-- Node34 -->
<g id="node34" class="node">
<title>Node34</title>
<g id="a_node34"><a xlink:href="../../df/d9b/arguments_8h.html" target="_top" xlink:title=" ">
<polygon fill="#ffffff" stroke="#666666" points="805,-239 734,-239 734,-220 805,-220 805,-239"/>
<text text-anchor="middle" x="769.5" y="-227" font-family="Helvetica,sans-Serif" font-size="10.00" fill="#000000">arguments.h</text>
</a>
</g>
</g>
<!-- Node32&#45;&gt;Node34 -->
<g id="edge43" class="edge">
<title>Node32&#45;&gt;Node34</title>
<path fill="none" stroke="#63b8ff" d="M1241.7513,-281.9192C1178.4717,-275.0349 1000.5285,-255.6255 852.5,-239 840.3389,-237.6341 827.1779,-236.1367 814.9971,-234.7427"/>
<polygon fill="#63b8ff" stroke="#63b8ff" points="815.3729,-231.2629 805.0394,-233.6012 814.5757,-238.2174 815.3729,-231.2629"/>
</g>
<!-- Node35 -->
<g id="node35" class="node">
<title>Node35</title>
<g id="a_node35"><a xlink:href="../../d1/d02/reflist_8h.html" target="_top" xlink:title=" ">
<polygon fill="#ffffff" stroke="#666666" points="1175,-239 1126,-239 1126,-220 1175,-220 1175,-239"/>
<text text-anchor="middle" x="1150.5" y="-227" font-family="Helvetica,sans-Serif" font-size="10.00" fill="#000000">reflist.h</text>
</a>
</g>
</g>
<!-- Node32&#45;&gt;Node35 -->
<g id="edge46" class="edge">
<title>Node32&#45;&gt;Node35</title>
<path fill="none" stroke="#63b8ff" d="M1245.4685,-274.9197C1227.3579,-266.2581 1200.4637,-253.3957 1179.9138,-243.5675"/>
<polygon fill="#63b8ff" stroke="#63b8ff" points="1181.2192,-240.3122 1170.6878,-239.155 1178.199,-246.6271 1181.2192,-240.3122"/>
</g>
<!-- Node37 -->
<g id="node37" class="node">
<title>Node37</title>
<g id="a_node37"><a xlink:href="../../d4/d7d/textstream_8h.html" target="_top" xlink:title=" ">
<polygon fill="#ffffff" stroke="#666666" points="1935,-239 1864,-239 1864,-220 1935,-220 1935,-239"/>
<text text-anchor="middle" x="1899.5" y="-227" font-family="Helvetica,sans-Serif" font-size="10.00" fill="#000000">textstream.h</text>
</a>
</g>
</g>
<!-- Node32&#45;&gt;Node37 -->
<g id="edge59" class="edge">
<title>Node32&#45;&gt;Node37</title>
<path fill="none" stroke="#63b8ff" d="M1289.3145,-282.4211C1311.3965,-280.4942 1345.1678,-277.5493 1374.5,-275 1551.7785,-259.5925 1762.7365,-241.332 1853.8589,-233.448"/>
<polygon fill="#63b8ff" stroke="#63b8ff" points="1854.1906,-236.9325 1863.8516,-232.5835 1853.5871,-229.9586 1854.1906,-236.9325"/>
</g>
<!-- Node34&#45;&gt;Node4 -->
<g id="edge44" class="edge">
<title>Node34&#45;&gt;Node4</title>
<path fill="none" stroke="#63b8ff" d="M733.8853,-226.7974C694.5471,-222.508 630.4356,-211.5683 582.5,-184 562.2065,-172.329 544.3179,-152.0434 533.0366,-137.3323"/>
<polygon fill="#63b8ff" stroke="#63b8ff" points="535.6572,-134.9888 526.9038,-129.0198 530.0243,-139.1447 535.6572,-134.9888"/>
</g>
<!-- Node34&#45;&gt;Node19 -->
<g id="edge45" class="edge">
<title>Node34&#45;&gt;Node19</title>
<path fill="none" stroke="#63b8ff" d="M805.0054,-225.0645C819.6902,-223.3268 836.8999,-221.4149 852.5,-220 1090.7246,-198.3935 1159.7337,-250.5223 1389.5,-184 1394.4776,-182.5589 1449.1059,-152.474 1482.5909,-133.9076"/>
<polygon fill="#63b8ff" stroke="#63b8ff" points="1484.3707,-136.9228 1491.4158,-129.0097 1480.9737,-130.8022 1484.3707,-136.9228"/>
</g>
<!-- Node35&#45;&gt;Node4 -->
<g id="edge47" class="edge">
<title>Node35&#45;&gt;Node4</title>
<path fill="none" stroke="#63b8ff" d="M1125.817,-227.361C1027.0442,-218.7864 665.0298,-187.2086 653.5,-184 642.6349,-180.9764 583.9775,-151.6913 548.2874,-133.6372"/>
<polygon fill="#63b8ff" stroke="#63b8ff" points="549.8223,-130.4913 539.3202,-129.0929 546.6581,-136.7353 549.8223,-130.4913"/>
</g>
<!-- Node35&#45;&gt;Node15 -->
<g id="edge49" class="edge">
<title>Node35&#45;&gt;Node15</title>
<path fill="none" stroke="#63b8ff" d="M1132.6662,-219.9306C1096.622,-200.5899 1014.9227,-156.7512 972.382,-133.9245"/>
<polygon fill="#63b8ff" stroke="#63b8ff" points="973.905,-130.7697 963.4385,-129.1256 970.5953,-136.9379 973.905,-130.7697"/>
</g>
<!-- Node35&#45;&gt;Node19 -->
<g id="edge50" class="edge">
<title>Node35&#45;&gt;Node19</title>
<path fill="none" stroke="#63b8ff" d="M1175.3883,-227.0368C1234.6011,-220.918 1382.2859,-204.0636 1427.5,-184 1452.9658,-172.6996 1477.2852,-151.4415 1492.5126,-136.4244"/>
<polygon fill="#63b8ff" stroke="#63b8ff" points="1495.0796,-138.806 1499.6047,-129.2261 1490.0931,-133.8931 1495.0796,-138.806"/>
</g>
<!-- Node35&#45;&gt;Node30 -->
<g id="edge48" class="edge">
<title>Node35&#45;&gt;Node30</title>
<path fill="none" stroke="#63b8ff" d="M1148.9914,-219.7382C1146.1994,-201.6724 1140.1784,-162.713 1136.5194,-139.0376"/>
<polygon fill="#63b8ff" stroke="#63b8ff" points="1139.9673,-138.4309 1134.981,-129.0828 1133.0495,-139.5001 1139.9673,-138.4309"/>
</g>
<!-- Node36 -->
<g id="node36" class="node">
<title>Node36</title>
<g id="a_node36"><a xlink:href="../../da/de1/linkedmap_8h.html" target="_top" xlink:title=" ">
<polygon fill="#ffffff" stroke="#666666" points="1309,-184 1240,-184 1240,-165 1309,-165 1309,-184"/>
<text text-anchor="middle" x="1274.5" y="-172" font-family="Helvetica,sans-Serif" font-size="10.00" fill="#000000">linkedmap.h</text>
</a>
</g>
</g>
<!-- Node35&#45;&gt;Node36 -->
<g id="edge51" class="edge">
<title>Node35&#45;&gt;Node36</title>
<path fill="none" stroke="#63b8ff" d="M1172.0992,-219.9197C1191.8038,-211.1798 1221.1517,-198.1625 1243.3841,-188.3014"/>
<polygon fill="#63b8ff" stroke="#63b8ff" points="1245.0103,-191.409 1252.7323,-184.155 1242.172,-185.0102 1245.0103,-191.409"/>
</g>
<!-- Node36&#45;&gt;Node3 -->
<g id="edge56" class="edge">
<title>Node36&#45;&gt;Node3</title>
<path fill="none" stroke="#63b8ff" d="M1264.9501,-164.8134C1249.4638,-149.8385 1217.1943,-121.587 1183.5,-110 1092.1777,-78.5955 400.8124,-67.3091 229.7105,-64.9815"/>
<polygon fill="#63b8ff" stroke="#63b8ff" points="229.7038,-61.4812 219.6578,-64.847 229.61,-68.4806 229.7038,-61.4812"/>
</g>
<!-- Node36&#45;&gt;Node4 -->
<g id="edge53" class="edge">
<title>Node36&#45;&gt;Node4</title>
<path fill="none" stroke="#63b8ff" d="M1239.8945,-171.9757C1113.2943,-162.741 676.3065,-130.8652 553.08,-121.8765"/>
<polygon fill="#63b8ff" stroke="#63b8ff" points="553.0254,-118.3633 542.7972,-121.1265 552.516,-125.3448 553.0254,-118.3633"/>
</g>
<!-- Node36&#45;&gt;Node15 -->
<g id="edge54" class="edge">
<title>Node36&#45;&gt;Node15</title>
<path fill="none" stroke="#63b8ff" d="M1239.9131,-168.718C1177.245,-158.2416 1045.5138,-136.2196 981.6892,-125.5499"/>
<polygon fill="#63b8ff" stroke="#63b8ff" points="982.1251,-122.0742 971.6848,-123.8774 980.9708,-128.9784 982.1251,-122.0742"/>
</g>
<!-- Node36&#45;&gt;Node17 -->
<g id="edge55" class="edge">
<title>Node36&#45;&gt;Node17</title>
<path fill="none" stroke="#63b8ff" d="M1268.3962,-164.8344C1255.2519,-142.6688 1227.5559,-87.5831 1254.5,-55 1280.4948,-23.5648 1403.685,-13.6455 1461.8948,-10.6834"/>
<polygon fill="#63b8ff" stroke="#63b8ff" points="1462.1458,-14.1756 1471.9696,-10.2077 1461.8156,-7.1834 1462.1458,-14.1756"/>
</g>
<!-- Node36&#45;&gt;Node19 -->
<g id="edge58" class="edge">
<title>Node36&#45;&gt;Node19</title>
<path fill="none" stroke="#63b8ff" d="M1309.0275,-166.3846C1351.6052,-156.377 1423.8308,-139.4009 1468.6994,-128.8548"/>
<polygon fill="#63b8ff" stroke="#63b8ff" points="1469.7257,-132.2091 1478.6595,-126.5138 1468.124,-125.3948 1469.7257,-132.2091"/>
</g>
<!-- Node36&#45;&gt;Node20 -->
<g id="edge57" class="edge">
<title>Node36&#45;&gt;Node20</title>
<path fill="none" stroke="#63b8ff" d="M1275.5649,-164.7382C1277.5357,-146.6724 1281.7859,-107.713 1284.3686,-84.0376"/>
<polygon fill="#63b8ff" stroke="#63b8ff" points="1287.8494,-84.4034 1285.4546,-74.0828 1280.8907,-83.6443 1287.8494,-84.4034"/>
</g>
<!-- Node36&#45;&gt;Node30 -->
<g id="edge52" class="edge">
<title>Node36&#45;&gt;Node30</title>
<path fill="none" stroke="#63b8ff" d="M1249.9397,-164.9197C1227.2321,-156.0622 1193.2623,-142.8115 1167.8659,-132.9052"/>
<polygon fill="#63b8ff" stroke="#63b8ff" points="1168.8402,-129.5284 1158.252,-129.155 1166.2964,-136.0498 1168.8402,-129.5284"/>
</g>
<!-- Node37&#45;&gt;Node17 -->
<g id="edge60" class="edge">
<title>Node37&#45;&gt;Node17</title>
<path fill="none" stroke="#63b8ff" d="M1935.0942,-225.4424C1961.0642,-220.4122 1994.5652,-209.1587 2011.5,-184 2047.9247,-129.8867 2000.0305,-83.7957 1941.5,-55 1904.099,-36.5995 1618.6318,-17.3506 1523.3491,-11.3779"/>
<polygon fill="#63b8ff" stroke="#63b8ff" points="1523.4031,-7.8746 1513.2051,-10.7473 1522.9687,-14.8611 1523.4031,-7.8746"/>
</g>
<!-- Node37&#45;&gt;Node19 -->
<g id="edge67" class="edge">
<title>Node37&#45;&gt;Node19</title>
<path fill="none" stroke="#63b8ff" d="M1927.3726,-219.9952C1957.4999,-208.2922 1998.6731,-187.2204 1978.5,-165 1949.8027,-133.3904 1656.6001,-123.0961 1548.3624,-120.3578"/>
<polygon fill="#63b8ff" stroke="#63b8ff" points="1548.264,-116.8544 1538.1814,-120.1088 1548.0929,-123.8523 1548.264,-116.8544"/>
</g>
<!-- Node37&#45;&gt;Node22 -->
<g id="edge64" class="edge">
<title>Node37&#45;&gt;Node22</title>
<path fill="none" stroke="#63b8ff" d="M1935.2414,-222.3351C1956.4026,-216.0572 1981.538,-204.5801 1994.5,-184 2018.7127,-145.5569 1967.896,-102.3946 1935.207,-79.9463"/>
<polygon fill="#63b8ff" stroke="#63b8ff" points="1936.8099,-76.809 1926.5451,-74.1851 1932.9332,-82.6375 1936.8099,-76.809"/>
</g>
<!-- Node37&#45;&gt;Node24 -->
<g id="edge63" class="edge">
<title>Node37&#45;&gt;Node24</title>
<path fill="none" stroke="#63b8ff" d="M1935.1208,-226.6075C1991.4441,-221.3477 2097.5532,-208.4335 2125.5,-184 2170.4968,-144.66 2203.7702,-99.1662 2163.5,-55 2132.6279,-21.1411 1810.568,-12.106 1704.8863,-10.0436"/>
<polygon fill="#63b8ff" stroke="#63b8ff" points="1704.8477,-6.5423 1694.7841,-9.855 1704.717,-13.5411 1704.8477,-6.5423"/>
</g>
<!-- Node37&#45;&gt;Node33 -->
<g id="edge62" class="edge">
<title>Node37&#45;&gt;Node33</title>
<path fill="none" stroke="#63b8ff" d="M1868.8431,-219.9197C1838.3611,-210.3941 1791.6206,-195.7877 1759.4168,-185.724"/>
<polygon fill="#63b8ff" stroke="#63b8ff" points="1760.0996,-182.2705 1749.5108,-182.6284 1758.0116,-188.9519 1760.0996,-182.2705"/>
</g>
<!-- Node38 -->
<g id="node38" class="node">
<title>Node38</title>
<g id="a_node38"><a xlink:title=" ">
<polygon fill="#e0e0e0" stroke="#999999" points="1821.5,-184 1767.5,-184 1767.5,-165 1821.5,-165 1821.5,-184"/>
<text text-anchor="middle" x="1794.5" y="-172" font-family="Helvetica,sans-Serif" font-size="10.00" fill="#000000">iostream</text>
</a>
</g>
</g>
<!-- Node37&#45;&gt;Node38 -->
<g id="edge61" class="edge">
<title>Node37&#45;&gt;Node38</title>
<path fill="none" stroke="#63b8ff" d="M1881.2104,-219.9197C1864.8243,-211.3365 1840.5628,-198.6281 1821.8669,-188.8351"/>
<polygon fill="#63b8ff" stroke="#63b8ff" points="1823.4147,-185.6947 1812.9323,-184.155 1820.1666,-191.8956 1823.4147,-185.6947"/>
</g>
<!-- Node39 -->
<g id="node39" class="node">
<title>Node39</title>
<g id="a_node39"><a xlink:title=" ">
<polygon fill="#e0e0e0" stroke="#999999" points="1889.5,-184 1839.5,-184 1839.5,-165 1889.5,-165 1889.5,-184"/>
<text text-anchor="middle" x="1864.5" y="-172" font-family="Helvetica,sans-Serif" font-size="10.00" fill="#000000">fstream</text>
</a>
</g>
</g>
<!-- Node37&#45;&gt;Node39 -->
<g id="edge65" class="edge">
<title>Node37&#45;&gt;Node39</title>
<path fill="none" stroke="#63b8ff" d="M1893.4035,-219.9197C1888.6938,-212.5188 1882.0324,-202.0509 1876.2914,-193.0294"/>
<polygon fill="#63b8ff" stroke="#63b8ff" points="1879.084,-190.8984 1870.7623,-184.3408 1873.1783,-194.6565 1879.084,-190.8984"/>
</g>
<!-- Node40 -->
<g id="node40" class="node">
<title>Node40</title>
<g id="a_node40"><a xlink:title=" ">
<polygon fill="#e0e0e0" stroke="#999999" points="1969.5,-184 1907.5,-184 1907.5,-165 1969.5,-165 1969.5,-184"/>
<text text-anchor="middle" x="1938.5" y="-172" font-family="Helvetica,sans-Serif" font-size="10.00" fill="#000000">type_traits</text>
</a>
</g>
</g>
<!-- Node37&#45;&gt;Node40 -->
<g id="edge66" class="edge">
<title>Node37&#45;&gt;Node40</title>
<path fill="none" stroke="#63b8ff" d="M1906.2933,-219.9197C1911.5965,-212.4409 1919.1204,-201.8301 1925.5627,-192.745"/>
<polygon fill="#63b8ff" stroke="#63b8ff" points="1928.5927,-194.5227 1931.522,-184.3408 1922.8826,-190.4737 1928.5927,-194.5227"/>
</g>
<!-- Node41&#45;&gt;Node19 -->
<g id="edge70" class="edge">
<title>Node41&#45;&gt;Node19</title>
<path fill="none" stroke="#63b8ff" d="M1814.6675,-604.9142C1880.6147,-582.8202 2035.5,-528.387 2035.5,-504.5 2035.5,-504.5 2035.5,-504.5 2035.5,-229.5 2035.5,-195.532 2023.477,-182.7245 1994.5,-165 1956.8076,-141.9446 1657.9779,-126.2565 1548.5076,-121.2335"/>
<polygon fill="#63b8ff" stroke="#63b8ff" points="1548.3663,-117.7236 1538.2181,-120.7673 1548.0494,-124.7164 1548.3663,-117.7236"/>
</g>
<!-- Node42 -->
<g id="node42" class="node">
<title>Node42</title>
<g id="a_node42"><a xlink:title=" ">
<polygon fill="#e0e0e0" stroke="#999999" points="1810,-569 1761,-569 1761,-550 1810,-550 1810,-569"/>
<text text-anchor="middle" x="1785.5" y="-557" font-family="Helvetica,sans-Serif" font-size="10.00" fill="#000000">cstdarg</text>
</a>
</g>
</g>
<!-- Node41&#45;&gt;Node42 -->
<g id="edge69" class="edge">
<title>Node41&#45;&gt;Node42</title>
<path fill="none" stroke="#63b8ff" d="M1785.5,-604.9197C1785.5,-597.9083 1785.5,-588.1442 1785.5,-579.4652"/>
<polygon fill="#63b8ff" stroke="#63b8ff" points="1789.0001,-579.3408 1785.5,-569.3408 1782.0001,-579.3409 1789.0001,-579.3408"/>
</g>
<!-- Node43&#45;&gt;Node3 -->
<g id="edge74" class="edge">
<title>Node43&#45;&gt;Node3</title>
<path fill="none" stroke="#63b8ff" d="M1233.1994,-614.0876C1108.2778,-611.348 416.4527,-595.081 326.5,-569 222.9899,-538.9881 115.5,-557.2732 115.5,-449.5 115.5,-449.5 115.5,-449.5 115.5,-174.5 115.5,-135.4277 148.3584,-100.1797 170.8644,-80.6196"/>
<polygon fill="#63b8ff" stroke="#63b8ff" points="173.1812,-83.2447 178.6076,-74.145 168.6909,-77.8746 173.1812,-83.2447"/>
</g>
<!-- Node43&#45;&gt;Node9 -->
<g id="edge78" class="edge">
<title>Node43&#45;&gt;Node9</title>
<path fill="none" stroke="#63b8ff" d="M1271.8101,-612.2253C1320.0578,-606.4085 1449.6711,-589.9613 1556.5,-569 1557.9532,-568.7149 1559.4338,-568.4116 1560.9273,-568.0952"/>
<polygon fill="#63b8ff" stroke="#63b8ff" points="1561.8296,-571.4798 1570.8168,-565.869 1560.2923,-564.6507 1561.8296,-571.4798"/>
</g>
<!-- Node43&#45;&gt;Node14 -->
<g id="edge75" class="edge">
<title>Node43&#45;&gt;Node14</title>
<path fill="none" stroke="#63b8ff" d="M1271.5143,-608.6318C1290.1469,-601.9348 1318.0709,-589.2151 1334.5,-569 1353.4291,-545.7088 1354.5,-534.5132 1354.5,-504.5 1354.5,-504.5 1354.5,-504.5 1354.5,-394.5 1354.5,-364.6154 1359.0726,-356.1713 1373.5,-330 1379.2124,-319.6377 1387.6289,-309.596 1395.2697,-301.5942"/>
<polygon fill="#63b8ff" stroke="#63b8ff" points="1397.9299,-303.8836 1402.523,-294.3361 1392.9785,-298.9355 1397.9299,-303.8836"/>
</g>
<!-- Node43&#45;&gt;Node15 -->
<g id="edge72" class="edge">
<title>Node43&#45;&gt;Node15</title>
<path fill="none" stroke="#63b8ff" d="M1233.2421,-613.9243C1111.8327,-610.0477 457.5,-585.4018 457.5,-504.5 457.5,-504.5 457.5,-504.5 457.5,-394.5 457.5,-258.2691 585.6943,-276.8421 709.5,-220 767.1047,-193.5523 789.5878,-209.7674 847.5,-184 876.7094,-171.0036 906.9414,-149.6969 925.9614,-135.1561"/>
<polygon fill="#63b8ff" stroke="#63b8ff" points="928.1237,-137.9083 933.8674,-129.0055 923.8255,-132.3833 928.1237,-137.9083"/>
</g>
<!-- Node43&#45;&gt;Node18 -->
<g id="edge79" class="edge">
<title>Node43&#45;&gt;Node18</title>
<path fill="none" stroke="#63b8ff" d="M1271.6051,-608.7708C1293.2857,-601.6805 1329.0624,-588.1538 1355.5,-569 1408.7636,-530.4109 1428.5406,-519.4337 1454.5,-459 1486.8566,-383.6738 1511.4702,-344.1925 1467.5,-275 1460.2339,-263.566 1429.8318,-250.4127 1404.9749,-241.1986"/>
<polygon fill="#63b8ff" stroke="#63b8ff" points="1406.0307,-237.8587 1395.4364,-237.7508 1403.6511,-244.4418 1406.0307,-237.8587"/>
</g>
<!-- Node43&#45;&gt;Node27 -->
<g id="edge88" class="edge">
<title>Node43&#45;&gt;Node27</title>
<path fill="none" stroke="#63b8ff" d="M1233.1893,-612.6783C1184.1193,-606.8833 1058.5,-584.2591 1058.5,-504.5 1058.5,-504.5 1058.5,-504.5 1058.5,-449.5 1058.5,-386.9783 1004.3987,-328.8106 974.2374,-301.2404"/>
<polygon fill="#63b8ff" stroke="#63b8ff" points="976.2286,-298.3273 966.4301,-294.2973 971.5768,-303.5581 976.2286,-298.3273"/>
</g>
<!-- Node43&#45;&gt;Node30 -->
<g id="edge73" class="edge">
<title>Node43&#45;&gt;Node30</title>
<path fill="none" stroke="#63b8ff" d="M1233.3199,-607.633C1217.0501,-600.6664 1194.7661,-588.1554 1184.5,-569 1111.2293,-432.2848 1218.8026,-371.041 1183.5,-220 1176.296,-189.1779 1158.1063,-157.0114 1145.7708,-137.6135"/>
<polygon fill="#63b8ff" stroke="#63b8ff" points="1148.6592,-135.6353 1140.2592,-129.1784 1142.7992,-139.4643 1148.6592,-135.6353"/>
</g>
<!-- Node43&#45;&gt;Node39 -->
<g id="edge76" class="edge">
<title>Node43&#45;&gt;Node39</title>
<path fill="none" stroke="#63b8ff" d="M1271.7824,-612.611C1323.3559,-607.3085 1463.2774,-591.2103 1503.5,-569 1679.3628,-471.8912 1815.8528,-257.0812 1853.8785,-192.9349"/>
<polygon fill="#63b8ff" stroke="#63b8ff" points="1856.912,-194.6809 1858.9481,-184.2835 1850.8725,-191.1418 1856.912,-194.6809"/>
</g>
<!-- Node44 -->
<g id="node44" class="node">
<title>Node44</title>
<g id="a_node44"><a xlink:title=" ">
<polygon fill="#e0e0e0" stroke="#999999" points="1235,-569 1194,-569 1194,-550 1235,-550 1235,-569"/>
<text text-anchor="middle" x="1214.5" y="-557" font-family="Helvetica,sans-Serif" font-size="10.00" fill="#000000">ctime</text>
</a>
</g>
</g>
<!-- Node43&#45;&gt;Node44 -->
<g id="edge77" class="edge">
<title>Node43&#45;&gt;Node44</title>
<path fill="none" stroke="#63b8ff" d="M1245.8809,-604.9197C1240.7137,-597.4409 1233.3826,-586.8301 1227.1056,-577.745"/>
<polygon fill="#63b8ff" stroke="#63b8ff" points="1229.863,-575.5786 1221.2991,-569.3408 1224.1039,-579.5577 1229.863,-575.5786"/>
</g>
<!-- Node45 -->
<g id="node45" class="node">
<title>Node45</title>
<g id="a_node45"><a xlink:href="../../de/d9c/docparser_8h.html" target="_top" xlink:title=" ">
<polygon fill="#ffffff" stroke="#666666" points="639.5,-239 571.5,-239 571.5,-220 639.5,-220 639.5,-239"/>
<text text-anchor="middle" x="605.5" y="-227" font-family="Helvetica,sans-Serif" font-size="10.00" fill="#000000">docparser.h</text>
</a>
</g>
</g>
<!-- Node43&#45;&gt;Node45 -->
<g id="edge80" class="edge">
<title>Node43&#45;&gt;Node45</title>
<path fill="none" stroke="#63b8ff" d="M1233.4457,-614.0119C1118.5879,-610.9922 520.8374,-594.1591 443.5,-569 393.2069,-552.6388 343.5,-557.3875 343.5,-504.5 343.5,-504.5 343.5,-504.5 343.5,-449.5 343.5,-335.4784 490.83,-268.7509 564.5288,-242.5047"/>
<polygon fill="#63b8ff" stroke="#63b8ff" points="566.119,-245.6575 574.4163,-239.0692 563.8215,-239.0453 566.119,-245.6575"/>
</g>
<!-- Node48 -->
<g id="node48" class="node">
<title>Node48</title>
<g id="a_node48"><a xlink:href="../../df/d06/outputgen_8h.html" target="_top" xlink:title=" ">
<polygon fill="#ffffff" stroke="#666666" points="1605.5,-294 1537.5,-294 1537.5,-275 1605.5,-275 1605.5,-294"/>
<text text-anchor="middle" x="1571.5" y="-282" font-family="Helvetica,sans-Serif" font-size="10.00" fill="#000000">outputgen.h</text>
</a>
</g>
</g>
<!-- Node43&#45;&gt;Node48 -->
<g id="edge89" class="edge">
<title>Node43&#45;&gt;Node48</title>
<path fill="none" stroke="#63b8ff" d="M1271.6468,-613.1406C1320.7535,-609.2814 1449.4945,-596.697 1480.5,-569 1560.3197,-497.6976 1570.5842,-356.4458 1571.5649,-304.378"/>
<polygon fill="#63b8ff" stroke="#63b8ff" points="1575.0665,-304.1938 1571.6542,-294.1635 1568.0668,-304.1325 1575.0665,-304.1938"/>
</g>
<!-- Node51 -->
<g id="node51" class="node">
<title>Node51</title>
<g id="a_node51"><a xlink:href="../../d1/d21/regex_8h.html" target="_top" xlink:title=" ">
<polygon fill="#ffffff" stroke="#666666" points="712,-184 663,-184 663,-165 712,-165 712,-184"/>
<text text-anchor="middle" x="687.5" y="-172" font-family="Helvetica,sans-Serif" font-size="10.00" fill="#000000">regex.h</text>
</a>
</g>
</g>
<!-- Node43&#45;&gt;Node51 -->
<g id="edge104" class="edge">
<title>Node43&#45;&gt;Node51</title>
<path fill="none" stroke="#63b8ff" d="M1233.2622,-614.3189C1111.7301,-613.0679 452.9578,-604.671 371.5,-569 333.9295,-552.5476 305.5,-545.5149 305.5,-504.5 305.5,-504.5 305.5,-504.5 305.5,-284.5 305.5,-212.6475 558.2258,-184.9072 652.5535,-177.0558"/>
<polygon fill="#63b8ff" stroke="#63b8ff" points="653.0439,-180.5277 662.7302,-176.2353 652.4813,-173.5504 653.0439,-180.5277"/>
</g>
<!-- Node52 -->
<g id="node52" class="node">
<title>Node52</title>
<g id="a_node52"><a xlink:href="../../da/df1/conceptdef_8h.html" target="_top" xlink:title=" ">
<polygon fill="#ffffff" stroke="#666666" points="1326,-569 1253,-569 1253,-550 1326,-550 1326,-569"/>
<text text-anchor="middle" x="1289.5" y="-557" font-family="Helvetica,sans-Serif" font-size="10.00" fill="#000000">conceptdef.h</text>
</a>
</g>
</g>
<!-- Node43&#45;&gt;Node52 -->
<g id="edge109" class="edge">
<title>Node43&#45;&gt;Node52</title>
<path fill="none" stroke="#63b8ff" d="M1258.9449,-604.9197C1263.9761,-597.4409 1271.1143,-586.8301 1277.2261,-577.745"/>
<polygon fill="#63b8ff" stroke="#63b8ff" points="1280.202,-579.5917 1282.8798,-569.3408 1274.394,-575.6844 1280.202,-579.5917"/>
</g>
<!-- Node45&#45;&gt;Node6 -->
<g id="edge81" class="edge">
<title>Node45&#45;&gt;Node6</title>
<path fill="none" stroke="#63b8ff" d="M575.1915,-219.9197C544.1773,-210.1164 496.1384,-194.9317 464.2614,-184.8556"/>
<polygon fill="#63b8ff" stroke="#63b8ff" points="465.1116,-181.4537 454.5217,-181.777 463.0018,-188.1282 465.1116,-181.4537"/>
</g>
<!-- Node45&#45;&gt;Node15 -->
<g id="edge82" class="edge">
<title>Node45&#45;&gt;Node15</title>
<path fill="none" stroke="#63b8ff" d="M639.6733,-222.4033C693.9518,-211.0636 795.4045,-189.5671 811.5,-184 832.3756,-176.7796 885.2098,-150.3958 917.9544,-133.6918"/>
<polygon fill="#63b8ff" stroke="#63b8ff" points="919.7062,-136.7271 927.0139,-129.0558 916.5173,-130.4956 919.7062,-136.7271"/>
</g>
<!-- Node45&#45;&gt;Node19 -->
<g id="edge83" class="edge">
<title>Node45&#45;&gt;Node19</title>
<path fill="none" stroke="#63b8ff" d="M639.5983,-226.6047C663.3837,-224.6275 695.8658,-222.0119 724.5,-220 987.8914,-201.4931 1058.3694,-234.6837 1317.5,-184 1347.8205,-178.0696 1427.1592,-149.643 1473.4869,-132.5689"/>
<polygon fill="#63b8ff" stroke="#63b8ff" points="1474.9537,-135.7582 1483.1192,-129.0072 1472.526,-129.1927 1474.9537,-135.7582"/>
</g>
<!-- Node46 -->
<g id="node46" class="node">
<title>Node46</title>
<g id="a_node46"><a xlink:href="../../d7/d50/growvector_8h.html" target="_top" xlink:title=" ">
<polygon fill="#ffffff" stroke="#666666" points="803,-184 730,-184 730,-165 803,-165 803,-184"/>
<text text-anchor="middle" x="766.5" y="-172" font-family="Helvetica,sans-Serif" font-size="10.00" fill="#000000">growvector.h</text>
</a>
</g>
</g>
<!-- Node45&#45;&gt;Node46 -->
<g id="edge84" class="edge">
<title>Node45&#45;&gt;Node46</title>
<path fill="none" stroke="#63b8ff" d="M633.5441,-219.9197C659.8973,-210.9171 699.5352,-197.3762 728.6767,-187.421"/>
<polygon fill="#63b8ff" stroke="#63b8ff" points="730.1761,-190.6075 738.5077,-184.0626 727.9131,-183.9833 730.1761,-190.6075"/>
</g>
<!-- Node46&#45;&gt;Node4 -->
<g id="edge85" class="edge">
<title>Node46&#45;&gt;Node4</title>
<path fill="none" stroke="#63b8ff" d="M729.9369,-166.3253C681.8826,-155.5815 598.2362,-136.88 552.5445,-126.6644"/>
<polygon fill="#63b8ff" stroke="#63b8ff" points="553.1155,-123.2057 542.5927,-124.4394 551.5881,-130.0371 553.1155,-123.2057"/>
</g>
<!-- Node46&#45;&gt;Node15 -->
<g id="edge86" class="edge">
<title>Node46&#45;&gt;Node15</title>
<path fill="none" stroke="#63b8ff" d="M797.6794,-164.9197C828.906,-155.325 876.9091,-140.5754 909.6817,-130.5056"/>
<polygon fill="#63b8ff" stroke="#63b8ff" points="910.7972,-133.8244 919.3281,-127.5416 908.7412,-127.1332 910.7972,-133.8244"/>
</g>
<!-- Node47 -->
<g id="node47" class="node">
<title>Node47</title>
<g id="a_node47"><a xlink:title=" ">
<polygon fill="#e0e0e0" stroke="#999999" points="783,-129 736,-129 736,-110 783,-110 783,-129"/>
<text text-anchor="middle" x="759.5" y="-117" font-family="Helvetica,sans-Serif" font-size="10.00" fill="#000000">iterator</text>
</a>
</g>
</g>
<!-- Node46&#45;&gt;Node47 -->
<g id="edge87" class="edge">
<title>Node46&#45;&gt;Node47</title>
<path fill="none" stroke="#63b8ff" d="M765.2807,-164.9197C764.3883,-157.9083 763.1456,-148.1442 762.041,-139.4652"/>
<polygon fill="#63b8ff" stroke="#63b8ff" points="765.4871,-138.8189 760.7525,-129.3408 758.5431,-139.7027 765.4871,-138.8189"/>
</g>
<!-- Node48&#45;&gt;Node15 -->
<g id="edge90" class="edge">
<title>Node48&#45;&gt;Node15</title>
<path fill="none" stroke="#63b8ff" d="M1558.8857,-274.832C1539.3717,-260.4061 1500.1727,-233.5018 1462.5,-220 1364.2729,-184.7957 1333.0016,-203.5277 1230.5,-184 1140.3775,-166.8306 1035.3593,-141.7312 981.4651,-128.4738"/>
<polygon fill="#63b8ff" stroke="#63b8ff" points="982.247,-125.0618 971.6996,-126.0634 980.5695,-131.8578 982.247,-125.0618"/>
</g>
<!-- Node48&#45;&gt;Node18 -->
<g id="edge94" class="edge">
<title>Node48&#45;&gt;Node18</title>
<path fill="none" stroke="#63b8ff" d="M1537.3498,-275.4205C1505.4316,-266.8969 1456.193,-253.6529 1405.226,-239.4563"/>
<polygon fill="#63b8ff" stroke="#63b8ff" points="1405.9271,-236.0183 1395.3543,-236.7006 1404.0449,-242.7605 1405.9271,-236.0183"/>
</g>
<!-- Node48&#45;&gt;Node31 -->
<g id="edge91" class="edge">
<title>Node48&#45;&gt;Node31</title>
<path fill="none" stroke="#63b8ff" d="M1547.4622,-274.9197C1524.1471,-265.6275 1488.7007,-251.5003 1463.5379,-241.4716"/>
<polygon fill="#63b8ff" stroke="#63b8ff" points="1464.6986,-238.1665 1454.1134,-237.7155 1462.107,-244.6691 1464.6986,-238.1665"/>
</g>
<!-- Node48&#45;&gt;Node37 -->
<g id="edge102" class="edge">
<title>Node48&#45;&gt;Node37</title>
<path fill="none" stroke="#63b8ff" d="M1605.6735,-278.7697C1665.0134,-268.8194 1787.1235,-248.3436 1853.7213,-237.1763"/>
<polygon fill="#63b8ff" stroke="#63b8ff" points="1854.6316,-240.5726 1863.9151,-235.467 1853.474,-233.669 1854.6316,-240.5726"/>
</g>
<!-- Node48&#45;&gt;Node38 -->
<g id="edge92" class="edge">
<title>Node48&#45;&gt;Node38</title>
<path fill="none" stroke="#63b8ff" d="M1590.8997,-274.9306C1630.2735,-255.5086 1719.7293,-211.3824 1765.8387,-188.6379"/>
<polygon fill="#63b8ff" stroke="#63b8ff" points="1767.5664,-191.6883 1774.9864,-184.1256 1764.4697,-185.4105 1767.5664,-191.6883"/>
</g>
<!-- Node48&#45;&gt;Node39 -->
<g id="edge93" class="edge">
<title>Node48&#45;&gt;Node39</title>
<path fill="none" stroke="#63b8ff" d="M1598.5998,-274.9085C1624.159,-265.8163 1663.5129,-251.6982 1697.5,-239 1743.8731,-221.6742 1797.1881,-200.9396 1830.8555,-187.7448"/>
<polygon fill="#63b8ff" stroke="#63b8ff" points="1832.1951,-190.9791 1840.2258,-184.0683 1829.6383,-184.4627 1832.1951,-190.9791"/>
</g>
<!-- Node48&#45;&gt;Node45 -->
<g id="edge103" class="edge">
<title>Node48&#45;&gt;Node45</title>
<path fill="none" stroke="#63b8ff" d="M1537.3808,-281.5294C1513.3756,-279.5053 1480.489,-276.8648 1451.5,-275 1128.6603,-254.2322 1047.3328,-259.8745 724.5,-239 699.7714,-237.401 672.1837,-235.2234 649.8018,-233.3564"/>
<polygon fill="#63b8ff" stroke="#63b8ff" points="649.8501,-229.8481 639.5915,-232.4963 649.2624,-236.8234 649.8501,-229.8481"/>
</g>
<!-- Node49 -->
<g id="node49" class="node">
<title>Node49</title>
<g id="a_node49"><a xlink:href="../../d1/db5/index_8h.html" target="_top" xlink:title=" ">
<polygon fill="#ffffff" stroke="#666666" points="1679.5,-184 1631.5,-184 1631.5,-165 1679.5,-165 1679.5,-184"/>
<text text-anchor="middle" x="1655.5" y="-172" font-family="Helvetica,sans-Serif" font-size="10.00" fill="#000000">index.h</text>
</a>
</g>
</g>
<!-- Node48&#45;&gt;Node49 -->
<g id="edge95" class="edge">
<title>Node48&#45;&gt;Node49</title>
<path fill="none" stroke="#63b8ff" d="M1578.9544,-274.7382C1593.1247,-256.1819 1624.1282,-215.5822 1642.0265,-192.1438"/>
<polygon fill="#63b8ff" stroke="#63b8ff" points="1644.8947,-194.1547 1648.1822,-184.0828 1639.3313,-189.9063 1644.8947,-194.1547"/>
</g>
<!-- Node50 -->
<g id="node50" class="node">
<title>Node50</title>
<g id="a_node50"><a xlink:href="../../d1/d2a/section_8h.html" target="_top" xlink:title=" ">
<polygon fill="#ffffff" stroke="#666666" points="1582.5,-239 1526.5,-239 1526.5,-220 1582.5,-220 1582.5,-239"/>
<text text-anchor="middle" x="1554.5" y="-227" font-family="Helvetica,sans-Serif" font-size="10.00" fill="#000000">section.h</text>
</a>
</g>
</g>
<!-- Node48&#45;&gt;Node50 -->
<g id="edge97" class="edge">
<title>Node48&#45;&gt;Node50</title>
<path fill="none" stroke="#63b8ff" d="M1568.5388,-274.9197C1566.3476,-267.8304 1563.2865,-257.9269 1560.5818,-249.1763"/>
<polygon fill="#63b8ff" stroke="#63b8ff" points="1563.8388,-247.8613 1557.5417,-239.3408 1557.1509,-249.9285 1563.8388,-247.8613"/>
</g>
<!-- Node49&#45;&gt;Node19 -->
<g id="edge96" class="edge">
<title>Node49&#45;&gt;Node19</title>
<path fill="none" stroke="#63b8ff" d="M1631.2259,-165.4179C1607.404,-156.5049 1570.814,-142.8148 1543.7806,-132.7002"/>
<polygon fill="#63b8ff" stroke="#63b8ff" points="1544.8871,-129.3773 1534.2947,-129.1511 1542.4341,-135.9335 1544.8871,-129.3773"/>
</g>
<!-- Node50&#45;&gt;Node17 -->
<g id="edge98" class="edge">
<title>Node50&#45;&gt;Node17</title>
<path fill="none" stroke="#63b8ff" d="M1562.8933,-219.7953C1590.2675,-187.6112 1673.932,-84.7517 1651.5,-55 1636.0429,-34.4992 1564.5822,-20.436 1522.9109,-13.8212"/>
<polygon fill="#63b8ff" stroke="#63b8ff" points="1523.4261,-10.3594 1513.0106,-12.3006 1522.3633,-17.2782 1523.4261,-10.3594"/>
</g>
<!-- Node50&#45;&gt;Node19 -->
<g id="edge100" class="edge">
<title>Node50&#45;&gt;Node19</title>
<path fill="none" stroke="#63b8ff" d="M1553.8499,-219.9346C1552.6899,-206.9943 1549.5726,-183.4128 1541.5,-165 1537.1263,-155.0241 1530.2926,-145.0971 1523.9757,-137.0731"/>
<polygon fill="#63b8ff" stroke="#63b8ff" points="1526.5353,-134.6761 1517.465,-129.2008 1521.1411,-139.1374 1526.5353,-134.6761"/>
</g>
<!-- Node50&#45;&gt;Node30 -->
<g id="edge99" class="edge">
<title>Node50&#45;&gt;Node30</title>
<path fill="none" stroke="#63b8ff" d="M1526.4646,-221.6428C1482.1679,-209.2796 1393.2368,-184.6673 1317.5,-165 1272.2291,-153.2441 1220.5071,-140.5161 1183.4533,-131.5195"/>
<polygon fill="#63b8ff" stroke="#63b8ff" points="1183.9518,-128.0391 1173.4087,-129.0849 1182.3028,-134.8421 1183.9518,-128.0391"/>
</g>
<!-- Node50&#45;&gt;Node36 -->
<g id="edge101" class="edge">
<title>Node50&#45;&gt;Node36</title>
<path fill="none" stroke="#63b8ff" d="M1526.3705,-223.9746C1477.7036,-214.415 1377.4249,-194.7174 1319.1479,-183.2701"/>
<polygon fill="#63b8ff" stroke="#63b8ff" points="1319.6124,-179.7946 1309.1253,-181.3014 1318.2632,-186.6633 1319.6124,-179.7946"/>
</g>
<!-- Node51&#45;&gt;Node4 -->
<g id="edge107" class="edge">
<title>Node51&#45;&gt;Node4</title>
<path fill="none" stroke="#63b8ff" d="M662.8586,-166.3846C633.5492,-156.7318 584.5544,-140.5958 552.3821,-130.0001"/>
<polygon fill="#63b8ff" stroke="#63b8ff" points="553.167,-126.5737 542.574,-126.7699 550.9773,-133.2224 553.167,-126.5737"/>
</g>
<!-- Node51&#45;&gt;Node15 -->
<g id="edge105" class="edge">
<title>Node51&#45;&gt;Node15</title>
<path fill="none" stroke="#63b8ff" d="M712.3087,-167.1255C715.0641,-166.3759 717.8361,-165.6517 720.5,-165 786.6222,-148.8247 864.6733,-133.9788 909.2991,-125.8891"/>
<polygon fill="#63b8ff" stroke="#63b8ff" points="910.1427,-129.2935 919.3641,-124.0765 908.902,-122.4043 910.1427,-129.2935"/>
</g>
<!-- Node51&#45;&gt;Node17 -->
<g id="edge106" class="edge">
<title>Node51&#45;&gt;Node17</title>
<path fill="none" stroke="#63b8ff" d="M690.3943,-164.7127C695.2614,-150.1311 706.5619,-123.0261 726.5,-110 851.0172,-28.6496 1334.7154,-12.8235 1461.7827,-10.0463"/>
<polygon fill="#63b8ff" stroke="#63b8ff" points="1462.0412,-13.5418 1471.9666,-9.8354 1461.8962,-6.5433 1462.0412,-13.5418"/>
</g>
<!-- Node51&#45;&gt;Node47 -->
<g id="edge108" class="edge">
<title>Node51&#45;&gt;Node47</title>
<path fill="none" stroke="#63b8ff" d="M700.0414,-164.9197C710.6478,-156.8177 726.0659,-145.0399 738.5439,-135.5082"/>
<polygon fill="#63b8ff" stroke="#63b8ff" points="740.7954,-138.1926 746.6175,-129.3408 736.5461,-132.6299 740.7954,-138.1926"/>
</g>
<!-- Node53 -->
<g id="node53" class="node">
<title>Node53</title>
<g id="a_node53"><a xlink:href="../../df/da1/definition_8h.html" target="_top" xlink:title=" ">
<polygon fill="#ffffff" stroke="#666666" points="1071.5,-294 1007.5,-294 1007.5,-275 1071.5,-275 1071.5,-294"/>
<text text-anchor="middle" x="1039.5" y="-282" font-family="Helvetica,sans-Serif" font-size="10.00" fill="#000000">definition.h</text>
</a>
</g>
</g>
<!-- Node52&#45;&gt;Node53 -->
<g id="edge110" class="edge">
<title>Node52&#45;&gt;Node53</title>
<path fill="none" stroke="#63b8ff" d="M1285.1964,-549.9142C1269.4524,-515.7763 1211.7439,-398.5152 1132.5,-330 1116.5532,-316.2122 1095.6987,-305.508 1077.7802,-297.9557"/>
<polygon fill="#63b8ff" stroke="#63b8ff" points="1078.7607,-294.5774 1068.1773,-294.0848 1076.1436,-301.0697 1078.7607,-294.5774"/>
</g>
<!-- Node54 -->
<g id="node54" class="node">
<title>Node54</title>
<g id="a_node54"><a xlink:href="../../d4/d3a/filedef_8h.html" target="_top" xlink:title=" ">
<polygon fill="#ffffff" stroke="#666666" points="1138,-514 1087,-514 1087,-495 1138,-495 1138,-514"/>
<text text-anchor="middle" x="1112.5" y="-502" font-family="Helvetica,sans-Serif" font-size="10.00" fill="#000000">filedef.h</text>
</a>
</g>
</g>
<!-- Node52&#45;&gt;Node54 -->
<g id="edge114" class="edge">
<title>Node52&#45;&gt;Node54</title>
<path fill="none" stroke="#63b8ff" d="M1258.669,-549.9197C1227.835,-540.3386 1180.4589,-525.6172 1148.0558,-515.5484"/>
<polygon fill="#63b8ff" stroke="#63b8ff" points="1148.6896,-512.0803 1138.1014,-512.4552 1146.6124,-518.765 1148.6896,-512.0803"/>
</g>
<!-- Node53&#45;&gt;Node4 -->
<g id="edge111" class="edge">
<title>Node53&#45;&gt;Node4</title>
<path fill="none" stroke="#63b8ff" d="M1007.3573,-276.5872C1004.3738,-275.9935 1001.3876,-275.4513 998.5,-275 902.4474,-259.988 639.4448,-298.4218 562.5,-239 531.5849,-215.1253 523.3507,-166.8512 521.2065,-139.5305"/>
<polygon fill="#63b8ff" stroke="#63b8ff" points="524.6829,-139.0182 520.6121,-129.2367 517.6945,-139.4218 524.6829,-139.0182"/>
</g>
<!-- Node53&#45;&gt;Node18 -->
<g id="edge112" class="edge">
<title>Node53&#45;&gt;Node18</title>
<path fill="none" stroke="#63b8ff" d="M1071.5384,-279.1764C1133.9354,-268.8083 1271.276,-245.9874 1335.766,-235.2715"/>
<polygon fill="#63b8ff" stroke="#63b8ff" points="1336.5426,-238.6905 1345.8336,-233.5986 1335.3952,-231.7852 1336.5426,-238.6905"/>
</g>
<!-- Node53&#45;&gt;Node35 -->
<g id="edge113" class="edge">
<title>Node53&#45;&gt;Node35</title>
<path fill="none" stroke="#63b8ff" d="M1058.8347,-274.9197C1076.2363,-266.2973 1102.0394,-253.512 1121.8396,-243.7011"/>
<polygon fill="#63b8ff" stroke="#63b8ff" points="1123.608,-246.731 1131.0144,-239.155 1120.5001,-240.4588 1123.608,-246.731"/>
</g>
<!-- Node54&#45;&gt;Node27 -->
<g id="edge142" class="edge">
<title>Node54&#45;&gt;Node27</title>
<path fill="none" stroke="#63b8ff" d="M1111.0694,-494.6292C1106.3017,-465.2669 1088.2775,-377.5666 1037.5,-330 1023.2642,-316.6644 1004.385,-305.9132 988.2292,-298.2168"/>
<polygon fill="#63b8ff" stroke="#63b8ff" points="989.6377,-295.0124 979.0874,-294.0419 986.7298,-301.3798 989.6377,-295.0124"/>
</g>
<!-- Node54&#45;&gt;Node28 -->
<g id="edge115" class="edge">
<title>Node54&#45;&gt;Node28</title>
<path fill="none" stroke="#63b8ff" d="M1086.8521,-498.9402C1052.3233,-491.213 989.1435,-476.2191 936.5,-459 756.4502,-400.1077 713.9146,-376.7351 543.5,-294 509.9078,-277.6912 472.1678,-256.777 448.3724,-243.2587"/>
<polygon fill="#63b8ff" stroke="#63b8ff" points="450.0957,-240.2123 439.6759,-238.2943 446.6253,-246.2915 450.0957,-240.2123"/>
</g>
<!-- Node54&#45;&gt;Node53 -->
<g id="edge116" class="edge">
<title>Node54&#45;&gt;Node53</title>
<path fill="none" stroke="#63b8ff" d="M1115.7131,-494.603C1124.1785,-466.6012 1144.397,-385.2678 1113.5,-330 1105.667,-315.9885 1091.5554,-305.7628 1077.7402,-298.5969"/>
<polygon fill="#63b8ff" stroke="#63b8ff" points="1078.8386,-295.244 1068.3039,-294.1158 1075.8357,-301.5672 1078.8386,-295.244"/>
</g>
<!-- Node55 -->
<g id="node55" class="node">
<title>Node55</title>
<g id="a_node55"><a xlink:href="../../dd/d78/memberlist_8h.html" target="_top" xlink:title=" ">
<polygon fill="#ffffff" stroke="#666666" points="1019,-459 946,-459 946,-440 1019,-440 1019,-459"/>
<text text-anchor="middle" x="982.5" y="-447" font-family="Helvetica,sans-Serif" font-size="10.00" fill="#000000">memberlist.h</text>
</a>
</g>
</g>
<!-- Node54&#45;&gt;Node55 -->
<g id="edge117" class="edge">
<title>Node54&#45;&gt;Node55</title>
<path fill="none" stroke="#63b8ff" d="M1089.8557,-494.9197C1069.105,-486.1406 1038.1535,-473.0457 1014.8084,-463.1689"/>
<polygon fill="#63b8ff" stroke="#63b8ff" points="1015.8944,-459.8281 1005.321,-459.155 1013.1669,-466.2749 1015.8944,-459.8281"/>
</g>
<!-- Node55&#45;&gt;Node3 -->
<g id="edge119" class="edge">
<title>Node55&#45;&gt;Node3</title>
<path fill="none" stroke="#63b8ff" d="M945.9348,-447.3644C790.3692,-437.3014 191.5,-388.2528 191.5,-229.5 191.5,-229.5 191.5,-229.5 191.5,-174.5 191.5,-142.9508 191.5,-106.3117 191.5,-84.2905"/>
<polygon fill="#63b8ff" stroke="#63b8ff" points="195.0001,-84.2116 191.5,-74.2116 188.0001,-84.2117 195.0001,-84.2116"/>
</g>
<!-- Node55&#45;&gt;Node4 -->
<g id="edge118" class="edge">
<title>Node55&#45;&gt;Node4</title>
<path fill="none" stroke="#63b8ff" d="M945.9152,-442.3046C836.5795,-420.3379 514.3626,-352.1028 425.5,-294 372.5772,-259.3965 327.605,-215.6181 365.5,-165 380.2273,-145.3281 447.426,-131.2673 488.3561,-124.3538"/>
<polygon fill="#63b8ff" stroke="#63b8ff" points="489.0917,-127.7801 498.3957,-122.7119 487.9619,-120.8719 489.0917,-127.7801"/>
</g>
<!-- Node55&#45;&gt;Node18 -->
<g id="edge140" class="edge">
<title>Node55&#45;&gt;Node18</title>
<path fill="none" stroke="#63b8ff" d="M1019.0849,-441.0386C1086.9029,-423.759 1233.6614,-378.7049 1326.5,-294 1340.843,-280.9136 1352.9101,-262.2794 1360.7581,-248.4021"/>
<polygon fill="#63b8ff" stroke="#63b8ff" points="1364.0112,-249.745 1365.6991,-239.2854 1357.857,-246.4095 1364.0112,-249.745"/>
</g>
<!-- Node55&#45;&gt;Node36 -->
<g id="edge139" class="edge">
<title>Node55&#45;&gt;Node36</title>
<path fill="none" stroke="#63b8ff" d="M992.8924,-439.7126C1036.088,-399.0318 1201.7376,-243.0263 1256.6778,-191.2846"/>
<polygon fill="#63b8ff" stroke="#63b8ff" points="1259.3519,-193.5741 1264.2321,-184.1701 1254.5527,-188.4782 1259.3519,-193.5741"/>
</g>
<!-- Node56 -->
<g id="node56" class="node">
<title>Node56</title>
<g id="a_node56"><a xlink:href="../../d4/d46/memberdef_8h.html" target="_top" xlink:title=" ">
<polygon fill="#ffffff" stroke="#666666" points="881.5,-404 807.5,-404 807.5,-385 881.5,-385 881.5,-404"/>
<text text-anchor="middle" x="844.5" y="-392" font-family="Helvetica,sans-Serif" font-size="10.00" fill="#000000">memberdef.h</text>
</a>
</g>
</g>
<!-- Node55&#45;&gt;Node56 -->
<g id="edge120" class="edge">
<title>Node55&#45;&gt;Node56</title>
<path fill="none" stroke="#63b8ff" d="M958.4622,-439.9197C936.2378,-431.0622 902.9907,-417.8115 878.1348,-407.9052"/>
<polygon fill="#63b8ff" stroke="#63b8ff" points="879.3106,-404.6061 868.7253,-404.155 876.7189,-411.1087 879.3106,-404.6061"/>
</g>
<!-- Node59 -->
<g id="node59" class="node">
<title>Node59</title>
<g id="a_node59"><a xlink:href="../../d9/d11/membergroup_8h.html" target="_top" xlink:title=" ">
<polygon fill="#ffffff" stroke="#666666" points="901.5,-294 817.5,-294 817.5,-275 901.5,-275 901.5,-294"/>
<text text-anchor="middle" x="859.5" y="-282" font-family="Helvetica,sans-Serif" font-size="10.00" fill="#000000">membergroup.h</text>
</a>
</g>
</g>
<!-- Node55&#45;&gt;Node59 -->
<g id="edge141" class="edge">
<title>Node55&#45;&gt;Node59</title>
<path fill="none" stroke="#63b8ff" d="M980.12,-439.8204C974.3852,-418.0943 958.0457,-364.6452 928.5,-330 917.6817,-317.3146 902.4703,-306.7715 889.0819,-299.0392"/>
<polygon fill="#63b8ff" stroke="#63b8ff" points="890.6295,-295.8959 880.1806,-294.1433 887.2559,-302.0294 890.6295,-295.8959"/>
</g>
<!-- Node56&#45;&gt;Node4 -->
<g id="edge121" class="edge">
<title>Node56&#45;&gt;Node4</title>
<path fill="none" stroke="#63b8ff" d="M807.1512,-387.8212C706.3018,-368.9308 432.7526,-311.7373 383.5,-239 365.0328,-211.7273 360.1134,-191.627 379.5,-165 392.4394,-147.2281 450.9597,-132.904 488.424,-125.3465"/>
<polygon fill="#63b8ff" stroke="#63b8ff" points="489.2364,-128.754 498.3772,-123.3971 487.8909,-121.8845 489.2364,-128.754"/>
</g>
<!-- Node56&#45;&gt;Node15 -->
<g id="edge122" class="edge">
<title>Node56&#45;&gt;Node15</title>
<path fill="none" stroke="#63b8ff" d="M807.9033,-384.86C788.4611,-377.9334 765.7099,-366.6355 751.5,-349 714.7481,-303.3885 687.9389,-265.7646 724.5,-220 769.7244,-163.3914 820.4038,-219.618 883.5,-184 903.8863,-172.4919 921.7584,-152.1774 933.0105,-137.4149"/>
<polygon fill="#63b8ff" stroke="#63b8ff" points="936.0382,-139.2045 939.1243,-129.0691 930.3912,-135.0678 936.0382,-139.2045"/>
</g>
<!-- Node56&#45;&gt;Node18 -->
<g id="edge124" class="edge">
<title>Node56&#45;&gt;Node18</title>
<path fill="none" stroke="#63b8ff" d="M881.5302,-392.5281C961.6185,-386.9678 1155.1825,-366.4695 1297.5,-294 1320.6427,-282.2155 1342.2881,-261.3603 1355.9053,-246.5569"/>
<polygon fill="#63b8ff" stroke="#63b8ff" points="1358.5561,-248.843 1362.6029,-239.0515 1353.3333,-244.1823 1358.5561,-248.843"/>
</g>
<!-- Node56&#45;&gt;Node34 -->
<g id="edge126" class="edge">
<title>Node56&#45;&gt;Node34</title>
<path fill="none" stroke="#63b8ff" d="M810.5908,-384.8926C792.9347,-377.9761 772.9077,-366.6776 762.5,-349 744.1307,-317.7996 754.0055,-273.7206 762.1894,-248.742"/>
<polygon fill="#63b8ff" stroke="#63b8ff" points="765.5956,-249.6061 765.6144,-239.0113 758.9927,-247.2819 765.5956,-249.6061"/>
</g>
<!-- Node56&#45;&gt;Node53 -->
<g id="edge125" class="edge">
<title>Node56&#45;&gt;Node53</title>
<path fill="none" stroke="#63b8ff" d="M862.6101,-384.8922C879.6804,-375.7884 905.9372,-361.6624 928.5,-349 958.2621,-332.2973 992.1333,-312.4992 1014.5498,-299.2846"/>
<polygon fill="#63b8ff" stroke="#63b8ff" points="1016.5791,-302.151 1023.4102,-294.0525 1013.0197,-296.1235 1016.5791,-302.151"/>
</g>
<!-- Node57 -->
<g id="node57" class="node">
<title>Node57</title>
<g id="a_node57"><a xlink:title=" ">
<polygon fill="#e0e0e0" stroke="#999999" points="919.5,-349 851.5,-349 851.5,-330 919.5,-330 919.5,-349"/>
<text text-anchor="middle" x="885.5" y="-337" font-family="Helvetica,sans-Serif" font-size="10.00" fill="#000000">sys/types.h</text>
</a>
</g>
</g>
<!-- Node56&#45;&gt;Node57 -->
<g id="edge123" class="edge">
<title>Node56&#45;&gt;Node57</title>
<path fill="none" stroke="#63b8ff" d="M851.6417,-384.9197C857.2749,-377.363 865.2917,-366.6087 872.1105,-357.4616"/>
<polygon fill="#63b8ff" stroke="#63b8ff" points="874.9935,-359.4501 878.1641,-349.3408 869.3813,-355.2665 874.9935,-359.4501"/>
</g>
<!-- Node58 -->
<g id="node58" class="node">
<title>Node58</title>
<g id="a_node58"><a xlink:href="../../d1/da6/classdef_8h.html" target="_top" xlink:title=" ">
<polygon fill="#ffffff" stroke="#666666" points="833.5,-349 771.5,-349 771.5,-330 833.5,-330 833.5,-349"/>
<text text-anchor="middle" x="802.5" y="-337" font-family="Helvetica,sans-Serif" font-size="10.00" fill="#000000">classdef.h</text>
</a>
</g>
</g>
<!-- Node56&#45;&gt;Node58 -->
<g id="edge127" class="edge">
<title>Node56&#45;&gt;Node58</title>
<path fill="none" stroke="#63b8ff" d="M837.1842,-384.9197C831.4136,-377.363 823.2012,-366.6087 816.2161,-357.4616"/>
<polygon fill="#63b8ff" stroke="#63b8ff" points="818.8657,-355.1643 810.0148,-349.3408 813.3023,-359.4127 818.8657,-355.1643"/>
</g>
<!-- Node58&#45;&gt;Node4 -->
<g id="edge128" class="edge">
<title>Node58&#45;&gt;Node4</title>
<path fill="none" stroke="#63b8ff" d="M771.2409,-333.8378C681.0167,-317.2035 425.0202,-267.8445 400.5,-239 379.0742,-213.7957 373.4239,-192.0264 392.5,-165 403.7775,-149.0224 454.1623,-134.6508 488.2519,-126.5099"/>
<polygon fill="#63b8ff" stroke="#63b8ff" points="489.298,-129.8602 498.247,-124.1885 487.7144,-123.0416 489.298,-129.8602"/>
</g>
<!-- Node58&#45;&gt;Node27 -->
<g id="edge130" class="edge">
<title>Node58&#45;&gt;Node27</title>
<path fill="none" stroke="#63b8ff" d="M828.9764,-329.9197C853.7478,-320.9564 890.9519,-307.4944 918.43,-297.5516"/>
<polygon fill="#63b8ff" stroke="#63b8ff" points="919.86,-300.7564 928.0725,-294.0626 917.4782,-294.174 919.86,-300.7564"/>
</g>
<!-- Node58&#45;&gt;Node28 -->
<g id="edge129" class="edge">
<title>Node58&#45;&gt;Node28</title>
<path fill="none" stroke="#63b8ff" d="M771.103,-330.8695C709.8314,-313.9363 570.1121,-274.8775 453.5,-239 452.0758,-238.5618 450.6145,-238.1053 449.1415,-237.6397"/>
<polygon fill="#63b8ff" stroke="#63b8ff" points="450.1103,-234.2746 439.5186,-234.5344 447.9605,-240.9364 450.1103,-234.2746"/>
</g>
<!-- Node58&#45;&gt;Node34 -->
<g id="edge132" class="edge">
<title>Node58&#45;&gt;Node34</title>
<path fill="none" stroke="#63b8ff" d="M799.5715,-329.7382C794.1272,-311.5906 782.358,-272.36 775.2651,-248.7172"/>
<polygon fill="#63b8ff" stroke="#63b8ff" points="778.6008,-247.6554 772.3748,-239.0828 771.896,-249.6668 778.6008,-247.6554"/>
</g>
<!-- Node58&#45;&gt;Node53 -->
<g id="edge131" class="edge">
<title>Node58&#45;&gt;Node53</title>
<path fill="none" stroke="#63b8ff" d="M833.5043,-332.1159C836.5434,-331.3983 839.5811,-330.6834 842.5,-330 908.6697,-314.5076 927.5065,-310.3928 997.1041,-294.3201"/>
<polygon fill="#63b8ff" stroke="#63b8ff" points="998.3166,-297.6322 1007.2717,-291.9704 996.7404,-290.812 998.3166,-297.6322"/>
</g>
<!-- Node58&#45;&gt;Node59 -->
<g id="edge133" class="edge">
<title>Node58&#45;&gt;Node59</title>
<path fill="none" stroke="#63b8ff" d="M812.4286,-329.9197C820.5831,-322.0514 832.3303,-310.7164 842.0492,-301.3385"/>
<polygon fill="#63b8ff" stroke="#63b8ff" points="844.5354,-303.8032 849.3013,-294.3408 839.6748,-298.7659 844.5354,-303.8032"/>
</g>
<!-- Node59&#45;&gt;Node4 -->
<g id="edge134" class="edge">
<title>Node59&#45;&gt;Node4</title>
<path fill="none" stroke="#63b8ff" d="M817.2067,-281.479C733.7763,-275.1588 550.9367,-259.4195 491.5,-239 480.2365,-235.1304 405.3762,-194.3591 399.5,-184 378.5039,-146.9861 445.83,-130.2144 488.368,-123.4633"/>
<polygon fill="#63b8ff" stroke="#63b8ff" points="488.9405,-126.9168 498.3211,-121.992 487.9168,-119.992 488.9405,-126.9168"/>
</g>
<!-- Node59&#45;&gt;Node15 -->
<g id="edge136" class="edge">
<title>Node59&#45;&gt;Node15</title>
<path fill="none" stroke="#63b8ff" d="M855.0519,-274.9604C849.5509,-261.631 842.1068,-237.1452 852.5,-220 870.4306,-190.4206 898.6125,-209.9347 921.5,-184 932.604,-171.4177 938.7479,-153.2266 942.032,-139.3686"/>
<polygon fill="#63b8ff" stroke="#63b8ff" points="945.5013,-139.8744 944.0928,-129.3736 938.6455,-138.4608 945.5013,-139.8744"/>
</g>
<!-- Node59&#45;&gt;Node16 -->
<g id="edge135" class="edge">
<title>Node59&#45;&gt;Node16</title>
<path fill="none" stroke="#63b8ff" d="M862.9837,-274.9197C865.59,-267.7525 869.2422,-257.7089 872.4497,-248.8882"/>
<polygon fill="#63b8ff" stroke="#63b8ff" points="875.7933,-249.9349 875.9215,-239.3408 869.2147,-247.5426 875.7933,-249.9349"/>
</g>
<!-- Node59&#45;&gt;Node18 -->
<g id="edge137" class="edge">
<title>Node59&#45;&gt;Node18</title>
<path fill="none" stroke="#63b8ff" d="M901.7549,-276.341C904.7098,-275.8591 907.6467,-275.4061 910.5,-275 1068.7121,-252.482 1259.1235,-237.4651 1335.9103,-231.9046"/>
<polygon fill="#63b8ff" stroke="#63b8ff" points="1336.2519,-235.3892 1345.9759,-231.183 1335.7512,-228.4071 1336.2519,-235.3892"/>
</g>
<!-- Node59&#45;&gt;Node35 -->
<g id="edge138" class="edge">
<title>Node59&#45;&gt;Node35</title>
<path fill="none" stroke="#63b8ff" d="M901.5031,-276.5613C959.1987,-265.6566 1061.91,-246.2438 1115.6066,-236.095"/>
<polygon fill="#63b8ff" stroke="#63b8ff" points="1116.4885,-239.4903 1125.6645,-234.194 1115.1884,-232.6121 1116.4885,-239.4903"/>
</g>
<!-- Node60&#45;&gt;Node13 -->
<g id="edge144" class="edge">
<title>Node60&#45;&gt;Node13</title>
<path fill="none" stroke="#63b8ff" d="M1416.4113,-439.7382C1416.2478,-421.7541 1415.896,-383.0652 1415.6805,-359.3599"/>
<polygon fill="#63b8ff" stroke="#63b8ff" points="1419.178,-359.0506 1415.5871,-349.0828 1412.1783,-359.1143 1419.178,-359.0506"/>
</g>
</g>
</svg>
