<?xml version="1.0" encoding="UTF-8" standalone="no"?>
<!DOCTYPE svg PUBLIC "-//W3C//DTD SVG 1.1//EN"
 "http://www.w3.org/Graphics/SVG/1.1/DTD/svg11.dtd">
<!-- Generated by graphviz version 2.40.1 (20161225.0304)
 -->
<!-- Title: TemplateParser Pages: 1 -->
<svg width="207pt" height="93pt"
 viewBox="0.00 0.00 206.50 93.00" xmlns="http://www.w3.org/2000/svg" xmlns:xlink="http://www.w3.org/1999/xlink">
<g id="graph0" class="graph" transform="scale(1 1) rotate(0) translate(4 89)">
<title>TemplateParser</title>
<!-- Node1 -->
<g id="node1" class="node">
<title>Node1</title>
<g id="a_node1"><a xlink:title="Parser for templates.">
<polygon fill="#999999" stroke="#666666" points="131.5,-19 45.5,-19 45.5,0 131.5,0 131.5,-19"/>
<text text-anchor="middle" x="88.5" y="-7" font-family="Helvetica,sans-Serif" font-size="10.00" fill="#000000">TemplateParser</text>
</a>
</g>
</g>
<!-- Node2 -->
<g id="node2" class="node">
<title>Node2</title>
<g id="a_node2"><a xlink:href="../../d0/d1d/class_template_engine.html" target="_top" xlink:title="Engine to create templates and template contexts.">
<polygon fill="#ffffff" stroke="#666666" points="87,-85 0,-85 0,-66 87,-66 87,-85"/>
<text text-anchor="middle" x="43.5" y="-73" font-family="Helvetica,sans-Serif" font-size="10.00" fill="#000000">TemplateEngine</text>
</a>
</g>
</g>
<!-- Node2&#45;&gt;Node1 -->
<g id="edge1" class="edge">
<title>Node2&#45;&gt;Node1</title>
<path fill="none" stroke="#9a32cd" stroke-dasharray="5,2" d="M53.4689,-56.512C57.0333,-50.16 61.2299,-43.1378 65.5,-37 69.8365,-30.7668 75.2633,-24.229 79.7564,-19.0926"/>
<polygon fill="#9a32cd" stroke="#9a32cd" points="50.1657,-55.2607 48.4687,-65.7188 56.317,-58.6016 50.1657,-55.2607"/>
<text text-anchor="middle" x="88.5" y="-40" font-family="Helvetica,sans-Serif" font-size="10.00" fill="#000000"> m_engine</text>
</g>
<!-- Node3 -->
<g id="node3" class="node">
<title>Node3</title>
<g id="a_node3"><a xlink:href="../../d9/d45/class_q_c_string.html" target="_top" xlink:title="This is an alternative implementation of QCString.">
<polygon fill="#ffffff" stroke="#666666" points="162,-85 105,-85 105,-66 162,-66 162,-85"/>
<text text-anchor="middle" x="133.5" y="-73" font-family="Helvetica,sans-Serif" font-size="10.00" fill="#000000">QCString</text>
</a>
</g>
</g>
<!-- Node3&#45;&gt;Node1 -->
<g id="edge2" class="edge">
<title>Node3&#45;&gt;Node1</title>
<path fill="none" stroke="#9a32cd" stroke-dasharray="5,2" d="M123.5311,-56.512C119.9667,-50.16 115.7701,-43.1378 111.5,-37 107.1635,-30.7668 101.7367,-24.229 97.2436,-19.0926"/>
<polygon fill="#9a32cd" stroke="#9a32cd" points="120.683,-58.6016 128.5313,-65.7188 126.8343,-55.2607 120.683,-58.6016"/>
<text text-anchor="middle" x="158" y="-40" font-family="Helvetica,sans-Serif" font-size="10.00" fill="#000000"> m_templateName</text>
</g>
</g>
</svg>
