<?xml version="1.0" encoding="UTF-8" standalone="no"?>
<!DOCTYPE svg PUBLIC "-//W3C//DTD SVG 1.1//EN"
 "http://www.w3.org/Graphics/SVG/1.1/DTD/svg11.dtd">
<!-- Generated by graphviz version 2.40.1 (20161225.0304)
 -->
<!-- Title: src/dirdef.h Pages: 1 -->
<svg width="624pt" height="357pt"
 viewBox="0.00 0.00 623.50 357.00" xmlns="http://www.w3.org/2000/svg" xmlns:xlink="http://www.w3.org/1999/xlink">
<g id="graph0" class="graph" transform="scale(1 1) rotate(0) translate(4 353)">
<title>src/dirdef.h</title>
<!-- Node1 -->
<g id="node1" class="node">
<title>Node1</title>
<g id="a_node1"><a xlink:title=" ">
<polygon fill="#999999" stroke="#666666" points="187.5,-349 122.5,-349 122.5,-330 187.5,-330 187.5,-349"/>
<text text-anchor="middle" x="155" y="-337" font-family="Helvetica,sans-Serif" font-size="10.00" fill="#000000">src/dirdef.h</text>
</a>
</g>
</g>
<!-- Node2 -->
<g id="node2" class="node">
<title>Node2</title>
<g id="a_node2"><a xlink:title=" ">
<polygon fill="#e0e0e0" stroke="#999999" points="44,-129 0,-129 0,-110 44,-110 44,-129"/>
<text text-anchor="middle" x="22" y="-117" font-family="Helvetica,sans-Serif" font-size="10.00" fill="#000000">vector</text>
</a>
</g>
</g>
<!-- Node1&#45;&gt;Node2 -->
<g id="edge1" class="edge">
<title>Node1&#45;&gt;Node2</title>
<path fill="none" stroke="#63b8ff" d="M131.2945,-329.8525C115.3384,-322.2593 94.9279,-310.2409 82,-294 44.3569,-246.7102 29.6096,-174.3426 24.4562,-139.5482"/>
<polygon fill="#63b8ff" stroke="#63b8ff" points="27.8752,-138.7153 23.0572,-129.2793 20.9392,-139.6603 27.8752,-138.7153"/>
</g>
<!-- Node3 -->
<g id="node3" class="node">
<title>Node3</title>
<g id="a_node3"><a xlink:title=" ">
<polygon fill="#e0e0e0" stroke="#999999" points="126.5,-294 91.5,-294 91.5,-275 126.5,-275 126.5,-294"/>
<text text-anchor="middle" x="109" y="-282" font-family="Helvetica,sans-Serif" font-size="10.00" fill="#000000">map</text>
</a>
</g>
</g>
<!-- Node1&#45;&gt;Node3 -->
<g id="edge2" class="edge">
<title>Node1&#45;&gt;Node3</title>
<path fill="none" stroke="#63b8ff" d="M146.9874,-329.9197C140.6021,-322.2851 131.487,-311.3867 123.7862,-302.1792"/>
<polygon fill="#63b8ff" stroke="#63b8ff" points="126.3309,-299.7662 117.2305,-294.3408 120.9613,-304.2571 126.3309,-299.7662"/>
</g>
<!-- Node4 -->
<g id="node4" class="node">
<title>Node4</title>
<g id="a_node4"><a xlink:href="../../d7/d5c/qcstring_8h.html" target="_top" xlink:title=" ">
<polygon fill="#ffffff" stroke="#666666" points="407.5,-129 348.5,-129 348.5,-110 407.5,-110 407.5,-129"/>
<text text-anchor="middle" x="378" y="-117" font-family="Helvetica,sans-Serif" font-size="10.00" fill="#000000">qcstring.h</text>
</a>
</g>
</g>
<!-- Node1&#45;&gt;Node4 -->
<g id="edge3" class="edge">
<title>Node1&#45;&gt;Node4</title>
<path fill="none" stroke="#63b8ff" d="M185.752,-329.9915C238.4934,-311.7288 344.084,-266.096 381,-184 387.3214,-169.9421 385.9868,-152.3781 383.3967,-139.1298"/>
<polygon fill="#63b8ff" stroke="#63b8ff" points="386.7562,-138.1253 381.0663,-129.188 379.941,-139.7229 386.7562,-138.1253"/>
</g>
<!-- Node14 -->
<g id="node14" class="node">
<title>Node14</title>
<g id="a_node14"><a xlink:href="../../da/de1/linkedmap_8h.html" target="_top" xlink:title=" ">
<polygon fill="#ffffff" stroke="#666666" points="189.5,-184 120.5,-184 120.5,-165 189.5,-165 189.5,-184"/>
<text text-anchor="middle" x="155" y="-172" font-family="Helvetica,sans-Serif" font-size="10.00" fill="#000000">linkedmap.h</text>
</a>
</g>
</g>
<!-- Node1&#45;&gt;Node14 -->
<g id="edge15" class="edge">
<title>Node1&#45;&gt;Node14</title>
<path fill="none" stroke="#63b8ff" d="M155,-329.6726C155,-303.1291 155,-229.6086 155,-194.1401"/>
<polygon fill="#63b8ff" stroke="#63b8ff" points="158.5001,-194.0691 155,-184.0692 151.5001,-194.0692 158.5001,-194.0691"/>
</g>
<!-- Node17 -->
<g id="node17" class="node">
<title>Node17</title>
<g id="a_node17"><a xlink:href="../../df/da1/definition_8h.html" target="_top" xlink:title=" ">
<polygon fill="#ffffff" stroke="#666666" points="248,-294 184,-294 184,-275 248,-275 248,-294"/>
<text text-anchor="middle" x="216" y="-282" font-family="Helvetica,sans-Serif" font-size="10.00" fill="#000000">definition.h</text>
</a>
</g>
</g>
<!-- Node1&#45;&gt;Node17 -->
<g id="edge23" class="edge">
<title>Node1&#45;&gt;Node17</title>
<path fill="none" stroke="#63b8ff" d="M165.6254,-329.9197C174.4385,-321.9735 187.173,-310.4916 197.6329,-301.0605"/>
<polygon fill="#63b8ff" stroke="#63b8ff" points="200.0025,-303.6367 205.0856,-294.3408 195.315,-298.4378 200.0025,-303.6367"/>
</g>
<!-- Node5 -->
<g id="node5" class="node">
<title>Node5</title>
<g id="a_node5"><a xlink:title=" ">
<polygon fill="#e0e0e0" stroke="#999999" points="268.5,-19 227.5,-19 227.5,0 268.5,0 268.5,-19"/>
<text text-anchor="middle" x="248" y="-7" font-family="Helvetica,sans-Serif" font-size="10.00" fill="#000000">string</text>
</a>
</g>
</g>
<!-- Node4&#45;&gt;Node5 -->
<g id="edge4" class="edge">
<title>Node4&#45;&gt;Node5</title>
<path fill="none" stroke="#63b8ff" d="M348.3964,-110.5814C319.4943,-101.3263 278.2669,-86.4858 267,-74 255.8923,-61.6905 251.2614,-43.1859 249.3397,-29.1494"/>
<polygon fill="#63b8ff" stroke="#63b8ff" points="252.8066,-28.6461 248.3074,-19.0541 245.8429,-29.3583 252.8066,-28.6461"/>
</g>
<!-- Node6 -->
<g id="node6" class="node">
<title>Node6</title>
<g id="a_node6"><a xlink:title=" ">
<polygon fill="#e0e0e0" stroke="#999999" points="156,-74 100,-74 100,-55 156,-55 156,-74"/>
<text text-anchor="middle" x="128" y="-62" font-family="Helvetica,sans-Serif" font-size="10.00" fill="#000000">algorithm</text>
</a>
</g>
</g>
<!-- Node4&#45;&gt;Node6 -->
<g id="edge5" class="edge">
<title>Node4&#45;&gt;Node6</title>
<path fill="none" stroke="#63b8ff" d="M348.2147,-112.1312C345.1066,-111.3962 341.9914,-110.6736 339,-110 264.9672,-93.33 243.5847,-91.9145 165.996,-74.1492"/>
<polygon fill="#63b8ff" stroke="#63b8ff" points="166.779,-70.7379 156.248,-71.8995 165.2048,-77.5587 166.779,-70.7379"/>
</g>
<!-- Node7 -->
<g id="node7" class="node">
<title>Node7</title>
<g id="a_node7"><a xlink:title=" ">
<polygon fill="#e0e0e0" stroke="#999999" points="220,-74 174,-74 174,-55 220,-55 220,-74"/>
<text text-anchor="middle" x="197" y="-62" font-family="Helvetica,sans-Serif" font-size="10.00" fill="#000000">cctype</text>
</a>
</g>
</g>
<!-- Node4&#45;&gt;Node7 -->
<g id="edge6" class="edge">
<title>Node4&#45;&gt;Node7</title>
<path fill="none" stroke="#63b8ff" d="M348.1115,-110.4179C315.5353,-100.519 263.5676,-84.7277 229.8644,-74.4864"/>
<polygon fill="#63b8ff" stroke="#63b8ff" points="230.6185,-71.0576 220.0329,-71.4989 228.5833,-77.7552 230.6185,-71.0576"/>
</g>
<!-- Node8 -->
<g id="node8" class="node">
<title>Node8</title>
<g id="a_node8"><a xlink:title=" ">
<polygon fill="#e0e0e0" stroke="#999999" points="452,-74 406,-74 406,-55 452,-55 452,-74"/>
<text text-anchor="middle" x="429" y="-62" font-family="Helvetica,sans-Serif" font-size="10.00" fill="#000000">cstring</text>
</a>
</g>
</g>
<!-- Node4&#45;&gt;Node8 -->
<g id="edge7" class="edge">
<title>Node4&#45;&gt;Node8</title>
<path fill="none" stroke="#63b8ff" d="M386.8835,-109.9197C394.0352,-102.2072 404.2753,-91.1639 412.8675,-81.8978"/>
<polygon fill="#63b8ff" stroke="#63b8ff" points="415.6419,-84.0533 419.8749,-74.3408 410.509,-79.2937 415.6419,-84.0533"/>
</g>
<!-- Node9 -->
<g id="node9" class="node">
<title>Node9</title>
<g id="a_node9"><a xlink:title=" ">
<polygon fill="#e0e0e0" stroke="#999999" points="513.5,-74 470.5,-74 470.5,-55 513.5,-55 513.5,-74"/>
<text text-anchor="middle" x="492" y="-62" font-family="Helvetica,sans-Serif" font-size="10.00" fill="#000000">cstdio</text>
</a>
</g>
</g>
<!-- Node4&#45;&gt;Node9 -->
<g id="edge8" class="edge">
<title>Node4&#45;&gt;Node9</title>
<path fill="none" stroke="#63b8ff" d="M397.8573,-109.9197C415.8104,-101.2581 442.4708,-88.3957 462.8419,-78.5675"/>
<polygon fill="#63b8ff" stroke="#63b8ff" points="464.502,-81.6527 471.9878,-74.155 461.4603,-75.3481 464.502,-81.6527"/>
</g>
<!-- Node10 -->
<g id="node10" class="node">
<title>Node10</title>
<g id="a_node10"><a xlink:title=" ">
<polygon fill="#e0e0e0" stroke="#999999" points="615.5,-74 570.5,-74 570.5,-55 615.5,-55 615.5,-74"/>
<text text-anchor="middle" x="593" y="-62" font-family="Helvetica,sans-Serif" font-size="10.00" fill="#000000">cstdlib</text>
</a>
</g>
</g>
<!-- Node4&#45;&gt;Node10 -->
<g id="edge9" class="edge">
<title>Node4&#45;&gt;Node10</title>
<path fill="none" stroke="#63b8ff" d="M407.608,-111.942C442.9342,-102.9219 503.7814,-87.3777 556,-74 557.4455,-73.6297 558.9227,-73.2511 560.415,-72.8685"/>
<polygon fill="#63b8ff" stroke="#63b8ff" points="561.4863,-76.2071 570.3028,-70.3317 559.7467,-69.4266 561.4863,-76.2071"/>
</g>
<!-- Node11 -->
<g id="node11" class="node">
<title>Node11</title>
<g id="a_node11"><a xlink:title=" ">
<polygon fill="#e0e0e0" stroke="#999999" points="477,-19 431,-19 431,0 477,0 477,-19"/>
<text text-anchor="middle" x="454" y="-7" font-family="Helvetica,sans-Serif" font-size="10.00" fill="#000000">cstdint</text>
</a>
</g>
</g>
<!-- Node4&#45;&gt;Node11 -->
<g id="edge10" class="edge">
<title>Node4&#45;&gt;Node11</title>
<path fill="none" stroke="#63b8ff" d="M407.6045,-114.4298C445.8763,-107.2024 509.2583,-92.7145 523,-74 537.7161,-53.9586 510.7929,-35.0304 486.3937,-22.9276"/>
<polygon fill="#63b8ff" stroke="#63b8ff" points="487.7973,-19.72 477.2581,-18.6352 484.8205,-26.0555 487.7973,-19.72"/>
</g>
<!-- Node12 -->
<g id="node12" class="node">
<title>Node12</title>
<g id="a_node12"><a xlink:title=" ">
<polygon fill="#e0e0e0" stroke="#999999" points="328,-74 276,-74 276,-55 328,-55 328,-74"/>
<text text-anchor="middle" x="302" y="-62" font-family="Helvetica,sans-Serif" font-size="10.00" fill="#000000">ostream</text>
</a>
</g>
</g>
<!-- Node4&#45;&gt;Node12 -->
<g id="edge11" class="edge">
<title>Node4&#45;&gt;Node12</title>
<path fill="none" stroke="#63b8ff" d="M364.7618,-109.9197C353.3888,-101.6893 336.7744,-89.6657 323.4965,-80.0567"/>
<polygon fill="#63b8ff" stroke="#63b8ff" points="325.4946,-77.1823 315.3415,-74.155 321.3907,-82.8532 325.4946,-77.1823"/>
</g>
<!-- Node13 -->
<g id="node13" class="node">
<title>Node13</title>
<g id="a_node13"><a xlink:href="../../db/d7c/utf8_8h.html" target="_top" xlink:title="Various UTF8 related helper functions.">
<polygon fill="#ffffff" stroke="#666666" points="387.5,-74 346.5,-74 346.5,-55 387.5,-55 387.5,-74"/>
<text text-anchor="middle" x="367" y="-62" font-family="Helvetica,sans-Serif" font-size="10.00" fill="#000000">utf8.h</text>
</a>
</g>
</g>
<!-- Node4&#45;&gt;Node13 -->
<g id="edge12" class="edge">
<title>Node4&#45;&gt;Node13</title>
<path fill="none" stroke="#63b8ff" d="M376.0839,-109.9197C374.6661,-102.8304 372.6854,-92.9269 370.9353,-84.1763"/>
<polygon fill="#63b8ff" stroke="#63b8ff" points="374.3614,-83.4602 368.9682,-74.3408 367.4974,-84.8331 374.3614,-83.4602"/>
</g>
<!-- Node13&#45;&gt;Node5 -->
<g id="edge14" class="edge">
<title>Node13&#45;&gt;Node5</title>
<path fill="none" stroke="#63b8ff" d="M346.2718,-54.9197C327.4465,-46.219 299.4495,-33.2792 278.1487,-23.4343"/>
<polygon fill="#63b8ff" stroke="#63b8ff" points="279.4357,-20.1734 268.89,-19.155 276.4989,-26.5276 279.4357,-20.1734"/>
</g>
<!-- Node13&#45;&gt;Node11 -->
<g id="edge13" class="edge">
<title>Node13&#45;&gt;Node11</title>
<path fill="none" stroke="#63b8ff" d="M382.1542,-54.9197C395.4213,-46.5325 414.9191,-34.2063 430.2565,-24.5103"/>
<polygon fill="#63b8ff" stroke="#63b8ff" points="432.1452,-27.4571 438.7275,-19.155 428.4046,-21.5402 432.1452,-27.4571"/>
</g>
<!-- Node14&#45;&gt;Node2 -->
<g id="edge17" class="edge">
<title>Node14&#45;&gt;Node2</title>
<path fill="none" stroke="#63b8ff" d="M131.8332,-164.9197C110.1163,-155.9391 77.4788,-142.4423 53.422,-132.4941"/>
<polygon fill="#63b8ff" stroke="#63b8ff" points="54.5967,-129.1924 44.0182,-128.6053 51.9217,-135.6612 54.5967,-129.1924"/>
</g>
<!-- Node14&#45;&gt;Node4 -->
<g id="edge22" class="edge">
<title>Node14&#45;&gt;Node4</title>
<path fill="none" stroke="#63b8ff" d="M189.8438,-165.9063C230.1311,-155.9699 296.297,-139.651 338.4722,-129.249"/>
<polygon fill="#63b8ff" stroke="#63b8ff" points="339.5164,-132.5964 348.3873,-126.8036 337.8401,-125.8001 339.5164,-132.5964"/>
</g>
<!-- Node14&#45;&gt;Node5 -->
<g id="edge19" class="edge">
<title>Node14&#45;&gt;Node5</title>
<path fill="none" stroke="#63b8ff" d="M142.7103,-164.934C117.1452,-143.8833 62.8677,-92.4429 91,-55 106.1718,-34.8069 176.1521,-20.697 217.3853,-13.9737"/>
<polygon fill="#63b8ff" stroke="#63b8ff" points="218.1122,-17.4024 227.4446,-12.3867 217.0213,-10.4879 218.1122,-17.4024"/>
</g>
<!-- Node14&#45;&gt;Node6 -->
<g id="edge20" class="edge">
<title>Node14&#45;&gt;Node6</title>
<path fill="none" stroke="#63b8ff" d="M149.3116,-164.7485C144.3708,-155.7761 137.4778,-141.9389 134,-129 130.0713,-114.3838 128.6151,-97.31 128.1175,-84.4017"/>
<polygon fill="#63b8ff" stroke="#63b8ff" points="131.6143,-84.2152 127.889,-74.2969 124.6161,-84.3735 131.6143,-84.2152"/>
</g>
<!-- Node14&#45;&gt;Node7 -->
<g id="edge21" class="edge">
<title>Node14&#45;&gt;Node7</title>
<path fill="none" stroke="#63b8ff" d="M155.8597,-164.5606C157.2339,-151.6073 160.5692,-128.4349 168,-110 171.9185,-100.2788 177.9516,-90.3634 183.5022,-82.2806"/>
<polygon fill="#63b8ff" stroke="#63b8ff" points="186.43,-84.204 189.4257,-74.0415 180.7465,-80.1178 186.43,-84.204"/>
</g>
<!-- Node15 -->
<g id="node15" class="node">
<title>Node15</title>
<g id="a_node15"><a xlink:title=" ">
<polygon fill="#e0e0e0" stroke="#999999" points="259.5,-129 176.5,-129 176.5,-110 259.5,-110 259.5,-129"/>
<text text-anchor="middle" x="218" y="-117" font-family="Helvetica,sans-Serif" font-size="10.00" fill="#000000">unordered_map</text>
</a>
</g>
</g>
<!-- Node14&#45;&gt;Node15 -->
<g id="edge16" class="edge">
<title>Node14&#45;&gt;Node15</title>
<path fill="none" stroke="#63b8ff" d="M165.9738,-164.9197C175.0758,-156.9735 188.2279,-145.4916 199.0307,-136.0605"/>
<polygon fill="#63b8ff" stroke="#63b8ff" points="201.4964,-138.5541 206.7278,-129.3408 196.8928,-133.2808 201.4964,-138.5541"/>
</g>
<!-- Node16 -->
<g id="node16" class="node">
<title>Node16</title>
<g id="a_node16"><a xlink:title=" ">
<polygon fill="#e0e0e0" stroke="#999999" points="330,-129 278,-129 278,-110 330,-110 330,-129"/>
<text text-anchor="middle" x="304" y="-117" font-family="Helvetica,sans-Serif" font-size="10.00" fill="#000000">memory</text>
</a>
</g>
</g>
<!-- Node14&#45;&gt;Node16 -->
<g id="edge18" class="edge">
<title>Node14&#45;&gt;Node16</title>
<path fill="none" stroke="#63b8ff" d="M180.9538,-164.9197C205.2363,-155.9564 241.7062,-142.4944 268.642,-132.5516"/>
<polygon fill="#63b8ff" stroke="#63b8ff" points="269.9248,-135.809 278.0941,-129.0626 267.5007,-129.2421 269.9248,-135.809"/>
</g>
<!-- Node17&#45;&gt;Node2 -->
<g id="edge24" class="edge">
<title>Node17&#45;&gt;Node2</title>
<path fill="none" stroke="#63b8ff" d="M200.8051,-274.9092C174.6417,-258.0652 119.9538,-221.3928 79,-184 63.067,-169.4524 46.9761,-150.7988 35.973,-137.2975"/>
<polygon fill="#63b8ff" stroke="#63b8ff" points="38.5169,-134.8752 29.5299,-129.2641 33.0562,-139.2549 38.5169,-134.8752"/>
</g>
<!-- Node18 -->
<g id="node18" class="node">
<title>Node18</title>
<g id="a_node18"><a xlink:href="../../d9/d49/types_8h.html" target="_top" xlink:title="This file contains a number of basic enums and types.">
<polygon fill="#ffffff" stroke="#666666" points="371.5,-184 322.5,-184 322.5,-165 371.5,-165 371.5,-184"/>
<text text-anchor="middle" x="347" y="-172" font-family="Helvetica,sans-Serif" font-size="10.00" fill="#000000">types.h</text>
</a>
</g>
</g>
<!-- Node17&#45;&gt;Node18 -->
<g id="edge25" class="edge">
<title>Node17&#45;&gt;Node18</title>
<path fill="none" stroke="#63b8ff" d="M227.6254,-274.7382C250.211,-255.7732 300.2176,-213.7829 327.8021,-190.6204"/>
<polygon fill="#63b8ff" stroke="#63b8ff" points="330.1802,-193.1938 335.5877,-184.0828 325.6788,-187.833 330.1802,-193.1938"/>
</g>
<!-- Node19 -->
<g id="node19" class="node">
<title>Node19</title>
<g id="a_node19"><a xlink:href="../../d1/d02/reflist_8h.html" target="_top" xlink:title=" ">
<polygon fill="#ffffff" stroke="#666666" points="241.5,-239 192.5,-239 192.5,-220 241.5,-220 241.5,-239"/>
<text text-anchor="middle" x="217" y="-227" font-family="Helvetica,sans-Serif" font-size="10.00" fill="#000000">reflist.h</text>
</a>
</g>
</g>
<!-- Node17&#45;&gt;Node19 -->
<g id="edge27" class="edge">
<title>Node17&#45;&gt;Node19</title>
<path fill="none" stroke="#63b8ff" d="M216.1742,-274.9197C216.3017,-267.9083 216.4792,-258.1442 216.637,-249.4652"/>
<polygon fill="#63b8ff" stroke="#63b8ff" points="220.1386,-249.4028 216.8211,-239.3408 213.1398,-249.2755 220.1386,-249.4028"/>
</g>
<!-- Node18&#45;&gt;Node4 -->
<g id="edge26" class="edge">
<title>Node18&#45;&gt;Node4</title>
<path fill="none" stroke="#63b8ff" d="M352.3998,-164.9197C356.5273,-157.5967 362.3473,-147.2709 367.3953,-138.3147"/>
<polygon fill="#63b8ff" stroke="#63b8ff" points="370.5922,-139.7709 372.4534,-129.3408 364.4941,-136.3338 370.5922,-139.7709"/>
</g>
<!-- Node19&#45;&gt;Node2 -->
<g id="edge28" class="edge">
<title>Node19&#45;&gt;Node2</title>
<path fill="none" stroke="#63b8ff" d="M192.2707,-220.6761C170.3048,-212.424 137.6467,-199.126 111,-184 85.6146,-169.59 58.7893,-149.3714 41.3087,-135.4309"/>
<polygon fill="#63b8ff" stroke="#63b8ff" points="43.5039,-132.705 33.5252,-129.1447 39.1057,-138.1507 43.5039,-132.705"/>
</g>
<!-- Node19&#45;&gt;Node4 -->
<g id="edge31" class="edge">
<title>Node19&#45;&gt;Node4</title>
<path fill="none" stroke="#63b8ff" d="M231.006,-219.9306C258.9571,-200.8337 321.8659,-157.8525 355.6099,-134.7976"/>
<polygon fill="#63b8ff" stroke="#63b8ff" points="357.6293,-137.6568 363.9117,-129.1256 353.6803,-131.877 357.6293,-137.6568"/>
</g>
<!-- Node19&#45;&gt;Node14 -->
<g id="edge32" class="edge">
<title>Node19&#45;&gt;Node14</title>
<path fill="none" stroke="#63b8ff" d="M206.2004,-219.9197C197.2428,-211.9735 184.2996,-200.4916 173.6682,-191.0605"/>
<polygon fill="#63b8ff" stroke="#63b8ff" points="175.8967,-188.3587 166.0933,-184.3408 171.2514,-193.5953 175.8967,-188.3587"/>
</g>
<!-- Node19&#45;&gt;Node15 -->
<g id="edge29" class="edge">
<title>Node19&#45;&gt;Node15</title>
<path fill="none" stroke="#63b8ff" d="M217.0887,-219.7382C217.2522,-201.7541 217.604,-163.0652 217.8195,-139.3599"/>
<polygon fill="#63b8ff" stroke="#63b8ff" points="221.3217,-139.1143 217.9129,-129.0828 214.322,-139.0506 221.3217,-139.1143"/>
</g>
<!-- Node19&#45;&gt;Node16 -->
<g id="edge30" class="edge">
<title>Node19&#45;&gt;Node16</title>
<path fill="none" stroke="#63b8ff" d="M224.7207,-219.7382C239.397,-201.1819 271.5077,-160.5822 290.0454,-137.1438"/>
<polygon fill="#63b8ff" stroke="#63b8ff" points="292.9626,-139.0974 296.4209,-129.0828 287.4723,-134.755 292.9626,-139.0974"/>
</g>
</g>
</svg>
