<?xml version="1.0" encoding="UTF-8" standalone="no"?>
<!DOCTYPE svg PUBLIC "-//W3C//DTD SVG 1.1//EN"
 "http://www.w3.org/Graphics/SVG/1.1/DTD/svg11.dtd">
<!-- Generated by graphviz version 2.43.0 (0)
 -->
<!-- Title: src/dotgroupcollaboration.h Pages: 1 -->
<svg width="752pt" height="82pt"
 viewBox="0.00 0.00 752.00 82.00" xmlns="http://www.w3.org/2000/svg" xmlns:xlink="http://www.w3.org/1999/xlink">
<g id="graph0" class="graph" transform="scale(1 1) rotate(0) translate(4 78)">
<title>src/dotgroupcollaboration.h</title>
<!-- Node1 -->
<g id="node1" class="node">
<title>Node1</title>
<g id="a_node1"><a xlink:title=" ">
<polygon fill="#999999" stroke="#666666" points="468.5,-74 318.5,-74 318.5,-55 468.5,-55 468.5,-74"/>
<text text-anchor="middle" x="393.5" y="-62" font-family="Helvetica,sans-Serif" font-size="10.00">src/dotgroupcollaboration.h</text>
</a>
</g>
</g>
<!-- Node2 -->
<g id="node2" class="node">
<title>Node2</title>
<g id="a_node2"><a xlink:href="../../db/d12/context_8cpp.html" target="_top" xlink:title=" ">
<polygon fill="white" stroke="#666666" points="91,-19 0,-19 0,0 91,0 91,-19"/>
<text text-anchor="middle" x="45.5" y="-7" font-family="Helvetica,sans-Serif" font-size="10.00">src/context.cpp</text>
</a>
</g>
</g>
<!-- Node1&#45;&gt;Node2 -->
<g id="edge1" class="edge">
<title>Node1&#45;&gt;Node2</title>
<path fill="none" stroke="#63b8ff" d="M326.54,-53.48C266.94,-44.53 177.39,-31.02 99.5,-19 96.78,-18.58 93.98,-18.15 91.16,-17.71"/>
<polygon fill="#63b8ff" stroke="#63b8ff" points="326.17,-56.96 336.57,-54.99 327.2,-50.04 326.17,-56.96"/>
</g>
<!-- Node3 -->
<g id="node3" class="node">
<title>Node3</title>
<g id="a_node3"><a xlink:href="../../d8/d29/docbookgen_8cpp.html" target="_top" xlink:title=" ">
<polygon fill="white" stroke="#666666" points="222,-19 109,-19 109,0 222,0 222,-19"/>
<text text-anchor="middle" x="165.5" y="-7" font-family="Helvetica,sans-Serif" font-size="10.00">src/docbookgen.cpp</text>
</a>
</g>
</g>
<!-- Node1&#45;&gt;Node3 -->
<g id="edge2" class="edge">
<title>Node1&#45;&gt;Node3</title>
<path fill="none" stroke="#63b8ff" d="M347,-52.69C304.28,-42.76 241.8,-28.24 202.42,-19.08"/>
<polygon fill="#63b8ff" stroke="#63b8ff" points="346.34,-56.13 356.87,-54.98 347.92,-49.31 346.34,-56.13"/>
</g>
<!-- Node4 -->
<g id="node4" class="node">
<title>Node4</title>
<g id="a_node4"><a xlink:href="../../d1/d86/dotgroupcollaboration_8cpp.html" target="_top" xlink:title=" ">
<polygon fill="white" stroke="#666666" points="401,-19 240,-19 240,0 401,0 401,-19"/>
<text text-anchor="middle" x="320.5" y="-7" font-family="Helvetica,sans-Serif" font-size="10.00">src/dotgroupcollaboration.cpp</text>
</a>
</g>
</g>
<!-- Node1&#45;&gt;Node4 -->
<g id="edge3" class="edge">
<title>Node1&#45;&gt;Node4</title>
<path fill="none" stroke="#63b8ff" d="M373.36,-48.88C360.22,-39.34 343.52,-27.21 332.44,-19.17"/>
<polygon fill="#63b8ff" stroke="#63b8ff" points="371.62,-51.94 381.77,-54.98 375.74,-46.28 371.62,-51.94"/>
</g>
<!-- Node5 -->
<g id="node5" class="node">
<title>Node5</title>
<g id="a_node5"><a xlink:href="../../d6/d42/groupdef_8cpp.html" target="_top" xlink:title=" ">
<polygon fill="white" stroke="#666666" points="516,-19 419,-19 419,0 516,0 516,-19"/>
<text text-anchor="middle" x="467.5" y="-7" font-family="Helvetica,sans-Serif" font-size="10.00">src/groupdef.cpp</text>
</a>
</g>
</g>
<!-- Node1&#45;&gt;Node5 -->
<g id="edge4" class="edge">
<title>Node1&#45;&gt;Node5</title>
<path fill="none" stroke="#63b8ff" d="M413.53,-49.15C426.91,-39.57 444.06,-27.29 455.39,-19.17"/>
<polygon fill="#63b8ff" stroke="#63b8ff" points="411.48,-46.32 405.39,-54.98 415.56,-52.01 411.48,-46.32"/>
</g>
<!-- Node6 -->
<g id="node6" class="node">
<title>Node6</title>
<g id="a_node6"><a xlink:href="../../d8/d6e/htmlgen_8cpp.html" target="_top" xlink:title=" ">
<polygon fill="white" stroke="#666666" points="629,-19 534,-19 534,0 629,0 629,-19"/>
<text text-anchor="middle" x="581.5" y="-7" font-family="Helvetica,sans-Serif" font-size="10.00">src/htmlgen.cpp</text>
</a>
</g>
</g>
<!-- Node1&#45;&gt;Node6 -->
<g id="edge5" class="edge">
<title>Node1&#45;&gt;Node6</title>
<path fill="none" stroke="#63b8ff" d="M433.64,-52.18C468.8,-42.27 519.13,-28.08 551.06,-19.08"/>
<polygon fill="#63b8ff" stroke="#63b8ff" points="432.38,-48.9 423.71,-54.98 434.28,-55.64 432.38,-48.9"/>
</g>
<!-- Node7 -->
<g id="node7" class="node">
<title>Node7</title>
<g id="a_node7"><a xlink:href="../../d4/d42/latexgen_8cpp.html" target="_top" xlink:title=" ">
<polygon fill="white" stroke="#666666" points="744,-19 647,-19 647,0 744,0 744,-19"/>
<text text-anchor="middle" x="695.5" y="-7" font-family="Helvetica,sans-Serif" font-size="10.00">src/latexgen.cpp</text>
</a>
</g>
</g>
<!-- Node1&#45;&gt;Node7 -->
<g id="edge6" class="edge">
<title>Node1&#45;&gt;Node7</title>
<path fill="none" stroke="#63b8ff" d="M451.92,-53.25C508.63,-43.3 593.71,-28.36 646.85,-19.04"/>
<polygon fill="#63b8ff" stroke="#63b8ff" points="451.27,-49.81 442.02,-54.98 452.48,-56.7 451.27,-49.81"/>
</g>
</g>
</svg>
