<?xml version="1.0" encoding="UTF-8" standalone="no"?>
<!DOCTYPE svg PUBLIC "-//W3C//DTD SVG 1.1//EN"
 "http://www.w3.org/Graphics/SVG/1.1/DTD/svg11.dtd">
<!-- Generated by graphviz version 2.40.1 (20161225.0304)
 -->
<!-- Title: src/dotgroupcollaboration.h Pages: 1 -->
<svg width="696pt" height="82pt"
 viewBox="0.00 0.00 695.50 82.00" xmlns="http://www.w3.org/2000/svg" xmlns:xlink="http://www.w3.org/1999/xlink">
<g id="graph0" class="graph" transform="scale(1 1) rotate(0) translate(4 78)">
<title>src/dotgroupcollaboration.h</title>
<!-- Node1 -->
<g id="node1" class="node">
<title>Node1</title>
<g id="a_node1"><a xlink:title=" ">
<polygon fill="#999999" stroke="#666666" points="430,-74 296,-74 296,-55 430,-55 430,-74"/>
<text text-anchor="middle" x="363" y="-62" font-family="Helvetica,sans-Serif" font-size="10.00" fill="#000000">src/dotgroupcollaboration.h</text>
</a>
</g>
</g>
<!-- Node2 -->
<g id="node2" class="node">
<title>Node2</title>
<g id="a_node2"><a xlink:href="../../db/d12/context_8cpp.html" target="_top" xlink:title=" ">
<polygon fill="#ffffff" stroke="#666666" points="84,-19 0,-19 0,0 84,0 84,-19"/>
<text text-anchor="middle" x="42" y="-7" font-family="Helvetica,sans-Serif" font-size="10.00" fill="#000000">src/context.cpp</text>
</a>
</g>
</g>
<!-- Node1&#45;&gt;Node2 -->
<g id="edge1" class="edge">
<title>Node1&#45;&gt;Node2</title>
<path fill="none" stroke="#63b8ff" d="M294.8383,-53.3466C240.2139,-44.3281 161.6278,-31.1734 93,-19 90.0735,-18.4809 87.0541,-17.9378 84.0143,-17.3854"/>
<polygon fill="#63b8ff" stroke="#63b8ff" points="294.315,-56.8075 304.7512,-54.9813 295.454,-49.9008 294.315,-56.8075"/>
</g>
<!-- Node3 -->
<g id="node3" class="node">
<title>Node3</title>
<g id="a_node3"><a xlink:href="../../d8/d29/docbookgen_8cpp.html" target="_top" xlink:title=" ">
<polygon fill="#ffffff" stroke="#666666" points="206,-19 102,-19 102,0 206,0 206,-19"/>
<text text-anchor="middle" x="154" y="-7" font-family="Helvetica,sans-Serif" font-size="10.00" fill="#000000">src/docbookgen.cpp</text>
</a>
</g>
</g>
<!-- Node1&#45;&gt;Node3 -->
<g id="edge2" class="edge">
<title>Node1&#45;&gt;Node3</title>
<path fill="none" stroke="#63b8ff" d="M316.7722,-52.3348C278.6864,-42.3122 225.4211,-28.295 190.3379,-19.0626"/>
<polygon fill="#63b8ff" stroke="#63b8ff" points="316.0335,-55.7595 326.595,-54.9197 317.815,-48.99 316.0335,-55.7595"/>
</g>
<!-- Node4 -->
<g id="node4" class="node">
<title>Node4</title>
<g id="a_node4"><a xlink:href="../../d1/d86/dotgroupcollaboration_8cpp.html" target="_top" xlink:title=" ">
<polygon fill="#ffffff" stroke="#666666" points="368,-19 224,-19 224,0 368,0 368,-19"/>
<text text-anchor="middle" x="296" y="-7" font-family="Helvetica,sans-Serif" font-size="10.00" fill="#000000">src/dotgroupcollaboration.cpp</text>
</a>
</g>
</g>
<!-- Node1&#45;&gt;Node4 -->
<g id="edge3" class="edge">
<title>Node1&#45;&gt;Node4</title>
<path fill="none" stroke="#63b8ff" d="M343.5358,-48.522C332.0418,-39.0865 317.8566,-27.442 307.9879,-19.3408"/>
<polygon fill="#63b8ff" stroke="#63b8ff" points="341.3794,-51.28 351.3295,-54.9197 345.8209,-45.8695 341.3794,-51.28"/>
</g>
<!-- Node5 -->
<g id="node5" class="node">
<title>Node5</title>
<g id="a_node5"><a xlink:href="../../d6/d42/groupdef_8cpp.html" target="_top" xlink:title=" ">
<polygon fill="#ffffff" stroke="#666666" points="475.5,-19 386.5,-19 386.5,0 475.5,0 475.5,-19"/>
<text text-anchor="middle" x="431" y="-7" font-family="Helvetica,sans-Serif" font-size="10.00" fill="#000000">src/groupdef.cpp</text>
</a>
</g>
</g>
<!-- Node1&#45;&gt;Node5 -->
<g id="edge4" class="edge">
<title>Node1&#45;&gt;Node5</title>
<path fill="none" stroke="#63b8ff" d="M382.7547,-48.522C394.4203,-39.0865 408.8172,-27.442 418.8332,-19.3408"/>
<polygon fill="#63b8ff" stroke="#63b8ff" points="380.4188,-45.9097 374.8447,-54.9197 384.8209,-51.3523 380.4188,-45.9097"/>
</g>
<!-- Node6 -->
<g id="node6" class="node">
<title>Node6</title>
<g id="a_node6"><a xlink:href="../../d8/d6e/htmlgen_8cpp.html" target="_top" xlink:title=" ">
<polygon fill="#ffffff" stroke="#666666" points="580,-19 494,-19 494,0 580,0 580,-19"/>
<text text-anchor="middle" x="537" y="-7" font-family="Helvetica,sans-Serif" font-size="10.00" fill="#000000">src/htmlgen.cpp</text>
</a>
</g>
</g>
<!-- Node1&#45;&gt;Node6 -->
<g id="edge5" class="edge">
<title>Node1&#45;&gt;Node6</title>
<path fill="none" stroke="#63b8ff" d="M403.1163,-51.8196C434.6993,-41.8364 478.0365,-28.1379 506.7474,-19.0626"/>
<polygon fill="#63b8ff" stroke="#63b8ff" points="401.7886,-48.5685 393.3085,-54.9197 403.8984,-55.243 401.7886,-48.5685"/>
</g>
<!-- Node7 -->
<g id="node7" class="node">
<title>Node7</title>
<g id="a_node7"><a xlink:href="../../d4/d42/latexgen_8cpp.html" target="_top" xlink:title=" ">
<polygon fill="#ffffff" stroke="#666666" points="687.5,-19 598.5,-19 598.5,0 687.5,0 687.5,-19"/>
<text text-anchor="middle" x="643" y="-7" font-family="Helvetica,sans-Serif" font-size="10.00" fill="#000000">src/latexgen.cpp</text>
</a>
</g>
</g>
<!-- Node1&#45;&gt;Node7 -->
<g id="edge6" class="edge">
<title>Node1&#45;&gt;Node7</title>
<path fill="none" stroke="#63b8ff" d="M421.329,-53.0425C474.0113,-42.6942 550.419,-27.6855 598.372,-18.2662"/>
<polygon fill="#63b8ff" stroke="#63b8ff" points="420.5905,-49.6206 411.4526,-54.9825 421.9397,-56.4894 420.5905,-49.6206"/>
</g>
</g>
</svg>
