<?xml version="1.0" encoding="UTF-8" standalone="no"?>
<!DOCTYPE svg PUBLIC "-//W3C//DTD SVG 1.1//EN"
 "http://www.w3.org/Graphics/SVG/1.1/DTD/svg11.dtd">
<!-- Generated by graphviz version 2.40.1 (20161225.0304)
 -->
<!-- Title: FortranOutlineParser::Private Pages: 1 -->
<svg width="962pt" height="547pt"
 viewBox="0.00 0.00 962.00 547.00" xmlns="http://www.w3.org/2000/svg" xmlns:xlink="http://www.w3.org/1999/xlink">
<g id="graph0" class="graph" transform="scale(1 1) rotate(0) translate(4 543)">
<title>FortranOutlineParser::Private</title>
<!-- Node1 -->
<g id="node1" class="node">
<title>Node1</title>
<g id="a_node1"><a xlink:title=" ">
<polygon fill="#999999" stroke="#666666" points="328.5,-30 221.5,-30 221.5,0 328.5,0 328.5,-30"/>
<text text-anchor="start" x="229.5" y="-18" font-family="Helvetica,sans-Serif" font-size="10.00" fill="#000000">FortranOutlineParser</text>
<text text-anchor="middle" x="275" y="-7" font-family="Helvetica,sans-Serif" font-size="10.00" fill="#000000">::Private</text>
</a>
</g>
</g>
<!-- Node2 -->
<g id="node2" class="node">
<title>Node2</title>
<g id="a_node2"><a xlink:href="../../d6/d4a/structfortranscanner_y_y__state.html" target="_top" xlink:title=" ">
<polygon fill="#ffffff" stroke="#666666" points="334.5,-96 215.5,-96 215.5,-77 334.5,-77 334.5,-96"/>
<text text-anchor="middle" x="275" y="-84" font-family="Helvetica,sans-Serif" font-size="10.00" fill="#000000">fortranscannerYY_state</text>
</a>
</g>
</g>
<!-- Node2&#45;&gt;Node1 -->
<g id="edge1" class="edge">
<title>Node2&#45;&gt;Node1</title>
<path fill="none" stroke="#9a32cd" stroke-dasharray="5,2" d="M275,-66.5057C275,-55.0142 275,-40.8078 275,-30.2276"/>
<polygon fill="#9a32cd" stroke="#9a32cd" points="271.5001,-66.8572 275,-76.8572 278.5001,-66.8572 271.5001,-66.8572"/>
<text text-anchor="middle" x="287.5" y="-51" font-family="Helvetica,sans-Serif" font-size="10.00" fill="#000000"> extra</text>
</g>
<!-- Node3 -->
<g id="node3" class="node">
<title>Node3</title>
<g id="a_node3"><a xlink:href="../../d5/d79/class_outline_parser_interface.html" target="_top" xlink:title="Abstract interface for outline parsers.">
<polygon fill="#ffffff" stroke="#666666" points="114,-173 0,-173 0,-154 114,-154 114,-173"/>
<text text-anchor="middle" x="57" y="-161" font-family="Helvetica,sans-Serif" font-size="10.00" fill="#000000">OutlineParserInterface</text>
</a>
</g>
</g>
<!-- Node3&#45;&gt;Node2 -->
<g id="edge2" class="edge">
<title>Node3&#45;&gt;Node2</title>
<path fill="none" stroke="#9a32cd" stroke-dasharray="5,2" d="M74.1987,-147.0277C86.7449,-135.9587 104.6916,-121.9845 123,-114 152.006,-101.3502 186.5666,-94.5192 215.3983,-90.8304"/>
<polygon fill="#9a32cd" stroke="#9a32cd" points="71.8144,-144.4651 66.7844,-153.7898 76.5315,-149.6371 71.8144,-144.4651"/>
<text text-anchor="middle" x="147" y="-122.5" font-family="Helvetica,sans-Serif" font-size="10.00" fill="#000000"> thisParser</text>
</g>
<!-- Node4 -->
<g id="node4" class="node">
<title>Node4</title>
<g id="a_node4"><a xlink:href="../../d0/d6b/class_comment_scanner.html" target="_top" xlink:title=" ">
<polygon fill="#ffffff" stroke="#666666" points="227.5,-173 132.5,-173 132.5,-154 227.5,-154 227.5,-173"/>
<text text-anchor="middle" x="180" y="-161" font-family="Helvetica,sans-Serif" font-size="10.00" fill="#000000">CommentScanner</text>
</a>
</g>
</g>
<!-- Node4&#45;&gt;Node2 -->
<g id="edge3" class="edge">
<title>Node4&#45;&gt;Node2</title>
<path fill="none" stroke="#9a32cd" stroke-dasharray="5,2" d="M175.2566,-143.5171C174.114,-133.6955 174.6997,-122.2329 181,-114 186.6317,-106.6407 204.5089,-100.5629 223.1828,-96.0094"/>
<polygon fill="#9a32cd" stroke="#9a32cd" points="171.8628,-144.4216 177.0687,-153.6492 178.7535,-143.1892 171.8628,-144.4216"/>
<text text-anchor="middle" x="221" y="-122.5" font-family="Helvetica,sans-Serif" font-size="10.00" fill="#000000"> commentScanner</text>
</g>
<!-- Node5 -->
<g id="node5" class="node">
<title>Node5</title>
<g id="a_node5"><a xlink:href="../../d9/d45/class_q_c_string.html" target="_top" xlink:title="This is an alternative implementation of QCString.">
<polygon fill="#ffffff" stroke="#666666" points="476.5,-539 419.5,-539 419.5,-520 476.5,-520 476.5,-539"/>
<text text-anchor="middle" x="448" y="-527" font-family="Helvetica,sans-Serif" font-size="10.00" fill="#000000">QCString</text>
</a>
</g>
</g>
<!-- Node5&#45;&gt;Node2 -->
<g id="edge4" class="edge">
<title>Node5&#45;&gt;Node2</title>
<path fill="none" stroke="#9a32cd" stroke-dasharray="5,2" d="M439.3921,-510.7228C438.1859,-507.8281 437.0138,-504.853 436,-502 403.2508,-409.843 395.5326,-386.0311 377,-290 365.477,-230.2907 391.7077,-207.0606 362,-154 346.8705,-126.9773 316.05,-107.1248 295.456,-96.1889"/>
<polygon fill="#9a32cd" stroke="#9a32cd" points="436.2218,-512.2084 443.444,-519.9602 442.6322,-509.3965 436.2218,-512.2084"/>
<text text-anchor="middle" x="418.5" y="-282" font-family="Helvetica,sans-Serif" font-size="10.00" fill="#000000"> argName</text>
<text text-anchor="middle" x="418.5" y="-271" font-family="Helvetica,sans-Serif" font-size="10.00" fill="#000000">argType</text>
<text text-anchor="middle" x="418.5" y="-260" font-family="Helvetica,sans-Serif" font-size="10.00" fill="#000000">debugStr</text>
<text text-anchor="middle" x="418.5" y="-249" font-family="Helvetica,sans-Serif" font-size="10.00" fill="#000000">docBlock</text>
<text text-anchor="middle" x="418.5" y="-238" font-family="Helvetica,sans-Serif" font-size="10.00" fill="#000000">fileName</text>
<text text-anchor="middle" x="418.5" y="-227" font-family="Helvetica,sans-Serif" font-size="10.00" fill="#000000">initializer</text>
<text text-anchor="middle" x="418.5" y="-216" font-family="Helvetica,sans-Serif" font-size="10.00" fill="#000000">inputStringPrepass</text>
<text text-anchor="middle" x="418.5" y="-205" font-family="Helvetica,sans-Serif" font-size="10.00" fill="#000000">inputStringSemi</text>
<text text-anchor="middle" x="418.5" y="-194" font-family="Helvetica,sans-Serif" font-size="10.00" fill="#000000">useModuleName</text>
</g>
<!-- Node6 -->
<g id="node6" class="node">
<title>Node6</title>
<g id="a_node6"><a xlink:href="../../d4/dd7/class_entry.html" target="_top" xlink:title="Represents an unstructured piece of information, about an entity found in the sources.">
<polygon fill="#ffffff" stroke="#666666" points="652,-173 612,-173 612,-154 652,-154 652,-173"/>
<text text-anchor="middle" x="632" y="-161" font-family="Helvetica,sans-Serif" font-size="10.00" fill="#000000">Entry</text>
</a>
</g>
</g>
<!-- Node5&#45;&gt;Node6 -->
<g id="edge6" class="edge">
<title>Node5&#45;&gt;Node6</title>
<path fill="none" stroke="#9a32cd" stroke-dasharray="5,2" d="M444.8804,-509.8742C439.4139,-470.2519 430.9954,-378.478 457,-308 479.8989,-245.9392 494.8631,-229.0145 549,-191 568.0075,-177.6531 593.9421,-170.4371 611.7344,-166.7911"/>
<polygon fill="#9a32cd" stroke="#9a32cd" points="441.424,-510.4271 446.3451,-519.8097 448.3492,-509.4062 441.424,-510.4271"/>
<text text-anchor="middle" x="483" y="-421" font-family="Helvetica,sans-Serif" font-size="10.00" fill="#000000"> args</text>
<text text-anchor="middle" x="483" y="-410" font-family="Helvetica,sans-Serif" font-size="10.00" fill="#000000">bitfields</text>
<text text-anchor="middle" x="483" y="-399" font-family="Helvetica,sans-Serif" font-size="10.00" fill="#000000">brief</text>
<text text-anchor="middle" x="483" y="-388" font-family="Helvetica,sans-Serif" font-size="10.00" fill="#000000">briefFile</text>
<text text-anchor="middle" x="483" y="-377" font-family="Helvetica,sans-Serif" font-size="10.00" fill="#000000">doc</text>
<text text-anchor="middle" x="483" y="-366" font-family="Helvetica,sans-Serif" font-size="10.00" fill="#000000">docFile</text>
<text text-anchor="middle" x="483" y="-355" font-family="Helvetica,sans-Serif" font-size="10.00" fill="#000000">exception</text>
<text text-anchor="middle" x="483" y="-344" font-family="Helvetica,sans-Serif" font-size="10.00" fill="#000000">fileName</text>
<text text-anchor="middle" x="483" y="-333" font-family="Helvetica,sans-Serif" font-size="10.00" fill="#000000">id</text>
<text text-anchor="middle" x="483" y="-322" font-family="Helvetica,sans-Serif" font-size="10.00" fill="#000000">inbodyDocs</text>
<text text-anchor="middle" x="483" y="-311" font-family="Helvetica,sans-Serif" font-size="10.00" fill="#000000">...</text>
</g>
<!-- Node7 -->
<g id="node7" class="node">
<title>Node7</title>
<g id="a_node7"><a xlink:href="../../d3/dc3/struct_tag_info.html" target="_top" xlink:title="This struct is used to capture the tag file information for an Entry.">
<polygon fill="#ffffff" stroke="#666666" points="728,-378 678,-378 678,-359 728,-359 728,-378"/>
<text text-anchor="middle" x="703" y="-366" font-family="Helvetica,sans-Serif" font-size="10.00" fill="#000000">TagInfo</text>
</a>
</g>
</g>
<!-- Node5&#45;&gt;Node7 -->
<g id="edge8" class="edge">
<title>Node5&#45;&gt;Node7</title>
<path fill="none" stroke="#9a32cd" stroke-dasharray="5,2" d="M474.072,-514.9028C506.1193,-497.3285 562.476,-467.6102 613,-447 637.2064,-437.1255 648.7527,-445.5379 669,-429 685.6098,-415.4332 695.5592,-391.4834 700.0802,-378.1485"/>
<polygon fill="#9a32cd" stroke="#9a32cd" points="472.0035,-512.0467 464.9401,-519.9435 475.3863,-518.1751 472.0035,-512.0467"/>
<text text-anchor="middle" x="633" y="-483" font-family="Helvetica,sans-Serif" font-size="10.00" fill="#000000"> anchor</text>
<text text-anchor="middle" x="633" y="-472" font-family="Helvetica,sans-Serif" font-size="10.00" fill="#000000">fileName</text>
<text text-anchor="middle" x="633" y="-461" font-family="Helvetica,sans-Serif" font-size="10.00" fill="#000000">tagName</text>
</g>
<!-- Node8 -->
<g id="node8" class="node">
<title>Node8</title>
<g id="a_node8"><a xlink:href="../../d7/df8/class_argument_list.html" target="_top" xlink:title="This class represents an function or template argument list.">
<polygon fill="#ffffff" stroke="#666666" points="820,-378 746,-378 746,-359 820,-359 820,-378"/>
<text text-anchor="middle" x="783" y="-366" font-family="Helvetica,sans-Serif" font-size="10.00" fill="#000000">ArgumentList</text>
</a>
</g>
</g>
<!-- Node5&#45;&gt;Node8 -->
<g id="edge10" class="edge">
<title>Node5&#45;&gt;Node8</title>
<path fill="none" stroke="#9a32cd" stroke-dasharray="5,2" d="M486.8055,-526.9566C537.7643,-523.1629 624.146,-515.038 653,-502 698.0734,-481.6331 703.1872,-465.0987 737,-429 752.5148,-412.4364 767.9467,-390.8195 776.4035,-378.4167"/>
<polygon fill="#9a32cd" stroke="#9a32cd" points="486.5297,-523.4673 476.8081,-527.6792 487.0344,-530.4491 486.5297,-523.4673"/>
<text text-anchor="middle" x="767.5" y="-472" font-family="Helvetica,sans-Serif" font-size="10.00" fill="#000000"> m_trailingReturnType</text>
</g>
<!-- Node14 -->
<g id="node14" class="node">
<title>Node14</title>
<g id="a_node14"><a xlink:href="../../df/d1b/struct_symbol_modifiers.html" target="_top" xlink:title="Holds yyextra&#45;&gt;modifiers (ie attributes) for one symbol (variable, function, etc)">
<polygon fill="#ffffff" stroke="#666666" points="336.5,-250 247.5,-250 247.5,-231 336.5,-231 336.5,-250"/>
<text text-anchor="middle" x="292" y="-238" font-family="Helvetica,sans-Serif" font-size="10.00" fill="#000000">SymbolModifiers</text>
</a>
</g>
</g>
<!-- Node5&#45;&gt;Node14 -->
<g id="edge18" class="edge">
<title>Node5&#45;&gt;Node14</title>
<path fill="none" stroke="#9a32cd" stroke-dasharray="5,2" d="M408.9797,-526.9175C372.8428,-523.6437 322.8124,-516.5667 310,-502 243.8797,-426.8264 278.1102,-287.733 289.0451,-250.0996"/>
<polygon fill="#9a32cd" stroke="#9a32cd" points="408.9676,-530.4288 419.2258,-527.7794 409.5544,-523.4534 408.9676,-530.4288"/>
<text text-anchor="middle" x="336" y="-494" font-family="Helvetica,sans-Serif" font-size="10.00" fill="#000000"> bindVar</text>
<text text-anchor="middle" x="336" y="-483" font-family="Helvetica,sans-Serif" font-size="10.00" fill="#000000">dimension</text>
<text text-anchor="middle" x="336" y="-472" font-family="Helvetica,sans-Serif" font-size="10.00" fill="#000000">passVar</text>
<text text-anchor="middle" x="336" y="-461" font-family="Helvetica,sans-Serif" font-size="10.00" fill="#000000">returnName</text>
<text text-anchor="middle" x="336" y="-450" font-family="Helvetica,sans-Serif" font-size="10.00" fill="#000000">type</text>
</g>
<!-- Node6&#45;&gt;Node2 -->
<g id="edge5" class="edge">
<title>Node6&#45;&gt;Node2</title>
<path fill="none" stroke="#9a32cd" stroke-dasharray="5,2" d="M601.6849,-156.9615C538.5419,-143.3424 392.6948,-111.8852 319.1291,-96.018"/>
<polygon fill="#9a32cd" stroke="#9a32cd" points="601.2701,-160.4524 611.7833,-159.1395 602.746,-153.6097 601.2701,-160.4524"/>
<text text-anchor="middle" x="524" y="-128" font-family="Helvetica,sans-Serif" font-size="10.00" fill="#000000"> current_root</text>
<text text-anchor="middle" x="524" y="-117" font-family="Helvetica,sans-Serif" font-size="10.00" fill="#000000">global_scope</text>
</g>
<!-- Node6&#45;&gt;Node6 -->
<g id="edge13" class="edge">
<title>Node6&#45;&gt;Node6</title>
<path fill="none" stroke="#9a32cd" stroke-dasharray="5,2" d="M662.4158,-169.9625C666.9402,-168.9557 670,-166.8016 670,-163.5 670,-158.082 661.7602,-155.754 652.3294,-156.5159"/>
<polygon fill="#9a32cd" stroke="#9a32cd" points="662.1353,-166.4722 652.3294,-170.4841 662.4969,-173.4629 662.1353,-166.4722"/>
<text text-anchor="middle" x="692" y="-161" font-family="Helvetica,sans-Serif" font-size="10.00" fill="#000000"> m_parent</text>
</g>
<!-- Node7&#45;&gt;Node6 -->
<g id="edge7" class="edge">
<title>Node7&#45;&gt;Node6</title>
<path fill="none" stroke="#9a32cd" stroke-dasharray="5,2" d="M702.0614,-348.9202C699.7937,-308.3429 692.9038,-216.7122 676,-191 670.3587,-182.419 661.0163,-176.0271 652.3878,-171.5763"/>
<polygon fill="#9a32cd" stroke="#9a32cd" points="698.5665,-349.11 702.5829,-358.914 705.557,-348.7452 698.5665,-349.11"/>
<text text-anchor="middle" x="724.5" y="-238" font-family="Helvetica,sans-Serif" font-size="10.00" fill="#000000"> tagInfoData</text>
</g>
<!-- Node8&#45;&gt;Node6 -->
<g id="edge9" class="edge">
<title>Node8&#45;&gt;Node6</title>
<path fill="none" stroke="#9a32cd" stroke-dasharray="5,2" d="M782.7067,-348.4124C781.6743,-306.8632 777.0142,-213.478 756,-191 742.0704,-176.1001 683.5167,-168.3739 652.1091,-165.2343"/>
<polygon fill="#9a32cd" stroke="#9a32cd" points="779.2122,-348.7271 782.9123,-358.6549 786.2108,-348.5866 779.2122,-348.7271"/>
<text text-anchor="middle" x="803.5" y="-243.5" font-family="Helvetica,sans-Serif" font-size="10.00" fill="#000000"> argList</text>
<text text-anchor="middle" x="803.5" y="-232.5" font-family="Helvetica,sans-Serif" font-size="10.00" fill="#000000">typeConstr</text>
</g>
<!-- Node9 -->
<g id="node9" class="node">
<title>Node9</title>
<g id="a_node9"><a xlink:href="../../d3/d30/class_text_stream.html" target="_top" xlink:title="Text streaming class that buffers data.">
<polygon fill="#ffffff" stroke="#666666" points="586,-378 518,-378 518,-359 586,-359 586,-378"/>
<text text-anchor="middle" x="552" y="-366" font-family="Helvetica,sans-Serif" font-size="10.00" fill="#000000">TextStream</text>
</a>
</g>
</g>
<!-- Node9&#45;&gt;Node6 -->
<g id="edge11" class="edge">
<title>Node9&#45;&gt;Node6</title>
<path fill="none" stroke="#9a32cd" stroke-dasharray="5,2" d="M550.7749,-348.1896C549.6784,-312.9238 552.0574,-239.5007 586,-191 592.2952,-182.0048 602.5603,-175.4593 611.7981,-171.0164"/>
<polygon fill="#9a32cd" stroke="#9a32cd" points="547.2968,-348.7615 551.2394,-358.5954 554.2899,-348.4493 547.2968,-348.7615"/>
<text text-anchor="middle" x="607" y="-243.5" font-family="Helvetica,sans-Serif" font-size="10.00" fill="#000000"> initializer</text>
<text text-anchor="middle" x="607" y="-232.5" font-family="Helvetica,sans-Serif" font-size="10.00" fill="#000000">program</text>
</g>
<!-- Node10 -->
<g id="node10" class="node">
<title>Node10</title>
<g id="a_node10"><a xlink:href="../../da/d1d/class_local_toc.html" target="_top" xlink:title=" ">
<polygon fill="#ffffff" stroke="#666666" points="660,-378 604,-378 604,-359 660,-359 660,-378"/>
<text text-anchor="middle" x="632" y="-366" font-family="Helvetica,sans-Serif" font-size="10.00" fill="#000000">LocalToc</text>
</a>
</g>
</g>
<!-- Node10&#45;&gt;Node6 -->
<g id="edge12" class="edge">
<title>Node10&#45;&gt;Node6</title>
<path fill="none" stroke="#9a32cd" stroke-dasharray="5,2" d="M632,-348.865C632,-305.9693 632,-205.1835 632,-173.3304"/>
<polygon fill="#9a32cd" stroke="#9a32cd" points="628.5001,-348.8873 632,-358.8874 635.5001,-348.8874 628.5001,-348.8873"/>
<text text-anchor="middle" x="652" y="-238" font-family="Helvetica,sans-Serif" font-size="10.00" fill="#000000"> localToc</text>
</g>
<!-- Node11 -->
<g id="node11" class="node">
<title>Node11</title>
<g id="a_node11"><a xlink:href="../../de/db0/class_file_def.html" target="_top" xlink:title="A model of a file symbol.">
<polygon fill="#ffffff" stroke="#666666" points="886,-378 838,-378 838,-359 886,-359 886,-378"/>
<text text-anchor="middle" x="862" y="-366" font-family="Helvetica,sans-Serif" font-size="10.00" fill="#000000">FileDef</text>
</a>
</g>
</g>
<!-- Node11&#45;&gt;Node6 -->
<g id="edge14" class="edge">
<title>Node11&#45;&gt;Node6</title>
<path fill="none" stroke="#9a32cd" stroke-dasharray="5,2" d="M865.3799,-348.6699C870.4082,-311.8327 875.1067,-232.7995 832,-191 819.1989,-178.5871 700.3694,-168.5315 652.1691,-164.9292"/>
<polygon fill="#9a32cd" stroke="#9a32cd" points="861.9041,-348.247 863.8614,-358.6595 868.8246,-349.2991 861.9041,-348.247"/>
<text text-anchor="middle" x="891" y="-238" font-family="Helvetica,sans-Serif" font-size="10.00" fill="#000000"> m_fileDef</text>
</g>
<!-- Node12 -->
<g id="node12" class="node">
<title>Node12</title>
<g id="a_node12"><a xlink:href="../../d0/d46/class_definition_mutable.html" target="_top" xlink:title=" ">
<polygon fill="#ffffff" stroke="#666666" points="954,-539 862,-539 862,-520 954,-520 954,-539"/>
<text text-anchor="middle" x="908" y="-527" font-family="Helvetica,sans-Serif" font-size="10.00" fill="#000000">DefinitionMutable</text>
</a>
</g>
</g>
<!-- Node12&#45;&gt;Node11 -->
<g id="edge15" class="edge">
<title>Node12&#45;&gt;Node11</title>
<path fill="none" stroke="#63b8ff" d="M902.4427,-510.0496C892.5433,-475.4015 872.1998,-404.1994 864.7836,-378.2424"/>
<polygon fill="#63b8ff" stroke="#63b8ff" points="899.1476,-511.2572 905.2602,-519.9109 905.8783,-509.3341 899.1476,-511.2572"/>
</g>
<!-- Node13 -->
<g id="node13" class="node">
<title>Node13</title>
<g id="a_node13"><a xlink:href="../../d5/dcc/class_definition.html" target="_top" xlink:title="The common base class of all entity definitions found in the sources.">
<polygon fill="#ffffff" stroke="#666666" points="844,-539 786,-539 786,-520 844,-520 844,-539"/>
<text text-anchor="middle" x="815" y="-527" font-family="Helvetica,sans-Serif" font-size="10.00" fill="#000000">Definition</text>
</a>
</g>
</g>
<!-- Node13&#45;&gt;Node11 -->
<g id="edge16" class="edge">
<title>Node13&#45;&gt;Node11</title>
<path fill="none" stroke="#63b8ff" d="M820.6781,-510.0496C830.7927,-475.4015 851.5784,-404.1994 859.1559,-378.2424"/>
<polygon fill="#63b8ff" stroke="#63b8ff" points="817.2419,-509.3307 817.7993,-519.9109 823.9614,-511.2924 817.2419,-509.3307"/>
</g>
<!-- Node14&#45;&gt;Node2 -->
<g id="edge17" class="edge">
<title>Node14&#45;&gt;Node2</title>
<path fill="none" stroke="#9a32cd" stroke-dasharray="5,2" d="M289.7933,-220.5098C286.0977,-187.0317 278.7936,-120.8651 276.063,-96.1297"/>
<polygon fill="#9a32cd" stroke="#9a32cd" points="286.3604,-221.311 290.9366,-230.8666 293.3181,-220.5429 286.3604,-221.311"/>
<text text-anchor="middle" x="321.5" y="-161" font-family="Helvetica,sans-Serif" font-size="10.00" fill="#000000"> currentModifiers</text>
</g>
</g>
</svg>
