<?xml version="1.0" encoding="UTF-8" standalone="no"?>
<!DOCTYPE svg PUBLIC "-//W3C//DTD SVG 1.1//EN"
 "http://www.w3.org/Graphics/SVG/1.1/DTD/svg11.dtd">
<!-- Generated by graphviz version 2.40.1 (20161225.0304)
 -->
<!-- Title: TemplateNodeEncoding Pages: 1 -->
<svg width="459pt" height="247pt"
 viewBox="0.00 0.00 459.00 247.00" xmlns="http://www.w3.org/2000/svg" xmlns:xlink="http://www.w3.org/1999/xlink">
<g id="graph0" class="graph" transform="scale(1 1) rotate(0) translate(4 243)">
<title>TemplateNodeEncoding</title>
<!-- Node1 -->
<g id="node1" class="node">
<title>Node1</title>
<g id="a_node1"><a xlink:title="Class representing the &#39;encoding&#39; tag in a template.">
<polygon fill="#999999" stroke="#666666" points="272.5,-19 151.5,-19 151.5,0 272.5,0 272.5,-19"/>
<text text-anchor="middle" x="212" y="-7" font-family="Helvetica,sans-Serif" font-size="10.00" fill="#000000">TemplateNodeEncoding</text>
</a>
</g>
</g>
<!-- Node2 -->
<g id="node2" class="node">
<title>Node2</title>
<g id="a_node2"><a xlink:href="../../d8/d78/class_template_node_creator.html" target="_top" xlink:title=" ">
<polygon fill="#ffffff" stroke="#666666" points="214.5,-96 75.5,-96 75.5,-66 214.5,-66 214.5,-96"/>
<text text-anchor="start" x="83.5" y="-84" font-family="Helvetica,sans-Serif" font-size="10.00" fill="#000000">TemplateNodeCreator</text>
<text text-anchor="middle" x="145" y="-73" font-family="Helvetica,sans-Serif" font-size="10.00" fill="#000000">&lt; TemplateNodeEncoding &gt;</text>
</a>
</g>
</g>
<!-- Node2&#45;&gt;Node1 -->
<g id="edge1" class="edge">
<title>Node2&#45;&gt;Node1</title>
<path fill="none" stroke="#63b8ff" d="M166.1408,-58.4393C178.5352,-45.2125 193.5546,-29.1842 202.9467,-19.1614"/>
<polygon fill="#63b8ff" stroke="#63b8ff" points="163.4928,-56.1465 159.209,-65.8367 168.6007,-60.9329 163.4928,-56.1465"/>
</g>
<!-- Node3 -->
<g id="node3" class="node">
<title>Node3</title>
<g id="a_node3"><a xlink:href="../../d6/d53/class_template_node.html" target="_top" xlink:title="Base class of all nodes in a template&#39;s AST.">
<polygon fill="#ffffff" stroke="#666666" points="80,-239 0,-239 0,-220 80,-220 80,-239"/>
<text text-anchor="middle" x="40" y="-227" font-family="Helvetica,sans-Serif" font-size="10.00" fill="#000000">TemplateNode</text>
</a>
</g>
</g>
<!-- Node3&#45;&gt;Node2 -->
<g id="edge2" class="edge">
<title>Node3&#45;&gt;Node2</title>
<path fill="none" stroke="#63b8ff" d="M33.0403,-210.2934C27.6354,-192.0388 22.6368,-164.2896 33,-143 44.0891,-120.2192 67.5119,-105.4327 90.0848,-96.0382"/>
<polygon fill="#63b8ff" stroke="#63b8ff" points="29.7219,-211.4066 36.1566,-219.8236 36.3753,-209.2311 29.7219,-211.4066"/>
</g>
<!-- Node3&#45;&gt;Node3 -->
<g id="edge3" class="edge">
<title>Node3&#45;&gt;Node3</title>
<path fill="none" stroke="#9a32cd" stroke-dasharray="5,2" d="M90.2648,-234.3206C95.0048,-233.3334 98,-231.7266 98,-229.5 98,-225.9375 90.3323,-223.9614 80.1186,-223.5718"/>
<polygon fill="#9a32cd" stroke="#9a32cd" points="89.6797,-230.8636 80.1186,-235.4282 90.4394,-237.8222 89.6797,-230.8636"/>
<text text-anchor="middle" x="120" y="-227" font-family="Helvetica,sans-Serif" font-size="10.00" fill="#000000"> m_parent</text>
</g>
<!-- Node5 -->
<g id="node5" class="node">
<title>Node5</title>
<g id="a_node5"><a xlink:href="../../d8/d78/class_template_node_creator.html" target="_top" xlink:title="Helper class for creating template AST tag nodes and returning the template for a given node.">
<polygon fill="#ffffff" stroke="#666666" points="179.5,-167.5 42.5,-167.5 42.5,-148.5 179.5,-148.5 179.5,-167.5"/>
<text text-anchor="middle" x="111" y="-155.5" font-family="Helvetica,sans-Serif" font-size="10.00" fill="#000000">TemplateNodeCreator&lt; T &gt;</text>
</a>
</g>
</g>
<!-- Node3&#45;&gt;Node5 -->
<g id="edge6" class="edge">
<title>Node3&#45;&gt;Node5</title>
<path fill="none" stroke="#63b8ff" d="M56.9964,-212.3839C70.7769,-198.5064 89.7205,-179.4293 101.1208,-167.9488"/>
<polygon fill="#63b8ff" stroke="#63b8ff" points="54.1381,-210.2951 49.5754,-219.8572 59.1052,-215.2275 54.1381,-210.2951"/>
</g>
<!-- Node4 -->
<g id="node4" class="node">
<title>Node4</title>
<g id="a_node4"><a xlink:href="../../d9/d45/class_q_c_string.html" target="_top" xlink:title="This is an alternative implementation of QCString.">
<polygon fill="#ffffff" stroke="#666666" points="230.5,-239 173.5,-239 173.5,-220 230.5,-220 230.5,-239"/>
<text text-anchor="middle" x="202" y="-227" font-family="Helvetica,sans-Serif" font-size="10.00" fill="#000000">QCString</text>
</a>
</g>
</g>
<!-- Node4&#45;&gt;Node2 -->
<g id="edge4" class="edge">
<title>Node4&#45;&gt;Node2</title>
<path fill="none" stroke="#9a32cd" stroke-dasharray="5,2" d="M207.594,-209.8796C213.3255,-185.6023 219.1972,-143.8276 202,-114 197.7165,-106.5704 191.0505,-100.6617 183.7656,-96.0204"/>
<polygon fill="#9a32cd" stroke="#9a32cd" points="204.1704,-209.1391 205.0538,-219.6971 210.9472,-210.8926 204.1704,-209.1391"/>
<text text-anchor="middle" x="254.5" y="-155.5" font-family="Helvetica,sans-Serif" font-size="10.00" fill="#000000"> m_templateName</text>
</g>
<!-- Node4&#45;&gt;Node5 -->
<g id="edge7" class="edge">
<title>Node4&#45;&gt;Node5</title>
<path fill="none" stroke="#9a32cd" stroke-dasharray="5,2" d="M163.4193,-220.2534C145.5921,-215.2367 127.0398,-208.7019 121,-202 112.5041,-192.5729 110.7563,-177.4571 110.6182,-167.6275"/>
<polygon fill="#9a32cd" stroke="#9a32cd" points="162.5987,-223.657 173.1646,-222.8757 164.4176,-216.8974 162.5987,-223.657"/>
<text text-anchor="middle" x="161.5" y="-194" font-family="Helvetica,sans-Serif" font-size="10.00" fill="#000000"> m_templateName</text>
</g>
<!-- Node5&#45;&gt;Node2 -->
<g id="edge5" class="edge">
<title>Node5&#45;&gt;Node2</title>
<path fill="none" stroke="#ffa500" stroke-dasharray="5,2" d="M86.2772,-142.0754C76.9044,-133.9824 69.82,-123.8061 76,-114 80.7435,-106.4733 87.7303,-100.626 95.4613,-96.0945"/>
<polygon fill="#ffa500" stroke="#ffa500" points="84.3795,-145.0304 94.4476,-148.3296 88.6344,-139.472 84.3795,-145.0304"/>
<text text-anchor="middle" x="139" y="-117" font-family="Helvetica,sans-Serif" font-size="10.00" fill="#000000"> &lt; TemplateNodeEncoding &gt;</text>
</g>
<!-- Node6 -->
<g id="node6" class="node">
<title>Node6</title>
<g id="a_node6"><a xlink:href="../../df/daf/class_template_node_list.html" target="_top" xlink:title="Class representing a list of AST nodes in a template.">
<polygon fill="#ffffff" stroke="#666666" points="380,-90.5 284,-90.5 284,-71.5 380,-71.5 380,-90.5"/>
<text text-anchor="middle" x="332" y="-78.5" font-family="Helvetica,sans-Serif" font-size="10.00" fill="#000000">TemplateNodeList</text>
</a>
</g>
</g>
<!-- Node6&#45;&gt;Node1 -->
<g id="edge8" class="edge">
<title>Node6&#45;&gt;Node1</title>
<path fill="none" stroke="#9a32cd" stroke-dasharray="5,2" d="M307.0531,-66.1358C283.4124,-52.0499 248.5903,-31.3017 228.3106,-19.2184"/>
<polygon fill="#9a32cd" stroke="#9a32cd" points="305.434,-69.2453 315.8163,-71.3572 309.0171,-63.2318 305.434,-69.2453"/>
<text text-anchor="middle" x="297.5" y="-40" font-family="Helvetica,sans-Serif" font-size="10.00" fill="#000000"> m_nodes</text>
</g>
<!-- Node7 -->
<g id="node7" class="node">
<title>Node7</title>
<g id="a_node7"><a xlink:title=" ">
<polygon fill="#ffffff" stroke="#666666" points="451,-173 315,-173 315,-143 451,-143 451,-173"/>
<text text-anchor="start" x="323" y="-161" font-family="Helvetica,sans-Serif" font-size="10.00" fill="#000000">std::vector&lt; TemplateNode</text>
<text text-anchor="middle" x="383" y="-150" font-family="Helvetica,sans-Serif" font-size="10.00" fill="#000000">Ptr &gt;</text>
</a>
</g>
</g>
<!-- Node7&#45;&gt;Node6 -->
<g id="edge9" class="edge">
<title>Node7&#45;&gt;Node6</title>
<path fill="none" stroke="#63b8ff" d="M367.2476,-134.217C357.5751,-119.6134 345.6999,-101.6841 338.498,-90.8107"/>
<polygon fill="#63b8ff" stroke="#63b8ff" points="364.484,-136.3829 372.924,-142.7873 370.32,-132.5174 364.484,-136.3829"/>
</g>
</g>
</svg>
