<?xml version="1.0" encoding="UTF-8" standalone="no"?>
<!DOCTYPE svg PUBLIC "-//W3C//DTD SVG 1.1//EN"
 "http://www.w3.org/Graphics/SVG/1.1/DTD/svg11.dtd">
<!-- Generated by graphviz version 2.43.0 (0)
 -->
<!-- Title: src/docgroup.h Pages: 1 -->
<svg width="234pt" height="82pt"
 viewBox="0.00 0.00 234.00 82.00" xmlns="http://www.w3.org/2000/svg" xmlns:xlink="http://www.w3.org/1999/xlink">
<g id="graph0" class="graph" transform="scale(1 1) rotate(0) translate(4 78)">
<title>src/docgroup.h</title>
<!-- Node1 -->
<g id="node1" class="node">
<title>Node1</title>
<g id="a_node1"><a xlink:title=" ">
<polygon fill="#999999" stroke="#666666" points="159.5,-74 71.5,-74 71.5,-55 159.5,-55 159.5,-74"/>
<text text-anchor="middle" x="115.5" y="-62" font-family="Helvetica,sans-Serif" font-size="10.00">src/docgroup.h</text>
</a>
</g>
</g>
<!-- Node2 -->
<g id="node2" class="node">
<title>Node2</title>
<g id="a_node2"><a xlink:href="../../d7/d5f/commentscan_8l.html" target="_top" xlink:title=" ">
<polygon fill="white" stroke="#666666" points="109,-19 0,-19 0,0 109,0 109,-19"/>
<text text-anchor="middle" x="54.5" y="-7" font-family="Helvetica,sans-Serif" font-size="10.00">src/commentscan.l</text>
</a>
</g>
</g>
<!-- Node1&#45;&gt;Node2 -->
<g id="edge1" class="edge">
<title>Node1&#45;&gt;Node2</title>
<path fill="none" stroke="#63b8ff" d="M98.03,-48.32C87.16,-38.87 73.56,-27.06 64.48,-19.17"/>
<polygon fill="#63b8ff" stroke="#63b8ff" points="95.85,-51.07 105.7,-54.98 100.45,-45.78 95.85,-51.07"/>
</g>
<!-- Node3 -->
<g id="node3" class="node">
<title>Node3</title>
<g id="a_node3"><a xlink:href="../../d3/d36/docgroup_8cpp.html" target="_top" xlink:title=" ">
<polygon fill="white" stroke="#666666" points="226,-19 127,-19 127,0 226,0 226,-19"/>
<text text-anchor="middle" x="176.5" y="-7" font-family="Helvetica,sans-Serif" font-size="10.00">src/docgroup.cpp</text>
</a>
</g>
</g>
<!-- Node1&#45;&gt;Node3 -->
<g id="edge2" class="edge">
<title>Node1&#45;&gt;Node3</title>
<path fill="none" stroke="#63b8ff" d="M132.97,-48.32C143.84,-38.87 157.44,-27.06 166.52,-19.17"/>
<polygon fill="#63b8ff" stroke="#63b8ff" points="130.55,-45.78 125.3,-54.98 135.15,-51.07 130.55,-45.78"/>
</g>
</g>
</svg>
