<?xml version="1.0" encoding="UTF-8" standalone="no"?>
<!DOCTYPE svg PUBLIC "-//W3C//DTD SVG 1.1//EN"
 "http://www.w3.org/Graphics/SVG/1.1/DTD/svg11.dtd">
<!-- Generated by graphviz version 2.40.1 (20161225.0304)
 -->
<!-- Title: src/main.cpp Pages: 1 -->
<svg width="1537pt" height="577pt"
 viewBox="0.00 0.00 1537.39 577.00" xmlns="http://www.w3.org/2000/svg" xmlns:xlink="http://www.w3.org/1999/xlink">
<g id="graph0" class="graph" transform="scale(1 1) rotate(0) translate(4 573)">
<title>src/main.cpp</title>
<!-- Node1 -->
<g id="node1" class="node">
<title>Node1</title>
<g id="a_node1"><a xlink:title="main entry point for doxygen">
<polygon fill="#999999" stroke="#666666" points="1040.8902,-569 967.8902,-569 967.8902,-550 1040.8902,-550 1040.8902,-569"/>
<text text-anchor="middle" x="1004.3902" y="-557" font-family="Helvetica,sans-Serif" font-size="10.00" fill="#000000">src/main.cpp</text>
</a>
</g>
</g>
<!-- Node2 -->
<g id="node2" class="node">
<title>Node2</title>
<g id="a_node2"><a xlink:href="../../d1/da1/doxygen_8h.html" target="_top" xlink:title=" ">
<polygon fill="#ffffff" stroke="#666666" points="1035.3902,-514 973.3902,-514 973.3902,-495 1035.3902,-495 1035.3902,-514"/>
<text text-anchor="middle" x="1004.3902" y="-502" font-family="Helvetica,sans-Serif" font-size="10.00" fill="#000000">doxygen.h</text>
</a>
</g>
</g>
<!-- Node1&#45;&gt;Node2 -->
<g id="edge1" class="edge">
<title>Node1&#45;&gt;Node2</title>
<path fill="none" stroke="#63b8ff" d="M1004.3902,-549.9197C1004.3902,-542.9083 1004.3902,-533.1442 1004.3902,-524.4652"/>
<polygon fill="#63b8ff" stroke="#63b8ff" points="1007.8903,-524.3408 1004.3902,-514.3408 1000.8903,-524.3409 1007.8903,-524.3408"/>
</g>
<!-- Node3 -->
<g id="node3" class="node">
<title>Node3</title>
<g id="a_node3"><a xlink:href="../../d5/d75/containers_8h.html" target="_top" xlink:title=" ">
<polygon fill="#ffffff" stroke="#666666" points="1086.3902,-184 1016.3902,-184 1016.3902,-165 1086.3902,-165 1086.3902,-184"/>
<text text-anchor="middle" x="1051.3902" y="-172" font-family="Helvetica,sans-Serif" font-size="10.00" fill="#000000">containers.h</text>
</a>
</g>
</g>
<!-- Node2&#45;&gt;Node3 -->
<g id="edge2" class="edge">
<title>Node2&#45;&gt;Node3</title>
<path fill="none" stroke="#63b8ff" d="M1012.8277,-494.9712C1028.0152,-476.7983 1058.3902,-435.3466 1058.3902,-394.5 1058.3902,-394.5 1058.3902,-394.5 1058.3902,-284.5 1058.3902,-252.887 1055.4751,-216.2664 1053.4072,-194.2664"/>
<polygon fill="#63b8ff" stroke="#63b8ff" points="1056.8794,-193.8105 1052.4231,-184.1985 1049.9127,-194.4916 1056.8794,-193.8105"/>
</g>
<!-- Node11 -->
<g id="node11" class="node">
<title>Node11</title>
<g id="a_node11"><a xlink:href="../../d9/d11/membergroup_8h.html" target="_top" xlink:title=" ">
<polygon fill="#ffffff" stroke="#666666" points="763.3902,-294 679.3902,-294 679.3902,-275 763.3902,-275 763.3902,-294"/>
<text text-anchor="middle" x="721.3902" y="-282" font-family="Helvetica,sans-Serif" font-size="10.00" fill="#000000">membergroup.h</text>
</a>
</g>
</g>
<!-- Node2&#45;&gt;Node11 -->
<g id="edge10" class="edge">
<title>Node2&#45;&gt;Node11</title>
<path fill="none" stroke="#63b8ff" d="M991.8649,-494.763C947.391,-460.1896 796.7974,-343.1204 741.7537,-300.3303"/>
<polygon fill="#63b8ff" stroke="#63b8ff" points="743.814,-297.4988 733.7709,-294.1245 739.5178,-303.0253 743.814,-297.4988"/>
</g>
<!-- Node25 -->
<g id="node25" class="node">
<title>Node25</title>
<g id="a_node25"><a xlink:href="../../d6/d15/dirdef_8h.html" target="_top" xlink:title=" ">
<polygon fill="#ffffff" stroke="#666666" points="319.8902,-349 270.8902,-349 270.8902,-330 319.8902,-330 319.8902,-349"/>
<text text-anchor="middle" x="295.3902" y="-337" font-family="Helvetica,sans-Serif" font-size="10.00" fill="#000000">dirdef.h</text>
</a>
</g>
</g>
<!-- Node2&#45;&gt;Node25 -->
<g id="edge40" class="edge">
<title>Node2&#45;&gt;Node25</title>
<path fill="none" stroke="#63b8ff" d="M973.3859,-503.1231C875.0269,-498.5528 570.8672,-482.8115 475.3902,-459 414.9156,-443.9179 395.9175,-441.8377 346.3902,-404 329.7998,-391.3254 315.5203,-372.0815 306.3259,-357.911"/>
<polygon fill="#63b8ff" stroke="#63b8ff" points="309.0662,-355.6904 300.8071,-349.0542 303.1252,-359.3924 309.0662,-355.6904"/>
</g>
<!-- Node27 -->
<g id="node27" class="node">
<title>Node27</title>
<g id="a_node27"><a xlink:href="../../dd/d78/memberlist_8h.html" target="_top" xlink:title=" ">
<polygon fill="#ffffff" stroke="#666666" points="557.8902,-459 484.8902,-459 484.8902,-440 557.8902,-440 557.8902,-459"/>
<text text-anchor="middle" x="521.3902" y="-447" font-family="Helvetica,sans-Serif" font-size="10.00" fill="#000000">memberlist.h</text>
</a>
</g>
</g>
<!-- Node2&#45;&gt;Node27 -->
<g id="edge49" class="edge">
<title>Node2&#45;&gt;Node27</title>
<path fill="none" stroke="#63b8ff" d="M973.0714,-500.9337C890.4775,-491.5286 666.3806,-466.0103 568.3573,-454.8482"/>
<polygon fill="#63b8ff" stroke="#63b8ff" points="568.4891,-451.3407 558.1573,-453.6867 567.697,-458.2957 568.4891,-451.3407"/>
</g>
<!-- Node32 -->
<g id="node32" class="node">
<title>Node32</title>
<g id="a_node32"><a xlink:href="../../df/d67/define_8h.html" target="_top" xlink:title=" ">
<polygon fill="#ffffff" stroke="#666666" points="1029.8902,-239 978.8902,-239 978.8902,-220 1029.8902,-220 1029.8902,-239"/>
<text text-anchor="middle" x="1004.3902" y="-227" font-family="Helvetica,sans-Serif" font-size="10.00" fill="#000000">define.h</text>
</a>
</g>
</g>
<!-- Node2&#45;&gt;Node32 -->
<g id="edge71" class="edge">
<title>Node2&#45;&gt;Node32</title>
<path fill="none" stroke="#63b8ff" d="M1004.3902,-494.7884C1004.3902,-475.6162 1004.3902,-431.5486 1004.3902,-394.5 1004.3902,-394.5 1004.3902,-394.5 1004.3902,-339.5 1004.3902,-307.9508 1004.3902,-271.3117 1004.3902,-249.2905"/>
<polygon fill="#63b8ff" stroke="#63b8ff" points="1007.8903,-249.2116 1004.3902,-239.2116 1000.8903,-249.2117 1007.8903,-249.2116"/>
</g>
<!-- Node33 -->
<g id="node33" class="node">
<title>Node33</title>
<g id="a_node33"><a xlink:href="../../d3/d26/cache_8h.html" target="_top" xlink:title=" ">
<polygon fill="#ffffff" stroke="#666666" points="1392.8902,-184 1341.8902,-184 1341.8902,-165 1392.8902,-165 1392.8902,-184"/>
<text text-anchor="middle" x="1367.3902" y="-172" font-family="Helvetica,sans-Serif" font-size="10.00" fill="#000000">cache.h</text>
</a>
</g>
</g>
<!-- Node2&#45;&gt;Node33 -->
<g id="edge78" class="edge">
<title>Node2&#45;&gt;Node33</title>
<path fill="none" stroke="#63b8ff" d="M1035.4607,-500.6146C1116.0194,-489.6787 1325.3902,-455.3987 1325.3902,-394.5 1325.3902,-394.5 1325.3902,-394.5 1325.3902,-284.5 1325.3902,-250.2869 1343.3421,-213.7925 1355.7727,-192.6233"/>
<polygon fill="#63b8ff" stroke="#63b8ff" points="1358.79,-194.3979 1361.0113,-184.0386 1352.8146,-190.7517 1358.79,-194.3979"/>
</g>
<!-- Node38 -->
<g id="node38" class="node">
<title>Node38</title>
<g id="a_node38"><a xlink:href="../../d7/ddd/symbolmap_8h.html" target="_top" xlink:title=" ">
<polygon fill="#ffffff" stroke="#666666" points="1255.8902,-184 1180.8902,-184 1180.8902,-165 1255.8902,-165 1255.8902,-184"/>
<text text-anchor="middle" x="1218.3902" y="-172" font-family="Helvetica,sans-Serif" font-size="10.00" fill="#000000">symbolmap.h</text>
</a>
</g>
</g>
<!-- Node2&#45;&gt;Node38 -->
<g id="edge84" class="edge">
<title>Node2&#45;&gt;Node38</title>
<path fill="none" stroke="#63b8ff" d="M1035.7212,-497.0605C1080.4834,-484.3521 1157.3902,-453.8777 1157.3902,-394.5 1157.3902,-394.5 1157.3902,-394.5 1157.3902,-284.5 1157.3902,-247.8419 1183.6204,-211.9602 1201.6801,-191.5999"/>
<polygon fill="#63b8ff" stroke="#63b8ff" points="1204.3836,-193.831 1208.5895,-184.1067 1199.2375,-189.0857 1204.3836,-193.831"/>
</g>
<!-- Node4 -->
<g id="node4" class="node">
<title>Node4</title>
<g id="a_node4"><a xlink:title=" ">
<polygon fill="#e0e0e0" stroke="#999999" points="620.3902,-129 576.3902,-129 576.3902,-110 620.3902,-110 620.3902,-129"/>
<text text-anchor="middle" x="598.3902" y="-117" font-family="Helvetica,sans-Serif" font-size="10.00" fill="#000000">vector</text>
</a>
</g>
</g>
<!-- Node3&#45;&gt;Node4 -->
<g id="edge3" class="edge">
<title>Node3&#45;&gt;Node4</title>
<path fill="none" stroke="#63b8ff" d="M1016.221,-170.23C930.6859,-159.845 712.7783,-133.3882 630.5001,-123.3986"/>
<polygon fill="#63b8ff" stroke="#63b8ff" points="630.834,-119.9135 620.485,-122.1826 629.9903,-126.8624 630.834,-119.9135"/>
</g>
<!-- Node5 -->
<g id="node5" class="node">
<title>Node5</title>
<g id="a_node5"><a xlink:title=" ">
<polygon fill="#e0e0e0" stroke="#999999" points="818.8902,-19 777.8902,-19 777.8902,0 818.8902,0 818.8902,-19"/>
<text text-anchor="middle" x="798.3902" y="-7" font-family="Helvetica,sans-Serif" font-size="10.00" fill="#000000">string</text>
</a>
</g>
</g>
<!-- Node3&#45;&gt;Node5 -->
<g id="edge4" class="edge">
<title>Node3&#45;&gt;Node5</title>
<path fill="none" stroke="#63b8ff" d="M1054.1301,-164.7361C1057.3233,-151.1403 1060.8219,-126.3399 1049.3902,-110 998.1802,-36.8033 884.3935,-16.8948 829.3716,-11.4972"/>
<polygon fill="#63b8ff" stroke="#63b8ff" points="829.4554,-7.9911 819.1867,-10.5997 828.8409,-14.9641 829.4554,-7.9911"/>
</g>
<!-- Node6 -->
<g id="node6" class="node">
<title>Node6</title>
<g id="a_node6"><a xlink:title=" ">
<polygon fill="#e0e0e0" stroke="#999999" points="884.3902,-129 854.3902,-129 854.3902,-110 884.3902,-110 884.3902,-129"/>
<text text-anchor="middle" x="869.3902" y="-117" font-family="Helvetica,sans-Serif" font-size="10.00" fill="#000000">set</text>
</a>
</g>
</g>
<!-- Node3&#45;&gt;Node6 -->
<g id="edge5" class="edge">
<title>Node3&#45;&gt;Node6</title>
<path fill="none" stroke="#63b8ff" d="M1016.2584,-165.4271C986.1155,-157.4124 941.3673,-144.9701 894.3002,-129.0856"/>
<polygon fill="#63b8ff" stroke="#63b8ff" points="895.1379,-125.6733 884.5434,-125.7539 892.8758,-132.2977 895.1379,-125.6733"/>
</g>
<!-- Node7 -->
<g id="node7" class="node">
<title>Node7</title>
<g id="a_node7"><a xlink:title=" ">
<polygon fill="#e0e0e0" stroke="#999999" points="835.8902,-129 800.8902,-129 800.8902,-110 835.8902,-110 835.8902,-129"/>
<text text-anchor="middle" x="818.3902" y="-117" font-family="Helvetica,sans-Serif" font-size="10.00" fill="#000000">map</text>
</a>
</g>
</g>
<!-- Node3&#45;&gt;Node7 -->
<g id="edge6" class="edge">
<title>Node3&#45;&gt;Node7</title>
<path fill="none" stroke="#63b8ff" d="M1016.0842,-167.2413C969.7679,-157.6332 890.0806,-140.7889 845.9128,-128.8215"/>
<polygon fill="#63b8ff" stroke="#63b8ff" points="846.5842,-125.3748 836.0105,-126.0436 844.6934,-132.1146 846.5842,-125.3748"/>
</g>
<!-- Node8 -->
<g id="node8" class="node">
<title>Node8</title>
<g id="a_node8"><a xlink:title=" ">
<polygon fill="#e0e0e0" stroke="#999999" points="1040.3902,-129 962.3902,-129 962.3902,-110 1040.3902,-110 1040.3902,-129"/>
<text text-anchor="middle" x="1001.3902" y="-117" font-family="Helvetica,sans-Serif" font-size="10.00" fill="#000000">unordered_set</text>
</a>
</g>
</g>
<!-- Node3&#45;&gt;Node8 -->
<g id="edge7" class="edge">
<title>Node3&#45;&gt;Node8</title>
<path fill="none" stroke="#63b8ff" d="M1042.6808,-164.9197C1035.6694,-157.2072 1025.6301,-146.1639 1017.2064,-136.8978"/>
<polygon fill="#63b8ff" stroke="#63b8ff" points="1019.653,-134.3859 1010.3364,-129.3408 1014.4734,-139.0946 1019.653,-134.3859"/>
</g>
<!-- Node9 -->
<g id="node9" class="node">
<title>Node9</title>
<g id="a_node9"><a xlink:title=" ">
<polygon fill="#e0e0e0" stroke="#999999" points="1179.8902,-129 1096.8902,-129 1096.8902,-110 1179.8902,-110 1179.8902,-129"/>
<text text-anchor="middle" x="1138.3902" y="-117" font-family="Helvetica,sans-Serif" font-size="10.00" fill="#000000">unordered_map</text>
</a>
</g>
</g>
<!-- Node3&#45;&gt;Node9 -->
<g id="edge8" class="edge">
<title>Node3&#45;&gt;Node9</title>
<path fill="none" stroke="#63b8ff" d="M1066.5444,-164.9197C1079.8115,-156.5325 1099.3093,-144.2063 1114.6466,-134.5103"/>
<polygon fill="#63b8ff" stroke="#63b8ff" points="1116.5354,-137.4571 1123.1177,-129.155 1112.7948,-131.5402 1116.5354,-137.4571"/>
</g>
<!-- Node10 -->
<g id="node10" class="node">
<title>Node10</title>
<g id="a_node10"><a xlink:title=" ">
<polygon fill="#e0e0e0" stroke="#999999" points="943.8902,-129 902.8902,-129 902.8902,-110 943.8902,-110 943.8902,-129"/>
<text text-anchor="middle" x="923.3902" y="-117" font-family="Helvetica,sans-Serif" font-size="10.00" fill="#000000">stack</text>
</a>
</g>
</g>
<!-- Node3&#45;&gt;Node10 -->
<g id="edge9" class="edge">
<title>Node3&#45;&gt;Node10</title>
<path fill="none" stroke="#63b8ff" d="M1029.0943,-164.9197C1008.1614,-155.9251 976.6857,-142.4004 953.5231,-132.4477"/>
<polygon fill="#63b8ff" stroke="#63b8ff" points="954.7297,-129.1568 944.1602,-128.4246 951.9662,-135.5882 954.7297,-129.1568"/>
</g>
<!-- Node11&#45;&gt;Node4 -->
<g id="edge11" class="edge">
<title>Node11&#45;&gt;Node4</title>
<path fill="none" stroke="#63b8ff" d="M714.0643,-274.6726C693.9347,-247.6695 637.5626,-172.0483 611.6833,-137.3322"/>
<polygon fill="#63b8ff" stroke="#63b8ff" points="614.3064,-134.9948 605.5236,-129.0692 608.6941,-139.1785 614.3064,-134.9948"/>
</g>
<!-- Node11&#45;&gt;Node7 -->
<g id="edge12" class="edge">
<title>Node11&#45;&gt;Node7</title>
<path fill="none" stroke="#63b8ff" d="M727.1675,-274.6726C742.9745,-247.7844 787.1203,-172.691 807.6452,-137.7776"/>
<polygon fill="#63b8ff" stroke="#63b8ff" points="810.7139,-139.4637 812.7647,-129.0692 804.6795,-135.9161 810.7139,-139.4637"/>
</g>
<!-- Node12 -->
<g id="node12" class="node">
<title>Node12</title>
<g id="a_node12"><a xlink:title=" ">
<polygon fill="#e0e0e0" stroke="#999999" points="782.3902,-129 730.3902,-129 730.3902,-110 782.3902,-110 782.3902,-129"/>
<text text-anchor="middle" x="756.3902" y="-117" font-family="Helvetica,sans-Serif" font-size="10.00" fill="#000000">memory</text>
</a>
</g>
</g>
<!-- Node11&#45;&gt;Node12 -->
<g id="edge13" class="edge">
<title>Node11&#45;&gt;Node12</title>
<path fill="none" stroke="#63b8ff" d="M723.4748,-274.6726C729.1052,-248.1291 744.7005,-174.6086 752.2241,-139.1401"/>
<polygon fill="#63b8ff" stroke="#63b8ff" points="755.7091,-139.5778 754.3604,-129.0692 748.8614,-138.1252 755.7091,-139.5778"/>
</g>
<!-- Node13 -->
<g id="node13" class="node">
<title>Node13</title>
<g id="a_node13"><a xlink:href="../../d9/d49/types_8h.html" target="_top" xlink:title="This file contains a number of basic enums and types.">
<polygon fill="#ffffff" stroke="#666666" points="217.8902,-239 168.8902,-239 168.8902,-220 217.8902,-220 217.8902,-239"/>
<text text-anchor="middle" x="193.3902" y="-227" font-family="Helvetica,sans-Serif" font-size="10.00" fill="#000000">types.h</text>
</a>
</g>
</g>
<!-- Node11&#45;&gt;Node13 -->
<g id="edge14" class="edge">
<title>Node11&#45;&gt;Node13</title>
<path fill="none" stroke="#63b8ff" d="M679.0743,-280.0921C577.5175,-269.5133 321.4993,-242.8447 228.143,-233.1201"/>
<polygon fill="#63b8ff" stroke="#63b8ff" points="228.401,-229.6281 218.0922,-232.0731 227.6757,-236.5904 228.401,-229.6281"/>
</g>
<!-- Node23 -->
<g id="node23" class="node">
<title>Node23</title>
<g id="a_node23"><a xlink:href="../../d1/d02/reflist_8h.html" target="_top" xlink:title=" ">
<polygon fill="#ffffff" stroke="#666666" points="647.8902,-239 598.8902,-239 598.8902,-220 647.8902,-220 647.8902,-239"/>
<text text-anchor="middle" x="623.3902" y="-227" font-family="Helvetica,sans-Serif" font-size="10.00" fill="#000000">reflist.h</text>
</a>
</g>
</g>
<!-- Node11&#45;&gt;Node23 -->
<g id="edge27" class="edge">
<title>Node11&#45;&gt;Node23</title>
<path fill="none" stroke="#63b8ff" d="M704.3199,-274.9197C689.2357,-266.4541 667.0012,-253.9755 649.6526,-244.2391"/>
<polygon fill="#63b8ff" stroke="#63b8ff" points="651.0272,-240.9971 640.5937,-239.155 647.6012,-247.1014 651.0272,-240.9971"/>
</g>
<!-- Node14 -->
<g id="node14" class="node">
<title>Node14</title>
<g id="a_node14"><a xlink:href="../../d7/d5c/qcstring_8h.html" target="_top" xlink:title=" ">
<polygon fill="#ffffff" stroke="#666666" points="226.8902,-129 167.8902,-129 167.8902,-110 226.8902,-110 226.8902,-129"/>
<text text-anchor="middle" x="197.3902" y="-117" font-family="Helvetica,sans-Serif" font-size="10.00" fill="#000000">qcstring.h</text>
</a>
</g>
</g>
<!-- Node13&#45;&gt;Node14 -->
<g id="edge15" class="edge">
<title>Node13&#45;&gt;Node14</title>
<path fill="none" stroke="#63b8ff" d="M193.7452,-219.7382C194.3991,-201.7541 195.806,-163.0652 196.668,-139.3599"/>
<polygon fill="#63b8ff" stroke="#63b8ff" points="200.1759,-139.2034 197.0417,-129.0828 193.1805,-138.949 200.1759,-139.2034"/>
</g>
<!-- Node14&#45;&gt;Node5 -->
<g id="edge16" class="edge">
<title>Node14&#45;&gt;Node5</title>
<path fill="none" stroke="#63b8ff" d="M226.518,-109.8611C252.0663,-101.1793 290.0744,-87.7092 322.3902,-74 340.1399,-66.4701 342.8524,-60.3014 361.3902,-55 438.0501,-33.0771 680.9359,-16.6166 767.4318,-11.3171"/>
<polygon fill="#63b8ff" stroke="#63b8ff" points="767.8763,-14.7967 777.6466,-10.6989 767.4533,-7.8095 767.8763,-14.7967"/>
</g>
<!-- Node15 -->
<g id="node15" class="node">
<title>Node15</title>
<g id="a_node15"><a xlink:title=" ">
<polygon fill="#e0e0e0" stroke="#999999" points="490.3902,-74 434.3902,-74 434.3902,-55 490.3902,-55 490.3902,-74"/>
<text text-anchor="middle" x="462.3902" y="-62" font-family="Helvetica,sans-Serif" font-size="10.00" fill="#000000">algorithm</text>
</a>
</g>
</g>
<!-- Node14&#45;&gt;Node15 -->
<g id="edge17" class="edge">
<title>Node14&#45;&gt;Node15</title>
<path fill="none" stroke="#63b8ff" d="M227.1956,-112.9828C231.9406,-111.9689 236.7975,-110.945 241.3902,-110 319.8204,-93.8622 342.3708,-92.459 423.9059,-74.2386"/>
<polygon fill="#63b8ff" stroke="#63b8ff" points="425.163,-77.5432 434.1494,-71.9311 423.6246,-70.7143 425.163,-77.5432"/>
</g>
<!-- Node16 -->
<g id="node16" class="node">
<title>Node16</title>
<g id="a_node16"><a xlink:title=" ">
<polygon fill="#e0e0e0" stroke="#999999" points="416.3902,-74 370.3902,-74 370.3902,-55 416.3902,-55 416.3902,-74"/>
<text text-anchor="middle" x="393.3902" y="-62" font-family="Helvetica,sans-Serif" font-size="10.00" fill="#000000">cctype</text>
</a>
</g>
</g>
<!-- Node14&#45;&gt;Node16 -->
<g id="edge18" class="edge">
<title>Node14&#45;&gt;Node16</title>
<path fill="none" stroke="#63b8ff" d="M227.1584,-111.1467C262.9852,-101.0932 322.9649,-84.2622 360.2377,-73.803"/>
<polygon fill="#63b8ff" stroke="#63b8ff" points="361.427,-77.1045 370.1095,-71.0328 359.5357,-70.3648 361.427,-77.1045"/>
</g>
<!-- Node17 -->
<g id="node17" class="node">
<title>Node17</title>
<g id="a_node17"><a xlink:title=" ">
<polygon fill="#e0e0e0" stroke="#999999" points="189.3902,-74 143.3902,-74 143.3902,-55 189.3902,-55 189.3902,-74"/>
<text text-anchor="middle" x="166.3902" y="-62" font-family="Helvetica,sans-Serif" font-size="10.00" fill="#000000">cstring</text>
</a>
</g>
</g>
<!-- Node14&#45;&gt;Node17 -->
<g id="edge19" class="edge">
<title>Node14&#45;&gt;Node17</title>
<path fill="none" stroke="#63b8ff" d="M191.9904,-109.9197C187.8629,-102.5967 182.0429,-92.2709 176.9949,-83.3147"/>
<polygon fill="#63b8ff" stroke="#63b8ff" points="179.8961,-81.3338 171.9368,-74.3408 173.798,-84.7709 179.8961,-81.3338"/>
</g>
<!-- Node18 -->
<g id="node18" class="node">
<title>Node18</title>
<g id="a_node18"><a xlink:title=" ">
<polygon fill="#e0e0e0" stroke="#999999" points="250.8902,-74 207.8902,-74 207.8902,-55 250.8902,-55 250.8902,-74"/>
<text text-anchor="middle" x="229.3902" y="-62" font-family="Helvetica,sans-Serif" font-size="10.00" fill="#000000">cstdio</text>
</a>
</g>
</g>
<!-- Node14&#45;&gt;Node18 -->
<g id="edge20" class="edge">
<title>Node14&#45;&gt;Node18</title>
<path fill="none" stroke="#63b8ff" d="M202.9642,-109.9197C207.2702,-102.5188 213.3606,-92.0509 218.6095,-83.0294"/>
<polygon fill="#63b8ff" stroke="#63b8ff" points="221.6608,-84.7445 223.6646,-74.3408 215.6104,-81.2242 221.6608,-84.7445"/>
</g>
<!-- Node19 -->
<g id="node19" class="node">
<title>Node19</title>
<g id="a_node19"><a xlink:title=" ">
<polygon fill="#e0e0e0" stroke="#999999" points="313.8902,-74 268.8902,-74 268.8902,-55 313.8902,-55 313.8902,-74"/>
<text text-anchor="middle" x="291.3902" y="-62" font-family="Helvetica,sans-Serif" font-size="10.00" fill="#000000">cstdlib</text>
</a>
</g>
</g>
<!-- Node14&#45;&gt;Node19 -->
<g id="edge21" class="edge">
<title>Node14&#45;&gt;Node19</title>
<path fill="none" stroke="#63b8ff" d="M213.7637,-109.9197C228.2322,-101.4541 249.5592,-88.9755 266.1997,-79.2391"/>
<polygon fill="#63b8ff" stroke="#63b8ff" points="268.0253,-82.2261 274.8889,-74.155 264.4902,-76.1843 268.0253,-82.2261"/>
</g>
<!-- Node20 -->
<g id="node20" class="node">
<title>Node20</title>
<g id="a_node20"><a xlink:title=" ">
<polygon fill="#e0e0e0" stroke="#999999" points="68.3902,-19 22.3902,-19 22.3902,0 68.3902,0 68.3902,-19"/>
<text text-anchor="middle" x="45.3902" y="-7" font-family="Helvetica,sans-Serif" font-size="10.00" fill="#000000">cstdint</text>
</a>
</g>
</g>
<!-- Node14&#45;&gt;Node20 -->
<g id="edge22" class="edge">
<title>Node14&#45;&gt;Node20</title>
<path fill="none" stroke="#63b8ff" d="M167.6328,-116.9055C118.6439,-111.9498 24.4226,-99.3043 4.3902,-74 -7.9534,-58.408 8.2089,-38.9652 23.7303,-25.5247"/>
<polygon fill="#63b8ff" stroke="#63b8ff" points="26.0852,-28.1209 31.6343,-19.0955 21.668,-22.6906 26.0852,-28.1209"/>
</g>
<!-- Node21 -->
<g id="node21" class="node">
<title>Node21</title>
<g id="a_node21"><a xlink:title=" ">
<polygon fill="#e0e0e0" stroke="#999999" points="65.3902,-74 13.3902,-74 13.3902,-55 65.3902,-55 65.3902,-74"/>
<text text-anchor="middle" x="39.3902" y="-62" font-family="Helvetica,sans-Serif" font-size="10.00" fill="#000000">ostream</text>
</a>
</g>
</g>
<!-- Node14&#45;&gt;Node21 -->
<g id="edge23" class="edge">
<title>Node14&#45;&gt;Node21</title>
<path fill="none" stroke="#63b8ff" d="M169.8687,-109.9197C143.6111,-100.7794 103.9146,-86.961 75.2042,-76.9669"/>
<polygon fill="#63b8ff" stroke="#63b8ff" points="76.142,-73.5874 65.5471,-73.6053 73.8406,-80.1983 76.142,-73.5874"/>
</g>
<!-- Node22 -->
<g id="node22" class="node">
<title>Node22</title>
<g id="a_node22"><a xlink:href="../../db/d7c/utf8_8h.html" target="_top" xlink:title="Various UTF8 related helper functions.">
<polygon fill="#ffffff" stroke="#666666" points="124.8902,-74 83.8902,-74 83.8902,-55 124.8902,-55 124.8902,-74"/>
<text text-anchor="middle" x="104.3902" y="-62" font-family="Helvetica,sans-Serif" font-size="10.00" fill="#000000">utf8.h</text>
</a>
</g>
</g>
<!-- Node14&#45;&gt;Node22 -->
<g id="edge24" class="edge">
<title>Node14&#45;&gt;Node22</title>
<path fill="none" stroke="#63b8ff" d="M181.1908,-109.9197C167.0088,-101.5325 146.1663,-89.2063 129.7712,-79.5103"/>
<polygon fill="#63b8ff" stroke="#63b8ff" points="131.105,-76.2329 120.716,-74.155 127.5417,-82.2581 131.105,-76.2329"/>
</g>
<!-- Node22&#45;&gt;Node5 -->
<g id="edge26" class="edge">
<title>Node22&#45;&gt;Node5</title>
<path fill="none" stroke="#63b8ff" d="M125.2079,-57.2094C128.2581,-56.3459 131.3844,-55.5704 134.3902,-55 258.3863,-31.4684 654.2717,-14.9653 767.7314,-10.6306"/>
<polygon fill="#63b8ff" stroke="#63b8ff" points="767.9506,-14.1249 777.8111,-10.2493 767.6859,-7.1299 767.9506,-14.1249"/>
</g>
<!-- Node22&#45;&gt;Node20 -->
<g id="edge25" class="edge">
<title>Node22&#45;&gt;Node20</title>
<path fill="none" stroke="#63b8ff" d="M94.1132,-54.9197C85.6726,-47.0514 73.5132,-35.7164 63.4533,-26.3385"/>
<polygon fill="#63b8ff" stroke="#63b8ff" points="65.648,-23.5995 55.9467,-19.3408 60.8748,-28.7198 65.648,-23.5995"/>
</g>
<!-- Node23&#45;&gt;Node4 -->
<g id="edge28" class="edge">
<title>Node23&#45;&gt;Node4</title>
<path fill="none" stroke="#63b8ff" d="M621.1716,-219.7382C617.0657,-201.6724 608.2113,-162.713 602.8305,-139.0376"/>
<polygon fill="#63b8ff" stroke="#63b8ff" points="606.1974,-138.0585 600.5681,-129.0828 599.3714,-139.6099 606.1974,-138.0585"/>
</g>
<!-- Node23&#45;&gt;Node9 -->
<g id="edge29" class="edge">
<title>Node23&#45;&gt;Node9</title>
<path fill="none" stroke="#63b8ff" d="M648.0087,-228.3592C739.5148,-223.9521 1056.7624,-207.1256 1095.3902,-184 1112.4654,-173.7774 1124.1616,-153.8434 1130.9957,-138.8282"/>
<polygon fill="#63b8ff" stroke="#63b8ff" points="1134.3106,-139.9738 1134.9565,-129.3987 1127.8569,-137.2629 1134.3106,-139.9738"/>
</g>
<!-- Node23&#45;&gt;Node12 -->
<g id="edge30" class="edge">
<title>Node23&#45;&gt;Node12</title>
<path fill="none" stroke="#63b8ff" d="M635.193,-219.7382C658.1235,-200.7732 708.8935,-158.7829 736.8991,-135.6204"/>
<polygon fill="#63b8ff" stroke="#63b8ff" points="739.3284,-138.1532 744.8037,-129.0828 734.8671,-132.7591 739.3284,-138.1532"/>
</g>
<!-- Node23&#45;&gt;Node14 -->
<g id="edge31" class="edge">
<title>Node23&#45;&gt;Node14</title>
<path fill="none" stroke="#63b8ff" d="M598.8398,-228.7494C545.8972,-226.5127 417.5939,-217.7531 316.3902,-184 280.5729,-172.0544 242.8397,-149.6961 219.7043,-134.7012"/>
<polygon fill="#63b8ff" stroke="#63b8ff" points="221.5766,-131.7434 211.3014,-129.1606 217.7233,-137.5874 221.5766,-131.7434"/>
</g>
<!-- Node24 -->
<g id="node24" class="node">
<title>Node24</title>
<g id="a_node24"><a xlink:href="../../da/de1/linkedmap_8h.html" target="_top" xlink:title=" ">
<polygon fill="#ffffff" stroke="#666666" points="427.8902,-184 358.8902,-184 358.8902,-165 427.8902,-165 427.8902,-184"/>
<text text-anchor="middle" x="393.3902" y="-172" font-family="Helvetica,sans-Serif" font-size="10.00" fill="#000000">linkedmap.h</text>
</a>
</g>
</g>
<!-- Node23&#45;&gt;Node24 -->
<g id="edge32" class="edge">
<title>Node23&#45;&gt;Node24</title>
<path fill="none" stroke="#63b8ff" d="M598.7762,-223.614C560.4767,-214.4555 486.045,-196.6566 438.0851,-185.1879"/>
<polygon fill="#63b8ff" stroke="#63b8ff" points="438.8152,-181.7639 428.2754,-182.8421 437.1871,-188.5719 438.8152,-181.7639"/>
</g>
<!-- Node24&#45;&gt;Node4 -->
<g id="edge34" class="edge">
<title>Node24&#45;&gt;Node4</title>
<path fill="none" stroke="#63b8ff" d="M428.1656,-165.17C466.7997,-154.8048 528.6682,-138.2059 566.2187,-128.1314"/>
<polygon fill="#63b8ff" stroke="#63b8ff" points="567.3741,-131.4452 576.1256,-125.4734 565.5602,-124.6843 567.3741,-131.4452"/>
</g>
<!-- Node24&#45;&gt;Node5 -->
<g id="edge36" class="edge">
<title>Node24&#45;&gt;Node5</title>
<path fill="none" stroke="#63b8ff" d="M416.9153,-164.9157C486.3895,-136.6114 690.6253,-53.4042 768.1095,-21.8366"/>
<polygon fill="#63b8ff" stroke="#63b8ff" points="769.8156,-24.9209 777.7559,-17.9065 767.1745,-18.4382 769.8156,-24.9209"/>
</g>
<!-- Node24&#45;&gt;Node9 -->
<g id="edge33" class="edge">
<title>Node24&#45;&gt;Node9</title>
<path fill="none" stroke="#63b8ff" d="M427.9215,-172.5576C525.5664,-166.9676 811.9938,-149.8957 1049.3902,-129 1061.4834,-127.9356 1074.4843,-126.636 1086.7125,-125.3441"/>
<polygon fill="#63b8ff" stroke="#63b8ff" points="1087.196,-128.8124 1096.7657,-124.2659 1086.4495,-121.8523 1087.196,-128.8124"/>
</g>
<!-- Node24&#45;&gt;Node12 -->
<g id="edge35" class="edge">
<title>Node24&#45;&gt;Node12</title>
<path fill="none" stroke="#63b8ff" d="M428.1961,-169.2264C497.0618,-158.7922 650.083,-135.6071 720.1218,-124.9952"/>
<polygon fill="#63b8ff" stroke="#63b8ff" points="720.8666,-128.4224 730.2294,-123.4638 719.8179,-121.5014 720.8666,-128.4224"/>
</g>
<!-- Node24&#45;&gt;Node14 -->
<g id="edge39" class="edge">
<title>Node24&#45;&gt;Node14</title>
<path fill="none" stroke="#63b8ff" d="M359.2496,-164.9197C325.0634,-155.3267 272.5137,-140.5806 236.6291,-130.5109"/>
<polygon fill="#63b8ff" stroke="#63b8ff" points="237.5525,-127.1349 226.9788,-127.8029 235.6613,-133.8746 237.5525,-127.1349"/>
</g>
<!-- Node24&#45;&gt;Node15 -->
<g id="edge37" class="edge">
<title>Node24&#45;&gt;Node15</title>
<path fill="none" stroke="#63b8ff" d="M399.5135,-164.7382C411.0508,-146.3454 436.1728,-106.2959 450.9316,-82.7673"/>
<polygon fill="#63b8ff" stroke="#63b8ff" points="454.0302,-84.414 456.3791,-74.0828 448.1003,-80.6943 454.0302,-84.414"/>
</g>
<!-- Node24&#45;&gt;Node16 -->
<g id="edge38" class="edge">
<title>Node24&#45;&gt;Node16</title>
<path fill="none" stroke="#63b8ff" d="M393.3902,-164.7382C393.3902,-146.7541 393.3902,-108.0652 393.3902,-84.3599"/>
<polygon fill="#63b8ff" stroke="#63b8ff" points="396.8903,-84.0828 393.3902,-74.0828 389.8903,-84.0829 396.8903,-84.0828"/>
</g>
<!-- Node25&#45;&gt;Node4 -->
<g id="edge41" class="edge">
<title>Node25&#45;&gt;Node4</title>
<path fill="none" stroke="#63b8ff" d="M295.0301,-329.5973C294.5254,-299.3713 297.5151,-207.766 349.3902,-165 382.0173,-138.1021 506.3032,-125.932 566.0028,-121.5471"/>
<polygon fill="#63b8ff" stroke="#63b8ff" points="566.2951,-125.0353 576.0239,-120.84 565.8023,-118.0527 566.2951,-125.0353"/>
</g>
<!-- Node25&#45;&gt;Node7 -->
<g id="edge42" class="edge">
<title>Node25&#45;&gt;Node7</title>
<path fill="none" stroke="#63b8ff" d="M319.9057,-337.5999C366.0774,-333.4851 468.6396,-321.7826 550.3902,-294 600.6428,-276.9219 611.34,-267.0619 656.3902,-239 710.1191,-205.5321 768.9122,-159.6044 798.709,-135.6003"/>
<polygon fill="#63b8ff" stroke="#63b8ff" points="801.085,-138.1799 806.6525,-129.1658 796.679,-132.7405 801.085,-138.1799"/>
</g>
<!-- Node25&#45;&gt;Node14 -->
<g id="edge43" class="edge">
<title>Node25&#45;&gt;Node14</title>
<path fill="none" stroke="#63b8ff" d="M271.216,-329.9498C238.8486,-315.678 182.7941,-285.3956 159.3902,-239 142.1756,-204.8741 166.4466,-161.3498 183.3967,-137.3695"/>
<polygon fill="#63b8ff" stroke="#63b8ff" points="186.3076,-139.3195 189.4328,-129.1961 180.6766,-135.161 186.3076,-139.3195"/>
</g>
<!-- Node25&#45;&gt;Node24 -->
<g id="edge44" class="edge">
<title>Node25&#45;&gt;Node24</title>
<path fill="none" stroke="#63b8ff" d="M298.066,-329.8659C304.2448,-308.6791 320.952,-256.9846 346.3902,-220 353.7815,-209.2538 363.9999,-198.9924 373.0214,-190.9435"/>
<polygon fill="#63b8ff" stroke="#63b8ff" points="375.5439,-193.391 380.8546,-184.2233 370.9859,-188.0783 375.5439,-193.391"/>
</g>
<!-- Node26 -->
<g id="node26" class="node">
<title>Node26</title>
<g id="a_node26"><a xlink:href="../../df/da1/definition_8h.html" target="_top" xlink:title=" ">
<polygon fill="#ffffff" stroke="#666666" points="452.3902,-294 388.3902,-294 388.3902,-275 452.3902,-275 452.3902,-294"/>
<text text-anchor="middle" x="420.3902" y="-282" font-family="Helvetica,sans-Serif" font-size="10.00" fill="#000000">definition.h</text>
</a>
</g>
</g>
<!-- Node25&#45;&gt;Node26 -->
<g id="edge45" class="edge">
<title>Node25&#45;&gt;Node26</title>
<path fill="none" stroke="#63b8ff" d="M317.1635,-329.9197C337.0271,-321.1798 366.6117,-308.1625 389.0234,-298.3014"/>
<polygon fill="#63b8ff" stroke="#63b8ff" points="390.7034,-301.3861 398.4469,-294.155 387.8842,-294.9789 390.7034,-301.3861"/>
</g>
<!-- Node26&#45;&gt;Node4 -->
<g id="edge46" class="edge">
<title>Node26&#45;&gt;Node4</title>
<path fill="none" stroke="#63b8ff" d="M425.072,-274.908C436.2259,-252.897 466.375,-198.1142 505.3902,-165 523.4784,-149.6476 547.6372,-138.0308 566.798,-130.3788"/>
<polygon fill="#63b8ff" stroke="#63b8ff" points="568.216,-133.5837 576.3038,-126.7398 565.7134,-127.0464 568.216,-133.5837"/>
</g>
<!-- Node26&#45;&gt;Node13 -->
<g id="edge47" class="edge">
<title>Node26&#45;&gt;Node13</title>
<path fill="none" stroke="#63b8ff" d="M388.1182,-276.7049C350.6663,-267.655 287.0505,-252.2718 232.3902,-239 230.9511,-238.6506 229.4822,-238.2937 227.9984,-237.9331"/>
<polygon fill="#63b8ff" stroke="#63b8ff" points="228.6904,-234.4994 218.1464,-235.5362 227.0356,-241.301 228.6904,-234.4994"/>
</g>
<!-- Node26&#45;&gt;Node23 -->
<g id="edge48" class="edge">
<title>Node26&#45;&gt;Node23</title>
<path fill="none" stroke="#63b8ff" d="M452.5561,-275.7851C489.6512,-265.7347 550.4132,-249.2721 588.5881,-238.9291"/>
<polygon fill="#63b8ff" stroke="#63b8ff" points="589.9813,-242.1779 598.718,-236.1846 588.1506,-235.4215 589.9813,-242.1779"/>
</g>
<!-- Node27&#45;&gt;Node4 -->
<g id="edge50" class="edge">
<title>Node27&#45;&gt;Node4</title>
<path fill="none" stroke="#63b8ff" d="M558.0608,-443.3012C589.2938,-436.873 634.5195,-424.776 669.3902,-404 726.9276,-369.7192 749.2004,-356.8328 772.3902,-294 800.9564,-216.6 687.7479,-156.7893 630.1512,-131.9891"/>
<polygon fill="#63b8ff" stroke="#63b8ff" points="631.3268,-128.6867 620.7517,-128.0398 628.6152,-135.1402 631.3268,-128.6867"/>
</g>
<!-- Node27&#45;&gt;Node11 -->
<g id="edge70" class="edge">
<title>Node27&#45;&gt;Node11</title>
<path fill="none" stroke="#63b8ff" d="M556.8792,-439.9487C599.1085,-426.6979 668.634,-398.5808 706.3902,-349 716.0762,-336.2805 719.6653,-318.3471 720.9231,-304.6176"/>
<polygon fill="#63b8ff" stroke="#63b8ff" points="724.4376,-304.4638 721.5141,-294.2803 717.449,-304.0642 724.4376,-304.4638"/>
</g>
<!-- Node27&#45;&gt;Node13 -->
<g id="edge69" class="edge">
<title>Node27&#45;&gt;Node13</title>
<path fill="none" stroke="#63b8ff" d="M484.4353,-445.78C425.3035,-437.9813 308.9194,-414.7973 238.3902,-349 217.5457,-329.554 215.4906,-320.6575 205.3902,-294 199.9591,-279.6659 196.9219,-262.5776 195.2626,-249.5921"/>
<polygon fill="#63b8ff" stroke="#63b8ff" points="198.7144,-248.9626 194.1337,-239.4092 191.757,-249.734 198.7144,-248.9626"/>
</g>
<!-- Node27&#45;&gt;Node15 -->
<g id="edge51" class="edge">
<title>Node27&#45;&gt;Node15</title>
<path fill="none" stroke="#63b8ff" d="M484.574,-447.707C382.3302,-441.7316 102.3902,-418.1865 102.3902,-339.5 102.3902,-339.5 102.3902,-339.5 102.3902,-229.5 102.3902,-194.2596 333.3064,-109.6304 425.2592,-77.3273"/>
<polygon fill="#63b8ff" stroke="#63b8ff" points="426.4568,-80.6164 434.7393,-74.0095 424.1445,-74.0093 426.4568,-80.6164"/>
</g>
<!-- Node27&#45;&gt;Node24 -->
<g id="edge68" class="edge">
<title>Node27&#45;&gt;Node24</title>
<path fill="none" stroke="#63b8ff" d="M484.8568,-441.6575C437.355,-429.0658 360.3902,-399.4187 360.3902,-339.5 360.3902,-339.5 360.3902,-339.5 360.3902,-284.5 360.3902,-251.4308 374.2422,-215.0384 383.9972,-193.51"/>
<polygon fill="#63b8ff" stroke="#63b8ff" points="387.2805,-194.7531 388.3782,-184.2152 380.9486,-191.7685 387.2805,-194.7531"/>
</g>
<!-- Node28 -->
<g id="node28" class="node">
<title>Node28</title>
<g id="a_node28"><a xlink:href="../../d4/d46/memberdef_8h.html" target="_top" xlink:title=" ">
<polygon fill="#ffffff" stroke="#666666" points="558.3902,-404 484.3902,-404 484.3902,-385 558.3902,-385 558.3902,-404"/>
<text text-anchor="middle" x="521.3902" y="-392" font-family="Helvetica,sans-Serif" font-size="10.00" fill="#000000">memberdef.h</text>
</a>
</g>
</g>
<!-- Node27&#45;&gt;Node28 -->
<g id="edge52" class="edge">
<title>Node27&#45;&gt;Node28</title>
<path fill="none" stroke="#63b8ff" d="M521.3902,-439.9197C521.3902,-432.9083 521.3902,-423.1442 521.3902,-414.4652"/>
<polygon fill="#63b8ff" stroke="#63b8ff" points="524.8903,-414.3408 521.3902,-404.3408 517.8903,-414.3409 524.8903,-414.3408"/>
</g>
<!-- Node28&#45;&gt;Node4 -->
<g id="edge53" class="edge">
<title>Node28&#45;&gt;Node4</title>
<path fill="none" stroke="#63b8ff" d="M524.2893,-384.6995C530.6881,-363.0289 545.8145,-311.5739 550.3902,-294 565.2217,-237.0359 562.8485,-221.1888 580.3902,-165 583.167,-156.1054 586.8688,-146.4799 590.1931,-138.3826"/>
<polygon fill="#63b8ff" stroke="#63b8ff" points="593.4412,-139.6876 594.104,-129.1135 586.9918,-136.9663 593.4412,-139.6876"/>
</g>
<!-- Node28&#45;&gt;Node12 -->
<g id="edge54" class="edge">
<title>Node28&#45;&gt;Node12</title>
<path fill="none" stroke="#63b8ff" d="M558.4677,-391.8425C615.382,-385.5572 722.8763,-364.4804 772.3902,-294 806.896,-244.8827 838.1878,-219.2 812.3902,-165 806.4004,-152.4157 795.0398,-142.1758 784.108,-134.6194"/>
<polygon fill="#63b8ff" stroke="#63b8ff" points="785.8537,-131.5812 775.5437,-129.1411 782.0817,-137.478 785.8537,-131.5812"/>
</g>
<!-- Node28&#45;&gt;Node13 -->
<g id="edge56" class="edge">
<title>Node28&#45;&gt;Node13</title>
<path fill="none" stroke="#63b8ff" d="M484.3114,-391.8836C421.311,-386.8135 296.7545,-373.8935 261.3902,-349 226.5643,-324.4854 207.252,-276.0964 198.7452,-249.0189"/>
<polygon fill="#63b8ff" stroke="#63b8ff" points="202.0221,-247.7572 195.8321,-239.1586 195.3089,-249.7406 202.0221,-247.7572"/>
</g>
<!-- Node28&#45;&gt;Node26 -->
<g id="edge57" class="edge">
<title>Node28&#45;&gt;Node26</title>
<path fill="none" stroke="#63b8ff" d="M512.4271,-384.7382C495.2389,-366.0184 457.4526,-324.865 436.0253,-301.5283"/>
<polygon fill="#63b8ff" stroke="#63b8ff" points="438.5304,-299.0817 429.189,-294.0828 433.3742,-303.816 438.5304,-299.0817"/>
</g>
<!-- Node29 -->
<g id="node29" class="node">
<title>Node29</title>
<g id="a_node29"><a xlink:title=" ">
<polygon fill="#e0e0e0" stroke="#999999" points="617.3902,-349 549.3902,-349 549.3902,-330 617.3902,-330 617.3902,-349"/>
<text text-anchor="middle" x="583.3902" y="-337" font-family="Helvetica,sans-Serif" font-size="10.00" fill="#000000">sys/types.h</text>
</a>
</g>
</g>
<!-- Node28&#45;&gt;Node29 -->
<g id="edge55" class="edge">
<title>Node28&#45;&gt;Node29</title>
<path fill="none" stroke="#63b8ff" d="M532.1898,-384.9197C541.1474,-376.9735 554.0906,-365.4916 564.722,-356.0605"/>
<polygon fill="#63b8ff" stroke="#63b8ff" points="567.1388,-358.5953 572.2969,-349.3408 562.4935,-353.3587 567.1388,-358.5953"/>
</g>
<!-- Node30 -->
<g id="node30" class="node">
<title>Node30</title>
<g id="a_node30"><a xlink:href="../../df/d9b/arguments_8h.html" target="_top" xlink:title=" ">
<polygon fill="#ffffff" stroke="#666666" points="541.8902,-294 470.8902,-294 470.8902,-275 541.8902,-275 541.8902,-294"/>
<text text-anchor="middle" x="506.3902" y="-282" font-family="Helvetica,sans-Serif" font-size="10.00" fill="#000000">arguments.h</text>
</a>
</g>
</g>
<!-- Node28&#45;&gt;Node30 -->
<g id="edge58" class="edge">
<title>Node28&#45;&gt;Node30</title>
<path fill="none" stroke="#63b8ff" d="M517.5732,-384.9252C514.1638,-375.8447 509.4061,-361.7345 507.3902,-349 505.0336,-334.1136 504.8784,-317.0537 505.2612,-304.2194"/>
<polygon fill="#63b8ff" stroke="#63b8ff" points="508.7596,-304.3311 505.6944,-294.1894 501.7661,-304.029 508.7596,-304.3311"/>
</g>
<!-- Node31 -->
<g id="node31" class="node">
<title>Node31</title>
<g id="a_node31"><a xlink:href="../../d1/da6/classdef_8h.html" target="_top" xlink:title=" ">
<polygon fill="#ffffff" stroke="#666666" points="697.3902,-349 635.3902,-349 635.3902,-330 697.3902,-330 697.3902,-349"/>
<text text-anchor="middle" x="666.3902" y="-337" font-family="Helvetica,sans-Serif" font-size="10.00" fill="#000000">classdef.h</text>
</a>
</g>
</g>
<!-- Node28&#45;&gt;Node31 -->
<g id="edge61" class="edge">
<title>Node28&#45;&gt;Node31</title>
<path fill="none" stroke="#63b8ff" d="M546.6473,-384.9197C570.1023,-376.023 605.2419,-362.6942 631.3955,-352.7739"/>
<polygon fill="#63b8ff" stroke="#63b8ff" points="632.8274,-355.9741 640.936,-349.155 630.3447,-349.4291 632.8274,-355.9741"/>
</g>
<!-- Node30&#45;&gt;Node4 -->
<g id="edge59" class="edge">
<title>Node30&#45;&gt;Node4</title>
<path fill="none" stroke="#63b8ff" d="M504.5965,-274.8646C501.1152,-253.229 495.6457,-199.9531 518.3902,-165 529.4632,-147.9833 549.2524,-136.6497 566.3776,-129.5498"/>
<polygon fill="#63b8ff" stroke="#63b8ff" points="567.9746,-132.6864 576.0668,-125.8477 565.4762,-126.1475 567.9746,-132.6864"/>
</g>
<!-- Node30&#45;&gt;Node14 -->
<g id="edge60" class="edge">
<title>Node30&#45;&gt;Node14</title>
<path fill="none" stroke="#63b8ff" d="M474.6922,-274.9305C427.4505,-259.8487 336.8031,-227.7068 268.3902,-184 247.5083,-170.6592 226.9146,-151.0363 213.3288,-136.941"/>
<polygon fill="#63b8ff" stroke="#63b8ff" points="215.5971,-134.2448 206.1903,-129.37 210.504,-139.0469 215.5971,-134.2448"/>
</g>
<!-- Node31&#45;&gt;Node3 -->
<g id="edge64" class="edge">
<title>Node31&#45;&gt;Node3</title>
<path fill="none" stroke="#63b8ff" d="M697.61,-331.213C727.4884,-322.9458 773.6163,-309.2987 812.3902,-294 864.7193,-273.3529 876.0563,-264.1225 926.3902,-239 960.2957,-222.0772 999.0253,-201.9712 1024.2729,-188.7589"/>
<polygon fill="#63b8ff" stroke="#63b8ff" points="1026.0183,-191.7958 1033.251,-184.0537 1022.769,-185.5956 1026.0183,-191.7958"/>
</g>
<!-- Node31&#45;&gt;Node4 -->
<g id="edge62" class="edge">
<title>Node31&#45;&gt;Node4</title>
<path fill="none" stroke="#63b8ff" d="M660.249,-329.5754C652.1037,-316.638 637.0425,-293.4829 622.3902,-275 608.9065,-257.9912 597.2588,-259.2286 589.3902,-239 576.4397,-205.7068 584.9101,-163.3159 591.8927,-139.0086"/>
<polygon fill="#63b8ff" stroke="#63b8ff" points="595.3119,-139.7978 594.9139,-129.2105 588.6226,-137.7352 595.3119,-139.7978"/>
</g>
<!-- Node31&#45;&gt;Node6 -->
<g id="edge63" class="edge">
<title>Node31&#45;&gt;Node6</title>
<path fill="none" stroke="#63b8ff" d="M697.6925,-331.9492C720.5512,-325.1408 751.1353,-313.1927 772.3902,-294 821.5817,-249.5812 851.4056,-174.1604 863.3495,-138.834"/>
<polygon fill="#63b8ff" stroke="#63b8ff" points="866.7064,-139.8291 866.4839,-129.2366 860.0523,-137.6559 866.7064,-139.8291"/>
</g>
<!-- Node31&#45;&gt;Node11 -->
<g id="edge67" class="edge">
<title>Node31&#45;&gt;Node11</title>
<path fill="none" stroke="#63b8ff" d="M675.9705,-329.9197C683.7609,-322.1293 694.9497,-310.9405 704.2726,-301.6176"/>
<polygon fill="#63b8ff" stroke="#63b8ff" points="706.9531,-303.8868 711.5494,-294.3408 702.0034,-298.937 706.9531,-303.8868"/>
</g>
<!-- Node31&#45;&gt;Node26 -->
<g id="edge65" class="edge">
<title>Node31&#45;&gt;Node26</title>
<path fill="none" stroke="#63b8ff" d="M634.96,-331.9778C632.0643,-331.3021 629.1739,-330.6342 626.3902,-330 556.2085,-314.0112 536.2356,-310.7292 462.3892,-294.2021"/>
<polygon fill="#63b8ff" stroke="#63b8ff" points="463.134,-290.7823 452.6102,-292.0069 461.6007,-297.6123 463.134,-290.7823"/>
</g>
<!-- Node31&#45;&gt;Node30 -->
<g id="edge66" class="edge">
<title>Node31&#45;&gt;Node30</title>
<path fill="none" stroke="#63b8ff" d="M638.5203,-329.9197C612.3308,-320.9171 572.9391,-307.3762 543.9786,-297.421"/>
<polygon fill="#63b8ff" stroke="#63b8ff" points="544.8033,-294.0036 534.2086,-294.0626 542.5277,-300.6234 544.8033,-294.0036"/>
</g>
<!-- Node32&#45;&gt;Node3 -->
<g id="edge77" class="edge">
<title>Node32&#45;&gt;Node3</title>
<path fill="none" stroke="#63b8ff" d="M1012.577,-219.9197C1019.1011,-212.2851 1028.4143,-201.3867 1036.2825,-192.1792"/>
<polygon fill="#63b8ff" stroke="#63b8ff" points="1039.145,-194.217 1042.9807,-184.3408 1033.8234,-189.6694 1039.145,-194.217"/>
</g>
<!-- Node32&#45;&gt;Node4 -->
<g id="edge72" class="edge">
<title>Node32&#45;&gt;Node4</title>
<path fill="none" stroke="#63b8ff" d="M978.902,-219.895C942.3959,-206.3779 872.9372,-181.5481 812.3902,-165 748.5517,-147.5523 672.4813,-132.778 630.4005,-125.1201"/>
<polygon fill="#63b8ff" stroke="#63b8ff" points="630.9247,-121.6583 620.4625,-123.3293 629.6832,-128.5473 630.9247,-121.6583"/>
</g>
<!-- Node32&#45;&gt;Node5 -->
<g id="edge74" class="edge">
<title>Node32&#45;&gt;Node5</title>
<path fill="none" stroke="#63b8ff" d="M1029.8961,-229.0395C1089.5546,-227.3687 1235.4205,-219.6463 1265.3902,-184 1270.8244,-177.5364 1267.8542,-173.077 1265.3902,-165 1243.0076,-91.6292 1205.0138,-79.6995 1132.3902,-55 1076.3968,-35.9565 900.6118,-18.6205 829.1028,-12.1671"/>
<polygon fill="#63b8ff" stroke="#63b8ff" points="829.2164,-8.6634 818.9449,-11.2605 828.5941,-15.6357 829.2164,-8.6634"/>
</g>
<!-- Node32&#45;&gt;Node9 -->
<g id="edge75" class="edge">
<title>Node32&#45;&gt;Node9</title>
<path fill="none" stroke="#63b8ff" d="M1030.1303,-227.5662C1058.7452,-223.9585 1104.1184,-213.6211 1128.3902,-184 1138.591,-171.551 1140.5509,-153.0617 1140.2743,-139.0664"/>
<polygon fill="#63b8ff" stroke="#63b8ff" points="1143.764,-138.7865 1139.6876,-129.0073 1136.7759,-139.1941 1143.764,-138.7865"/>
</g>
<!-- Node32&#45;&gt;Node12 -->
<g id="edge73" class="edge">
<title>Node32&#45;&gt;Node12</title>
<path fill="none" stroke="#63b8ff" d="M989.0777,-219.8402C967.2964,-206.368 925.8465,-181.7136 888.3902,-165 856.6901,-150.8549 819.15,-138.2972 792.2233,-129.9773"/>
<polygon fill="#63b8ff" stroke="#63b8ff" points="793.0433,-126.5683 782.4573,-127.0016 791.0029,-133.2644 793.0433,-126.5683"/>
</g>
<!-- Node32&#45;&gt;Node14 -->
<g id="edge76" class="edge">
<title>Node32&#45;&gt;Node14</title>
<path fill="none" stroke="#63b8ff" d="M978.5704,-228.9564C872.6979,-226.5355 471.6569,-215.4353 349.3902,-184 329.939,-178.999 326.7975,-173.033 308.3902,-165 282.617,-153.7526 253.1533,-141.7126 231.0614,-132.8447"/>
<polygon fill="#63b8ff" stroke="#63b8ff" points="232.3585,-129.594 221.7739,-129.1291 229.7584,-136.0932 232.3585,-129.594"/>
</g>
<!-- Node33&#45;&gt;Node9 -->
<g id="edge80" class="edge">
<title>Node33&#45;&gt;Node9</title>
<path fill="none" stroke="#63b8ff" d="M1341.5661,-168.2977C1304.4369,-159.3802 1235.2533,-142.7641 1188.0314,-131.4226"/>
<polygon fill="#63b8ff" stroke="#63b8ff" points="1188.8485,-128.0193 1178.3076,-129.0871 1187.2137,-134.8258 1188.8485,-128.0193"/>
</g>
<!-- Node34 -->
<g id="node34" class="node">
<title>Node34</title>
<g id="a_node34"><a xlink:title=" ">
<polygon fill="#e0e0e0" stroke="#999999" points="1466.8902,-129 1437.8902,-129 1437.8902,-110 1466.8902,-110 1466.8902,-129"/>
<text text-anchor="middle" x="1452.3902" y="-117" font-family="Helvetica,sans-Serif" font-size="10.00" fill="#000000">list</text>
</a>
</g>
</g>
<!-- Node33&#45;&gt;Node34 -->
<g id="edge79" class="edge">
<title>Node33&#45;&gt;Node34</title>
<path fill="none" stroke="#63b8ff" d="M1382.1961,-164.9197C1395.1158,-156.5599 1414.0833,-144.2868 1429.0454,-134.6054"/>
<polygon fill="#63b8ff" stroke="#63b8ff" points="1431.2597,-137.3415 1437.754,-128.9705 1427.4569,-131.4645 1431.2597,-137.3415"/>
</g>
<!-- Node35 -->
<g id="node35" class="node">
<title>Node35</title>
<g id="a_node35"><a xlink:title=" ">
<polygon fill="#e0e0e0" stroke="#999999" points="1529.3902,-129 1485.3902,-129 1485.3902,-110 1529.3902,-110 1529.3902,-129"/>
<text text-anchor="middle" x="1507.3902" y="-117" font-family="Helvetica,sans-Serif" font-size="10.00" fill="#000000">mutex</text>
</a>
</g>
</g>
<!-- Node33&#45;&gt;Node35 -->
<g id="edge81" class="edge">
<title>Node33&#45;&gt;Node35</title>
<path fill="none" stroke="#63b8ff" d="M1391.7763,-164.9197C1415.0144,-155.7905 1450.1315,-141.9945 1475.5639,-132.0032"/>
<polygon fill="#63b8ff" stroke="#63b8ff" points="1477.1017,-135.1595 1485.1294,-128.2453 1474.5421,-128.6443 1477.1017,-135.1595"/>
</g>
<!-- Node36 -->
<g id="node36" class="node">
<title>Node36</title>
<g id="a_node36"><a xlink:title=" ">
<polygon fill="#e0e0e0" stroke="#999999" points="1352.3902,-129 1312.3902,-129 1312.3902,-110 1352.3902,-110 1352.3902,-129"/>
<text text-anchor="middle" x="1332.3902" y="-117" font-family="Helvetica,sans-Serif" font-size="10.00" fill="#000000">utility</text>
</a>
</g>
</g>
<!-- Node33&#45;&gt;Node36 -->
<g id="edge82" class="edge">
<title>Node33&#45;&gt;Node36</title>
<path fill="none" stroke="#63b8ff" d="M1361.2936,-164.9197C1356.584,-157.5188 1349.9225,-147.0509 1344.1816,-138.0294"/>
<polygon fill="#63b8ff" stroke="#63b8ff" points="1346.9742,-135.8984 1338.6525,-129.3408 1341.0685,-139.6565 1346.9742,-135.8984"/>
</g>
<!-- Node37 -->
<g id="node37" class="node">
<title>Node37</title>
<g id="a_node37"><a xlink:title=" ">
<polygon fill="#e0e0e0" stroke="#999999" points="1419.8902,-129 1370.8902,-129 1370.8902,-110 1419.8902,-110 1419.8902,-129"/>
<text text-anchor="middle" x="1395.3902" y="-117" font-family="Helvetica,sans-Serif" font-size="10.00" fill="#000000">ctype.h</text>
</a>
</g>
</g>
<!-- Node33&#45;&gt;Node37 -->
<g id="edge83" class="edge">
<title>Node33&#45;&gt;Node37</title>
<path fill="none" stroke="#63b8ff" d="M1372.2674,-164.9197C1375.9955,-157.5967 1381.2523,-147.2709 1385.8118,-138.3147"/>
<polygon fill="#63b8ff" stroke="#63b8ff" points="1388.9625,-139.8404 1390.3803,-129.3408 1382.7243,-136.6646 1388.9625,-139.8404"/>
</g>
<!-- Node38&#45;&gt;Node4 -->
<g id="edge87" class="edge">
<title>Node38&#45;&gt;Node4</title>
<path fill="none" stroke="#63b8ff" d="M1180.5397,-171.1423C1067.8096,-161.142 735.6166,-131.6733 630.5992,-122.3573"/>
<polygon fill="#63b8ff" stroke="#63b8ff" points="630.8714,-118.8677 620.6012,-121.4703 630.2528,-125.8404 630.8714,-118.8677"/>
</g>
<!-- Node38&#45;&gt;Node5 -->
<g id="edge88" class="edge">
<title>Node38&#45;&gt;Node5</title>
<path fill="none" stroke="#63b8ff" d="M1220.1954,-164.8927C1222.2089,-151.0308 1223.6342,-125.3987 1210.3902,-110 1160.0408,-51.4588 915.6139,-21.3804 828.9417,-12.4231"/>
<polygon fill="#63b8ff" stroke="#63b8ff" points="829.247,-8.9363 818.9455,-11.4121 828.5425,-15.9007 829.247,-8.9363"/>
</g>
<!-- Node38&#45;&gt;Node9 -->
<g id="edge86" class="edge">
<title>Node38&#45;&gt;Node9</title>
<path fill="none" stroke="#63b8ff" d="M1204.4552,-164.9197C1192.4837,-156.6893 1174.9948,-144.6657 1161.0181,-135.0567"/>
<polygon fill="#63b8ff" stroke="#63b8ff" points="1162.6572,-131.9362 1152.4339,-129.155 1158.6914,-137.7045 1162.6572,-131.9362"/>
</g>
<!-- Node38&#45;&gt;Node15 -->
<g id="edge85" class="edge">
<title>Node38&#45;&gt;Node15</title>
<path fill="none" stroke="#63b8ff" d="M1217.1275,-164.6351C1214.6703,-149.952 1207.7644,-122.7163 1189.3902,-110 1160.8576,-90.2535 646.7519,-70.9178 500.7588,-65.8064"/>
<polygon fill="#63b8ff" stroke="#63b8ff" points="500.619,-62.2995 490.5033,-65.4496 500.3755,-69.2953 500.619,-62.2995"/>
</g>
<!-- Node38&#45;&gt;Node36 -->
<g id="edge89" class="edge">
<title>Node38&#45;&gt;Node36</title>
<path fill="none" stroke="#63b8ff" d="M1238.2475,-164.9197C1256.2006,-156.2581 1282.8609,-143.3957 1303.2321,-133.5675"/>
<polygon fill="#63b8ff" stroke="#63b8ff" points="1304.8922,-136.6527 1312.378,-129.155 1301.8505,-130.3481 1304.8922,-136.6527"/>
</g>
</g>
</svg>
