<?xml version="1.0" encoding="UTF-8" standalone="no"?>
<!DOCTYPE svg PUBLIC "-//W3C//DTD SVG 1.1//EN"
 "http://www.w3.org/Graphics/SVG/1.1/DTD/svg11.dtd">
<!-- Generated by graphviz version 2.40.1 (20161225.0304)
 -->
<!-- Title: src/docsets.h Pages: 1 -->
<svg width="1459pt" height="137pt"
 viewBox="0.00 0.00 1459.00 137.00" xmlns="http://www.w3.org/2000/svg" xmlns:xlink="http://www.w3.org/1999/xlink">
<g id="graph0" class="graph" transform="scale(1 1) rotate(0) translate(4 133)">
<title>src/docsets.h</title>
<!-- Node1 -->
<g id="node1" class="node">
<title>Node1</title>
<g id="a_node1"><a xlink:title=" ">
<polygon fill="#999999" stroke="#666666" points="359.5,-129 283.5,-129 283.5,-110 359.5,-110 359.5,-129"/>
<text text-anchor="middle" x="321.5" y="-117" font-family="Helvetica,sans-Serif" font-size="10.00" fill="#000000">src/docsets.h</text>
</a>
</g>
</g>
<!-- Node2 -->
<g id="node2" class="node">
<title>Node2</title>
<g id="a_node2"><a xlink:href="../../d7/d8f/docsets_8cpp.html" target="_top" xlink:title=" ">
<polygon fill="#ffffff" stroke="#666666" points="293.5,-74 207.5,-74 207.5,-55 293.5,-55 293.5,-74"/>
<text text-anchor="middle" x="250.5" y="-62" font-family="Helvetica,sans-Serif" font-size="10.00" fill="#000000">src/docsets.cpp</text>
</a>
</g>
</g>
<!-- Node1&#45;&gt;Node2 -->
<g id="edge1" class="edge">
<title>Node1&#45;&gt;Node2</title>
<path fill="none" stroke="#63b8ff" d="M300.8738,-103.522C288.6935,-94.0865 273.6615,-82.442 263.2036,-74.3408"/>
<polygon fill="#63b8ff" stroke="#63b8ff" points="299.0838,-106.5626 309.1327,-109.9197 303.3706,-101.0288 299.0838,-106.5626"/>
</g>
<!-- Node3 -->
<g id="node3" class="node">
<title>Node3</title>
<g id="a_node3"><a xlink:href="../../dc/d98/doxygen_8cpp.html" target="_top" xlink:title=" ">
<polygon fill="#ffffff" stroke="#666666" points="89,-19 0,-19 0,0 89,0 89,-19"/>
<text text-anchor="middle" x="44.5" y="-7" font-family="Helvetica,sans-Serif" font-size="10.00" fill="#000000">src/doxygen.cpp</text>
</a>
</g>
</g>
<!-- Node1&#45;&gt;Node3 -->
<g id="edge2" class="edge">
<title>Node1&#45;&gt;Node3</title>
<path fill="none" stroke="#63b8ff" d="M321.0023,-100.0064C319.5446,-85.4796 315.1265,-66.2788 302.5,-55 233.5108,6.6256 188.5828,-35.1605 97.5,-19 94.7387,-18.5101 91.8968,-18.0045 89.031,-17.4937"/>
<polygon fill="#63b8ff" stroke="#63b8ff" points="317.5096,-100.2334 321.627,-109.9954 324.496,-99.7964 317.5096,-100.2334"/>
</g>
<!-- Node4 -->
<g id="node4" class="node">
<title>Node4</title>
<g id="a_node4"><a xlink:href="../../d5/d61/indexlist_8h.html" target="_top" xlink:title=" ">
<polygon fill="#ffffff" stroke="#666666" points="704,-74 627,-74 627,-55 704,-55 704,-74"/>
<text text-anchor="middle" x="665.5" y="-62" font-family="Helvetica,sans-Serif" font-size="10.00" fill="#000000">src/indexlist.h</text>
</a>
</g>
</g>
<!-- Node1&#45;&gt;Node4 -->
<g id="edge3" class="edge">
<title>Node1&#45;&gt;Node4</title>
<path fill="none" stroke="#63b8ff" d="M369.7785,-111.7811C438.6786,-100.7651 563.8398,-80.7538 626.9376,-70.6655"/>
<polygon fill="#63b8ff" stroke="#63b8ff" points="368.9504,-108.3689 359.6284,-113.4039 370.0556,-115.2811 368.9504,-108.3689"/>
</g>
<!-- Node4&#45;&gt;Node3 -->
<g id="edge9" class="edge">
<title>Node4&#45;&gt;Node3</title>
<path fill="none" stroke="#63b8ff" d="M616.5526,-62.1887C517.9962,-57.1802 288.7138,-43.736 97.5,-19 94.8115,-18.6522 92.0519,-18.2613 89.272,-17.8415"/>
<polygon fill="#63b8ff" stroke="#63b8ff" points="616.6343,-65.6971 626.7972,-62.7027 616.9852,-58.7059 616.6343,-65.6971"/>
</g>
<!-- Node5 -->
<g id="node5" class="node">
<title>Node5</title>
<g id="a_node5"><a xlink:href="../../d3/dea/definition_8cpp.html" target="_top" xlink:title=" ">
<polygon fill="#ffffff" stroke="#666666" points="198,-19 107,-19 107,0 198,0 198,-19"/>
<text text-anchor="middle" x="152.5" y="-7" font-family="Helvetica,sans-Serif" font-size="10.00" fill="#000000">src/definition.cpp</text>
</a>
</g>
</g>
<!-- Node4&#45;&gt;Node5 -->
<g id="edge4" class="edge">
<title>Node4&#45;&gt;Node5</title>
<path fill="none" stroke="#63b8ff" d="M616.7923,-60.8206C532.9638,-54.2293 356.0951,-39.1876 207.5,-19 204.4274,-18.5826 201.2636,-18.1211 198.0794,-17.633"/>
<polygon fill="#63b8ff" stroke="#63b8ff" points="616.545,-64.3119 626.7872,-61.601 617.09,-57.3331 616.545,-64.3119"/>
</g>
<!-- Node6 -->
<g id="node6" class="node">
<title>Node6</title>
<g id="a_node6"><a xlink:href="../../da/d0d/diagram_8cpp.html" target="_top" xlink:title=" ">
<polygon fill="#ffffff" stroke="#666666" points="302.5,-19 216.5,-19 216.5,0 302.5,0 302.5,-19"/>
<text text-anchor="middle" x="259.5" y="-7" font-family="Helvetica,sans-Serif" font-size="10.00" fill="#000000">src/diagram.cpp</text>
</a>
</g>
</g>
<!-- Node4&#45;&gt;Node6 -->
<g id="edge5" class="edge">
<title>Node4&#45;&gt;Node6</title>
<path fill="none" stroke="#63b8ff" d="M616.8642,-59.0734C548.5255,-51.261 420.2602,-35.9123 311.5,-19 308.5982,-18.5488 305.6093,-18.0619 302.6005,-17.5554"/>
<polygon fill="#63b8ff" stroke="#63b8ff" points="616.5724,-62.5627 626.9041,-60.2162 617.3641,-55.6076 616.5724,-62.5627"/>
</g>
<!-- Node7 -->
<g id="node7" class="node">
<title>Node7</title>
<g id="a_node7"><a xlink:href="../../da/d17/docparser_8cpp.html" target="_top" xlink:title=" ">
<polygon fill="#ffffff" stroke="#666666" points="416,-19 321,-19 321,0 416,0 416,-19"/>
<text text-anchor="middle" x="368.5" y="-7" font-family="Helvetica,sans-Serif" font-size="10.00" fill="#000000">src/docparser.cpp</text>
</a>
</g>
</g>
<!-- Node4&#45;&gt;Node7 -->
<g id="edge6" class="edge">
<title>Node4&#45;&gt;Node7</title>
<path fill="none" stroke="#63b8ff" d="M617.0333,-55.5247C561.5198,-45.2444 471.1478,-28.5089 416.03,-18.3019"/>
<polygon fill="#63b8ff" stroke="#63b8ff" points="616.5068,-58.9866 626.9769,-57.3661 617.7814,-52.1036 616.5068,-58.9866"/>
</g>
<!-- Node8 -->
<g id="node8" class="node">
<title>Node8</title>
<g id="a_node8"><a xlink:href="../../de/daa/dot_8cpp.html" target="_top" xlink:title=" ">
<polygon fill="#ffffff" stroke="#666666" points="499,-19 434,-19 434,0 499,0 499,-19"/>
<text text-anchor="middle" x="466.5" y="-7" font-family="Helvetica,sans-Serif" font-size="10.00" fill="#000000">src/dot.cpp</text>
</a>
</g>
</g>
<!-- Node4&#45;&gt;Node8 -->
<g id="edge7" class="edge">
<title>Node4&#45;&gt;Node8</title>
<path fill="none" stroke="#63b8ff" d="M620.8327,-52.1548C583.887,-41.9437 532.2753,-27.6791 499.1171,-18.5148"/>
<polygon fill="#63b8ff" stroke="#63b8ff" points="620.2658,-55.6292 630.8368,-54.9197 622.1306,-48.8822 620.2658,-55.6292"/>
</g>
<!-- Node9 -->
<g id="node9" class="node">
<title>Node9</title>
<g id="a_node9"><a xlink:href="../../de/d45/dotgraph_8cpp.html" target="_top" xlink:title=" ">
<polygon fill="#ffffff" stroke="#666666" points="606,-19 517,-19 517,0 606,0 606,-19"/>
<text text-anchor="middle" x="561.5" y="-7" font-family="Helvetica,sans-Serif" font-size="10.00" fill="#000000">src/dotgraph.cpp</text>
</a>
</g>
</g>
<!-- Node4&#45;&gt;Node9 -->
<g id="edge8" class="edge">
<title>Node4&#45;&gt;Node9</title>
<path fill="none" stroke="#63b8ff" d="M638.3011,-50.1159C619.8495,-40.3579 595.9576,-27.7228 579.7568,-19.155"/>
<polygon fill="#63b8ff" stroke="#63b8ff" points="636.9084,-53.3387 647.3846,-54.9197 640.1809,-47.1507 636.9084,-53.3387"/>
</g>
<!-- Node10 -->
<g id="node10" class="node">
<title>Node10</title>
<g id="a_node10"><a xlink:href="../../d7/d5b/formula_8cpp.html" target="_top" xlink:title=" ">
<polygon fill="#ffffff" stroke="#666666" points="707.5,-19 623.5,-19 623.5,0 707.5,0 707.5,-19"/>
<text text-anchor="middle" x="665.5" y="-7" font-family="Helvetica,sans-Serif" font-size="10.00" fill="#000000">src/formula.cpp</text>
</a>
</g>
</g>
<!-- Node4&#45;&gt;Node10 -->
<g id="edge10" class="edge">
<title>Node4&#45;&gt;Node10</title>
<path fill="none" stroke="#63b8ff" d="M665.5,-44.8553C665.5,-36.2036 665.5,-26.4195 665.5,-19.3408"/>
<polygon fill="#63b8ff" stroke="#63b8ff" points="662.0001,-44.9197 665.5,-54.9197 669.0001,-44.9198 662.0001,-44.9197"/>
</g>
<!-- Node11 -->
<g id="node11" class="node">
<title>Node11</title>
<g id="a_node11"><a xlink:href="../../da/db0/htmldocvisitor_8cpp.html" target="_top" xlink:title=" ">
<polygon fill="#ffffff" stroke="#666666" points="839,-19 726,-19 726,0 839,0 839,-19"/>
<text text-anchor="middle" x="782.5" y="-7" font-family="Helvetica,sans-Serif" font-size="10.00" fill="#000000">src/htmldocvisitor.cpp</text>
</a>
</g>
</g>
<!-- Node4&#45;&gt;Node11 -->
<g id="edge11" class="edge">
<title>Node4&#45;&gt;Node11</title>
<path fill="none" stroke="#63b8ff" d="M694.9624,-50.6501C715.8675,-40.823 743.4008,-27.88 761.9611,-19.155"/>
<polygon fill="#63b8ff" stroke="#63b8ff" points="693.4408,-47.4979 685.8798,-54.9197 696.4188,-53.8329 693.4408,-47.4979"/>
</g>
<!-- Node12 -->
<g id="node12" class="node">
<title>Node12</title>
<g id="a_node12"><a xlink:href="../../d8/d6e/htmlgen_8cpp.html" target="_top" xlink:title=" ">
<polygon fill="#ffffff" stroke="#666666" points="943.5,-19 857.5,-19 857.5,0 943.5,0 943.5,-19"/>
<text text-anchor="middle" x="900.5" y="-7" font-family="Helvetica,sans-Serif" font-size="10.00" fill="#000000">src/htmlgen.cpp</text>
</a>
</g>
</g>
<!-- Node4&#45;&gt;Node12 -->
<g id="edge12" class="edge">
<title>Node4&#45;&gt;Node12</title>
<path fill="none" stroke="#63b8ff" d="M713.9907,-53.1511C756.9716,-43.0917 819.0343,-28.5664 859.5666,-19.0801"/>
<polygon fill="#63b8ff" stroke="#63b8ff" points="712.9816,-49.7926 704.0423,-55.4795 714.5768,-56.6084 712.9816,-49.7926"/>
</g>
<!-- Node13 -->
<g id="node13" class="node">
<title>Node13</title>
<g id="a_node13"><a xlink:href="../../db/d14/index_8cpp.html" target="_top" xlink:title="This file contains functions for the various index pages.">
<polygon fill="#ffffff" stroke="#666666" points="1037,-19 962,-19 962,0 1037,0 1037,-19"/>
<text text-anchor="middle" x="999.5" y="-7" font-family="Helvetica,sans-Serif" font-size="10.00" fill="#000000">src/index.cpp</text>
</a>
</g>
</g>
<!-- Node4&#45;&gt;Node13 -->
<g id="edge13" class="edge">
<title>Node4&#45;&gt;Node13</title>
<path fill="none" stroke="#63b8ff" d="M714.3141,-57.4027C771.5077,-48.9387 869.07,-34.0382 952.5,-19 955.5313,-18.4536 958.6682,-17.8667 961.8168,-17.2624"/>
<polygon fill="#63b8ff" stroke="#63b8ff" points="713.4992,-53.985 704.1171,-58.9068 714.5208,-60.91 713.4992,-53.985"/>
</g>
<!-- Node14 -->
<g id="node14" class="node">
<title>Node14</title>
<g id="a_node14"><a xlink:href="../../db/d33/msc_8cpp.html" target="_top" xlink:title=" ">
<polygon fill="#ffffff" stroke="#666666" points="1126,-19 1055,-19 1055,0 1126,0 1126,-19"/>
<text text-anchor="middle" x="1090.5" y="-7" font-family="Helvetica,sans-Serif" font-size="10.00" fill="#000000">src/msc.cpp</text>
</a>
</g>
</g>
<!-- Node4&#45;&gt;Node14 -->
<g id="edge14" class="edge">
<title>Node4&#45;&gt;Node14</title>
<path fill="none" stroke="#63b8ff" d="M714.2831,-60.1517C786.957,-53.3405 927.8294,-38.8521 1046.5,-19 1049.1207,-18.5616 1051.8213,-18.0721 1054.5345,-17.5527"/>
<polygon fill="#63b8ff" stroke="#63b8ff" points="713.6998,-56.6908 704.0663,-61.1007 714.3472,-63.6608 713.6998,-56.6908"/>
</g>
<!-- Node15 -->
<g id="node15" class="node">
<title>Node15</title>
<g id="a_node15"><a xlink:href="../../d7/d5b/plantuml_8cpp.html" target="_top" xlink:title=" ">
<polygon fill="#ffffff" stroke="#666666" points="1233,-19 1144,-19 1144,0 1233,0 1233,-19"/>
<text text-anchor="middle" x="1188.5" y="-7" font-family="Helvetica,sans-Serif" font-size="10.00" fill="#000000">src/plantuml.cpp</text>
</a>
</g>
</g>
<!-- Node4&#45;&gt;Node15 -->
<g id="edge15" class="edge">
<title>Node4&#45;&gt;Node15</title>
<path fill="none" stroke="#63b8ff" d="M714.1874,-61.0911C799.6921,-54.8138 982.3092,-40.1092 1135.5,-19 1138.1856,-18.6299 1140.9428,-18.2218 1143.721,-17.789"/>
<polygon fill="#63b8ff" stroke="#63b8ff" points="713.7239,-57.6155 704.0045,-61.8325 714.2322,-64.597 713.7239,-57.6155"/>
</g>
<!-- Node16 -->
<g id="node16" class="node">
<title>Node16</title>
<g id="a_node16"><a xlink:href="../../d9/d2f/searchindex__js_8cpp.html" target="_top" xlink:title=" ">
<polygon fill="#ffffff" stroke="#666666" points="1368,-19 1251,-19 1251,0 1368,0 1368,-19"/>
<text text-anchor="middle" x="1309.5" y="-7" font-family="Helvetica,sans-Serif" font-size="10.00" fill="#000000">src/searchindex_js.cpp</text>
</a>
</g>
</g>
<!-- Node4&#45;&gt;Node16 -->
<g id="edge16" class="edge">
<title>Node4&#45;&gt;Node16</title>
<path fill="none" stroke="#63b8ff" d="M714.1091,-61.6906C813.5156,-55.7197 1047.1565,-40.5299 1242.5,-19 1245.1858,-18.704 1247.9299,-18.3845 1250.7,-18.0481"/>
<polygon fill="#63b8ff" stroke="#63b8ff" points="713.841,-58.2003 704.0673,-62.2898 714.258,-65.1879 713.841,-58.2003"/>
</g>
<!-- Node17 -->
<g id="node17" class="node">
<title>Node17</title>
<g id="a_node17"><a xlink:href="../../df/d2d/util_8cpp.html" target="_top" xlink:title=" ">
<polygon fill="#ffffff" stroke="#666666" points="1451,-19 1386,-19 1386,0 1451,0 1451,-19"/>
<text text-anchor="middle" x="1418.5" y="-7" font-family="Helvetica,sans-Serif" font-size="10.00" fill="#000000">src/util.cpp</text>
</a>
</g>
</g>
<!-- Node4&#45;&gt;Node17 -->
<g id="edge17" class="edge">
<title>Node4&#45;&gt;Node17</title>
<path fill="none" stroke="#63b8ff" d="M714.6519,-62.4105C853.8755,-56.3249 1249.1038,-37.8478 1377.5,-19 1380.2471,-18.5967 1383.082,-18.1039 1385.9182,-17.5569"/>
<polygon fill="#63b8ff" stroke="#63b8ff" points="714.1396,-58.9294 704.3012,-62.8607 714.4438,-65.9228 714.1396,-58.9294"/>
</g>
</g>
</svg>
