<?xml version="1.0" encoding="UTF-8" standalone="no"?>
<!DOCTYPE svg PUBLIC "-//W3C//DTD SVG 1.1//EN"
 "http://www.w3.org/Graphics/SVG/1.1/DTD/svg11.dtd">
<!-- Generated by graphviz version 2.40.1 (20161225.0304)
 -->
<!-- Title: TranslatorAdapter_1_7_5 Pages: 1 -->
<svg width="1985pt" height="304pt"
 viewBox="0.00 0.00 1985.00 304.00" xmlns="http://www.w3.org/2000/svg" xmlns:xlink="http://www.w3.org/1999/xlink">
<g id="graph0" class="graph" transform="scale(1 1) rotate(0) translate(4 300)">
<title>TranslatorAdapter_1_7_5</title>
<!-- Node1 -->
<g id="node1" class="node">
<title>Node1</title>
<g id="a_node1"><a xlink:title="Adapter class for languages that only contain translations up to version 1.7.5.">
<polygon fill="#999999" stroke="#666666" points="1512,-93 1387,-93 1387,-74 1512,-74 1512,-93"/>
<text text-anchor="middle" x="1449.5" y="-81" font-family="Helvetica,sans-Serif" font-size="10.00" fill="#000000">TranslatorAdapter_1_7_5</text>
</a>
</g>
</g>
<!-- Node11 -->
<g id="node11" class="node">
<title>Node11</title>
<g id="a_node11"><a xlink:href="../../d3/da1/class_translator_adapter__1__6__0.html" target="_top" xlink:title="Adapter class for languages that only contain translations up to version 1.6.0.">
<polygon fill="#ffffff" stroke="#666666" points="1673,-130 1548,-130 1548,-111 1673,-111 1673,-130"/>
<text text-anchor="middle" x="1610.5" y="-118" font-family="Helvetica,sans-Serif" font-size="10.00" fill="#000000">TranslatorAdapter_1_6_0</text>
</a>
</g>
</g>
<!-- Node1&#45;&gt;Node11 -->
<g id="edge10" class="edge">
<title>Node1&#45;&gt;Node11</title>
<path fill="none" stroke="#63b8ff" d="M1500.7953,-95.2884C1522.7748,-100.3396 1548.1145,-106.163 1568.8995,-110.9396"/>
<polygon fill="#63b8ff" stroke="#63b8ff" points="1501.4914,-91.8572 1490.9615,-93.0284 1499.9235,-98.6793 1501.4914,-91.8572"/>
</g>
<!-- Node23 -->
<g id="node23" class="node">
<title>Node23</title>
<g id="a_node23"><a xlink:href="../../d5/d43/class_translator_persian.html" target="_top" xlink:title=" ">
<polygon fill="#ffffff" stroke="#666666" points="1657,-93 1564,-93 1564,-74 1657,-74 1657,-93"/>
<text text-anchor="middle" x="1610.5" y="-81" font-family="Helvetica,sans-Serif" font-size="10.00" fill="#000000">TranslatorPersian</text>
</a>
</g>
</g>
<!-- Node1&#45;&gt;Node23 -->
<g id="edge22" class="edge">
<title>Node1&#45;&gt;Node23</title>
<path fill="none" stroke="#63b8ff" d="M1522.349,-83.5C1536.3862,-83.5 1550.7365,-83.5 1563.6719,-83.5"/>
<polygon fill="#63b8ff" stroke="#63b8ff" points="1522.2078,-80.0001 1512.2078,-83.5 1522.2078,-87.0001 1522.2078,-80.0001"/>
</g>
<!-- Node24 -->
<g id="node24" class="node">
<title>Node24</title>
<g id="a_node24"><a xlink:href="../../dd/d80/class_translator_turkish.html" target="_top" xlink:title=" ">
<polygon fill="#ffffff" stroke="#666666" points="1656.5,-56 1564.5,-56 1564.5,-37 1656.5,-37 1656.5,-56"/>
<text text-anchor="middle" x="1610.5" y="-44" font-family="Helvetica,sans-Serif" font-size="10.00" fill="#000000">TranslatorTurkish</text>
</a>
</g>
</g>
<!-- Node1&#45;&gt;Node24 -->
<g id="edge23" class="edge">
<title>Node1&#45;&gt;Node24</title>
<path fill="none" stroke="#63b8ff" d="M1500.7953,-71.7116C1522.7748,-66.6604 1548.1145,-60.837 1568.8995,-56.0604"/>
<polygon fill="#63b8ff" stroke="#63b8ff" points="1499.9235,-68.3207 1490.9615,-73.9716 1501.4914,-75.1428 1499.9235,-68.3207"/>
</g>
<!-- Node2 -->
<g id="node2" class="node">
<title>Node2</title>
<g id="a_node2"><a xlink:href="../../de/d49/class_translator_adapter__1__8__0.html" target="_top" xlink:title="Adapter class for languages that only contain translations up to version 1.8.0.">
<polygon fill="#ffffff" stroke="#666666" points="1351,-93 1226,-93 1226,-74 1351,-74 1351,-93"/>
<text text-anchor="middle" x="1288.5" y="-81" font-family="Helvetica,sans-Serif" font-size="10.00" fill="#000000">TranslatorAdapter_1_8_0</text>
</a>
</g>
</g>
<!-- Node2&#45;&gt;Node1 -->
<g id="edge1" class="edge">
<title>Node2&#45;&gt;Node1</title>
<path fill="none" stroke="#63b8ff" d="M1361.2184,-83.5C1369.8129,-83.5 1378.5268,-83.5 1386.9633,-83.5"/>
<polygon fill="#63b8ff" stroke="#63b8ff" points="1361.2078,-80.0001 1351.2078,-83.5 1361.2078,-87.0001 1361.2078,-80.0001"/>
</g>
<!-- Node3 -->
<g id="node3" class="node">
<title>Node3</title>
<g id="a_node3"><a xlink:href="../../d2/d75/class_translator_adapter__1__8__2.html" target="_top" xlink:title=" ">
<polygon fill="#ffffff" stroke="#666666" points="1190,-93 1065,-93 1065,-74 1190,-74 1190,-93"/>
<text text-anchor="middle" x="1127.5" y="-81" font-family="Helvetica,sans-Serif" font-size="10.00" fill="#000000">TranslatorAdapter_1_8_2</text>
</a>
</g>
</g>
<!-- Node3&#45;&gt;Node2 -->
<g id="edge2" class="edge">
<title>Node3&#45;&gt;Node2</title>
<path fill="none" stroke="#63b8ff" d="M1200.2184,-83.5C1208.8129,-83.5 1217.5268,-83.5 1225.9633,-83.5"/>
<polygon fill="#63b8ff" stroke="#63b8ff" points="1200.2078,-80.0001 1190.2078,-83.5 1200.2078,-87.0001 1200.2078,-80.0001"/>
</g>
<!-- Node4 -->
<g id="node4" class="node">
<title>Node4</title>
<g id="a_node4"><a xlink:href="../../de/d2f/class_translator_adapter__1__8__4.html" target="_top" xlink:title=" ">
<polygon fill="#ffffff" stroke="#666666" points="1029,-93 904,-93 904,-74 1029,-74 1029,-93"/>
<text text-anchor="middle" x="966.5" y="-81" font-family="Helvetica,sans-Serif" font-size="10.00" fill="#000000">TranslatorAdapter_1_8_4</text>
</a>
</g>
</g>
<!-- Node4&#45;&gt;Node3 -->
<g id="edge3" class="edge">
<title>Node4&#45;&gt;Node3</title>
<path fill="none" stroke="#63b8ff" d="M1039.2184,-83.5C1047.8129,-83.5 1056.5268,-83.5 1064.9633,-83.5"/>
<polygon fill="#63b8ff" stroke="#63b8ff" points="1039.2078,-80.0001 1029.2078,-83.5 1039.2078,-87.0001 1039.2078,-80.0001"/>
</g>
<!-- Node5 -->
<g id="node5" class="node">
<title>Node5</title>
<g id="a_node5"><a xlink:href="../../d4/d2e/class_translator_adapter__1__8__15.html" target="_top" xlink:title=" ">
<polygon fill="#ffffff" stroke="#666666" points="868,-93 737,-93 737,-74 868,-74 868,-93"/>
<text text-anchor="middle" x="802.5" y="-81" font-family="Helvetica,sans-Serif" font-size="10.00" fill="#000000">TranslatorAdapter_1_8_15</text>
</a>
</g>
</g>
<!-- Node5&#45;&gt;Node4 -->
<g id="edge4" class="edge">
<title>Node5&#45;&gt;Node4</title>
<path fill="none" stroke="#63b8ff" d="M878.2726,-83.5C886.857,-83.5 895.5328,-83.5 903.9211,-83.5"/>
<polygon fill="#63b8ff" stroke="#63b8ff" points="878.2601,-80.0001 868.2601,-83.5 878.2601,-87.0001 878.2601,-80.0001"/>
</g>
<!-- Node6 -->
<g id="node6" class="node">
<title>Node6</title>
<g id="a_node6"><a xlink:href="../../de/dde/class_translator_adapter__1__8__19.html" target="_top" xlink:title=" ">
<polygon fill="#ffffff" stroke="#666666" points="701,-93 570,-93 570,-74 701,-74 701,-93"/>
<text text-anchor="middle" x="635.5" y="-81" font-family="Helvetica,sans-Serif" font-size="10.00" fill="#000000">TranslatorAdapter_1_8_19</text>
</a>
</g>
</g>
<!-- Node6&#45;&gt;Node5 -->
<g id="edge5" class="edge">
<title>Node6&#45;&gt;Node5</title>
<path fill="none" stroke="#63b8ff" d="M711.0663,-83.5C719.6848,-83.5 728.4171,-83.5 736.8913,-83.5"/>
<polygon fill="#63b8ff" stroke="#63b8ff" points="711.0235,-80.0001 701.0235,-83.5 711.0235,-87.0001 711.0235,-80.0001"/>
</g>
<!-- Node7 -->
<g id="node7" class="node">
<title>Node7</title>
<g id="a_node7"><a xlink:href="../../d3/d2e/class_translator_adapter__1__9__2.html" target="_top" xlink:title=" ">
<polygon fill="#ffffff" stroke="#666666" points="534,-93 409,-93 409,-74 534,-74 534,-93"/>
<text text-anchor="middle" x="471.5" y="-81" font-family="Helvetica,sans-Serif" font-size="10.00" fill="#000000">TranslatorAdapter_1_9_2</text>
</a>
</g>
</g>
<!-- Node7&#45;&gt;Node6 -->
<g id="edge6" class="edge">
<title>Node7&#45;&gt;Node6</title>
<path fill="none" stroke="#63b8ff" d="M544.5745,-83.5C552.9557,-83.5 561.4628,-83.5 569.7399,-83.5"/>
<polygon fill="#63b8ff" stroke="#63b8ff" points="544.4377,-80.0001 534.4377,-83.5 544.4376,-87.0001 544.4377,-80.0001"/>
</g>
<!-- Node8 -->
<g id="node8" class="node">
<title>Node8</title>
<g id="a_node8"><a xlink:href="../../d0/d33/class_translator_adapter__1__9__4.html" target="_top" xlink:title=" ">
<polygon fill="#ffffff" stroke="#666666" points="373,-93 248,-93 248,-74 373,-74 373,-93"/>
<text text-anchor="middle" x="310.5" y="-81" font-family="Helvetica,sans-Serif" font-size="10.00" fill="#000000">TranslatorAdapter_1_9_4</text>
</a>
</g>
</g>
<!-- Node8&#45;&gt;Node7 -->
<g id="edge7" class="edge">
<title>Node8&#45;&gt;Node7</title>
<path fill="none" stroke="#63b8ff" d="M383.2184,-83.5C391.8129,-83.5 400.5268,-83.5 408.9633,-83.5"/>
<polygon fill="#63b8ff" stroke="#63b8ff" points="383.2078,-80.0001 373.2078,-83.5 383.2078,-87.0001 383.2078,-80.0001"/>
</g>
<!-- Node9 -->
<g id="node9" class="node">
<title>Node9</title>
<g id="a_node9"><a xlink:href="../../db/d6c/class_translator_adapter_base.html" target="_top" xlink:title="Base of the translator adapter tree.">
<polygon fill="#ffffff" stroke="#666666" points="212,-93 96,-93 96,-74 212,-74 212,-93"/>
<text text-anchor="middle" x="154" y="-81" font-family="Helvetica,sans-Serif" font-size="10.00" fill="#000000">TranslatorAdapterBase</text>
</a>
</g>
</g>
<!-- Node9&#45;&gt;Node8 -->
<g id="edge8" class="edge">
<title>Node9&#45;&gt;Node8</title>
<path fill="none" stroke="#63b8ff" d="M222.5047,-83.5C230.9767,-83.5 239.6034,-83.5 247.9794,-83.5"/>
<polygon fill="#63b8ff" stroke="#63b8ff" points="222.2749,-80.0001 212.2748,-83.5 222.2748,-87.0001 222.2749,-80.0001"/>
</g>
<!-- Node10 -->
<g id="node10" class="node">
<title>Node10</title>
<g id="a_node10"><a xlink:href="../../d8/dfb/class_translator.html" target="_top" xlink:title="Abstract base class for all translatable text fragments.">
<polygon fill="#ffffff" stroke="#666666" points="60,-93 0,-93 0,-74 60,-74 60,-93"/>
<text text-anchor="middle" x="30" y="-81" font-family="Helvetica,sans-Serif" font-size="10.00" fill="#000000">Translator</text>
</a>
</g>
</g>
<!-- Node10&#45;&gt;Node9 -->
<g id="edge9" class="edge">
<title>Node10&#45;&gt;Node9</title>
<path fill="none" stroke="#63b8ff" d="M70.2811,-83.5C78.379,-83.5 87.0427,-83.5 95.614,-83.5"/>
<polygon fill="#63b8ff" stroke="#63b8ff" points="70.017,-80.0001 60.0169,-83.5 70.0169,-87.0001 70.017,-80.0001"/>
</g>
<!-- Node12 -->
<g id="node12" class="node">
<title>Node12</title>
<g id="a_node12"><a xlink:href="../../d4/d2b/class_translator_adapter__1__4__6.html" target="_top" xlink:title="Adapter class for languages that only contain translations up to version 1.4.6.">
<polygon fill="#ffffff" stroke="#666666" points="1834,-241 1709,-241 1709,-222 1834,-222 1834,-241"/>
<text text-anchor="middle" x="1771.5" y="-229" font-family="Helvetica,sans-Serif" font-size="10.00" fill="#000000">TranslatorAdapter_1_4_6</text>
</a>
</g>
</g>
<!-- Node11&#45;&gt;Node12 -->
<g id="edge11" class="edge">
<title>Node11&#45;&gt;Node12</title>
<path fill="none" stroke="#63b8ff" d="M1624.4656,-138.0385C1642.041,-158.969 1674.1707,-193.6252 1709,-213.5 1714.8844,-216.8578 1721.4437,-219.6305 1728.0383,-221.9077"/>
<polygon fill="#63b8ff" stroke="#63b8ff" points="1627.1135,-135.748 1618.0609,-130.2434 1621.705,-140.1918 1627.1135,-135.748"/>
</g>
<!-- Node17 -->
<g id="node17" class="node">
<title>Node17</title>
<g id="a_node17"><a xlink:href="../../d3/d65/class_translator_afrikaans.html" target="_top" xlink:title=" ">
<polygon fill="#ffffff" stroke="#666666" points="1822,-204 1721,-204 1721,-185 1822,-185 1822,-204"/>
<text text-anchor="middle" x="1771.5" y="-192" font-family="Helvetica,sans-Serif" font-size="10.00" fill="#000000">TranslatorAfrikaans</text>
</a>
</g>
</g>
<!-- Node11&#45;&gt;Node17 -->
<g id="edge16" class="edge">
<title>Node11&#45;&gt;Node17</title>
<path fill="none" stroke="#63b8ff" d="M1633.8673,-135.4312C1653.3839,-147.435 1682.2385,-164.1164 1709,-175.5 1717.3489,-179.0514 1726.5832,-182.2386 1735.3343,-184.9425"/>
<polygon fill="#63b8ff" stroke="#63b8ff" points="1635.681,-132.4375 1625.3428,-130.1196 1631.9791,-138.3786 1635.681,-132.4375"/>
</g>
<!-- Node18 -->
<g id="node18" class="node">
<title>Node18</title>
<g id="a_node18"><a xlink:href="../../de/df7/class_translator_finnish.html" target="_top" xlink:title=" ">
<polygon fill="#ffffff" stroke="#666666" points="1817.5,-167 1725.5,-167 1725.5,-148 1817.5,-148 1817.5,-167"/>
<text text-anchor="middle" x="1771.5" y="-155" font-family="Helvetica,sans-Serif" font-size="10.00" fill="#000000">TranslatorFinnish</text>
</a>
</g>
</g>
<!-- Node11&#45;&gt;Node18 -->
<g id="edge17" class="edge">
<title>Node11&#45;&gt;Node18</title>
<path fill="none" stroke="#63b8ff" d="M1661.7953,-132.2884C1683.7748,-137.3396 1709.1145,-143.163 1729.8995,-147.9396"/>
<polygon fill="#63b8ff" stroke="#63b8ff" points="1662.4914,-128.8572 1651.9615,-130.0284 1660.9235,-135.6793 1662.4914,-128.8572"/>
</g>
<!-- Node19 -->
<g id="node19" class="node">
<title>Node19</title>
<g id="a_node19"><a xlink:href="../../d9/ddf/class_translator_macedonian.html" target="_top" xlink:title=" ">
<polygon fill="#ffffff" stroke="#666666" points="1828,-130 1715,-130 1715,-111 1828,-111 1828,-130"/>
<text text-anchor="middle" x="1771.5" y="-118" font-family="Helvetica,sans-Serif" font-size="10.00" fill="#000000">TranslatorMacedonian</text>
</a>
</g>
</g>
<!-- Node11&#45;&gt;Node19 -->
<g id="edge18" class="edge">
<title>Node11&#45;&gt;Node19</title>
<path fill="none" stroke="#63b8ff" d="M1683.3195,-120.5C1693.9493,-120.5 1704.7593,-120.5 1714.9992,-120.5"/>
<polygon fill="#63b8ff" stroke="#63b8ff" points="1683.2078,-117.0001 1673.2078,-120.5 1683.2078,-124.0001 1683.2078,-117.0001"/>
</g>
<!-- Node20 -->
<g id="node20" class="node">
<title>Node20</title>
<g id="a_node20"><a xlink:href="../../d5/d0a/class_translator_serbian.html" target="_top" xlink:title=" ">
<polygon fill="#ffffff" stroke="#666666" points="1818,-93 1725,-93 1725,-74 1818,-74 1818,-93"/>
<text text-anchor="middle" x="1771.5" y="-81" font-family="Helvetica,sans-Serif" font-size="10.00" fill="#000000">TranslatorSerbian</text>
</a>
</g>
</g>
<!-- Node11&#45;&gt;Node20 -->
<g id="edge19" class="edge">
<title>Node11&#45;&gt;Node20</title>
<path fill="none" stroke="#63b8ff" d="M1661.7953,-108.7116C1683.7748,-103.6604 1709.1145,-97.837 1729.8995,-93.0604"/>
<polygon fill="#63b8ff" stroke="#63b8ff" points="1660.9235,-105.3207 1651.9615,-110.9716 1662.4914,-112.1428 1660.9235,-105.3207"/>
</g>
<!-- Node21 -->
<g id="node21" class="node">
<title>Node21</title>
<g id="a_node21"><a xlink:href="../../dc/d03/class_translator_serbian_cyrillic.html" target="_top" xlink:title=" ">
<polygon fill="#ffffff" stroke="#666666" points="1833,-56 1710,-56 1710,-37 1833,-37 1833,-56"/>
<text text-anchor="middle" x="1771.5" y="-44" font-family="Helvetica,sans-Serif" font-size="10.00" fill="#000000">TranslatorSerbianCyrillic</text>
</a>
</g>
</g>
<!-- Node11&#45;&gt;Node21 -->
<g id="edge20" class="edge">
<title>Node11&#45;&gt;Node21</title>
<path fill="none" stroke="#63b8ff" d="M1662.06,-107.1629C1665.8652,-105.4783 1669.5571,-103.5972 1673,-101.5 1692.5948,-89.5641 1689.318,-76.2914 1709,-64.5 1714.6181,-61.1342 1720.8987,-58.3696 1727.2532,-56.1065"/>
<polygon fill="#63b8ff" stroke="#63b8ff" points="1660.4623,-104.0307 1652.4448,-110.9568 1663.0315,-110.5422 1660.4623,-104.0307"/>
</g>
<!-- Node22 -->
<g id="node22" class="node">
<title>Node22</title>
<g id="a_node22"><a xlink:href="../../df/d20/class_translator_vietnamese.html" target="_top" xlink:title=" ">
<polygon fill="#ffffff" stroke="#666666" points="1827.5,-19 1715.5,-19 1715.5,0 1827.5,0 1827.5,-19"/>
<text text-anchor="middle" x="1771.5" y="-7" font-family="Helvetica,sans-Serif" font-size="10.00" fill="#000000">TranslatorVietnamese</text>
</a>
</g>
</g>
<!-- Node11&#45;&gt;Node22 -->
<g id="edge21" class="edge">
<title>Node11&#45;&gt;Node22</title>
<path fill="none" stroke="#63b8ff" d="M1666.592,-106.1754C1668.8493,-104.7611 1670.9999,-103.2073 1673,-101.5 1700.8182,-77.7549 1681.0079,-51.0398 1709,-27.5 1713.0618,-24.0843 1717.7388,-21.316 1722.6682,-19.0726"/>
<polygon fill="#63b8ff" stroke="#63b8ff" points="1664.6812,-103.2252 1657.4485,-110.9673 1667.9306,-109.4254 1664.6812,-103.2252"/>
</g>
<!-- Node13 -->
<g id="node13" class="node">
<title>Node13</title>
<g id="a_node13"><a xlink:href="../../d3/de9/class_translator_arabic.html" target="_top" xlink:title=" ">
<polygon fill="#ffffff" stroke="#666666" points="1967.5,-296 1879.5,-296 1879.5,-277 1967.5,-277 1967.5,-296"/>
<text text-anchor="middle" x="1923.5" y="-284" font-family="Helvetica,sans-Serif" font-size="10.00" fill="#000000">TranslatorArabic</text>
</a>
</g>
</g>
<!-- Node12&#45;&gt;Node13 -->
<g id="edge12" class="edge">
<title>Node12&#45;&gt;Node13</title>
<path fill="none" stroke="#63b8ff" d="M1805.5002,-244.6044C1824.4304,-251.8165 1848.4568,-260.8323 1870,-268.5 1877.9399,-271.326 1886.5829,-274.2846 1894.5605,-276.9679"/>
<polygon fill="#63b8ff" stroke="#63b8ff" points="1806.6963,-241.3146 1796.1057,-241.014 1804.1973,-247.8534 1806.6963,-241.3146"/>
</g>
<!-- Node14 -->
<g id="node14" class="node">
<title>Node14</title>
<g id="a_node14"><a xlink:href="../../dc/d53/class_translator_lithuanian.html" target="_top" xlink:title=" ">
<polygon fill="#ffffff" stroke="#666666" points="1975.5,-259 1871.5,-259 1871.5,-240 1975.5,-240 1975.5,-259"/>
<text text-anchor="middle" x="1923.5" y="-247" font-family="Helvetica,sans-Serif" font-size="10.00" fill="#000000">TranslatorLithuanian</text>
</a>
</g>
</g>
<!-- Node12&#45;&gt;Node14 -->
<g id="edge13" class="edge">
<title>Node12&#45;&gt;Node14</title>
<path fill="none" stroke="#63b8ff" d="M1844.344,-240.1263C1853.3737,-241.1956 1862.4628,-242.2719 1871.1005,-243.2948"/>
<polygon fill="#63b8ff" stroke="#63b8ff" points="1844.544,-236.6256 1834.2018,-238.9252 1843.7208,-243.577 1844.544,-236.6256"/>
</g>
<!-- Node15 -->
<g id="node15" class="node">
<title>Node15</title>
<g id="a_node15"><a xlink:href="../../dd/d38/class_translator_norwegian.html" target="_top" xlink:title=" ">
<polygon fill="#ffffff" stroke="#666666" points="1977,-222 1870,-222 1870,-203 1977,-203 1977,-222"/>
<text text-anchor="middle" x="1923.5" y="-210" font-family="Helvetica,sans-Serif" font-size="10.00" fill="#000000">TranslatorNorwegian</text>
</a>
</g>
</g>
<!-- Node12&#45;&gt;Node15 -->
<g id="edge14" class="edge">
<title>Node12&#45;&gt;Node15</title>
<path fill="none" stroke="#63b8ff" d="M1844.2159,-222.4105C1852.7906,-221.3387 1861.4211,-220.2599 1869.6698,-219.2288"/>
<polygon fill="#63b8ff" stroke="#63b8ff" points="1843.6904,-218.9489 1834.2018,-223.6623 1844.5587,-225.8948 1843.6904,-218.9489"/>
</g>
<!-- Node16 -->
<g id="node16" class="node">
<title>Node16</title>
<g id="a_node16"><a xlink:href="../../dd/d0b/class_translator_slovene.html" target="_top" xlink:title=" ">
<polygon fill="#ffffff" stroke="#666666" points="1971,-185 1876,-185 1876,-166 1971,-166 1971,-185"/>
<text text-anchor="middle" x="1923.5" y="-173" font-family="Helvetica,sans-Serif" font-size="10.00" fill="#000000">TranslatorSlovene</text>
</a>
</g>
</g>
<!-- Node12&#45;&gt;Node16 -->
<g id="edge15" class="edge">
<title>Node12&#45;&gt;Node16</title>
<path fill="none" stroke="#63b8ff" d="M1819.8753,-218.7604C1824.6994,-217.1356 1829.4803,-215.3777 1834,-213.5 1850.9027,-206.4778 1853.2564,-200.8935 1870,-193.5 1876.9925,-190.4123 1884.6905,-187.5352 1892.0151,-185.0269"/>
<polygon fill="#63b8ff" stroke="#63b8ff" points="1818.4528,-215.5399 1809.9825,-221.9043 1820.5729,-222.2111 1818.4528,-215.5399"/>
</g>
</g>
</svg>
