<?xml version="1.0" encoding="UTF-8" standalone="no"?>
<!DOCTYPE svg PUBLIC "-//W3C//DTD SVG 1.1//EN"
 "http://www.w3.org/Graphics/SVG/1.1/DTD/svg11.dtd">
<!-- Generated by graphviz version 2.40.1 (20161225.0304)
 -->
<!-- Title: LayoutDocEntryMemberDecl Pages: 1 -->
<svg width="181pt" height="104pt"
 viewBox="0.00 0.00 180.50 104.00" xmlns="http://www.w3.org/2000/svg" xmlns:xlink="http://www.w3.org/1999/xlink">
<g id="graph0" class="graph" transform="scale(1 1) rotate(0) translate(4 100)">
<title>LayoutDocEntryMemberDecl</title>
<!-- Node1 -->
<g id="node1" class="node">
<title>Node1</title>
<g id="a_node1"><a xlink:title="Represents of a member declaration list with configurable title and subtitle.">
<polygon fill="#999999" stroke="#666666" points="160,-19 17,-19 17,0 160,0 160,-19"/>
<text text-anchor="middle" x="88.5" y="-7" font-family="Helvetica,sans-Serif" font-size="10.00" fill="#000000">LayoutDocEntryMemberDecl</text>
</a>
</g>
</g>
<!-- Node2 -->
<g id="node2" class="node">
<title>Node2</title>
<g id="a_node2"><a xlink:href="../../d9/dba/struct_layout_doc_entry.html" target="_top" xlink:title="Base class representing a piece of a documentation page.">
<polygon fill="#ffffff" stroke="#666666" points="87,-96 0,-96 0,-77 87,-77 87,-96"/>
<text text-anchor="middle" x="43.5" y="-84" font-family="Helvetica,sans-Serif" font-size="10.00" fill="#000000">LayoutDocEntry</text>
</a>
</g>
</g>
<!-- Node2&#45;&gt;Node1 -->
<g id="edge1" class="edge">
<title>Node2&#45;&gt;Node1</title>
<path fill="none" stroke="#63b8ff" d="M54.4902,-67.6946C63.397,-52.454 75.597,-31.5785 82.7049,-19.4161"/>
<polygon fill="#63b8ff" stroke="#63b8ff" points="51.2232,-66.3482 49.1993,-76.7479 57.2668,-69.8802 51.2232,-66.3482"/>
</g>
<!-- Node3 -->
<g id="node3" class="node">
<title>Node3</title>
<g id="a_node3"><a xlink:href="../../d9/d45/class_q_c_string.html" target="_top" xlink:title="This is an alternative implementation of QCString.">
<polygon fill="#ffffff" stroke="#666666" points="162,-96 105,-96 105,-77 162,-77 162,-96"/>
<text text-anchor="middle" x="133.5" y="-84" font-family="Helvetica,sans-Serif" font-size="10.00" fill="#000000">QCString</text>
</a>
</g>
</g>
<!-- Node3&#45;&gt;Node1 -->
<g id="edge2" class="edge">
<title>Node3&#45;&gt;Node1</title>
<path fill="none" stroke="#9a32cd" stroke-dasharray="5,2" d="M122.5098,-67.6946C113.603,-52.454 101.403,-31.5785 94.2951,-19.4161"/>
<polygon fill="#9a32cd" stroke="#9a32cd" points="119.7332,-69.8802 127.8007,-76.7479 125.7768,-66.3482 119.7332,-69.8802"/>
<text text-anchor="middle" x="144" y="-51" font-family="Helvetica,sans-Serif" font-size="10.00" fill="#000000"> m_subscript</text>
<text text-anchor="middle" x="144" y="-40" font-family="Helvetica,sans-Serif" font-size="10.00" fill="#000000">m_title</text>
</g>
</g>
</svg>
