<?xml version="1.0" encoding="UTF-8" standalone="no"?>
<!DOCTYPE svg PUBLIC "-//W3C//DTD SVG 1.1//EN"
 "http://www.w3.org/Graphics/SVG/1.1/DTD/svg11.dtd">
<!-- Generated by graphviz version 2.40.1 (20161225.0304)
 -->
<!-- Title: LayoutNavEntry Pages: 1 -->
<svg width="157pt" height="115pt"
 viewBox="0.00 0.00 157.00 115.00" xmlns="http://www.w3.org/2000/svg" xmlns:xlink="http://www.w3.org/1999/xlink">
<g id="graph0" class="graph" transform="scale(1 1) rotate(0) translate(4 111)">
<title>LayoutNavEntry</title>
<!-- Node1 -->
<g id="node1" class="node">
<title>Node1</title>
<g id="a_node1"><a xlink:title="Base class for the layout of a navigation item at the top of the HTML pages.">
<polygon fill="#999999" stroke="#666666" points="87,-19 0,-19 0,0 87,0 87,-19"/>
<text text-anchor="middle" x="43.5" y="-7" font-family="Helvetica,sans-Serif" font-size="10.00" fill="#000000">LayoutNavEntry</text>
</a>
</g>
</g>
<!-- Node1&#45;&gt;Node1 -->
<g id="edge1" class="edge">
<title>Node1&#45;&gt;Node1</title>
<path fill="none" stroke="#9a32cd" stroke-dasharray="5,2" d="M97.3202,-15.9823C102.043,-14.6149 105,-12.4541 105,-9.5 105,-4.7734 97.4301,-2.0778 87.1694,-1.4131"/>
<polygon fill="#9a32cd" stroke="#9a32cd" points="96.5002,-12.5684 87.1694,-17.5869 97.5932,-19.4825 96.5002,-12.5684"/>
<text text-anchor="middle" x="127" y="-7" font-family="Helvetica,sans-Serif" font-size="10.00" fill="#000000"> m_parent</text>
</g>
<!-- Node2 -->
<g id="node2" class="node">
<title>Node2</title>
<g id="a_node2"><a xlink:href="../../d9/d45/class_q_c_string.html" target="_top" xlink:title="This is an alternative implementation of QCString.">
<polygon fill="#ffffff" stroke="#666666" points="72,-107 15,-107 15,-88 72,-88 72,-107"/>
<text text-anchor="middle" x="43.5" y="-95" font-family="Helvetica,sans-Serif" font-size="10.00" fill="#000000">QCString</text>
</a>
</g>
</g>
<!-- Node2&#45;&gt;Node1 -->
<g id="edge2" class="edge">
<title>Node2&#45;&gt;Node1</title>
<path fill="none" stroke="#9a32cd" stroke-dasharray="5,2" d="M43.5,-77.5775C43.5,-59.2889 43.5,-32.9812 43.5,-19.03"/>
<polygon fill="#9a32cd" stroke="#9a32cd" points="40.0001,-77.7462 43.5,-87.7462 47.0001,-77.7463 40.0001,-77.7462"/>
<text text-anchor="middle" x="70.5" y="-62" font-family="Helvetica,sans-Serif" font-size="10.00" fill="#000000"> m_baseFile</text>
<text text-anchor="middle" x="70.5" y="-51" font-family="Helvetica,sans-Serif" font-size="10.00" fill="#000000">m_intro</text>
<text text-anchor="middle" x="70.5" y="-40" font-family="Helvetica,sans-Serif" font-size="10.00" fill="#000000">m_title</text>
</g>
</g>
</svg>
