<?xml version="1.0" encoding="UTF-8" standalone="no"?>
<!DOCTYPE svg PUBLIC "-//W3C//DTD SVG 1.1//EN"
 "http://www.w3.org/Graphics/SVG/1.1/DTD/svg11.dtd">
<!-- Generated by graphviz version 2.40.1 (20161225.0304)
 -->
<!-- Title: XmlDocVisitor Pages: 1 -->
<svg width="357pt" height="93pt"
 viewBox="0.00 0.00 356.50 93.00" xmlns="http://www.w3.org/2000/svg" xmlns:xlink="http://www.w3.org/1999/xlink">
<g id="graph0" class="graph" transform="scale(1 1) rotate(0) translate(4 89)">
<title>XmlDocVisitor</title>
<!-- Node1 -->
<g id="node1" class="node">
<title>Node1</title>
<g id="a_node1"><a xlink:title="Concrete visitor implementation for XML output.">
<polygon fill="#999999" stroke="#666666" points="207,-19 127,-19 127,0 207,0 207,-19"/>
<text text-anchor="middle" x="167" y="-7" font-family="Helvetica,sans-Serif" font-size="10.00" fill="#000000">XmlDocVisitor</text>
</a>
</g>
</g>
<!-- Node2 -->
<g id="node2" class="node">
<title>Node2</title>
<g id="a_node2"><a xlink:href="../../d0/d78/class_doc_visitor.html" target="_top" xlink:title="Helper base class for functionality shared by all visitors.">
<polygon fill="#ffffff" stroke="#666666" points="62,-85 0,-85 0,-66 62,-66 62,-85"/>
<text text-anchor="middle" x="31" y="-73" font-family="Helvetica,sans-Serif" font-size="10.00" fill="#000000">DocVisitor</text>
</a>
</g>
</g>
<!-- Node2&#45;&gt;Node1 -->
<g id="edge1" class="edge">
<title>Node2&#45;&gt;Node1</title>
<path fill="none" stroke="#63b8ff" d="M59.8703,-61.4894C86.142,-48.7399 124.2256,-30.2581 147.2006,-19.1085"/>
<polygon fill="#63b8ff" stroke="#63b8ff" points="58.244,-58.3882 50.7756,-65.903 61.3003,-64.6858 58.244,-58.3882"/>
</g>
<!-- Node3 -->
<g id="node3" class="node">
<title>Node3</title>
<g id="a_node3"><a xlink:href="../../d3/d30/class_text_stream.html" target="_top" xlink:title="Text streaming class that buffers data.">
<polygon fill="#ffffff" stroke="#666666" points="148,-85 80,-85 80,-66 148,-66 148,-85"/>
<text text-anchor="middle" x="114" y="-73" font-family="Helvetica,sans-Serif" font-size="10.00" fill="#000000">TextStream</text>
</a>
</g>
</g>
<!-- Node3&#45;&gt;Node1 -->
<g id="edge2" class="edge">
<title>Node3&#45;&gt;Node1</title>
<path fill="none" stroke="#9a32cd" stroke-dasharray="5,2" d="M128.1261,-57.909C138.063,-45.5347 150.9934,-29.4328 159.1476,-19.2785"/>
<polygon fill="#9a32cd" stroke="#9a32cd" points="125.3527,-55.7728 121.8203,-65.7615 130.8107,-60.1558 125.3527,-55.7728"/>
<text text-anchor="middle" x="154" y="-40" font-family="Helvetica,sans-Serif" font-size="10.00" fill="#000000"> m_t</text>
</g>
<!-- Node4 -->
<g id="node4" class="node">
<title>Node4</title>
<g id="a_node4"><a xlink:href="../../d5/d9c/class_code_output_interface.html" target="_top" xlink:title="Output interface for code parser.">
<polygon fill="#ffffff" stroke="#666666" points="273.5,-85 166.5,-85 166.5,-66 273.5,-66 273.5,-85"/>
<text text-anchor="middle" x="220" y="-73" font-family="Helvetica,sans-Serif" font-size="10.00" fill="#000000">CodeOutputInterface</text>
</a>
</g>
</g>
<!-- Node4&#45;&gt;Node1 -->
<g id="edge3" class="edge">
<title>Node4&#45;&gt;Node1</title>
<path fill="none" stroke="#9a32cd" stroke-dasharray="5,2" d="M205.8739,-57.909C195.937,-45.5347 183.0066,-29.4328 174.8524,-19.2785"/>
<polygon fill="#9a32cd" stroke="#9a32cd" points="203.1893,-60.1558 212.1797,-65.7615 208.6473,-55.7728 203.1893,-60.1558"/>
<text text-anchor="middle" x="208.5" y="-40" font-family="Helvetica,sans-Serif" font-size="10.00" fill="#000000"> m_ci</text>
</g>
<!-- Node5 -->
<g id="node5" class="node">
<title>Node5</title>
<g id="a_node5"><a xlink:href="../../d9/d45/class_q_c_string.html" target="_top" xlink:title="This is an alternative implementation of QCString.">
<polygon fill="#ffffff" stroke="#666666" points="348.5,-85 291.5,-85 291.5,-66 348.5,-66 348.5,-85"/>
<text text-anchor="middle" x="320" y="-73" font-family="Helvetica,sans-Serif" font-size="10.00" fill="#000000">QCString</text>
</a>
</g>
</g>
<!-- Node5&#45;&gt;Node1 -->
<g id="edge4" class="edge">
<title>Node5&#45;&gt;Node1</title>
<path fill="none" stroke="#9a32cd" stroke-dasharray="5,2" d="M288.2956,-61.8236C258.7182,-49.0647 215.3479,-30.356 189.2744,-19.1085"/>
<polygon fill="#9a32cd" stroke="#9a32cd" points="287.184,-65.1558 297.7525,-65.903 289.9567,-58.7283 287.184,-65.1558"/>
<text text-anchor="middle" x="277" y="-40" font-family="Helvetica,sans-Serif" font-size="10.00" fill="#000000"> m_langExt</text>
</g>
</g>
</svg>
