<?xml version="1.0" encoding="UTF-8" standalone="no"?>
<!DOCTYPE svg PUBLIC "-//W3C//DTD SVG 1.1//EN"
 "http://www.w3.org/Graphics/SVG/1.1/DTD/svg11.dtd">
<!-- Generated by graphviz version 2.40.1 (20161225.0304)
 -->
<!-- Title: src/outputlist.h Pages: 1 -->
<svg width="2514pt" height="82pt"
 viewBox="0.00 0.00 2514.00 82.00" xmlns="http://www.w3.org/2000/svg" xmlns:xlink="http://www.w3.org/1999/xlink">
<g id="graph0" class="graph" transform="scale(1 1) rotate(0) translate(4 78)">
<title>src/outputlist.h</title>
<!-- Node1 -->
<g id="node1" class="node">
<title>Node1</title>
<g id="a_node1"><a xlink:title=" ">
<polygon fill="#999999" stroke="#666666" points="1275,-74 1194,-74 1194,-55 1275,-55 1275,-74"/>
<text text-anchor="middle" x="1234.5" y="-62" font-family="Helvetica,sans-Serif" font-size="10.00" fill="#000000">src/outputlist.h</text>
</a>
</g>
</g>
<!-- Node2 -->
<g id="node2" class="node">
<title>Node2</title>
<g id="a_node2"><a xlink:href="../../de/d89/classdef_8cpp.html" target="_top" xlink:title=" ">
<polygon fill="#ffffff" stroke="#666666" points="89,-19 0,-19 0,0 89,0 89,-19"/>
<text text-anchor="middle" x="44.5" y="-7" font-family="Helvetica,sans-Serif" font-size="10.00" fill="#000000">src/classdef.cpp</text>
</a>
</g>
</g>
<!-- Node1&#45;&gt;Node2 -->
<g id="edge1" class="edge">
<title>Node1&#45;&gt;Node2</title>
<path fill="none" stroke="#63b8ff" d="M1183.8352,-63.3993C992.3313,-59.0947 312.6374,-42.4734 97.5,-19 94.8051,-18.706 92.0406,-18.3566 89.2569,-17.9683"/>
<polygon fill="#63b8ff" stroke="#63b8ff" points="1183.8281,-66.8999 1193.9038,-63.6244 1183.9846,-59.9017 1183.8281,-66.8999"/>
</g>
<!-- Node3 -->
<g id="node3" class="node">
<title>Node3</title>
<g id="a_node3"><a xlink:href="../../d6/d10/classlist_8cpp.html" target="_top" xlink:title=" ">
<polygon fill="#ffffff" stroke="#666666" points="194.5,-19 106.5,-19 106.5,0 194.5,0 194.5,-19"/>
<text text-anchor="middle" x="150.5" y="-7" font-family="Helvetica,sans-Serif" font-size="10.00" fill="#000000">src/classlist.cpp</text>
</a>
</g>
</g>
<!-- Node1&#45;&gt;Node3 -->
<g id="edge2" class="edge">
<title>Node1&#45;&gt;Node3</title>
<path fill="none" stroke="#63b8ff" d="M1183.5862,-63.153C1003.4493,-58.2464 396.7515,-40.4871 203.5,-19 200.6199,-18.6798 197.6601,-18.2978 194.6822,-17.8737"/>
<polygon fill="#63b8ff" stroke="#63b8ff" points="1183.7457,-66.6585 1193.8369,-63.4308 1183.9354,-59.661 1183.7457,-66.6585"/>
</g>
<!-- Node4 -->
<g id="node4" class="node">
<title>Node4</title>
<g id="a_node4"><a xlink:href="../../da/d1f/code_8l.html" target="_top" xlink:title=" ">
<polygon fill="#ffffff" stroke="#666666" points="272,-19 213,-19 213,0 272,0 272,-19"/>
<text text-anchor="middle" x="242.5" y="-7" font-family="Helvetica,sans-Serif" font-size="10.00" fill="#000000">src/code.l</text>
</a>
</g>
</g>
<!-- Node1&#45;&gt;Node4 -->
<g id="edge3" class="edge">
<title>Node1&#45;&gt;Node4</title>
<path fill="none" stroke="#63b8ff" d="M1183.7268,-63.3574C1012.6487,-59.3066 458.1374,-44.4908 281.5,-19 278.4652,-18.562 275.3214,-17.994 272.1959,-17.3535"/>
<polygon fill="#63b8ff" stroke="#63b8ff" points="1183.8818,-66.8619 1193.9612,-63.5977 1184.0461,-59.8638 1183.8818,-66.8619"/>
</g>
<!-- Node5 -->
<g id="node5" class="node">
<title>Node5</title>
<g id="a_node5"><a xlink:href="../../d8/d0a/conceptdef_8cpp.html" target="_top" xlink:title=" ">
<polygon fill="#ffffff" stroke="#666666" points="390.5,-19 290.5,-19 290.5,0 390.5,0 390.5,-19"/>
<text text-anchor="middle" x="340.5" y="-7" font-family="Helvetica,sans-Serif" font-size="10.00" fill="#000000">src/conceptdef.cpp</text>
</a>
</g>
</g>
<!-- Node1&#45;&gt;Node5 -->
<g id="edge4" class="edge">
<title>Node1&#45;&gt;Node5</title>
<path fill="none" stroke="#63b8ff" d="M1183.8871,-63.5957C1053.5219,-60.8649 695.695,-50.8269 399.5,-19 396.6116,-18.6896 393.6493,-18.3335 390.6637,-17.9454"/>
<polygon fill="#63b8ff" stroke="#63b8ff" points="1183.9028,-67.0966 1193.9722,-63.8018 1184.0459,-60.0981 1183.9028,-67.0966"/>
</g>
<!-- Node6 -->
<g id="node6" class="node">
<title>Node6</title>
<g id="a_node6"><a xlink:href="../../d3/dea/definition_8cpp.html" target="_top" xlink:title=" ">
<polygon fill="#ffffff" stroke="#666666" points="500,-19 409,-19 409,0 500,0 500,-19"/>
<text text-anchor="middle" x="454.5" y="-7" font-family="Helvetica,sans-Serif" font-size="10.00" fill="#000000">src/definition.cpp</text>
</a>
</g>
</g>
<!-- Node1&#45;&gt;Node6 -->
<g id="edge5" class="edge">
<title>Node1&#45;&gt;Node6</title>
<path fill="none" stroke="#63b8ff" d="M1183.6639,-63.2036C1065.1587,-59.7688 761.4869,-48.5815 509.5,-19 506.4203,-18.6385 503.2512,-18.2189 500.0631,-17.7614"/>
<polygon fill="#63b8ff" stroke="#63b8ff" points="1183.7859,-66.7084 1193.8813,-63.4938 1183.9847,-59.7112 1183.7859,-66.7084"/>
</g>
<!-- Node7 -->
<g id="node7" class="node">
<title>Node7</title>
<g id="a_node7"><a xlink:href="../../d8/d52/dirdef_8cpp.html" target="_top" xlink:title=" ">
<polygon fill="#ffffff" stroke="#666666" points="594.5,-19 518.5,-19 518.5,0 594.5,0 594.5,-19"/>
<text text-anchor="middle" x="556.5" y="-7" font-family="Helvetica,sans-Serif" font-size="10.00" fill="#000000">src/dirdef.cpp</text>
</a>
</g>
</g>
<!-- Node1&#45;&gt;Node7 -->
<g id="edge6" class="edge">
<title>Node1&#45;&gt;Node7</title>
<path fill="none" stroke="#63b8ff" d="M1183.4665,-63.0252C1075.8288,-59.431 817.8184,-48.2654 603.5,-19 600.6131,-18.6058 597.6371,-18.1418 594.6503,-17.6345"/>
<polygon fill="#63b8ff" stroke="#63b8ff" points="1183.6031,-66.5315 1193.712,-63.3595 1183.8315,-59.5352 1183.6031,-66.5315"/>
</g>
<!-- Node8 -->
<g id="node8" class="node">
<title>Node8</title>
<g id="a_node8"><a xlink:href="../../dc/d98/doxygen_8cpp.html" target="_top" xlink:title=" ">
<polygon fill="#ffffff" stroke="#666666" points="702,-19 613,-19 613,0 702,0 702,-19"/>
<text text-anchor="middle" x="657.5" y="-7" font-family="Helvetica,sans-Serif" font-size="10.00" fill="#000000">src/doxygen.cpp</text>
</a>
</g>
</g>
<!-- Node1&#45;&gt;Node8 -->
<g id="edge7" class="edge">
<title>Node1&#45;&gt;Node8</title>
<path fill="none" stroke="#63b8ff" d="M1183.6259,-61.5557C1089.9469,-55.8051 883.9616,-41.6282 711.5,-19 708.4798,-18.6037 705.3709,-18.1581 702.2427,-17.6816"/>
<polygon fill="#63b8ff" stroke="#63b8ff" points="1183.4861,-65.0535 1193.6801,-62.1668 1183.911,-58.0664 1183.4861,-65.0535"/>
</g>
<!-- Node9 -->
<g id="node9" class="node">
<title>Node9</title>
<g id="a_node9"><a xlink:href="../../d6/ddc/filedef_8cpp.html" target="_top" xlink:title=" ">
<polygon fill="#ffffff" stroke="#666666" points="798.5,-19 720.5,-19 720.5,0 798.5,0 798.5,-19"/>
<text text-anchor="middle" x="759.5" y="-7" font-family="Helvetica,sans-Serif" font-size="10.00" fill="#000000">src/filedef.cpp</text>
</a>
</g>
</g>
<!-- Node1&#45;&gt;Node9 -->
<g id="edge8" class="edge">
<title>Node1&#45;&gt;Node9</title>
<path fill="none" stroke="#63b8ff" d="M1183.3993,-60.5388C1103.0979,-53.9804 942.5818,-39.5226 807.5,-19 804.6445,-18.5662 801.7008,-18.08 798.7427,-17.5631"/>
<polygon fill="#63b8ff" stroke="#63b8ff" points="1183.4709,-64.0559 1193.7207,-61.3742 1184.0357,-57.0788 1183.4709,-64.0559"/>
</g>
<!-- Node10 -->
<g id="node10" class="node">
<title>Node10</title>
<g id="a_node10"><a xlink:href="../../d9/d5b/fortrancode_8l.html" target="_top" xlink:title=" ">
<polygon fill="#ffffff" stroke="#666666" points="904,-19 817,-19 817,0 904,0 904,-19"/>
<text text-anchor="middle" x="860.5" y="-7" font-family="Helvetica,sans-Serif" font-size="10.00" fill="#000000">src/fortrancode.l</text>
</a>
</g>
</g>
<!-- Node1&#45;&gt;Node10 -->
<g id="edge9" class="edge">
<title>Node1&#45;&gt;Node10</title>
<path fill="none" stroke="#63b8ff" d="M1183.6037,-57.953C1120.0516,-49.6298 1008.0556,-34.4734 912.5,-19 909.7822,-18.5599 906.9873,-18.0925 904.1707,-17.6102"/>
<polygon fill="#63b8ff" stroke="#63b8ff" points="1183.387,-61.4544 1193.756,-59.2785 1184.2932,-54.5133 1183.387,-61.4544"/>
</g>
<!-- Node11 -->
<g id="node11" class="node">
<title>Node11</title>
<g id="a_node11"><a xlink:href="../../d6/d42/groupdef_8cpp.html" target="_top" xlink:title=" ">
<polygon fill="#ffffff" stroke="#666666" points="1011,-19 922,-19 922,0 1011,0 1011,-19"/>
<text text-anchor="middle" x="966.5" y="-7" font-family="Helvetica,sans-Serif" font-size="10.00" fill="#000000">src/groupdef.cpp</text>
</a>
</g>
</g>
<!-- Node1&#45;&gt;Node11 -->
<g id="edge10" class="edge">
<title>Node1&#45;&gt;Node11</title>
<path fill="none" stroke="#63b8ff" d="M1183.8854,-54.1127C1134.0909,-43.8936 1058.8012,-28.4424 1011.1686,-18.6671"/>
<polygon fill="#63b8ff" stroke="#63b8ff" points="1183.2971,-57.5648 1193.7966,-56.1467 1184.7044,-50.7077 1183.2971,-57.5648"/>
</g>
<!-- Node12 -->
<g id="node12" class="node">
<title>Node12</title>
<g id="a_node12"><a xlink:href="../../db/d14/index_8cpp.html" target="_top" xlink:title="This file contains functions for the various index pages.">
<polygon fill="#ffffff" stroke="#666666" points="1104,-19 1029,-19 1029,0 1104,0 1104,-19"/>
<text text-anchor="middle" x="1066.5" y="-7" font-family="Helvetica,sans-Serif" font-size="10.00" fill="#000000">src/index.cpp</text>
</a>
</g>
</g>
<!-- Node1&#45;&gt;Node12 -->
<g id="edge11" class="edge">
<title>Node1&#45;&gt;Node12</title>
<path fill="none" stroke="#63b8ff" d="M1195.3704,-51.6897C1164.9111,-41.7179 1123.3102,-28.0986 1095.7094,-19.0626"/>
<polygon fill="#63b8ff" stroke="#63b8ff" points="1194.644,-55.1346 1205.2366,-54.9197 1196.8219,-48.4821 1194.644,-55.1346"/>
</g>
<!-- Node13 -->
<g id="node13" class="node">
<title>Node13</title>
<g id="a_node13"><a xlink:href="../../d0/d72/memberdef_8cpp.html" target="_top" xlink:title=" ">
<polygon fill="#ffffff" stroke="#666666" points="1223,-19 1122,-19 1122,0 1223,0 1223,-19"/>
<text text-anchor="middle" x="1172.5" y="-7" font-family="Helvetica,sans-Serif" font-size="10.00" fill="#000000">src/memberdef.cpp</text>
</a>
</g>
</g>
<!-- Node1&#45;&gt;Node13 -->
<g id="edge12" class="edge">
<title>Node1&#45;&gt;Node13</title>
<path fill="none" stroke="#63b8ff" d="M1216.1779,-48.2465C1205.5976,-38.8608 1192.6369,-27.3633 1183.5933,-19.3408"/>
<polygon fill="#63b8ff" stroke="#63b8ff" points="1213.897,-50.9018 1223.7004,-54.9197 1218.5423,-45.6653 1213.897,-50.9018"/>
</g>
<!-- Node14 -->
<g id="node14" class="node">
<title>Node14</title>
<g id="a_node14"><a xlink:href="../../d6/d18/membergroup_8cpp.html" target="_top" xlink:title=" ">
<polygon fill="#ffffff" stroke="#666666" points="1352,-19 1241,-19 1241,0 1352,0 1352,-19"/>
<text text-anchor="middle" x="1296.5" y="-7" font-family="Helvetica,sans-Serif" font-size="10.00" fill="#000000">src/membergroup.cpp</text>
</a>
</g>
</g>
<!-- Node1&#45;&gt;Node14 -->
<g id="edge13" class="edge">
<title>Node1&#45;&gt;Node14</title>
<path fill="none" stroke="#63b8ff" d="M1252.8221,-48.2465C1263.4024,-38.8608 1276.3631,-27.3633 1285.4067,-19.3408"/>
<polygon fill="#63b8ff" stroke="#63b8ff" points="1250.4577,-45.6653 1245.2996,-54.9197 1255.103,-50.9018 1250.4577,-45.6653"/>
</g>
<!-- Node15 -->
<g id="node15" class="node">
<title>Node15</title>
<g id="a_node15"><a xlink:href="../../d0/d14/memberlist_8cpp.html" target="_top" xlink:title=" ">
<polygon fill="#ffffff" stroke="#666666" points="1470.5,-19 1370.5,-19 1370.5,0 1470.5,0 1470.5,-19"/>
<text text-anchor="middle" x="1420.5" y="-7" font-family="Helvetica,sans-Serif" font-size="10.00" fill="#000000">src/memberlist.cpp</text>
</a>
</g>
</g>
<!-- Node1&#45;&gt;Node15 -->
<g id="edge14" class="edge">
<title>Node1&#45;&gt;Node15</title>
<path fill="none" stroke="#63b8ff" d="M1276.5088,-52.078C1310.3407,-42.074 1357.2044,-28.2165 1388.161,-19.0626"/>
<polygon fill="#63b8ff" stroke="#63b8ff" points="1275.4958,-48.7277 1266.8987,-54.9197 1277.4808,-55.4404 1275.4958,-48.7277"/>
</g>
<!-- Node16 -->
<g id="node16" class="node">
<title>Node16</title>
<g id="a_node16"><a xlink:href="../../d7/d1c/namespacedef_8cpp.html" target="_top" xlink:title=" ">
<polygon fill="#ffffff" stroke="#666666" points="1604.5,-19 1488.5,-19 1488.5,0 1604.5,0 1604.5,-19"/>
<text text-anchor="middle" x="1546.5" y="-7" font-family="Helvetica,sans-Serif" font-size="10.00" fill="#000000">src/namespacedef.cpp</text>
</a>
</g>
</g>
<!-- Node1&#45;&gt;Node16 -->
<g id="edge15" class="edge">
<title>Node1&#45;&gt;Node16</title>
<path fill="none" stroke="#63b8ff" d="M1285.1427,-55.5726C1342.0404,-45.5426 1434.0422,-29.3243 1492.3403,-19.0474"/>
<polygon fill="#63b8ff" stroke="#63b8ff" points="1284.5291,-52.1267 1275.2886,-57.3097 1285.7444,-59.0204 1284.5291,-52.1267"/>
</g>
<!-- Node17 -->
<g id="node17" class="node">
<title>Node17</title>
<g id="a_node17"><a xlink:href="../../db/dd8/outputlist_8cpp.html" target="_top" xlink:title=" ">
<polygon fill="#ffffff" stroke="#666666" points="1714.5,-19 1622.5,-19 1622.5,0 1714.5,0 1714.5,-19"/>
<text text-anchor="middle" x="1668.5" y="-7" font-family="Helvetica,sans-Serif" font-size="10.00" fill="#000000">src/outputlist.cpp</text>
</a>
</g>
</g>
<!-- Node1&#45;&gt;Node17 -->
<g id="edge16" class="edge">
<title>Node1&#45;&gt;Node17</title>
<path fill="none" stroke="#63b8ff" d="M1285.525,-59.2192C1358.4114,-51.4839 1496.4699,-36.1204 1613.5,-19 1616.3764,-18.5792 1619.3339,-18.1266 1622.3141,-17.6554"/>
<polygon fill="#63b8ff" stroke="#63b8ff" points="1284.8312,-55.7729 1275.2544,-60.3044 1285.5668,-62.7341 1284.8312,-55.7729"/>
</g>
<!-- Node18 -->
<g id="node18" class="node">
<title>Node18</title>
<g id="a_node18"><a xlink:href="../../d9/db4/pagedef_8cpp.html" target="_top" xlink:title=" ">
<polygon fill="#ffffff" stroke="#666666" points="1818.5,-19 1732.5,-19 1732.5,0 1818.5,0 1818.5,-19"/>
<text text-anchor="middle" x="1775.5" y="-7" font-family="Helvetica,sans-Serif" font-size="10.00" fill="#000000">src/pagedef.cpp</text>
</a>
</g>
</g>
<!-- Node1&#45;&gt;Node18 -->
<g id="edge17" class="edge">
<title>Node1&#45;&gt;Node18</title>
<path fill="none" stroke="#63b8ff" d="M1285.3041,-61.251C1374.3401,-55.2277 1564.2506,-40.9125 1723.5,-19 1726.4093,-18.5997 1729.4038,-18.151 1732.4167,-17.6723"/>
<polygon fill="#63b8ff" stroke="#63b8ff" points="1284.9543,-57.7665 1275.2108,-61.9275 1285.4225,-64.7509 1284.9543,-57.7665"/>
</g>
<!-- Node19 -->
<g id="node19" class="node">
<title>Node19</title>
<g id="a_node19"><a xlink:href="../../d3/ded/pycode_8l.html" target="_top" xlink:title=" ">
<polygon fill="#ffffff" stroke="#666666" points="1906.5,-19 1836.5,-19 1836.5,0 1906.5,0 1906.5,-19"/>
<text text-anchor="middle" x="1871.5" y="-7" font-family="Helvetica,sans-Serif" font-size="10.00" fill="#000000">src/pycode.l</text>
</a>
</g>
</g>
<!-- Node1&#45;&gt;Node19 -->
<g id="edge18" class="edge">
<title>Node1&#45;&gt;Node19</title>
<path fill="none" stroke="#63b8ff" d="M1285.4433,-62.9262C1388.3541,-59.2334 1628.204,-48.0231 1827.5,-19 1830.284,-18.5946 1833.1551,-18.1153 1836.0338,-17.591"/>
<polygon fill="#63b8ff" stroke="#63b8ff" points="1285.2034,-59.4324 1275.3321,-63.2805 1285.4486,-66.4281 1285.2034,-59.4324"/>
</g>
<!-- Node20 -->
<g id="node20" class="node">
<title>Node20</title>
<g id="a_node20"><a xlink:href="../../d2/dda/sqlcode_8l.html" target="_top" xlink:title=" ">
<polygon fill="#ffffff" stroke="#666666" points="1996.5,-19 1924.5,-19 1924.5,0 1996.5,0 1996.5,-19"/>
<text text-anchor="middle" x="1960.5" y="-7" font-family="Helvetica,sans-Serif" font-size="10.00" fill="#000000">src/sqlcode.l</text>
</a>
</g>
</g>
<!-- Node1&#45;&gt;Node20 -->
<g id="edge19" class="edge">
<title>Node1&#45;&gt;Node20</title>
<path fill="none" stroke="#63b8ff" d="M1285.1174,-63.5612C1398.5038,-60.9248 1681.3094,-51.3783 1915.5,-19 1918.3474,-18.6063 1921.2839,-18.1355 1924.228,-17.617"/>
<polygon fill="#63b8ff" stroke="#63b8ff" points="1284.919,-60.0646 1275.0001,-63.7883 1285.0762,-67.0629 1284.919,-60.0646"/>
</g>
<!-- Node21 -->
<g id="node21" class="node">
<title>Node21</title>
<g id="a_node21"><a xlink:href="../../df/d2d/util_8cpp.html" target="_top" xlink:title=" ">
<polygon fill="#ffffff" stroke="#666666" points="2080,-19 2015,-19 2015,0 2080,0 2080,-19"/>
<text text-anchor="middle" x="2047.5" y="-7" font-family="Helvetica,sans-Serif" font-size="10.00" fill="#000000">src/util.cpp</text>
</a>
</g>
</g>
<!-- Node1&#45;&gt;Node21 -->
<g id="edge20" class="edge">
<title>Node1&#45;&gt;Node21</title>
<path fill="none" stroke="#63b8ff" d="M1285.2572,-62.5904C1433.748,-56.8315 1865.6396,-38.8088 2005.5,-19 2008.4608,-18.5807 2011.5217,-18.0604 2014.5792,-17.4811"/>
<polygon fill="#63b8ff" stroke="#63b8ff" points="1284.9211,-59.1006 1275.0635,-62.9837 1285.191,-66.0954 1284.9211,-59.1006"/>
</g>
<!-- Node22 -->
<g id="node22" class="node">
<title>Node22</title>
<g id="a_node22"><a xlink:href="../../d5/d6a/vhdlcode_8l.html" target="_top" xlink:title=" ">
<polygon fill="#ffffff" stroke="#666666" points="2175,-19 2098,-19 2098,0 2175,0 2175,-19"/>
<text text-anchor="middle" x="2136.5" y="-7" font-family="Helvetica,sans-Serif" font-size="10.00" fill="#000000">src/vhdlcode.l</text>
</a>
</g>
</g>
<!-- Node1&#45;&gt;Node22 -->
<g id="edge21" class="edge">
<title>Node1&#45;&gt;Node22</title>
<path fill="none" stroke="#63b8ff" d="M1285.5132,-62.7665C1444.931,-57.1946 1932.4652,-38.9402 2089.5,-19 2092.2253,-18.6539 2095.0289,-18.2392 2097.8455,-17.7794"/>
<polygon fill="#63b8ff" stroke="#63b8ff" points="1284.9243,-59.2848 1275.0521,-63.1304 1285.1677,-66.2806 1284.9243,-59.2848"/>
</g>
<!-- Node23 -->
<g id="node23" class="node">
<title>Node23</title>
<g id="a_node23"><a xlink:href="../../de/dea/vhdldocgen_8cpp.html" target="_top" xlink:title=" ">
<polygon fill="#ffffff" stroke="#666666" points="2294,-19 2193,-19 2193,0 2294,0 2294,-19"/>
<text text-anchor="middle" x="2243.5" y="-7" font-family="Helvetica,sans-Serif" font-size="10.00" fill="#000000">src/vhdldocgen.cpp</text>
</a>
</g>
</g>
<!-- Node1&#45;&gt;Node23 -->
<g id="edge22" class="edge">
<title>Node1&#45;&gt;Node23</title>
<path fill="none" stroke="#63b8ff" d="M1285.5505,-64.0594C1428.1068,-62.3973 1842.4258,-54.6189 2184.5,-19 2187.183,-18.7206 2189.9296,-18.4 2192.6992,-18.0494"/>
<polygon fill="#63b8ff" stroke="#63b8ff" points="1285.3243,-60.5617 1275.364,-64.1731 1285.4025,-67.5612 1285.3243,-60.5617"/>
</g>
<!-- Node24 -->
<g id="node24" class="node">
<title>Node24</title>
<g id="a_node24"><a xlink:href="../../d1/d86/vhdljjparser_8cpp.html" target="_top" xlink:title=" ">
<polygon fill="#ffffff" stroke="#666666" points="2413,-19 2312,-19 2312,0 2413,0 2413,-19"/>
<text text-anchor="middle" x="2362.5" y="-7" font-family="Helvetica,sans-Serif" font-size="10.00" fill="#000000">src/vhdljjparser.cpp</text>
</a>
</g>
</g>
<!-- Node1&#45;&gt;Node24 -->
<g id="edge23" class="edge">
<title>Node1&#45;&gt;Node24</title>
<path fill="none" stroke="#63b8ff" d="M1285.4304,-63.1248C1469.8241,-58.0222 2102.2674,-39.4126 2303.5,-19 2306.1837,-18.7278 2308.9309,-18.4128 2311.701,-18.0667"/>
<polygon fill="#63b8ff" stroke="#63b8ff" points="1285.1044,-59.6323 1275.2047,-63.4066 1285.2973,-66.6297 1285.1044,-59.6323"/>
</g>
<!-- Node25 -->
<g id="node25" class="node">
<title>Node25</title>
<g id="a_node25"><a xlink:href="../../dc/dc1/xmlcode_8l.html" target="_top" xlink:title=" ">
<polygon fill="#ffffff" stroke="#666666" points="2506,-19 2431,-19 2431,0 2506,0 2506,-19"/>
<text text-anchor="middle" x="2468.5" y="-7" font-family="Helvetica,sans-Serif" font-size="10.00" fill="#000000">src/xmlcode.l</text>
</a>
</g>
</g>
<!-- Node1&#45;&gt;Node25 -->
<g id="edge24" class="edge">
<title>Node1&#45;&gt;Node25</title>
<path fill="none" stroke="#63b8ff" d="M1285.1629,-63.6764C1482.1352,-60.301 2197.1796,-46.3907 2422.5,-19 2425.2523,-18.6654 2428.085,-18.2521 2430.928,-17.787"/>
<polygon fill="#63b8ff" stroke="#63b8ff" points="1285.0322,-60.178 1275.0932,-63.8475 1285.1512,-67.177 1285.0322,-60.178"/>
</g>
</g>
</svg>
