<?xml version="1.0" encoding="UTF-8" standalone="no"?>
<!DOCTYPE svg PUBLIC "-//W3C//DTD SVG 1.1//EN"
 "http://www.w3.org/Graphics/SVG/1.1/DTD/svg11.dtd">
<!-- Generated by graphviz version 2.43.0 (0)
 -->
<!-- Title: src/outputlist.h Pages: 1 -->
<svg width="2692pt" height="82pt"
 viewBox="0.00 0.00 2692.00 82.00" xmlns="http://www.w3.org/2000/svg" xmlns:xlink="http://www.w3.org/1999/xlink">
<g id="graph0" class="graph" transform="scale(1 1) rotate(0) translate(4 78)">
<title>src/outputlist.h</title>
<!-- Node1 -->
<g id="node1" class="node">
<title>Node1</title>
<g id="a_node1"><a xlink:title=" ">
<polygon fill="#999999" stroke="#666666" points="1360.5,-74 1271.5,-74 1271.5,-55 1360.5,-55 1360.5,-74"/>
<text text-anchor="middle" x="1316" y="-62" font-family="Helvetica,sans-Serif" font-size="10.00">src/outputlist.h</text>
</a>
</g>
</g>
<!-- Node2 -->
<g id="node2" class="node">
<title>Node2</title>
<g id="a_node2"><a xlink:href="../../de/d89/classdef_8cpp.html" target="_top" xlink:title=" ">
<polygon fill="white" stroke="#666666" points="94,-19 0,-19 0,0 94,0 94,-19"/>
<text text-anchor="middle" x="47" y="-7" font-family="Helvetica,sans-Serif" font-size="10.00">src/classdef.cpp</text>
</a>
</g>
</g>
<!-- Node1&#45;&gt;Node2 -->
<g id="edge1" class="edge">
<title>Node1&#45;&gt;Node2</title>
<path fill="none" stroke="#63b8ff" d="M1261.24,-63.71C1089.86,-63.89 548.66,-60.86 103,-19 100.06,-18.72 97.05,-18.4 94.01,-18.03"/>
<polygon fill="#63b8ff" stroke="#63b8ff" points="1261.28,-67.21 1271.27,-63.69 1261.27,-60.21 1261.28,-67.21"/>
</g>
<!-- Node3 -->
<g id="node3" class="node">
<title>Node3</title>
<g id="a_node3"><a xlink:href="../../d6/d10/classlist_8cpp.html" target="_top" xlink:title=" ">
<polygon fill="white" stroke="#666666" points="206,-19 112,-19 112,0 206,0 206,-19"/>
<text text-anchor="middle" x="159" y="-7" font-family="Helvetica,sans-Serif" font-size="10.00">src/classlist.cpp</text>
</a>
</g>
</g>
<!-- Node1&#45;&gt;Node3 -->
<g id="edge2" class="edge">
<title>Node1&#45;&gt;Node3</title>
<path fill="none" stroke="#63b8ff" d="M1261.18,-63.42C1100.22,-62.72 615.16,-57.34 215,-19 212.06,-18.72 209.05,-18.39 206.01,-18.02"/>
<polygon fill="#63b8ff" stroke="#63b8ff" points="1261.29,-66.92 1271.31,-63.46 1261.32,-59.92 1261.29,-66.92"/>
</g>
<!-- Node4 -->
<g id="node4" class="node">
<title>Node4</title>
<g id="a_node4"><a xlink:href="../../da/d1f/code_8l.html" target="_top" xlink:title=" ">
<polygon fill="white" stroke="#666666" points="287.5,-19 224.5,-19 224.5,0 287.5,0 287.5,-19"/>
<text text-anchor="middle" x="256" y="-7" font-family="Helvetica,sans-Serif" font-size="10.00">src/code.l</text>
</a>
</g>
</g>
<!-- Node1&#45;&gt;Node4 -->
<g id="edge3" class="edge">
<title>Node1&#45;&gt;Node4</title>
<path fill="none" stroke="#63b8ff" d="M1261.26,-62.31C1077.75,-58.13 485.3,-43.07 296,-19 293.32,-18.66 290.56,-18.23 287.8,-17.75"/>
<polygon fill="#63b8ff" stroke="#63b8ff" points="1261.4,-65.81 1271.48,-62.54 1261.56,-58.82 1261.4,-65.81"/>
</g>
<!-- Node5 -->
<g id="node5" class="node">
<title>Node5</title>
<g id="a_node5"><a xlink:href="../../d8/d0a/conceptdef_8cpp.html" target="_top" xlink:title=" ">
<polygon fill="white" stroke="#666666" points="412.5,-19 305.5,-19 305.5,0 412.5,0 412.5,-19"/>
<text text-anchor="middle" x="359" y="-7" font-family="Helvetica,sans-Serif" font-size="10.00">src/conceptdef.cpp</text>
</a>
</g>
</g>
<!-- Node1&#45;&gt;Node5 -->
<g id="edge4" class="edge">
<title>Node1&#45;&gt;Node5</title>
<path fill="none" stroke="#63b8ff" d="M1261.2,-62.38C1121.2,-59.17 739.03,-48.22 422,-19 418.92,-18.72 415.77,-18.39 412.58,-18.04"/>
<polygon fill="#63b8ff" stroke="#63b8ff" points="1261.18,-65.88 1271.25,-62.61 1261.34,-58.88 1261.18,-65.88"/>
</g>
<!-- Node6 -->
<g id="node6" class="node">
<title>Node6</title>
<g id="a_node6"><a xlink:href="../../d3/dea/definition_8cpp.html" target="_top" xlink:title=" ">
<polygon fill="white" stroke="#666666" points="531,-19 431,-19 431,0 531,0 531,-19"/>
<text text-anchor="middle" x="481" y="-7" font-family="Helvetica,sans-Serif" font-size="10.00">src/definition.cpp</text>
</a>
</g>
</g>
<!-- Node1&#45;&gt;Node6 -->
<g id="edge5" class="edge">
<title>Node1&#45;&gt;Node6</title>
<path fill="none" stroke="#63b8ff" d="M1261.03,-61.97C1133.87,-58.07 809.68,-46.11 540,-19 537.12,-18.71 534.16,-18.38 531.18,-18.03"/>
<polygon fill="#63b8ff" stroke="#63b8ff" points="1261.18,-65.47 1271.28,-62.28 1261.39,-58.48 1261.18,-65.47"/>
</g>
<!-- Node7 -->
<g id="node7" class="node">
<title>Node7</title>
<g id="a_node7"><a xlink:href="../../d8/d52/dirdef_8cpp.html" target="_top" xlink:title=" ">
<polygon fill="white" stroke="#666666" points="631,-19 549,-19 549,0 631,0 631,-19"/>
<text text-anchor="middle" x="590" y="-7" font-family="Helvetica,sans-Serif" font-size="10.00">src/dirdef.cpp</text>
</a>
</g>
</g>
<!-- Node1&#45;&gt;Node7 -->
<g id="edge6" class="edge">
<title>Node1&#45;&gt;Node7</title>
<path fill="none" stroke="#63b8ff" d="M1261.17,-61.8C1145.85,-57.8 869.89,-46.04 640,-19 637.11,-18.66 634.14,-18.27 631.15,-17.84"/>
<polygon fill="#63b8ff" stroke="#63b8ff" points="1261.05,-65.3 1271.16,-62.14 1261.29,-58.3 1261.05,-65.3"/>
</g>
<!-- Node8 -->
<g id="node8" class="node">
<title>Node8</title>
<g id="a_node8"><a xlink:href="../../dc/d98/doxygen_8cpp.html" target="_top" xlink:title=" ">
<polygon fill="white" stroke="#666666" points="745,-19 649,-19 649,0 745,0 745,-19"/>
<text text-anchor="middle" x="697" y="-7" font-family="Helvetica,sans-Serif" font-size="10.00">src/doxygen.cpp</text>
</a>
</g>
</g>
<!-- Node1&#45;&gt;Node8 -->
<g id="edge7" class="edge">
<title>Node1&#45;&gt;Node8</title>
<path fill="none" stroke="#63b8ff" d="M1261.23,-60.42C1160.58,-54.49 939.49,-40.15 754,-19 751.12,-18.67 748.16,-18.31 745.17,-17.92"/>
<polygon fill="#63b8ff" stroke="#63b8ff" points="1261.27,-63.93 1271.46,-61.02 1261.68,-56.94 1261.27,-63.93"/>
</g>
<!-- Node9 -->
<g id="node9" class="node">
<title>Node9</title>
<g id="a_node9"><a xlink:href="../../d6/ddc/filedef_8cpp.html" target="_top" xlink:title=" ">
<polygon fill="white" stroke="#666666" points="847,-19 763,-19 763,0 847,0 847,-19"/>
<text text-anchor="middle" x="805" y="-7" font-family="Helvetica,sans-Serif" font-size="10.00">src/filedef.cpp</text>
</a>
</g>
</g>
<!-- Node1&#45;&gt;Node9 -->
<g id="edge8" class="edge">
<title>Node1&#45;&gt;Node9</title>
<path fill="none" stroke="#63b8ff" d="M1261.39,-59.44C1175.1,-52.75 1002,-38.21 856,-19 853.15,-18.63 850.22,-18.21 847.27,-17.77"/>
<polygon fill="#63b8ff" stroke="#63b8ff" points="1261.24,-62.94 1271.48,-60.22 1261.78,-55.96 1261.24,-62.94"/>
</g>
<!-- Node10 -->
<g id="node10" class="node">
<title>Node10</title>
<g id="a_node10"><a xlink:href="../../d9/d5b/fortrancode_8l.html" target="_top" xlink:title=" ">
<polygon fill="white" stroke="#666666" points="961,-19 865,-19 865,0 961,0 961,-19"/>
<text text-anchor="middle" x="913" y="-7" font-family="Helvetica,sans-Serif" font-size="10.00">src/fortrancode.l</text>
</a>
</g>
</g>
<!-- Node1&#45;&gt;Node10 -->
<g id="edge9" class="edge">
<title>Node1&#45;&gt;Node10</title>
<path fill="none" stroke="#63b8ff" d="M1261.36,-56.82C1193.13,-48.39 1072.85,-33.28 970,-19 967.13,-18.6 964.17,-18.18 961.19,-17.76"/>
<polygon fill="#63b8ff" stroke="#63b8ff" points="1261.09,-60.31 1271.45,-58.06 1261.95,-53.36 1261.09,-60.31"/>
</g>
<!-- Node11 -->
<g id="node11" class="node">
<title>Node11</title>
<g id="a_node11"><a xlink:href="../../d6/d42/groupdef_8cpp.html" target="_top" xlink:title=" ">
<polygon fill="white" stroke="#666666" points="1076.5,-19 979.5,-19 979.5,0 1076.5,0 1076.5,-19"/>
<text text-anchor="middle" x="1028" y="-7" font-family="Helvetica,sans-Serif" font-size="10.00">src/groupdef.cpp</text>
</a>
</g>
</g>
<!-- Node1&#45;&gt;Node11 -->
<g id="edge10" class="edge">
<title>Node1&#45;&gt;Node11</title>
<path fill="none" stroke="#63b8ff" d="M1261.21,-53.42C1207.07,-43.45 1125.17,-28.38 1074.22,-19.01"/>
<polygon fill="#63b8ff" stroke="#63b8ff" points="1260.85,-56.91 1271.32,-55.28 1262.11,-50.02 1260.85,-56.91"/>
</g>
<!-- Node12 -->
<g id="node12" class="node">
<title>Node12</title>
<g id="a_node12"><a xlink:href="../../db/d14/index_8cpp.html" target="_top" xlink:title="This file contains functions for the various index pages.">
<polygon fill="white" stroke="#666666" points="1175.5,-19 1094.5,-19 1094.5,0 1175.5,0 1175.5,-19"/>
<text text-anchor="middle" x="1135" y="-7" font-family="Helvetica,sans-Serif" font-size="10.00">src/index.cpp</text>
</a>
</g>
</g>
<!-- Node1&#45;&gt;Node12 -->
<g id="edge11" class="edge">
<title>Node1&#45;&gt;Node12</title>
<path fill="none" stroke="#63b8ff" d="M1276.92,-52.06C1243.09,-42.15 1194.92,-28.04 1164.31,-19.08"/>
<polygon fill="#63b8ff" stroke="#63b8ff" points="1276.34,-55.53 1286.92,-54.98 1278.31,-48.82 1276.34,-55.53"/>
</g>
<!-- Node13 -->
<g id="node13" class="node">
<title>Node13</title>
<g id="a_node13"><a xlink:href="../../d0/d72/memberdef_8cpp.html" target="_top" xlink:title=" ">
<polygon fill="white" stroke="#666666" points="1304,-19 1194,-19 1194,0 1304,0 1304,-19"/>
<text text-anchor="middle" x="1249" y="-7" font-family="Helvetica,sans-Serif" font-size="10.00">src/memberdef.cpp</text>
</a>
</g>
</g>
<!-- Node1&#45;&gt;Node13 -->
<g id="edge12" class="edge">
<title>Node1&#45;&gt;Node13</title>
<path fill="none" stroke="#63b8ff" d="M1297.17,-48.6C1285.16,-39.11 1270.03,-27.13 1259.96,-19.17"/>
<polygon fill="#63b8ff" stroke="#63b8ff" points="1295.22,-51.53 1305.24,-54.98 1299.56,-46.04 1295.22,-51.53"/>
</g>
<!-- Node14 -->
<g id="node14" class="node">
<title>Node14</title>
<g id="a_node14"><a xlink:href="../../d6/d18/membergroup_8cpp.html" target="_top" xlink:title=" ">
<polygon fill="white" stroke="#666666" points="1445.5,-19 1322.5,-19 1322.5,0 1445.5,0 1445.5,-19"/>
<text text-anchor="middle" x="1384" y="-7" font-family="Helvetica,sans-Serif" font-size="10.00">src/membergroup.cpp</text>
</a>
</g>
</g>
<!-- Node1&#45;&gt;Node14 -->
<g id="edge13" class="edge">
<title>Node1&#45;&gt;Node14</title>
<path fill="none" stroke="#63b8ff" d="M1335.12,-48.6C1347.3,-39.11 1362.66,-27.13 1372.88,-19.17"/>
<polygon fill="#63b8ff" stroke="#63b8ff" points="1332.66,-46.08 1326.93,-54.98 1336.96,-51.6 1332.66,-46.08"/>
</g>
<!-- Node15 -->
<g id="node15" class="node">
<title>Node15</title>
<g id="a_node15"><a xlink:href="../../d0/d14/memberlist_8cpp.html" target="_top" xlink:title=" ">
<polygon fill="white" stroke="#666666" points="1574,-19 1464,-19 1464,0 1574,0 1574,-19"/>
<text text-anchor="middle" x="1519" y="-7" font-family="Helvetica,sans-Serif" font-size="10.00">src/memberlist.cpp</text>
</a>
</g>
</g>
<!-- Node1&#45;&gt;Node15 -->
<g id="edge14" class="edge">
<title>Node1&#45;&gt;Node15</title>
<path fill="none" stroke="#63b8ff" d="M1358.37,-52.44C1396.37,-42.52 1451.36,-28.16 1486.13,-19.08"/>
<polygon fill="#63b8ff" stroke="#63b8ff" points="1357.41,-49.07 1348.62,-54.98 1359.18,-55.84 1357.41,-49.07"/>
</g>
<!-- Node16 -->
<g id="node16" class="node">
<title>Node16</title>
<g id="a_node16"><a xlink:href="../../d7/d1c/namespacedef_8cpp.html" target="_top" xlink:title=" ">
<polygon fill="white" stroke="#666666" points="1717.5,-19 1592.5,-19 1592.5,0 1717.5,0 1717.5,-19"/>
<text text-anchor="middle" x="1655" y="-7" font-family="Helvetica,sans-Serif" font-size="10.00">src/namespacedef.cpp</text>
</a>
</g>
</g>
<!-- Node1&#45;&gt;Node16 -->
<g id="edge15" class="edge">
<title>Node1&#45;&gt;Node16</title>
<path fill="none" stroke="#63b8ff" d="M1370.84,-54.93C1434.05,-45.04 1537.31,-28.9 1600.41,-19.03"/>
<polygon fill="#63b8ff" stroke="#63b8ff" points="1370.01,-51.51 1360.67,-56.52 1371.09,-58.43 1370.01,-51.51"/>
</g>
<!-- Node17 -->
<g id="node17" class="node">
<title>Node17</title>
<g id="a_node17"><a xlink:href="../../db/dd8/outputlist_8cpp.html" target="_top" xlink:title=" ">
<polygon fill="white" stroke="#666666" points="1836.5,-19 1735.5,-19 1735.5,0 1836.5,0 1836.5,-19"/>
<text text-anchor="middle" x="1786" y="-7" font-family="Helvetica,sans-Serif" font-size="10.00">src/outputlist.cpp</text>
</a>
</g>
</g>
<!-- Node1&#45;&gt;Node17 -->
<g id="edge16" class="edge">
<title>Node1&#45;&gt;Node17</title>
<path fill="none" stroke="#63b8ff" d="M1370.95,-58.17C1449.84,-50.38 1599.73,-35.05 1727,-19 1729.77,-18.65 1732.62,-18.28 1735.49,-17.9"/>
<polygon fill="#63b8ff" stroke="#63b8ff" points="1370.37,-54.71 1360.76,-59.17 1371.06,-61.68 1370.37,-54.71"/>
</g>
<!-- Node18 -->
<g id="node18" class="node">
<title>Node18</title>
<g id="a_node18"><a xlink:href="../../d9/db4/pagedef_8cpp.html" target="_top" xlink:title=" ">
<polygon fill="white" stroke="#666666" points="1947.5,-19 1854.5,-19 1854.5,0 1947.5,0 1947.5,-19"/>
<text text-anchor="middle" x="1901" y="-7" font-family="Helvetica,sans-Serif" font-size="10.00">src/pagedef.cpp</text>
</a>
</g>
</g>
<!-- Node1&#45;&gt;Node18 -->
<g id="edge17" class="edge">
<title>Node1&#45;&gt;Node18</title>
<path fill="none" stroke="#63b8ff" d="M1370.87,-60.16C1467.22,-54 1673.05,-39.6 1846,-19 1848.69,-18.68 1851.44,-18.33 1854.22,-17.96"/>
<polygon fill="#63b8ff" stroke="#63b8ff" points="1370.54,-56.67 1360.78,-60.8 1370.98,-63.66 1370.54,-56.67"/>
</g>
<!-- Node19 -->
<g id="node19" class="node">
<title>Node19</title>
<g id="a_node19"><a xlink:href="../../d3/ded/pycode_8l.html" target="_top" xlink:title=" ">
<polygon fill="white" stroke="#666666" points="2040.5,-19 1965.5,-19 1965.5,0 2040.5,0 2040.5,-19"/>
<text text-anchor="middle" x="2003" y="-7" font-family="Helvetica,sans-Serif" font-size="10.00">src/pycode.l</text>
</a>
</g>
</g>
<!-- Node1&#45;&gt;Node19 -->
<g id="edge18" class="edge">
<title>Node1&#45;&gt;Node19</title>
<path fill="none" stroke="#63b8ff" d="M1371.15,-61.78C1482.34,-57.84 1741.24,-46.33 1957,-19 1959.74,-18.65 1962.56,-18.25 1965.4,-17.81"/>
<polygon fill="#63b8ff" stroke="#63b8ff" points="1370.73,-58.29 1360.85,-62.14 1370.97,-65.29 1370.73,-58.29"/>
</g>
<!-- Node20 -->
<g id="node20" class="node">
<title>Node20</title>
<g id="a_node20"><a xlink:href="../../d2/dda/sqlcode_8l.html" target="_top" xlink:title=" ">
<polygon fill="white" stroke="#666666" points="2135.5,-19 2058.5,-19 2058.5,0 2135.5,0 2135.5,-19"/>
<text text-anchor="middle" x="2097" y="-7" font-family="Helvetica,sans-Serif" font-size="10.00">src/sqlcode.l</text>
</a>
</g>
</g>
<!-- Node1&#45;&gt;Node20 -->
<g id="edge19" class="edge">
<title>Node1&#45;&gt;Node20</title>
<path fill="none" stroke="#63b8ff" d="M1371.09,-62.39C1493.55,-59.42 1797.52,-49.38 2050,-19 2052.72,-18.67 2055.51,-18.29 2058.33,-17.87"/>
<polygon fill="#63b8ff" stroke="#63b8ff" points="1370.76,-58.89 1360.85,-62.63 1370.93,-65.89 1370.76,-58.89"/>
</g>
<!-- Node21 -->
<g id="node21" class="node">
<title>Node21</title>
<g id="a_node21"><a xlink:href="../../df/d2d/util_8cpp.html" target="_top" xlink:title=" ">
<polygon fill="white" stroke="#666666" points="2224,-19 2154,-19 2154,0 2224,0 2224,-19"/>
<text text-anchor="middle" x="2189" y="-7" font-family="Helvetica,sans-Serif" font-size="10.00">src/util.cpp</text>
</a>
</g>
</g>
<!-- Node1&#45;&gt;Node21 -->
<g id="edge20" class="edge">
<title>Node1&#45;&gt;Node21</title>
<path fill="none" stroke="#63b8ff" d="M1371.02,-63.15C1504.31,-61.74 1854.94,-54.63 2145,-19 2147.78,-18.66 2150.65,-18.24 2153.52,-17.79"/>
<polygon fill="#63b8ff" stroke="#63b8ff" points="1370.64,-59.65 1360.67,-63.25 1370.71,-66.65 1370.64,-59.65"/>
</g>
<!-- Node22 -->
<g id="node22" class="node">
<title>Node22</title>
<g id="a_node22"><a xlink:href="../../d5/d6a/vhdlcode_8l.html" target="_top" xlink:title=" ">
<polygon fill="white" stroke="#666666" points="2326,-19 2242,-19 2242,0 2326,0 2326,-19"/>
<text text-anchor="middle" x="2284" y="-7" font-family="Helvetica,sans-Serif" font-size="10.00">src/vhdlcode.l</text>
</a>
</g>
</g>
<!-- Node1&#45;&gt;Node22 -->
<g id="edge21" class="edge">
<title>Node1&#45;&gt;Node22</title>
<path fill="none" stroke="#63b8ff" d="M1370.74,-63.07C1513.21,-61.46 1907.16,-53.94 2233,-19 2235.86,-18.69 2238.79,-18.33 2241.75,-17.93"/>
<polygon fill="#63b8ff" stroke="#63b8ff" points="1370.48,-59.57 1360.52,-63.18 1370.55,-66.57 1370.48,-59.57"/>
</g>
<!-- Node23 -->
<g id="node23" class="node">
<title>Node23</title>
<g id="a_node23"><a xlink:href="../../de/dea/vhdldocgen_8cpp.html" target="_top" xlink:title=" ">
<polygon fill="white" stroke="#666666" points="2454,-19 2344,-19 2344,0 2454,0 2454,-19"/>
<text text-anchor="middle" x="2399" y="-7" font-family="Helvetica,sans-Serif" font-size="10.00">src/vhdldocgen.cpp</text>
</a>
</g>
</g>
<!-- Node1&#45;&gt;Node23 -->
<g id="edge22" class="edge">
<title>Node1&#45;&gt;Node23</title>
<path fill="none" stroke="#63b8ff" d="M1370.87,-62.81C1523.79,-60.51 1967.72,-51.35 2335,-19 2337.9,-18.74 2340.88,-18.45 2343.88,-18.14"/>
<polygon fill="#63b8ff" stroke="#63b8ff" points="1370.74,-59.31 1360.79,-62.96 1370.84,-66.31 1370.74,-59.31"/>
</g>
<!-- Node24 -->
<g id="node24" class="node">
<title>Node24</title>
<g id="a_node24"><a xlink:href="../../d1/d86/vhdljjparser_8cpp.html" target="_top" xlink:title=" ">
<polygon fill="white" stroke="#666666" points="2583.5,-19 2472.5,-19 2472.5,0 2583.5,0 2583.5,-19"/>
<text text-anchor="middle" x="2528" y="-7" font-family="Helvetica,sans-Serif" font-size="10.00">src/vhdljjparser.cpp</text>
</a>
</g>
</g>
<!-- Node1&#45;&gt;Node24 -->
<g id="edge23" class="edge">
<title>Node1&#45;&gt;Node24</title>
<path fill="none" stroke="#63b8ff" d="M1371.04,-63.14C1536.54,-61.69 2044.03,-54.45 2463,-19 2466.06,-18.74 2469.2,-18.44 2472.37,-18.11"/>
<polygon fill="#63b8ff" stroke="#63b8ff" points="1370.61,-59.65 1360.64,-63.23 1370.67,-66.65 1370.61,-59.65"/>
</g>
<!-- Node25 -->
<g id="node25" class="node">
<title>Node25</title>
<g id="a_node25"><a xlink:href="../../dc/dc1/xmlcode_8l.html" target="_top" xlink:title=" ">
<polygon fill="white" stroke="#666666" points="2684,-19 2602,-19 2602,0 2684,0 2684,-19"/>
<text text-anchor="middle" x="2643" y="-7" font-family="Helvetica,sans-Serif" font-size="10.00">src/xmlcode.l</text>
</a>
</g>
</g>
<!-- Node1&#45;&gt;Node25 -->
<g id="edge24" class="edge">
<title>Node1&#45;&gt;Node25</title>
<path fill="none" stroke="#63b8ff" d="M1370.86,-62.57C1583.1,-58.8 2350.47,-43.73 2593,-19 2595.89,-18.71 2598.87,-18.35 2601.86,-17.94"/>
<polygon fill="#63b8ff" stroke="#63b8ff" points="1370.53,-59.07 1360.59,-62.75 1370.65,-66.07 1370.53,-59.07"/>
</g>
</g>
</svg>
