<?xml version="1.0" encoding="UTF-8" standalone="no"?>
<!DOCTYPE svg PUBLIC "-//W3C//DTD SVG 1.1//EN"
 "http://www.w3.org/Graphics/SVG/1.1/DTD/svg11.dtd">
<!-- Generated by graphviz version 2.40.1 (20161225.0304)
 -->
<!-- Title: src/symbolresolver.h Pages: 1 -->
<!--zoomable 412 -->
<svg id="main" version="1.1" xmlns="http://www.w3.org/2000/svg" xmlns:xlink="http://www.w3.org/1999/xlink" xml:space="preserve" onload="init(evt)">
<style type="text/css"><![CDATA[
.edge:hover path { stroke: red; }
.edge:hover polygon { stroke: red; fill: red; }
]]></style>
<script type="text/javascript"><![CDATA[
var edges = document.getElementsByTagName('g');
if (edges && edges.length) {
  for (var i=0;i<edges.length;i++) {
    if (edges[i].id.substr(0,4)=='edge') {
      edges[i].setAttribute('class','edge');
    }
  }
}
]]></script>
        <defs>
                <circle id="rim" cx="0" cy="0" r="7"/>
                <circle id="rim2" cx="0" cy="0" r="3.5"/>
                <g id="zoomPlus">
                        <use xlink:href="#rim" fill="#404040">
                                <set attributeName="fill" to="#808080" begin="zoomplus.mouseover" end="zoomplus.mouseout"/>
                        </use>
                        <path d="M-4,0h8M0,-4v8" fill="none" stroke="white" stroke-width="1.5" pointer-events="none"/>
                </g>
                <g id="zoomMin">
                        <use xlink:href="#rim" fill="#404040">
                                <set attributeName="fill" to="#808080" begin="zoomminus.mouseover" end="zoomminus.mouseout"/>
                        </use>
                        <path d="M-4,0h8" fill="none" stroke="white" stroke-width="1.5" pointer-events="none"/>
                </g>
                <g id="dirArrow">
                        <path fill="none" stroke="white" stroke-width="1.5" d="M0,-3.0v7 M-2.5,-0.5L0,-3.0L2.5,-0.5"/>
                </g>
               <g id="resetDef">
                       <use xlink:href="#rim2" fill="#404040">
                               <set attributeName="fill" to="#808080" begin="reset.mouseover" end="reset.mouseout"/>
                       </use>
               </g>
        </defs>

<script type="text/javascript">
var viewWidth = 756;
var viewHeight = 412;
var sectionId = 'dynsection-0';
</script>
<script xlink:href="../../svgpan.js"/>
<svg id="graph" class="graph">
<g id="viewport">
<title>src/symbolresolver.h</title>
<!-- Node1 -->
<g id="node1" class="node">
<title>Node1</title>
<g id="a_node1"><a xlink:title=" ">
<polygon fill="#999999" stroke="#666666" points="283.5,-404 176.5,-404 176.5,-385 283.5,-385 283.5,-404"/>
<text text-anchor="middle" x="230" y="-392" font-family="Helvetica,sans-Serif" font-size="10.00" fill="#000000">src/symbolresolver.h</text>
</a>
</g>
</g>
<!-- Node2 -->
<g id="node2" class="node">
<title>Node2</title>
<g id="a_node2"><a xlink:title=" ">
<polygon fill="#e0e0e0" stroke="#999999" points="740,-129 688,-129 688,-110 740,-110 740,-129"/>
<text text-anchor="middle" x="714" y="-117" font-family="Helvetica,sans-Serif" font-size="10.00" fill="#000000">memory</text>
</a>
</g>
</g>
<!-- Node1&#45;&gt;Node2 -->
<g id="edge1" class="edge">
<title>Node1&#45;&gt;Node2</title>
<path fill="none" stroke="#63b8ff" d="M283.9692,-388.6976C416.6419,-373.7079 748,-331.5597 748,-284.5 748,-284.5 748,-284.5 748,-229.5 748,-196.3469 733.7282,-159.9793 723.6776,-138.4788"/>
<polygon fill="#63b8ff" stroke="#63b8ff" points="726.685,-136.6597 719.1639,-129.1975 720.3899,-139.7212 726.685,-136.6597"/>
</g>
<!-- Node3 -->
<g id="node3" class="node">
<title>Node3</title>
<g id="a_node3"><a xlink:href="../../d7/d5c/qcstring_8h.html" target="_top" xlink:title=" ">
<polygon fill="#ffffff" stroke="#666666" points="331.5,-129 272.5,-129 272.5,-110 331.5,-110 331.5,-129"/>
<text text-anchor="middle" x="302" y="-117" font-family="Helvetica,sans-Serif" font-size="10.00" fill="#000000">qcstring.h</text>
</a>
</g>
</g>
<!-- Node1&#45;&gt;Node3 -->
<g id="edge2" class="edge">
<title>Node1&#45;&gt;Node3</title>
<path fill="none" stroke="#63b8ff" d="M192.7909,-384.9319C127.6959,-367.0918 0,-326.7152 0,-284.5 0,-284.5 0,-284.5 0,-229.5 0,-174.2493 180.7133,-138.6549 262.5563,-125.3676"/>
<polygon fill="#63b8ff" stroke="#63b8ff" points="263.1679,-128.8144 272.4931,-123.7854 262.0671,-121.9015 263.1679,-128.8144"/>
</g>
<!-- Node13 -->
<g id="node13" class="node">
<title>Node13</title>
<g id="a_node13"><a xlink:href="../../d1/da6/classdef_8h.html" target="_top" xlink:title=" ">
<polygon fill="#ffffff" stroke="#666666" points="261,-349 199,-349 199,-330 261,-330 261,-349"/>
<text text-anchor="middle" x="230" y="-337" font-family="Helvetica,sans-Serif" font-size="10.00" fill="#000000">classdef.h</text>
</a>
</g>
</g>
<!-- Node1&#45;&gt;Node13 -->
<g id="edge14" class="edge">
<title>Node1&#45;&gt;Node13</title>
<path fill="none" stroke="#63b8ff" d="M230,-384.9197C230,-377.9083 230,-368.1442 230,-359.4652"/>
<polygon fill="#63b8ff" stroke="#63b8ff" points="233.5001,-359.3408 230,-349.3408 226.5001,-359.3409 233.5001,-359.3408"/>
</g>
<!-- Node4 -->
<g id="node4" class="node">
<title>Node4</title>
<g id="a_node4"><a xlink:title=" ">
<polygon fill="#e0e0e0" stroke="#999999" points="424.5,-19 383.5,-19 383.5,0 424.5,0 424.5,-19"/>
<text text-anchor="middle" x="404" y="-7" font-family="Helvetica,sans-Serif" font-size="10.00" fill="#000000">string</text>
</a>
</g>
</g>
<!-- Node3&#45;&gt;Node4 -->
<g id="edge3" class="edge">
<title>Node3&#45;&gt;Node4</title>
<path fill="none" stroke="#63b8ff" d="M319.8875,-109.9075C333.9352,-101.731 353.3398,-88.9471 367,-74 379.3531,-60.4831 389.3761,-42.1434 395.8587,-28.475"/>
<polygon fill="#63b8ff" stroke="#63b8ff" points="399.1713,-29.6441 400.1058,-19.0906 392.794,-26.7579 399.1713,-29.6441"/>
</g>
<!-- Node5 -->
<g id="node5" class="node">
<title>Node5</title>
<g id="a_node5"><a xlink:title=" ">
<polygon fill="#e0e0e0" stroke="#999999" points="632,-74 576,-74 576,-55 632,-55 632,-74"/>
<text text-anchor="middle" x="604" y="-62" font-family="Helvetica,sans-Serif" font-size="10.00" fill="#000000">algorithm</text>
</a>
</g>
</g>
<!-- Node3&#45;&gt;Node5 -->
<g id="edge4" class="edge">
<title>Node3&#45;&gt;Node5</title>
<path fill="none" stroke="#63b8ff" d="M331.9296,-114.6763C387.9967,-105.5912 507.7671,-85.9403 565.9812,-74.0524"/>
<polygon fill="#63b8ff" stroke="#63b8ff" points="566.7052,-77.4768 575.7741,-71.999 565.2687,-70.6258 566.7052,-77.4768"/>
</g>
<!-- Node6 -->
<g id="node6" class="node">
<title>Node6</title>
<g id="a_node6"><a xlink:title=" ">
<polygon fill="#e0e0e0" stroke="#999999" points="558,-74 512,-74 512,-55 558,-55 558,-74"/>
<text text-anchor="middle" x="535" y="-62" font-family="Helvetica,sans-Serif" font-size="10.00" fill="#000000">cctype</text>
</a>
</g>
</g>
<!-- Node3&#45;&gt;Node6 -->
<g id="edge5" class="edge">
<title>Node3&#45;&gt;Node6</title>
<path fill="none" stroke="#63b8ff" d="M331.6036,-112.8529C370.0257,-104.174 439.1249,-88.3899 498,-74 499.2683,-73.69 500.5604,-73.3715 501.8651,-73.0476"/>
<polygon fill="#63b8ff" stroke="#63b8ff" points="503.0865,-76.3493 511.9282,-70.512 501.3761,-69.5615 503.0865,-76.3493"/>
</g>
<!-- Node7 -->
<g id="node7" class="node">
<title>Node7</title>
<g id="a_node7"><a xlink:title=" ">
<polygon fill="#e0e0e0" stroke="#999999" points="163,-74 117,-74 117,-55 163,-55 163,-74"/>
<text text-anchor="middle" x="140" y="-62" font-family="Helvetica,sans-Serif" font-size="10.00" fill="#000000">cstring</text>
</a>
</g>
</g>
<!-- Node3&#45;&gt;Node7 -->
<g id="edge6" class="edge">
<title>Node3&#45;&gt;Node7</title>
<path fill="none" stroke="#63b8ff" d="M273.7818,-109.9197C245.6016,-100.3524 202.3248,-85.6596 172.6711,-75.592"/>
<polygon fill="#63b8ff" stroke="#63b8ff" points="173.7727,-72.2699 163.1784,-72.3692 171.5223,-78.8983 173.7727,-72.2699"/>
</g>
<!-- Node8 -->
<g id="node8" class="node">
<title>Node8</title>
<g id="a_node8"><a xlink:title=" ">
<polygon fill="#e0e0e0" stroke="#999999" points="224.5,-74 181.5,-74 181.5,-55 224.5,-55 224.5,-74"/>
<text text-anchor="middle" x="203" y="-62" font-family="Helvetica,sans-Serif" font-size="10.00" fill="#000000">cstdio</text>
</a>
</g>
</g>
<!-- Node3&#45;&gt;Node8 -->
<g id="edge7" class="edge">
<title>Node3&#45;&gt;Node8</title>
<path fill="none" stroke="#63b8ff" d="M284.7555,-109.9197C269.5174,-101.4541 247.056,-88.9755 229.5304,-79.2391"/>
<polygon fill="#63b8ff" stroke="#63b8ff" points="230.8204,-75.9519 220.379,-74.155 227.4209,-82.0711 230.8204,-75.9519"/>
</g>
<!-- Node9 -->
<g id="node9" class="node">
<title>Node9</title>
<g id="a_node9"><a xlink:title=" ">
<polygon fill="#e0e0e0" stroke="#999999" points="287.5,-74 242.5,-74 242.5,-55 287.5,-55 287.5,-74"/>
<text text-anchor="middle" x="265" y="-62" font-family="Helvetica,sans-Serif" font-size="10.00" fill="#000000">cstdlib</text>
</a>
</g>
</g>
<!-- Node3&#45;&gt;Node9 -->
<g id="edge8" class="edge">
<title>Node3&#45;&gt;Node9</title>
<path fill="none" stroke="#63b8ff" d="M295.5551,-109.9197C290.5239,-102.4409 283.3857,-91.8301 277.2739,-82.745"/>
<polygon fill="#63b8ff" stroke="#63b8ff" points="280.106,-80.6844 271.6202,-74.3408 274.298,-84.5917 280.106,-80.6844"/>
</g>
<!-- Node10 -->
<g id="node10" class="node">
<title>Node10</title>
<g id="a_node10"><a xlink:title=" ">
<polygon fill="#e0e0e0" stroke="#999999" points="498,-19 452,-19 452,0 498,0 498,-19"/>
<text text-anchor="middle" x="475" y="-7" font-family="Helvetica,sans-Serif" font-size="10.00" fill="#000000">cstdint</text>
</a>
</g>
</g>
<!-- Node3&#45;&gt;Node10 -->
<g id="edge9" class="edge">
<title>Node3&#45;&gt;Node10</title>
<path fill="none" stroke="#63b8ff" d="M331.5757,-115.135C373.5814,-108.3139 447.3926,-93.826 465,-74 475.6873,-61.966 477.5939,-43.4312 477.1733,-29.3132"/>
<polygon fill="#63b8ff" stroke="#63b8ff" points="480.6514,-28.877 476.4604,-19.1464 473.6686,-29.3667 480.6514,-28.877"/>
</g>
<!-- Node11 -->
<g id="node11" class="node">
<title>Node11</title>
<g id="a_node11"><a xlink:title=" ">
<polygon fill="#e0e0e0" stroke="#999999" points="358,-74 306,-74 306,-55 358,-55 358,-74"/>
<text text-anchor="middle" x="332" y="-62" font-family="Helvetica,sans-Serif" font-size="10.00" fill="#000000">ostream</text>
</a>
</g>
</g>
<!-- Node3&#45;&gt;Node11 -->
<g id="edge10" class="edge">
<title>Node3&#45;&gt;Node11</title>
<path fill="none" stroke="#63b8ff" d="M307.2256,-109.9197C311.22,-102.5967 316.8522,-92.2709 321.7374,-83.3147"/>
<polygon fill="#63b8ff" stroke="#63b8ff" points="324.9163,-84.7958 326.6323,-74.3408 318.7711,-81.4438 324.9163,-84.7958"/>
</g>
<!-- Node12 -->
<g id="node12" class="node">
<title>Node12</title>
<g id="a_node12"><a xlink:href="../../db/d7c/utf8_8h.html" target="_top" xlink:title="Various UTF8 related helper functions.">
<polygon fill="#ffffff" stroke="#666666" points="455.5,-74 414.5,-74 414.5,-55 455.5,-55 455.5,-74"/>
<text text-anchor="middle" x="435" y="-62" font-family="Helvetica,sans-Serif" font-size="10.00" fill="#000000">utf8.h</text>
</a>
</g>
</g>
<!-- Node3&#45;&gt;Node12 -->
<g id="edge11" class="edge">
<title>Node3&#45;&gt;Node12</title>
<path fill="none" stroke="#63b8ff" d="M325.1668,-109.9197C347.2762,-100.7768 380.7045,-86.953 404.8738,-76.9582"/>
<polygon fill="#63b8ff" stroke="#63b8ff" points="406.3792,-80.1232 414.2826,-73.0673 403.7041,-73.6545 406.3792,-80.1232"/>
</g>
<!-- Node12&#45;&gt;Node4 -->
<g id="edge13" class="edge">
<title>Node12&#45;&gt;Node4</title>
<path fill="none" stroke="#63b8ff" d="M429.6002,-54.9197C425.4727,-47.5967 419.6527,-37.2709 414.6047,-28.3147"/>
<polygon fill="#63b8ff" stroke="#63b8ff" points="417.5059,-26.3338 409.5466,-19.3408 411.4078,-29.7709 417.5059,-26.3338"/>
</g>
<!-- Node12&#45;&gt;Node10 -->
<g id="edge12" class="edge">
<title>Node12&#45;&gt;Node10</title>
<path fill="none" stroke="#63b8ff" d="M441.9675,-54.9197C447.4633,-47.363 455.2846,-36.6087 461.937,-27.4616"/>
<polygon fill="#63b8ff" stroke="#63b8ff" points="464.7919,-29.4868 467.843,-19.3408 459.1307,-25.3696 464.7919,-29.4868"/>
</g>
<!-- Node14 -->
<g id="node14" class="node">
<title>Node14</title>
<g id="a_node14"><a xlink:title=" ">
<polygon fill="#e0e0e0" stroke="#999999" points="416,-129 372,-129 372,-110 416,-110 416,-129"/>
<text text-anchor="middle" x="394" y="-117" font-family="Helvetica,sans-Serif" font-size="10.00" fill="#000000">vector</text>
</a>
</g>
</g>
<!-- Node13&#45;&gt;Node14 -->
<g id="edge15" class="edge">
<title>Node13&#45;&gt;Node14</title>
<path fill="none" stroke="#63b8ff" d="M202.6067,-329.8945C153.0665,-311.0663 57.0793,-267.0259 95,-220 142.3882,-161.2333 189.6433,-208.6452 261,-184 299.8859,-170.5696 342.2258,-148.6662 368.4445,-134.1684"/>
<polygon fill="#63b8ff" stroke="#63b8ff" points="370.3209,-137.1292 377.3384,-129.1916 366.9026,-131.0206 370.3209,-137.1292"/>
</g>
<!-- Node15 -->
<g id="node15" class="node">
<title>Node15</title>
<g id="a_node15"><a xlink:title=" ">
<polygon fill="#e0e0e0" stroke="#999999" points="134,-239 104,-239 104,-220 134,-220 134,-239"/>
<text text-anchor="middle" x="119" y="-227" font-family="Helvetica,sans-Serif" font-size="10.00" fill="#000000">set</text>
</a>
</g>
</g>
<!-- Node13&#45;&gt;Node15 -->
<g id="edge16" class="edge">
<title>Node13&#45;&gt;Node15</title>
<path fill="none" stroke="#63b8ff" d="M220.1495,-329.7382C201.177,-310.9367 159.3689,-269.5052 135.8756,-246.2236"/>
<polygon fill="#63b8ff" stroke="#63b8ff" points="138.2366,-243.6358 128.6699,-239.0828 133.3093,-248.6079 138.2366,-243.6358"/>
</g>
<!-- Node16 -->
<g id="node16" class="node">
<title>Node16</title>
<g id="a_node16"><a xlink:href="../../d5/d75/containers_8h.html" target="_top" xlink:title=" ">
<polygon fill="#ffffff" stroke="#666666" points="303,-294 233,-294 233,-275 303,-275 303,-294"/>
<text text-anchor="middle" x="268" y="-282" font-family="Helvetica,sans-Serif" font-size="10.00" fill="#000000">containers.h</text>
</a>
</g>
</g>
<!-- Node13&#45;&gt;Node16 -->
<g id="edge17" class="edge">
<title>Node13&#45;&gt;Node16</title>
<path fill="none" stroke="#63b8ff" d="M236.6191,-329.9197C241.7863,-322.4409 249.1174,-311.8301 255.3944,-302.745"/>
<polygon fill="#63b8ff" stroke="#63b8ff" points="258.3961,-304.5577 261.2009,-294.3408 252.637,-300.5786 258.3961,-304.5577"/>
</g>
<!-- Node21 -->
<g id="node21" class="node">
<title>Node21</title>
<g id="a_node21"><a xlink:href="../../df/da1/definition_8h.html" target="_top" xlink:title=" ">
<polygon fill="#ffffff" stroke="#666666" points="452,-294 388,-294 388,-275 452,-275 452,-294"/>
<text text-anchor="middle" x="420" y="-282" font-family="Helvetica,sans-Serif" font-size="10.00" fill="#000000">definition.h</text>
</a>
</g>
</g>
<!-- Node13&#45;&gt;Node21 -->
<g id="edge25" class="edge">
<title>Node13&#45;&gt;Node21</title>
<path fill="none" stroke="#63b8ff" d="M261.3746,-330.4179C293.2239,-321.1984 342.7307,-306.8674 377.9593,-296.6697"/>
<polygon fill="#63b8ff" stroke="#63b8ff" points="379.3113,-299.9221 387.9437,-293.7795 377.3648,-293.1981 379.3113,-299.9221"/>
</g>
<!-- Node25 -->
<g id="node25" class="node">
<title>Node25</title>
<g id="a_node25"><a xlink:href="../../df/d9b/arguments_8h.html" target="_top" xlink:title=" ">
<polygon fill="#ffffff" stroke="#666666" points="251.5,-184 180.5,-184 180.5,-165 251.5,-165 251.5,-184"/>
<text text-anchor="middle" x="216" y="-172" font-family="Helvetica,sans-Serif" font-size="10.00" fill="#000000">arguments.h</text>
</a>
</g>
</g>
<!-- Node13&#45;&gt;Node25 -->
<g id="edge42" class="edge">
<title>Node13&#45;&gt;Node25</title>
<path fill="none" stroke="#63b8ff" d="M198.7412,-335.5612C154.8693,-329.3183 78.5267,-315.598 62,-294 42.0136,-267.8806 42.3126,-246.3455 62,-220 75.0768,-202.5007 129.857,-189.375 170.3797,-181.8262"/>
<polygon fill="#63b8ff" stroke="#63b8ff" points="171.1217,-185.2489 180.3408,-180.0279 169.8781,-178.3603 171.1217,-185.2489"/>
</g>
<!-- Node26 -->
<g id="node26" class="node">
<title>Node26</title>
<g id="a_node26"><a xlink:href="../../d9/d11/membergroup_8h.html" target="_top" xlink:title=" ">
<polygon fill="#ffffff" stroke="#666666" points="606,-294 522,-294 522,-275 606,-275 606,-294"/>
<text text-anchor="middle" x="564" y="-282" font-family="Helvetica,sans-Serif" font-size="10.00" fill="#000000">membergroup.h</text>
</a>
</g>
</g>
<!-- Node13&#45;&gt;Node26 -->
<g id="edge45" class="edge">
<title>Node13&#45;&gt;Node26</title>
<path fill="none" stroke="#63b8ff" d="M261.122,-334.3751C318.5414,-324.9198 441.6835,-304.6419 511.9854,-293.0653"/>
<polygon fill="#63b8ff" stroke="#63b8ff" points="512.6619,-296.5011 521.9603,-291.4227 511.5245,-289.5941 512.6619,-296.5011"/>
</g>
<!-- Node16&#45;&gt;Node4 -->
<g id="edge19" class="edge">
<title>Node16&#45;&gt;Node4</title>
<path fill="none" stroke="#63b8ff" d="M238.6079,-274.8698C220.0647,-267.5286 196.731,-255.7939 181,-239 120.8547,-174.791 50.7101,-121.7691 108,-55 125.1482,-35.0144 300.5452,-18.1646 372.973,-12.0046"/>
<polygon fill="#63b8ff" stroke="#63b8ff" points="373.6049,-15.464 383.2778,-11.1415 373.0206,-8.4884 373.6049,-15.464"/>
</g>
<!-- Node16&#45;&gt;Node14 -->
<g id="edge18" class="edge">
<title>Node16&#45;&gt;Node14</title>
<path fill="none" stroke="#63b8ff" d="M288.2731,-274.9413C303.2947,-267.0314 323.4305,-254.5827 337,-239 363.2983,-208.7999 380.2012,-164.3598 388.317,-139.0483"/>
<polygon fill="#63b8ff" stroke="#63b8ff" points="391.7586,-139.7629 391.3446,-129.1761 385.0663,-137.7104 391.7586,-139.7629"/>
</g>
<!-- Node16&#45;&gt;Node15 -->
<g id="edge20" class="edge">
<title>Node16&#45;&gt;Node15</title>
<path fill="none" stroke="#63b8ff" d="M242.0462,-274.9197C214.3953,-264.713 170.9415,-248.673 143.7572,-238.6386"/>
<polygon fill="#63b8ff" stroke="#63b8ff" points="144.7954,-235.291 134.2021,-235.1115 142.3713,-241.8579 144.7954,-235.291"/>
</g>
<!-- Node17 -->
<g id="node17" class="node">
<title>Node17</title>
<g id="a_node17"><a xlink:title=" ">
<polygon fill="#e0e0e0" stroke="#999999" points="495.5,-239 460.5,-239 460.5,-220 495.5,-220 495.5,-239"/>
<text text-anchor="middle" x="478" y="-227" font-family="Helvetica,sans-Serif" font-size="10.00" fill="#000000">map</text>
</a>
</g>
</g>
<!-- Node16&#45;&gt;Node17 -->
<g id="edge21" class="edge">
<title>Node16&#45;&gt;Node17</title>
<path fill="none" stroke="#63b8ff" d="M303.23,-275.9173C339.2161,-267.0514 396.6531,-252.6265 446,-239 447.4664,-238.5951 448.9685,-238.1733 450.4836,-237.7424"/>
<polygon fill="#63b8ff" stroke="#63b8ff" points="451.8059,-241.0029 460.4296,-234.848 449.8499,-234.2817 451.8059,-241.0029"/>
</g>
<!-- Node18 -->
<g id="node18" class="node">
<title>Node18</title>
<g id="a_node18"><a xlink:title=" ">
<polygon fill="#e0e0e0" stroke="#999999" points="268,-239 190,-239 190,-220 268,-220 268,-239"/>
<text text-anchor="middle" x="229" y="-227" font-family="Helvetica,sans-Serif" font-size="10.00" fill="#000000">unordered_set</text>
</a>
</g>
</g>
<!-- Node16&#45;&gt;Node18 -->
<g id="edge22" class="edge">
<title>Node16&#45;&gt;Node18</title>
<path fill="none" stroke="#63b8ff" d="M261.2067,-274.9197C255.9035,-267.4409 248.3796,-256.8301 241.9373,-247.745"/>
<polygon fill="#63b8ff" stroke="#63b8ff" points="244.6174,-245.4737 235.978,-239.3408 238.9073,-249.5227 244.6174,-245.4737"/>
</g>
<!-- Node19 -->
<g id="node19" class="node">
<title>Node19</title>
<g id="a_node19"><a xlink:title=" ">
<polygon fill="#e0e0e0" stroke="#999999" points="542.5,-129 459.5,-129 459.5,-110 542.5,-110 542.5,-129"/>
<text text-anchor="middle" x="501" y="-117" font-family="Helvetica,sans-Serif" font-size="10.00" fill="#000000">unordered_map</text>
</a>
</g>
</g>
<!-- Node16&#45;&gt;Node19 -->
<g id="edge23" class="edge">
<title>Node16&#45;&gt;Node19</title>
<path fill="none" stroke="#63b8ff" d="M289.9608,-274.9242C308.4445,-266.4821 335.2644,-253.3227 357,-239 405.9562,-206.7404 457.4511,-160.5769 483.576,-136.1446"/>
<polygon fill="#63b8ff" stroke="#63b8ff" points="486.2566,-138.4277 491.1313,-129.0208 481.4544,-133.3346 486.2566,-138.4277"/>
</g>
<!-- Node20 -->
<g id="node20" class="node">
<title>Node20</title>
<g id="a_node20"><a xlink:title=" ">
<polygon fill="#e0e0e0" stroke="#999999" points="327.5,-239 286.5,-239 286.5,-220 327.5,-220 327.5,-239"/>
<text text-anchor="middle" x="307" y="-227" font-family="Helvetica,sans-Serif" font-size="10.00" fill="#000000">stack</text>
</a>
</g>
</g>
<!-- Node16&#45;&gt;Node20 -->
<g id="edge24" class="edge">
<title>Node16&#45;&gt;Node20</title>
<path fill="none" stroke="#63b8ff" d="M274.7933,-274.9197C280.0965,-267.4409 287.6204,-256.8301 294.0627,-247.745"/>
<polygon fill="#63b8ff" stroke="#63b8ff" points="297.0927,-249.5227 300.022,-239.3408 291.3826,-245.4737 297.0927,-249.5227"/>
</g>
<!-- Node21&#45;&gt;Node14 -->
<g id="edge26" class="edge">
<title>Node21&#45;&gt;Node14</title>
<path fill="none" stroke="#63b8ff" d="M418.4514,-274.6726C414.2688,-248.1291 402.6838,-174.6086 397.0948,-139.1401"/>
<polygon fill="#63b8ff" stroke="#63b8ff" points="400.5218,-138.4025 395.5079,-129.0692 393.6072,-139.4921 400.5218,-138.4025"/>
</g>
<!-- Node22 -->
<g id="node22" class="node">
<title>Node22</title>
<g id="a_node22"><a xlink:href="../../d9/d49/types_8h.html" target="_top" xlink:title="This file contains a number of basic enums and types.">
<polygon fill="#ffffff" stroke="#666666" points="562.5,-239 513.5,-239 513.5,-220 562.5,-220 562.5,-239"/>
<text text-anchor="middle" x="538" y="-227" font-family="Helvetica,sans-Serif" font-size="10.00" fill="#000000">types.h</text>
</a>
</g>
</g>
<!-- Node21&#45;&gt;Node22 -->
<g id="edge27" class="edge">
<title>Node21&#45;&gt;Node22</title>
<path fill="none" stroke="#63b8ff" d="M440.554,-274.9197C459.2212,-266.219 486.9828,-253.2792 508.1047,-243.4343"/>
<polygon fill="#63b8ff" stroke="#63b8ff" points="509.7004,-246.5521 517.2856,-239.155 506.7431,-240.2074 509.7004,-246.5521"/>
</g>
<!-- Node23 -->
<g id="node23" class="node">
<title>Node23</title>
<g id="a_node23"><a xlink:href="../../d1/d02/reflist_8h.html" target="_top" xlink:title=" ">
<polygon fill="#ffffff" stroke="#666666" points="668.5,-239 619.5,-239 619.5,-220 668.5,-220 668.5,-239"/>
<text text-anchor="middle" x="644" y="-227" font-family="Helvetica,sans-Serif" font-size="10.00" fill="#000000">reflist.h</text>
</a>
</g>
</g>
<!-- Node21&#45;&gt;Node23 -->
<g id="edge29" class="edge">
<title>Node21&#45;&gt;Node23</title>
<path fill="none" stroke="#63b8ff" d="M452.0937,-276.6198C493.8676,-266.3629 566.5869,-248.5077 609.5075,-237.9691"/>
<polygon fill="#63b8ff" stroke="#63b8ff" points="610.3475,-241.3669 619.2244,-235.5833 608.6782,-234.5689 610.3475,-241.3669"/>
</g>
<!-- Node22&#45;&gt;Node3 -->
<g id="edge28" class="edge">
<title>Node22&#45;&gt;Node3</title>
<path fill="none" stroke="#63b8ff" d="M513.2462,-221.8764C510.4806,-221.1734 507.6911,-220.5283 505,-220 431.7459,-205.6203 220.8785,-239.5435 171,-184 141.2717,-150.8952 213.8849,-132.8655 262.4814,-124.8008"/>
<polygon fill="#63b8ff" stroke="#63b8ff" points="263.1091,-128.2452 272.4414,-123.2293 262.018,-121.3307 263.1091,-128.2452"/>
</g>
<!-- Node23&#45;&gt;Node2 -->
<g id="edge32" class="edge">
<title>Node23&#45;&gt;Node2</title>
<path fill="none" stroke="#63b8ff" d="M650.212,-219.7382C661.9166,-201.3454 687.4026,-161.2959 702.3754,-137.7673"/>
<polygon fill="#63b8ff" stroke="#63b8ff" points="705.4859,-139.3985 707.9018,-129.0828 699.5802,-135.6404 705.4859,-139.3985"/>
</g>
<!-- Node23&#45;&gt;Node3 -->
<g id="edge33" class="edge">
<title>Node23&#45;&gt;Node3</title>
<path fill="none" stroke="#63b8ff" d="M619.4185,-222.2082C589.8296,-213.3816 538.6675,-197.9615 495,-184 440.7879,-166.6671 378.3741,-145.6057 339.5512,-132.373"/>
<polygon fill="#63b8ff" stroke="#63b8ff" points="340.3257,-128.9391 329.7312,-129.0213 338.0646,-135.5639 340.3257,-128.9391"/>
</g>
<!-- Node23&#45;&gt;Node14 -->
<g id="edge30" class="edge">
<title>Node23&#45;&gt;Node14</title>
<path fill="none" stroke="#63b8ff" d="M622.0776,-219.9361C601.0234,-210.7446 568.3249,-196.4527 540,-184 500.3438,-166.5656 454.6766,-146.3719 425.1276,-133.2902"/>
<polygon fill="#63b8ff" stroke="#63b8ff" points="426.3173,-129.9893 415.7565,-129.1407 423.4831,-136.3899 426.3173,-129.9893"/>
</g>
<!-- Node23&#45;&gt;Node19 -->
<g id="edge31" class="edge">
<title>Node23&#45;&gt;Node19</title>
<path fill="none" stroke="#63b8ff" d="M624.5492,-219.9235C608.2253,-211.481 584.652,-198.3213 566,-184 547.4127,-169.7284 528.6799,-150.507 516.1318,-136.7679"/>
<polygon fill="#63b8ff" stroke="#63b8ff" points="518.4584,-134.1201 509.1746,-129.015 513.2485,-138.7953 518.4584,-134.1201"/>
</g>
<!-- Node24 -->
<g id="node24" class="node">
<title>Node24</title>
<g id="a_node24"><a xlink:href="../../da/de1/linkedmap_8h.html" target="_top" xlink:title=" ">
<polygon fill="#ffffff" stroke="#666666" points="643.5,-184 574.5,-184 574.5,-165 643.5,-165 643.5,-184"/>
<text text-anchor="middle" x="609" y="-172" font-family="Helvetica,sans-Serif" font-size="10.00" fill="#000000">linkedmap.h</text>
</a>
</g>
</g>
<!-- Node23&#45;&gt;Node24 -->
<g id="edge34" class="edge">
<title>Node23&#45;&gt;Node24</title>
<path fill="none" stroke="#63b8ff" d="M637.9035,-219.9197C633.1938,-212.5188 626.5324,-202.0509 620.7914,-193.0294"/>
<polygon fill="#63b8ff" stroke="#63b8ff" points="623.584,-190.8984 615.2623,-184.3408 617.6783,-194.6565 623.584,-190.8984"/>
</g>
<!-- Node24&#45;&gt;Node2 -->
<g id="edge37" class="edge">
<title>Node24&#45;&gt;Node2</title>
<path fill="none" stroke="#63b8ff" d="M627.2896,-164.9197C643.6757,-156.3365 667.9372,-143.6281 686.6331,-133.8351"/>
<polygon fill="#63b8ff" stroke="#63b8ff" points="688.3334,-136.8956 695.5677,-129.155 685.0853,-130.6947 688.3334,-136.8956"/>
</g>
<!-- Node24&#45;&gt;Node3 -->
<g id="edge41" class="edge">
<title>Node24&#45;&gt;Node3</title>
<path fill="none" stroke="#63b8ff" d="M574.38,-168.2977C517.0121,-158.0201 402.5637,-137.5163 341.8944,-126.6472"/>
<polygon fill="#63b8ff" stroke="#63b8ff" points="342.3869,-123.1798 331.9264,-124.8614 341.1525,-130.0701 342.3869,-123.1798"/>
</g>
<!-- Node24&#45;&gt;Node4 -->
<g id="edge38" class="edge">
<title>Node24&#45;&gt;Node4</title>
<path fill="none" stroke="#63b8ff" d="M616.6268,-164.912C633.1585,-142.9096 668.6609,-88.1437 641,-55 612.3449,-20.6651 486.7445,-28.2961 443,-19 440.1882,-18.4025 437.2699,-17.7508 434.3525,-17.078"/>
<polygon fill="#63b8ff" stroke="#63b8ff" points="435.1314,-13.6657 424.5929,-14.7571 433.5118,-20.4758 435.1314,-13.6657"/>
</g>
<!-- Node24&#45;&gt;Node5 -->
<g id="edge39" class="edge">
<title>Node24&#45;&gt;Node5</title>
<path fill="none" stroke="#63b8ff" d="M608.5563,-164.7382C607.7388,-146.7541 605.9802,-108.0652 604.9027,-84.3599"/>
<polygon fill="#63b8ff" stroke="#63b8ff" points="608.3861,-83.9136 604.4356,-74.0828 601.3934,-84.2315 608.3861,-83.9136"/>
</g>
<!-- Node24&#45;&gt;Node6 -->
<g id="edge40" class="edge">
<title>Node24&#45;&gt;Node6</title>
<path fill="none" stroke="#63b8ff" d="M602.433,-164.7382C590.0046,-146.2636 562.8774,-105.9395 547.0785,-82.4546"/>
<polygon fill="#63b8ff" stroke="#63b8ff" points="549.9325,-80.4264 541.4466,-74.0828 544.1244,-84.3337 549.9325,-80.4264"/>
</g>
<!-- Node24&#45;&gt;Node14 -->
<g id="edge36" class="edge">
<title>Node24&#45;&gt;Node14</title>
<path fill="none" stroke="#63b8ff" d="M574.4565,-165.6633C533.5078,-155.188 465.8178,-137.872 426.011,-127.6888"/>
<polygon fill="#63b8ff" stroke="#63b8ff" points="426.8409,-124.2885 416.2854,-125.2009 425.106,-131.0701 426.8409,-124.2885"/>
</g>
<!-- Node24&#45;&gt;Node19 -->
<g id="edge35" class="edge">
<title>Node24&#45;&gt;Node19</title>
<path fill="none" stroke="#63b8ff" d="M590.1878,-164.9197C573.2566,-156.2973 548.1508,-143.512 528.8858,-133.7011"/>
<polygon fill="#63b8ff" stroke="#63b8ff" points="530.4583,-130.5742 519.959,-129.155 527.2817,-136.812 530.4583,-130.5742"/>
</g>
<!-- Node25&#45;&gt;Node3 -->
<g id="edge44" class="edge">
<title>Node25&#45;&gt;Node3</title>
<path fill="none" stroke="#63b8ff" d="M230.9801,-164.9197C243.9721,-156.6109 263.0086,-144.4363 278.1032,-134.7828"/>
<polygon fill="#63b8ff" stroke="#63b8ff" points="280.3643,-137.4914 286.9031,-129.155 276.5928,-131.5942 280.3643,-137.4914"/>
</g>
<!-- Node25&#45;&gt;Node14 -->
<g id="edge43" class="edge">
<title>Node25&#45;&gt;Node14</title>
<path fill="none" stroke="#63b8ff" d="M247.0052,-164.9197C279.1818,-154.9775 329.2713,-139.5004 361.8611,-129.4306"/>
<polygon fill="#63b8ff" stroke="#63b8ff" points="363.2614,-132.6612 371.7824,-126.365 361.1948,-125.9732 363.2614,-132.6612"/>
</g>
<!-- Node26&#45;&gt;Node2 -->
<g id="edge48" class="edge">
<title>Node26&#45;&gt;Node2</title>
<path fill="none" stroke="#63b8ff" d="M606.0617,-277.1258C630.1779,-270.8376 659.283,-259.4235 678,-239 703.632,-211.0311 711.0424,-165.4208 713.1661,-139.3839"/>
<polygon fill="#63b8ff" stroke="#63b8ff" points="716.67,-139.4311 713.8036,-129.2314 709.6837,-138.9924 716.67,-139.4311"/>
</g>
<!-- Node26&#45;&gt;Node14 -->
<g id="edge46" class="edge">
<title>Node26&#45;&gt;Node14</title>
<path fill="none" stroke="#63b8ff" d="M568.7786,-274.9046C574.7033,-261.509 582.7832,-236.945 572,-220 551.718,-188.1283 528.1017,-202.2055 495,-184 467.0183,-168.6104 436.2821,-148.488 416.1538,-134.8406"/>
<polygon fill="#63b8ff" stroke="#63b8ff" points="417.9317,-131.8164 407.7001,-129.066 413.9833,-137.5966 417.9317,-131.8164"/>
</g>
<!-- Node26&#45;&gt;Node17 -->
<g id="edge47" class="edge">
<title>Node26&#45;&gt;Node17</title>
<path fill="none" stroke="#63b8ff" d="M549.0199,-274.9197C536.0279,-266.6109 516.9914,-254.4363 501.8968,-244.7828"/>
<polygon fill="#63b8ff" stroke="#63b8ff" points="503.4072,-241.5942 493.0969,-239.155 499.6357,-247.4914 503.4072,-241.5942"/>
</g>
<!-- Node26&#45;&gt;Node22 -->
<g id="edge49" class="edge">
<title>Node26&#45;&gt;Node22</title>
<path fill="none" stroke="#63b8ff" d="M559.4711,-274.9197C556.0462,-267.6746 551.2318,-257.4903 547.0296,-248.601"/>
<polygon fill="#63b8ff" stroke="#63b8ff" points="550.0901,-246.8857 542.652,-239.3408 543.7616,-249.8774 550.0901,-246.8857"/>
</g>
<!-- Node26&#45;&gt;Node23 -->
<g id="edge50" class="edge">
<title>Node26&#45;&gt;Node23</title>
<path fill="none" stroke="#63b8ff" d="M577.9349,-274.9197C589.9065,-266.6893 607.3953,-254.6657 621.3721,-245.0567"/>
<polygon fill="#63b8ff" stroke="#63b8ff" points="623.6988,-247.7045 629.9563,-239.155 619.733,-241.9362 623.6988,-247.7045"/>
</g>
</g>
</svg>
        <g id="navigator" transform="translate(0 0)" fill="#404254">
                <rect fill="#f2f5e9" fill-opacity="0.5" stroke="#606060" stroke-width=".5" x="0" y="0" width="60" height="60"/>
                <use id="zoomplus" xlink:href="#zoomPlus" x="17" y="9" onmousedown="handleZoom(evt,'in')"/>
                <use id="zoomminus" xlink:href="#zoomMin" x="42" y="9" onmousedown="handleZoom(evt,'out')"/>
                <use id="reset" xlink:href="#resetDef" x="30" y="36" onmousedown="handleReset()"/>
                <g id="arrowUp" xlink:href="#dirArrow" transform="translate(30 24)" onmousedown="handlePan(0,-1)">
                  <use xlink:href="#rim" fill="#404040">
                        <set attributeName="fill" to="#808080" begin="arrowUp.mouseover" end="arrowUp.mouseout"/>
                  </use>
                  <path fill="none" stroke="white" stroke-width="1.5" d="M0,-3.0v7 M-2.5,-0.5L0,-3.0L2.5,-0.5"/>
                </g>
                <g id="arrowRight" xlink:href="#dirArrow" transform="rotate(90) translate(36 -43)" onmousedown="handlePan(1,0)">
                  <use xlink:href="#rim" fill="#404040">
                        <set attributeName="fill" to="#808080" begin="arrowRight.mouseover" end="arrowRight.mouseout"/>
                  </use>
                  <path fill="none" stroke="white" stroke-width="1.5" d="M0,-3.0v7 M-2.5,-0.5L0,-3.0L2.5,-0.5"/>
                </g>
                <g id="arrowDown" xlink:href="#dirArrow" transform="rotate(180) translate(-30 -48)" onmousedown="handlePan(0,1)">
                  <use xlink:href="#rim" fill="#404040">
                        <set attributeName="fill" to="#808080" begin="arrowDown.mouseover" end="arrowDown.mouseout"/>
                  </use>
                  <path fill="none" stroke="white" stroke-width="1.5" d="M0,-3.0v7 M-2.5,-0.5L0,-3.0L2.5,-0.5"/>
                </g>
                <g id="arrowLeft" xlink:href="#dirArrow" transform="rotate(270) translate(-36 17)" onmousedown="handlePan(-1,0)">
                  <use xlink:href="#rim" fill="#404040">
                        <set attributeName="fill" to="#808080" begin="arrowLeft.mouseover" end="arrowLeft.mouseout"/>
                  </use>
                  <path fill="none" stroke="white" stroke-width="1.5" d="M0,-3.0v7 M-2.5,-0.5L0,-3.0L2.5,-0.5"/>
                </g>
        </g>
        <svg viewBox="0 0 15 15" width="100%" height="30px" preserveAspectRatio="xMaxYMin meet">
         <g id="arrow_out" transform="scale(0.3 0.3)">
          <a xlink:href="symbolresolver_8h__incl_org.svg" target="_base">
           <rect id="button" ry="5" rx="5" y="6" x="6" height="38" width="38"
                fill="#f2f5e9" fill-opacity="0.5" stroke="#606060" stroke-width="1.0"/>
           <path id="arrow"
             d="M 11.500037,31.436501 C 11.940474,20.09759 22.043105,11.32322 32.158766,21.979434 L 37.068811,17.246167 C 37.068811,17.246167 37.088388,32 37.088388,32 L 22.160133,31.978069 C 22.160133,31.978069 26.997745,27.140456 26.997745,27.140456 C 18.528582,18.264221 13.291696,25.230495 11.500037,31.436501 z"
             style="fill:#404040;"/>
          </a>
         </g>
        </svg>
</svg>
