<?xml version="1.0" encoding="UTF-8" standalone="no"?>
<!DOCTYPE svg PUBLIC "-//W3C//DTD SVG 1.1//EN"
 "http://www.w3.org/Graphics/SVG/1.1/DTD/svg11.dtd">
<!-- Generated by graphviz version 2.40.1 (20161225.0304)
 -->
<!-- Title: TranslatorVietnamese Pages: 1 -->
<svg width="139pt" height="632pt"
 viewBox="0.00 0.00 139.00 632.00" xmlns="http://www.w3.org/2000/svg" xmlns:xlink="http://www.w3.org/1999/xlink">
<g id="graph0" class="graph" transform="scale(1 1) rotate(0) translate(4 628)">
<title>TranslatorVietnamese</title>
<!-- Node1 -->
<g id="node1" class="node">
<title>Node1</title>
<g id="a_node1"><a xlink:title=" ">
<polygon fill="#999999" stroke="#666666" points="121.5,-19 9.5,-19 9.5,0 121.5,0 121.5,-19"/>
<text text-anchor="middle" x="65.5" y="-7" font-family="Helvetica,sans-Serif" font-size="10.00" fill="#000000">TranslatorVietnamese</text>
</a>
</g>
</g>
<!-- Node2 -->
<g id="node2" class="node">
<title>Node2</title>
<g id="a_node2"><a xlink:href="../../d3/da1/class_translator_adapter__1__6__0.html" target="_top" xlink:title="Adapter class for languages that only contain translations up to version 1.6.0.">
<polygon fill="#ffffff" stroke="#666666" points="128,-74 3,-74 3,-55 128,-55 128,-74"/>
<text text-anchor="middle" x="65.5" y="-62" font-family="Helvetica,sans-Serif" font-size="10.00" fill="#000000">TranslatorAdapter_1_6_0</text>
</a>
</g>
</g>
<!-- Node2&#45;&gt;Node1 -->
<g id="edge1" class="edge">
<title>Node2&#45;&gt;Node1</title>
<path fill="none" stroke="#63b8ff" d="M65.5,-44.8553C65.5,-36.2036 65.5,-26.4195 65.5,-19.3408"/>
<polygon fill="#63b8ff" stroke="#63b8ff" points="62.0001,-44.9197 65.5,-54.9197 69.0001,-44.9198 62.0001,-44.9197"/>
</g>
<!-- Node3 -->
<g id="node3" class="node">
<title>Node3</title>
<g id="a_node3"><a xlink:href="../../da/d24/class_translator_adapter__1__7__5.html" target="_top" xlink:title="Adapter class for languages that only contain translations up to version 1.7.5.">
<polygon fill="#ffffff" stroke="#666666" points="128,-129 3,-129 3,-110 128,-110 128,-129"/>
<text text-anchor="middle" x="65.5" y="-117" font-family="Helvetica,sans-Serif" font-size="10.00" fill="#000000">TranslatorAdapter_1_7_5</text>
</a>
</g>
</g>
<!-- Node3&#45;&gt;Node2 -->
<g id="edge2" class="edge">
<title>Node3&#45;&gt;Node2</title>
<path fill="none" stroke="#63b8ff" d="M65.5,-99.8553C65.5,-91.2036 65.5,-81.4195 65.5,-74.3408"/>
<polygon fill="#63b8ff" stroke="#63b8ff" points="62.0001,-99.9197 65.5,-109.9197 69.0001,-99.9198 62.0001,-99.9197"/>
</g>
<!-- Node4 -->
<g id="node4" class="node">
<title>Node4</title>
<g id="a_node4"><a xlink:href="../../de/d49/class_translator_adapter__1__8__0.html" target="_top" xlink:title="Adapter class for languages that only contain translations up to version 1.8.0.">
<polygon fill="#ffffff" stroke="#666666" points="128,-184 3,-184 3,-165 128,-165 128,-184"/>
<text text-anchor="middle" x="65.5" y="-172" font-family="Helvetica,sans-Serif" font-size="10.00" fill="#000000">TranslatorAdapter_1_8_0</text>
</a>
</g>
</g>
<!-- Node4&#45;&gt;Node3 -->
<g id="edge3" class="edge">
<title>Node4&#45;&gt;Node3</title>
<path fill="none" stroke="#63b8ff" d="M65.5,-154.8553C65.5,-146.2036 65.5,-136.4195 65.5,-129.3408"/>
<polygon fill="#63b8ff" stroke="#63b8ff" points="62.0001,-154.9197 65.5,-164.9197 69.0001,-154.9198 62.0001,-154.9197"/>
</g>
<!-- Node5 -->
<g id="node5" class="node">
<title>Node5</title>
<g id="a_node5"><a xlink:href="../../d2/d75/class_translator_adapter__1__8__2.html" target="_top" xlink:title=" ">
<polygon fill="#ffffff" stroke="#666666" points="128,-239 3,-239 3,-220 128,-220 128,-239"/>
<text text-anchor="middle" x="65.5" y="-227" font-family="Helvetica,sans-Serif" font-size="10.00" fill="#000000">TranslatorAdapter_1_8_2</text>
</a>
</g>
</g>
<!-- Node5&#45;&gt;Node4 -->
<g id="edge4" class="edge">
<title>Node5&#45;&gt;Node4</title>
<path fill="none" stroke="#63b8ff" d="M65.5,-209.8553C65.5,-201.2036 65.5,-191.4195 65.5,-184.3408"/>
<polygon fill="#63b8ff" stroke="#63b8ff" points="62.0001,-209.9197 65.5,-219.9197 69.0001,-209.9198 62.0001,-209.9197"/>
</g>
<!-- Node6 -->
<g id="node6" class="node">
<title>Node6</title>
<g id="a_node6"><a xlink:href="../../de/d2f/class_translator_adapter__1__8__4.html" target="_top" xlink:title=" ">
<polygon fill="#ffffff" stroke="#666666" points="128,-294 3,-294 3,-275 128,-275 128,-294"/>
<text text-anchor="middle" x="65.5" y="-282" font-family="Helvetica,sans-Serif" font-size="10.00" fill="#000000">TranslatorAdapter_1_8_4</text>
</a>
</g>
</g>
<!-- Node6&#45;&gt;Node5 -->
<g id="edge5" class="edge">
<title>Node6&#45;&gt;Node5</title>
<path fill="none" stroke="#63b8ff" d="M65.5,-264.8553C65.5,-256.2036 65.5,-246.4195 65.5,-239.3408"/>
<polygon fill="#63b8ff" stroke="#63b8ff" points="62.0001,-264.9197 65.5,-274.9197 69.0001,-264.9198 62.0001,-264.9197"/>
</g>
<!-- Node7 -->
<g id="node7" class="node">
<title>Node7</title>
<g id="a_node7"><a xlink:href="../../d4/d2e/class_translator_adapter__1__8__15.html" target="_top" xlink:title=" ">
<polygon fill="#ffffff" stroke="#666666" points="131,-349 0,-349 0,-330 131,-330 131,-349"/>
<text text-anchor="middle" x="65.5" y="-337" font-family="Helvetica,sans-Serif" font-size="10.00" fill="#000000">TranslatorAdapter_1_8_15</text>
</a>
</g>
</g>
<!-- Node7&#45;&gt;Node6 -->
<g id="edge6" class="edge">
<title>Node7&#45;&gt;Node6</title>
<path fill="none" stroke="#63b8ff" d="M65.5,-319.8553C65.5,-311.2036 65.5,-301.4195 65.5,-294.3408"/>
<polygon fill="#63b8ff" stroke="#63b8ff" points="62.0001,-319.9197 65.5,-329.9197 69.0001,-319.9198 62.0001,-319.9197"/>
</g>
<!-- Node8 -->
<g id="node8" class="node">
<title>Node8</title>
<g id="a_node8"><a xlink:href="../../de/dde/class_translator_adapter__1__8__19.html" target="_top" xlink:title=" ">
<polygon fill="#ffffff" stroke="#666666" points="131,-404 0,-404 0,-385 131,-385 131,-404"/>
<text text-anchor="middle" x="65.5" y="-392" font-family="Helvetica,sans-Serif" font-size="10.00" fill="#000000">TranslatorAdapter_1_8_19</text>
</a>
</g>
</g>
<!-- Node8&#45;&gt;Node7 -->
<g id="edge7" class="edge">
<title>Node8&#45;&gt;Node7</title>
<path fill="none" stroke="#63b8ff" d="M65.5,-374.8553C65.5,-366.2036 65.5,-356.4195 65.5,-349.3408"/>
<polygon fill="#63b8ff" stroke="#63b8ff" points="62.0001,-374.9197 65.5,-384.9197 69.0001,-374.9198 62.0001,-374.9197"/>
</g>
<!-- Node9 -->
<g id="node9" class="node">
<title>Node9</title>
<g id="a_node9"><a xlink:href="../../d3/d2e/class_translator_adapter__1__9__2.html" target="_top" xlink:title=" ">
<polygon fill="#ffffff" stroke="#666666" points="128,-459 3,-459 3,-440 128,-440 128,-459"/>
<text text-anchor="middle" x="65.5" y="-447" font-family="Helvetica,sans-Serif" font-size="10.00" fill="#000000">TranslatorAdapter_1_9_2</text>
</a>
</g>
</g>
<!-- Node9&#45;&gt;Node8 -->
<g id="edge8" class="edge">
<title>Node9&#45;&gt;Node8</title>
<path fill="none" stroke="#63b8ff" d="M65.5,-429.8553C65.5,-421.2036 65.5,-411.4195 65.5,-404.3408"/>
<polygon fill="#63b8ff" stroke="#63b8ff" points="62.0001,-429.9197 65.5,-439.9197 69.0001,-429.9198 62.0001,-429.9197"/>
</g>
<!-- Node10 -->
<g id="node10" class="node">
<title>Node10</title>
<g id="a_node10"><a xlink:href="../../d0/d33/class_translator_adapter__1__9__4.html" target="_top" xlink:title=" ">
<polygon fill="#ffffff" stroke="#666666" points="128,-514 3,-514 3,-495 128,-495 128,-514"/>
<text text-anchor="middle" x="65.5" y="-502" font-family="Helvetica,sans-Serif" font-size="10.00" fill="#000000">TranslatorAdapter_1_9_4</text>
</a>
</g>
</g>
<!-- Node10&#45;&gt;Node9 -->
<g id="edge9" class="edge">
<title>Node10&#45;&gt;Node9</title>
<path fill="none" stroke="#63b8ff" d="M65.5,-484.8553C65.5,-476.2036 65.5,-466.4195 65.5,-459.3408"/>
<polygon fill="#63b8ff" stroke="#63b8ff" points="62.0001,-484.9197 65.5,-494.9197 69.0001,-484.9198 62.0001,-484.9197"/>
</g>
<!-- Node11 -->
<g id="node11" class="node">
<title>Node11</title>
<g id="a_node11"><a xlink:href="../../db/d6c/class_translator_adapter_base.html" target="_top" xlink:title="Base of the translator adapter tree.">
<polygon fill="#ffffff" stroke="#666666" points="123.5,-569 7.5,-569 7.5,-550 123.5,-550 123.5,-569"/>
<text text-anchor="middle" x="65.5" y="-557" font-family="Helvetica,sans-Serif" font-size="10.00" fill="#000000">TranslatorAdapterBase</text>
</a>
</g>
</g>
<!-- Node11&#45;&gt;Node10 -->
<g id="edge10" class="edge">
<title>Node11&#45;&gt;Node10</title>
<path fill="none" stroke="#63b8ff" d="M65.5,-539.8553C65.5,-531.2036 65.5,-521.4195 65.5,-514.3408"/>
<polygon fill="#63b8ff" stroke="#63b8ff" points="62.0001,-539.9197 65.5,-549.9197 69.0001,-539.9198 62.0001,-539.9197"/>
</g>
<!-- Node12 -->
<g id="node12" class="node">
<title>Node12</title>
<g id="a_node12"><a xlink:href="../../d8/dfb/class_translator.html" target="_top" xlink:title="Abstract base class for all translatable text fragments.">
<polygon fill="#ffffff" stroke="#666666" points="95.5,-624 35.5,-624 35.5,-605 95.5,-605 95.5,-624"/>
<text text-anchor="middle" x="65.5" y="-612" font-family="Helvetica,sans-Serif" font-size="10.00" fill="#000000">Translator</text>
</a>
</g>
</g>
<!-- Node12&#45;&gt;Node11 -->
<g id="edge11" class="edge">
<title>Node12&#45;&gt;Node11</title>
<path fill="none" stroke="#63b8ff" d="M65.5,-594.8553C65.5,-586.2036 65.5,-576.4195 65.5,-569.3408"/>
<polygon fill="#63b8ff" stroke="#63b8ff" points="62.0001,-594.9197 65.5,-604.9197 69.0001,-594.9198 62.0001,-594.9197"/>
</g>
</g>
</svg>
